<?xml version="1.0" encoding="utf-8"?>
<!-- Generator: Adobe Illustrator 24.3.0, SVG Export Plug-In . SVG Version: 6.00 Build 0)  -->
<svg version="1.1" id="Layer_1" xmlns:xodm="http://www.corel.com/coreldraw/odm/2003"
	 xmlns="http://www.w3.org/2000/svg" xmlns:xlink="http://www.w3.org/1999/xlink" x="0px" y="0px" viewBox="0 0 133.8 53.2"
	 style="enable-background:new 0 0 133.8 53.2;" xml:space="preserve">
<style type="text/css">
	.st0{fill:#FEFEFE;}
	.st1{fill:#FFFFFF;stroke:#34302F;stroke-width:9.866178e-02;stroke-miterlimit:10;}
	.st2{fill:#233760;}
	.st3{fill:#1D919F;}
	.st4{fill:#F3C07A;}
	.st5{fill:#A12C2F;}
	.st6{fill:#47BEDB;}
	.st7{fill:#D32424;}
	.st8{fill:#71C6D3;}
	.st9{fill:#E4B630;}
	.st10{fill:#1F6776;}
	.st11{fill:#AF831F;}
</style>
<g id="Layer_x0020_1">
	<g id="_2343451100464">
		<path class="st0" d="M127.9,53.2H5.9c-3.2,0-5.8-2.6-5.8-5.8V5.9C0,2.7,2.7,0,5.9,0h122c3.2,0,5.8,2.6,5.8,5.8v41.4
			C133.7,50.6,131.1,53.2,127.9,53.2z"/>
		<path class="st1" d="M127.9,53.2H5.9c-3.2,0-5.8-2.6-5.8-5.8V5.9C0,2.7,2.7,0,5.9,0h122c3.2,0,5.8,2.6,5.8,5.8v41.4
			C133.7,50.6,131.1,53.2,127.9,53.2z"/>
		<path class="st2" d="M59.8,31.6c3.3,0,5.6-1.8,5.6-4.6c0-2.4-1.6-3.7-4.2-4.9c-1.8-0.8-2.9-1.1-2.9-2.1c0-0.8,0.9-1.5,2-1.5
			c0.9,0,1.7,0.4,2.2,1.3l2.3-1.6c-0.7-1.9-2.4-2.7-4.5-2.7c-2.8,0-5.1,1.8-5.1,4.4c0,2.5,1.9,3.4,3.6,4.3c1.6,0.8,3.5,1.7,3.5,2.8
			c0,0.8-1,1.4-2.4,1.4c-1.3,0-2.3-0.5-3-1.6l-2.5,1.7C55.4,30.6,57.3,31.6,59.8,31.6L59.8,31.6z M82,22.7h-7.2v2.9h4
			c-0.1,1.9-1.7,3-3.9,3c-3,0-5.1-2.2-5.1-4.9c0-2.9,2.4-4.9,4.8-4.9c1.4,0,2.8,0.7,4,1.8l1.7-2.6c-1.5-1.5-3.6-2.4-5.6-2.4
			c-4.4,0-8,3.6-8,8c0,4.4,3.6,8,8.1,8c4,0,7.4-2.8,7.4-7.7C82,23.6,82,23.1,82,22.7L82,22.7z M99,15.5l-7.4,10.2l-7.4-10.2h-0.2
			v15.8h3.1v-6.7l4.4,6.5h0l4.4-6.5v6.7h3.1V15.5L99,15.5L99,15.5z M112.2,31.3h3.4l-7.4-15.8H108l-7.4,15.8h3.3l1-2.2h6.2
			L112.2,31.3L112.2,31.3z M106.2,26.5l1.9-4.1l1.9,4.1H106.2z"/>
		<path class="st3" d="M56.6,36.7c0.2-0.1,0.3-0.2,0.4-0.3c0.1-0.1,0.1-0.3,0.1-0.5c0-0.2,0-0.3-0.1-0.4c-0.1-0.1-0.1-0.2-0.2-0.2
			c-0.1-0.1-0.2-0.1-0.3-0.1c-0.1,0-0.2-0.1-0.4-0.1c-0.1,0-0.2-0.1-0.3-0.1c-0.1,0-0.2-0.1-0.2-0.1c-0.1,0-0.1-0.1-0.1-0.2
			c0-0.1,0-0.1,0.1-0.2c0,0,0.1-0.1,0.2-0.1c0.1,0,0.2,0,0.3,0c0.1,0,0.3,0,0.4,0.1c0.1,0,0.3,0.1,0.4,0.2l0.2-0.5
			c-0.1-0.1-0.3-0.2-0.5-0.2c-0.2,0-0.4-0.1-0.5-0.1c-0.3,0-0.5,0-0.7,0.1c-0.2,0.1-0.3,0.2-0.4,0.3c-0.1,0.1-0.1,0.3-0.1,0.5
			c0,0.2,0,0.3,0.1,0.4c0.1,0.1,0.1,0.2,0.2,0.2c0.1,0.1,0.2,0.1,0.3,0.2c0.1,0,0.2,0.1,0.4,0.1c0.1,0,0.2,0.1,0.3,0.1
			c0.1,0,0.2,0.1,0.2,0.1c0.1,0,0.1,0.1,0.1,0.2c0,0.1,0,0.1-0.1,0.2c0,0-0.1,0.1-0.2,0.1c-0.1,0-0.2,0-0.3,0c-0.2,0-0.3,0-0.5-0.1
			c-0.2-0.1-0.3-0.1-0.5-0.2l-0.2,0.5c0.1,0.1,0.3,0.2,0.5,0.2c0.2,0.1,0.4,0.1,0.7,0.1C56.2,36.9,56.4,36.8,56.6,36.7L56.6,36.7z
			 M59.7,36.8c0.2-0.1,0.4-0.2,0.5-0.3c0.1-0.1,0.3-0.3,0.3-0.5c0.1-0.2,0.1-0.4,0.1-0.6c0-0.2,0-0.4-0.1-0.6
			c-0.1-0.2-0.2-0.3-0.3-0.5c-0.1-0.1-0.3-0.2-0.5-0.3c-0.2-0.1-0.4-0.1-0.6-0.1c-0.2,0-0.4,0-0.6,0.1c-0.2,0.1-0.4,0.2-0.5,0.3
			c-0.1,0.1-0.3,0.3-0.3,0.5c-0.1,0.2-0.1,0.4-0.1,0.6c0,0.2,0,0.4,0.1,0.6c0.1,0.2,0.2,0.3,0.3,0.5c0.1,0.1,0.3,0.2,0.5,0.3
			c0.2,0.1,0.4,0.1,0.6,0.1C59.3,36.9,59.5,36.8,59.7,36.8L59.7,36.8z M58.7,36.2c-0.1,0-0.2-0.1-0.3-0.2c-0.1-0.1-0.1-0.2-0.2-0.3
			c0-0.1-0.1-0.2-0.1-0.4c0-0.1,0-0.3,0.1-0.4c0-0.1,0.1-0.2,0.2-0.3c0.1-0.1,0.2-0.1,0.3-0.2c0.1,0,0.2-0.1,0.4-0.1
			c0.1,0,0.3,0,0.4,0.1c0.1,0,0.2,0.1,0.3,0.2c0.1,0.1,0.1,0.2,0.2,0.3c0,0.1,0.1,0.2,0.1,0.4c0,0.1,0,0.3-0.1,0.4
			c0,0.1-0.1,0.2-0.2,0.3c-0.1,0.1-0.2,0.1-0.3,0.2c-0.1,0-0.2,0.1-0.4,0.1C58.9,36.3,58.8,36.3,58.7,36.2z M63.3,36.8v-0.6h-1.5
			v-2.4h-0.7v3C61.2,36.8,63.3,36.8,63.3,36.8z M64.5,35.7l0.5-1.1l0.5,1.1H64.5z M64,36.8l0.3-0.6h1.4l0.3,0.6h0.7l-1.3-3h-0.7
			l-1.3,3C63.3,36.8,64,36.8,64,36.8z M67.6,36.8v-1.1L67.3,36h0.9c0.3,0,0.5,0,0.7-0.1c0.2-0.1,0.3-0.2,0.4-0.4
			c0.1-0.2,0.2-0.3,0.2-0.6c0-0.2-0.1-0.4-0.2-0.6c-0.1-0.2-0.3-0.3-0.4-0.4c-0.2-0.1-0.4-0.1-0.7-0.1h-1.3v3H67.6L67.6,36.8z
			 M67.6,34.1l-0.3,0.3h0.9c0.2,0,0.4,0,0.5,0.1c0.1,0.1,0.2,0.2,0.2,0.4c0,0.2-0.1,0.3-0.2,0.4c-0.1,0.1-0.3,0.1-0.5,0.1h-0.9
			l0.3,0.3V34.1z M72.3,36.5c0.2-0.2,0.4-0.6,0.4-1v-1.7H72v1.6c0,0.3-0.1,0.5-0.2,0.6c-0.1,0.1-0.3,0.2-0.5,0.2s-0.4-0.1-0.5-0.2
			c-0.1-0.1-0.2-0.3-0.2-0.6v-1.6H70v1.7c0,0.4,0.1,0.8,0.4,1c0.2,0.2,0.6,0.3,1,0.3C71.7,36.9,72,36.8,72.3,36.5L72.3,36.5z
			 M74,36.8v-1.1L73.7,36h0.9c0.3,0,0.5,0,0.7-0.1c0.2-0.1,0.3-0.2,0.4-0.4c0.1-0.2,0.2-0.3,0.2-0.6c0-0.2-0.1-0.4-0.2-0.6
			c-0.1-0.2-0.3-0.3-0.4-0.4c-0.2-0.1-0.4-0.1-0.7-0.1h-1.3v3L74,36.8L74,36.8z M75.9,36.8l-0.7-1.1h-0.7l0.7,1.1H75.9L75.9,36.8z
			 M74,34.1l-0.3,0.3h0.9c0.2,0,0.4,0,0.5,0.1c0.1,0.1,0.2,0.2,0.2,0.4c0,0.2-0.1,0.3-0.2,0.4c-0.1,0.1-0.3,0.1-0.5,0.1h-0.9
			l0.3,0.3V34.1z M80.2,36.5v-1.2h-0.6v0.9c0,0-0.1,0-0.1,0.1c-0.1,0-0.3,0.1-0.4,0.1c-0.1,0-0.3,0-0.4-0.1c-0.1,0-0.2-0.1-0.3-0.2
			c-0.1-0.1-0.2-0.2-0.2-0.3c0-0.1-0.1-0.2-0.1-0.4c0-0.1,0-0.3,0.1-0.4c0-0.1,0.1-0.2,0.2-0.3c0.1-0.1,0.2-0.1,0.3-0.2
			c0.1,0,0.2-0.1,0.4-0.1c0.1,0,0.3,0,0.4,0.1c0.1,0.1,0.2,0.1,0.3,0.3l0.4-0.4c-0.1-0.2-0.3-0.3-0.5-0.4c-0.2-0.1-0.4-0.1-0.7-0.1
			c-0.2,0-0.5,0-0.6,0.1c-0.2,0.1-0.4,0.2-0.5,0.3c-0.1,0.1-0.3,0.3-0.3,0.5s-0.1,0.4-0.1,0.6c0,0.2,0,0.4,0.1,0.6
			c0.1,0.2,0.2,0.3,0.3,0.5c0.1,0.1,0.3,0.2,0.5,0.3c0.2,0.1,0.4,0.1,0.6,0.1c0.2,0,0.4,0,0.6-0.1C79.9,36.7,80,36.6,80.2,36.5
			L80.2,36.5z M81.6,35.7l0.5-1.1l0.5,1.1H81.6z M81.2,36.8l0.3-0.6h1.4l0.3,0.6h0.7l-1.3-3h-0.7l-1.3,3H81.2z M84.8,36.8v-1.1
			L84.5,36h0.9c0.3,0,0.5,0,0.7-0.1c0.2-0.1,0.3-0.2,0.4-0.4c0.1-0.2,0.2-0.3,0.2-0.6c0-0.2-0.1-0.4-0.2-0.6
			c-0.1-0.2-0.3-0.3-0.4-0.4c-0.2-0.1-0.4-0.1-0.7-0.1h-1.3v3L84.8,36.8L84.8,36.8z M86.7,36.8l-0.7-1.1h-0.7l0.7,1.1H86.7
			L86.7,36.8z M84.8,34.1l-0.3,0.3h0.9c0.2,0,0.4,0,0.5,0.1c0.1,0.1,0.2,0.2,0.2,0.4c0,0.2-0.1,0.3-0.2,0.4
			c-0.1,0.1-0.3,0.1-0.5,0.1h-0.9l0.3,0.3V34.1z M87.8,36.8v-1.7l0.9,1.4H89l0.9-1.5l0,1.8h0.6l0-3h-0.6l-1.1,1.8l-1.1-1.8h-0.6v3
			H87.8L87.8,36.8z M91.9,34.4h1.6v-0.5h-2.2v3h2.3v-0.5h-1.6v-0.7h1.4v-0.5h-1.4V34.4L91.9,34.4z M94.7,36.8V35l1.5,1.8h0.6v-3
			h-0.7v1.8l-1.5-1.8H94v3H94.7L94.7,36.8z M98.7,36.8v-2.4h0.9v-0.6h-2.6v0.6H98v2.4H98.7L98.7,36.8z"/>
		<path class="st3" d="M55.6,41v-1.7l0.9,1.4h0.3l0.9-1.5l0,1.8h0.6l0-3h-0.6l-1.1,1.8L55.5,38h-0.6v3H55.6L55.6,41z M59.7,39.8
			l0.5-1.1l0.5,1.1H59.7z M59.3,41l0.3-0.6h1.4l0.3,0.6h0.7l-1.3-3h-0.7l-1.3,3C58.6,41,59.3,41,59.3,41z M62.9,41v-1.8l1.5,1.8h0.6
			v-3h-0.7v1.8L62.7,38h-0.6v3C62.2,41,62.9,41,62.9,41z M67.9,40.7c0.2-0.2,0.4-0.6,0.4-1V38h-0.7v1.6c0,0.3-0.1,0.5-0.2,0.6
			s-0.3,0.2-0.5,0.2s-0.4-0.1-0.5-0.2c-0.1-0.1-0.2-0.3-0.2-0.6V38h-0.7v1.7c0,0.4,0.1,0.8,0.4,1c0.2,0.2,0.6,0.3,1,0.3
			C67.3,41,67.6,40.9,67.9,40.7L67.9,40.7z M69.6,38.6h1.5V38h-2.2v3h0.7v-1.1H71v-0.5h-1.4V38.6L69.6,38.6z M72.3,39.8l0.5-1.1
			l0.5,1.1H72.3z M71.8,41l0.3-0.6h1.4l0.3,0.6h0.7l-1.3-3h-0.7l-1.3,3H71.8L71.8,41z M76.8,40.9c0.2-0.1,0.4-0.2,0.5-0.4l-0.4-0.4
			c-0.1,0.1-0.2,0.2-0.3,0.3c-0.1,0.1-0.3,0.1-0.4,0.1c-0.1,0-0.3,0-0.4-0.1c-0.1,0-0.2-0.1-0.3-0.2c-0.1-0.1-0.1-0.2-0.2-0.3
			c0-0.1-0.1-0.2-0.1-0.4c0-0.1,0-0.3,0.1-0.4c0-0.1,0.1-0.2,0.2-0.3c0.1-0.1,0.2-0.1,0.3-0.2c0.1,0,0.2-0.1,0.4-0.1
			c0.1,0,0.3,0,0.4,0.1c0.1,0.1,0.2,0.1,0.3,0.3l0.4-0.4c-0.1-0.2-0.3-0.3-0.5-0.4C76.6,38,76.3,38,76.1,38c-0.2,0-0.4,0-0.6,0.1
			c-0.2,0.1-0.4,0.2-0.5,0.3c-0.1,0.1-0.3,0.3-0.3,0.5c-0.1,0.2-0.1,0.4-0.1,0.6c0,0.2,0,0.4,0.1,0.6c0.1,0.2,0.2,0.3,0.3,0.5
			c0.1,0.1,0.3,0.2,0.5,0.3c0.2,0.1,0.4,0.1,0.6,0.1C76.3,41,76.6,41,76.8,40.9z M79,41v-2.4H80V38h-2.6v0.6h0.9V41H79L79,41z
			 M82.6,40.7c0.2-0.2,0.4-0.6,0.4-1V38h-0.7v1.6c0,0.3-0.1,0.5-0.2,0.6c-0.1,0.1-0.3,0.2-0.5,0.2s-0.4-0.1-0.5-0.2
			c-0.1-0.1-0.2-0.3-0.2-0.6V38h-0.7v1.7c0,0.4,0.1,0.8,0.4,1c0.2,0.2,0.6,0.3,1,0.3C82,41,82.3,40.9,82.6,40.7L82.6,40.7z M84.3,41
			v-1.1L84,40.2h0.9c0.3,0,0.5,0,0.7-0.1c0.2-0.1,0.3-0.2,0.4-0.4c0.1-0.2,0.2-0.3,0.2-0.6c0-0.2-0.1-0.4-0.2-0.6
			c-0.1-0.2-0.3-0.3-0.4-0.4c-0.2-0.1-0.4-0.1-0.7-0.1h-1.3v3L84.3,41L84.3,41z M86.2,41l-0.7-1.1h-0.7l0.7,1.1H86.2L86.2,41z
			 M84.3,38.3L84,38.6h0.9c0.2,0,0.4,0,0.5,0.1c0.1,0.1,0.2,0.2,0.2,0.4c0,0.2-0.1,0.3-0.2,0.4c-0.1,0.1-0.3,0.1-0.5,0.1H84l0.3,0.3
			V38.3L84.3,38.3z M87.4,38.6h1.6V38h-2.2v3H89v-0.5h-1.6v-0.7h1.4v-0.5h-1.4V38.6z M90.2,41v-1.1l-0.3,0.3h0.9
			c0.3,0,0.5,0,0.7-0.1c0.2-0.1,0.3-0.2,0.4-0.4c0.1-0.2,0.2-0.3,0.2-0.6c0-0.2-0.1-0.4-0.2-0.6c-0.1-0.2-0.3-0.3-0.4-0.4
			c-0.2-0.1-0.4-0.1-0.7-0.1h-1.3v3L90.2,41L90.2,41z M92.1,41l-0.7-1.1h-0.7l0.7,1.1H92.1L92.1,41z M90.2,38.3l-0.3,0.3h0.9
			c0.2,0,0.4,0,0.5,0.1c0.1,0.1,0.2,0.2,0.2,0.4c0,0.2-0.1,0.3-0.2,0.4c-0.1,0.1-0.3,0.1-0.5,0.1h-0.9l0.3,0.3V38.3L90.2,38.3z
			 M94.3,40.9c0.2-0.1,0.3-0.2,0.4-0.3c0.1-0.1,0.1-0.3,0.1-0.5c0-0.2,0-0.3-0.1-0.4c-0.1-0.1-0.1-0.2-0.2-0.2
			c-0.1-0.1-0.2-0.1-0.3-0.1c-0.1,0-0.2-0.1-0.4-0.1c-0.1,0-0.2-0.1-0.3-0.1c-0.1,0-0.2-0.1-0.2-0.1c-0.1,0-0.1-0.1-0.1-0.2
			c0-0.1,0-0.1,0.1-0.2c0,0,0.1-0.1,0.2-0.1c0.1,0,0.2,0,0.3,0c0.1,0,0.3,0,0.4,0.1c0.1,0,0.3,0.1,0.4,0.2l0.2-0.5
			c-0.1-0.1-0.3-0.2-0.5-0.2c-0.2,0-0.4-0.1-0.5-0.1c-0.3,0-0.5,0-0.7,0.1c-0.2,0.1-0.3,0.2-0.4,0.3c-0.1,0.1-0.1,0.3-0.1,0.5
			c0,0.2,0,0.3,0.1,0.4c0.1,0.1,0.1,0.2,0.2,0.2c0.1,0.1,0.2,0.1,0.3,0.2c0.1,0,0.2,0.1,0.4,0.1c0.1,0,0.2,0.1,0.3,0.1
			c0.1,0,0.2,0.1,0.2,0.1c0.1,0,0.1,0.1,0.1,0.2c0,0.1,0,0.1-0.1,0.2c0,0-0.1,0.1-0.2,0.1c-0.1,0-0.2,0-0.3,0c-0.2,0-0.3,0-0.5-0.1
			c-0.2-0.1-0.3-0.1-0.5-0.2l-0.2,0.5c0.1,0.1,0.3,0.2,0.5,0.2c0.2,0.1,0.4,0.1,0.7,0.1C93.9,41,94.1,41,94.3,40.9L94.3,40.9z
			 M97.3,39.8l0.5-1.1l0.5,1.1H97.3z M96.8,41l0.3-0.6h1.4l0.3,0.6h0.7l-1.3-3h-0.7l-1.3,3H96.8z M101.4,40.9
			c0.2-0.1,0.3-0.2,0.4-0.3c0.1-0.1,0.1-0.3,0.1-0.5c0-0.2,0-0.3-0.1-0.4c-0.1-0.1-0.1-0.2-0.2-0.2c-0.1-0.1-0.2-0.1-0.3-0.1
			c-0.1,0-0.2-0.1-0.4-0.1c-0.1,0-0.2-0.1-0.3-0.1c-0.1,0-0.2-0.1-0.2-0.1c-0.1,0-0.1-0.1-0.1-0.2c0-0.1,0-0.1,0.1-0.2
			c0,0,0.1-0.1,0.2-0.1c0.1,0,0.2,0,0.3,0c0.1,0,0.3,0,0.4,0.1c0.1,0,0.3,0.1,0.4,0.2l0.2-0.5c-0.1-0.1-0.3-0.2-0.5-0.2
			c-0.2,0-0.4-0.1-0.5-0.1c-0.3,0-0.5,0-0.7,0.1c-0.2,0.1-0.3,0.2-0.4,0.3c-0.1,0.1-0.1,0.3-0.1,0.5c0,0.2,0,0.3,0.1,0.4
			s0.1,0.2,0.2,0.2c0.1,0.1,0.2,0.1,0.3,0.2c0.1,0,0.2,0.1,0.4,0.1c0.1,0,0.2,0.1,0.3,0.1c0.1,0,0.2,0.1,0.2,0.1
			c0.1,0,0.1,0.1,0.1,0.2c0,0.1,0,0.1-0.1,0.2c0,0-0.1,0.1-0.2,0.1c-0.1,0-0.2,0-0.3,0c-0.2,0-0.3,0-0.5-0.1
			c-0.2-0.1-0.3-0.1-0.5-0.2l-0.2,0.5c0.1,0.1,0.3,0.2,0.5,0.2c0.2,0.1,0.4,0.1,0.7,0.1C101,41,101.2,41,101.4,40.9L101.4,40.9z
			 M104.1,40.9c0.2-0.1,0.3-0.2,0.4-0.3c0.1-0.1,0.1-0.3,0.1-0.5c0-0.2,0-0.3-0.1-0.4c-0.1-0.1-0.1-0.2-0.2-0.2
			c-0.1-0.1-0.2-0.1-0.3-0.1c-0.1,0-0.2-0.1-0.4-0.1c-0.1,0-0.2-0.1-0.3-0.1c-0.1,0-0.2-0.1-0.2-0.1c-0.1,0-0.1-0.1-0.1-0.2
			c0-0.1,0-0.1,0.1-0.2c0,0,0.1-0.1,0.2-0.1c0.1,0,0.2,0,0.3,0c0.1,0,0.3,0,0.4,0.1c0.1,0,0.3,0.1,0.4,0.2l0.2-0.5
			c-0.1-0.1-0.3-0.2-0.5-0.2c-0.2,0-0.4-0.1-0.5-0.1c-0.3,0-0.5,0-0.7,0.1c-0.2,0.1-0.3,0.2-0.4,0.3c-0.1,0.1-0.1,0.3-0.1,0.5
			c0,0.2,0,0.3,0.1,0.4c0.1,0.1,0.1,0.2,0.2,0.2c0.1,0.1,0.2,0.1,0.3,0.2c0.1,0,0.2,0.1,0.4,0.1c0.1,0,0.2,0.1,0.3,0.1
			c0.1,0,0.2,0.1,0.2,0.1c0.1,0,0.1,0.1,0.1,0.2c0,0.1,0,0.1-0.1,0.2c0,0-0.1,0.1-0.2,0.1c-0.1,0-0.2,0-0.3,0c-0.2,0-0.3,0-0.5-0.1
			c-0.2-0.1-0.3-0.1-0.5-0.2l-0.2,0.5c0.1,0.1,0.3,0.2,0.5,0.2c0.2,0.1,0.4,0.1,0.7,0.1C103.7,41,103.9,41,104.1,40.9L104.1,40.9z
			 M107.2,40.9c0.2-0.1,0.4-0.2,0.5-0.3c0.1-0.1,0.3-0.3,0.3-0.5c0.1-0.2,0.1-0.4,0.1-0.6c0-0.2,0-0.4-0.1-0.6
			c-0.1-0.2-0.2-0.3-0.3-0.5c-0.1-0.1-0.3-0.2-0.5-0.3c-0.2-0.1-0.4-0.1-0.6-0.1c-0.2,0-0.4,0-0.6,0.1c-0.2,0.1-0.4,0.2-0.5,0.3
			c-0.1,0.1-0.3,0.3-0.3,0.5c-0.1,0.2-0.1,0.4-0.1,0.6c0,0.2,0,0.4,0.1,0.6c0.1,0.2,0.2,0.3,0.3,0.5c0.1,0.1,0.3,0.2,0.5,0.3
			c0.2,0.1,0.4,0.1,0.6,0.1C106.8,41,107,41,107.2,40.9L107.2,40.9z M106.2,40.4c-0.1,0-0.2-0.1-0.3-0.2c-0.1-0.1-0.1-0.2-0.2-0.3
			c0-0.1-0.1-0.2-0.1-0.4c0-0.1,0-0.3,0.1-0.4c0-0.1,0.1-0.2,0.2-0.3c0.1-0.1,0.2-0.1,0.3-0.2c0.1,0,0.2-0.1,0.4-0.1
			c0.1,0,0.3,0,0.4,0.1c0.1,0,0.2,0.1,0.3,0.2c0.1,0.1,0.1,0.2,0.2,0.3c0,0.1,0.1,0.2,0.1,0.4c0,0.1,0,0.3-0.1,0.4
			c0,0.1-0.1,0.2-0.2,0.3c-0.1,0.1-0.2,0.1-0.3,0.2c-0.1,0-0.2,0.1-0.4,0.1C106.4,40.4,106.3,40.4,106.2,40.4z M110.8,40.9
			c0.2-0.1,0.4-0.2,0.5-0.4l-0.4-0.4c-0.1,0.1-0.2,0.2-0.3,0.3c-0.1,0.1-0.3,0.1-0.4,0.1c-0.1,0-0.3,0-0.4-0.1
			c-0.1,0-0.2-0.1-0.3-0.2c-0.1-0.1-0.1-0.2-0.2-0.3c0-0.1-0.1-0.2-0.1-0.4c0-0.1,0-0.3,0.1-0.4c0-0.1,0.1-0.2,0.2-0.3
			c0.1-0.1,0.2-0.1,0.3-0.2c0.1,0,0.2-0.1,0.4-0.1c0.1,0,0.3,0,0.4,0.1c0.1,0.1,0.2,0.1,0.3,0.3l0.4-0.4c-0.1-0.2-0.3-0.3-0.5-0.4
			c-0.2-0.1-0.4-0.1-0.7-0.1c-0.2,0-0.4,0-0.6,0.1c-0.2,0.1-0.4,0.2-0.5,0.3c-0.1,0.1-0.3,0.3-0.3,0.5c-0.1,0.2-0.1,0.4-0.1,0.6
			c0,0.2,0,0.4,0.1,0.6c0.1,0.2,0.2,0.3,0.3,0.5c0.1,0.1,0.3,0.2,0.5,0.3c0.2,0.1,0.4,0.1,0.6,0.1C110.3,41,110.6,41,110.8,40.9
			L110.8,40.9z M112.5,41v-3h-0.7v3H112.5z M113.9,39.8l0.5-1.1l0.5,1.1H113.9z M113.5,41l0.3-0.6h1.4l0.3,0.6h0.7l-1.3-3h-0.7
			l-1.3,3H113.5z M117.5,41v-2.4h0.9V38h-2.6v0.6h0.9V41H117.5L117.5,41z M119.5,41v-3h-0.7v3H119.5z M122.3,40.9
			c0.2-0.1,0.4-0.2,0.5-0.3c0.1-0.1,0.3-0.3,0.3-0.5c0.1-0.2,0.1-0.4,0.1-0.6c0-0.2,0-0.4-0.1-0.6c-0.1-0.2-0.2-0.3-0.3-0.5
			c-0.1-0.1-0.3-0.2-0.5-0.3c-0.2-0.1-0.4-0.1-0.6-0.1c-0.2,0-0.4,0-0.6,0.1c-0.2,0.1-0.4,0.2-0.5,0.3c-0.1,0.1-0.3,0.3-0.3,0.5
			s-0.1,0.4-0.1,0.6c0,0.2,0,0.4,0.1,0.6c0.1,0.2,0.2,0.3,0.3,0.5c0.1,0.1,0.3,0.2,0.5,0.3c0.2,0.1,0.4,0.1,0.6,0.1
			C121.9,41,122.1,41,122.3,40.9L122.3,40.9z M121.3,40.4c-0.1,0-0.2-0.1-0.3-0.2c-0.1-0.1-0.1-0.2-0.2-0.3c0-0.1-0.1-0.2-0.1-0.4
			c0-0.1,0-0.3,0.1-0.4c0-0.1,0.1-0.2,0.2-0.3c0.1-0.1,0.2-0.1,0.3-0.2c0.1,0,0.2-0.1,0.4-0.1c0.1,0,0.3,0,0.4,0.1
			c0.1,0,0.2,0.1,0.3,0.2c0.1,0.1,0.1,0.2,0.2,0.3c0,0.1,0.1,0.2,0.1,0.4c0,0.1,0,0.3-0.1,0.4c0,0.1-0.1,0.2-0.2,0.3
			c-0.1,0.1-0.2,0.1-0.3,0.2c-0.1,0-0.2,0.1-0.4,0.1S121.4,40.4,121.3,40.4L121.3,40.4z M124.5,41v-1.8l1.5,1.8h0.6v-3h-0.7v1.8
			l-1.5-1.8h-0.6v3H124.5z"/>
		<path class="st4" d="M30.2,5.9c-0.2,0.2-0.3,0.4-0.4,0.7c-0.8,1.6-0.4,3.3,0.8,3.9c1.2,0.6,2.8-0.2,3.6-1.8
			c0.1-0.3,0.2-0.5,0.3-0.8L30.2,5.9L30.2,5.9z"/>
		<polygon class="st5" points="35.7,8.7 35.4,7.1 35.1,8.8 35.8,8.7 		"/>
		<path class="st6" d="M26,7c-0.1,1.1-0.4,2.8-1.2,4.7c-0.9,2-2.9,4.2-2.9,4.2c1.5-0.3,3.8,0.1,6,1.2c2.3,1,4,2.5,4.8,3.8
			c0,0,0.5-2.9,1.4-4.8c0.8-1.8,2.7-4.1,2.7-4.1c-0.9,0.2-3.4,0.6-6.2-0.7C27.8,9.9,26.4,7.7,26,7L26,7z"/>
		<polygon class="st7" points="30.3,11.8 31.1,11.4 30.3,11.1 29.6,10.7 29.8,11.5 29.1,11.7 27.1,15.7 27.6,16.7 28.6,16.4 
			30.5,12.4 		"/>
		<path class="st2" d="M34.9,7.1C34.9,7,30.7,5,30.6,5c-0.2,0.4-0.4,0.7-0.5,1.1c0.8,0.1,1.2,0.4,1.4,0.6c0.3,0.3,0.6,0.7,0.6,0.7
			s0.7,0,1.2,0.1c0.3,0.1,0.7,0.2,1.1,0.7C34.6,7.9,34.8,7.5,34.9,7.1L34.9,7.1z"/>
		<polygon class="st2" points="35.4,7.4 30,4.9 30.1,4.6 35.6,7.1 		"/>
		<path class="st8" d="M33,14.3c-0.2,0-0.4-0.1-0.6-0.2c-0.2-0.1-0.3-0.2-0.5-0.3c-0.2,0.4-0.3,0.8-0.5,1.2l1.1,0.5L33,14.3L33,14.3
			z"/>
		<path class="st8" d="M33.1,14.1L33,14.3c-0.2,0-0.4-0.1-0.6-0.2c-0.2-0.1-0.3-0.2-0.5-0.2c0-0.1,0.1-0.1,0.1-0.2
			c0.1,0.1,0.3,0.2,0.5,0.2C32.7,14,32.9,14,33.1,14.1z"/>
		<path class="st6" d="M14.4,21.4c1.2,1.5,2,3.2,2.2,4.5l0,0c0.4-1.5,1.8-3.3,3.7-4.9c1.9-1.6,4-2.5,5.5-2.6l0,0
			c-1.3-0.5-2.7-1.5-3.9-3.1c-1.2-1.5-2.2-4.5-2.2-4.5c-0.5,1.5-1.5,3.7-3.4,5.3c-1.9,1.6-4.3,2.1-5.8,2.2
			C10.5,18.3,13.2,19.9,14.4,21.4L14.4,21.4z"/>
		<path class="st4" d="M11.2,13.8c0.1,0.3,0.3,0.7,0.6,1c1.1,1.4,2.8,1.9,3.9,1c1.1-0.8,1.1-2.6,0-4c-0.2-0.3-0.5-0.6-0.8-0.8
			C14.9,11,11.2,13.8,11.2,13.8z"/>
		<path class="st3" d="M25.8,18.4c-1-0.6-2.4-1.6-3.7-3.2c-1.3-1.6-2.5-4.3-2.5-4.3c-0.3,0.9-0.8,2.1-1.6,3.2l0,0l0.3,5.3l-4.4-2
			l0,0c-1.3,0.6-2.6,0.8-3.6,0.9c0,0,2.3,1.7,3.6,3.3c1.3,1.6,2.5,4.3,2.5,4.3c0.5-1.1,1.5-3.1,3.7-4.9
			C22.5,19.3,24.7,18.7,25.8,18.4L25.8,18.4z"/>
		<path class="st2" d="M14.6,10.4c-0.1,0-1.5-0.5-2.7,0.4c-1.3,0.9-1.2,2.5-1.2,2.6c0.2,0.3,0.5,0.6,0.7,1l3.8-2.9
			C15.3,11.4,14.6,10.4,14.6,10.4z"/>
		<path class="st9" d="M13.2,12c0.1,0.1,0.1,0.4-0.1,0.5c-0.1,0.1-0.4,0.1-0.5-0.1c-0.1-0.1-0.1-0.3,0.1-0.5
			C12.9,11.8,13.1,11.8,13.2,12L13.2,12z"/>
		<path class="st2" d="M21.8,15.7c-0.2,0.2-0.4,0.5-0.7,0.7c-0.3,0.2-0.5,0.3-0.7,0.4c0.4,0.5,0.8,0.9,1.1,1.4l1.5-1.2L21.8,15.7z"
			/>
		<path class="st2" d="M21.5,15.4l0.2,0.2c-0.2,0.2-0.4,0.5-0.8,0.7c-0.2,0.2-0.5,0.3-0.7,0.5c-0.1-0.1-0.1-0.2-0.2-0.2
			c0.2-0.1,0.5-0.3,0.7-0.5C21.1,15.8,21.3,15.6,21.5,15.4L21.5,15.4z"/>
		<path class="st2" d="M16.2,20.1c-0.2,0.2-0.4,0.5-0.7,0.7c-0.3,0.2-0.5,0.3-0.7,0.4c0.4,0.5,0.8,0.9,1.1,1.4l1.5-1.2
			C17.3,21.5,16.2,20.1,16.2,20.1z"/>
		<path class="st2" d="M16,19.7l0.2,0.2c-0.2,0.2-0.4,0.5-0.8,0.7c-0.2,0.2-0.5,0.3-0.7,0.5c-0.1-0.1-0.1-0.1-0.2-0.2
			c0.2-0.1,0.5-0.3,0.7-0.5C15.5,20.2,15.8,20,16,19.7z"/>
		<path class="st2" d="M18.5,13.5l0.6,0.2l0.8-1.5L19.3,12C19.3,12,18.8,13.1,18.5,13.5z"/>
		<polygon class="st3" points="14.2,17.8 14.1,17.4 15,17 16.2,17.8 17.7,18.1 17.9,16.5 17.3,15.2 18.1,14.1 18.8,16 18.7,19.2 
			18.8,19.7 17.3,19.2 16.4,18.7 		"/>
		<polygon class="st2" points="17.1,15.4 17.5,16.7 17.7,18.1 18.4,16.5 19.2,16.4 17.3,15.2 		"/>
		<polygon class="st2" points="15.3,16.8 16.4,17.6 17.7,18.1 16.1,18.4 15.8,19.1 15,17 		"/>
		<path class="st9" d="M19.5,12.3c0.1,0.1,0.2,0.2,0.2,0.2C19.8,12.6,19.6,12.5,19.5,12.3c-0.2,0-0.3-0.1-0.3-0.2
			C19.3,12.2,19.4,12.2,19.5,12.3z"/>
		<path class="st9" d="M19.6,12.2c0.1,0.1,0.2,0.2,0.2,0.2C19.8,12.5,19.7,12.4,19.6,12.2c-0.2,0-0.3-0.1-0.3-0.2
			C19.3,12.1,19.5,12.1,19.6,12.2z"/>
		<path class="st9" d="M18.9,13.4c0.1,0.1,0.1,0.1,0.1,0.1C19,13.6,19,13.6,18.9,13.4c-0.1,0-0.2-0.1-0.2-0.1
			C18.8,13.3,18.8,13.4,18.9,13.4z"/>
		<path class="st9" d="M19,13.3c0.1,0.1,0.1,0.1,0.1,0.1C19.1,13.5,19,13.5,19,13.3c-0.1,0-0.2-0.1-0.2-0.1
			C18.8,13.2,18.9,13.3,19,13.3L19,13.3z"/>
		<path class="st2" d="M13.3,17.7l0.1,0.6l-1.6,0.5l-0.2-0.7C11.6,18.2,12.8,17.9,13.3,17.7z"/>
		<path class="st9" d="M11.9,18.5c0.1,0.2,0.1,0.3,0.2,0.3C12.1,18.7,12.1,18.6,11.9,18.5c0-0.2-0.1-0.3-0.1-0.3
			C11.8,18.2,11.9,18.3,11.9,18.5L11.9,18.5z"/>
		<path class="st9" d="M11.8,18.5c0.1,0.2,0.1,0.3,0.2,0.3C12,18.8,12,18.6,11.8,18.5c0-0.2-0.1-0.3-0.1-0.3
			C11.7,18.2,11.7,18.4,11.8,18.5L11.8,18.5z"/>
		<path class="st9" d="M13.2,18.1c0,0.1,0.1,0.2,0.1,0.2C13.3,18.3,13.3,18.2,13.2,18.1c0-0.1,0-0.2,0-0.2
			C13.1,17.9,13.1,18,13.2,18.1L13.2,18.1z"/>
		<path class="st9" d="M13,18.2c0,0.1,0.1,0.2,0.1,0.2C13.2,18.3,13.2,18.2,13,18.2c0-0.1,0-0.2,0-0.2C13,18,13,18.1,13,18.2z"/>
		<path class="st6" d="M38.1,16.7c-1.9,0.2-4.8-0.6-4.8-0.6c1,1.2,1.7,3.2,2,5.6c0.2,2.4-0.1,4.6-0.8,5.9c0,0,2.7-1.4,4.6-1.6
			c1.9-0.2,4.8,0.6,4.8,0.6c-1-1.2-2.2-3.2-2.4-5.6c-0.2-2.4,0.6-4.6,1.3-5.9C42.8,15.1,40,16.5,38.1,16.7L38.1,16.7z"/>
		<polygon class="st7" points="40.9,21.2 41.5,21.7 41.4,20.9 41.4,20.1 40.9,20.6 40.3,20.2 36,20.5 35.4,21.4 36.1,22.1 
			40.4,21.7 		"/>
		<path class="st4" d="M45,18.1c1.7-0.1,3.2,0.8,3.3,2.1c0.1,1.3-1.2,2.5-2.9,2.6c-1.7,0.1-3.2-0.8-3.3-2.1
			C42,19.4,43.3,18.2,45,18.1L45,18.1z"/>
		<path class="st3" d="M34.5,27.6c1-0.5,2.6-1,4.5-1.2c2-0.2,4.9,0.3,4.9,0.3c-0.6-0.7-1.3-1.8-1.8-3v0l-4.5-2.5l4-2.5v0
			c0.2-1.4,0.7-2.6,1.2-3.4c0,0-2.6,1.1-4.7,1.3c-2,0.2-4.7-0.4-4.7-0.4c0.6,0.9,1.7,2.9,2,5.6C35.6,24.4,34.9,26.5,34.5,27.6
			L34.5,27.6z"/>
		<path class="st10" d="M35.5,22.3c0,0,5.3,0.5,6.6,1.3l-4.5-2.5l-2.3,0.3l0.1,0.9C35.4,22.3,35.5,22.3,35.5,22.3z"/>
		<path class="st10" d="M35.3,20.4c0,0,4.8-1.3,6.3-1.9l-4,2.5l-2.3,0.3l-0.1-0.9C35.1,20.5,35.3,20.4,35.3,20.4z"/>
		<path class="st4" d="M44.1,37.8c-0.1-0.2-0.2-0.5-0.4-0.7c-1-1.5-2.7-2-3.8-1.3c-1.1,0.8-1.2,2.6-0.2,4c0.2,0.2,0.3,0.4,0.5,0.6
			C40.2,40.5,44.1,37.8,44.1,37.8z"/>
		<path class="st3" d="M41.5,30.3c-1.1-1.6-1.8-3.3-1.9-4.6l0,0c-0.5,1.5-2,3.2-4,4.6c-2,1.5-4.1,2.3-5.7,2.3l0,0
			c1.2,0.5,2.6,1.7,3.7,3.3c1.1,1.6,1.9,4.6,1.9,4.6c0.5-1.4,1.7-3.6,3.7-5c2-1.4,4.4-1.8,5.9-1.9C45.2,33.6,42.6,31.9,41.5,30.3
			L41.5,30.3z"/>
		<path class="st3" d="M40.7,41.2c0.5,0,1.3-0.2,2.1-0.7c1.1-0.7,1.7-1.6,1.9-2c-0.2-0.3-0.5-0.7-0.7-1c-0.5,0.5-1.1,0.9-1.8,1.4
			c-0.8,0.5-1.5,1-2.2,1.3C40.2,40.6,40.4,40.9,40.7,41.2L40.7,41.2z"/>
		<path class="st6" d="M29.9,32.6c1,0.7,2.3,1.9,3.5,3.6c1.1,1.6,2.2,4.3,2.2,4.3c0.3-0.9,0.9-2.1,1.8-3.2l0,0l0-5.3l4.3,2.2l0,0
			c1.4-0.5,2.7-0.7,3.7-0.7c0,0-2.3-2-3.5-3.7c-1.1-1.6-2.2-4.3-2.2-4.3c-0.5,1-1.7,3-4,4.6C33.3,31.9,31,32.4,29.9,32.6z"/>
		<polygon class="st6" points="42.2,39.4 42.4,39.2 42.8,39.9 42.6,40.1 		"/>
		<polygon class="st6" points="42.8,39.3 42.9,39.5 42.2,40 42.1,39.8 		"/>
		<path class="st3" d="M29.4,44.6c0.1-1.1,0.4-2.9,1.3-4.8c0.9-1.9,2.9-4,2.9-4c-1.5,0.2-3.8-0.2-6-1.2c-2.3-1.1-4-2.5-4.8-3.9
			c0,0-0.5,2.9-1.4,4.8c-0.9,1.8-2.7,4-2.7,4c0.9-0.2,3.4-0.5,6.2,0.8C27.6,41.6,28.9,43.8,29.4,44.6L29.4,44.6z"/>
		<path class="st4" d="M24.9,45.9c0.2-0.3,0.5-0.6,0.6-0.9c0.8-1.6,0.4-3.3-0.8-3.9c-1.2-0.6-2.8,0.2-3.6,1.8
			c-0.2,0.4-0.3,0.7-0.4,1.1L24.9,45.9L24.9,45.9z"/>
		<path class="st3" d="M20.4,44.3c0.6,0.4,1.2,0.7,2,1.1c0.8,0.4,1.6,0.8,2.4,1c0.2-0.4,0.4-0.7,0.5-1.1L21,43.2L20.4,44.3
			L20.4,44.3z"/>
		<path class="st2" d="M33.5,35.8c0,0-3.7-0.2-6-1.3c-2.3-1-4-2.5-4.8-3.8c0.3,1,0.8,2.9,0.4,5.2c-0.2,1.6-0.8,2.8-1.2,3.6
			c0.2,0,0.3,0.1,0.5,0.1c0.2,0,0.4,0.1,0.5,0.1c0.5-1.4,2-2,2.9-1.6c0.9,0.4,1.5,2,0.6,3.3c0.1,0.1,0.3,0.2,0.4,0.3
			c0.1,0.1,0.3,0.2,0.4,0.4c0.4-1,1.2-2.4,2.7-3.9C31.3,36.9,32.6,36.2,33.5,35.8L33.5,35.8z"/>
		<path class="st2" d="M24.8,40.3c0,0-0.1-1.1-0.4-1.3c-0.3-0.2-0.9,0.6-0.7,0.7C24,39.9,24.8,40.3,24.8,40.3L24.8,40.3z"/>
		<path class="st2" d="M24.8,40.3c0,0,0.9-0.6,1.2-0.5c0.3,0.1,0.1,1.1-0.2,1C25.6,40.7,24.8,40.3,24.8,40.3L24.8,40.3z"/>
		<path class="st3" d="M24.8,46.4c-0.1,0.8-0.1,1.2-0.1,2c-0.2,0.1-0.7,0.3-0.9,0.2c-0.5-0.1-0.5-0.4-0.9-0.7
			c-0.3-0.1-0.4,0.1-0.8,0c-0.9-0.4-0.5-0.7-1.2-0.9c-0.4-0.2-0.5,0-0.9-0.2c-0.5-0.2-0.8-0.7-0.9-1.1c0.5-0.5,0.9-1,1.4-1.4
			L24.8,46.4L24.8,46.4z"/>
		<path class="st6" d="M12.4,37c1-0.5,2.6-1.2,4.7-1.4c2.1-0.2,5,0.4,5,0.4c-1-1.2-1.8-3.3-2-5.8c-0.3-2.5,0.1-4.7,0.8-6.1
			c0,0-2.7,1.2-4.8,1.4c-2.1,0.2-4.9-0.4-4.9-0.4c0.6,0.7,2.2,2.7,2.5,5.7C14.1,33.9,12.9,36.2,12.4,37L12.4,37z"/>
		<path class="st4" d="M9.4,34.1c0.3,0,0.5,0,0.8,0c1.8-0.2,3.1-1.4,2.9-2.8c-0.1-1.3-1.7-2.3-3.4-2.1c-0.3,0-0.5,0.1-0.8,0.2
			L9.4,34.1L9.4,34.1z"/>
		<path class="st9" d="M17.2,32.8l0,0.4c-1.4-0.1-3.7,1.2-3.8,1.2l0.1-0.5C13.6,33.8,15.7,32.7,17.2,32.8L17.2,32.8z"/>
		<path class="st9" d="M16.9,28.9l-0.1-0.4c-1.3,0.3-3.9-0.6-3.9-0.6l0.2,0.5C13.2,28.4,15.5,29.2,16.9,28.9L16.9,28.9z"/>
		<path class="st9" d="M17.2,33.2c0,0,0-3.5-0.4-4.8l3.2-0.8c0,0-0.3,2.6,0.7,5.8L17.2,33.2L17.2,33.2z"/>
		<path class="st9" d="M8,29.4c-0.1,0.1-1.2,1-1.1,2.5c0.1,1.6,1.5,2.3,1.6,2.3c0.4,0,0.8-0.1,1.2-0.1l-0.5-4.8L8,29.4L8,29.4z"/>
		<polygon class="st9" points="9.2,28.9 9.7,34.4 9.5,34.4 8.9,28.9 		"/>
		<polygon class="st11" points="16.9,29 16.8,28.3 17.1,28.2 17.2,29 		"/>
		<polygon class="st11" points="17,33.3 17,32.6 17.4,32.6 17.4,33.4 		"/>
		<path class="st11" d="M17.8,32.7c0-0.6,0-1.3-0.1-2.1c-0.1-0.6-0.1-1.2-0.2-1.8c0.7-0.2,1.4-0.4,2.1-0.5c0,0.6,0,1.3,0.1,2.1
			c0.1,0.9,0.3,1.6,0.4,2.3C19.3,32.7,18.6,32.7,17.8,32.7L17.8,32.7z"/>
	</g>
</g>
</svg>
