<svg xmlns="http://www.w3.org/2000/svg" viewBox="0 0 788.35 503.22"><defs><style>.cls-1{fill:#d90013;}.cls-2{fill:#fff;}</style></defs><g id="Layer_2" data-name="Layer 2"><g id="XIMI_VOGUE" data-name="XIMI VOGUE"><path class="cls-1" d="M35.74,101.74,37,503.22H788.35V0h-659L0,93.39v8.09Z"/><path class="cls-2" d="M692.68,100.47v146H575.23a1.8,1.8,0,0,0,0-.22q0-57.93,0-115.85c0-.7.29-1.59-.13-2.05s-1.41-.18-2.14-.19c-1.37,0-2.74,0-4.12,0-.93,0-.86,0-1-.89a2.62,2.62,0,0,1,1.53-3.06,5,5,0,0,0,.81-.58l31.7-23.11,1.33,0q44.1,0,88.21,0Z"/><path class="cls-1" d="M625.85,128.25h-7.22c-.82,0-.84,0-.85.78,0,4.8,0,9.61,0,14.41,0,.54.12.8.74.8q7.32,0,14.66,0c.6,0,.74-.23.74-.78,0-4.81,0-9.62,0-14.42,0-.77,0-.78-.83-.79Z"/><path class="cls-1" d="M643.52,128.25h-7c-1,0-1,0-1,1q0,7,0,14c0,1,0,1,1,1h14.23c.9,0,.92,0,.92-.93q0-7.05,0-14.1c0-.94,0-.94-1-.95Z"/><path class="cls-1" d="M633.9,153.93c0-2.41,0-4.81,0-7.22,0-.57-.18-.77-.76-.77-4.85,0-9.7,0-14.56,0-.78,0-.8,0-.8.81q0,7.15,0,14.31c0,.79,0,.82.81.82H633c.84,0,.86,0,.86-.87C633.91,158.66,633.9,156.29,633.9,153.93Z"/><path class="cls-1" d="M643.63,146h-7.11c-1,0-1,0-1,1q0,7,0,14c0,.94,0,1,1,1h14.11c1,0,1,0,1-1q0-7,0-14c0-.92,0-.93-.91-.94Z"/><path class="cls-1" d="M625.85,128.25h7.22c.8,0,.83,0,.83.79,0,4.8,0,9.61,0,14.42,0,.55-.14.78-.74.78q-7.33,0-14.66,0c-.62,0-.74-.26-.74-.8,0-4.8,0-9.61,0-14.41,0-.76,0-.77.85-.78Z"/><path class="cls-1" d="M643.52,128.25h7.11c1,0,1,0,1,.95q0,7.05,0,14.1c0,.91,0,.93-.92.93H636.5c-.94,0-1,0-1-1q0-7,0-14c0-1,0-1,1-1Z"/><path class="cls-1" d="M633.9,153.93c0,2.36,0,4.73,0,7.1,0,.85,0,.87-.86.87H618.6c-.79,0-.81,0-.81-.82q0-7.16,0-14.31c0-.79,0-.81.8-.81,4.86,0,9.71,0,14.56,0,.58,0,.77.2.76.77C633.89,149.12,633.9,151.52,633.9,153.93Z"/><path class="cls-1" d="M643.63,146h7.11c.9,0,.91,0,.91.94q0,7,0,14c0,1,0,1-1,1H636.56c-1,0-1,0-1-1q0-7,0-14c0-1,0-1,1-1Z"/><path class="cls-2" d="M301.23,276.35c9,.19,17.94,1.2,26.12,5.14,24,11.54,37.31,30.62,37.71,57.49.41,27.15-12.72,46.57-36.71,58.5C317,403.1,304.7,404,292.18,402.66c-12-1.28-23-5.17-32.34-12.88-13.89-11.43-22.34-25.88-23.68-44.1-2-26.48,8.82-46.56,30.82-60.79,7.64-4.93,16.33-7.15,25.33-8C295.27,276.56,298.26,276.51,301.23,276.35Zm-36.18,63.93a36.24,36.24,0,0,0,8.54,25.5c7.82,9.16,18.14,12.2,29.76,11.66a33.2,33.2,0,0,0,30.9-23.89,45.35,45.35,0,0,0-.19-28.1c-3.93-11.72-12-19.35-24.21-22.29a42.23,42.23,0,0,0-15.23-.57,31.81,31.81,0,0,0-21.74,12.06C267,322,264.87,330.48,265.05,340.28Z"/><path class="cls-2" d="M483.79,361.58c0,7.11-.14,14.23.07,21.33a7.4,7.4,0,0,1-3.08,6.55c-5.87,4.72-12.62,7.64-19.71,9.8-16.75,5.1-33.64,5.76-50.21-.2-22.6-8.14-37.2-23.88-41.1-47.94-3.16-19.5.6-37.7,14.13-52.94a61.93,61.93,0,0,1,37-20.33,98.7,98.7,0,0,1,55.49,6.23c1.18.49,2.31,1.1,3.48,1.61a2.88,2.88,0,0,1,1.87,3c-.05,7.25,0,14.5-.05,21.76,0,2.52-.43,2.77-2.76,1.69a111.86,111.86,0,0,0-20.74-7.62,72,72,0,0,0-30.39-1.23c-17,3.16-28.86,16.86-29.61,34.24a45.75,45.75,0,0,0,.67,12.3,35.2,35.2,0,0,0,29.55,27,46.29,46.29,0,0,0,23.85-2.3c3.28-1.27,3.3-1.27,3.33-4.93,0-2.56,0-5.12,0-7.68-.06-3.08-.09-3.13-3-3.18-3.41-.06-6.82-.1-10.23,0-2.1.07-3.09-.53-3-2.85.12-5.55,0-11.09.05-16.64,0-3.26.08-3.32,3.33-3.33q16.83,0,33.67,0c7.49,0,7.49,0,7.49,7.35Z"/><path class="cls-2" d="M488.63,317.69c0-12.09,0-24.18,0-36.26,0-3.48.06-3.53,3.56-3.55q10.65,0,21.3,0c3.24,0,3.31.08,3.32,3.35,0,10.52,0,21,0,31.57,0,12.37-.14,24.74.06,37.11.16,9.8,3.79,18,12.35,23.45,9.76,6.27,27.82,5.86,36.92-4.42a28.46,28.46,0,0,0,6.94-16.6,81,81,0,0,0,.25-8.1q0-30.28,0-60.57c0-1,0-2,0-3-.09-1.93.65-2.86,2.72-2.85,7.66.07,15.33.06,23,0,2,0,2.86.85,2.74,2.81,0,.71,0,1.43,0,2.14,0,21.61,0,43.22,0,64.84A79,79,0,0,1,600,365c-4.35,19.2-16.19,31.14-35.21,35.86a77.65,77.65,0,0,1-41.23-.59c-19.66-5.82-30.75-19.41-34.07-39.55a79.39,79.39,0,0,1-.89-13.16Q488.65,332.61,488.63,317.69Z"/><path class="cls-2" d="M690.91,379.24q-.07,11.1-.17,22.2-39.62,0-79.24,0c-3.66,0-3.71-.06-3.71-3.83q0-58,0-116c0-3.67.06-3.73,3.84-3.73h74.56c3.58,0,3.63.06,3.65,3.46,0,5.26,0,10.52,0,15.78,0,3.49-.07,3.55-3.54,3.55-13.63,0-27.27,0-40.9,0-2.27,0-4.55.05-6.82,0-1.67,0-2.68.39-2.67,2.35.06,7.11,0,14.22,0,21.33,0,1.39.56,2.12,2,2.09,1,0,2,0,3,0h41.33c1,0,2,0,3,0,1.42-.05,2.08.6,2.08,2q0,9.38,0,18.77c0,1.44-.7,2-2.1,2-1,0-2,0-3,0H640.92c-1,0-2,0-3,0-1.46,0-2,.74-2,2.11,0,1.14,0,2.27,0,3.41,0,6.68,0,13.37,0,20.05,0,4.11,0,4.14,4.29,4.14q23,0,46,0C687.8,379,689.36,379.16,690.91,379.24Z"/><path class="cls-2" d="M192.42,347.65,205.58,315c4.51-11.2,9.11-22.36,13.47-33.62,1-2.73,2.49-3.62,5.35-3.55,7.66.19,15.34.05,23,.08.94,0,2-.36,3.06.72-1.38,3.4-2.77,6.93-4.23,10.44q-23.08,55.23-46.11,110.5c-1.17,2.81-2.66,4-5.67,3.62-2.65-.33-5.8.95-7.91-.55S184,398,183,395.49q-24.68-56.42-49.36-112.82c-2.09-4.79-2.12-4.79,3.12-4.79,7.25,0,14.49.14,21.73-.08,2.91-.09,4.24.92,5.35,3.56,8.63,20.72,17.41,41.37,26.17,62A10.69,10.69,0,0,0,192.42,347.65Z"/><path class="cls-2" d="M175.77,246.65h-.45c-.36-.39-.84-.21-1.26-.21q-17.53,0-35.08,0h-8.46c-.39,0-.83.15-1.14-.26.23-.29.44-.59.67-.88q3.85-4.69,7.7-9.38L178.69,186l11.65-14.21c.72-.88.78-.64,0-1.62-1.53-1.86-3.07-3.71-4.61-5.57l-49.36-59.43c-1.28-1.54-2.63-3-3.78-4.67l1.11,0h45c.37,0,.74,0,1.11,0,.15.21.3.43.46.63L214,142.87c.15.19.26.46.64.51.21-.25.45-.52.67-.8q9.4-11.79,18.8-23.57l14.75-18.54h44.79l1.33,0c0,.61-.53.94-.87,1.36q-5.52,6.84-11.07,13.66L238.9,169.89c-1,1.29-1,.94,0,2.15l18,21.48q18.33,21.81,36.64,43.64,3.75,4.47,7.48,9c-.36.49-.89.3-1.34.3H254.18c-.11-.1-.22-.19-.32-.3l-28-34-10.61-12.89c-.7-.85-.7-.84-1.41,0l-.14.18-17.2,21.29q-10.11,12.51-20.21,25C176.09,246,175.71,246.21,175.77,246.65Z"/><path class="cls-2" d="M381.43,100.46,400.06,122l39.09,45.21,10,11.63c.67.77.63.69,0,1.44q-8.69,10.08-17.35,20.16a1.93,1.93,0,0,1-1.69.8c-1.23-.07-2.46-.05-3.68,0a1.63,1.63,0,0,1-1.42-.67c-2.86-3.36-5.75-6.7-8.63-10q-14.67-17-29.34-34.07a2.18,2.18,0,0,0-.85-.79,3.83,3.83,0,0,0-.08,1.3q0,44,0,88c0,.48,0,1,0,1.44l-1.56,0q-16.62,0-33.23,0c-.43,0-.9-.17-1.27.22h-.44c0-.37.05-.74.05-1.11v-145c.37,0,.73-.07,1.1-.07Z"/><path class="cls-2" d="M470.58,246.65c0-.33,0-.66,0-1V155.77c-2.18,2.09-4.08,4.38-6,6.63s-4,4.6-6,6.91l-5.86,6.8c-.41,0-.53-.33-.72-.54l-20.22-23.43c-.67-.77-.66-.78,0-1.53l40.94-47.16c.85-1,1.68-2,2.53-3l.88,0h29.92c.33,0,.66,0,1,.05v1.11q0,72,0,143.92c0,.37,0,.74,0,1.11Z"/><path class="cls-2" d="M555.06,246.44H518.73c0-.41,0-.81,0-1.22V101.8c0-.45,0-.89,0-1.34H555a3.52,3.52,0,0,1,.09,1.21V245.33C555.12,245.7,555.08,246.07,555.06,246.44Z"/><path class="cls-2" d="M301.5,100.52c.33,0,.66-.06,1-.06h34.69l.78,0c0,.52,0,1,0,1.56V245c0,.48,0,1-.05,1.44l-35.35,0a1.81,1.81,0,0,1-1.07-.2c0-.34,0-.67,0-1V100.52Z"/><path class="cls-2" d="M341,436.11h8.79V452H350l11.59-15.88h9.66l-11.76,15.51L373.39,475h-9.64l-9.45-16.42-4.54,6V475H341Z"/><path class="cls-2" d="M374.15,455.38c0-12.7,7.17-20,17.65-20s17.66,7.33,17.66,20-7.17,20.32-17.66,20.32S374.15,468.08,374.15,455.38Zm26.3,0c0-7.8-3.34-12.4-8.65-12.4s-8.65,4.6-8.65,12.4,3.35,12.73,8.65,12.73S400.45,463.17,400.45,455.38Z"/><path class="cls-2" d="M416.78,436.11h14c8.25,0,15,2.86,15,12.1,0,8.94-6.76,12.78-15,12.78h-5.21v14h-8.79ZM430.07,454c4.62,0,7.1-2,7.1-5.81s-2.48-5.12-7.1-5.12h-4.5V454Zm-.89,4.66,6.07-5.63L447.66,475h-9.83Z"/><path class="cls-2" d="M453.34,436.11H477.7v7.37H462.13v7.8h13.26v7.38H462.13v8.95H478.3V475h-25Z"/><path class="cls-2" d="M493.26,436.11h10.52L516,475h-9.31l-5.08-19.69c-1.08-3.88-2.12-8.48-3.16-12.53h-.24c-.94,4.1-2,8.65-3.06,12.53L490,475h-9Zm-4.16,22.78h18.71v6.83H489.1Z"/><path class="cls-1" d="M594.22,191.48h6.15v21.65H611.1v5.06H594.22Z"/><path class="cls-1" d="M617.83,191.48H624v26.71h-6.15Z"/><path class="cls-1" d="M632.4,191.48h17.16v5.06h-11v6.2H648v5.06h-9.41v10.39H632.4Z"/><path class="cls-1" d="M656.27,191.48h17v5.06h-10.9v5.37h9.28V207h-9.28v6.16h11.32v5.06H656.27Z"/></g></g></svg>