<?xml version="1.0" encoding="utf-8"?>
<!-- Generator: Adobe Illustrator 24.3.0, SVG Export Plug-In . SVG Version: 6.00 Build 0)  -->
<svg version="1.1" id="Layer_1" xmlns="http://www.w3.org/2000/svg" xmlns:xlink="http://www.w3.org/1999/xlink" x="0px" y="0px"
	 viewBox="0 0 652.4 521.5" style="enable-background:new 0 0 652.4 521.5;" xml:space="preserve">
<style type="text/css">
	.st0{fill:#FFFFFF;}
	.st1{fill:#1E1C18;}
	.st2{fill:#917B55;}
</style>
<g id="Layer_2_1_">
	<g id="Layer_1-2">
		<path class="st0" d="M81.5,520.9h31.4c-1.6-0.2-3.1-0.7-4.5-1.5c-4.8-2.8-6.5-8.2-6.9-9.6c-2.4-7.3-20.8-48.9-46.4-106.6
			C41.5,436.6,28,470,14.5,503.4c-2.9,7.5-6.2,14.5-14.5,17.6h29c-10.9-2.7-14.2-7.6-13-17.7l9.8-23.2l48.8,0.8
			c3.8,9,7.7,18,11.4,27.1C89.1,515.4,88.4,517.3,81.5,520.9z M26.2,478.1c4.5-11.1,8.5-21.7,13-32.2c0.8-2,2.5-7.2,5.4-13.9
			c1.8-4.3,3.5-7.9,4.9-10.6c7.9,19.1,15.8,38.3,23.8,57.4L26.2,478.1z"/>
		<path class="st0" d="M429.8,520.9h31.4c-1.6-0.2-3.1-0.7-4.5-1.5c-4.8-2.8-6.5-8.2-6.9-9.6c-2.4-7.3-20.8-48.9-46.4-106.6
			c-13.6,33.4-27.1,66.8-40.6,100.2c-2.9,7.5-6.2,14.5-14.5,17.6h29c-10.9-2.7-14.2-7.6-13-17.7l9.8-23.2l48.8,0.8
			c3.8,9,7.7,18,11.4,27.1C437.4,515.4,436.6,517.3,429.8,520.9z M374.4,478.1c4.5-11.1,8.5-21.7,13-32.2c0.8-2,2.5-7.2,5.4-13.9
			c1.8-4.3,3.5-7.9,4.9-10.6l23.8,57.4L374.4,478.1z"/>
		<path class="st0" d="M618.8,519.7c0,0.1,0,0.2,0.1,0.3c0.1,0.1,0.2,0.2,0.3,0.2l0,0c0-0.1-0.1-0.2-0.1-0.3
			C619.1,519.2,618.9,519,618.8,519.7z"/>
		<path class="st0" d="M648.6,405.6c1.2-0.3,2.5-0.5,3.7-0.7l-0.1-0.4H614c12,2.5,12.8,3.4,12.8,15c0,13.5-0.1,27-0.1,40.5
			l-33.1,0.1l-33.1-0.1c0-13.5-0.1-27-0.1-40.5c0-11.6,0.8-12.5,12.8-15h-38.3l-0.1,0.4c1.2,0.2,2.5,0.5,3.7,0.7
			c6.5,1.5,8,3.2,8.2,9.9c0.2,10.6,0.1,21.3,0.1,32c0,20.8,0,41.6-0.1,62.4c0,6.7-2,9.3-7.7,11.3c8.9,0,17.9,0,26.8,0
			c1,0,1.8,0,2.1-1.1c-8.5-1.7-7.5-8.4-7.5-14.5c0-13,0-26,0-39c0-1.6-0.5-3.3,0.5-4.9h0.5v0.4c4.3,0,8.6-0.1,12.9-0.1l19.3-0.1
			l19.3,0.1c4.3,0,8.6,0.1,12.9,0.1v-0.4h0.5c1,1.5,0.5,3.2,0.5,4.9c0,13,0,26,0,39c0,6.1,0.9,12.7-7.5,14.5c0.3,1,1.1,1.1,2.1,1.1
			c8.9,0,17.9,0,26.8,0c-5.7-2-7.7-4.6-7.7-11.3c-0.1-20.8-0.1-41.6-0.1-62.4c0-10.7-0.1-21.3,0.1-32
			C640.6,408.9,642.2,407.2,648.6,405.6z"/>
		<path class="st0" d="M568.2,520c0.1-0.1,0.1-0.2,0.1-0.3c-0.1-0.7-0.3-0.5-0.4,0.2c0,0.1,0,0.2-0.1,0.3l0,0
			C567.9,520.2,568.1,520.1,568.2,520z"/>
		<path class="st0" d="M237.3,520.2l-35.1,0.2c-0.7-2,1-3,1.8-4.3c8.6-13.5,17.2-26.9,25.8-40.4c14.4-22.4,28.7-44.8,43.1-67.2
			c0.7-1,2.2-2,1.2-3.5c-0.7-1.1-2.1-0.5-3.2-0.5c-3.8,0-7.6,0-11.5,0.1l0,0c-15.4-0.7-30.8-0.5-46.1-0.1c-4.7,0-9.3,0.2-14-0.1
			c-3.2-0.2-4.3,1.1-5,4c-1.3,5.6-3,11.2-4.6,16.8c-0.2,0.7-0.5,1.4,0,1.8c0.7,0.6,1.6,0.3,2.1-0.5c1.9-2.5,3.8-5.1,5.8-7.5
			c4.6-5.5,9.4-10.8,16.6-13c14.9-0.5,29.9-0.8,44.8,0.1c0.2-0.1,0.3-0.2,0.4-0.3c-0.1,0.1-0.3,0.2-0.4,0.3l-73.5,114.7h16.7
			c11.7,0.8,23.4,0.5,35.1,0.2c7.7,0,15.4-0.4,23,0.3c5.9,0.5,8.7-1.6,10.3-7s5-10.1,5.2-16.2C266,511.2,253.4,518.8,237.3,520.2z"
			/>
		<polygon class="st1" points="189.2,429.2 189.3,429.5 189.6,429.2 		"/>
		<path class="st2" d="M431.3,107.4L431.3,107.4L431.3,107.4L431.3,107.4L431.3,107.4c1.6-0.8,2.7-2.3,3-4l0,0l0,0l0,0
			C432,103.7,431.2,105.2,431.3,107.4z"/>
		<path class="st2" d="M445.3,69.4L445.3,69.4L445.3,69.4c1.2-0.5,2-1.7,2-3l0,0l0,0C445.3,66.5,445.1,67.9,445.3,69.4z"/>
		<path class="st2" d="M469.3,86.4L469.3,86.4c1.7-0.3,3.2-0.8,3-3l0,0l0,0C470.6,83.7,469,84.1,469.3,86.4z"/>
		<path class="st2" d="M253.3,78.4c0,0.6,0.4,1,1,1l0,0l0,0C254.3,78.7,254.1,78.3,253.3,78.4L253.3,78.4z"/>
		<path class="st2" d="M464.2,78.4L464.2,78.4L464.2,78.4c1-0.3,1.5-1,1-2h0l0,0C464.3,76.7,463.8,77.3,464.2,78.4z"/>
		<path class="st2" d="M403,113.6L403,113.6c0.1-0.1,0.2-0.1,0.3-0.2C403.2,113.4,403.1,113.5,403,113.6z"/>
		<path class="st2" d="M241.3,64.4c1.7,4.1,5.2,6.8,8,10c0.9,1.7,2.3,3.1,4,4l0,0l0,0c0.6-2.6-1.4-3.7-3-5
			C247.2,70.5,246,65.8,241.3,64.4L241.3,64.4L241.3,64.4z"/>
		<path class="st2" d="M399.3,134.4L399.3,134.4L399.3,134.4c1.2-0.5,2-1.7,2-3l0,0l0,0C399.2,131.4,399.1,132.8,399.3,134.4z"/>
		<path class="st2" d="M239.3,62.4c0.5,0.8,0.9,1.8,2,2l0,0l0,0c0.9-1.5-0.4-2.1-1.1-3c-0.4-0.8-0.9-1.5-2-1l0,0
			C238.1,61.3,238.5,62.1,239.3,62.4z"/>
		<path class="st2" d="M479.3,93.4L479.3,93.4l1-1l0,0l0,0C479.6,92.4,479.3,92.7,479.3,93.4L479.3,93.4z"/>
		<path class="st2" d="M408.3,143.4L408.3,143.4L408.3,143.4c1.3,0,2.1-0.6,2-2l0,0l0,0l0,0C409,141.5,408.2,142,408.3,143.4
			L408.3,143.4z"/>
		<path class="st2" d="M237.3,58.4c-0.4,0.7-0.1,1.5,0.6,1.9c0.1,0.1,0.3,0.1,0.4,0.1c0.4-0.7,0.1-1.5-0.6-1.9
			C237.6,58.5,237.5,58.4,237.3,58.4L237.3,58.4z"/>
		<path class="st2" d="M406.3,145.4L406.3,145.4L406.3,145.4L406.3,145.4c-0.8-0.3-1.7,0.1-2,0.8c0,0.1,0,0.1-0.1,0.2l0,0l0,0
			C405.1,146.6,406,146.2,406.3,145.4z"/>
		<path class="st2" d="M407.3,144.4c0.6,0,1-0.4,1-1l0,0l0,0c-0.5-0.1-0.9,0.3-1,0.8C407.3,144.3,407.3,144.3,407.3,144.4
			L407.3,144.4z"/>
		<path class="st2" d="M407.3,144.4L407.3,144.4L407.3,144.4c-0.5-0.1-0.9,0.3-1,0.8c0,0.1,0,0.1,0,0.2l0,0L407.3,144.4z"/>
		<path class="st2" d="M480.3,92.4L480.3,92.4L480.3,92.4c0.6,0,1-0.4,1-1l0,0l0,0C480.5,91.3,480.2,91.6,480.3,92.4z"/>
		<path class="st2" d="M234.3,55.4c0,0.6,0.4,1,1,1l0,0l0,0C235.3,55.8,235,55.4,234.3,55.4L234.3,55.4z"/>
		<path class="st2" d="M235.3,56.4c0.1,1.3,0.5,2.2,2,2l0,0l0,0l0,0l0,0C237.2,57.1,236.7,56.3,235.3,56.4L235.3,56.4z"/>
		<path class="st2" d="M479.3,93.4L479.3,93.4L479.3,93.4L479.3,93.4c-1,0.1-1.2,0.7-1,1.6l0,0L479.3,93.4z"/>
		<path class="st2" d="M411.3,140.4L411.3,140.4l-1,1l0,0C411,141.4,411.4,141.1,411.3,140.4z"/>
		<path class="st2" d="M314.4,160.4c0-0.6-0.3-1-1-1v0.1l0,0l0,0l-0.1-0.1c0,0.6,0.4,1,0.9,1C314.3,160.4,314.3,160.4,314.4,160.4
			L314.4,160.4L314.4,160.4z"/>
		<path class="st2" d="M313.4,159.4c0-0.7-0.2-1.1-1-1v0.1L313.4,159.4L313.4,159.4L313.4,159.4z"/>
		<path class="st2" d="M269.4,85.4c-5.7-6.6-10.1-14-14.3-21.5c-2.7-5-6.3-9.4-10.6-13.1c-0.6-1.4-1.3-2.6-3.1-2.5l0,0l0,0
			c0.2,1.9,1.6,3,2.9,4.1c7.1,10.6,14,21.2,21.2,31.8c1.1,1.7,1.9,4.3,4.8,4.2l0,0C271.3,87,270,86.2,269.4,85.4z"/>
		<path class="st2" d="M312.3,158.4L312.3,158.4c0.8-1.5-0.3-2.5-1.2-3.4c-5.6-6-11.4-12-18.2-16.6c-0.6-0.9-1.2-1.9-2.5-2l0,0l0,0
			l-0.1,0.1c-0.8,1.1,0.3,1.5,0.9,2L312.3,158.4L312.3,158.4L312.3,158.4L312.3,158.4z"/>
		<path class="st2" d="M241.3,48.4L241.3,48.4L241.3,48.4c0-0.7-0.3-1.1-1-1l0,0l0,0l0,0l0,0C240.3,48,240.8,48.4,241.3,48.4z"/>
		<path class="st2" d="M290.3,136.4L290.3,136.4L290.3,136.4c-0.4-0.9-0.7-1.9-2-1c0,0,0,0.1,0,0.1l0,0c0.4,0.9,0.7,1.8,1.9,1.1
			C290.3,136.5,290.3,136.5,290.3,136.4L290.3,136.4z"/>
		<path class="st2" d="M316.3,162.4c-0.2-1.2-0.6-2.1-2-2l0,0l0,0l0,0l0,0C314.3,161.7,314.9,162.4,316.3,162.4L316.3,162.4z"/>
		<path class="st2" d="M308.1,139.4l-6.8-12.9c-0.7-3.7-2.9-6.6-5.3-9.3c0.1,3.3,3.1,5.7,2.3,9.2c-2.9-1-3.7-4.7-7-5.1l0,0l0,0
			c1,3.2,3.7,4.9,5.9,7.1c3.4,3.3,6.5,7,9.2,10.9c1.3,2.6,2.5,5.3,4.9,7C311.8,143.3,309.7,141.5,308.1,139.4z"/>
		<path class="st2" d="M317.3,164.4L317.3,164.4L317.3,164.4L317.3,164.4L317.3,164.4c0.2,1.8,1.1,2.9,3,3l0,0
			C320.1,165.6,319.4,164.3,317.3,164.4z"/>
		<path class="st2" d="M317.3,164.4c0.3-0.8-0.2-1.7-1-2l0,0l0,0C316.1,163.2,316.5,164.1,317.3,164.4
			C317.3,164.3,317.3,164.3,317.3,164.4L317.3,164.4z"/>
		<path class="st2" d="M288.4,135.3c0.3-1,0-1.3-1-1c0,0,0,0,0,0.1l0,0h0C287.3,135.1,287.7,135.4,288.4,135.3L288.4,135.3
			L288.4,135.3z"/>
		<path class="st2" d="M402.3,114.4c-4.1,3.8-4.5,9.4-7,14C400,124.9,401.6,119.9,402.3,114.4L402.3,114.4L402.3,114.4z"/>
		<path class="st2" d="M257.3,82.4c0,0.7,0.3,1,1,1l0,0l0,0l0,0C258.3,82.8,257.9,82.4,257.3,82.4L257.3,82.4z"/>
		<path class="st2" d="M258.3,83.4c-0.3,0.8,0.1,1.6,0.8,1.9c0.1,0,0.1,0,0.2,0.1l0,0l0,0C259.6,84.6,259.1,83.7,258.3,83.4
			L258.3,83.4z"/>
		<path class="st2" d="M254.3,79.4c0.2,1.8,1,3,3,3l0,0l0,0l0,0l0,0C257.1,80.6,256.3,79.4,254.3,79.4L254.3,79.4L254.3,79.4z"/>
		<path class="st2" d="M223.3,76.4L223.3,76.4c-0.6-2.6-2.2-4-5-4l0,0l0,0C219.4,74.3,221.2,75.7,223.3,76.4L223.3,76.4z"/>
		<path class="st2" d="M287.4,134.3c0.8-2.3-1.4-3-2.4-4.3c-9.8-12.8-23-21.8-35.4-31.8c-4.8-5-9.8-9.6-15.1-14
			c-3.4-3.1-6.3-6.8-11.1-7.9l0,0l0,0c2.7,3.7,6.6,6.1,10,9l14.8,14.3c0.9,1.7,2.8,2.7,3.2,4.7c-4.5,0.8-7.3-2.8-11-4l-22.9-13.1
			c-2-1.7-3.2-4.4-6.1-4.9l0,0l0,0c0.5,2.5,2.3,3.9,4.3,5.1c6.9,6.3,15.1,10.2,23.4,14.1c3.8,2.4,7.9,4.2,12.2,5.4
			c10.6,3.8,19.1,10.5,26.4,19C280.5,129.2,283.2,132.7,287.4,134.3L287.4,134.3L287.4,134.3z"/>
		<polygon class="st2" points="402.3,114.3 402.3,114.4 402.3,114.3 		"/>
		<path class="st2" d="M259.3,85.4c0.1,1.3,0.6,2.1,2,2l0,0l0,0C261.2,86.1,260.7,85.3,259.3,85.4L259.3,85.4z"/>
		<path class="st2" d="M218.3,72.4L218.3,72.4c0.1-0.8-0.2-1-0.9-1c0,0,0,0,0,0.1l0,0C217.4,72,217.8,72.4,218.3,72.4L218.3,72.4
			L218.3,72.4z"/>
		<path class="st2" d="M511.2,118.1c-0.2-0.8-0.6-1.6-1.1-2.2C500.6,99,489.9,82.9,478,67.7c-4.8-6.1-11-11.3-18.7-12.8
			c-11.6-2.2-18.7-9-24.7-18.4c-7.9-12.2-21.4-12.4-30.3-0.8c-3.4,4.4-5.6,9.4-7.8,14.5c-4.1,9.6-7,19.8-12,29.1
			c-1.3,2.5-2.4,7-5.4,6c-2.4-0.8-0.5-5.1,0.1-7.7c3.8-14.8,7.6-29.7,11.7-44.4c4.9-17.6-4.6-30.4-22.9-30.2
			c-9.9,0.1-19.7-0.2-29.3-2.2c-4.7-1.1-9.7-0.9-14.3,0.4c-8.7,2.5-17.8,2.9-26.7,1.2C290,1,282.8,2.5,275.9,6
			c-5.6,2.9-11.4,5.6-17.2,8c-10.9,4.3-20.7,9.3-25.7,21.2c-2.6,6.2-8.5,8.6-15.5,6.8c-2.7-0.7-5.6-1.2-8.4-1.3
			c-5.9-0.4-7.8,1.5-7.6,7.5c0.1,4.3,0.7,8.8-2.6,12.3c-8.2,8.8-6.2,19.3-0.8,28.1c6.3,10,15.2,15.9,26.6,18.8
			c14.8,3.7,28.5,10.6,38.2,22.4c9.2,11.2,19.6,20.8,30.8,29.7c12.9,10.2,22.4,22.8,27.1,38.6c5,16.7,7.5,33.8,6.3,51.3
			c-1.4,20.3-5,40.4-4,62.6c-0.3,19.4,4.1,40.2,4.8,61.4c0,2.5,1,5,2.8,6.8c1.2,1.2,2.5,1.6,4,0.4c5.8-4.6,7.4-10.7,5.4-18
			c-10.4-37.7-12-75,2.8-112.2c14.3-36,38.7-58.4,78.1-62.3c20.6-2,41.1-3.7,61.8-2.1c5.7,0.4,11.3,0.5,17,0.2
			c5.9-0.3,9.8-3.5,12.2-8.9C520.7,157.3,515.5,137.7,511.2,118.1z M505.4,122.1c0.2,1.6-0.8,2.4-2.1,3c-2,0.8-4,1.7-5.9,2.5
			c-2,0.7-4.1,1.3-6.1,2.1c-14.1,5.8-28.5,10.9-41.3,19.4c-9.4,4.7-19.5,6.9-29.6,9.4c-0.7-0.4-1.9,0.5-2.4-0.8l6.6-3.1l1.2-0.7l3-1
			c9.5-2.6,18.9-6.1,26.9-11.7c13.6-9.6,28.4-16.6,43.7-22.7c1.3,0.1,2.6,0.3,3.9,0.6C504.4,119.6,505.3,120.7,505.4,122.1
			L505.4,122.1z M406.4,160c-2.4,0.2-4.5,2.2-7.1,1.4c2.6-4.1,7.2-5.4,10.9-7.9c4-2.8,8.3-5.2,12.4-7.8c8.2-4,14.3-10.7,20.8-16.9
			c2-2,4.1-3.8,6.3-5.7c0.9-0.8,2-1.5,2.7,0.3c-2.4,5.8-5.2,11.4-8.3,16.8l-3,3.1l-13.4,8.4l-2.6,1.4l-1.7,0.4
			C417.5,155.3,411.9,157.4,406.4,160z M499.3,116.5c-13.2,4.7-26.1,9.9-37.6,18.2c-4.5,3.2-9,6.4-14.1,8.5
			c-1.3,0.6-2.8,2.3-4.3,0.1c0.5-0.8,1-1.7,1.5-2.5l13.7-11.3c9.8-6,19.6-12.2,28.9-19c3.2-1.6,6.2-3.8,8.9-6.3
			C501.2,105.8,502.9,112.5,499.3,116.5L499.3,116.5z M427.4,41.2c1.9,3.7,0.5,7.5,0,11.2c-3.6,9.6-8.1,18.9-13.4,27.7
			c-4.9,8.3-8.7,17.2-11,26.5c-0.3,1.1-1.2,2.1,0.3,3c5.5-11.4,10.9-22.9,16.4-34.3c3.6-7.5,7.1-14.9,9.7-22.8
			c1.7-1.9,1.3-6.5,6-4.6s7.3,6.1,6.3,10.6c-3.2,4.9-6.8,9.6-9.4,14.9c-4.2,6.2-8.6,12.2-12.1,18.8c-1.2,1.8-2.3,3.6-3.3,5.5
			c-5,10.6-9.1,21.7-15.2,31.8c-0.6,0.5-0.8,1.3-0.4,2l0,0l0,0c1-0.3,1.7-1,2-2c3.8-4.1,6.7-9,8.6-14.3c2.7-7.4,5.3-14.9,9.4-21.7
			c4.4-6,9-12,12.2-18.7l9.8-16.2c4.9-2.2,6.6-1.5,6.6,2.8c-1.5,1.4-3,2.8-2.7,5.2l0,0l0,0c1.4-0.6,2.6-1.8,3-3.3
			c2.4-2.4,4.9-3.4,8.3-1.7c2.8,1.5,3.4,3.2,1.5,5.7c-6.9,7.9-13.2,16.2-18.9,25c-2.5,3.6-6.1,6.5-6.9,11.2l0,0l0,0l0,0l0,0
			c3.5-2.7,5.6-6.4,8-10l19.2-24.9c4.6-2.2,6.2-0.9,5.8,4.8c-1.1,0.7-1.8,1.8-1.9,3.1l0,0l0,0c1.7,0.4,2.3-0.9,2.9-2.1
			c2.2-2.7,4.5-3,7.1-0.5c2,1.9,3.7,3.9,0.9,6.5c-1.4,0.9-3.2,1.3-3.9,3.1l0,0l0,0c1.8,0.7,2.9-0.5,4-1.5c5.7-0.7,7.9,1.4,6.9,6.4
			c-1,0.8-2.4,1.4-1.9,3.1l0,0l0,0c0.9,0.2,1.8-0.4,2.1-1.2c2.2-1.6,4.2-1.5,5.9,0.8c2.5,3.5,6.7,5.9,6.6,11l-10,7.1
			c-10.3,5.3-19.9,11.7-28.6,19.3l-5.8,4.2c-0.2-0.2-0.4-0.4-0.5-0.6c1-2.7,2-5.4,3-8.2c4.5-7.9,10.6-14.5,16.6-21.2l7.4-7.2
			l0.1-0.1l-0.1,0.1c-4.2,0-6,3.6-8.6,6c-4.3,3.8-8.7,7.6-12.9,11.6c-11.5,10.7-22.2,22.3-35,31.5c-6.9,4.1-13.7,8.2-20.5,12.4
			c-1.9,1.1-3.3,2.7-4.2,4.7c-4.9,4.1-9.1,9-13.4,13.8l-3,2.1c-1.2-2.4,0.9-3.7,2-5c5.4-6.7,11-13.3,16.5-19.9
			c2.3-1.6,4.8-3,5.5-6.1l0,0l0,0c-3.2,1-5,3.6-7.1,5.8c-9.2,7.5-15.4,17.4-21.8,27.2l-1.6,1.4l-0.8-0.7c0.9-6.5,4.4-12,7.5-17.6
			c1.1-0.6,1.8-1.9,1.8-3.2l0,0l0,0c-1-0.3-1.5,0.3-2,1.1c-1.3,0-1.3-1-1.3-1.9l1.5-5.4l6.7-11.6c1.5-1.8,3.6-3.3,3.2-6.1l0,0l0,0
			c-2.1,0.6-2.2,3.7-4.7,3.7c3.6-12.1,8.1-24,10.8-36.2c3.1-15.1,9.2-29.5,17.7-42.4c4.3-6.4,7.5-13.3,8.3-21.1
			C425.2,36.5,426.4,39.2,427.4,41.2L427.4,41.2z M341.1,13.3c0.9-2.1-1.1-5.9,2.9-6.2c2.8-0.2,6,0.2,6.6,4.2
			c-0.1,3.1-0.4,6.3-0.4,9.4c0,12.2,0.6,24.5-1.7,36.6c-0.7,3-1.4,6.1-2.1,9.1c-1,3-1.9,6-2.9,9c-1.3,1.4-2,3.2-2,5.1
			c-1,1.4-0.7,3.6-2.9,4.7c-0.5-2-0.9-3.9-1.4-5.7c0.2-3.3,0-6.7,0.6-9.9c3.1-15.6,5.1-31.3,2.5-47.2
			C340.6,19.4,340.8,16.4,341.1,13.3z M341.4,113.4c-0.3,11.3-0.5,22.7-0.8,34c-0.7,3,0.2,6.3-1.5,9.1c0,0.1-0.3,0.1-0.4,0.1
			c-0.2-0.1-0.3-0.2-0.4-0.3c-2.7-6.7-2-13.9-2.7-20.9c-0.3-4.4-0.7-8.8-1.5-13.2c0-4.4,0.6-8.7,1.8-12.9c1.3-2,1.2-4.8,3.5-6.2
			l1.1,3.1C340.2,108.7,340.5,111.2,341.4,113.4z M329.8,6.3c7.5-2.5,9.6-0.8,9.9,7c-0.8,3-0.4,6.1-0.3,9.1
			c-0.7,0.7-0.4,1.5-0.4,2.3c0.5,9.8,1.1,19.5-0.5,29.3c-1.4,8.4-4.4,16.7-2.8,25.5c0.7,6.3,2.4,12.5,1.9,18.9
			c-2.8,1.8,0.6,6.4-3.8,7.8c-1.1-4.7,0.1-9.3-0.5-13.9c1.1-11.5-3.6-22-6-32.9c-0.6-6.7-1.6-13.4-3-20c-0.5-6.1-1-12.1-2.8-18
			c0-1-0.1-2-0.1-3C321,7.8,319.5,9.7,329.8,6.3z M294.2,9.8c2.5-1.1,4.4,1.1,5.9,3.2c0.4,0.5,0.7,1.1,1.1,1.6
			c2.1,8.7,4.2,17.3,6.3,25.9c1.2,8,1.8,16.1,1.8,24.2c0,2.1-0.3,3.2-2.1,0.9c-1.6-3.4-2.4-7.2-4.8-10.1c-0.1-0.8,0.1-1.8-1.1-2
			c0,0,0,0,0,0.1v-0.1l0,0c-0.8-8.2-3.2-16-5.1-23.9c0-2.4-0.5-4.9-1.6-7.1c-0.4-1.7,0.2-3.5-1-5c-0.1-0.6-0.2-1.3-0.2-1.9
			C293.5,13.5,291.9,10.8,294.2,9.8z M282.3,13.5c6.3-4.4,7.2-4.1,10,4c-0.3,1.8,0.8,3.3,1.1,5c0.1,2.4,0.6,4.8,1.5,7
			c1.2,8.2,1.9,16.6,6.3,24l0,0v0.1v-0.1c0.1,0.7,0.2,1.3,0.3,1.9c0.8,3.6,2.3,7,4.5,10c1.8,4.7,3.6,9.3,5.4,14l5.3,23
			c1.5,13,4.8,25.8,9.6,38c1.1,3.3,2.1,6.6,3.2,9.9c1.2,5.3,2.4,10.7,3.5,16.1c0,1.9,0,3.9,0,5.8l-0.9,0.6l-1.9-1.3l0,0l-0.1-0.1
			l0.1,0.1v-2.1c-0.4-2.6-1.7-5-3.6-6.8c-1.8-5.7-3.7-11.4-5.5-17.1c-1.7-7.7-3.5-15.3-5.2-23c-4.5-25.4-17.1-48-25.7-72
			c-3.2-9.6-6.3-19.3-9.5-29C280.7,18.7,278.9,15.8,282.3,13.5z M345.4,220.4l-1.5-0.1c0.4-3.3,0.9-6.6,1.3-9.9
			c0.7-2.3,1.4-4.6,2.1-6.9c2.9-6.6,3.4-13.9,5.4-20.7l3.6-11.3c2-6.3,4-12.5,4.9-19c2.4-8.9,4.9-17.8,7.1-26.8
			c0.7-2.8,2.5-5.8,0-8.7h-0.1v-0.1c-4,11.6-7,23.5-8.7,35.6c-1.6,6.3-3.1,12.6-4.7,18.9c-1.2,3.3-2.3,6.7-3.4,10.1l-1.8,3.9
			c-1.3-6.7,0.9-12.3,0.7-18c1.5-8.2,0.4-16.6,3.3-24.6c7.3-20.4,9.7-42,14.1-63l0.8-2.2c1.4-3.1,2.1-6.5,1.9-9.8
			c-2.2,2.6-2.2,5.8-2.8,8.8c-0.2,0.9-0.3,1.8-0.5,2.7c-0.9,1.4-1.5,2.9-1.8,4.5c-5.2,18-5.6,37-12,54.8c-3.5,9.2-5.1,19.1-4.8,28.9
			c-1.2,11.9-0.3,24.1-2.9,35.9c-1.4,2.1-1.1,4.7-1.8,7c-1.6,4.6-1.9,9.4-2.1,14.3c-0.7,6.7-2.1,13.3-4.3,19.7
			c-2.1-1.4-0.9-3.2-0.6-4.9c0.7-4.7,1.6-9.4,2.5-14c2-9.9,2.7-19.9,2.1-30c0-2.9,0.1-5.8,0.1-8.7c0-1.4,0.2-3.1-2.1-2.8v-1
			c0,0.3,0,0.7,0,1l0.8,11.4c-0.3,5-0.6,10-0.9,15.1c0.2,5.1-1.2,10-1.7,15c-0.5,1.8-2.5,2.7-2.4,5.1c0.2,4.3-0.4,8.6-0.7,12.9
			c-2.1,2.9-2,0.4-2-0.9c0-6.3,0.4-12.6-1-18.9c-1.9-8.4-3.6-16.9-5.2-25.4c-3.3-17.5-12.9-31.1-26.3-42.3
			c-4.1-3.4-8.1-6.9-12.4-10.1c-5.7-4.1-10.6-9.2-14.5-15c-6.8-10.4-16.5-17.2-27.9-21.7c-9.7-3.9-19.5-7.7-28.1-13.8
			c-7.8-5.5-14-12.3-16.5-21.8c4.8,0.8,5.9,6.1,9.9,7.9l0,0c-0.5-4.9-5-6.9-7.7-10.1c-0.4-0.5-0.8-1-1.1-1.6c-1-2.4-1.4-4.8,0.8-6.7
			c2.7-2.3,3.8,1.2,5.8,1.6c1.9,1.6,3.1,4.1,6.2,3.8l0,0l0,0l0,0l0,0c-1-2.3-3-3.6-4.9-5c-3.8-3.3-3.9-7.3-2.3-11.7
			c0.4-1.3,1.2-1.4,2.2-1c12.8,12.4,25.4,24.9,38.4,37.1c5.9,5.6,12.2,10.8,19.6,14.4c7.4,4,14.4,8.7,20,15.1c0.6,1.4,1.6,2.4,3,3
			l0,0l0,0c0.6-1.9-0.6-3.1-1.9-4.1c-5.4-9-14.4-14.4-21.1-22c-1.5-1.8-1.9-4.7-4.9-5.1l0,0l0,0c0.5,2,1.6,3.8,3.2,5
			c0.3,2.2,3.6,3.4,1.8,6.2c-2.8-2-5.8-3.9-8.5-6.1c-16.6-13.5-31.2-29-46.3-44c-0.8-0.6-1.3-1.5-1.4-2.5c2.1,0.3,4.2,0.5,6.3,0.4
			c5-0.4,9.7-0.1,13.9,3l0,0l0,0l0,0h0.1c0-2.3-1.3-4.6,1-6.9c1.9-1.8,3.2-2,4.9-0.1c0.6,1.4,1.6,2.4,3,3l0,0l0,0
			c0.5-1.1,0-2.4-1.1-3c-1.4-4.3,0.2-9,3.9-11.5c1.3-0.8,2.1-0.1,3.1,0.5l42.8,67.5c-0.1,1.1,0.9,2.6-0.3,3.2s-2-0.7-2.8-1.5
			c-1.6-1.4-3.2-2.9-4.8-4.3l-9.9-10.2l-1.1,0.2l0,0c-0.1,0.4-0.2,0.7-0.2,1.1c3.1,3.6,6.5,6.9,10.2,9.9c2.6,3.1,5.5,5.9,8.7,8.4
			c1.5,1.9,2.9,3.8,4.4,5.7c0.2,1,0.4,2,1.8,1.7c0.3-0.1,0.5-0.6,0.8-1l-1.6-0.8c0.4-2.9-1.1-5.4-2.1-7.9c-0.4-2.3-1.3-4.4-2.7-6.2
			c-3.6-9.1-9.7-16.6-14.8-24.8c-8.8-14.1-17.1-28.5-27-41.9c-1.2-3.1,1.2-4,3.3-5.1c3.4-1.8,6.1-0.5,8.4,2c0.8,2.3,2.2,4.3,4,5.9
			c-0.1-2.2-0.5-4.4-2.3-6c-2.5-4.1-1.6-7,3.1-8.6c2.2-0.8,4.2-1.8,6.3-2.9c4.4-2.3,7.5-1.3,9.2,3.5c2.9,10.2,5.1,20.7,9.5,30.4
			c7.7,23.8,18.4,46.5,25.4,70.6l5.5,23c0.1,1,0.2,1.9,0.3,2.9c-2.3,0.5-2.8-1.4-3.5-2.7c-1.9-3.3-3.3-6.7-4.4-10.4
			c-0.3-1.3-0.9-2.3-2.3-1.4c-1,0.7-0.2,1.3,0.7,1.5c1.1,2.7,2.2,5.4,3.2,8.2c0.4,1.1,1.9,2.4,0.7,3.5s-2.1-1.4-3.5-0.6
			c0.6,3,2.6,5.2,4.8,7.2c0.4,2.1,2.4,3,3.3,4.7c1.5,2.9,3.9,5.4,2.8,9.1l0,0c-1.5,1.1-1.7,2-0.5,3.7c4.5,6.8,7.8,14.3,9.7,22.2
			c-0.2,1.6,0.3,3.2,1.2,4.5c2.1,8.8,1,18,3.3,26.8c0.6-4.7,1.2-9.5,1.8-14.2l-3.6-43.9c-0.1-6-1.4-11.8-3.6-17.3
			c-0.4-3-1.2-6-2.5-8.8l-9.8-38c-1-7.8-2.7-15.5-5.3-23c-0.7-3.4-1.9-6.8-1.5-10.4c0.1-1.1-0.3-2.5,0.9-3.1
			c1.5-0.8,2.3,0.7,3.2,1.5l6.3,11.2c0.4,0.8,0.3,1.9,1.5,1.9c0.7-0.7,0.3-1.3,0.1-2c-1.7-3.9-3.8-7.6-6.3-11
			c-5.2-8.2-6-17.8-7.8-27c-1.5-8.8-3.8-17.5-6.8-26c0.1-1.2-0.6-2.5,1.3-3.2c8.5-2.8,14.4,0.5,16.4,9.1c0.1,0.3,0.1,0.6,0.2,1
			c0.5,6.1,1.4,12.1,2.7,18.1c0.2,6.7,1,13.3,2.3,19.9c1.2,10.8,4.9,21.2,5.6,32.1h-2.5c-1.5-3.8-0.9-8.6-5.2-11
			c2.3,8.7,4.5,17.3,6.8,26c0.8,5.6,1.5,11.3,2.3,16.9c0.7,8.9,1.1,17.9,2.4,26.7c0.3,2.3-0.9,5.4,1.7,7.3
			c0.2,8.6,1.6,17.1,2.8,25.5c1.7,0.4,2-0.7,2.1-1.9c0.1-13.7,3.1-27.1,5.2-40.6c2.6-8.5,3.8-17.3,4.7-26.1c0.9-6,1.8-11.9,2.7-17.9
			c2.8-13.1,4.5-26.5,5.1-39.9c0.4-2,0.9-4,1.3-6l0,0l0,0c-2.3,1.4-2.2,3.9-2.8,6c-1.6,5.9-1.5,12.1-2.3,18.1
			c-0.7,5.1-0.6,10.3-2.9,15.1c-1.2-0.7-2-1.9-2-3.3c-0.3-1.8-0.5-3.6-0.9-5.3c-0.5-2,0.4-4.9-3.1-5.1l0,0l0,0l2.4,10.4
			c0.5,8.6,2,17.2,1.2,25.8c-1.5,9.5-3,18.9-4.5,28.3c-0.7,1.7-1.4,3.4-2,5.1c-1.9-1.2-0.9-3-0.9-4.5c-0.1-9.2-0.1-18.4-0.2-27.6
			c0.2-2.3,0.4-4.7-0.8-6.9c-0.2-8.8-0.3-17.5,1.2-26.2l1.9-4.4l1.7,0.1c3-2.8,0.2-6.7,1.8-9.7c0.7-3,1.3-5.9,2-8.9
			c0.2-4.9,2.6-9.5,2-14.6c-1.4-10.4-0.7-20.9,0.1-31.3c2.8-3.8,6.9-3.4,10.8-3c3.4,0.4,3.6,3.1,3,5.7c-1,5-1.2,10.2-0.6,15.2
			c0.1,4.1-0.6,8.2-2.1,12.1c-0.9,2.2-2.5,4.3-2,6.9h0l0,0c4.1-4.9,6.2-11.3,5.8-17.7c0.6-6.1,0.3-12.3,1.6-18.4
			c0.3-1.3,0-3.6,1.8-3.7c2.1,0,2.1,2.4,2.3,3.9c1.1,8.6,0.6,17.3,0,25.9c-0.3,5-0.9,10-1.3,14.9c-0.8,4.1-1.7,8.2-0.7,12.4
			c1.3-4,2.5-8.1,2.4-12.4c2.1-14.2,4.4-28.3,2.3-44c5,3.1,6.7,6.8,7.8,11c1.3,5.1,0.9,10.3-0.2,15.4c-4.9,22.8-9.8,45.6-11.7,68.9
			l-3.2,12.2l0,0.1c2.3,0,2.3-2.1,2.7-3.5c0.9-3,1.5-6.1,2.1-9.1c2.3-5.3,6.5-9.1,10.7-13l2.2,0.2c0.8-0.8,1.3-1.9,1.3-3
			c4-10.3,8.7-20.3,14-30c-5.3,9.7-10,19.8-14,30l-0.9-1.1c3.6-10.5,7-21.1,10.9-31.5c2.3-6.4,5.2-12.7,11.2-16.6
			c0.9-0.6,2-1.6,3.1-0.7c0.9,0.7,0.2,1.8-0.1,2.8h1.5l0,0c3.2-5.6,5.4-6.2,8-2c-2.5,8.7-6.4,17-11.5,24.6
			c-3.7,5.5-7.5,11.1-9.6,17.4c-7.8,23-12.9,46.7-20.1,69.9c-1.3,2.3-2.1,4.8-2.4,7.3c-2.1,6.4-4.7,12.7-7.6,18.9
			c-5.6,11.2-11.6,22.3-16.3,34l-2.3,3.1c-4.5-0.8,1.4-5.2-2.3-6.5c-1.8,3.2-1.8,6.9-2.7,10.4C346,218.9,345.6,219.6,345.4,220.4z
			 M497.8,177.6c-6,1.3-11.9-0.3-17.9-0.6c-30.8-1.5-61.2-0.2-90.5,10.7c-17.3,6.4-28.4,19.2-36.4,35.1c-1.6,3.2-2.3,6.9-5.7,9.7
			c-0.4-5.1,2.1-8.8,3.3-12.9l4.6-8.3c16.8-21.6,38.1-35.1,65.9-37.3c21.8-1.8,43.4-6,65.4-6.4c6.5-0.1,13.2,0.4,19.5-2.3
			c1-0.4,2.1,0.1,2.5,1.1C507.5,173.1,504.3,176.2,497.8,177.6z M509.2,162.2c-4.3,2.4-9.1,3-13.9,3.1c-9.5,0.2-18.9-0.5-28.4,0.7
			c-15,1.9-30,4.1-45,5.2c-16.2,1-31.7,6.6-44.9,16.1c-1.1,0.8-2,2.4-3.9,1.6c0.8-3.3,4.5-4.5,5.2-7.6c0.5,0.1,0.9-0.2,1-0.7
			c0-0.1,0-0.2,0-0.3c2.4-0.4,3.6-2.3,5-4c8.2-7.5,18.1-10.6,28.9-11.2c8.1,0.1,16-1,24-2.1l35-4.8c11-1.1,22-2.1,33.1-2
			C511.5,156.3,511.6,156.4,509.2,162.2L509.2,162.2z M500.5,154.1c-9.4-0.2-18.9,0.6-28.1,2.3c-12.1,0.7-24,3.3-36,5.1l-23.1,2.2
			c-1.3-0.4-2.9,0.4-3.8-1.2l1.8-0.3c3-0.8,6.3-0.6,9.2-2c14.3-1.8,28.5-4.3,41.8-10.1c2.1-0.9,4.9-1.1,6.1-3.7
			c-2.7-0.9-5.8,2.4-8.2-0.8c12.4-6.8,25.7-11.4,38.6-16.9c2.5,0.9,5.9-3.3,7.8,1.4c0,0.6,0,1.1,0,1.7c1.2,2.7-0.5,3.4-2.6,4
			c-5.5,1.5-11,3.1-16.5,4.7l-4,0.9c-3.3,0.9-6.8,1-10.7,3.7c5,0.2,8.4-1.6,11.9-2.4l2.8-0.5c4.6-0.7,9.2-1.1,13.6-2.7
			c3-1.1,5.2-0.8,6.9,3.1C513,154.4,513.3,154.3,500.5,154.1L500.5,154.1z"/>
		<path class="st2" d="M405.3,133.4c0.8,0.1,1.1-0.2,1-1h-0.1l0,0C405.7,132.4,405.3,132.9,405.3,133.4L405.3,133.4L405.3,133.4z"/>
		<path class="st2" d="M405.3,133.4L405.3,133.4L405.3,133.4l-1.2,1c-0.9,0.5-1.3,1.6-0.9,2.5l2.1-2.5L405.3,133.4z"/>
		<path class="st2" d="M407.3,131.4L407.3,131.4L407.3,131.4c2.8,0.2,3.7-2.3,5.3-3.8c4.2-3.2,8-6.9,11.3-11.1
			c0.9-0.3,1.5-1.1,1.5-2.1l0,0c0,0,0,0,0-0.1c-1.6-0.5-2.5,1.5-4,1.3l0.2-5.3l5.8-12c4.6-6.8,9.8-13.3,13.3-20.8c2-2.5,4-5,4.7-8.2
			l0,0l0,0l0,0c-3,0.9-3.7,3.8-5.1,6.1c-5.2,6.9-10.4,13.8-14.1,21.6c-2.6,4.1-4.5,8.6-5.5,13.3c-2.1,6.3-5.7,11.7-9.9,16.7
			C409.2,128.2,407.6,129.3,407.3,131.4L407.3,131.4z"/>
		<path class="st2" d="M406.3,132.4c0.8,0.2,1.2-0.1,1-1l0,0l0,0l0,0l0,0c-0.5,0-1,0.3-1,0.8C406.3,132.3,406.3,132.4,406.3,132.4
			L406.3,132.4C406.3,132.4,406.3,132.4,406.3,132.4z"/>
		<path class="st2" d="M361.3,48.4L361.3,48.4L361.3,48.4c-1.1,0.3-1.1,1.1-1,2l0,0l0,0v0.1C361.2,50,361.3,49.2,361.3,48.4z"/>
		<path class="st2" d="M386.3,154.4L386.3,154.4L386.3,154.4c0.8-0.2,1.3-1,1.1-1.8c0-0.1,0-0.1-0.1-0.2l0,0
			C386.1,152.6,386,153.4,386.3,154.4z"/>
		<path class="st2" d="M398.1,141l1.6-0.7l1.5-1.6l-1.6,1.6l-1.6,0.5c-1.5-0.9-0.8-2.2-0.7-3.4c1.1-0.6,1.9-1.7,1.9-3l0,0l0,0l0,0
			c-2,0-2.3,1.7-2.9,3.1c-3.1,4.9-7.1,9.3-9.1,15l0,0C391.8,149.4,394.7,145,398.1,141z"/>
		<path class="st2" d="M234.3,55.4L234.3,55.4L234.3,55.4c0.1-2.1-0.4-3.8-2.9-3.9v0.1l0,0l-0.1-0.1
			C231.2,53.6,232.8,54.5,234.3,55.4z"/>
		<path class="st2" d="M403.3,136.9c-0.2,0.2-0.3,0.3-0.5,0.5c-0.8,0-1.5,0.6-1.5,1.4c0,0,0,0,0,0l1.5-1.4
			C403,137.2,403.1,137.1,403.3,136.9z"/>
		<path class="st2" d="M391.3,134.4L391.3,134.4L391.3,134.4c2-0.1,2.3-1.4,2-3l0,0l0,0C392.1,131.8,391.2,133,391.3,134.4z"/>
		<polygon class="st2" points="426.3,112.3 426.3,112.3 426.3,112.3 		"/>
		<path class="st2" d="M391.3,134.4L391.3,134.4c-0.6,0-1,0.4-1,1l0,0l0,0C391,135.5,391.3,135.1,391.3,134.4z"/>
		<path class="st2" d="M385.3,155.4L385.3,155.4L385.3,155.4l1-1l0,0C385.6,154.4,385.3,154.7,385.3,155.4L385.3,155.4z"/>
		<path class="st2" d="M425.3,114.4c1-0.3,1.4-1,1-2h-0.1l0-0.1C425.4,112.7,424.9,113.3,425.3,114.4L425.3,114.4L425.3,114.4z"/>
		<path class="st2" d="M469.9,144.9c-1.4-0.6-1.5,0.6-1.7,1.5c0.9-0.2,1.8,0.8,2.6-0.1C471,146.2,470.4,145.1,469.9,144.9z"/>
		<path class="st2" d="M353.3,199.4c2.6-6,5.2-12,7.9-18.1l0,0l-1.1-1.3c-3,6.4-6.9,12.4-7.9,19.5c-1.9,1.6-2.1,3.8-2.9,6.5
			C353,204.6,353,201.9,353.3,199.4z"/>
		<path class="st2" d="M427.3,111.4L427.3,111.4L427.3,111.4c2,0,2.6-1.4,3-3l0,0l0,0C428.4,108.5,427.7,109.8,427.3,111.4
			L427.3,111.4L427.3,111.4z"/>
		<path class="st2" d="M427.3,111.4L427.3,111.4l-1,1l0,0C427.1,112.5,427.3,112.1,427.3,111.4z"/>
		<path class="st2" d="M430.3,108.4c0.5,0,1-0.5,1-1l0,0l0,0C430.6,107.4,430.3,107.7,430.3,108.4L430.3,108.4L430.3,108.4z"/>
		<path class="st2" d="M291.3,121.4L291.3,121.4c0-0.7-0.3-1.1-1-1l0,0L291.3,121.4z"/>
		<path class="st2" d="M308.3,130.4c0.1,1,0.4,2,1.7,1.8c0.3-0.1,0.6-0.6,0.8-0.9l-1.6-0.9c0.4-1.9-0.2-3.6-0.8-5.3
			c-2.9-8.3-5.7-16.6-8.6-24.9c-1.6-4.5-3.3-9-6.6-12.7c-7.4-12.7-14.7-25.3-22.1-37.9c-0.1-1.4-0.8-2.7-1.9-3.6
			c0.1,1.4,0.2,2.5,0.3,3.6c6.6,13.5,14.2,26.6,22.6,39.1c1.6,3.8,3.4,7.6,4.7,11.5C300.4,110.3,303.6,120.6,308.3,130.4z"/>
		<path class="st2" d="M266.4,40.5c0.1,0.7,0.2,1.5,0.3,2.2c0.1-0.1,0.4-0.1,0.4-0.2C267.4,41.7,267.1,40.9,266.4,40.5z"/>
		<path class="st2" d="M436.3,115.4c1.6-0.7,2.8-2.2,3-4l0,0l0,0C436.9,111.6,436.2,113.2,436.3,115.4L436.3,115.4z"/>
		<path class="st2" d="M393.3,131.4L393.3,131.4L393.3,131.4c2.1,0,2.4-1.3,2-3C394,128.8,393.2,130,393.3,131.4z"/>
		<path class="st2" d="M264.4,36.5c0.1,1,0,2.1,0.9,2.9C265.2,38.3,265.3,37.2,264.4,36.5z"/>
		<path class="st2" d="M434.3,118.4L434.3,118.4c1.3-0.4,2.1-1.7,2-3l0,0l0,0C434.4,115.5,434,116.7,434.3,118.4z"/>
		<path class="st2" d="M411.3,140.4L411.3,140.4L411.3,140.4c4.1-0.3,6.3-3.5,9.1-5.8c4.2-3.5,9.9-5.3,12.7-10.5
			c2.2-0.9,4-2,4.1-4.7l0,0l0,0c-1-0.2-2.4,0.5-3-1h0l0,0c-2.1-0.2-2.4,1.6-3.2,2.8c-3.4,4.5-7.4,8.6-11.8,12.2
			C416.4,135.5,413.3,137.3,411.3,140.4L411.3,140.4L411.3,140.4L411.3,140.4z"/>
		<path class="st2" d="M439.3,111.4c1.3-0.4,2.1-1.7,2-3l0,0l0,0C439.1,108.4,438.9,109.7,439.3,111.4L439.3,111.4z"/>
		<path class="st2" d="M261.4,87.4L261.4,87.4L261.4,87.4c-0.3,0.8,0.2,1.7,1,2c0,0,0,0,0,0l0,0l0,0c0.3-0.8-0.1-1.6-0.8-1.9
			C261.5,87.4,261.4,87.4,261.4,87.4z"/>
		<path class="st2" d="M449,99.5c4.4-6,8.9-12,13.3-18.1c1.1-0.8,2-1.6,2-3l0,0l0,0l0,0c-1.7-0.4-2.2,1-2.9,2.1
			c-5,6.1-10,12.3-15,18.4c-0.9,1.1-1.6,2-1.1,3.5l0,0C446.8,102,448.2,100.9,449,99.5z"/>
		<path class="st2" d="M442.3,114.4c2-0.7,2.9-2.4,4-4l19-20c1.5-1.1,3.3-2.1,4-4l0,0c-2.7-0.8-3.7,1.4-5.2,2.8
			c-7.3,5.7-13.6,12.4-18.9,20C443.8,110.7,441.6,111.8,442.3,114.4L442.3,114.4L442.3,114.4z"/>
		<path class="st2" d="M383.3,157.4L383.3,157.4L383.3,157.4c1.4,0.1,1.9-0.8,2-2l0,0l0,0C383.9,155.3,383.4,156.1,383.3,157.4z"/>
		<path class="st2" d="M383.3,157.4L383.3,157.4L383.3,157.4c-0.8,0.3-1.3,1.2-1,2c0,0,0,0,0,0l0,0l0,0c0.8-0.2,1.3-1.1,1-1.9
			C383.4,157.5,383.3,157.4,383.3,157.4z"/>
		<path class="st2" d="M441.3,108.4c1.2-0.2,2.1-1.2,2.1-2.4c0.6-0.2,1.1-0.9,1-1.6l0,0v-0.1l-1.1-0.2
			C442.1,105.3,440.7,106.3,441.3,108.4L441.3,108.4L441.3,108.4z"/>
		<path class="st2" d="M211.3,82.4L211.3,82.4L211.3,82.4c0-0.7-0.3-1.1-1-1l0,0l0,0C210.3,82,210.8,82.4,211.3,82.4z"/>
		<path class="st2" d="M437.3,119.4c2.8-0.5,4.1-2.5,5-5l0,0C439.3,114.7,438.3,117,437.3,119.4L437.3,119.4L437.3,119.4z"/>
		<path class="st2" d="M217.3,71.4L217.3,71.4L217.3,71.4c0-2-1.3-2.7-3-3l0,0l0,0C214.1,70.6,215.7,71.1,217.3,71.4z"/>
		<path class="st2" d="M444.3,104.4L444.3,104.4L444.3,104.4c1-0.3,1.6-0.9,1-2C444,102.6,443.4,103.1,444.3,104.4L444.3,104.4
			L444.3,104.4z"/>
		<path class="st2" d="M434.3,118.4L434.3,118.4z"/>
		<path class="st2" d="M368.3,116.8L368.3,116.8L368.3,116.8L368.3,116.8z"/>
		<path class="st2" d="M290.3,120.4L290.3,120.4L290.3,120.4L290.3,120.4z"/>
		<polygon class="st2" points="311.3,146.4 311.3,146.4 311.3,146.4 311.3,146.4 		"/>
		<path class="st2" d="M320.3,167.4L320.3,167.4z"/>
		<path class="st2" d="M287.3,134.4L287.3,134.4L287.3,134.4z"/>
		<path class="st2" d="M316.3,162.4L316.3,162.4L316.3,162.4z"/>
		<path class="st2" d="M290.4,136.4L290.4,136.4L290.4,136.4z"/>
		<path class="st2" d="M312.3,158.4L312.3,158.4L312.3,158.4L312.3,158.4L312.3,158.4z"/>
		<path class="st2" d="M411.3,140.4L411.3,140.4L411.3,140.4L411.3,140.4z"/>
		<path class="st2" d="M406.3,145.4L406.3,145.4L406.3,145.4z"/>
		<path class="st2" d="M386.3,154.4L386.3,154.4L386.3,154.4z"/>
		<polygon class="st2" points="383.3,157.4 383.3,157.4 383.3,157.4 383.3,157.4 		"/>
		<polygon class="st2" points="387.3,152.4 387.3,152.4 387.3,152.4 		"/>
		<path class="st2" d="M403.9,110.6c0.6,0.8,0.4,2-0.4,2.6c0,0-0.1,0.1-0.1,0.1c0.9-0.5,1.1-1.7,0.6-2.6
			C403.9,110.7,403.9,110.7,403.9,110.6z"/>
		<polygon class="st2" points="393.3,131.4 393.3,131.4 393.3,131.4 393.3,131.4 		"/>
		<polygon class="st2" points="391.3,134.4 391.3,134.4 391.3,134.4 391.3,134.4 		"/>
		<path class="st2" d="M402.3,114.4L402.3,114.4L402.3,114.4z"/>
		<path class="st2" d="M402.3,114.4l0.7-0.8l0,0L402.3,114.4z"/>
		<polygon class="st2" points="390.3,135.4 390.3,135.4 390.3,135.4 390.3,135.4 		"/>
		<polygon class="st2" points="360.3,50.4 360.3,50.4 360.3,50.4 360.3,50.4 		"/>
		<path class="st2" d="M270.3,88.4L270.3,88.4L270.3,88.4z"/>
		<polygon class="st2" points="234.3,55.4 234.3,55.4 234.3,55.4 234.4,55.4 		"/>
		<path class="st2" d="M258.3,83.4L258.3,83.4z"/>
		<path class="st2" d="M231.5,51.5L231.5,51.5L231.5,51.5L231.5,51.5z"/>
		<path class="st2" d="M478.3,94.9l-0.3,0.3L478.3,94.9z"/>
		<path class="st2" d="M480.3,92.4L480.3,92.4L480.3,92.4z"/>
		<path class="st2" d="M479.3,93.4L479.3,93.4L479.3,93.4z"/>
		<path class="st2" d="M479.3,93.4L479.3,93.4L479.3,93.4L479.3,93.4z"/>
		<path class="st2" d="M211.3,82.4"/>
		<polygon class="st2" points="218.3,72.4 218.3,72.4 218.4,72.4 218.3,72.4 		"/>
		<polygon class="st2" points="217.3,71.4 217.3,71.4 217.3,71.4 217.4,71.4 		"/>
		<polygon class="st2" points="223.3,76.4 223.3,76.4 223.4,76.4 223.3,76.4 		"/>
		<path class="st2" d="M407.3,131.4L407.3,131.4L407.3,131.4L407.3,131.4z"/>
		<path class="st2" d="M399.3,134.4L399.3,134.4L399.3,134.4z"/>
		<path class="st2" d="M434.3,103.4"/>
		<path class="st2" d="M427.3,111.4L427.3,111.4L427.3,111.4L427.3,111.4z"/>
		<path class="st2" d="M431.3,107.4L431.3,107.4z"/>
		<path class="st2" d="M426.3,112.4L426.3,112.4L426.3,112.4L426.3,112.4z"/>
		<polygon class="st2" points="426.3,112.3 426.3,112.3 426.3,112.3 		"/>
		<polygon class="st2" points="445.3,69.4 445.3,69.4 445.3,69.4 445.3,69.4 		"/>
		<path class="st2" d="M370.4,154.9c0.5-1.8,0.9-3.6,1.3-5.4C371.3,151.3,370.9,153.1,370.4,154.9z"/>
		<path class="st2" d="M413.1,41.3L413.1,41.3c-1.3,3.5-2.9,6.9-4.9,10C410.2,48.2,411.8,44.8,413.1,41.3z"/>
		<path class="st2" d="M377.4,116.8c2.6-8.5,5.8-16.8,8.7-25.2l0,0C383.2,100,379.9,108.3,377.4,116.8z"/>
		<path class="st2" d="M370.4,154.9c-2.2,9.1-5.2,18-9.2,26.4l0,0C365.2,172.8,368.2,164,370.4,154.9z"/>
		<polygon class="st2" points="442.3,114.4 442.3,114.4 442.3,114.4 442.3,114.4 		"/>
		<polygon class="st2" points="472.3,83.4 472.3,83.4 472.3,83.4 472.3,83.4 		"/>
		<polygon class="st2" points="439.3,111.4 439.3,111.4 439.3,111.4 439.3,111.4 		"/>
		<path class="st2" d="M434.3,118.4L434.3,118.4z"/>
		<path class="st2" d="M464.3,78.4L464.3,78.4L464.3,78.4z"/>
		<path class="st2" d="M444.3,104.4L444.3,104.4L444.3,104.4z"/>
		<polygon class="st2" points="323.3,80.4 323.3,80.4 323.3,80.4 323.3,80.4 		"/>
	</g>
</g>
</svg>
