<svg xmlns="http://www.w3.org/2000/svg" viewBox="0 0 664.82 518.43"><defs><style>.cls-1{fill:#d30b38;}</style></defs><g id="Layer_2" data-name="Layer 2"><g id="Layer_1-2" data-name="Layer 1"><path class="cls-1" d="M169,180.26c3.42-4.92,6.66-10,10.31-14.72a138.81,138.81,0,0,1,10.91-12.68,115.75,115.75,0,0,1,24.35-19.42c13.07-7.55,27.22-10.08,42-9.13a164.44,164.44,0,0,1,37.25,7.16c14.52,4.4,28.93,9.24,43.59,13.1a195.14,195.14,0,0,0,28.25,4.88,138.25,138.25,0,0,0,23,.41A113.1,113.1,0,0,0,422,142.73a104.75,104.75,0,0,0,33.14-20,3.32,3.32,0,0,1,.82-.34c-.41,8.69-3.59,16.26-8.07,23.58,6.6-.36,11.77-3.58,16.47-7.53a32.41,32.41,0,0,0,10.21-15.88,18.3,18.3,0,0,1,2,10.7,29.33,29.33,0,0,1-5.36,14.48c-.34.46-.27,1.23-.39,1.86.63.1,1.37.48,1.86.27a36.05,36.05,0,0,0,5.62-2.83c7.62-5.06,12-12.54,15.38-20.78a5.94,5.94,0,0,1,1.38-2.4,76.41,76.41,0,0,1,1.31,8.43A51.35,51.35,0,0,1,492,154.74,90.73,90.73,0,0,1,477.17,179a78.36,78.36,0,0,1-19.82,16c-12.3,7.28-25.79,11-39.78,13-12.29,1.69-24.6,1.34-37,0-22.64-2.53-43.81-9.79-64.45-19-10.9-4.84-21.73-9.83-32.72-14.46-13.18-5.54-26.59-10.59-40.91-12.15a94.91,94.91,0,0,0-31.29,1.46A136.36,136.36,0,0,0,170.86,180c-.43.26-.9.43-1.34.65Z"/><path class="cls-1" d="M267.12,200.61c0,6.35.26,12.72-.06,19-.47,9.4-1.3,18.79-2.08,28.17a147,147,0,0,1-6.58,33.23A140.36,140.36,0,0,1,233,327.68a130.32,130.32,0,0,1-34.87,29.23,135.24,135.24,0,0,1-27.24,12.18c-1,.32-2.34,1.23-2.93-.73-.48-1.58-.32-2.42,1.44-3.28,10.45-5.11,19.59-11.9,26.3-21.59a77.54,77.54,0,0,0,12.06-27.66c1.66-7.56,3-15.24,3.91-22.93,1.36-11.28,2.26-22.62,3.29-33.93.36-4,.64-8,.75-12,.32-11.24.61-22.48.78-33.73q.28-18.58.31-37.17c0-2,.47-2.78,2.66-3.15,13.62-2.35,26.73-.05,39.72,3.82,1.88.56,3.7,1.33,5.6,1.8s2.42,1.36,2.39,3.19c-.09,6.28,0,12.56,0,18.83Z"/><path class="cls-1" d="M395.09,138.73v-3.58c0-31.69.08-63.37-.07-95.06a52.82,52.82,0,0,0-2.71-17.57c-2.95-8.34-9.09-12.82-17.44-14.33-8.73-1.57-17.54-2.69-26.65-4,0,.18-.1-.16-.13-.51-.25-3.58-.25-3.58,3.42-3.58Q422.4,0,493.29,0c1.85,0,2.52.47,2.51,2.4s-.6,2.29-2.45,2.5C484,6,474.54,6.65,465.4,8.72c-11,2.52-16.9,9.73-17.74,21-.73,9.85-1,19.75-1.09,29.62-.16,18.07-.06,36.15,0,54.22a4.35,4.35,0,0,1-1.73,3.87,101.27,101.27,0,0,1-47.71,21.13C396.59,138.67,396.06,138.66,395.09,138.73Z"/><path class="cls-1" d="M267,114.93c-17.2-1.93-33.79-1.44-50,5.4-.08-1.11-.17-1.9-.17-2.69,0-23.59.13-47.18-.09-70.77-.07-7.42-.45-14.91-2.64-22.14-2.72-9-8.82-14.17-17.79-16.23a133.63,133.63,0,0,0-24.15-3.29c-1.5-.07-3-.36-4.78-.59-.05-.7-.06-1.49-.16-2.28C167,.61,167.55,0,169.42,0c8.77.1,17.54,0,26.31,0h115.9c3,0,3.4.4,2.85,3.44a2,2,0,0,1-1.36,1.31c-6.5.82-13.06,1.24-19.5,2.37a48.37,48.37,0,0,0-13.13,3.94c-7.35,3.63-10.89,10.33-11.79,18.25a216,216,0,0,0-1.53,21.86c-.2,20.26-.06,40.52-.07,60.78C267.1,112.87,267,113.76,267,114.93Z"/><path class="cls-1" d="M344.3,326.22c7.26-.83,14.39-1.43,21.45-2.53A94.37,94.37,0,0,0,380,320.25c7.41-2.4,11.6-8,13.24-15.38a55.52,55.52,0,0,0,1.46-11.39c.23-23.58.29-47.16.39-70.73,0-3.33,0-3.36,3.32-3.32a138.06,138.06,0,0,0,46.29-7c.48-.17,1-.28,1.83-.52v2.85c0,20.19-.09,40.38.06,60.56a256.12,256.12,0,0,0,1.16,26.44c1.15,10.32,5.56,16.42,16.73,19.54,6.41,1.8,13.13,2.49,19.74,3.52,3,.47,6.15.5,9.22.86,1.13.13,2.66-.12,2.7,1.92,0,1.72-.41,2.45-2.26,2.44-8.92-.06-17.84,0-26.76,0H347.37C343.76,330,343.76,330,344.3,326.22Z"/><path class="cls-1" d="M425,461.1H399.1c-1.34,0-2.77.28-2.84-1.89-.11-3.28-.06-3.48,2.6-3.86l1.35-.17c3.75-.48,4.68-1.22,4.79-5,.21-6.65.13-13.31.2-20,0-1.33-.65-1.64-1.83-1.64-7.33,0-14.67.05-22,0-1.47,0-2,.48-2,2,.07,6.28,0,12.56.1,18.83.09,4.54.83,5.26,5.39,5.86,1.68.23,3.05.37,2.91,2.72-.18,3-.06,3.11-3.21,3.12l-26.54,0c-1.27,0-2.8.22-2.64-1.81.13-1.6-.9-3.91,2.18-3.94a19.3,19.3,0,0,0,2.25-.31,3.89,3.89,0,0,0,3.7-3.89c.12-1.35.16-2.71.16-4.07q0-20.09,0-40.16c0-.75,0-1.51-.05-2.26-.16-4.52-1.05-5.45-5.59-6-1.4-.18-3.12.19-3.13-2.24,0-3.42,0-3.54,3.46-3.54h26.54c1.31,0,2.73-.18,2.61,1.83-.09,1.68.71,3.66-2.25,4-5.09.51-5.74,1.34-5.82,6.41-.08,4.76,0,9.53-.07,14.29,0,1.61.57,2.09,2.12,2.07,7.26-.05,14.52,0,21.77,0,1.3,0,2-.33,1.94-1.77-.09-5.22,0-10.44-.19-15.65-.19-4.06-1-4.73-5-5.3-3.38-.48-3.42-.6-3.26-4,.07-1.38.64-1.84,2-1.84q14.4,0,28.81,0c1.34,0,2,.57,1.86,1.9s.88,3.23-1.46,3.69c-1.25.25-2.54.33-3.8.59a3.44,3.44,0,0,0-3,3.45c-.13,2.26-.27,4.52-.27,6.79q0,18.6,0,37.2v.68c.06,7.36,2.59,9.25,10,8.32,4.66-.59,7-3.18,8.62-7.21,5.16-13.08,10.41-26.11,15.62-39.16,2-4.91,3.92-9.83,5.9-14.73.59-1.47,5.48-3.58,6.81-2.82a3.88,3.88,0,0,1,1.3,2c5.13,14,10.19,28,15.33,41.95,1.8,4.89,3.74,9.73,5.71,14.56A7.86,7.86,0,0,0,497,455.3c2.32.28,2.53,1,2.28,4.17-.15,1.89-1.45,1.64-2.61,1.64q-12.93,0-25.86,0c-1.27,0-2.75.25-2.71-1.76,0-1.72-.65-3.64,2.17-4.1,3.77-.62,4-1.23,2.82-4.86-1-3-2.13-6-3.11-9a2.44,2.44,0,0,0-2.76-2c-4.76.11-9.53.08-14.29,0a2.14,2.14,0,0,0-2.45,1.75c-1,3.26-2.13,6.46-3.07,9.73-.77,2.67-.18,3.53,2.56,4.14a9.2,9.2,0,0,0,1.78.3c1.78.06,2.26,1,2.23,2.66-.05,3.06-.05,3.14-3.17,3.14H425Zm35.63-46.53-.67,0c-2.06,5.68-4.11,11.35-6.25,17.28h12.58a8.19,8.19,0,0,0-.16-1.26Q463.35,422.56,460.59,414.57Z"/><path class="cls-1" d="M142.22,419.74c-.92,2.6-1.86,5.19-2.74,7.81q-5.53,16.43-11,32.88a2.17,2.17,0,0,1-2.41,1.82c-6-.15-4.79.91-6.54-4.79Q111.68,432,104,406.51c-1.3-4.29-3.47-7.42-8.38-8.05-2.42-.31-1.26-2.56-1.3-3.94,0-.53,1.17-1.56,1.81-1.57q14.18-.15,28.35,0c.65,0,1.8,1,1.82,1.57.06,1.34.95,3.11-1.08,3.93a4.86,4.86,0,0,1-.66.15c-5.89,1.19-6,1.29-4.27,7.11q4.11,14.14,8.27,28.28c.2.69.51,1.36,1,2.66,1.12-3.27,2.08-5.93,2.94-8.62q5.14-16.08,10.23-32.19c.44-1.36.8-2.68,2.66-2.39s4.24-1,5.37,2.2c4.73,13.23,9.72,26.37,14.61,39.55.18.48.41,1,.81,1.89A19.66,19.66,0,0,0,167,435q4-14.76,8.05-29.52c.17-.66.28-1.33.39-2,.42-2.61-.23-3.66-2.71-4.36a15.39,15.39,0,0,0-2-.4c-3.22-.51-3.36-.74-3.14-4.1.08-1.25.58-1.76,1.8-1.76,7.49,0,15,0,22.46.08.6,0,1.71.93,1.7,1.42,0,1.37.93,3.09-.93,4.05a2.57,2.57,0,0,1-.88.2c-4.56.5-7.06,3.26-8.44,7.44-2.46,7.46-5.12,14.86-7.52,22.34-3.35,10.43-6.57,20.9-9.75,31.39-.55,1.82-1.36,2.77-3.31,2.44a.81.81,0,0,0-.22,0c-4.92,0-3.83.41-5.38-3.74-4.47-12-8.81-24-13.21-35.95-.34-.92-.71-1.82-1.07-2.72Z"/><path class="cls-1" d="M275.87,392.48c7.84.43,15.75.37,23.51,1.39,22.21,2.92,31.24,21.95,26.1,41-3.45,12.77-12.25,20.47-24.74,23.78a81.61,81.61,0,0,1-17,2.34c-8.68.39-17.39.11-26.08.14-1.51,0-2.75-.1-2.62-2.13.1-1.68-.47-3.4,2.3-3.68,6-.59,6.75-1.45,6.77-7.54.06-14.06,0-28.13,0-42.2a15.69,15.69,0,0,0-.1-1.81c-.41-3.74-1.15-4.5-4.86-5-3.32-.48-3.25-.49-3.21-3.81,0-1.64.74-2.06,2.22-2.05,5.9.05,11.8,0,17.69,0Zm3.93,33.42c0,3.78,0,7.56,0,11.34s0,7.71.18,11.56c.23,4.11,1.87,5.58,6,5.85a19.94,19.94,0,0,0,19.87-11.59,38,38,0,0,0,1.7-28.72c-3.35-10.47-11.77-15.93-22.71-15.21-4.24.28-5,1-5,5.22C279.77,411.54,279.8,418.72,279.8,425.9Z"/><path class="cls-1" d="M649.07,424.11c1.92.67,3.4,1.15,4.85,1.72,5.8,2.27,10,6,10.77,12.53.78,7-1.88,12.56-7.54,16.68-5.94,4.32-12.86,5.66-19.93,5.89-9.74.32-19.5.13-29.25.18-1.32,0-2.32-.31-2.09-1.88s-1-3.4,1.8-3.82c6.6-1,6.82-1.27,6.84-7.85.05-14,0-28,0-41.95,0-.3,0-.61,0-.91-.17-4.61-.9-5.49-5.52-6-1.8-.21-2.71-.75-2.62-2.78.13-2.92.07-3,3.08-3,10.36,0,20.72-.14,31.06.13a36.06,36.06,0,0,1,10.84,2c6.14,2.17,9.43,6.87,9.67,13.45s-3,11-8.63,14C651.42,423,650.44,423.42,649.07,424.11Zm-1.48,17.57c0-5-1.45-9.31-6.24-11.36-2.91-1.24-6.25-1.47-9.42-2.07-1.5-.29-1.94.54-1.91,2,.08,3.4,0,6.8,0,10.2,0,3.1,0,6.2.28,9.28.32,3.61,1.92,5,5.41,5.07C642.81,455,647.55,449.73,647.59,441.68Zm-17.22-19.53c2-.19,4.07-.22,6-.58,5-.94,7.57-3.66,8-8.73a20.72,20.72,0,0,0-.44-6.28c-1.16-5-5.29-7.82-10.45-7.32-2.58.25-3.34.93-3.38,3.56-.08,5.89-.06,11.79,0,17.69A11,11,0,0,0,630.37,422.15Z"/><path class="cls-1" d="M545.76,424.11c2,.65,3.39,1.07,4.77,1.6,5.89,2.24,10.24,5.9,11,12.56a17,17,0,0,1-7.23,16.59c-6.29,4.66-13.68,5.93-21.23,6.13-9.29.24-18.59.09-27.88.13-1.45,0-2.62-.18-2.45-2,.14-1.51-.74-3.57,2-3.67a17.35,17.35,0,0,0,2.25-.3c3.05-.46,4.06-1.47,4.34-4.54.15-1.73.15-3.47.15-5.21q0-18.6,0-37.19c0-.9,0-1.81,0-2.72-.15-5.39-.7-6.19-6-6.81-3-.35-2-2.38-2.17-4-.14-1.88,1.23-1.75,2.45-1.75,10.51,0,21-.07,31.52.12a38.77,38.77,0,0,1,9.37,1.41c6.74,1.83,10.55,6.59,11.26,13.48.62,6-2.56,11.39-8.53,14.52C548.43,422.93,547.39,423.36,545.76,424.11Zm-18.77,15h-.16c.17,3.76.25,7.53.55,11.29a4.13,4.13,0,0,0,3.56,4.12c4.35.71,8.11-.42,10.86-4,2.86-3.76,3.12-8.08,2.35-12.52a9.73,9.73,0,0,0-6.33-7.95,53.58,53.58,0,0,0-8.79-1.84c-1.59-.29-2.11.55-2.06,2.08C527,433.26,527,436.21,527,439.15Zm.06-27.88h0c0,3,0,6.05,0,9.07,0,1,.19,1.73,1.48,1.73,8.29,0,13.42-2.82,12.92-12.25a16.52,16.52,0,0,0-.69-4,9.43,9.43,0,0,0-10.81-6.53c-1.79.32-2.88,1.16-2.85,3.14C527.08,405.38,527.05,408.32,527.05,411.27Z"/><path class="cls-1" d="M222.25,461.11H198c-1.35,0-2.89.24-2.75-1.93.1-1.7-.63-3.55,2.35-3.85,6.88-.68,7.29-1.25,7.31-8.11,0-13.61,0-27.21,0-40.82,0-.68,0-1.37,0-2-.22-4.3-1-5.2-5.36-5.72-1.41-.17-2.86,0-2.85-2.25,0-3.46-.07-3.51,3.47-3.51,14.52,0,29,.06,43.55-.06,2.42,0,3.12.81,3.2,3.06.14,4,.5,8,.82,12,.11,1.3-.09,2.4-1.63,2.37s-3.38,1.51-4.32-1.21c-3-8.74-4.34-9.61-13.65-9.66a40.87,40.87,0,0,0-5.65.12,2.56,2.56,0,0,0-1.7,1.76c-.12,6.57-.11,13.15,0,19.73a2.07,2.07,0,0,0,1.39,1.42c3.1.09,6.2,0,9.3-.08,2.86-.11,4.2-1.87,4.85-4.53.78-3.16.89-3.08,4.15-3,1.43.05,2,.57,2,2-.05,6.2,0,12.4-.08,18.6,0,.65-.86,1.86-1.27,1.84-1.49-.08-3.4,1.1-4.41-1.05a1.74,1.74,0,0,1,0-.22c-1.09-5.64-1.92-6.15-8.53-6.27-2.38-.05-5.54-.64-6.92.6-1.21,1.09-.49,4.39-.5,6.72,0,4.08,0,8.17.1,12.24.13,3.83,1.06,4.91,4.87,5.11a91.21,91.21,0,0,0,10.84-.19,8.38,8.38,0,0,0,6.87-4.62,67.09,67.09,0,0,0,3.47-6.61c1.12-2.57,2.91-1.08,4.45-.95s1.64,1.28,1.37,2.51c-1,4.88-2.09,9.76-3.08,14.64-.33,1.64-1.32,1.92-2.78,1.91-8.17-.05-16.33,0-24.5,0Z"/><path class="cls-1" d="M86.64,461.12H73.48c-1.23,0-2.43-.12-2.26-1.74.16-1.46-1-3.54,1.67-4,.44-.08.89-.18,1.33-.28,2.59-.64,3-1.29,2.18-3.84-1.13-3.44-2.32-6.87-3.66-10.24a2.81,2.81,0,0,0-2-1.53c-5-.13-10-.12-15,0a2.62,2.62,0,0,0-2,1.28c-1.25,3.48-2.27,7-3.42,10.56-.69,2.12.31,3.14,2.23,3.6.52.13,1,.21,1.56.3,2.7.45,3.74,2.17,2.76,4.8a2,2,0,0,1-1.48,1c-7.18.07-14.37.1-21.55,0-.57,0-1.66-1.07-1.61-1.54.16-1.38-1.05-3.78,1.33-3.93,5.65-.35,7.76-4.15,9.54-8.65Q53.39,421,63.74,395.09c.8-2,5.18-4.34,7.05-3.51.66.29,1.13,1.33,1.42,2.12,4.53,12.34,9,24.71,13.53,37.05,2.05,5.61,4.23,11.17,6.31,16.77,1.56,4.19,3.73,7.53,8.78,8,2.5.23,1.27,2.48,1.46,3.86s-.82,1.74-2,1.73C95.71,461.1,91.18,461.11,86.64,461.12ZM69.58,431.85l-6-17.38-.66.1c-2,5.68-4.09,11.35-6.22,17.28Z"/><path class="cls-1" d="M18.14,392.88c4.61,0,9.22,0,13.83,0,1.26,0,2.38.14,2.17,1.79s1,3.75-1.94,3.93c-.75.05-1.5.2-2.24.32a3.84,3.84,0,0,0-3.57,4c-.1,2.34-.2,4.68-.22,7-.07,12.47,0,24.95-.21,37.43-.14,8.4-2.37,16.12-8.72,22.17a32.49,32.49,0,0,1-13.37,7.82c-1.52.46-2.33.22-3-1.34-1.38-3.35-1.46-3.33,1.65-5.1a12.44,12.44,0,0,0,6.6-9.77c.64-6.08,1.19-12.19,1.29-18.3.2-11.72.06-23.44.06-35.16,0-.76,0-1.51,0-2.27-.17-5.2-1-6.12-6.14-6.78-2.29-.3-3.73-3.37-2.3-5.12a3,3,0,0,1,2-.6C8.76,392.86,13.45,392.88,18.14,392.88Z"/><path class="cls-1" d="M584.13,392.88c4.61,0,9.21,0,13.82,0,1.36,0,2.52.18,2.32,1.92-.17,1.47.83,3.4-1.91,3.79-6.11.88-6.52,1.4-6.55,7.7,0,13.9,0,27.8,0,41.71,0,.6,0,1.21.07,1.81.32,4.07,1.06,4.85,5.18,5.43,1.71.24,3.49.14,3.28,2.87-.23,2.91-.1,3-3.12,3-8.84,0-17.68,0-26.52,0-1.2,0-2.87.59-3-1.67-.22-3.43-.11-3.69,2.55-4.09,5.08-.75,5.78-1.51,5.79-6.72q0-21.54,0-43.07c0-.91-.09-1.81-.16-2.72a3.93,3.93,0,0,0-3.69-3.9l-1.57-.23c-2.69-.36-3.91-2.36-2.77-4.86a2.64,2.64,0,0,1,2-.91C574.61,392.84,579.37,392.88,584.13,392.88Z"/><path class="cls-1" d="M169.92,483.85c-.51.37-1,1-1.53,1.06-2.26.33-3,1.73-3,3.8q0,11.57,0,23.13c0,2.13.74,3.67,3.14,4,.45.06.85.62,1.27,1-.51.28-1,.81-1.51.82q-6.47.1-12.93,0c-.5,0-1-.44-1.47-.67.44-.39.83-1.06,1.32-1.12,2.46-.35,3.25-1.84,3.22-4.13q-.06-4.65,0-9.3c0-1.35-.48-1.89-1.86-1.87-3.7.06-7.41.06-11.11,0-1.34,0-1.92.42-1.88,1.83.08,3.24.07,6.5.09,9.75,0,2,.76,3.32,2.9,3.68.51.09.94.7,1.4,1.06-.53.26-1.06.74-1.59.75q-6.24.1-12.48,0c-.52,0-1-.53-1.56-.81.48-.35.92-.92,1.45-1a3.23,3.23,0,0,0,2.83-3.54c0-7.86,0-15.72,0-23.59,0-2-.88-3.45-3.15-3.72-.48-.06-.88-.72-1.32-1.1.49-.23,1-.66,1.46-.67,4.24,0,8.47-.06,12.71,0,.52,0,1,.52,1.55.81-.42.33-.8.89-1.26,1-2.17.31-2.91,1.71-3,3.65-.07,2.64-.15,5.3,0,7.93a2.22,2.22,0,0,0,1.56,1.5c3.85.13,7.72.13,11.57,0a2.25,2.25,0,0,0,1.53-1.55c.15-2.56.05-5.13,0-7.7,0-2.08-.78-3.49-3.05-3.79-.45-.07-.84-.62-1.26-.95.35-.28.7-.82,1.06-.82,4.82-.06,9.64,0,14.47,0Z"/><path class="cls-1" d="M283.67,499.17c-1-2.47-2.27-4.51-2.73-6.72-.82-3.91,1.71-7.75,5.63-9.28,4.08-1.58,9.18-.38,11.35,2.68a6.18,6.18,0,0,1-1.07,8.7c-1.2,1-2.48,1.93-4,3.08l8.34,7.57c1.06-2.08,2.11-3.86,2.88-5.75.57-1.39-.45-2-1.67-2.4-.56-.2-.95-.88-1.42-1.35a5.64,5.64,0,0,1,1.72-.64c2.95-.06,5.89-.06,8.84,0a5.19,5.19,0,0,1,1.69.67c-.43.4-.81,1.05-1.3,1.16-3.49.77-5.06,3.64-6.92,6.18-2.47,3.36-2.38,3.33.33,6.5,2.23,2.61,4.29,5.36,6.69,8.39-6.17,1-10.41-1.14-13.6-5.88-1.5,1.4-2.73,2.7-4.12,3.8-6,4.82-15,2.19-17.14-5a7.86,7.86,0,0,1,2.5-8.61C281.05,501.09,282.54,500.06,283.67,499.17Zm2.1,1c-3.33,3.77-3.23,8.93-.08,11.69s7.8,2.2,11.06-1.62C293.13,507,289.51,503.63,285.77,500.21Zm5.35-3.93c3-2.52,3.87-7.46,1.66-10.26a4.68,4.68,0,0,0-3.42-1.55c-1.83.1-2.69,1.72-3,3.46C285.66,492,288.29,494.1,291.12,496.28Z"/><path class="cls-1" d="M229.55,483.52c7.38,0,14-.44,20.62.14,5.48.48,7.93,4.16,7.67,9.4-.15,3.13-2,5.09-4.46,6.66-.56.36-1.17.67-2,1.16,3,5.36,5.52,10.95,10.34,15a7.41,7.41,0,0,1,1.06,1.49A5.25,5.25,0,0,1,261,518c-5.21,0-9.45-1.69-11.8-6.77a58.68,58.68,0,0,0-3-5.56,8.07,8.07,0,0,0-2-2.4,3,3,0,0,0-2.32-.4c-.38.11-.63,1.23-.65,1.9-.06,2.42,0,4.84,0,7.26a3.38,3.38,0,0,0,2.94,3.69c.54.11,1,.69,1.45,1.06-.52.27-1,.78-1.56.79-4.23.08-8.46.08-12.69,0-.5,0-1-.43-1.49-.66.43-.39.8-1,1.29-1.14a3.64,3.64,0,0,0,3.18-4q0-11.44,0-22.9c0-2.16-.8-3.62-3.14-4C230.76,484.83,230.37,484.23,229.55,483.52Zm11.65,9.65c0,2-.1,4.09.07,6.12a2.1,2.1,0,0,0,1.44,1.41,6.67,6.67,0,0,0,7.44-4.92c1.19-4.12-.17-8.41-3.28-10a8.15,8.15,0,0,0-2.81-.72c-1.84-.17-2.86.71-2.85,2.63S241.21,491.36,241.2,493.17Z"/><path class="cls-1" d="M345.85,498.94c1.95.61,3.55,1,5,1.6a7.69,7.69,0,0,1,2.5,12.82c-2.91,2.95-6.66,3.87-10.53,4.08-5.05.28-10.12.17-15.18.16-.46,0-.92-.47-1.39-.73.39-.35.74-1,1.16-1,2.62-.32,3.3-2,3.3-4.31,0-7.48,0-15,0-22.43,0-2.14-.59-3.87-3.15-4.21-.49-.06-.9-.75-1.34-1.15l.3-.63c2.32,0,4.64-.05,7,0,4.45.1,8.93,0,13.33.49s6.78,3.22,7,7.06c.18,3.48-1.91,6.07-6,7.49C347.28,498.36,346.76,498.58,345.85,498.94ZM348,508a7.67,7.67,0,0,0-9.18-7.58,1.79,1.79,0,0,0-1.12,1.28c-.08,3.47-.13,6.95,0,10.41.11,2.37,1.58,3.47,4,3.35C345.47,515.3,348,512.27,348,508Zm-10.33-9.89c6.87.89,10.55-3.54,8.16-9.43a5.27,5.27,0,0,0-6.21-3.29,3,3,0,0,0-1.86,2C337.61,491,337.71,494.49,337.71,498.14Z"/><path class="cls-1" d="M385.18,483.11c.19,2.42.41,4.45.49,6.48,0,.47-.42,1-.65,1.46-.46-.28-1.12-.44-1.35-.85-2.57-4.61-5.17-5.89-10.48-4.8a2.44,2.44,0,0,0-1.48,1.77c-.17,3.32-.17,6.65-.06,10a2.07,2.07,0,0,0,1.42,1.41,28,28,0,0,0,4.76,0,3.3,3.3,0,0,0,3.09-2.56c.17-.51.83-.85,1.27-1.27.28.54.78,1.07.8,1.61.07,2.57.05,5.14,0,7.71,0,.4-.45,1.05-.76,1.09a1.37,1.37,0,0,1-1.15-.7c-.6-3.14-2.92-3.23-5.38-3.21-4.77.06-4-.48-4.08,4.12,0,2.34,0,4.69.1,7a2.7,2.7,0,0,0,2.78,2.95,41.12,41.12,0,0,0,5.66,0,5.62,5.62,0,0,0,4.7-3.13,25.68,25.68,0,0,1,1.55-2.76,1.55,1.55,0,0,1,1.25-.57c.28.06.65.8.59,1.17a58.21,58.21,0,0,1-1.39,6.42,2.35,2.35,0,0,1-1.8,1.16q-11.91.1-23.82,0c-.54,0-1.07-.49-1.6-.75.46-.35.87-.9,1.39-1,3.12-.81,3.55-1.24,3.57-4.5,0-7.26,0-14.52,0-21.78,0-2.42-.41-4.4-3.35-4.71-.32,0-.58-.67-.87-1,.49-.23,1-.65,1.46-.65,4.16-.06,8.32,0,12.48,0Z"/><path class="cls-1" d="M441.23,483.94c-.5.34-1,.91-1.51,1a3.07,3.07,0,0,0-2.91,3.21c0,6.26-.05,12.55.4,18.79.25,3.51,2,6.52,5.82,7.63A8,8,0,0,0,453.41,509a34.24,34.24,0,0,0,1.18-8.26c.13-3.54,0-7.1-.27-10.64s-.76-4.12-4.2-5.21c-.46-.15-.79-.69-1.18-1.05.39-.24.78-.7,1.18-.71,3.92,0,7.83,0,11.75,0l.37.68c-.49.41-.92,1-1.49,1.19a4.26,4.26,0,0,0-3.33,4.32c-.14,3.77-.19,7.55-.35,11.32a58.64,58.64,0,0,1-.52,6.77c-1.15,7.2-6.64,11.45-14,11-8.39-.51-12.44-4.6-12.74-13.11-.19-5.29-.11-10.59-.12-15.88,0-2.37-.63-4.18-3.36-4.54-.38-.05-.69-.61-1-.93.37-.27.74-.78,1.12-.78,4.82-.05,9.64,0,14.46,0Z"/><path class="cls-1" d="M410.2,517c.44-.43.81-1.08,1.33-1.24,1.86-.58,2-1.69,1.47-3.34-1.87-6.05-1.83-6.12-8.19-6.06-5.08,0-3.92-.95-5.75,4.05-.19.5-.32,1-.49,1.51-.7,2-.39,3.39,2,3.87.44.09.78.71,1.16,1.08-.46.27-.91.76-1.37.77q-4.43.1-8.84,0c-.49,0-1-.45-1.44-.69.37-.39.67-1,1.1-1.12,2.48-.52,3.56-2.32,4.4-4.44q4.93-12.44,9.91-24.85a7.51,7.51,0,0,1,.95-2.28,5.76,5.76,0,0,1,2.42-1.62c.25-.08,1.11,1,1.36,1.68,3.2,8.56,6.32,17.15,9.49,25.73.95,2.56,1.82,5.21,5.05,5.85.28.06.7.83.6,1a1.68,1.68,0,0,1-1.11.75c-4.53,0-9,0-13.58,0ZM406,492.53l-.65,0c-1.31,3.55-2.61,7.1-4,10.91h8.36C408.45,499.58,407.25,496.06,406,492.53Z"/><path class="cls-1" d="M190.53,482.56q3.42,9.36,6.85,18.7c1.25,3.41,2.49,6.81,3.83,10.19.79,2,1.84,3.82,4.24,4.34.39.08.68.64,1,1-.36.29-.71.81-1.07.82-4.6.06-9.19,0-13.78,0l-.33-.55c.4-.47.71-1.19,1.21-1.35,1.86-.6,2-1.74,1.46-3.37-1.84-6-1.81-6-8.22-6.05-4.41,0-4.4,0-5.76,4.26-.18.57-.36,1.15-.55,1.72-.57,1.76-.1,2.91,1.81,3.41.54.14,1,.71,1.43,1.08-.58.28-1.16.8-1.76.82-2.79.09-5.59.07-8.39,0-.47,0-.93-.48-1.39-.74.37-.38.68-1,1.11-1.1,2.18-.5,3.27-2,4-3.93,3.59-9,7.24-17.94,10.76-26.95A3.15,3.15,0,0,1,190.53,482.56Zm-3.52,9.9-.66,0c-1.29,3.56-2.59,7.11-4,10.95h8.36C189.44,499.64,188.22,496.05,187,492.46Z"/><path class="cls-1" d="M495.28,482.4c.15,2.6.35,5.59.47,8.59,0,.3-.49.9-.7.88a2.24,2.24,0,0,1-1.17-.7c-.19-.18-.18-.56-.26-.85-1.55-5.4-4.34-5.08-8.75-4.92-.37,0-1,.89-1,1.36q-.06,12.81,0,25.63c0,2.08,1.28,3.06,3.26,3.39a5.73,5.73,0,0,1,1.74,1c-.66.29-1.31.84-2,.85q-6.79.1-13.6,0c-.5,0-1-.55-1.48-.84a4.54,4.54,0,0,1,1.28-.92c3.27-.85,3.63-1.23,3.64-4.65,0-7.86,0-15.72,0-23.58,0-1.74-.43-2.38-2.29-2.34-4.88.11-5.73.66-7.62,5.42-.25.64-.93,1.1-1.41,1.65l-.73-.41c.2-3.28.41-6.56.61-9.88,7.12,2.12,14.26.72,21.33,1A72.87,72.87,0,0,0,495.28,482.4Z"/><path class="cls-1" d="M498.89,483.25h15.16l.38.61a10.88,10.88,0,0,0-1.63,1.29c-.51.59-1.39,1.56-1.21,1.94,1.92,4.06,4,8,6.07,12h.76c1.8-3.86,3.68-7.69,5.39-11.6.69-1.58-.66-2-1.84-2.5a6.23,6.23,0,0,1-1.38-1.12c.53-.26,1.06-.74,1.59-.76,3-.07,6.05-.06,9.07,0,.47,0,.94.47,1.41.72-.38.37-.7,1-1.14,1.09a7.92,7.92,0,0,0-5,4c-1.73,3-3.47,6-5.29,9-3,4.9-1.87,10.24-1.61,15.45.1,1.9,1.87,2.09,3.36,2.48.52.13,1,.65,1.43,1-.55.26-1.08.74-1.63.74q-6.92.09-13.82,0c-.52,0-1-.53-1.55-.82a4.8,4.8,0,0,1,1.31-.9c3-.78,3.32-1.29,3.6-4.3.52-5.66-.31-10.94-3.64-15.73a67.67,67.67,0,0,1-3.48-6.1c-1.18-2.14-2.46-4.15-5.09-4.83C499.73,484.81,499.47,484.05,498.89,483.25Z"/><path class="cls-1" d="M225.24,517.62c-4.83,0-9.65,0-14.47,0-.35,0-.69-.41-1-.63.28-.37.53-1,.85-1.06,3.15-.36,3.54-2.54,3.54-5.08,0-7,0-14.06,0-21.09,0-2.41-.3-4.62-3.45-4.85-.33,0-.61-.67-.91-1,.4-.24.8-.68,1.2-.69q6.69-.07,13.38,0c.37,0,.74.5,1.11.77-.34.33-.65.9-1,.94-2.77.31-3.36,2.11-3.34,4.49q0,11,0,22c0,2.39.57,4.16,3.32,4.52.45.06.83.71,1.24,1.09Z"/><circle class="cls-1" cx="103.72" cy="500.24" r="10.96"/><circle class="cls-1" cx="72.03" cy="500.24" r="7.62"/><circle class="cls-1" cx="47.18" cy="500.24" r="5.39"/><circle class="cls-1" cx="558.39" cy="500.24" r="10.96"/><circle class="cls-1" cx="590.08" cy="500.24" r="7.62"/><circle class="cls-1" cx="614.93" cy="500.24" r="5.39"/></g></g></svg>