<?xml version="1.0" encoding="UTF-8"?>
<!DOCTYPE svg PUBLIC "-//W3C//DTD SVG 1.1//EN" "http://www.w3.org/Graphics/SVG/1.1/DTD/svg11.dtd">
<!-- Creator: CorelDRAW 2021 (64-Bit) -->
<svg xmlns="http://www.w3.org/2000/svg" xml:space="preserve" width="2.59842in" height="0.763433in" version="1.1" style="shape-rendering:geometricPrecision; text-rendering:geometricPrecision; image-rendering:optimizeQuality; fill-rule:evenodd; clip-rule:evenodd"
viewBox="0 0 2592.82 761.79"
 xmlns:xlink="http://www.w3.org/1999/xlink"
 xmlns:xodm="http://www.corel.com/coreldraw/odm/2003">
 <defs>
  <style type="text/css">
   <![CDATA[
    .fil1 {fill:#2B2A29}
    .fil0 {fill:#2B2A29;fill-rule:nonzero}
   ]]>
  </style>
 </defs>
 <g id="Layer_x0020_1">
  <metadata id="CorelCorpID_0Corel-Layer"/>
  <g id="_2343847292928">
   <path class="fil0" d="M144.09 489.55l0 -90.05 137.51 0 0 362.29 -177.05 0c-69.69,0 -104.55,-41.72 -104.55,-125.25l0 -490.67c0,-84.9 34.85,-127.32 104.55,-127.32l62.13 0c76.63,0 114.92,43.13 114.92,129.4l0 80.74 -90.43 0 0 -66.24c0,-35.89 -12.89,-53.84 -38.59,-53.84l-22.64 0c-26.37,0 -39.56,17.95 -39.56,53.84l0 455.49c0,35.89 13.19,53.84 39.56,53.84l61.23 0 0 -182.22 -47.08 0z"/>
   <path class="fil0" d="M345.67 18.54l177.04 0c69.05,0 103.59,42.42 103.59,127.32l0 183.23c0,64.88 -17.91,105.95 -53.66,123.21l63.04 309.49 -85.64 0 -59.38 -300.18 -54.61 0 0 300.18 -90.39 0 0 -743.24zm90.39 358.18l0 0 59.31 0c26.99,0 40.53,-17.96 40.53,-53.86l0 -160.43c0,-35.89 -13.54,-53.84 -40.53,-53.84l-59.31 0 0 268.14z"/>
   <path class="fil0" d="M777.91 761.78l-90.4 0 0 -615.92c0,-84.88 36.07,-127.32 108.3,-127.32l67.79 0c72.2,0 108.32,42.44 108.32,127.32l0 615.92 -90.43 0 0 -272.24 -103.59 0 0 272.24zm103.59 -362.29l0 0 0 -247.42c0,-28.98 -13.18,-43.48 -39.55,-43.48l-24.53 0c-26.34,0 -39.51,14.51 -39.51,43.48l0 247.42 103.59 0z"/>
   <path class="fil0" d="M1042.53 18.54l164.81 0c72.83,0 109.23,42.42 109.23,127.32l0 220.48c0,84.22 -36.1,126.3 -108.27,126.3l-75.36 0 0 269.15 -90.41 0 0 -743.24zm90.41 384.04l0 0 57.47 0c23.83,0 35.75,-14.5 35.75,-43.48l0 -207.03c0,-28.98 -13.47,-43.49 -40.48,-43.49l-52.74 0 0 294z"/>
   <polygon class="fil0" points="1580.28,761.78 1580.28,424.34 1469.17,424.34 1469.17,761.78 1378.74,761.78 1378.74,18.53 1469.17,18.53 1469.17,334.28 1580.28,334.28 1580.28,18.53 1670.7,18.53 1670.7,761.78 "/>
   <polygon class="fil0" points="1746.03,18.54 1836.48,18.54 1836.48,761.78 1746.03,761.78 "/>
   <polygon class="fil0" points="2055.91,108.59 2055.91,761.79 1965.5,761.79 1965.5,108.59 1878.83,108.59 1878.83,18.54 2142.53,18.54 2142.53,108.59 "/>
   <polygon class="fil0" points="2184.94,761.78 2184.94,18.53 2409.07,18.53 2409.07,108.58 2275.33,108.58 2275.33,334.28 2409.07,334.28 2409.07,424.34 2275.33,424.34 2275.33,671.76 2409.07,671.76 2409.07,761.78 "/>
   <path class="fil1" d="M2529.26 0c-35.06,0 -63.57,28.53 -63.57,63.58 0,35.04 28.51,63.56 63.57,63.56 35.05,0 63.56,-28.51 63.56,-63.56 0,-35.05 -28.51,-63.58 -63.56,-63.58zm0 109.64c-25.41,0 -46.06,-20.66 -46.06,-46.07 0,-25.41 20.66,-46.09 46.06,-46.09 25.41,0 46.06,20.68 46.06,46.09 0,25.41 -20.65,46.07 -46.06,46.07zm23.09 -54.35c0,-12.82 -9.01,-20.79 -23.5,-20.79l-21.46 0 0 58.14 12.3 0 0 -16.21 9.15 0c0.56,0 1.12,-0.02 1.71,-0.04l11.84 16.25 15.26 0 -14.45 -19.8c5.91,-3.68 9.14,-9.89 9.14,-17.55zm-23.5 8.84l-9.15 0 0 -17.32 9.15 0c11.2,0 11.2,6.38 11.2,8.48 0,2.2 0,8.84 -11.2,8.84z"/>
  </g>
 </g>
</svg>
