<svg xmlns="http://www.w3.org/2000/svg" viewBox="0 0 927.75 302.54"><defs><style>.cls-1{fill:#fff;}</style></defs><g id="Layer_2" data-name="Layer 2"><g id="Layer_1-2" data-name="Layer 1"><path d="M.44,302.51c-.13-2.44-.31-4.23-.31-6q0-145-.13-290C0,1.7,1.76,0,6.5,0q208.47.11,417,0c6,0,6.62.66,6.64,6.6,0,12.84,0,25.67,0,38.51,0,5.9,1,6.68,6.84,6.07,16.07-1.68,29.88-7.9,37.84-22.49,3.7-6.79,5.48-14.9,6.76-22.64.8-4.85,2.43-6.09,6.87-6.08C517.3.13,546.13,0,575,0q171,0,342,0C927.5,0,927.5,0,927.5,10.27c0,26.5.72,53-.29,79.49-.71,18.81-4.76,37.38-20.71,50-6.61,5.21-14.86,8.32-22.73,12.58a9,9,0,0,0,2.9,1.85c20,5,38.3,24.52,39.25,45.34,1,22.59,1.16,45.22,1.56,67.84.18,10.16-.06,20.33.12,30.5.07,3.5-1.25,4.87-4.65,4.69-2.49-.13-5,0-7.5,0l-426,0c-7.26,0-7.26,0-7.78-7-1.81-24.64-21.6-43-46.38-43.22-4.31,0-5.41,1.62-5.34,5.61.2,12.67.12,25.33.13,38,0,6.6,0,6.63-6.45,6.63q-55.74,0-111.49,0H.44Z"/><path class="cls-1" d="M280.43,106.29c5.5,0,11,.07,16.48,0,3.26-.06,4.95,1.21,6.16,4.45,10.59,28.31,21.41,56.54,32.14,84.79a15.4,15.4,0,0,1,.93,3.36c.33,2.55,4.22,5.62-.22,7.55-4.73,2-10.79-.45-12.33-4.44-3.11-8-6.28-16.09-9.13-24.24-1-3-2.59-4.32-5.75-4.31q-27.72.12-55.45.06c-3.3,0-4.94,1.34-6,4.63-2.86,8.65-6.18,17.16-9.44,25.67-1,2.69-11.39,4.16-13,1.77a5.38,5.38,0,0,1-.12-4.18c6.65-17.91,13.47-35.75,20.14-53.65q6.52-17.5,12.74-35.11c1.53-4.37,3.6-7.06,8.9-6.44C271.06,106.71,275.77,106.29,280.43,106.29Zm.23,54.17v-.15c7.15,0,14.29,0,21.44,0,3.91,0,5.51-.89,3.71-5.3-3.68-9.05-6.92-18.29-10.19-27.5-3-8.56-2.93-8.59-12.24-8.58-2.82,0-5.66.18-8.47,0-4.45-.37-6.55,1.87-7.92,5.83-3.46,10-7.11,20-10.84,29.86-2,5.39-1.82,5.85,4.07,5.86C267,160.47,273.85,160.46,280.66,160.46Z"/><path class="cls-1" d="M381.93,155.82c0-14.83.07-29.66-.05-44.48,0-3.6,1.13-5.12,4.9-5.07,21.81.33,43.68-.44,65.41,1,17.88,1.22,29.06,11.33,28.83,29.21-.19,14.26-14.45,29-28.91,29.77-17,.84-33.95.94-50.94,1-4.39,0-5.87,1.36-5.77,5.66.2,9.32-.12,18.66.12,28,.15,6-3.64,5.48-7.64,5.67-4.35.21-5.94-1.45-5.9-5.78.15-15,.06-30,.06-45Zm39.12-1.32c7.45.28,19.44.23,30.63-2.38a17.59,17.59,0,0,0,8.8-4.31,17,17,0,0,0,4.94-12.22c.09-8.46-3.67-13.07-13-15.63a31.17,31.17,0,0,0-7.86-1.32c-15.15-.13-30.31,0-45.47-.1-2.71,0-3.83.94-3.78,3.84q.27,14.24.06,28.48c0,2.9.83,3.77,3.7,3.7C406.39,154.38,413.72,154.5,421.05,154.5Z"/><path class="cls-1" d="M781.77,106.22c5.33,0,10.66.06,16,0,3.13,0,5.09.81,6.35,4.19,10.1,27.21,20.43,54.35,30.7,81.5,1.29,3.42,2.69,6.8,4,10.22,1,2.64,0,4.06-2.83,4.47-7.34,1-9.69-.23-12.32-7.28-2.73-7.31-5.14-14.76-8.15-22-.7-1.68-3.25-3.64-5-3.66q-28.23-.44-56.46-.07c-1.8,0-4.44,2.18-5.19,4-3.38,8.11-6.22,16.44-9.25,24.69-1.29,3.51-10.31,6.33-13.07,3.81-.89-.81-1.2-3.17-.73-4.43,6.44-17.6,13.09-35.13,19.65-52.69,4.47-12,9.08-23.88,13.24-35.95,1.61-4.69,3.64-7.38,9.12-6.79,4.61.49,9.32.1,14,.1Zm27,53.58c-4.57-12.35-8.93-23.62-12.88-35-1.58-4.55-4.17-6.28-8.87-5.87a67.71,67.71,0,0,1-11.48,0c-4.47-.37-6.08,2.13-7.35,5.78-3.48,10-7,20-10.82,29.88-1.94,5.09-1.71,5.78,3.74,5.8q21,.06,42,0C804.63,160.35,806.23,160.06,808.74,159.8Z"/><path class="cls-1" d="M96.3,162a59.88,59.88,0,0,0,5.83-3.31q33.39-24.84,66.72-49.76c6.48-4.84,13.51-2,20.31-2.54l.72,1.8-53.83,40.7c4.67,6.56,8.65,13.31,13.75,19.06A238.51,238.51,0,0,0,173,191c3.19,2.72,8.6,2.75,12.86,4.37,1.65.62,4.15,2.25,4.14,3.4,0,2.9,2.61,6.76-2.14,8.67-6.47,2.6-12.48.83-18.26-1.94-9.74-4.66-16.36-12.92-23-21-7.25-8.84-14.12-18-21.47-27.43-7.37,5.45-14,11-21.25,15.54-5.87,3.7-8.66,8.06-7.73,15.09.55,4.26-.1,8.66.12,13,.29,5.69-3.18,5.78-7.42,5.91-4.44.13-5.74-1.55-5.72-5.84q.21-44.47,0-89c0-4,1.14-5.84,5.33-5.67,3.91.16,8-.52,8,5.43-.1,14.16-.1,28.32-.13,42.48C96.29,156.3,96.3,158.55,96.3,162Z"/><path class="cls-1" d="M582.5,107.56c9.12-3.5,13.23-1.56,16.28,6.68,5.65,15.27,11.59,30.42,17.35,45.65,3.69,9.77,7.42,19.54,10.8,29.43,1,2.94,2.62,4,5.37,4.14.17,0,.34,0,.5,0,18.65,1.21,18.65,1.2,25.07-16.16q12.11-32.72,24.22-65.42c1.91-5.17,8.59-8,13.27-5.29.95.56,1.29,3.53.77,5-3.15,8.94-6.68,17.73-10,26.62Q674.38,170,662.74,201.78c-1.21,3.33-3.14,4.84-6.61,4.81-10.66-.07-21.33.15-32-.27-2.09-.08-5.26-2-6-3.9C606.14,171,594.41,139.39,582.5,107.56Z"/><path class="cls-1" d="M522.47,155.85c0-14.67.21-29.33-.11-44-.11-5,2.15-5.84,6.29-5.77s7.18.26,7.15,5.71c-.12,29.49,0,59,0,88.46,0,5.74-.89,6.07-7.5,6.32-4.82.18-5.92-1.9-5.87-6.25.18-14.83.07-29.66.07-44.48Z"/></g></g></svg>