<svg xmlns="http://www.w3.org/2000/svg" viewBox="0 0 512 442.13"><defs><style>.cls-1{fill:#96c61c;}.cls-2{fill:#014fa1;}</style></defs><g id="Layer_2" data-name="Layer 2"><g id="Layer_1-2" data-name="Layer 1"><path class="cls-1" d="M456.82,1C465.1.59,473.23-.39,481.5.17c-7.85,4.49-15.56,9.53-23.13,14.44a759.8,759.8,0,0,0-69.83,51.6,587.41,587.41,0,0,0-71.79,69.27c-27.2,30.42-51.6,63.38-71.51,99-2,3.93-4.21,7.71-6.17,11.64-2.67,4.63-4.63,9.67-7,14.44-1.26,2.95-2.53,5.89-3.51,9,0-6.31,1.12-12.62,1.4-18.92,1.13-7.72,1.69-15.71,3.37-23.42,1.12-7.57,2.66-15,4.21-22.44,1.54-4.9,2.38-10,3.78-14.86,1.68-4.91,2.81-9.95,4.49-15A292.17,292.17,0,0,1,260,139.12c2-3.64,3.51-7.71,5.61-11.35,18.23-35.06,45.15-65.63,78.24-87.36,11.64-7.85,24.12-14.16,36.74-19.91,7.43-2.94,14.72-6,22.43-8.27C408.59,10,414.62,8.86,420.37,7q10.72-2.52,21.87-4.21C447,1.85,451.92,1.85,456.82,1Z"/><path class="cls-1" d="M76.42,33.82c11.36.14,22.71.42,33.79,3.09a145.56,145.56,0,0,1,27.48,7.85c4.49,2.1,9.26,3.78,13.46,6.31a133.35,133.35,0,0,1,25.24,17.24c22.58,19.21,38.7,45,49.5,72.36a162.09,162.09,0,0,1,6.17,17.52,151,151,0,0,1,4.34,15.57c1.41,6.59,3.37,13.18,3.65,19.91a25.66,25.66,0,0,0-2.94-4.63c-8.28-12.62-17.81-24.4-27.63-35.9-6.17-7-12.48-14-19.07-20.61-3.64-4.2-7.57-7.85-11.21-12.06a599.75,599.75,0,0,0-60.58-54.26C104.6,55.13,90.44,44.48,76.42,33.82Z"/><path class="cls-2" d="M118.34,66.21a599.75,599.75,0,0,1,60.58,54.26c3.64,4.07,7.71,7.86,11.21,12.06V269.8H118.2Q118.41,168,118.34,66.21Z"/><path class="cls-2" d="M316.61,135.48A587.41,587.41,0,0,1,388.4,66.21V270H316.61Z"/><path class="cls-2" d="M19.07,356.88c9.11-7,22.71-7.43,32.39-1.12,1.68,1,2.94,2.8,4.21,4.2,3.22,3.51,4.48,8.42,5.89,12.9a43.52,43.52,0,0,1,13.74-17A28.69,28.69,0,0,1,97.17,352a20.57,20.57,0,0,1,9,3.93c5.61,4.77,8.7,12.06,9.4,19.35.28,3.22.84,6.45.84,9.67v54.27h-7.71V390.53a85.21,85.21,0,0,0-1-15.84c-1.27-3.93-2.11-8.14-5.19-11.08-2.67-3.37-7.15-4.49-11.22-4.91a23.71,23.71,0,0,0-16.4,5.19c-7,5.89-11.92,14.58-12.34,23.84-.56,4.76-.28,9.53-.28,14.16v37.3H54.54V393.9c0-5.33.28-10.66-.7-15.85-.42-5.33-2.1-10.65-5.75-14.72-2.8-3.23-7.15-4.49-11.35-4.77a29,29,0,0,0-13.32,2.67C15,365.85,9.82,375,8.27,384.36c-.84,7.71-.56,15.43-.56,23.14v31.69H0v-85.4H7.71v17.67a75.62,75.62,0,0,1,5.19-8.41C14.72,360.81,17.11,359,19.07,356.88Z"/><path class="cls-2" d="M163.35,354.78c7.85-3.79,17.11-4.07,25.66-2.67,3.23.28,6.17,1.68,9,2.95s4.76,3.78,6.87,6c2.38,3.08,3.5,7,4.48,10.65a22.1,22.1,0,0,1,.84,7.43v43.05c.14,3.22,0,6.73,1.41,9.82,1.68,2.52,5.18,2.24,7.85,2.38V441a15.6,15.6,0,0,1-10.1-.14c-1.4-.84-2.66-2-3.92-2.81-2.53-3.08-3.23-7.15-3.51-10.93-2.38,2.24-4.35,4.76-7.29,6.31-3.93,3.5-8.83,5.33-13.6,7.29a41.31,41.31,0,0,1-18.51,0c-3.64-1.68-7.43-2.81-10.38-5.75-1.26-1.54-2.8-2.94-3.92-4.49-3.37-6.31-4.91-13.74-3.23-20.75a31.29,31.29,0,0,1,3.09-8.55c1.4-2,3.08-3.79,4.63-5.61a7.14,7.14,0,0,1,2.8-1.68c2.38-1,4.21-2.95,6.73-3.37,5.33-1.26,10.38-3.22,15.7-4.21,4.21-1.26,8.7-1.82,12.9-3.5,3.79-1.4,7.86-2.52,11.22-4.91a17,17,0,0,0-4.2-13.46c-3.65-4.21-9.4-5.19-14.59-5.89-7-.56-14.58.7-20.47,4.91-4.63,3.08-8,7.57-10.66,12.34a33.21,33.21,0,0,0-5.46-4.21c2.52-4.06,4.9-8.41,8.55-11.64,2.52-1.82,5.05-4.06,8.13-5.18M196.58,389c-3.36,1.4-7.15,1.68-10.51,3.08-6,2.53-12.76,1.69-18.79,4.07-3.23,1.4-6.87,2.1-9.54,4.49a15.84,15.84,0,0,0-5.47,9.67c-.56,4.49-.7,9.26,1,13.6,1.82,3.09,3.64,6.45,7,8.14,7.43,3.36,16.12,2.94,23.83.56,4.63-1,8.14-4.63,11.5-7.58,2.67-2.1,3.65-5.46,5.05-8.41a34.93,34.93,0,0,0,1.12-8.55V386.32A56.25,56.25,0,0,1,196.58,389Z"/><path class="cls-2" d="M266,357.58a18.82,18.82,0,0,1,15-6.17c2.39,0,4.49.7,6.87,1.12v9.12c-5.88-2.11-12.9-2-18.22,1.68-4.49,2.94-7.58,7.43-10.1,12.06a66.66,66.66,0,0,0-5.33,18.51c-.28,4.34-.84,8.69-.84,13v32.25H245.8v-85.4h7.57v21.88c.28,0,1-.14,1.4-.14C257.58,369.22,260.66,362.49,266,357.58Z"/><path class="cls-2" d="M377.74,351.69a43.2,43.2,0,0,1,16.41,1c3.36,1.4,7,2.53,9.67,5.05,2.39,2.1,4.91,4.07,6.73,6.73a50.43,50.43,0,0,1,6,10.8c-2.38,1.12-4.76,2.38-7,3.5-3.08-7.15-7.85-14-14.86-17.66-9.4-4.07-21.31-3.23-29,3.78a36.31,36.31,0,0,0-10.37,19.63c-1.82,10.52-1.68,21.6,2,31.69,1.4,2.52,2.38,5.19,3.93,7.43a69.19,69.19,0,0,0,6.45,6.59c2,2,4.76,2.67,7.29,3.51a31.37,31.37,0,0,0,18.65-.84c2.94-.7,4.9-2.95,7.15-4.91,2-2.24,4.34-4.21,5.61-7,1-2,2.24-3.93,3.08-5.89a31.14,31.14,0,0,0,7,2.94c-.84,2.11-1.54,4.49-2.94,6.31-2.25,2.95-3.79,6.73-7,9a24.79,24.79,0,0,1-10.1,6.31c-4.06,2.24-8.69,2.38-13.18,2.52-4.63-.14-9.53-.42-13.74-2.52-5.05-1.41-8.83-4.91-12.48-8.42a46.27,46.27,0,0,1-3.64-5.46c-3.37-4.21-4.49-9.68-6.17-14.87-1.27-7.43-2-15-.85-22.43a38.32,38.32,0,0,1,.85-5.89c1.4-3.93,2.24-8.13,4.34-11.78,2.67-4.35,5.47-8.83,9.68-11.92C365.82,354.64,371.85,352.53,377.74,351.69Z"/><path class="cls-2" d="M471.69,351.41c8.83-.56,18.37,1.26,25.1,7.43A44.58,44.58,0,0,1,507,372c1.83,3.65,2.81,7.71,3.93,11.64a78.91,78.91,0,0,1,0,25.66c-1.54,5.75-3.09,11.92-6.87,16.83a34.38,34.38,0,0,1-12.76,12.19c-2.25.85-4.35,1.69-6.45,2.53a43.82,43.82,0,0,1-19.07.14c-2-.42-3.79-1.68-5.75-2.24s-3.51-1.83-5.33-2.67c-1.54-1-2.66-2.52-4.2-3.64-2.11-1.41-3.09-3.65-4.63-5.61-6.73-9.26-8.7-21.18-8.27-32.39,0-13,4.62-26.78,14.86-35.34,5.19-4.76,12.34-7,19.21-7.71m-2.25,7.85c-8.13,1.12-14.86,7.15-18.64,14.3-3.51,5.61-4.35,12.34-5.19,18.79a59.54,59.54,0,0,0,2,19.91c1,3.93,3.09,7.3,5.05,10.66a42.89,42.89,0,0,0,9,8.55,31.26,31.26,0,0,0,26.5.14,44.88,44.88,0,0,0,5.05-4.06c1.82-2.1,4.07-4.07,5.33-6.59,2-4.21,3.93-8.41,4.63-13a79.08,79.08,0,0,0,.56-17.25c-.28-6-2.25-11.78-4.77-17.25-2.8-4.9-6.59-9.39-11.78-12.05A28.4,28.4,0,0,0,469.44,359.26Z"/><path class="cls-2" d="M309.32,353.93h7.85v85.4h-8Q309.39,396.63,309.32,353.93Z"/></g></g></svg>