<?xml version="1.0" encoding="utf-8"?>
<!-- Generator: Adobe Illustrator 24.3.0, SVG Export Plug-In . SVG Version: 6.00 Build 0)  -->
<svg version="1.1" id="Layer_1" xmlns="http://www.w3.org/2000/svg" xmlns:xlink="http://www.w3.org/1999/xlink" x="0px" y="0px"
	 viewBox="0 0 2500 2500" style="enable-background:new 0 0 2500 2500;" xml:space="preserve">
<style type="text/css">
	.st0{fill-rule:evenodd;clip-rule:evenodd;fill:#FAB316;}
	.st1{fill-rule:evenodd;clip-rule:evenodd;fill:#11498C;}
</style>
<g>
	<path class="st0" d="M1473.4,1271.3c174,0,381.8-137.7,445.9-422.5c0,0-372.3,4.3-496.1,169.7c23.4-232.9-140.3-452.8-170.6-483.1
		c-29.4,30.3-190.5,250.2-167.1,483.1C960.8,853.1,589.4,848.8,589.4,848.8c64.1,284.8,272.7,422.5,446.8,422.5
		c-83.1-40.7-146.3-90.9-146.3-90.9l-1.7-16.5c0,0,103,38.1,185.3,81.4c-175.8-130.7-297-247.6-297-247.6l9.5-13
		c0,0,206.9,138.5,334.2,243.3c-70.1-106.5-103-177.5-103-177.5l16.5-2.6c0,0,71.9,72.7,139.4,168.8c-20.8-99.6-32-203.5-32-203.5
		l13-14.7c0,0,41.6,98.7,72.7,212.1c6.1-329,19-455.4,19-455.4h15.6c0,0,13,126.4,19.1,455.4c31.2-113.4,72.7-212.1,72.7-212.1
		l13,14.7c0,0-11.3,103.9-32,203.5c67.5-96.1,139.4-168.8,139.4-168.8l16.4,2.6c0,0-32.9,71-103,177.5
		c127.3-104.8,334.2-243.3,334.2-243.3l9.5,13c0,0-121.2,116.9-297,247.6c82.2-43.3,185.3-81.4,185.3-81.4l-1.8,16.5
		C1617.1,1180.4,1555.6,1230.6,1473.4,1271.3L1473.4,1271.3z"/>
	<path class="st1" d="M851.7,1684.3l-1.7-36.4H705.4l-0.9,36.4h1.7c4.3,0,6.9-5.2,9.5-10.4c6.1-9.5,12.1-12.1,23.4-12.1h19.1V1815
		c6.1-1.8,13-1.8,19.9-1.8c5.2,0,13.9,0,19.1,1.8v-153.3h19c12.1,0,18.2,2.6,24.2,13c2.6,4.3,5.2,9.5,8.7,9.5L851.7,1684.3z
		 M972.9,1745.7c0,21.7-5.2,58.9-33.8,58.9c-32,0-38.1-32.9-38.1-58c0-23.4,5.2-58.9,35.5-58.9
		C966.9,1687.7,972.9,1722.4,972.9,1745.7L972.9,1745.7z M1011.9,1746.6c0-45-28.6-71.9-73.6-71.9c-40.7,0-76.2,26-76.2,69.3
		c0,45.9,28.6,73.6,74.5,73.6C979,1817.6,1011.9,1790.8,1011.9,1746.6L1011.9,1746.6z M1131.4,1774.3c0,19.9-9.5,27.7-27.7,27.7
		c-11.3,0-15.6-0.9-15.6-9.5v-43.3h5.2c6.9,0,14.7,0,18.2,0.9C1123.6,1752.7,1131.4,1761.3,1131.4,1774.3L1131.4,1774.3z
		 M1123.6,1710.2c0,19.9-10.4,26-28.6,26h-6.9v-42.4c0-3.5,1.7-4.3,7.8-4.3C1108.9,1689.5,1123.6,1692.9,1123.6,1710.2z
		 M1170.3,1776.9c0-23.4-23.4-37.2-44.1-39c16.4-0.9,32.9-12.1,32.9-31.2c0-15.6-13.9-24.2-28.6-26.8c-11.2-1.7-20.8-1.7-34.6-1.7
		h-59.7c0,4.3,6.9,6.9,9.5,10.4c5.2,6.1,6.1,14.7,6.1,22.5V1815h57.1c19.1,0,31.2-1.8,41.6-6.9
		C1161.7,1802.9,1170.3,1792.5,1170.3,1776.9L1170.3,1776.9z M1271.6,1760.4h-42.4l22.5-52.8L1271.6,1760.4L1271.6,1760.4z
		 M1332.3,1815l-48.5-120.3c-4.3-11.3-6.9-16.4-17.3-16.4h-40.7c0,6.9,13,5.2,13,16.4c0,3.5-2.6,10.4-4.3,14.7l-45.9,105.6h17.3
		l16.5-39.8h55.4l14.7,39.8c6.1-1.8,13-1.8,19.1-1.8C1318.4,1813.3,1325.3,1814.1,1332.3,1815L1332.3,1815z M1471.6,1715.4
		l-1.7-30.3c-10.4-6.9-25.1-9.5-39-9.5c-40.7,0-77.9,26.8-77.9,70.1c0,45.9,34.6,71,77.9,71c12.1,0,31.2-2.6,39.8-12.1v-19.9
		c-8.7,9.5-19.1,17.3-33.8,17.3c-32,0-44.1-29.4-44.1-58c0-25.1,12.1-55.4,40.7-55.4c7.8,0,13.8,1.7,18.2,5.2
		c4.3,3.4,6.9,7.8,9.5,15.6c1.7,4.3,4.3,6.9,7.8,6.9C1469.9,1716.3,1470.8,1716.3,1471.6,1715.4L1471.6,1715.4z M1623.2,1715.4
		l-1.8-30.3c-10.4-6.9-25.1-9.5-39-9.5c-41.5,0-77.9,26.8-77.9,70.1c0,45.9,33.8,71,77.1,71c13,0,32-2.6,40.7-12.1v-19.9
		c-8.7,9.5-19.9,17.3-33.8,17.3c-32,0-45-29.4-45-58c0-25.1,13-55.4,41.6-55.4c6.9,0,13,1.7,18.2,5.2c3.5,3.4,6.1,7.8,9.5,15.6
		c0.9,4.3,4.3,6.9,7.8,6.9C1621.4,1716.3,1622.3,1716.3,1623.2,1715.4L1623.2,1715.4z M1766,1745.7c0,21.7-5.2,58.9-33.8,58.9
		c-32,0-37.2-32.9-37.2-58c0-23.4,5.2-58.9,34.6-58.9C1760,1687.7,1766,1722.4,1766,1745.7L1766,1745.7z M1805,1746.6
		c0-45-28.6-71.9-72.7-71.9c-40.7,0-77.1,26-77.1,69.3c0,45.9,28.6,73.6,74.4,73.6C1772.1,1817.6,1805,1790.8,1805,1746.6
		L1805,1746.6z M230.1,1511.1c0,23.4-11.3,35.5-31.2,35.5c-12.1,0-18.2-0.9-18.2-11.2v-56.3h6.1c13,0,28.6,1.8,37.2,13
		C228.4,1497.2,230.1,1504.2,230.1,1511.1z M220.6,1434.9c0,22.5-10.4,30.3-32,30.3c-2.6,0-5.2,0-7.8-0.9v-52.8
		c0-4.3,2.6-6.1,9.5-6.1C208.5,1405.5,220.6,1415.9,220.6,1434.9L220.6,1434.9z M272.5,1514.6c0-29.4-27.7-45-51.9-46.8
		c19.9-1.7,39-16.4,39-39c0-19.9-16.5-29.4-32.9-32.9c-13-2.6-24.2-2.6-40.7-2.6h-60.6c0,6.1,7.8,8.6,11.3,13
		c6.1,6.1,6.1,15.6,6.1,26.8v127.3h58.9c21.6,0,34.6-1.7,47.6-7.8C261.3,1545.7,272.5,1532.7,272.5,1514.6L272.5,1514.6z
		 M383.3,1460.9c0,15.6-6.9,29.4-24.2,29.4c-6.1,0-13-0.9-13-6.9v-46.7c2.6-0.9,6.9-0.9,13.9-0.9c6.1,0,12.1,1.7,15.6,5.2
		C380.7,1445.3,383.3,1452.2,383.3,1460.9L383.3,1460.9z M459.5,1558.7c0-0.9-0.9-0.9-1.7-1.8h-4.3c-7.8-1.7-16.5-7.8-24.2-17.3
		c-7.8-6.9-17.3-19.9-28.6-32.9l-13-14.7c13.9-4.3,32.9-16.4,32.9-35.5c0-7.8-3.5-15.6-8.7-19.9c-11.3-11.3-30.3-13-48.5-13h-69.3
		c0,5.2,5.2,5.2,9.5,9.5c2.6,4.3,5.2,9.5,5.2,21.6v105.6c6.1-1.7,13.8-1.7,19-1.7c5.2,0,12.1,0,18.2,1.7v-58.9
		c3.5,0,6.1,0.9,10.4,5.2c11.3,11.2,25.1,38.1,42.4,47.6c10.4,6.1,27.7,6.9,35.5,6.9c6.1,0,19.1-0.9,23.4-0.9
		C458.7,1559.6,459.5,1559.6,459.5,1558.7L459.5,1558.7z M519.3,1560.4v-133.3c0-2.6-0.9-3.5-3.5-3.5h-48.5c0,4.3,5.2,5.2,9.5,9.5
		c3.5,4.3,6.1,10.4,6.1,23.4v103.9c5.2-1.7,12.1-1.7,18.2-1.7C507.1,1558.7,514.9,1558.7,519.3,1560.4L519.3,1560.4z M676.8,1454.8
		l-1.7-31.2H553.9l-0.9,31.2c0,0,0.9,0.9,1.7,0.9c2.6,0,4.3-3.5,6.1-6.1c5.2-10.4,8.7-13,20.8-13h14.7v123.8
		c5.2-1.7,12.1-1.7,18.2-1.7c4.3,0,13.9,0,18.2,1.7v-123.8h14.7c13.9,0,16.4,3.4,21.6,13.9c1.8,2.6,3.5,4.3,5.2,4.3L676.8,1454.8
		L676.8,1454.8z M747.8,1560.4v-133.3c0-2.6-1.7-3.5-4.3-3.5H695c0,4.3,5.2,5.2,9.5,9.5c3.5,4.3,6.1,10.4,6.1,23.4v103.9
		c5.2-1.7,12.1-1.7,18.2-1.7C734.9,1558.7,742.6,1558.7,747.8,1560.4L747.8,1560.4z M882,1522.4c0-46.7-61.5-42.4-61.5-71.8
		c0-11.3,12.1-17.3,21.6-17.3c5.2,0,10.4,0.9,13.9,2.6c5.2,3.4,8.7,8.6,11.3,13c2.6,7.8,5.2,10.4,9.5,10.4c0.9,0,1.7,0,1.7-0.9
		l-1.7-30.3c-11.3-5.2-22.5-6.9-36.4-6.9c-12.1,0-23.4,2.6-32.9,6.9c-13,6.1-21.6,18.2-21.6,31.2c0,46.8,60.6,40.7,60.6,72.7
		c0,11.3-11.3,17.3-21.7,17.3c-19,0-32-13-41.6-27.7v31.2c14.7,7.8,26.8,10.4,44.1,10.4C857.8,1563.1,882,1547.4,882,1522.4z
		 M1048.3,1560.4v-136.8h-36.4v55.4h-55.4v-51.9c0-1.8-0.9-3.5-3.5-3.5h-48.5c0,5.2,6.1,5.2,10.4,11.2c3.5,4.3,5.2,9.5,5.2,20.8
		v104.7c6.1-1.7,12.1-1.7,19-1.7c5.2,0,11.3,0,17.3,1.7v-66.7h55.4v66.7c6.1-1.7,12.1-1.7,18.2-1.7S1042.2,1558.7,1048.3,1560.4
		L1048.3,1560.4z M1258.7,1494.6h-52.8l28.6-68.4L1258.7,1494.6L1258.7,1494.6z M1322.7,1560.4l-55.4-147.2
		c-5.2-13-8.6-19.9-20.8-19.9h-40.7c0,9.5,13.9,6.1,13.9,19.9c0,5.2-3.5,13-5.2,18.2l-54.6,129h19.1l20.8-49.3h64.9l17.3,49.3
		c6.9-1.7,13-1.7,19.9-1.7C1309.7,1558.7,1315.8,1558.7,1322.7,1560.4z M1522.7,1560.4l-19.1-98.7c-0.9-8.7-2.6-18.2-2.6-26.8
		c0-3.4,0.9-8.7,2.6-11.2h-26c-8.7,0-11.3,3.5-14.7,10.4l-30.3,66.7l-32.9-71.9c-1.7-4.3-3.4-5.2-8.6-5.2h-41.6
		c0,3.5,4.3,6.1,8.7,8.7c3.5,3.5,6.9,6.9,6.9,14.7c0,2.6-0.9,7.8-1.7,10.4l-22.5,103h16.5l20.8-97l42.4,98.7l45.9-100.4l19.1,98.7
		c5.2-1.7,13-1.7,19.1-1.7C1510.6,1558.7,1517.5,1558.7,1522.7,1560.4L1522.7,1560.4z M1658.7,1531c0-0.9-0.9-0.9-1.7-0.9
		c-8.7,0-3.5,15.6-28.6,15.6H1598v-52h47.6v-14.7H1598v-41.5h38.1c6.1,0,12.1,1.7,15.6,4.3l-0.9-18.2h-105.6c0,4.3,5.2,5.2,9.5,9.5
		c3.5,4.3,6.1,9.5,6.1,22.5v93.5c0,9.5,0.9,11.2,12.1,11.2h77.1c5.2,0,6.9-5.2,6.9-12.1L1658.7,1531L1658.7,1531z M1767.7,1460.9
		c0,15.6-6.1,29.4-24.2,29.4c-6.1,0-13-0.9-13-6.9v-46.7c2.6-0.9,6.9-0.9,13.9-0.9c6.1,0,13,1.7,16.4,5.2
		C1765.2,1445.3,1767.7,1452.2,1767.7,1460.9L1767.7,1460.9z M1843.9,1558.7c0-0.9-0.9-0.9-1.7-1.8h-4.3
		c-7.8-1.7-15.6-7.8-24.2-17.3c-7.8-6.9-17.3-19.9-28.6-32.9l-13-14.7c13.9-4.3,32.9-16.4,32.9-35.5c0-7.8-2.6-15.6-7.8-19.9
		c-12.1-11.3-31.2-13-48.5-13h-70.1c0,5.2,5.2,5.2,9.5,9.5c3.5,4.3,6.1,9.5,6.1,21.6v105.6c6.1-1.7,13-1.7,18.2-1.7
		c5.2,0,12.1,0,18.2,1.7v-58.9c3.5,0,6.9,0.9,10.4,5.2c11.2,11.2,25.1,38.1,42.4,47.6c10.4,6.1,27.7,6.9,35.5,6.9
		c6.1,0,19.1-0.9,24.2-0.9C1843.9,1559.6,1843.9,1559.6,1843.9,1558.7L1843.9,1558.7z M1904.6,1560.4v-133.3c0-2.6-1.8-3.5-4.3-3.5
		h-48.5c0,4.3,5.2,5.2,9.5,9.5c3.5,4.3,6.1,10.4,6.1,23.4v103.9c5.2-1.7,12.1-1.7,18.2-1.7
		C1891.6,1558.7,1899.4,1558.7,1904.6,1560.4L1904.6,1560.4z M2061.3,1460.9l-1.7-31.2c-10.4-6.1-25.1-8.7-39-8.7
		c-41.6,0-77.9,26.8-77.9,70.1c0,45.9,34.6,71,77.1,71c13,0,32-3.5,40.7-12.1v-19.9c-8.7,9.5-19.9,17.3-33.8,17.3
		c-32,0-45-30.3-45-58c0-25.1,13-55.4,41.5-55.4c7.8,0,13,1.8,18.2,5.2c4.3,3.5,6.1,7.8,9.5,15.6c1.7,4.3,4.3,6.9,7.8,6.9
		C2059.5,1461.8,2060.4,1461.8,2061.3,1460.9z M2166,1505.9h-42.4l22.5-53.7L2166,1505.9z M2226.6,1560.4l-48.5-121.2
		c-4.3-10.4-6.9-15.6-18.2-15.6h-39.8c0,6.9,13,5.2,13,15.6c0,4.3-2.6,11.3-4.3,15.6l-45.9,105.6h17.3l16.4-39.8h54.6l15.6,39.8
		c6.1-1.7,13-1.7,19.1-1.7C2212.8,1558.7,2219.7,1558.7,2226.6,1560.4L2226.6,1560.4z M2374.7,1560.4v-136.8h-17.3l1.7,90.9
		l-71.8-86.6c-2.6-3.5-4.3-4.3-8.7-4.3h-39c0,4.3,6.9,6.9,9.5,10.4c6.1,5.2,6.1,13,6.1,22.5v103.9h17.3l-0.9-97l62.3,77.1
		c3.5,5.2,9.5,11.2,13.9,13c6.1,4.3,13.9,6.9,23.4,6.9L2374.7,1560.4L2374.7,1560.4L2374.7,1560.4z"/>
</g>
</svg>
