<?xml version="1.0" encoding="utf-8"?>
<!-- Generator: Adobe Illustrator 19.2.1, SVG Export Plug-In . SVG Version: 6.00 Build 0)  -->
<svg version="1.1" id="layer" xmlns="http://www.w3.org/2000/svg" xmlns:xlink="http://www.w3.org/1999/xlink" x="0px" y="0px"
	 viewBox="0 0 652 652" style="enable-background:new 0 0 652 652;" xml:space="preserve">
<style type="text/css">
	.st0{fill:#EC008C;}
	.st1{fill-rule:evenodd;clip-rule:evenodd;fill:#D4EFFC;}
	.st2{fill-rule:evenodd;clip-rule:evenodd;fill:#0F357F;}
	.st3{fill-rule:evenodd;clip-rule:evenodd;fill:#FFFFFF;}
	.st4{fill-rule:evenodd;clip-rule:evenodd;fill:#007DC5;}
</style>
<g>
	<path class="st0" d="M-12.9,569.6v-46.9h6.6v20.2h27v-20.2h6.6v46.9h-6.6v-20.4h-27v20.4H-12.9z M51.8,546.2c0,2.4,0.4,4.7,1.3,6.8
		c0.9,2.2,2.1,4.1,3.8,5.8c1.6,1.7,3.6,2.9,5.8,3.9c2.2,0.9,4.5,1.3,6.8,1.3c2.5,0,4.8-0.5,7-1.3c2.2-0.9,4-2.1,5.8-3.9
		c1.7-1.7,2.9-3.6,3.8-5.8c0.9-2.1,1.4-4.4,1.4-6.8c0-2.3-0.5-4.6-1.3-6.8c-1-2.1-2.2-4.1-4-5.8c-1.7-1.8-3.6-3-5.8-4
		c-2.2-0.9-4.5-1.3-6.9-1.3c-2.3,0-4.6,0.5-6.7,1.4c-2.2,0.9-4.1,2.2-5.9,3.9c-1.7,1.6-2.9,3.6-3.8,5.7
		C52.3,541.5,51.8,543.8,51.8,546.2 M44.7,545.9c0-3.1,0.7-6.2,1.9-9.1c1.3-3,3.1-5.6,5.4-7.8c2.3-2.3,5.1-4.1,8.1-5.3
		c2.9-1.2,6.2-1.8,9.4-1.8c3.4,0,6.7,0.6,9.7,1.8c3.1,1.3,5.8,3,8.1,5.3c2.4,2.3,4.2,5,5.5,7.9c1.2,2.9,1.8,6.1,1.8,9.4
		c0,3.2-0.6,6.3-1.9,9.2c-1.3,2.9-3.1,5.6-5.4,7.8c-2.5,2.4-5.2,4.1-8.2,5.3c-3,1.2-6.2,1.7-9.7,1.7c-3.3,0-6.5-0.6-9.5-1.8
		c-3.1-1.2-5.8-2.9-8.1-5.2c-2.4-2.3-4.3-5-5.5-7.9C45.3,552.5,44.7,549.3,44.7,545.9 M111.6,522.7h6.7v26.9c0,3,0.2,5.2,0.5,6.4
		c0.4,1.3,0.9,2.4,1.6,3.3c1.4,1.6,3,2.8,4.9,3.6c1.9,0.8,4.1,1.2,6.5,1.2c4,0,7.3-1.1,9.8-3.1c2.5-2.1,3.7-4.9,3.7-8.3v-29.9h6.7
		v30.1c0,5.2-1.9,9.4-5.6,12.7c-3.8,3.2-8.6,4.8-14.6,4.8c-3.6,0-6.8-0.6-9.7-1.9c-2.8-1.3-5.2-3.1-7.2-5.5
		c-1.2-1.5-2.1-3.1-2.6-4.9c-0.4-1.8-0.7-4.6-0.7-8.3V522.7z M169.1,565.9v-8.8c2.1,2.4,4.1,4.2,6.1,5.2c1.9,1.1,4,1.6,6.2,1.6
		c2.4,0,4.1-0.5,5.5-1.6c1.4-1.1,2-2.5,2-4.4c0-1.5-0.5-2.8-1.3-4c-0.9-1.1-3.1-2.8-6.5-5c-5.3-3.4-8.6-6-9.9-7.9
		c-1.4-1.9-2-4.1-2-6.7c0-3.6,1.3-6.6,3.8-9c2.6-2.3,5.9-3.5,10-3.5c1.8,0,3.6,0.3,5.4,0.8c1.8,0.5,3.5,1.3,5.3,2.4v7.6
		c-2.1-1.6-4-2.8-5.7-3.6c-1.7-0.7-3.5-1.1-5.2-1.1c-2.1,0-3.8,0.5-5.2,1.5c-1.3,1.1-1.9,2.4-1.9,4c0,2.3,2.7,5.2,8.2,8.7l1,0.6
		c4.5,2.8,7.4,5.2,8.8,7.4c1.4,2.1,2.1,4.8,2.1,7.9c0,3.6-1.3,6.5-3.9,8.9c-2.6,2.3-5.9,3.5-9.9,3.5c-2.6,0-4.9-0.3-6.8-1.1
		C172.9,568.6,171,567.5,169.1,565.9 M212.9,569.6v-46.9H241v6h-21.5v14.2h20.9v6h-20.9v14.6h22.3v6H212.9z M286.4,554.1
		c0,2.9,0.9,5.3,2.9,7.4c1.9,2,4.3,3,7,3c2.7,0,5.1-1,7-3.1c2-2,2.9-4.5,2.9-7.3c0-2.9-0.9-5.3-2.9-7.3c-1.9-2.1-4.3-3.1-7-3.1
		c-2.8,0-5.1,1-7,3.1C287.3,548.8,286.4,551.2,286.4,554.1 M279.9,554.1c0-4.5,1.6-8.3,4.8-11.5c3.2-3.1,7-4.7,11.7-4.7
		c2.1,0,4.2,0.5,6.2,1.3c1.9,0.8,3.7,1.9,5.3,3.5c1.5,1.6,2.7,3.4,3.6,5.3c0.8,1.9,1.2,4,1.2,6.1c0,2.1-0.4,4.2-1.3,6.2
		c-0.8,2-2,3.8-3.5,5.3c-1.6,1.5-3.4,2.7-5.3,3.4c-1.9,0.8-4,1.2-6.2,1.2c-4.7,0-8.5-1.6-11.7-4.7
		C281.5,562.3,279.9,558.6,279.9,554.1 M336.2,569.6h-6.4V544h-4v-5.4h4v-2.8c0-2.7,0.2-4.6,0.3-5.8c0.3-1.3,0.7-2.3,1.2-3.2
		c0.9-1.4,2.1-2.5,3.7-3.4c1.5-0.8,3.3-1.2,5.3-1.2c0.6,0,1.3,0.1,2.1,0.2c0.7,0.1,1.7,0.3,2.9,0.5v5.4c-0.9-0.2-1.6-0.3-2.3-0.4
		c-0.6-0.1-1.2-0.1-1.7-0.1c-1.9,0-3.2,0.5-4,1.5c-0.8,1.1-1.2,2.9-1.2,5.5v3.7h4.1v5.4h-4.1V569.6z M390.6,543.4h7.2
		c3.3,0,5.6-0.5,7.1-1.7c1.5-1.1,2.2-3,2.2-5.6c0-2.5-0.7-4.4-2.2-5.6c-1.5-1.1-3.8-1.7-7.1-1.7h-7.2V543.4z M383.9,569.6v-46.9
		h14.6c4.9,0,8.7,1.2,11.5,3.5c2.8,2.4,4.1,5.6,4.1,9.9c0,4.2-1.4,7.5-4.1,9.8c-2.7,2.3-6.6,3.5-11.5,3.5h-8v20.2H383.9z
		 M430.5,522.7h6.7v26.9c0,3,0.1,5.2,0.5,6.4c0.3,1.3,0.9,2.4,1.6,3.3c1.4,1.6,3,2.8,4.9,3.6c1.9,0.8,4.1,1.2,6.5,1.2
		c4,0,7.3-1.1,9.8-3.1c2.5-2.1,3.8-4.9,3.8-8.3v-29.9h6.6v30.1c0,5.2-1.9,9.4-5.5,12.7c-3.8,3.2-8.7,4.8-14.6,4.8
		c-3.6,0-6.8-0.6-9.6-1.9c-2.9-1.3-5.3-3.1-7.2-5.5c-1.2-1.5-2.1-3.1-2.6-4.9c-0.5-1.8-0.7-4.6-0.7-8.3V522.7z M490.3,569.6v-46.9
		h13.7c4.7,0,8.4,1.1,10.9,3.4c2.6,2.2,3.9,5.4,3.9,9.4c0,3.1-0.7,5.6-2.1,7.5c-1.4,1.9-3.6,3.3-6.7,4.2c0.7,0.5,1.5,1,2.2,1.8
		c0.7,0.7,1.5,1.9,2.7,3.5l11.4,17.2h-8.1l-8.1-12.3c-2.4-3.8-4.3-6.1-5.8-7.1c-1.5-1.1-3.3-1.5-5.3-1.5h-2v20.9H490.3z M497.1,543
		h5.5c3.2,0,5.5-0.6,7.1-1.8c1.5-1.2,2.3-3.1,2.3-5.6c0-2.6-0.7-4.4-2.2-5.5c-1.5-1.1-3.9-1.8-7.2-1.8h-5.5V543z M539.1,522.7h6.7
		v46.9h-6.7V522.7z M578.5,569.6v-40.8h-17.2v-6.1h41.1v6.1h-17.2v40.8H578.5z M628.8,569.6v-23.5l-18.1-23.4h8l13.7,17.8l14-17.8
		h8.1l-18.8,23.7v23.1H628.8z"/>
	<path class="st0" d="M450.7,571.1c-3.7,0-7-0.7-9.9-1.9c-3.1-1.3-5.5-3.2-7.5-5.7c-1.3-1.6-2.2-3.2-2.8-5.2
		c-0.5-1.9-0.7-4.8-0.7-8.5v-27.9h8.2v27.6c0,3.1,0.2,5.1,0.5,6.2c0.3,1.1,0.8,2.1,1.5,3c1.3,1.5,2.9,2.7,4.6,3.4
		c1.9,0.8,3.9,1.1,6.2,1.1c3.8,0,7-1,9.3-3c2.3-1.9,3.5-4.6,3.5-7.8v-30.7h8.1v30.9c0,5.4-1.9,9.9-5.8,13.3
		C461.9,569.5,456.8,571.1,450.7,571.1 M431.2,523.4v26.4c0,3.6,0.3,6.3,0.7,8.1c0.5,1.7,1.3,3.2,2.5,4.6c1.9,2.3,4.1,4.1,7,5.3
		c2.7,1.2,5.8,1.8,9.3,1.8c5.8,0,10.5-1.6,14.1-4.6c3.6-3.2,5.3-7.2,5.3-12.2v-29.4H465v29.2c0,3.7-1.3,6.7-4,8.9
		c-2.6,2.2-6.1,3.3-10.2,3.3c-2.5,0-4.7-0.4-6.8-1.3c-2-0.8-3.7-2.1-5.2-3.8c-0.8-1.1-1.4-2.2-1.8-3.6c-0.3-1.2-0.5-3.3-0.5-6.6
		v-26.2H431.2z M181.8,571.1c-2.7,0-5.1-0.4-7.1-1.1c-2-0.7-4-1.8-6.1-3.5l-0.3-0.2v-11.2l1.3,1.5c2,2.3,4,4,5.8,5
		c1.8,1,3.8,1.5,5.8,1.5c2.2,0,3.8-0.5,5-1.5c1.2-0.9,1.7-2.2,1.7-3.8c0-1.3-0.4-2.5-1.2-3.6c-0.8-1-2.9-2.6-6.3-4.8
		c-5.5-3.5-8.8-6.2-10.1-8.1c-1.5-2-2.1-4.3-2.1-7.1c0-3.8,1.3-7,4.1-9.5c2.8-2.4,6.3-3.7,10.5-3.7c1.9,0,3.7,0.3,5.6,0.8
		c1.8,0.6,3.6,1.4,5.5,2.5l0.3,0.2v9.6l-1.2-1c-2.1-1.6-3.9-2.8-5.5-3.4c-3.7-1.6-7.4-1.4-9.7,0.3c-1.1,0.9-1.6,2-1.6,3.4
		c0,1.4,1.4,3.9,7.9,8l1,0.6c4.6,2.8,7.6,5.4,9.1,7.6c1.5,2.2,2.2,5,2.2,8.3c0,3.8-1.4,7-4.2,9.4
		C189.6,569.9,186.1,571.1,181.8,571.1 M169.9,565.6c1.8,1.4,3.5,2.4,5.3,3c1.9,0.7,4,1,6.6,1c3.9,0,7-1.1,9.4-3.3
		c2.5-2.2,3.7-4.9,3.7-8.3c0-3.1-0.6-5.5-2-7.5c-1.3-2.1-4.2-4.5-8.5-7.2l-1-0.6c-5.8-3.7-8.6-6.7-8.6-9.3c0-1.9,0.7-3.4,2.2-4.6
		c2.8-2.1,6.9-2.3,11.2-0.5c1.4,0.6,2.9,1.5,4.7,2.8v-5.7c-1.7-1-3.2-1.7-4.8-2.1c-1.7-0.5-3.4-0.8-5.1-0.8c-3.8,0-6.9,1.1-9.5,3.3
		c-2.3,2.2-3.6,5-3.6,8.4c0,2.5,0.6,4.5,1.9,6.3c1.3,1.8,4.4,4.3,9.7,7.7c3.6,2.4,5.7,3.9,6.7,5.1c1,1.4,1.5,2.9,1.5,4.5
		c0,2.1-0.8,3.8-2.3,5c-1.5,1.2-3.4,1.8-5.9,1.8c-2.3,0-4.5-0.6-6.5-1.7c-1.6-0.9-3.3-2.2-5-3.9V565.6z M131.8,571.1
		c-3.7,0-7-0.6-10-1.9c-3-1.4-5.5-3.3-7.5-5.7c-1.3-1.6-2.2-3.2-2.8-5.2c-0.5-2-0.8-4.9-0.8-8.5v-27.9h8.1v27.6
		c0,3.6,0.3,5.3,0.5,6.2c0.3,1.2,0.8,2.2,1.5,3c1.3,1.5,2.8,2.6,4.6,3.4c1.8,0.8,3.9,1.1,6.2,1.1c3.8,0,7-1,9.3-3
		c2.3-1.9,3.5-4.5,3.5-7.8v-30.7h8.1v30.9c0,5.4-1.9,9.9-5.8,13.3C143,569.5,137.9,571.1,131.8,571.1 M112.3,523.4v26.4
		c0,3.4,0.3,6.2,0.7,8.1c0.5,1.7,1.3,3.2,2.5,4.6c1.8,2.3,4.1,4,6.9,5.3c2.7,1.2,5.8,1.8,9.3,1.8c5.8,0,10.5-1.6,14.1-4.6
		c3.6-3.2,5.3-7.2,5.3-12.2v-29.4h-5.2v29.2c0,3.7-1.3,6.7-4,8.9c-2.6,2.2-6.1,3.3-10.3,3.3c-2.5,0-4.8-0.4-6.8-1.3
		c-2-0.8-3.6-2.1-5.1-3.8c-0.8-1-1.4-2.2-1.8-3.6c-0.3-1.3-0.5-3.6-0.5-6.6v-26.2H112.3z M69.6,571.1c-3.4,0-6.7-0.6-9.8-1.9
		c-3.1-1.2-5.9-3.1-8.3-5.4c-2.6-2.5-4.5-5.2-5.7-8.2c-1.3-3-1.9-6.3-1.9-9.7c0-3.2,0.7-6.3,2-9.4c1.3-3.1,3.2-5.8,5.6-8
		c2.3-2.3,5.1-4.2,8.4-5.4c6.1-2.5,13.5-2.4,19.7,0c3.2,1.3,5.9,3.1,8.3,5.5c2.4,2.4,4.4,5.1,5.7,8.1c1.3,3.1,1.9,6.3,1.9,9.7
		c0,3.4-0.7,6.6-2,9.5c-1.3,3-3.1,5.7-5.5,8c-2.6,2.4-5.3,4.2-8.4,5.5C76.5,570.5,73.3,571.1,69.6,571.1 M69.6,522.7
		c-3.2,0-6.3,0.6-9.2,1.8c-3,1.2-5.7,2.9-7.9,5.1c-2.3,2.1-4.1,4.7-5.3,7.5c-1.3,2.9-1.9,5.8-1.9,8.8c0,3.3,0.6,6.4,1.8,9.2
		c1.1,2.8,2.9,5.3,5.4,7.7c2.2,2.2,4.8,3.9,7.8,5.1c2.9,1.2,6,1.8,9.3,1.8c3.5,0,6.5-0.5,9.4-1.7c2.9-1.2,5.5-2.8,8-5.2
		c2.2-2.2,4-4.7,5.2-7.5c1.2-2.7,1.8-5.7,1.8-8.9c0-3.2-0.6-6.3-1.8-9.2c-1.2-2.8-3-5.4-5.3-7.6c-2.3-2.2-4.9-3.9-7.9-5.1
		C76.1,523.3,72.9,522.7,69.6,522.7 M296.4,570.9c-4.8,0-8.9-1.7-12.2-4.9c-3.4-3.3-5-7.2-5-11.9c0-4.7,1.7-8.7,5-12
		c3.4-3.2,7.5-4.9,12.2-4.9c2.1,0,4.3,0.5,6.5,1.3c2,0.8,3.8,2,5.5,3.6c1.6,1.7,2.9,3.6,3.8,5.5c0.8,2,1.3,4.1,1.3,6.4
		c0,2.2-0.5,4.4-1.3,6.5c-0.8,2-2,3.8-3.7,5.5c-1.9,1.7-3.7,2.9-5.6,3.6C300.9,570.5,298.7,570.9,296.4,570.9 M296.4,538.6
		c-4.4,0-8.1,1.5-11.2,4.5c-3,3-4.6,6.7-4.6,10.9c0,4.3,1.5,7.8,4.6,10.9c3,3,6.7,4.5,11.2,4.5c2.1,0,4.1-0.4,6-1.1
		c1.7-0.6,3.3-1.7,5.1-3.3c1.5-1.6,2.6-3.2,3.3-5c0.8-1.9,1.2-3.9,1.2-5.9c0-2.1-0.4-4-1.1-5.8c-0.8-1.8-2-3.5-3.5-5.1
		c-1.5-1.5-3.2-2.6-5-3.3C300.3,539.1,298.3,538.6,296.4,538.6 M636.4,570.3H628v-24l-18.9-24.4h9.9l0.2,0.3l13.1,17l13.6-17.3h10
		l-19.6,24.7V570.3z M629.5,568.8h5.4v-22.7l0.2-0.2l17.8-22.5h-6.2l-14.3,18.2l-14-18.2h-6.1l17.3,22.4V568.8z M585.9,570.3h-8.1
		v-40.8h-17.2v-7.6h42.6v7.6h-17.2V570.3z M579.2,568.8h5.2V528h17.2v-4.6H562v4.6h17.2V568.8z M546.6,570.3h-8.2v-48.4h8.2V570.3z
		 M539.9,568.8h5.2v-45.4h-5.2V568.8z M527.8,570.3h-9.9l-8.3-12.6c-2.4-3.6-4.3-6-5.6-6.9c-1.3-0.9-2.9-1.4-4.9-1.4h-1.3v20.9h-8.3
		v-48.4h14.5c4.9,0,8.7,1.2,11.4,3.5c2.7,2.3,4.1,5.7,4.1,10c0,3.2-0.8,5.9-2.3,7.9c-1.3,1.7-3.2,3-5.7,4c0.4,0.3,0.8,0.6,1.1,1
		c0.7,0.7,1.5,1.8,2.7,3.4L527.8,570.3z M518.7,568.8h6.3l-10.6-16c-1.1-1.6-2-2.8-2.6-3.4c-0.6-0.6-1.3-1.2-2.1-1.6l-1.4-0.9
		l1.6-0.5c2.8-0.9,5-2.2,6.3-4c1.3-1.8,2-4.1,2-7c0-3.9-1.2-6.8-3.6-8.9c-2.4-2.1-5.9-3.2-10.4-3.2h-13v45.4h5.3v-20.9h2.8
		c2.3,0,4.2,0.6,5.7,1.7c1.6,1,3.6,3.4,6,7.3L518.7,568.8z M391.3,570.3h-8.1v-48.4h15.4c5,0,9.1,1.3,12,3.7c2.9,2.5,4.3,6,4.3,10.4
		c0,4.4-1.5,7.9-4.3,10.4c-2.9,2.4-6.9,3.7-12,3.7h-7.2V570.3z M384.7,568.8h5.2v-20.2h8.7c4.7,0,8.4-1.1,11-3.3
		c2.5-2.2,3.8-5.3,3.8-9.3c0-4-1.2-7.1-3.8-9.3c-2.6-2.2-6.3-3.4-11-3.4h-13.9V568.8z M336.9,570.3h-7.9v-25.6h-4v-6.9h4v-2.1
		c0-2.5,0.1-4.6,0.3-5.9c0.3-1.3,0.7-2.4,1.3-3.5c0.9-1.5,2.3-2.8,4-3.6c1.6-0.8,3.6-1.3,5.7-1.3c0.6,0,1.3,0.1,2.2,0.2
		c0.7,0.1,1.6,0.3,2.8,0.5l0.6,0.1l0.1,0.6v6.4l-0.9-0.2c-0.8-0.2-1.5-0.3-2.2-0.4c-0.6-0.1-1.2-0.1-1.6-0.1c-1.6,0-2.8,0.4-3.4,1.2
		c-0.7,0.9-1,2.6-1,5v2.9h4.2v6.9h-4.2V570.3z M330.5,568.8h4.9v-25.6h4.2v-3.9h-4.2v-4.4c0-2.8,0.4-4.7,1.4-5.9
		c0.9-1.2,2.4-1.8,4.6-1.8c0.5,0,1.1,0,1.8,0.1c0.4,0,0.9,0.1,1.4,0.2v-3.9c-0.9-0.2-1.7-0.3-2.2-0.4c-0.8-0.1-1.5-0.2-2-0.2
		c-1.8,0-3.6,0.4-5,1.1c-1.4,0.8-2.6,1.8-3.4,3.1c-0.5,0.9-0.9,1.8-1.1,3c-0.2,1.2-0.3,3.2-0.3,5.6v3.6h-4v3.9h4V568.8z
		 M242.5,570.3h-30.4v-48.4h29.7v7.5h-21.5v12.7h20.9v7.5h-20.9v13.2h22.2V570.3z M213.6,568.8H241v-4.5h-22.2v-16.1h20.9v-4.5
		h-20.9v-15.7h21.5v-4.5h-26.7V568.8z M28.2,570.3h-8.1v-20.4H-5.5v20.4h-8.1v-48.4h8.1v20.2h25.5v-20.2h8.1V570.3z M21.6,568.8h5.1
		v-45.4h-5.1v20.2H-7v-20.2h-5.1v45.4H-7v-20.4h28.5V568.8z M296.3,565.2c-2.9,0-5.5-1.1-7.6-3.2c-2.1-2.3-3.1-4.8-3.1-7.9
		c0-3.1,1-5.7,3.1-7.8c2.1-2.2,4.6-3.3,7.6-3.3c3,0,5.5,1.1,7.6,3.3c2.1,2.1,3.1,4.7,3.1,7.8c0,3.1-1,5.7-3.1,7.8
		C301.8,564.1,299.3,565.2,296.3,565.2 M296.3,544.4c-2.6,0-4.7,0.9-6.5,2.8c-1.8,1.9-2.7,4.1-2.7,6.8c0,2.7,0.9,4.9,2.7,6.9
		c1.8,1.8,4,2.8,6.5,2.8c2.5,0,4.7-1,6.5-2.9c1.8-1.8,2.7-4.1,2.7-6.8c0-2.7-0.9-4.9-2.7-6.8C301.1,545.4,298.9,544.4,296.3,544.4
		 M69.6,564.7c-2.4,0-4.9-0.5-7.1-1.4c-2.4-1-4.4-2.4-6-4.1c-1.8-1.8-3.1-3.8-4-6c-0.9-2.1-1.4-4.5-1.4-7.1c0-2.6,0.5-5,1.4-7.2
		c0.9-2.3,2.3-4.3,4-5.9c1.9-1.8,4-3.2,6.1-4.1c2.2-1,4.6-1.5,7-1.5c2.4,0,4.8,0.5,7.2,1.4c2.4,1,4.3,2.4,6,4.1
		c1.7,1.7,3.1,3.7,4.1,6.1c0.9,2.3,1.4,4.7,1.4,7.1c0,2.5-0.5,4.9-1.5,7.1c-0.9,2.2-2.2,4.2-4,6c-1.9,1.8-3.8,3.2-6,4.1
		C74.5,564.3,72.1,564.7,69.6,564.7 M69.6,529c-2.2,0-4.4,0.5-6.4,1.4c-2,0.8-3.9,2.1-5.7,3.7c-1.6,1.5-2.8,3.3-3.6,5.4
		c-0.8,2-1.3,4.2-1.3,6.6c0,2.4,0.4,4.6,1.3,6.5c0.8,2.1,2,3.9,3.7,5.5c1.5,1.6,3.4,2.8,5.5,3.7c2.1,0.8,4.4,1.3,6.6,1.3
		c2.3,0,4.5-0.4,6.7-1.3c2-0.8,3.8-2,5.5-3.7c1.7-1.6,2.8-3.4,3.7-5.5c0.9-2.1,1.3-4.3,1.3-6.6c0-2.2-0.4-4.4-1.3-6.5
		c-0.9-2.1-2.2-4-3.8-5.6c-1.6-1.6-3.4-2.9-5.5-3.8C74,529.4,71.9,529,69.6,529 M397.8,544.2h-8V528h8c3.4,0,6,0.7,7.6,1.9
		c1.7,1.4,2.5,3.4,2.5,6.2c0,2.8-0.8,4.9-2.5,6.2C403.8,543.5,401.3,544.2,397.8,544.2 M391.3,542.7h6.5c3.2,0,5.4-0.5,6.7-1.6
		c1.3-1,1.9-2.7,1.9-5c0-2.3-0.6-4-1.9-5c-1.4-1-3.6-1.6-6.7-1.6h-6.5V542.7z M502.6,543.8h-6.3v-16.1h6.3c3.5,0,6,0.6,7.6,1.9
		c1.6,1.3,2.5,3.3,2.5,6.1c0,2.7-0.9,4.8-2.6,6.1C508.4,543.1,505.9,543.8,502.6,543.8 M497.8,542.3h4.8c3,0,5.2-0.6,6.6-1.6
		c1.4-1.1,2.1-2.8,2.1-5c0-2.3-0.6-3.9-1.9-4.9c-1.3-1-3.7-1.6-6.7-1.6h-4.8V542.3z"/>
	<path class="st1" d="M623.6,380.4l-274.3,0.1c-119.4,4.1-196.9,20.1-331.4,15V260.5h258.5c95-1.6,224.6-27.8,347.2-21.7V380.4z"/>
	<path class="st2" d="M623.6,235c-159-6.9-256.4,25-389.8,21.4H17.9V71.1h605.7V235z"/>
	<path class="st2" d="M17.9,399.6c156.8,6.1,256.4-18.4,389.5-15.1h216.3v85.2H17.9V399.6z"/>
	<path class="st3" d="M128.6,158.7l52.9-70.6h24.5l-54.4,69.7l53.1,70.6h-25.5L128.6,158.7z M127.9,228.4h-20.3V88.1h20.3V228.4z
		 M296.6,228.4h-72.8V88.1h72.8v18.7h-52.5v41.9h52.5V167h-52.5v42h52.5V228.4z M350.3,228.4H330V88.1h20.9l68.9,106.2l-1-106.2h20
		v140.3h-19.5L348.9,119L350.3,228.4z M507.7,228.4h-20.4V107h-26.2V88.1h72.8V107h-26.2V228.4z"/>
	<path class="st3" d="M66.3,411.1h7.2l5.9,26.5c0.2,0.9,0.3,1.7,0.5,2.4c0.1,0.7,0.2,1.3,0.2,1.9c0.4-0.9,0.8-1.8,1.1-2.6
		c0.3-0.8,0.6-1.3,0.8-1.6l14.2-28.3l7.7,28.6c0.1,0.3,0.2,0.8,0.3,1.3c0.1,0.6,0.2,1.5,0.3,2.5c0.3-0.9,0.6-1.8,0.8-2.6
		c0.3-0.8,0.5-1.3,0.7-1.8l11.4-26.4h7.8l-22,46.3l-7.8-29c-0.1-0.1-0.2-0.7-0.3-1.7c-0.2-0.9-0.3-1.7-0.4-2.3
		c-0.3,1-0.6,1.9-0.9,2.7c-0.3,0.8-0.5,1.3-0.7,1.7L78,457.4L66.3,411.1z M134.8,442.1c0,2.8,0.6,4.9,2,6.5c1.2,1.5,3,2.3,5.3,2.3
		c2.6,0,4.7-1.1,6.2-3.1c1.5-2.1,2.3-5,2.3-8.6c0-2.5-0.7-4.5-2-6c-1.4-1.5-3.2-2.2-5.5-2.2c-2.5,0-4.5,1-6,3
		C135.5,436,134.8,438.7,134.8,442.1 M154.9,455.7h-6.6l0.5-3.2c-1.2,1.5-2.5,2.5-3.9,3.2c-1.5,0.7-3.2,1.1-5.1,1.1
		c-3.8,0-6.7-1.2-8.8-3.6c-2.1-2.4-3.1-5.8-3.1-10.1c0-5.2,1.3-9.3,3.8-12.5c2.5-3.1,5.8-4.7,9.9-4.7c1.9,0,3.7,0.4,5.4,1.2
		c1.7,0.8,3.2,2,4.6,3.7l0.6-3.8h6.5L154.9,455.7z M170.9,455.7l3.1-23.2h-5l0.8-5.6h4.9l1.4-10.9h6.5l-1.4,10.9h5.2l-0.8,5.6h-5.2
		l-3,23.2H170.9z M201.8,437.8h14.9c0-1.9-0.6-3.5-1.8-4.6c-1.2-1.1-2.7-1.7-4.6-1.7c-2.2,0-4,0.6-5.6,1.7
		C203.2,434.3,202.2,435.8,201.8,437.8 M216.3,446.8l4.7,3.7c-1.7,2.2-3.5,3.8-5.5,4.8c-2,1-4.2,1.5-6.8,1.5
		c-4.2,0-7.7-1.3-10.3-3.9c-2.6-2.6-4-6-4-10.2c0-5,1.5-9,4.5-12.2c3.1-3.2,6.9-4.7,11.6-4.7c3.9,0,7,1.2,9.4,3.6
		c2.3,2.4,3.4,5.7,3.4,9.7c0,0.4,0,0.8,0,1.3c0,0.5-0.1,1.2-0.2,1.9h-22c0,2.6,0.7,4.7,2,6.2c1.3,1.5,3.1,2.3,5.3,2.3
		c1.5,0,3-0.4,4.3-1.1C214.1,449.2,215.3,448.1,216.3,446.8 M254.4,432.6c-0.4-0.3-1-0.6-1.5-0.8c-0.5-0.2-1.1-0.2-1.6-0.2
		c-2.4,0-4.2,0.9-5.5,2.6c-1.3,1.7-2.2,4.4-2.7,8l-1.8,13.5h-6.6l3.9-28.8h6.3l-0.5,3.7c1.2-1.6,2.4-2.8,3.7-3.6
		c1.3-0.8,2.8-1.1,4.3-1.1c0.7,0,1.4,0.1,2.1,0.3c0.7,0.2,1.3,0.5,2,0.8L254.4,432.6z M313.8,430.3h2.4c4.4,0,7.4-0.5,8.9-1.6
		c1.6-1.1,2.4-2.8,2.4-5.4c0-2.2-0.6-3.7-2-4.5c-1.3-0.9-3.9-1.3-7.8-1.3h-2.2L313.8,430.3z M310.5,455.7h-7l5.8-44.5h9.2
		c3.6,0,6.1,0.2,7.6,0.6c1.6,0.4,2.9,1.1,4.2,2.1c1.3,1.1,2.4,2.4,3.1,3.9c0.7,1.6,1.1,3.3,1.1,5.3c0,2.3-0.4,4.4-1.3,6.2
		c-0.8,1.8-2,3.4-3.5,4.6c-1.3,1-2.9,1.8-4.7,2.2c-1.8,0.5-4.6,0.7-8.4,0.7h-2H313L310.5,455.7z M346,426.9h6.6l-1.6,12
		c0,0.3-0.1,0.6-0.2,1.1c-0.4,2.6-0.5,4.4-0.5,5.2c0,1.9,0.5,3.3,1.5,4.3c1,1,2.5,1.5,4.4,1.5c2.7,0,4.6-0.7,5.9-2.2
		c1.2-1.5,2.1-4.3,2.7-8.4l1.8-13.5h6.5l-1.9,14.6c-0.5,3.7-1.1,6.4-1.8,8c-0.6,1.5-1.5,2.8-2.7,3.9c-1.3,1.1-2.8,2-4.6,2.6
		c-1.9,0.6-3.9,0.9-6.3,0.9c-4.1,0-7.1-0.9-9.1-2.7c-2-1.8-3-4.5-3-8.2c0-1,0.2-2.9,0.6-5.7l0-0.1L346,426.9z M404.1,432.6
		c-0.5-0.3-0.9-0.6-1.4-0.8c-0.5-0.2-1.1-0.2-1.7-0.2c-2.3,0-4.2,0.9-5.5,2.6c-1.3,1.7-2.2,4.4-2.7,8l-1.8,13.5h-6.6l3.8-28.8h6.3
		l-0.5,3.7c1.1-1.6,2.3-2.8,3.7-3.6c1.3-0.8,2.8-1.1,4.4-1.1c0.7,0,1.4,0.1,2.1,0.3c0.7,0.2,1.3,0.5,2,0.8L404.1,432.6z
		 M417.8,416.7c0-1.1,0.4-2,1.2-2.8c0.7-0.8,1.7-1.1,2.8-1.1c1.1,0,2,0.3,2.8,1.1c0.8,0.7,1.1,1.7,1.1,2.8c0,1.1-0.4,2-1.1,2.8
		c-0.7,0.8-1.7,1.1-2.8,1.1c-1.1,0-2.1-0.3-2.8-1.1C418.2,418.8,417.8,417.9,417.8,416.7 M413.5,455.7l3.8-28.8h6.6l-3.8,28.8H413.5
		z M436.9,455.7l3.1-23.2h-5.2l0.7-5.6h5.2l1-7.2c0.6-4.4,1.6-7.5,3-9.2c1.4-1.7,3.6-2.6,6.6-2.6c1,0,1.9,0.1,2.7,0.3
		c0.8,0.2,1.7,0.5,2.5,0.8l-0.7,5.7c-0.7-0.3-1.4-0.6-1.9-0.7c-0.5-0.2-1-0.2-1.5-0.2c-1.2,0-2.2,0.4-2.8,1.3
		c-0.6,0.9-1.1,2.8-1.4,5.5l-0.8,6.2h5.9l-0.8,5.6h-5.9l-3,23.2H436.9z M466.2,416.7c0-1.1,0.4-2,1.2-2.8c0.7-0.8,1.7-1.1,2.8-1.1
		c1.1,0,2,0.3,2.8,1.1c0.7,0.7,1.1,1.7,1.1,2.8c0,1.1-0.4,2-1.1,2.8c-0.7,0.8-1.7,1.1-2.8,1.1c-1.1,0-2.1-0.3-2.8-1.1
		C466.7,418.8,466.2,417.9,466.2,416.7 M462,455.7l3.8-28.8h6.5l-3.8,28.8H462z M491.1,437.8H506c-0.1-1.9-0.6-3.5-1.8-4.6
		c-1.1-1.1-2.7-1.7-4.6-1.7c-2.2,0-4.1,0.6-5.6,1.7C492.5,434.3,491.5,435.8,491.1,437.8 M505.6,446.8l4.7,3.7
		c-1.7,2.2-3.5,3.8-5.5,4.8c-2,1-4.2,1.5-6.8,1.5c-4.3,0-7.8-1.3-10.4-3.9c-2.6-2.6-3.9-6-3.9-10.2c0-5,1.5-9,4.5-12.2
		c3.1-3.2,6.9-4.7,11.6-4.7c3.9,0,7,1.2,9.3,3.6c2.4,2.4,3.5,5.7,3.5,9.7c0,0.4,0,0.8-0.1,1.3c0,0.5-0.1,1.2-0.2,1.9h-22
		c0,2.6,0.7,4.7,2,6.2c1.3,1.5,3.1,2.3,5.3,2.3c1.5,0,2.9-0.4,4.4-1.1C503.5,449.2,504.7,448.1,505.6,446.8 M543.7,432.6
		c-0.5-0.3-1-0.6-1.5-0.8c-0.5-0.2-1.1-0.2-1.6-0.2c-2.4,0-4.2,0.9-5.5,2.6c-1.3,1.7-2.2,4.4-2.7,8l-1.8,13.5H524l3.8-28.8h6.3
		l-0.5,3.7c1.2-1.6,2.4-2.8,3.7-3.6c1.3-0.8,2.8-1.1,4.4-1.1c0.7,0,1.4,0.1,2.1,0.3c0.7,0.2,1.3,0.5,2,0.8L543.7,432.6z
		 M554.1,447.2c1.1,1.5,2.3,2.7,3.5,3.4c1.3,0.8,2.7,1.2,4.1,1.2c1.3,0,2.5-0.3,3.3-0.9c0.8-0.6,1.2-1.4,1.2-2.4
		c0-1.5-1.5-3-4.6-4.7c-0.1-0.1-0.2-0.1-0.2-0.1c-2.9-1.7-4.9-3.1-5.8-4.3c-1-1.2-1.4-2.7-1.4-4.4c0-2.7,1-4.9,3-6.6
		c2-1.7,4.6-2.5,7.8-2.5c1.9,0,3.7,0.4,5.4,1.1c1.6,0.7,3.2,1.8,4.7,3.3l-4,4.2c-0.9-1.2-2-2-3.1-2.6c-1.2-0.6-2.4-0.9-3.7-0.9
		c-1,0-1.9,0.3-2.6,1c-0.7,0.6-1.1,1.4-1.1,2.2c0,1.4,1.3,2.7,3.9,4c1,0.5,1.7,0.9,2.2,1.2c2.3,1.2,3.8,2.5,4.7,3.7
		c0.8,1.2,1.3,2.7,1.3,4.5c0,2.9-1,5.2-3.1,6.9c-2,1.7-4.7,2.6-8.1,2.6c-2.2,0-4.3-0.4-6.2-1.4c-1.9-0.9-3.6-2.2-5.1-3.9
		L554.1,447.2z"/>
	<path class="st4" d="M549.7,294.7v-14h-5v-2.9h13.4v2.9h-5v14H549.7z M560.3,294.7v-16.9h5.1l3,11.5l3-11.5h5.1v16.9h-3.1v-13.3
		l-3.3,13.3h-3.3l-3.3-13.3v13.3H560.3z"/>
	<path class="st4" d="M102.9,353.4H90l-2.4-55.2l-10.5,55.2H64.9l13.8-66.1h19.4l2,46.3l22.5-46.3h19.6l-13.8,66.1H116l13-54.8
		L102.9,353.4z M155.5,287.3h12.9L166,299h-12.9L155.5,287.3z M151.7,305.5h12.9l-10,47.9h-12.9L151.7,305.5z M177.6,305.5h12.3
		l-1.3,6.2c3-2.7,5.9-4.5,8.6-5.7c2.6-1.1,5.4-1.7,8.4-1.7c3.9,0,7,1.1,9.3,3.4c2.3,2.3,3.4,5.2,3.4,9c0,1.7-0.5,4.9-1.5,9.5
		l-5.6,27.1h-13l5.7-27.2c0.9-4,1.3-6.5,1.3-7.3c0-1.6-0.5-3-1.5-3.9c-1-0.9-2.3-1.4-4.1-1.4c-1.9,0-4,0.8-6.3,2.4
		c-2.3,1.6-4.1,3.7-5.5,6.3c-1,1.9-2,5.7-3.2,11.4l-4.1,19.6h-12.9L177.6,305.5z M270.4,333.4h-32.5c0,0.5,0,0.9,0,1.2
		c0,3.2,0.9,5.7,2.7,7.7c1.8,1.9,4,2.9,6.6,2.9c4.3,0,7.7-2.2,10.1-6.7l11.6,1.9c-2.3,4.7-5.3,8.2-9.1,10.5c-3.8,2.3-8,3.5-12.7,3.5
		c-6.4,0-11.7-2-15.7-6.1c-4-4.1-6-9.4-6-16.2c0-6.5,1.8-12.4,5.5-17.5c4.9-6.9,12-10.4,21.2-10.4c5.8,0,10.5,1.8,14,5.4
		c3.5,3.6,5.2,8.7,5.2,15.2C271.3,328.1,271,330.9,270.4,333.4 M259.5,325.6c0-0.6,0-1,0-1.3c0-3.5-0.8-6.2-2.4-8
		c-1.6-1.8-3.7-2.7-6.4-2.7c-2.7,0-5.1,1-7.2,3c-2.1,2-3.5,5-4.3,8.9H259.5z M284.4,305.5h12.1l-1.9,9.3c4.5-6.9,9.4-10.4,14.7-10.4
		c1.9,0,3.9,0.5,6,1.4l-4.9,10.6c-1.2-0.4-2.4-0.6-3.8-0.6c-2.2,0-4.5,0.8-6.8,2.5c-2.3,1.7-4.1,3.9-5.4,6.7
		c-1.3,2.8-2.6,7.3-3.8,13.4l-3.2,15h-13L284.4,305.5z M329.3,319l-12.6-1.1c1.5-4.3,4-7.6,7.6-10c3.6-2.4,8.3-3.6,14.2-3.6
		c6.2,0,10.7,1.2,13.7,3.7c2.9,2.5,4.4,5.5,4.4,9.1c0,1.5-0.1,3-0.4,4.6c-0.2,1.6-1.1,5.9-2.6,12.8c-1.3,5.7-1.9,9.7-1.9,12
		c0,2,0.3,4.3,1.1,6.8h-12.6c-0.5-1.7-0.8-3.5-1-5.4c-1.9,2.1-4,3.7-6.5,4.8c-2.5,1.1-5,1.7-7.5,1.7c-4,0-7.2-1.3-9.8-3.9
		c-2.6-2.6-3.9-6-3.9-10.1c0-4.6,1.4-8.2,4.2-10.9c2.8-2.8,7.9-4.4,15.2-5c6.2-0.5,10.3-1.1,12.3-1.8c0.6-1.8,0.8-3.2,0.8-4.3
		c0-1.4-0.6-2.5-1.6-3.5c-1.1-1-2.8-1.4-5-1.4c-2.3,0-4.1,0.5-5.5,1.4C330.7,316,329.8,317.3,329.3,319 M341.6,331
		c-0.8,0.2-1.8,0.4-3.1,0.6c-6.5,0.8-10.7,1.9-12.7,3.4c-1.5,1.1-2.1,2.5-2.1,4.4c0,1.5,0.6,2.8,1.6,3.8c1.1,1,2.5,1.6,4.3,1.6
		c1.9,0,3.8-0.5,5.5-1.4c1.7-0.9,3-2.2,3.9-3.6c0.9-1.5,1.6-3.8,2.3-7L341.6,331z M362.3,353.4l13.8-66.1H389l-13.8,66.1H362.3z
		 M427.6,353.4H414l13.8-66.1h29.3c5.1,0,9,0.5,11.8,1.6c2.8,1,5.1,2.9,6.8,5.7c1.7,2.8,2.6,6.1,2.6,10c0,5.6-1.7,10.3-5.1,13.9
		c-3.4,3.7-8.5,5.9-15.3,6.8c1.7,1.6,3.4,3.6,4.9,6.2c3.1,5.2,6.4,12.5,10.2,21.9h-14.6c-1.2-3.7-3.5-9.5-6.9-17.5
		c-1.9-4.2-3.9-7.1-6-8.6c-1.3-0.9-3.5-1.3-6.7-1.3h-5.6L427.6,353.4z M435.4,316.1h7.2c7.3,0,12.2-0.5,14.5-1.3
		c2.4-0.9,4.3-2.2,5.6-4.1c1.3-1.9,2-3.8,2-5.8c0-2.4-1-4.2-2.9-5.4c-1.2-0.7-3.9-1.1-7.8-1.1h-14.9L435.4,316.1z M484.7,327.4
		c0-3.9,0.6-8,1.8-12.3c1.5-5.8,3.9-10.8,7-15.1c3.1-4.3,7.1-7.6,11.9-10.1c4.8-2.5,10.2-3.7,16.3-3.7c8.2,0,14.8,2.5,19.8,7.6
		c5,5.1,7.5,11.8,7.5,20.2c0,7-1.6,13.7-4.9,20.3c-3.3,6.5-7.7,11.5-13.3,15.1c-5.6,3.5-12,5.3-19,5.3c-6.2,0-11.4-1.4-15.6-4.2
		c-4.2-2.8-7.1-6.3-8.9-10.4C485.6,335.8,484.7,331.6,484.7,327.4 M498.1,327.2c0,4.5,1.4,8.4,4.2,11.4c2.8,3.1,6.4,4.6,10.9,4.6
		c3.7,0,7.2-1.2,10.6-3.6c3.4-2.4,6.1-6.1,8.3-11c2.2-4.9,3.3-9.7,3.3-14.4c0-5.2-1.4-9.3-4.2-12.2c-2.8-2.9-6.3-4.4-10.7-4.4
		c-6.6,0-12,3.1-16.2,9.3C500.2,313,498.1,319.8,498.1,327.2"/>
</g>
</svg>
