<svg xmlns="http://www.w3.org/2000/svg" viewBox="0 0 59.36 34.66"><defs><style>.cls-1{font-size:7.32px;fill:#6d6f72;font-family:NeoTech-BoldItalic, NeoTech;font-weight:700;font-style:italic;letter-spacing:0.05em;}.cls-2{fill:#f04f19;}</style></defs><g id="Layer_2" data-name="Layer 2"><g id="Layer_1-2" data-name="Layer 1"><text class="cls-1" transform="translate(0 33.18)">switch to smart</text><path class="cls-2" d="M7.77,15.12a1.31,1.31,0,0,1-1.44-1.45V7.17A1.33,1.33,0,0,1,7.77,5.73h4.56a1.32,1.32,0,0,1,1.44,1.44v7.94c3.11-.33,4.49-2,5-2.92a9.19,9.19,0,0,0,.8-4.94c-.15-4-1.51-5.61-3.79-6.46A22.9,22.9,0,0,0,7.41.11C5,.37,3.25,1,1.91,2.9.15,5.43.22,11.46.61,14.68c.64,5.15,3.82,5.82,5,6a34.25,34.25,0,0,0,7,.24c2.39-.2,6.66-1.25,6.91-5.62v-.22ZM39,2.62H37.3V1.25H39ZM28,9.22c1.44,0,1.44-.72,1.44-2.14s.06-2-1.44-2-1.43.58-1.43,2S26.64,9.22,28,9.22M24.86,7.11C24.86,4.83,26,3.7,28,3.7c2.39,0,3.16,1.13,3.16,3.41s-.91,3.41-3.16,3.41-3.14-1.13-3.15-3.41M39,10.51H37.3V3.82H39ZM42,6.42h2.9v0c0-.89-.23-1.35-1.43-1.35S42,5.47,42,6.42m1.47-2.71c2.39,0,3.09,1.06,3.09,3.16a7.89,7.89,0,0,1-.05.84H42c0,1.25.19,1.34,2,1.38.7,0,1.33,0,2.06,0v1.24a9.91,9.91,0,0,1-2.12.19c-2.66,0-3.7-.65-3.7-3.48,0-2.21,1-3.32,3.19-3.32m4.26,6.8V4.27A12.18,12.18,0,0,1,51,3.82c1.64.16,2.48.89,2.48,2.56v4.13H51.79v-4c0-.75-.38-1.09-1.12-1.12a5.28,5.28,0,0,0-1.26.09v5.08ZM34.1,4.91v0l-.21-.92H32.48v6.57H34.1V6.14a2.69,2.69,0,0,1,2.22-.85l.14-1.56A2.81,2.81,0,0,0,34.1,4.91M57.41,9.12h0c-.69,0-.82-.13-.82-.92V5.07h1.55V3.71H56.54l-.23-1.16H54.87V8.68c0,1.22.57,1.83,1.7,1.83h0a6.44,6.44,0,0,0,1.75-.18l0-1.21h-.94M43.84,13.51a1.38,1.38,0,0,0-1.13.28l-.18.18-.15-.37h-.51v3.62h.71V14.54a1.67,1.67,0,0,1,1.2-.36ZM25.63,14.9c.06-.64.31-.83,1-.83s1,.33,1,.83V15h-2Zm1.3,2.34a7,7,0,0,0,1.12-.09v-.53c-.38,0-.72,0-1.09,0-.85,0-1.31-.06-1.32-.93v-.13h2.63c0-.11,0-.24,0-.37,0-1.27-.43-1.73-1.67-1.73s-1.74.56-1.74,1.82c0,1.52.61,2,2,1.93m2.43,0h.76V12.34h-.76Zm7.91,0a4.53,4.53,0,0,0,.91-.1v-.52l-.43,0c-.14,0-.25,0-.42,0-1.11,0-1.18-.55-1.18-1.38s.17-1.22,1.2-1.22l.82,0v-.54a4.58,4.58,0,0,0-.9-.09c-1.31,0-1.89.56-1.89,1.8s.57,2,1.89,2M41,17.16V16.6l-.4,0a1.06,1.06,0,0,1-.29,0c-.38-.05-.34-.3-.34-.65V14h.91v-.56h-.91l-.14-.69h-.62v3.49c0,.63.29.94.86,1h.09a4.24,4.24,0,0,0,.84-.06m3.67-4.46h.77V12h-.77Zm0,4.52h.77V13.53h-.77Zm3.61,0a4.63,4.63,0,0,0,.92-.1v-.52a7.87,7.87,0,0,1-.84,0c-1.12,0-1.19-.55-1.19-1.38s.22-1.25,1.2-1.22l.82,0v-.54a4.5,4.5,0,0,0-.9-.09c-1.3,0-1.89.56-1.89,1.8s.57,2,1.89,2M31.9,14.9c0-.61.24-.83,1-.83s1,.33,1,.83V15h-2Zm1.3,2.34a7.18,7.18,0,0,0,1.13-.09v-.53c-.38,0-.72,0-1.09,0-.85,0-1.34-.1-1.34-.93V15.6h2.65c0-.11,0-.24,0-.37,0-1.27-.43-1.73-1.67-1.73s-1.75.56-1.75,1.83c0,1.51.63,1.94,2.05,1.92"/></g></g></svg>