<?xml version="1.0" encoding="UTF-8"?>
<svg id="svg1" xmlns="http://www.w3.org/2000/svg" xmlns:svg="http://www.w3.org/2000/svg" xmlns:sodipodi="http://sodipodi.sourceforge.net/DTD/sodipodi-0.dtd" xmlns:inkscape="http://www.inkscape.org/namespaces/inkscape" version="1.1" viewBox="0 0 974.4 161.1">
  <defs>
    <style>
      .cls-1 {
        fill: #3879c6;
      }

      .cls-1, .cls-2 {
        stroke-width: 0px;
      }

      .cls-2 {
        fill: #235789;
      }
    </style>
  </defs>
  <path id="path1" class="cls-1" d="M401.2,1.9l-58.6,141.2h-3.1L280.8,1.9h10.9l49.4,118.3L390.2,1.9h11Z"/>
  <path id="path2" class="cls-1" d="M417.9,141.7h10.7V1.9h-10.7v139.8Z"/>
  <path id="path3" class="cls-1" d="M522.6,8.8v11.9c-12.2-7.1-22.6-10.7-31.4-10.7s-15.5,2.5-21.1,7.7c-5.6,5.1-8.5,11.4-8.5,19s1.7,10.3,5,14.6c3.3,4.3,10.3,8.5,21,12.5,10.6,4,18.4,7.4,23.3,10,4.9,2.7,9,6.5,12.4,11.6,3.4,5.1,5.1,11.7,5.1,19.7s-3.9,19.8-11.8,27.2c-7.9,7.4-17.5,11.1-28.8,11.1s-23.6-4.1-35.9-12.2v-12.7c13.6,9.9,25.3,14.9,35.3,14.9s15.3-2.7,21-8.1c5.7-5.4,8.6-12,8.6-19.9s-1.8-11.3-5.3-16.2c-3.5-4.8-10.7-9.2-21.6-13.3-10.9-4.1-18.6-7.4-23.2-9.9-4.6-2.5-8.6-6.2-11.8-10.9-3.2-4.7-4.8-10.7-4.8-18.2s3.9-19,11.8-26.3c7.9-7.2,17.4-10.9,28.4-10.9,10.9,0,21.6,2.9,32.3,8.8"/>
  <path id="path5" class="cls-1" d="M563.7,141.6h-10.7V1.9h10.7v139.8Z"/>
  <path id="path7" class="cls-1" d="M974.4,1.9v139.8h-9.1l-105.6-122.2v122.2h-10.7V1.9h9.1l105.6,122.2V1.9h10.7Z"/>
  <path id="path9" class="cls-1" d="M636,151.2h141.6v9.9h-141.6v-9.9Z"/>
  <path id="path11" class="cls-2" d="M142.9,37.1h-50.6v104.5h-41.6V37.1H0V3.5h142.9v33.6Z"/>
  <path id="path13" class="cls-1" d="M229.5,47.2c0-6.6-2-11.1-5.9-13.5-3.9-2.4-10.9-3.6-21-3.6h-8.8v33.3h9c7,0,12.3-.4,16.1-1.3,3.7-.9,6.5-2.5,8.1-4.8,1.7-2.3,2.5-5.7,2.5-10.1M271.7,47c0,5.1-.9,10.1-2.6,15-1.8,4.9-4.6,9.4-8.5,13.7-3.9,4.2-9.2,7.6-15.9,10.3-6.7,2.6-14.5,3.9-23.6,3.9h-27.3v51.8h-41.6V3.5h69c9,0,16.9,1.3,23.6,4,6.7,2.7,12,6.1,15.9,10.4,3.9,4.3,6.8,8.9,8.5,13.8,1.8,5,2.6,10.1,2.6,15.3"/>
  <path id="path15" class="cls-1" d="M785.8,2.4h-157.6c-22.5,0-41,18.4-41,41v56.4c0,22.5,18.4,41,41,41h157.6c22.5,0,41-18.4,41-41v-56.4c0-22.5-18.4-41-41-41M785.8,12.1c17.3,0,31.3,14.1,31.3,31.3v56.4c0,17.3-14.1,31.3-31.3,31.3h-157.6c-17.3,0-31.3-14.1-31.3-31.3v-56.4c0-17.3,14.1-31.3,31.3-31.3h157.6Z"/>
</svg>