<svg xmlns="http://www.w3.org/2000/svg" xmlns:xlink="http://www.w3.org/1999/xlink" viewBox="0 0 690.83 251"><defs><style>.cls-1{fill:#030303;}.cls-2{fill:#c00808;}.cls-3{font-size:16.04px;font-family:DroidSans-Bold, Droid Sans;font-weight:700;}.cls-4{fill:url(#radial-gradient);}.cls-5{fill:url(#linear-gradient);}.cls-6{fill:url(#radial-gradient-2);}.cls-7{fill:url(#radial-gradient-3);}</style><radialGradient id="radial-gradient" cx="285.06" cy="101.22" r="81.78" gradientUnits="userSpaceOnUse"><stop offset="0" stop-color="#fff"/><stop offset="1" stop-color="#c4c5c5"/></radialGradient><linearGradient id="linear-gradient" x1="277.89" y1="67.43" x2="431.54" y2="67.43" gradientUnits="userSpaceOnUse"><stop offset="0" stop-color="#c8c9c9"/><stop offset="0.73" stop-color="#fff"/><stop offset="1" stop-color="#c4c5c5"/></linearGradient><radialGradient id="radial-gradient-2" cx="366.85" cy="117.78" r="26.85" xlink:href="#radial-gradient"/><radialGradient id="radial-gradient-3" cx="360.01" cy="160.11" r="47.68" xlink:href="#radial-gradient"/></defs><g id="Layer_2" data-name="Layer 2"><g id="Layer_1-2" data-name="Layer 1"><polygon class="cls-1" points="251.48 2.42 303.13 109.64 227.74 207.06 341.87 116.53 251.48 2.42"/><polygon class="cls-1" points="277.37 27.18 344.82 114.57 431.03 47.01 347.55 87.18 277.37 27.18"/><polygon class="cls-1" points="348.07 117.56 385.89 86.54 364.8 118.81 376.58 152.76 348.07 117.56"/><polygon class="cls-1" points="307.52 149.54 342.69 120.36 412.5 206.5 341.09 137.61 307.52 149.54"/><path class="cls-2" d="M530.11,250.66c-9,0-17.3.08-25.6-.11-.88,0-1.91-1.4-2.55-2.37-4.07-6.12-8-12.3-12.06-18.46-.66-1-1.37-2-2.22-3.22l-26.41,17.44h28.87c-.87,6-1.66,6.76-6.91,6.76-19.47,0-38.94,0-58.41.06-2.42,0-3.87-.65-5.12-2.75-2.68-4.49-5.51-8.9-8.55-13.16-1.52-2.13-1.87-4.19-.16-6,1-1,2.8-1.45,4.32-1.75,2.89-.58,6-.52,8.72-1.43,1.27-.42,2-2.5,3-3.83-1.41-.76-2.78-2.08-4.23-2.18-10.64-.76-10.64-.68-15,9-2.84,6.36-5.79,12.67-8.49,19.08-.9,2.13-2,3.06-4.39,3-6-.18-12-.06-18.47-.06,1.25-3,2.31-5.58,3.45-8.15,3.89-8.75,7.87-17.46,11.66-26.25,1-2.26,2.18-3.2,4.73-3.18,14.48.11,29,0,43.44.07,3.66,0,7.48.12,9.28,4.1,1.4,3.08-.4,8-4.28,10.76-3.29,2.33-7.1,3.94-11.18,6.14l10.71,15.57c9.21-6,18.18-11.83,27.14-17.68q13.15-8.58,26.29-17.18c5.13-3.35,8.9-2.58,12.05,2.48q9.18,14.75,18.32,29.52C528.71,247.91,529.21,249,530.11,250.66Z"/><path class="cls-2" d="M140.92,250.7c-4.49,0-9,0-13.47,0-9.21-.06-13.4-5.09-11.36-14,2.47-10.7,13-24,28.59-23.6,8.48.21,17,0,25.44.06,10.55.14,14.58,6,11.17,16-3.82,11.24-15.29,22.76-29.9,21.57C147.92,250.46,144.41,250.7,140.92,250.7Zm2.72-6.57c2.93.4,6.39-.14,8.13-3.19a169.34,169.34,0,0,0,8.21-17c.4-.93-.63-3.33-1.61-3.83-4.87-2.43-12-.14-14.58,4.71A117.43,117.43,0,0,0,138.28,237C136,242.73,137.05,244.13,143.64,244.13Z"/><path class="cls-2" d="M27.11,244.13c-4.39-4-8-7.34-11.64-10.69a32.78,32.78,0,0,1-3.87-4c-2.85-3.82-2.54-8.19,1.42-10.78a48.71,48.71,0,0,1,11.13-4.92c2.06-.69,4.45-.5,6.69-.51,10.71-.05,21.42,0,32.19,0-1.13,6.07-1.53,6.42-7.18,6.42-5.24,0-10.48,0-15.72,0-1.18,0-2.36.1-4.5.21l12.61,11.91c.63.6,1.3,1.17,1.9,1.81,6.06,6.4,4.73,12.21-3.64,14.93a36,36,0,0,1-10.22,2c-12.09.24-24.18.09-36.28.09.78-5.74,1.53-6.4,7.2-6.4Z"/><path class="cls-2" d="M320.25,213.17c-1.5,6.29-1.65,6.42-7.2,6.42-6.61,0-13.22.07-19.83,0-4.14-.06-7.37,1.44-9.21,5.16-2.19,4.45-4.35,8.95-6.1,13.59-1.55,4.12-.14,5.79,4.28,5.81,8.07,0,16.15,0,24.29,0-1.4,6.39-1.61,6.57-7.5,6.57-10.6,0-21.2,0-31.8,0-9.77,0-13.87-5.43-11.32-14.8a30.22,30.22,0,0,1,29.66-22.72c10.11,0,20.21,0,30.31,0Z"/><path class="cls-2" d="M183.52,213.22c9.11,0,17.3-.11,25.48.12,1.09,0,2.41,1.54,3.16,2.67,4.69,7,9.25,14.13,14,21.39,11.71-7.64,23.09-15.23,34.68-22.49,2.24-1.4,5.3-1.49,8-2.19l.43,1.3c-.83.65-1.63,1.35-2.51,1.93Q241.4,232.5,216.05,249c-5.09,3.32-8.77,2.48-11.91-2.6C197.46,235.65,190.77,224.89,183.52,213.22Z"/><path class="cls-2" d="M123.21,213.17c-1,6.06-1.42,6.35-6.61,6.44-4.09.06-9-1.05-12,.85-2.82,1.79-3.63,6.79-5.27,10.4-2.56,5.67-5.13,11.34-7.57,17-.82,1.94-1.83,2.91-4.13,2.85-6-.18-12-.06-18.77-.06,4.59-10.41,9-20.35,13.66-30.95H66.9c1.41-6.47,1.54-6.58,7.35-6.58h49Z"/><path class="cls-2" d="M606.68,250.7l13.69-31H605c.9-6.08,1.37-6.51,6.7-6.51h49.34c-.86,5.83-1.48,6.41-6.47,6.42a84.92,84.92,0,0,0-9.71.12,5.49,5.49,0,0,0-3.78,2.51q-5.9,12.47-11.26,25.18c-1.1,2.62-2.54,3.46-5.31,3.36C618.85,250.55,613.16,250.7,606.68,250.7Z"/><path class="cls-2" d="M603,213.26c-1.57,6.32-1.57,6.33-7.2,6.33-6.49,0-13,.15-19.48-.05-5-.15-8.33,2.12-10.34,6.49-3.32,7.24-6.64,14.48-9.78,21.79-.92,2.15-2.09,3-4.46,2.93-6.34-.15-12.69-.05-19.84-.05C537.5,240.45,539.52,229,548,221c4.75-4.49,10.15-7.7,16.93-7.73C577.55,213.23,590.13,213.26,603,213.26Z"/><path class="cls-2" d="M345.34,213.17c-.54,1.58-.82,2.63-1.26,3.61-4.58,10.34-9.27,20.63-13.74,31-.94,2.17-2,3-4.39,2.95-6-.15-11.94-.05-18.43-.05,1.2-2.85,2.2-5.35,3.29-7.8,3.89-8.75,7.91-17.45,11.66-26.26,1.08-2.52,2.39-3.64,5.24-3.53C333.41,213.32,339.12,213.17,345.34,213.17Z"/><path class="cls-2" d="M387.24,214.18l-27.52,12.67,16,23.81c-8.12,0-15.27.07-22.42-.1-.79,0-1.73-1.26-2.31-2.12-3-4.56-6-9.17-8.95-13.76-2-3.08-1.15-6.85,2.12-8.36,9.27-4.27,18.41-8.9,28-12.34,4.46-1.6,9.79-.78,14.73-1Z"/><path class="cls-2" d="M284,233.5c1.67-6.42,1.67-6.42,7.69-6.42H314.1c-1.58,6.42-1.58,6.42-7.3,6.42Z"/><path class="cls-2" d="M567,233.5c1-6,1.55-6.42,6.81-6.42H596.5c-.47,5.58-1.36,6.42-6.46,6.42Z"/><path d="M690.83,201.19a10.47,10.47,0,0,1-10.71,10.57,10.71,10.71,0,1,1,10.71-10.57Zm-4.9,6.42c4-3.5,4.42-8.6,1-12.4a8.93,8.93,0,0,0-12.7-.78,8.84,8.84,0,0,0-.68,12.65c3.37,3.75,8.65,3.93,12.47.42Z"/><text class="cls-3" transform="translate(674.75 207.07)">R</text><polygon class="cls-4" points="252.85 0 304.5 107.22 229.11 202.44 341 114.26 252.85 0"/><polygon class="cls-5" points="277.89 23.74 345.34 111.13 431.54 43.56 348.07 83.74 277.89 23.74"/><polygon class="cls-6" points="348.07 114.78 385.63 84.78 364.12 116.87 377.54 150.78 348.07 114.78"/><polygon class="cls-7" points="307.52 146.35 343.89 117.78 412.5 202.44 342.33 133.83 307.52 146.35"/></g></g></svg>