<?xml version="1.0" encoding="utf-8"?>
<!-- Generator: Adobe Illustrator 24.3.0, SVG Export Plug-In . SVG Version: 6.00 Build 0)  -->
<svg version="1.1" id="Layer_1" xmlns="http://www.w3.org/2000/svg" xmlns:xlink="http://www.w3.org/1999/xlink" x="0px" y="0px"
	 viewBox="0 0 744 641.6" style="enable-background:new 0 0 744 641.6;" xml:space="preserve">
<style type="text/css">
	.st0{fill-rule:evenodd;clip-rule:evenodd;fill:#BFA161;}
	.st1{fill-rule:evenodd;clip-rule:evenodd;fill:#FFFFFF;}
	.st2{fill:#FFFFFF;}
	.st3{font-family:'Georgia';}
	.st4{font-size:63.66px;}
</style>
<g id="Layer_2_1_">
	<g id="Layer_1-2">
		<path class="st0" d="M448.1,218.8c-8.5,6-19.5,7.1-29,3.1c-1.8-0.8-3.4-1.9-4.7-3.4c-1.9-2.3-51-55.1-51-55.1l-0.1-0.2
			c15.2,2.6,31.8-4.3,40.3-16.9c8.5-12,8.2-29.1,0.2-41.1c-9.7-13.1-28.5-17.4-44.3-15.4c-27.4,3.7-47.1,26.9-53.2,51.3
			c-6.3,27.7-1.8,53.9,8.1,78.5c2.3,5.5,5.3,10.6,9,15.2c-28.9-12-54.3-34.2-67.7-63.9c-14.8-32-14.5-72.5,3.1-105
			c13.9-25.1,38.4-48.3,68.7-58.2c31.8-12.5,74.5-9.8,105.5,6.8c37.6,17.9,65.9,62.3,66.1,102.1C500.2,157.7,481.2,195,448.1,218.8"
			/>
		<path class="st0" d="M342.7,234.4c-14-14.5-25.3-33.2-16.8-52.8c7.6-14.9,14.4-30.2,17.6-47.4c1.3,18,12.7,34,18.2,51.3
			c2.1,8.3,2.3,16.9-1.1,25.6c-3.7,9.4-9.7,17.4-16.8,24.6L342.7,234.4z"/>
		<path class="st1" d="M135.1,397H97.8C89.5,384.7,82,374,75.3,364.9c-7-9.5-14.3-18.8-21.7-27.9H39.4v42c0,2,0.3,3.9,1.1,5.7
			c0.7,1.6,2.2,2.9,4.6,3.8c2,0.6,4.1,1,6.1,1.2c2.9,0.4,5.4,0.6,7.4,0.7v6.6H0v-6.6c1.6-0.1,3.8-0.4,6.8-0.7
			c2.1-0.1,4.2-0.5,6.2-1.2c1.8-0.7,3.3-1.9,4.2-3.5c1-1.8,1.4-3.9,1.3-6v-95.8c0-2-0.3-3.9-1-5.8c-0.6-1.7-2.2-3-4.6-3.8
			c-2.1-0.7-4.2-1.2-6.4-1.5c-2.2-0.4-4.4-0.7-6.6-0.9v-6.6h64c5.6,0,11.1,0.5,16.5,1.7c4.9,1.1,9.7,2.9,14,5.5
			c4,2.4,7.3,5.8,9.7,9.8c2.5,4.4,3.8,9.4,3.6,14.5c0.1,4.6-0.8,9.2-2.5,13.5c-1.6,3.9-4.1,7.4-7.2,10.2c-3.2,2.8-6.7,5.2-10.6,7
			c-4.4,2.1-8.9,3.7-13.6,5c5.7,7.2,11.4,14.5,17,21.9c4.5,5.9,10.1,13.1,16.7,21.5c2.2,3.1,4.8,5.9,7.8,8.3
			c2.1,1.7,4.5,3.1,6.9,4.3c2,0.9,4.2,1.5,6.4,1.9c2.1,0.4,4.2,0.6,6.3,0.7L135.1,397z M83.7,298.3c0-8-2.4-14.4-7.2-19.1
			s-11.7-7-20.4-7H39.4V329h12.8c9,0,16.5-2.7,22.5-8.3S83.7,307.7,83.7,298.3L83.7,298.3z M223.6,375.4
			c-3.8,7.1-9.4,13.2-16.2,17.6c-7,4.4-15.1,6.6-23.4,6.5c-7,0.2-13.9-1.2-20.4-3.9c-5.6-2.4-10.5-6-14.4-10.6
			c-3.8-4.6-6.7-9.9-8.5-15.7c-1.9-6.1-2.8-12.5-2.7-18.9c0-6,1-11.9,3-17.6c1.9-5.7,4.9-11,8.8-15.5c3.8-4.5,8.5-8.1,13.8-10.7
			c5.7-2.8,12-4.1,18.4-4.1c7,0,13.1,1.1,18.1,3.2c4.7,1.9,8.9,4.8,12.2,8.7c3.1,3.6,5.3,7.8,6.7,12.3c1.5,5,2.2,10.2,2.2,15.4v6.2
			h-63.8c-0.1,5.5,0.5,11,1.8,16.4c1.1,4.7,3,9.1,5.7,13c2.6,3.6,6,6.6,10,8.5c4.6,2.2,9.6,3.2,14.7,3.1c5.3,0.1,10.5-1.2,15-3.9
			c4.2-2.6,8.2-7.2,12.1-14L223.6,375.4z M202,340.3c0-3.8-0.3-7.5-0.9-11.2c-0.5-3.5-1.5-6.8-3-10c-1.5-2.8-3.6-5.2-6.2-7
			c-2.6-1.8-6-2.7-10.1-2.7c-6.6-0.1-13,2.9-17.1,8.1c-4.5,5.5-7,13-7.4,22.7L202,340.3z M278.1,397h-45.4v-5.9l4.6-0.4
			c1.4-0.1,2.7-0.3,4.1-0.7c1.6-0.4,3.1-1.4,4-2.8c1-1.6,1.4-3.4,1.3-5.3l-1.5-98.3c-0.2-2.2-0.6-4.4-1.1-6.5
			c-0.2-0.8-0.4-1.5-0.9-2.1c-0.2-0.4-0.5-0.7-0.8-1c-1.6-1.4,0.4,0.5-1.1-0.8c-1-0.9,0.4-0.3-2.6-0.9s-8,0.7-9.8,0.6l-0.2-6.5
			l33.9-1.8l1.6,1.3l0.1,114.9c-0.1,1.8,0.3,3.6,1.2,5.2c0.9,1.5,2.4,2.6,4,3.1c1.3,0.6,2.7,1,4.1,1.4c1.5,0.3,3,0.5,4.6,0.6
			L278.1,397z M336.4,397h-46.2v-6l4.6-0.4c1.4-0.1,2.8-0.3,4.1-0.8c1.7-0.4,3.1-1.5,4-2.9c0.9-1.6,1.4-3.5,1.3-5.4v-56.4
			c0-1.9-0.5-3.8-1.4-5.4c-1-1.7-2.3-3.1-3.9-4.1c-1.7-0.9-3.5-1.6-5.3-1.9c-2.1-0.5-4.2-0.8-6.4-1v-6l33.8-2l1.4,1.3v74.4
			c-0.1,1.9,0.4,3.7,1.3,5.4c1,1.5,2.4,2.6,4.1,3.1c1.4,0.5,2.7,1,4.2,1.4c1.5,0.3,3,0.6,4.5,0.7L336.4,397z M324.2,268.7
			c0,3.4-1.3,6.7-3.6,9.2c-2.3,2.6-5.6,4.1-9,4c-3.3,0-6.4-1.4-8.6-3.8c-2.3-2.2-3.6-5.3-3.6-8.6c0-3.3,1.3-6.5,3.6-8.9
			c2.2-2.4,5.3-3.8,8.6-3.8c3.4-0.1,6.7,1.1,9.1,3.5C322.9,262.6,324.2,265.6,324.2,268.7L324.2,268.7z M439.5,395.4
			c-3.1,1-5.7,1.9-8,2.6c-2.6,0.7-5.2,1-7.9,1c-5.1,0-9.1-1.1-12.2-3.4c-3.1-2.5-5.2-6-5.8-9.9H405c-3.9,4.2-8.5,7.7-13.6,10.3
			c-4.8,2.4-10.7,3.5-17.5,3.5c-7.2,0-13.2-2.1-17.8-6.4s-7-9.8-7-16.6c0-3.2,0.5-6.5,1.6-9.5c1.1-2.8,2.7-5.4,4.7-7.6
			c1.8-2,4-3.7,6.5-5c2.4-1.4,4.9-2.5,7.5-3.5c2.9-1,8.9-3,17.8-5.9s15-5.1,18.1-6.7V329c-0.1-1.6-0.3-3.1-0.5-4.6
			c-0.4-2.3-1.1-4.5-2.3-6.5c-1.4-2.4-3.3-4.4-5.5-6c-2.4-1.7-5.7-2.6-10.1-2.6c-2.8,0-5.7,0.5-8.3,1.5c-2,0.6-3.9,1.6-5.4,3
			c0.1,1.9,0.4,3.7,0.9,5.5c0.6,2.2,0.9,4.5,0.9,6.7c-0.1,2.3-1.2,4.5-3.1,6c-2.1,1.8-4.9,2.7-8.6,2.7c-3.2,0-5.6-1.1-7.2-3.3
			c-1.5-2.2-2.3-4.8-2.3-7.4c0.1-3,1.2-5.9,3.2-8.2c2.3-2.8,5.1-5.2,8.3-7c3.3-1.9,6.9-3.4,10.6-4.5c4-1.2,8.1-1.8,12.2-1.8
			c4.8,0,9.6,0.3,14.4,1.1c4,0.7,7.8,2.3,11.1,4.6c3.4,2.3,6,5.6,7.6,9.4c1.7,4,2.6,9,2.6,15.3c0,8.9-0.1,16.8-0.3,23.7
			c-0.2,6.9-0.3,14.4-0.3,22.6c-0.5,5.2,3.4,9.9,8.6,10.3c0.5,0,0.9,0,1.4,0c2.1,0.1,4.3,0.1,6.5,0.1L439.5,395.4z M405.4,346.1
			c-5.5,1.6-10.4,3.1-14.6,4.6c-4.1,1.4-8,3.3-11.6,5.6c-3.1,1.9-5.7,4.5-7.8,7.5c-1.9,3.1-2.9,6.7-2.8,10.3c0,5.2,1.4,9,4.3,11.4
			c3,2.5,6.9,3.8,10.8,3.6c4.3,0.1,8.5-1,12.2-3.2c3.4-2,6.4-4.6,8.9-7.6L405.4,346.1z M555.5,397.1h-47.2v-6.1
			c1.5-0.1,3.2-0.3,4.9-0.4c1.5-0.1,3-0.3,4.5-0.8c1.6-0.5,3.1-1.5,4-2.9c1-1.7,1.4-3.5,1.3-5.5V334c0-6.5-1.6-11.6-4.8-15.1
			c-3-3.4-7.3-5.4-11.8-5.3c-3.2,0-6.5,0.5-9.5,1.5c-2.7,0.9-5.2,2.2-7.6,3.8c-2,1.3-3.7,2.8-5.1,4.6c-1,1.3-1.9,2.6-2.8,4v52.9
			c-0.1,1.8,0.4,3.7,1.4,5.2c1,1.5,2.4,2.6,4.1,3.2c1.4,0.6,2.9,1.1,4.4,1.4c1.6,0.3,3.3,0.5,4.9,0.7v6.1h-47.2v-6.1
			c1.5-0.1,3-0.3,4.6-0.4c1.4-0.1,2.8-0.4,4.2-0.8c1.6-0.4,3.1-1.5,4-2.9c1-1.6,1.4-3.5,1.3-5.5v-56.8c0-2-0.5-4-1.4-5.8
			c-0.9-1.8-2.3-3.3-3.9-4.4c-1.4-0.8-2.9-1.3-4.4-1.6c-1.8-0.4-3.6-0.6-5.5-0.7v-6l32.1-2.1l1.4,1.3v13h0.5
			c1.6-1.5,3.5-3.3,5.9-5.4c2.1-1.9,4.3-3.6,6.6-5.1c2.7-1.6,5.6-2.9,8.6-3.7c3.7-1,7.4-1.5,11.3-1.5c9.2,0,16.1,2.8,20.6,8.2
			s6.7,12.9,6.7,22v47.9c-0.1,1.8,0.3,3.7,1.2,5.3c0.9,1.5,2.3,2.6,4,3.1c1.3,0.5,2.6,1,4,1.3c1.6,0.3,3.1,0.5,4.7,0.6L555.5,397.1z
			 M612,399.5c-13.9,0-24.9-4.4-32.8-13.2c-7.9-8.8-11.8-20.7-11.8-35.5c0-6.2,1-12.3,3.2-18.2c2.1-5.6,5.3-10.8,9.2-15.4
			c4-4.5,9-8.2,14.5-10.7c6-2.8,12.4-4.1,19-4.1c9.5,0,17.2,2.2,23.1,6.5c5.8,4,9.1,10.7,8.9,17.7c0.1,2.9-0.8,5.8-2.3,8.2
			c-1.6,2.4-4.1,3.6-7.7,3.6c-3.8,0-6.8-0.9-8.9-2.8c-1.9-1.5-3.1-3.8-3.2-6.2c0-2.9,0.4-5.8,1.2-8.6c0.6-2.1,1.1-4.3,1.4-6.5
			c-1.2-1.9-3-3.3-5.2-3.9c-2.4-0.7-5-1-7.5-1c-3.1,0-6.1,0.7-8.9,1.9c-3.3,1.7-6.1,4.1-8.2,7c-2.8,3.8-4.8,8.1-5.9,12.6
			c-1.6,6.2-2.4,12.5-2.3,18.9c0,11.6,2.7,21,8.1,28.3c5.4,7.3,12.5,11,21.2,11c6.3,0,11.6-1.5,15.9-4.4c4.2-2.9,8.2-7.3,11.8-13.2
			l6.3,3.9c-4.1,7.2-10,13.2-17,17.5C627.3,397.2,619.7,399.4,612,399.5z M744,375.4c-3.8,7.2-9.4,13.2-16.2,17.6
			c-7,4.4-15.1,6.7-23.4,6.5c-7,0.1-14-1.2-20.4-4c-5.6-2.4-10.5-6-14.4-10.6c-3.8-4.6-6.7-9.9-8.5-15.7c-1.9-6.1-2.8-12.5-2.8-19
			c0-6,1-11.9,3-17.6c1.9-5.7,4.9-10.9,8.8-15.5c3.8-4.5,8.5-8.1,13.8-10.7c5.8-2.8,12.1-4.2,18.5-4.1c7,0,13.1,1,18.1,3.2
			c4.7,1.9,8.9,4.8,12.2,8.7c3.1,3.6,5.3,7.8,6.7,12.3c1.5,5,2.2,10.2,2.2,15.4v6.2h-63.8c-0.1,5.5,0.5,11,1.8,16.4
			c1.1,4.7,3,9.1,5.7,13c2.6,3.6,6,6.6,9.9,8.5c4.6,2.2,9.6,3.2,14.7,3.1c5.3,0.1,10.5-1.2,15-3.9c4.2-2.6,8.2-7.2,12.2-14
			L744,375.4z M722.4,340.3c0-3.8-0.3-7.5-0.9-11.2c-0.5-3.5-1.5-6.8-3-10c-1.5-2.8-3.6-5.2-6.2-7c-3-1.9-6.5-2.9-10.1-2.7
			c-6.6-0.1-13,2.9-17,8.1c-4.5,5.5-7,13-7.4,22.7L722.4,340.3z"/>
		<path class="st2" d="M27.2,513.7H0V511c0.8-0.1,1.9-0.1,3.3-0.2c1,0,2.1-0.2,3.1-0.5c0.8-0.3,1.5-0.7,2-1.4
			c0.5-0.7,0.7-1.6,0.6-2.4V467c0-0.8-0.1-1.5-0.5-2.2c-0.5-0.8-1.3-1.3-2.2-1.5c-1.1-0.4-2.1-0.6-3.2-0.9c-1-0.2-2.1-0.4-3.1-0.5
			v-2.7h27.2v2.7c-1.1,0-2.1,0.1-3.1,0.3c-1.1,0.1-2.1,0.3-3.2,0.6c-0.9,0.2-1.7,0.7-2.2,1.5c-0.4,0.7-0.6,1.5-0.5,2.3v39.5
			c0,0.8,0.2,1.6,0.6,2.2c0.5,0.7,1.2,1.3,2.1,1.6c1,0.3,1.9,0.5,2.9,0.7c1.1,0.2,2.3,0.4,3.4,0.4L27.2,513.7z M82,513.7H61.5v-2.5
			l2.1-0.2c0.7,0,1.3-0.1,2-0.3c0.7-0.2,1.3-0.6,1.8-1.2c0.4-0.7,0.6-1.5,0.6-2.2v-19.5c0.1-2.3-0.6-4.5-2.1-6.2
			c-1.3-1.4-3.2-2.2-5.1-2.2c-1.4,0-2.8,0.2-4.1,0.6c-1.2,0.4-2.3,0.9-3.3,1.6c-0.8,0.5-1.6,1.1-2.2,1.9c-0.4,0.5-0.8,1.1-1.2,1.6
			v21.8c-0.1,1.6,0.9,3,2.4,3.5c0.6,0.3,1.3,0.5,1.9,0.6c0.7,0.1,1.4,0.2,2.2,0.3v2.5H35.8v-2.5l2-0.2c0.6,0,1.2-0.1,1.8-0.3
			c0.7-0.2,1.3-0.6,1.8-1.2c0.4-0.7,0.6-1.5,0.6-2.2v-23.4c0-0.8-0.2-1.7-0.6-2.4c-0.4-0.7-1-1.3-1.7-1.8c-0.6-0.3-1.2-0.6-1.9-0.7
			c-0.8-0.1-1.6-0.2-2.4-0.3v-2.5l13.9-0.9l0.6,0.5v5.4H50c0.7-0.6,1.5-1.4,2.5-2.2c0.9-0.8,1.9-1.5,2.9-2.1
			c1.2-0.7,2.4-1.2,3.7-1.5c1.6-0.4,3.2-0.6,4.9-0.6c4,0,7,1.1,8.9,3.4s2.9,5.3,2.9,9.1V507c0,0.8,0.1,1.5,0.5,2.2
			c0.4,0.6,1,1.1,1.7,1.3c0.6,0.2,1.2,0.4,1.8,0.5c0.7,0.1,1.3,0.2,2,0.2L82,513.7z M135.1,513l-14.6,0.8l-0.6-0.5v-3.5l-0.3-0.1
			c-1.6,1.6-3.4,2.8-5.5,3.7c-2.1,0.9-4.4,1.4-6.7,1.4c-2.4,0-4.7-0.5-6.9-1.5c-2.2-0.9-4.2-2.3-5.8-4.1c-1.7-1.8-3.1-4-4-6.4
			c-1-2.6-1.5-5.4-1.5-8.2c0-2.7,0.5-5.3,1.6-7.8c1-2.4,2.5-4.6,4.3-6.5c1.8-1.8,4-3.2,6.3-4.1c2.4-1,5-1.5,7.7-1.5
			c1.9,0,3.9,0.2,5.8,0.7c1.7,0.4,3.3,1,4.9,1.7V464c0-1-0.2-2-0.6-2.9c-0.3-0.8-0.9-1.5-1.7-2c-1-0.6-2.1-0.9-3.2-1.1
			c-1.4-0.2-2.9-0.4-4.4-0.5v-2.4l17.1-0.9l0.6,0.6V506c0,0.8,0.2,1.6,0.6,2.3c0.4,0.7,1,1.2,1.7,1.6c0.7,0.4,1.5,0.6,2.3,0.6
			c1,0.1,1.9,0.1,2.8,0.2L135.1,513L135.1,513z M119.8,506.4v-22.2c-0.3-0.8-0.6-1.5-1.1-2.2c-0.5-0.8-1.2-1.5-1.9-2.1
			c-0.9-0.7-1.8-1.2-2.9-1.6c-1.2-0.4-2.5-0.7-3.8-0.6c-1.6,0-3.3,0.4-4.7,1.2c-1.5,0.9-2.8,2-3.8,3.4c-1.2,1.7-2,3.5-2.5,5.5
			c-0.6,2.4-0.9,4.9-0.9,7.4c0,2,0.2,3.9,0.7,5.8c0.4,1.8,1.2,3.4,2.3,4.9c1,1.4,2.3,2.6,3.8,3.5c1.7,0.9,3.6,1.4,5.5,1.3
			c2,0.1,3.9-0.4,5.6-1.4C117.4,508.5,118.7,507.5,119.8,506.4 M186.2,513l-13.6,0.8l-0.6-0.5v-4.8h-0.2c-0.7,0.6-1.4,1.3-2.3,2.1
			c-0.9,0.8-1.9,1.4-2.9,2c-1.2,0.7-2.4,1.2-3.7,1.6c-1.7,0.4-3.4,0.6-5.1,0.5c-3.7,0-6.5-1.1-8.5-3.3s-2.9-5.4-2.9-9.6v-18.1
			c0-0.8-0.2-1.6-0.6-2.3c-0.4-0.7-1-1.2-1.7-1.6c-0.6-0.3-1.2-0.6-1.9-0.7c-0.8-0.1-1.6-0.2-2.4-0.3v-2.5l14-0.9l0.6,0.5v26.4
			c0,2.8,0.7,4.8,2,6.2c1.3,1.3,3,2.1,4.9,2.1c1.4,0,2.8-0.2,4.1-0.7c1.1-0.4,2.1-0.9,3.1-1.5c0.7-0.5,1.4-1.1,2-1.7
			c0.5-0.5,1-1.1,1.3-1.7v-21.5c0-0.8-0.2-1.6-0.6-2.2c-0.4-0.7-1-1.3-1.6-1.7c-0.7-0.4-1.5-0.6-2.3-0.6l-3.4-0.2v-2.5l15.2-0.9
			l0.6,0.5V506c0,0.8,0.2,1.6,0.6,2.2c0.4,0.6,1,1.2,1.7,1.6c0.6,0.3,1.2,0.5,1.8,0.6c0.7,0.1,1.5,0.1,2.4,0.2L186.2,513z
			 M221.1,495.1c1.1,0.9,2,1.9,2.7,3.2c0.7,1.4,1,2.9,0.9,4.4c0.1,3.4-1.6,6.6-4.3,8.6c-2.9,2.2-6.7,3.3-11.3,3.3
			c-2.3,0-4.6-0.4-6.7-1.2c-1.6-0.5-3-1.3-4.4-2.2l-0.8,2.5h-3.2l-0.4-13.2h2.9c0.3,1.2,0.8,2.4,1.4,3.5c0.7,1.3,1.6,2.6,2.7,3.6
			c1.2,1.2,2.5,2.1,4,2.8c1.6,0.8,3.4,1.2,5.2,1.2c2.2,0.1,4.4-0.5,6.3-1.7c1.5-1.1,2.3-2.9,2.2-4.8c0-1-0.2-1.9-0.7-2.8
			c-0.5-0.8-1.2-1.5-2.1-2.1c-1.1-0.7-2.2-1.2-3.4-1.6c-1.4-0.5-2.9-0.9-4.5-1.4c-1.5-0.4-3-0.9-4.5-1.4c-1.5-0.5-2.9-1.3-4.2-2.2
			c-1.2-0.9-2.3-2-3.1-3.3c-0.8-1.4-1.2-3-1.2-4.6c0-3.1,1.4-6,3.8-7.9c2.5-2.2,6-3.2,10.2-3.2c1.7,0,3.4,0.2,5,0.6
			c1.4,0.3,2.8,0.8,4.2,1.4l1-2h3.1l0.6,12.2h-2.9c-0.5-2.6-1.9-4.9-3.9-6.6c-2-1.7-4.6-2.6-7.2-2.6c-2-0.1-3.9,0.4-5.5,1.6
			c-1.2,0.9-2,2.3-2,3.8c0,1,0.2,2,0.7,2.9c0.5,0.8,1.2,1.5,2,2c1,0.6,2.1,1.1,3.2,1.5c1.3,0.5,2.9,1,4.8,1.5
			c1.8,0.5,3.6,1.1,5.3,1.9C218.5,493.4,219.8,494.2,221.1,495.1 M259,512.1c-1.9,0.7-3.6,1.3-5.2,1.8c-2,0.5-4,0.8-6,0.7
			c-3.5,0-6-0.8-7.4-2.4s-2.1-3.9-2.1-6.8v-25.7h-7.6V476h7.7v-11.8h7.7V476h12v3.7h-12v21.2c0,1.3,0.1,2.7,0.2,4
			c0.1,1,0.4,1.9,0.9,2.8c0.5,0.8,1.2,1.4,2,1.7c1.2,0.4,2.4,0.6,3.7,0.6c0.7,0,1.8,0,3.1-0.2c1-0.1,2-0.2,2.9-0.5L259,512.1z
			 M297.3,480.7c0,1.2-0.4,2.5-1.1,3.5c-0.8,1-2,1.6-3.3,1.5c-1.3,0.1-2.6-0.3-3.6-1.1c-0.8-0.6-1.2-1.5-1.3-2.5
			c0-0.5,0.1-1,0.1-1.5c0.1-0.5,0.2-0.9,0.3-1.4c-1.7,0.1-3.3,0.6-4.7,1.5c-1.8,1-3.4,2.4-4.5,4.2v22.1c0,0.8,0.2,1.5,0.6,2.2
			c0.5,0.6,1.1,1.1,1.8,1.3c0.9,0.3,1.8,0.5,2.7,0.6c1.1,0.1,2.1,0.2,2.9,0.3v2.5h-22.1v-2.5l2-0.2c0.6,0,1.2-0.1,1.8-0.3
			c0.7-0.2,1.3-0.6,1.8-1.2c0.4-0.7,0.6-1.5,0.6-2.2v-23.4c0-0.8-0.2-1.6-0.6-2.4c-0.4-0.8-1-1.4-1.7-1.8c-0.6-0.3-1.2-0.6-1.9-0.7
			c-0.8-0.1-1.6-0.2-2.4-0.3v-2.5l13.9-0.9l0.6,0.5v5.4h0.2c1.6-2,3.6-3.6,5.9-4.7c1.8-1,3.8-1.5,5.9-1.6c1.6-0.1,3.2,0.5,4.4,1.6
			C296.8,477.6,297.4,479.1,297.3,480.7 M323.3,513.7h-20.2v-2.5l2-0.2c0.6,0,1.2-0.1,1.8-0.3c0.7-0.2,1.4-0.6,1.8-1.2
			c0.4-0.7,0.6-1.5,0.6-2.2v-23.4c0-0.8-0.2-1.6-0.6-2.2c-0.4-0.7-1-1.3-1.7-1.7c-0.7-0.4-1.5-0.7-2.3-0.8c-0.9-0.2-1.9-0.3-2.8-0.4
			v-2.5l14.8-0.9l0.6,0.5v30.9c0,0.8,0.2,1.6,0.6,2.2c0.4,0.6,1.1,1.1,1.8,1.3c0.6,0.2,1.2,0.4,1.8,0.6c0.7,0.1,1.3,0.2,2,0.3
			L323.3,513.7z M318,460.4c0,3-2.4,5.5-5.4,5.5c-1.4,0-2.8-0.6-3.9-1.6c-1-0.9-1.6-2.2-1.6-3.6c0-1.4,0.6-2.7,1.6-3.7
			c1-1,2.3-1.6,3.8-1.6c1.5-0.1,2.9,0.5,4,1.5C317.5,457.8,318,459.1,318,460.4 M367.8,504.8c-1.7,3-4.1,5.5-7,7.2
			c-3.1,1.8-6.6,2.8-10.1,2.7c-3,0.1-6-0.5-8.9-1.6c-2.4-1-4.5-2.5-6.3-4.4c-1.7-1.9-2.9-4.1-3.7-6.5c-0.8-2.5-1.2-5.2-1.2-7.8
			c0-2.5,0.4-4.9,1.3-7.3c0.9-2.4,2.2-4.5,3.8-6.4c1.7-1.9,3.7-3.4,6-4.4c2.5-1.1,5.3-1.7,8-1.7c2.7-0.1,5.3,0.4,7.9,1.3
			c3.9,1.5,7,4.7,8.2,8.7c0.7,2,1,4.2,1,6.3v2.5H339c0,2.3,0.2,4.6,0.8,6.8c0.5,1.9,1.3,3.7,2.5,5.4c1.1,1.5,2.6,2.7,4.3,3.5
			c2,0.9,4.2,1.3,6.4,1.3c2.3,0.1,4.5-0.5,6.5-1.6c2.2-1.5,4-3.4,5.3-5.8L367.8,504.8z M358.4,490.4c0-1.5-0.1-3.1-0.4-4.6
			c-0.2-1.4-0.6-2.8-1.3-4.1c-0.6-1.2-1.6-2.2-2.7-2.9c-1.3-0.8-2.8-1.2-4.4-1.1c-2.9-0.1-5.6,1.2-7.4,3.4c-2,2.2-3.1,5.4-3.2,9.4
			H358.4z M402.4,495.2c1.1,0.9,2,1.9,2.7,3.2c0.7,1.4,1,2.9,0.9,4.4c0.1,3.4-1.6,6.6-4.4,8.6c-2.9,2.2-6.7,3.3-11.3,3.3
			c-2.3,0-4.6-0.4-6.7-1.2c-1.6-0.5-3-1.3-4.4-2.2l-0.8,2.5h-3.2l-0.4-13.2h2.9c0.3,1.2,0.8,2.4,1.5,3.5c0.7,1.3,1.6,2.5,2.7,3.6
			c1.2,1.2,2.5,2.1,4,2.8c1.6,0.8,3.4,1.2,5.2,1.2c2.2,0.1,4.4-0.5,6.3-1.7c1.5-1.1,2.3-2.9,2.2-4.8c0-1-0.2-1.9-0.7-2.8
			c-0.5-0.8-1.2-1.5-2.1-2.1c-1.1-0.7-2.2-1.2-3.5-1.6c-1.4-0.5-2.9-0.9-4.5-1.4c-1.5-0.4-3-0.9-4.4-1.5c-1.5-0.5-2.9-1.3-4.2-2.2
			c-1.2-0.9-2.3-2-3-3.3c-0.8-1.4-1.2-3-1.2-4.6c0-3.1,1.4-6,3.8-7.9c2.6-2.2,6-3.2,10.2-3.2c1.7,0,3.4,0.2,5,0.6
			c1.4,0.3,2.9,0.8,4.2,1.4l1-2h3.1l0.6,12.2H401c-0.5-2.6-1.9-4.9-3.9-6.6c-2-1.7-4.6-2.6-7.2-2.6c-2-0.1-3.9,0.4-5.5,1.6
			c-1.2,0.9-2,2.3-2,3.8c-0.1,1,0.1,2,0.5,2.9c0.5,0.8,1.2,1.5,2,2c1,0.6,2.1,1.1,3.2,1.5c1.3,0.5,2.9,1,4.8,1.5
			c1.8,0.5,3.6,1.1,5.3,1.9C399.7,493.4,401.1,494.2,402.4,495.2 M482.8,497.5l-1.3,16.2h-47.1V511c0.7-0.1,1.7-0.1,3-0.3
			c0.9,0,1.8-0.2,2.7-0.5c0.8-0.3,1.4-0.8,1.8-1.5c0.4-0.7,0.6-1.6,0.6-2.5v-39.1c0-0.8-0.1-1.6-0.5-2.3c-0.4-0.8-1.1-1.3-1.9-1.6
			c-1.8-0.7-3.7-1.2-5.6-1.4v-2.7h25.4v2.7c-1,0.1-2.1,0.2-3.1,0.4c-0.9,0.2-1.8,0.4-2.7,0.6c-0.9,0.2-1.6,0.8-2,1.6
			c-0.3,0.7-0.5,1.6-0.5,2.4v36.7c0,1.3,0.1,2.6,0.3,3.9c0.1,0.9,0.6,1.6,1.3,2.2c0.9,0.5,1.9,0.8,2.9,0.9c1.8,0.2,3.6,0.2,5.4,0.2
			c1,0,2.1,0,3.3-0.1c1.1-0.1,2.2-0.2,3.2-0.3c0.9-0.1,1.8-0.4,2.7-0.6c0.7-0.2,1.3-0.5,1.8-1c1.5-1.7,2.9-3.4,4.1-5.4
			c1.2-1.8,2.3-3.8,3.2-5.8L482.8,497.5z M508.3,513.8H488v-2.6l2-0.2c0.6,0,1.2-0.1,1.8-0.3c0.7-0.2,1.3-0.6,1.8-1.2
			c0.4-0.7,0.6-1.5,0.6-2.2v-23.4c0-0.8-0.2-1.6-0.6-2.2c-0.4-0.7-1-1.3-1.7-1.7c-0.7-0.4-1.5-0.6-2.3-0.8c-0.9-0.2-1.9-0.3-2.8-0.4
			v-2.5l14.8-0.9l0.6,0.5v30.9c0,0.8,0.2,1.6,0.6,2.2c0.4,0.6,1.1,1.1,1.8,1.3c0.6,0.2,1.2,0.4,1.8,0.6c0.7,0.1,1.3,0.2,2,0.3
			L508.3,513.8z M502.9,460.4c0,3-2.4,5.5-5.4,5.5c-1.4,0-2.8-0.6-3.9-1.6c-1-0.9-1.6-2.2-1.6-3.6c0-1.4,0.6-2.7,1.6-3.7
			c1-1,2.3-1.6,3.8-1.6c1.5-0.1,2.9,0.5,4,1.5C502.4,457.9,502.9,459.1,502.9,460.4 M587.3,513.8h-20.5v-2.6l2-0.2
			c0.6,0,1.2-0.1,1.8-0.3c0.7-0.2,1.3-0.6,1.8-1.2c0.4-0.7,0.6-1.5,0.6-2.2v-19.6c0.2-2.2-0.6-4.5-2-6.2c-1.3-1.4-3.1-2.2-5-2.2
			c-1.3,0-2.6,0.2-3.9,0.6c-1.2,0.4-2.3,0.9-3.4,1.6c-0.8,0.5-1.4,1.1-2,1.8c-0.5,0.5-0.9,1.1-1.3,1.6v21.9c0,0.8,0.2,1.5,0.5,2.2
			c0.4,0.6,1,1.1,1.8,1.3c0.6,0.2,1.2,0.4,1.8,0.5c0.7,0.1,1.4,0.2,2.1,0.2v2.5h-20v-2.5l1.9-0.2c0.6,0,1.1-0.1,1.7-0.3
			c0.7-0.2,1.3-0.6,1.8-1.2c0.4-0.7,0.6-1.5,0.6-2.2v-19.6c0.2-2.2-0.6-4.5-2-6.2c-1.3-1.4-3.1-2.2-5-2.2c-1.3,0-2.6,0.2-3.9,0.6
			c-1.2,0.4-2.3,0.9-3.4,1.6c-0.8,0.5-1.5,1.2-2.1,1.9c-0.6,0.7-1,1.2-1.3,1.6v21.7c0,0.8,0.2,1.5,0.6,2.2c0.4,0.6,1.1,1.1,1.8,1.3
			c0.6,0.3,1.2,0.4,1.8,0.6c0.7,0.1,1.4,0.2,2.1,0.3v2.5h-20.5v-2.5l2-0.2c0.6,0,1.2-0.1,1.8-0.3c0.7-0.2,1.3-0.6,1.8-1.2
			c0.4-0.7,0.6-1.5,0.6-2.2v-23.6c0-0.8-0.2-1.6-0.6-2.2c-0.4-0.7-1-1.2-1.7-1.7c-0.6-0.3-1.3-0.6-2-0.8c-0.8-0.2-1.6-0.3-2.5-0.4
			v-2.5l14-0.8l0.6,0.5v5.4h0.3c0.7-0.6,1.6-1.4,2.6-2.3c0.9-0.8,1.8-1.5,2.8-2.1c1.2-0.7,2.4-1.2,3.7-1.5c1.6-0.4,3.2-0.6,4.8-0.6
			c2.5-0.1,4.9,0.6,7,2c1.8,1.2,3.3,2.8,4.2,4.8c1-0.9,1.9-1.7,2.7-2.4c1-0.8,2-1.5,3.1-2.2c1.2-0.7,2.5-1.3,3.8-1.6
			c1.6-0.4,3.2-0.6,4.9-0.6c3.1-0.2,6.2,1,8.4,3.1c2.1,2.1,3.1,5.3,3.1,9.7v19.3c0,0.8,0.1,1.5,0.5,2.2c0.4,0.6,1,1.1,1.7,1.3
			c0.6,0.2,1.3,0.4,1.9,0.5c0.7,0.1,1.4,0.2,2.2,0.2L587.3,513.8z M614.6,513.8h-20.3v-2.6l2-0.2c0.6,0,1.2-0.1,1.8-0.3
			c0.7-0.2,1.3-0.6,1.8-1.2c0.4-0.7,0.6-1.5,0.6-2.2v-23.4c0-0.8-0.2-1.6-0.6-2.2c-0.4-0.7-1-1.3-1.7-1.7c-0.7-0.4-1.5-0.6-2.3-0.8
			c-0.9-0.2-1.9-0.3-2.8-0.4v-2.5l14.8-0.9l0.6,0.5v30.9c0,0.8,0.2,1.6,0.6,2.2c0.4,0.6,1.1,1.1,1.8,1.3c0.6,0.2,1.2,0.4,1.8,0.6
			c0.7,0.1,1.3,0.2,2,0.3L614.6,513.8z M609.2,460.4c0,3-2.4,5.5-5.4,5.5c-1.4,0-2.8-0.6-3.9-1.6c-1-0.9-1.6-2.2-1.6-3.6
			c0-1.4,0.6-2.7,1.6-3.7c1-1,2.3-1.6,3.8-1.6c1.5-0.1,2.9,0.5,4,1.5C608.7,457.9,609.3,459.1,609.2,460.4 M647.7,512.1
			c-1.8,0.7-3.6,1.3-5.2,1.8c-2,0.5-4,0.8-6,0.7c-3.5,0-6-0.8-7.4-2.4c-1.5-1.9-2.3-4.3-2.1-6.8v-25.7h-7.6V476h7.6v-11.8h7.8V476
			h12v3.7h-11.9v21.2c0,1.3,0.1,2.7,0.2,4c0.1,1,0.4,1.9,0.9,2.8c0.5,0.8,1.2,1.4,2,1.7c1.2,0.4,2.4,0.6,3.7,0.6
			c0.7,0,1.8,0,3.1-0.2c1,0,2-0.2,2.9-0.5L647.7,512.1z M691.2,504.8c-1.7,3-4.1,5.4-7,7.2c-3.1,1.8-6.6,2.7-10.2,2.7
			c-3,0.1-6-0.5-8.9-1.6c-2.4-1-4.5-2.5-6.3-4.4c-1.7-1.9-2.9-4.1-3.7-6.5c-0.8-2.5-1.2-5.2-1.2-7.8c0-2.5,0.4-4.9,1.3-7.3
			c0.9-2.4,2.2-4.5,3.8-6.4c1.7-1.9,3.7-3.4,6-4.4c2.5-1.1,5.2-1.7,8-1.7c2.7-0.1,5.4,0.3,7.9,1.3c2,0.8,3.8,2,5.3,3.6
			c1.3,1.5,2.3,3.2,2.9,5.1c0.7,2,1,4.2,1,6.3v2.5h-27.8c0,2.3,0.2,4.6,0.8,6.8c0.5,1.9,1.3,3.7,2.5,5.4c1.1,1.5,2.6,2.7,4.3,3.5
			c2,0.9,4.2,1.3,6.4,1.3c2.3,0.1,4.5-0.5,6.5-1.6c2.2-1.5,4-3.4,5.3-5.8L691.2,504.8z M681.8,490.4c0-1.5-0.1-3.1-0.4-4.6
			c-0.2-1.4-0.6-2.8-1.3-4.1c-0.6-1.2-1.6-2.2-2.7-2.9c-1.3-0.8-2.8-1.2-4.4-1.1c-2.9-0.1-5.6,1.2-7.5,3.3c-2,2.2-3,5.4-3.2,9.4
			L681.8,490.4z M744,513l-14.6,0.8l-0.6-0.5v-3.5l-0.3-0.1c-1.6,1.6-3.4,2.8-5.5,3.7c-2.1,0.9-4.4,1.4-6.7,1.4
			c-4.8,0-9.4-2-12.7-5.5c-1.7-1.8-3.1-4-4-6.4c-1-2.6-1.5-5.4-1.5-8.2c0-2.7,0.5-5.3,1.6-7.8c1-2.4,2.5-4.6,4.3-6.5
			c1.8-1.8,4-3.2,6.3-4.1c2.4-1,5-1.5,7.7-1.5c1.9,0,3.9,0.2,5.8,0.7c1.7,0.4,3.3,1,4.8,1.7V464c0-1-0.2-2.1-0.6-3
			c-0.3-0.8-0.9-1.5-1.7-2c-1-0.6-2.1-0.9-3.2-1.1c-1.4-0.2-2.9-0.4-4.3-0.5v-2.4l17.1-0.9l0.6,0.6v51.1c0,0.8,0.2,1.6,0.6,2.3
			c0.4,0.7,1,1.2,1.7,1.6c0.7,0.4,1.5,0.6,2.3,0.6c1,0.1,1.9,0.1,2.8,0.2L744,513L744,513z M728.7,506.3v-22.1
			c-0.3-0.8-0.6-1.5-1.1-2.2c-0.5-0.8-1.2-1.5-1.9-2.1c-1.9-1.5-4.3-2.3-6.8-2.2c-1.6,0-3.3,0.4-4.7,1.2c-1.5,0.9-2.8,2-3.8,3.4
			c-1.2,1.7-2,3.5-2.5,5.5c-0.6,2.4-0.9,4.9-0.9,7.4c0,2,0.2,3.9,0.7,5.9c0.5,1.8,1.2,3.4,2.3,4.9c1,1.4,2.3,2.6,3.8,3.5
			c1.7,0.9,3.6,1.4,5.5,1.3c2,0.1,3.9-0.4,5.6-1.4C726.3,508.5,727.6,507.5,728.7,506.3"/>
		<text transform="matrix(1.01 0 0 1 165.2998 622.3398)" class="st2 st3 st4">Growth is Life</text>
		<rect x="11.5" y="544.3" class="st2" width="721" height="2.7"/>
	</g>
</g>
</svg>
