<?xml version="1.0" encoding="utf-8"?>
<!-- Generator: Adobe Illustrator 24.3.0, SVG Export Plug-In . SVG Version: 6.00 Build 0)  -->
<svg version="1.1" id="Layer_1" xmlns="http://www.w3.org/2000/svg" xmlns:xlink="http://www.w3.org/1999/xlink" x="0px" y="0px"
	 viewBox="0 0 139 72" style="enable-background:new 0 0 139 72;" xml:space="preserve">
<style type="text/css">
	.st0{fill:#C51E6D;}
	.st1{font-family:'AcherusGrotesque-Regular';}
	.st2{font-size:8.52px;}
	.st3{letter-spacing:4;}
	.st4{fill:#5E6FAF;}
</style>
<g>
	<path class="st0" d="M19.1,56.7c-0.1,0.4-0.1,0.8,0,1.2c0.3,1,0.6,2,1,2.9c0.5,1.2,1.4,2.3,2.5,3.1c0.5,0.4,1,0.6,1.5,0.8l2.3,0.7
		c0.2,0.1,0.4,0.2,0.6,0.3c0.2,0.1,0.3,0.4,0.2,0.6c0,0.1-0.1,0.1-0.1,0.2c-0.1,0.1-0.3,0.3-0.5,0.4c-0.7,0.4-1.4,0.6-2.1,0.8
		c-0.8,0.1-1.5,0.2-2.3,0.2c-0.8,0-1.6,0-2.4,0c-0.7,0-1.5-0.1-2.2-0.2c-0.1,0-0.3,0-0.4,0c-0.7,0-1.3-0.1-2-0.2l-0.7-0.1
		c-0.4,0-0.7,0.2-0.9,0.5c0,0.1,0,0.1,0,0.2c0,0.4-0.2,0.7-0.6,0.8c-0.3,0.1-0.6,0.2-0.9,0.1c-0.8-0.1-1.5-0.2-2.2-0.5
		C8.9,68,8,67.6,7.2,67.2c-0.2-0.2-0.4-0.4-0.5-0.6c-0.1-0.1,0.1-0.4,0.2-0.5C7,66,7.2,65.9,7.4,65.9c0.4-0.1,0.9-0.2,1.3-0.3
		c1.4-0.2,2.7-0.8,3.7-1.7c0.7-0.6,1.4-1.3,2-2.1c1.5-1.8,2.5-4.1,2.8-6.5c0.3-1.8,0.3-3.5,0.1-5.3c-0.2-1.5-0.4-3.1-0.5-4.6
		c-0.1-0.8-0.2-1.7-0.3-2.6c-0.1-1-0.1-2,0-3c0,0,0,0,0-0.1c0-1.2,0.1-2.4,0.4-3.6c0-0.1,0-0.2,0-0.4c0-0.7-0.5-1.4-1.2-1.5
		c-0.5-0.1-0.9-0.2-1.4-0.3c-0.6-0.1-1.2-0.2-1.7-0.4c-0.3-0.1-0.6-0.2-0.9-0.3c-0.1,0-0.2-0.1-0.3-0.2C11,33,10.9,32.6,11,32.3
		c0.1-0.4,0.3-0.8,0.4-1.2c0.6-1.2,1.2-2.3,1.8-3.5c0.3-0.5,0.7-1,1.2-1.5l0.3-0.3c0.4-0.4,0.6-1,0.4-1.6c0,0,0-0.1,0-0.1
		c-0.1-0.5-0.5-0.8-1-0.9c-0.1,0-0.3-0.1-0.4-0.2c-0.3-0.1-0.5-0.3-0.8-0.5c-0.4-0.2-0.6-0.6-0.6-1c-0.1-0.4-0.1-0.9-0.1-1.3
		c0-0.2,0.1-0.4,0.3-0.6c0.1-0.1,0.2-0.2,0.2-0.3c0.1-0.2,0.2-0.4-0.1-0.6c0.2,0,0.4-0.1,0.5-0.3l-0.3-0.2L12.8,18
		c0.1,0,0.2,0,0.2-0.1s0.1-0.1,0.2,0L13,17.1c0.1,0,0.1,0,0.2,0c0.1,0,0.1-0.1,0.1-0.2c0.1,0.1,0.2,0.1,0.3,0.2
		c0.2,0.1,0.2-0.1,0.3-0.2c0.1,0.2,0.3,0.3,0.5,0.2c0.1,0,0.1,0,0.2,0.1c0.1,0,0.2,0.1,0.3,0.2s-0.2,0.2-0.1,0.4s-0.2,0.2,0,0.4
		l0.2-0.2l-0.1-0.2c0.2,0,0.3,0,0.3,0.2l0.2-0.1l0.2,0.2c-0.2,0.1,0,0.3-0.1,0.5l0.6-0.3c0.1,0.1,0.1,0.2,0.1,0.2
		c0.1,0.1,0.1,0.2,0.2,0.3c0.1,0.1,0.2,0.3,0.2,0.5c0,0.2,0,0.3,0.2,0.5c0.1,0.1,0.2,0.3,0.3,0.4c0,0.1,0.1,0.1,0.2,0.2
		c0.1,0.1,0.2,0.1,0.4,0.2c0.1,0.1,0.2,0.1,0.1,0.3c-0.1,0.1-0.1,0.2,0,0.3c0.1,0.3,0.2,0.6,0.3,0.9s0,0.3-0.1,0.4s-0.4,0.4-0.6,0.6
		c-0.3,0.3-0.3,0.7,0,1c0,0,0,0,0.1,0c0.1,0.1,0.3,0.1,0.4,0c0.3-0.2,0.6-0.5,0.8-0.9c0.1-0.2,0.2-0.4,0.3-0.6
		c0.2-0.3,0.4-0.7,0.6-1c0.3-0.4,0.5-0.8,0.6-1.2c0.1-0.3,0.2-0.6,0.3-0.9c0-0.2,0.1-0.4,0.1-0.6c0.1-1.2,0.1-2.5,0.2-3.7
		c0-0.5,0.1-0.9,0.2-1.4c0.1-0.5,0.2-0.9,0.2-1.4c0-0.2,0-0.4,0.2-0.6l0.5-0.8c0.1-0.1,0.2-0.2,0.2-0.2c0,0.2-0.1,0.5-0.1,0.7
		c0.1,0,0.2,0,0.3-0.1l0.1-0.2c0.2-0.4,0.7-0.7,1.2-0.6c-0.1,0.1-0.1,0.3-0.2,0.4c-0.3,0.5-0.6,1-0.9,1.5c-0.1,0.2-0.3,0.4-0.5,0.6
		c-0.1,0.1-0.1,0.3-0.1,0.4c0.1,1.3,0.1,2.5,0.2,3.8c0,0.4,0.1,0.7,0.2,1.1c0.1,0.5,0.1,1-0.1,1.4c-0.4,1.7-1,3.4-1.8,5
		c-0.2,0.4-0.2,0.9,0,1.3c0,0.1,0,0.1,0.1,0.2c-0.2,0-0.5,0-0.6,0.2s-0.3,0.3-0.4,0.6c0.3-0.2,0.5-0.3,0.8-0.5
		c0.3-0.3,0.8-0.2,1.1,0.1c0.1,0.1,0.1,0.2,0.2,0.3c0.1,0.3,0.2,0.6,0.2,0.9c0.1,1.1,0.1,2.1,0,3.2c-0.1,0.7,0,1.5,0.2,2.2
		c0,0.2,0.1,0.4,0.2,0.6c0.1,0.3,0.3,0.6,0.4,0.9c0.4,0.9,0.7,1.9,0.9,2.8c0.3,1.9,0.4,3.8,0.2,5.7c-0.1,1.6-0.4,3.2-0.7,4.8
		c-0.2,1.1-0.3,2.1-0.5,3.2c-0.1,0.6-0.3,1.3-0.5,1.9c-0.2,1-0.5,1.9-0.7,2.9c-0.2,1-0.2,2.1,0,3.2c0.2,1.3,1.1,2.5,2.2,3.1
		c0.3,0.2,0.7,0.3,1,0.4c1.2,0.4,2.4,0.7,3.6,1.1c0.7,0.2,1.3,0.5,1.9,0.9c0.3,0.2,0.5,0.4,0.7,0.7c0.5,0.5,0.5,1.3,0,1.8
		c-0.4,0.5-0.9,1-1.5,1.3c-0.4,0.2-0.7,0.3-1.1,0.5c-1.3,0.5-2.7,0.9-4.1,1c-1.2,0.1-2.5,0.2-3.7,0.3c-1.5,0.1-3.1,0.1-4.6,0.1
		c-1.6-0.1-3.2-0.2-4.8-0.5c-1.1-0.2-2.1-0.5-3.2-0.7c-0.8-0.2-1.5-0.5-2.1-0.9c-0.4-0.2-0.7-0.6-0.9-1.1c-0.3-0.7,0-1.5,0.6-1.9
		c0.5-0.4,1.1-0.7,1.8-0.9c1-0.3,1.9-0.7,2.9-1c0.8-0.2,1.6-0.4,2.4-0.5c0.2,0,0.3,0,0.5,0.1c0,0-0.1,0-0.1,0c-1,0.2-2,0.5-3,0.9
		c-0.7,0.2-1.4,0.5-2.1,0.8c-0.5,0.2-0.9,0.6-1.2,1c-0.2,0.3-0.2,0.7-0.1,1c0.1,0.3,0.3,0.6,0.6,0.8c0.8,0.7,1.7,1.2,2.7,1.3
		c1.2,0.3,2.4,0.5,3.6,0.6c1.3,0.2,2.6,0.2,3.9,0.3c1.8,0,3.5-0.1,5.2-0.3c1.7-0.2,3.4-0.6,5.1-1.1c0.5-0.1,1-0.4,1.4-0.8
		c0.3-0.2,0.5-0.5,0.6-0.8c0.1-0.2,0.1-0.5,0-0.7c-0.2-0.4-0.6-0.8-1-1c-0.6-0.3-1.3-0.6-2-0.9c-0.2-0.1-0.4-0.1-0.6-0.2
		c-0.9-0.2-1.8-0.6-2.7-1c-1-0.6-1.9-1.4-2.4-2.4c-0.6-1-1-2.1-1.2-3.2L19.1,56.7z M13,32c0.2,0.1,0.4,0.2,0.6,0.3
		c1,0.3,1.9,0.7,2.8,1.2c0.1,0.1,0.3,0.1,0.5,0.1c0.2,0,0.4-0.1,0.4-0.4c0,0,0,0,0-0.1c0-0.1,0-0.1,0-0.2c-0.1-0.8-0.6-1.5-1.2-2
		c-0.3-0.3-0.7-0.7-1-1c-0.1-0.1-0.1-0.1-0.2-0.2c-0.2-0.2-0.4-0.2-0.6,0c0,0-0.1,0.1-0.1,0.1c-0.1,0.1-0.1,0.2-0.2,0.3
		c-0.2,0.4-0.4,0.8-0.6,1.2C13.3,31.5,13.2,31.7,13,32z M16.6,28L16.6,28c0.1,0,0.1-0.1,0.2-0.1c0.3-0.3,0.6-0.4,1-0.5
		c0.3-0.1,0.5-0.1,0.8-0.2c0.1,0,0.1-0.1,0.1-0.1c-0.4-0.1-0.8-0.1-1.2,0c-0.3,0-0.6,0.2-0.8,0.5C16.8,27.7,16.7,27.8,16.6,28z
		 M13.5,18.1h0.4l0.2-0.3c0.1,0.1,0.2,0.2,0,0.3l0.2,0.2l0.2-0.2L14.2,18l0.1-0.1h0.1l0.1-0.3l-0.2-0.2l-0.2,0.1
		c-0.1,0-0.1,0.1-0.1,0.2c-0.2,0-0.1-0.3-0.3-0.4c0,0.2,0.2,0.5-0.1,0.6L13.5,18.1z M14.1,18.8l-0.4,0.6l-0.2-0.2l-0.3,0.3l0.3,0.1
		c0.1,0.1,0,0.2,0.1,0.3C14,19.6,14.1,19.2,14.1,18.8L14.1,18.8z M13.2,18.6l0.2,0.3h0.4l0.1-0.3l-0.4-0.2
		C13.6,18.7,13.4,18.6,13.2,18.6L13.2,18.6z M13.4,20.6v-0.3l-0.3,0.1v0.4L13.4,20.6z M13.2,19.7L13,19.5c-0.1,0.1-0.2,0.1-0.1,0.3
		L13.2,19.7z M13.4,19.8c-0.2,0.1-0.2,0.2-0.1,0.3l0.3-0.1L13.4,19.8z M13.2,21.1c0-0.2-0.1-0.2-0.2-0.2S12.9,21,12.9,21
		s0.1,0.1,0.1,0.1C13.1,21.1,13.2,21.1,13.2,21.1L13.2,21.1z"/>
	<path class="st0" d="M25.2,0.1c-3.5,0.7-6.7,2.4-9.3,4.8c-2,1.8-3.8,3.8-5.3,6c-2.1,2.9-3.8,6-5.2,9.2c-0.9,2.1-1.7,4.3-2.3,6.5
		c-0.4,1.4-0.6,2.9-0.6,4.3c-0.1,2,0.4,4,1.4,5.7c0.5,0.9,1.3,1.7,2.2,2.3c0.8,0.5,1.7,0.7,2.6,0.8c1,0,1.9-0.1,2.9-0.4l1.6-0.5
		c0.1,0,0.1,0,0.2,0L13,39.1c-1.1,0.6-2.3,1-3.5,1.2c-1.3,0.2-2.5,0.2-3.8,0c-1.6-0.4-3-1.3-3.9-2.7c-0.8-1.2-1.4-2.5-1.6-3.9
		c-0.3-1.9-0.3-3.8,0-5.6c0.5-2.5,1.3-4.9,2.3-7.2c1.2-3,2.8-5.8,4.6-8.4c2.8-4,6.4-7.4,10.6-10c1.3-0.8,2.6-1.5,4-2
		c1-0.3,2-0.5,3-0.6L25.2,0.1L25.2,0.1z"/>
	<path class="st0" d="M25.4,2.7c1.8-0.7,3.9-0.4,5.5,0.8c0.9,0.7,1.5,1.7,1.8,2.8c0.4,1.3,0.5,2.6,0.4,3.9c-0.1,1.4-0.4,2.8-0.8,4.1
		c0,0.1-0.1,0.2-0.2,0.3c0.1-0.6,0.1-1.2,0.2-1.8c0.2-1.3,0.2-2.7,0-4.1c-0.1-1.2-0.5-2.3-1.1-3.3c-0.5-0.9-1.3-1.6-2.3-2
		C28,3.2,27,2.9,26,2.9h-0.6C25.5,2.9,25.5,2.8,25.4,2.7z"/>
	<path class="st0" d="M23.5,9.1l-1.2-0.9l-1.3,1c0.1-0.5,0.4-1,0.5-1.4l-1.2-0.8c0.5,0,1,0,1.5,0l0.4-1.5h0l0.4,1.5l1.4-0.1v0.1
		c-0.4,0.3-0.8,0.6-1.2,0.8L23.5,9.1L23.5,9.1z"/>
	<path class="st0" d="M16.9,10.5L16.2,11h0l0.2-0.8L16.1,10l-0.3-0.2V9.7h0.8L16.9,9h0.1l0.2,0.8h0.9v0.1l-0.7,0.4l0.3,0.8l0,0
		L16.9,10.5z"/>
	<path class="st0" d="M26.2,12.3h0.6l0.2-0.7l0.2,0.7h0.7v0.1l-0.5,0.4l0.2,0.5l0,0L27,12.9l-0.5,0.4c0-0.1,0-0.2,0.1-0.3
		c0.1-0.2,0-0.4-0.1-0.5c0,0,0,0,0,0C26.3,12.5,26.2,12.4,26.2,12.3L26.2,12.3z"/>
	<path class="st0" d="M26.8,8.4l-0.4-0.3l-0.4,0.3L26.2,8l-0.5-0.3h0.6l0.2-0.5l0.2,0.5h0.5v0.1L26.8,8L26.8,8.4L26.8,8.4z"/>
	<path class="st0" d="M18.5,11.9l0.5-0.1l-0.4,0.4l0.1,0.5l-0.4-0.3l-0.4,0.3l0.1-0.5l-0.4-0.3l0.5,0.1l0.2-0.6L18.5,11.9z"/>
	<path class="st0" d="M35.6,43.2l-4.4-0.4l1.7-1.9l-2.1,1.6l-0.4-4.2h-0.1L30,42.5l-2-1.6l1.7,1.9l-4.4,0.4l4.4,0.4l-1.7,2l2-1.6
		l0.4,4.1h0.1l0.4-4.1l2.1,1.6l-1.7-2L35.6,43.2z"/>
	<text transform="matrix(1 0 0 1 36.9 69.07)" class="st0 st1 st2 st3">BANGLA</text>
	<text transform="matrix(1 0 0 1 98.2 69.07)" class="st0 st1 st2 st3">D</text>
	<text transform="matrix(1 0 0 1 108.87 69.07)" class="st0 st1 st2 st3">ESH</text>
	<path class="st0" d="M51.2,34.2c0-3,0-5.9,0.1-7.5h-0.1c-0.6,2.1-3.8,9.7-5.7,14.6h-1.2c-1.5-3.8-4.7-12.3-5.5-14.6l0,0
		c0.1,1.8,0.2,5.4,0.2,8v6.6h-1.2V25.9h1.8c2.1,5.3,4.8,12.3,5.4,14l0,0c0.4-1.1,3.5-8.9,5.6-14h1.8v15.5h-1.2V34.2z"/>
	<path class="st0" d="M58.7,25.9v15.5h-1.2V25.9H58.7z"/>
	<path class="st0" d="M63.6,37.2c0.5,2.1,1.8,3.3,4.4,3.3c2.8,0,3.9-1.4,3.9-3.1s-0.8-2.8-4.2-3.7S63,31.8,63,29.6
		c0-2,1.5-3.9,4.8-3.9s4.8,2.1,5,4h-1.2c-0.3-1.7-1.4-2.9-3.9-2.9c-2.2,0-3.4,1-3.4,2.8s1,2.4,3.9,3.1c4.4,1.1,5,2.8,5,4.7
		c0,2.3-1.7,4.3-5.2,4.3c-3.9,0-5.3-2.3-5.6-4.3L63.6,37.2z"/>
	<path class="st0" d="M77.2,37.2c0.5,2.1,1.8,3.3,4.4,3.3c2.8,0,3.9-1.4,3.9-3.1s-0.8-2.8-4.2-3.7s-4.7-1.9-4.7-4.1
		c0-2,1.5-3.9,4.8-3.9s4.8,2.1,5.1,4h-1.2c-0.3-1.7-1.4-2.9-3.9-2.9c-2.2,0-3.5,1-3.5,2.8s1,2.4,3.9,3.1c4.4,1.1,5,2.8,5,4.7
		c0,2.3-1.7,4.3-5.2,4.3c-3.9,0-5.3-2.3-5.6-4.3L77.2,37.2z"/>
	<path class="st0" d="M39,45.2v9.4c0,4.1,2.3,5.2,4.5,5.2c2.6,0,4.5-1.1,4.5-5.2v-9.4h1.2v9.3c0,4.8-2.6,6.4-5.8,6.4
		s-5.7-1.7-5.7-6.2v-9.5H39z"/>
	<path class="st0" d="M52.8,60.7V45.2h1.8c2.4,3.7,8.1,12.4,9.1,14.1l0,0c-0.1-2.2-0.1-4.5-0.1-7v-7h1.2v15.4h-1.6
		c-2.3-3.6-8.1-12.6-9.2-14.3l0,0c0.1,2,0.1,4.3,0.1,7.1v7.2H52.8z"/>
	<path class="st0" d="M69.7,45.2v15.5h-1.2V45.2H69.7z"/>
	<path class="st0" d="M77.2,60.7l-5.8-15.5h1.3l3,8.1c0.9,2.3,1.8,4.9,2.2,6.2l0,0c0.3-1.2,1.4-3.9,2.3-6.2l3.1-8.2h1.3l-6,15.5
		L77.2,60.7z"/>
	<path class="st0" d="M95.6,53h-7.9v6.5h8.7l-0.2,1.1h-9.7V45.2H96v1.1h-8.3v5.7h7.9L95.6,53z"/>
	<path class="st0" d="M99.8,53.4v7.2h-1.2V45.2h5.6c3.1,0,4.7,1.6,4.7,4.1c0.1,1.8-1.2,3.3-2.9,3.6c1.6,0.4,2.7,1.4,2.7,4v0.6
		c-0.1,1.1,0,2.1,0.2,3.2h-1.2c-0.2-1.1-0.3-2.2-0.2-3.2V57c0-2.5-0.8-3.6-3.7-3.6L99.8,53.4z M99.8,52.3h3.7c2.7,0,4-1,4-3.1
		s-1.2-3-3.7-3h-4.1V52.3z"/>
	<path class="st0" d="M111.9,56.5c0.5,2.1,1.8,3.3,4.4,3.3c2.8,0,3.9-1.4,3.9-3.1s-0.8-2.8-4.2-3.7s-4.7-1.9-4.7-4.1
		c0-2,1.5-3.9,4.8-3.9s4.8,2.1,5,4h-1.2c-0.4-1.7-1.4-2.9-3.9-2.9c-2.2,0-3.4,1-3.4,2.8s1,2.4,3.9,3.1c4.4,1.1,5,2.8,5,4.7
		c0,2.3-1.7,4.3-5.2,4.3c-3.9,0-5.3-2.3-5.6-4.3L111.9,56.5z"/>
	<path class="st0" d="M133.2,53h-7.9v6.5h8.7l-0.2,1.1h-9.7V45.2h9.5v1.1h-8.3v5.7h7.9L133.2,53z"/>
	<path class="st0" d="M31,67.6c0.6,0,1.1,0.5,1.1,1.1c0,0,0,0,0,0c0,0.6-0.5,1.1-1.1,1.1c-0.6,0-1.1-0.5-1.1-1.1
		C29.9,68.1,30.4,67.6,31,67.6C31,67.6,31,67.6,31,67.6z M30.1,68.7c0,0.5,0.4,0.9,0.9,0.9c0,0,0,0,0,0c0.5,0,0.9-0.4,0.9-0.9
		c0-0.5-0.4-0.9-0.9-0.9c0,0,0,0,0,0C30.6,67.8,30.1,68.2,30.1,68.7C30.1,68.7,30.1,68.7,30.1,68.7z"/>
	<path class="st0" d="M30.8,68.8v0.5h-0.2v-1.1h0.4c0.2,0,0.4,0.1,0.4,0.3c0,0.1-0.1,0.2-0.2,0.2c0.1,0,0.2,0.1,0.2,0.3l0,0
		c0,0.1,0,0.1,0,0.2h-0.1c0-0.1,0-0.2,0-0.2l0,0c0-0.2,0-0.2-0.2-0.2L30.8,68.8z M30.8,68.7h0.2c0.2,0,0.2-0.1,0.2-0.2
		s-0.1-0.2-0.2-0.2h-0.2V68.7z"/>
	<g>
		<polygon class="st4" points="129.9,12.7 133.5,7.9 130.2,7.9 126.7,12.6 126.8,7.9 124.2,9.7 124.2,18.9 126.7,18.9 126.7,13.2 
			130.7,18.9 133.8,18.9 		"/>
		<polygon class="st4" points="120,14.5 115.1,7.9 112.6,10.1 112.6,18.9 115.2,18.9 115.2,12.1 120.4,18.9 122.7,18.9 122.7,7.9 
			120.1,9.9 		"/>
		<polygon class="st4" points="101.1,15.4 101.1,18.7 108.5,12.1 108.5,15.7 105.9,15.7 103.5,18.1 108.5,18.1 108.5,18.9 
			111.1,18.9 111.1,7.9 109.5,7.9 		"/>
		<polygon class="st4" points="79.4,15.4 79.4,18.7 86.8,12.1 86.8,15.7 84.3,15.7 81.9,18.1 86.8,18.1 86.8,18.9 89.4,18.9 
			89.4,7.9 87.9,7.9 		"/>
		<path class="st4" d="M98.7,13.4c1.8-1.3,1.5-4.1-1.9-5.3l-2.4-0.2L91,10.3v8.6h2.6v-8.7c1.3-0.1,2.3,0,2.9,0.3
			c1.3,1.1,0.2,2.2-2,2.8c1,0.3,1.9,0.8,2.4,1.5c0.9,1.6-0.3,2-2.5,1.8v2.3c2.2,0.1,4-0.3,5.2-1.7C100.6,15.5,100.1,14.3,98.7,13.4z
			"/>
		<path class="st4" d="M77.9,12.5c0.5-1.5-0.5-3.1-1.5-3.8c-0.7-0.5-1.5-0.7-1.9-0.8c-0.8-0.2-1.5-0.1-2,0c-1.1,0.8-2.1,1.6-3.2,2.5
			v8.6h2.6l0.1-8.8c1.9-0.4,3.3,0.5,3.4,1.3c0.1,0.7-0.9,1.8-2.4,2.2c1.7,1.8,3.4,3.5,5,5.3v-3.4L76.5,14
			C76.9,13.8,77.6,13.3,77.9,12.5z"/>
		<path class="st4" d="M62.1,7.9c-3.2,0-5.8,2.5-5.8,5.5s2.6,5.5,5.8,5.5c3.2,0,5.8-2.5,5.8-5.5S65.3,7.9,62.1,7.9z M62.1,16.6
			c-1.8,0-3.3-1.4-3.3-3.2s1.5-3.2,3.3-3.2c1.8,0,3.3,1.4,3.3,3.2S63.9,16.6,62.1,16.6z"/>
		<polygon class="st4" points="50.1,7.7 47.5,9.7 47.5,18.9 54.7,18.9 54.7,16.6 50.1,16.6 		"/>
		<polygon class="st4" points="44.9,10.2 48,7.9 40.9,7.9 37.8,10.3 37.8,18.9 40.3,18.9 40.3,14.6 44.9,14.6 44.9,12.2 40.3,12.2 
			40.3,10.2 		"/>
	</g>
</g>
</svg>
