<svg xmlns="http://www.w3.org/2000/svg" viewBox="0 0 429.88 72"><defs><style>.cls-1,.cls-2{fill:#b49b57;}.cls-2{isolation:isolate;font-size:14.88px;font-family:AcherusGrotesque-Regular, Acherus Grotesque;letter-spacing:0.3em;}.cls-3{letter-spacing:0.3em;}.cls-4{letter-spacing:0.3em;}.cls-5{letter-spacing:0.23em;}</style></defs><g id="Layer_2" data-name="Layer 2"><g id="svg4403"><path class="cls-1" d="M39.87,40.55H35.81V8.13l-15,17.67h-2L3.84,8.13V40.55H0V1H2.93L20.16,21.37,37.39,1h2.93V40.55Z"/><path class="cls-1" d="M47.7,40.55V1h4.06V40.55Z"/><path class="cls-1" d="M86.22,11l-4.29.91c-.9-4.89-4.67-8-10.08-8-4.89,0-8.5,2.71-8.5,7.14,0,3.84,2.48,5.12,6,6.25l8.73,2.93c5.34,1.58,8.5,4.67,8.5,10.08,0,6.7-5.56,11.21-13.61,11.21s-14.3-4.28-15.2-11.66l4.44-.9c.67,5.79,5.11,9,11.21,9,5.56,0,9.18-2.93,9.18-7.37,0-3.39-1.81-5.12-6-6.47l-8.28-2.48c-4.66-1.58-9.4-4.07-9.4-10.31,0-6.7,5.11-11,13-11S84.86,4.51,86.22,11Z"/><path class="cls-1" d="M119.32,11l-4.29.91c-.9-4.89-4.66-8-10.08-8-4.89,0-8.5,2.71-8.5,7.14,0,3.84,2.48,5.12,6,6.25l8.72,2.93c5.35,1.58,8.51,4.67,8.51,10.08,0,6.7-5.57,11.21-13.62,11.21s-14.3-4.28-15.2-11.66l4.44-.9c.68,5.79,5.12,9,11.21,9,5.57,0,9.18-2.93,9.18-7.37,0-3.39-1.81-5.12-6-6.47l-8.28-2.48c-4.66-1.36-9.17-3.84-9.17-10.08,0-6.7,5.11-11,13-11C112.85.3,118,4.51,119.32,11Z"/><path class="cls-1" d="M204.33,23.1c0,10.75-6.69,17.9-16.55,17.9s-16.55-7.15-16.55-17.9V.75h4.06V23.1c0,8.5,4.89,14.07,12.57,14.07,7.37,0,12.33-5.57,12.33-14.07V.75h4.07Z"/><path class="cls-1" d="M245.94,40.32h-3.16L214.56,8.13V40.32H210.5V.75h2.94l28.21,32.43V.75h4.06Z"/><path class="cls-1" d="M252.48,40.32V.75h4.06V40.32Z"/><path class="cls-1" d="M280.62,40.32h-2.94L259.33.75h4.44L279,33.63,294.16.75h4.44Z"/><path class="cls-1" d="M328.54,40.32H301.68V.75h26.64V4.59H305.75v13H327v3.84H305.75v15.2h22.57v3.84h.22Z"/><path class="cls-1" d="M364.35,40.32,346,21.29h-8.51v19h-4.06V.75h14.3c7.14,0,12.11,4.06,12.11,10.31,0,5.12-3.39,9-8.95,10.08L369.47,40.4h-5.12ZM347.8,17.53c4.67,0,8.05-2.71,8.05-6.47,0-4.06-3.16-6.47-8.05-6.47H337.72V17.75Z"/><path class="cls-1" d="M397.91,10.76l-4.29.9c-.9-4.89-4.67-8-10.08-8-4.89,0-8.5,2.71-8.5,7.15,0,3.84,2.48,5.11,6,6.24l8.73,2.71c5.34,1.58,8.5,4.67,8.5,10.08,0,6.7-5.56,11.21-13.61,11.21s-14.3-4.29-15.2-11.66l4.44-.9c.67,5.79,5.11,9,11.21,9,5.56,0,9.18-2.93,9.18-7.37,0-3.39-1.81-5.12-6-6.47L380,21.07c-4.66-1.36-9.18-3.84-9.18-10.09,0-6.69,5.12-11,13-11C391.44.08,396.55,4.29,397.91,10.76Z"/><path class="cls-1" d="M429.88,40.32H403V.75h26.63V4.59H407.08v13h21.3v3.84h-21.3v15.2h22.57v3.84h.23Z"/><path class="cls-1" d="M164.31,21.74l-15.65-1.58,6-7.14-7.37,6L146,3.16h-.22L144.37,19,137,13l6,7.14-15.88,1.58L143,23.32l-6,7.37,7.37-6,1.36,15.64H146l1.36-15.64,7.37,6-6-7.37Z"/><text class="cls-2" transform="translate(69.64 66.88)">C<tspan class="cls-3" x="15.2" y="0">O</tspan><tspan x="31.76" y="0">NFI</tspan><tspan class="cls-4" x="70.37" y="0">D</tspan><tspan x="86.08" y="0">ENT</tspan><tspan class="cls-5" x="129.66" y="0">L</tspan><tspan x="141.58" y="0">Y BEAUTIFUL</tspan></text></g></g></svg>