<svg xmlns="http://www.w3.org/2000/svg" viewBox="0 0 1821.8 1753.49"><defs><style>.cls-1{fill:none;}.cls-2{fill:#fff;}.cls-3{fill:#ee3224;}.cls-4{fill:#ffd200;stroke:#ee3224;stroke-miterlimit:40;stroke-width:0;}</style></defs><g id="Layer_2" data-name="Layer 2"><g id="Layer_1-2" data-name="Layer 1"><path class="cls-1" d="M567,455.45A36.44,36.44,0,0,1,574,434l18.08-24.86v-168l135.74-17L828.48,85.82a193.48,193.48,0,0,1,127.18,10.7l-247.73,245,294-238.18a193.58,193.58,0,0,1,98.59,59.49L732.05,376.31l403.44-189.17a193.55,193.55,0,0,1,68.61,97.53L746.69,415.21,1223,319.83A193.33,193.33,0,0,1,1246.77,436L751.5,455.45h580.7C1332.2,204,1128.15,0,876.74,0a455.44,455.44,0,0,0-91.09,9.2l-102,140.18L512.38,170.79V401.93l-9.7,13.33a68.36,68.36,0,0,0-13.07,40.19Z"/><path class="cls-1" d="M567,1298a36.44,36.44,0,0,0,7,21.43l18.08,24.85v168l135.74,17,100.65,138.37A193.66,193.66,0,0,0,955.66,1657L707.93,1412l294,238.17a193.56,193.56,0,0,0,98.59-59.48l-368.51-213.5,403.44,189.18a193.55,193.55,0,0,0,68.61-97.53L746.69,1338.28,1223,1433.66a193.36,193.36,0,0,0,23.81-116.19L751.5,1298h580.7c0,251.41-204,455.45-455.46,455.45a456.17,456.17,0,0,1-91.09-9.2l-102-140.18-171.31-21.42V1351.56l-9.7-13.34A68.31,68.31,0,0,1,489.61,1298Z"/><path class="cls-1" d="M455.45,1220.61a36.44,36.44,0,0,1-21.43-7l-24.86-18.08h-168l-17-135.75L85.82,959.16A193.45,193.45,0,0,1,96.52,832l245,247.72-238.18-294a193.58,193.58,0,0,1,59.49-98.59l213.49,368.5L187.14,652.16a193.49,193.49,0,0,1,97.53-68.61L415.21,1041,319.83,564.69A193.33,193.33,0,0,1,436,540.88l19.44,495.27V455.45C204,455.45,0,659.49,0,910.9A455.29,455.29,0,0,0,9.2,1002l140.18,102,21.41,171.3H401.93l13.33,9.71A68.36,68.36,0,0,0,455.45,1298Z"/><path class="cls-1" d="M1366.35,1220.61a36.44,36.44,0,0,0,21.44-7l24.85-18.08h168l17-135.75L1736,959.16A193.56,193.56,0,0,0,1725.28,832l-245,247.72,238.18-294A193.56,193.56,0,0,0,1659,687.09l-213.5,368.5,189.17-403.43a193.42,193.42,0,0,0-97.52-68.61L1406.59,1041,1502,564.69a193.36,193.36,0,0,0-116.19-23.81l-19.44,495.27V455.45c251.41,0,455.45,204,455.45,455.45a455.29,455.29,0,0,1-9.2,91.09l-140.18,102L1651,1275.26H1419.88l-13.34,9.71a68.36,68.36,0,0,1-40.19,13.07Z"/><path class="cls-2" d="M1367.23,718.15A495.32,495.32,0,0,0,425.63,1010l3.09,15.15L567.45,1126l23.64,189.07H844.42l2.87,2.09a108.14,108.14,0,0,0,127.23,0l2.86-2.09h253.34L1254.36,1126l138.72-100.91,3.1-15.15a495.91,495.91,0,0,0-29-291.81Z"/><path class="cls-3" d="M857.38,1275.26H626.25L604.83,1104,464.65,1002a455.29,455.29,0,0,1-9.2-91.09c0-251.41,204-455.45,455.45-455.45s455.45,204,455.45,455.45a455.29,455.29,0,0,1-9.2,91.09L1217,1104l-21.41,171.3H964.43L951.09,1285a68.33,68.33,0,0,1-80.38,0Z"/><path class="cls-4" d="M864.61,1195.56h-168l-17-135.75L541.27,959.16A193.45,193.45,0,0,1,552,832l245,247.72-238.18-294a193.58,193.58,0,0,1,59.49-98.59l213.49,368.5L642.59,652.15a193.53,193.53,0,0,1,97.53-68.6L870.66,1041,775.28,564.69a193.33,193.33,0,0,1,116.18-23.81l19.44,495.27,19.44-495.27a193.36,193.36,0,0,1,116.19,23.81L951.14,1041l130.55-457.41a193.46,193.46,0,0,1,97.52,68.6L990,1055.59l213.49-368.5A193.58,193.58,0,0,1,1263,785.68l-238.18,294,245-247.72a193.56,193.56,0,0,1,10.71,127.17l-138.37,100.65-17,135.75h-168l-24.85,18.08a36.44,36.44,0,0,1-42.87,0Z"/></g></g></svg>