<?xml version="1.0" encoding="utf-8"?>
<!-- Generator: Adobe Illustrator 24.3.0, SVG Export Plug-In . SVG Version: 6.00 Build 0)  -->
<svg version="1.1" id="Layer_1" xmlns="http://www.w3.org/2000/svg" xmlns:xlink="http://www.w3.org/1999/xlink" x="0px" y="0px"
	 viewBox="0 0 418.6 117.1" style="enable-background:new 0 0 418.6 117.1;" xml:space="preserve">
<style type="text/css">
	.st0{fill-rule:evenodd;clip-rule:evenodd;fill:#DB031D;}
	.st1{fill:#FFFFFF;}
</style>
<g id="Layer_2_1_">
	<g id="Layer_1-2">
		<path class="st0" d="M5.7,0c3.1,0,5.7,2.5,5.7,5.7s-2.5,5.7-5.7,5.7S0,8.8,0,5.7c0,0,0,0,0,0C0,2.5,2.5,0,5.7,0z M18.9,0
			c3.1,0,5.7,2.5,5.7,5.7s-2.5,5.7-5.7,5.7s-5.7-2.5-5.7-5.7S15.7,0,18.9,0C18.9,0,18.9,0,18.9,0z M32.1,0c3.1,0,5.7,2.5,5.7,5.7
			s-2.5,5.7-5.7,5.7s-5.7-2.5-5.7-5.7S28.9,0,32.1,0C32.1,0,32.1,0,32.1,0z M45.3,0C48.4,0,51,2.5,51,5.7s-2.5,5.7-5.7,5.7
			c-3.1,0-5.7-2.5-5.7-5.7c0,0,0,0,0,0C39.6,2.5,42.1,0,45.3,0z M58.5,0c3.1,0,5.7,2.5,5.7,5.7s-2.5,5.7-5.7,5.7
			c-3.1,0-5.7-2.5-5.7-5.7c0,0,0,0,0,0C52.8,2.6,55.3,0,58.5,0C58.5,0,58.5,0,58.5,0z M71.7,0c3.1,0,5.7,2.5,5.7,5.7
			s-2.5,5.7-5.7,5.7c-3.1,0-5.7-2.5-5.7-5.7c0,0,0,0,0,0C66,2.6,68.5,0,71.7,0z M84.8,0c3.1,0,5.7,2.5,5.7,5.7
			c0,3.1-2.5,5.7-5.7,5.7c-3.1,0-5.7-2.5-5.7-5.7S81.7,0,84.8,0C84.8,0,84.8,0,84.8,0z M98,0c3.1,0,5.7,2.5,5.7,5.7
			c0,3.1-2.5,5.7-5.7,5.7c-3.1,0-5.7-2.5-5.7-5.7S94.9,0,98,0C98,0,98.1,0,98,0z M5.7,13.2c3.1,0,5.7,2.5,5.7,5.7s-2.5,5.7-5.7,5.7
			S0,22,0,18.9c0,0,0,0,0,0C0,15.8,2.5,13.2,5.7,13.2C5.7,13.2,5.7,13.2,5.7,13.2z M58.5,13.2c3.1,0,5.7,2.5,5.7,5.7
			c0,3.1-2.5,5.7-5.7,5.7c-3.1,0-5.7-2.5-5.7-5.7v0C52.8,15.8,55.3,13.2,58.5,13.2C58.5,13.2,58.5,13.2,58.5,13.2z M71.7,13.2
			c3.1,0,5.7,2.5,5.7,5.7s-2.5,5.7-5.7,5.7S66,22.1,66,18.9c0,0,0,0,0,0C66,15.8,68.5,13.2,71.7,13.2L71.7,13.2L71.7,13.2z
			 M84.8,13.2c3.1,0,5.7,2.5,5.7,5.7c0,3.1-2.5,5.7-5.7,5.7c-3.1,0-5.7-2.5-5.7-5.7S81.7,13.2,84.8,13.2
			C84.8,13.2,84.8,13.2,84.8,13.2z M98,13.2c3.1,0,5.7,2.5,5.7,5.7c0,3.1-2.5,5.7-5.7,5.7c-3.1,0-5.7-2.5-5.7-5.7S94.9,13.2,98,13.2
			C98,13.2,98,13.2,98,13.2z M5.7,26.4c3.1,0,5.7,2.5,5.7,5.7c0,3.1-2.5,5.7-5.7,5.7S0,35.3,0,32.1c0,0,0,0,0,0
			C0,29,2.5,26.4,5.7,26.4C5.7,26.4,5.7,26.4,5.7,26.4z M18.9,26.4c3.1,0,5.7,2.5,5.7,5.7c0,3.1-2.5,5.7-5.7,5.7s-5.7-2.5-5.7-5.7
			l0,0C13.2,29,15.7,26.4,18.9,26.4C18.9,26.4,18.9,26.4,18.9,26.4z M71.7,26.4c3.1,0,5.7,2.5,5.7,5.7s-2.5,5.7-5.7,5.7
			S66,35.3,66,32.1c0,0,0,0,0,0C66,29,68.5,26.4,71.7,26.4L71.7,26.4L71.7,26.4z M84.8,26.4c3.1,0,5.7,2.5,5.7,5.7
			c0,3.1-2.5,5.7-5.7,5.7c-3.1,0-5.7-2.5-5.7-5.7S81.7,26.4,84.8,26.4C84.8,26.4,84.8,26.4,84.8,26.4z M98,26.4
			c3.1,0,5.7,2.5,5.7,5.7c0,3.1-2.5,5.7-5.7,5.7c-3.1,0-5.7-2.5-5.7-5.7S94.9,26.4,98,26.4C98,26.4,98,26.4,98,26.4z M5.7,39.6
			c3.1,0,5.7,2.5,5.7,5.7c0,3.1-2.5,5.7-5.7,5.7S0,48.5,0,45.3C0,42.2,2.5,39.6,5.7,39.6z M18.9,39.6c3.1,0,5.7,2.5,5.7,5.7
			c0,3.1-2.5,5.7-5.7,5.7s-5.7-2.5-5.7-5.7l0,0C13.2,42.2,15.7,39.6,18.9,39.6z M32.1,39.6c3.1,0,5.7,2.5,5.7,5.7
			c0,3.1-2.5,5.7-5.7,5.7s-5.7-2.5-5.7-5.7l0,0C26.4,42.2,28.9,39.6,32.1,39.6z M84.8,39.6c3.1,0,5.7,2.5,5.7,5.7
			c0,3.1-2.5,5.7-5.7,5.7c-3.1,0-5.7-2.5-5.7-5.7S81.7,39.6,84.8,39.6L84.8,39.6z M98,39.6c3.1,0,5.7,2.5,5.7,5.7
			c0,3.1-2.5,5.7-5.7,5.7c-3.1,0-5.7-2.5-5.7-5.7S94.9,39.6,98,39.6L98,39.6z M5.7,52.9c3.1,0,5.7,2.5,5.7,5.7
			c0,3.1-2.5,5.7-5.7,5.7S0,61.7,0,58.5c0,0,0,0,0,0C0,55.4,2.5,52.9,5.7,52.9z M18.9,52.9c3.1,0,5.7,2.5,5.7,5.7
			c0,3.1-2.5,5.7-5.7,5.7s-5.7-2.5-5.7-5.7l0,0C13.2,55.4,15.7,52.9,18.9,52.9C18.9,52.9,18.9,52.9,18.9,52.9z M32.1,52.9
			c3.1,0,5.7,2.5,5.7,5.7c0,3.1-2.5,5.7-5.7,5.7s-5.7-2.5-5.7-5.7l0,0C26.4,55.4,28.9,52.9,32.1,52.9z M45.3,52.9
			c3.1,0,5.7,2.5,5.7,5.7s-2.5,5.7-5.7,5.7c-3.1,0-5.7-2.5-5.7-5.7v0C39.6,55.4,42.1,52.9,45.3,52.9z M98,52.9
			c3.1,0,5.7,2.5,5.7,5.7c0,3.1-2.5,5.7-5.7,5.7c-3.1,0-5.7-2.5-5.7-5.7S94.9,52.9,98,52.9L98,52.9z M5.7,66.1
			c3.1,0,5.7,2.5,5.7,5.7s-2.5,5.7-5.7,5.7S0,74.9,0,71.8C0,68.6,2.5,66.1,5.7,66.1C5.7,66.1,5.7,66.1,5.7,66.1z M18.9,66.1
			c3.1,0,5.7,2.5,5.7,5.7s-2.5,5.7-5.7,5.7s-5.7-2.5-5.7-5.7S15.7,66.1,18.9,66.1L18.9,66.1z M32.1,66.1c3.1,0,5.7,2.5,5.7,5.7
			s-2.5,5.7-5.7,5.7s-5.7-2.5-5.7-5.7S28.9,66.1,32.1,66.1C32.1,66.1,32.1,66.1,32.1,66.1z M84.8,66.1c3.1,0,5.7,2.5,5.7,5.7
			c0,3.1-2.5,5.7-5.7,5.7c-3.1,0-5.7-2.5-5.7-5.7S81.7,66.1,84.8,66.1C84.8,66.1,84.8,66.1,84.8,66.1z M98,66.1
			c3.1,0,5.7,2.5,5.7,5.7c0,3.1-2.5,5.7-5.7,5.7c-3.1,0-5.7-2.5-5.7-5.7S94.9,66.1,98,66.1C98,66.1,98,66.1,98,66.1z M5.7,79.3
			c3.1,0,5.7,2.5,5.7,5.7c0,3.1-2.5,5.7-5.7,5.7C2.6,90.7,0,88.1,0,85C0,81.9,2.5,79.3,5.7,79.3C5.7,79.3,5.7,79.3,5.7,79.3
			L5.7,79.3z M18.9,79.3c3.1,0,5.7,2.5,5.7,5.7c0,3.1-2.5,5.7-5.7,5.7c-3.1,0-5.7-2.5-5.7-5.7C13.2,81.9,15.7,79.3,18.9,79.3
			L18.9,79.3L18.9,79.3z M71.7,79.3c3.1,0,5.7,2.5,5.7,5.7c0,3.1-2.5,5.7-5.7,5.7c-3.1,0-5.7-2.5-5.7-5.7
			C66,81.9,68.5,79.3,71.7,79.3C71.7,79.3,71.7,79.3,71.7,79.3L71.7,79.3z M84.8,79.3c3.1,0,5.7,2.5,5.7,5.7c0,3.1-2.5,5.7-5.7,5.7
			c-3.1,0-5.7-2.5-5.7-5.7C79.2,81.9,81.7,79.3,84.8,79.3C84.9,79.3,84.9,79.3,84.8,79.3L84.8,79.3z M98,79.3c3.1,0,5.7,2.5,5.7,5.7
			c0,3.1-2.5,5.7-5.7,5.7c-3.1,0-5.7-2.5-5.7-5.7C92.4,81.9,94.9,79.3,98,79.3C98.1,79.3,98.1,79.3,98,79.3L98,79.3z M5.7,92.5
			c3.1,0,5.7,2.5,5.7,5.7s-2.5,5.7-5.7,5.7S0,101.3,0,98.2C0,95,2.5,92.5,5.7,92.5C5.7,92.5,5.7,92.5,5.7,92.5z M58.5,92.5
			c3.1,0,5.7,2.5,5.7,5.7c0,3.1-2.5,5.7-5.7,5.7c-3.1,0-5.7-2.5-5.7-5.7C52.8,95.1,55.3,92.5,58.5,92.5
			C58.5,92.5,58.5,92.5,58.5,92.5z M71.7,92.5c3.1,0,5.7,2.5,5.7,5.7s-2.5,5.7-5.7,5.7s-5.7-2.5-5.7-5.7c0,0,0,0,0,0
			C66,95,68.5,92.5,71.7,92.5C71.7,92.5,71.7,92.5,71.7,92.5L71.7,92.5z M84.8,92.5c3.1,0,5.7,2.5,5.7,5.7c0,3.1-2.5,5.7-5.7,5.7
			c-3.1,0-5.7-2.5-5.7-5.7S81.7,92.5,84.8,92.5C84.8,92.5,84.8,92.5,84.8,92.5z M98,92.5c3.1,0,5.7,2.5,5.7,5.7
			c0,3.1-2.5,5.7-5.7,5.7c-3.1,0-5.7-2.5-5.7-5.7S94.9,92.5,98,92.5C98,92.5,98,92.5,98,92.5z M5.7,105.7c3.1,0,5.7,2.5,5.7,5.7
			s-2.5,5.7-5.7,5.7S0,114.5,0,111.4C0,108.3,2.5,105.7,5.7,105.7C5.7,105.7,5.7,105.7,5.7,105.7z M18.9,105.7
			c3.1,0,5.7,2.5,5.7,5.7s-2.5,5.7-5.7,5.7s-5.7-2.5-5.7-5.7S15.7,105.7,18.9,105.7L18.9,105.7z M32.1,105.7c3.1,0,5.7,2.5,5.7,5.7
			s-2.5,5.7-5.7,5.7s-5.7-2.5-5.7-5.7S28.9,105.7,32.1,105.7C32.1,105.7,32.1,105.7,32.1,105.7z M45.3,105.7c3.1,0,5.7,2.5,5.7,5.7
			c0,3.1-2.5,5.7-5.7,5.7c-3.1,0-5.7-2.5-5.7-5.7S42.1,105.7,45.3,105.7L45.3,105.7z M58.5,105.7c3.1,0,5.7,2.5,5.7,5.7
			c0,3.1-2.5,5.7-5.7,5.7c-3.1,0-5.7-2.5-5.7-5.7C52.8,108.3,55.3,105.7,58.5,105.7C58.5,105.7,58.5,105.7,58.5,105.7z M71.7,105.7
			c3.1,0,5.7,2.5,5.7,5.7s-2.5,5.7-5.7,5.7s-5.7-2.5-5.7-5.7c0,0,0,0,0,0C66,108.3,68.5,105.7,71.7,105.7
			C71.7,105.7,71.7,105.7,71.7,105.7L71.7,105.7z M84.8,105.7c3.1,0,5.7,2.5,5.7,5.7c0,3.1-2.5,5.7-5.7,5.7c-3.1,0-5.7-2.5-5.7-5.7
			S81.7,105.7,84.8,105.7C84.8,105.7,84.8,105.7,84.8,105.7z M98,105.7c3.1,0,5.7,2.5,5.7,5.7c0,3.1-2.5,5.7-5.7,5.7
			c-3.1,0-5.7-2.5-5.7-5.7S94.9,105.7,98,105.7C98,105.7,98,105.7,98,105.7z"/>
		<path class="st1" d="M299.6,58.7c0-9.5,0-19,0-28.4c0-1.7-0.6-4,2.4-3.9c10.5,0.3,21-1.2,31.3,1.2c17.1,4,26.5,16,25.9,32.3
			c-0.6,15.5-12.3,27.6-28.9,30c-9.3,1.4-18.6,0.5-27.9,0.8c-2.8,0.1-2.8-1.6-2.8-3.6C299.7,77.7,299.7,68.2,299.6,58.7z
			 M312.2,58.3c0,5.6,0,11.3,0,16.9c0,1.5-0.2,3,2.1,3c6.1-0.1,12.3,0.6,18.3-1.2c8.6-2.6,13.8-9.2,14.3-17.7
			c0.4-8.8-3.5-14.8-12.1-18.6c-6.2-2.7-12.7-1.7-19.1-2c-3-0.2-3.5,1.1-3.5,3.7C312.3,47.7,312.2,53,312.2,58.3z"/>
		<path class="st1" d="M377.4,58.8c0,8.9,0,16.5,0,24.1c0,5.1-2.3,8.1-6.3,7.7c-4.5-0.4-6-3.3-5.9-7.6c0.1-17.5,0.1-35,0-52.4
			c0-3.4,1-4.2,4.2-4.2c9.3,0.2,18.6,0,28,0.1c11,0.2,19.1,6.3,20.8,15.8c2,11.6-2.5,21.7-12.7,25.2c-0.4,0.1-0.8,0.6-1.4,1.1
			c3.2,3.4,6.4,6.8,9.6,10.2c3.7,4,4.2,7.1,1.3,9.9c-3.1,3-6.2,2.6-10.2-1.7c-8.2-8.5-16.3-17.1-24.5-25.7
			C379.6,60.8,378.9,60.2,377.4,58.8z M389.2,57.2c2.6,0,5.3,0.1,8,0c6.4-0.3,9.1-3.1,9.1-9.3c0-5.4-3.7-9-9.6-9.1
			c-4.1-0.1-8.3-0.1-12.4,0c-8.1,0.1-6.9-1-6.9,6.8C377.3,57.2,377.4,57.2,389.2,57.2z"/>
		<path class="st1" d="M249.2,58.1c0-9.2,0.1-18.3-0.1-27.5c-0.1-3.1,0.5-4.4,4-4.3c10.8,0.2,21.6,0,32.5,0.1c5.6,0,8.4,2.2,8.3,6.3
			s-2.9,6-8.7,6c-5.3,0-10.7-0.2-16,0.1c-3.3,0.2-8.1-2.5-8,4.8s5.1,4.1,8.3,4.7c2.4,0.4,5,0,7.5,0.1c3.8,0.2,6.4,1.8,6.5,6
			s-2.5,6-6.3,6.3c-4,0.2-8,0.2-12,0c-2.6-0.1-3.8,0.5-3.9,3.5c-0.5,13.9-0.6,13.9,13.3,13.9c4.3,0,8.6-0.1,13,0.1
			c3.9,0.2,6.3,2.4,6.2,6.4c-0.1,3.8-2.6,5.8-6.2,5.9c-12,0.1-24,0-35.9,0.1c-3,0-2.5-1.9-2.5-3.7C249.2,77.4,249.2,67.7,249.2,58.1
			z"/>
		<path class="st1" d="M126.9,59.8c0.3-14,4.1-24.4,15.7-29.8c12.2-5.7,24.5-5.2,36.1,2.2c1.3,0.8,2.4,1.8,3.4,2.9
			c2.3,2.5,2.8,5.3,0.4,8s-5.6,3.2-8.4,0.7c-6.5-5.9-14-6.4-22-4.8c-5.6,0.9-10.1,4.9-11.8,10.3c-3.4,9.8-1,19.7,6.3,25.4
			c7,5.5,17.5,5.3,26-0.6c3.2-2.2,6.2-2.4,8.8,0.8c2.8,3.5,1.4,6.6-1.8,8.9c-11.1,8-23.3,9-35.4,3.2
			C132.3,81.5,126.9,71.1,126.9,59.8z"/>
		<path class="st1" d="M202.2,58.8c0,8.9,0,16.5,0,24.1c0,5.1-2.3,8.1-6.3,7.7c-4.5-0.4-6-3.3-5.9-7.6c0.1-17.5,0.1-35,0-52.4
			c0-3.4,1-4.2,4.2-4.2c9.3,0.2,18.6,0,28,0.1c11,0.2,19.1,6.3,20.8,15.8c2,11.6-2.5,21.7-12.7,25.2c-0.4,0.1-0.8,0.6-1.4,1.1
			c3.2,3.4,6.4,6.8,9.6,10.2c3.7,4,4.2,7.1,1.3,9.9c-3.1,3-6.2,2.6-10.3-1.7c-8.2-8.5-16.3-17.1-24.4-25.7
			C204.4,60.8,203.7,60.2,202.2,58.8z M214,57.2c2.6,0,5.3,0.1,8,0c6.4-0.3,9.1-3.1,9.1-9.3c0-5.4-3.7-9-9.6-9.1
			c-4.1-0.1-8.3-0.1-12.4,0c-8.1,0.1-6.9-1-6.9,6.8C202.1,57.2,202.2,57.2,214,57.2z"/>
	</g>
</g>
</svg>
