<?xml version="1.0" encoding="utf-8"?>
<!-- Generator: Adobe Illustrator 24.3.0, SVG Export Plug-In . SVG Version: 6.00 Build 0)  -->
<svg version="1.1" id="Layer_1" xmlns="http://www.w3.org/2000/svg" xmlns:xlink="http://www.w3.org/1999/xlink" x="0px" y="0px"
	 viewBox="0 0 2500 486" style="enable-background:new 0 0 2500 486;" xml:space="preserve">
<style type="text/css">
	.st0{fill:none;}
	.st1{fill:#D52B1E;}
	.st2{fill:#FFFFFF;}
</style>
<path class="st0" d="M0,0.2h2500v485.6H0V0.2z"/>
<path class="st1" d="M145.5,75.4C82.3,117,16.1,145.2,3.8,150.3l311.9,218.5c0.3,0.2,0.5,0.6,0.5,1v0c0,0.4-0.2,0.8-0.5,1l-13.9,9.2
	c-0.4,0.3-0.9,0.3-1.3,0l-113.9-78.4c-43.5-29.4-91.4-23.1-124-12.7c-31.3,10-54.3,25.3-60,29.2c2.7,1.9,235.6,164.7,237.2,165.8
	c5-4.7,39.1-35.9,110.9-80.1c75.6-46.6,120.2-62.9,130.5-66.3L168.7,118.5c-0.3-0.2-0.5-0.6-0.5-1v0c0-0.4,0.2-0.8,0.5-1l13.3-8.8
	c0.4-0.3,0.9-0.3,1.3,0c0.4,0.3,42.3,27.8,117.6,80.8c70.6,49.7,169.1-9.9,182.7-18.5c-2.9-2-239.5-166.8-241-167.9
	C236.8,7.2,193.1,44,145.5,75.4z"/>
<path class="st2" d="M1314.4,111.9v69.6h155.3c0.7,0,1.2,0.5,1.2,1.2c0,0.3-0.1,0.6-0.4,0.9l-161.6,150.9v58.7h326.5v-69.9h-162.5
	c-0.5,0-0.9-0.3-1.1-0.8c-0.2-0.5-0.1-1,0.3-1.3c0,0,163.1-149.8,163.9-150.5v-58.8C1633.6,111.9,1316.7,111.9,1314.4,111.9
	L1314.4,111.9z M1183.6,111.9v178.7c0,26.1-22.9,41.7-61.3,41.7c-38.9,0-61.3-15.4-61.3-42.4V111.9H960.8v183.7
	c0,39.1,10,63.5,32.3,79.4c24.4,17.3,65.5,25.4,129.2,25.4c63.7,0,104.8-8.1,129.2-25.4c22.3-15.8,32.3-40.3,32.3-79.4V111.9
	C1283.8,111.9,1183.6,111.9,1183.6,111.9z M1888,111.9v177.9c0,26.6-22.9,42.4-61.3,42.4c-39,0-61.3-15.4-61.3-42.4V111.9h-100.2
	v183.7c0,39.1,10,63.5,32.3,79.4c24.4,17.3,65.5,25.4,129.2,25.4c63.7,0,104.8-8.1,129.2-25.4c22.3-15.8,32.3-40.3,32.3-79.4V111.9
	H1888z M2393.6,111.9v281.2h104.7V111.9H2393.6z M2237.7,111.9c-0.7,0.6-113.5,97.6-113.5,97.6c-0.4,0.3-0.9,0.4-1.3,0.2
	c-0.4-0.2-0.7-0.6-0.7-1.1v-96.7h-104.7v281.2h104.7v-99.4c0-0.5,0.3-0.9,0.7-1.1c0.4-0.2,0.9-0.1,1.3,0.2
	c0,0,104.7,99.6,105.4,100.2H2370l-154.2-143.4c-0.2-0.2-0.4-0.5-0.4-0.9v0c0-0.3,0.1-0.7,0.4-0.9l159.2-136L2237.7,111.9z
	 M599.3,196.6c0,30.6,11.8,51.3,37.2,65.3c23.4,12.8,58.4,20.8,117.3,26.7l11.1,1c25.5,2,54.5,4.3,54.5,25.3
	c0,14.3-15.5,22.2-43.8,22.2c-13.8,0-34-3.5-51-33.2H593.3c0.3,32.6,12.4,54.9,38,70.2c28.9,17.2,76.1,25.6,144.1,25.6
	c151.8,0,163.6-70.7,163.6-92.4c0-50.3-44.8-80.4-136.9-92.2l-14.5-1.8c-42-5.2-75.2-9.4-75.2-24.1c0-5.7,1.9-10.5,5.6-14.2
	c9.7-9.7,29.7-9.7,38.3-9.7h0.8c7.9,0,34.8,2.4,53.2,32h119.1c-0.8-59.4-63.3-93.4-171.9-93.4C614.8,103.8,599.3,168.7,599.3,196.6
	L599.3,196.6z"/>
</svg>
