<?xml version="1.0" encoding="UTF-8"?>
<!DOCTYPE svg PUBLIC "-//W3C//DTD SVG 1.1//EN" "http://www.w3.org/Graphics/SVG/1.1/DTD/svg11.dtd">
<!-- Creator: CorelDRAW 2021 (64-Bit) -->
<svg xmlns="http://www.w3.org/2000/svg" xml:space="preserve" width="2.75061in" height="1.68385in" version="1.1" style="shape-rendering:geometricPrecision; text-rendering:geometricPrecision; image-rendering:optimizeQuality; fill-rule:evenodd; clip-rule:evenodd"
viewBox="0 0 662.36 405.48"
 xmlns:xlink="http://www.w3.org/1999/xlink"
 xmlns:xodm="http://www.corel.com/coreldraw/odm/2003">
 <defs>
  <style type="text/css">
   <![CDATA[
    .fil2 {fill:#FEFEFE;fill-rule:nonzero}
    .fil3 {fill:#2B2A29;fill-rule:nonzero}
    .fil0 {fill:#E31E25;fill-rule:nonzero}
    .fil1 {fill:url(#id0);fill-rule:nonzero}
   ]]>
  </style>
  <linearGradient id="id0" gradientUnits="userSpaceOnUse" x1="-53.55" y1="332.37" x2="696.81" y2="73.11">
   <stop offset="0" style="stop-opacity:1; stop-color:#E31E24"/>
   <stop offset="0.4" style="stop-opacity:1; stop-color:#E31E24"/>
   <stop offset="0.6" style="stop-opacity:1; stop-color:#C02757"/>
   <stop offset="0.709804" style="stop-opacity:1; stop-color:#972983"/>
   <stop offset="1" style="stop-opacity:1; stop-color:#972983"/>
  </linearGradient>
 </defs>
 <g id="Layer_x0020_1">
  <metadata id="CorelCorpID_0Corel-Layer"/>
  <g id="_2306472163792">
   <path class="fil0" d="M528.67 290.6l0.02 -0c-0.01,-0 -0.01,-0 -0.02,-0 -0,0 -0,0 -0,0z"/>
   <path class="fil0" d="M531.61 290.26l-1.14 0.13c0.45,0.52 0.73,0.15 1.14,-0.13z"/>
   <path class="fil0" d="M529.65 290.57c0.04,0.04 -0.07,0 -0.23,-0.05l-0.25 0.03c0.18,0.08 0.35,0.12 0.48,0.02z"/>
   <path class="fil0" d="M10.9 276.85c0.05,0.11 0.11,0.23 0.2,0.38 -0.09,-0.2 -0.15,-0.31 -0.2,-0.38z"/>
   <path class="fil0" d="M528.92 290.57l-0.23 0.03c0.1,0 0.17,-0.01 0.23,-0.03z"/>
   <path class="fil0" d="M528.92 290.57l0.25 -0.03c-0.04,-0.02 -0.08,-0.02 -0.12,-0.05 -0.01,0.04 -0.08,0.06 -0.13,0.08z"/>
   <path class="fil0" d="M528.92 290.32c0.21,0.08 0.38,0.15 0.5,0.19l1.05 -0.12c-0.04,-0.05 -0.07,-0.06 -0.12,-0.12 0.05,0.17 -0.41,0.07 -1.03,-0.1 -0.15,0.04 -0.29,0.08 -0.4,0.15z"/>
   <path class="fil0" d="M191.77 94.33c-0.02,-0.07 -0.04,-0.13 -0.06,-0.2 0,0.32 0.02,0.34 0.06,0.2z"/>
   <path class="fil0" d="M570.5 7.35c0.02,0.03 0.03,0.05 0.04,0.08 0.04,-0.05 0.03,-0.08 -0.04,-0.08z"/>
   <path class="fil1" d="M636.53 102.52c-0.66,-2.18 -1.31,-2.12 -1.82,-2.66 1.47,2.13 0.02,1.23 0.34,2.28 -1.28,-1.67 -0.94,-0.53 -0.94,-0.53 -0.77,-0.61 -2.15,-3.89 -2.05,-2.27 -1.27,-2.92 -2.4,-2.17 -2.08,0.19 -0.11,-0.37 -0.36,0.1 -0.41,0.55 -1.23,-0.88 -0.98,-2.6 -1.96,-3.95l-0.77 0.63c-0.11,-0.17 0.02,1.08 -0.82,-0.17 -0.74,-1.82 -1.05,-0.93 -1.05,-0.93 -0.92,-1.78 -3.48,-2.67 -3.48,-2.67 0,0 -2.82,-5.81 -3.05,-3.32 -0.91,-3.8 -6.49,-2.95 -6.62,-2.09 -1.32,-1.26 -1.06,-1.57 -2.7,-2.77 -0.42,0.51 -6.14,-1.83 -5.46,-2.97 0.15,0.34 0.19,-1.57 2.02,-4.44 2.93,-1.25 6.82,-3.02 8.63,-6.63 2.11,-0.21 5.27,-4.19 6.68,-5.8 2.38,-2.67 4.54,-4.86 6.07,-8.1 -0.76,0.16 -0.94,-0.75 -1.46,-1.35 0.38,-0.94 0.11,-0.55 -0.67,-1.51 -0.63,2.03 -2.82,-0.13 -2.79,1.85 -0.38,0.63 -1.11,-0.84 -1.63,-1.04 -1.2,0.67 -2.42,1.13 -3.68,1.45 0.92,-1.56 1.43,-1.73 2.58,-4.24 -4.58,1.79 -10.93,3.74 -15.74,8.43 -0.47,0.43 -1.07,0.19 -1.67,-0.24 0.03,0.44 0.18,0.87 0.4,1.29 -0.59,0.13 -1.13,0.67 -1.67,1.08 -1.32,-2.17 -2.88,2.19 -3.67,4.14 -0.73,-0.76 -0.03,-1.8 0.39,-2.77 -0.5,0.46 -1.49,-0.09 -1.62,-1.07 0.76,-1.34 1.15,-0.38 1.5,-2.13 -0.6,-0.71 -0.66,1.87 -1.36,0.51 -0.64,0.65 -0.07,1.09 -0.54,1.72 -0.25,0.16 -0.5,0.33 -0.81,0.13 -0.15,-0.87 0.55,-1.9 0.37,-2.76 0.18,-0.2 0.41,-0.06 0.56,-0.36 -0.16,1.68 1.3,0.08 2,-0.36 0.46,0.38 0.33,0.84 0.83,1.21 1.61,-1.19 1.44,-3.97 2.92,-4.83 0.33,0.95 -0.99,2.15 -1.32,3.2 0.73,-0.11 2.14,-1 1.49,-2.15 2.09,0.49 3.63,-2.18 5.35,-3.89 -1.33,-0.57 -2.18,1.75 -3.26,2.72 0.24,-2.68 2.49,-3.96 4.06,-2.86 1.29,-1.71 2.61,-3.27 4.31,-2.64 4.11,-4.61 8.99,-4.63 13.2,-8.58 -1.27,-1.05 -2.18,0.11 -3.56,-1.53 -1.04,0.77 -2.18,0.94 -3.54,-0.18 -0.33,0.43 -0.04,0.73 -0.23,1.12 -1.16,-1.56 -1.73,0.29 -2.73,-0.32 -0.51,-0.53 -0.14,-1.23 0.28,-1.94 -1.24,-0.83 -2.09,0.67 -3.2,0.58 -0.91,-0.47 0.17,-1.32 -0.51,-1.81 -1.69,-0.43 -2.16,1.74 -3.9,2.57 -0.78,-1.32 1.07,-2.86 1.64,-3.77 -0.34,0.02 -0.72,-0.19 -1.14,-0.61 -0.15,0.28 0.18,0.51 0.35,0.75 -0.69,0.83 -1.34,-0.19 -1.43,1.35 -0.46,-0.38 -0.33,-0.86 -0.83,-1.21 -1.17,1.18 -2.56,1.18 -3.93,1.21 -0.36,0.79 -0.23,1.48 0.35,2.09 -0.28,0.76 -1.97,-0.72 -2.34,-1.75 1.55,-0.64 6.95,-3.18 6.99,-5.44 2.36,-1.12 1.29,-2.48 3.88,-2.13 -0.47,-0.91 0.28,-0.81 0.84,-0.88 0.13,-0.15 0.32,-0.2 0.52,-0.22 0.21,-0.24 0.28,-0.59 0.64,-0.6 0.09,0.19 0.09,0.31 0.06,0.39 0.54,-0.46 1.03,-1.19 1.6,-1.5 0.89,0.54 -0.22,1.37 0.81,1.21 -0.09,-1.85 2.64,-2.5 4.13,-2.37 0.88,-1.92 2.4,-1.47 3.89,-2.61 -0.18,-1.81 -1.51,-0.06 -2.08,-0.15 1.16,-1.35 6.49,-3.15 9.27,-1.94 1.24,-2.53 5.03,-2.62 4.59,-7.3 1.57,0.3 1.67,-2.15 3.02,-1.62 0.2,0.9 -0.67,0.78 -0.29,1.94 2.85,-2.53 5.44,-5.93 4.95,-9.54 -0.89,-0.64 -2.39,-1.17 -2.29,-2.55 -1.93,-0.83 -4.55,0.14 -5.68,-3.05 -0.5,1.63 -2.07,1.37 -1.94,3.05 0.31,0.21 0.48,-0.36 0.72,-0.65 0.58,0.9 0.03,0.69 -0.38,1.41 -0.71,-0.92 -1.28,-1.04 -1.78,-0.76 -0.71,-0.51 -0.59,-1.15 -0.12,-1.88 -0.54,-0.06 -0.97,0.29 -0.87,0.96 -1.59,-1.6 -4.07,0.7 -5.81,2.13 -2.64,-1.89 -4.32,1.98 -6.25,4.36l-0.47 -0.45c0.37,-3 2.57,-3.62 3.34,-5.73 -0.53,-0.66 -0.82,0.05 -1.39,-0.83 -2.83,3.66 -5.12,3.1 -8.06,5.76 -0.16,-0.23 -0.11,-0.5 -0.32,-0.72 -1.06,0.47 -2.54,0.82 -1.9,2.19 -0.32,0.96 -0.51,-1.57 -1.12,-0.6 -0.22,-0.5 0.68,-0.69 0.13,-1.64 -0.84,-0 -1.17,2.17 -0.76,2.84 -0.47,0.49 -0.68,-1.29 -1.3,-1.66 -0.92,0.98 -0.09,1.64 -0.6,2.55 -0.42,0.71 -0.85,-0.7 -0.58,-0.97 -0.93,-0.33 -0.43,1.29 -0.54,1.72 -0.21,-0.05 -0.84,-0.57 -1.22,-1.14 0,0.33 -0.37,0.34 -0.31,0.6 -1.34,0.57 -2.61,0.94 -3.14,3.25 -1.17,-0.52 -0.14,-1.4 -0.76,-2.03 0.63,-0.51 -2.37,-3.18 -2.83,-3.55 0.05,-0.04 0.1,-0.09 0.15,-0.11 -0.03,-0.05 0.01,-0.12 -0.04,-0.17 0,0 -1.27,-0.27 -1.99,0.34 -0.59,-0.99 -0.33,-2.1 -0.93,-3.07 -0.23,1.18 -0.33,0.68 -0.94,1.77 -0.85,-0.49 -0.72,-1.12 -1.3,-1.65 -0.44,0.51 -0.24,0.93 -0.37,1.4 -0.66,-0.43 -0.25,-1.04 -1.07,-1.44 -1.09,0.86 -2.31,0.92 -3.5,1.15 -0.73,-1.08 -1.43,-1.02 -1.13,-0.62 -3.09,-0.4 -5.58,2.72 -8.61,2.56 -0.15,0.39 0.32,0.67 0.57,0.98 -0.35,0.75 -0.72,1.45 -1.18,1.57 -1.53,-4.01 -3.69,1.9 -5.5,1.47 -0.17,-3.85 2.15,-3.26 3.44,-5.19 -0.99,-0.66 -3.26,1.36 -3.26,1.36 -0.54,-0.32 -0.55,-0.74 -0.78,-1.13 -0.23,0.33 -2.32,1.72 -2.8,3.12 -0.92,-0.56 -0.61,-1.34 -0.34,-2.11 -0.89,-1.2 -1.38,-0.09 -2.08,-0.17 0.26,0.68 0.19,1.4 -0.46,2.23 0.44,0.24 0.71,-0.73 1.29,0.33 -0.57,0.75 -1.24,0.87 -1.99,0.33l-1.42 2.68c-0.6,-1.5 0.15,-1.32 -1.21,-1.14 -1.07,-0.53 0.19,-1.47 -0.75,-2.04 0.16,2.6 -1.07,2.04 -1.96,4.38 -1.26,-0.18 -2.46,0.02 -3.76,-0.45 -0.48,2.67 -1.56,3.37 -2.67,5.01 -1.04,-0.54 0.42,-1.5 0.06,-2.17 -1.4,0.46 -2.43,2.98 -3.04,5.02l-0.88 0.1c0.02,-0.54 0.01,-1.1 -0.05,-1.75 -0.36,1.2 -0.96,0.79 -1.35,1.84 -2.29,-2.49 -2.19,2.02 -4.33,-0.11 -1.64,1.64 -1.09,1.16 -2.7,2.35 0.63,0.34 0.06,0.88 0.42,1.27 -0.48,0.49 -1.06,0.28 -1.44,1.32 -1.06,-0.81 -0.07,-1.63 0.55,-1.71 -0.4,-1.16 -2.4,0.81 -2.13,1.99 -0.83,0.05 -1.45,1.24 -2.49,-0.14 -1.16,0.09 -1.85,3.02 -3.11,2.4 -1,-1.37 -0.06,-3.03 0.28,-4.62 -1.39,0.46 -1.65,2.77 -3.67,2.76 -0.88,-0.88 -0.53,-1.19 -1.35,-0.86 -0.49,1.11 1.28,0.13 0.8,1.22 0.61,-0.02 1.25,0.03 1.76,-0.56 0.53,1.28 0.34,1.2 1.37,0.85 0.28,0.33 -0.07,0.74 -0.23,1.12 -0.46,0.57 -1.28,-1.23 -1.77,-0.77 0.07,0.42 -0.28,0.93 0.02,1.32 -0.4,0.36 -0.86,0.31 -1.31,0.28 -0.36,-0.32 -0.69,-0.57 -0.79,-0.53 -0.06,0.03 -0.08,0.12 -0.11,0.2 -0.13,-0.38 0.05,-0.59 0.43,-0.72 0.34,-0.34 0.24,0.4 0.74,0.68 -0.04,-0.8 0.11,-1.64 -0.58,-2.33 -1.15,2.72 -2.53,3.99 -3.94,5.08 -0.31,-0.02 -0.64,-0.03 -1.01,-0 -1.06,0.07 -1.85,0.9 -2.58,1.78 -0.01,-0.07 -0.07,-0.13 -0.04,-0.21 -0.01,0.13 -0.13,0.32 -0.21,0.5 -0.26,0.31 -0.51,0.62 -0.76,0.89 -0.35,-0.29 -0.7,-0.59 -0.57,-0.98 -0.04,0.55 -0.8,1.5 -1.67,2.23 0.15,-1.07 1.61,-1.97 1.36,-2.62 0.77,1.05 1.16,0.33 0.17,-0.29 -0.37,0.31 -0.72,0.56 -1.08,0.83 -0.09,-0.13 -0.23,-0.27 -0.45,-0.41 -1.45,1.21 -2.84,2.06 -4.16,2.57 -0.85,-1.58 1.9,-1.52 1.53,-3.41 -0.77,0.22 -1.12,-0.28 -1.28,1.01 -2.66,-0.79 -6.24,3.38 -8.83,4.92 -0.24,0.07 -0.47,0.14 -0.7,0.22 -0.34,-0.62 1.33,-1.55 0.15,-2.05 -0.08,1.41 -0.84,2.04 -1.58,2.55 -0.62,-0.62 1.33,-1.62 0.09,-2.15 -0.09,1.57 -1.02,2.18 -1.82,2.72 0.1,0.03 0.21,0.06 0.31,0.09 -1.33,0.46 -2.64,0.9 -3.96,1.34 -0.02,-0.16 -0.04,-0.31 -0,-0.48 -0.52,-0.33 -0.81,0.98 -1.44,-0.03 -0.12,0.13 -0.15,0.26 -0.16,0.38 -0.44,-0.06 -0.73,0.92 -1.31,0.01 -0.31,0.35 -0.16,0.64 0.07,0.93 -0.83,0.15 -1.64,0.34 -2.39,0.55 -1.98,0.44 -3.73,1.08 -5.71,1.87 -0.25,-0.45 -0.18,-0.94 0.21,-1.47 -0.53,-0.03 -0.98,0.48 -1.51,0.53 0.03,-0.05 0.03,-0.1 0.07,-0.15 -0.62,-0.04 -1.11,0.69 -1.76,0.55 -0.58,0.56 -0.12,0.97 0.04,1.42 -0.23,0.07 -0.46,0.2 -0.67,0.41 -0.43,-0.17 -0.83,-0.1 -1.2,0.17 -0.08,-0.25 -0.18,-0.5 -0.59,-0.7 -0.16,0.41 0,0.77 0.1,1.14 -0.27,0.08 -0.55,0.16 -0.82,0.24 -0.15,-0.35 -0.13,-0.72 -0.69,-1 -0.16,0.42 0.02,0.79 0.1,1.17 -0.24,0.07 -0.48,0.14 -0.71,0.21 -0.12,-0.03 -0.22,0.01 -0.31,0.09 -0.13,0.04 -0.26,0.07 -0.38,0.11 -0.08,-0.24 -0.19,-0.47 -0.55,-0.66 -0.07,0.27 -0.03,0.54 0.08,0.79 -0.31,0.09 -0.62,0.18 -0.92,0.27 -0.08,-0.25 -0.18,-0.49 -0.57,-0.69 -0.07,0.29 -0.05,0.56 0.07,0.83 -0.21,0.06 -0.41,0.11 -0.62,0.17 -1,-0.39 -1.92,-1.17 -2.07,-2.12 -1.45,1.14 0.83,1.29 1.01,2.42 -0.1,0.03 -0.21,0.06 -0.31,0.09 -1.01,-0.38 -1.95,-1.17 -2.1,-2.13 -1.1,0.86 -0.05,1.15 0.6,1.73 -0.24,0.31 -0.51,0.48 -0.79,0.6 -0.13,-0.12 -0.3,-0.23 -0.52,-0.33 -0.56,0.89 -1.45,0.66 -1.85,1.4 -0.31,0.08 -0.61,0.16 -0.92,0.25 -0.11,-0.16 -0.23,-0.28 -0.32,-0.53l-0.39 0.72c-0.24,0.06 -0.47,0.13 -0.71,0.19 -0.1,-0.15 -0.2,-0.32 -0.28,-0.55l-0.4 0.73c-0.87,0.23 -1.74,0.45 -2.61,0.67 -0.26,-0.08 -0.46,-0.02 -0.62,0.16 -0.24,0.06 -0.49,0.12 -0.73,0.19 -0.28,-0.1 -0.49,-0.02 -0.66,0.17 -1.81,0.46 -3.61,0.89 -5.41,1.32 0.07,-0.53 0.29,-1.07 0.02,-1.54 -0.37,0.76 -0.87,1.29 -1.37,1.81 0.08,-0.5 0.28,-1.01 0.02,-1.45 -0.37,0.77 -0.88,1.31 -1.38,1.84 -0.32,0.07 -0.63,0.15 -0.95,0.22 -0.02,-0.16 -0.17,-0.37 -0.58,-0.71 0.43,-1.16 1.24,0.09 1.68,-1.06 -0.47,-0.67 -1.12,-0.1 -1.62,0.12 -0.16,-0.08 -0.33,-0.08 -0.5,-0.03 -0.1,-0.09 -0.18,-0.24 -0.21,-0.55 -0.26,0.57 -0.62,0.76 -1.03,0.99 -0.15,-0.05 -0.26,-0.22 -0.31,-0.63 -0.25,0.55 -0.59,0.75 -0.99,0.97 -0.38,-0.99 -1.17,0.64 -2.24,-0.37 -0.17,0.3 -0.35,0.49 -0.53,0.69 -0.24,0 -0.5,-0.07 -0.79,-0.33 -0.76,1.37 -1.68,1.54 -2.54,2.06 -0.31,-0.5 -0.75,-0.64 -0.97,-1.68 0.19,1.33 -0.18,1.43 -0.67,1.6 -0.24,-0.26 -0.49,-0.54 -0.64,-1.24 0.26,1.85 -0.54,1.33 -1.27,1.92 -0.02,-0.06 -0.03,-0.14 0.01,-0.27 -0.88,-0.66 0.01,1.76 -0.96,0.42 0.07,0.17 0.15,0.34 0.22,0.52 -0.34,-0.23 -0.71,-0.06 -0.56,-0.58 -0.88,-0.66 0.01,1.75 -0.96,0.41 0.15,0.36 0.32,0.72 0.44,1.09 -0.32,0.07 -0.64,0.13 -0.96,0.2 -0.04,-0.04 -0.07,-0.08 -0.12,-0.12 -0.03,0.04 -0.04,0.08 -0.05,0.11 0.09,-0.55 0.17,-1.1 -0.27,-1.57 -0.08,0.56 -0.17,1.14 -0.12,1.69 -0.3,0.06 -0.59,0.12 -0.89,0.18 0.09,-0.54 0.15,-1.07 -0.27,-1.52 -0.07,0.54 -0.22,1.09 -0.19,1.62 -0.41,0.08 -0.82,0.17 -1.23,0.25 -0.16,-0.32 -0.27,-0.65 -0.58,-0.94 -0.29,0.5 -0.63,0.67 -0.98,0.73 -0.08,-0.13 -0.17,-0.27 -0.3,-0.39 -0.12,0.2 -0.25,0.3 -0.38,0.42 -0.3,-0.04 -0.61,-0.1 -0.91,-0.11 -0.02,0.21 -0.11,0.31 -0.17,0.47 -0.37,-0.03 -0.74,-0.11 -1.1,-0.13 -0.04,0.39 -0.15,0.67 -0.29,0.9 -0.47,0.09 -0.95,0.18 -1.42,0.28 -0.07,-0.45 0.84,-1.03 -0.07,-1.35 -0.26,0.74 -0.61,1.05 -1.03,1.2 0.18,-0.32 0.37,-0.65 -0.23,-0.86 -0.18,0.53 -0.42,0.82 -0.68,1.01 -0.35,0.03 -0.72,0.05 -1.11,0.17 -0.06,0.06 -0.04,0.1 -0.07,0.16 -0.31,0.02 -0.64,0.05 -0.98,0.13 -0.1,-0.15 -0.22,-0.28 -0.41,-0.35 -0.42,0.12 -0.57,0.42 -0.6,0.89 -0.04,0.01 -0.07,0.01 -0.11,0.02 -0.11,-0.25 -0.26,-0.47 -0.54,-0.58 -0.13,0.04 -0.2,0.11 -0.29,0.18 -0.6,-0.25 -1.13,-0.07 -1.65,0.25 -0.8,-0.1 -1.5,0.48 -2.2,1.03 -1.34,0.25 -2.67,0.49 -4,0.74 -0.29,-0.03 -0.55,0.02 -0.78,0.14 -0.23,0.04 -0.45,0.08 -0.68,0.13 -0.1,0.01 -0.19,0.02 -0.28,0.05 -0.53,0.1 -1.07,0.19 -1.6,0.29 -0.1,-0.22 -0.23,-0.45 -0.44,-0.7 -0.47,0.33 -0.87,0.2 -1.14,0.43 -0.03,-0.04 -0.04,-0.07 -0.07,-0.11 -0.36,0.25 -0.67,0.23 -0.93,0.3l-0.28 -0.28c0.06,0.13 0.07,0.26 0.08,0.38 -0.11,0.09 -0.21,0.23 -0.27,0.52 -0.12,0.02 -0.24,0.04 -0.36,0.07l-0.65 -0.64c0.12,0.28 0.11,0.52 0.04,0.75 -0.27,0.05 -0.54,0.1 -0.82,0.15 -0.21,-0.14 -0.41,-0.31 -0.59,-0.57 -0.05,0.3 -0.1,0.52 -0.17,0.71 -0.19,0.03 -0.38,0.07 -0.58,0.1 -0.16,-0.13 -0.31,-0.29 -0.45,-0.49 -0.04,0.24 -0.08,0.43 -0.13,0.59 -0.71,0.13 -1.41,0.25 -2.12,0.38 0.06,-0.23 0.17,-0.46 0.23,-0.83 -0.87,0.14 -2.06,1.16 -2.34,1.21 -0.8,-0.34 -1.49,-1.78 -2.4,-1.34 0.12,0.56 0.59,1.07 1.04,1.59 -0.5,0.09 -0.99,0.18 -1.49,0.27 -0.13,-0.13 -0.26,-0.22 -0.36,-0.41 -0.05,0.17 -0.04,0.32 -0.07,0.49 -0.29,0.05 -0.58,0.1 -0.87,0.16 -0.08,-0.1 -0.16,-0.2 -0.22,-0.32 -0.04,0.13 -0.05,0.25 -0.08,0.38 -0.43,0.08 -0.86,0.15 -1.3,0.23 -0.17,-0.6 0.58,-1.35 -0.26,-1.88 -0.18,0.84 -0.34,0.97 -0.13,1.95 -0.22,0.04 -0.43,0.08 -0.65,0.12 -0.15,-0.04 -0.26,-0.05 -0.28,0.05 -0.04,0.01 -0.08,0.01 -0.12,0.02 -0.05,0.01 -0.1,0.02 -0.15,0.03 -0.07,-0.21 -0.08,-0.12 -0.07,0.01 -0.21,0.04 -0.44,0.07 -0.66,0.11 -0.25,-0.18 -0.5,-0.38 -0.75,-0.56 -0.17,-0.8 1.8,-0.37 1.13,-2.04 -0.92,1.11 -5.37,4.18 -4.99,0.95 -0.6,0.02 -1.03,1.36 -1.77,0.52 -0.35,2.06 -1.91,1.55 -3.1,2.52 -0.52,0.13 -1.02,0.25 -1.54,0.38 -0.5,-0.27 -0.96,0.01 -0.83,-1.09 -0.52,-0.2 -0.47,0.57 -0.67,1.26 -0.32,-0.08 -0.54,-0.15 -0.45,-0.95 -0.55,-0.22 -0.45,0.69 -0.7,1.41 -0.58,0.13 -1.16,0.27 -1.74,0.4 -0.92,0.17 -1.84,0.35 -2.76,0.53 -0.16,-0.03 -0.31,0 -0.45,0.09 -0.42,0.08 -0.85,0.16 -1.27,0.24 -0.4,-0.1 -0.76,0.12 -1.21,-0.37 0.09,0.24 0.18,0.4 0.27,0.55 -0.16,0.03 -0.32,0.06 -0.48,0.09 -0.28,-0 -0.55,0.01 -0.88,-0.34 0.07,0.19 0.14,0.34 0.22,0.47 -0.06,0.01 -0.12,0.02 -0.18,0.03 -0.02,-0.04 -0.06,-0.07 -0.08,-0.11 -0.28,-0.02 -0.43,0.08 -0.54,0.21 -0.18,0.03 -0.36,0.07 -0.55,0.09 -0.2,-0.01 -0.32,0.04 -0.42,0.12 -0.08,0.02 -0.16,0.03 -0.24,0.05 -0.09,-0.06 -0.16,-0.1 -0.26,-0.18 -0,0.08 0.02,0.15 0.04,0.23 -0.09,0.02 -0.18,0.04 -0.27,0.05 -0.31,-0.14 -0.58,-0.1 -0.84,0.02 -0,-0 -0,-0 -0,-0 0,0 0,0 0,0 -0.13,0.06 -0.26,0.14 -0.4,0.22 -0.01,0 -0.01,0 -0.02,0 -0.3,-0.07 -0.57,0.01 -0.83,0.16 -0.24,0.05 -0.48,0.1 -0.73,0.15 -0.17,-0.07 -0.36,-0.18 -0.56,-0.35 -0.09,0.2 -0.19,0.39 -0.3,0.52 -0.11,0.02 -0.22,0.04 -0.32,0.06 -0.14,-0.07 -0.29,-0.15 -0.45,-0.28 -0.07,0.16 -0.15,0.3 -0.23,0.42 -2.3,0.47 -4.62,0.96 -6.93,1.45 -1.01,0.04 -1.99,0.32 -2.93,0.61 -0.23,0.06 -0.45,0.12 -0.67,0.18 -1.02,0.28 -1.99,0.45 -2.9,0.08 -0.42,-0.48 0.4,-1.13 0.18,-1.63 -1.21,-0.35 -2.03,2.21 -3.46,0.2 -0.09,0.44 -0.03,0.88 0.37,1.29 -0.27,1 -0.75,0.41 -1.05,1.2 -0.58,-0.37 -0.23,-0.87 0.01,-1.35 -0.69,-0.6 -1.18,0.3 -1.84,-0.01 -0.03,0.06 -0.02,0.11 -0.01,0.17 -0.32,0.11 -0.63,0.3 -1,0.13 -0.03,0.06 -0.02,0.12 -0.01,0.18l-0.62 1.04c0,-0.3 0,-0.6 -0.33,-0.83l-0.1 0.16c-0.08,-0.27 -0.16,-0.55 -0.59,-0.78 -0.32,0.12 -0.64,0.22 -0.95,0.33 -0.02,-0.01 -0.02,-0.03 -0.05,-0.04 -0.73,0.28 -1.46,0.53 -2.19,0.76 -0.83,0.23 -1.67,0.43 -2.53,0.5l0.08 0.08c-0.33,0.06 -0.65,0.16 -0.99,0.19 0.03,-0.06 0.06,-0.12 0.09,-0.18 -1.17,-0.42 -2.88,0.98 -3.49,1.66 -0.07,0.01 -0.14,0.03 -0.21,0.04 -0.47,-0.91 -0.97,-1.07 -1.62,-0.2 0.17,0.13 0.28,0.23 0.37,0.33 -0.06,0.17 -0.11,0.49 -0.26,0.84 -2.11,0.35 -4.25,0.68 -6.39,1.02 -0.02,-0.36 -0.08,-0.72 -0.33,-1.05 0.54,-0.41 1.62,-0.16 1.46,-1.27 -0.74,0.29 -0.8,0.05 -1.35,-0.89 -0.15,1.23 -0.71,1.06 -0.75,1.97 -0.62,0.51 -1.41,-0.4 -1.95,0.79 -0.98,-1.64 -2.44,-0.67 -3.68,0.28 -0.13,0.02 -0.26,0.01 -0.39,0.06 -0.24,-1.04 -0.69,-1.1 -1.29,-0.48 -0.18,-0.16 -0.4,-0.14 -0.66,0.05 -0.02,-0.25 0.01,-0.51 0.18,-0.78 -0.54,-0.21 -1.04,-0.06 -1.53,0.2 -0.69,0.04 -1.32,0.54 -1.98,0.88 -0.14,0.01 -0.29,0.01 -0.44,-0.03 -0.04,0.08 -0.01,0.15 -0.01,0.22 -0.29,0.09 -0.58,0.14 -0.9,0.06 -0.18,0.36 0.12,0.66 0.26,0.98 -0.15,-0.07 -0.27,0 -0.35,0.47 -0.41,-0.39 -0.49,-0.84 -0.38,-1.3 -0.67,-0.15 0.26,1.44 -0.9,0.91 -0,-0 -0,-0 -0,-0 -0.05,-0.2 -0.05,-0.41 0,-0.62 -0.23,-0.05 -0.27,0.1 -0.27,0.3 -0.33,-0.38 -0.51,-0.77 -0.34,-1.2 -0.24,0.24 -0.55,0.33 -0.9,0.37 0.01,-0.03 -0.01,-0.06 -0,-0.09 -0.04,0.04 -0.1,0.06 -0.15,0.1 -0.62,0.05 -1.29,-0.01 -1.68,0.32 -0.28,0.02 -0.53,0.06 -0.74,0.17 -0.09,-0.31 -0.13,-0.63 -0.63,-0.9 0.11,0.79 -0.12,0.91 -0.39,0.82 -0.08,-0.19 -0.19,-0.38 -0.49,-0.54 0.02,0.1 0.01,0.16 0.01,0.24 -0.08,-0.07 -0.14,-0.12 -0.14,-0.12 -0.28,0.09 -0.5,0.25 -0.7,0.44 -0.11,-0.09 -0.18,-0.16 -0.18,-0.16 -0.65,0.2 -0.95,0.74 -1.32,1.37 -0.29,0.01 -0.63,-0.11 -1.07,-0.45 -0.03,1.58 -1.82,1.08 -2.66,1.41 -0.13,-0.44 0.13,-0.91 -0.37,-1.3 -0.39,1.8 -1.59,0.28 -2.39,2.16 -0.04,0.28 0.03,0.49 0.13,0.65 -0.22,0.06 -0.43,0.16 -0.63,0.43 -1,0.14 -1.97,0.26 -2.97,0.4 0.5,-1.13 0.97,-2.3 1.83,-3.14 -0.69,-0.08 -1.43,-0.59 -2.14,-0.81 -0.24,0.56 -0.15,1.65 -0.91,0.93 -0.13,0.45 0.15,0.87 -0.02,1.33 -0.8,0.82 -0.61,-0.57 -1.58,-1.16 0.48,2.21 -3.04,2.98 -3.8,0.75 0.18,1.31 -0.86,0.11 -1.22,1.49 0.78,0.87 1.28,-0.58 2.07,0.28 0.11,0.99 -1.72,0.29 -2.42,0.3 0.01,0.38 -0.11,0.77 -0.32,1.18 -0.22,0.03 -0.45,0.06 -0.67,0.09 0.01,-0.26 0.09,-0.53 0.26,-0.64 -0.38,-0.16 -0.52,0.21 -0.49,0.67 -0.06,0.01 -0.12,0.02 -0.18,0.02 0.08,-0.59 0.02,-1.07 -0.62,-1.09 0.38,1.16 -0,0.96 -0.52,1.24 -0.12,0.02 -0.23,0.03 -0.35,0.05 -0.23,-0.95 -1.73,0.24 -1.93,0.26 -0.57,-1.04 -7.16,1.68 -7.86,-0.33 -0.4,-0.48 -9.62,2.61 -14.78,3.26 -0.26,-0.09 -0.4,-0.06 -0.48,0.06 -2.21,0.28 -4.39,0.55 -6.56,0.82 -0.04,-0.36 -0.11,-0.73 -0.63,-1.03 -0.61,0.66 -1.39,0.18 -1.93,1.35 -0.21,0.03 -0.41,0.05 -0.62,0.08 0.02,-0.37 0.02,-0.74 -0.26,-1.08 -0.18,0.6 -0.4,0.95 -0.66,1.19 -2.14,0.26 -4.25,0.52 -6.34,0.78 -0.05,-0.38 0.47,-0.82 -0.24,-1.14 -0.56,0.84 -1.67,0.24 -1.29,1.33 -0.67,0.08 -1.34,0.16 -2,0.24 -0.17,-0.67 0.06,-1.53 0.72,-1 -0.4,-1.79 -2.38,1.79 -2.95,-0.74l-1.01 1.71c0.18,0.12 0.29,0.25 0.37,0.38 -0.27,0.03 -0.55,0.07 -0.82,0.1 -0.03,-0.05 -0.07,-0.11 -0.1,-0.16 -0.03,0.08 -0.07,0.12 -0.11,0.18 -0.93,0.11 -1.83,0.22 -2.75,0.34 -0.56,-0.27 -1.17,-0.58 -1.88,-0.78 -0.98,1.59 -3.89,-0.25 -5.57,1.13 0.03,0.29 0.1,0.46 0.2,0.55 -0.31,0.04 -0.61,0.07 -0.92,0.11 -0.01,-0.02 -0,-0.03 -0.01,-0.06 -0.7,-0.52 -1.25,-0.83 -1.39,-1.43 -0.24,0.33 -0.56,1.03 -0.89,1.77 -0.53,0.07 -1.08,0.13 -1.61,0.2 -0.15,0.02 -0.28,0.05 -0.42,0.07 -0.1,-0.15 -0.21,-0.29 -0.35,-0.37 -0.51,-0.09 -1.81,1.68 -1.83,-0.04 -1.37,1.6 -2.95,1.39 -4.54,1.28 -1.01,-0.68 0.56,-1.66 -0.48,-2.35 -1.07,0.92 0.53,1.54 -0.32,2.46 -0.78,0.87 -1.16,-1.24 -1.86,-1.95 -0.47,0.61 -1.1,-0.09 -1.62,0.18 0.07,-0.73 -0.2,-1.4 -1.04,-2.01 0.02,0.4 -0.12,1.16 -0.52,0.86 -0.39,0.79 0.63,0.01 0.94,0.95 -0.42,1 -1.06,0.2 -1.6,0.18 -0.36,0.75 0.87,0.88 1.09,0.68 0.16,0.61 0.02,1.26 0.03,1.87 -0.76,0.15 -0.92,-0.82 -1.15,0.64 -1.03,-1.08 0.09,-0.95 -0.01,-1.86 -0.93,-0.62 -0.67,0.71 -0.86,1.44 -0.87,0.52 -1.89,-0.03 -2.8,0.3 -0.17,-0.77 0.38,-1.65 0.31,-2.42 -0.95,-0.31 -2.05,-2.3 -3,-1.29 -0.76,-1.14 -1.11,0.72 -1.24,1.15 0.18,0.53 0.36,1.06 -0.06,1.67 -0.67,0.21 -0.67,-1.43 -1.36,0.42 -0.96,-0.43 0.37,-1.11 -0.59,-1.54 0.36,1.57 -0.75,1.65 -1.72,0.98 -0.36,1.06 0.43,1.23 0.94,0.97 -0.28,0.55 -0.65,0.31 -0.91,0.89 -0.3,-0.59 -1.57,-1.07 -1.23,-1.75 -0.37,-0.09 -1.53,1.66 -1.43,-0.11 -0.73,-0.41 -0.71,2.45 -1.83,1.78 -0.25,-0.41 0.24,-0.91 0.46,-1.37 -1.03,-0.05 -3.05,-1.32 -3.22,0.34 -0.27,0.24 -1.76,-0.07 -0.94,-0.97 -0.35,0.07 -0.58,0.87 -0.51,0.85 1.04,1.26 -0.23,1.21 -0.48,2.72 -0.52,-1.02 -0.79,0.19 -1.15,0.64 -0.33,-0.26 -0.24,-0.58 -0.33,-0.87 0.18,0.63 -4.72,0.35 -5.25,0.43 -1.03,0.15 -2.02,0.62 -3.09,0.78 -2.47,0.37 -5.06,0.37 -7.42,1.3 -0.25,-0.32 0.12,-0.72 0.29,-1.07 -0.59,-0.35 -1.14,-0.49 -1.54,0.67 -0.54,-1.64 -0.84,-0.13 -1.75,-0.89 -0.67,-0.55 1.18,-1.37 -0.02,-1.86 -0.5,1.8 -1.05,0.83 -2.57,0.52 -0.44,1.4 -1.1,2.37 -2.35,0.79 -0.53,1.28 -1.29,0.49 -1.82,1.78 -2.57,-3.41 -6.07,-0.26 -9.97,-1.68 0.24,1.16 -0.56,2.22 -1.15,0.64 -0.74,0.68 -0.44,1.29 -0.4,1.89 -0.25,0.15 -0.5,0.31 -0.8,0.09 0.01,-0.81 -0.33,-1.55 0.34,-2.43 -1.29,-0.91 -0.04,2.23 -1.55,0.7 -0.09,1.88 -0.52,1.27 -1.67,1.48 -0.48,-0.57 -0.07,-1.24 0.4,-1.9 -2,1.83 -4.93,1.63 -7.36,1.22 -1.01,-0.17 -1.42,-0.46 -2.1,-1.11 -0.42,-0.41 -0.91,-0.71 -1.51,-0.82 -0.56,-0.1 -1.09,-0.02 -1.58,0.26 -0.19,0.11 -1.53,1.38 -1.36,1.52 -0.82,-0.64 0.78,-1.5 -0.24,-2.11 -0.53,1.54 -2.73,0.06 -4.02,0.37 -0.35,0.47 -0.09,0.89 -0.45,1.37 -0.13,-0.42 0.14,-0.9 -0.36,-1.29 -0.73,0.15 -0.2,0.37 -0.68,1.14 -0.21,-0.34 0.17,-0.74 -0.12,-1.07 -1,-1 -1.76,0 -1.5,1.22 -0.24,-0.35 -0.45,-0.4 -0.64,-0.22 -0.23,-0.33 0.13,-0.72 0.29,-1.09 -1.88,0.13 -5.03,-1.53 -6.04,0.58 -1.97,-1.26 -1.28,0.61 -2.46,-0.31 -0.16,0.43 -0.35,0.87 -0.6,1.26 -0.19,0.29 -0.43,0.54 -0.7,0.76 -0.13,0.1 -0.26,0.2 -0.39,0.3 -0.07,0.05 -0.14,0.1 -0.21,0.16 -0.04,0.03 -0.07,0.05 -0.11,0.08 -0.05,0.04 -0.09,0.05 -0.16,0.07 -0.06,0.01 -0.12,0.02 -0.19,0.02 -0.11,0 -0.22,-0.03 -0.33,0 -0.09,0.03 -0.17,0.11 -0.24,0.18 0,0 0.13,-0.77 0.1,-0.76 -0.04,-0.31 -0.16,0.34 -0.24,0.93 -0.02,0.04 -0.05,0.09 -0.07,0.13 -0.04,-0.01 -0.09,-0.01 -0.13,-0.02 0.03,-0.59 -0.39,0.52 -0.23,-0.67 -0.1,0.28 -0.24,0.39 -0.4,0.53 -0.06,0.06 -0.81,-0.27 -0.92,-0.3 -0.3,-0.09 -0.59,-0.22 -0.89,-0.3 -0.18,-0.05 -0.36,-0.09 -0.55,-0.12 -0.06,-0.01 -0.42,-0.01 -0.45,-0.04 -0.24,-0.32 0.12,-0.72 0.3,-1.09 -0.55,-0.04 -1.11,-0.3 -1.59,0.18 -0.43,0.36 -0.37,-0.8 -0.85,0.37 0.05,-0.45 0.2,-0.63 0.22,-0.9 -0.05,0.09 -0.19,0.36 -0.17,0.09 0.02,-0.27 0.13,-0.36 0.22,-0.54 -0.24,0 -0.37,0.45 -0.43,0.62 -0.08,0.21 -0.14,0.43 -0.2,0.65 -0.06,0.2 -0.09,0.39 -0.32,0.46 -0.1,0.03 -0.21,0.03 -0.31,0.02 -0.15,-0.02 -0.21,-0.22 -0.4,-0.17 -0.21,0.05 -0.28,0.37 -0.32,0.55 0.02,-0.26 -0.15,-0.11 -0.2,0 -0.26,-0.11 -0.26,-0.21 -0.55,-0.17l0.04 0.18c-0.01,0.02 -0.01,0.03 -0.01,0.04 -0.19,-0.04 -0.39,-0.08 -0.58,-0.11 -0.08,-0.16 -0.14,-0.09 -0.19,-0.03 -0.05,-0.01 -0.09,-0.01 -0.14,-0.02 -0.04,-0.06 -0.08,-0.16 -0.14,-0.38l-0.05 0.36c-0.03,-0 -0.06,-0.01 -0.09,-0.01 -0.01,-0.43 -0.12,-0.76 -0.61,-0.03 -0.03,0 -0.07,0 -0.1,0.01 -0.01,-0.72 0.06,-1.96 -0.02,-2.11 -0.01,-0.15 0.09,-0.22 0.16,-0.32 0.03,-0.04 -0.04,-0.23 -0.07,-0.26 -0.09,-0.07 -0.13,0.09 -0.25,0.04 -0.07,-0.03 -0.07,-0.17 -0.15,-0.18 -0.05,-0.01 -0.11,0.08 -0.13,0.12 -0.12,0.15 -0.21,0.32 -0.32,0.47 -0.07,0.1 -0.19,0.32 -0.33,0.35 -0.16,0.04 -0.18,-0.19 -0.19,-0.31 -0.01,0.43 -0.02,0.86 -0.22,1.15 -0.24,0.11 -0.31,-1.68 -0.73,-0.4 -0.01,-0.12 -0,-0.23 0.02,-0.33 -0.23,0.31 -0.64,0.48 -0.85,1.19 0.27,-2.69 -1.23,1.14 -0.85,-1.32l-0.53 0.06 0.05 -0.25c-0.3,-0.21 -0.51,0.36 -0.7,0.93 -0.05,-0.18 0.03,-0.4 0.06,-0.53 -0.41,-0.57 -0.47,-0.48 -1.04,0.7l0.06 -0.8c-0.17,0.45 -0.54,-1.33 -1.13,-0.45 0.01,-0.09 0.04,-0.24 0.09,-0.35 -0.63,0.88 -1.06,-2.37 -1.55,0.53l-0.42 0.68c0.09,0.06 0.23,0.29 0.01,0.29 -0.22,-0 -0.16,-0.24 -0.25,-0.35 -0.04,-0.06 -0.12,-0.08 -0.17,-0.12 -0.07,-0.05 -0.11,-0.09 -0.14,-0.17 -0.02,-0.04 -0.06,-0.41 -0.02,-0.41 -0.51,0.01 -0.98,-0.26 -1.41,-0.5 -0.23,-0.13 -0.45,-0.26 -0.69,-0.36 -0.21,-0.09 -0.43,-0.21 -0.59,0.01 -0.07,0.1 -0.18,0.19 -0.3,0.21 -0.12,0.02 -0.26,-0.05 -0.28,-0.18 -0.01,-0.04 -0,-0.09 -0.04,-0.11 -0.01,-0.01 -0.03,-0.01 -0.05,-0.01 -0.09,-0.01 -0.31,0.02 -0.37,-0.04 -0.02,-0.02 0.01,-0.09 -0.02,-0.1 -0.04,-0.01 -0.06,0.05 -0.08,0.05 -0.01,-0 -0.38,-0.11 -0.38,-0.11l0.14 0.94c-0.18,0.46 -0.35,-0.05 -0.2,1.01 -0.23,-1.64 -1.4,-0.6 -1.55,-1.11 -0.23,0.69 -0.45,0.66 -0.74,0.59 0.08,0.19 0.15,1.24 -0.09,1.13 0.01,-2.18 -0.48,-0.91 -0.77,-2.46 0.24,1.02 -0.71,0.3 -0.33,1.75 -0.22,-0.16 -0.06,-0.81 -0.26,-1.31 -0.44,0.88 -1.16,-0.48 -1.77,-0.14 0.02,0.29 0.18,0.71 0.09,1.15l-0.51 -1.37c-0.11,0.16 0.1,1.65 -0.26,0.71 0.07,0.23 0.16,0.58 0.09,0.69 -0.71,-0.59 -1.31,-0.21 -1.9,0.03 -0.61,0.21 -1.2,0.42 -2.22,-0.67 0.33,0.48 0.23,0.57 0.11,0.63 0.05,0.05 0.08,0.13 0.1,0.2 0.02,0.06 0.09,0.13 0.09,0.19 0,0.02 -0,0.03 -0.01,0.05 -0.02,0.05 -0.06,0.1 -0.11,0.14 -0.17,0.11 -0.28,-0.09 -0.39,-0.2 -0.04,-0.04 -0.18,-0.15 -0.2,-0.21 0.13,0.55 -0.07,0.42 -0.35,0.73 -0.29,0.33 -0.28,0.84 -0.58,1.18 -0.47,0.51 -0.94,0.28 -1.34,-0.08 -0.95,0.71 -2.29,0.42 -3.12,1.34 -1.66,-1.51 -1.41,0.47 -3.38,2.4 0.65,-0.18 1.23,-0.62 1.92,-0.63 0.63,-0 1.34,0.04 1.96,0.19 0.61,0.15 1.37,0.33 1.91,0.63 0.17,0.09 0.32,0.35 0.54,0.34 0.1,-0 0.47,-0.18 0.39,-0.33 0.83,1.51 3.06,1.2 4.31,0.42 0.57,0.73 0.4,1.38 1.03,0.17 2.26,1.56 4.38,1.76 6.38,0.77 0.28,1.81 2.24,0.2 1.83,1.97 0.14,-0.58 1.06,-0.75 1.38,-0.26 0.65,1 -1.42,1.13 -1.99,1.29 -1.13,0.32 -2.24,0.66 -3.35,1.05 -2.09,0.72 -3.98,1.95 -5.97,2.92 -0.53,-0.28 -1.07,-0.64 -1.62,-1.05 1.01,-0.95 0.99,-1.53 1.79,-2.29 -2,0.26 -3.83,2.27 -5.01,0.71 0.3,2.22 -1.01,3.41 -0.19,5.88 -1.04,-0.2 -2.12,-0.82 -3.16,-1.07 0.1,0.71 0.91,1.06 0.69,1.83 -0.3,1.01 -0.92,0.1 -1.33,-0.19 0.22,1.27 -0.38,1.6 -1.16,2.5 -0.74,-0.97 -2.04,-2.19 -1.9,-0.64 -0.81,-0.64 -0.51,-1.59 -1.38,-1.48 -0.5,-0.97 0,-0.7 0.47,-1.39 -0.02,0.02 -1.63,-0.09 -1.86,-0 -0.53,0.19 -1.19,0.54 -1.6,0.91 -0.35,0.32 -0.92,0.48 -1.18,0.88 -0.24,0.37 -0.19,0.88 -0.32,1.28 -0.23,0.7 -0.69,-0.47 -0.91,-0.56 -0.3,-0.12 -0.26,0.16 -0.55,0.18 -0.13,0 -0.68,-0.4 -0.67,-0.5 -0.05,1.05 -1.38,0.65 -1.02,-0.17 -0.98,2.15 -3.16,1.35 -5.12,-0.39 0.25,0.22 -0.51,1.89 -0.74,2.1 -0.11,0.11 -0.26,0.17 -0.4,0.23 -0.36,0.16 -0.72,0.32 -1.09,0.49 -0.13,0.06 -0.27,0.12 -0.42,0.14 -0.3,0.04 -0.74,-0.07 -0.94,-0.27 -0.44,0.46 -1.11,0.44 -1.67,0.24 -0.13,-0.04 -1.52,-0.81 -1.25,-1.06 -1.16,1.08 -1.33,-0.59 -2.44,0.2 -0.57,-0.92 0.6,-0.37 0.7,-1.14 -1.27,-1.02 -2.27,0.22 -3.5,-0.5 -0.35,0.86 -0.41,1.14 -0.36,2.43 -0.71,-0.22 -1.94,0.38 -1.86,1.74 -0.95,-0.44 0.4,-1.08 -0.56,-1.56 -0.47,-0.23 -0.93,0.37 -1.41,0.23 -0.11,-0.03 -0.2,-0.1 -0.31,-0.13 -0.15,-0.04 -0.31,0.02 -0.46,-0.01 -0.24,-0.05 -0.46,-0.28 -0.33,-0.53 0.07,-0.13 0.17,-0.22 0.23,-0.37 0.01,-0.03 0.11,-0.48 0.08,-0.47 -0.48,0.08 -0.85,-0.42 -1.19,-0.02 -0.79,-0.47 -0.35,-1.05 -0.97,-1.52 -0.91,1 -2.87,2.23 -3.35,1.04 -0.36,-0.24 -0.32,0.49 -0.12,0.83 -0.71,0.23 -1.42,0.64 -2.28,-0.63 -0.37,1.04 -0.93,0.41 -1.29,1.42 0.77,-0.95 1.92,1.7 2.64,0.08 0.74,1.27 -0.06,1.86 1.48,2.54 -0.98,1.88 -1.52,-0.01 -1.85,-0.12 -0.67,1.35 0.89,0.88 1.03,2.03 0.32,-0.86 0.7,-0.89 1.21,-0.07 -0.09,-0.14 0.36,-0.56 0.47,-0.64 0.18,-0.12 0.36,-0.22 0.57,-0.28 0.08,-0.02 0.17,-0.05 0.25,-0.03 0.14,0.03 0.23,0.15 0.35,0.22 0.07,0.04 0.07,-0.03 0.12,-0.02 0.07,0 0.14,0.04 0.21,0.07 -0.62,-1.78 0.89,-0.04 1.6,-0.14 0.12,0.24 0.12,1.26 -0.18,1.43 0.68,0.27 1.88,1.38 2.63,0.77 1.01,2.2 2.08,0.58 2.91,2.66 0.34,-0.18 0.56,-0.47 0.75,-0.8 0.16,-0.29 0.31,-0.69 0.7,-0.38 0.2,0.16 0.27,0.33 0.14,0.53 -0.11,0.17 -0.22,0.24 -0.13,0.42 0.11,0.23 0.47,0.5 0.69,0.62 0.23,0.13 0.48,0.16 0.74,0.16 0.24,-0 0.48,-0.04 0.72,-0.01 0.13,0.02 0.25,0.06 0.37,0.09 0.25,0.08 0.14,-0.01 0.37,-0.07 0.07,-0.02 0.15,-0.01 0.23,0 1.57,0.23 3.25,0.58 4.76,1.11 0.49,0.17 0.98,0.37 1.49,0.49 0.42,0.1 1.11,0.01 1.39,0.27 0.18,-0.06 0.55,-0.07 0.62,-0.29 0,-0 1.78,-0.01 1.94,-0.01 0.75,0 1.32,0.2 1.99,0.49 0.1,-0.21 0.12,-0.29 0.35,-0.44 0.26,-0.17 0.49,0.12 0.75,0.23 0.35,0.15 0.68,0.31 0.95,0.58l0.69 -1.14c0.34,-0.07 0.69,0.03 1.04,0.2 0.48,0.57 0.06,1.21 -0.4,1.89 1.55,0.34 0.52,-2.62 2.23,-1.77 0.04,-0.13 0.08,-0.29 0.06,-0.43 -0.02,-0.09 -0.16,-0.14 -0.04,-0.26 0.07,-0.06 0.17,-0.06 0.26,-0.06 0.11,0.01 0.22,0.02 0.32,0.04 0.08,0.02 0.16,0.04 0.23,0.07 0.3,0.16 0.52,0.55 0.79,0.76 0.32,0.25 0.68,0.44 1.05,0.61 0.66,0.31 1.41,0.54 2,1 -1.11,0.74 -4.26,-0.61 -3.92,1.38 -1.22,0.14 -2.52,-0.67 -3.69,-0.23 0.01,0.28 -0.04,0.69 -0.39,0.75 -0.1,0.02 -0.21,-0.01 -0.3,-0.04 -0.38,-0.12 -0.41,-0.22 -0.52,-0.59 0.01,0.04 -0.31,0.45 -0.35,0.52 -0.1,0.16 -0.2,0.34 -0.35,0.46 -0.14,0.11 -0.29,0.17 -0.45,0.25 -0.06,0.03 -0.12,0.06 -0.16,0.11 -0.04,0.04 -0.06,0.09 -0.08,0.14 -0.15,0.29 -0.44,0.42 -0.67,0.62 -0.24,0.21 -0.38,0.46 -0.49,0.76 -0.8,-0.47 -0.35,-1.04 -0.98,-1.52 -0.74,1.38 -0.51,0.11 -1.44,-0.13 -0.02,-0.01 -0.46,0.35 -0.53,0.39 -0.19,0.09 -0.42,0.17 -0.63,0.19 -0.48,0.04 -1.1,-0.38 -1.49,-0.65 -0.53,-0.37 -0.13,-1.02 0.44,-1.01 -0.08,-0.29 -0.14,-0.56 -0.41,-0.83 -0.75,1.24 -0.92,1.33 -1.79,0.4 -0.08,-0.08 -0.41,0.76 -0.42,0.86 -0.03,0.28 0.11,0.62 -0.2,0.79 -0.1,0.05 -0.22,0.07 -0.34,0.06 -0.12,-0 -0.24,-0.02 -0.34,-0.08 -0.26,-0.13 -0.12,-0.26 -0.21,-0.43 -0.67,-1.22 -1.08,-0.01 -1.73,-0.94 -0.37,0.4 -0.14,0.73 0.12,1.07 -0.08,0.05 -0.17,0.09 -0.25,0.11 -0.08,-0.09 -0.15,-0.1 -0.2,0.04 -0.48,0.03 -0.92,-0.23 -1.36,-0.36 -0.21,-0.06 -0.45,-0.13 -0.67,-0.09 -0.2,0.03 -0.34,0.15 -0.54,0.15 -0.13,0 -0.27,-0.01 -0.4,0 -0.39,0.06 -0.47,0.37 -0.75,0.55 -0.3,0.19 -1.25,-0.09 -1.36,-0.44 -0.01,-0.03 -0.02,-0.06 -0.05,-0.07 -0.02,-0.01 -0.04,0 -0.06,0.01 -0.59,0.31 -1.09,-0.2 -1.65,-0.33 -0.04,-0.01 -0.07,-0.02 -0.1,-0.01 -0.06,0.02 -0.09,0.07 -0.12,0.12 -0.23,0.31 -0.83,0.34 -1.2,0.33 -0.45,-0.01 -0.61,-0.45 -0.95,-0.66 -0.03,-0.02 -0.06,-0.04 -0.1,-0.04 -0.45,-0.08 -0.57,0.9 -0.89,1.06 -0.07,0.04 -0.7,-0.07 -0.7,0.03 -0.11,1.31 0.21,1.56 -0.36,2.43 0.32,0.33 0.68,0.62 1.02,0.93 0.33,0.3 0.54,0.67 0.79,1.03 -0,-0.12 -0.01,-0.26 0.14,-0.32 0.09,-0.04 0.2,-0.02 0.29,0 0.46,0.09 0.91,0.22 1.3,0.47 0.12,0.08 0.24,0.17 0.38,0.21 0.33,0.09 0.4,-0.14 0.27,-0.38 0.06,-0.04 0.13,-0.06 0.19,-0.07 0.62,0.38 1.8,-0.37 1.8,1.06 0,0.14 0.95,-0.09 1.02,-0.11 0.4,-0.14 0.67,-0.18 1.04,0.07 0.2,0.14 0.37,0.31 0.55,0.48 0.08,0.07 0.16,0.13 0.26,0.16 0.08,0.02 0.17,0 0.25,0.03 0.38,0.14 -0.43,0.31 -0.52,0.34 -0.15,0.05 -0.29,0.1 -0.43,0.18 -0.05,0.03 -0.37,0.3 -0.38,0.3 0.28,0.06 0.58,0.06 0.85,0.14 0.31,0.09 0.5,0.37 0.85,0.21 0.05,-0.02 0.09,-0.05 0.14,-0.06 0.04,-0.01 0.08,-0.01 0.12,-0.01 0.2,0.01 0.39,0.09 0.58,0.14 0.45,0.11 0.72,-0.29 1.18,-0.31 0.4,-0.02 0.8,0.13 1.17,0.28 0.7,0.28 1.57,0.77 2.32,0.36 0.02,0.01 0.04,0.03 0.05,0.04 0.09,-0.05 0.22,-0.04 0.29,-0.1 0.06,-0.05 -0,-0.17 0.12,-0.19 0.04,-0.01 0.08,0 0.12,0.01 0.12,0.03 0.23,0.07 0.34,0.12 0.14,0.06 0.08,0.15 0.14,0.22 0.06,0.07 0.05,0.06 0.18,0.09 0.25,0.04 0.5,0.05 0.75,0.07 0.5,0.04 1,0.08 1.5,0.11 0.5,0.03 1,0.05 1.5,0.07 0.14,0.01 1.43,0.12 1.45,0.05 -0.08,0.21 0.43,1.27 0.14,0.01 1.48,0.04 3.34,0.1 4.82,0.16 -0.25,0.45 0.49,-0.9 0.56,-0.13l0.34 0.18c0.05,0.03 0.15,0 0.22,0.02 0.08,0.02 0.17,0.07 0.26,0.1 0.17,0.07 0.35,0.12 0.49,0.25 0.07,0.06 0.13,0.14 0.19,0.22 0.11,0.15 0.23,0.31 0.34,0.46 0.02,0.02 0.03,0.05 0.03,0.07 0,0.03 -0.02,0.05 -0.03,0.07 -0.12,0.15 -0.31,0.21 -0.5,0.26 -0.26,0.06 -0.51,0.1 -0.78,0.11 -0.1,0 -0.39,-0.01 -0.32,-0.17 -0.21,0.13 -0.32,-0.01 -0.51,-0.08 -0.26,-0.09 -0.37,0.18 -0.46,0.39 -0.02,-0.35 0.14,-0.49 0.12,-0.7 -0.04,0.07 -0.17,0.29 -0.19,0.08 -0.03,-0.21 0.09,-0.28 0.17,-0.42 -0.44,0.02 -0.59,1.07 -0.71,2.05 -0.18,-0.49 -0.15,-1.2 -0.38,-0.57 -0.03,-0.2 -0.11,-0.13 -0.13,-0.06 -0.26,-0.13 -0.79,-0.36 -0.86,0.3 -0.03,-0.2 -0.21,-0.08 -0.26,0.01 -0.34,-0.08 -0.37,-0.15 -0.71,-0.11l0.08 0.14c-0.23,0.95 -0.31,0.19 -0.59,0.27l0.02 -0.1c-0.56,-0.76 -0.3,0.3 -0.85,-0.55 -0.03,-0.22 -0.06,-0.43 -0.09,-0.64 -0.07,0.46 -0.25,0.83 -0.4,1.14 -0.12,-0.24 -0.26,-0.44 -0.42,-0.27l0.09 0.35c-0.24,0.42 -0.37,-1.8 -0.55,-1.98 -0.01,-0.05 0.01,-0.09 0.04,-0.13 -0.16,0.25 -0.41,0.79 -0.43,0.79 -0.03,-0.43 0.13,-0.65 -0.12,-0.76 -0.1,-0.35 -0.82,0.88 -1.09,0.03 0.04,0.33 0.09,0.66 -0.12,0.89 -0.29,0.09 -0.61,-1.3 -0.97,-0.31 -0.03,-0.09 -0.03,-0.18 -0.02,-0.26 -0.24,0.24 -0.72,0.36 -0.91,0.9 0.01,-0.97 -0.3,-0.84 -0.61,-0.63 -0.11,-0.24 -0.2,-0.48 -0.3,-0.73 -0.15,0.28 -0.45,0.48 -0.86,0.38 -0.16,-0.04 -0.27,-0.11 -0.36,-0.2 -0.2,0.1 -0.34,0.38 -0.48,0.68 -0.08,-0.14 0.01,-0.31 0.03,-0.41 -0.56,-0.45 -0.63,-0.37 -1.23,0.52 0,-0.22 0.11,-0.58 -0.18,-0.63 -0.09,-0.01 -0.19,-0.01 -0.27,-0.04 -0.08,-0.04 -0.14,-0.11 -0.21,-0.16 -0.12,-0.08 -0.27,-0.08 -0.42,-0.09 -0.22,-0.01 -0.47,-0.04 -0.66,-0.18 -0.12,-0.09 -0.2,-0.22 -0.31,-0.32 -0.14,-0.13 -0.27,-0.28 -0.43,-0.38 -0.5,-0.31 -0.66,0.51 -0.73,0.84 -0.04,0.16 -0.39,0.37 -0.49,0.5 0.07,0.05 0.21,0.1 0.2,0.21 -0.01,0.09 -0.13,0.13 -0.21,0.09 -0.15,-0.06 -0.15,-0.2 -0.24,-0.31 -0.06,-0.07 -0.15,-0.1 -0.23,-0.14 -0.08,-0.04 -0.16,-0.06 -0.22,-0.14 -0.02,-0.03 -0.1,-0.34 -0.05,-0.34 -0.54,-0.03 -1.06,-0.22 -1.56,-0.43 -0.25,-0.1 -0.49,-0.21 -0.74,-0.3 -0.21,-0.08 -0.46,-0.18 -0.69,-0.18 -0.08,0 -0.17,0.03 -0.22,0.1 -0.03,0.04 -0.04,0.09 -0.07,0.14 -0.04,0.07 -0.12,0.12 -0.19,0.12 -0.04,0 -0.08,-0 -0.12,-0.01 -0.06,-0.01 -0.12,-0.02 -0.19,-0.03 -0.07,-0.01 -0.14,-0.02 -0.19,-0.06 -0.06,-0.04 -0.1,-0.11 -0.08,-0.17 -0.1,0.03 -0.21,0.05 -0.31,0.06 -0.12,0.01 -0.15,-0.02 -0.15,-0.11 -0,-0.05 0.02,-0.11 0.01,-0.16 -0,-0.01 -0.02,-0.06 -0.02,-0.07 0.01,-0.06 -0.02,-0.1 -0.12,-0.04l-0.45 -0.13c0.04,0.24 0.06,0.5 -0.21,0.62 -0.1,0.04 -0.22,0.05 -0.33,0.07 -0.07,0.02 -0.15,0.06 -0.23,0.04 -0.05,-0.01 -0.1,-0.05 -0.15,-0.07 -0.16,-0.04 -0.32,-0.05 -0.48,-0.05 -0.03,-0 -0.7,-0.05 -0.61,-0.17 -0.12,0.17 -0.27,0.34 -0.48,0.4 -0.17,0.04 -0.32,-0.01 -0.49,-0.04 0.02,0.06 0.11,0.27 -0,0.27 -0.1,-0 -0.19,-0.18 -0.21,-0.26 -0.01,-0.06 -0.03,-0.12 -0.06,-0.18 -0.05,-0.09 -0.13,-0.15 -0.2,-0.21 -0.26,-0.21 -0.32,-0.46 -0.38,-0.78 0.13,0.82 -0.88,0.1 -0.65,1.26 -0.24,-0.16 0.05,-0.62 -0.1,-1.03 -0.67,0.58 -1.27,-0.56 -2.04,-0.42 -0.03,0.22 0.05,0.56 -0.14,0.87l-0.28 -1.13c-0.16,0.09 -0.27,1.25 -0.45,0.46 0.02,0.19 0.05,0.47 -0.06,0.53 -1.34,-1.22 -3.05,0.55 -4.31,-1.6 0.16,0.44 0.02,0.47 -0.13,0.47 0.09,0.11 -0.06,0.54 -0.07,0.84l-0.53 -0.89c-0.19,0.81 -0.67,-0.02 -0.81,0.76l0.21 -0.12c-0.35,0.9 0.16,2.1 -0,3.28 0.4,-1.02 0.61,1.64 1.23,0.18 0.08,0.25 -0.13,0.37 -0.1,0.66 0.17,-0.49 0.33,-0.59 0.57,-0.33 0,0 -0.04,0.12 -0.04,0.12 0.02,-0.06 0.44,0.05 0.49,0.06 0.15,0.05 0.29,0.13 0.42,0.22 0.3,0.2 0.61,0.52 0.95,0.63 -0.01,-0.16 0.05,-0.33 0.21,-0.4 0.1,-0.04 0.22,-0.04 0.33,-0.02 0.24,0.04 0.48,0.12 0.68,0.25 0.09,0.06 0.11,0.09 0.12,0.18 0,0.03 0.02,0.3 0.02,0.3 0.1,0.03 0.09,-0.08 0.13,-0.12 0.05,-0.06 0.2,-0.06 0.28,-0.04 0.09,0.02 0.19,0.09 0.2,0.19 0.01,0.05 -0,0.11 0.04,0.14 0.02,0.01 0.05,0.01 0.07,0.01 0.29,-0.05 0.58,-0.08 0.86,-0.12 0.11,-0.01 0.2,-0.05 0.31,-0.04 0.11,0.01 0.21,0.02 0.32,0.03 0.45,0.03 0.88,-0.04 1.24,-0.33l-0.03 -0.28c0.62,-0.45 0.42,0.35 1.07,0.18l-0.03 0.06c0.15,-0.26 0.33,-0.38 0.5,-0.33 -0.19,0.31 0.23,0.66 -0.02,1 0.14,-0.2 0.38,-0.26 0.49,-0.5 0.04,-0.1 0.05,-0.25 0.12,-0.33 0.09,-0.12 0.31,-0.14 0.46,-0.1 0.26,0.07 0.3,0.32 0.16,0.52 0.54,1.07 1.08,-0.91 1.22,0.59 -0.01,-0.62 0.85,-0.77 0.9,-0.12 0,-0 -0.05,0.14 -0.07,0.09 0.13,0.28 0.56,-0.32 0.61,0.15 0.61,-1.49 1.76,-0.56 0.1,0.13 0.09,0.43 1.24,0.21 1.24,0.21 0.07,-0.09 0.04,0.42 0.04,0.42 0.32,-0.58 1.22,1.34 0.82,-0.34 0.87,0.4 2.47,0.32 2.91,1.29 -0.3,0.33 0.31,1.24 0.79,0.42l0.65 0.36c0.02,-0.18 0.04,-0.39 0.06,-0.6l0.4 -0.01c0.01,0.22 0.2,0.14 0.11,0.31 0.04,0.05 0.09,0.05 0.14,0.04 0.11,0.57 -0.16,1 -0.42,1.48 -0.15,-0.1 -0.29,-0.18 -0.44,-0.21 0.01,0.29 0.02,0.59 0.04,0.88 -0.28,-0.34 -0.73,-0.38 -1.14,-0.41 -0.21,-0.01 -0.42,-0.02 -0.63,-0.07 -0.08,-0.02 -0.15,-0.06 -0.23,-0.03 -0.09,0.03 -0.13,0.09 -0.23,0.1 -0.26,0.02 -0.4,-0.1 -0.58,-0.25 -0.13,-0.11 -0.26,-0.01 -0.39,-0.12 -0.03,-0.03 -0.08,-0.22 -0.04,-0.24 -0.33,0.16 -0.64,-0.11 -0.89,-0.27 -0.05,-0.04 -0.12,-0.07 -0.18,-0.04 -0.03,0.02 -0.05,0.05 -0.08,0.07 -0.1,0.14 -0.22,0.27 -0.35,0.39 -0.02,0.02 -0.04,0.04 -0.07,0.05 -0.02,0.01 -0.04,0 -0.07,0 -0.34,-0.04 -2.35,-1.02 -2.1,0.07l-0.22 -0.82c-0.14,0.77 -0.33,0.01 -0.45,0.75l0.11 -0.12c-0.06,0.22 -0.09,0.47 -0.11,0.73 -0.45,-0.1 -0.89,-0.27 -1.27,-0.6 -0.25,0.69 -0.72,1.41 -0.42,2.19l0.51 -0.32c0.24,0.63 0.15,1.11 0,1.52 -0.03,-0 -0.06,-0.01 -0.09,0 -0.01,0.07 -0.01,0.16 -0.01,0.24 -0.04,0.1 -0.08,0.19 -0.11,0.28l-0.08 -0.75c-0.08,0.09 -0.16,1.19 -0.24,0.45 0,0.18 0.01,0.44 -0.04,0.51 -0.62,-1.11 -1.55,0.64 -2.09,-1.36 0.06,0.41 -0.02,0.45 -0.09,0.45 0.04,0.1 -0.06,0.51 -0.08,0.79l-0.22 -0.82c-0.14,0.77 -0.33,0.01 -0.45,0.75l0.11 -0.12c-0.04,0.14 -0.05,0.3 -0.07,0.46 -0.18,0.05 -0.31,0.36 -0.38,1.12l0.32 0.61c-0,0.3 -0.02,0.61 -0.05,0.91 0.16,-0.61 0.21,0.13 0.32,0.44 -0.57,1.26 -1.21,3.13 -2.03,2.55 0.1,0.38 0.15,0.74 0.6,0.83 0.29,0.06 0.42,-0.04 0.67,-0.12 0.18,-0.06 0.37,-0.04 0.55,-0.06 0.23,-0.03 0.48,-0.28 0.68,-0.24 0.28,0.05 0.68,0.54 0.91,0.74 0.37,0.32 0.86,1.01 0.91,1.5 -0.08,-0.74 -0.39,-1.4 0.36,-1.09 0.02,-0.22 0.08,-0.5 0.12,-0.67l0.05 0.05 -0.05 -0.09c0.02,-0.12 0.02,-0.14 -0.02,-0.03 -0.2,-0.32 -0.36,-0.7 -0.45,-1.11 0.04,-0.3 0.12,-0.53 0.21,-0.75 0.11,-0.02 0.24,-0.2 0.26,-0.11l-0.11 -0.2c0.01,-0.02 0.03,-0.04 0.04,-0.05 0.4,-0.2 1.32,0.01 1.69,0.21 0.14,0.07 0.27,0.18 0.4,0.28 0.31,0.25 0.63,0.43 0.68,0.85 0.05,0.42 -0.08,0.79 -0.36,1.1l0.93 0.02c0.6,0.89 1.37,1.22 1.79,0.49 0.46,0.33 0.99,-1.9 0.69,-0.58 0.02,-0.11 0.52,-0.47 0.62,-0.55 0.34,-0.24 0.81,-0.31 1.21,-0.23 0.32,0.06 0.62,0.21 0.94,0.25 0.21,0.02 0.43,-0 0.64,-0.03 0.8,-0.09 1.63,-0.13 2.43,-0.03 0.42,0.05 0.83,0.15 1.23,0.29 0.33,0.13 0.62,0.36 0.97,0.37 0.53,0.02 0.78,0.17 1.28,0.37 0.48,0.19 0.74,0.02 0.8,-0.5 0.23,1.01 0.56,1.51 0.93,1.75 -0.26,0.5 -0.49,1.24 -0.85,0.8 0.38,1.27 0.16,1.26 -0.61,2.25 -0.78,-0.77 -0.12,-1.1 -1.21,-0.17 -0.03,0.31 -0.44,0.2 -0.67,0.27 -0.28,0.08 -0.52,0.27 -0.83,0.26 -0.2,-0.01 -0.38,-0.1 -0.57,-0.15 -0.43,-0.1 -0.85,0.08 -1.25,0.2 -0.37,0.11 -0.77,0.08 -1.12,0.23 -0.17,0.07 -0.34,0.12 -0.53,0.11 -0.15,-0 -0.31,-0.03 -0.46,0.04 -0.12,0.06 -0.22,0.18 -0.36,0.19 -0.06,0 -0.13,-0.02 -0.19,-0.03 -0.34,-0.08 -0.75,-0.04 -1.1,0.02 -0.13,0.02 -0.15,0.11 -0.17,0.23 -0.03,0.14 -0.05,0.27 -0.07,0.41 -0.02,0.11 -0.04,0.21 -0.06,0.32 -0.01,0.07 -0.04,0.37 -0.09,0.4 -0.38,0.24 -0.53,-0.75 -0.66,-0.92 -0.14,-0.17 -0.11,-0.21 -0.28,-0.06 -0.34,0.27 -0.07,0.77 -0.68,0.85 -0.22,0.03 -0.44,-0.01 -0.66,0.03 -0.15,0.02 -0.3,0.08 -0.46,0.08 -0.3,0.01 -0.57,-0.19 -0.86,-0.26 -0.51,-0.13 -1,0.08 -1.5,0.15 -0.23,0.03 -0.47,0.01 -0.7,0.06 -0.21,0.05 -0.41,0.18 -0.63,0.19 -0.21,0.01 -0.41,-0.09 -0.62,-0.12 -0.39,-0.06 -0.85,0.16 -1.19,0.34 -0.14,0.07 -0.29,0.16 -0.45,0.18 -0.28,0.04 -0.55,-0.13 -0.81,-0.23 -0.06,-0.02 -0.13,-0.04 -0.19,-0.05 -0.09,-0 -0.18,0.03 -0.27,0.05 -0.41,0.12 -1.42,0.21 -1.71,-0.21 0.02,0.02 -0.22,-0.73 -0.23,-0.64 -0.05,1.11 -0.4,-0.1 -0.11,0.93 -0.1,-0.36 -0.43,0.21 -0.45,0.28 -0.06,0.17 -0.14,0.41 -0.13,0.6 0.01,0.15 0.12,0.27 -0,0.41 -0.07,0.07 -0.16,0.11 -0.26,0.13 -1.08,0.2 -1.2,-0.89 -1.36,-1.63 -0.08,0.09 -0.42,0.84 -0.43,0.83 1.35,0.72 -0.53,3.75 -1.36,3.93 -0.77,-3.08 1.94,-2.06 -0.75,-3.41 -0.05,-0.03 -0.12,0.7 -0.12,0.75 -0,0.16 -0.02,0.34 0,0.49 0.02,0.13 0.05,0.21 -0.03,0.34 -0.05,0.08 -0.12,0.15 -0.19,0.2 -0.08,0.06 -0.17,0.11 -0.27,0.13 -0.07,0.02 -0.17,0.03 -0.24,-0 -0.05,-0.03 -0.05,-0.05 -0.08,-0.09 -0.02,-0.02 -0.04,-0.07 -0.08,-0.06 -0.11,0.02 -0.13,0.42 -0.13,0.48 -0.01,1.81 -0.64,3.65 0.11,1.53 0.61,3.54 0.68,-1.37 1.28,-0.54 0.32,4.36 0.99,-0.49 3.67,2 0.2,0.19 0.03,0.72 0.38,0.87 0.22,0.09 0.4,-0.06 0.55,-0.22 0.24,-0.24 0.29,-0.56 0.47,-0.82 0.23,-0.33 0.72,-0.4 1.09,-0.31 0.15,0.04 0.29,0.1 0.45,0.11 0.18,0.01 0.35,-0.06 0.52,-0.13 0.52,-0.22 1.04,-0.42 1.55,-0.64 0.41,-0.17 0.87,-0.54 1.32,-0.45 0.44,0.09 0.87,0.22 1.29,0.38 0.18,0.07 0.36,0.15 0.55,0.18 0.31,0.06 0.62,0 0.93,0.01 0.13,0 0.37,-0.01 0.48,0.07 0.09,0.06 0.06,0.19 0.14,0.25 0.34,0.29 0.47,-0.1 0.61,-0.47 -0.09,0.23 -0.04,0.9 0.07,1.14 0.25,-0.49 0.01,-1.14 0.57,-1.44 0.2,-0.11 0.42,-0.15 0.63,-0.24 0.31,-0.12 0.58,-0.32 0.89,-0.42 1.47,-0.45 2.61,1.11 4.09,0.79 0.36,-0.08 0.69,-0.24 1.06,-0.27 0.26,-0.02 0.52,0.03 0.78,0.04 0.35,0.01 0.59,-0.15 0.9,-0.25 0.2,-0.06 0.42,-0.04 0.61,-0.12 0.3,-0.11 0.79,-0.67 0.67,-1.03 0.82,2.49 3.85,1.9 2.65,-1.96 1.2,1.07 0.49,5.34 2.29,3.39 0.35,1.7 -1.9,3.09 -3.15,1.31 -1.36,-0.01 -2.35,3.57 -3.89,1.93l-0.7 1.11c-0.74,-0.46 -0.08,-1.06 -0.16,-1.58 -0.85,-0.37 -1.44,1.78 -2.37,0.73 -0.54,-0.97 0.7,-0.75 0.88,-1.4 -2.21,0.9 -4.22,2.13 -5.91,0.2 -0.67,0.15 -1.36,-0.03 -1.91,1.22 0.52,0.41 0.67,0.83 0.33,1.31 -0.95,-1.24 -2.96,0.65 -4.56,-0.74 0.4,-0.72 0.81,-1.4 1.32,-0.88 -0.49,-0.89 -2.65,-0.74 -3.74,-0.78 -0.8,1.37 0.71,-0.04 1.15,1.22 -0.58,0.95 -1.35,0.16 -1.92,1.24 0.2,0.42 0.23,0.84 -0.07,1.32 0.61,0.71 0.75,0.04 0.9,0.99 -0.26,0.1 -0.52,0.2 -0.76,0.57 -1.22,-1.92 -1.48,-1.35 -2.87,-2.16 0.54,-1.34 1.43,0.66 1.99,-0.67 -0.58,-0.97 -0.99,-0.25 -1.54,-1.21 0.52,1.02 -1.26,2.01 -2.07,2.02 -0.24,-0.35 0.12,-0.72 0.31,-1.1 -0.67,-1.22 -1.08,-0.01 -1.73,-0.93 -0.28,0.55 0.66,1.02 0.55,1.56 -1.31,1.03 -2.87,-0.2 -4.23,0.58 0.13,1.39 1.01,-0.29 1.68,0.41 0.15,0.25 0.05,0.52 0.29,0.78 -1.1,-0.44 -1.26,0.62 -2.34,1.25 0.2,1.48 1.13,0.94 1.39,-0.38 1.02,0.63 -0.72,1.68 0.57,1.56 -0.29,0.44 -0.16,0.89 -0.42,1.27 0.18,0.09 0.37,0.14 0.57,0.31 0.71,-0.66 0.41,-1.27 0.83,-1.94 1.21,-0.04 2.48,0.33 3.6,-0.78 1.75,2.55 3.01,0.08 4.56,0.7 0.14,2.14 -2.19,0.95 -2.16,2.83 2.17,-1.02 3.72,0.75 5.98,-1.52 -0.07,0.07 0.76,1.08 0.89,1.17 0.35,0.24 0.81,-0 1.21,0.02 0.49,0.03 0.93,0.16 1.42,0.11 0.38,-0.05 0.72,-0.12 1.07,-0.29 0.68,-0.32 1.38,-0.86 2.17,-0.74 -1.73,1.29 -2.78,2.52 -3.2,2.65 0.81,1.88 2.89,-1.02 4.12,-1.65 0.25,1.36 1.6,0.85 2.32,0.6 0.14,-0.37 -0.33,-0.68 -0.12,-1.07 0.2,-0.16 0.41,-0.03 0.59,-0.29 0.11,0.43 -0.18,0.88 0.33,1.29 1.7,-0.11 3.28,-1.32 4.94,-1.72 0.12,0.21 0.02,0.79 0.42,0.58 0.28,-0.15 0.39,-0.41 0.66,-0.57 0.14,-0.09 0.31,-0.14 0.48,-0.17 0.07,-0.01 0.46,0.03 0.49,0 -0.94,0.88 1.25,0.82 0.62,2.05 0.59,0.44 0.94,-1.48 1.52,-1.18 0.69,0.97 -0.68,1.78 -1.24,1.97 -0.42,0.75 0.65,1.37 0.22,2.12 0.83,0.61 1.44,-0.67 2.26,0.07 0.09,1.18 -0.73,0.89 -0.99,2.21 0.37,0.6 0.7,0.59 1.28,0.33 0.2,-0.09 0.38,-0.17 0.6,-0.1 0.14,0.05 0.23,0.23 0.34,0.27 0.16,0.05 0.34,-0.06 0.54,-0.01 0.51,0.14 0.91,0.36 0.82,0.9 -0.1,0.6 -0.24,1.19 -0.37,1.78 -0.19,0.82 -0.42,1.64 -0.69,2.44 -0.12,0.36 -0.18,0.74 -0.36,1.08 -0.08,0.16 -0.21,0.36 -0.37,0.44 -0.18,0.09 -0.33,0.07 -0.48,0.25 -0.13,0.16 -0.3,0.33 -0.52,0.28 -0.07,-0.01 -0.14,-0.04 -0.21,-0.06 -0.08,-0.02 -0.17,-0.02 -0.25,-0.02 -0.22,-0 -0.42,0.04 -0.56,0.24 -0.11,0.17 -0.22,0.32 -0.44,0.36 -0.34,0.07 -0.55,-0.19 -0.76,-0.42 -0.19,-0.21 -0.4,-0.43 -0.68,-0.49 -0.18,-0.03 -0.36,0.01 -0.54,0.05 -0.15,0.04 -0.32,0.09 -0.47,0.06 -0.13,-0.03 -0.27,-0.11 -0.39,-0.17 -0.07,-0.04 -0.14,-0.07 -0.19,-0.13 -0.04,-0.04 -0.08,-0.1 -0.12,-0.15 -0.21,-0.26 -0.55,-0.37 -0.88,-0.3 -0.24,0.05 -0.47,0.16 -0.7,0.26 -0.56,0.23 -1.16,0.36 -1.76,0.36 -0.39,0 -0.82,-0.06 -1.07,-0.35 -0.25,-0.28 -0.3,-0.66 -0.61,-0.89 -0.02,-0.02 -0.05,-0.03 -0.06,-0.06 -0.03,-0.06 0.08,-0.23 0.11,-0.29 0.07,-0.17 0.14,-0.34 0.2,-0.51 0.05,-0.14 0.09,-0.32 -0.02,-0.42 -0.11,-0.1 -0.29,-0.03 -0.37,0.1 -0.08,0.12 -0.08,0.28 -0.1,0.42 -0.01,0.14 -0.04,0.3 -0.15,0.4 -0.16,0.14 -0.44,0.08 -0.56,-0.1 -0.11,-0.16 -0.06,-0.28 -0.08,-0.45 -0.02,-0.16 -0.12,-0.27 -0.26,-0.36 -0.12,-0.07 -0.26,-0.11 -0.4,-0.14 -0.36,-0.08 -0.21,0.63 -0.37,0.85 -0.23,0.3 -0.75,0.2 -1.1,0.2 -0.79,0.11 -1.33,0.88 -1.62,1.58 0.14,-0.33 0.13,-0.74 -0.08,-1.02 -0.21,-0.29 -0.64,-0.42 -0.95,-0.24 -0.21,0.12 -0.33,0.34 -0.5,0.51 -0.34,0.35 -0.89,0.48 -1.36,0.31 -0.18,-0.07 -0.36,-0.18 -0.43,-0.36 -0.12,-0.29 0.08,-0.5 0.33,-0.59 0.06,-0.02 0.58,-0.19 0.56,-0.04 0.12,-0.8 -0.98,-0.55 -1.18,-1.4 0.07,0.32 -0.54,1.11 -0.69,1.37 -0.28,0.46 -0.65,1.22 -1.27,1.26 -0.16,0.01 -0.32,-0.04 -0.47,0.01 -0.15,0.05 -0.26,0.19 -0.29,0.35 -0.04,0.15 -0.02,0.31 0.02,0.47 0.13,0.56 0.37,0.87 0.85,1.12 0.45,0.23 0.82,0.77 1.39,0.53 0.01,-0 0.59,-0.26 0.59,-0.26 -0.12,0.75 1.33,-0.8 1.24,0.8 0.61,-0.44 0.64,0.19 0.43,0.61 0.26,-0.14 0.34,0.79 0.65,0.2 -0.38,1.67 0.78,0.67 1.01,1.06 0.4,-0.86 1.29,-1.61 2.29,-1.38 0.16,0.04 0.31,0.11 0.47,0.17 0.4,0.16 0.82,0.27 1.25,0.28 0.22,0 0.44,-0.02 0.66,0 0.22,0.02 0.43,0.08 0.64,0.14 0.21,0.06 0.42,0.12 0.63,0.18 0.09,0.03 0.13,0.08 0.1,0.17 0.4,0.15 0.38,0.28 0,0.47 -0.48,0.25 -1.01,0.41 -1.5,0.66 -0.26,0.13 -0.69,0.34 -0.75,0.66 -0.03,0.15 0.03,0.27 0.13,0.38 0.07,0.08 0.57,0.48 0.65,0.42 1.45,-1.15 1.15,-0.52 3.13,0.53 -0.11,-0.56 -0.02,-1.58 0.64,-1.74 0.6,-0.14 1.3,0.14 1.65,0.64 0.19,0.27 0.3,0.62 0.57,0.82 0.4,0.3 0.9,0.26 1.26,0.65 0.24,0.26 0.3,0.51 0.35,0.86 0.04,0.31 0.19,3.08 0,3.13 -1.74,0.43 -6.56,0 -3.59,-3.56 -1.6,0.26 -2.98,2.25 -4,0.69 0.16,0.99 0.01,1.95 -0.1,2.93 -0.1,0.93 0.04,1.8 0.06,2.71 0.02,0.55 -0.33,1.05 -0.4,1.59 -0.02,0.17 -0.02,0.35 -0.09,0.5 -0.13,0.26 -0.44,0.36 -0.72,0.39 -0.7,0.06 -0.76,-0.38 -0.98,-0.91 -0.09,-0.23 -0.37,-0.96 -0.75,-0.77 -0.18,0.09 -0.02,0.62 -0.19,0.78 -0.25,0.22 -1.37,0.05 -1.72,0.06 -0.44,0.01 -0.9,-0.04 -1.28,-0.27 -0.28,-0.17 -0.56,-0.54 -0.46,-0.9 0.02,-0.08 0.51,-0.68 0.51,-0.68 -0.73,-0.15 -1.48,-0.33 -2.08,0.49 -0.68,-0.83 0.33,-1.81 -0.36,-2.64 -0.23,0.45 -0.16,2.58 -0.96,1.45 -0,0.61 -0.33,1.27 0.43,1.82 -0.31,-0.22 -0.88,1.17 -0.93,1.3 -0.18,0.51 -0.09,1.44 -0.66,1.71 -0.19,0.09 -0.42,0.08 -0.59,0.2 -0.15,0.11 -0.2,0.3 -0.27,0.47 -0.45,1.16 -1.66,0.67 -2.54,0.57 -0.55,-0.06 -1.1,0.07 -1.65,0.08 -1.91,0.05 -3.6,-1.28 -5.49,-1.48 -0.45,-0.05 -0.92,-0.03 -1.35,-0.18 -0.98,-0.35 -0.54,-1.44 -1.64,-1.59 -0.73,-0.09 -1.33,0.4 -2.02,-0.09 -0.22,0.86 -0.26,1.13 -0.14,2.44 -0.73,-0.27 -0.98,0.7 -1.67,0.49 -0.19,-0.06 -0.36,-0.15 -0.55,-0.21 -0.4,-0.13 -0.84,-0.09 -1.23,-0.24 -0.11,-0.04 -0.21,-0.1 -0.28,-0.19 -0.2,-0.25 -0.02,-0.64 -0.08,-0.93 -0.19,-0 -0.37,-0.15 -0.54,-0.15 0,0 -0.51,0.03 -0.39,0.12 -0.68,-0.47 -0.34,-1.04 -0.9,-1.49 -0.66,1.01 -2.18,2.23 -2.62,1.08 -0.32,-0.26 -0.23,0.46 -0.05,0.8 -0.57,0.25 -1.11,0.64 -1.88,-0.62 -0.24,1.04 -0.71,0.41 -0.95,1.45 0.58,-0.95 1.66,1.65 2.14,0.03 0.66,1.25 0.05,1.84 1.33,2.52 -0.67,1.88 -1.21,-0.01 -1.49,-0.11 -0.45,1.36 0.78,0.89 0.93,2.03 -0.05,-0.37 0.26,-0.71 0.58,-0.61 0.26,0.08 0.3,0.29 0.61,0.32 0.37,0.04 0.58,-0.05 0.96,0.15 0.33,0.17 0.66,0.34 0.96,0.56 0.17,0.13 0.34,0.27 0.53,0.37 0.41,0.22 0.93,0.38 1.36,0.54 0.34,0.13 0.59,0.17 0.91,-0.07 0.36,0.66 0.61,1.06 1.31,1.35 0.22,0.09 0.42,0.15 0.61,0.31 0.11,0.09 0.7,0.91 0.59,0.99 0.76,-0.56 0.49,-1.68 1.38,-1.75 0.24,0.42 -0.15,0.91 -0.29,1.37 -0.05,0.17 0.51,0.69 0.66,0.77 0.2,0.12 0.38,0.13 0.62,0.14 0.93,0.05 1.77,-0.13 2.7,0.1 0.93,0.23 1.81,0.64 2.77,0.73 0.31,0.03 0.63,0.03 0.92,0.14 2.16,0.79 4.39,0.77 6.59,1.22 0.12,-0.36 0.31,-0.85 0.74,-0.93 0.44,-0.08 0.82,0.38 0.84,0.82 0.02,0.44 -0.21,0.85 -0.44,1.23 0.05,-0.09 0.48,-0.19 0.6,-0.35 0.2,-0.26 0.1,-0.49 0.17,-0.78 0.09,-0.39 0.16,-0.72 0.59,-0.78 0.48,-0.07 1.2,0.27 1.61,0.51 0.47,0.27 1.91,0.9 0.9,1.44 -0.33,0.17 -0.68,0.16 -0.99,0.39 -0.72,0.54 -0.29,0.86 -1.33,0.91 -0.82,0.04 -1.75,0.13 -2.59,0.3 -0.47,0.1 -0.91,0.31 -1.36,0.49 -0.92,0.37 -1.96,0.85 -2.94,0.61 -0.14,-0.03 -0.27,-0.06 -0.41,-0.07 -0.29,-0.01 -0.57,0.08 -0.84,0.16 -0.28,0.08 -0.57,0.14 -0.85,0.05 -0.36,-0.11 -0.48,-0.42 -0.43,-0.76 0.02,-0.11 0.53,-0.91 0.57,-0.84 -0.14,-0.24 -0.27,-0.48 -0.41,-0.72 0.08,0.35 -0.15,0.74 -0.49,0.85 -0.34,0.11 -0.75,-0.08 -0.89,-0.41 0.09,0.22 -0.11,0.67 -0.15,0.88 -0.09,0.45 -0.04,0.56 -0.51,0.69 -0.89,0.24 -0.28,-0.75 -0.98,-1 -0.04,-0.01 -1.21,0.01 -0.94,-0.35 -0.29,0.39 -0.08,0.72 0.15,1.06 -0.89,0.74 -2.2,-1.63 -2.85,0.83 -1.88,-0.71 -3.06,0.57 -4.75,-1.11 -0.35,1.39 -1.02,0.46 -1.55,0.71 0,1.29 0.27,1.55 -0.14,2.43 0.92,1.07 0.88,0.72 1.58,1.95 0.19,-1.33 -0.08,-0.95 0.37,-2.17 0.29,-0.2 1.12,-0.26 1.42,-0.06 0.15,0.09 0.26,0.23 0.37,0.37 0.34,0.42 -0.22,1.15 -0.22,1.66 0.49,0.65 1.58,-0.41 1.65,1.15 1.12,0.29 1.95,-1.72 3.3,0.18 -0.53,0.9 -1.24,0.49 -1.8,1.26 0.46,0.19 0.87,-0.14 1.45,0.92 0.02,-1.12 0.17,-1.13 0.63,-0.06 0.99,-2.03 2.62,0.68 3.76,-0.15 0.72,0.47 0.08,1.06 -0.11,1.62 0.56,0.9 0.88,-0.1 1.38,0.38 -0.42,-0.9 1.03,-2.35 1.68,-1.38 5.16,0.64 8.07,-0.44 13.34,0.86 0.88,-4.23 3.31,3.64 2.03,-3.14 0.03,0.16 1.63,0.71 1.87,0.83 0.51,0.26 1,0.54 1.48,0.84 0.68,0.43 2.98,1.44 2.7,2.45 -0.06,0.23 -0.27,0.4 -0.5,0.48 -0.23,0.09 -0.47,0.1 -0.71,0.13 -0.29,0.03 -0.58,0.08 -0.87,0.15 -0.37,0.09 -0.74,0.21 -1.12,0.22 -0.81,0.02 -1.07,-0.49 -1.19,-1.19 -0.4,2.46 -0.04,0.37 -2.08,0.3 -0.43,-0.14 -0.57,0.56 -0.59,0.44 -0.01,0.8 -1.18,0.6 -1.69,0.67 -0.81,0.11 -1.69,0.39 -2.27,1 -0.59,0.63 -0.09,2.2 0.33,2.9 0.36,0.61 0.92,1.04 1.57,1.31 0.19,0.08 1.44,0.3 1.5,0.45 -0.97,-2.53 2.96,2.89 3.02,1.79 0.03,-0.56 1.22,0.01 1.41,0.08 0.77,0.28 1.21,0.26 1.97,0.17 0.86,-0.1 1.93,0.31 2.73,0.57 0.93,0.31 1.83,0.69 2.73,1.07 0.4,0.17 0.8,0.34 1.21,0.51 0.11,0.05 0.23,0.1 0.31,0.19 0.1,0.11 0.14,0.27 0.16,0.42 0.05,0.28 0.08,0.59 -0.05,0.84 -0.13,0.25 -0.49,0.41 -0.72,0.24 -0.02,-0.13 -0.04,-0.25 -0.06,-0.38 -0.67,-0.12 -1.36,-0.1 -2.02,-0.23 -0.55,-0.11 -1.07,-0.35 -1.58,-0.56 -0.97,-0.39 -1.12,-0.12 -0.8,0.88 -0.34,-1.04 -2.21,-0.64 -2.92,-0.46 -1.13,0.29 -2.26,0.72 -3.43,0.73 -0.25,0 -0.49,0.1 -0.73,0.2 -0.14,0.06 -0.3,0.12 -0.44,0.07 -0.52,-0.16 0.04,-0.72 0.25,-0.84 -0.84,0.07 -0.85,0.83 -1.72,1.78 -0.1,-0.35 -0.2,-0.68 -0.46,-1.02 -0.43,0.96 0.42,0.61 0.41,1.82 -0.41,0.55 -1.05,-0.36 -1.34,0.95 2.65,1 5.16,0.85 7.66,0.78 0.79,0.44 -0.26,1.09 0.53,1.54 0.61,-0.09 0.35,-0.69 0.64,-1.41 0.79,0.99 -0.11,2.13 -0.53,3.27 -1.37,-0.46 -2.83,-0.83 -4.29,-0.86 -0.59,-0.01 -1.23,0.03 -1.78,0.27 -0.58,0.26 -0.83,0.67 -1.53,0.71 -0.92,0.05 -1.9,0.09 -2.7,-0.37 -0.11,-0.06 -0.23,-0.14 -0.36,-0.16 -0.09,-0.01 -0.18,0.01 -0.28,0.03 -0.63,0.15 -1.28,0.27 -1.87,0.52 -0.32,0.14 -0.65,0.24 -0.99,0.27 -1.02,0.08 -1.83,-0.59 -2.41,-1.36 0.39,1.29 -2.66,1.08 -1.04,-0.44 -3.06,-0.06 -1.86,1.38 -3.13,3.53 0.06,-0.1 2.03,0.18 2.28,0.25 0.24,0.07 0.46,0.17 0.62,0.37 0.21,0.26 0.16,0.67 0.37,0.9 0.22,-0.19 0.43,-0.26 0.73,-0.19 0.34,0.08 0.68,0.24 1.02,0.18 0.68,-0.12 0.81,-0.78 1.57,-0.53 0.72,0.24 1.35,0.66 1.07,1.54 -0.04,0.13 -0.11,0.25 -0.22,0.33 -0.07,0.05 -0.16,0.07 -0.24,0.09 -0.71,0.17 -1.17,-0 -1.86,-0.24 -2.32,-0.81 -2.12,0.62 -2.12,3.24 0,-1.67 -2.85,-3.82 -4.41,-2.88 -0.16,0.1 -0.3,0.22 -0.46,0.31 -0.18,0.09 -0.37,0.12 -0.57,0.16 -0.63,0.11 -1.29,0.3 -1.93,0.35 -0.31,0.02 -0.62,-0.04 -0.94,0 -0.81,0.12 -1.16,0.73 -1.22,1.51 -0.13,-2.34 -1.47,-2.9 -1.39,-0.74 -0.06,-1.25 -1.03,-1.29 -2.43,-1.49 0.27,1.92 -0.2,0.62 -0.47,-0.25 0.36,2.37 -4.31,0.64 -5.13,0.79 -1.45,1.54 -1.49,-0.04 -0.48,5.23 0.2,-1.4 0.92,1.99 1.28,-0 0.13,0.31 -0.06,0.5 0.02,0.86 0.15,-1.42 1.46,0.05 2.54,0.45 -0.04,-0.4 -0.13,-0.88 0.04,-0.63 -0.47,-1.02 0.66,-0.48 1.38,0.77 0.24,-0.16 -0.04,-1.57 0.26,-0.41 0.63,-1.6 -0.5,1.92 1.35,0.08 -0.21,2.11 -0.82,2.52 -3.82,1.5 1.62,-1.99 -0.03,-1.44 -2.03,-1.64 2.22,2.64 -2.16,1.23 0.33,4.74 -1.09,0.9 -1.76,-1.46 -3,-1.54 0.36,-1.34 1.18,0.65 1.54,-0.71 -0.82,-2.6 -2.99,2.94 -2.67,-0.24 -2.1,-1.86 0.35,1.74 -4.24,1.25 0.25,1.39 1.47,-0.78 1.63,1.17 -2,-0.89 -1.8,4.49 -0.69,0.86 0.51,1.84 0.53,4.65 1.32,1.2 3.32,0.2 8.62,-1.55 4.96,2.66 2.09,-0.4 4.38,-1.3 6.48,-0.65 1.13,0.35 2.22,0.9 3.4,1.04 0.94,0.11 1.9,-0.06 2.85,-0.03 2.59,0.09 4.88,1.67 7.4,2.32 1.81,0.46 3.72,0.44 5.51,0.97 0.82,0.24 1.59,0.61 2.36,1 -0.01,0.39 0.12,0.91 -0.21,1.47l-0.66 -1.06c-0.31,0.26 -0.41,1.43 -0.85,0.26 0.05,0.28 0.13,0.73 -0.08,0.86 -1.39,-0.66 -2.91,-0.04 -4.43,0.28 -1.52,0.39 -3,0.35 -4.47,0.26 0.39,0.1 0.11,0.22 -0.2,0.3 0.2,0 -0.03,0.27 -0.01,0.41 -0.4,-0.08 -0.81,-0.12 -1.22,-0.11 -0.26,0.28 -1.36,0.32 -1.51,0.46l0.4 -0.08c-0.27,0.11 -0.09,0.13 0.13,0.26 0.22,0.12 0.49,0.34 0.44,0.49 0.3,-0.05 0.66,0.15 1.06,0.46 0.4,0.28 0.84,0.7 1.35,0.41 0.19,0.23 -0.2,0.17 -0.11,0.38 0.27,-0.2 0.56,-0.22 1.07,0.14l-0.07 0.07c1.49,0.45 2.08,1.09 3.71,2.23l-0.06 -0.78c0.35,0.22 0.41,0.49 0.56,0.75 0.51,-1.01 -1,-0.44 -0.52,-1.53 0.17,0.8 0.8,1.06 1.42,1.29 0.61,0.24 1.21,0.49 1.28,1.62 0.55,0.23 -0.08,-1.13 0.48,-0.92l0.1 0.65 0.2 -0.73c0.35,0.24 0.48,1.08 0.45,1.62 -0.08,-0.1 -0.26,0.04 -0.36,0.05 0.41,0.95 1.35,0.28 1.49,0.59l-0.5 -0.61c1.57,-0.14 3.35,1.6 4.94,0.34l-0.07 -0.65c1.21,-0.91 0.86,0.91 2.14,0.67l-0.05 0.15c0.29,-0.61 0.64,-0.88 0.98,-0.73 -0.36,0.73 0.7,1.61 1.67,-0.92l0.12 1.25c0.34,-1.05 0.4,-1.63 1.04,-1.87 -0.57,0.99 1.09,2.89 1.46,2.17 -0.22,-1.21 0.64,-2.64 1.03,-2.24 0.32,0.09 0.43,2.93 0.95,4.31 -1.6,0.07 -3.2,0.09 -4.78,-0.11 -2.59,-0.32 -5.92,-0.98 -7.51,1.74 -0.15,-1.47 -0.62,-0.99 -0.19,-0.25 -0.57,2.25 -1.91,-1.09 -2.51,0.81 -1.14,-0.85 -0.57,-0.92 -0.66,0.07 -0.48,1.02 -0.79,-0.95 -1.04,-0.43 -0.23,-0.42 0.15,-0.9 0.31,-1.35 -0.62,-0.31 -1.38,0.55 -0.95,1.43 -1.4,-1.65 -1.14,-0.06 -2.24,-1.9 -0.91,1.17 -1.06,0.77 -2.26,0.25 -0.04,0.72 0.64,1.35 -0.04,2.13 0.34,0.41 0.67,0.83 0.99,1.23 0.61,-0.01 0.11,-1.39 0.99,-0.11 0.27,-0.39 0.08,-0.73 -0.15,-1.04 0.59,-0.02 1.26,-0.28 1.84,-0.18 0.65,0.11 1.26,0.59 1.84,0.89 1.51,0.79 3.02,1.57 4.53,2.36 0.43,0.23 0.89,0.46 1.38,0.45 0.52,-0 0.99,-0.27 1.5,-0.4 1.34,-0.34 2.74,0.33 3.82,1.19 1.08,0.87 1.98,1.95 3.17,2.67 1.1,0.67 2.38,0.98 3.54,1.53 1.16,0.55 2.28,1.46 2.54,2.72 0.16,0.77 0.37,0.84 0.76,1.34 0.09,0.11 0.87,1.11 0.61,1.25 0.74,-0.4 0.64,-1.54 1.44,-1.43 0.26,0.85 -0.68,1.28 -0.03,2.24 0.49,0.71 1.32,0.94 2.15,1.06 0.8,0.11 1.64,0.13 2.39,0.45 0.79,0.33 1.4,0.97 2.15,1.39 1.11,0.63 2.4,0.71 3.62,0.99 0.47,0.11 1.09,0.48 1.58,0.42 0.53,-0.07 0.82,-0.65 1.44,-0.3 0.37,0.21 0.56,0.68 0.43,1.08 -0.02,0.08 -0.06,0.17 -0.03,0.25 0.03,0.06 0.09,0.09 0.15,0.12 0.32,0.13 0.7,0.03 1,-0.14 0.31,-0.16 0.58,-0.39 0.91,-0.52 0.32,-0.13 0.73,-0.15 0.99,0.07 0.1,0.08 0.17,0.19 0.26,0.27 0.27,0.25 0.68,0.3 0.91,0.58 0.02,0.03 0.05,0.06 0.05,0.1 0.01,0.06 -0.03,0.12 -0.07,0.16 -0.43,0.47 -1.11,0.1 -1.67,0.16 -0.22,0.02 -0.45,0.06 -0.61,0.23 -0.07,0.08 -0.3,0.75 -0.15,0.77 -1.11,-0.19 -2.31,-0.04 -3.45,0.01 -3.3,0.16 -6.74,0.3 -9.79,-0.99 -0.47,-0.2 -0.95,-0.44 -1.46,-0.48 -0.66,-0.06 -0.92,0.49 -1.42,0.55 -0.31,0.04 -1.1,-0.33 -1.46,-0.41 -0.4,-0.08 -2.74,-0.62 -2.42,-1.42 -0.5,1.26 -0.97,0.18 -1.46,0.29 -0.2,1.26 0,1.58 -0.51,2.31 0.67,1.28 0.68,0.93 1.14,2.29 0.35,-1.23 0.08,-0.93 0.64,-2.01 0.63,-0.26 1.28,0.7 1.94,-0.57 0.38,0.99 -0.65,1.87 -0.78,2.83 0.36,0.71 1.51,-0.1 1.37,1.44 1.01,0.51 2.02,-1.3 3.06,0.83 -0.61,0.77 -1.23,0.21 -1.84,0.89 0.4,0.26 0.82,0.01 1.24,1.17 0.16,-1.1 0.3,-1.09 0.61,0.06 1.16,-1.76 2.4,1.2 3.59,0.53 0.65,0.56 0.66,0.25 -0.18,-0.81 -0.03,-0.44 0.03,-0.87 0.12,-1.31 0.38,-0.08 0.75,0.23 1.11,0.34 0.19,0.52 -0.34,1.03 0.36,1.59 0.38,-0.43 0.28,-0.86 0.43,-1.31 0.2,-0.2 0.42,0.36 0.62,0.04 0.43,1.15 -0.31,0.59 -0.27,1.57 -0.44,0.67 -0.96,-0.95 -1.39,0.2 4.9,1.45 9.84,1.43 15,3.13 -0.29,-0.1 0.29,-0.46 0.37,-0.47 0.09,-0.01 0.96,0.52 1.18,0.56 1.32,0.25 2.66,0.1 3.98,0.47 0.61,0.17 1.21,0.41 1.84,0.48 0.57,0.07 1.15,0 1.72,0.04 1.83,0.11 3.53,1.24 5.36,1.12 0.65,-0.04 1.28,-0.24 1.92,-0.38 2.96,-0.66 6,-0.06 8.85,0.83 2.19,0.69 4.2,1.95 6.57,1.52 0.63,-0.11 1.25,-0.32 1.88,-0.42 0.8,-0.12 1.61,-0.06 2.42,-0 1.2,0.09 2.4,0.17 3.6,0.26 0.18,0.01 0.37,0.03 0.55,-0.04 0.3,-0.11 0.48,-0.42 0.75,-0.58 0.59,-0.37 1.55,-0.96 2.28,-0.71 0.27,0.09 0.47,0.33 0.7,0.49 0.38,0.27 0.83,0.45 1.25,0.66 0.12,0.06 0.24,0.13 0.32,0.23 0.09,0.12 0.11,0.27 0.12,0.42 0.07,0.6 0.14,1.19 0.2,1.79 0.02,0.17 0.04,0.34 0.01,0.51 -0.04,0.26 -0.2,0.49 -0.35,0.71 -0.34,0.5 -0.98,0.92 -1.54,1.13 -0.26,0.1 -0.56,0.18 -0.84,0.11 -0.12,-0.03 -0.58,-0.25 -0.55,-0.41 -0.21,1.15 -1.39,1.92 -2.1,3.24 -0.25,-2.22 -2.57,0.32 -3.59,0.51 -3.64,0.71 -7.42,0.42 -11.05,1.15 -1.44,0.29 -2.86,0.73 -4.33,0.71 -1.06,-0.02 -2.1,-0.28 -3.15,-0.4 -1.29,-0.15 -2.59,0.06 -3.88,0.17 -0.64,0.06 -1.26,0.08 -1.9,0.04 -0.62,-0.03 -1.23,0.1 -1.86,0.02 -0.37,-0.04 -0.74,-0.14 -1.1,-0.07 -0.4,0.07 -0.79,0.34 -1.18,0.24 -0.63,-0.15 -1.01,-0.63 -1.7,-0.67 -0.6,-0.04 -1.2,0.07 -1.79,0.18 -0.58,0.11 -1.15,0.31 -1.73,0.38 -0.59,0.06 -1.24,-0.22 -1.78,-0.45 -0.16,-0.07 -0.32,-0.14 -0.49,-0.18 -1,-0.22 -1.57,1.15 -2.18,1.69 -0.08,-0.37 -0.15,-0.7 -0.42,-1.06 -0.5,0.9 0.41,0.65 0.3,1.84 -0.47,0.49 -1.06,-0.45 -1.48,0.78 2.7,1.33 5.35,1.27 7.98,1.41 0.82,0.51 -0.33,1.07 0.49,1.58 0.64,-0.04 0.39,-0.66 0.73,-1.35 0.78,1.04 -0.22,2.12 -0.75,3.2 -1.2,-0.03 -2.12,-1.24 -3.32,-1.25 -0.92,-0.01 -2.1,0.72 -3.02,0.98 -0.68,0.19 -1.36,0.39 -2.07,0.42 -1.76,0.1 -3.38,-0.76 -5.11,-0.92 -1.6,-0.15 -2.81,-0.86 -3.77,-2.17 -0.11,-0.16 -0.25,-0.33 -0.45,-0.34 -0.07,-0 -0.14,0.02 -0.21,0.04 -0.68,0.19 -1.51,0.21 -2.06,-0.29 -0.33,0.22 -0.63,1.65 -1,1.01 0.21,1.14 -0.15,1.43 -0.76,2.32 1.13,-0.1 1.7,0.99 2.33,1.75 0.6,0.73 1.53,1.12 2.45,1.34 0.92,0.23 1.88,0.32 2.78,0.6 0.79,0.24 1.55,0.63 2.36,0.77 2.59,0.46 5.14,0.51 7.72,1.17 0.91,-1.72 2.16,0.58 3.11,-0.63 -0.18,0.23 1.18,0.87 1.36,0.9 0.49,0.08 0.97,-0.07 1.42,-0.22 0.42,-0.14 0.94,-0.43 1.39,-0.4 0.64,0.04 0.87,0.58 1.26,0.98 0.36,0.37 0.98,0.64 0.94,1.15 -0.03,0.32 -0.35,0.55 -0.67,0.6 -0.32,0.05 -0.65,-0.04 -0.97,-0.1 -0.12,-0.02 -0.24,-0.04 -0.35,0 -0.15,0.06 -0.23,0.21 -0.33,0.33 -0.57,0.75 -1.7,0.82 -2.6,0.53 -0.28,-0.09 -0.56,-0.2 -0.85,-0.16 -0.18,0.02 -0.34,0.11 -0.5,0.19 -0.37,0.19 -0.83,0.53 -1.24,0.62 -0.29,0.06 -0.51,-0.05 -0.8,-0.06 -0.71,-0.02 -1.35,0.42 -1.91,0.82 -1.1,0.77 -2.6,0.71 -3.88,0.57 -1.44,-0.16 -2.87,-0.5 -4.33,-0.49 -1.41,0.01 -2.81,0.35 -4.21,0.22 -1.13,-0.11 -2.21,-0.51 -3.32,-0.71 -0.64,-0.12 -1.32,-0.18 -1.97,-0.05 -0.62,0.12 -0.91,0.65 -1.54,0.58 -0.56,-0.07 -1.13,-0.13 -1.69,-0.2 -0.22,-0.03 -0.45,-0.05 -0.64,-0.16 -0.37,-0.2 -0.57,-0.65 -0.97,-0.78 -0.35,-0.12 -0.72,0.05 -1.08,0.13 -0.64,0.15 -1.43,0.05 -1.95,-0.35 -0.59,-0.46 -1.4,-0.46 -2.15,-0.52 -1.4,-0.11 -2.77,-0.56 -4.15,-0.82 -0.44,-0.08 -0.89,-0.15 -1.34,-0.1 -0.54,0.07 -0.94,0.41 -1.45,0.53 -0.39,0.1 -0.66,-0.08 -0.84,0.41 -0.17,0.48 -0.78,0.76 -1.26,0.56 -0.24,-0.1 -0.42,-0.28 -0.62,-0.43 -0.55,-0.4 -1.28,-0.55 -1.94,-0.38 -0.14,0.04 -0.28,0.08 -0.43,0.06 -0.64,-0.11 0.17,-0.96 0.31,-1.17 -0.37,-1.34 -0.93,-0.26 -1.33,-1.3 -0.36,0.46 0.4,1.13 0.2,1.64 -1.35,0.66 -2.46,-0.99 -3.78,-0.64 -0.16,1.38 0.93,0 1.36,0.89 0.08,0.27 -0.04,0.49 0.11,0.82 -0.87,-0.74 -1.22,0.21 -2.29,0.52 -0.11,1.5 0.84,1.24 1.3,0.04 0.76,0.89 -0.97,1.4 0.19,1.66 -0.34,0.35 -0.31,0.82 -0.62,1.09 0.15,0.12 0.31,0.25 0.46,0.48 0.76,-0.46 0.6,-1.13 1.11,-1.63 1.09,0.33 2.14,1 3.33,0.19 1.12,2.9 2.65,0.79 3.94,1.79 -0.22,2.09 -2.11,0.4 -2.42,2.21 2.12,-0.49 3.27,1.67 5.63,-0.06 0.16,0.38 0.3,0.8 0.52,1.15 0.07,0.11 0.17,0.26 0.3,0.31 0.18,0.08 0.34,-0.08 0.54,-0.04 0.1,0.02 0.18,0.08 0.27,0.13 0.69,0.43 1.56,0.53 2.35,0.33 0.68,-0.17 1.4,-0.57 2.11,-0.3 -1.73,0.9 -2.86,1.92 -3.25,1.97 0.5,1.98 2.79,-0.45 3.96,-0.81 0.04,0.7 0.15,1.11 0.87,1.34 0.66,0.21 1.34,0.37 2.02,0.48 0.19,0.03 0.39,0.06 0.55,0.18 0.1,0.08 0.17,0.19 0.25,0.3 0.43,0.6 1.09,0.99 1.81,1.14 0.4,0.09 0.91,0.15 1.31,0.06 0.46,-0.1 0.91,-0.27 1.37,-0.04 0.22,0.11 0.4,0.3 0.6,0.45 0.24,0.17 0.52,0.28 0.81,0.32 0.32,0.04 0.49,0.51 0.43,0.81 -0.05,0.25 -0.15,0.29 0.1,0.43 0.12,0.07 0.26,0.07 0.39,0.07 0.29,-0.02 0.54,-0.18 0.83,-0.19 0.38,-0.01 0.8,0.08 1.18,0.12 0.1,0.01 0.21,0.02 0.29,0.08 0.07,0.05 0.11,0.12 0.18,0.16 0.21,0.13 0.46,-0.03 0.69,-0.12 0.23,-0.09 0.48,-0.1 0.71,-0.18 0.55,-0.19 0.94,-0.44 1.55,-0.42 0.53,0.02 1.06,0.17 1.54,0.38 0.52,0.23 0.93,0.55 1.32,0.95 0.28,0.29 0.58,0.52 0.8,0.89 0.41,0.7 0.62,1.64 1.37,2.08 0.33,0.19 0.71,0.25 1.07,0.38 0.25,0.09 0.49,0.21 0.7,0.36 0.12,0.09 0.25,0.18 0.39,0.21 0.24,0.05 0.47,-0.09 0.71,-0.17 0.34,-0.12 0.75,-0.12 1.1,-0.03 0.18,0.04 0.79,0.36 0.79,0.58 0.01,-1.35 0.82,-1.16 0.21,-2.64 0.64,1.14 1.21,-0.61 2.27,0.47 -0.68,-1.91 1.46,-0.85 1.33,-2.16 1.4,0.73 -0.66,1.6 0.37,2.36 0.47,-1.08 1.03,-1.16 1.6,-0.83 0.09,0.05 0.06,0.65 0.04,0.75 -0.04,0.27 -0.15,0.46 -0.06,0.74 0.07,0.21 0.2,0.39 0.34,0.56 0.13,0.15 0.28,0.3 0.46,0.39 0.13,0.06 0.27,0.1 0.39,0.17 0.26,0.14 0.44,0.4 0.69,0.54 0.28,0.16 0.61,0.16 0.93,0.18 0.44,0.02 0.87,0.08 1.3,0.17 0.39,0.08 0.79,0.27 1.19,0.29 0.71,0.05 1.42,0.06 2.14,0.01 1.2,-0.09 2.77,-0.39 3.69,0.62 0.14,0.15 0.25,0.32 0.34,0.51 0.78,0.15 1.52,0.11 2.27,0.35 0.17,-2.04 1.59,-0.72 2.47,-1.29 0.11,0.44 -0.14,0.9 0.33,1.3 -0.11,-1.39 1.2,-1.56 1.25,-0.37 1.83,-1.78 4.14,0.35 5.99,-0.88 -0.67,-0.68 0.27,-1.26 0.52,-1.66 0.41,0.59 -0.58,1.32 -0.29,1.91 1.86,1.08 3.32,-0.79 4.99,-1.11 0.26,1.99 2.28,1.83 2.45,0.49 0.49,0.92 0.76,0.21 1.23,0.91 0.44,-3.01 4.77,0.61 6.41,-2.19 2.02,2.67 4.11,-2.52 5.82,0.23 -0.58,-0.21 -1.04,0.3 -1.55,0.51 0.63,1.38 2.08,-0.93 3.54,-0.53 0.58,0.17 2.84,1.47 2.65,-0.12 0.25,-0.67 0.83,0.7 1.22,0.88 1.05,-1.22 2.44,-0.49 3.44,-1.87 1.61,0.79 4.61,-0.01 6.85,-0.24 17.89,-0.97 35.43,-2.68 52.79,-5.01 0.23,0.27 0.56,0.52 0.96,0.75 -0.1,0.08 -0.19,0.15 -0.29,0.24 -0.4,-0.39 -1.48,1.12 -1.92,0.75 -0.7,0.25 -1.39,0.6 -2.09,0.88 -0.36,-0.05 -0.75,-0.04 -1.16,0.05 -0.73,0.17 -1.46,0.32 -2.19,0.46 -0.3,-0.56 -1.14,-0.52 -1.1,0.21 -0.1,0.02 -0.19,0.03 -0.29,0.05 -2.3,-1.16 -3.94,1.75 -6.32,0.12 -0.05,0.59 -0.24,0.94 -0.51,1.14 -0.08,0.04 -0.16,0.09 -0.23,0.13 -0.6,0.2 -1.45,-0.23 -2.2,-1.06 -0.31,0.4 -0.07,0.73 0.17,1.04 -2.07,-0.55 -3.87,0.49 -5.97,-0.13 -0.08,0.45 0.2,0.87 0.07,1.34 -2.93,-0.41 -6.4,2.12 -8.9,0.04 -0.12,0.29 0.16,0.51 0.3,0.76 -3.15,0.04 -6.06,1.47 -9.37,0.4 -1.96,1.55 -5.76,1.06 -8.52,1.36 -0.55,0.69 0.34,1.18 -0.19,1.88 -0.23,0.16 -0.42,0.31 -0.69,0.09 0.15,-2.96 -2.36,-0.96 -3.45,-1.59 -0.07,1.47 0.83,0.14 1.21,0.87 0.49,1.08 -0.63,0.95 -0.86,1.23 -1.25,-2.29 -2.74,-1.44 -4.82,-1.33 -2.61,0.14 -4.53,0.52 -6.86,1.84 -2.3,1.3 -4.66,2.84 -7.31,2.87 -1.42,0.01 -4.43,-0.84 -5.04,0.97 -1.31,-1.98 -2.39,0.71 -3.13,-1.2 -0.49,3.27 -3.57,-1.22 -4.8,1.4 -1.62,-0.53 -3.07,0.49 -4.71,-0.29 -0.6,-0.67 0.93,-0.19 -0.13,-1.03 -1.06,1.37 -2.8,1.23 -4.38,1.32 -3.47,0.2 -6.66,2.46 -10.13,2.24 -1.31,-0.09 -2.57,-0.52 -3.88,-0.66 -3.49,-0.37 -7.18,1.39 -10.43,0.05 -0.81,-0.33 -0.84,-1.07 -0.29,-1.63 -0.85,-0.27 -0.87,0.44 -0.89,1.33 -0.39,0.09 -0.75,-0.14 -1.05,-0.62 -0.12,0.19 -0.17,0.39 -0.15,0.61 -1.3,-0.03 -2.63,-0.41 -3.93,-0.16 -0.46,0.09 -0.92,0.23 -1.39,0.27 -0.64,0.05 -1.27,-0.11 -1.89,-0.25 -1.51,-0.33 -3.04,-0.54 -4.58,-0.61 -1.35,-0.07 -2.44,-0.71 -3.8,-0.85 -0.45,-0.05 -0.93,-0.06 -1.33,0.16 -0.4,0.22 -0.64,0.76 -0.4,1.14 0.11,0.18 0.35,0.29 0.55,0.22 0.14,-0.05 0.24,-0.17 0.36,-0.25 0.51,-0.34 1.17,0.07 1.68,0.4 1.47,0.94 3.23,1.28 4.9,1.77 1.63,0.48 3.2,1.11 4.71,1.88 1.06,0.54 2.38,0.48 3.24,1.35 0.16,-0.44 -0.07,-0.89 0.13,-1.34 0.44,-0.43 0.92,0.2 1.38,-0.26 0.05,0.43 -0.04,0.88 -0.12,1.29 1.29,-0.8 2.82,-0.24 4.18,0.11 1.33,0.34 2.72,0.34 4.1,0.43 1.39,0.08 2.77,0.25 4.14,0.5 0.57,0.1 2.66,0.18 2.84,0.69 0.59,-0.57 2.34,-0.19 3.1,-0.13 1.2,0.09 2.45,0.36 3.65,0.32 2.39,-0.08 4.8,-0.65 7.18,-0.2 1.08,0.21 2.13,0.62 3.23,0.66 1.01,0.03 1.99,-0.26 2.98,-0.44 1.67,-0.29 3.39,-0.25 5.04,0.14 0.82,0.19 1.61,0.46 2.44,0.56 0.95,0.12 1.9,0.02 2.84,0.05 0.72,0.02 1.62,0.42 2.31,0.34 0.66,-0.08 0.78,-0.79 1.36,-0.9 0.2,-0.04 1.43,0.56 1.38,0.66 0.28,-0.58 -0.41,-1 0.13,-1.62 1.67,1.52 4.44,-1.78 5.04,0.6 2.19,-0.61 5.49,0.45 6.87,-1.29 1.35,1.3 2.23,-0.47 3.63,1.31 0.5,-1.6 1.47,-0.39 1.95,-2.17 0.71,0.41 0.38,1.01 0.95,1.46 4.08,-0.61 7.9,-1.88 12.16,-0.85 -0.01,-0.54 0.18,-1.08 -0.06,-1.23 3.33,0.38 6.63,0.51 9.64,-1.07 0.68,-0.78 1.81,1.02 2.57,0.68 0.09,-0.38 -0.34,-0.67 -0.18,-1.06 1.1,0.39 2.51,0.82 3.74,-0.58l1.29 1.42c3.23,-1.97 6.85,-1.56 10.44,-1.37 0.06,-0.28 -0.09,-0.52 0.03,-0.83 6.21,0.18 12.01,-2.01 18.13,-2.3 0.1,-0.29 0.32,-0.49 0.59,-0.66l-0.01 1.34c0.63,-1.81 5.04,-0.99 7.64,-1.47 1.42,-0.24 2.35,-1.45 3.61,-0.29l0.52 -1.15c1.04,1.81 2.11,-1.1 3.6,0.5 2.52,-2.31 7.01,-0.83 10.15,-2.9l0.23 0.25c0.01,-0.01 0.03,-0.01 0.04,-0.02l0.63 0.68c4.05,-2.6 8.8,-1.14 12.83,-3.9 2.22,1.29 3.69,-1.64 5.89,-0.37 0.89,-1.75 2.32,-0.08 3.24,-1.59 3.36,0.5 6.43,-0.67 9.48,-2.03 7.1,-0.77 13.78,-4.09 20.9,-4.9l0.5 -1.15c0.26,-0.32 0.4,0.39 0.3,0.75 3.5,-1.58 6.19,-1.96 9.68,-3.59l0.21 0.23c0.07,-0.03 0.12,-0.08 0.16,-0.14l0.69 0.75c0.33,-0.15 0.33,-0.6 0.38,-0.96 0.23,-0.03 0.43,-0.19 0.55,-0.42 0.08,0.03 0.16,0.05 0.28,0.12 0.24,0.47 -0.24,0.27 -0.4,0.86 0.54,0.24 1.22,-0.16 1.06,-0.98 27.52,-5.84 53.15,-16.8 80.13,-24.67l0.39 -0.87c3.83,-0.04 7.69,-2.01 11.66,-1.32 0.6,-0.46 0.84,-2.33 1.27,-0.73 0.37,-0.87 1.8,-1.74 2.98,-1l0.51 -1.15c1.28,-0.2 2.61,-0.11 3.71,-1.37 0.09,-0.03 0.18,-0.05 0.27,-0.08 6.39,-0.21 12,-4.95 18.62,-3.73l0.5 -1.14c1.27,1.02 3.02,0.23 3.32,-1.08 0.41,0.39 0.31,0.85 0.75,1.23 0.08,-2.05 0.87,-0.96 1.48,-0.51 1.32,-1.98 10.05,-4.79 11.08,-4.96 0.71,1.25 2.99,-0.98 4.85,-2.36l1.07 1.17c0.06,1.21 0.37,-0.74 -0.51,-1 0.68,-1.5 1.61,-1.38 2.72,-2.58 0.44,1.08 4.15,-0.31 5.07,-2.13 0.24,0.31 -0.05,0.72 -0.16,1.08 0.39,0.26 0.57,-0.69 1.11,0.39 -0.58,-1.39 0.49,-0.72 0.88,-2.01 3.3,1.34 5.58,-4.84 8.69,-2.46 0.11,-2.49 2.01,-2.45 2.98,-3.16 0.26,1.69 6.78,0.27 8.57,-2.15 2.6,-0.53 5.19,-1.15 7.32,-4.36 1.58,0.05 3.79,-1.73 4.46,-3.66 0.01,-0 0.01,-0 0.02,-0.01 1.1,0.1 2.3,-0.61 3.57,-1.54 2.77,-1.21 6.28,-0.12 8.96,-1.32 0.39,0.09 0.78,0.23 1.17,0.46 -0.17,-0.31 -0.28,-0.58 -0.34,-0.82 1.74,-0.78 3.54,-1.58 5.25,-2.35l2.33 -0.75 5.68 -2.41c0.15,0.19 0.26,0.38 0.28,0.55 0.48,0.18 0.69,-0.36 0.87,-1.04l6.15 -2.61 0.44 0.52c0.14,-0.2 0.1,-0.45 -0.01,-0.7l1.52 -0.65c-0.08,0.52 0.41,0.3 0.37,-0.16l0.26 -0.11 0.39 -1.31c0.21,-0.1 0.42,-0.21 0.62,-0.31l0.05 0.04c0.14,2.77 1.26,0.9 1.8,-0.28 2.45,-0.58 4.54,-2.58 7.05,-3.21l0.42 0.22c-0.05,-0.1 -0.11,-0.18 -0.17,-0.27 0.14,-0.03 0.27,-0.04 0.41,-0.06l1.31 0.68c-0.1,-0.18 -0.2,-0.33 -0.31,-0.49 0.32,0.1 0.69,0.26 1.21,0.65 -0.11,-0.14 -0.33,-0.36 -0.56,-0.6 0.61,0.31 1.08,0.16 2.13,0.96 -0.32,-0.4 -1.25,-1.27 -2.08,-2.24 0.08,0.06 0.15,0.12 0.22,0.14 1.4,-0.69 1.09,-0.71 -0.34,-0.28 -0.12,-0.14 -0.24,-0.27 -0.35,-0.42 0.04,-0.09 0.07,-0.23 0.08,-0.45l-0.25 -0.35c0.63,0.04 2.1,0.47 2.79,0.49 0.04,-0.12 0.13,-0.21 0.25,-0.28 -0.81,-0.33 -2.01,-0.84 -2.46,-0.96 0.48,0.05 1.87,0.53 2.87,0.81 1.08,-0.27 3.05,0 2.97,-0.94 0.84,-0.11 0.55,0.54 1.73,-0.54 1.01,0.31 1.41,-0.29 1.74,-1.36 0.37,-0.14 0.76,-0.27 1.14,-0.4 0.07,0.37 0.09,0.75 0.36,1.02l-0.14 -1.1c0.47,-0.16 0.92,-0.35 1.4,-0.49 5.31,-0.4 8.63,-6.89 14.44,-7.99 1.07,0.46 5.52,-2.97 8.14,-5.28 0.35,0.07 0.68,-0.06 0.86,-0.78 0.55,-0.52 0.93,-0.91 1.05,-1.11 0,-0 0,-0 0,-0 0.12,0.11 0.22,0.19 0.37,0.33 -0.08,-0.06 -0.19,-0.19 -0.3,-0.38 0.18,-0.14 0.36,-0.24 0.54,-0.36 0.08,0.22 0.15,0.4 0.15,0.48l-0.07 -0.53c0.39,-0.26 0.77,-0.49 1.13,-0.69 0.27,0.4 0.53,0.76 0.74,1.01 -0.52,-0.73 1.17,-0.47 1.33,-1.04l-0.87 -0.58c0.2,-0.09 0.41,-0.19 0.6,-0.27 0.82,1.18 1.28,1.16 1.57,0.63 -0.08,0.39 0.02,0.77 0.94,2.23 1.39,0.41 -0.86,-2.38 0.54,-1.7 -0.18,-0.89 -0.96,-0.66 -1.2,-1.26 0.09,-0.3 0.18,-0.59 0.27,-0.84 0.25,-0.12 0.49,-0.25 0.73,-0.4 0.22,0.21 0.5,0.64 0.87,1.46l-0.52 -1.68c0.08,-0.05 0.17,-0.12 0.25,-0.18 0.02,0.02 0.03,0.03 0.05,0.05 0.02,0.21 0.06,0.45 0.07,0.63 0.4,0.27 0.6,0.51 0.76,0.7 0.11,0.27 0.18,0.52 0.16,0.74l0.2 -0.47c0.12,0.03 0.26,-0 0.49,-0.15 0.83,0.97 0.36,1.91 0.15,2.09 0,0 2.59,-3.36 1.53,-5.34l-0.88 3.52c-0.24,-0.46 -0.46,-1.03 -0.66,-1.63l0.04 -0.1c-0.04,-0.05 -0.09,-0.11 -0.13,-0.16 -0.12,-0.38 -0.19,-0.78 -0.28,-1.17 0.01,-0 0.01,-0.01 0.02,-0.01 0.28,-0.29 0.96,-0.61 1.59,-0.89 0.32,0.3 0.65,0.64 0.91,0.98 0.01,0.02 0.01,0.04 0.02,0.05 -0.01,0 -0.02,0.01 -0.04,0.01l0.06 0.05c0.07,0.17 0.13,0.32 0.18,0.42 -0.04,-0.18 -0.02,-0.37 -0,-0.56 0.24,-0.17 0.45,-0.67 0.69,-1.2 0.09,-0.01 0.18,-0.03 0.26,0.07l0.05 1.57c1.21,0.54 -0.32,-3.81 1.73,-1.94 0.39,0 2.46,2.66 1.82,1.2 -0.38,-0.51 -0.87,-1.29 -1.39,-2.2 0.15,-0.08 0.31,-0.14 0.46,-0.25 0.08,-0.06 0.16,-0.12 0.25,-0.18 0.34,0.71 0.78,1.76 1.39,1.9l-1.15 -1.76c0.41,-0.6 0.76,-0.35 1.64,0.91l-0.59 -0.97c0.15,0.14 0.31,0.23 0.52,0.2 -0.31,-0.13 -0.56,-0.38 -0.79,-0.64l-0.11 -0.17c-0.01,-0.03 -0.02,-0.07 -0.03,-0.1 0.18,-0.12 0.36,-0.25 0.53,-0.38 0.16,0.24 0.34,0.37 0.56,0.12 -0.07,-0.17 -0.1,-0.28 -0.14,-0.42 0.03,-0.03 0.07,-0.05 0.11,-0.08 0.37,-0.31 1.37,-1.4 2.01,-2.45 0.67,0.6 1.83,2.01 1.83,2.01l1.33 -0.83c0.06,-0.87 -2.5,-4.88 -0.87,-3.98l1.13 1.14c-0.17,-0.12 -0.36,-0.88 -0.46,-1.25l1.1 1.02c-0.27,-1.43 -0.12,-1.83 0.22,-1.76 0.1,0.19 0.2,0.38 0.25,0.63 -0.01,-0.16 -0.03,-0.35 -0.05,-0.55 0.18,0.1 0.38,0.26 0.6,0.45 -0.05,0.26 0.04,0.64 0.69,1.41 -0.16,-0.37 -0.24,-0.71 -0.26,-1.03 0.69,0.61 1.35,1.11 1.43,0.04 -0.15,0.49 -0.75,0.35 -1.13,-1.14 -0.01,-0.62 0.5,-0.23 0.95,0.39l-0.27 -0.5 0.81 0.52c-0,0.53 0.06,0.93 0.61,0.56 -0.02,-0.06 -0.01,-0.12 -0.02,-0.18l1.79 1.15c-0.58,-1.08 -1.34,-1.21 -1.81,-1.93 -0,-0.24 -0.08,-0.44 -0.27,-0.58 -0.05,-0.18 -0.1,-0.39 -0.12,-0.63 -0.57,-2.24 0.93,-0.23 1.35,-0.22 0.46,1.24 0.24,2.61 1.18,2.99 -0.17,-0.64 -0.05,-2.17 -0.71,-2.93 1.2,0.97 2.48,-0.62 2.96,-1.47l-2.26 -2.28c-0.02,-0.37 -0.02,-0.7 -0,-1 0.92,-0.38 1.92,-0.72 2.95,-0.38 -0.03,-0.54 0.02,-1.13 -0.13,-1.66 1.38,0.42 2.92,1.28 3.81,0.96 -0.04,1.48 0.96,1.02 -1.07,-2 -0.04,-0.05 -0.05,-0.1 -0.08,-0.15l-0.05 -0.09c-1.18,-2.04 -0.27,-2.49 -0.03,-2.61 0.24,0.33 0.48,0.63 0.71,0.92l0.21 0.7 0.49 0.11c1.72,1.86 3.09,2.24 3.65,0.5l-0.28 -2.45c0.13,0.06 0.26,0.14 0.42,0.27 0,-0.03 -0.02,-0.09 -0.02,-0.12 1.51,2.33 2.7,3.47 2.7,3.47 -0.04,-0.86 0.04,-1.18 0.17,-1.22 -1.07,-1.17 -2.25,-2.5 -3.31,-3.76 -0.05,-0.12 -0.12,-0.25 -0.18,-0.37 1.79,0.31 3.54,1.28 3.01,0.28 1.14,-1.59 4.73,2.58 6.18,2.73 -0.23,-1.98 -1.47,-0.77 -2.3,-3.51 1.04,0.76 3.29,-0.3 0.76,-3.08 0.17,-0.25 6.12,-0 8.5,0.81 -0.54,-1 -0.9,-1.88 -1.09,-2.62 -0.75,0.36 -2.29,-0.18 -3.71,-2.43 -0.23,-1.99 2.12,0.05 2.12,0.05 2.42,1.79 2.51,3.61 3.65,2.02 0.22,-2.2 0.07,0.41 -1.02,-2.22 0.78,0.89 0.77,-2.45 2.29,0.18 0,0 1.55,1.15 0.75,-0.35 -0.92,-2.5 0.03,-2.7 -1.58,-3.64 -1.35,0.25 -2.38,0.57 -2.14,-0.01 0,0 -1.9,0.13 -2.69,0.56 -0,-0.67 -0.38,-1.72 -0.68,-2.14 -0.52,1.63 -1.51,2.08 -2.56,2.52l-0.1 0.04c-0.73,0.31 -1.47,0.67 -2.09,1.41 -0.08,-0.25 -0.15,-0.2 -0.13,0.15 -0.03,0.03 -0.06,0.05 -0.08,0.09l-0.94 -0.39c-0.4,0.84 -4.89,-0.38 -4.89,-0.3 -0.16,-0.3 -0.32,-0.57 -0.49,-0.94 -0.11,0.24 -0.26,0.39 -0.41,0.57 -0.11,-0.47 -0.16,-1 -0.09,-1.33l-0.04 0.04c0.07,-0.87 -2.5,-4.88 -0.87,-3.98l1.13 1.14c-0.17,-0.13 -0.36,-0.88 -0.46,-1.25l1.1 1.02c1.75,0.59 -0.36,-3.15 -0.58,-5.13 -0.57,-2.24 0.93,-0.23 1.35,-0.22 0.46,1.24 0.79,0.43 0.47,0.06 0.75,0.61 1.96,-0.1 1.76,0.98 1.33,-1.16 -0.13,-3.89 0.36,-4.74l-2.26 -2.28c-0.35,-6.31 8.15,-2.28 10.08,-2.98 0.17,-0.02 3.12,-0.42 3.82,-2.63l-0.15 -1.35c1.67,2.14 3.15,5.38 4.13,4.28l-1.15 -1.76c-0.04,-0.86 0.04,-1.18 0.17,-1.22 -1.12,-1.22 -2.36,-2.62 -3.45,-3.93 -0.97,-4.35 7.7,2.66 9.15,2.81 -0.23,-1.98 -1.47,-0.77 -2.31,-3.51 1.04,0.76 3.29,-0.3 0.76,-3.08 1.62,-2.44 6.07,-2.48 4.65,-4.73 -0.23,-1.99 0.77,0.26 0.05,-1.48 -0.15,-2.23 1.36,0.4 1.96,0.54l0.11 0.99c2.42,1.79 3.71,2.44 2.62,-0.19 0.78,0.88 0.77,-2.45 2.29,0.18 0,0 -2.22,-6.48 -2.99,-4.03l0.61 0.76c-0.07,2.51 -2.49,-0.6 -3.29,-0.17 -0,-0.67 -2.03,-0.15 -2.98,0.27l-1.84 -1.33c0.05,-1.44 -0.57,-3.77 0.14,-4.56 0.46,0.35 1.04,1.16 1.46,1.82l1.73 -1.97 2.31 2.27c-0.21,-1.85 -5.14,-6.63 -0.86,-5.08 -3.37,-3.26 -0.43,-3.03 -2.02,-4.77 0.43,0.4 1.15,0.92 1.8,1.43 1.01,-1.33 2.64,-4.05 1.72,-6.28 0,0 -2.72,-1.02 -5.77,-2.59 -3.07,-1.55 -3.13,-1.1 -4.98,-2.81 2.1,0.08 -7.25,-2.5 -7.25,-2.5 -1.44,-0.37 4.97,-0.55 4.67,-0.57 0,0 5.17,-1.56 2.4,-3.47 2.69,-0.32 2.64,-4.31 2.79,-5.63l-1.92 -2.5c1.94,-2.3 4.25,0.04 5.44,-3.08l0.13 0.66c0.57,0.52 -1.84,-5.86 4.73,0.46l0.12 0.28c0.1,-0.1 -0.88,-1.49 -0.88,-1.49 0.06,-0.85 -0.18,-2.32 0.21,-2.7 0.23,0.27 0.5,0.83 0.69,1.28l0.96 -0.94c0,0 -0.69,-3.22 1.13,-1.47 -1.45,-2.51 -0.19,-1.79 -0.86,-3.09 0.18,0.31 0.49,0.76 0.77,1.18 0.43,-0.54 1.18,-1.71 0.88,-3.18 0,0 -4.49,-4.7 -6.24,-7.3 1.08,0.4 1.91,-0.64 1.39,-1.46 0,0 -0.72,-0.37 -0.64,-0.2 0,0 -0.34,-0.07 -0.51,-0.12l-0.05 -0.19c-0.1,0.33 -0.55,0.2 -0.74,0.14l-0.77 -0.39c-2.12,0.09 -3.83,-4.12 -4.34,-4.02 -1.2,-1.57 -0.88,0.87 -1.83,0.22 -0.02,-0 -0.04,-0.03 -0.06,-0.03 -0.34,-0.57 -0.67,-0.66 -0.47,-0.23 -0.67,-0.51 -0.96,-1.79 -1.74,-2.61 -0.01,-0 -0.01,-0 -0.01,-0.01 -1.86,-3.89 0.47,-2.17 -1.46,-5.95 0.45,-0.52 3.7,-0.95 3.28,-3.17 -0.71,-2.41 -5.62,-6.28 -6.7,-7.87l0.43 -0.52c0.15,-0.85 1.78,1.55 2.43,1.79 -0.26,0.47 4.86,2.24 2.52,-0.69 -0.49,-1.07 -0.05,-1.59 1.01,0.14 0.85,3.03 2.07,3.92 1.65,2.4 0.26,-0.46 2.09,1.87 2.13,0.64 0.57,0.65 0.33,-0.9 1.02,-1.92l-0.47 -2.32c0,0 0.45,-0.11 0.73,-0.19 0.68,1.02 1.15,1.3 1.95,2.71 0.61,-0.59 -0.48,-2.33 -0.98,-3.41 0.25,-0.48 0.83,0.17 1.85,2.34 0.82,0.15 2.38,0.13 1.42,-2.49 4.22,5.74 3.8,0.94 4.54,-0.51 -3.47,-5.12 1.04,-1.13 1.04,-1.13 2.17,2.66 3.57,1.41 2.84,-1.65 0.66,-1.03 1.53,1.18 0.38,-1.34 3,4.03 1.63,-0.48 0.86,-2.31 -4.08,-3.72 -2.29,1.49 -4.01,0.35zm-585.89 200.09l0 0c0.02,-0.21 0.05,-0.45 0.07,-0.76 0,0 0.01,0.24 -0.07,0.76zm41.3 -5.1l0 0c0.04,-0.51 0.08,-1.03 0.11,-1.49 -0.09,0.47 -0.18,0.97 -0.29,1.5 0,0 0,0.01 0,0.01 -0,0 -0,0 -0,0 0,-0 0,-0.01 0,-0.01 -0.21,-1.22 -0.39,-2.28 -0.51,-2.79l0.3 -0.66c0.2,0.03 0.4,0.04 0.59,0.03 -0.01,0.54 -0.05,1.2 -0.1,1.92 0.05,-0.28 0.09,-0.56 0.14,-0.81 0.17,0.6 0.23,1.38 0.23,2.23 -0.16,0.03 -0.32,0.05 -0.48,0.07zm-7.03 -3.97l0 0c-0.08,0.79 -0.24,0.53 -0.45,-0.08 0.15,0.03 0.3,0.05 0.45,0.08zm199.08 -207.98l0 0c0,-0 -0,-0.01 0,-0.01 0.03,-0.01 0.04,0.01 0.07,0 -0.02,0 -0.04,0.01 -0.07,0.01zm12.66 -1.95l0 0c-0.29,0.02 -0.57,0.19 -0.85,0.33 -0.54,0.08 -1.08,0.15 -1.61,0.23 -0.09,-0.31 -0.2,-0.62 -0.27,-0.94 0.88,0.37 2.45,-0.62 3,0.19 -0.08,0.06 -0.17,0.13 -0.26,0.19zm35.07 -5.18l0 0c0,-0.01 0.01,-0.02 0.01,-0.03 0.01,-0.02 0.03,-0.02 0.04,-0.04 0.01,0.02 0.02,0.03 0.04,0.05 -0.03,0 -0.06,0.01 -0.09,0.01zm1.15 -0.68l0 0c-0.44,-0.31 -0.29,-0.7 -0.09,-1.09l0.66 0.66c-0.21,0.02 -0.39,0.23 -0.57,0.44zm8.62 -1.51l0 0c-0.02,-0.14 -0.02,-0.29 -0.03,-0.43 0.05,0.06 0.11,0.13 0.16,0.19 -0.04,0.14 -0.09,0.17 -0.13,0.24zm1.12 -0.5l0 0c0,-0.02 0.01,-0.03 0.01,-0.04 0,0 0.01,0 0.01,0.01 -0.01,0.02 -0.01,0.02 -0.02,0.04zm217.55 -57.68l0 0c1.31,-0.2 1.36,-2.04 -0.12,-3.22 0.25,-0.53 0.55,-0.86 0.88,-0.96 1.22,1.06 -0.24,2.57 1.4,3.54 -0.7,0.35 -1.23,1.71 -2.15,0.64zm7.34 250.73l0 0c0.04,-0.02 0.08,-0.04 0.12,-0.05 0,0.11 0.05,0.23 0.04,0.34 -0.06,-0.13 -0.1,-0.18 -0.16,-0.29z"/>
   <path class="fil0" d="M33.09 300.72c-0.02,-0.05 -0.05,-0.08 -0.07,-0.14 -0.02,0.12 0.02,0.14 0.07,0.14z"/>
   <path class="fil0" d="M24.3 293.57c-0.07,-0 -0.2,0.04 -0.41,0.12 0.11,-0.03 0.26,-0.08 0.41,-0.12z"/>
   <path class="fil0" d="M21.77 294.07c0.1,-0.02 0.2,-0.04 0.29,-0.05l0.17 -0.08c-0.15,0.03 -0.3,0.08 -0.46,0.13z"/>
   <path class="fil0" d="M20.95 294.41c0.1,-0.02 0.31,-0.08 0.38,-0.09 -0.03,-0.01 -0.07,-0.01 -0.1,-0.01 -0.09,0.04 -0.19,0.08 -0.28,0.1z"/>
   <path class="fil2" d="M515.77 106.8c-14.27,-10.17 -30.02,-14.01 -47.2,-9.16 -16.32,4.6 -30.69,13.03 -43.89,23.49 -3.3,2.62 -3.47,5.11 -0.29,8.07 3.37,3.13 7.66,5.93 11.41,9.05 -5.72,26.35 -20.01,70.23 -27.13,97.11 -2.28,8.62 -5.37,19.63 -6.76,27.83 -0.98,5.78 0.79,10.56 5.77,13.84 3.09,2.04 5.66,4.04 8.98,5.65 4.16,2.02 5.8,1.06 6.82,-3.47 3.08,-13.7 7.83,-30.84 11.65,-44.35 1.76,-6.22 9.26,-29.84 10.6,-35.23 0.71,0.6 1.01,0.86 1.31,1.11 6.7,5.7 13.91,5.96 21.66,2.21 10.23,-4.95 18.77,-12.06 26.24,-20.44 13.47,-15.12 24.3,-31.69 28.61,-51.89 2.05,-9.6 0.52,-17.91 -7.78,-23.83zm-18.05 14.46l0 0c-1.56,6.56 -3.82,13.12 -6.84,19.15 -8.17,16.28 -18.66,30.93 -32.9,42.62 -1.93,1.59 -4.09,2.91 -6.18,4.3 -0.73,0.49 -1.58,0.8 -3.21,1.61 2.44,-8.53 4.49,-16.37 6.94,-24.09 3.92,-12.33 8.05,-24.59 12.23,-36.83 0.47,-1.37 1.62,-2.76 2.84,-3.6 6.16,-4.25 12.72,-7.73 20.1,-9.4 5.77,-1.31 8.36,0.57 7.02,6.25z"/>
   <path class="fil2" d="M595.7 87.84c-6.7,-2.97 -13.47,-5.83 -20.37,-8.28 -4.3,-1.53 -7.5,0.02 -10.09,3.88 -1.12,1.67 -2.16,3.39 -3.19,5.11 -20.18,33.72 -40.53,72.77 -57.29,108.28 -4.28,9.06 -8.04,18.37 -11.82,27.65 -1.37,3.37 -1.4,7.23 0.93,10.09 2.87,3.54 6.39,6.58 9.83,9.61 1.59,1.4 3.47,0.9 4.68,-0.91 0.77,-1.16 1.4,-2.44 1.98,-3.71 2.83,-6.1 5.57,-12.24 8.47,-18.3 0.52,-1.08 1.51,-2.29 2.57,-2.69 14.67,-5.53 29.38,-10.92 44.76,-16.6 0.28,3.89 0.4,6.67 0.68,9.44 1.02,10.05 3.71,13.14 13.56,15.76 0.68,0.18 1.37,0.35 2.05,0.51 5.49,1.28 6.46,0.28 6.62,-5.39 0.58,-19.51 0.73,-39.07 2.22,-58.52 1.58,-20.66 6.92,-45.35 9.3,-65.94 0.52,-4.48 -0.68,-8.12 -4.91,-9.99zm-26 42.9l0 0c-1.1,15.86 -2.24,31.72 -3.15,47.6 -0.15,2.63 -0.87,3.69 -3.47,4.39 -9.69,2.62 -19.3,5.56 -28.94,8.38 -0.22,-0.16 -0.44,-0.33 -0.66,-0.49 12.09,-22.67 24.18,-45.34 36.27,-68.01 0.27,0.09 0.54,0.19 0.81,0.28 -0.29,2.62 -0.68,5.24 -0.86,7.86z"/>
   <path class="fil2" d="M73.87 301.26c8.26,5.71 17.43,9.23 27.39,10.42 8.73,1.05 17.16,0.09 24.35,-5.63 11.18,-8.9 18.64,-20.44 23.37,-33.74 1.75,-4.94 1.05,-9.82 -1.8,-14.42 -4.25,-6.86 -6.69,-6.99 -11.09,-0.22 -6,9.22 -12.63,17.97 -20.88,25.28 -4.39,3.89 -9.26,7.45 -14.42,10.23 -5.62,3.04 -9.42,0.97 -10.51,-5.31 -0.78,-4.5 -1.12,-9.19 -0.8,-13.73 1.05,-14.87 5.63,-28.89 11.47,-42.5 7.14,-16.66 15.52,-32.66 27.04,-46.82 2.13,-2.62 4.75,-4.89 7.33,-7.11 0.78,-0.67 2.44,-1.18 3.2,-0.8 0.72,0.36 1.11,1.99 1.11,3.07 0,1.88 -0.19,3.83 -0.67,5.65 -1.87,7.07 -3.89,14.11 -5.84,21.16 -1.23,4.46 -1.23,9.09 1.61,12.69 2.42,3.05 5.9,5.36 9.17,7.64 4.25,2.96 6.47,2.31 8.85,-2.39 1.9,-3.76 3.69,-7.59 5.23,-11.51 3.98,-10.11 7.34,-20.39 7.9,-31.36 0.38,-7.43 -1.99,-13.49 -8.97,-16.98 -5.57,-2.78 -11.15,-5.59 -16.95,-7.82 -6.2,-2.38 -12.44,-1.82 -18.36,1.47 -8.34,4.64 -15,11.17 -20.82,18.53 -18.11,22.87 -30.25,48.69 -37.66,76.77 -2.34,8.85 -3.87,17.84 -2.76,25.62 1.74,10.12 6.34,16.83 13.53,21.8z"/>
   <path class="fil2" d="M255.11 153.64c-5.56,-2.57 -11.21,-5 -16.99,-7.03 -7.27,-2.55 -9.81,-1.44 -13.78,5.01 -15.69,25.52 -29.64,51.98 -42.92,78.79 -8.28,16.73 -14.6,28.37 -22.33,45.35 -4.89,10.75 -3.37,15.88 5.96,23.23 0.24,0.19 0.48,0.36 0.72,0.55 4.27,3.31 5.97,2.95 8.23,-1.9 2.97,-6.37 4.29,-7.49 7.4,-13.78 0.71,-1.44 2.25,-2.82 3.74,-3.48 4.96,-2.21 10.01,-4.23 15.13,-6.04 9.37,-3.31 18.81,-6.41 28.69,-9.76 0.39,4.82 0.62,8.92 1.09,12.99 0.39,3.43 1.73,6.63 4.97,8.15 3.88,1.82 7.96,3.34 12.1,4.43 3.28,0.86 4.68,-0.56 4.72,-3.99 0.04,-3.7 -0.11,-7.41 -0.13,-11.12 -0.08,-24.78 1.86,-49.45 4.52,-74.06 1.33,-12.35 3.12,-24.65 4.57,-36.98 0.64,-5.45 -0.74,-8.06 -5.71,-10.36zm-26.58 90.27l0 0 -11.34 -8.92 -21.4 18.66c12.55,-23.53 24.73,-46.38 37.15,-69.65 -1.49,20.3 -2.94,39.94 -4.4,59.91z"/>
   <path class="fil3" d="M641.71 64.97l0 3.36 -5.69 0 0 15.61 -4 0 0 -15.61 -5.72 0 0 -3.36 15.41 0zm5.96 18.97l0 0 -3.7 0 0 -18.97 5.78 0 3.46 14.91 3.43 -14.91 5.72 0 0 18.97 -3.7 0 0 -12.83c0,-0.37 0,-0.89 0.01,-1.55 0.01,-0.66 0.01,-1.18 0.01,-1.54l-3.6 15.92 -3.86 0 -3.57 -15.92c0,0.36 0,0.87 0.01,1.54 0.01,0.67 0.01,1.18 0.01,1.55l0 12.83z"/>
   <path class="fil2" d="M332.82 220.21c3.25,-7.97 6.33,-16.01 9.78,-23.9 11.39,-26.06 23.97,-51.52 39.05,-75.7 4.61,-7.4 6.49,-8.06 14.17,-3.83 4.99,2.75 9.63,6.17 14.28,9.5 5.66,4.05 6.72,9.53 4.73,16 -4.7,13.33 -26.37,110.49 -32.62,136.62 -1.92,8.05 -2.99,8.74 -10.46,4.89 -1.96,-1.02 -3.92,-2.08 -5.94,-2.97 -3.67,-1.63 -5.6,-4.53 -5.17,-8.36 0.95,-8.45 15.39,-79.84 18,-97.62 -1.13,2.26 -2.2,4.29 -3.18,6.37 -12.53,26.62 -23.35,52.62 -34.07,81.33 -1.82,5.36 -3.22,6.16 -8.78,4.74 -4.09,-1.04 -8.1,-2.41 -12.08,-3.82 -4.89,-1.73 -7.89,-5.29 -8.5,-10.39 -1,-8.45 -1.88,-16.94 -2.42,-25.43 -0.63,-9.88 -0.85,-19.78 -1.56,-29.81 -1.29,4.43 -2.75,8.82 -3.84,13.3 -6.12,25.03 -12.15,50.07 -18.19,75.12 -1.16,4.79 -3.09,5.89 -7.56,3.8 -2.63,-1.23 -5.09,-2.82 -7.59,-4.31 -5.08,-3.02 -6.67,-7.61 -5.56,-13.16 3.57,-17.89 6.78,-35.86 10.98,-53.59 5.97,-25.19 11.31,-50.39 20.6,-74.6 3.6,-9.37 5.22,-10.24 14.87,-6.89 4.92,1.7 9.71,3.85 14.42,6.1 4.16,1.99 5.76,5.66 5.62,10.16 -0.53,17.83 0.94,36.03 0.47,53.85 -0.11,4.19 0.04,8.38 0.08,12.57 0.16,0 0.31,0.01 0.47,0.01z"/>
  </g>
 </g>
</svg>
