<?xml version="1.0" encoding="UTF-8"?>
<!DOCTYPE svg PUBLIC "-//W3C//DTD SVG 1.1//EN" "http://www.w3.org/Graphics/SVG/1.1/DTD/svg11.dtd">
<!-- Creator: CorelDRAW 2021 (64-Bit) -->
<svg xmlns="http://www.w3.org/2000/svg" xml:space="preserve" width="3.1505in" height="2.90673in" version="1.1" style="shape-rendering:geometricPrecision; text-rendering:geometricPrecision; image-rendering:optimizeQuality; fill-rule:evenodd; clip-rule:evenodd"
viewBox="0 0 3144.89 2901.56"
 xmlns:xlink="http://www.w3.org/1999/xlink"
 xmlns:xodm="http://www.corel.com/coreldraw/odm/2003">
 <defs>
  <style type="text/css">
   <![CDATA[
    .fil2 {fill:#FEFEFE;fill-rule:nonzero}
    .fil3 {fill:#2B2A29;fill-rule:nonzero}
    .fil0 {fill:#E31E24;fill-rule:nonzero}
    .fil4 {fill:#2F2C2D;fill-rule:nonzero}
    .fil1 {fill:url(#id0)}
   ]]>
  </style>
  <linearGradient id="id0" gradientUnits="userSpaceOnUse" x1="442.05" y1="1183.08" x2="2561.11" y2="20.35">
   <stop offset="0" style="stop-opacity:1; stop-color:#E31E24"/>
   <stop offset="0.4" style="stop-opacity:1; stop-color:#E31E24"/>
   <stop offset="0.709804" style="stop-opacity:1; stop-color:#962983"/>
   <stop offset="1" style="stop-opacity:1; stop-color:#962983"/>
  </linearGradient>
 </defs>
 <g id="Layer_x0020_1">
  <metadata id="CorelCorpID_0Corel-Layer"/>
  <g id="_2345155731088">
   <g>
    <polygon class="fil0" points="2172.76,990.19 2172.84,990.15 2172.76,990.15 "/>
    <path class="fil0" d="M2182.77 988.99l-3.92 0.44c1.56,1.8 2.52,0.56 3.92,-0.44z"/>
    <path class="fil0" d="M2176.12 990.03c0.08,0.16 -0.24,0.04 -0.8,-0.16l-0.84 0.12c0.56,0.28 1.16,0.36 1.64,0.04z"/>
    <path class="fil0" d="M413.73 943.34c0.2,0.36 0.36,0.8 0.68,1.28 -0.32,-0.68 -0.52,-1.04 -0.68,-1.28z"/>
    <path class="fil0" d="M2173.64 990.07l-0.8 0.08c0.32,0.04 0.6,0 0.8,-0.08z"/>
    <path class="fil0" d="M2173.64 990.07l0.84 -0.08c-0.16,-0.08 -0.28,-0.12 -0.44,-0.2 0,0.2 -0.2,0.24 -0.4,0.28z"/>
    <path class="fil0" d="M2173.64 989.19c0.68,0.28 1.24,0.52 1.68,0.68l3.53 -0.44c-0.08,-0.12 -0.2,-0.16 -0.36,-0.4 0.16,0.56 -1.4,0.28 -3.48,-0.32 -0.52,0.12 -1,0.28 -1.36,0.48z"/>
    <path class="fil0" d="M1028.2 321.39c-0.08,-0.2 -0.16,-0.44 -0.2,-0.64 0,1.12 0.04,1.16 0.2,0.64z"/>
    <path class="fil0" d="M2314.87 25.07c0.12,0.12 0.12,0.2 0.16,0.28 0.12,-0.16 0.12,-0.28 -0.16,-0.28z"/>
    <path class="fil1" d="M2304.7 915.87c0.12,-0.08 0.28,-0.16 0.36,-0.24 0.08,0.4 0.2,0.8 0.2,1.16 -0.24,-0.44 -0.4,-0.6 -0.56,-0.92zm-24.95 -854.28c4.48,-0.68 4.65,-7.01 -0.4,-11.01 0.84,-1.84 1.84,-2.96 2.96,-3.28 4.13,3.6 -0.84,8.81 4.73,12.05 -2.37,1.24 -4.13,5.89 -7.29,2.24zm-739.08 196.49c0,-0.08 0.04,-0.12 0.04,-0.16 0,0.04 0,0.04 0.04,0.04 -0.04,0.04 -0.04,0.04 -0.08,0.12zm-3.8 1.72c-0.08,-0.52 -0.08,-1 -0.08,-1.52 0.16,0.24 0.36,0.44 0.52,0.68 -0.12,0.44 -0.32,0.56 -0.44,0.84zm-29.31 5.13c-1.48,-1.04 -0.96,-2.36 -0.28,-3.73l2.28 2.24c-0.72,0.04 -1.36,0.76 -2,1.48zm-3.89 2.32c0,-0.04 0,-0.04 0,-0.12 0.08,-0.04 0.12,-0.04 0.16,-0.08 0.04,0.04 0.08,0.08 0.12,0.16 -0.12,0 -0.2,0.04 -0.28,0.04zm-119.17 17.66c-1,0.12 -1.96,0.64 -2.88,1.16 -1.84,0.28 -3.69,0.48 -5.49,0.76 -0.32,-1.04 -0.68,-2.08 -0.92,-3.2 2.97,1.28 8.33,-2.12 10.17,0.68 -0.28,0.2 -0.56,0.44 -0.88,0.6zm-43.01 6.69c0,-0.08 0,-0.08 0,-0.08 0.08,-0.04 0.16,0.08 0.24,0 -0.08,0 -0.16,0.08 -0.24,0.08zm-676.33 708.61c-0.24,2.72 -0.8,1.84 -1.52,-0.28 0.52,0.12 1.04,0.16 1.52,0.28zm23.91 13.5c0.12,-1.73 0.28,-3.49 0.36,-5.05 -0.28,1.6 -0.6,3.32 -0.96,5.13 0.04,0 0.04,0.04 0.04,0.04 -0.04,0 -0.04,0 -0.04,0l0 -0.04c-0.72,-4.17 -1.32,-7.81 -1.72,-9.53l1.04 -2.28c0.68,0.12 1.36,0.2 2,0.12 -0.04,1.88 -0.16,4.08 -0.36,6.56 0.16,-1 0.36,-1.92 0.48,-2.76 0.6,2.04 0.8,4.72 0.8,7.61 -0.56,0.12 -1.08,0.16 -1.64,0.2zm-140.31 17.42c0.08,-0.72 0.16,-1.52 0.24,-2.56 0,0 0,0.8 -0.24,2.56zm1990.44 -681.78c-2.2,-7.41 -4.41,-7.21 -6.17,-9.09 5,7.29 0.08,4.21 1.12,7.81 -4.28,-5.69 -3.12,-1.84 -3.12,-1.84 -2.68,-2.08 -7.33,-13.22 -6.97,-7.73 -4.32,-9.93 -8.13,-7.41 -7.09,0.68 -0.4,-1.28 -1.2,0.32 -1.4,1.8 -4.21,-2.96 -3.28,-8.81 -6.68,-13.41l-2.64 2.16c-0.4,-0.64 0.12,3.64 -2.76,-0.64 -2.56,-6.17 -3.6,-3.12 -3.6,-3.12 -3.08,-6.05 -11.85,-9.13 -11.85,-9.13 0,0 -9.53,-19.74 -10.33,-11.29 -3.08,-12.93 -22.06,-10.05 -22.5,-7.13 -4.48,-4.33 -3.6,-5.37 -9.17,-9.45 -1.44,1.76 -20.86,-6.29 -18.58,-10.13 0.52,1.16 0.64,-5.36 6.85,-15.18 9.97,-4.24 23.19,-10.29 29.35,-22.54 7.16,-0.72 17.9,-14.29 22.7,-19.78 8.05,-9.09 15.42,-16.58 20.58,-27.63 -2.56,0.56 -3.16,-2.56 -4.92,-4.56 1.32,-3.25 0.36,-1.92 -2.28,-5.13 -2.16,6.93 -9.61,-0.44 -9.53,6.33 -1.24,2.08 -3.72,-2.88 -5.53,-3.6 -4,2.32 -8.17,3.89 -12.49,5.01 3.16,-5.33 4.88,-5.93 8.81,-14.46 -15.62,6.09 -37.12,12.73 -53.5,28.71 -1.6,1.48 -3.64,0.64 -5.69,-0.84 0.12,1.48 0.68,3.01 1.4,4.44 -2,0.44 -3.85,2.24 -5.65,3.64 -4.57,-7.36 -9.81,7.45 -12.53,14.1 -2.48,-2.61 -0.04,-6.09 1.36,-9.41 -1.72,1.6 -5.04,-0.32 -5.56,-3.65 2.6,-4.52 3.93,-1.28 5.17,-7.25 -2.04,-2.44 -2.28,6.37 -4.65,1.72 -2.2,2.2 -0.28,3.68 -1.84,5.85 -0.88,0.56 -1.68,1.12 -2.76,0.44 -0.56,-2.92 1.88,-6.45 1.2,-9.37 0.68,-0.68 1.44,-0.24 1.96,-1.24 -0.56,5.77 4.41,0.28 6.81,-1.2 1.52,1.28 1.12,2.84 2.76,4.08 5.49,-4.04 4.92,-13.49 9.89,-16.42 1.16,3.24 -3.36,7.29 -4.48,10.89 2.48,-0.4 7.33,-3.44 5.08,-7.33 7.17,1.68 12.34,-7.45 18.22,-13.26 -4.57,-1.92 -7.49,5.97 -11.13,9.21 0.84,-9.09 8.45,-13.46 13.81,-9.69 4.37,-5.89 8.85,-11.13 14.62,-9.01 13.98,-15.74 30.6,-15.78 44.85,-29.23 -4.28,-3.6 -7.33,0.32 -12.05,-5.2 -3.52,2.6 -7.41,3.2 -12.01,-0.6 -1.16,1.44 -0.16,2.48 -0.76,3.8 -3.93,-5.29 -5.93,0.96 -9.29,-1.08 -1.72,-1.76 -0.48,-4.21 0.96,-6.61 -4.21,-2.84 -7.09,2.28 -10.93,2 -3.09,-1.6 0.64,-4.48 -1.68,-6.21 -5.73,-1.44 -7.37,6.01 -13.26,8.81 -2.68,-4.48 3.6,-9.73 5.57,-12.89 -1.16,0.08 -2.44,-0.64 -3.89,-2.04 -0.48,0.96 0.6,1.72 1.16,2.52 -2.32,2.85 -4.53,-0.64 -4.81,4.61 -1.6,-1.32 -1.12,-2.92 -2.84,-4.12 -3.97,4.04 -8.65,3.96 -13.38,4.08 -1.2,2.68 -0.76,5.09 1.2,7.13 -0.92,2.6 -6.69,-2.44 -7.93,-5.97 5.25,-2.16 23.59,-10.85 23.75,-18.54 7.97,-3.8 4.41,-8.45 13.17,-7.25 -1.6,-3.16 0.96,-2.76 2.88,-2.96 0.4,-0.56 1.04,-0.72 1.76,-0.76 0.68,-0.88 0.96,-2 2.16,-2.08 0.28,0.68 0.28,1.08 0.24,1.32 1.76,-1.6 3.49,-4.04 5.41,-5.08 2.96,1.84 -0.76,4.64 2.76,4.12 -0.32,-6.33 8.97,-8.53 14.05,-8.09 2.96,-6.53 8.13,-4.97 13.17,-8.93 -0.64,-6.13 -5.12,-0.16 -7.05,-0.48 3.93,-4.6 22.02,-10.73 31.48,-6.57 4.21,-8.65 17.1,-8.93 15.61,-24.9 5.37,1 5.69,-7.29 10.29,-5.53 0.64,3.05 -2.36,2.64 -1,6.65 9.65,-8.65 18.46,-20.26 16.82,-32.52 -3.09,-2.16 -8.17,-4 -7.81,-8.69 -6.61,-2.84 -15.5,0.48 -19.3,-10.41 -1.68,5.56 -7.05,4.73 -6.61,10.45 1.12,0.72 1.68,-1.2 2.44,-2.28 2,3.12 0.12,2.4 -1.28,4.85 -2.36,-3.12 -4.37,-3.56 -6.01,-2.56 -2.4,-1.76 -2,-3.97 -0.4,-6.41 -1.88,-0.24 -3.32,1 -2.96,3.24 -5.37,-5.4 -13.85,2.41 -19.78,7.25 -8.93,-6.41 -14.66,6.77 -21.19,14.89l-1.6 -1.56c1.24,-10.21 8.77,-12.33 11.33,-19.5 -1.8,-2.28 -2.8,0.16 -4.72,-2.85 -9.65,12.45 -17.38,10.57 -27.39,19.66 -0.56,-0.8 -0.32,-1.72 -1.04,-2.52 -3.6,1.68 -8.65,2.85 -6.49,7.49 -1.12,3.24 -1.76,-5.33 -3.8,-2.04 -0.76,-1.72 2.32,-2.32 0.44,-5.6 -2.8,0 -3.97,7.41 -2.6,9.69 -1.56,1.72 -2.32,-4.36 -4.44,-5.65 -3.09,3.32 -0.24,5.61 -1.96,8.65 -1.44,2.41 -2.88,-2.36 -2,-3.32 -3.16,-1.12 -1.44,4.41 -1.8,5.84 -0.72,-0.16 -2.88,-1.92 -4.17,-3.88 0,1.12 -1.28,1.12 -1.04,2.04 -4.61,1.97 -8.85,3.25 -10.69,11.09 -3.97,-1.76 -0.44,-4.76 -2.61,-6.93 2.17,-1.72 -8.05,-10.85 -9.57,-12.05 0.16,-0.16 0.28,-0.32 0.52,-0.4 -0.12,-0.2 0.04,-0.44 -0.12,-0.6 0,0 -4.32,-0.92 -6.73,1.16 -2,-3.36 -1.2,-7.21 -3.16,-10.45 -0.84,3.96 -1.12,2.32 -3.2,6.05 -2.88,-1.69 -2.44,-3.85 -4.44,-5.65 -1.48,1.76 -0.84,3.2 -1.28,4.8 -2.2,-1.48 -0.88,-3.52 -3.64,-4.92 -3.68,2.92 -7.85,3.16 -11.89,3.93 -2.48,-3.69 -4.85,-3.49 -3.8,-2.17 -10.53,-1.36 -18.98,9.29 -29.27,8.73 -0.48,1.36 1.04,2.37 1.93,3.41 -1.16,2.52 -2.48,4.92 -3.97,5.36 -5.21,-13.66 -12.57,6.45 -18.74,5.01 -0.56,-13.09 7.33,-11.09 11.73,-17.7 -3.4,-2.2 -11.06,4.65 -11.06,4.65 -1.84,-1.08 -1.92,-2.52 -2.68,-3.84 -0.76,1.08 -7.93,5.84 -9.49,10.61 -3.12,-1.88 -2.08,-4.53 -1.2,-7.21 -2.96,-4.08 -4.68,-0.32 -7.05,-0.6 0.88,2.32 0.64,4.81 -1.56,7.65 1.56,0.76 2.44,-2.48 4.45,1.08 -1.97,2.57 -4.28,3.01 -6.81,1.16l-4.85 9.09c-2.04,-5.09 0.56,-4.48 -4.09,-3.89 -3.64,-1.84 0.68,-5.04 -2.52,-6.92 0.52,8.89 -3.6,7.01 -6.65,14.93 -4.32,-0.64 -8.33,0.08 -12.77,-1.52 -1.64,9.13 -5.33,11.49 -9.13,17.1 -3.52,-1.84 1.45,-5.16 0.2,-7.41 -4.73,1.52 -8.21,10.17 -10.33,17.14l-2.96 0.32c0.04,-1.88 0.04,-3.76 -0.16,-5.97 -1.24,4.08 -3.28,2.72 -4.61,6.25 -7.77,-8.45 -7.41,6.92 -14.69,-0.4 -5.61,5.6 -3.73,4 -9.21,8.05 2.16,1.12 0.24,2.96 1.44,4.28 -1.6,1.68 -3.6,0.96 -4.92,4.48 -3.6,-2.76 -0.2,-5.53 1.88,-5.8 -1.32,-3.93 -8.13,2.76 -7.25,6.81 -2.8,0.12 -4.92,4.21 -8.45,-0.48 -3.92,0.24 -6.24,10.29 -10.57,8.17 -3.36,-4.68 -0.16,-10.33 1,-15.78 -4.76,1.6 -5.64,9.41 -12.49,9.41 -3,-2.96 -1.84,-4.04 -4.6,-2.92 -1.64,3.76 4.36,0.44 2.72,4.13 2.04,-0.04 4.24,0.16 5.96,-1.84 1.76,4.37 1.16,4 4.65,2.85 0.96,1.12 -0.28,2.56 -0.76,3.84 -1.56,1.92 -4.37,-4.21 -6.05,-2.68 0.28,1.44 -0.92,3.2 0.12,4.56 -1.36,1.2 -2.92,1.04 -4.48,0.92 -1.2,-1.04 -2.32,-1.92 -2.72,-1.76 -0.16,0.12 -0.2,0.4 -0.32,0.64 -0.44,-1.32 0.16,-1.97 1.44,-2.44 1.16,-1.2 0.84,1.36 2.48,2.28 -0.12,-2.68 0.4,-5.57 -1.92,-7.89 -3.93,9.25 -8.65,13.61 -13.46,17.3 -1.04,-0.12 -2.16,-0.12 -3.4,-0.04 -3.6,0.28 -6.28,3.09 -8.77,6.09 -0.04,-0.28 -0.2,-0.44 -0.16,-0.72 0,0.44 -0.36,1.08 -0.72,1.64 -0.8,1.12 -1.72,2.16 -2.52,3.12 -1.24,-1 -2.44,-2.04 -1.96,-3.4 -0.16,1.88 -2.77,5.09 -5.69,7.65 0.52,-3.64 5.49,-6.77 4.64,-8.97 2.61,3.6 3.93,1.16 0.56,-1 -1.2,1.08 -2.44,1.96 -3.64,2.84 -0.36,-0.4 -0.76,-0.88 -1.56,-1.4 -4.93,4.16 -9.69,7.01 -14.18,8.73 -2.85,-5.36 6.48,-5.16 5.2,-11.61 -2.6,0.8 -3.8,-0.92 -4.32,3.45 -9.01,-2.72 -21.18,11.57 -29.95,16.74 -0.84,0.32 -1.6,0.52 -2.36,0.8 -1.24,-2.12 4.44,-5.24 0.48,-6.97 -0.36,4.81 -2.88,6.97 -5.36,8.69 -2.12,-2.12 4.48,-5.53 0.28,-7.33 -0.32,5.33 -3.48,7.41 -6.21,9.25 0.36,0.12 0.72,0.24 1.08,0.32 -4.52,1.56 -8.97,3.04 -13.45,4.57 -0.08,-0.52 -0.12,-1.08 0,-1.6 -1.76,-1.12 -2.76,3.29 -4.93,-0.12 -0.4,0.44 -0.52,0.88 -0.52,1.28 -1.48,-0.2 -2.48,3.12 -4.48,0.04 -1.04,1.2 -0.48,2.2 0.28,3.16 -2.84,0.52 -5.56,1.16 -8.13,1.88 -6.73,1.48 -12.65,3.68 -19.38,6.41 -0.88,-1.56 -0.64,-3.2 0.68,-5.01 -1.8,-0.08 -3.37,1.6 -5.13,1.8 0.12,-0.2 0.12,-0.36 0.2,-0.52 -2.08,-0.12 -3.72,2.36 -5.93,1.88 -1.96,1.96 -0.4,3.32 0.16,4.88 -0.84,0.2 -1.56,0.64 -2.32,1.36 -1.44,-0.6 -2.85,-0.32 -4.04,0.56 -0.28,-0.84 -0.6,-1.72 -2,-2.36 -0.56,1.36 0,2.6 0.32,3.84 -0.92,0.28 -1.88,0.56 -2.8,0.84 -0.52,-1.2 -0.44,-2.48 -2.41,-3.4 -0.52,1.44 0.08,2.68 0.4,3.97 -0.8,0.28 -1.64,0.48 -2.44,0.72 -0.44,-0.04 -0.76,0.04 -1.05,0.32 -0.44,0.12 -0.88,0.24 -1.32,0.36 -0.24,-0.8 -0.61,-1.56 -1.89,-2.24 -0.2,0.96 -0.08,1.84 0.28,2.72 -1.08,0.32 -2.12,0.6 -3.09,0.88 -0.28,-0.84 -0.68,-1.64 -1.96,-2.32 -0.28,1 -0.16,1.96 0.24,2.8 -0.72,0.24 -1.4,0.4 -2.12,0.64 -3.36,-1.36 -6.53,-4 -7.01,-7.25 -4.92,3.84 2.8,4.37 3.44,8.21 -0.36,0.12 -0.72,0.24 -1.08,0.28 -3.44,-1.24 -6.65,-3.97 -7.13,-7.25 -3.68,2.96 -0.16,3.92 2.04,5.93 -0.84,1.04 -1.76,1.6 -2.72,2.04 -0.4,-0.36 -1,-0.76 -1.76,-1.08 -1.88,3.01 -4.92,2.2 -6.29,4.73 -1,0.28 -2.04,0.56 -3.08,0.84 -0.4,-0.48 -0.8,-0.92 -1.12,-1.8l-1.32 2.48c-0.84,0.2 -1.6,0.44 -2.44,0.68 -0.36,-0.56 -0.68,-1.12 -0.92,-1.92l-1.36 2.48c-2.96,0.8 -5.93,1.52 -8.89,2.28 -0.88,-0.28 -1.56,-0.04 -2.12,0.56 -0.76,0.16 -1.6,0.4 -2.44,0.6 -0.96,-0.32 -1.68,-0.04 -2.24,0.64 -6.13,1.52 -12.29,2.96 -18.34,4.44 0.2,-1.76 0.96,-3.64 0.04,-5.25 -1.24,2.6 -2.92,4.44 -4.65,6.21 0.28,-1.72 0.92,-3.49 0.04,-4.97 -1.28,2.64 -2.96,4.44 -4.68,6.21 -1.04,0.28 -2.12,0.52 -3.2,0.8 -0.08,-0.56 -0.56,-1.28 -1.96,-2.44 1.44,-3.92 4.17,0.32 5.69,-3.6 -1.56,-2.24 -3.8,-0.32 -5.49,0.44 -0.56,-0.28 -1.12,-0.28 -1.68,-0.08 -0.32,-0.36 -0.6,-0.84 -0.72,-1.88 -0.88,1.92 -2.12,2.61 -3.49,3.36 -0.48,-0.16 -0.88,-0.72 -1.04,-2.16 -0.88,1.88 -2.04,2.56 -3.36,3.32 -1.28,-3.36 -4,2.16 -7.65,-1.28 -0.56,1.04 -1.24,1.68 -1.84,2.32 -0.8,0.04 -1.69,-0.2 -2.64,-1.08 -2.52,4.65 -5.69,5.25 -8.61,7.01 -1.08,-1.72 -2.56,-2.2 -3.32,-5.77 0.64,4.56 -0.56,4.88 -2.2,5.44 -0.84,-0.88 -1.72,-1.84 -2.24,-4.21 0.88,6.25 -1.8,4.53 -4.33,6.53 -0.04,-0.24 -0.08,-0.52 0.08,-0.96 -3.01,-2.24 0,5.97 -3.29,1.44 0.24,0.56 0.52,1.16 0.8,1.76 -1.24,-0.76 -2.44,-0.2 -1.96,-1.97 -2.96,-2.28 0.08,5.89 -3.25,1.36 0.48,1.2 1.12,2.48 1.48,3.73 -1.04,0.2 -2.16,0.44 -3.2,0.64 -0.16,-0.08 -0.28,-0.28 -0.44,-0.36 -0.12,0.16 -0.12,0.28 -0.16,0.36 0.28,-1.88 0.6,-3.76 -0.92,-5.37 -0.24,1.92 -0.6,3.89 -0.4,5.77 -1,0.24 -2.04,0.44 -3.04,0.68 0.28,-1.84 0.56,-3.69 -0.96,-5.25 -0.2,1.84 -0.72,3.73 -0.6,5.49 -1.44,0.36 -2.8,0.64 -4.2,0.88 -0.56,-1.08 -0.92,-2.2 -2,-3.2 -0.96,1.72 -2.12,2.28 -3.32,2.48 -0.24,-0.4 -0.52,-0.84 -1.04,-1.32 -0.4,0.72 -0.8,1 -1.24,1.44 -1.08,-0.16 -2.08,-0.32 -3.12,-0.36 -0.04,0.72 -0.4,1.04 -0.56,1.6 -1.2,-0.12 -2.48,-0.4 -3.76,-0.44 -0.08,1.32 -0.48,2.24 -1,3.04 -1.56,0.32 -3.16,0.6 -4.77,0.92 -0.24,-1.48 2.85,-3.49 -0.24,-4.57 -0.88,2.52 -2.08,3.56 -3.48,4.08 0.6,-1.12 1.24,-2.24 -0.8,-2.96 -0.64,1.8 -1.44,2.85 -2.32,3.45 -1.2,0.12 -2.48,0.16 -3.76,0.6 -0.2,0.16 -0.16,0.32 -0.28,0.56 -1.04,0.04 -2.13,0.16 -3.29,0.44 -0.36,-0.56 -0.76,-1 -1.4,-1.2 -1.44,0.44 -1.97,1.44 -2.04,3.04 -0.12,0 -0.24,0.04 -0.36,0.04 -0.36,-0.88 -0.92,-1.6 -1.84,-1.92 -0.44,0.08 -0.68,0.36 -0.96,0.56 -2.04,-0.84 -3.88,-0.24 -5.6,0.88 -2.72,-0.36 -5.09,1.6 -7.49,3.48 -4.52,0.88 -9.09,1.68 -13.61,2.52 -0.96,-0.12 -1.88,0.08 -2.64,0.44 -0.76,0.2 -1.52,0.32 -2.32,0.44 -0.32,0.08 -0.64,0.12 -0.92,0.2 -1.84,0.32 -3.64,0.64 -5.49,1 -0.32,-0.72 -0.76,-1.52 -1.48,-2.4 -1.6,1.08 -2.96,0.68 -3.88,1.48 -0.08,-0.16 -0.12,-0.28 -0.24,-0.4 -1.2,0.84 -2.28,0.8 -3.12,1.08l-0.96 -0.96c0.16,0.48 0.24,0.88 0.28,1.29 -0.4,0.32 -0.72,0.76 -0.92,1.76 -0.44,0.08 -0.84,0.16 -1.24,0.24l-2.2 -2.17c0.4,0.92 0.36,1.76 0.12,2.57 -0.92,0.16 -1.84,0.32 -2.77,0.48 -0.72,-0.48 -1.4,-1.12 -2,-2 -0.16,1.05 -0.36,1.84 -0.56,2.44 -0.68,0.12 -1.32,0.28 -1.97,0.36 -0.56,-0.4 -1.04,-0.96 -1.52,-1.68 -0.12,0.84 -0.28,1.48 -0.44,2.04 -2.41,0.44 -4.81,0.88 -7.21,1.29 0.2,-0.8 0.56,-1.56 0.8,-2.85 -2.92,0.44 -6.97,3.93 -7.97,4.08 -2.68,-1.08 -5.09,-6.01 -8.17,-4.52 0.4,1.88 2.04,3.64 3.56,5.37 -1.72,0.36 -3.4,0.6 -5.09,0.96 -0.44,-0.44 -0.88,-0.8 -1.24,-1.4 -0.16,0.56 -0.12,1.04 -0.24,1.64 -1,0.2 -1.96,0.36 -2.96,0.52 -0.28,-0.32 -0.52,-0.64 -0.76,-1.12 -0.12,0.48 -0.16,0.92 -0.24,1.32 -1.48,0.24 -2.96,0.52 -4.44,0.8 -0.56,-2.04 2,-4.65 -0.88,-6.45 -0.6,2.88 -1.16,3.36 -0.44,6.65 -0.72,0.12 -1.44,0.28 -2.2,0.4 -0.52,-0.16 -0.88,-0.16 -0.96,0.16 -0.12,0.08 -0.28,0.08 -0.4,0.12 -0.16,0 -0.32,0.04 -0.52,0.04 -0.24,-0.72 -0.28,-0.36 -0.24,0.08 -0.68,0.08 -1.48,0.28 -2.2,0.36 -0.88,-0.6 -1.72,-1.24 -2.56,-1.88 -0.6,-2.76 6.13,-1.32 3.84,-6.97 -3.16,3.76 -18.26,14.21 -16.98,3.2 -2.04,0.08 -3.48,4.65 -5.97,1.84 -1.24,6.97 -6.53,5.24 -10.53,8.57 -1.76,0.44 -3.48,0.88 -5.25,1.28 -1.72,-0.88 -3.24,0.04 -2.8,-3.64 -1.76,-0.72 -1.64,1.92 -2.32,4.24 -1.04,-0.28 -1.8,-0.48 -1.48,-3.2 -1.88,-0.72 -1.56,2.32 -2.4,4.81 -1.96,0.44 -3.93,0.88 -5.93,1.4 -3.12,0.52 -6.25,1.16 -9.37,1.76 -0.52,-0.12 -1.08,0 -1.56,0.28 -1.44,0.28 -2.88,0.52 -4.32,0.8 -1.36,-0.32 -2.56,0.4 -4.12,-1.24 0.32,0.84 0.64,1.36 0.96,1.88 -0.56,0.08 -1.12,0.2 -1.64,0.32 -0.96,0 -1.88,0.04 -3,-1.16 0.24,0.64 0.48,1.16 0.72,1.6 -0.16,0.04 -0.4,0.04 -0.61,0.12 -0.08,-0.12 -0.2,-0.28 -0.28,-0.4 -0.96,-0.04 -1.48,0.28 -1.84,0.72 -0.6,0.12 -1.2,0.28 -1.84,0.32 -0.68,-0.04 -1.08,0.2 -1.44,0.4 -0.28,0.04 -0.52,0.12 -0.8,0.16 -0.32,-0.2 -0.52,-0.32 -0.88,-0.6 0,0.24 0.04,0.48 0.12,0.76 -0.32,0.08 -0.64,0.12 -0.96,0.2 -1.04,-0.52 -1.96,-0.36 -2.84,0.04 0,0 0,0 0,0 0,0 0,0 0,0.04 -0.44,0.24 -0.88,0.44 -1.36,0.72 0,0 -0.04,0 -0.04,0.08 -1.04,-0.32 -1.96,0 -2.84,0.56 -0.8,0.12 -1.64,0.32 -2.44,0.48 -0.6,-0.28 -1.24,-0.68 -1.92,-1.2 -0.32,0.64 -0.64,1.32 -1,1.76 -0.36,0.08 -0.72,0.16 -1.08,0.2 -0.48,-0.2 -1,-0.48 -1.52,-0.92 -0.28,0.48 -0.52,1 -0.8,1.44 -7.8,1.6 -15.66,3.24 -23.54,4.88 -3.4,0.2 -6.77,1.12 -9.93,2.12 -0.8,0.16 -1.56,0.4 -2.28,0.6 -3.48,0.96 -6.76,1.56 -9.89,0.28 -1.44,-1.64 1.4,-3.85 0.61,-5.57 -4.09,-1.16 -6.89,7.49 -11.73,0.64 -0.32,1.48 -0.12,3.04 1.28,4.44 -0.92,3.36 -2.56,1.36 -3.56,4.08 -2,-1.29 -0.8,-3.01 0,-4.65 -2.32,-2.04 -3.96,1.04 -6.21,0 -0.08,0.16 -0.08,0.4 -0.04,0.56 -1.12,0.36 -2.16,0.96 -3.4,0.44 -0.08,0.2 -0.04,0.36 -0.04,0.6l-2.12 3.53c0,-1 0.04,-1.96 -1.12,-2.8l-0.32 0.56c-0.28,-0.96 -0.56,-1.88 -2,-2.68 -1.08,0.4 -2.16,0.72 -3.24,1.12 -0.08,0 -0.08,-0.04 -0.16,-0.12 -2.44,0.96 -4.92,1.76 -7.45,2.61 -2.8,0.8 -5.65,1.44 -8.57,1.68l0.28 0.28c-1.12,0.2 -2.24,0.6 -3.36,0.64 0.08,-0.16 0.2,-0.36 0.32,-0.6 -4,-1.4 -9.81,3.32 -11.85,5.69 -0.28,0 -0.48,0.04 -0.72,0.12 -1.6,-3.09 -3.29,-3.64 -5.49,-0.68 0.56,0.4 0.96,0.8 1.24,1.12 -0.16,0.6 -0.36,1.64 -0.88,2.88 -7.17,1.16 -14.46,2.32 -21.66,3.49 -0.08,-1.28 -0.28,-2.52 -1.16,-3.6 1.88,-1.4 5.53,-0.56 4.96,-4.33 -2.52,1 -2.72,0.2 -4.56,-3 -0.52,4.13 -2.4,3.56 -2.56,6.65 -2.08,1.72 -4.77,-1.36 -6.65,2.72 -3.32,-5.64 -8.29,-2.32 -12.49,0.96 -0.44,0.04 -0.88,0.04 -1.32,0.16 -0.84,-3.56 -2.36,-3.76 -4.37,-1.6 -0.64,-0.56 -1.36,-0.48 -2.24,0.16 -0.08,-0.84 0.04,-1.72 0.6,-2.61 -1.84,-0.72 -3.53,-0.24 -5.21,0.68 -2.32,0.08 -4.48,1.8 -6.73,2.96 -0.48,0 -0.96,0 -1.48,-0.12 -0.12,0.28 -0.04,0.52 -0.04,0.72 -1,0.36 -2,0.52 -3.04,0.24 -0.6,1.2 0.4,2.2 0.88,3.32 -0.48,-0.24 -0.92,0 -1.2,1.6 -1.36,-1.36 -1.68,-2.88 -1.28,-4.44 -2.28,-0.48 0.88,4.92 -3.08,3.09 0,0 0,0 0,0 -0.16,-0.68 -0.16,-1.4 0,-2.13 -0.76,-0.16 -0.88,0.36 -0.92,1.04 -1.08,-1.28 -1.72,-2.6 -1.12,-4.08 -0.8,0.8 -1.88,1.08 -3.05,1.24 0,-0.08 -0.08,-0.16 0,-0.24 -0.16,0.08 -0.36,0.2 -0.52,0.32 -2.12,0.16 -4.37,-0.08 -5.73,1.04 -0.96,0.08 -1.8,0.24 -2.52,0.6 -0.32,-1.08 -0.44,-2.16 -2.16,-3.08 0.4,2.72 -0.4,3.08 -1.28,2.8 -0.28,-0.64 -0.64,-1.24 -1.72,-1.88 0.08,0.4 0.04,0.56 0.04,0.84 -0.28,-0.2 -0.48,-0.4 -0.48,-0.4 -0.92,0.28 -1.68,0.84 -2.37,1.52 -0.36,-0.28 -0.64,-0.56 -0.64,-0.56 -2.2,0.68 -3.21,2.48 -4.44,4.65 -1,0.04 -2.17,-0.32 -3.65,-1.48 -0.12,5.36 -6.21,3.64 -9.05,4.72 -0.44,-1.48 0.4,-3.09 -1.28,-4.37 -1.32,6.09 -5.41,0.96 -8.13,7.37 -0.12,0.96 0.08,1.64 0.44,2.24 -0.76,0.12 -1.48,0.52 -2.16,1.4 -3.4,0.52 -6.69,0.88 -10.09,1.4 1.68,-3.88 3.29,-7.85 6.21,-10.73 -2.32,-0.28 -4.85,-2 -7.25,-2.76 -0.84,1.92 -0.56,5.65 -3.12,3.2 -0.44,1.56 0.56,2.92 -0.08,4.53 -2.68,2.76 -2.04,-1.93 -5.36,-3.97 1.64,7.49 -10.29,10.17 -12.89,2.52 0.6,4.48 -2.92,0.4 -4.17,5.12 2.64,2.96 4.37,-2 7.05,0.92 0.36,3.44 -5.85,1 -8.21,1.04 0,1.28 -0.4,2.64 -1.08,4.04 -0.8,0.12 -1.52,0.16 -2.28,0.28 0.04,-0.88 0.32,-1.84 0.88,-2.16 -1.32,-0.56 -1.76,0.72 -1.68,2.28 -0.2,0.04 -0.4,0.04 -0.6,0.08 0.28,-2.04 0.08,-3.64 -2.08,-3.69 1.28,3.93 -0.04,3.25 -1.76,4.21 -0.4,0.04 -0.8,0.12 -1.2,0.16 -0.76,-3.2 -5.89,0.76 -6.53,0.88 -1.97,-3.53 -24.35,5.73 -26.71,-1.16 -1.36,-1.6 -32.72,8.97 -50.26,11.13 -0.84,-0.28 -1.36,-0.2 -1.6,0.2 -7.53,0.92 -14.93,1.88 -22.3,2.85 -0.12,-1.29 -0.36,-2.48 -2.12,-3.56 -2.08,2.28 -4.68,0.68 -6.57,4.61 -0.72,0.12 -1.4,0.16 -2.12,0.28 0.08,-1.28 0.08,-2.56 -0.88,-3.73 -0.6,2.04 -1.32,3.29 -2.24,4.08 -7.25,0.92 -14.42,1.76 -21.5,2.68 -0.2,-1.36 1.56,-2.84 -0.8,-3.88 -1.92,2.88 -5.69,0.84 -4.41,4.52 -2.28,0.28 -4.52,0.56 -6.77,0.84 -0.6,-2.32 0.2,-5.25 2.44,-3.44 -1.4,-6.13 -8.13,6.09 -10.05,-2.48l-3.44 5.81c0.6,0.4 1,0.84 1.28,1.28 -0.92,0.12 -1.88,0.28 -2.8,0.4 -0.12,-0.24 -0.24,-0.4 -0.36,-0.56 -0.12,0.28 -0.24,0.4 -0.36,0.6 -3.12,0.4 -6.24,0.76 -9.33,1.16 -1.92,-0.96 -3.97,-2 -6.37,-2.64 -3.32,5.4 -13.21,-0.88 -18.94,3.8 0.12,1 0.36,1.56 0.64,1.88 -1.04,0.12 -2.04,0.24 -3.09,0.4 -0.04,-0.12 -0.04,-0.12 -0.04,-0.24 -2.36,-1.76 -4.24,-2.8 -4.72,-4.84 -0.8,1.16 -1.88,3.52 -3,6.01 -1.8,0.24 -3.69,0.44 -5.45,0.68 -0.52,0.04 -0.96,0.16 -1.44,0.2 -0.36,-0.48 -0.72,-0.92 -1.2,-1.2 -1.76,-0.32 -6.17,5.69 -6.24,-0.16 -4.65,5.49 -10.01,4.77 -15.42,4.37 -3.44,-2.32 1.92,-5.65 -1.6,-7.97 -3.65,3.16 1.8,5.24 -1.12,8.37 -2.64,2.96 -3.88,-4.24 -6.33,-6.65 -1.6,2.08 -3.72,-0.36 -5.49,0.6 0.24,-2.48 -0.68,-4.76 -3.52,-6.85 0.04,1.36 -0.4,3.93 -1.76,2.92 -1.32,2.72 2.12,0.04 3.2,3.2 -1.44,3.44 -3.61,0.68 -5.45,0.68 -1.2,2.52 2.96,2.96 3.68,2.24 0.56,2.12 0.08,4.32 0.12,6.41 -2.61,0.52 -3.12,-2.8 -3.93,2.17 -3.48,-3.65 0.32,-3.21 -0.04,-6.29 -3.16,-2.17 -2.24,2.36 -2.92,4.85 -2.96,1.84 -6.45,-0.04 -9.53,1.08 -0.56,-2.64 1.32,-5.65 1.08,-8.25 -3.2,-1.04 -6.97,-7.85 -10.21,-4.37 -2.56,-3.93 -3.76,2.44 -4.21,3.84 0.6,1.84 1.2,3.69 -0.2,5.73 -2.28,0.72 -2.28,-4.88 -4.6,1.44 -3.29,-1.52 1.24,-3.76 -2.04,-5.29 1.24,5.36 -2.56,5.65 -5.85,3.32 -1.2,3.6 1.44,4.21 3.21,3.32 -0.96,1.88 -2.24,1.04 -3.12,3.04 -1,-2 -5.33,-3.64 -4.17,-5.97 -1.28,-0.28 -5.2,5.69 -4.85,-0.36 -2.52,-1.4 -2.44,8.33 -6.24,6.05 -0.84,-1.4 0.84,-3.09 1.56,-4.65 -3.49,-0.2 -10.33,-4.53 -10.93,1.12 -0.92,0.8 -6.01,-0.24 -3.21,-3.32 -1.2,0.28 -2,2.96 -1.76,2.92 3.56,4.24 -0.76,4.13 -1.6,9.25 -1.76,-3.49 -2.68,0.64 -3.92,2.2 -1.12,-0.88 -0.84,-2 -1.12,-3 0.64,2.16 -16.02,1.24 -17.82,1.52 -3.52,0.48 -6.89,2.08 -10.53,2.64 -8.37,1.2 -17.18,1.28 -25.19,4.44 -0.84,-1.12 0.44,-2.44 0.96,-3.69 -2,-1.16 -3.84,-1.64 -5.21,2.32 -1.84,-5.64 -2.88,-0.44 -5.92,-3 -2.28,-1.92 4,-4.72 -0.08,-6.37 -1.72,6.13 -3.56,2.84 -8.73,1.76 -1.52,4.81 -3.73,8.13 -7.97,2.68 -1.8,4.41 -4.41,1.68 -6.21,6.09 -8.73,-11.61 -20.62,-0.88 -33.88,-5.73 0.84,3.92 -1.88,7.57 -3.88,2.2 -2.52,2.32 -1.48,4.37 -1.36,6.41 -0.84,0.52 -1.68,1.04 -2.68,0.32 0,-2.76 -1.12,-5.29 1.16,-8.29 -4.36,-3.09 -0.12,7.57 -5.29,2.4 -0.32,6.41 -1.76,4.28 -5.69,5.01 -1.6,-1.92 -0.2,-4.24 1.36,-6.45 -6.81,6.25 -16.74,5.53 -24.99,4.13 -3.44,-0.52 -4.84,-1.52 -7.13,-3.8 -1.44,-1.32 -3.09,-2.37 -5.12,-2.76 -1.92,-0.4 -3.69,-0.12 -5.37,0.88 -0.64,0.4 -5.25,4.72 -4.64,5.16 -2.77,-2.16 2.64,-5.09 -0.8,-7.17 -1.8,5.29 -9.29,0.24 -13.66,1.28 -1.16,1.6 -0.28,3.05 -1.52,4.65 -0.44,-1.44 0.48,-3.04 -1.2,-4.36 -2.48,0.52 -0.68,1.28 -2.32,3.88 -0.72,-1.16 0.6,-2.48 -0.4,-3.64 -3.41,-3.4 -6.01,0.04 -5.09,4.21 -0.84,-1.24 -1.52,-1.4 -2.2,-0.8 -0.76,-1.08 0.48,-2.4 1,-3.69 -6.37,0.44 -17.1,-5.2 -20.5,2 -6.73,-4.32 -4.37,2 -8.33,-1.08 -0.56,1.52 -1.2,2.92 -2.04,4.28 -0.68,0.96 -1.44,1.88 -2.36,2.56 -0.44,0.36 -0.88,0.68 -1.32,1 -0.24,0.16 -0.48,0.4 -0.72,0.56 -0.12,0.12 -0.24,0.16 -0.36,0.28 -0.2,0.16 -0.32,0.16 -0.56,0.24 -0.2,0.04 -0.4,0.04 -0.64,0.04 -0.36,0 -0.72,-0.04 -1.08,0.04 -0.32,0.08 -0.6,0.36 -0.8,0.56 0,0 0.44,-2.6 0.32,-2.56 -0.12,-1.04 -0.56,1.2 -0.8,3.16 -0.08,0.12 -0.16,0.28 -0.24,0.44 -0.16,0 -0.32,-0.04 -0.44,-0.04 0.08,-2.04 -1.32,1.76 -0.8,-2.28 -0.32,0.96 -0.8,1.28 -1.32,1.84 -0.2,0.16 -2.76,-0.96 -3.12,-1.04 -1,-0.28 -2,-0.72 -3,-1 -0.64,-0.16 -1.24,-0.36 -1.84,-0.44 -0.24,-0.08 -1.44,0 -1.52,-0.16 -0.84,-1.08 0.4,-2.44 1,-3.72 -1.88,-0.12 -3.76,-1 -5.4,0.6 -1.44,1.24 -1.24,-2.68 -2.88,1.28 0.2,-1.56 0.72,-2.17 0.8,-3.09 -0.16,0.32 -0.64,1.2 -0.6,0.32 0.08,-0.96 0.44,-1.2 0.76,-1.8 -0.8,0 -1.29,1.48 -1.48,2.08 -0.28,0.72 -0.48,1.44 -0.68,2.2 -0.2,0.68 -0.28,1.32 -1.08,1.56 -0.36,0.08 -0.72,0.08 -1.04,0.04 -0.52,-0.04 -0.72,-0.72 -1.36,-0.56 -0.72,0.16 -0.96,1.28 -1.08,1.88 0.04,-0.92 -0.52,-0.36 -0.72,0 -0.88,-0.36 -0.88,-0.72 -1.84,-0.56l0.16 0.64c-0.04,0.04 -0.04,0.04 -0.04,0.08 -0.68,-0.08 -1.32,-0.24 -2,-0.36 -0.28,-0.52 -0.48,-0.28 -0.64,-0.12 -0.16,0 -0.32,-0.04 -0.48,-0.04 -0.12,-0.24 -0.24,-0.56 -0.48,-1.36l-0.16 1.24c-0.12,0 -0.24,0 -0.32,0 -0.04,-1.52 -0.4,-2.61 -2.08,-0.12 -0.12,0 -0.24,0 -0.36,0 0,-2.44 0.24,-6.68 -0.04,-7.17 -0.04,-0.56 0.32,-0.8 0.56,-1.12 0.08,-0.12 -0.16,-0.76 -0.28,-0.88 -0.32,-0.28 -0.44,0.32 -0.84,0.12 -0.2,-0.12 -0.2,-0.56 -0.48,-0.56 -0.2,-0.08 -0.36,0.28 -0.48,0.36 -0.36,0.52 -0.72,1.08 -1.08,1.64 -0.24,0.32 -0.64,1.08 -1.12,1.2 -0.56,0.12 -0.6,-0.68 -0.64,-1.04 -0.04,1.44 -0.08,2.84 -0.76,3.84 -0.8,0.4 -1.04,-5.73 -2.48,-1.32 0,-0.44 0,-0.84 0.08,-1.16 -0.76,1.04 -2.17,1.68 -2.88,4.05 0.88,-9.13 -4.17,3.88 -2.88,-4.49l-1.8 0.24 0.16 -0.88c-1.04,-0.72 -1.72,1.2 -2.41,3.21 -0.16,-0.64 0.16,-1.4 0.24,-1.84 -1.4,-1.92 -1.64,-1.6 -3.52,2.4l0.2 -2.72c-0.56,1.52 -1.84,-4.52 -3.84,-1.56 0.04,-0.32 0.16,-0.84 0.32,-1.2 -2.16,2.96 -3.6,-8.09 -5.29,1.8l-1.4 2.32c0.28,0.16 0.76,1 0.04,1 -0.76,-0.04 -0.56,-0.84 -0.88,-1.2 -0.16,-0.24 -0.36,-0.28 -0.56,-0.44 -0.24,-0.12 -0.4,-0.28 -0.52,-0.56 -0.04,-0.16 -0.16,-1.36 -0.08,-1.36 -1.72,0 -3.28,-0.96 -4.76,-1.8 -0.76,-0.36 -1.52,-0.84 -2.37,-1.2 -0.72,-0.28 -1.44,-0.68 -2,0.04 -0.24,0.32 -0.6,0.6 -1,0.68 -0.44,0.12 -0.88,-0.16 -0.96,-0.56 -0.04,-0.16 0,-0.32 -0.12,-0.4 -0.08,-0.04 -0.12,-0.04 -0.16,-0.04 -0.32,0 -1.08,0.04 -1.29,-0.12 -0.04,-0.12 0.08,-0.32 -0.08,-0.4 -0.12,0 -0.2,0.24 -0.28,0.2 0,0 -1.28,-0.32 -1.28,-0.32l0.44 3.2c-0.6,1.52 -1.16,-0.2 -0.64,3.4 -0.8,-5.56 -4.76,-2.04 -5.28,-3.76 -0.76,2.32 -1.52,2.28 -2.52,2 0.28,0.64 0.52,4.24 -0.32,3.88 0.04,-7.45 -1.64,-3.12 -2.6,-8.41 0.8,3.48 -2.44,1.04 -1.12,5.97 -0.76,-0.56 -0.24,-2.76 -0.88,-4.44 -1.52,3 -3.96,-1.64 -6.01,-0.48 0.04,1 0.56,2.44 0.28,3.92l-1.72 -4.65c-0.36,0.56 0.36,5.65 -0.88,2.36 0.24,0.84 0.56,2 0.32,2.41 -2.41,-2.04 -4.44,-0.72 -6.45,0.08 -2.08,0.68 -4.08,1.44 -7.57,-2.28 1.12,1.64 0.8,1.92 0.36,2.12 0.2,0.16 0.28,0.44 0.36,0.68 0.04,0.2 0.28,0.44 0.28,0.64 0,0.08 0,0.12 -0.04,0.2 -0.04,0.16 -0.2,0.32 -0.36,0.44 -0.56,0.36 -0.96,-0.28 -1.32,-0.68 -0.12,-0.16 -0.6,-0.48 -0.64,-0.72 0.4,1.88 -0.28,1.44 -1.2,2.48 -1,1.12 -0.92,2.88 -1.96,4 -1.6,1.76 -3.2,0.92 -4.57,-0.28 -3.24,2.4 -7.77,1.44 -10.57,4.57 -5.64,-5.17 -4.8,1.64 -11.53,8.21 2.2,-0.6 4.21,-2.16 6.57,-2.16 2.12,0 4.52,0.16 6.61,0.68 2.08,0.56 4.65,1.08 6.49,2.13 0.6,0.36 1.08,1.16 1.84,1.16 0.36,0 1.6,-0.64 1.32,-1.08 2.84,5.12 10.41,4.04 14.65,1.44 1.92,2.4 1.36,4.68 3.49,0.56 7.69,5.37 14.93,6.01 21.7,2.57 0.92,6.21 7.61,0.72 6.21,6.76 0.48,-2 3.61,-2.52 4.69,-0.88 2.2,3.36 -4.85,3.8 -6.77,4.37 -3.81,1.12 -7.61,2.28 -11.37,3.6 -7.09,2.48 -13.5,6.65 -20.26,9.97 -1.84,-0.96 -3.64,-2.16 -5.53,-3.56 3.44,-3.24 3.4,-5.24 6.09,-7.81 -6.81,0.84 -13.06,7.69 -17.02,2.41 1.04,7.57 -3.44,11.61 -0.64,20.02 -3.52,-0.68 -7.21,-2.76 -10.73,-3.68 0.36,2.44 3.12,3.68 2.32,6.28 -1,3.41 -3.09,0.32 -4.49,-0.68 0.72,4.37 -1.32,5.49 -3.96,8.53 -2.52,-3.29 -6.93,-7.49 -6.45,-2.17 -2.76,-2.2 -1.76,-5.4 -4.68,-5.04 -1.72,-3.32 -0.04,-2.37 1.56,-4.77 -0.04,0.12 -5.48,-0.24 -6.28,0 -1.8,0.68 -4.09,1.92 -5.45,3.12 -1.2,1.08 -3.12,1.64 -4,3.04 -0.84,1.2 -0.64,2.96 -1.12,4.37 -0.76,2.36 -2.32,-1.6 -3.09,-1.97 -1,-0.44 -0.88,0.56 -1.88,0.64 -0.4,0 -2.28,-1.36 -2.28,-1.72 -0.16,3.6 -4.69,2.2 -3.49,-0.56 -3.32,7.29 -10.73,4.6 -17.38,-1.32 0.84,0.72 -1.72,6.41 -2.48,7.13 -0.4,0.32 -0.88,0.56 -1.36,0.76 -1.24,0.56 -2.48,1.12 -3.72,1.68 -0.44,0.2 -0.92,0.44 -1.4,0.48 -1,0.12 -2.48,-0.2 -3.21,-0.92 -1.48,1.56 -3.76,1.48 -5.68,0.84 -0.44,-0.2 -5.17,-2.81 -4.24,-3.69 -3.93,3.73 -4.48,-1.96 -8.29,0.72 -1.92,-3.12 2.04,-1.28 2.41,-3.84 -4.33,-3.49 -7.73,0.76 -11.89,-1.73 -1.2,2.92 -1.4,3.89 -1.2,8.29 -2.4,-0.76 -6.61,1.28 -6.33,5.93 -3.24,-1.48 1.32,-3.73 -1.92,-5.33 -1.6,-0.8 -3.16,1.2 -4.8,0.76 -0.36,-0.08 -0.68,-0.36 -1.04,-0.4 -0.52,-0.2 -1.05,0.04 -1.6,-0.08 -0.8,-0.16 -1.52,-0.92 -1.08,-1.8 0.24,-0.48 0.6,-0.72 0.76,-1.24 0.04,-0.12 0.4,-1.64 0.28,-1.6 -1.6,0.24 -2.88,-1.44 -4.04,-0.04 -2.64,-1.6 -1.16,-3.6 -3.29,-5.2 -3.08,3.44 -9.77,7.61 -11.37,3.53 -1.2,-0.76 -1.04,1.72 -0.4,2.88 -2.4,0.76 -4.8,2.17 -7.73,-2.2 -1.28,3.52 -3.16,1.44 -4.37,4.85 2.61,-3.2 6.49,5.77 8.97,0.28 2.48,4.32 -0.2,6.33 5.01,8.65 -3.32,6.41 -5.13,-0.08 -6.29,-0.4 -2.24,4.61 3.04,3 3.52,6.93 1.08,-2.92 2.36,-3.05 4.09,-0.24 -0.28,-0.48 1.2,-1.92 1.6,-2.16 0.6,-0.44 1.24,-0.76 1.92,-0.92 0.28,-0.12 0.56,-0.16 0.84,-0.12 0.48,0.04 0.8,0.52 1.2,0.72 0.24,0.16 0.24,-0.04 0.4,-0.04 0.24,0 0.48,0.08 0.72,0.2 -2.12,-6.08 3.05,-0.16 5.45,-0.48 0.4,0.76 0.4,4.29 -0.6,4.85 2.28,0.96 6.37,4.72 8.93,2.68 3.45,7.45 7.09,1.92 9.93,9.01 1.12,-0.6 1.88,-1.6 2.52,-2.72 0.56,-0.92 1.04,-2.32 2.36,-1.29 0.68,0.56 0.92,1.12 0.48,1.84 -0.36,0.56 -0.76,0.76 -0.44,1.44 0.36,0.76 1.56,1.72 2.36,2.08 0.76,0.44 1.6,0.56 2.48,0.56 0.8,0 1.64,-0.12 2.44,0 0.44,0.08 0.84,0.16 1.28,0.28 0.84,0.28 0.44,0 1.24,-0.2 0.24,-0.08 0.52,-0.08 0.76,0 5.37,0.76 11.09,1.96 16.18,3.73 1.68,0.64 3.36,1.28 5.09,1.72 1.44,0.32 3.76,0 4.72,0.88 0.64,-0.2 1.88,-0.2 2.12,-0.96 0,0 6.05,0 6.61,0 2.52,0 4.49,0.64 6.77,1.64 0.32,-0.72 0.4,-1 1.2,-1.48 0.88,-0.6 1.68,0.36 2.56,0.72 1.16,0.48 2.28,1.08 3.2,1.96l2.36 -3.85c1.16,-0.32 2.32,0.08 3.53,0.68 1.64,1.96 0.24,4.12 -1.36,6.45 5.29,1.16 1.76,-8.97 7.61,-6.04 0.12,-0.44 0.28,-1 0.2,-1.48 -0.04,-0.28 -0.56,-0.44 -0.12,-0.84 0.2,-0.2 0.56,-0.2 0.88,-0.2 0.36,0 0.72,0.04 1.08,0.08 0.28,0.08 0.52,0.12 0.8,0.28 1,0.56 1.72,1.84 2.68,2.6 1.08,0.84 2.32,1.52 3.56,2.04 2.24,1.12 4.8,1.88 6.76,3.45 -3.76,2.56 -14.45,-2.08 -13.29,4.65 -4.17,0.48 -8.57,-2.28 -12.58,-0.76 0.04,0.92 -0.12,2.36 -1.32,2.52 -0.32,0.08 -0.68,0 -1.04,-0.12 -1.28,-0.44 -1.36,-0.76 -1.72,-2 0,0.08 -1.08,1.52 -1.2,1.76 -0.36,0.52 -0.68,1.16 -1.2,1.6 -0.48,0.32 -1,0.56 -1.52,0.8 -0.2,0.12 -0.4,0.24 -0.56,0.4 -0.08,0.12 -0.16,0.28 -0.24,0.44 -0.56,0.92 -1.48,1.44 -2.28,2.12 -0.84,0.72 -1.32,1.6 -1.68,2.61 -2.68,-1.64 -1.16,-3.56 -3.32,-5.25 -2.52,4.81 -1.76,0.4 -4.92,-0.44 -0.04,0 -1.52,1.24 -1.8,1.36 -0.64,0.28 -1.4,0.52 -2.12,0.64 -1.64,0.12 -3.76,-1.32 -5.09,-2.2 -1.8,-1.28 -0.44,-3.48 1.48,-3.48 -0.28,-0.96 -0.48,-1.88 -1.4,-2.81 -2.52,4.24 -3.16,4.57 -6.09,1.36 -0.24,-0.28 -1.36,2.6 -1.4,2.92 -0.08,0.96 0.36,2.12 -0.68,2.64 -0.36,0.24 -0.76,0.24 -1.12,0.24 -0.44,0 -0.8,-0.04 -1.16,-0.28 -0.88,-0.44 -0.44,-0.88 -0.76,-1.44 -2.24,-4.12 -3.65,-0.04 -5.89,-3.2 -1.24,1.32 -0.44,2.48 0.4,3.64 -0.28,0.2 -0.56,0.28 -0.84,0.36 -0.28,-0.28 -0.48,-0.36 -0.72,0.16 -1.6,0.04 -3.08,-0.76 -4.6,-1.28 -0.68,-0.16 -1.52,-0.4 -2.24,-0.28 -0.68,0.12 -1.16,0.52 -1.84,0.52 -0.48,0 -0.96,-0.08 -1.36,0.04 -1.36,0.16 -1.6,1.2 -2.6,1.8 -1,0.68 -4.21,-0.28 -4.57,-1.48 -0.04,-0.04 -0.08,-0.2 -0.16,-0.2 -0.08,0 -0.16,0 -0.2,0.04 -2,1.04 -3.73,-0.64 -5.61,-1.12 -0.12,-0.04 -0.24,-0.04 -0.36,-0.04 -0.16,0.04 -0.28,0.28 -0.4,0.44 -0.76,1 -2.8,1.12 -4.08,1.12 -1.52,-0.08 -2.08,-1.56 -3.2,-2.28 -0.12,-0.04 -0.2,-0.12 -0.32,-0.16 -1.52,-0.24 -1.96,3.09 -3.04,3.64 -0.24,0.12 -2.36,-0.28 -2.4,0.04 -0.36,4.53 0.72,5.33 -1.2,8.29 1.08,1.12 2.28,2.13 3.44,3.17 1.12,1.08 1.84,2.36 2.72,3.56 -0.04,-0.4 -0.04,-0.88 0.44,-1.12 0.32,-0.08 0.68,-0.04 1,0.08 1.56,0.28 3.12,0.68 4.44,1.6 0.4,0.2 0.8,0.52 1.28,0.64 1.12,0.32 1.36,-0.44 0.92,-1.24 0.24,-0.12 0.44,-0.24 0.68,-0.24 2.12,1.28 6.13,-1.28 6.08,3.6 0,0.48 3.21,-0.28 3.49,-0.4 1.32,-0.48 2.28,-0.6 3.53,0.28 0.68,0.44 1.28,1.04 1.88,1.6 0.24,0.2 0.52,0.44 0.88,0.56 0.28,0.04 0.56,0 0.84,0.08 1.28,0.48 -1.48,1.08 -1.8,1.2 -0.52,0.16 -1,0.32 -1.48,0.6 -0.16,0.04 -1.24,1 -1.28,1 0.96,0.2 1.96,0.2 2.88,0.48 1.04,0.32 1.68,1.28 2.88,0.72 0.16,-0.08 0.32,-0.16 0.48,-0.2 0.16,0 0.28,-0.08 0.4,-0.08 0.72,0.08 1.32,0.36 2,0.48 1.52,0.4 2.44,-0.96 4,-1.04 1.36,-0.04 2.72,0.44 3.97,0.96 2.36,1 5.32,2.64 7.85,1.2 0.08,0.08 0.12,0.12 0.2,0.12 0.28,-0.16 0.72,-0.12 1,-0.32 0.2,-0.2 -0.04,-0.56 0.4,-0.6 0.12,-0.08 0.24,0 0.4,0.04 0.36,0.08 0.76,0.24 1.12,0.36 0.48,0.24 0.28,0.52 0.48,0.8 0.2,0.2 0.16,0.2 0.6,0.28 0.84,0.16 1.73,0.16 2.57,0.2 1.72,0.16 3.4,0.28 5.12,0.4 1.68,0.04 3.4,0.16 5.09,0.24 0.44,0.04 4.85,0.36 4.92,0.16 -0.24,0.72 1.48,4.28 0.48,0.04 5.05,0.12 11.33,0.32 16.38,0.48 -0.8,1.56 1.68,-3 1.92,-0.44l1.16 0.64c0.16,0.08 0.52,0 0.72,0.04 0.32,0.12 0.6,0.28 0.88,0.4 0.6,0.2 1.2,0.36 1.68,0.8 0.24,0.24 0.44,0.52 0.64,0.72 0.4,0.56 0.76,1.12 1.16,1.6 0.04,0.08 0.12,0.16 0.12,0.24 0,0.12 -0.04,0.2 -0.12,0.28 -0.4,0.48 -1.04,0.72 -1.68,0.88 -0.88,0.16 -1.76,0.32 -2.64,0.32 -0.32,0.08 -1.32,0 -1.08,-0.56 -0.72,0.44 -1.08,-0.04 -1.73,-0.28 -0.92,-0.32 -1.28,0.64 -1.56,1.36 -0.08,-1.16 0.44,-1.68 0.36,-2.4 -0.12,0.28 -0.56,1 -0.64,0.28 -0.08,-0.72 0.32,-0.92 0.6,-1.44 -1.52,0.08 -2,3.65 -2.44,7.05 -0.6,-1.68 -0.52,-4.17 -1.28,-1.97 -0.12,-0.64 -0.4,-0.44 -0.44,-0.2 -0.88,-0.44 -2.68,-1.24 -2.92,1 -0.12,-0.68 -0.72,-0.28 -0.88,0.04 -1.16,-0.28 -1.24,-0.48 -2.44,-0.4l0.28 0.52c-0.76,3.2 -1,0.6 -2,0.92l0.08 -0.32c-1.88,-2.6 -1,1 -2.85,-1.88 -0.12,-0.76 -0.24,-1.48 -0.32,-2.17 -0.24,1.56 -0.84,2.85 -1.36,3.89 -0.4,-0.84 -0.88,-1.56 -1.4,-0.96l0.32 1.24c-0.84,1.36 -1.28,-6.17 -1.88,-6.77 -0.04,-0.16 0,-0.32 0.12,-0.44 -0.56,0.84 -1.44,2.64 -1.48,2.72 -0.08,-1.44 0.48,-2.2 -0.4,-2.6 -0.32,-1.2 -2.76,3 -3.68,0.12 0.12,1.16 0.28,2.24 -0.4,3.05 -0.96,0.28 -2.08,-4.44 -3.29,-1.08 -0.08,-0.32 -0.12,-0.6 -0.08,-0.88 -0.8,0.84 -2.48,1.24 -3.09,3.12 0.04,-3.32 -1.04,-2.88 -2.04,-2.16 -0.4,-0.84 -0.72,-1.64 -1.04,-2.48 -0.52,0.92 -1.52,1.64 -2.92,1.32 -0.52,-0.12 -0.88,-0.4 -1.24,-0.68 -0.68,0.32 -1.16,1.28 -1.6,2.32 -0.28,-0.48 0.04,-1.04 0.08,-1.36 -1.92,-1.56 -2.12,-1.28 -4.17,1.72 0,-0.72 0.36,-1.96 -0.64,-2.12 -0.28,-0.04 -0.6,-0.04 -0.92,-0.16 -0.24,-0.12 -0.48,-0.4 -0.72,-0.56 -0.4,-0.24 -0.92,-0.28 -1.4,-0.28 -0.76,-0.04 -1.6,-0.16 -2.24,-0.6 -0.4,-0.36 -0.68,-0.76 -1.04,-1.12 -0.48,-0.44 -0.92,-0.92 -1.44,-1.24 -1.72,-1.12 -2.28,1.68 -2.52,2.88 -0.12,0.52 -1.32,1.2 -1.64,1.68 0.2,0.16 0.68,0.32 0.64,0.68 -0.04,0.32 -0.4,0.44 -0.68,0.32 -0.52,-0.17 -0.52,-0.68 -0.8,-1.05 -0.24,-0.24 -0.52,-0.32 -0.8,-0.44 -0.28,-0.17 -0.56,-0.24 -0.76,-0.48 -0.08,-0.12 -0.32,-1.2 -0.16,-1.2 -1.84,-0.12 -3.6,-0.76 -5.29,-1.48 -0.84,-0.32 -1.68,-0.64 -2.52,-1 -0.72,-0.28 -1.56,-0.64 -2.36,-0.6 -0.28,0 -0.56,0.12 -0.72,0.32 -0.12,0.16 -0.16,0.36 -0.24,0.52 -0.16,0.2 -0.4,0.36 -0.64,0.36 -0.16,0 -0.28,0 -0.44,0 -0.2,-0.04 -0.4,-0.08 -0.6,-0.08 -0.24,-0.08 -0.48,-0.08 -0.68,-0.24 -0.2,-0.12 -0.32,-0.32 -0.28,-0.56 -0.32,0.08 -0.68,0.16 -1.04,0.16 -0.4,0.08 -0.52,-0.04 -0.56,-0.36 0,-0.16 0.08,-0.4 0.04,-0.56 0,0 -0.08,-0.24 -0.08,-0.24 0.04,-0.2 -0.04,-0.32 -0.4,-0.08l-1.52 -0.48c0.12,0.88 0.2,1.72 -0.72,2.12 -0.36,0.16 -0.76,0.16 -1.12,0.28 -0.24,0.04 -0.52,0.16 -0.8,0.12 -0.16,-0.08 -0.32,-0.16 -0.52,-0.24 -0.52,-0.08 -1.08,-0.16 -1.6,-0.16 -0.12,0 -2.36,-0.16 -2.08,-0.6 -0.4,0.6 -0.92,1.16 -1.6,1.36 -0.6,0.12 -1.12,-0.04 -1.68,-0.16 0.08,0.24 0.4,0.88 0,0.88 -0.32,0 -0.64,-0.52 -0.68,-0.8 -0.08,-0.24 -0.12,-0.44 -0.24,-0.6 -0.12,-0.36 -0.4,-0.56 -0.68,-0.72 -0.88,-0.72 -1.08,-1.6 -1.24,-2.72 0.44,2.8 -3.01,0.4 -2.24,4.33 -0.8,-0.56 0.16,-2.13 -0.32,-3.53 -2.28,1.96 -4.32,-1.92 -6.92,-1.4 -0.12,0.72 0.2,1.84 -0.44,2.92l-0.96 -3.8c-0.52,0.28 -0.92,4.21 -1.52,1.52 0.04,0.64 0.12,1.6 -0.24,1.76 -4.52,-4.13 -10.33,1.96 -14.65,-5.41 0.52,1.48 0.08,1.6 -0.44,1.6 0.32,0.4 -0.2,1.84 -0.24,2.8l-1.8 -2.96c-0.64,2.68 -2.28,-0.04 -2.72,2.6l0.68 -0.44c-1.2,3.09 0.52,7.17 0,11.17 1.36,-3.49 2.08,5.6 4.21,0.64 0.28,0.84 -0.44,1.28 -0.36,2.24 0.6,-1.72 1.12,-2 1.97,-1.12l-0.12 0.4c0.04,-0.16 1.48,0.16 1.64,0.2 0.48,0.16 0.96,0.44 1.4,0.72 1.04,0.72 2.08,1.76 3.24,2.17 -0.04,-0.48 0.2,-1.08 0.72,-1.32 0.36,-0.16 0.76,-0.12 1.12,-0.04 0.8,0.08 1.6,0.36 2.28,0.8 0.36,0.24 0.4,0.28 0.44,0.6 0,0.12 0.04,1.08 0.04,1.08 0.32,0.08 0.32,-0.28 0.44,-0.4 0.16,-0.24 0.68,-0.24 0.96,-0.16 0.32,0.04 0.64,0.32 0.68,0.6 0,0.16 0,0.4 0.12,0.48 0.08,0.08 0.16,0 0.24,0 0.96,-0.16 1.96,-0.24 2.96,-0.36 0.36,-0.08 0.68,-0.16 1,-0.16 0.4,0.04 0.76,0.08 1.12,0.08 1.52,0.12 2.96,-0.08 4.21,-1.08l-0.12 -1c2.12,-1.48 1.44,1.24 3.65,0.64l-0.08 0.24c0.52,-0.96 1.12,-1.32 1.68,-1.16 -0.64,1.04 0.76,2.28 -0.04,3.44 0.48,-0.68 1.28,-0.96 1.64,-1.72 0.16,-0.36 0.2,-0.88 0.4,-1.16 0.32,-0.4 1.08,-0.44 1.56,-0.36 0.92,0.24 1.04,1.12 0.56,1.8 1.84,3.68 3.68,-3.12 4.16,2.04 -0.04,-2.16 2.88,-2.68 3.04,-0.4 0,-0.04 -0.16,0.44 -0.2,0.28 0.4,0.96 1.88,-1.04 2.04,0.52 2.04,-5.04 5.97,-1.88 0.32,0.44 0.32,1.48 4.21,0.68 4.21,0.68 0.24,-0.24 0.16,1.44 0.16,1.44 1.08,-1.96 4.12,4.57 2.8,-1.12 2.96,1.32 8.37,1.08 9.89,4.33 -1,1.12 1.04,4.28 2.68,1.44l2.2 1.24c0.08,-0.68 0.16,-1.32 0.24,-2.04l1.36 -0.04c0.04,0.72 0.68,0.48 0.36,1.04 0.12,0.16 0.32,0.16 0.48,0.16 0.36,1.92 -0.56,3.44 -1.44,5.01 -0.52,-0.32 -1,-0.6 -1.52,-0.72 0.04,1 0.08,2 0.16,3 -1,-1.16 -2.52,-1.28 -3.93,-1.36 -0.68,-0.08 -1.4,-0.08 -2.12,-0.24 -0.24,-0.12 -0.52,-0.24 -0.8,-0.16 -0.28,0.12 -0.4,0.32 -0.72,0.4 -0.92,0.04 -1.36,-0.4 -2,-0.92 -0.44,-0.32 -0.88,-0.04 -1.28,-0.36 -0.12,-0.12 -0.28,-0.76 -0.16,-0.84 -1.12,0.48 -2.17,-0.36 -3.05,-0.92 -0.2,-0.12 -0.4,-0.24 -0.6,-0.12 -0.12,0.04 -0.2,0.16 -0.28,0.2 -0.36,0.52 -0.72,0.96 -1.16,1.32 -0.08,0.12 -0.16,0.2 -0.24,0.2 -0.08,0.04 -0.16,0.04 -0.24,0.04 -1.16,-0.16 -8.01,-3.48 -7.13,0.24l-0.76 -2.84c-0.48,2.64 -1.12,0.08 -1.48,2.6l0.36 -0.44c-0.2,0.76 -0.32,1.6 -0.36,2.48 -1.56,-0.4 -3.04,-0.92 -4.32,-2.04 -0.84,2.32 -2.44,4.81 -1.44,7.49l1.76 -1.12c0.8,2.16 0.48,3.81 0,5.21 -0.12,0 -0.2,0 -0.32,0 -0.04,0.2 -0.04,0.56 -0.04,0.84 -0.12,0.32 -0.24,0.64 -0.36,0.92l-0.28 -2.56c-0.24,0.36 -0.52,4.09 -0.8,1.56 0,0.6 0.08,1.56 -0.12,1.72 -2.12,-3.76 -5.29,2.16 -7.09,-4.61 0.16,1.4 -0.08,1.48 -0.32,1.48 0.12,0.4 -0.2,1.8 -0.24,2.72l-0.76 -2.76c-0.48,2.6 -1.12,0 -1.52,2.56l0.36 -0.44c-0.12,0.48 -0.16,1.04 -0.24,1.6 -0.56,0.16 -1.04,1.2 -1.28,3.8l1.12 2.04c-0.04,1.04 -0.08,2.12 -0.2,3.16 0.52,-2.12 0.72,0.44 1.08,1.48 -1.92,4.32 -4.08,10.69 -6.89,8.69 0.32,1.32 0.52,2.56 2.04,2.8 1,0.24 1.44,-0.08 2.28,-0.36 0.6,-0.24 1.28,-0.12 1.88,-0.16 0.8,-0.12 1.64,-1 2.28,-0.84 0.96,0.16 2.32,1.84 3.12,2.48 1.24,1.08 2.92,3.44 3.08,5.16 -0.24,-2.56 -1.32,-4.85 1.24,-3.73 0.04,-0.76 0.24,-1.76 0.4,-2.32l0.16 0.24 -0.16 -0.36c0.08,-0.36 0.12,-0.44 -0.04,-0.12 -0.68,-1.04 -1.24,-2.28 -1.52,-3.72 0.12,-1 0.4,-1.84 0.68,-2.56 0.36,-0.08 0.8,-0.64 0.88,-0.4l-0.36 -0.64c0.04,-0.08 0.08,-0.12 0.12,-0.2 1.36,-0.68 4.48,0 5.77,0.68 0.48,0.28 0.92,0.64 1.32,1 1.08,0.84 2.16,1.44 2.32,2.88 0.16,1.44 -0.24,2.72 -1.24,3.76l3.16 0.04c2.04,3.05 4.69,4.17 6.09,1.64 1.56,1.2 3.36,-6.45 2.32,-1.96 0.08,-0.32 1.8,-1.6 2.12,-1.84 1.16,-0.84 2.76,-1.04 4.12,-0.84 1.08,0.24 2.08,0.72 3.21,0.92 0.72,0.04 1.44,0 2.16,-0.12 2.72,-0.28 5.53,-0.44 8.29,-0.12 1.4,0.24 2.8,0.48 4.12,1.04 1.16,0.4 2.13,1.16 3.32,1.24 1.8,0.04 2.64,0.6 4.37,1.28 1.6,0.6 2.48,0.04 2.72,-1.72 0.8,3.44 1.88,5.12 3.16,5.97 -0.88,1.64 -1.68,4.21 -2.88,2.72 1.28,4.28 0.56,4.24 -2.08,7.61 -2.68,-2.61 -0.44,-3.68 -4.12,-0.56 -0.08,1.04 -1.48,0.72 -2.28,0.92 -0.96,0.24 -1.76,0.92 -2.8,0.92 -0.68,-0.08 -1.28,-0.4 -1.93,-0.48 -1.48,-0.36 -2.88,0.28 -4.24,0.64 -1.28,0.4 -2.64,0.28 -3.8,0.84 -0.56,0.2 -1.16,0.36 -1.8,0.36 -0.52,-0.04 -1.04,-0.08 -1.56,0.12 -0.4,0.24 -0.72,0.6 -1.2,0.68 -0.24,0 -0.44,-0.08 -0.64,-0.12 -1.16,-0.28 -2.56,-0.12 -3.73,0.04 -0.44,0.08 -0.52,0.4 -0.6,0.8 -0.08,0.48 -0.16,0.92 -0.24,1.44 -0.08,0.32 -0.16,0.68 -0.24,1.08 -0.04,0.24 -0.12,1.24 -0.28,1.32 -1.28,0.84 -1.8,-2.52 -2.24,-3.12 -0.48,-0.56 -0.4,-0.68 -0.96,-0.16 -1.16,0.88 -0.24,2.56 -2.32,2.85 -0.72,0.12 -1.48,0 -2.2,0.12 -0.56,0.08 -1.08,0.28 -1.6,0.28 -1,0 -1.92,-0.68 -2.92,-0.88 -1.72,-0.44 -3.4,0.28 -5.09,0.48 -0.8,0.12 -1.6,0.08 -2.4,0.24 -0.72,0.16 -1.36,0.6 -2.12,0.6 -0.72,0.08 -1.4,-0.28 -2.08,-0.4 -1.36,-0.16 -2.88,0.56 -4.04,1.16 -0.48,0.28 -0.96,0.56 -1.52,0.64 -0.96,0.08 -1.84,-0.44 -2.72,-0.8 -0.24,-0.08 -0.44,-0.16 -0.68,-0.16 -0.28,0 -0.6,0.12 -0.88,0.16 -1.4,0.44 -4.84,0.72 -5.84,-0.72 0.08,0.08 -0.76,-2.48 -0.76,-2.12 -0.16,3.73 -1.36,-0.4 -0.36,3.12 -0.36,-1.2 -1.48,0.72 -1.56,1 -0.16,0.56 -0.44,1.4 -0.44,2 0.04,0.56 0.44,0.92 0,1.44 -0.2,0.2 -0.56,0.32 -0.88,0.44 -3.69,0.64 -4.08,-3.05 -4.61,-5.61 -0.28,0.36 -1.44,2.88 -1.44,2.88 4.57,2.44 -1.8,12.77 -4.65,13.37 -2.6,-10.49 6.61,-7.09 -2.52,-11.61 -0.2,-0.08 -0.44,2.41 -0.44,2.57 0,0.56 -0.08,1.16 0.04,1.64 0.04,0.44 0.16,0.72 -0.12,1.16 -0.16,0.28 -0.4,0.52 -0.64,0.68 -0.28,0.2 -0.56,0.4 -0.92,0.48 -0.2,0.08 -0.56,0.12 -0.8,0 -0.16,-0.08 -0.12,-0.2 -0.24,-0.32 -0.08,-0.12 -0.16,-0.24 -0.28,-0.24 -0.36,0.08 -0.44,1.48 -0.44,1.68 -0.04,6.17 -2.2,12.45 0.36,5.21 2.08,12.05 2.32,-4.65 4.36,-1.84 1.08,14.9 3.37,-1.64 12.46,6.81 0.68,0.6 0.12,2.44 1.32,2.92 0.76,0.36 1.36,-0.2 1.88,-0.72 0.76,-0.8 0.96,-1.92 1.56,-2.8 0.8,-1.12 2.44,-1.4 3.72,-1.04 0.52,0.08 1,0.32 1.52,0.36 0.6,0 1.2,-0.2 1.76,-0.48 1.76,-0.72 3.53,-1.4 5.29,-2.16 1.4,-0.6 2.92,-1.8 4.48,-1.48 1.48,0.24 2.96,0.72 4.37,1.24 0.6,0.24 1.24,0.52 1.88,0.64 1.04,0.2 2.08,0.04 3.16,0.04 0.44,0.04 1.24,0 1.64,0.28 0.28,0.2 0.2,0.6 0.44,0.84 1.16,1 1.6,-0.36 2.08,-1.64 -0.28,0.8 -0.12,3.12 0.24,3.88 0.88,-1.64 0.04,-3.88 1.97,-4.85 0.68,-0.4 1.44,-0.56 2.16,-0.84 1.04,-0.4 1.96,-1.12 3.04,-1.44 4.97,-1.56 8.85,3.8 13.9,2.72 1.2,-0.24 2.36,-0.84 3.6,-0.88 0.84,-0.12 1.72,0.04 2.6,0.12 1.2,0 2,-0.56 3.09,-0.84 0.68,-0.24 1.4,-0.16 2.08,-0.44 1,-0.4 2.68,-2.28 2.24,-3.48 2.81,8.49 13.09,6.45 9.01,-6.68 4.08,3.64 1.64,18.18 7.81,11.53 1.16,5.8 -6.49,10.57 -10.69,4.48 -4.65,-0.04 -7.97,12.17 -13.26,6.57l-2.36 3.76c-2.53,-1.52 -0.28,-3.56 -0.56,-5.37 -2.88,-1.2 -4.93,6.13 -8.05,2.52 -1.84,-3.28 2.36,-2.56 2.96,-4.76 -7.49,3.04 -14.3,7.25 -20.1,0.64 -2.24,0.56 -4.61,-0.04 -6.49,4.21 1.76,1.4 2.28,2.84 1.12,4.48 -3.2,-4.24 -10.09,2.2 -15.5,-2.52 1.36,-2.44 2.76,-4.77 4.49,-3 -1.64,-3.05 -9.01,-2.52 -12.74,-2.64 -2.72,4.64 2.41,-0.16 3.89,4.12 -1.97,3.2 -4.57,0.56 -6.49,4.21 0.68,1.52 0.8,2.88 -0.24,4.48 2.04,2.44 2.52,0.2 3.08,3.44 -0.92,0.32 -1.8,0.68 -2.6,1.92 -4.12,-6.53 -5.01,-4.6 -9.77,-7.33 1.84,-4.61 4.88,2.24 6.77,-2.37 -2,-3.24 -3.36,-0.8 -5.25,-4.08 1.76,3.49 -4.28,6.89 -7.05,6.89 -0.8,-1.16 0.44,-2.44 1.08,-3.76 -2.28,-4.17 -3.68,0 -5.89,-3.16 -0.96,1.88 2.24,3.49 1.88,5.29 -4.48,3.56 -9.77,-0.72 -14.38,2 0.44,4.68 3.4,-1 5.69,1.4 0.52,0.8 0.16,1.76 1,2.6 -3.76,-1.52 -4.28,2.13 -7.97,4.29 0.68,5.04 3.84,3.16 4.72,-1.32 3.49,2.16 -2.44,5.73 1.97,5.33 -1,1.56 -0.56,3.04 -1.4,4.36 0.6,0.28 1.24,0.44 1.92,1.04 2.41,-2.28 1.36,-4.37 2.85,-6.65 4.08,-0.08 8.41,1.16 12.21,-2.64 5.97,8.69 10.21,0.28 15.5,2.36 0.48,7.33 -7.45,3.29 -7.33,9.69 7.37,-3.48 12.61,2.56 20.3,-5.16 -0.24,0.2 2.6,3.68 3.04,3.96 1.2,0.8 2.76,0 4.13,0.12 1.64,0.04 3.16,0.56 4.8,0.32 1.32,-0.16 2.44,-0.4 3.64,-1 2.33,-1.04 4.73,-2.92 7.41,-2.48 -5.88,4.37 -9.49,8.57 -10.89,9.01 2.76,6.41 9.85,-3.49 14.01,-5.65 0.88,4.65 5.45,2.92 7.89,2.04 0.44,-1.2 -1.12,-2.32 -0.4,-3.65 0.68,-0.56 1.4,-0.04 2,-1 0.4,1.52 -0.6,3.04 1.16,4.44 5.77,-0.4 11.13,-4.57 16.78,-5.89 0.44,0.68 0.08,2.68 1.44,1.96 0.92,-0.52 1.32,-1.4 2.2,-1.96 0.48,-0.24 1.08,-0.48 1.64,-0.52 0.24,-0.08 1.56,0.04 1.64,0 -3.21,2.96 4.24,2.76 2.08,6.93 2.04,1.52 3.25,-5 5.17,-4 2.36,3.32 -2.28,6.09 -4.24,6.69 -1.4,2.6 2.24,4.65 0.76,7.25 2.8,2.04 4.92,-2.32 7.68,0.2 0.28,4.04 -2.48,3.04 -3.36,7.53 1.24,2.04 2.36,2 4.32,1.12 0.68,-0.28 1.28,-0.64 2.04,-0.32 0.48,0.16 0.76,0.76 1.16,0.88 0.52,0.2 1.16,-0.24 1.84,0 1.72,0.48 3.09,1.2 2.8,3.08 -0.36,2 -0.8,4.04 -1.28,6.05 -0.64,2.8 -1.44,5.56 -2.32,8.29 -0.4,1.2 -0.64,2.52 -1.24,3.68 -0.28,0.52 -0.68,1.24 -1.28,1.52 -0.6,0.24 -1.12,0.2 -1.6,0.8 -0.44,0.56 -1,1.12 -1.76,0.96 -0.24,0 -0.48,-0.12 -0.72,-0.2 -0.28,-0.08 -0.56,-0.08 -0.84,-0.08 -0.76,0 -1.44,0.08 -1.88,0.8 -0.4,0.56 -0.76,1.08 -1.52,1.24 -1.12,0.2 -1.88,-0.68 -2.56,-1.44 -0.64,-0.72 -1.36,-1.44 -2.32,-1.64 -0.6,-0.12 -1.2,0.04 -1.8,0.2 -0.52,0.12 -1.12,0.28 -1.6,0.16 -0.48,-0.04 -0.96,-0.32 -1.36,-0.56 -0.2,-0.16 -0.44,-0.24 -0.64,-0.44 -0.16,-0.17 -0.28,-0.32 -0.4,-0.48 -0.76,-0.88 -1.89,-1.28 -3.01,-1.04 -0.84,0.16 -1.6,0.52 -2.4,0.88 -1.84,0.84 -3.92,1.2 -5.93,1.28 -1.36,0 -2.8,-0.24 -3.64,-1.24 -0.84,-0.92 -1.04,-2.28 -2.08,-3.04 -0.08,-0.04 -0.2,-0.08 -0.24,-0.2 -0.08,-0.24 0.32,-0.8 0.4,-1 0.24,-0.56 0.48,-1.16 0.68,-1.72 0.16,-0.48 0.32,-1.08 -0.08,-1.44 -0.36,-0.32 -1,-0.04 -1.24,0.36 -0.28,0.4 -0.28,0.92 -0.36,1.4 -0.04,0.52 -0.12,1.08 -0.52,1.4 -0.52,0.44 -1.45,0.2 -1.89,-0.32 -0.36,-0.56 -0.2,-0.96 -0.28,-1.56 -0.04,-0.56 -0.4,-0.92 -0.88,-1.24 -0.44,-0.2 -0.88,-0.36 -1.36,-0.48 -1.24,-0.28 -0.72,2.17 -1.28,2.88 -0.8,1.04 -2.57,0.72 -3.73,0.72 -2.68,0.4 -4.52,2.96 -5.49,5.37 0.48,-1.12 0.44,-2.48 -0.28,-3.48 -0.72,-1 -2.2,-1.44 -3.25,-0.84 -0.72,0.44 -1.12,1.16 -1.68,1.76 -1.16,1.16 -3.04,1.6 -4.6,1.04 -0.64,-0.2 -1.24,-0.64 -1.48,-1.2 -0.44,-1 0.28,-1.72 1.12,-2.04 0.2,-0.04 1.96,-0.6 1.88,-0.12 0.4,-2.68 -3.32,-1.88 -4,-4.81 0.24,1.12 -1.84,3.8 -2.36,4.73 -0.96,1.52 -2.2,4.12 -4.33,4.24 -0.52,0.04 -1.08,-0.12 -1.6,0.04 -0.48,0.17 -0.84,0.68 -0.96,1.2 -0.16,0.52 -0.08,1.08 0.04,1.56 0.44,1.96 1.24,3 2.88,3.8 1.52,0.84 2.76,2.68 4.68,1.84 0.04,0 2.04,-0.88 2.04,-0.88 -0.44,2.56 4.48,-2.72 4.21,2.76 2.08,-1.56 2.16,0.6 1.44,2.04 0.92,-0.44 1.16,2.72 2.2,0.72 -1.28,5.69 2.68,2.28 3.44,3.6 1.36,-2.92 4.37,-5.49 7.77,-4.72 0.56,0.2 1.08,0.4 1.6,0.64 1.36,0.56 2.76,0.92 4.24,0.92 0.76,0.08 1.48,-0.04 2.24,0 0.72,0.08 1.44,0.28 2.16,0.52 0.72,0.16 1.44,0.36 2.17,0.6 0.28,0.04 0.4,0.28 0.32,0.56 1.36,0.48 1.28,0.92 0,1.6 -1.64,0.8 -3.4,1.36 -5.05,2.24 -0.88,0.44 -2.36,1.16 -2.6,2.28 -0.08,0.52 0.16,0.88 0.44,1.28 0.24,0.28 1.96,1.64 2.2,1.44 4.96,-3.92 3.92,-1.8 10.65,1.8 -0.4,-1.93 -0.08,-5.41 2.16,-5.97 2,-0.48 4.41,0.52 5.61,2.2 0.64,0.96 1.04,2.12 1.96,2.76 1.32,1.08 3.04,0.92 4.24,2.24 0.84,0.88 1.04,1.76 1.2,2.92 0.16,1.04 0.64,10.49 0,10.65 -5.89,1.52 -22.27,0 -12.18,-12.09 -5.45,0.84 -10.13,7.65 -13.57,2.32 0.52,3.36 0,6.65 -0.36,10.01 -0.32,3.16 0.12,6.09 0.24,9.25 0.04,1.84 -1.12,3.52 -1.36,5.4 -0.08,0.56 -0.04,1.16 -0.32,1.72 -0.4,0.88 -1.48,1.2 -2.44,1.32 -2.41,0.2 -2.61,-1.32 -3.32,-3.08 -0.32,-0.8 -1.28,-3.29 -2.56,-2.68 -0.6,0.32 -0.04,2.16 -0.64,2.68 -0.84,0.76 -4.65,0.2 -5.85,0.2 -1.52,0.08 -3.08,-0.12 -4.36,-0.88 -0.96,-0.6 -1.88,-1.88 -1.56,-3.09 0.08,-0.28 1.73,-2.28 1.73,-2.28 -2.48,-0.48 -5.01,-1.16 -7.05,1.68 -2.32,-2.84 1.12,-6.21 -1.24,-9.05 -0.76,1.56 -0.52,8.81 -3.24,5.01 -0.04,2.08 -1.12,4.33 1.48,6.17 -1.08,-0.76 -3,4 -3.16,4.44 -0.6,1.72 -0.28,4.88 -2.24,5.8 -0.64,0.28 -1.4,0.2 -1.97,0.64 -0.52,0.4 -0.68,1.08 -0.92,1.68 -1.52,3.92 -5.61,2.24 -8.65,1.92 -1.84,-0.2 -3.69,0.24 -5.56,0.28 -6.49,0.16 -12.21,-4.37 -18.66,-5.05 -1.52,-0.16 -3.12,-0.08 -4.57,-0.64 -3.36,-1.16 -1.84,-4.92 -5.56,-5.36 -2.48,-0.36 -4.49,1.32 -6.85,-0.36 -0.76,2.96 -0.88,3.89 -0.48,8.37 -2.48,-0.92 -3.32,2.37 -5.69,1.65 -0.64,-0.2 -1.24,-0.52 -1.84,-0.68 -1.36,-0.44 -2.88,-0.36 -4.21,-0.84 -0.36,-0.16 -0.72,-0.32 -0.96,-0.68 -0.68,-0.8 -0.04,-2.16 -0.24,-3.12 -0.64,0 -1.24,-0.52 -1.84,-0.52 0.04,0 -1.72,0.12 -1.32,0.4 -2.28,-1.56 -1.16,-3.56 -3.04,-5.09 -2.24,3.4 -7.41,7.57 -8.93,3.68 -1.04,-0.88 -0.76,1.56 -0.16,2.72 -1.92,0.88 -3.76,2.2 -6.41,-2.08 -0.8,3.53 -2.4,1.44 -3.24,4.97 1.97,-3.29 5.65,5.56 7.29,0.12 2.24,4.24 0.16,6.25 4.52,8.57 -2.28,6.41 -4.13,0 -5.05,-0.4 -1.52,4.64 2.64,3.04 3.16,6.92 -0.16,-1.28 0.88,-2.44 1.96,-2.12 0.88,0.28 1.04,1 2.08,1.12 1.28,0.16 1.96,-0.16 3.29,0.48 1.08,0.64 2.2,1.24 3.2,1.92 0.6,0.48 1.16,0.96 1.8,1.28 1.4,0.8 3.2,1.28 4.65,1.88 1.16,0.44 2,0.56 3.12,-0.28 1.2,2.28 2.08,3.68 4.44,4.6 0.72,0.32 1.44,0.48 2.04,1.04 0.36,0.36 2.4,3.12 2.04,3.4 2.57,-1.96 1.64,-5.77 4.68,-5.97 0.84,1.4 -0.52,3.09 -1,4.68 -0.16,0.56 1.76,2.32 2.24,2.6 0.72,0.36 1.32,0.44 2.08,0.48 3.16,0.16 6.05,-0.44 9.17,0.36 3.12,0.76 6.13,2.12 9.41,2.44 1.04,0.12 2.12,0.12 3.12,0.52 7.33,2.72 14.9,2.6 22.39,4.16 0.4,-1.24 1.04,-2.88 2.48,-3.16 1.48,-0.28 2.8,1.24 2.85,2.77 0.08,1.48 -0.72,2.92 -1.48,4.2 0.2,-0.36 1.64,-0.68 2.04,-1.2 0.68,-0.92 0.36,-1.69 0.6,-2.68 0.28,-1.32 0.52,-2.41 1.96,-2.64 1.64,-0.24 4.09,0.96 5.45,1.76 1.6,0.96 6.53,3.04 3.08,4.88 -1.12,0.6 -2.28,0.52 -3.36,1.32 -2.44,1.8 -1,2.96 -4.53,3.16 -2.76,0.08 -5.97,0.36 -8.77,1 -1.64,0.32 -3.12,1.04 -4.65,1.64 -3.12,1.29 -6.65,2.88 -9.97,2.08 -0.48,-0.08 -0.92,-0.2 -1.4,-0.28 -1,0 -1.92,0.36 -2.84,0.56 -0.96,0.28 -1.96,0.52 -2.88,0.2 -1.24,-0.4 -1.64,-1.4 -1.48,-2.57 0.08,-0.4 1.8,-3.08 1.92,-2.88 -0.44,-0.84 -0.92,-1.6 -1.36,-2.4 0.24,1.12 -0.52,2.44 -1.68,2.84 -1.16,0.4 -2.52,-0.28 -3,-1.36 0.32,0.72 -0.4,2.24 -0.52,2.96 -0.28,1.56 -0.12,1.92 -1.72,2.4 -3.04,0.76 -0.92,-2.61 -3.32,-3.44 -0.12,0 -4.09,0.04 -3.21,-1.16 -1,1.32 -0.28,2.44 0.52,3.6 -3,2.48 -7.49,-5.53 -9.65,2.8 -6.41,-2.36 -10.41,1.93 -16.14,-3.76 -1.2,4.72 -3.48,1.56 -5.29,2.4 0,4.41 0.92,5.29 -0.48,8.29 3.12,3.64 3,2.48 5.36,6.65 0.64,-4.48 -0.28,-3.2 1.24,-7.36 1,-0.72 3.8,-0.88 4.85,-0.24 0.48,0.28 0.88,0.8 1.24,1.24 1.16,1.44 -0.76,3.93 -0.72,5.69 1.64,2.16 5.33,-1.44 5.57,3.88 3.84,1.04 6.61,-5.8 11.21,0.6 -1.8,3.09 -4.2,1.64 -6.12,4.29 1.56,0.68 2.96,-0.48 4.92,3.12 0.08,-3.8 0.6,-3.88 2.16,-0.16 3.32,-6.93 8.89,2.24 12.77,-0.52 2.48,1.6 0.28,3.6 -0.36,5.49 1.92,3.05 2.96,-0.32 4.65,1.32 -1.4,-3.08 3.52,-8.01 5.73,-4.76 17.54,2.16 27.43,-1.48 45.29,2.92 2.96,-14.38 11.25,12.41 6.89,-10.65 0.12,0.56 5.56,2.44 6.41,2.8 1.68,0.92 3.36,1.84 5,2.88 2.32,1.44 10.09,4.93 9.17,8.37 -0.2,0.84 -0.92,1.36 -1.68,1.64 -0.8,0.28 -1.6,0.32 -2.44,0.44 -1,0.12 -1.96,0.28 -2.92,0.52 -1.28,0.32 -2.52,0.72 -3.84,0.76 -2.76,0.04 -3.64,-1.64 -4.04,-4.05 -1.36,8.37 -0.16,1.28 -7.05,1 -1.48,-0.44 -1.92,1.92 -2,1.52 -0.08,2.77 -4,2.04 -5.77,2.28 -2.76,0.4 -5.77,1.36 -7.69,3.45 -2.04,2.12 -0.32,7.49 1.12,9.85 1.24,2.08 3.12,3.53 5.33,4.48 0.64,0.28 4.88,1 5.09,1.52 -3.28,-8.61 10.05,9.85 10.25,6.09 0.12,-1.88 4.12,0 4.8,0.28 2.61,0.96 4.09,0.88 6.69,0.56 2.92,-0.32 6.57,1.04 9.29,2 3.13,1.04 6.21,2.33 9.29,3.65 1.36,0.56 2.72,1.16 4.08,1.72 0.4,0.16 0.76,0.32 1.04,0.64 0.36,0.4 0.48,0.96 0.56,1.44 0.16,0.96 0.28,2 -0.2,2.88 -0.44,0.84 -1.64,1.4 -2.44,0.76 -0.04,-0.44 -0.12,-0.8 -0.2,-1.24 -2.28,-0.44 -4.61,-0.32 -6.85,-0.76 -1.88,-0.4 -3.61,-1.24 -5.37,-1.96 -3.28,-1.32 -3.8,-0.4 -2.72,3 -1.12,-3.56 -7.49,-2.16 -9.89,-1.56 -3.85,1 -7.65,2.44 -11.66,2.48 -0.84,0 -1.68,0.32 -2.48,0.68 -0.44,0.2 -1,0.44 -1.48,0.28 -1.76,-0.56 0.12,-2.44 0.84,-2.88 -2.85,0.2 -2.88,2.8 -5.85,6.08 -0.32,-1.24 -0.64,-2.32 -1.56,-3.48 -1.48,3.24 1.44,2.08 1.4,6.17 -1.4,1.88 -3.56,-1.2 -4.56,3.29 9.01,3.44 17.5,2.92 25.99,2.64 2.68,1.48 -0.84,3.73 1.8,5.29 2.08,-0.28 1.2,-2.36 2.16,-4.85 2.72,3.36 -0.36,7.33 -1.8,11.17 -4.65,-1.6 -9.61,-2.8 -14.58,-2.92 -2,-0.04 -4.17,0.12 -6.01,0.96 -2,0.88 -2.85,2.24 -5.21,2.36 -3.16,0.16 -6.49,0.28 -9.21,-1.28 -0.36,-0.2 -0.76,-0.48 -1.2,-0.56 -0.32,0 -0.64,0.08 -0.92,0.12 -2.16,0.56 -4.36,0.96 -6.41,1.76 -1.04,0.52 -2.2,0.84 -3.36,0.96 -3.44,0.28 -6.21,-2 -8.17,-4.65 1.32,4.41 -9.01,3.68 -3.53,-1.44 -10.41,-0.24 -6.33,4.65 -10.65,12.01 0.2,-0.36 6.93,0.6 7.77,0.88 0.84,0.2 1.56,0.56 2.09,1.2 0.72,0.88 0.56,2.33 1.28,3.09 0.72,-0.64 1.44,-0.88 2.44,-0.64 1.16,0.2 2.32,0.76 3.48,0.6 2.28,-0.4 2.76,-2.64 5.37,-1.84 2.4,0.84 4.56,2.28 3.64,5.29 -0.16,0.44 -0.4,0.88 -0.8,1.16 -0.2,0.08 -0.52,0.2 -0.8,0.28 -2.4,0.6 -3.97,0 -6.28,-0.84 -7.89,-2.76 -7.21,2.08 -7.21,11.05 0,-5.69 -9.69,-13.06 -15.02,-9.85 -0.56,0.36 -1,0.8 -1.56,1.08 -0.6,0.32 -1.28,0.44 -1.96,0.52 -2.12,0.4 -4.37,1 -6.53,1.16 -1.08,0.12 -2.12,-0.08 -3.2,0 -2.76,0.44 -3.92,2.56 -4.12,5.16 -0.48,-7.97 -5.01,-9.93 -4.73,-2.48 -0.2,-4.28 -3.52,-4.36 -8.29,-5.04 0.92,6.52 -0.68,2.12 -1.56,-0.88 1.2,8.05 -14.66,2.17 -17.46,2.64 -4.92,5.24 -5.09,-0.12 -1.64,17.82 0.72,-4.76 3.17,6.81 4.37,0 0.44,1.04 -0.2,1.72 0.08,2.92 0.48,-4.81 4.93,0.24 8.61,1.56 -0.12,-1.32 -0.44,-3 0.12,-2.12 -1.6,-3.48 2.24,-1.64 4.68,2.6 0.8,-0.56 -0.12,-5.36 0.88,-1.44 2.16,-5.41 -1.68,6.61 4.61,0.28 -0.72,7.21 -2.8,8.65 -12.98,5.16 5.53,-6.81 -0.12,-4.92 -6.89,-5.6 7.53,8.97 -7.33,4.21 1.08,16.14 -3.68,3.09 -5.97,-4.96 -10.17,-5.25 1.2,-4.56 4,2.24 5.25,-2.4 -2.81,-8.89 -10.17,10.01 -9.09,-0.84 -7.13,-6.37 1.2,5.97 -14.42,4.24 0.84,4.77 5,-2.64 5.56,4.04 -6.81,-3.04 -6.13,15.26 -2.36,2.92 1.72,6.25 1.8,15.82 4.44,4.08 11.29,0.68 29.31,-5.29 16.86,9.05 7.09,-1.36 14.93,-4.41 22.02,-2.24 3.85,1.24 7.53,3.12 11.53,3.56 3.2,0.36 6.45,-0.24 9.69,-0.12 8.81,0.32 16.58,5.69 25.1,7.89 6.17,1.64 12.65,1.48 18.74,3.32 2.76,0.84 5.4,2.04 8.01,3.4 -0.08,1.32 0.36,3.09 -0.76,5.01l-2.24 -3.56c-1.04,0.84 -1.4,4.84 -2.88,0.84 0.16,1 0.44,2.52 -0.28,2.96 -4.68,-2.24 -9.85,-0.12 -15.02,0.96 -5.17,1.36 -10.21,1.2 -15.18,0.92 1.32,0.32 0.36,0.72 -0.68,1 0.64,0 -0.12,0.92 -0.04,1.36 -1.36,-0.2 -2.77,-0.4 -4.17,-0.32 -0.88,0.92 -4.61,1.04 -5.12,1.56l1.4 -0.28c-0.96,0.36 -0.36,0.4 0.44,0.88 0.76,0.4 1.64,1.16 1.48,1.64 1,-0.12 2.24,0.56 3.61,1.6 1.36,0.92 2.84,2.37 4.56,1.4 0.64,0.76 -0.64,0.52 -0.36,1.32 0.92,-0.72 1.92,-0.8 3.65,0.44l-0.24 0.28c5.05,1.56 7.09,3.68 12.62,7.57l-0.24 -2.64c1.2,0.76 1.4,1.72 1.92,2.61 1.72,-3.49 -3.4,-1.56 -1.76,-5.21 0.56,2.68 2.72,3.6 4.8,4.36 2.08,0.84 4.13,1.64 4.37,5.53 1.88,0.72 -0.24,-3.89 1.64,-3.17l0.32 2.24 0.68 -2.52c1.2,0.8 1.6,3.73 1.52,5.53 -0.28,-0.32 -0.88,0.2 -1.24,0.2 1.4,3.25 4.6,0.92 5.09,1.96l-1.72 -2.08c5.33,-0.44 11.41,5.49 16.82,1.16l-0.24 -2.2c4.08,-3.12 2.92,3.12 7.25,2.32l-0.2 0.48c1,-2.08 2.2,-3.04 3.32,-2.56 -1.24,2.56 2.4,5.56 5.69,-3.08l0.4 4.28c1.16,-3.6 1.36,-5.61 3.52,-6.45 -1.92,3.4 3.69,9.85 4.97,7.41 -0.72,-4.12 2.2,-9.01 3.52,-7.61 1.08,0.28 1.44,10.01 3.2,14.66 -5.4,0.28 -10.85,0.32 -16.22,-0.32 -8.81,-1.12 -20.1,-3.36 -25.51,5.89 -0.52,-5.01 -2.13,-3.36 -0.64,-0.88 -1.96,7.69 -6.48,-3.69 -8.53,2.76 -3.88,-2.92 -1.96,-3.12 -2.24,0.24 -1.6,3.48 -2.64,-3.29 -3.53,-1.44 -0.76,-1.44 0.52,-3.09 1.04,-4.61 -2.08,-1.08 -4.68,1.88 -3.2,4.88 -4.77,-5.64 -3.89,-0.24 -7.61,-6.52 -3.09,3.96 -3.6,2.64 -7.69,0.88 -0.16,2.44 2.17,4.6 -0.16,7.25 1.16,1.4 2.28,2.8 3.36,4.21 2.09,-0.08 0.4,-4.77 3.37,-0.4 0.92,-1.32 0.28,-2.48 -0.52,-3.53 2,-0.08 4.28,-0.96 6.29,-0.6 2.16,0.32 4.24,1.97 6.24,3.01 5.12,2.72 10.25,5.36 15.42,8.04 1.44,0.76 3,1.6 4.65,1.52 1.76,0 3.36,-0.84 5.09,-1.32 4.56,-1.16 9.29,1.12 12.97,4.05 3.64,3 6.73,6.65 10.77,9.13 3.73,2.28 8.05,3.32 12.01,5.2 3.92,1.88 7.73,4.97 8.65,9.29 0.52,2.6 1.24,2.84 2.56,4.53 0.28,0.4 2.92,3.8 2.04,4.28 2.52,-1.4 2.2,-5.25 4.88,-4.88 0.88,2.88 -2.32,4.36 -0.08,7.65 1.68,2.44 4.44,3.2 7.33,3.56 2.72,0.4 5.56,0.44 8.09,1.52 2.68,1.16 4.76,3.32 7.29,4.76 3.8,2.17 8.17,2.41 12.29,3.36 1.6,0.36 3.72,1.64 5.36,1.44 1.84,-0.24 2.8,-2.16 4.92,-1 1.24,0.72 1.88,2.32 1.44,3.65 -0.08,0.28 -0.2,0.6 -0.08,0.88 0.08,0.16 0.28,0.28 0.48,0.4 1.12,0.44 2.36,0.08 3.44,-0.44 1.04,-0.56 1.97,-1.36 3.09,-1.76 1.08,-0.44 2.44,-0.6 3.36,0.2 0.32,0.28 0.56,0.68 0.88,0.92 0.92,0.84 2.32,1 3.08,2 0.12,0.12 0.16,0.24 0.16,0.36 0.04,0.2 -0.08,0.36 -0.24,0.52 -1.44,1.6 -3.76,0.36 -5.65,0.56 -0.76,0.08 -1.52,0.16 -2.08,0.8 -0.24,0.24 -1,2.52 -0.48,2.64 -3.8,-0.68 -7.85,-0.16 -11.73,0.04 -11.26,0.52 -22.9,1 -33.28,-3.36 -1.6,-0.72 -3.25,-1.48 -4.97,-1.68 -2.24,-0.2 -3.12,1.68 -4.85,1.92 -1.08,0.08 -3.72,-1.2 -4.96,-1.4 -1.36,-0.28 -9.29,-2.16 -8.21,-4.81 -1.72,4.24 -3.28,0.6 -4.97,1 -0.72,4.28 0,5.36 -1.72,7.85 2.24,4.28 2.28,3.16 3.85,7.81 1.2,-4.24 0.28,-3.16 2.2,-6.89 2.12,-0.88 4.32,2.36 6.57,-1.92 1.32,3.36 -2.2,6.37 -2.64,9.61 1.2,2.44 5.16,-0.32 4.64,4.92 3.45,1.72 6.85,-4.41 10.37,2.84 -2.04,2.57 -4.16,0.72 -6.24,3.01 1.4,0.92 2.76,0 4.21,4 0.56,-3.76 1.04,-3.76 2.08,0.16 3.97,-5.97 8.17,4.08 12.21,1.84 2.2,1.88 2.24,0.84 -0.6,-2.76 -0.12,-1.52 0.08,-3 0.4,-4.44 1.32,-0.28 2.56,0.76 3.76,1.16 0.64,1.76 -1.16,3.49 1.24,5.41 1.28,-1.48 0.96,-2.92 1.44,-4.44 0.68,-0.68 1.44,1.2 2.12,0.08 1.44,3.93 -1.08,2.08 -0.92,5.37 -1.52,2.28 -3.25,-3.25 -4.69,0.68 16.62,4.96 33.4,4.88 50.94,10.69 -0.96,-0.36 1,-1.56 1.28,-1.64 0.28,-0.04 3.24,1.8 4,1.92 4.48,0.84 9.01,0.36 13.53,1.56 2.08,0.64 4.08,1.4 6.24,1.68 1.92,0.2 3.89,0 5.85,0.12 6.21,0.36 11.97,4.25 18.22,3.81 2.2,-0.12 4.32,-0.76 6.49,-1.28 10.09,-2.24 20.42,-0.2 30.07,2.84 7.45,2.36 14.25,6.65 22.34,5.2 2.12,-0.4 4.21,-1.12 6.37,-1.44 2.72,-0.4 5.49,-0.24 8.21,0 4.08,0.24 8.17,0.52 12.25,0.88 0.6,0 1.24,0.04 1.84,-0.16 1,-0.4 1.6,-1.4 2.52,-1.96 2.04,-1.28 5.29,-3.25 7.77,-2.44 0.96,0.28 1.6,1.12 2.36,1.68 1.32,0.96 2.85,1.52 4.24,2.24 0.44,0.24 0.84,0.48 1.08,0.8 0.32,0.44 0.36,0.92 0.44,1.44 0.24,2.04 0.48,4.04 0.68,6.09 0.08,0.6 0.16,1.16 0.04,1.76 -0.16,0.88 -0.68,1.64 -1.16,2.36 -1.16,1.73 -3.36,3.17 -5.25,3.89 -0.88,0.32 -1.88,0.6 -2.84,0.4 -0.4,-0.12 -1.97,-0.84 -1.89,-1.4 -0.68,3.89 -4.68,6.53 -7.13,11.01 -0.84,-7.57 -8.73,1.12 -12.17,1.76 -12.38,2.44 -25.19,1.4 -37.56,3.88 -4.88,1 -9.69,2.52 -14.69,2.44 -3.57,0 -7.13,-0.92 -10.69,-1.32 -4.41,-0.56 -8.81,0.16 -13.17,0.6 -2.16,0.16 -4.29,0.2 -6.45,0.08 -2.08,-0.08 -4.16,0.36 -6.28,0.12 -1.24,-0.16 -2.52,-0.48 -3.73,-0.28 -1.36,0.28 -2.72,1.16 -4.04,0.84 -2.16,-0.56 -3.44,-2.16 -5.77,-2.28 -2.04,-0.16 -4.13,0.24 -6.09,0.6 -1.96,0.36 -3.93,1.08 -5.89,1.28 -2,0.24 -4.24,-0.76 -6.04,-1.52 -0.56,-0.24 -1.12,-0.52 -1.68,-0.6 -3.41,-0.72 -5.37,3.92 -7.41,5.73 -0.28,-1.2 -0.52,-2.36 -1.4,-3.6 -1.72,3.12 1.36,2.24 1,6.24 -1.6,1.68 -3.6,-1.52 -5.05,2.68 9.17,4.52 18.18,4.37 27.11,4.85 2.8,1.72 -1.12,3.64 1.68,5.36 2.16,-0.08 1.32,-2.24 2.48,-4.61 2.68,3.56 -0.72,7.21 -2.52,10.93 -4.13,-0.12 -7.21,-4.21 -11.29,-4.28 -3.12,-0.04 -7.13,2.44 -10.25,3.32 -2.32,0.68 -4.65,1.32 -7.05,1.44 -5.97,0.32 -11.45,-2.52 -17.34,-3.08 -5.45,-0.56 -9.53,-2.92 -12.78,-7.41 -0.4,-0.56 -0.88,-1.16 -1.56,-1.16 -0.2,0 -0.44,0.04 -0.68,0.12 -2.32,0.64 -5.13,0.68 -6.97,-1 -1.16,0.76 -2.16,5.65 -3.44,3.49 0.72,3.84 -0.48,4.84 -2.57,7.89 3.85,-0.36 5.77,3.32 7.89,5.93 2.04,2.48 5.2,3.8 8.33,4.56 3.12,0.8 6.37,1.08 9.45,2.08 2.72,0.8 5.25,2.08 8.05,2.6 8.81,1.52 17.46,1.76 26.23,3.97 3.12,-5.84 7.33,2 10.57,-2.16 -0.64,0.84 4,3 4.65,3.08 1.64,0.24 3.28,-0.24 4.8,-0.76 1.48,-0.44 3.2,-1.44 4.77,-1.32 2.16,0.12 2.92,1.96 4.24,3.32 1.2,1.28 3.36,2.17 3.2,3.93 -0.12,1.12 -1.24,1.88 -2.32,2.04 -1.08,0.16 -2.2,-0.16 -3.25,-0.4 -0.44,-0.04 -0.84,-0.08 -1.24,0.08 -0.48,0.16 -0.76,0.64 -1.08,1.08 -1.92,2.56 -5.77,2.76 -8.85,1.84 -0.92,-0.32 -1.92,-0.72 -2.88,-0.56 -0.6,0.04 -1.16,0.36 -1.72,0.64 -1.24,0.64 -2.8,1.8 -4.21,2.08 -0.96,0.2 -1.72,-0.16 -2.72,-0.16 -2.41,-0.08 -4.61,1.44 -6.49,2.76 -3.73,2.64 -8.81,2.44 -13.18,1.92 -4.92,-0.48 -9.77,-1.72 -14.69,-1.64 -4.8,0.04 -9.53,1.2 -14.34,0.76 -3.8,-0.36 -7.49,-1.76 -11.25,-2.44 -2.2,-0.44 -4.48,-0.6 -6.68,-0.2 -2.12,0.36 -3.12,2.28 -5.25,1.96 -1.92,-0.2 -3.84,-0.4 -5.77,-0.64 -0.72,-0.12 -1.48,-0.16 -2.16,-0.56 -1.24,-0.64 -1.97,-2.2 -3.29,-2.64 -1.2,-0.4 -2.44,0.16 -3.68,0.44 -2.17,0.56 -4.85,0.2 -6.61,-1.16 -2.04,-1.56 -4.76,-1.56 -7.33,-1.76 -4.77,-0.4 -9.41,-1.88 -14.1,-2.8 -1.48,-0.24 -3.04,-0.52 -4.52,-0.32 -1.84,0.24 -3.21,1.4 -4.93,1.84 -1.36,0.32 -2.28,-0.28 -2.84,1.4 -0.6,1.64 -2.68,2.52 -4.28,1.88 -0.8,-0.36 -1.4,-0.96 -2.08,-1.52 -1.88,-1.36 -4.37,-1.84 -6.61,-1.28 -0.48,0.12 -1,0.28 -1.48,0.16 -2.17,-0.36 0.6,-3.24 1.08,-3.92 -1.28,-4.57 -3.2,-0.92 -4.52,-4.44 -1.2,1.56 1.36,3.84 0.68,5.56 -4.57,2.28 -8.37,-3.36 -12.86,-2.16 -0.52,4.72 3.16,0 4.65,3 0.28,0.92 -0.12,1.72 0.36,2.8 -2.96,-2.52 -4.13,0.72 -7.77,1.72 -0.4,5.13 2.8,4.21 4.41,0.16 2.56,3.05 -3.32,4.77 0.64,5.65 -1.12,1.16 -1.04,2.84 -2.08,3.68 0.48,0.48 1.04,0.92 1.52,1.68 2.6,-1.56 2.08,-3.88 3.76,-5.53 3.68,1.12 7.29,3.36 11.33,0.6 3.8,9.89 9.01,2.72 13.37,6.09 -0.76,7.13 -7.16,1.4 -8.21,7.53 7.21,-1.6 11.13,5.73 19.14,-0.16 0.52,1.32 1,2.68 1.76,3.92 0.24,0.32 0.6,0.88 1,1.04 0.64,0.28 1.16,-0.28 1.84,-0.12 0.32,0.04 0.64,0.24 0.92,0.44 2.37,1.44 5.29,1.8 7.97,1.12 2.28,-0.6 4.77,-1.96 7.13,-1.04 -5.85,3.08 -9.69,6.57 -11.01,6.68 1.68,6.73 9.45,-1.52 13.45,-2.76 0.12,2.36 0.48,3.8 2.96,4.57 2.24,0.72 4.53,1.28 6.85,1.68 0.68,0.12 1.36,0.16 1.89,0.6 0.36,0.28 0.56,0.68 0.84,1 1.44,2.04 3.73,3.36 6.17,3.93 1.36,0.28 3.05,0.48 4.41,0.16 1.56,-0.32 3.12,-0.88 4.68,-0.12 0.72,0.4 1.32,1 2,1.52 0.84,0.6 1.76,1 2.76,1.08 1.08,0.16 1.64,1.76 1.44,2.76 -0.16,0.84 -0.48,1 0.36,1.44 0.4,0.28 0.88,0.28 1.32,0.24 0.96,-0.08 1.84,-0.56 2.8,-0.6 1.32,-0.08 2.72,0.28 4.04,0.36 0.32,0.08 0.68,0.12 1,0.28 0.2,0.16 0.36,0.4 0.6,0.56 0.68,0.44 1.56,-0.12 2.32,-0.4 0.8,-0.32 1.64,-0.32 2.4,-0.6 1.88,-0.64 3.2,-1.48 5.29,-1.44 1.8,0.12 3.6,0.6 5.25,1.32 1.76,0.8 3.16,1.84 4.48,3.2 0.96,1 1.96,1.84 2.72,3.04 1.4,2.41 2.08,5.61 4.65,7.09 1.08,0.68 2.4,0.84 3.6,1.28 0.84,0.32 1.68,0.72 2.4,1.2 0.44,0.32 0.84,0.64 1.36,0.72 0.8,0.2 1.6,-0.24 2.36,-0.52 1.16,-0.4 2.6,-0.4 3.76,-0.12 0.6,0.16 2.68,1.2 2.68,1.96 0.04,-4.56 2.8,-3.96 0.72,-9.01 2.17,3.88 4.13,-2.04 7.69,1.6 -2.32,-6.45 4.96,-2.88 4.48,-7.33 4.77,2.48 -2.2,5.4 1.28,8.01 1.56,-3.64 3.49,-3.92 5.41,-2.84 0.32,0.2 0.2,2.24 0.16,2.56 -0.16,0.96 -0.48,1.6 -0.2,2.52 0.24,0.72 0.68,1.36 1.16,1.96 0.48,0.48 0.96,1 1.56,1.28 0.44,0.2 0.92,0.36 1.32,0.6 0.88,0.44 1.52,1.32 2.37,1.8 0.96,0.56 2.08,0.56 3.16,0.64 1.48,0.08 2.96,0.28 4.4,0.6 1.36,0.28 2.72,0.88 4.05,1 2.44,0.16 4.84,0.2 7.29,0 4.08,-0.28 9.41,-1.32 12.49,2.12 0.48,0.52 0.88,1.12 1.2,1.72 2.64,0.52 5.16,0.4 7.73,1.16 0.56,-6.97 5.41,-2.4 8.37,-4.41 0.36,1.52 -0.48,3.09 1.12,4.41 -0.36,-4.68 4.08,-5.29 4.24,-1.24 6.21,-6.05 14.05,1.2 20.34,-3 -2.28,-2.32 0.92,-4.24 1.76,-5.65 1.4,2 -1.97,4.49 -1,6.53 6.33,3.64 11.29,-2.68 16.98,-3.76 0.88,6.77 7.77,6.21 8.33,1.68 1.64,3.12 2.56,0.68 4.17,3.09 1.48,-10.29 16.22,2.12 21.78,-7.45 6.85,9.09 13.98,-8.61 19.74,0.76 -1.96,-0.72 -3.49,1.04 -5.25,1.76 2.17,4.69 7.05,-3.16 12.01,-1.84 2,0.56 9.65,5 8.97,-0.4 0.88,-2.28 2.85,2.4 4.17,3 3.56,-4.12 8.29,-1.64 11.69,-6.41 5.45,2.72 15.66,0 23.27,-0.76 60.75,-3.32 120.33,-9.13 179.31,-17.1 0.8,0.96 1.88,1.8 3.25,2.6 -0.32,0.28 -0.64,0.48 -0.96,0.76 -1.36,-1.28 -5.05,3.89 -6.53,2.61 -2.36,0.84 -4.72,2.04 -7.09,3 -1.24,-0.16 -2.52,-0.16 -3.97,0.16 -2.44,0.56 -4.92,1.04 -7.41,1.52 -1,-1.84 -3.88,-1.76 -3.73,0.72 -0.32,0.08 -0.68,0.12 -1,0.2 -7.81,-3.92 -13.37,5.97 -21.47,0.44 -0.16,1.97 -0.84,3.2 -1.72,3.88 -0.28,0.08 -0.52,0.24 -0.8,0.44 -2.04,0.68 -4.92,-0.8 -7.49,-3.6 -1.04,1.32 -0.2,2.48 0.6,3.52 -7.05,-1.88 -13.17,1.64 -20.26,-0.44 -0.32,1.48 0.64,2.92 0.2,4.53 -9.93,-1.36 -21.74,7.25 -30.23,0.2 -0.4,0.96 0.56,1.69 1.04,2.57 -10.69,0.12 -20.58,5 -31.83,1.36 -6.69,5.29 -19.58,3.56 -28.95,4.65 -1.84,2.36 1.16,4 -0.64,6.41 -0.76,0.52 -1.4,1.04 -2.32,0.28 0.52,-10.09 -8.05,-3.28 -11.73,-5.36 -0.24,4.97 2.8,0.44 4.08,2.92 1.68,3.68 -2.12,3.29 -2.92,4.21 -4.24,-7.81 -9.29,-4.92 -16.34,-4.52 -8.89,0.44 -15.42,1.76 -23.3,6.24 -7.85,4.48 -15.86,9.65 -24.83,9.77 -4.85,0 -15.06,-2.88 -17.14,3.29 -4.45,-6.69 -8.13,2.4 -10.65,-4.13 -1.64,11.17 -12.13,-4.12 -16.3,4.85 -5.49,-1.84 -10.41,1.64 -15.98,-1 -2.04,-2.28 3.16,-0.68 -0.48,-3.48 -3.61,4.65 -9.49,4.13 -14.86,4.48 -11.81,0.64 -22.62,8.33 -34.4,7.61 -4.48,-0.32 -8.77,-1.8 -13.22,-2.24 -11.81,-1.28 -24.39,4.68 -35.4,0.16 -2.72,-1.16 -2.88,-3.64 -1,-5.53 -2.88,-0.96 -2.96,1.48 -3.01,4.53 -1.32,0.28 -2.56,-0.52 -3.56,-2.17 -0.4,0.64 -0.6,1.32 -0.52,2.08 -4.44,-0.08 -8.93,-1.36 -13.37,-0.52 -1.56,0.28 -3.12,0.76 -4.73,0.88 -2.12,0.16 -4.28,-0.4 -6.41,-0.88 -5.12,-1.12 -10.33,-1.84 -15.54,-2.04 -4.61,-0.24 -8.29,-2.44 -12.93,-2.92 -1.52,-0.2 -3.16,-0.24 -4.53,0.52 -1.32,0.72 -2.16,2.6 -1.32,3.88 0.4,0.6 1.16,1 1.84,0.76 0.48,-0.16 0.8,-0.52 1.2,-0.8 1.76,-1.16 4,0.2 5.73,1.32 5,3.2 10.97,4.37 16.66,6.01 5.53,1.68 10.85,3.81 16.02,6.45 3.6,1.8 8.09,1.64 11.01,4.56 0.52,-1.48 -0.28,-3.04 0.44,-4.56 1.48,-1.48 3.12,0.68 4.68,-0.84 0.16,1.4 -0.12,2.96 -0.4,4.37 4.37,-2.72 9.57,-0.84 14.18,0.4 4.57,1.16 9.29,1.16 13.94,1.4 4.68,0.28 9.41,0.92 14.05,1.72 1.93,0.32 9.01,0.6 9.65,2.32 2,-1.92 7.97,-0.64 10.53,-0.44 4.08,0.28 8.33,1.24 12.41,1.12 8.13,-0.28 16.3,-2.28 24.42,-0.72 3.64,0.72 7.21,2.16 10.93,2.24 3.45,0.12 6.77,-0.92 10.13,-1.48 5.69,-1 11.53,-0.8 17.14,0.44 2.76,0.68 5.49,1.6 8.29,1.96 3.2,0.36 6.45,0.04 9.69,0.16 2.44,0.04 5.49,1.44 7.81,1.16 2.28,-0.28 2.64,-2.72 4.65,-3.12 0.64,-0.12 4.85,1.97 4.68,2.28 0.96,-1.92 -1.4,-3.44 0.44,-5.53 5.69,5.21 15.1,-6.09 17.14,2.04 7.45,-2.12 18.66,1.56 23.35,-4.37 4.6,4.41 7.57,-1.6 12.37,4.41 1.68,-5.41 4.96,-1.32 6.61,-7.41 2.41,1.44 1.28,3.48 3.21,5.01 13.85,-2.04 26.87,-6.37 41.32,-2.88 -0.04,-1.84 0.6,-3.68 -0.2,-4.21 11.29,1.32 22.5,1.76 32.71,-3.64 2.32,-2.68 6.13,3.48 8.73,2.32 0.32,-1.28 -1.16,-2.28 -0.64,-3.6 3.73,1.32 8.53,2.8 12.73,-2l4.37 4.81c10.93,-6.69 23.27,-5.29 35.44,-4.65 0.2,-0.92 -0.32,-1.76 0.08,-2.8 21.1,0.6 40.84,-6.85 61.63,-7.85 0.32,-0.96 1.08,-1.68 2,-2.2l-0.04 4.53c2.16,-6.17 17.14,-3.4 25.99,-5.05 4.81,-0.76 7.97,-4.92 12.25,-1l1.76 -3.84c3.53,6.13 7.17,-3.8 12.25,1.64 8.57,-7.85 23.83,-2.85 34.48,-9.89l0.8 0.8c0.04,0 0.08,0 0.12,-0.04l2.12 2.32c13.77,-8.85 29.92,-3.89 43.57,-13.3 7.57,4.36 12.57,-5.56 20.02,-1.24 3.04,-5.97 7.89,-0.28 11.01,-5.45 11.45,1.72 21.86,-2.24 32.23,-6.89 24.11,-2.64 46.81,-13.94 71,-16.7l1.68 -3.88c0.92,-1.12 1.36,1.32 1.04,2.56 11.9,-5.45 21.06,-6.73 32.87,-12.3l0.72 0.76c0.24,-0.12 0.4,-0.28 0.56,-0.48l2.33 2.56c1.12,-0.48 1.12,-2 1.28,-3.24 0.8,-0.12 1.48,-0.68 1.88,-1.44 0.28,0.12 0.56,0.2 0.96,0.4 0.8,1.6 -0.84,0.92 -1.36,2.92 1.84,0.84 4.12,-0.56 3.6,-3.32 93.5,-19.9 180.56,-57.22 272.21,-84.05l1.32 -2.92c13.05,-0.2 26.15,-6.85 39.64,-4.56 2.04,-1.52 2.84,-7.89 4.32,-2.48 1.28,-2.92 6.13,-5.89 10.17,-3.4l1.72 -3.89c4.33,-0.72 8.85,-0.4 12.62,-4.68 0.28,-0.08 0.6,-0.2 0.92,-0.28 21.71,-0.68 40.77,-16.9 63.27,-12.69l1.68 -3.84c4.37,3.4 10.25,0.76 11.29,-3.73 1.4,1.32 1.08,2.92 2.56,4.21 0.28,-6.97 2.96,-3.24 5.05,-1.72 4.48,-6.77 34.16,-16.38 37.64,-16.9 2.44,4.24 10.13,-3.32 16.46,-8.05l3.69 4c0.2,4.12 1.2,-2.56 -1.76,-3.44 2.32,-5.12 5.45,-4.68 9.21,-8.81 1.52,3.73 14.13,-1.04 17.26,-7.25 0.8,1.08 -0.16,2.44 -0.56,3.72 1.36,0.88 1.96,-2.36 3.76,1.32 -1.97,-4.77 1.68,-2.48 3,-6.89 11.22,4.57 18.98,-16.5 29.55,-8.37 0.36,-8.45 6.77,-8.37 10.09,-10.77 0.88,5.73 23.07,0.92 29.11,-7.33 8.85,-1.8 17.62,-3.92 24.87,-14.86 5.36,0.16 12.89,-5.93 15.18,-12.49 0.04,0 0.04,0 0.04,0 3.76,0.32 7.81,-2.12 12.1,-5.25 9.45,-4.17 21.38,-0.4 30.51,-4.56 1.32,0.32 2.6,0.84 3.97,1.56 -0.6,-1.08 -0.92,-2 -1.16,-2.76 5.93,-2.72 12.01,-5.45 17.82,-8.05l7.89 -2.52 19.3 -8.25c0.52,0.68 0.92,1.28 0.96,1.88 1.6,0.6 2.32,-1.2 2.92,-3.53l20.9 -8.85 1.52 1.76c0.4,-0.72 0.28,-1.56 -0.08,-2.44l5.2 -2.2c-0.28,1.84 1.36,1.04 1.2,-0.52l0.96 -0.36 1.28 -4.49c0.72,-0.4 1.44,-0.72 2.16,-1.04l0.12 0.08c0.48,9.41 4.29,3.04 6.09,-1 8.37,-1.92 15.46,-8.77 23.95,-10.85l1.44 0.68c-0.16,-0.32 -0.36,-0.6 -0.52,-0.88 0.44,-0.08 0.92,-0.16 1.36,-0.2l4.48 2.32c-0.32,-0.64 -0.72,-1.16 -1.04,-1.68 1.04,0.36 2.32,0.92 4.08,2.24 -0.36,-0.52 -1.08,-1.24 -1.92,-2.04 2.08,1.04 3.69,0.52 7.25,3.24 -1.12,-1.4 -4.24,-4.32 -7.09,-7.65 0.28,0.24 0.48,0.4 0.76,0.48 4.76,-2.37 3.72,-2.41 -1.16,-0.96 -0.36,-0.44 -0.76,-0.92 -1.16,-1.4 0.12,-0.32 0.24,-0.8 0.28,-1.52l-0.84 -1.2c2.16,0.12 7.09,1.56 9.45,1.64 0.16,-0.4 0.48,-0.68 0.88,-0.96 -2.72,-1.08 -6.89,-2.8 -8.37,-3.24 1.64,0.16 6.37,1.84 9.73,2.76 3.64,-0.88 10.33,0 10.05,-3.2 2.84,-0.4 1.88,1.88 5.93,-1.84 3.36,1.04 4.76,-1 5.93,-4.65 1.24,-0.48 2.52,-0.92 3.8,-1.36 0.28,1.24 0.32,2.52 1.28,3.49l-0.48 -3.76c1.56,-0.56 3.12,-1.16 4.72,-1.68 18.02,-1.36 29.31,-23.51 49.05,-27.27 3.64,1.6 18.78,-10.05 27.67,-17.98 1.16,0.28 2.28,-0.2 2.92,-2.64 1.88,-1.76 3.16,-3.09 3.56,-3.76l0.04 0c0.4,0.32 0.72,0.68 1.2,1.12 -0.28,-0.24 -0.6,-0.68 -1,-1.28 0.64,-0.48 1.24,-0.84 1.84,-1.28 0.28,0.72 0.52,1.4 0.52,1.68l-0.24 -1.84c1.32,-0.88 2.61,-1.64 3.8,-2.36 0.96,1.36 1.84,2.61 2.56,3.49 -1.76,-2.48 3.97,-1.6 4.53,-3.56l-3.01 -1.97c0.72,-0.32 1.4,-0.68 2.08,-0.96 2.8,4.04 4.37,3.92 5.33,2.16 -0.24,1.32 0.08,2.64 3.16,7.57 4.77,1.44 -2.92,-8.05 1.84,-5.73 -0.56,-3.12 -3.29,-2.28 -4.04,-4.32 0.28,-1.04 0.6,-2 0.88,-2.88 0.88,-0.44 1.72,-0.88 2.48,-1.36 0.8,0.68 1.72,2.2 3,4.96l-1.76 -5.69c0.28,-0.24 0.52,-0.44 0.8,-0.64 0.12,0.08 0.12,0.12 0.16,0.2 0.16,0.72 0.24,1.52 0.28,2.16 1.4,0.84 2.08,1.68 2.6,2.36 0.36,0.88 0.56,1.76 0.52,2.57l0.72 -1.64c0.36,0.04 0.88,-0.04 1.64,-0.56 2.85,3.32 1.24,6.57 0.52,7.17 0,0 8.77,-11.45 5.16,-18.22l-2.96 12.01c-0.84,-1.56 -1.56,-3.49 -2.2,-5.53l0.08 -0.32c-0.08,-0.2 -0.28,-0.4 -0.36,-0.56 -0.44,-1.32 -0.68,-2.64 -1,-4 0,-0.04 0.04,-0.04 0.04,-0.04 0.96,-1 3.29,-2.12 5.45,-3.04 1.08,1.04 2.2,2.16 3.08,3.32 0,0.04 0,0.16 0.04,0.16 -0.04,0.04 -0.12,0.04 -0.16,0.04l0.24 0.2c0.2,0.6 0.44,1.04 0.6,1.36 -0.16,-0.56 -0.08,-1.24 0,-1.88 0.84,-0.56 1.48,-2.28 2.32,-4.08 0.28,0 0.6,-0.12 0.88,0.2l0.16 5.37c4.08,1.88 -1.08,-12.93 5.84,-6.57 1.36,0 8.37,9.09 6.21,4.08 -1.32,-1.76 -2.96,-4.36 -4.77,-7.45 0.52,-0.28 1.08,-0.52 1.56,-0.92 0.28,-0.12 0.56,-0.36 0.84,-0.56 1.16,2.4 2.64,6.01 4.76,6.53l-3.93 -6.05c1.36,-2.04 2.52,-1.2 5.57,3.09l-2.04 -3.32c0.48,0.52 1.04,0.8 1.76,0.72 -1.05,-0.44 -1.89,-1.24 -2.64,-2.2l-0.4 -0.56c-0.04,-0.12 -0.04,-0.2 -0.12,-0.36 0.64,-0.4 1.24,-0.84 1.84,-1.28 0.56,0.8 1.12,1.28 1.88,0.36 -0.28,-0.52 -0.32,-0.92 -0.44,-1.36 0.12,-0.12 0.24,-0.16 0.32,-0.28 1.29,-1.04 4.65,-4.77 6.81,-8.37 2.28,2.08 6.25,6.89 6.25,6.89l4.53 -2.88c0.24,-2.92 -8.49,-16.58 -2.96,-13.57l3.88 3.88c-0.64,-0.4 -1.24,-2.96 -1.56,-4.24l3.76 3.49c-0.96,-4.88 -0.44,-6.21 0.72,-5.97 0.32,0.64 0.64,1.32 0.8,2.12 0,-0.52 -0.04,-1.2 -0.16,-1.84 0.64,0.32 1.36,0.88 2.08,1.52 -0.2,0.88 0.16,2.16 2.36,4.85 -0.6,-1.32 -0.84,-2.44 -0.88,-3.56 2.32,2.12 4.6,3.8 4.84,0.16 -0.52,1.68 -2.6,1.24 -3.84,-3.93 -0.08,-2.08 1.68,-0.76 3.2,1.36l-0.88 -1.68 2.68 1.76c0,1.84 0.24,3.16 2.12,1.92 -0.08,-0.2 -0.08,-0.44 -0.08,-0.64l6.09 3.93c-1.96,-3.65 -4.56,-4.17 -6.17,-6.61 0,-0.8 -0.28,-1.48 -0.88,-1.92 -0.24,-0.68 -0.36,-1.32 -0.48,-2.16 -1.92,-7.6 3.16,-0.76 4.6,-0.76 1.56,4.24 0.84,8.89 4.05,10.25 -0.56,-2.24 -0.16,-7.45 -2.44,-10.05 4.08,3.32 8.41,-2.08 10.09,-4.97l-7.69 -7.77c-0.08,-1.32 -0.08,-2.41 0,-3.4 3.09,-1.32 6.53,-2.48 10.01,-1.32 -0.12,-1.8 0.04,-3.8 -0.48,-5.64 4.73,1.44 9.97,4.36 12.98,3.28 -0.12,5.09 3.24,3.48 -3.69,-6.81 -0.08,-0.16 -0.12,-0.36 -0.24,-0.52l-0.16 -0.32c-4,-6.93 -0.92,-8.45 -0.12,-8.89 0.84,1.16 1.64,2.16 2.44,3.12l0.68 2.4 1.68 0.36c5.85,6.33 10.49,7.65 12.41,1.68l-0.96 -8.29c0.44,0.2 0.88,0.48 1.44,0.88 0,-0.12 -0.08,-0.28 -0.08,-0.4 5.16,7.97 9.21,11.85 9.21,11.85 -0.12,-2.96 0.08,-4.04 0.6,-4.17 -3.64,-4.04 -7.69,-8.57 -11.29,-12.81 -0.16,-0.4 -0.36,-0.92 -0.6,-1.28 6.09,1.04 12.05,4.36 10.25,0.92 3.84,-5.41 16.01,8.81 20.94,9.37 -0.8,-6.77 -4.97,-2.64 -7.81,-12.01 3.56,2.61 11.17,-1 2.6,-10.45 0.56,-0.88 20.78,0 28.87,2.76 -1.88,-3.44 -3.04,-6.41 -3.72,-8.97 -2.57,1.24 -7.77,-0.6 -12.58,-8.21 -0.8,-6.81 7.17,0.08 7.17,0.08 8.21,6.09 8.53,12.33 12.41,6.93 0.72,-7.53 0.2,1.36 -3.48,-7.53 2.64,3 2.64,-8.41 7.77,0.6 0,0 5.29,3.93 2.56,-1.2 -3.12,-8.53 0.08,-9.25 -5.36,-12.41 -4.61,0.88 -8.09,1.96 -7.25,-0.04 0,0 -6.49,0.48 -9.17,1.92 0,-2.24 -1.28,-5.85 -2.32,-7.29 -1.8,5.52 -5.17,7.09 -8.69,8.57l-0.36 0.16c-2.48,1.08 -4.96,2.28 -7.13,4.76 -0.28,-0.84 -0.48,-0.64 -0.44,0.56 -0.04,0.12 -0.16,0.16 -0.28,0.28l-3.2 -1.32c-1.32,2.84 -16.58,-1.28 -16.58,-1 -0.56,-1.04 -1.04,-1.96 -1.68,-3.28 -0.32,0.84 -0.84,1.4 -1.36,2 -0.32,-1.6 -0.48,-3.44 -0.28,-4.52l-0.16 0.16c0.24,-3.01 -8.53,-16.66 -2.92,-13.62l3.8 3.93c-0.56,-0.44 -1.24,-2.96 -1.56,-4.25l3.76 3.49c5.97,2 -1.2,-10.73 -2,-17.5 -1.92,-7.69 3.16,-0.8 4.65,-0.76 1.52,4.24 2.68,1.52 1.56,0.24 2.6,2.08 6.65,-0.36 5.97,3.28 4.57,-3.92 -0.36,-13.21 1.24,-16.14l-7.69 -7.73c-1.16,-21.54 27.71,-7.73 34.23,-10.13 0.6,-0.12 10.61,-1.44 12.98,-8.97l-0.48 -4.57c5.65,7.21 10.69,18.3 14.06,14.54l-3.93 -5.97c-0.12,-2.92 0.08,-4.04 0.6,-4.16 -3.84,-4.21 -8.01,-8.89 -11.77,-13.37 -3.29,-14.82 26.19,9.09 31.07,9.57 -0.72,-6.77 -4.96,-2.61 -7.81,-11.94 3.56,2.61 11.17,-1.08 2.61,-10.53 5.49,-8.29 20.62,-8.41 15.78,-16.1 -0.8,-6.81 2.64,0.88 0.16,-5.09 -0.52,-7.57 4.65,1.4 6.69,1.88l0.4 3.37c8.17,6.08 12.61,8.33 8.89,-0.64 2.64,2.96 2.6,-8.37 7.8,0.6 0,0 -7.61,-22.06 -10.17,-13.73l2.08 2.6c-0.28,8.57 -8.45,-2.04 -11.17,-0.6 0,-2.28 -6.92,-0.48 -10.13,0.88l-6.29 -4.48c0.16,-4.88 -1.88,-12.82 0.48,-15.54 1.56,1.16 3.56,3.93 5.01,6.13l5.84 -6.65 7.85 7.73c-0.72,-6.32 -17.46,-22.62 -2.92,-17.3 -11.45,-11.13 -1.44,-10.37 -6.85,-16.3 1.44,1.32 3.93,3.16 6.13,4.88 3.45,-4.57 8.97,-13.86 5.85,-21.42 0,0 -9.21,-3.49 -19.62,-8.85 -10.41,-5.29 -10.61,-3.73 -16.86,-9.57 7.13,0.28 -24.66,-8.48 -24.66,-8.48 -4.88,-1.29 16.94,-1.88 15.86,-1.97 0,0 17.54,-5.36 8.13,-11.81 9.13,-1.12 8.97,-14.74 9.45,-19.18l-6.49 -8.53c6.57,-7.85 14.42,0.16 18.46,-10.53l0.44 2.28c1.92,1.76 -6.25,-19.98 16.01,1.56l0.4 0.92c0.4,-0.32 -3,-5.05 -3,-5.05 0.24,-2.92 -0.6,-7.89 0.72,-9.21 0.8,0.92 1.73,2.88 2.41,4.37l3.24 -3.2c0,0 -2.36,-10.97 3.84,-5.01 -4.92,-8.57 -0.64,-6.05 -2.88,-10.53 0.6,1.04 1.64,2.6 2.6,4.04 1.44,-1.84 3.96,-5.89 2.96,-10.85 0,0 -15.26,-16.06 -21.22,-24.91 3.68,1.32 6.52,-2.12 4.68,-5 0,0 -2.44,-1.24 -2.17,-0.68 0,0 -1.12,-0.24 -1.76,-0.4l-0.16 -0.64c-0.28,1.08 -1.8,0.72 -2.48,0.48l-2.6 -1.32c-7.21,0.28 -13.06,-14.06 -14.78,-13.66 -4.09,-5.45 -2.96,2.92 -6.25,0.72 -0.04,0 -0.12,-0.08 -0.16,-0.08 -1.16,-1.92 -2.32,-2.24 -1.6,-0.76 -2.28,-1.76 -3.29,-6.13 -5.93,-8.89 -0.04,-0.08 -0.04,0 -0.04,-0.08 -6.37,-13.25 1.6,-7.33 -5.01,-20.22 1.52,-1.8 12.57,-3.29 11.13,-10.85 -2.37,-8.17 -19.06,-21.42 -22.75,-26.83l1.52 -1.76c0.48,-2.88 6.01,5.33 8.25,6.09 -0.92,1.6 16.54,7.69 8.57,-2.32 -1.68,-3.73 -0.2,-5.45 3.4,0.44 2.88,10.33 7.05,13.37 5.6,8.17 0.88,-1.52 7.09,6.37 7.25,2.16 2,2.28 1.16,-3.04 3.48,-6.53l-1.6 -7.85c0,0 1.52,-0.4 2.48,-0.64 2.32,3.48 3.93,4.41 6.65,9.21 2.04,-1.97 -1.68,-7.97 -3.4,-11.61 0.88,-1.6 2.84,0.64 6.32,7.97 2.77,0.52 8.09,0.44 4.81,-8.45 14.34,19.58 12.93,3.21 15.42,-1.76 -11.81,-17.46 3.56,-3.84 3.56,-3.84 7.33,9.09 12.09,4.81 9.61,-5.65 2.28,-3.48 5.25,4.04 1.32,-4.52 10.17,13.74 5.49,-1.64 2.92,-7.93 -13.85,-12.65 -7.77,5.12 -13.65,1.24z"/>
    <path class="fil0" d="M489.09 1024.67c-0.04,-0.2 -0.16,-0.28 -0.2,-0.52 -0.08,0.4 0.04,0.52 0.2,0.52z"/>
    <path class="fil0" d="M459.26 1000.28c-0.24,0 -0.68,0.08 -1.44,0.44 0.4,-0.2 0.92,-0.28 1.44,-0.44z"/>
    <path class="fil0" d="M450.69 1001.97c0.32,-0.04 0.64,-0.08 0.96,-0.16l0.56 -0.28c-0.48,0.12 -1.04,0.28 -1.52,0.44z"/>
    <path class="fil0" d="M447.89 1003.17c0.36,-0.16 1.04,-0.28 1.28,-0.28 -0.08,-0.08 -0.2,-0.08 -0.36,-0.08 -0.28,0.16 -0.64,0.28 -0.92,0.36z"/>
    <path class="fil2" d="M2067.64 413.21c-5.33,22.34 -13.01,44.69 -23.22,65.23 -27.75,55.46 -63.43,105.39 -111.8,145.24 -6.56,5.36 -13.93,9.89 -20.98,14.58 -2.52,1.68 -5.36,2.8 -10.93,5.49 8.33,-29.03 15.3,-55.74 23.58,-82.01 13.33,-42.05 27.39,-83.81 41.61,-125.5 1.56,-4.69 5.44,-9.41 9.61,-12.29 20.9,-14.42 43.17,-26.31 68.32,-32 19.54,-4.44 28.35,1.92 23.82,21.27zm61.35 -49.25c-48.53,-34.64 -102.07,-47.77 -160.41,-31.27 -55.42,15.7 -104.23,44.41 -149.12,80.09 -11.21,8.89 -11.77,17.38 -0.96,27.51 11.41,10.65 26.02,20.18 38.76,30.79 -19.42,89.78 -67.99,239.26 -92.18,330.88 -7.73,29.39 -18.26,66.91 -22.98,94.82 -3.29,19.7 2.72,35.96 19.62,47.17 10.49,7.01 19.18,13.77 30.51,19.26 14.14,6.85 19.7,3.6 23.19,-11.81 10.45,-46.65 26.55,-105.03 39.56,-151.12 5.97,-21.18 31.48,-101.67 36,-120.01 2.44,2.04 3.44,2.92 4.48,3.81 22.79,19.42 47.29,20.3 73.56,7.53 34.8,-16.86 63.79,-41.08 89.18,-69.64 45.77,-51.54 82.57,-108.04 97.22,-176.83 6.89,-32.68 1.76,-61.07 -26.43,-81.17z"/>
    <path class="fil2" d="M2312.15 445.49c-3.68,54.01 -7.57,108.11 -10.65,162.13 -0.52,8.97 -3,12.58 -11.85,14.98 -32.91,8.93 -65.55,18.94 -98.27,28.55 -0.8,-0.52 -1.52,-1.08 -2.28,-1.64 41.08,-77.28 82.21,-154.53 123.3,-231.77 0.88,0.28 1.8,0.64 2.68,0.96 -0.96,8.93 -2.24,17.82 -2.92,26.79zm88.34 -146.2c-22.71,-10.05 -45.73,-19.82 -69.2,-28.19 -14.58,-5.25 -25.51,0.04 -34.28,13.21 -3.84,5.69 -7.33,11.53 -10.85,17.42 -68.51,114.88 -137.67,247.95 -194.61,368.92 -14.49,30.83 -27.27,62.59 -40.12,94.22 -4.68,11.45 -4.73,24.63 3.12,34.4 9.77,12.01 21.71,22.42 33.44,32.71 5.37,4.81 11.73,3.09 15.9,-3.12 2.6,-3.93 4.72,-8.29 6.72,-12.62 9.57,-20.79 18.9,-41.69 28.75,-62.31 1.8,-3.72 5.16,-7.89 8.73,-9.21 49.86,-18.86 99.87,-37.2 152.09,-56.58 0.92,13.29 1.36,22.74 2.28,32.19 3.53,34.23 12.62,44.77 46.13,53.66 2.28,0.68 4.6,1.2 6.92,1.76 18.66,4.37 21.98,0.92 22.5,-18.38 2,-66.47 2.48,-133.11 7.53,-199.38 5.36,-70.39 23.51,-154.53 31.63,-224.64 1.76,-15.3 -2.32,-27.67 -16.69,-34.08z"/>
    <path class="fil2" d="M627.64 1026.47c28.03,19.46 59.23,31.47 93.06,35.52 29.67,3.6 58.3,0.32 82.73,-19.18 37.96,-30.31 63.31,-69.64 79.37,-114.96 5.97,-16.78 3.6,-33.44 -6.09,-49.09 -14.46,-23.38 -22.75,-23.82 -37.68,-0.76 -20.38,31.4 -42.89,61.23 -70.92,86.09 -14.94,13.3 -31.48,25.39 -49.02,34.92 -19.06,10.33 -31.99,3.24 -35.68,-18.14 -2.64,-15.33 -3.85,-31.31 -2.72,-46.81 3.52,-50.65 19.1,-98.38 38.96,-144.8 24.27,-56.74 52.74,-111.28 91.86,-159.49 7.25,-8.93 16.14,-16.66 24.87,-24.22 2.68,-2.28 8.29,-4.05 10.89,-2.72 2.48,1.2 3.76,6.81 3.76,10.45 0,6.41 -0.64,13.06 -2.28,19.26 -6.33,24.11 -13.22,48.05 -19.86,72.08 -4.17,15.18 -4.17,31 5.49,43.25 8.21,10.45 20.06,18.3 31.15,26.03 14.45,10.05 22.02,7.85 30.07,-8.13 6.45,-12.81 12.53,-25.87 17.78,-39.2 13.5,-34.48 24.91,-69.47 26.83,-106.88 1.28,-25.31 -6.77,-45.97 -30.51,-57.86 -18.9,-9.41 -37.89,-19.06 -57.59,-26.63 -21.06,-8.09 -42.24,-6.21 -62.38,5.05 -28.31,15.74 -50.94,38.04 -70.76,63.07 -61.51,77.96 -102.75,165.94 -127.94,261.64 -7.93,30.11 -13.13,60.79 -9.37,87.25 5.93,34.52 21.54,57.38 45.97,74.28z"/>
    <path class="fil2" d="M1153.09 831.06l-38.52 -30.36 -72.72 63.55c42.64,-80.21 84.05,-158.01 126.18,-237.34 -5.05,69.15 -9.97,136.1 -14.94,204.14zm90.3 -307.57c-18.9,-8.73 -38.12,-17.02 -57.74,-23.95 -24.71,-8.65 -33.31,-4.93 -46.81,17.1 -53.3,86.89 -100.71,177.11 -145.8,268.49 -28.11,56.94 -49.61,96.62 -75.84,154.53 -16.66,36.6 -11.45,54.1 20.22,79.12 0.8,0.6 1.64,1.24 2.44,1.89 14.54,11.29 20.3,10.09 27.95,-6.45 10.09,-21.74 14.58,-25.59 25.19,-46.97 2.4,-4.92 7.65,-9.65 12.69,-11.89 16.86,-7.53 34.04,-14.42 51.42,-20.58 31.83,-11.26 63.91,-21.87 97.46,-33.24 1.32,16.42 2.12,30.35 3.73,44.21 1.28,11.65 5.84,22.62 16.86,27.83 13.18,6.13 27.07,11.33 41.13,15.06 11.13,2.96 15.9,-1.92 16.01,-13.57 0.16,-12.62 -0.36,-25.31 -0.4,-37.88 -0.28,-84.45 6.33,-168.54 15.34,-252.39 4.52,-42.05 10.61,-83.97 15.54,-125.98 2.16,-18.58 -2.53,-27.51 -19.38,-35.32z"/>
    <path class="fil3" d="M2577.08 286.03l-12.62 0 0 -64.63 19.66 0 11.77 50.78 11.66 -50.78 19.42 0 0 64.63 -12.61 0 0 -43.73c0,-1.24 0.08,-3.05 0.08,-5.29 0.04,-2.28 0.04,-4 0.04,-5.21l-12.21 54.22 -13.13 0 -12.14 -54.22c0,1.2 0.04,2.92 0.04,5.21 0.04,2.24 0.04,4.04 0.04,5.29l0 43.73zm-20.22 -64.63l0 11.45 -19.38 0 0 53.18 -13.57 0 0 -53.18 -19.42 0 0 -11.45 52.38 0z"/>
    <path class="fil2" d="M1507.4 750.34c11.01,-27.15 21.5,-54.58 33.2,-81.41 38.68,-88.86 81.45,-175.55 132.66,-257.96 15.7,-25.23 22.02,-27.47 48.17,-13.01 16.94,9.33 32.71,21.02 48.45,32.36 19.26,13.77 22.86,32.47 16.1,54.5 -15.98,45.41 -89.62,376.49 -110.84,465.51 -6.49,27.43 -10.13,29.75 -35.52,16.66 -6.65,-3.49 -13.29,-7.09 -20.18,-10.13 -12.45,-5.53 -18.98,-15.42 -17.54,-28.47 3.2,-28.75 52.26,-272.02 61.19,-332.64 -3.88,7.69 -7.53,14.65 -10.85,21.74 -42.57,90.74 -79.33,179.23 -115.73,277.1 -6.21,18.26 -10.97,20.94 -29.83,16.14 -13.89,-3.53 -27.51,-8.21 -41.04,-13.02 -16.62,-5.88 -26.83,-18.06 -28.87,-35.44 -3.4,-28.79 -6.37,-57.66 -8.21,-86.65 -2.16,-33.64 -2.88,-67.35 -5.33,-101.55 -4.36,15.1 -9.33,30.07 -13.01,45.37 -20.78,85.21 -41.32,170.55 -61.83,255.92 -3.93,16.3 -10.49,20.06 -25.67,12.93 -8.97,-4.16 -17.3,-9.57 -25.78,-14.65 -17.26,-10.29 -22.66,-25.95 -18.9,-44.81 12.09,-60.95 23.02,-122.18 37.32,-182.64 20.26,-85.82 38.4,-171.67 69.99,-254.11 12.21,-32 17.74,-34.92 50.5,-23.55 16.74,5.81 33.04,13.13 49.02,20.83 14.09,6.72 19.54,19.22 19.1,34.6 -1.8,60.75 3.16,122.77 1.6,183.48 -0.4,14.25 0.12,28.59 0.24,42.84 0.52,0 1.08,0.08 1.6,0.08z"/>
   </g>
   <g>
    <path class="fil2" d="M-0 2142.96l67.8 -201.09c18.93,7.73 38.7,11.17 56.2,8.57 30.86,-4.61 45.61,-24.75 44.38,-57.26l-21.58 -561.49 257.24 -38 22.59 587.72c5.97,155.29 -81.09,260.08 -236.45,283.03 -57.92,8.57 -130.99,2.68 -190.17,-21.47z"/>
    <polygon class="fil2" points="752.14,1469.11 755.02,1543.64 1009.13,1505.99 1017.42,1721.15 763.27,1758.75 766.27,1836.51 1032.76,1797.03 1041.41,2022.71 538.27,2097.11 506.83,1278.47 1009.98,1204.07 1018.63,1429.71 "/>
    <polygon class="fil2" points="1356.03,1379.78 1358.87,1454.29 1612.99,1416.74 1621.28,1631.89 1367.12,1669.45 1370.13,1747.17 1636.62,1707.73 1645.3,1933.34 1142.16,2007.78 1110.69,1189.13 1613.83,1114.73 1622.48,1340.37 "/>
    <path class="fil2" d="M1992.56 1280.35l-27.75 4.08 5.89 152.21 27.75 -4.08c45.09,-6.69 70.96,-38.16 69.11,-86.21 -1.8,-46.57 -29.91,-72.68 -75,-65.99zm136.19 581.51l-150.2 -219.72 9.21 240.58 -241.74 35.72 -31.43 -818.61 280.86 -41.52c186.76,-27.63 311.78,62.87 318.26,230.45 3.93,102.39 -37.4,189.36 -112.12,248.23l202.94 284.07 -275.78 40.81z"/>
    <path class="fil2" d="M2747.5 1495.9l-71.24 -166.06 -56.46 184.96 127.7 -18.9zm80.84 188.6l-272.73 40.28 -23.58 77.41 -255.16 37.72 284.39 -865.3 210.91 -31.2 346.3 772.04 -260.28 38.52 -29.83 -69.47z"/>
    <path class="fil2" d="M990.27 2645.67l-20.5 -533.14 257.23 -38.04 19.14 498.5c2.52,66.23 33.99,98.39 89.34,90.18 54.66,-8.05 84.01,-49.22 81.45,-115.4l-19.14 -498.5 257.2 -38.04 20.5 533.1c7.01,181.52 -123.21,321.19 -330,351.78 -206.82,30.52 -348.26,-68.87 -355.23,-250.43z"/>
    <path class="fil2" d="M2125.39 2245.6c-1.96,-51.26 -31.04,-77.81 -77.76,-70.84l-29.31 4.32 6.29 163.7 29.31 -4.33c46.77,-6.89 73.44,-41.69 71.48,-92.86zm259.28 -39.41c7.09,184.16 -113.28,321.75 -305.29,350.18l-46.29 6.89 8.25 214.03 -252.07 37.28 -31.47 -818.61 307.65 -45.49c186.32,-27.59 312.22,72.84 319.23,255.72z"/>
    <path class="fil4" d="M26.38 2116.3l67.81 -201.1c18.91,7.73 38.71,11.09 56.18,8.53 30.88,-4.57 45.64,-24.66 44.37,-57.18l-21.58 -561.53 257.22 -38 22.59 587.68c5.97,155.33 -81.05,260.04 -236.41,283.07 -57.92,8.57 -130.98,2.72 -190.18,-21.46z"/>
    <polygon class="fil4" points="778.53,1442.41 781.41,1516.97 1035.52,1479.36 1043.81,1694.52 789.66,1732.04 792.66,1809.76 1059.15,1770.36 1067.8,1996 564.66,2070.44 533.22,1251.76 1036.37,1177.35 1045.02,1403.04 "/>
    <polygon class="fil4" points="1382.42,1353.07 1385.26,1427.63 1639.38,1390.03 1647.71,1605.18 1393.55,1642.78 1396.52,1720.43 1663.01,1681.02 1671.65,1906.67 1168.55,1981.11 1137.12,1162.5 1640.18,1088.02 1648.91,1313.7 "/>
    <path class="fil4" d="M2018.95 1253.68l-27.75 4.12 5.89 152.21 27.75 -4.16c45.09,-6.65 70.96,-38.08 69.12,-86.17 -1.8,-46.61 -29.92,-72.68 -75,-65.99zm136.19 581.51l-150.16 -219.8 9.25 240.62 -241.78 35.8 -31.48 -818.65 280.87 -41.52c186.72,-27.67 311.78,62.87 318.26,230.53 3.93,102.31 -37.4,189.33 -112.12,248.15l202.94 284.07 -275.78 40.81z"/>
    <path class="fil4" d="M2773.89 1469.23l-71.24 -166.1 -56.46 185 127.7 -18.9zm80.85 188.6l-272.73 40.33 -23.63 77.36 -255.12 37.72 284.39 -865.3 210.91 -31.19 346.34 772.08 -260.36 38.48 -29.79 -69.47z"/>
    <path class="fil4" d="M22.75 2116.65l67.81 -201.06c18.91,7.73 38.7,11.09 56.19,8.49 30.88,-4.52 45.63,-24.67 44.37,-57.18l-21.59 -561.49 257.21 -38.04 22.59 587.72c6.01,155.33 -81.05,260.04 -236.4,283.07 -57.92,8.49 -130.98,2.68 -190.17,-21.5z"/>
    <polygon class="fil4" points="774.88,1442.8 777.76,1517.28 1031.88,1479.76 1040.17,1694.88 786.06,1732.44 789.02,1810.12 1055.5,1770.72 1064.19,1996.36 561.05,2070.77 529.58,1252.16 1032.72,1177.76 1041.41,1403.4 "/>
    <polygon class="fil4" points="1378.78,1353.47 1381.62,1428.03 1635.77,1390.43 1644.06,1605.58 1389.91,1643.14 1392.87,1720.83 1659.36,1681.38 1668.01,1907.07 1164.9,1981.51 1133.47,1162.86 1636.58,1088.42 1645.26,1314.11 "/>
    <path class="fil4" d="M2015.38 1254.08l-27.83 4.08 5.84 152.21 27.75 -4.12c45.09,-6.65 71,-38.16 69.15,-86.17 -1.76,-46.61 -29.87,-72.68 -74.92,-65.99zm136.15 581.47l-150.2 -219.76 9.25 240.58 -241.78 35.8 -31.48 -818.61 280.87 -41.56c186.72,-27.63 311.82,62.91 318.26,230.53 3.93,102.35 -37.4,189.32 -112.08,248.19l202.86 284.07 -275.7 40.77z"/>
    <path class="fil4" d="M2770.24 1469.63l-71.27 -166.1 -56.46 185 127.74 -18.9zm80.89 188.6l-272.73 40.32 -23.67 77.37 -255.12 37.72 284.39 -865.38 210.95 -31.12 346.29 772.04 -260.36 38.48 -29.75 -69.44z"/>
    <path class="fil4" d="M1016.66 2619l-20.5 -533.18 257.24 -38.04 19.14 498.54c2.52,66.19 33.99,98.39 89.33,90.22 54.66,-8.13 84.01,-49.29 81.45,-115.48l-19.14 -498.58 257.2 -38.04 20.5 533.18c6.97,181.6 -123.21,321.19 -329.99,351.78 -206.82,30.55 -348.3,-68.87 -355.23,-250.39z"/>
    <path class="fil4" d="M2151.78 2218.85c-1.97,-51.18 -31.04,-77.72 -77.72,-70.8l-29.31 4.28 6.24 163.78 29.31 -4.36c46.73,-6.89 73.44,-41.65 71.48,-92.9zm259.24 -39.4c7.05,184.2 -113.24,321.79 -305.25,350.22l-46.33 6.81 8.25 214.11 -252.04 37.28 -31.43 -818.65 307.61 -45.45c186.32,-27.55 312.14,72.92 319.18,255.68z"/>
   </g>
  </g>
 </g>
</svg>
