<?xml version="1.0" encoding="UTF-8"?>
<!DOCTYPE svg PUBLIC "-//W3C//DTD SVG 1.1//EN" "http://www.w3.org/Graphics/SVG/1.1/DTD/svg11.dtd">
<!-- Creator: CorelDRAW 2021 (64-Bit) -->
<svg xmlns="http://www.w3.org/2000/svg" xml:space="preserve" width="2.5in" height="2.48012in" version="1.1" style="shape-rendering:geometricPrecision; text-rendering:geometricPrecision; image-rendering:optimizeQuality; fill-rule:evenodd; clip-rule:evenodd"
viewBox="0 0 13124.17 13019.82"
 xmlns:xlink="http://www.w3.org/1999/xlink"
 xmlns:xodm="http://www.corel.com/coreldraw/odm/2003">
 <defs>
  <style type="text/css">
   <![CDATA[
    .fil0 {fill:#FEFEFE;fill-rule:nonzero}
    .fil1 {fill:#2B2A29;fill-rule:nonzero}
    .fil2 {fill:url(#id0)}
   ]]>
  </style>
  <linearGradient id="id0" gradientUnits="userSpaceOnUse" x1="1218.83" y1="7864.09" x2="9739.15" y2="62.87">
   <stop offset="0" style="stop-opacity:1; stop-color:#E31E24"/>
   <stop offset="0.4" style="stop-opacity:1; stop-color:#E31E24"/>
   <stop offset="0.709804" style="stop-opacity:1; stop-color:#962983"/>
   <stop offset="1" style="stop-opacity:1; stop-color:#962983"/>
  </linearGradient>
 </defs>
 <g id="Layer_x0020_1">
  <metadata id="CorelCorpID_0Corel-Layer"/>
  <g id="_2306874954832">
   <path class="fil0" d="M495.97 13019.82c-22.94,0 -45.92,-5.52 -66.86,-16.6 -42.62,-22.55 -70.93,-65.17 -75.52,-113.24l-158.56 -1717.37 -169.75 -246.16c-22.96,-33.23 -30.67,-74.55 -21.49,-113.86 9.2,-39.27 34.54,-72.88 69.8,-92.39l2867.39 -1588.23c21.52,-11.82 45.2,-17.9 69.28,-17.9 10.09,0 20.21,1.05 30.13,3.16l644.45 138.45 -2.17 -23.85 -46.01 -82.28c-10.13,-17.53 -15.96,-36.95 -17.8,-56.96l-20.56 -227.02c-5.21,-56.42 23.31,-110.55 73.02,-138.02l7687.4 -4257.98c21.78,-12.03 45.41,-17.92 69.34,-17.92 33.44,0 66.59,11.68 92.96,34.43l193.62 165.9 48.49 -110.62 6.74 -48.3 -13.5 -145.77c-5.21,-56.59 23.31,-110.95 73.33,-138.45l1082.2 -599.54c21.78,-12.07 45.43,-17.92 69.36,-17.92 34.97,0 69.65,12.88 96.64,37.8 45.41,41.75 58.9,107.78 33.75,163.94l-785.49 1740.95 36.81 399 54.01 120.06c6.45,14.47 10.75,29.95 11.97,45.72l20.56 222.92c5.21,56.49 -23.31,110.64 -73.33,138.12l-802.06 444.36c-21.47,11.95 -45.43,17.9 -69.34,17.9 -22.71,0 -45.74,-5.54 -66.9,-16.58 -42.33,-22.59 -70.87,-65.19 -75.48,-113.26l-66.88 -723.54 -340.59 -277.03 62.29 676.13c0.6,7.07 0.91,14.12 0.6,21.18l-37.74 667.91c-2.75,49.02 -30.67,93.25 -73.33,117.02l-1709.37 946.66 1595.53 1463.77c52.17,48.01 61.36,127.05 21.49,185.76 -27.32,40.28 -72.11,62.58 -118.14,62.58 -21.16,0 -42.35,-4.63 -62.29,-14.32l-2910.3 -1410.45 -51.55 28.5 52.77 111.26c6.76,14.94 11.35,31.08 12.9,47.58l20.85 224.27c5.54,56.55 -23.31,110.9 -72.71,138.39l-3632.3 2011.74c-21.47,11.95 -45.41,17.9 -69.34,17.9 -23.02,0 -46.03,-5.52 -66.9,-16.58 -42.64,-22.59 -70.87,-65.17 -75.46,-113.22l-39.6 -430.02 -428.03 -93.46 41.75 451.55 55.53 117.79c7.05,15.13 11.35,31.33 13.19,47.93l20.56 224.27c4.9,56.49 -23.62,110.68 -73.33,138.12l-2866.75 1587.86c-21.52,11.95 -45.39,17.92 -69.28,17.92z"/>
   <polygon class="fil1" points="12222.76,5970.03 12180.41,5509.69 12981.25,3734.35 11898.75,4333.95 11914.08,4496.53 11901.81,4580.94 11768.02,4886.06 11428.05,4594.66 10715.9,4989.13 10715.9,4989.13 8507.63,6212.2 8507.63,6212.2 6586.85,7276.08 6586.85,7276.08 4542.72,8408.3 4542.72,8408.3 3740.66,8852.62 3761.22,9079.7 3821.97,9188.45 3844.99,9436.36 3010.25,9257.09 2457.98,9563 2457.98,9563 290.57,10763.48 142.86,10845.28 333.93,11122.23 495.97,12876.84 2707.65,11651.83 2707.65,11651.83 3362.95,11288.98 3342.1,11064.73 3275.81,10924.11 3213.98,10253 3935.21,10410.47 3984.29,10944.69 4624.96,10589.93 4624.96,10589.93 6813.6,9377.54 6813.6,9377.54 7616.28,8932.93 7595.4,8708.71 7529.43,8568.27 7518.99,8457.96 7719.37,8347.02 10696.26,9789.81 8954.68,8191.76 10837.4,7149 10874.83,6481.07 10796.3,5630.48 10675.7,5697.21 10692.89,5394.68 11432.66,5995.78 11504.77,6779.22 12288.73,6345.16 12307.13,6334.84 12286.58,6111.92 "/>
   <path class="fil0" d="M481.65 10999.61l-63.2 -107.41 -0.72 -8.29 1875.45 -1038.81 -30.3 537.02 -7.01 3.84 -165.34 45.1 -1357.18 751.72 231.69 -61.47 12.86 138.21 1050.72 -581.95 -34.52 492.81 -974.52 539.85 18.58 201.86 1350.18 -747.85 117.58 408.56 -1875.45 1038.81 -148.81 -1612zm2064.34 -1143.5l-63.2 -107.39 -0.74 -8.31 500.1 -276.93 1247.91 268 -210.79 -130.42 -49.4 -533.61 -60.74 -108.71 -0.93 -8.29 500.14 -276.91 162 1755.79 -451.35 250.12 -41.73 -450.71 -1245.76 -272.01 -2.4 1.26 210.73 130.42 87.82 951.18 66.3 140.56 0.95 11.04 -499.92 276.95 -149 -1612.04zm2064.55 -1143.44l-63.2 -107.39 -0.91 -8.33 1875.66 -1038.79 -30.38 537.08 -6.74 3.8 -165.7 45.1 -1356.81 751.72 231.65 -61.51 12.59 138.25 1050.6 -581.95 -34.06 492.83 -974.81 539.83 18.42 201.86 1350.36 -747.85 117.83 408.59 -1875.66 1038.81 -148.83 -1612.04zm2443 -1030.51l229.52 -60.16 26.39 287.53 792.56 -439.03 -26.7 -290.32 220.01 -185.87 -1241.77 687.85zm-272.45 197.36l-169.37 -417.72 -0.93 -8.29 1868.61 -1035.01 74.26 801.88 -27.32 489 -261.41 144.68 1670.39 1400.69 0 0 -2172.99 -1122.31 -411.15 227.8 29.76 323.52 66.28 140.56 0.91 11.08 -499.83 276.91 -46.63 -503.2 -133.47 74.03 34.37 -492.85 57.68 -31.89 -29.47 -318 -40.49 34.04 -9.2 5.08zm1958.19 -1453.79l-63.2 -107.39 -0.62 -8.29 1875.37 -1038.84 -30.38 537.06 -6.74 3.82 -165.39 45.12 -1357.12 751.67 231.65 -61.49 73.04 790.8 974.5 -539.81 -12.59 -138.29 220.01 -188.66 -15.05 -3.39 5.83 8.49 -940.12 520.69 32.22 -491.55 1101.21 -609.97 60.14 652.51 -27.3 489 -1806.34 1000.52 -149.12 -1612.02zm2838.52 -578.08l-837.96 -681.05 631.47 -349.68 370.64 317.77 -80.38 335.21 384.16 -875.5 22.09 -154.6 -0.93 -8.33 599.25 -331.85 -643.44 1425.95 51.55 558.59 63.82 141.82 1.24 11.08 -500.14 276.91 -61.36 -666.34z"/>
   <path class="fil2" d="M9559.13 4508.56c0.62,-0.41 1.24,-0.85 1.84,-1.28 0.62,1.78 1.55,3.47 1.84,5.27 -1.53,-1.8 -2.13,-2.44 -3.68,-3.99zm-1084.95 -3933.78c19.94,-8.16 13.5,-37.49 -14.43,-50.43 1.84,-9.42 5.21,-15.69 10.13,-18.54 23.31,12.03 5.83,41.54 35.59,50.57 -9.51,8.27 -12.59,31.75 -31.29,18.39zm-3204.57 1750.27c-0.31,-0.25 0,-0.52 0,-0.76 0,0.06 0,0.1 0,0.12 0,0.33 0,0.33 0,0.64zm-15.96 12.21c-0.93,-2.17 -1.53,-4.44 -2.15,-6.76 1.22,0.76 2.46,1.55 3.39,2.38 0,2.29 -0.93,3.04 -1.24,4.38zm-129.79 57.11c-8.27,-3.1 -7.36,-9.92 -5.83,-16.84l13.19 7.75c-3.37,1.12 -5.52,5.1 -7.36,9.09zm-15.65 15.25c0,-0.23 0,-0.37 0,-0.56 0.31,-0.31 0.31,-0.43 0.62,-0.68 0,0.23 0.31,0.41 0.6,0.68 -0.6,0.19 -0.91,0.33 -1.22,0.56zm-532.66 217.14c-4.61,1.51 -8.29,5.13 -11.97,8.56 -8.29,3.27 -16.58,6.53 -24.86,9.82 -2.44,-4.57 -5.52,-9.05 -7.67,-13.74 15.36,2.5 36.21,-19.24 47.87,-8.62 -0.91,1.34 -2.15,2.67 -3.37,3.99zm-191.78 79.65c0,-0.08 -0.31,-0.14 -0.31,-0.21 0.62,-0.23 0.93,0 1.24,-0.23 -0.31,0.17 -0.62,0.31 -0.93,0.43zm-2332.57 4054.13c1.82,12.86 -1.65,9.38 -7.36,0.43 2.56,-0.14 4.96,-0.29 7.36,-0.43zm126.2 35.59c-1.28,-8.18 -2.73,-16.53 -4.05,-23.93 0.37,7.69 0.91,15.98 1.32,24.72 0,0.1 0,0.12 0.14,0.19 -0.14,0.04 -0.14,0.04 -0.14,0.04 0,-0.1 0,-0.12 0,-0.23 -7.92,-18.39 -14.92,-34.58 -18.75,-42.14l2.17 -11.64c3.12,-0.37 6.45,-0.95 9.38,-1.76 2.03,8.64 3.89,19.1 5.87,30.82 -0.33,-4.67 -0.74,-9.24 -0.89,-13.35 4.94,8.87 8.99,20.87 12.3,34.27 -2.58,1.07 -4.96,1.96 -7.36,3.02zm-631.1 239.81c-0.37,-3.33 -1.1,-7.25 -1.8,-12.34 0,0 1.07,3.78 1.8,12.34zm8457.73 -5420.86c-18.73,-31.87 -28.85,-28.4 -38.98,-35.05 31.6,27.96 5.23,19.32 14.12,34.76 -26.68,-21.47 -16.87,-4.77 -16.87,-4.77 -14.43,-6.63 -48.8,-53.16 -40.82,-28.03 -31.6,-41.15 -46.32,-25.09 -32.22,11.02 -3.06,-5.5 -5.21,2.93 -4.3,10.21 -23,-9.09 -25.46,-37.31 -46.32,-54.89l-9.82 13.02c-2.46,-2.27 4.61,17.03 -13.52,0.45 -18.7,-25.98 -20.23,-10.64 -20.23,-10.64 -21.18,-24.51 -65.04,-28.81 -65.04,-28.81 0,0 -66.9,-80.92 -61.07,-40.67 -29.14,-56.53 -113.53,-21.58 -112.6,-7.56 -25.46,-14.88 -22.71,-20.77 -53.08,-33.44 -4.92,9.76 -103.71,-5.15 -97.59,-25.83 3.7,4.73 -3.06,-25.52 14.74,-78 41.11,-31.04 95.73,-73.93 110.16,-138.04 32.51,-11.47 66.88,-86.54 82.84,-117.46 27.3,-51.34 52.79,-94.25 64.44,-151.35 -11.37,5.46 -17.8,-8.21 -28.54,-15.71 2.77,-16.37 -0.31,-9.16 -16.27,-21.21 -1.84,34.58 -45.1,8.89 -36.81,39.97 -3.68,11.39 -20.56,-8.95 -29.76,-10.15 -16.27,15.23 -33.77,27.1 -52.17,37.1 8.29,-28.17 15.65,-32.86 24.24,-76.91 -65.35,45.97 -157.72,101.25 -215.4,193.89 -5.83,8.66 -16.27,7.19 -27.3,2.69 2.13,6.84 6.43,13.06 11.35,18.79 -8.6,4.3 -15.05,14.98 -22.09,23.54 -29.14,-29.27 -36.81,45.7 -41.73,79.57 -14.43,-9.28 -7.36,-28.27 -4.61,-45.24 -6.14,9.3 -23.93,4.3 -29.76,-10.6 6.76,-24.04 16.58,-10.33 15.36,-39.46 -12.28,-8.97 -3.08,32.12 -19.66,13.25 -7.36,12.77 3.39,17.55 -1.84,29.2 -3.06,3.53 -6.43,7.19 -12.26,5.25 -5.54,-13.12 1.53,-32.12 -4.61,-45.04 1.84,-3.93 6.14,-2.56 7.36,-7.83 3.99,27.26 20.87,-3.76 30.07,-13.37 8.6,4.2 8.29,12.05 17.8,15.98 20.56,-24.95 7.07,-68.27 27.3,-87.63 8.6,13.79 -7.36,37.86 -8.58,55.62 11.04,-4.53 29.76,-23.97 15.34,-39.68 34.68,-0.37 48.78,-48.51 69.03,-82.05 -23,-3.86 -27.61,36.09 -40.8,55.51 -6.76,-43.24 23.93,-72.17 52.77,-60.91 13.81,-32.08 28.54,-61.71 57.68,-58.3 47.27,-88.73 123.97,-107.85 174.89,-186.43 -23.91,-11.76 -33.75,10.02 -61.67,-10.5 -13.5,16.1 -30.98,23.23 -56.44,10.83 -3.68,8.04 1.84,11.76 0.6,18.56 -24.22,-20.17 -26.08,11.2 -44.17,5.5 -10.13,-6.39 -7.07,-18.89 -3.08,-31.68 -23,-8.39 -30.38,18.7 -48.18,21.62 -16.25,-3.95 -2.44,-21.54 -15.03,-26.68 -28.23,-0.35 -27.3,35.86 -51.55,55.68 -17.49,-17.8 5.83,-49.27 11.35,-65.93 -5.52,1.55 -12.28,-0.29 -20.54,-5.25 -1.24,5.02 4.9,7.34 8.58,10.44 -7.67,15.73 -22.09,2.15 -17.49,26.74 -8.6,-4.17 -8.6,-12.24 -17.8,-15.96 -13.81,23.23 -35.59,28.5 -57.06,34.33 -2.77,13.79 1.84,24.28 13.5,31.66 -1.55,13.14 -33.75,-3.8 -43.88,-18.7 22.09,-16.02 97.26,-77.07 89.29,-112.89 32.84,-26.85 10.75,-44.19 53.08,-48.65 -11.04,-12.67 0.93,-13.93 9.84,-17.15 1.22,-2.85 3.97,-4.46 7.05,-5.54 2.46,-4.57 2.46,-10.33 7.98,-11.97 2.15,2.75 2.46,4.48 2.46,5.99 6.74,-9.38 11.66,-22.71 19.32,-29.89 16.27,5.13 1.84,22.59 17.49,16.02 -8.6,-28.94 31.91,-49.71 55.84,-53.43 6.45,-33.65 32.22,-32.43 51.24,-56.22 -9.82,-27.82 -23.93,4.9 -33.44,5.68 13.19,-25.73 90.22,-74.74 138.68,-66.32 9.82,-44.81 69.36,-60.83 44.19,-133.1 25.77,-1.38 18.11,-40.39 41.13,-37.35 6.74,13.39 -7.38,14.9 3.37,31.85 34.66,-50.97 62.58,-114.73 40.8,-169.75 -16.56,-6.66 -42.33,-9.26 -46.03,-31.42 -33.75,-5.64 -71.18,19.7 -101.25,-26.35 -1.53,27.63 -27.3,29.58 -18.7,55.72 5.83,2.17 6.43,-7.5 8.89,-13.08 12.59,12.03 3.08,10.87 -0.6,23.79 -14.74,-11.76 -24.24,-11.53 -30.69,-5.17 -13.21,-5.27 -13.81,-15.98 -9.2,-29.2 -8.91,1.1 -14.43,8.35 -10.13,18.5 -31,-19.08 -61.36,26.7 -83.15,56.09 -49.11,-19.7 -60.45,47.99 -81.64,92.96l-9.2 -5.27c-5.83,-48.86 26.39,-67.13 30.38,-103.46 -11.06,-8.43 -12.9,3.93 -25.17,-7.73 -30.36,68.76 -68.41,68.66 -104.62,122.15 -3.68,-3.02 -3.68,-7.48 -7.67,-10.19 -15.03,11.57 -37.12,22.73 -21.78,41.91 -1.24,16.41 -14.12,-22.8 -19.94,-5.15 -5.52,-7.09 8.29,-13.6 -4.3,-26.43 -12.88,3.14 -9.82,38.73 -0.91,47.78 -5.54,9.59 -15.67,-17.77 -27.01,-21.27 -10.73,18.99 4.92,26.33 0.62,42.53 -3.99,12.79 -16.27,-7.73 -13.21,-13.14 -15.65,-1.67 -1.53,21.95 -1.84,29.2 -3.37,-0.02 -15.34,-5.79 -23.62,-13.37 1.24,5.17 -4.59,6.78 -2.46,10.69 -18.7,14.18 -37.43,24.95 -36.81,63.51 -20.56,-3.72 -7.67,-21.54 -19.94,-29.06 8.29,-10.52 -49.71,-41.21 -58.3,-45.22 0.62,-0.76 1.24,-1.78 1.84,-2.4 -0.29,-0.7 0,-1.94 -0.91,-2.6 0,0 -21.18,0.64 -30.07,13 -13.19,-13.33 -13.19,-31.97 -26.7,-44.89 0.93,19.51 -2.44,12.03 -7.67,31.64 -15.65,-4.44 -15.96,-15 -26.99,-21.08 -5.23,9.76 -0.31,15.71 -0.62,23.56 -11.97,-4.17 -7.98,-15.4 -22.4,-18.6 -13.81,17.77 -32.82,23.52 -50.62,31.7 -15.65,-14.26 -26.39,-10.56 -20.25,-5.52 -50.33,5.52 -77.32,64.53 -125.81,73.72 -0.62,6.76 7.67,9.38 12.9,13.33 -2.46,13.25 -5.83,25.77 -12.59,29.41 -39.27,-57.44 -50.93,44.23 -81,44.48 -17.49,-60.08 21.47,-59.71 34.37,-95.22 -18.42,-6.53 -46.34,34.08 -46.34,34.08 -9.51,-3 -11.37,-9.61 -16.58,-14.88 -2.15,6.08 -29.76,36.15 -31.91,60.02 -16.58,-5.25 -14.74,-18.79 -13.81,-32.06 -18.42,-15.48 -22.09,3.93 -33.44,5.31 7.05,9.69 8.6,21.47 1.53,36.89 7.98,2.13 8.6,-14.2 21.78,0.31 -6.14,13.97 -16.27,18.58 -30.07,12.96l-11.97 47.76c-15.34,-21.35 -2.75,-21.49 -23.62,-13.37 -19.01,-4.3 -2.75,-24.06 -19.63,-29.31 12.59,40.45 -8.89,36.42 -13.81,76.78 -20.56,1.98 -38.67,9.78 -61.05,7.44 2.75,44 -11.37,59.32 -22.71,89.53 -18.42,-4.53 0.62,-25.4 -7.67,-34.54 -19.94,12.67 -26.39,56.49 -28.23,91.13l-13.5 4.92c-1.84,-8.64 -4.3,-17.46 -7.67,-27.45 -0.93,20.36 -11.97,16.18 -14.12,34.27 -45.72,-30.46 -26.7,40.32 -68.74,14.92 -19.63,32.28 -12.88,22.55 -33.44,47.5 11.06,2.96 4.3,13.68 11.66,18.42 -5.83,9.63 -15.65,8.54 -18.11,26.39 -19.63,-8.64 -7.36,-25.46 2.46,-29.06 -10.73,-16.72 -34.97,22.09 -26.08,39.6 -12.88,3.97 -18.11,25.26 -39.58,7.4 -18.11,5.81 -17.49,54.81 -39.58,49.89 -21.16,-17.75 -12.9,-47.7 -13.5,-74.09 -20.25,12.69 -15.34,50.08 -47.27,57.75 -17.18,-10.52 -13.19,-16.66 -24.84,-8.37 -3.37,19.41 20.85,-2.96 17.18,16.22 9.84,-2.58 19.94,-4.28 25.77,-15.65 13.21,18.23 10.13,17.61 24.86,8.16 5.52,4.11 1.53,11.99 0.62,18.52 -4.92,10.77 -24.86,-14.38 -30.69,-5.33 2.77,6.39 -0.91,15.79 5.52,20.81 -4.9,7.17 -12.57,8.14 -19.63,9.51 -7.05,-3.6 -13.19,-6.39 -14.72,-5.29 -0.93,0.68 -0.62,2.21 -0.93,3.47 -3.37,-5.46 -1.22,-9.45 4.3,-13.04 3.68,-6.72 5.21,5.35 14.12,7.92 -3.68,-12.55 -4.61,-26.41 -18.42,-34.58 -7.36,47.41 -24.24,72.88 -42.35,95.53 -5.21,0.85 -10.13,1.98 -15.96,3.76 -16.27,5.27 -25.46,21.37 -33.75,38.03 -0.31,-1.12 -1.84,-1.86 -1.53,-3.2 0.31,2.21 -0.62,5.62 -1.22,8.72 -3.08,5.89 -5.83,11.76 -8.6,17.05 -6.76,-3.16 -13.5,-6.55 -12.88,-13.25 1.53,8.93 -6.76,26.72 -17.82,41.73 -1.53,-17.46 17.82,-37.41 11.37,-46.67 16.27,13.62 19.94,0.7 1.84,-5.25 -4.61,6.22 -9.53,11.72 -14.12,17.24 -1.84,-1.67 -4.61,-3.37 -8.6,-4.75 -18.11,24.76 -36.81,43.51 -55.53,56.59 -19.63,-21.7 23.93,-31.42 10.75,-59.77 -11.06,6.47 -18.73,-0.19 -16.27,20.92 -44.81,-2.34 -84.99,77.46 -119.98,111.75 -3.68,2.09 -6.74,4.09 -10.13,6.2 -7.98,-8.54 14.74,-29.62 -5.83,-32.92 4.3,22.61 -5.21,35.47 -14.72,46.4 -12.28,-7.34 14.41,-30.77 -7.07,-34.27 4.61,25.11 -7.67,38.34 -18.11,50.04 1.53,0.02 3.39,0.06 5.23,0.14 -19.35,12.4 -38.05,24.45 -57.37,36.5 -0.62,-2.4 -1.86,-4.79 -1.86,-7.63 -9.2,-3.18 -8.89,18.56 -22.69,5.13 -1.53,2.58 -1.53,4.69 -1.24,6.63 -7.05,0.74 -7.67,17.4 -20.54,5.25 -3.39,6.72 0,10.66 4.9,14.36 -12.57,5.64 -24.53,11.62 -35.59,17.94 -29.45,14.51 -54.29,31.39 -82.84,51.61 -5.52,-6.1 -6.45,-14.07 -2.15,-23.93 -8.6,1.57 -13.81,11.33 -21.78,14.22 0.31,-0.91 0.31,-1.63 0.62,-2.62 -10.13,1.84 -15.05,15.31 -25.48,15.44 -7.05,11.16 1.53,15.81 5.83,22.34 -3.37,1.98 -6.43,4.96 -8.89,9.05 -7.67,-0.99 -13.5,1.63 -18.11,7.3 -2.46,-3.7 -5.21,-7.23 -12.28,-8.8 -0.91,6.99 3.08,12.09 6.14,17.61 -3.99,2.34 -7.98,4.61 -12.28,6.94 -3.68,-4.92 -4.59,-10.89 -14.72,-13.08 -0.93,7.21 3.37,12.38 6.14,18.08 -3.39,2.03 -7.07,4.05 -10.44,6.04 -1.84,0.06 -3.37,1.05 -4.3,2.54 -2.15,1.07 -3.99,2.19 -5.83,3.27 -2.15,-3.43 -4.61,-6.63 -11.04,-8.23 0,4.63 1.53,8.58 3.97,12.21 -4.28,2.62 -8.89,5.25 -13.19,7.81 -2.15,-3.62 -4.92,-7.05 -11.97,-8.68 0.31,4.79 1.53,9.07 4.61,12.83 -3.08,1.72 -6.14,3.39 -9.22,5.08 -17.18,-2.27 -34.66,-11.08 -40.8,-25.55 -18.42,23.64 18.11,17.11 25.46,34.35 -1.53,0.83 -3.37,1.69 -4.61,2.54 -17.49,-2.17 -35.28,-10.97 -41.42,-25.55 -14.12,17.88 3.68,18.35 16.27,25.03 -2.46,5.89 -6.45,9.55 -10.13,12.52 -2.77,-1.3 -5.52,-2.46 -9.82,-3.16 -5.52,16.2 -19.94,15.96 -23.62,29.31 -4.61,2.48 -8.91,4.94 -13.5,7.44 -2.46,-2.05 -4.92,-3.62 -7.07,-7.17l-3.37 12.98c-3.68,1.9 -7.07,3.8 -10.44,5.7 -2.44,-1.96 -4.61,-4.32 -6.74,-7.54l-3.39 12.98c-12.88,7.03 -25.77,13.83 -38.36,20.65 -4.59,-0.27 -7.36,1.53 -9.2,4.88 -3.68,1.94 -7.36,3.91 -10.73,5.81 -4.92,-0.56 -7.98,1.47 -9.84,5.19 -26.68,14.16 -53.39,27.94 -80.07,41.73 -0.93,-8.6 0.31,-18.08 -5.52,-24.47 -3.08,13.45 -8.91,23.77 -14.74,33.92 -0.62,-8.16 0.31,-17.03 -5.21,-23.04 -3.08,13.62 -8.91,24.12 -14.74,34.37 -4.9,2.4 -9.51,4.75 -14.12,7.17 -0.93,-2.48 -3.99,-5.27 -11.66,-8.93 2.15,-20.07 19.63,-3.29 22.09,-23.17 -9.82,-8.76 -18.11,2.71 -24.86,8.16 -2.75,-0.68 -5.52,0.04 -7.98,1.45 -1.84,-1.07 -3.68,-3.16 -5.52,-7.87 -1.84,10.02 -6.76,14.41 -12.28,19.61 -2.75,-0.23 -4.9,-2.5 -7.36,-8.8 -1.84,9.71 -6.45,14.05 -11.97,19.1 -9.82,-14.14 -15.96,14.59 -36.52,2.81 -1.53,5.44 -3.68,9.03 -5.83,12.92 -3.99,0.99 -8.29,0.93 -13.81,-2.19 -6.45,24.53 -20.56,30.84 -32.22,42.27 -6.74,-6.72 -14.12,-7.21 -21.47,-22.88 7.98,20.25 2.77,23.31 -4.61,27.82 -4.59,-3.18 -9.51,-6.66 -14.72,-17.18 11.04,28.17 -3.39,23.11 -12.59,35.2 -0.6,-0.83 -0.91,-2.03 -0.91,-4.3 -16.58,-7.09 7.05,27.72 -13.5,10.27 1.53,2.46 3.68,4.86 5.52,7.28 -6.45,-2.21 -11.37,1.76 -11.06,-7.09 -16.27,-7.03 7.07,27.67 -13.5,10.25 3.68,5.21 7.67,10.19 11.04,15.52 -4.59,2.27 -9.51,4.55 -14.41,6.78 -0.62,-0.41 -1.24,-0.97 -2.15,-1.34 -0.31,0.74 -0.31,1.34 -0.62,2 -0.62,-9.09 -1.22,-18.08 -10.13,-23.79 0.93,9.2 1.53,18.62 4.61,27.18 -4.3,2.07 -8.91,4.22 -13.5,6.3 -0.62,-8.8 -1.55,-17.51 -10.13,-23.02 0.91,8.74 0.91,18.04 3.37,26.31 -6.14,2.91 -12.28,5.81 -18.42,8.74 -3.99,-4.46 -7.05,-9.24 -12.88,-12.67 -2.77,9.01 -7.38,12.96 -12.59,15.4 -1.84,-1.84 -3.68,-3.62 -6.14,-5.04 -1.22,3.62 -2.75,5.68 -4.59,8.02 -4.92,0.52 -9.84,0.83 -14.74,1.72 0.6,3.41 -0.62,5.33 -0.93,8.1 -5.83,0.95 -11.97,1.07 -17.8,2.17 0.93,6.28 0.31,11.18 -0.91,15.34 -7.38,3.33 -14.12,6.57 -21.47,9.86 -2.77,-6.76 9.51,-19.55 -6.14,-21.02 -1.24,12.71 -5.83,18.93 -11.66,22.86 1.53,-5.83 3.06,-11.66 -7.07,-12.63 -0.91,9.01 -3.37,14.59 -6.76,18.62 -5.52,1.74 -11.35,3.58 -16.87,7.03 -0.62,1.1 -0.31,1.78 -0.62,2.75 -4.61,1.53 -9.82,3.27 -14.72,5.83 -2.15,-1.98 -4.61,-3.62 -7.98,-3.99 -6.14,3.55 -7.38,8.8 -6.14,16.39 -0.62,0.25 -0.93,0.5 -1.55,0.74 -2.75,-3.6 -5.83,-6.43 -10.73,-7.01 -1.84,1.12 -2.77,2.52 -3.68,3.86 -10.44,-1.65 -18.42,3.27 -25.17,10.29 -12.88,1.53 -21.78,13.37 -30.67,24.72 -19.94,9.11 -40.2,18.11 -60.14,27.14 -4.61,0.66 -8.6,2.36 -11.97,5.21 -3.06,1.57 -6.76,3.1 -10.13,4.63 -1.53,0.5 -2.75,1.1 -4.3,1.88 -7.98,3.62 -15.96,7.17 -23.93,10.79 -2.46,-3.04 -5.52,-6.2 -9.82,-9.38 -6.14,6.99 -12.88,6.57 -16.27,11.26 -0.6,-0.5 -0.91,-0.95 -1.53,-1.41 -4.59,5.27 -9.82,6.18 -13.5,8.33l-5.52 -3.29c1.53,1.88 2.15,3.78 3.06,5.68 -1.53,1.9 -2.75,4.48 -2.46,9.26 -1.84,0.83 -3.68,1.59 -5.52,2.44l-12.59 -7.56c2.77,3.91 3.7,7.85 3.7,11.64 -4.3,1.78 -8.29,3.62 -12.28,5.44 -3.99,-1.34 -7.98,-3.37 -11.66,-6.78 0.31,4.88 0.31,8.64 0,11.86 -2.77,1.3 -5.83,2.58 -8.6,3.84 -3.06,-1.38 -5.83,-3.35 -8.89,-5.95 0.29,3.84 0.29,7.03 0.29,9.82 -10.73,4.75 -21.47,9.45 -32.22,14.18 0,-3.84 0.93,-7.9 0.62,-14.1 -13.19,5.5 -27.92,26.21 -32.22,28.15 -13.81,-2.31 -30.67,-22.4 -42.95,-11.95 3.99,8.41 13.19,14.67 22.4,21.02 -7.38,3.35 -15.05,6.66 -22.4,9.98 -2.46,-1.55 -4.9,-2.48 -7.36,-5.06 0,2.79 0.6,5.27 0.6,7.94 -4.28,1.96 -8.58,3.91 -12.88,5.83 -1.84,-1.22 -3.37,-2.48 -4.92,-4.24 0,2.19 0.31,4.22 0.31,6.26 -6.45,2.89 -13.19,5.77 -19.63,8.68 -5.21,-8.89 3.99,-23.64 -11.35,-28.65 0.31,13.93 -1.53,16.6 5.52,31.23 -3.37,1.45 -6.76,2.89 -9.82,4.34 -2.46,-0.1 -4.3,0.21 -3.99,1.86 -0.93,0.27 -1.53,0.56 -1.84,0.83 -0.93,0.33 -1.84,0.7 -2.46,1.05 -1.84,-3.02 -1.84,-1.51 -0.93,0.41 -3.37,1.43 -6.74,2.83 -10.11,4.24 -4.61,-1.86 -9.51,-3.99 -14.12,-5.85 -5.54,-11.97 26.99,-12.9 10.13,-36.54 -10.44,21.06 -68.43,86.68 -75.17,34.21 -9.22,2.54 -11.06,25.5 -25.79,15.09 2.46,33.87 -24.22,31.91 -38.96,51.79 -7.67,3.99 -15.05,7.98 -22.71,11.9 -9.2,-2.29 -15.03,3.8 -17.49,-13.89 -8.89,-1.26 -5.21,10.79 -5.52,22.47 -5.21,-0.1 -8.91,-0.31 -10.75,-13.23 -9.51,-1.3 -4.28,12.57 -5.52,24.97 -8.89,4.36 -17.49,8.74 -26.08,13.14 -13.81,6.24 -27.61,12.63 -41.42,18.95 -2.77,0.08 -4.9,1.28 -6.76,3.12 -6.43,2.89 -12.88,5.81 -19.32,8.72 -6.45,0 -11.35,4.75 -20.56,-1.16 2.46,3.37 4.61,5.64 6.45,7.61 -2.15,1.14 -4.59,2.23 -7.05,3.35 -4.3,1.03 -8.6,2.29 -15.34,-1.96 1.84,2.79 3.68,4.82 5.52,6.53 -0.93,0.43 -1.84,0.79 -2.77,1.2 -0.62,-0.5 -1.53,-0.93 -1.84,-1.43 -4.61,0.81 -6.45,2.96 -7.67,5.48 -2.77,1.18 -5.52,2.48 -8.29,3.55 -3.37,0.56 -4.9,1.86 -6.14,3.47 -1.22,0.58 -2.46,1.14 -3.68,1.65 -1.53,-0.64 -2.77,-0.99 -4.9,-1.9 0.29,1.26 0.91,2.36 1.53,3.49 -1.24,0.68 -2.77,1.26 -3.99,1.92 -5.54,-1.1 -9.53,0.6 -13.21,3.58 0,-0.04 0,-0.04 0,-0.06 0,0.06 0,0.06 0,0.08 -1.84,1.51 -3.68,3.2 -5.52,5.06 0,0.04 0,0.06 -0.31,0.12 -4.9,0.02 -8.89,2.4 -12.57,5.81 -3.39,1.74 -7.07,3.43 -10.75,5.08 -2.77,-0.5 -6.14,-1.51 -10.13,-3.35 -0.62,3.45 -1.53,6.82 -2.46,9.36 -1.84,0.74 -3.37,1.47 -4.9,2.25 -2.77,-0.56 -5.23,-1.24 -8.29,-2.75 -0.31,2.77 -1.24,5.31 -1.84,7.59 -34.68,16.22 -69.05,32.92 -103.71,49.62 -15.65,4.57 -30.07,12.79 -43.57,20.92 -3.68,1.84 -6.76,3.6 -10.13,5.5 -15.05,8.35 -29.45,14.82 -45.41,12.42 -8.6,-5.91 1.84,-19.43 -3.37,-26.48 -20.56,-0.83 -23.64,42.7 -54.03,16.45 0.31,7.23 3.08,14.05 11.06,18.89 -0.31,16.91 -10.44,9.32 -11.97,23.02 -10.73,-3.6 -6.74,-12.79 -4.9,-21.43 -13.21,-6.86 -17.51,9.3 -29.16,6.97 0,1.01 0.31,1.84 0.62,2.71 -4.92,3.02 -8.91,7.11 -15.34,5.87 0,1.1 0.29,1.98 0.6,2.93l-5.83 18.81c-1.22,-4.69 -2.15,-9.42 -8.58,-11.9l-0.62 2.89c-2.46,-3.97 -4.92,-7.98 -12.59,-10 -4.3,3.1 -9.2,5.83 -13.5,8.89 -0.62,-0.06 -0.62,-0.31 -0.93,-0.43 -10.42,7.21 -20.85,13.93 -31.6,20.54 -12.28,6.78 -24.53,13.19 -37.74,17.57l1.24 0.95c-4.92,2.19 -9.53,5.13 -14.74,6.88 0.31,-1.05 0.62,-2.13 0.93,-3.14 -20.25,-2.11 -41.73,26.52 -48.8,39.72 -0.91,0.41 -1.84,0.91 -3.06,1.41 -10.75,-12.65 -19.35,-13.21 -26.39,3.04 3.37,1.3 5.52,2.6 7.36,3.8 -0.31,2.91 0,8.1 -0.91,14.32 -31.91,13.62 -64.13,27.16 -96.66,40.7 -1.53,-5.68 -3.99,-11.06 -9.2,-15.31 7.05,-8.6 24.84,-8.74 18.11,-25.69 -10.75,7.4 -12.59,3.91 -24.86,-8.95 2.46,19.9 -7.05,19.41 -4.3,34 -7.67,10.46 -23.62,-0.85 -27.61,20.03 -21.78,-22.22 -41.11,-1.2 -57.06,18.62 -1.84,0.87 -3.99,1.24 -5.83,2.42 -7.67,-15.46 -15.05,-14.74 -22.09,-2.6 -3.37,-1.74 -6.76,-0.6 -10.13,3.41 -1.22,-3.82 -1.53,-8.04 -0.31,-12.94 -9.2,-1.26 -16.56,3.12 -23.31,8.99 -10.44,3.31 -18.73,13.68 -27.61,21.54 -2.15,0.64 -4.61,1.2 -7.38,1.14 0,1.41 0.62,2.42 0.93,3.58 -4.3,2.62 -8.6,4.42 -14.12,4.34 -1.22,6.39 4.61,9.94 7.98,14.45 -2.46,-0.5 -4.3,1.12 -3.68,8.8 -7.98,-4.63 -11.04,-11.39 -11.04,-19.06 -11.06,0.23 9.82,21.72 -10.44,17.86 0,-0.02 0,-0.06 -0.31,-0.06 -1.53,-3.06 -2.15,-6.39 -2.15,-9.9 -3.99,0.06 -3.99,2.67 -3.06,5.83 -6.76,-4.67 -11.06,-10.19 -10.13,-17.63 -2.77,4.67 -7.38,7.36 -12.59,9.28 0,-0.5 -0.62,-0.83 -0.31,-1.38 -0.6,0.89 -1.53,1.43 -2.15,2.15 -9.82,3.22 -20.25,4.88 -25.46,11.53 -3.99,1.36 -7.98,3.04 -10.75,5.54 -2.75,-4.61 -4.59,-9.47 -13.5,-11.8 4.61,12.07 1.53,14.8 -3.06,14.47 -1.84,-2.73 -4.3,-5.23 -9.82,-6.63 0.6,1.53 0.6,2.52 1.22,3.76 -1.53,-0.76 -2.75,-1.43 -2.75,-1.43 -4.3,2.42 -7.07,5.91 -9.22,9.71 -2.15,-1.01 -3.68,-1.9 -3.68,-1.9 -9.51,5.66 -11.97,15.25 -15.65,26.72 -4.3,1.32 -10.13,0.74 -18.42,-2.91 5.52,25.17 -24.55,24 -36.52,32.53 -3.68,-6.45 -1.53,-14.9 -11.04,-19.06 0.91,29.95 -23.93,10.58 -29.14,43.36 0.29,4.55 2.15,7.63 4.59,9.76 -3.37,1.8 -6.43,4.2 -8.6,9.24 -15.03,6.01 -30.05,11.78 -45.1,17.8 3.39,-19.74 6.14,-40.08 16.58,-56.73 -11.06,1.34 -24.86,-3.84 -36.83,-4.55 -1.84,9.82 3.99,26.72 -10.73,18.23 -0.31,7.71 5.83,13.17 4.9,21.08 -9.51,16.1 -11.97,-6.59 -29.45,-12.24 15.96,33.07 -36.5,58.8 -57.06,26.5 7.98,19.94 -13.21,5.1 -13.5,28.32 15.65,10.66 18.08,-14.1 33.75,-3.58 5.52,15.27 -26.08,11.14 -36.83,14.12 1.53,5.95 0.93,12.61 -0.62,19.88 -3.37,1.3 -6.74,2.67 -10.11,4.01 -0.93,-4.2 -0.62,-8.76 1.53,-11.2 -6.76,-1.07 -7.38,5.35 -4.92,12.52 -0.91,0.37 -1.84,0.74 -2.75,1.1 -1.24,-9.71 -3.99,-16.99 -14.12,-14.8 10.42,16.93 3.68,15.15 -3.39,21.62 -1.84,0.68 -3.68,1.38 -5.21,2.09 -7.05,-14.12 -26.39,10.33 -29.45,11.51 -12.9,-14.24 -106.48,54.27 -125.19,25.07 -8.29,-5.99 -141.45,78.41 -220.3,108.59 -4.3,-0.54 -6.76,0.58 -7.07,2.75 -34.06,12.9 -67.5,25.63 -100.34,38.26 -2.13,-5.6 -4.59,-11.1 -13.81,-13.89 -7.36,12.86 -21.16,8.25 -25.46,28.75 -3.06,1.22 -6.14,2.42 -9.2,3.62 -1.53,-5.91 -2.77,-11.78 -8.29,-16.04 -0.62,10.19 -2.77,16.47 -6.14,21.41 -32.53,12.36 -64.73,24.62 -96.64,36.75 -2.15,-5.89 4.28,-14.84 -7.98,-17.11 -5.85,15.46 -25.46,10.27 -15.36,25.96 -10.11,3.86 -20.54,7.73 -30.67,11.57 -5.23,-9.98 -4.92,-24.41 7.36,-18.6 -13.19,-26.79 -30.38,37.47 -49.09,-0.27l-9.53 30.96c3.39,1.16 5.54,2.79 7.38,4.57 -3.99,1.57 -8.29,3.18 -12.28,4.75 -0.93,-0.74 -1.53,-1.47 -2.46,-2.09 -0.31,1.34 -0.6,2.09 -0.91,3.29 -14.12,5.39 -27.92,10.62 -42.04,15.96 -9.82,-2.17 -20.87,-4.69 -32.53,-5.23 -9.51,29 -62.29,11.08 -83.46,39.35 1.53,4.57 3.37,6.84 5.21,7.87 -4.9,1.78 -9.51,3.53 -14.1,5.37 0,-0.37 0,-0.56 -0.62,-0.85 -12.9,-5.54 -23,-8.35 -27.3,-17.28 -2.46,6.14 -4.61,18.39 -7.07,31.35 -8.29,3.1 -16.58,6.26 -24.55,9.32 -2.44,0.89 -4.28,1.82 -6.43,2.71 -2.15,-2.03 -4.3,-3.72 -7.07,-4.36 -8.29,0.5 -21.78,33.44 -28.83,6.35 -15.36,30.63 -41.13,33.34 -66.55,37.8 -18.58,-6.86 2.36,-28.44 -16.58,-35.22 -13.19,18.6 14.36,22.34 4.44,39.97 -9.01,16.8 -22.98,-15.15 -36.93,-23.69 -5.17,11.57 -17.84,2.89 -24.8,9.11 -1.65,-11.72 -8.64,-21.37 -24.26,-27.76 1.84,6.28 2.77,18.7 -4.79,15.58 -3.12,13.99 9.94,-2.21 18.58,11.35 -2.77,17.49 -16,7.19 -24.43,9.05 -2.77,13.21 17.09,10.5 19.68,6.47 4.75,9.09 5.13,19.8 7.69,29.56 -11.39,5.31 -17.63,-9.51 -15.6,14.55 -20.42,-13.08 -2.23,-15.44 -7.34,-29.31 -17.09,-6.28 -7.92,13.68 -8.1,26.02 -11.57,11.62 -29.95,6.9 -42.99,15.5 -5.7,-11.49 -0.37,-27.53 -4.42,-39.37 -16.16,-1.26 -41.34,-28.5 -52.17,-8.78 -16.53,-15.13 -14.88,15.71 -15.23,22.92 4.92,7.77 9.71,15.38 5.48,26.6 -9.71,5.93 -15.96,-19.99 -19.82,11.84 -16.72,-3.06 1.47,-18.89 -15.25,-22.05 11.76,23.48 -5.52,29 -23.35,22.09 -1.65,18.13 11.39,17.75 18.58,11.72 -2.21,9.82 -9.18,7.4 -11.02,17.61 -6.82,-8.12 -28.85,-10.85 -26.08,-22.88 -6.08,0.12 -17.65,32.18 -22.98,3.8 -13.04,-3.68 -1.84,41.48 -22.07,35.16 -5.48,-5.46 0.41,-15.25 2.03,-23.44 -16.31,3.1 -53.08,-9.09 -49.4,17.77 -3.31,4.82 -28.13,5.7 -18.75,-11.74 -5.15,2.52 -5.7,16.06 -4.79,15.38 21.52,15.94 1.12,20.07 3.14,44.87 -12.3,-14.16 -11.76,6.1 -15.81,14.57 -6.22,-2.85 -6.04,-8.16 -8.43,-12.42 5.31,9.28 -72.96,23.64 -81.04,27.01 -15.79,6.43 -29.58,17.59 -45.74,24.18 -37.47,15.31 -78.27,25.38 -111.88,49.19 -4.96,-4.13 -0.76,-11.86 0.35,-18.04 -10.66,-3.18 -19.82,-3.37 -21.49,16.58 -14.88,-23.85 -13.95,1.28 -31.04,-7.28 -12.67,-6.08 13.41,-26.27 -7.52,-29.31 -0.91,30.38 -13.25,17.22 -38.42,18.11 -1.65,23.85 -8.06,41.77 -34,21.6 -3.45,22.32 -18.52,12.71 -21.83,35.2 -53.67,-44 -96.66,19.24 -163.53,11.82 8.08,17.36 -0.37,37.24 -15.62,14.59 -9.2,13.68 -2.03,22.14 1.12,31.37 -3.49,3.27 -6.82,6.8 -12.3,4.44 -2.96,-12.83 -11.24,-23.27 -4.05,-39.74 -23.73,-9.38 8.06,35.38 -21.7,17.01 5.7,30.15 -3.29,22.09 -20.56,29.78 -9.76,-7.21 -5.89,-19.35 -1.1,-31.56 -24.45,36.73 -71.49,44.83 -111.36,47.7 -16.53,1.22 -24.06,-1.8 -37.26,-9.51 -8.29,-4.79 -17.09,-7.73 -27.03,-7.19 -9.18,0.54 -17.09,3.84 -23.87,10.29 -2.58,2.46 -18.75,27.7 -15.44,29.25 -15.44,-7.03 6.45,-26.79 -11.93,-32.45 -2.4,26.46 -42.8,11.55 -61.92,21.39 -3.51,8.8 2.19,14.47 -1.67,23.44 -3.86,-6.18 -1.28,-14.65 -10.64,-18.95 -11.02,5.25 -1.65,6.63 -6.45,20.63 -4.57,-4.61 0,-12.32 -6.04,-16.37 -19.49,-12.05 -27.76,6.82 -18.75,25.07 -5.15,-4.57 -8.66,-4.63 -11.02,-1.01 -4.79,-4.38 -0.56,-11.84 0.56,-18.44 -29.22,9.36 -85.28,-4.69 -92.99,32.59 -36,-12.32 -17.82,14.57 -39.89,4.53 -0.91,7.52 -1.98,15.07 -4.57,22.2 -1.84,5.31 -4.59,10.21 -8.1,14.69 -1.47,2.11 -3.27,4.13 -4.96,6.16 -0.89,1.07 -1.82,2.19 -2.54,3.24 -0.56,0.62 -1.12,1.2 -1.49,1.8 -0.72,0.85 -1.28,1.2 -2.19,1.65 -0.93,0.39 -2.03,0.83 -2.96,1.03 -1.65,0.43 -3.49,0.41 -5.13,1.3 -1.28,0.76 -2.21,2.34 -2.96,3.68 0,0 -1.1,-12.73 -1.47,-12.36 -1.84,-4.67 -1.28,6.06 -0.19,15.6 -0.17,0.68 -0.35,1.59 -0.54,2.34 -0.74,0.06 -1.49,0.14 -2.21,0.19 -1.84,-9.45 -4.05,9.71 -6.08,-9.69 -0.56,4.88 -2.36,7.05 -4.22,10 -0.72,1.16 -13.76,-1.07 -15.6,-1.14 -5.17,-0.23 -10.13,-1.18 -15.25,-1.36 -2.93,-0.1 -6.08,-0.1 -9.03,0.12 -0.91,0.1 -6.59,1.55 -7.15,1.12 -4.96,-4.2 -0.91,-11.84 0.56,-18.48 -8.83,1.45 -18.75,-0.45 -24.45,8.91 -5.31,7.4 -8.8,-11.2 -11.93,9.05 -0.93,-7.28 0.91,-10.75 0.17,-15 -0.54,1.59 -1.65,6.41 -2.38,2.09 -0.74,-4.34 0.72,-6.14 1.47,-9.36 -3.84,0.95 -4.24,8.49 -4.38,11.41 -0.56,3.68 -0.74,7.34 -0.74,10.97 -0.21,3.47 0,6.51 -3.31,8.6 -1.3,0.89 -3.14,1.32 -4.79,1.45 -2.4,0.19 -4.05,-2.58 -6.97,-1.14 -3.12,1.65 -2.93,6.94 -2.75,9.88 -0.93,-4.2 -2.96,-1.1 -3.33,0.89 -4.42,-0.79 -4.96,-2.36 -9.2,-0.54l1.32 2.62c0,0.31 0,0.45 0,0.81 -3.33,0.12 -6.45,0.21 -9.76,0.41 -1.86,-2.13 -2.4,-0.93 -2.96,0.21 -0.93,0.04 -1.65,0.17 -2.36,0.23 -0.76,-0.83 -1.88,-2.29 -3.7,-5.54l0.56 5.85c-0.56,0.06 -1.1,0.1 -1.47,0.17 -1.84,-6.72 -4.77,-11.62 -9.9,1.84 -0.56,0.14 -0.93,0.33 -1.49,0.48 -2.93,-11.24 -6.63,-31.23 -8.45,-33.34 -0.74,-2.31 0.72,-3.84 1.28,-5.64 0.37,-0.74 -1.49,-3.51 -2.21,-3.82 -1.65,-0.83 -1.65,2.03 -3.66,1.57 -1.1,-0.25 -1.65,-2.42 -2.93,-2.23 -0.93,0.14 -1.47,1.74 -1.65,2.42 -1.3,2.79 -2.21,5.77 -3.33,8.66 -0.72,1.96 -1.84,5.83 -3.86,6.84 -2.36,1.26 -3.68,-2.34 -4.24,-4.11 1.49,6.82 2.96,13.64 0.95,18.95 -3.31,2.71 -11.41,-25.42 -13.04,-3.49 -0.58,-1.86 -0.76,-3.68 -0.93,-5.33 -2.38,5.83 -8.08,10.07 -8.83,22.03 -6.24,-43.44 -14.88,22.69 -18.37,-17.53l-8.25 2.91 -0.19 -4.11c-5.52,-2.17 -6.45,7.65 -7.38,17.42 -1.47,-2.62 -1.1,-6.47 -1.1,-8.56 -8.62,-7.4 -9.36,-5.75 -13.6,15.11l-2.21 -12.96c-0.72,7.77 -13.58,-18.95 -19.45,-2.83 -0.19,-1.47 -0.37,-3.95 0,-5.91 -6.61,16.35 -25.73,-33.38 -22.42,14.32l-4.05 12.38c1.84,0.6 4.79,3.76 1.47,4.51 -3.47,0.76 -3.47,-3.14 -5.29,-4.61 -0.93,-0.74 -2.21,-0.83 -3.33,-1.26 -1.1,-0.45 -2.03,-0.97 -2.77,-2.03 -0.54,-0.66 -2.56,-6.35 -2.03,-6.47 -8.06,2.09 -16.53,-0.39 -24.04,-2.54 -4.24,-1.18 -8.29,-2.38 -12.48,-3.02 -3.7,-0.58 -7.56,-1.61 -9.22,2.4 -0.72,1.84 -1.98,3.62 -3.86,4.38 -1.82,0.81 -4.38,0.17 -5.13,-1.67 -0.37,-0.64 -0.37,-1.43 -1.1,-1.63 -0.19,-0.1 -0.56,-0.06 -0.74,0.04 -1.47,0.21 -4.79,1.49 -6.08,0.76 -0.37,-0.25 0,-1.43 -0.7,-1.51 -0.56,-0.1 -0.74,1.03 -1.12,1.03l-6.43 -0.17 5.89 14.34c-1.12,8.02 -5.89,0.56 0.7,16.78 -9.92,-25.03 -24.43,-4.07 -28.81,-11.55 -0.93,11.74 -4.42,12.19 -9.38,12.26 2,2.73 7.17,19.1 2.93,18.21 -8.29,-34.52 -11.2,-12.59 -21.68,-35.96 7.73,15.27 -9.92,7.54 1.65,29.02 -4.05,-1.67 -4.22,-12.57 -9.18,-19.7 -3.49,15.46 -20.21,-3.06 -28.48,4.61 1.45,4.44 5.5,10.46 5.87,17.8l-13.23 -19.61c-1.12,2.96 7.92,25.77 -1.47,12.19 2.03,3.39 4.96,8.62 4.22,10.52 -13.39,-6.63 -21.49,1.78 -29.93,7.79 -8.64,5.58 -17.28,11.28 -37.47,-2.05 7.15,6.37 5.85,8.14 4.01,9.51 1.12,0.48 1.84,1.8 2.4,2.75 0.56,0.81 1.84,1.78 2.03,2.69 0.19,0.23 0,0.48 0,0.76 0,0.91 -0.37,1.84 -1.1,2.54 -2.21,2.44 -4.79,-0.29 -6.82,-1.63 -0.91,-0.52 -3.47,-1.57 -3.84,-2.48 4.03,8.23 0.37,6.92 -2.75,12.79 -3.33,6.32 -1.1,14.36 -4.61,20.83 -5.33,9.82 -13.76,8.02 -21.49,3.86 -12.09,14.9 -34.35,15.4 -43.88,33.17 -31.97,-17.53 -20.42,12.94 -44.13,51.05 9.57,-5.27 17.11,-14.63 27.94,-17.3 9.92,-2.46 21.31,-4.57 31.6,-4.48 10.11,0.06 22.78,-0.08 32.51,2.58 2.93,0.85 6.24,4.26 9.76,3.31 1.65,-0.45 6.78,-4.75 4.94,-6.78 18.93,20.69 52.72,7.13 69.47,-9.9 11.74,9.32 11.74,20.3 17.09,-1.24 41.5,15.96 75.87,11 103.42,-12.48 11.39,27.55 36.17,-5.39 36.35,24.06 0,-9.69 13.81,-15.94 20.77,-9.49 14.16,13.27 -18,23.38 -26.43,28.17 -16.53,9.3 -32.72,19.12 -48.69,29.45 -30.13,19.51 -55.12,46.15 -82.67,69.2 -9.57,-2.36 -19.3,-5.93 -29.6,-10.31 12.32,-18.87 9.76,-27.92 19.28,-43.05 -30.49,11.82 -51.61,50.6 -76.06,30.53 13.23,34 -2.77,57.81 19.68,93.58 -17.09,0.87 -36.58,-4.75 -53.86,-4.69 4.42,10.87 18.56,13.23 17.84,26.25 -0.74,17.05 -13.97,5.19 -21.66,2.13 8.43,19.24 0.19,26.83 -8.66,44 -15.44,-12.5 -40.59,-26.85 -32.35,-2.85 -15.21,-6.99 -14.32,-23.17 -27.55,-18 -11.74,-13.43 -2.73,-11.08 2.21,-23.73 -0.19,0.43 -26.08,4.82 -29.58,7.13 -7.52,5.02 -16.53,13.19 -21.66,20.61 -4.24,6.39 -12.48,11.06 -15.07,18.44 -2.4,6.76 0.37,14.61 -0.19,21.56 -0.93,11.93 -12.71,-4.79 -16.53,-5.42 -5.17,-0.79 -3.33,3.62 -8.1,4.92 -1.84,0.56 -12.13,-3.62 -12.48,-5.27 3.49,16.74 -19.3,15.58 -16.72,1.24 -7.15,37.72 -44.48,33.48 -82.11,13.58 4.75,2.5 -0.74,31.79 -3.51,36.02 -1.47,2.11 -3.49,3.68 -5.52,5.21 -4.94,3.99 -10.09,7.96 -15.07,11.88 -2.03,1.43 -3.82,2.96 -6.04,3.8 -4.61,1.67 -11.97,1.67 -15.98,-0.74 -5.17,9.05 -15.81,11.16 -25.36,10.25 -2.42,-0.23 -27.03,-6.9 -23.89,-11.9 -13.97,21.41 -23.17,-4.2 -37.47,12.57 -12.48,-12.38 7.9,-8.02 6.59,-20.65 -23.87,-11.12 -34.91,12.32 -57.13,5.64 -2.21,14.92 -2.03,19.59 3.84,39.74 -12.11,-0.7 -29.18,13.43 -22.78,34.66 -16.53,-3.33 2.21,-18.62 -14.88,-22.49 -8.25,-1.9 -13.04,9.36 -21.29,8.99 -1.86,-0.06 -3.51,-0.85 -5.35,-0.91 -2.56,0.02 -4.77,1.53 -7.36,1.63 -4.03,0.14 -8.25,-2.69 -7.15,-7.13 0.56,-2.29 1.84,-4.07 2.03,-6.66 0.19,-0.58 0,-7.98 -0.37,-7.77 -7.36,3.08 -15.07,-3.31 -18.93,4.34 -14.14,-4.4 -9.36,-15.25 -21.1,-20.25 -10.5,19.26 -36.58,46.32 -48.69,29.39 -6.63,-2.4 -3.14,8.93 1.47,13.56 -10.31,6.37 -20.03,15.62 -38.42,-1.22 -2.03,17.77 -13.04,10.02 -14.88,27.41 8.47,-17.96 36.95,19.35 41.89,-8.97 16.53,17.26 6.26,29.7 33.25,34.45 -8.29,33.54 -24.06,5.62 -29.58,5.29 -5.31,23.87 17.46,10.46 23.87,28.13 1.88,-14.82 7.73,-16.82 18.93,-5.7 -2.03,-1.88 3.49,-10.29 4.79,-11.88 2.38,-2.56 4.94,-4.84 8.06,-6.59 1.1,-0.66 2.4,-1.38 3.68,-1.47 2.21,-0.08 4.24,1.41 6.45,2.11 1.26,0.41 0.91,-0.66 1.65,-0.85 1.26,-0.19 2.58,0.14 3.68,0.25 -16.56,-25.81 13.97,-4.05 24.62,-8.47 2.93,3.24 6.78,19.45 2.93,23.29 11.57,1.72 34.89,14.59 44.44,2.05 24.26,30.84 35.09,1.14 56.05,30.77 4.61,-4.13 7.19,-9.57 8.8,-15.44 1.49,-5.13 2.03,-12.01 9.4,-8.68 3.82,1.69 5.66,4.17 4.38,7.9 -1.12,3.04 -2.77,4.61 -0.56,7.21 2.58,3.31 9.4,6.1 13.41,7.21 4.05,1.1 8.1,0.72 12.15,-0.31 3.86,-0.99 7.52,-2.48 11.39,-2.98 2.21,-0.29 4.01,-0.06 6.22,0.02 4.24,0.25 2.03,-0.66 5.52,-2.54 1.12,-0.58 2.4,-0.76 3.7,-0.85 25.52,-2.52 53.45,-3.41 79.16,-0.91 8.45,0.85 16.93,2.13 25.55,2.09 7.01,-0.06 17.46,-4.2 22.96,-1.22 2.58,-1.65 8.47,-3.18 8.64,-6.97 0,-0.06 27.92,-6.97 30.51,-7.65 11.76,-2.81 21.66,-1.86 33.44,0.1 0.72,-3.74 0.72,-5.17 3.84,-8.35 3.49,-3.68 8.1,-0.02 12.71,0.64 6.04,1.01 11.74,2.34 17.05,5.5l6.63 -20.65c5.13,-2.52 11.02,-2.13 17.05,-0.83 9.94,7.19 5.7,18.95 1.14,31.35 25.71,-0.56 -2.03,-43.38 28.29,-36.58 0,-2.15 0.19,-4.94 -0.74,-6.97 -0.54,-1.34 -3.12,-1.65 -1.47,-3.89 0.72,-1.24 2.4,-1.69 3.86,-1.96 1.65,-0.33 3.47,-0.56 5.13,-0.62 1.28,-0.06 2.58,-0.06 3.86,0.29 5.33,1.43 10.31,6.61 15.44,8.91 6.06,2.69 12.48,4.28 18.93,5.6 11.74,2.44 24.41,3.12 35.42,8.1 -14.69,16 -69.61,6.74 -56.57,36.87 -18.54,6.9 -42.25,-0.83 -58.99,10.58 1.12,4.36 2.03,11.08 -3.31,13.31 -1.47,0.66 -3.29,0.62 -4.94,0.54 -6.45,-0.43 -7.36,-1.9 -10.5,-7.4 0.41,0.56 -3.12,8.41 -3.47,9.57 -0.91,2.96 -1.82,6.18 -3.86,8.62 -1.65,2.21 -3.84,3.91 -6.06,5.68 -0.74,0.68 -1.49,1.38 -2.03,2.29 -0.35,0.76 -0.56,1.59 -0.74,2.46 -1.47,5.08 -5.31,8.29 -8.27,12.42 -2.93,4.15 -4.22,8.74 -4.77,13.87 -14.32,-4.32 -9.36,-15.03 -21.29,-20.21 -6.26,24.7 -7.73,3.72 -23.17,3.43 -0.37,0 -5.87,7.32 -6.97,8.21 -2.58,2.11 -5.89,4.24 -9.22,5.37 -7.32,2.5 -18.93,-1.8 -26.06,-4.48 -9.73,-3.72 -6.06,-15.65 2.93,-17.61 -2.21,-4.28 -4.42,-8.35 -9.76,-11.55 -6.78,22.47 -9.36,24.68 -26.46,13.23 -1.65,-1.03 -3.47,13.6 -3.31,15.13 0.56,4.44 4.24,9.38 0,13.21 -1.47,1.3 -3.29,1.92 -5.13,2.29 -1.84,0.39 -3.86,0.58 -5.7,0.12 -4.61,-1.05 -2.91,-3.66 -5.17,-6.06 -15.03,-16.62 -16.87,3.97 -30.84,-8.1 -4.22,7.71 0.74,12.09 6.06,16.39 -1.1,1.2 -2.4,2.07 -3.66,2.73 -1.47,-1.07 -2.56,-1.01 -2.93,1.36 -7.54,2.29 -15.44,-0.04 -22.98,-0.48 -3.49,-0.21 -7.52,-0.29 -10.83,1.14 -2.96,1.26 -4.79,3.68 -7.9,4.55 -2.21,0.56 -4.24,0.81 -6.26,1.59 -6.08,2.42 -6.08,7.65 -9.9,11.64 -3.86,4.17 -19.86,3.41 -22.98,-1.78 -0.19,-0.41 -0.56,-0.89 -0.93,-0.93 -0.35,0 -0.72,0.25 -0.91,0.5 -8.08,7.17 -18.02,1.01 -27.2,1.14 -0.54,0 -1.1,0.02 -1.65,0.31 -0.91,0.5 -1.1,1.43 -1.47,2.29 -2.4,5.75 -11.74,8.54 -17.61,9.86 -7.17,1.59 -11.41,-4.77 -17.49,-6.78 -0.56,-0.19 -1.12,-0.37 -1.82,-0.35 -7.17,0.52 -5.33,16.45 -9.94,20.19 -0.91,0.87 -11.2,1.51 -10.83,3.1 3.31,21.21 9.18,23.83 3.68,39.72 6.24,4.07 13.04,7.21 19.68,10.85 6.22,3.51 11.2,8.56 16.49,13.27 -0.54,-1.86 -1.28,-4.13 0.93,-5.54 1.28,-0.89 2.93,-1.05 4.61,-1.12 7.54,-0.37 15.25,-0.08 22.4,2.44 2.19,0.76 4.4,1.8 6.8,1.86 5.52,0.04 5.7,-3.76 2.77,-7.05 0.91,-0.93 1.84,-1.49 2.75,-1.94 11.39,3.62 27.01,-12.86 32.49,9.92 0.56,2.23 14.53,-5.04 15.62,-5.79 5.7,-3.7 9.94,-5.46 16.72,-2.85 3.68,1.38 7.19,3.58 10.5,5.42 1.47,0.79 3.12,1.53 4.57,1.53 1.49,-0.06 2.77,-0.62 4.05,-0.45 6.63,0.72 -5.5,6.59 -6.97,7.42 -2.03,1.32 -4.24,2.77 -6.08,4.55 -0.56,0.58 -4.59,6.16 -4.79,6.18 4.61,-0.04 9.22,-1.24 14.01,-0.99 5.1,0.23 9.18,3.89 14.1,0.06 0.74,-0.56 1.3,-1.18 2.03,-1.57 0.56,-0.31 1.3,-0.56 1.86,-0.68 3.12,-0.64 6.43,-0.02 9.71,-0.02 7.54,-0.06 10.31,-7.4 17.28,-9.47 6.26,-1.8 13.04,-0.99 19.49,-0.08 12.11,1.78 27.74,6.2 37.86,-3.31 0.33,0.08 0.72,0.27 1.1,0.39 1.12,-1.07 3.1,-1.45 4.2,-2.71 0.74,-0.97 -0.72,-2.58 1.12,-3.41 0.56,-0.27 1.28,-0.27 1.84,-0.21 2.03,0.06 3.86,0.27 5.89,0.64 2.36,0.48 1.65,2.07 2.91,2.96 1.28,0.91 1.1,0.81 3.31,0.64 4.05,-0.27 8.1,-1.2 12.13,-1.8 8.1,-1.3 15.98,-2.69 24.08,-4.15 7.9,-1.51 16,-3.04 23.87,-4.67 2.21,-0.43 22.98,-3.62 22.98,-4.77 -0.37,3.64 11.76,18.37 2.4,-0.43 23.31,-5.06 52.89,-11.28 76.57,-16.1 -2.17,8.06 4.24,-16.2 8.29,-4.17l6.08 1.45c0.89,0.23 2.36,-0.6 3.47,-0.6 1.47,0 2.93,0.45 4.42,0.62 2.93,0.39 6.04,0.62 8.8,2.03 1.28,0.74 2.58,1.74 3.68,2.77 2.58,2 4.96,3.99 7.34,5.99 0.39,0.29 0.56,0.6 0.76,0.99 0.19,0.43 0,0.87 -0.21,1.26 -1.45,2.79 -4.22,4.57 -6.99,5.97 -3.68,1.94 -7.69,3.53 -11.74,4.73 -1.47,0.45 -6.26,1.38 -5.52,-1.47 -2.91,2.91 -5.13,1.1 -8.45,0.79 -4.59,-0.52 -5.15,4.28 -5.89,7.96 -1.47,-5.37 0.37,-8.29 -0.72,-11.47 -0.37,1.28 -1.47,5.17 -2.77,1.96 -1.26,-3.2 0.37,-4.79 1.12,-7.4 -6.97,2.05 -5.13,19.18 -3.33,35.22 -4.75,-6.99 -7.15,-18.37 -8.25,-7.46 -1.12,-2.98 -2.21,-1.61 -2.21,-0.48 -4.61,-1.07 -13.79,-2.67 -12.48,7.98 -1.12,-3.1 -3.49,-0.35 -3.86,1.22 -5.68,0.1 -6.41,-0.99 -11.76,1.03l1.84 1.88c0,15.87 -4.05,4.07 -8.29,6.57l0 -1.59c-11.74,-9.82 -3.64,5.91 -15.4,-5.44 -1.28,-3.41 -2.58,-6.57 -3.86,-9.69 0.74,7.5 -0.74,13.99 -1.84,19.53 -2.96,-3.35 -5.89,-6.01 -7.73,-2.67l2.93 5.21c-2.19,7.5 -12.86,-26.95 -16.35,-29.14 -0.56,-0.79 -0.37,-1.47 0,-2.15 -1.47,4.55 -3.47,13.99 -3.68,14.16 -2.17,-6.63 -0.56,-10.77 -4.75,-11.51 -2.96,-5.21 -9.55,17.03 -17.09,4.75 2.03,5.06 3.86,10.13 1.65,14.49 -4.24,2.46 -14.69,-18.21 -16.53,-1.24 -0.74,-1.3 -1.12,-2.62 -1.28,-3.95 -2.77,4.69 -10.11,8.56 -10.83,17.75 -3.7,-15.36 -7.92,-12.15 -11.95,-7.56 -2.77,-3.39 -5.15,-6.88 -7.73,-10.33 -1.28,5.02 -5.13,9.32 -11.93,9.38 -2.58,0.02 -4.61,-0.7 -6.45,-1.74 -2.73,2.38 -3.84,7.36 -4.94,12.65 -1.65,-1.86 -1.12,-4.9 -1.12,-6.53 -10.69,-4.92 -11.39,-3.47 -17.46,12.92 -0.72,-3.49 -0.35,-9.67 -5.33,-9.26 -1.45,0.19 -2.93,0.64 -4.42,0.37 -1.26,-0.25 -2.54,-1.18 -3.82,-1.67 -2.21,-0.76 -4.61,-0.25 -7.01,0.17 -3.47,0.64 -7.69,1.2 -11.02,-0.23 -2.19,-0.95 -4.05,-2.75 -6.04,-3.89 -2.77,-1.47 -5.33,-3.39 -8.29,-4.32 -9.18,-3.04 -8.43,10.58 -8.25,16.12 0,2.71 -4.79,7.28 -5.89,9.82 1.28,0.62 3.68,0.76 3.86,2.58 0.19,1.38 -1.49,2.48 -2.77,2.31 -2.77,-0.41 -3.12,-2.69 -4.96,-3.99 -1.3,-0.97 -2.77,-1.01 -4.22,-1.32 -1.51,-0.35 -2.75,-0.41 -4.05,-1.36 -0.35,-0.48 -2.75,-5.08 -2.03,-5.21 -8.62,1.59 -17.63,0.52 -26.27,-0.83 -4.22,-0.64 -8.45,-1.41 -12.88,-1.96 -3.66,-0.45 -7.9,-1.14 -11.57,-0.12 -1.28,0.33 -2.54,1.16 -2.93,2.4 -0.37,0.79 -0.37,1.72 -0.56,2.52 -0.37,1.22 -1.47,2.25 -2.73,2.67 -0.56,0.21 -1.1,0.27 -1.84,0.33 -0.93,0.08 -2.03,0.19 -3.14,0.31 -0.91,0.08 -2.21,0.14 -3.12,-0.19 -1.12,-0.37 -2.03,-1.32 -2.03,-2.4 -1.47,0.81 -3.14,1.53 -4.75,2.09 -1.65,0.64 -2.4,0.27 -2.77,-1.2 -0.19,-0.79 -0.19,-1.82 -0.54,-2.6 0,-0.14 -0.56,-0.87 -0.56,-0.95 -0.19,-1.01 -0.74,-1.47 -2.03,-0.12l-7.73 -0.31c1.65,3.74 2.93,7.65 -0.89,10.58 -1.49,1.12 -3.33,1.57 -4.79,2.5 -1.1,0.54 -2.4,1.53 -3.49,1.53 -0.93,-0.04 -1.84,-0.48 -2.77,-0.48 -2.56,0 -5.13,0.5 -7.69,0.99 -0.56,0.08 -11.2,2 -10.29,-0.31 -1.1,3.1 -2.93,6.41 -5.89,8.08 -2.56,1.32 -5.33,1.16 -7.92,1.22 0.56,0.95 2.77,3.8 0.95,4.17 -1.47,0.39 -3.68,-2.07 -4.24,-3.22 -0.35,-0.95 -0.91,-1.88 -1.65,-2.65 -1.1,-1.22 -2.58,-1.86 -3.86,-2.54 -5.15,-2.34 -6.97,-5.97 -8.99,-10.91 5.31,12.38 -13.41,5.06 -5.52,22.51 -4.24,-1.61 -1.47,-10.02 -5.52,-15.96 -8.27,11.72 -22.22,-3.93 -33.61,1.2 0.19,3.55 2.96,8.68 1.07,14.3l-8.62 -16.8c-2.21,2.03 0.56,20.67 -5.5,8.95 1.07,2.96 2.54,7.23 1.07,8.62 -25.71,-14.07 -45.74,20.5 -74.03,-8.66 4.05,6.43 2.03,7.38 -0.37,7.96 1.84,1.45 1.28,8.74 2.21,13.48l-11.76 -11.95c0,13.5 -10.64,2.31 -9.9,15.17l2.91 -2.71c-2,15.5 10.5,32.49 12.69,51.81 2.21,-17.67 15.81,23.54 20.01,-1.86 2.4,3.68 -0.54,6.41 1.12,10.71 0.72,-8.47 2.77,-10.52 7.73,-7.36 0,0 -0.19,2.03 -0.19,2.05 0,-1.01 6.97,-0.97 7.9,-0.89 2.56,0.23 4.96,0.93 7.36,1.84 5.48,2.03 11.57,5.81 17.46,6.3 -0.79,-2.4 -0.37,-5.48 1.8,-7.07 1.51,-1.1 3.31,-1.45 5.15,-1.59 3.89,-0.37 7.9,0.02 11.57,1.28 1.84,0.58 2.21,0.93 2.58,2.46 0.19,0.45 1.47,4.69 1.47,4.75 1.84,0.17 1.3,-1.63 1.65,-2.36 0.56,-1.2 2.96,-1.76 4.24,-1.82 1.63,-0.08 3.33,0.68 3.84,2.15 0.37,0.74 0.37,1.82 1.28,2 0.39,0.12 0.74,-0.04 1.12,-0.17 4.24,-1.96 8.64,-3.51 13.02,-5.21 1.67,-0.64 2.96,-1.51 4.79,-1.82 1.65,-0.31 3.33,-0.52 5.15,-0.79 7.15,-1.3 13.79,-3.99 18.17,-9.98l-1.43 -4.38c8.06,-9.51 7.87,3.95 17.42,-1.22l-0.17 1.12c1.45,-4.71 3.84,-7.32 6.61,-7.23 -1.86,5.62 6.04,9.57 3.68,15.89 1.47,-3.66 4.94,-5.58 5.66,-9.78 0.37,-1.74 0,-4.22 0.56,-5.75 1.12,-2.21 4.42,-3.43 6.82,-3.37 4.38,0.14 6.04,3.99 4.77,7.67 12.67,14.88 13.41,-18.54 21.31,4.59 -2.4,-9.76 10.48,-15.46 13.76,-5.33 0,0 -0.19,2.4 -0.72,1.72 3.12,3.97 7.73,-7.17 10.29,-0.02 3.84,-25.83 25.55,-15.62 2,1.74 3.12,6.43 20.21,-1.47 20.21,-1.47 0.93,-1.59 2.4,6.45 2.4,6.45 2.77,-10.35 24.43,16.41 11.57,-8.6 15.42,2.96 40.24,-4.48 51.09,9.05 -3.51,6.39 9.53,18.5 13.95,3.49l11.57 3.14c-0.37,-2.96 -0.74,-6.26 -1.3,-9.69l6.26 -1.69c1.12,3.37 3.66,1.45 2.96,4.44 0.89,0.62 1.65,0.52 2.36,0.19 3.86,8.68 1.47,16.45 -0.91,25.01 -2.77,-0.93 -5.31,-1.65 -7.9,-1.65 1.47,4.61 2.58,9.2 4.05,13.74 -5.7,-4.26 -13.04,-3.16 -19.49,-1.98 -3.49,0.58 -6.8,1.24 -10.27,1.24 -1.28,-0.02 -2.77,-0.39 -3.86,0.31 -1.12,0.81 -1.49,2 -3.14,2.52 -4.03,1.32 -6.59,-0.04 -10.09,-1.76 -2.4,-1.16 -4.05,0.79 -6.45,-0.45 -0.54,-0.27 -2.21,-3.16 -1.65,-3.62 -4.57,3.68 -10.46,0.76 -15.07,-0.81 -1.1,-0.33 -2.21,-0.6 -3.1,0.1 -0.37,0.33 -0.74,0.91 -0.91,1.41 -1.12,2.6 -2.4,5.13 -3.86,7.52 -0.37,0.39 -0.56,0.83 -0.93,1.03 -0.37,0.19 -0.74,0.29 -1.1,0.31 -5.5,0.74 -40.96,-6.99 -32.72,9.18l-6.78 -12.13c0.89,12.77 -5.17,1.45 -4.05,13.66l1.28 -2.38c-0.17,3.78 0.37,7.77 1.12,11.9 -7.54,0.08 -15.07,-0.85 -22.45,-4.65 -1.28,11.82 -5.85,25.07 1.86,36.27l6.8 -6.97c6.24,8.99 6.59,17.05 5.87,24.12 -0.37,0.06 -0.93,0.06 -1.28,0.33 0.17,1.07 0.54,2.54 0.72,3.91 -0.19,1.67 -0.37,3.24 -0.56,4.82l-4.2 -11.53c-0.74,1.74 2.03,19.47 -2.03,8.06 0.93,2.83 2.03,7.01 1.28,8.16 -13.95,-15.09 -21.87,16.04 -38.05,-13.48 2.4,6.32 1.49,7.09 0.37,7.5 0.93,1.47 0.93,8.33 1.84,12.81l-6.59 -12.11c0.7,12.75 -5.33,1.43 -4.24,13.64l1.3 -2.38c0,2.42 0.35,4.96 0.72,7.5 -2.58,1.55 -3.68,6.88 -1.65,19.18l7.34 8.37c1.1,4.84 2.21,9.65 2.75,14.67 0.21,-10.25 3.89,1.26 6.82,5.77 -4.24,22.09 -6.99,54.09 -22.24,48.18 3.12,5.64 5.33,11.1 12.67,10.73 4.96,-0.21 6.63,-2.17 10.31,-4.44 2.54,-1.59 5.66,-1.96 8.43,-3 3.49,-1.3 6.45,-6.3 9.71,-6.43 4.61,-0.23 12.71,5.87 17.09,8.16 7.19,3.7 17.65,12.63 20.23,20.23 -4.05,-11.51 -11.57,-20.69 1.47,-18.62 -0.56,-3.58 -0.74,-8.27 -0.74,-11.06l1.12 0.64 -1.12 -1.2c0,-1.9 0,-2.25 -0.35,-0.39 -4.24,-4.24 -8.47,-9.61 -11.39,-15.77 -0.39,-4.92 -0.19,-8.91 0.37,-12.59 1.65,-0.72 2.91,-4.13 3.64,-2.75l-2.54 -2.77c0.19,-0.37 0.33,-0.64 0.56,-1.01 5.5,-4.75 20.73,-4.9 27.36,-3.24 2.54,0.64 4.98,1.74 7.34,2.87 5.89,2.79 11.59,4.4 13.97,10.83 2.38,6.43 1.82,12.79 -1.49,18.79l14.69 -3.31c13.08,11.84 26.48,13.99 30.13,0.91 8.66,3.45 8.29,-33.83 8.66,-11.84 0,-1.88 6.41,-9.51 7.69,-11.08 4.42,-5.13 11.57,-7.94 18.21,-8.35 5.15,-0.25 10.46,0.99 15.79,0.35 3.33,-0.45 6.59,-1.69 9.92,-2.91 12.3,-4.53 25.19,-8.33 38.24,-9.82 6.78,-0.74 13.76,-0.89 20.54,-0.06 5.7,0.7 11.06,3.22 16.72,2.05 8.29,-1.82 12.88,-0.31 21.52,0.83 8.43,1.14 11.76,-2.42 10.83,-11.02 7.54,15 14.51,21.78 21.33,24.12 -2.03,8.87 -2.96,21.54 -10.27,15.89 10.83,18.6 7.5,19.28 -0.95,37.91 -15.23,-9.11 -6.24,-16.95 -19.66,1.96 0.74,5.08 -6.24,4.96 -9.57,6.8 -4.2,2.31 -7.15,6.35 -12.11,7.38 -2.96,0.64 -6.24,-0.21 -9.36,-0.1 -7.17,0.12 -13.04,4.57 -19.12,8.08 -5.31,3.14 -11.74,4.26 -16.53,7.94 -2.4,1.82 -4.94,3.16 -7.9,3.84 -2.38,0.52 -5.15,0.7 -6.99,2.44 -1.84,1.41 -2.91,3.66 -4.98,4.34 -1.07,0.33 -1.98,0.23 -3.1,0.23 -5.7,-0.02 -12.11,2.34 -17.26,4.55 -2.03,0.87 -1.84,2.34 -1.84,4.34 0.19,2.23 0.35,4.51 0.35,6.74 0.19,1.78 0.19,3.6 0.37,5.33 0,1.12 0.74,5.95 0.19,6.68 -5.15,5.17 -11.39,-9.88 -14.14,-11.97 -2.96,-2.19 -2.4,-2.85 -4.61,0.1 -4.2,5.62 1.84,12.44 -7.52,16.1 -3.31,1.3 -6.8,1.53 -10.13,2.89 -2.36,0.97 -4.57,2.5 -6.97,3.14 -4.77,1.32 -9.76,-0.76 -14.51,-0.87 -8.66,-0.12 -15.6,5.13 -23.17,8.14 -3.45,1.34 -7.34,2.05 -10.83,3.72 -3.12,1.53 -5.66,4.34 -9.18,5.42 -3.31,1.05 -6.8,0.19 -10.11,0.5 -6.43,0.62 -12.88,5.87 -17.44,9.92 -2.03,1.74 -3.86,3.62 -6.26,4.51 -4.4,1.67 -9.2,0.08 -13.76,-0.5 -0.93,-0.14 -2.03,-0.21 -3.14,0 -1.47,0.27 -2.75,1.16 -4.03,1.88 -5.87,3.49 -21.49,8.8 -27.76,3.18 0.37,0.27 -6.41,-10.69 -6.04,-9.14 3.47,17.67 -6.82,-0.04 1.82,15.17 -2.91,-5.27 -5.87,4.98 -6.06,6.24 -0.19,2.93 -0.56,7.05 0.37,9.9 0.72,2.31 2.93,3.84 1.65,6.51 -0.93,1.45 -2.21,2.34 -3.68,3.04 -16.37,7.34 -22.42,-9.45 -27.74,-20.5 -0.93,1.76 -3.49,14.82 -3.49,14.8 24.08,6.2 6.24,61.24 -6.26,67.32 -24.06,-45.7 22.61,-40.1 -24.99,-50.99 -0.91,-0.23 0.74,11.59 0.93,12.32 0.54,2.52 0.91,5.42 2.03,7.77 0.72,1.96 1.65,3.16 0.91,5.5 -0.54,1.45 -1.28,2.69 -2.19,3.89 -1.12,1.24 -2.4,2.4 -3.89,3.16 -0.91,0.52 -2.56,1.14 -3.64,0.87 -0.95,-0.19 -0.95,-0.64 -1.65,-1.14 -0.37,-0.31 -0.93,-0.93 -1.49,-0.64 -1.65,0.7 -0.37,7.05 -0.19,8.12 6.97,28.69 4.05,60.21 7.52,23.79 23.54,53.51 5.52,-24.28 18.19,-13.58 22.07,67.69 13.79,-11.43 65.6,17.44 3.84,2.17 3.29,11.33 9.36,12.26 4.05,0.62 6.08,-2.56 7.9,-5.54 2.77,-4.75 2.42,-10.04 4.24,-14.82 2.21,-6.08 9.71,-9.16 15.98,-9.18 2.58,0 4.98,0.43 7.54,-0.04 2.77,-0.54 5.35,-2.36 7.71,-4.07 7.17,-5.37 14.69,-10.64 21.89,-16.08 5.89,-4.36 11.55,-11.9 19.08,-12.15 7.36,-0.27 14.51,0.06 21.87,1.05 2.96,0.39 6.08,0.91 9.22,0.76 5.13,-0.23 9.9,-2.31 14.84,-3.39 2.03,-0.41 5.7,-1.59 7.92,-0.7 1.65,0.66 1.49,2.73 2.96,3.45 6.59,3.24 7.15,-3.39 7.87,-9.86 -0.35,4.05 2.96,14.43 5.54,17.8 2.21,-8.72 -4.24,-18.11 3.49,-24.95 2.73,-2.42 6.04,-4.01 8.99,-6.16 4.42,-3.14 7.87,-7.32 12.48,-10.07 21.52,-12.83 45.57,7.4 67.6,-3.29 5.33,-2.54 10.13,-6.47 15.6,-8.35 4.05,-1.28 8.29,-1.51 12.34,-2.4 5.68,-1.2 8.62,-4.71 13.23,-7.42 2.93,-1.65 6.41,-2.29 9.18,-4.17 4.42,-2.98 9.94,-13.62 6.61,-18.81 22.59,36.17 67.98,15.13 34.16,-41.15 23.17,12.19 28.32,82.44 49.25,44.77 12.11,25.52 -18.02,56.13 -44.48,32.86 -21.47,5.04 -23.31,65.46 -53.82,45.45l-6.8 20.21c-13.6,-4.38 -5.31,-16.39 -8.62,-24.26 -14.88,-2.54 -16,33.75 -34.74,20.69 -12.11,-13.21 8.29,-14.55 8.47,-25.55 -31.25,22.65 -58.24,49.95 -92.43,26.06 -9.94,4.94 -21.49,4.77 -25.36,26.68 9.76,4.53 13.81,10.54 10.29,19.47 -19.84,-15.94 -44.27,21.68 -74.76,5.97 3.45,-12.92 7.32,-25.21 17.42,-19.01 -11.2,-12.19 -44.64,-1.57 -62.07,2.05 -7.38,24.82 11,-3.35 22.76,15 -5.5,17.11 -20.56,7.67 -25.34,26.89 4.77,5.95 6.97,12.42 3.82,21.08 12.34,8.89 11.97,-2.21 18.21,12.24 -3.84,2.5 -7.52,5.08 -9.73,11.99 -26.64,-25.61 -28.48,-15.58 -53.63,-23.09 3.29,-23.27 25.15,4.92 28.67,-18.33 -12.86,-13.04 -16.56,-0.14 -29.04,-13.17 12.13,14.16 -12.15,36.71 -24.82,39.83 -5.13,-4.51 -0.74,-11.86 0.74,-18.5 -15.44,-16.72 -17.09,3.95 -30.88,-8.06 -2.4,9.84 14.34,13.56 14.69,22.49 -16.72,21.35 -46.07,7.81 -64.46,25.44 7.52,21.47 14.88,-8.41 28.11,-0.06 3.33,3.39 2.77,8.08 7.52,11.16 -19.12,-2.71 -17.46,14.72 -31.97,28.85 8.85,22.49 21.33,10.4 20.4,-11.37 18.56,6.08 -4.96,29.2 15.07,22.4 -2.93,8.16 0.93,14.61 -1.65,21.66 3.12,0.7 6.26,0.76 10.13,2.67 8.62,-13.23 1.45,-21.66 5.68,-33.77 18.93,-5.37 40.41,-4.34 53.65,-26.27 37.47,33.52 47.74,-10.35 74.57,-6.57 10.66,33.36 -30.69,23.48 -22.96,53.12 30.13,-24.55 61.36,-2.58 88.19,-47.04 -0.74,1.41 16.35,14.12 18.75,15.07 6.45,2.46 12.67,-3.2 19.12,-4.36 7.87,-1.47 15.25,-0.97 22.76,-3.76 5.89,-2.21 10.87,-4.71 15.81,-8.68 9.57,-7.63 18.56,-18.91 31.42,-20.09 -22.24,27.01 -34.18,50.55 -40.22,54.13 20.19,26.64 41.69,-27.26 58.78,-41.96 9.18,20.48 28.48,7.36 38.75,0.52 0.74,-6.32 -7.87,-9.49 -6.04,-16.39 2.54,-3.39 6.41,-2 8.25,-6.97 3.33,6.35 0.56,14.63 10.29,19.12 26.29,-8.29 46.67,-33.5 71.26,-46.3 2.58,2.81 3.33,12.36 8.85,7.61 3.86,-3.41 4.61,-8.02 8.06,-11.57 1.84,-1.96 4.24,-3.49 6.82,-4.57 1.1,-0.45 7.36,-1.32 7.73,-1.84 -11.41,17.49 22.78,8.12 17.61,30.03 11.06,4.69 9.2,-26.99 19.3,-24.51 14.69,12.69 -3.68,30.65 -11.95,35.82 -3.68,13.52 15.62,19.08 11.57,32.63 15.44,6.41 20.21,-16.16 36.02,-7.73 5.85,18.37 -8.1,16.93 -7.17,38.71 8.1,8.1 13.23,6.55 21.31,0.35 2.77,-2.17 5.31,-4.2 8.99,-3.91 2.58,0.19 4.61,2.67 6.63,2.89 2.54,0.21 5.13,-2.34 8.43,-2.21 8.47,0.27 15.62,2.11 16.35,11.1 0.93,9.8 0.93,19.68 1.12,29.49 0,13.79 -0.37,27.53 -1.47,41.21 -0.37,6.14 0,12.42 -1.47,18.48 -0.74,2.75 -1.86,6.41 -4.24,8.33 -2.58,2.15 -4.94,2.4 -6.43,5.81 -1.47,2.96 -3.49,6.28 -7.17,6.41 -1.07,0.06 -2.4,-0.19 -3.47,-0.21 -1.47,0 -2.75,0.31 -4.05,0.58 -3.68,0.83 -6.61,2.23 -7.92,5.91 -1.1,3.16 -2.36,5.85 -5.48,7.44 -5.17,2.46 -9.59,-0.93 -13.6,-3.66 -3.86,-2.54 -8.1,-5.33 -12.71,-5.06 -2.91,0.19 -5.5,1.59 -8.25,2.96 -2.03,1.14 -4.61,2.6 -7.15,2.73 -2.21,0.08 -4.79,-0.68 -6.82,-1.24 -1.28,-0.27 -2.56,-0.6 -3.49,-1.24 -0.93,-0.5 -1.65,-1.24 -2.54,-1.84 -4.42,-3.35 -10.13,-3.66 -15.09,-1.36 -3.66,1.69 -6.8,4.42 -9.92,6.82 -7.9,5.79 -16.91,10.02 -26.27,12.46 -6.26,1.53 -13.23,2.17 -18.37,-1.43 -4.98,-3.39 -7.17,-9.32 -13.04,-11.74 -0.37,-0.17 -0.93,-0.37 -1.12,-0.74 -0.72,-0.89 0.37,-3.95 0.56,-5.06 0.37,-2.87 0.93,-5.83 1.3,-8.76 0.17,-2.4 0.17,-5.48 -2.03,-6.51 -2.21,-1.07 -4.79,0.72 -5.54,2.98 -0.72,2.23 -0.19,4.69 0,6.99 0.37,2.34 0.56,4.92 -0.72,6.9 -2,2.83 -6.61,2.85 -9.18,0.62 -2.4,-2.03 -2.03,-4.11 -3.14,-6.72 -0.72,-2.46 -2.75,-3.8 -5.52,-4.61 -2.17,-0.68 -4.38,-0.76 -6.78,-0.72 -5.85,0.04 -0.74,10.77 -2.58,14.78 -2.56,5.68 -11.02,6.08 -16.53,7.48 -11.93,4.73 -17.42,19.06 -19.26,31.19 0.89,-5.77 -0.93,-12.13 -5.35,-15.89 -4.4,-3.76 -11.74,-4.15 -15.98,-0.17 -2.77,2.67 -3.86,6.66 -5.89,10.04 -4.01,6.84 -12.3,10.95 -20.19,10.09 -3.12,-0.33 -6.26,-1.53 -8.1,-4.01 -3.1,-4.09 -0.72,-8.16 2.96,-10.56 0.72,-0.56 8.25,-5.23 8.64,-2.89 -1.28,-13.04 -17.63,-4.82 -24.08,-17.57 2.4,4.71 -4.24,19.66 -5.68,24.28 -2.75,8.45 -5.52,21.78 -15.25,24.8 -2.38,0.76 -5.15,0.68 -7.36,2.05 -2.21,1.43 -3.12,4.05 -3.12,6.63 0,2.58 0.91,5.06 2.03,7.34 4.24,8.41 8.99,12.36 17.63,14.45 8.08,1.9 16,9.05 23.89,3.02 0.17,-0.1 8.27,-6.32 8.27,-6.32 1.12,12.28 18.02,-17.71 22.78,7.85 7.92,-9.36 10.85,0.56 9.01,8.06 3.66,-3.24 8.43,11.18 11.02,0.72 0.56,27.82 15.07,7.44 20.19,12.88 2.77,-15.13 13.99,-30.46 30.69,-30.61 2.75,0 5.33,0.52 8.1,0.91 6.8,1.01 13.95,1.2 20.77,-0.37 3.31,-0.76 6.78,-1.98 10.27,-2.5 3.49,-0.6 7.15,-0.48 10.64,-0.35 3.49,0.12 7.01,0.27 10.64,0.39 1.49,0.06 2.21,0.79 2.21,2.21 7.01,0.81 7.01,2.91 1.84,7.46 -6.59,5.81 -14.32,10.4 -20.92,16.22 -3.68,3.14 -9.57,8.08 -9.38,13.41 0.17,2.48 1.65,4.15 3.49,5.52 1.28,0.95 10.83,5.35 11.74,4.09 18.56,-23.73 16.18,-12.55 51.46,-3.66 -4.05,-8.45 -6.45,-24.95 3.29,-30.01 8.85,-4.59 20.96,-2.79 28.5,3.74 4.05,3.64 7.15,8.64 12.11,10.81 7.52,3.22 15.25,0.68 22.4,5.37 4.79,3.1 6.63,6.92 8.85,12.21 1.84,4.69 14.88,47.95 12.11,49.42 -25.71,13.6 -103.42,25.32 -70.17,-42.43 -24.26,10.25 -38.24,47.12 -60.45,26.29 6.24,15.11 7.71,30.75 9.73,46.77 2.03,15.07 7.54,28.25 11.57,42.64 2.38,8.64 -1.12,17.84 -0.19,26.72 0.37,2.77 1.1,5.5 0.54,8.27 -1.1,4.51 -5.48,7.4 -9.9,8.89 -10.83,3.72 -13.41,-3.08 -18.93,-10.58 -2.4,-3.31 -9.55,-13.74 -14.69,-9.3 -2.4,2.09 2.03,9.94 0,13.08 -3.14,4.48 -21.31,6.14 -27.01,7.61 -6.99,1.86 -14.32,2.91 -21.12,0.7 -5.17,-1.69 -11.02,-6.45 -10.85,-12.4 0,-1.45 5.54,-12.63 5.35,-12.63 -12.15,0.52 -24.45,0.48 -30.88,15.77 -13.95,-10.44 -1.65,-29.95 -15.79,-40.34 -1.86,8.06 7.5,41.44 -9.36,26.62 2.17,9.76 -0.41,21.35 13.74,27.08 -5.87,-2.34 -9.36,21.91 -9.55,24.04 -0.91,8.78 4.24,23.09 -3.86,29.56 -2.54,2.13 -6.22,2.79 -8.43,5.5 -1.84,2.34 -1.84,5.56 -2.21,8.49 -2.58,20.01 -23.5,16.95 -38.01,18.79 -8.85,1.14 -16.91,5.29 -25.52,7.63 -29.8,8.1 -61.59,-6.32 -92.28,-2.17 -7.32,0.97 -14.47,3 -21.85,2.27 -16.91,-1.69 -14.14,-20.71 -31.97,-18.75 -11.74,1.34 -19.26,11.39 -32.16,6.43 0,14.47 0.37,18.91 7.19,39.12 -12.48,-1.41 -12.48,14.92 -24.45,14.16 -3.1,-0.19 -6.24,-1.05 -9.36,-1.26 -6.78,-0.5 -13.6,1.8 -20.21,0.91 -1.82,-0.25 -3.68,-0.72 -5.13,-1.9 -4.24,-3.12 -2.77,-10 -4.98,-14.32 -2.93,0.64 -6.45,-0.97 -8.99,-0.27 0.19,0 -7.92,2.5 -5.7,3.41 -12.48,-4.79 -9.36,-15.11 -19.86,-20.17 -6.59,18.48 -25.71,43.61 -37.08,27.18 -6.08,-2.85 -2.03,8.27 2.21,12.9 -7.92,6.1 -15.07,14.43 -32.16,-2.48 0.19,17.42 -9.57,9.2 -9.4,26.62 5.35,-17.2 32.53,19.66 33.81,-7.69 15.25,17.15 7.92,28.87 30.69,34.66 -3.31,32.22 -19.08,4.55 -23.87,3.93 -1.65,23.27 15.81,11.06 22.59,28.48 -2.21,-5.75 1.47,-12.21 6.8,-11.9 4.42,0.27 5.87,3.41 11.02,2.77 5.89,-0.79 8.8,-3.08 15.62,-1.38 5.89,1.49 11.76,2.93 17.28,5.21 3.31,1.38 6.43,3.02 9.71,3.86 7.38,1.88 16.18,2.4 23.73,3.33 5.85,0.76 9.73,0.41 13.95,-4.65 8.27,9.09 13.79,14.43 25.9,16.25 3.89,0.62 7.15,0.7 10.83,2.54 2.03,0.97 14.53,11.57 13.04,13.31 9.94,-11.8 1.3,-28.5 15.07,-33.07 5.35,5.64 1.12,14.96 0.74,22.82 -0.19,2.96 10.66,8.89 13.41,9.67 3.68,1.07 6.43,0.62 10.29,-0.08 14.72,-2.87 27.39,-8.89 42.8,-8.83 15.44,0.06 30.88,3.08 46.32,0.93 5.13,-0.7 10.09,-1.92 15.07,-1.34 37.29,4.17 72.19,-4.77 108.55,-6.12 0.56,-6.1 1.65,-14.65 8.1,-17.51 6.63,-2.93 14.32,2.79 16.35,9.69 1.84,6.9 -0.19,14.26 -2.21,21.1 0.37,-1.65 6.82,-4.86 8.08,-7.85 2.03,-4.94 -0.33,-8.18 -0.33,-12.94 0,-6.57 -0.23,-11.97 6.22,-14.61 7.36,-2.96 20.03,-0.29 27.36,1.88 8.47,2.5 33.63,6.8 19.68,19.22 -4.42,3.99 -10.11,5.13 -14.16,10 -9.2,11.24 -1.1,14.76 -17.26,19.53 -12.88,3.76 -27.2,8.76 -39.68,14.74 -6.99,3.41 -13.23,8.35 -19.49,12.94 -13.04,9.51 -27.74,20.96 -44.08,21.04 -2.21,0 -4.42,0 -6.63,0.45 -4.57,0.89 -8.62,3.47 -12.67,5.77 -4.01,2.27 -8.62,4.36 -13.23,4.05 -6.04,-0.39 -9.18,-4.75 -9.71,-10.29 -0.19,-1.88 4.96,-16.37 5.7,-15.44 -2.96,-3.27 -6.08,-6.57 -9.22,-9.76 2.58,5.17 0.56,12.17 -4.4,15.21 -4.94,3.04 -12.13,1.65 -15.58,-3.02 2.36,3.08 0.89,11 1.1,14.55 0.33,7.4 1.45,9.05 -5.33,12.83 -13.27,7.21 -7.38,-10.81 -19.3,-11.97 -0.56,-0.06 -18.93,4.75 -16.18,-1.9 -3.12,7.34 1.67,11.74 6.45,16.14 -11.04,15.07 -40.98,-17.2 -41.54,24.12 -32.49,-3.95 -46.11,20.77 -79.16,0.79 0,23.29 -14.36,11.14 -21.7,17.15 4.98,20.4 10.31,23.38 7.19,38.9 18.52,13.33 16.68,8.08 32.49,24.8 -2.21,-21.72 -4.94,-14.76 -2.54,-35.76 3.86,-4.28 16.49,-8.37 22.01,-6.47 2.58,0.93 4.98,2.6 7.19,4.34 6.97,5.39 0.93,18.95 2.91,27.08 10.31,8.35 23.35,-12.61 30.53,11.86 18.73,0.33 24.06,-34.6 52.54,-9.94 -4.98,16.25 -17.65,12.48 -23.52,26.81 7.9,1.32 13.21,-5.5 26.46,8.91 -3.86,-17.75 -1.65,-18.54 9.73,-3.39 7.69,-35.78 43.9,0.64 58.78,-16.78 13.23,4.67 5.35,16.51 4.42,25.96 12.48,12.01 13.41,-4.96 23.15,0.68 -9.92,-12.67 7.36,-41.13 21.12,-28.32 83.81,-9.86 125.48,-38.09 213.5,-37.82 -2.58,-70.29 66.12,44.7 19.82,-57.44 1.12,2.5 28.48,4.92 32.72,5.87 9.01,2.11 17.82,4.73 26.62,7.67 12.32,4.09 52.37,11.24 52.02,28.32 -0.19,3.93 -2.77,7.4 -6.06,9.61 -3.12,2.23 -6.99,3.41 -10.66,4.75 -4.61,1.65 -8.8,3.62 -13.23,5.83 -5.35,2.83 -10.83,6.2 -16.72,7.77 -12.86,3.39 -18.75,-3.53 -23.5,-14.24 3.31,40.45 0.72,6.1 -31.44,12.81 -7.36,-0.48 -6.8,11.06 -7.73,9.28 2.96,12.73 -16.16,13.99 -24.06,17.09 -12.3,4.94 -25.15,12.73 -31.79,24.64 -6.99,12.24 7.19,35.03 16.35,44.52 8.27,8.25 18.58,12.92 29.95,14.69 3.14,0.52 23.87,-0.87 25.36,1.3 -25.17,-36.19 57.68,34.23 54.36,16.66 -1.61,-8.95 19.3,-4.59 22.61,-4.22 13.04,1.51 20.05,-0.54 31.6,-4.9 13.23,-4.94 31.62,-2.62 45.39,-1.49 15.81,1.26 31.42,3.84 47.23,6.43 6.97,1.18 13.95,2.31 20.94,3.49 2,0.31 4.03,0.64 5.7,1.76 2.03,1.41 3.12,3.74 4.05,6.01 1.84,4.26 3.49,8.97 2.4,13.52 -1.12,4.51 -6.1,8.35 -10.5,6.51 -0.74,-1.94 -1.45,-3.84 -2.4,-5.77 -11.02,0.66 -21.85,3.7 -32.49,4.11 -9.22,0.33 -18.21,-1.41 -27.22,-2.77 -16.72,-2.46 -18.17,2.46 -9.18,16.97 -9.36,-15.21 -37.12,-1.59 -47.6,3.97 -16.72,8.99 -32.88,20.15 -51.24,24.82 -4.05,1.03 -7.36,3.55 -10.69,5.97 -2.03,1.47 -4.22,3.02 -6.78,2.85 -8.64,-0.45 -2.19,-11.53 0.74,-14.18 -12.86,4.28 -10.13,16.33 -20.21,34.74 -2.96,-5.17 -5.68,-9.94 -11.2,-14.24 -3.12,16.76 8.99,8 13.41,27.12 -4.24,10.23 -17.84,-1.61 -17.46,20.23 45.74,5.58 84.68,-6.43 123.66,-17.15 14.14,3.93 0.19,18.17 14.32,22.3 9.36,-3.74 2.96,-12.3 4.61,-24.76 16.35,12.59 6.59,34.12 4.2,53.74 -23.31,-1.94 -47.74,-2.19 -70.91,3 -9.34,2.13 -19.12,5.17 -26.81,11.14 -8.27,6.35 -10.69,13.74 -21.52,17.09 -14.32,4.32 -29.58,8.68 -43.9,4.48 -2.03,-0.58 -4.22,-1.43 -6.24,-1.12 -1.47,0.19 -2.93,0.83 -4.24,1.57 -9.34,4.82 -19.28,9.14 -27.55,15.44 -4.42,3.35 -9.36,6.35 -14.69,8.12 -15.62,5.17 -31.04,-2.27 -43.18,-12.21 11.2,18.87 -37.68,27.34 -18,-2.87 -48.51,10.91 -24.06,29 -35.65,67.96 0.56,-1.8 32.7,-5 36.93,-4.88 4.03,0.06 7.9,0.89 11.2,3.43 4.22,3.35 5.15,9.94 9.18,12.77 2.77,-3.8 5.7,-5.77 10.69,-5.87 5.66,-0.08 11.74,1.2 16.91,-1.07 10.27,-4.44 9.71,-15.46 22.76,-14.41 12.13,0.97 23.87,5.29 22.78,20.28 0,2.17 -0.7,4.42 -2.19,6.01 -0.91,0.97 -2.19,1.65 -3.49,2.27 -10.5,5.54 -18.37,4.44 -30.13,3.35 -39.7,-3.82 -30.86,18.02 -20.96,59.36 -6.41,-26.33 -59.71,-49.36 -80.67,-28.5 -2.17,2.15 -3.82,4.73 -6.22,6.7 -2.4,2.09 -5.31,3.39 -8.29,4.65 -9.36,4.24 -19.08,9.73 -29.02,12.98 -4.75,1.55 -9.92,1.69 -14.69,3.6 -12.5,4.98 -15.62,16.14 -13.41,28.56 -11.2,-36.4 -34.33,-40.22 -24.8,-6.22 -5.66,-19.61 -21.29,-16.37 -44.08,-14.12 11.57,29.33 -0.74,10.56 -8.29,-2.21 14.74,35.98 -65.56,26.7 -77.88,32.22 -16.91,29.84 -23.71,5.02 12.67,84.43 -2.21,-22.82 22.22,27.98 20.01,-4.96 3.33,4.42 1.12,8.23 3.7,13.56 -2.93,-22.94 23.15,-4.73 41.69,-2.6 -2,-6.12 -5.31,-13.41 -1.63,-10.09 -11.41,-14.28 8.43,-10.15 24.62,6.78 3.12,-3.51 -6.59,-24.66 2.58,-7.5 3.86,-27.74 -0.37,32.32 21.49,-3.93 4.94,34.06 -3.12,42.97 -54.4,38.38 18.02,-37.7 -5.89,-22.61 -38.19,-18.06 45.2,33.13 -29.43,27.86 23.5,73.6 -13.76,18.42 -33.44,-16.25 -53.26,-12.73 0.54,-22.55 21.1,5.75 21.47,-17.2 -22.96,-37.93 -35.84,58.02 -42.99,6.55 -40.41,-21.35 12.32,26.19 -61.92,36.13 9.22,20.92 20.05,-17.98 30.13,12.28 -35.07,-6.39 -11.02,77.86 -7.69,16.22 15.23,27.18 26.43,71.43 25.52,13.93 53.08,-9.57 129.69,-57.68 88.54,22.86 31.23,-14.28 63.95,-37.37 99.39,-35.3 19.3,1.12 38.4,5.73 57.5,3.29 15.46,-1.92 29.78,-8.27 44.85,-11.41 41.15,-8.56 83.4,7.61 125.48,8.12 30.3,0.35 60.25,-7.38 90.57,-5.91 13.79,0.64 27.39,3.47 40.96,6.66 1.28,6.14 5.33,13.91 2.21,24.06l-14.51 -14.14c-3.86,5.39 -0.93,24.2 -12.3,7.48 2,4.26 4.77,10.95 2,13.95 -24.45,-5.1 -45.92,10.5 -68.54,21.52 -22.4,12.01 -45.92,17.03 -69.44,21.37 6.63,0.14 2.58,3 -2.03,5.46 3.14,-0.7 0.56,4.46 1.49,6.55 -6.63,0.29 -13.23,1.14 -19.68,2.96 -2.91,5.44 -20.19,10.33 -22.03,13l6.06 -2.79c-3.84,2.85 -0.89,2.46 3.12,3.68 3.86,0.99 9.01,3.51 8.83,6.08 4.42,-1.86 11.02,-0.21 18.39,3.14 7.52,2.93 15.96,7.92 22.94,1.26 3.86,2.91 -2.58,3.45 -0.19,6.47 3.33,-4.26 7.9,-5.58 17.28,-1.84l-0.72 1.41c25.15,1.41 37.08,9.24 67.03,21l-3.82 -12.07c6.22,2.19 8.25,6.18 11.57,9.69 4.22,-18 -17.46,-3.1 -13.97,-22.16 5.7,11.97 16.72,13.66 27.18,14.86 10.64,1.45 20.96,3.12 26.46,20.67 9.57,1.49 -5.5,-17.49 4.05,-16.37l4.05 9.78 0.37 -12.24c6.41,2.36 11.57,15.31 13.23,23.93 -1.65,-1.26 -3.89,1.69 -5.54,2.11 10.31,13.52 22.45,-0.7 25.9,3.51l-10.27 -7.69c24.08,-8.25 58.97,12.4 79.2,-13.7l-3.7 -10c15.62,-19.06 17.09,11.16 36.21,2.36l-0.19 2.6c2.21,-10.71 6.78,-16.47 12.5,-15.36 -2.77,12.92 17.44,22.8 22.98,-21.02l6.59 19.22c1.28,-17.88 -0.19,-27.32 8.99,-33.56 -5.13,17.8 28.29,41.48 31.42,28.71 -8.08,-18.35 0,-44.23 7.73,-39.37 5.31,0.12 18.02,44.7 31.6,64.36 -24.82,7.28 -49.98,13.76 -75.69,16.76 -42.1,4.86 -97.2,7.23 -111.73,56.42 -7.87,-22.67 -13.58,-13.23 -3.86,-3.29 -0.35,37.74 -34.14,-9.9 -36.35,22.42 -21.33,-9.07 -12.52,-12.36 -10.09,3.6 -3.68,17.96 -16.18,-11.99 -18.04,-2.75 -5.31,-5.77 -1.07,-14.78 -0.54,-22.51 -10.85,-2.54 -19.47,14.05 -9.38,26.21 -28.29,-20.61 -18.19,3.51 -42.62,-21.43 -9.71,21.95 -13.58,16.29 -34.72,12.63 2.21,11.53 15.42,18.91 7.54,33.85 6.97,5.13 13.76,10.46 20.38,15.6 9.57,-2.54 -3.47,-22.28 15.27,-5.46 2.73,-7.17 -1.47,-11.78 -6.45,-15.79 9.18,-2.56 18.75,-9.28 28.29,-10 10.69,-0.85 22.05,4.44 32.7,7.01 26.83,6.61 53.65,13.21 80.5,19.76 7.69,1.94 15.6,3.82 23.31,1.92 8.29,-2.07 14.69,-8.1 22.03,-12.03 19.84,-10.6 44.48,-5.37 64.86,4.13 20.21,9.55 38.79,23.13 60.08,29.93 20.03,6.3 41.36,6.37 61.74,10.6 20.4,4.26 41.54,14.24 50.53,33.11 5.5,11.59 9.18,11.9 17.09,18.31 1.84,1.47 17.98,14.16 14.51,17.38 10.11,-9.24 4.22,-26.85 17.09,-28.15 7.34,12.44 -5.89,22.9 8.25,35.42 10.48,9.34 24.24,9.84 38.03,8.39 13.06,-1.38 26.29,-4.36 39.33,-2.17 13.6,2.27 25.9,10 39.12,13.74 20.03,5.62 40.61,1.98 60.99,1.78 7.73,-0.08 18.93,3.41 26.46,0.56 8.1,-3.14 10.5,-13.39 21.52,-10.31 6.61,1.84 11.55,8.62 11.02,15.44 0,1.34 -0.37,2.87 0.54,3.95 0.56,0.87 1.65,1.2 2.77,1.32 5.52,0.87 11.02,-2.17 15.25,-5.95 4.24,-3.8 7.73,-8.41 12.3,-11.72 4.61,-3.31 10.83,-5.25 15.98,-2.73 1.86,0.89 3.33,2.34 5.17,3.31 5.15,2.83 11.93,2.09 16.53,5.64 0.56,0.41 1.12,0.87 1.26,1.47 0.39,0.93 -0.14,1.96 -0.56,2.81 -4.94,9.01 -17.24,5.97 -25.71,8.99 -3.31,1.2 -6.97,2.67 -8.62,6.01 -0.91,1.49 -1.84,12.98 0.56,12.79 -18.21,1.22 -36.4,8.25 -54.38,13.52 -51.46,15.29 -104.93,30.71 -158.01,22.09 -8.29,-1.32 -16.56,-3.24 -24.8,-1.98 -10.85,1.55 -12.67,11.28 -20.4,14.24 -4.79,1.78 -18.75,-1.01 -24.62,-0.81 -6.61,0.25 -45.57,0.7 -43.71,-13.04 -2.96,21.85 -14.53,6.59 -21.89,10.27 1.65,20.77 6.08,25.05 0.93,38.46 15.42,17.57 14.32,11.99 26.99,31.81 0.74,-20.83 -2.4,-15.07 2.21,-34.27 9.01,-6.47 22.76,6.16 28.48,-16.51 9.71,14.14 -3.14,32.01 -1.49,47.68 8.47,9.88 23.54,-7.42 27.01,17.46 18,4.13 26.85,-28.29 51.44,1.34 -6.59,14.51 -18.56,8.02 -25.52,21.12 7.34,2.6 12.86,-2.98 24.06,13.68 -1.65,-17.96 0.56,-18.42 9.73,-1.47 11.59,-32.32 42.62,9.82 58.78,-5.44 12.34,6.28 11.41,1.34 -6.04,-12.07 -2.03,-6.84 -2.96,-13.87 -2.96,-21.08 5.7,-2.73 12.67,0.81 18.75,1.14 4.94,7.44 -1.47,17.59 11.76,23.73 4.24,-8.27 1.1,-14.67 1.65,-22.3 2.4,-3.93 8.08,4.07 10.11,-1.82 11,16.41 -2.73,10.56 1.84,25.73 -4.57,12.34 -18.93,-11.37 -21.14,8.58 82.69,4.01 160.4,-15.36 248.41,-8.37 -4.79,-0.41 2.77,-8.41 4.05,-8.89 1.28,-0.54 17.05,4.46 20.73,4.28 21.7,-1.12 42.27,-8.72 64.5,-7.96 10.31,0.35 20.77,1.78 30.86,0.52 9.36,-1.12 18.21,-4.38 27.39,-6.04 29.2,-5.31 60.25,5.91 88.73,-2.93 10.11,-3.16 19.3,-8.76 28.67,-13.48 44.08,-21.78 94.43,-24.16 142.77,-20.9 37.08,2.5 73.47,14.57 109.29,-1.38 9.57,-4.24 18.37,-9.92 28.13,-13.85 12.11,-4.94 25.15,-7.23 38.01,-9.38 19.12,-3.24 38.4,-6.53 57.68,-9.82 2.96,-0.45 5.89,-1.01 8.47,-2.71 4.24,-2.98 5.89,-8.39 9.55,-11.99 7.87,-8.14 20.77,-21.12 33.25,-20.07 4.61,0.39 8.62,3.41 12.86,5.06 7.15,2.77 14.88,3.91 22.22,5.64 2.21,0.52 4.42,1.07 6.08,2.48 1.65,1.51 2.58,3.84 3.49,6.12 3.31,9.18 6.82,18.31 10.11,27.49 0.91,2.6 2.03,5.25 2.19,8.04 0.19,4.26 -1.28,8.43 -2.75,12.48 -3.49,9.18 -11.95,18.31 -19.82,23.87 -3.68,2.58 -8.1,5.06 -12.9,4.94 -1.98,-0.06 -10.09,-1.67 -10.27,-4.38 1.28,18.87 -14.32,35.67 -20.4,59.32 -12.65,-34.16 -39.31,14.94 -54.56,21.95 -54.56,25.26 -115.37,35.18 -169.75,60.7 -21.49,10.09 -42.27,22.67 -65.41,27.98 -16.72,3.84 -34.16,3.74 -51.07,5.83 -20.94,2.58 -40.61,10.89 -60.45,17.71 -9.73,3.39 -19.68,6.08 -29.76,8 -9.73,1.88 -18.93,6.3 -29.04,7.52 -6.08,0.7 -12.3,0.64 -17.82,3.06 -6.06,2.71 -11.02,8.39 -17.61,8.35 -10.69,-0.02 -18.37,-6.01 -29.43,-4.05 -9.55,1.76 -18.73,5.77 -27.55,9.76 -8.62,3.99 -16.72,9.4 -25.71,12.67 -8.99,3.27 -20.59,1.26 -29.95,-0.27 -2.77,-0.43 -5.52,-0.97 -8.45,-0.93 -16.53,0.48 -20.4,24.22 -27.74,35.05 -2.75,-5.39 -5.15,-10.44 -10.66,-15.03 -4.38,16.18 8.8,8.68 11.78,27.84 -5.52,9.55 -18.37,-3.06 -20.21,18.11 47.56,10.6 89.1,-0.58 131.16,-8.49 14.88,4.88 -1.1,18.29 13.97,23.11 9.76,-3.02 3.49,-11.93 6.24,-24.08 16.33,13.33 4.59,34.29 0.56,53.41 -19.12,4.15 -38.24,-11.41 -57.17,-6.97 -14.51,3.45 -30.28,19.49 -43.9,27.14 -9.92,5.66 -19.82,11.37 -30.88,14.69 -27.36,8.31 -56.2,1.03 -83.93,5.19 -25.9,3.76 -47.6,-2.79 -67.79,-19.82 -2.42,-2.03 -5.33,-4.3 -8.45,-3.66 -1.12,0.25 -2.03,0.87 -3.14,1.38 -9.9,5.64 -22.94,9.2 -33.44,3.35 -4.38,4.71 -3.66,28.56 -11.95,19.88 7.75,17.18 3.14,23.13 -2.91,39.54 17.44,-5.95 30.49,9.09 43.36,18.66 12.3,9.18 28.48,11.72 43.73,11.76 15.42,0 30.86,-2.21 46.11,-1.32 13.6,0.83 26.83,3.99 40.41,3.08 42.62,-2.79 82.86,-11.72 126.24,-11.28 7.69,-30.67 36.17,0.74 46.44,-21.99 -1.98,4.4 21.89,9.2 25.01,8.93 7.9,-0.68 14.88,-4.79 21.47,-8.93 6.26,-3.84 13.23,-10.4 20.42,-11.7 10.27,-1.8 15.98,5.77 23.69,10.62 6.99,4.48 17.82,6.28 19.12,14.57 0.91,5.21 -3.33,10.11 -8.27,12.09 -4.96,2 -10.29,1.9 -15.6,2.11 -1.84,0.12 -3.86,0.29 -5.54,1.43 -2.03,1.47 -2.93,4.11 -3.84,6.47 -6.06,14.12 -23.71,19.47 -38.96,18.44 -4.77,-0.31 -9.71,-1.03 -13.95,0.68 -2.77,1.07 -5.15,3 -7.36,4.9 -5.13,4.36 -11.02,11.59 -17.09,14.55 -4.2,2.09 -8.08,1.16 -12.83,2.21 -11.22,2.46 -19.66,11.9 -26.85,20.28 -14.32,16.47 -38.19,21.27 -58.97,24.04 -23.5,3.06 -47.23,3.1 -70.17,8.89 -22.07,5.52 -42.8,16.31 -65.41,19.68 -18.21,2.69 -36.73,0.41 -55.12,1.55 -10.64,0.62 -21.49,2.31 -31.23,6.7 -9.18,4.22 -11.95,13.87 -22.05,15.13 -8.99,1.16 -18.17,2.29 -27.39,3.47 -3.49,0.43 -7.15,0.89 -10.64,0 -6.61,-1.76 -11.57,-8.08 -18.37,-8.62 -5.89,-0.5 -11.2,3.51 -16.53,6.24 -9.36,4.88 -22.22,6.39 -31.97,2.07 -11.2,-4.94 -23.87,-1.82 -36,0.12 -22.42,3.66 -45.74,1.78 -68.54,3.06 -7.15,0.43 -14.69,0.99 -21.47,3.55 -8.29,3.16 -13.23,10.17 -20.61,14.07 -5.89,3 -10.83,1.24 -11.74,9.65 -0.74,8.29 -9.36,14.98 -17.65,13.68 -4.05,-0.66 -7.73,-2.91 -11.39,-4.48 -10.29,-4.26 -22.42,-3.74 -32.14,1.45 -2.03,1.12 -4.24,2.42 -6.43,2.56 -10.48,0.66 -1.1,-15.81 0.17,-19.59 -10.83,-19.7 -15.62,-0.58 -25.9,-15.48 -3.7,8.7 10.64,16.31 9.57,25.11 -18.6,15.62 -42.66,-6.18 -61.92,4.4 2.73,22.49 14.51,-3.47 24.8,8.76 2.38,3.97 1.28,8.02 4.77,12.48 -16.53,-8.33 -18.19,8.06 -34,17.01 4.03,24.06 17.84,16.29 20.59,-4.42 15.44,11.24 -9.94,25.81 9.55,25.52 -4.05,6.76 -1.84,14.12 -5.7,19.66 2.93,1.41 5.89,2.75 9.2,5.83 10.11,-10.19 4.94,-20.25 11.02,-30.01 18.39,1.03 37.66,7.5 53.28,-9.82 28.83,41.56 44.83,2.27 69.09,13.06 4.4,33.79 -31.79,14.38 -29.58,44.17 31.42,-15.85 57.87,13.87 88.36,-22.63 4.03,5.5 7.71,11.49 12.67,16.18 1.67,1.47 3.7,3.43 5.89,3.8 3.29,0.54 5.13,-2.65 8.45,-2.71 1.65,-0.04 3.12,0.56 4.59,1.07 12.69,4.17 26.64,2.27 38.4,-3.86 9.94,-5.33 19.84,-14.51 31.95,-12.88 -23.69,20.85 -37.64,41.36 -43.71,43.59 15.44,29.37 42.25,-17.86 59.34,-28.13 3.31,10.85 6.59,16.97 18.93,17.88 11.2,0.83 22.4,0.74 33.81,-0.25 3.1,-0.27 6.41,-0.6 9.18,0.7 2.03,0.87 3.47,2.4 5.13,3.82 9.03,7.87 20.96,11.37 32.88,11.08 6.82,-0.21 14.9,-1.12 20.96,-4.05 6.82,-3.39 13.23,-7.77 21.33,-5.93 4.03,0.87 7.52,3.18 11.2,4.69 4.42,1.82 9.18,2.5 13.97,1.96 5.29,-0.56 9.71,6.26 9.9,11.14 0.19,4.11 -1.28,5.17 3.31,6.41 2.03,0.62 4.24,0.19 6.26,-0.41 4.4,-1.45 7.9,-4.96 12.48,-6.18 5.87,-1.67 12.88,-1.8 19.1,-2.67 1.65,-0.21 3.31,-0.43 4.79,0.12 1.28,0.45 2.38,1.34 3.49,1.8 3.86,1.2 7.17,-2.29 10.46,-4.51 3.12,-2.23 7.17,-3.43 10.46,-5.52 7.92,-5.08 13.08,-10.62 22.8,-12.59 8.43,-1.67 17.28,-1.43 25.71,0.06 9.22,1.63 16.91,5.06 24.64,9.94 5.5,3.55 11.2,6.01 16,10.95 9.18,9.47 16.16,23.42 29.58,27.57 5.87,1.78 12.13,1.18 18.37,1.82 4.22,0.41 8.45,1.43 12.48,2.93 2.19,0.89 4.59,1.96 6.99,1.86 4.03,-0.14 7.13,-3.22 10.46,-5.39 4.77,-3.18 11.39,-4.73 17.28,-4.73 2.93,0 13.76,2.58 14.69,6.08 -5.13,-21.33 8.47,-21.41 -6.97,-42.45 14.32,15.48 16.72,-14.34 37.45,-1.32 -18.19,-27.53 19.68,-19.06 12.5,-39.31 25.01,6.14 -4.03,27.76 15.07,35.9 3.12,-18.85 11.59,-22.34 21.87,-19.37 1.65,0.52 3.49,10.11 3.68,11.76 0.37,4.36 -0.56,7.92 1.82,11.97 1.84,3.06 4.77,5.44 7.54,7.54 2.77,1.88 5.7,3.55 8.8,4.32 2.4,0.5 4.61,0.56 6.82,1.14 4.59,1.2 8.45,4.63 13.04,5.89 4.96,1.41 10.27,0.19 15.23,-0.72 7.01,-1.32 14.16,-2.09 21.14,-2.34 6.59,-0.23 13.6,1.14 20.01,0.08 11.43,-1.96 22.61,-4.51 33.81,-8.12 18.56,-6.01 42.08,-16.89 60.45,-4.42 2.75,1.88 5.15,4.17 7.36,6.66 12.86,-0.66 24.43,-4.11 37.1,-3.29 -5.33,-32.88 22.42,-17.55 34,-29.95 3.31,6.51 1.28,14.78 10.09,19.24 -7.13,-21.47 12.86,-29.35 18.21,-10.71 22.05,-35.22 66.49,-10.5 91.13,-37 -13.23,-8.14 -0.56,-20.9 1.65,-28.23 8.8,7.73 -4.05,23.07 2.96,31.33 33.4,9.88 49.21,-25.19 74.22,-36.73 11.74,30.46 42.99,20.05 40.41,-1.67 11.2,12.65 12.86,0.37 22.98,9.65 -4.79,-49.25 77.5,-8.68 92.57,-59.28 42.1,34.41 54.96,-55.68 92.43,-18.83 -9.73,-1.1 -15.07,8.78 -22.4,14.03 15.4,19.39 29.2,-22.61 53.63,-22.09 9.9,0.43 50.53,12.28 41.32,-12.09 1.3,-11.59 15.81,7.87 22.63,9.26 11.93,-23.33 36.54,-17.09 46.94,-42.87 28.23,6.32 72.73,-17.88 107.08,-30.15 278.01,-84.22 547.7,-178.88 812.5,-282.63 4.61,3.41 10.44,6.12 17.8,8.23 -1.22,1.69 -2.46,3.08 -3.68,4.88 -7.98,-4.53 -19.04,23.42 -27.3,19.24 -10.13,6.7 -19.35,14.8 -29.47,21.91 -6.14,0.66 -11.97,2.19 -18.08,5.29 -10.75,5.46 -21.78,10.64 -32.84,15.73 -6.74,-7.69 -19.94,-3.86 -16.58,7.52 -1.22,0.68 -2.75,1.32 -4.3,1.98 -40.49,-9.38 -55.22,42.87 -99.1,26.27 1.55,9.49 0,15.81 -3.68,19.94 -0.91,0.93 -1.84,2 -3.06,3.02 -8.6,5.46 -23.93,1.96 -38.67,-8.29 -3.37,7.46 1.84,11.74 6.76,15.71 -34.99,-0.68 -59.23,22.65 -94.51,20.96 0.31,7.4 6.45,13 6.14,20.83 -47.87,4.88 -92.65,58.24 -140.21,35.01 -0.62,5.13 4.59,7.48 7.98,10.91 -49.4,12.83 -89.91,46.59 -146.37,42.39 -24.84,32.01 -86.52,39 -128.86,54.29 -5.83,13.1 9.82,17.34 4.3,30.53 -3.08,3.35 -5.23,6.55 -10.44,4.03 -9.2,-47.41 -40.8,-6.06 -60.45,-11.72 4.61,23.44 13.52,-0.95 22.4,9.07 11.97,15.23 -6.45,17.44 -8.89,22.78 -28.54,-31.27 -48.8,-12.17 -81.02,-2.46 -40.8,12.17 -69.49,25.65 -101.09,55.45 -31.25,29.47 -62.29,62.89 -104,73.47 -22.24,5.64 -73.1,3.8 -75.69,34.74 -28.29,-26.17 -34.91,20.4 -54.03,-6.9 4.96,53.59 -60.83,-5.5 -70.19,40.61 -27.55,-2.11 -46.3,19.55 -75.13,13.6 -12.13,-8.23 13.76,-6.59 -6.24,-15.77 -11.37,25.77 -39.33,30.22 -63.76,37.74 -54.03,16.58 -95.55,64.59 -151.02,74.4 -20.96,3.68 -42.62,1.63 -63.76,4.42 -56.4,7.56 -107.66,49.77 -164.06,41.11 -13.95,-2.17 -17.28,-13.68 -10.83,-24.57 -14.51,-1.07 -11.97,10.23 -8.83,24.39 -5.87,2.91 -12.5,0.62 -18.91,-5.79 -1.1,3.37 -1.28,6.74 -0.19,10.15 -20.59,4.63 -42.82,3.72 -62.46,12.61 -7.01,3.16 -13.6,7.21 -20.96,9.59 -9.73,3.12 -20.38,3.06 -30.69,3.27 -24.97,0.56 -49.98,3.22 -74.59,7.96 -21.47,4.2 -41.15,-1.72 -63.2,1.22 -7.15,0.99 -14.88,2.58 -20.19,7.59 -5.52,5 -7.17,14.49 -1.84,19.55 2.38,2.38 6.61,3.31 9.36,1.43 2.03,-1.24 3.12,-3.55 4.77,-5.29 6.63,-7.38 18.56,-3.41 28.11,-0.17 26.64,9.24 55.66,7.83 83.97,9.11 27.39,1.22 54.75,5.21 81.39,11.51 18.93,4.44 39.48,-1.63 56.38,8.76 0.93,-7.5 -4.75,-13.76 -3.12,-21.68 5.33,-8.52 15.27,-0.45 20.77,-9.36 2.4,6.57 2.75,13.95 3.12,20.87 17.28,-17.59 43.36,-14.67 66.34,-14.49 22.22,0.25 44.08,-5 66.12,-9.03 22.26,-3.99 44.64,-6.68 67.07,-8.1 9.36,-0.54 42.64,-7.38 47.39,-0.06 7.17,-11.22 36.19,-12.05 48.32,-14.05 19.3,-3.18 40.08,-3.74 58.97,-9.01 37.31,-10.5 72.94,-28.83 112.27,-30.9 17.84,-0.89 36,1.65 53.45,-2.09 16,-3.37 30.32,-11.82 45.39,-18.42 25.01,-10.97 52.37,-16.91 79.92,-17.22 13.41,-0.14 27.2,1.03 40.61,-0.52 15.42,-1.74 29.93,-7.03 44.99,-10.21 11.39,-2.4 27.2,0.45 37.68,-3.53 10.11,-3.86 9.18,-15.46 17.98,-19.45 2.96,-1.41 24.64,3.31 24.28,5.08 2.21,-10.15 -10.29,-14.2 -4.24,-26.17 32.35,17.67 63.2,-45.32 81.76,-9.88 32.08,-18.13 88.21,-14.1 103.57,-46.92 26.08,15.31 33.13,-16.02 62.27,6.72 1.55,-27.22 21.49,-11.93 22.4,-41.91 12.59,3.78 9.82,14.47 20.56,19.43 61.67,-25.38 117.21,-60.21 188.08,-60.23 -2.15,-8.47 -1.22,-17.77 -5.83,-19.24 54.01,-6.88 106.79,-17.49 147.9,-54.07 7.67,-15 32.22,9.07 42.95,0.76 0,-6.28 -7.98,-9.24 -7.05,-15.98 19.01,1.86 42.95,3.33 56.75,-23.66l25.77 17.42c43.28,-43.53 101.87,-50.99 158.96,-61.86 0,-4.63 -3.39,-7.92 -2.77,-13.12 98.48,-21.14 181.65,-78.08 277.08,-106.27 0.31,-4.92 3.06,-9.01 6.74,-12.71l4.92 21.14c3.06,-30.96 75.79,-35.11 114.75,-52.68 21.47,-9.24 31.29,-31.97 55.84,-18.6l3.68 -20.13c23.33,24.49 28.85,-25.63 58.61,-6.08 30.67,-46.23 107.39,-40.16 148.81,-85.03l4.61 3.04c0,-0.21 0.29,-0.29 0.6,-0.52l12.28 8.37c54.01,-56.67 134.4,-51.88 187.17,-111.07 39.89,11.84 51.86,-40.26 91.44,-28.63 7.36,-31.11 36.21,-10.21 44.81,-37.57 54.91,-5.13 98.79,-35.32 141.74,-68.68 108.63,-39.62 201.29,-117.7 310.23,-157.97l3.37 -20.07c2.75,-6.06 7.98,4.65 7.67,10.66 49.09,-38.46 89.91,-54.94 138.68,-94.12l3.99 2.81c1.24,-0.79 1.84,-1.8 2.15,-2.89l13.81 9.26c4.61,-3.55 2.77,-10.71 2.46,-16.56 3.37,-1.45 5.83,-4.67 6.76,-8.74 1.53,0.08 2.75,0.17 4.9,0.76 5.52,6.43 -2.75,5.27 -3.06,15.09 9.51,1.76 18.7,-7.36 13.19,-19.55 410.86,-198.39 772.3,-470.42 1167.2,-698.81l2.75 -15.21c60.14,-15.42 113.22,-61.32 178.57,-65.85 7.69,-9.67 4.3,-40.08 17.2,-16.51 2.46,-15.13 21.78,-34.43 43.26,-27.41l3.68 -20.09c19.32,-8 40.82,-11.82 53.08,-35.9 1.24,-0.76 2.77,-1.53 3.99,-2.29 100.03,-27.96 169.68,-124.61 279.22,-130.75l3.37 -19.94c23.95,11.22 48.18,-8.02 48.18,-29.8 7.98,4.57 8.29,12.21 16.58,16.62 -6.76,-32.72 10.13,-18.6 21.47,-13.81 12.9,-36.31 139.61,-114.52 155.26,-121.16 15.96,16.91 43.26,-27.05 67.19,-55.99l21.49 14.32c5.83,18.97 2.75,-13.06 -11.68,-13.81 4.61,-26.37 19.94,-27.98 32.53,-51.22 11.35,15.38 64.44,-20.92 71.8,-53.14 4.92,3.93 2.15,11.47 1.53,17.61 7.36,2.65 6.14,-13.06 19.04,1.84 -14.43,-19.72 4.9,-13.29 6.14,-35.22 57.06,8.43 69.34,-98.03 127.65,-72.32 -8.29,-39.7 22.07,-46.48 34.66,-61.53 10.75,25.65 107.7,-21.93 126.43,-67.05 38.96,-18.31 77.32,-38.15 98.48,-97.16 25.15,-5.35 53.08,-42.04 56.46,-75 0,-0.06 0,-0.1 0,-0.17 17.8,-2.69 34.04,-18.52 50.31,-38.17 38.98,-29.87 98.5,-26.08 135.93,-55.45 6.76,0 13.19,0.64 20.25,2.67 -3.68,-4.3 -6.45,-8.12 -8.29,-11.72 24.24,-19.06 49.4,-38.57 73.33,-57.33l33.75 -20.87 80.09 -59.92c3.37,2.44 5.52,4.94 6.45,7.63 8.29,0.99 9.82,-8.33 9.82,-19.76l86.83 -64.9 8.91 6.55c1.22,-3.78 -0.31,-7.44 -2.77,-11.08l21.47 -16.12c0.93,8.56 7.67,3.16 5.23,-3.93l3.68 -2.75 0.91 -22.32c3.08,-2.42 5.83,-4.88 8.91,-7.3l0.93 0.37c12.88,43.2 23.31,9.42 26.99,-11.43 36.5,-18.56 61.67,-58.33 98.79,-77.84l7.36 1.84c-1.22,-1.38 -2.44,-2.4 -3.68,-3.62 2.15,-0.99 4.3,-1.78 6.45,-2.6l23.31 5.77c-2.44,-2.52 -4.59,-4.51 -6.74,-6.59 5.52,0.39 11.97,1.45 21.47,5.66 -2.46,-1.74 -6.76,-4.4 -11.35,-7.36 10.73,2.65 17.8,-1.65 37.43,6.94 -6.76,-5.04 -24.86,-15.23 -41.73,-27.41 1.53,0.72 3.06,1.38 4.3,1.41 19.32,-16.29 14.41,-15.4 -6.45,-3.16 -2.46,-1.72 -4.92,-3.41 -7.07,-5.21 0,-1.59 0,-3.97 -0.29,-7.42l-5.52 -4.65c10.11,-1.8 34.66,-0.64 45.7,-2.96 0.62,-2 1.55,-3.82 3.08,-5.42 -14.12,-1.98 -34.97,-5.39 -42.66,-5.6 7.98,-1.03 31.6,1.24 48.49,1.76 15.96,-8.31 47.87,-11.7 42.95,-26.25 12.59,-5.04 11.06,6.43 25.17,-15.25 17.18,1.03 20.85,-9.94 22.38,-28.29 5.23,-3.64 10.75,-7.15 16.27,-10.73 2.46,5.6 4.3,11.47 9.53,14.69l-6.45 -16.76c6.74,-4.38 13.19,-9.01 20.25,-13.23 81.91,-26.79 109.23,-142.18 196.68,-181.98 18.42,3.08 75.48,-68.14 107.7,-114.79 5.83,-0.19 10.42,-3.58 10.42,-15.71 6.76,-10.27 11.37,-18.06 12.28,-21.52 0,-0.02 0,-0.02 0,-0.04 2.46,1.22 4.61,2.17 7.36,3.7 -1.53,-0.56 -3.68,-2.36 -6.12,-4.77 2.44,-2.89 4.59,-5.23 7.05,-7.85 2.15,3.1 3.68,5.73 4.3,7.09l-3.37 -8.16c5.21,-5.58 10.13,-10.77 15.03,-15.36 6.14,5.35 11.35,9.94 15.65,13.17 -11.04,-9.55 16.89,-11.99 16.89,-21.62l-15.96 -5.81c3.06,-2.21 5.83,-4.55 8.58,-6.63 17.51,15.44 24.55,13.35 27.32,3.97 0,6.51 3.06,12.11 23.31,31.6 23.62,1.16 -23.02,-34.25 1.84,-28.96 -6.14,-13.45 -17.49,-6.68 -23.62,-15.29 0.31,-5.13 0.62,-10 0.91,-14.36 3.39,-2.91 6.76,-5.95 10.13,-9.14 4.3,2.48 10.13,8.16 19.35,19.63l-14.74 -24.47c0.93,-1.2 2.15,-2.52 3.37,-3.82 0.31,0.35 0.31,0.41 0.93,0.72 1.22,3.18 2.46,6.82 3.68,9.63 7.36,2.67 11.35,5.77 14.43,8.12 2.75,3.8 4.9,7.61 5.52,11.12l1.22 -8.27c2.15,-0.06 3.99,-1.01 7.07,-4.3 16.87,12.13 13.19,28.75 10.44,32.47 0,0 27.92,-63.02 3.68,-90.28l-0.31 59.05c-5.52,-6.26 -11.06,-14.45 -16.58,-23.17l0 -1.78c-0.62,-0.58 -1.53,-1.36 -2.46,-2 -3.37,-5.56 -6.12,-11.53 -8.89,-17.42 0,-0.06 0,-0.14 0,-0.27 3.37,-5.68 12.88,-13.45 21.78,-20.19 6.14,3.51 12.59,7.59 18.11,11.99 0,0.23 0.31,0.5 0.31,0.74 0,0.06 -0.31,0.27 -0.31,0.27l0.91 0.5c1.86,2.48 3.39,4.55 4.61,5.85 -1.53,-2.62 -1.84,-5.73 -2.46,-8.76 3.39,-3.55 4.61,-12.34 6.45,-21.54 1.24,-0.56 2.77,-1.2 4.3,0.02l6.76 24.68c21.16,3.95 -19.66,-58.95 19.63,-37.24 6.14,-1.49 49.09,32.55 33.44,11.95 -7.98,-6.66 -18.73,-16.99 -30.69,-29.29 2.15,-1.88 4.61,-3.41 6.45,-5.77 0.93,-1.24 2.15,-2.5 3.06,-3.72 8.29,9.84 19.04,24.8 29.47,24.68l-25.17 -23.42c4.3,-11.12 10.75,-8.49 29.47,8.1l-13.21 -13.04c2.77,1.67 6.14,2.4 9.22,1.2 -5.54,-0.95 -10.44,-3.84 -15.05,-7.15l-2.15 -2.31c-0.62,-0.45 -0.62,-0.99 -0.91,-1.49 2.13,-2.58 4.59,-5.31 6.74,-7.98 3.68,3.06 6.76,4.48 9.22,-0.35 -1.86,-2.44 -2.46,-4.05 -3.68,-6.01 0.29,-0.54 0.91,-1.03 1.22,-1.61 4.61,-6.26 16.27,-27.43 22.09,-46.52 12.88,6.9 36.81,24.7 36.81,24.7l17.8 -18.31c-2.44,-13.99 -58.28,-67.48 -29.14,-59.52l22.09 13.66c-3.08,-1.32 -9.2,-12.44 -11.66,-18.04l21.16 11.93c-9.82,-21.62 -8.91,-28.38 -3.37,-28.6 2.15,2.52 4.59,5.25 6.45,8.95 -0.93,-2.46 -1.86,-5.42 -3.08,-8.45 3.37,0.87 7.07,2.65 11.06,4.79 0.29,4.26 3.37,9.96 16.56,19.7 -3.99,-5.19 -6.45,-10.25 -7.98,-15.31 13.21,6.9 25.46,12.24 22.71,-4.9 -0.62,8.37 -10.44,8.49 -22.4,-13.66 -2.77,-9.69 7.05,-5.58 16.58,2.54l-6.14 -6.84 14.72 5.13c1.84,8.35 4.3,14.45 11.66,6.51 -0.6,-0.87 -0.6,-1.88 -1.22,-2.83l32.84 11.31c-13.21,-14.8 -25.77,-14.03 -35.9,-23.58 -0.93,-3.86 -3.08,-6.59 -6.45,-8.06 -1.53,-2.65 -3.08,-5.7 -4.61,-9.45 -17.49,-33.23 13.81,-7.25 20.56,-8.68 11.97,17.94 13.81,40.28 30.38,42.7 -5.23,-9.42 -9.22,-34.08 -22.71,-43.51 22.71,10.75 36.83,-19.3 40.82,-34.68l-44.19 -27.24c-1.84,-5.79 -3.08,-11.02 -3.99,-15.77 12.88,-9.57 27.3,-18.81 45.1,-17.46 -2.77,-8.35 -4.3,-17.86 -8.6,-25.67 23.33,1.28 51.26,8.95 63.82,0.45 5.23,23.62 19.04,12.4 -24.53,-27.41 -0.93,-0.72 -1.24,-1.32 -1.84,-2.05l-1.24 -1.3c-26.68,-27.67 -13.81,-38.32 -10.73,-41.13 5.21,4.32 10.11,8.14 14.72,11.8l6.14 10.23 8.29 -0.21c34.06,22.71 57.37,23.58 59.21,-6.18l-13.81 -37.6c2.46,0.52 4.61,1.3 7.67,2.67 0,-0.52 -0.6,-1.26 -0.6,-1.84 32.82,31.02 55.82,44.39 55.82,44.39 -3.68,-13.43 -3.97,-18.87 -1.84,-19.9 -21.47,-14.45 -45.41,-30.9 -66.88,-46.71 -1.22,-1.67 -2.77,-3.45 -3.99,-5.21 29.14,-1.96 60.76,6.57 48.49,-7.15 11.66,-29.49 84.37,22.55 107.7,19.43 -11.06,-30.44 -26.08,-6.59 -49.71,-46.61 19.32,8.04 50.62,-17.46 0,-51.59 1.53,-4.61 96.33,-23.58 136.84,-19.88 -12.28,-13.81 -21.16,-26.21 -27.32,-37.29 -10.42,8.54 -36.5,6.08 -67.79,-24.08 -11.37,-30.59 33.44,-7.46 33.44,-7.46 45.41,18.91 53.7,47.41 65.35,17.92 -4.92,-35.61 2.77,6.26 -24.55,-31.04 15.65,10.97 2.77,-41.79 36.83,-5.99 0,0 28.83,12.21 10.44,-8.49 -23.93,-35.92 -9.84,-42.8 -38.98,-51.4 -20.25,9.24 -35.28,18.17 -33.75,8.1 0,0 -29.45,9.42 -40.2,19.24 -2.75,-10.56 -12.57,-25.65 -19.01,-31.23 -1.84,27.76 -15.65,38.63 -30.69,49.67l-1.53 1.07c-10.13,7.71 -20.56,16.2 -27.3,30.36 -2.46,-3.76 -3.08,-2.56 -1.55,2.85 -0.29,0.6 -0.6,1.03 -0.91,1.72l-16.58 -2.54c-3.06,14.82 -78.23,12.86 -77.94,14.14 -3.68,-4.13 -7.05,-7.73 -11.35,-13.04 -0.6,4.2 -2.46,7.28 -3.99,10.56 -3.68,-7.07 -6.45,-15.19 -6.76,-20.63l-0.6 0.87c-2.15,-14.03 -57.99,-67.48 -28.85,-59.52l22.09 13.64c-3.06,-1.32 -9.2,-12.42 -11.97,-18.04l21.49 11.95c29.76,2.56 -17.8,-48.38 -29.16,-78.81 -17.8,-33.25 13.5,-7.23 20.56,-8.68 11.97,17.96 14.12,3.74 7.67,-0.76 14.12,6.7 30.38,-9.2 31.29,8.66 16.58,-23.44 -16.87,-60.97 -12.57,-76.31l-44.5 -27.28c-30.07,-98.38 119.67,-67.38 147.28,-85.9 2.75,-0.97 47.56,-18.68 50.02,-56.26l-7.67 -20.69c34.66,27.34 70.56,72.92 81.62,51.71l-24.86 -23.4c-3.99,-13.43 -3.99,-18.81 -1.84,-19.9 -22.4,-15.07 -47.56,-32.3 -69.65,-48.69 -31.91,-64.98 131.63,12.21 154.95,9.07 -11.04,-30.42 -26.08,-6.55 -50.02,-46.61 19.35,8.04 50.95,-17.44 0.31,-51.57 16.27,-44.81 85.92,-62.5 54.94,-92.68 -11.06,-30.55 13.19,1.2 -4.92,-23.62 -11.04,-34.72 23.02,1.05 32.82,0.99l5.85 15.19c44.79,18.89 67.79,24.16 40.49,-13.1 15.96,10.91 2.77,-41.79 36.83,-6.06 0,0 -59.83,-93.83 -62.6,-52.1l12.59 9.67c8.29,40.01 -41.73,0.12 -52.48,9.9 -2.75,-10.54 -32.51,5.48 -46.03,15.69l-34.06 -13.87c-4.9,-22.88 -23.62,-57.31 -15.65,-72.63 8.6,3.78 20.87,14.38 30.07,23.07l19.63 -37.76 45.12 26.87c-10.44,-28.44 -106.48,-84.95 -33.15,-77.01 -65.66,-38.44 -18.39,-46.15 -50.31,-67.56 8.27,4.61 22.07,10.15 34.04,15.62 10.75,-24.86 26.08,-74.16 2.77,-105.88 0,0 -46.63,-5.73 -100.94,-18.79 -54.32,-12.71 -53.39,-5.27 -89.29,-25.13 33.44,-6.84 -123.97,-11.59 -123.97,-11.59 -23.93,-0.33 76.41,-27.96 71.49,-27.08 0,0 75.48,-44.64 24.24,-64.15 41.11,-15.44 25.15,-78.21 22.09,-99.68l-39.89 -32.01c21.78,-43.82 67.19,-15.67 73.95,-69.67l4.59 9.84c11.06,6.08 -51.55,-85.42 76.1,-10.89l2.77 3.97c1.22,-1.9 -19.63,-20.07 -19.63,-20.07 -2.15,-13.68 -11.68,-35.92 -7.07,-43.49 4.61,3.41 11.06,11.26 15.96,17.53l11.37 -18.54c0,0 -23.02,-48.26 12.26,-27.63 -32.51,-34.12 -9.82,-27.47 -25.46,-45.51 3.99,4.17 10.75,10.04 16.58,15.62 4.61,-10.17 11.97,-31.6 1.53,-53.74 0,0 -88.98,-56.98 -126.41,-91.31 18.7,2.15 27.61,-17.4 15.94,-28.48 0,0 -12.57,-3.02 -10.73,-0.72 0,0 -5.52,0.21 -8.6,0.08l-1.53 -2.73c0,5.5 -7.67,5.27 -11.06,5.1l-13.81 -3.2c-33.13,9.61 -76.08,-50.35 -83.75,-46.75 -24.86,-20.25 -10.44,17.15 -27.92,10.64 -0.62,0.06 -0.93,-0.27 -1.24,-0.25 -7.36,-7.61 -12.88,-7.77 -8.29,-1.78 -12.57,-5.5 -22.09,-24.57 -37.74,-34.52 0,-0.06 0,-0.04 0,-0.06 -44.48,-54.34 -0.91,-36.09 -46.01,-88.4 4.9,-10 54.6,-29.22 39.27,-62.75 -20.25,-35.4 -112.62,-77.61 -135.93,-98.57l4.92 -9.94c-0.93,-13.99 34.06,17.67 45.1,18.87 -2.15,8.35 85.3,16.72 37.12,-20.67 -11.97,-15.11 -7.05,-24.95 16.58,-1.76 24.84,44.58 47.87,53.96 34.97,31.64 2.46,-8.29 40.2,21.43 36.21,1.84 11.66,8.1 1.84,-15.46 8.6,-34.18l-16.27 -34.83c0,0 6.76,-3.49 10.75,-5.81 14.72,13.48 23.31,16.08 41.11,35.38 7.36,-11.72 -16.58,-35.01 -28.54,-50.08 2.15,-8.54 13.81,-0.52 38.05,29.82 13.5,-0.76 38.05,-7.17 12.9,-44.83 88.36,74.51 63.51,0.19 69.34,-25.59 -74.57,-67.6 12.28,-21.8 12.28,-21.8 44.48,33.71 61.36,8.49 38.34,-36.98 6.45,-18.87 28.85,12.73 0.62,-22.71 62.89,52.17 23.93,-13.85 4.92,-39.83 -78.87,-43.11 -30.69,32.47 -61.98,21.06z"/>
   <path class="fil0" d="M1906.97 6924.98c152.12,58.35 310.33,78.64 471.81,59.09 141.64,-17.11 270.81,-64.71 361.94,-182.85 141.82,-183.72 214.76,-394.76 237.74,-623.26 8.62,-84.76 -21.33,-159.18 -84.16,-220.9 -93.32,-91.91 -132.46,-84.55 -175.45,39.31 -58.8,168.75 -129.51,332.65 -231.32,479.87 -54.01,78.48 -117.04,153.42 -187.58,217.34 -76.78,69.63 -144.76,51.65 -186.12,-43.44 -29.58,-68.08 -53.26,-140.89 -65.77,-213.91 -40.94,-239.03 -22.98,-478.17 16.37,-715.82 48.14,-290.84 118.3,-575.93 245.06,-844.06 23.54,-49.69 56.05,-95.59 88,-140.62 9.76,-13.66 33.81,-28.11 47.23,-24.99 12.88,2.98 25.17,27.26 29.39,44.25 7.36,29.76 11.78,61.18 11.22,91.83 -2.03,119.01 -6.63,237.95 -10.13,356.92 -2.21,75.23 15.62,148.44 74.45,194.34 49.95,38.98 113.72,62.02 173.96,85.34 78.48,30.4 110.97,11.57 130.25,-71.82 15.25,-66.72 28.67,-134.22 37.84,-201.99 23.73,-175.08 36.93,-350.59 3.14,-526.08 -22.78,-118.8 -83.42,-205.48 -207.05,-233.65 -98.46,-22.45 -197.34,-45.41 -297.27,-58.2 -106.94,-13.74 -203,19.16 -283.67,93.98 -113.55,105.41 -193.1,234.4 -256.49,373.14 -196.76,431.3 -288.26,886.18 -296.52,1358.42 -2.56,148.91 8.08,296.73 55.66,415.53 66.72,153.17 164.99,241.42 297.45,292.25zm2215.09 -1502.67l-212.94 -97.16 -265.11 377.34c106.77,-420.2 210.17,-828.23 316.03,-1243.88 54.94,326.47 108.01,642.49 162.02,963.71zm69.65 -1528.96c-97.57,-19.08 -195.77,-35.8 -294.87,-45.49 -124.28,-12.21 -159.87,15.03 -197.61,132.23 -148.5,463.73 -266.02,935.72 -371.57,1410.61 -65.66,296.25 -120.29,504.59 -176.48,802.83 -35.47,188.82 8.25,263.91 183.84,344.18 4.3,2.03 8.91,3.89 13.5,5.85 80.09,35.84 105.57,23.73 122.44,-61.69 21.78,-112.08 38.36,-134.94 63.2,-246.38 5.52,-25.57 24.55,-53.22 45.41,-69.49 69.65,-53.98 141.45,-105.47 215.09,-153.75 134.71,-88.42 271.56,-173.9 414.23,-264.88 24.86,74.71 44.5,138.5 67.5,200.98 19.32,52.62 52.79,98.17 109.85,109.62 68.12,13.72 138.37,22.09 207.73,23.38 55.22,0.99 71.49,-26.87 58.9,-81.27 -13.5,-58.7 -30.38,-116.69 -45.1,-175.2 -96.97,-391.31 -161.71,-788.63 -215.09,-1187.79 -26.7,-200.27 -46.03,-401.52 -70.89,-602 -11.04,-88.65 -42.64,-124.61 -130.08,-141.74zm1482 752.36c20.25,-138.43 37.74,-277.41 61.67,-415.32 78.54,-455.71 178.57,-906.6 322.48,-1346.77 44.19,-134.73 71.18,-152.39 208.64,-115.08 89.29,24.18 175.51,60.35 261.43,95.05 104.93,42.2 142.67,124.59 136.53,234.56 -22.69,228.73 11.66,1847.72 14.12,2284.74 0.91,134.59 -13.19,149.59 -145.75,117.58 -34.66,-8.52 -69.65,-17.75 -104.93,-24.06 -64.13,-11.57 -105.86,-49.95 -113.84,-112.12 -17.8,-137.13 -66.28,-1320.91 -93.89,-1612.08 -9.2,40.05 -18.11,76.33 -25.46,112.87 -94.49,469.02 -164.46,921.61 -222.14,1416.65 -8.29,91.77 -27.01,109.69 -120.29,108.71 -68.43,-0.7 -136.84,-6.88 -204.96,-13.81 -83.77,-8.54 -144.82,-53.24 -173.96,-131.51 -48.49,-129.75 -95.42,-260.35 -136.55,-392.53 -48.18,-153.67 -89.91,-309.36 -139.92,-465.05 -3.06,75.05 -9.2,150.01 -9.2,225.01 0.62,419.08 2.15,838.11 3.99,1257.17 0.31,80.15 -25.77,105.03 -104.31,89.27 -46.34,-9.24 -91.15,-24.97 -136.55,-38.86 -91.44,-28.13 -134.38,-94.58 -138.37,-186.43 -12.9,-296.36 -31.91,-592.74 -34.37,-889.24 -3.08,-420.99 -16.27,-839.84 36.21,-1258.23 20.54,-161.98 42.64,-181.88 207.71,-166.27 84.08,7.92 168.15,23.42 250.7,40.82 73.33,15.34 112.6,67.17 127.93,138.91 60.76,283.69 154.35,565.66 215.71,849.19 14.41,66.61 33.13,132.28 50.02,198.43 2.44,-0.52 4.9,-1.12 7.36,-1.61zm2215.63 -2199.28c0.93,109.73 -9.2,222.06 -33.73,328.95 -65.66,288.67 -174.29,560.66 -353.48,800.29 -24.55,32.53 -53.39,61.74 -81,91.75 -9.51,10.56 -21.78,18.79 -44.19,37.78 5.52,-144.12 7.36,-275.98 16.27,-407.39 13.81,-209.88 31.6,-419.56 50.33,-629.13 1.82,-23.5 14.72,-49.85 30.98,-67.77 80.4,-90.86 170.28,-171.21 280.13,-226.09 85.92,-42.87 134.09,-23.25 134.69,71.61zm228.61 -298.12c-264.2,-105.61 -527.14,-105.63 -779.37,37.18 -239.31,135.66 -432.93,324.24 -600.47,540.49 -42.35,54.13 -34.97,94.08 26.39,128.53 65.35,36.54 143.6,64.22 214.78,99.1 11.97,438.37 -43.88,1186.92 -51.86,1639.14 -2.46,145.07 -8.91,330.92 1.22,465.86 6.76,95.2 53.1,163.84 144.22,196.57 56.75,20.34 104.62,42 163.55,54.67 73.33,15.81 95.42,-5.66 93.87,-81.12 -4.28,-228.32 4.3,-517.44 12.28,-745.7 3.7,-105.01 30.38,-507.19 30.69,-597.55 13.5,6.78 19.01,9.61 25.15,12.48 127.65,64.17 242.08,40.53 349.79,-48.51 142.07,-117.7 248.84,-262.98 334.16,-424.29 154.02,-290.88 260.5,-594.47 250.06,-930.31 -4.61,-159.56 -60.76,-285.01 -214.47,-346.54zm942.27 170.28c43.88,254.9 87.45,509.9 134.4,764.3 7.96,42 0.6,61.55 -37.74,82.71 -142.69,78.75 -282.59,162.22 -423.76,243.94 -3.97,-1.74 -7.96,-3.49 -12.26,-5.23 103.09,-404.82 205.87,-809.73 308.68,-1214.6 4.59,0.43 9.2,0.87 13.81,1.24 5.52,42.56 9.51,85.36 16.87,127.62zm243.63 -778.19c-116.92,-21.04 -234.73,-40.12 -352.86,-52.31 -73.64,-7.61 -118.14,29.18 -144.22,100.18 -11.04,30.69 -20.54,61.86 -30.36,93.07 -187.48,610.72 -357.16,1306.26 -483.88,1931.92 -32.53,159.64 -55.84,321.28 -79.16,482.49 -8.6,58.57 5.83,119.63 53.7,155.92 58.59,44.81 125.79,79.39 191.76,113.88 30.69,15.98 58.3,0.89 70.27,-32.39 7.67,-21.29 12.59,-43.86 16.87,-66.18 20.87,-107.27 40.51,-214.91 62.91,-321.86 3.99,-19.01 14.72,-42.04 30.07,-52.5 209.55,-143.87 420.66,-285.9 640.98,-434.85 19.63,60.37 32.22,103.88 47.25,146.49 55.22,154.89 109.23,193.43 274.62,196.74 11.35,0.27 23,0.25 34.37,0.14 91.44,-0.91 102.78,-20.46 83.46,-110.7 -65.97,-310.6 -139.3,-620.16 -191.16,-933.3 -55.22,-332.51 -66.59,-743.2 -108.32,-1077.79 -9.2,-72.79 -42.33,-125.66 -116.28,-138.95z"/>
   <path class="fil0" d="M10107.76 1278.32l-58.3 14.3 -73.33 -299.69 91.13 -22.3 112 222.33 -3.39 -248.86 89.91 -22.03 73.33 299.69 -58.28 14.26 -49.71 -202.73c-1.24,-5.79 -3.39,-13.95 -5.52,-24.53 -2.46,-10.54 -4.61,-18.62 -5.85,-24.35l4.92 265.4 -61.05 14.86 -117.83 -237.68c1.53,5.66 3.37,13.74 6.14,24.2 2.75,10.48 4.9,18.64 6.43,24.49l49.42 202.65zm-167.22 -276.7l12.88 53.12 -89.6 21.91 60.45 246.63 -63.2 15.44 -60.14 -246.61 -90.22 22.01 -12.88 -53.1 242.7 -59.4z"/>
  </g>
 </g>
</svg>
