<svg xmlns="http://www.w3.org/2000/svg" viewBox="0 0 1200 529.54"><defs><style>.cls-1{fill:#ec2027;}.cls-2{fill:red;}</style></defs><g id="Layer_2" data-name="Layer 2"><g id="Layer_1-2" data-name="Layer 1"><path class="cls-1" d="M0,321.63c11.26,4.47,22.5,9,33.78,13.39,43.63,17,88.15,31.27,133.86,41.4,29.71,6.58,59.62,12.44,89.68,17.15a810.22,810.22,0,0,0,119.45,9.35A859.92,859.92,0,0,0,483,397.65a766,766,0,0,0,149-32.38A745.7,745.7,0,0,0,831.81,264.72c2.49-1.76,4.19-1.66,7.06-.49,5.12,2.08,10.72,3,16.71,4.55-5.51,4.93-11.18,10.35-17.21,15.35-54,44.71-113.42,80.83-176.55,111a1012.85,1012.85,0,0,1-173.93,64,1093.25,1093.25,0,0,1-122,25.37A1134,1134,0,0,1,237,496.07c-45,1.55-90,1-134.81-3.18-33.31-3.08-66.5-7.38-99.74-11.13-.82-.09-1.66-.09-2.49-.13Z"/><path class="cls-1" d="M1200,194.63c-8.54-1.27-17-2.75-25.61-3.78a1263.84,1263.84,0,0,0-137.9-9.17,19.25,19.25,0,0,1-2.53-.46c2.78-7.78,5.47-15.39,8.22-23,3.9-10.78,8-21.49,11.7-32.34,1.3-3.85,3.35-6.17,7.29-7.08,23.29-5.42,46.45-11.5,69.89-16.19,21.5-4.3,43.3-7.12,65-10.58,1.31-.21,2.65-.29,4-.42Z"/><path class="cls-1" d="M306.32,173.84c5.34-.69,6.53-4.61,7.29-7.8,2.48-10.53,2.62-21.13-1.57-31.4a21.82,21.82,0,0,0-22.41-13.33c-5.89.64-9.83,3.81-11.67,9.44q-8.67,26.55-17.26,53.13c-5,15.35-9.71,30.77-14.92,46a12.58,12.58,0,0,1-5.72,6.69c-3.56,1.72-5.42-1.85-7.4-4.32-7.68-9.6-14.64-19.94-23.35-28.51C197,191.68,182.59,182.38,165.53,178c-2.75-.7-3.74-1.91-3.69-4.79.16-9.32.13-18.66,0-28-.05-2.92.79-4.14,3.8-5.18,39.59-13.69,77.88-30.14,112.09-54.83C289.78,76.54,300.81,66.71,308.9,54c5.41-8.51,6.22-17.84,4.05-27.38-1.91-8.43-8-12.84-16.62-12.88-21.54-.09-40.72,7.54-58.72,18.51C209.74,49.21,188,72.63,168,98.07a182.35,182.35,0,0,0-34.46,70.73c-5.75,23.89-6,47.94-4.18,72.43,1.75,23.4,27.13,51.92,57.75,57.42,22.7,4.07,44.38-.38,66.15-5.43,35.31-8.19,70.81-15.69,105.83-25,36.31-9.67,72.85-9,109.56-5.34,18.24,1.84,36.21,6.12,51.86,16.5,5.81,3.85,10.82,8.91,16.19,13.42l-1,1.52c-5.83-.7-11.65-1.42-17.48-2.08a231.19,231.19,0,0,0-76.47,3.93c-4.52,1-8,1.18-12.23-2.11-8.36-6.56-18.76-8.25-29.1-9.29-28.87-2.9-57.12,1.54-85.23,7.42-38.66,8.08-75.67,21.8-113.44,32.9-30.77,9-61.87,7-87.09-16.66C95,290,84.82,266.25,81.07,239.78c-4.42-31.23,2.18-60.72,13.57-89.73,13.27-33.81,36-60.32,62.16-84.47,25.47-23.53,53.09-43.87,85.88-56.2,17.93-6.74,36.31-10.7,55.7-9,22.88,2,35.17,17.43,32.42,40.18-1.38,11.44-6.7,20.75-13.06,29.77a104.7,104.7,0,0,1-8.6,11c-4.87,5.23-3.7,7.48,0,12.06,9.81,12.06,17.18,25.26,20.41,40.62,6.15,29.23-12.85,53.2-28.75,59.75-7,2.88-14,2.84-20.69-.94-8.25-4.65-12.85-18.6-9.33-28.11,3.79-10.24,12.86-15.07,24-12.78,8,1.65,12.58,7.55,12.16,15.77C306.83,169.53,306.57,171.31,306.32,173.84Zm-77.21,18.84c5.55-15.71,10.74-30.24,15.78-44.82.6-1.75.45-3.76.65-5.64-2,.14-4.29-.28-6,.53-12,5.72-23.86,11.68-35.75,17.59-4.38,2.18-5.26,4.93-1.67,8.33C210.67,176.73,219.64,184.31,229.11,192.68Z"/><path class="cls-1" d="M764.78,173c3.1-6,3.22-10.91,1.27-15.27A57.83,57.83,0,0,0,757,143c-7.46-8.4-18.76-5.77-22.25,4.78Q718.46,197,702.28,246.31c-1.38,4.14-2,9.74-7.93,9.35-5.6-.37-5.46-5.95-6.57-9.93-4.76-17-12.82-32.13-26.6-43.57a66.29,66.29,0,0,0-14.33-8.87c-2.89-1.35-3.56-2.79-3.52-5.57.12-8.16.2-16.33,0-24.49-.1-3.72,1.23-5.42,4.73-6.91,31.8-13.55,62.24-29.54,88.8-52,11.48-9.73,22.23-20.35,27.51-34.86a45.13,45.13,0,0,0,2.35-17.09c-.42-9.12-6-13.85-15.1-14.9C740.94,36.2,732.13,41,723.45,46c-32,18.24-56.09,44.49-75.19,75.61C632.08,148,620.53,176.08,616.6,207c-2.7,21.21-3,42.35,5.77,62.4,17.42,39.72,55,44.33,85.06,23.87,20.59-14,33.13-35.08,40.9-58.7a22.07,22.07,0,0,0,.76-8.87c-.2-2.08-1.71-4-2.63-6.06-2,1-4.9,1.4-5.92,3-2.9,4.57-4.94,9.66-7.51,14.45-1.75,3.24-3.37,6.74-5.85,9.36-5,5.31-10.59,10.1-16,15.07-1,1-2.24,1.76-4.21,3.27.89-17.7,3.72-33.73,12.71-48.05a44.36,44.36,0,0,1,9.19-10.38c8.52-7.08,21.35-8.08,30-2.91,7.59,4.57,11.16,14.65,8.59,26.24-4.84,21.8-15.6,40.61-30.73,56.8-24.11,25.79-54.06,38.34-89.33,36.45-31.84-1.7-52.68-19.18-65.52-47.76-8.92-19.86-8.36-40.19-4.51-60.72,7.51-40.08,21.79-77.42,46.73-110.13C649.3,71.27,680,44.67,717.78,26.87,731.94,20.19,747.11,17,763,20.35A32.42,32.42,0,0,1,788.14,48c2.65,22.29-6.08,39.89-22.14,54.54-1.84,1.68-3.88,3.14-5.79,4.75-3.46,2.94-3.5,4.69.34,6.71,24.21,12.76,28.54,40.68,12,62.63-6.19,8.18-13.36,14-24.38,12.08a20.42,20.42,0,0,1-6.94-2.58c-4.82-3-6.6-9.31-5-16.22a13.57,13.57,0,0,1,11.5-10.33c6-.6,11.2,2.53,14,8.39C762.39,169.38,763.3,170.62,764.78,173ZM690.2,200.81c4.47-12.59,8.71-24.24,12.68-36,.67-2,.18-4.33.23-6.52-2.34.16-5-.33-7,.58-8.75,4-17.31,8.38-26,12.59-5,2.41-5.93,6.28-1.89,10C675.18,187.92,682.41,194,690.2,200.81Z"/><path class="cls-1" d="M948.92,147.66c3-9,5.68-17,8.37-25Q964,102.85,970.68,83c2-5.84,1-7.17-5.12-7.38q-43.44-1.52-86.89-3c-1.75-.07-3.5-.31-6.08-.54,1.81-5.69,3.17-10.8,5.18-15.64.47-1.12,3.17-1.83,4.84-1.84,32-.11,64-.08,96-.08,7.83,0,15.66,0,23.49,0,5.15,0,7,1.5,6.17,6.58-1,6-3.44,11.75-4.91,17.69q-3.87,15.67-7.27,31.48c-.89,4.12,1.25,5.42,5.34,5.36,9.16-.14,18.32.19,27.48.36,6.57.12,8.12,1.77,6.37,8.28-2.2,8.18-5,16.21-7.65,24.25q-19.72,59.13-39.46,118.23c-1.21,3.65-3.06,4.72-6,2.72-4.32-2.9-9.24-5.58-12.18-9.61-1.92-2.63-1.89-7.83-.85-11.31,10.29-34.39,21-68.67,31.54-103,.42-1.39.68-2.83,1.12-4.7-5.93,0-11.42-.23-16.87.16-1.44.1-3.44,1.87-4,3.32-8.93,23.3-17.67,46.67-26.45,70Q944,242.18,933.54,270c-.41,1.08-1,2.09-1.47,3.09-12.87-1.51-21.78-15.42-17.7-27.26,5.84-17,11.65-34,17.29-51a45.62,45.62,0,0,0,.28-27.53c-2-6.7-6.05-8.43-12.23-5.35a34.05,34.05,0,0,0-5.76,3.89c-5.84,4.59-10.83,3.58-14.07-3.24-3-6.25-7-11.33-13.7-13.71-8.2-2.93-15.91-.95-22.74,3.74-18,12.35-32.59,43.86-25.36,68.69,3.76,12.88,11.93,18.5,23.92,15.49,5.18-1.3,9-4.61,9.78-9.54,1-6.28.78-12.8.59-19.19,0-1.13-2.37-2.82-3.89-3.15a15.9,15.9,0,0,1-12.18-14.12c-.5-6.56,4.18-13.11,10.8-15.08,6.83-2,13.88.52,17.25,6.47a74,74,0,0,1,9.88,36c.32,27.44-28,46.28-52.35,34.72-11.72-5.56-17.34-15.83-18.58-28.28-3.74-37.53,7.8-69.94,33.86-97A50.2,50.2,0,0,1,884,113.06c13.39-2.67,28.69,5.68,33.16,18.16a21.29,21.29,0,0,1,1,3.85c1,6.25,3.79,8.71,9.53,6.26C936.46,137.57,943.37,138.33,948.92,147.66Z"/><path class="cls-1" d="M519.65,257.12c-11-1.12-17.89-11.27-15-21.41q16.53-58.31,32.93-116.65c1.57-5.58.77-7.07-5.13-7.2-14.16-.29-28.32-.18-42.48-.06-1.15,0-3.35,1.62-3.25,2a9.78,9.78,0,0,0,2.44,4.33c6.64,6.44,14.38,12,19.92,19.24,11.12,14.55,8.16,43.35-4.64,55.61-7.76,7.44-20.28,7.12-26-.67a15.62,15.62,0,0,1,.22-18.18,15.21,15.21,0,0,1,17.56-4.49c1.36.57,2.69,1.25,5.05,2.35-.65-3.48-.45-6.56-1.77-8.71-3.62-5.89-7.39-11.85-12-16.93-4.3-4.7-9.46-3.78-12.94,1.67a44.75,44.75,0,0,0-4.43,10c-7.9,23.65-15.6,47.36-23.64,71-.76,2.24-3.42,5.38-5.19,5.38-2.37,0-5.55-2.15-6.95-4.31-5-7.8-9.31-16.11-14.2-24-7.78-12.58-18.68-22-31.38-29.3-4.35-2.5-6.64-5.21-6.22-10.58.53-6.79.21-13.65.1-20.48,0-2.89.87-4.32,3.86-5.34,19.35-6.61,38.6-13.54,57.9-20.28,3.64-1.27,6.44-3.15,7.82-8.13l-52.72-2.12c1.33-5.24,2.13-9.84,3.8-14.1.48-1.22,3.46-2,5.31-2,19.66-.14,39.32-.08,59-.07h93c6.19,0,7.19,1.11,7.75,7.51,1,11.21-3.41,21.23-6.8,31.45q-19.74,59.63-39.62,119.2C521.21,253.57,520.36,255.36,519.65,257.12Zm-89.07-74.38c4.12-9.07,7.82-17,11.27-25,.61-1.42.81-4,0-4.8-1-.94-3.44-1.07-5-.59-6.14,1.94-12.15,4.31-18.25,6.41-2.52.87-3.16,2.2-1.62,4.43Z"/><path class="cls-1" d="M787.41,276.68c-10.17-.49-18-10.62-15.3-20.32,8.76-31.57,17.77-63.06,26.68-94.59,2.26-8,4.41-16,6.8-24,1.27-4.24-.49-5.94-4.47-6.18-3.77-.23-7.55-.42-12-.66,1-5.81,1.88-11.15,2.92-17.37,4.26,0,8.35,0,12.45,0,8.16-.07,16.33.09,24.48-.36,4.92-.28,7.08,2.21,6.92,6.32-.26,6.43-.3,13.17-2.26,19.19-15,45.84-30.4,91.54-45.69,137.28A5.3,5.3,0,0,1,787.41,276.68Z"/><path class="cls-1" d="M337,110.58a12.92,12.92,0,0,1,0-1.92c.88-4.73.31-10.91,3.12-13.73,2.43-2.45,8.69-1.21,13.27-1.4,7.65-.32,15.32-.25,22.95-.81,4.53-.33,6.27,1.66,7.05,5.71,1.65,8.57-.93,16.51-3.56,24.39-14.44,43.39-29.07,86.7-43.38,130.13-1.44,4.36-3.24,4.16-6.47,2.65-8.7-4.07-12.48-11.86-9.83-21.36,6.7-24,13.57-48,20.36-72,4.21-14.88,8.3-29.79,12.66-44.62,1.26-4.32-.39-5.88-4.35-6.17Z"/><path class="cls-1" d="M606.11,106.16a12.34,12.34,0,1,1-24.67-.2,12,12,0,0,1,12.67-12.42A12.16,12.16,0,0,1,606.11,106.16Z"/><g id="Layer_2-2" data-name="Layer 2"><g id="svg4403"><g id="Layer_1-2-2" data-name="Layer 1-2"><g id="_1910995475136" data-name=" 1910995475136"><path class="cls-2" d="M791.5,387.28c.81.24,1.62.46,2.41.71a11.31,11.31,0,0,1,7.72,13.12A23.22,23.22,0,0,1,794.24,414a10.27,10.27,0,0,1-4,2.07,3.79,3.79,0,0,1-4.76-2.46,3.57,3.57,0,0,1-.17-1.07,10.62,10.62,0,0,1,8.39-11.28c1.38-.23,2.86-.17,2.9-2.23a3.75,3.75,0,0,0-2.41-4.24,11.93,11.93,0,0,0-5.25-.18,38.71,38.71,0,0,0-16.82,8.49c-24.53,19.75-43,44-52.41,74.46A43.82,43.82,0,0,0,718,499c2,10.82,9.08,17.55,20.06,19.25a69.28,69.28,0,0,0,26-1.66c14.73-3.25,29.38-6.85,44-10.19a136.16,136.16,0,0,1,32.44-3.53,61.81,61.81,0,0,1,35.42,11.49c5,3.6,9.88,7.43,14.62,11.26a11.49,11.49,0,0,1,3,3.95c-1-.58-2-1.17-2.89-1.72a59.24,59.24,0,0,0-31.14-8.24c-7.89.14-12.5,2.47-18.85,9.44a28.84,28.84,0,0,0-20-13.7,78.81,78.81,0,0,0-16.23-1.24c-12.38.25-24.29,3.47-36.29,6.2-10,2.27-20.06,4.36-30.17,6.06a37.8,37.8,0,0,1-18.92-1.74c-12.26-4.32-19-13.21-21.07-25.91-.12-.67-.34-1.32-.5-2V486.43a4.16,4.16,0,0,0,.4-1,84.18,84.18,0,0,1,7.29-26.89,136.66,136.66,0,0,1,33.57-45.22c10.16-9.32,21.08-17.56,34.16-22.39,4.36-1.64,9-2.43,13.44-3.62Z"/><path class="cls-2" d="M1023.85,469.35c0-4.62-2-6.89-5.21-6.46-4.5.61-9.71,5.93-10.13,10.39a11.08,11.08,0,0,0,7.76,11c.63.22,2,0,2.15-.4a32.51,32.51,0,0,0,5.43-14.49ZM1003.1,479c-5.69,7.76-11.39,15.52-13.82,25.07a14.77,14.77,0,0,0-.36,5.3,3.78,3.78,0,0,0,5.26,3.29,19.11,19.11,0,0,0,5.19-3A67.72,67.72,0,0,0,1014.93,490a1.68,1.68,0,0,0,.1-.71,64.66,64.66,0,0,1-6.42-4.48,68.57,68.57,0,0,1-5.51-5.92Zm65,29.83c0,3.95,2.15,5.26,4.62,3.73a21.23,21.23,0,0,0,5.92-5.21c4.32-5.92,8.49-11.85,12.42-18.05,4.58-7.22,8.85-14.65,13.17-22a3,3,0,0,0,.32-2.49,3.51,3.51,0,0,0-2.63-.95,7.48,7.48,0,0,0-3.26,1.13,27.55,27.55,0,0,0-4.42,3.41A113.59,113.59,0,0,0,1070,503a42.36,42.36,0,0,0-2,5.92Zm-15.41-35.11c6.22-5.37,12.6-10.6,18.64-16.19a232.43,232.43,0,0,0,26.7-29.05c1.58-2,3.73-1.16,6.3-1.61-1.42,1.87-2.43,3.31-3.51,4.67-15.41,19.16-32.41,36.69-52.91,50.52a4,4,0,0,0-1.54,1.66c-2.8,7.4-5.56,14.8-8.19,22.27a12.2,12.2,0,0,0-.28,4.62c.24,3.18,2.35,4.25,5,2.49a17.25,17.25,0,0,0,4.34-3.83c5.26-7.07,10.35-14.22,15.45-21.41,6.39-9,13.13-17.77,21.81-24.82a28.45,28.45,0,0,1,13.27-6.5,9.3,9.3,0,0,1,9.88,4.6c.23-.11.45-.15.49-.25,1.15-2.71,3.24-3.22,5.93-3,3.31.23,6.69,0,10.48,0-.63,1.08-1.09,2-1.58,2.76q-13.59,23-27.21,46.05a17.54,17.54,0,0,0-1.7,3.55,8.54,8.54,0,0,0,0,2.67,6.49,6.49,0,0,0,2.59-.32,19.05,19.05,0,0,0,4.92-3.49c4.44-5,8.9-10,12.85-15.38a5.71,5.71,0,0,1,6.81-2.67c0,.14.12.34,0,.42-7.52,11.33-15.68,22.13-26.69,30.37a30.28,30.28,0,0,1-8.42,4.42c-5.92,2-9.65-1-9.87-7.11v-3a47,47,0,0,1-5,4.24,52.7,52.7,0,0,1-10.27,5.79c-5.93,2-10.94-1.84-11.22-8.16v-4.28c-1.6,1.46-3.18,3-4.88,4.44a67.88,67.88,0,0,1-8.88,6.78c-7.78,4.46-14.95.11-15.09-8.83-.12-7.64,2.45-14.67,4.82-21.72.53-1.62,1.15-3.22,1.8-5.08-2.57.32-4.94.5-7.25.93-.57.12-1.09,1.05-1.44,1.68a86.39,86.39,0,0,1-22.65,27.33,50.24,50.24,0,0,1-9.83,6.26c-9,4-16-1.34-15.17-11.24a50.29,50.29,0,0,1,6-19.74A90.61,90.61,0,0,1,1006.71,461a32.36,32.36,0,0,1,10.67-4.56c7.09-1.64,11.85,3,11.13,10.3a49.4,49.4,0,0,1-4.87,16.47c-.32.69-.62,1.4-.95,2.13,4.62.56,7.42-.86,9.32-4.71a247.75,247.75,0,0,1,50.27-70.34c7-6.74,14.08-13.49,22.77-18.05a27.16,27.16,0,0,1,9.46-2.94c4.62-.5,7,2.31,5.92,6.81a61.93,61.93,0,0,1-3.39,10.37c-1,2.43-3.64,1.72-5.83,2.56,1.52-3.53,3-6.61,4.13-9.87a15.74,15.74,0,0,0,.28-4.22c-1.45.35-3.24.29-4.25,1.14a225.8,225.8,0,0,0-17.2,15.38c-17,17.87-30.09,38.47-41.62,60.13-.24.46-.44.95-.64,1.4l.75.69Z"/><path class="cls-2" d="M798.57,435.35c.1-6.44-3.32-8.47-8.36-5.67a14,14,0,0,0-6.31,7,6.76,6.76,0,0,0,1.67,8.31,25.46,25.46,0,0,0,6.7,3.54,2.27,2.27,0,0,0,2-.79,30.21,30.21,0,0,0,4.21-12.28Zm-7.31,18c-5.39-2-10.31-4.21-13.25-9.66-2.59,3.81-5,7.21-7.27,10.72a47.83,47.83,0,0,0-7,15.9c-.53,2.6-1,5.41,1.62,7.24s5.12.26,7.25-1.26c8.25-5.92,13.37-14.34,18.7-23Zm62.85,21c0,3.95,1.82,5.47,4.35,3.95a21.83,21.83,0,0,0,5.92-4.9c10.65-12.82,18.19-27.65,26.7-41.86a1.64,1.64,0,0,0-1.66-2.61,11.49,11.49,0,0,0-5.49,2.07,65.89,65.89,0,0,0-8.11,8.34c-7.39,9-14.66,18.22-19.47,29-1,2.23-1.68,4.64-2.16,5.93ZM800.17,448.5a29.8,29.8,0,0,0,5.8-2.73c4.62-3.51,9-7.38,13.57-11s8.86-7.09,13.56-10.26A16.46,16.46,0,0,1,844,421.92a9.23,9.23,0,0,1,9,9.48,9.54,9.54,0,0,1-.13,1.3,22,22,0,0,1-6.67,12.82,8.47,8.47,0,0,1-3.36,2,4,4,0,0,1-5.16-4.54,10.9,10.9,0,0,1,8.81-9.08l2-.38c-.38-1.34-.34-3.1-1.17-3.69a4.77,4.77,0,0,0-4.09-.59,29.29,29.29,0,0,0-7.05,4.44A79.24,79.24,0,0,0,812,470.73a14.61,14.61,0,0,0-.47,6.2,5.57,5.57,0,0,0,5.86,5.26,5.49,5.49,0,0,0,1.84-.42,32.77,32.77,0,0,0,8.87-5,109.2,109.2,0,0,0,19.45-21.11c6.71-8.92,13.43-17.77,22-25.05a51.83,51.83,0,0,1,9.59-6.56c5.33-2.72,9.7-3.95,15.4,1.58.85-2.51,2.85-2.39,4.92-2.33h11c-.67,1.2-1.13,2.09-1.62,2.92q-13.61,22.64-27.15,45.26a14.07,14.07,0,0,0-1.66,3.34,12.21,12.21,0,0,0,0,3.08c1.07-.16,2.39,0,3.18-.53a44.08,44.08,0,0,0,6.67-5.43,139.45,139.45,0,0,0,10.43-12c2-2.59,4.09-2.84,7.25-2.27-2.27,3-4.31,5.78-6.48,8.49A111.94,111.94,0,0,1,880.87,487a34.91,34.91,0,0,1-7.23,4.23c-6.91,2.92-11.35,0-11.45-7.51v-1.4c-1.58,1.42-2.9,2.73-4.32,4a24,24,0,0,1-12,5.93c-6.52.83-10.21-2.63-9.66-9.17.2-2.52.73-5.05,1.15-7.89-3,2.64-5.77,5.21-8.69,7.6a43.12,43.12,0,0,1-17,9.42c-9.74,2.25-17.44-3.83-17.44-13.73,0-7.68,3-14.37,6.46-21l2.61-5c-3.81.67-7,1.06-9.15,4.93A85.6,85.6,0,0,1,771.1,485a50.14,50.14,0,0,1-11.22,6.53c-7.64,3-14.35-1.75-14.77-9.87a36.91,36.91,0,0,1,4.09-18,93.24,93.24,0,0,1,31-36.88,25.65,25.65,0,0,1,12.9-5.06c6.47-.45,10.54,3.28,10.68,9.78a35.74,35.74,0,0,1-3.12,14c-.32.79-.65,1.56-1,2.35Z"/><path class="cls-2" d="M1015.9,398.44c-1.07.57-1.84.93-2.57,1.36a68.94,68.94,0,0,0-26.24,28.06,24.82,24.82,0,0,0-2.22,6.81,4,4,0,0,0,2.63,4.93,3.9,3.9,0,0,0,2.81-.19,19.58,19.58,0,0,0,5.66-3.12,53,53,0,0,0,16.57-21.36,32.34,32.34,0,0,0,3.36-16.57Zm-80.1,100.9c.85-3.57,1.49-7.22,2.61-10.72,3.12-9.87,7.51-19,16-25.51a29.91,29.91,0,0,1,14.45-6.71,9.27,9.27,0,0,1,10.94,7.24A9,9,0,0,1,980,465a28.77,28.77,0,0,1-1.42,13.11c-6.38,19.31-17.78,34.67-35.88,44.47a30.69,30.69,0,0,1-17.77,3.83c-9.56-1-16.28-7.59-18.33-17.6-2-9.63-.16-18.89,3-28,5.59-16.17,14.81-30.29,25.24-43.66,13.17-16.88,28.53-31.32,47.55-41.46,7.22-4,14.67-7.27,23.06-7.67a17.8,17.8,0,0,1,11.55,2.89,3.5,3.5,0,0,0,2.73.13,47.35,47.35,0,0,1,27.07-1.81,49.71,49.71,0,0,1,11,4.34c7.9,4.19,15.42,8.73,23.44,13.31l-12,10.78c-3.22-2-7.25-4.3-11.14-6.85-7-4.6-13.92-9.48-21.72-12.6a22.63,22.63,0,0,0-15.22-1.42c-.16,18.19-9,31.71-21.9,43a16.67,16.67,0,0,1-11.51,4.5,6.94,6.94,0,0,1-7.28-6.6c0-.18,0-.37,0-.55-.22-5.37,2-10,4.35-14.59,5.92-11.26,15.28-19.35,25.67-26.42l2.07-1.44-.12-.79a22.07,22.07,0,0,0-6.57.73,83.85,83.85,0,0,0-14.3,7.25c-19,12.91-33.67,29.93-46.17,49-8.61,13.13-15.66,26.93-18.76,42.43a40.68,40.68,0,0,0-.67,11.12c.79,8.65,7.9,13.17,16.31,10.62a32.12,32.12,0,0,0,12.82-8.31c9.59-9.24,17.14-19.75,20.06-33a21.18,21.18,0,0,0,.34-6.69,3.4,3.4,0,0,0-5-3.2,19.73,19.73,0,0,0-6.85,4.38,35.25,35.25,0,0,0-8,15.8,3.93,3.93,0,0,1-2.33,2.88,53.52,53.52,0,0,0-14.91,10.94,10.13,10.13,0,0,0-1.42,2.39l-1.22-.83Z"/><path class="cls-2" d="M1151.5,388.51c-11.69,22.23-39.34,41.31-64.16,35.54,3.53-3.95,6.91-7.74,10.35-11.49a1.75,1.75,0,0,1,1.24-.4c15.5.79,28.65-5.35,40.84-14.06,4.1-2.94,7.89-6.37,11.73-9.59Z"/><path class="cls-2" d="M934.44,423.38c-2.62,4.27-4.93,8-7.32,11.85a2.16,2.16,0,0,1-1.48.81H912.88c2.57-4.23,4.92-8.12,7.34-12a2,2,0,0,1,1.37-.63h12.85Z"/></g></g></g></g></g></g></svg>