<svg xmlns="http://www.w3.org/2000/svg" viewBox="0 0 719.13 116.14"><defs><style>.cls-1{font-size:48.75px;font-family:Montserrat-SemiBold, Montserrat;font-weight:600;}.cls-2{letter-spacing:-0.01em;}.cls-3{letter-spacing:0em;}.cls-4{letter-spacing:-0.01em;}.cls-5{letter-spacing:-0.02em;}.cls-6{letter-spacing:0em;}.cls-7{fill:red;}</style></defs><g id="Layer_2" data-name="Layer 2"><g id="Isolation_Mode" data-name="Isolation Mode"><text class="cls-1" transform="translate(366.8 44.72)">Bo<tspan class="cls-2" x="68.54" y="0">t</tspan><tspan x="88.57" y="0">tle</tspan><tspan class="cls-3" x="153.65" y="0">r</tspan><tspan x="173.97" y="0">s</tspan><tspan x="0" y="58.5">Ne</tspan><tspan class="cls-4" x="69.8" y="58.5">p</tspan><tspan x="102.9" y="58.5">al Limi</tspan><tspan class="cls-5" x="268.73" y="58.5">t</tspan><tspan class="cls-6" x="288.52" y="58.5">ed</tspan></text><path class="cls-7" d="M75.48,0c.65.19,1.3.37,2,.58a9.06,9.06,0,0,1,6.19,10.48,18.6,18.6,0,0,1-6,10.38,8.24,8.24,0,0,1-3.1,1.66,3.06,3.06,0,0,1-4-2.84,8.54,8.54,0,0,1,6.75-9c1.11-.19,2.29-.14,2.33-1.78s-.48-3-2-3.41a9.55,9.55,0,0,0-4.22-.15A31.28,31.28,0,0,0,60,12.65C40.27,28.59,25.46,48,17.89,72.47a35.18,35.18,0,0,0-1.42,17.22c1.65,8.68,7.3,14.09,16.12,15.45,7,1.09,14,.2,20.85-1.32C65.27,101.2,77,98.25,88.86,95.63a108.6,108.6,0,0,1,26-2.83A49.56,49.56,0,0,1,143.36,102c4,2.88,7.86,6,11.73,9a9.29,9.29,0,0,1,2.43,3.11l-2.31-1.39a47.64,47.64,0,0,0-25.08-6.56c-6.39.11-10,2-15.14,7.59a23.14,23.14,0,0,0-16.07-11,64.74,64.74,0,0,0-13-1c-9.94.2-19.51,2.8-29.14,5-8,1.83-16.11,3.51-24.23,4.87a30.38,30.38,0,0,1-15.19-1.39C7.46,106.8,2,99.66.39,89.47.3,88.93.13,88.4,0,87.87V79.61a2.94,2.94,0,0,0,.31-.82,68.4,68.4,0,0,1,5.86-21.6c6.29-14.1,15.66-25.95,27-36.31,8.17-7.47,17-14.09,27.43-18C64.05,1.61,67.76,1,71.35,0h4.13Z"/><path class="cls-7" d="M262.07,65.9c0-3.72-1.54-5.54-4.18-5.19-3.62.5-7.81,4.79-8.13,8.34-.34,3.7,2.29,7.48,6.23,8.81.5.17,1.52,0,1.72-.32,2.24-3.7,4.12-7.56,4.36-11.63Zm-16.66,7.76c-4.57,6.22-9.15,12.46-11.15,20.13A11.9,11.9,0,0,0,234,98a3,3,0,0,0,4.22,2.65,15,15,0,0,0,4.21-2.37c5.34-4.31,9.11-9.9,12.5-15.78A1.46,1.46,0,0,0,255,82a55.77,55.77,0,0,1-5.16-3.59,61,61,0,0,1-4.42-4.71Zm52.21,24c0,3.1,1.73,4.22,3.71,3A17.15,17.15,0,0,0,306,96.43c3.48-4.72,6.83-9.55,10-14.5,3.68-5.8,7.1-11.76,10.58-17.68.33-.56.55-1.64.25-2a2.8,2.8,0,0,0-2.1-.77,5.85,5.85,0,0,0-2.61.92,21.55,21.55,0,0,0-3.56,2.73,91.39,91.39,0,0,0-19.43,27.79,35.14,35.14,0,0,0-1.52,4.7ZM285.25,69.43c5-4.33,10.13-8.52,15-13a187.21,187.21,0,0,0,21.43-23.33c1.28-1.65,3-.93,5-1.29-1.12,1.51-1.93,2.66-2.81,3.76-12.37,15.38-26,29.41-42.48,40.51a3.31,3.31,0,0,0-1.24,1.34c-2.24,5.94-4.48,11.89-6.57,17.89a9.44,9.44,0,0,0-.23,3.72c.18,2.53,1.88,3.4,4,2a14,14,0,0,0,3.5-3.08c4.2-5.67,8.31-11.41,12.39-17.18,5.14-7.27,10.55-14.3,17.53-20a22.57,22.57,0,0,1,10.66-5.2c3.5-.57,6.08.82,7.95,3.68.2-.09.36-.11.39-.19.93-2.18,2.61-2.6,4.82-2.44,2.67.21,5.37.05,8.42.05-.5.88-.87,1.56-1.27,2.22Q330.87,77.41,320,95.9a14.17,14.17,0,0,0-1.37,2.86,7.3,7.3,0,0,0,0,2.14,5.62,5.62,0,0,0,2.09-.25,15.57,15.57,0,0,0,3.94-2.81c3.57-4,7.15-8,10.32-12.35,1.56-2.14,3.13-2.74,5.46-2.14,0,.11.1.26.06.33-6,9.11-12.59,17.78-21.44,24.39a24.51,24.51,0,0,1-6.75,3.55c-4.67,1.56-7.76-.82-7.87-5.71,0-.75,0-1.5,0-2.42a39.57,39.57,0,0,1-4,3.4c-2.66,1.7-5.32,3.61-8.25,4.65-4.77,1.67-8.79-1.48-9-6.55-.05-1.17,0-2.35,0-3.44-1.29,1.18-2.54,2.45-3.92,3.57a55.52,55.52,0,0,1-7.13,5.44c-6.25,3.58-12,.1-12.12-7.09-.09-6.13,2-11.79,3.88-17.48.43-1.3.91-2.58,1.44-4.07-2.06.25-4,.39-5.83.75-.46.09-.86.83-1.15,1.35-4.71,8.44-10.45,16-18.19,21.94a40.37,40.37,0,0,1-8.1,5c-7.26,3.18-12.83-1.08-12.18-9a40.53,40.53,0,0,1,4.84-15.85c5.77-10.81,13.41-20.07,23.66-26.92a26.18,26.18,0,0,1,8.52-3.64c5.7-1.31,9.48,2.42,8.95,8.29A40,40,0,0,1,261.86,77c-.26.56-.5,1.12-.76,1.71,3.71.44,6-.69,7.48-3.8C278.87,53.86,292,34.83,309,18.48,314.58,13,320.26,7.61,327.26,4a22.05,22.05,0,0,1,7.6-2.36c3.71-.38,5.6,1.86,4.81,5.47a50.5,50.5,0,0,1-2.73,8.34c-.8,1.94-2.92,1.38-4.68,2.06,1.22-2.84,2.4-5.31,3.32-7.88a12.28,12.28,0,0,0,.22-3.4c-1.16.29-2.6.23-3.41.93-4.7,4-9.57,7.88-13.81,12.35C305,33.81,294.41,50.34,285.15,67.74c-.19.37-.34.76-.51,1.14l.61.55Z"/><path class="cls-7" d="M81.17,38.59c.08-5.16-2.67-6.8-6.71-4.54a11.25,11.25,0,0,0-5.08,5.57c-1.06,2.54-.68,5,1.34,6.68a20.83,20.83,0,0,0,5.41,2.79,1.81,1.81,0,0,0,1.66-.63C79.55,45.2,81,41.82,81.17,38.59ZM75.3,53.05C71,51.48,67,49.68,64.66,45.31c-2.08,3.06-4,5.79-5.84,8.62a38.11,38.11,0,0,0-5.66,12.76c-.43,2.1-.78,4.35,1.3,5.82s4.11.21,5.82-1C66.91,66.77,71,60,75.3,53.05ZM125.77,69.9c-.07,3.23,1.46,4.39,3.49,3.23A17.21,17.21,0,0,0,134,69.2c8.56-10.29,14.6-22.21,21.44-33.61a1.32,1.32,0,0,0-1.32-2.1,9.35,9.35,0,0,0-4.42,1.67,51.44,51.44,0,0,0-6.51,6.69c-5.94,7.26-11.76,14.62-15.64,23.27-.81,1.8-1.35,3.72-1.73,4.78ZM82.44,49.14A23.87,23.87,0,0,0,87.09,47C90.81,44.13,94.33,41,98,38.12s7.11-5.7,10.88-8.25a13.38,13.38,0,0,1,8.79-2.08c4.76.41,7.73,4,7.1,8.74a17.61,17.61,0,0,1-5.36,10.29,6.69,6.69,0,0,1-2.7,1.6,3.21,3.21,0,0,1-4.16-3.72,8.76,8.76,0,0,1,7.07-7.3l1.56-.3c-.31-1.08-.28-2.49-.94-3a3.84,3.84,0,0,0-3.28-.47,23.53,23.53,0,0,0-5.67,3.56A63.8,63.8,0,0,0,92,67a11.74,11.74,0,0,0-.38,5c.44,3.18,3.15,5,6.18,3.88a26.55,26.55,0,0,0,7.13-4c6.1-4.78,10.92-10.8,15.55-17,5.38-7.16,10.78-14.31,17.67-20.12a41.75,41.75,0,0,1,7.72-5.26c4.29-2.2,7.78-3.24,12.37,1.27.67-2,2.28-1.92,3.94-1.87,2.85.07,5.71,0,8.85,0-.54,1-.9,1.67-1.3,2.34Q158.77,49.5,147.87,67.67a11.64,11.64,0,0,0-1.32,2.67,10.2,10.2,0,0,0-.09,2.48c.87-.13,1.93,0,2.56-.43A34.71,34.71,0,0,0,154.37,68a110.66,110.66,0,0,0,8.38-9.61c1.57-2.07,3.28-2.27,5.82-1.82-1.82,2.39-3.46,4.65-5.2,6.82-4.83,6.08-9.85,12-16.12,16.69a28.3,28.3,0,0,1-5.8,3.39c-5.55,2.35-9.11,0-9.2-6,0-.29,0-.58-.07-1.13-1.28,1.14-2.33,2.18-3.48,3.1-2.84,2.31-5.85,4.3-9.6,4.78-5.23.67-8.2-2.11-7.77-7.36.17-2,.59-4.06.93-6.31-2.41,2.11-4.63,4.19-7,6.1C101.18,80,96.87,83,91.61,84.22c-7.73,1.82-13.89-3.07-13.94-11,0-6.16,2.41-11.54,5.18-16.83.66-1.27,1.33-2.53,2.11-4-3,.54-5.59.85-7.33,3.95C72.86,64.81,67,72.57,59.11,78.46a40.71,40.71,0,0,1-9,5.25c-6.13,2.43-11.52-1.41-11.86-8a29.37,29.37,0,0,1,3.29-14.48A75,75,0,0,1,66.39,31.72a20.62,20.62,0,0,1,10.35-4c5.21-.36,8.47,2.63,8.58,7.85a28.47,28.47,0,0,1-2.51,11.25c-.24.64-.51,1.26-.77,1.89l.4.48Z"/><path class="cls-7" d="M255.69,9c-.87.46-1.49.75-2.07,1.09a55.37,55.37,0,0,0-21.07,22.53,20.52,20.52,0,0,0-1.78,5.49c-.58,3,1.49,4.8,4.36,3.81a16,16,0,0,0,4.55-2.51A42.61,42.61,0,0,0,253,22.27c1.76-4.14,3.23-8.38,2.7-13.31ZM191.37,90c.69-2.88,1.2-5.8,2.09-8.61,2.51-7.91,6-15.25,12.82-20.49,3.46-2.67,7.2-4.79,11.61-5.36,4.84-.63,8.26,2.06,8.94,6.91A23.12,23.12,0,0,1,225.69,73c-5.12,15.5-14.25,27.84-28.82,35.7a24.56,24.56,0,0,1-14.29,3.08c-7.69-.79-13.08-6.09-14.72-14.12-1.58-7.75-.13-15.19,2.38-22.47,4.49-13,11.91-24.34,20.28-35.08C201.09,26.54,213.43,15,228.7,6.77,234.5,3.66,240.48.94,247.22.63a14.23,14.23,0,0,1,9.28,2.31,2.81,2.81,0,0,0,2.18.11c7.14-2.38,14.4-3.35,21.77-1.48a39.75,39.75,0,0,1,8.86,3.49c6.28,3.36,12.39,7,18.83,10.69l-9.64,8.66c-2.59-1.58-5.83-3.46-8.95-5.51-5.65-3.69-11.17-7.61-17.5-10.12-4-1.59-8.12-2.38-12.22-1.13-.13,14.59-7.19,25.46-17.59,34.55A13.45,13.45,0,0,1,233,45.81a5.56,5.56,0,0,1-5.85-5.74c-.19-4.31,1.53-8.06,3.48-11.72,4.82-9,12.27-15.53,20.56-21.21.55-.39,1.1-.78,1.66-1.16,0-.21-.07-.42-.1-.64-1.78.17-3.73-.08-5.29.59A68.25,68.25,0,0,0,236,11.75c-15.23,10.37-27,24-37.08,39.35-6.9,10.53-12.57,21.62-15,34.07a31.91,31.91,0,0,0-.54,8.93c.63,6.93,6.41,10.57,13.09,8.52,4.06-1.24,7.32-3.79,10.3-6.67,7.69-7.42,13.75-15.88,16.1-26.53a17.06,17.06,0,0,0,.28-5.38c-.23-2.29-1.93-3.45-4-2.57A16.3,16.3,0,0,0,213.71,65c-3.41,3.55-5.17,8.07-6.42,12.77a3.12,3.12,0,0,1-1.86,2.31,42.87,42.87,0,0,0-11.94,8.66,8.77,8.77,0,0,0-1.14,1.93l-1-.67Z"/><path class="cls-7" d="M364.57,1C355.25,18.84,333,34.16,313.05,29.52c2.84-3.17,5.56-6.22,8.31-9.23a1.48,1.48,0,0,1,1-.32c12.45.64,23-4.29,32.8-11.29,3.29-2.35,6.28-5.11,9.41-7.69Z"/><path class="cls-7" d="M190.31,29c-2.12,3.42-4,6.46-5.88,9.45a1.69,1.69,0,0,1-1.2.66c-3.29,0-6.59,0-10.25,0,2.08-3.39,4-6.52,5.92-9.61A1.51,1.51,0,0,1,180,29c3.29,0,6.59,0,10.32,0Z"/></g></g></svg>