<svg xmlns="http://www.w3.org/2000/svg" viewBox="0 0 229.92 72"><defs><style>.cls-1{fill:red;}</style></defs><g id="Layer_2" data-name="Layer 2"><g id="svg4403"><g id="Layer_1-2" data-name="Layer_1"><g id="_1910995475136" data-name=" 1910995475136"><path class="cls-1" d="M47.61,0c.41.12.82.23,1.22.36A5.72,5.72,0,0,1,52.74,7,11.74,11.74,0,0,1,49,13.52a5.25,5.25,0,0,1-2,1.05,1.92,1.92,0,0,1-2.5-1.79,5.38,5.38,0,0,1,4.25-5.71c.7-.12,1.45-.09,1.47-1.13A1.9,1.9,0,0,0,49,3.79a6.12,6.12,0,0,0-2.66-.09A19.63,19.63,0,0,0,37.82,8C25.4,18,16.06,30.28,11.28,45.71a22.19,22.19,0,0,0-.89,10.85c1,5.48,4.6,8.89,10.16,9.75a35.07,35.07,0,0,0,13.15-.84C41.16,63.82,48.58,62,56,60.31a68.73,68.73,0,0,1,16.43-1.79,31.29,31.29,0,0,1,17.94,5.82c2.53,1.82,5,3.76,7.4,5.7a5.79,5.79,0,0,1,1.53,2c-.48-.29-1-.59-1.46-.87A30,30,0,0,0,82.07,67c-4,.07-6.33,1.25-9.55,4.78a14.59,14.59,0,0,0-10.14-6.94,40.35,40.35,0,0,0-8.22-.63c-6.27.13-12.3,1.76-18.38,3.14-5.06,1.15-10.16,2.21-15.28,3.07a19.09,19.09,0,0,1-9.58-.88C4.71,67.35,1.28,62.85.25,56.42c-.06-.34-.17-.67-.25-1V50.21a2.22,2.22,0,0,0,.2-.52A42.64,42.64,0,0,1,3.89,36.07a69.3,69.3,0,0,1,17-22.9c5.15-4.72,10.68-8.89,17.3-11.34C40.4,1,42.73.6,45,0h2.61Z"/><path class="cls-1" d="M165.28,41.56c0-2.34-1-3.49-2.64-3.27-2.28.31-4.92,3-5.13,5.26a5.61,5.61,0,0,0,3.93,5.55c.32.11,1,0,1.09-.2a16.55,16.55,0,0,0,2.75-7.34Zm-10.51,4.89c-2.88,3.93-5.77,7.86-7,12.7a7.55,7.55,0,0,0-.18,2.68,1.91,1.91,0,0,0,2.66,1.67A9.67,9.67,0,0,0,152.88,62a34.35,34.35,0,0,0,7.88-10,.84.84,0,0,0,.05-.36,33.87,33.87,0,0,1-3.25-2.27,34.77,34.77,0,0,1-2.79-3ZM187.7,61.56c0,2,1.09,2.66,2.34,1.89a10.73,10.73,0,0,0,3-2.64c2.19-3,4.3-6,6.29-9.14,2.32-3.66,4.48-7.42,6.67-11.15.2-.36.34-1,.16-1.26a1.76,1.76,0,0,0-1.33-.48,3.79,3.79,0,0,0-1.65.57,13.94,13.94,0,0,0-2.24,1.73A57.52,57.52,0,0,0,188.66,58.6a22.3,22.3,0,0,0-1,3Zm-7.8-17.78c3.15-2.72,6.38-5.37,9.44-8.2a118.44,118.44,0,0,0,13.52-14.71c.8-1,1.89-.59,3.19-.82-.72.95-1.23,1.68-1.78,2.37C196.47,32.12,187.86,41,177.48,48a2,2,0,0,0-.78.84c-1.42,3.75-2.82,7.5-4.15,11.28a6.11,6.11,0,0,0-.14,2.34c.12,1.61,1.19,2.15,2.54,1.26a8.72,8.72,0,0,0,2.2-1.94c2.66-3.58,5.24-7.2,7.82-10.84,3.24-4.58,6.65-9,11.05-12.57a14.34,14.34,0,0,1,6.72-3.29,4.7,4.7,0,0,1,5,2.33c.12-.06.23-.08.25-.13.58-1.37,1.64-1.63,3-1.53,1.68.12,3.39,0,5.31,0-.32.55-.55,1-.8,1.4q-6.88,11.66-13.78,23.32a8.74,8.74,0,0,0-.86,1.8,4.36,4.36,0,0,0,0,1.35,3.26,3.26,0,0,0,1.31-.16,9.69,9.69,0,0,0,2.49-1.77c2.25-2.53,4.51-5.07,6.51-7.79a2.89,2.89,0,0,1,3.45-1.35c0,.07.06.17,0,.21-3.81,5.74-7.94,11.21-13.52,15.38a15.24,15.24,0,0,1-4.26,2.24c-3,1-4.89-.51-5-3.6,0-.47,0-.94,0-1.53a24.11,24.11,0,0,1-2.54,2.15,26.51,26.51,0,0,1-5.2,2.93c-3,1-5.54-.93-5.68-4.13,0-.74,0-1.48,0-2.17-.81.74-1.61,1.54-2.47,2.25a34.29,34.29,0,0,1-4.5,3.43c-3.94,2.26-7.57.06-7.64-4.47-.06-3.87,1.24-7.43,2.44-11,.27-.82.58-1.63.91-2.57-1.3.16-2.5.25-3.67.47-.29.06-.55.53-.73.85a43.69,43.69,0,0,1-11.47,13.84A25.21,25.21,0,0,1,146.31,70c-4.58,2-8.09-.68-7.68-5.69a25.5,25.5,0,0,1,3.05-10,45.9,45.9,0,0,1,14.92-17A16.45,16.45,0,0,1,162,35c3.59-.83,6,1.52,5.64,5.22a25.1,25.1,0,0,1-2.47,8.34c-.16.35-.31.71-.48,1.08,2.34.28,3.76-.44,4.72-2.39a125.49,125.49,0,0,1,25.46-35.62C198.4,8.22,202,4.8,206.4,2.49A13.7,13.7,0,0,1,211.19,1c2.34-.25,3.53,1.17,3,3.45a31.6,31.6,0,0,1-1.72,5.25c-.5,1.23-1.84.87-2.95,1.3.77-1.79,1.51-3.35,2.09-5a7.9,7.9,0,0,0,.14-2.14c-.73.18-1.64.15-2.15.58a113.29,113.29,0,0,0-8.71,7.79c-8.59,9.05-15.24,19.48-21.08,30.45-.12.23-.22.48-.32.71l.38.35Z"/><path class="cls-1" d="M51.19,24.34c.05-3.26-1.68-4.29-4.23-2.87A7.08,7.08,0,0,0,43.76,25a3.43,3.43,0,0,0,.85,4.21A13,13,0,0,0,48,31a1.15,1.15,0,0,0,1-.4,15.29,15.29,0,0,0,2.13-6.22Zm-3.7,9.12c-2.73-1-5.22-2.13-6.71-4.89C39.47,30.5,38.23,32.22,37.1,34a24.06,24.06,0,0,0-3.57,8.05c-.27,1.32-.5,2.74.82,3.67s2.59.13,3.67-.64c4.18-3,6.77-7.26,9.47-11.63ZM79.32,44.08c0,2,.92,2.77,2.2,2a11,11,0,0,0,3-2.48c5.39-6.49,9.21-14,13.52-21.2a.83.83,0,0,0-.84-1.32,5.83,5.83,0,0,0-2.78,1.05,33.44,33.44,0,0,0-4.11,4.22c-3.74,4.58-7.42,9.23-9.86,14.68-.51,1.13-.85,2.35-1.09,3ZM52,31a15.23,15.23,0,0,0,2.94-1.38c2.34-1.78,4.56-3.74,6.87-5.57s4.49-3.59,6.87-5.2a8.35,8.35,0,0,1,5.54-1.31A4.67,4.67,0,0,1,78.69,23a11.15,11.15,0,0,1-3.38,6.49,4.26,4.26,0,0,1-1.7,1A2,2,0,0,1,71,28.19a5.52,5.52,0,0,1,4.46-4.6l1-.19c-.19-.68-.17-1.57-.59-1.87a2.43,2.43,0,0,0-2.07-.3,14.93,14.93,0,0,0-3.57,2.25A40.11,40.11,0,0,0,58,42.26a7.4,7.4,0,0,0-.24,3.14,2.82,2.82,0,0,0,3.9,2.45,16.67,16.67,0,0,0,4.49-2.51A55.34,55.34,0,0,0,76,34.65c3.4-4.52,6.8-9,11.14-12.69A26.35,26.35,0,0,1,92,18.64c2.7-1.38,4.91-2,7.8.8.43-1.27,1.44-1.21,2.49-1.18,1.8,0,3.6,0,5.58,0-.34.61-.57,1.06-.82,1.48q-6.89,11.46-13.75,22.92a7.2,7.2,0,0,0-.84,1.69,6.21,6.21,0,0,0,0,1.56c.54-.08,1.21,0,1.61-.27a22.43,22.43,0,0,0,3.38-2.75,70.48,70.48,0,0,0,5.28-6.06c1-1.31,2.07-1.44,3.67-1.15-1.15,1.51-2.18,2.93-3.28,4.3A56.88,56.88,0,0,1,92.87,50.51a17.7,17.7,0,0,1-3.66,2.14c-3.5,1.48-5.75,0-5.8-3.8,0-.18,0-.36,0-.71-.8.72-1.47,1.38-2.19,2a12.09,12.09,0,0,1-6.06,3c-3.3.42-5.17-1.33-4.89-4.64.1-1.28.37-2.56.58-4-1.52,1.34-2.92,2.64-4.4,3.85a21.8,21.8,0,0,1-8.62,4.77C52.9,54.26,49,51.18,49,46.17c0-3.89,1.53-7.28,3.27-10.62L53.59,33c-1.93.34-3.53.54-4.63,2.5a43.37,43.37,0,0,1-11.68,14,25.47,25.47,0,0,1-5.68,3.31c-3.87,1.53-7.27-.89-7.48-5a18.63,18.63,0,0,1,2.07-9.13A47.2,47.2,0,0,1,41.87,20a13,13,0,0,1,6.53-2.56c3.28-.23,5.34,1.66,5.41,4.95a18.09,18.09,0,0,1-1.58,7.1c-.16.4-.33.79-.49,1.19L52,31Z"/><path class="cls-1" d="M161.25,5.65c-.54.29-.93.47-1.3.69a34.92,34.92,0,0,0-13.29,14.21A12.52,12.52,0,0,0,145.54,24a2,2,0,0,0,2.75,2.4,10.07,10.07,0,0,0,2.87-1.58A26.85,26.85,0,0,0,159.55,14a16.33,16.33,0,0,0,1.7-8.39Zm-40.56,51.1c.43-1.81.75-3.66,1.32-5.43,1.58-5,3.8-9.61,8.09-12.92A15.17,15.17,0,0,1,137.42,35a4.7,4.7,0,0,1,5.63,4.36,14.53,14.53,0,0,1-.72,6.64c-3.23,9.78-9,17.56-18.17,22.52a15.5,15.5,0,0,1-9,1.94c-4.84-.49-8.24-3.84-9.28-8.91-1-4.88-.08-9.57,1.51-14.17,2.83-8.19,7.5-15.34,12.78-22.11,6.67-8.55,14.45-15.86,24.08-21,3.66-2,7.43-3.68,11.68-3.88a9,9,0,0,1,5.85,1.46,1.77,1.77,0,0,0,1.38.07A24,24,0,0,1,176.87,1a25.1,25.1,0,0,1,5.59,2.2c4,2.12,7.81,4.42,11.87,6.74l-6.08,5.46c-1.63-1-3.67-2.18-5.64-3.47-3.57-2.33-7.05-4.8-11-6.38a11.46,11.46,0,0,0-7.71-.72c-.08,9.21-4.53,16.06-11.09,21.79a8.45,8.45,0,0,1-5.83,2.28,3.52,3.52,0,0,1-3.69-3.62c-.11-2.72,1-5.08,2.2-7.39,3-5.7,7.74-9.8,13-13.38l1.05-.73-.06-.4a11.28,11.28,0,0,0-3.33.37,42.78,42.78,0,0,0-7.24,3.67c-9.6,6.54-17.05,15.16-23.38,24.81-4.36,6.65-7.93,13.64-9.5,21.49a20.48,20.48,0,0,0-.34,5.63c.4,4.38,4,6.67,8.26,5.38a16.29,16.29,0,0,0,6.49-4.21c4.86-4.68,8.68-10,10.16-16.73a10.73,10.73,0,0,0,.17-3.39,1.72,1.72,0,0,0-2.52-1.62A10,10,0,0,0,134.78,41a17.88,17.88,0,0,0-4.05,8,2,2,0,0,1-1.18,1.46A27,27,0,0,0,122,56a5,5,0,0,0-.72,1.21l-.62-.42Z"/><path class="cls-1" d="M229.92.62C224,11.88,210,21.54,197.43,18.62c1.79-2,3.5-3.92,5.24-5.82a.9.9,0,0,1,.63-.2c7.85.4,14.51-2.71,20.68-7.12,2.08-1.49,4-3.23,5.94-4.86Z"/><path class="cls-1" d="M120,18.28c-1.33,2.16-2.5,4.07-3.71,6a1.07,1.07,0,0,1-.75.41c-2.08,0-4.16,0-6.46,0,1.3-2.14,2.49-4.11,3.72-6.06a1,1,0,0,1,.69-.32c2.08,0,4.16,0,6.51,0Z"/></g></g></g></g></svg>