<?xml version="1.0" encoding="UTF-8"?>
<!DOCTYPE svg PUBLIC "-//W3C//DTD SVG 1.1//EN" "http://www.w3.org/Graphics/SVG/1.1/DTD/svg11.dtd">
<!-- Creator: CorelDRAW 2021 (64-Bit) -->
<svg xmlns="http://www.w3.org/2000/svg" xml:space="preserve" width="3.5in" height="1.6337in" version="1.1" style="shape-rendering:geometricPrecision; text-rendering:geometricPrecision; image-rendering:optimizeQuality; fill-rule:evenodd; clip-rule:evenodd"
viewBox="0 0 3494.39 1631.08"
 xmlns:xlink="http://www.w3.org/1999/xlink"
 xmlns:xodm="http://www.corel.com/coreldraw/odm/2003">
 <defs>
  <style type="text/css">
   <![CDATA[
    .fil0 {fill:#2B2A29;fill-rule:nonzero}
   ]]>
  </style>
 </defs>
 <g id="Layer_x0020_1">
  <metadata id="CorelCorpID_0Corel-Layer"/>
  <g id="_2343527531888">
   <path class="fil0" d="M881.13 0c5.12,1.5 10.25,2.93 15.33,4.55 34.71,11.04 56.46,46.21 48.88,82.69 -6.67,32.09 -22.41,60.05 -47.22,81.92 -6.78,5.97 -15.7,10.57 -24.42,13.06 -16.17,4.6 -29.39,-5.63 -31.34,-22.37 -3.73,-32.46 21.1,-65.93 53.21,-71.4 8.76,-1.5 18.12,-1.1 18.44,-14.09 0.32,-12.72 -3.79,-23.66 -16.05,-26.9 -10.51,-2.8 -22.6,-3.26 -33.29,-1.12 -40.07,7.99 -74.82,28.22 -106.01,53.47 -155.33,125.77 -272.23,279 -331.95,471.98 -13.67,44.14 -20.01,89.48 -11.19,135.83 13.02,68.46 57.62,111.18 127.17,121.91 55.62,8.6 110.43,1.57 164.5,-10.44 93.35,-20.68 186.1,-43.97 279.44,-64.59 67.54,-14.93 136.05,-24.04 205.5,-22.35 81.97,2 157.6,24.56 224.5,72.73 31.59,22.74 62,47.12 92.51,71.33 7.88,6.26 14.13,14.6 19.23,24.52 -6.1,-3.65 -12.13,-7.35 -18.28,-10.92 -61.15,-35.54 -127.15,-52.92 -197.82,-51.75 -50.39,0.83 -79.21,15.57 -119.5,59.85 -29.28,-48.01 -72.73,-76.82 -126.76,-86.92 -33.64,-6.28 -68.6,-8.53 -102.87,-7.82 -78.39,1.59 -153.92,22.06 -229.91,39.3 -63.38,14.39 -127.12,27.64 -191.19,38.41 -40.18,6.77 -80.94,2.67 -119.79,-10.99 -77.79,-27.32 -120.61,-83.62 -133.59,-164.02 -0.68,-4.24 -2.02,-8.4 -3.07,-12.62l0 -65.18c0.85,-2.13 2.29,-4.23 2.48,-6.43 5.45,-59.52 21.94,-116.09 46.19,-170.42 49.63,-111.28 123.55,-204.78 212.88,-286.52 64.41,-58.93 133.7,-111.1 216.42,-141.86 27.39,-10.16 56.62,-15.37 84.98,-22.84l32.6 0z"/>
   <path class="fil0" d="M2353.2 519.96c0.29,-29.37 -12.17,-43.76 -32.99,-40.95 -28.56,3.87 -61.61,37.76 -64.16,65.78 -2.65,29.17 18.07,59 49.16,69.49 3.97,1.33 11.98,0.17 13.62,-2.54 17.63,-29.19 32.45,-59.62 34.37,-91.78zm-131.47 61.19c-36.04,49.07 -72.18,98.31 -87.93,158.78 -2.79,10.69 -3.47,22.53 -2.23,33.53 1.94,17.36 17.04,26.97 33.29,20.95 11.8,-4.36 23.42,-10.77 33.2,-18.68 42.14,-34.04 71.94,-78.15 98.66,-124.56 0.86,-1.5 0.48,-3.7 0.59,-4.58 -14.21,-9.71 -28.55,-17.75 -40.71,-28.3 -12.47,-10.82 -22.8,-24.09 -34.87,-37.15zm411.96 189.03c0.33,24.43 13.6,33.27 29.23,23.56 13.93,-8.65 27.55,-19.84 37.2,-32.95 27.44,-37.24 53.86,-75.35 78.65,-114.43 29.02,-45.75 56.04,-92.75 83.45,-139.49 2.59,-4.42 4.34,-12.9 1.98,-15.74 -3.34,-4.01 -11.01,-6.45 -16.6,-6.06 -7.04,0.5 -14.54,3.38 -20.59,7.22 -9.93,6.31 -19.69,13.36 -28.07,21.56 -64.81,63.43 -115.83,136.7 -153.29,219.22 -6.23,13.7 -9.35,28.8 -11.97,37.09zm-97.58 -222.43c39.46,-34.13 79.87,-67.22 118.17,-102.6 61.35,-56.66 118.05,-117.84 169.09,-184.06 10.05,-13.02 23.7,-7.34 39.85,-10.22 -8.9,11.91 -15.28,21.02 -22.24,29.67 -97.58,121.35 -205.32,232.05 -335.12,319.65 -3.9,2.65 -8.22,6.34 -9.8,10.51 -17.69,46.91 -35.31,93.87 -51.85,141.21 -3.12,8.9 -2.47,19.57 -1.76,29.28 1.44,20.03 14.83,26.83 31.71,15.7 10.16,-6.73 20.44,-14.61 27.59,-24.25 33.18,-44.75 65.58,-90.06 97.73,-135.57 40.55,-57.38 83.27,-112.81 138.35,-157.35 24.79,-20.05 51.83,-35.9 84.06,-41.1 27.62,-4.47 48.03,6.52 62.72,29.11 1.58,-0.72 2.89,-0.9 3.13,-1.53 7.28,-17.19 20.57,-20.49 38.01,-19.22 21.09,1.58 42.4,0.39 66.45,0.39 -3.95,6.92 -6.92,12.24 -10.03,17.51 -57.44,97.23 -114.94,194.42 -172.29,291.7 -4.25,7.18 -8.38,14.69 -10.84,22.56 -1.61,5.15 -0.11,11.23 0,16.91 5.55,-0.54 12.08,0.58 16.47,-1.97 11.01,-6.4 22.88,-12.83 31.14,-22.13 28.11,-31.65 56.4,-63.43 81.39,-97.51 12.34,-16.85 24.68,-21.58 43.11,-16.82 0.17,0.86 0.76,2.02 0.42,2.55 -47.62,71.87 -99.34,140.3 -169.15,192.46 -15.91,11.9 -34.43,21.67 -53.23,27.98 -36.89,12.35 -61.24,-6.42 -62.12,-45.05 -0.14,-5.89 -0.01,-11.78 -0.01,-19.08 -10.68,9.19 -20.22,19.51 -31.69,26.83 -21.01,13.42 -41.95,28.51 -65.12,36.67 -37.58,13.22 -69.31,-11.62 -70.98,-51.64 -0.39,-9.28 -0.06,-18.56 -0.06,-27.19 -10.19,9.35 -20.09,19.35 -30.95,28.16 -18.33,14.88 -35.9,31.39 -56.21,42.99 -49.35,28.18 -94.78,0.76 -95.63,-55.97 -0.72,-48.38 15.56,-93 30.55,-137.89 3.41,-10.26 7.21,-20.37 11.38,-32.11 -16.24,1.94 -31.27,3.09 -45.98,5.92 -3.59,0.71 -6.76,6.54 -9.05,10.62 -37.18,66.56 -82.43,126.63 -143.53,173.11 -19.87,15.11 -41.19,29.48 -63.93,39.44 -57.24,25.06 -101.18,-8.5 -96.08,-71.19 3.62,-44.52 17.44,-86.06 38.21,-125 45.53,-85.28 105.78,-158.4 186.63,-212.42 20,-13.37 43.81,-23.29 67.27,-28.7 44.91,-10.35 74.78,19.06 70.57,65.38 -3.35,36.86 -15.45,71.08 -30.9,104.33 -2.04,4.37 -3.94,8.82 -6.01,13.45 29.3,3.54 47.05,-5.44 59,-29.92 81.23,-166.39 185.13,-316.56 318.56,-445.58 44.37,-42.92 89.19,-85.7 144.45,-114.53 18.33,-9.58 39.45,-16.43 59.93,-18.58 29.3,-3.07 44.14,14.6 37.94,43.15 -4.88,22.45 -12.81,44.42 -21.53,65.73 -6.3,15.35 -23.03,10.93 -36.91,16.29 9.59,-22.38 18.91,-41.91 26.18,-62.18 2.9,-8.1 1.26,-17.83 1.69,-26.83 -9.08,2.29 -20.47,1.87 -26.86,7.32 -37.11,31.58 -75.47,62.23 -108.94,97.45 -107.49,113.15 -190.68,243.6 -263.73,380.85 -1.55,2.9 -2.72,5.99 -4.06,8.97 1.61,1.46 3.22,2.9 4.82,4.34z"/>
   <path class="fil0" d="M925.96 304.45c0.64,-40.69 -21.04,-53.65 -52.9,-35.8 -18.17,10.16 -32.01,24.52 -40.12,43.97 -8.35,20 -5.35,39.21 10.62,52.69 11.97,10.1 27.93,15.74 42.7,22.02 3.22,1.36 11.29,-1.76 13.05,-5.03 13.92,-25.67 25.4,-52.33 26.65,-77.85zm-46.27 114.11c-34.18,-12.38 -65.29,-26.6 -83.95,-61.12 -16.45,24.18 -31.91,45.7 -46.1,68.06 -19.84,31.24 -37.12,63.91 -44.65,100.63 -3.4,16.57 -6.18,34.36 10.27,45.97 17.07,12.04 32.39,1.61 45.94,-8.06 52.29,-37.27 84.61,-90.8 118.48,-145.48zm398.16 132.91c-0.55,25.47 11.51,34.65 27.54,25.49 13.8,-7.88 26.89,-18.73 37.04,-30.98 67.46,-81.24 115.17,-175.26 169.11,-265.21 5.13,-8.57 -0.4,-18.17 -10.44,-16.51 -12.13,1.99 -25.89,5.51 -34.86,13.15 -18.64,15.85 -35.87,33.81 -51.37,52.78 -46.83,57.28 -92.77,115.37 -123.35,183.56 -6.39,14.23 -10.69,29.4 -13.66,37.72zm-341.84 -163.75c12.31,-5.61 26.15,-9.26 36.68,-17.25 29.38,-22.33 57.1,-46.8 86.04,-69.72 28.15,-22.28 56.16,-44.94 85.86,-65.05 20.26,-13.73 44.37,-18.58 69.33,-16.43 37.61,3.24 61,31.52 56.01,68.96 -4.28,31.98 -19.59,58.74 -42.25,81.15 -5.73,5.66 -13.58,10.35 -21.28,12.62 -19.58,5.74 -35.53,-9.08 -32.85,-29.31 3.77,-28.45 27.33,-52.78 55.78,-57.6 2.87,-0.48 5.73,-1.1 12.28,-2.37 -2.38,-8.53 -2.21,-19.65 -7.37,-23.41 -6.41,-4.66 -18.89,-6.84 -25.86,-3.69 -15.93,7.2 -31.49,16.67 -44.77,28.07 -73.81,63.29 -123.23,142.88 -152.6,235.04 -3.9,12.23 -4.67,26.46 -2.94,39.23 3.41,25.1 24.78,39.37 48.71,30.63 19.96,-7.28 39.49,-18.23 56.24,-31.36 48.13,-37.7 86.18,-85.21 122.73,-133.77 42.46,-56.46 85.06,-112.89 139.36,-158.76 18.69,-15.78 39.19,-30.31 60.9,-41.45 33.84,-17.36 61.43,-25.58 97.62,9.96 5.31,-15.88 17.96,-15.09 31.12,-14.74 22.48,0.58 45,0.15 69.78,0.15 -4.23,7.63 -7.07,13.16 -10.27,18.5 -57.33,95.58 -114.75,191.11 -172.03,286.73 -4.03,6.74 -8.29,13.67 -10.44,21.09 -1.76,6.06 -0.55,12.99 -0.68,19.54 6.85,-0.98 15.17,0.2 20.2,-3.34 14.88,-10.41 29.76,-21.42 42.21,-34.5 23.13,-24.27 46.01,-49.06 66.11,-75.8 12.33,-16.38 25.85,-17.96 45.88,-14.41 -14.35,18.93 -27.29,36.69 -40.97,53.86 -38.16,47.95 -77.75,94.68 -127.19,131.64 -14.09,10.53 -29.59,19.94 -45.76,26.78 -43.8,18.54 -71.9,-0.42 -72.59,-47.53 -0.03,-2.29 -0.29,-4.58 -0.58,-8.93 -10.05,9.04 -18.4,17.21 -27.43,24.53 -22.41,18.18 -46.19,33.89 -75.78,37.68 -41.25,5.27 -64.68,-16.64 -61.24,-58.08 1.33,-16.07 4.65,-31.99 7.32,-49.74 -19.01,16.65 -36.55,32.99 -55.12,48.09 -32.31,26.26 -66.31,49.89 -107.8,59.7 -61,14.42 -109.59,-24.16 -110.02,-86.89 -0.35,-48.63 19.04,-91.07 40.88,-132.83 5.23,-9.97 10.51,-19.94 16.68,-31.69 -24.02,4.23 -44.1,6.73 -57.82,31.2 -37.68,67.07 -83.74,128.31 -146.17,174.78 -21.91,16.29 -45.81,31.43 -71.08,41.43 -48.38,19.16 -90.87,-11.16 -93.52,-63.15 -2.08,-40.59 8.49,-78.42 25.93,-114.21 45.76,-93.96 109.73,-173.04 196.1,-232.81 24.45,-16.95 51.06,-29.81 81.7,-31.95 41.1,-2.88 66.81,20.77 67.7,61.89 0.68,31.35 -8.49,60.28 -19.8,88.83 -1.95,4.98 -4.05,9.89 -6.07,14.85 1.04,1.28 2.08,2.55 3.12,3.84z"/>
   <path class="fil0" d="M2302.85 70.72c-6.85,3.59 -11.71,5.85 -16.28,8.58 -72.51,43.26 -127.52,103.11 -166.25,177.77 -6.9,13.31 -11.23,28.45 -14.09,43.26 -4.53,23.52 11.8,37.91 34.41,30.09 12.77,-4.4 25.25,-11.47 35.94,-19.79 46.27,-36.05 81.96,-80.83 104.98,-134.96 13.88,-32.62 25.46,-66.06 21.29,-104.96zm-507.4 639.24c5.38,-22.67 9.39,-45.77 16.43,-67.93 19.83,-62.41 47.55,-120.28 101.2,-161.66 27.28,-21.05 56.74,-37.77 91.56,-42.28 38.16,-4.95 65.2,16.27 70.54,54.51 3.98,28.48 -0.14,56.28 -9.01,83.17 -40.41,122.32 -112.43,219.63 -227.33,281.7 -34.86,18.83 -72.99,28.31 -112.8,24.24 -60.64,-6.17 -103.14,-48.02 -116.09,-111.4 -12.49,-61.11 -1.05,-119.84 18.79,-177.29 35.42,-102.46 93.93,-191.97 159.98,-276.69 83.37,-106.93 180.73,-198.41 301.17,-262.9 45.77,-24.52 92.98,-46.04 146.17,-48.49 26.07,-1.19 50.99,2.46 73.19,18.26 3.99,2.84 11.98,2.57 17.17,0.85 56.33,-18.79 113.65,-26.43 171.78,-11.65 24.13,6.13 47.97,15.75 69.93,27.51 49.52,26.5 97.77,55.34 148.55,84.35 -24.79,22.28 -49.26,44.23 -76.1,68.34 -20.4,-12.5 -45.94,-27.32 -70.6,-43.46 -44.57,-29.17 -88.11,-60.03 -138.06,-79.84 -31.78,-12.61 -64.08,-18.83 -96.43,-8.95 -1,115.13 -56.67,200.84 -138.76,272.61 -20.25,17.69 -44.64,29.12 -72.87,28.48 -27.76,-0.61 -44.98,-17.67 -46.17,-45.34 -1.46,-33.97 12.05,-63.52 27.46,-92.41 38.03,-71.26 96.83,-122.54 162.2,-167.39 4.38,-3.02 8.72,-6.09 13.09,-9.14 -0.26,-1.66 -0.54,-3.33 -0.8,-5.02 -13.99,1.33 -29.4,-0.65 -41.67,4.63 -31.04,13.4 -62.73,27.02 -90.51,45.93 -120.15,81.83 -213.35,189.64 -292.55,310.45 -54.47,83.09 -99.2,170.56 -118.77,268.83 -4.56,22.91 -6.32,47.2 -4.22,70.4 4.95,54.73 50.54,83.41 103.27,67.28 32.04,-9.81 57.7,-29.94 81.24,-52.67 60.71,-58.54 108.49,-125.28 127.05,-209.32 3.03,-13.7 3.59,-28.48 2.17,-42.44 -1.83,-18.04 -15.18,-27.18 -31.6,-20.27 -15.41,6.48 -30.95,15.86 -42.42,27.82 -26.89,27.99 -40.73,63.65 -50.58,100.71 -2.32,8.65 -6.07,14.2 -14.74,18.22 -35.76,16.57 -66.23,40.85 -94.17,68.34 -4.06,3.99 -6.06,10.07 -9.03,15.2 -2.55,-1.75 -5.1,-3.52 -7.65,-5.28z"/>
   <path class="fil0" d="M3161.89 7.81c-73.54,140.8 -249.06,261.68 -406.49,225.08 22.45,-25 43.87,-49.03 65.58,-72.8 1.64,-1.77 5.26,-2.63 7.89,-2.5 98.22,5.02 181.52,-33.9 258.75,-89.08 25.97,-18.55 49.59,-40.38 74.27,-60.71z"/>
   <path class="fil0" d="M1787.03 228.63c-16.7,27.02 -31.28,50.97 -46.35,74.59 -1.73,2.69 -6.21,5.09 -9.46,5.15 -26.02,0.4 -52.04,0.23 -80.86,0.23 16.34,-26.71 31.26,-51.37 46.65,-75.76 1.44,-2.3 5.67,-3.98 8.62,-4.02 25.97,-0.31 51.96,-0.18 81.4,-0.18z"/>
   <polygon class="fil0" points="209.65,1015.03 209.65,1247.26 177.41,1247.26 177.41,1137.25 32.26,1137.25 32.26,1247.26 -0,1247.26 -0,1015.03 32.26,1015.03 32.26,1108.56 177.41,1108.56 177.41,1015.03 "/>
   <path class="fil0" d="M298.04 1071.47l0 175.79 -30.96 0 0 -175.79 30.96 0zm-30.01 -31.94c-3.87,-3.65 -5.79,-8.28 -5.79,-13.88 0,-5.57 1.93,-10.19 5.79,-13.87 3.87,-3.63 8.71,-5.46 14.52,-5.46 5.81,0 10.65,1.83 14.52,5.46 3.86,3.68 5.81,8.29 5.81,13.87 0,5.6 -1.96,10.23 -5.81,13.88 -3.87,3.66 -8.71,5.48 -14.52,5.48 -5.81,0 -10.65,-1.82 -14.52,-5.48z"/>
   <path class="fil0" d="M493.82 1085.5c13.1,12.15 19.66,28.44 19.66,48.85l0 112.9 -30.95 0 0 -107.09c0,-13.76 -4.09,-24.56 -12.26,-32.41 -8.18,-7.85 -19.79,-11.77 -34.85,-11.77 -10.75,0 -20.32,2.04 -28.71,6.13 -8.39,4.09 -14.89,9.62 -19.5,16.61 -4.63,6.97 -6.95,14.89 -6.95,23.7l0 104.83 -30.97 0 0 -175.79 29.34 0 0 24.19c7.32,-9.87 16.46,-17.09 27.43,-21.61 10.95,-4.5 22.67,-6.76 35.15,-6.76 21.92,0 39.45,6.07 52.58,18.22z"/>
   <path class="fil0" d="M675.73 1215.16c9.67,-5.27 17.36,-12.8 23.06,-22.59 5.68,-9.78 8.54,-20.9 8.54,-33.36 0,-12.48 -2.86,-23.55 -8.54,-33.24 -5.7,-9.66 -13.4,-17.14 -23.06,-22.41 -9.68,-5.27 -20.31,-7.9 -31.93,-7.9 -11.83,0 -22.42,2.74 -31.77,8.23 -9.36,5.46 -16.67,13.05 -21.94,22.73 -5.27,9.68 -7.89,20.55 -7.89,32.59 0,12.26 2.62,23.23 7.89,32.89 5.27,9.67 12.57,17.25 21.94,22.74 9.34,5.48 19.94,8.22 31.77,8.22 11.62,0 22.26,-2.63 31.93,-7.9zm61.6 -210.47l0 242.55 -29.34 0 0 -29.35c-7.54,10.54 -17.04,18.78 -28.54,24.7 -11.51,5.89 -24.59,8.86 -39.22,8.86 -17.18,0 -32.56,-4.03 -46.12,-12.1 -13.52,-8.06 -24.19,-19.14 -31.92,-33.21 -7.74,-14.09 -11.61,-29.73 -11.61,-46.92 0,-17.21 3.87,-32.8 11.61,-46.78 7.74,-13.99 18.4,-25 31.92,-33.06 13.56,-8.07 28.94,-12.11 46.12,-12.11 14.21,0 26.9,2.75 38.09,8.24 11.16,5.46 20.52,13.16 28.05,23.06l0 -93.88 30.95 0z"/>
   <path class="fil0" d="M950.53 1071.47l0 175.79 -29.34 0 0 -24.19c-7.32,10.1 -16.52,17.36 -27.58,21.76 -11.08,4.39 -22.63,6.61 -34.68,6.61 -13.98,0 -26.35,-2.74 -37.08,-8.22 -10.77,-5.49 -19.15,-13.27 -25.17,-23.39 -6.03,-10.09 -9.03,-21.94 -9.03,-35.47l0 -112.89 30.95 0 0 107.08c0,13.77 4.04,24.57 12.11,32.42 8.06,7.85 19.52,11.77 34.35,11.77 10.75,0 20.2,-2.04 28.39,-6.13 8.17,-4.09 14.57,-9.62 19.19,-16.6 4.63,-6.99 6.95,-14.91 6.95,-23.71l0 -104.83 30.95 0z"/>
   <path class="fil0" d="M1035.68 1216.61c12.26,4.5 24.95,6.78 38.06,6.78 13.56,0 24.39,-2.44 32.57,-7.27 8.17,-4.84 12.26,-11.12 12.26,-18.87 0,-5.59 -2.22,-9.98 -6.62,-13.23 -4.39,-3.22 -10.91,-5.58 -19.51,-7.08l-46.76 -8.4c-17.22,-3.22 -30.01,-8.86 -38.4,-16.93 -8.38,-8.07 -12.56,-18 -12.56,-29.83 0,-10.54 3.06,-19.89 9.18,-28.05 6.12,-8.18 15,-14.52 26.61,-19.04 11.62,-4.52 25.15,-6.78 40.64,-6.78 13.33,0 26.5,1.83 39.5,5.49 13.01,3.66 25,9.67 35.96,18.06l-16.45 22.89c-7.53,-6.01 -16.78,-10.84 -27.74,-14.5 -10.97,-3.66 -22.05,-5.48 -33.21,-5.48 -12.48,0 -22.75,2.32 -30.81,6.93 -8.07,4.62 -12.11,10.69 -12.11,18.22 0,5.16 2.32,9.29 6.93,12.42 4.63,3.11 12.2,5.63 22.75,7.57l43.53 7.74c17.22,3.22 29.95,8.93 38.23,17.1 8.28,8.17 12.42,18.28 12.42,30.33 0,10.95 -3.19,20.64 -9.53,29.02 -6.35,8.39 -15.31,14.95 -26.93,19.68 -11.61,4.71 -24.94,7.09 -39.99,7.09 -15.27,0 -30.81,-2.37 -46.61,-7.09 -15.82,-4.73 -28.66,-11.18 -38.55,-19.36l16.14 -24.18c8.38,6.65 18.69,12.24 30.95,16.76z"/>
   <path class="fil0" d="M1293.07 1215.96l0 27.75c-7.96,4.3 -18.61,6.45 -31.93,6.45 -20.22,0 -35.69,-5.16 -46.44,-15.48 -10.76,-10.33 -16.13,-24.52 -16.13,-42.59l0 -94.5 -30.01 0 0 -26.12 30.33 0 0 -41.61 30.65 -14.5 0 56.12 61.93 0 0 26.12 -61.93 0 0 90.63c0,10.97 3.16,19.3 9.51,25 6.35,5.7 14.89,8.54 25.64,8.54 9.68,0 19.13,-1.94 28.38,-5.81z"/>
   <path class="fil0" d="M1429.33 1210.49c12.8,-9.25 19.84,-24.09 21.12,-44.53l-45.79 0c-40,0 -59.99,10.01 -59.99,30.01 0,8.82 3.7,15.75 11.11,20.8 7.42,5.06 17.26,7.58 29.52,7.58 16.57,0 31.23,-4.63 44.02,-13.86zm74.99 9.66l0 25.82c-3.87,1.72 -8.91,2.57 -15.17,2.57 -9.67,0 -18.04,-2.47 -25.14,-7.42 -7.11,-4.93 -11.29,-12.13 -12.58,-21.6 -7.11,10.32 -16.72,18.18 -28.87,23.54 -12.15,5.37 -25.43,8.07 -39.84,8.07 -19.55,0 -35.95,-4.73 -49.18,-14.2 -13.22,-9.46 -19.84,-22.78 -19.84,-40.01 0,-17.62 7.59,-31.43 22.74,-41.45 15.17,-9.98 37.69,-14.99 67.57,-14.99l46.44 0 0 -2.26c0,-13.53 -4.56,-24.07 -13.7,-31.6 -9.14,-7.53 -21.45,-11.3 -36.93,-11.3 -9.9,0 -19.79,1.62 -29.69,4.84 -9.87,3.23 -18.48,7.86 -25.79,13.88l-17.08 -22.59c9.24,-7.94 20.41,-13.92 33.54,-17.89 13.1,-3.98 26.56,-5.97 40.31,-5.97 24.5,0 43.92,6.14 58.21,18.39 14.3,12.26 21.45,29.13 21.45,50.64l0 70.96c0,9.47 4.84,14.19 14.52,14.19 3.44,0 6.46,-0.53 9.02,-1.61z"/>
   <path class="fil0" d="M1679.47 1085.5c13.1,12.15 19.68,28.44 19.68,48.85l0 112.9 -30.97 0 0 -107.09c0,-13.76 -4.09,-24.56 -12.26,-32.41 -8.18,-7.85 -19.79,-11.77 -34.83,-11.77 -10.75,0 -20.33,2.04 -28.71,6.13 -8.39,4.09 -14.89,9.62 -19.51,16.61 -4.63,6.97 -6.95,14.89 -6.95,23.7l0 104.83 -30.96 0 0 -175.79 29.35 0 0 24.19c7.32,-9.87 16.46,-17.09 27.41,-21.61 10.97,-4.5 22.7,-6.76 35.17,-6.76 21.92,0 39.46,6.07 52.57,18.22z"/>
   <path class="fil0" d="M1900.88 1235.8c-19.68,-10.43 -35.04,-24.78 -46.12,-43.06 -11.08,-18.28 -16.62,-38.81 -16.62,-61.61 0,-22.57 5.53,-43.04 16.62,-61.44 11.08,-18.39 26.28,-32.79 45.65,-43.22 19.33,-10.43 40.95,-15.64 64.83,-15.64 17.62,0 34.18,2.84 49.67,8.55 15.48,5.7 28.05,13.83 37.73,24.34l-20.63 22.59c-8.83,-8.6 -19,-15.11 -30.48,-19.51 -11.51,-4.41 -23.62,-6.62 -36.29,-6.62 -16.99,0 -32.63,3.99 -46.94,11.94 -14.3,7.94 -25.64,18.86 -34.03,32.74 -8.38,13.86 -12.56,29.3 -12.56,46.27 0,17.21 4.19,32.74 12.56,46.61 8.39,13.86 19.83,24.74 34.35,32.59 14.52,7.85 30.59,11.77 48.23,11.77 12.67,0 24.89,-2.11 36.59,-6.3 11.73,-4.19 21.78,-10.59 30.17,-19.19l20.95 22.26c-10.11,10.95 -22.89,19.15 -38.38,24.52 -15.48,5.38 -31.92,8.07 -49.34,8.07 -24.31,0 -46.29,-5.21 -65.97,-15.65z"/>
   <path class="fil0" d="M2201.34 1214.84c9.68,-5.49 17.25,-13.1 22.73,-22.89 5.49,-9.79 8.22,-20.7 8.22,-32.74 0,-12.04 -2.73,-22.91 -8.22,-32.57 -5.48,-9.69 -13.05,-17.26 -22.73,-22.74 -9.68,-5.48 -20.33,-8.23 -31.93,-8.23 -11.62,0 -22.26,2.76 -31.92,8.23 -9.68,5.48 -17.28,13.05 -22.75,22.74 -5.48,9.67 -8.22,20.54 -8.22,32.57 0,12.04 2.74,22.95 8.22,32.74 5.48,9.79 13.07,17.4 22.75,22.89 9.67,5.49 20.3,8.24 31.92,8.24 11.61,0 22.26,-2.75 31.93,-8.24zm-80.8 24.35c-14.3,-8.17 -25.47,-19.23 -33.54,-33.23 -8.05,-13.96 -12.09,-29.55 -12.09,-46.76 0,-17.21 4.04,-32.79 12.09,-46.77 8.07,-13.99 19.25,-25 33.54,-33.06 14.3,-8.07 30.59,-12.1 48.87,-12.1 18.27,0 34.55,4.03 48.87,12.1 14.3,8.06 25.49,19.07 33.54,33.06 8.07,13.98 12.11,29.56 12.11,46.77 0,17.21 -4.03,32.79 -12.11,46.76 -8.05,13.99 -19.24,25.06 -33.54,33.23 -14.31,8.18 -30.59,12.27 -48.87,12.27 -18.28,0 -34.57,-4.09 -48.87,-12.27z"/>
   <path class="fil0" d="M2337.77 1239.51c-15.05,-7.94 -26.71,-18.91 -34.99,-32.89 -8.29,-13.98 -12.42,-29.67 -12.42,-47.11 0,-17.4 4.2,-33.15 12.58,-47.24 8.39,-14.07 20.11,-25.1 35.15,-33.06 15.06,-7.96 32.05,-11.94 50.96,-11.94 27.31,0 49.68,8.4 67.1,25.17l-18.71 22.56c-6.45,-6.23 -13.88,-11.05 -22.26,-14.5 -8.39,-3.44 -17.32,-5.16 -26.79,-5.16 -12.02,0 -23.1,2.69 -33.21,8.07 -10.11,5.37 -18.17,12.9 -24.2,22.56 -6.02,9.69 -9.03,20.77 -9.03,33.24 0,12.46 3.01,23.59 9.03,33.36 6.03,9.79 14.14,17.32 24.36,22.59 10.2,5.27 21.45,7.9 33.69,7.9 9.9,0 19.21,-1.68 27.9,-5 8.72,-3.33 15.97,-8 21.78,-14.03l18.71 21.94c-7.31,7.96 -16.83,14.2 -28.55,18.71 -11.72,4.52 -24.89,6.78 -39.51,6.78 -19.36,0 -36.57,-3.99 -51.61,-11.94z"/>
   <path class="fil0" d="M2592.09 1210.49c12.8,-9.25 19.83,-24.09 21.12,-44.53l-45.79 0c-40,0 -59.99,10.01 -59.99,30.01 0,8.82 3.7,15.75 11.12,20.8 7.42,5.06 17.25,7.58 29.51,7.58 16.57,0 31.25,-4.63 44.03,-13.86zm75.01 9.66l0 25.82c-3.9,1.72 -8.93,2.57 -15.18,2.57 -9.67,0 -18.05,-2.47 -25.14,-7.42 -7.1,-4.93 -11.29,-12.13 -12.58,-21.6 -7.1,10.32 -16.72,18.18 -28.87,23.54 -12.15,5.37 -25.43,8.07 -39.84,8.07 -19.56,0 -35.97,-4.73 -49.18,-14.2 -13.23,-9.46 -19.83,-22.78 -19.83,-40.01 0,-17.62 7.57,-31.43 22.73,-41.45 15.17,-9.98 37.69,-14.99 67.57,-14.99l46.44 0 0 -2.26c0,-13.53 -4.56,-24.07 -13.7,-31.6 -9.14,-7.53 -21.45,-11.3 -36.93,-11.3 -9.89,0 -19.79,1.62 -29.67,4.84 -9.89,3.23 -18.5,7.86 -25.81,13.88l-17.09 -22.59c9.25,-7.94 20.42,-13.92 33.54,-17.89 13.12,-3.98 26.56,-5.97 40.33,-5.97 24.5,0 43.92,6.14 58.23,18.39 14.3,12.26 21.44,29.13 21.44,50.64l0 70.96c0,9.47 4.84,14.19 14.5,14.19 3.44,0 6.46,-0.53 9.06,-1.61z"/>
   <polygon class="fil0" points="2730.63,1122.76 2721.92,1151.78 2665.47,1151.78 2674.18,1122.76 "/>
   <path class="fil0" d="M2817.87 1235.8c-19.68,-10.43 -35.05,-24.78 -46.12,-43.06 -11.08,-18.28 -16.61,-38.81 -16.61,-61.61 0,-22.57 5.53,-43.04 16.61,-61.44 11.06,-18.39 26.29,-32.79 45.64,-43.22 19.34,-10.43 40.95,-15.64 64.83,-15.64 17.64,0 34.18,2.84 49.67,8.55 15.49,5.7 28.08,13.83 37.74,24.34l-20.65 22.59c-8.82,-8.6 -18.98,-15.11 -30.48,-19.51 -11.51,-4.41 -23.6,-6.62 -36.29,-6.62 -16.97,0 -32.63,3.99 -46.92,11.94 -14.3,7.94 -25.64,18.86 -34.03,32.74 -8.38,13.86 -12.58,29.3 -12.58,46.27 0,17.21 4.2,32.74 12.58,46.61 8.39,13.86 19.83,24.74 34.35,32.59 14.52,7.85 30.59,11.77 48.23,11.77 12.67,0 24.88,-2.11 36.59,-6.3 11.72,-4.19 21.78,-10.59 30.16,-19.19l20.98 22.26c-10.12,10.95 -22.91,19.15 -38.4,24.52 -15.48,5.38 -31.92,8.07 -49.34,8.07 -24.31,0 -46.29,-5.21 -65.97,-15.65z"/>
   <path class="fil0" d="M3118.32 1214.84c9.68,-5.49 17.26,-13.1 22.74,-22.89 5.48,-9.79 8.22,-20.7 8.22,-32.74 0,-12.04 -2.74,-22.91 -8.22,-32.57 -5.48,-9.69 -13.06,-17.26 -22.74,-22.74 -9.68,-5.48 -20.32,-8.23 -31.94,-8.23 -11.61,0 -22.24,2.76 -31.92,8.23 -9.69,5.48 -17.26,13.05 -22.74,22.74 -5.49,9.67 -8.22,20.54 -8.22,32.57 0,12.04 2.73,22.95 8.22,32.74 5.48,9.79 13.05,17.4 22.74,22.89 9.68,5.49 20.31,8.24 31.92,8.24 11.62,0 22.26,-2.75 31.94,-8.24zm-80.8 24.35c-14.3,-8.17 -25.47,-19.23 -33.54,-33.23 -8.07,-13.96 -12.09,-29.55 -12.09,-46.76 0,-17.21 4.02,-32.79 12.09,-46.77 8.07,-13.99 19.25,-25 33.54,-33.06 14.31,-8.07 30.59,-12.1 48.87,-12.1 18.28,0 34.57,4.03 48.87,12.1 14.3,8.06 25.49,19.07 33.54,33.06 8.07,13.98 12.1,29.56 12.1,46.77 0,17.21 -4.03,32.79 -12.1,46.76 -8.06,13.99 -19.25,25.06 -33.54,33.23 -14.3,8.18 -30.59,12.27 -48.87,12.27 -18.28,0 -34.55,-4.09 -48.87,-12.27z"/>
   <path class="fil0" d="M3252.17 1004.7l0 199.99c0,5.59 1.56,9.72 4.67,12.41 3.12,2.7 7.26,4.02 12.42,4.02 4.3,0 9.04,-0.96 14.2,-2.9l0 28.08c-5.81,2.35 -12.48,3.53 -20.01,3.53 -12.89,0 -23.17,-3.49 -30.8,-10.48 -7.63,-6.99 -11.44,-16.5 -11.44,-28.55l0 -206.1 30.95 0z"/>
   <path class="fil0" d="M3419.4 1210.49c12.78,-9.25 19.83,-24.09 21.12,-44.53l-45.79 0c-40.01,0 -59.99,10.01 -59.99,30.01 0,8.82 3.7,15.75 11.12,20.8 7.42,5.06 17.25,7.58 29.51,7.58 16.56,0 31.24,-4.63 44.03,-13.86zm74.99 9.66l0 25.82c-3.88,1.72 -8.93,2.57 -15.17,2.57 -9.67,0 -18.06,-2.47 -25.14,-7.42 -7.1,-4.93 -11.29,-12.13 -12.58,-21.6 -7.1,10.32 -16.72,18.18 -28.87,23.54 -12.15,5.37 -25.43,8.07 -39.84,8.07 -19.57,0 -35.97,-4.73 -49.18,-14.2 -13.23,-9.46 -19.83,-22.78 -19.83,-40.01 0,-17.62 7.57,-31.43 22.73,-41.45 15.17,-9.98 37.69,-14.99 67.57,-14.99l46.44 0 0 -2.26c0,-13.53 -4.56,-24.07 -13.7,-31.6 -9.14,-7.53 -21.45,-11.3 -36.93,-11.3 -9.89,0 -19.79,1.62 -29.68,4.84 -9.89,3.23 -18.5,7.86 -25.81,13.88l-17.1 -22.59c9.24,-7.94 20.43,-13.92 33.54,-17.89 13.12,-3.98 26.56,-5.97 40.33,-5.97 24.5,0 43.91,6.14 58.21,18.39 14.31,12.26 21.45,29.13 21.45,50.64l0 70.96c0,9.47 4.84,14.19 14.5,14.19 3.44,0 6.46,-0.53 9.04,-1.61z"/>
   <path class="fil0" d="M1022.61 1531.58c8.49,-6.99 12.73,-16.5 12.73,-28.55 0,-11.6 -3.97,-20.85 -11.93,-27.75 -7.96,-6.86 -19.02,-10.3 -33.22,-10.3l-90.63 0 0 77.09 87.73 0c15.05,0 26.83,-3.49 35.32,-10.48zm-123.05 -166.28l0 72.26 77.72 0c13.78,0 23.93,-3.49 30.49,-10.48 6.54,-6.99 9.83,-15.66 9.83,-25.97 0,-10.76 -3.59,-19.4 -10.8,-25.96 -7.2,-6.56 -17.58,-9.85 -31.13,-9.85l-76.11 0zm157.08 102.91c7.74,10.51 11.61,22.78 11.61,36.76 0,12.47 -3.07,23.6 -9.19,33.38 -6.12,9.79 -15.12,17.48 -26.92,23.06 -11.84,5.6 -25.93,8.39 -42.26,8.39l-122.25 0 0 -232.23 111.93 0c14.61,0 27.19,2.63 37.72,7.89 10.55,5.28 18.57,12.48 24.06,21.63 5.48,9.13 8.21,19.38 8.21,30.78 0,9.9 -2.32,19.14 -6.93,27.74 -4.63,8.61 -11.89,15.5 -21.77,20.66 16.13,4.09 28.07,11.4 35.8,21.94z"/>
   <path class="fil0" d="M1148.25 1431.1c-10.76,9.03 -17.54,21.41 -20.34,37.11l119.36 0c-2.16,-14.85 -8.57,-27 -19.21,-36.46 -10.65,-9.47 -24.13,-14.2 -40.47,-14.2 -15.48,0 -28.61,4.53 -39.34,13.55zm129 62.58l-149.34 0c2.37,16.13 9.48,28.93 21.3,38.37 11.83,9.47 26.78,14.2 44.85,14.2 22.57,0 40.84,-6.97 54.81,-20.95l18.39 21.27c-7.31,8.18 -17.25,14.8 -29.83,19.84 -12.59,5.05 -27.15,7.59 -43.71,7.59 -19.57,0 -36.78,-3.98 -51.6,-11.94 -14.85,-7.95 -26.23,-18.91 -34.19,-32.91 -7.96,-13.98 -11.94,-29.77 -11.94,-47.41 0,-16.97 3.87,-32.5 11.61,-46.61 7.74,-14.09 18.55,-25.15 32.42,-33.21 13.87,-8.09 29.73,-12.11 47.58,-12.11 18.26,0 34.3,4.13 48.06,12.41 13.76,8.29 24.36,19.47 31.77,33.56 7.42,14.09 11.12,29.63 11.12,46.61 0,3.44 -0.43,7.21 -1.29,11.29z"/>
   <polygon class="fil0" points="1478.21,1394.01 1402.1,1569.79 1364.67,1569.79 1288.55,1394.01 1323.07,1394.01 1383.71,1541.08 1444.66,1394.01 "/>
   <path class="fil0" d="M1540.46 1431.1c-10.76,9.03 -17.54,21.41 -20.33,37.11l119.35 0c-2.16,-14.85 -8.55,-27 -19.21,-36.46 -10.65,-9.47 -24.13,-14.2 -40.46,-14.2 -15.49,0 -28.62,4.53 -39.35,13.55zm129.02 62.58l-149.34 0c2.37,16.13 9.47,28.93 21.28,38.37 11.83,9.47 26.78,14.2 44.85,14.2 22.57,0 40.84,-6.97 54.83,-20.95l18.39 21.27c-7.31,8.18 -17.26,14.8 -29.83,19.84 -12.59,5.05 -27.17,7.59 -43.72,7.59 -19.57,0 -36.76,-3.98 -51.6,-11.94 -14.85,-7.95 -26.23,-18.91 -34.18,-32.91 -7.97,-13.98 -11.95,-29.77 -11.95,-47.41 0,-16.97 3.88,-32.5 11.62,-46.61 7.74,-14.09 18.54,-25.15 32.41,-33.21 13.87,-8.09 29.73,-12.11 47.59,-12.11 18.26,0 34.29,4.13 48.05,12.41 13.76,8.29 24.36,19.47 31.78,33.56 7.4,14.09 11.1,29.63 11.1,46.61 0,3.44 -0.43,7.21 -1.27,11.29z"/>
   <path class="fil0" d="M1814.3 1393.37l0 29.02c-6.02,-1.29 -12.05,-1.94 -18.05,-1.94 -16.98,0 -30.92,4.58 -41.77,13.7 -10.87,9.16 -16.29,21.99 -16.29,38.56l0 97.08 -30.98 0 0 -175.79 29.37 0 0 27.41c6.43,-10.33 15.18,-17.9 26.28,-22.73 11.06,-4.85 22.3,-7.27 33.71,-7.27 6.66,0 12.58,0.64 17.74,1.94z"/>
   <path class="fil0" d="M1939.93 1533.03c12.78,-9.25 19.84,-24.08 21.13,-44.51l-45.8 0c-40.01,0 -60,10 -60,29.99 0,8.82 3.71,15.77 11.14,20.81 7.41,5.05 17.25,7.57 29.51,7.57 16.56,0 31.23,-4.61 44.03,-13.86zm74.99 9.68l0 25.81c-3.87,1.72 -8.93,2.58 -15.17,2.58 -9.66,0 -18.05,-2.48 -25.15,-7.42 -7.09,-4.94 -11.27,-12.15 -12.56,-21.62 -7.1,10.33 -16.74,18.18 -28.89,23.56 -12.15,5.37 -25.42,8.06 -39.82,8.06 -19.57,0 -35.97,-4.73 -49.2,-14.2 -13.22,-9.44 -19.83,-22.78 -19.83,-39.99 0,-17.63 7.59,-31.43 22.74,-41.45 15.17,-10 37.68,-15.01 67.57,-15.01l46.45 0 0 -2.24c0,-13.55 -4.59,-24.07 -13.71,-31.61 -9.14,-7.52 -21.45,-11.29 -36.93,-11.29 -9.9,0 -19.79,1.61 -29.67,4.84 -9.89,3.22 -18.5,7.85 -25.81,13.88l-17.1 -22.59c9.25,-7.95 20.42,-13.92 33.54,-17.9 13.12,-3.98 26.55,-5.96 40.31,-5.96 24.52,0 43.93,6.13 58.24,18.38 14.28,12.26 21.44,29.15 21.44,50.66l0 70.95c0,9.47 4.84,14.19 14.52,14.19 3.44,0 6.45,-0.54 9.03,-1.61z"/>
   <path class="fil0" d="M2154.09 1527.06c9.36,-4.62 16.76,-11.27 22.26,-19.98 5.49,-8.72 8.22,-19 8.22,-30.81 0,-11.6 -2.73,-21.82 -8.22,-30.64 -5.49,-8.82 -12.95,-15.64 -22.42,-20.49 -9.46,-4.83 -19.89,-7.24 -31.28,-7.24 -11.4,0 -21.66,2.48 -30.81,7.41 -9.14,4.96 -16.28,11.84 -21.44,20.65 -5.16,8.82 -7.74,18.93 -7.74,30.33 0,11.4 2.58,21.45 7.74,30.16 5.16,8.71 12.3,15.48 21.44,20.31 9.15,4.84 19.41,7.27 30.81,7.27 11.62,0 22.09,-2.32 31.45,-6.95zm61.12 -133.05l0 159.34c0,15.7 -3.92,29.41 -11.77,41.13 -7.85,11.72 -18.82,20.74 -32.89,27.08 -14.1,6.34 -30.29,9.53 -48.55,9.53 -28.18,0 -53.12,-5.59 -74.84,-16.78l11.61 -26.12c19.79,10.32 40.75,15.48 62.91,15.48 18.71,0 33.81,-4.56 45.3,-13.7 11.51,-9.14 17.27,-21.65 17.27,-37.58l0 -20c-7.32,9.46 -16.41,16.78 -27.26,21.94 -10.86,5.16 -23.27,7.74 -37.25,7.74 -17.21,0 -32.53,-3.7 -45.97,-11.12 -13.44,-7.42 -23.87,-17.69 -31.28,-30.81 -7.42,-13.1 -11.14,-27.74 -11.14,-43.86 0,-16.12 3.72,-30.81 11.14,-44.02 7.42,-13.23 17.85,-23.6 31.28,-31.13 13.44,-7.52 28.76,-11.27 45.97,-11.27 14.41,0 27.19,2.84 38.38,8.54 11.18,5.7 20.43,13.7 27.74,24.02l0 -28.38 29.35 0z"/>
   <path class="fil0" d="M2305.52 1431.1c-10.76,9.03 -17.54,21.41 -20.33,37.11l119.35 0c-2.16,-14.85 -8.56,-27 -19.21,-36.46 -10.64,-9.47 -24.13,-14.2 -40.46,-14.2 -15.49,0 -28.61,4.53 -39.35,13.55zm129.02 62.58l-149.35 0c2.37,16.13 9.47,28.93 21.29,38.37 11.83,9.47 26.78,14.2 44.84,14.2 22.58,0 40.85,-6.97 54.83,-20.95l18.39 21.27c-7.32,8.18 -17.26,14.8 -29.83,19.84 -12.59,5.05 -27.17,7.59 -43.71,7.59 -19.58,0 -36.79,-3.98 -51.61,-11.94 -14.85,-7.95 -26.24,-18.91 -34.18,-32.91 -7.98,-13.98 -11.94,-29.77 -11.94,-47.41 0,-16.97 3.87,-32.5 11.61,-46.61 7.74,-14.09 18.54,-25.15 32.42,-33.21 13.87,-8.09 29.72,-12.11 47.58,-12.11 18.26,0 34.29,4.13 48.05,12.41 13.75,8.29 24.36,19.47 31.77,33.56 7.42,14.09 11.14,29.63 11.14,46.61 0,3.44 -0.43,7.21 -1.29,11.29z"/>
   <path class="fil0" d="M2503.55 1539.16c12.26,4.51 24.95,6.77 38.08,6.77 13.53,0 24.39,-2.43 32.56,-7.25 8.18,-4.84 12.26,-11.14 12.26,-18.87 0,-5.59 -2.21,-10 -6.62,-13.23 -4.41,-3.22 -10.91,-5.59 -19.51,-7.09l-46.76 -8.39c-17.22,-3.22 -29.99,-8.86 -38.4,-16.93 -8.38,-8.07 -12.58,-18.01 -12.58,-29.84 0,-10.54 3.08,-19.87 9.19,-28.05 6.13,-8.18 15,-14.52 26.61,-19.04 11.6,-4.52 25.17,-6.77 40.64,-6.77 13.33,0 26.5,1.82 39.52,5.48 13.01,3.66 24.99,9.68 35.95,18.07l-16.46 22.9c-7.52,-6.02 -16.76,-10.86 -27.74,-14.52 -10.95,-3.66 -22.03,-5.48 -33.22,-5.48 -12.47,0 -22.73,2.32 -30.8,6.95 -8.06,4.62 -12.09,10.69 -12.09,18.21 0,5.16 2.3,9.3 6.93,12.42 4.63,3.12 12.2,5.64 22.74,7.57l43.52 7.75c17.21,3.22 29.95,8.91 38.23,17.08 8.28,8.17 12.42,18.29 12.42,30.33 0,10.97 -3.17,20.64 -9.51,29.02 -6.35,8.39 -15.32,14.95 -26.94,19.69 -11.61,4.72 -24.95,7.08 -39.98,7.08 -15.28,0 -30.82,-2.36 -46.63,-7.08 -15.79,-4.74 -28.65,-11.19 -38.53,-19.37l16.14 -24.18c8.38,6.67 18.71,12.26 30.95,16.78z"/>
  </g>
 </g>
</svg>
