<svg xmlns="http://www.w3.org/2000/svg" viewBox="0 0 151.26 72"><defs><style>.cls-1{fill:#93824d;}.cls-1,.cls-2{fill-rule:evenodd;}.cls-3{fill:#3d3935;}.cls-4{fill:#fff;}.cls-5{isolation:isolate;font-size:11.04px;font-family:Montserrat-Bold, Montserrat;font-weight:700;letter-spacing:0.24em;}</style></defs><g id="Layer_2" data-name="Layer 2"><g id="svg4403"><g id="Isolation_Mode" data-name="Isolation Mode"><path class="cls-1" d="M6.67,50.54l.22-6.44L8.67,45V55.65H6.89l-.22-5.11ZM106.44,39l-1.33-.67s3.33-14,4.89-17.33l.44,3.78Z"/><path class="cls-1" d="M100.89,37l1.55,1.78L107.77,41c.22,0-1.11-2.22-1.11-2.22ZM32.22,18.1l-1.33,2V43.65l.67.23,1.56.67a13.35,13.35,0,0,1-2,1.11,61,61,0,0,0-8.23,4.67l-1.77-.89s3.77-2.44,5.11-3.11c1.11-.67,5.33-2.44,5.33-2.44L28.89,43V19.67a17.12,17.12,0,0,1,1.78-2.44,8.39,8.39,0,0,1,1.55.87Zm-13.1-3.78.22,30.89a15.43,15.43,0,0,1-2,6.89c-2.45,4-5.33,6.66-10,9.55-2,.67-3.56.89-5.11-.22A4.48,4.48,0,0,1,.45,58.1s0,2,3.33,2.45c1.78.21,6.67-3.33,7.78-4.45,0,0,6-5.55,6-10.67V13.66l1.77-2.89,1.11,1.55-1.32,2Zm20.44,26,2,.67s-4,1.78-6.89,2.89A9.68,9.68,0,0,1,33.12,43l6.44-2.67-2.22-.67V23.21l2.22,4.89V40.32ZM44.22,26.1,39.34,14.32l2,.45L45.11,23l-.89,3.11ZM55.78,12.77V35.21l2,1.11a34.28,34.28,0,0,0-4.89,1.12L48,38.77l-1.55-.89s3.11-1.11,4.88-1.56c1.56-.44,4.67-1.11,4.67-1.11l-2.67-.89V11.88l2.45-1.77,1.55,1.11-1.55,1.55ZM48,28.1,45.12,37l-1.56-.66L48,22.09v6Zm36-6.89c-.67-4.22-2.89-4.89-5.11-6a16.71,16.71,0,0,0,3.33-2A8.37,8.37,0,0,0,83.11,5C82,2.76,78.44,1,78.44,1s2.67.88,3.33,5.33a7.28,7.28,0,0,1-4.89,7.77l2,1.33s3.33,2.89,3.56,6c0,4.23-.22,6-2.45,9.56a11.05,11.05,0,0,1-7.11,2.89l-11.33.66,1.56,1.12s8.22-.23,12.22-.45a11.55,11.55,0,0,0,4.88-1.55C84,31,85.11,26.32,84,21.21Zm-8.67-16c.23-4-5.55-2.67-5.55-2.67V12.76h2V4.33S74.45,4.11,75.33,5.21Z"/><path class="cls-1" d="M69.78,15.44v16s.67.44,2.22-.23V16.77s1.78.22,3.11.44C75.11,17.21,74.89,15.21,69.78,15.44Zm31.11-2.89v6.67l-1.78-1.33V11.44ZM96,25.44V17.88L97.55,19v7.56Zm-4-3.12h1.56l2.21,2.89-2-1.77v9.78L92,33ZM91.78,12.1l4.44.67,1.11,1.77-3.77-.67v6.67l-1.78-.44v-8Z"/><path class="cls-1" d="M99.11,36.55,99.32,29l1.78,1.56v7.77a152.11,152.11,0,0,0-14.89-3.11l-2.67-1.33s10.68.67,15.57,2.67Zm16.22,7.55c1.33.67,6.67,4,6.67,4l-.89-2.23C119.78,37.43,117.78,19,117.78,19l-2.22-2.23L118.67,43l2.44,2.89s-4.67-2.67-5.78-3.11c-.67-.23-5.11-2.23-5.11-2.23L112,42.76l3.33,1.34ZM136,36.77v5.55l-2.89,7.33-1.77-1.33,4.44-11.55Zm-8.89-4,1.33,5.11V50.1l1.12,3.11-6.66-4.67a12.12,12.12,0,0,0-.67-2.22l6,3.77-1.33-2.67V33Zm6.45-.67-.89,2-3.33-11.78,2.22,1.78Zm9.55,29.11V32.77l2.45.22a3.9,3.9,0,0,1-.67-.89l-.89-.66H141.1v26l2,3.56s-3.55-3.77-3.33-3.56c0,0-3.55-2.44-3.33-2.22l-2.67-1.56,1.78,2.89a22,22,0,0,0,2,1.56s3.33,2.66,3.11,2.44L144,63.43Z"/><path class="cls-2" d="M141.33,31.44h2.89a3.34,3.34,0,0,1-.67-.45l-6.45-4.22a7.84,7.84,0,0,0-.88-.67l-3.56,8-3.33-11.78-5.78-2.66-.89-.23,1.78,2.44v24l-2.23.45a22.6,22.6,0,0,1,2.89,2l3.33,2-1.56-2.89V32.54l4.45,15.78,4.44-11.56V53.43l-2,.22a39.14,39.14,0,0,1,4,2.89l3.33,2.67,2.22,2-2-3.78,0-26ZM115.55,16.77l-1.78-.67c-2.88-1.11-7.33-2.44-7.33-2.44l2,1.77c-2.22,6.67-6,21.11-6,21.11l-1.55.44,5.55,2.45a2.31,2.31,0,0,1,.67.22l-1.55-2.23.66-3.11,5.56,2,.44,3.77-2,.45a.81.81,0,0,0,.45.22,57.45,57.45,0,0,1,7.11,3.33c1.33.67,3.11,1.78,3.11,1.78l-1.55-2.67c-1.35-8.42-3.79-26.42-3.79-26.42Zm-8.44,14.88s1.77-7.11,2.66-10.44l1.56,12-4.22-1.56ZM92.22,32.77V22.32h1.33L96,25.44V17.88l-2.22,2.44L92,20.1V12.32l4.23.67,2.89,4.88.21-6.44S89.55,9.66,84.21,9.21l2,1.77V33l-2.88.89h1.11l12.88,2.44,2,.44V29a54.87,54.87,0,0,1-3.11,4.67,39.71,39.71,0,0,1-4-.88ZM77.11,14.1a10.7,10.7,0,0,0,3.33-2.23,8.63,8.63,0,0,0,1.11-8C80.22,1.65,79.11.76,76,.1,71.33-.13,61.33.1,61.33.1l2.88,1.33V32.54l-2.66,2s8.22-.44,12.22-.67c2,0,3.11-.67,4.89-1.33,4-2.89,4.44-8,3.78-12.67-1.11-4-3.11-4.43-5.33-5.77ZM70.22,2.54a1.48,1.48,0,0,0,1.11,0c1.56.23,3.12,0,3.78,1.56.67,2,.88,5.33-.67,7.33-1.11,1.33-4.22,1.11-4.22,1.11v-10ZM74.89,29a3.54,3.54,0,0,1-2.67,2l-2,.45V15.66s4-.23,4.89,1.55C76.66,20.1,76.45,26.54,74.89,29ZM53.33,11.88l2.45-1.77c-2.45.44-7.56,2-7.56,2L44,25.44,39.33,14.32l-6.66,2.23,2.22.67V40.55S32.67,43,33.12,43l6.44-2.67-2-.88V23.66l6,12.67L48,22.56V35.89l-1.55,2,4.88-1.56C52,36.1,56,35.22,56,35.22l-2.67-.89V11.88ZM29.11,19.21l1.56-2s-4.67,2-5.12,2c-.22,0-4.44,2.23-4.44,2.23l2,.22V46.55a27.92,27.92,0,0,0-2,2.88c2.89-1.33,5.56-3.33,8.44-4.66.45-.23,2-.89,2-.89L29.11,43V19.21Zm-9.77-8.44L8.45,16.55h2.67V43.66c-.23,2.89.22,6-.67,8.67A6.14,6.14,0,0,1,8,55.22c-.23.22-1.12.44-1.12-.23V44.1S2,47.88.23,49.43L0,56.1a5,5,0,0,0,1.11,3.56c1.56,1.11,3.11,1.11,5.11.22a26.6,26.6,0,0,0,10.22-9.56A13.43,13.43,0,0,0,18,43.65V13.44Z"/><path class="cls-3" d="M151.26,57.38c.05,3.49-5.44,3.49-5.39,0s5.44-3.5,5.39,0"/><path class="cls-4" d="M150.62,57.38c.07-2.73-4.18-2.73-4.11,0s4.18,2.72,4.11,0"/><path class="cls-3" d="M149.18,57.6l.6,1.21h-.73l-.52-1.11h-.3v1.11h-.64V55.94h1.16a.87.87,0,0,1,.43,1.66"/><path class="cls-4" d="M149.07,56.84c0-.42-.55-.38-.84-.37v.75c.29,0,.86,0,.84-.38"/><text class="cls-5" transform="translate(49.26 57.7)">SINCE</text><text class="cls-5" transform="translate(55.75 69.06)">1795</text></g></g></g></svg>