<svg xmlns="http://www.w3.org/2000/svg" viewBox="0 0 96.88 72"><defs><style>.cls-1{font-size:9.32px;font-family:TimesNewRomanPS-BoldMT, Times New Roman;font-weight:700;}</style></defs><g id="Layer_2" data-name="Layer 2"><g id="svg4403"><path d="M28.73,16.19l.2-.08.85-.37a1.14,1.14,0,0,0,.67-1.35A9.35,9.35,0,0,0,30,12.84,3.6,3.6,0,0,1,29.75,11a6.49,6.49,0,0,1,.19-.76A.94.94,0,0,1,30,10.1a.75.75,0,0,0-.32-1,5.34,5.34,0,0,1-.48-.35,1.3,1.3,0,0,1-.28-.34.81.81,0,0,1,.15-1.11A1.91,1.91,0,0,1,29.59,7a3,3,0,0,0,1.78-2.38c.09-.6.12-1.2.19-1.8a2.38,2.38,0,0,1,.06-.37A.55.55,0,0,1,32.18,2c.23,0,.47,0,.7,0l.44-.08a5.66,5.66,0,0,1,.56-.13.9.9,0,0,1,1,.63,3.75,3.75,0,0,1,.16.81,6.45,6.45,0,0,1,0,.76,1,1,0,0,0,0,.16h.25A4.31,4.31,0,0,0,35.44,3,2.41,2.41,0,0,1,37.3.64a3.36,3.36,0,0,1,2.58.23,2.14,2.14,0,0,1,.68.55,1.57,1.57,0,0,1,.25,1.28,11.15,11.15,0,0,1-.5,1.68,4.08,4.08,0,0,0-.16.6.59.59,0,0,0,.27.67,6.59,6.59,0,0,0,.83.44,3.23,3.23,0,0,1,1.33,1.07A4.19,4.19,0,0,0,46.2,9c.3,0,.61-.07.92-.1.08.38.17.78.23,1.18a4.71,4.71,0,0,1,0,.84,1.69,1.69,0,0,1-.37.88,6,6,0,0,0-.92,1.87l-.48,1.45a.15.15,0,0,0,0,.18A1.19,1.19,0,0,1,46,16a.86.86,0,0,1-.53.84.7.7,0,0,1-.35,0c-.27-.07-.54-.17-.81-.26a.11.11,0,0,0-.14.05,4.58,4.58,0,0,1-2.92,1.95.77.77,0,0,0-.53.36c-.27.45-.53.92-.79,1.38a.24.24,0,0,0,0,.18,4.78,4.78,0,0,1,.47,1.17,2.87,2.87,0,0,1-1,2.92,4,4,0,0,1-4.8.42,3.33,3.33,0,0,1-.93-.94,2.08,2.08,0,0,1-.24-1.92l.15-.4a.49.49,0,0,1,.31-.32c.26-.1.53-.18.79-.27a.1.1,0,0,1,.09,0c.19.2.19.2.06.44l-.37.68.93.65q.73.53,1.47,1.08a.89.89,0,0,0,1,.1,2.39,2.39,0,0,0,.94-.9l-.58-.1q-.45-.09-.9-.21A1,1,0,0,1,37,22.7a.41.41,0,0,1-.08-.64.86.86,0,0,1,.13-.14,4.29,4.29,0,0,0,.85-1l.33-.44-1-.38a20.18,20.18,0,0,1-3.46-1.62,26.11,26.11,0,0,1-2.48-1.72,1.46,1.46,0,0,0-1.46-.28,1.45,1.45,0,0,1-.47,0,4.73,4.73,0,0,1-.53,0s-.07,0-.09-.08a1,1,0,0,1-.06-.18Zm7.48-4.31c.31.73.61,1.47.93,2.2A7.87,7.87,0,0,0,38,15.61a1.55,1.55,0,0,0,1.16.7,3.69,3.69,0,0,0,1.68-.26c.8-.32.78-1.15.29-1.79l-.42.3a3.87,3.87,0,0,1-.34.21.53.53,0,0,1-.54,0,.87.87,0,0,1-.06-1.4,1.62,1.62,0,0,1,2.21.23,2.43,2.43,0,0,1,.33,2.64,8.68,8.68,0,0,1-.52.87l.27.2,3.89-5.12L45.78,12c-.87-.79-1.73-1.59-2.6-2.37a6.62,6.62,0,0,0-.7-.59.71.71,0,0,0-.64-.15,1.94,1.94,0,0,0-.58.28c-.33.24-.63.52-1,.78a8.86,8.86,0,0,1-2.81,1.58C37.07,11.67,36.64,11.76,36.21,11.88ZM37,5.4V5.35l-.35-.56A.58.58,0,0,0,36,4.52l-.32.09a2,2,0,0,1-.85.12.49.49,0,0,0-.44.2,10.21,10.21,0,0,1-1.23,1.23,7.4,7.4,0,0,0-.89.88,11.64,11.64,0,0,0-1.4,2.28s0,0,0,0h3.65l.09-1.57.07.14c.12.28.25.57.38.85.27.58.54,1.17.83,1.75a1,1,0,0,0,1.44.53,9.37,9.37,0,0,0,2-1.08A19.94,19.94,0,0,1,41.52,8.5,2.83,2.83,0,0,0,42,8.18a.49.49,0,0,0,.08-.81c-.24-.27-.51-.5-.78-.76l-.08.14L40.35,8.3a.66.66,0,0,1-.4.35l-2.33.82a.17.17,0,0,1-.12,0l-.7-.86a1.33,1.33,0,0,1-.3-1,1.76,1.76,0,0,0-1-1.85l-.18-.1ZM39.85,14l.19.23a.52.52,0,0,0,.15-.07l.62-.31a.5.5,0,0,1,.69.17A1.68,1.68,0,0,1,41,16.58a2.9,2.9,0,0,1-2.36.09,2.11,2.11,0,0,1-1.27-1.09c-.08-.18-.18-.35-.26-.54-.45-1-.88-2.11-1.33-3.17-.15-.35-.31-.7-.47-1a.58.58,0,0,0-.43-.33c-.45-.09-.9-.22-1.35-.28A3.07,3.07,0,0,0,31,11a2.2,2.2,0,0,0-.53.71.43.43,0,0,0,0,.45c.12.19.23.38.36.55a1,1,0,0,0,.59.41,8.3,8.3,0,0,1,4.09,2.26A6.19,6.19,0,0,0,38.22,17a4.84,4.84,0,0,0,2.14.17A2,2,0,0,0,42.1,15a1.27,1.27,0,0,0-.43-1c-.22-.19-.46-.34-.69-.52a.31.31,0,0,0-.38,0ZM36.94,3.87,37,3.72A.94.94,0,0,1,37.87,3a3.53,3.53,0,0,1,.46,0c.24,0,.48.05.72,0a.84.84,0,0,0,1-.87.31.31,0,0,1,.18-.33,0,0,0,0,1,0,0A3.12,3.12,0,0,0,38.24,1a2.39,2.39,0,0,0-2.36,1.84.71.71,0,0,0,.33.8A1.66,1.66,0,0,0,36.94,3.87ZM39.46,22a2.16,2.16,0,0,1-.26,1.44,2.49,2.49,0,0,1-1.5,1.29,1,1,0,0,1-.9-.14,8.37,8.37,0,0,0-1-.57,1.92,1.92,0,0,1-.76-.68.23.23,0,0,0-.25-.13.9.9,0,0,1-.94-.62c0-.12-.09-.24-.13-.37h0a6.77,6.77,0,0,0,0,.78,2.08,2.08,0,0,0,.79,1.36,3.59,3.59,0,0,0,4.69-.21,2.57,2.57,0,0,0,.84-2.19A2.51,2.51,0,0,0,38.78,20a1.21,1.21,0,0,0-.87-.15L39,20.4l-.93,1.12c.06.1.13.09.21,0s.32-.21.49-.32l.12.11-.57,1.09,0,0ZM37.59,8.81,39,8.41a1.79,1.79,0,0,0,1.21-1.26.39.39,0,0,0,0-.26,1.26,1.26,0,0,0-.72-.64,8.63,8.63,0,0,0-1.82-.36.49.49,0,0,0-.52.22,2.19,2.19,0,0,0-.16.3.19.19,0,0,0,0,.15C37.18,7.3,37.38,8.05,37.59,8.81Zm2.55,10.35-6-3.89c0,.29-.08.56-.11.83,0,0,0,.09.07.1l.67.2a1.75,1.75,0,0,1,.78.47c.45.44.9.87,1.38,1.27a3.26,3.26,0,0,0,1.85.8,7.12,7.12,0,0,0,.8,0c.16,0,.18,0,.15.16l-.06.33c0,.18,0,.18.16.23ZM40.05,3.31l-.24.07L37.6,4a.18.18,0,0,0-.12.08,1.19,1.19,0,0,0,.22,1.15,1.09,1.09,0,0,0,1.85-.31l0-.1Zm2.61,5.26,2.8,2.68.4-1.6-.16-.07L42.94,8.46C42.8,8.4,42.72,8.41,42.66,8.57ZM40.35,18v0c.27,0,.54,0,.81,0a2.27,2.27,0,0,0,1.6-.64,6.78,6.78,0,0,0,.66-.76l2.63-3.7a.25.25,0,0,0,0-.09l-.1.08-.68.62a4,4,0,0,0-1.15,1.57,4.41,4.41,0,0,1-2.34,2.46A5.83,5.83,0,0,1,40.35,18Zm-5.41-1-.07,0-2.69-.42c-.27,0-.27,0-.35.19v0l2.33,1.58.28-.41-1.37-.75.07-.17,1.77.16a.44.44,0,0,0,0-.1A.19.19,0,0,0,34.94,17ZM32.81,5.64a1.09,1.09,0,0,0,.65-.95A3.88,3.88,0,0,0,33,3.15l-1.14.91c0,.14.12.21.27.17l.2,0,.49,0Zm1.08,8.88,0,0-2.18-.77a4.53,4.53,0,0,0,.65,1.21.52.52,0,0,0,.74.16A8.26,8.26,0,0,0,33.89,14.52Zm12.7-3.09c.11-.12.21-.23.32-.33a.49.49,0,0,0,.15-.41c0-.28-.06-.56-.11-.84s-.05-.28-.36-.26c-.11.33-.23.68-.34,1a.44.44,0,0,0,0,.4ZM30.41,8.85l0,0-.54-.92.73-.41-.2-.4-1.13.72a.18.18,0,0,0,0,.11.67.67,0,0,0,0,.2.16.16,0,0,0,.07.11C29.69,8.45,30.05,8.65,30.41,8.85Zm6.31,9.81-2-.24v0l.62.41a3.26,3.26,0,0,0,.48.27c.51.24.75.11.88-.43Zm-3.58-2.61L31.31,14.9C31.44,15.71,32.64,16.34,33.14,16.05Z"/><path d="M68.15,16.27c0,.19-.13.21-.28.24a1.79,1.79,0,0,1-.89,0,1.54,1.54,0,0,0-1.33.25c-.31.22-.61.48-.9.72a13.08,13.08,0,0,1-3.52,2.05c-.79.32-1.6.59-2.4.89l-.19.07L60,22.41a3.91,3.91,0,0,1-.86.61,3.21,3.21,0,0,1-1.12.06,2.29,2.29,0,0,0,.76.92.63.63,0,0,0,.62.05,3.94,3.94,0,0,0,.72-.41,6.87,6.87,0,0,1,1.18-.74l1.1-.55-.51-.89a1,1,0,0,1,1.46.24,1.7,1.7,0,0,1,.21,1.37,3,3,0,0,1-2,2.21,4.15,4.15,0,0,1-3.95-.58,2.77,2.77,0,0,1-1.07-3.21,8.79,8.79,0,0,1,.4-1.08.24.24,0,0,0,0-.23c-.23-.4-.47-.81-.69-1.21a.89.89,0,0,0-.47-.41c-.33-.14-.65-.3-1-.43a5.45,5.45,0,0,1-2-1.44l-.38-.42-.22.26a3.26,3.26,0,0,1-.31.33.25.25,0,0,1-.31,0,2.63,2.63,0,0,1-.49-.33.33.33,0,0,1-.08-.22,3.68,3.68,0,0,1,.22-1.18.71.71,0,0,0-.06-.55c-.47-.92-.92-1.85-1.37-2.77a3.32,3.32,0,0,1-.25-2.08c0-.28.07-.56.1-.85l.74.06A4.11,4.11,0,0,0,54.26,7.2a3,3,0,0,1,1.26-1c.22-.11.44-.2.66-.32a.92.92,0,0,0,.5-1.25c-.08-.29-.21-.57-.31-.86a5.57,5.57,0,0,1-.28-1.62,1.15,1.15,0,0,1,.35-.77A2.54,2.54,0,0,1,58,.52a2.81,2.81,0,0,1,2.07.3,2.68,2.68,0,0,1,1.35,2.27c0,.18,0,.35,0,.53s.07.35.1.53h.28l0-.55c0-.35.07-.69.11-1a.32.32,0,0,1,0-.09.89.89,0,0,1,1.1-.71c.19,0,.36.11.54.14s.4,0,.59.06.38,0,.57.06a.5.5,0,0,1,.45.43c.06.36.09.72.13,1.08.07.51.11,1,.22,1.53a2.59,2.59,0,0,0,1.57,1.86,2.51,2.51,0,0,1,.55.33.89.89,0,0,1,.17,1.27,3.59,3.59,0,0,1-.52.51c-.08.07-.18.12-.27.19a.69.69,0,0,0-.24.85,6.64,6.64,0,0,1,.25.87,3.47,3.47,0,0,1-.3,2,5.43,5.43,0,0,0-.41,1.63A1,1,0,0,0,67,15.67c.37.18.76.33,1.14.49Zm-7-10.72h0c0,.07-.09.14-.14.2-.17.23-.36.46-.51.7a.48.48,0,0,0-.07.31,1.62,1.62,0,0,1-.11,1c-.12.25-.27.49-.4.74s-.29.55-.42.83a1.62,1.62,0,0,0-.09.35l-.33-.2a3.19,3.19,0,0,0-.84-.38,5.81,5.81,0,0,1-.88-.32,2.56,2.56,0,0,1-1.46-1.61.78.78,0,0,0-.43-.48c-.22.23-.47.45-.67.7s-.22.58.11.84l.06,0,3.37,2.16a6.28,6.28,0,0,0,1.3.64A1.12,1.12,0,0,0,61,10.67a3.18,3.18,0,0,0,.28-.43A8.28,8.28,0,0,0,62,8.58l.21-.6.21,0V9.38h3.68s0,0,0,0S66,9.1,65.88,9a9.17,9.17,0,0,0-1.49-2.25c-.28-.29-.6-.54-.88-.83s-.74-.82-1.1-1.23a.13.13,0,0,0-.18,0,1.27,1.27,0,0,1-.88,0,4.56,4.56,0,0,0-.64-.14.38.38,0,0,0-.38.11l-.45.69c.27.07.5.15.74.19A4.89,4.89,0,0,0,61.16,5.55ZM60.67,12l-.94-.33A7.89,7.89,0,0,1,57,10.23c-.52-.42-1.09-.79-1.65-1.17a.85.85,0,0,0-1.17.09l-.15.13-2.41,2.24c-.24.22-.48.44-.72.68.2.23.39.45.59.66A10.81,10.81,0,0,1,53.13,15a7.16,7.16,0,0,0,.53.82A4,4,0,0,0,54.88,17l.26.12a.44.44,0,0,0-.1-.16,2.54,2.54,0,0,1-.36-3,1.58,1.58,0,0,1,1.58-.9.85.85,0,0,1,.75.4,3.93,3.93,0,0,1,.26,1.1l-.53,0a1.2,1.2,0,0,1-1-.25h0a1.79,1.79,0,0,0-.18,1.16.87.87,0,0,0,.54.72,3.28,3.28,0,0,0,.8.22,2.26,2.26,0,0,0,2.27-1.13c.32-.61.62-1.23.92-1.85C60.25,12.94,60.45,12.47,60.67,12ZM57,14c-.18-.16-.34-.31-.52-.45a.53.53,0,0,0-.28-.12,1.44,1.44,0,0,0-1.31.78,2.11,2.11,0,0,0,.15,2,1.54,1.54,0,0,0,.81.72,4.84,4.84,0,0,0,2.82.12,5.15,5.15,0,0,0,1.83-1c.73-.57,1.46-1.16,2.2-1.71a7,7,0,0,1,2.7-1.27,3,3,0,0,0,.52-.12,1.09,1.09,0,0,0,.64-.95.76.76,0,0,0-.19-.61,3.23,3.23,0,0,0-2-1.23,4.77,4.77,0,0,0-1.46,0,1.93,1.93,0,0,0-1.79,1.56,13.61,13.61,0,0,1-1.43,3.44,4.52,4.52,0,0,1-.55.82,2.8,2.8,0,0,1-3.16.51,1.74,1.74,0,0,1-1-1.74,1.44,1.44,0,0,1,.52-1,.5.5,0,0,1,.72,0,5.14,5.14,0,0,1,.41.4l.14.15Zm3-9.85.66-.59A.8.8,0,0,0,61,2.86a1.79,1.79,0,0,0-.59-1.18A2.25,2.25,0,0,0,58.53,1a3.18,3.18,0,0,0-1.49.6.48.48,0,0,0-.24.57,1.06,1.06,0,0,0,.92.94,2.91,2.91,0,0,0,1,0,.88.88,0,0,1,1,.5,4.61,4.61,0,0,1,.22.51S60,4.13,60,4.18Zm-.92,15.6v0H59a2.22,2.22,0,0,0-1.76,1,2.61,2.61,0,0,0,.55,3.46,3.55,3.55,0,0,0,2.56.81A3.28,3.28,0,0,0,62,24.57a2.17,2.17,0,0,0,1.09-1.52,1.45,1.45,0,0,0,0-.62L63,22.5l-1.13.95a2.28,2.28,0,0,1-1,.59l0,0a2.75,2.75,0,0,0-.9.57.22.22,0,0,1-.29.05l-.48-.21a6.57,6.57,0,0,1-1.39-.79A1.31,1.31,0,0,1,57.47,22l1.08.47,0,0-.63-1.08c.16-.14.16-.14.32,0l.55.42.1-.13-1.06-1.22.63-.31ZM57.9,6.2a1.55,1.55,0,0,0-.82.14.83.83,0,0,0-.25,1.29,2,2,0,0,0,.26.25,3.59,3.59,0,0,0,1.63.81.45.45,0,0,0,.49-.17,6,6,0,0,0,.42-.69A3,3,0,0,0,60,6.48a.57.57,0,0,0-.85-.56l-.05,0A2.21,2.21,0,0,1,57.9,6.2Zm4.87,9.06-5.52,3.57a3.48,3.48,0,0,0,1.2,0,3.2,3.2,0,0,0,2-1.09A6.18,6.18,0,0,1,62,16.49q.41-.22.78-.48s.09-.07.08-.1C62.85,15.7,62.81,15.49,62.77,15.26ZM56.86,3.39c.15.49.29,1,.44,1.44a1.72,1.72,0,0,0,.2.38.77.77,0,0,0,.77.39,1.79,1.79,0,0,0,.64-.17c.64-.32.55-.95.25-1.41,0,0-.06,0-.09-.06A5.25,5.25,0,0,0,56.86,3.39Zm-5.11,7.88L54.14,8.4l0,0L51,9.65c.1.44.2.87.31,1.3a.16.16,0,0,0,0,.09ZM62,17.21,63.76,17c.08.14,0,.21-.09.27l-.54.29-.65.35.26.4,2.35-1.6c-.1-.23-.1-.23-.29-.2l-1.55.25L61.94,17ZM51.05,13h0a.49.49,0,0,1,0,.11c.21.4.41.8.63,1.2a10.77,10.77,0,0,0,2,2.65,4,4,0,0,0,1.85,1,2.22,2.22,0,0,0,1,0h0l-.09,0A4.66,4.66,0,0,1,53.1,15.9c-.46-.68-.93-1.35-1.39-2Zm12.8-9.79a5.82,5.82,0,0,0-.43,1.32.94.94,0,0,0,.74,1.1l-.09-1.46c.28,0,.55.06.81.07,0,0,.11,0,.11,0S65.08,4,65,4Zm1.44,10.48-2.18.78A2.46,2.46,0,0,0,64,15a.67.67,0,0,0,.75-.19A2.71,2.71,0,0,0,65.29,13.66Zm-15-2.27c.09-.14.2-.28.29-.44a.43.43,0,0,0,0-.27c-.11-.36-.23-.71-.35-1.06,0-.1-.13,0-.19,0s-.12,0-.12.06c-.06.38-.12.76-.17,1.14a.43.43,0,0,0,.11.25A4.67,4.67,0,0,0,50.3,11.39ZM67.86,8l-1.47-.84-.12.38.51.25c.18.09.19.11.11.29s-.17.34-.26.51-.07.12,0,.26ZM60,18.74l0,.05.27.21a.55.55,0,0,0,.75.1c.26-.17.51-.36.76-.55l.14-.11v0ZM63.6,16c.67.38,1.85-.31,2-1.2A4.91,4.91,0,0,1,63.6,16Zm-6.29,3.55-.18-.62-.38.25.39.48Z"/><path d="M55,33.92l-.67-.05a7.17,7.17,0,0,1-3.7-1.31l-.09-.09a14.12,14.12,0,0,0,9.32.06l-.09.06a7.21,7.21,0,0,1-2.95,1.17c-.46.08-.93.1-1.4.14l-.07,0Z"/><path d="M46.86,20.62a3.81,3.81,0,0,1-.54,3,2.69,2.69,0,0,1-1.65,1.18,2.77,2.77,0,0,1-1.28,0,1.37,1.37,0,0,1-1-1.76,4,4,0,0,1,1.26-2,8.45,8.45,0,0,1,2.78-1.55A8.92,8.92,0,0,1,50.33,19l.69.09a3.49,3.49,0,0,0,1.07,0,.29.29,0,0,1,.31.15c.19.28.42.54.62.81a5.36,5.36,0,0,1,.38.59,1.08,1.08,0,0,1-.1,1.25,5.41,5.41,0,0,1-1.23,1.16L50.8,24l-.11.08a6.79,6.79,0,0,1,.28.63,2.76,2.76,0,0,1,0,1.37c-.1.5-.2,1-.31,1.51a.18.18,0,0,0,.13.25l.11.07,3.36-3.59.18.15c-.26.31-.51.61-.77.9-.73.85-1.46,1.71-2.2,2.55a1.86,1.86,0,0,1-1.08.64A1.2,1.2,0,0,1,49,27.15a7.3,7.3,0,0,1,.57-1.56c.17-.39.36-.79.54-1.18l-1.06-1c-.27.56-.52,1.12-.8,1.66s-.52,1-.78,1.5a3.83,3.83,0,0,1-2,1.74,4.85,4.85,0,0,1-2.76.4,2,2,0,0,1-1.41-.82,1.61,1.61,0,0,1,.1-1.91,1,1,0,0,1,1.65.15.44.44,0,0,1,0,.4,1,1,0,0,1-.75.72l-.57.14a1.39,1.39,0,0,0,.72.87,1.81,1.81,0,0,0,2-.31,7.19,7.19,0,0,0,1.51-2c.38-.72.72-1.45,1.07-2.19a10.82,10.82,0,0,1,2.07-3,7.45,7.45,0,0,1,1.51-1.17.2.2,0,0,0,.09-.27s0-.06-.07-.06a10.46,10.46,0,0,0-5.12.83A5.64,5.64,0,0,0,43,22.53a2.08,2.08,0,0,0-.26.81A1,1,0,0,0,44,24.43a2.28,2.28,0,0,0,1.3-.87,8.87,8.87,0,0,0,1-1.74c.18-.36.35-.71.52-1.07Zm2.22,2.79.47.09a2,2,0,0,0,2.12-1,4.54,4.54,0,0,0,.55-1.56,1.2,1.2,0,0,0,0-.7.64.64,0,0,0-.79-.43,2,2,0,0,0-1.12.87A19.76,19.76,0,0,0,49.08,23.41Z"/><path d="M49.31,8.58c-.13-.34-.27-.67-.39-1a.35.35,0,0,1,.18-.47,2.39,2.39,0,0,1,.54-.25,1.94,1.94,0,0,0,1.23-1,1.84,1.84,0,0,0,.21-.55A1,1,0,0,0,51,4.91c-.06-.18-.16-.34-.21-.52a.36.36,0,0,1,.26-.47,4.88,4.88,0,0,1,.55-.12,3.6,3.6,0,0,0-.23-1.06.78.78,0,0,0-.76-.45l-.73,0c0-.21,0-.43,0-.65a.23.23,0,0,0-.12-.22c-.24-.17-.48-.35-.71-.54S48.91.72,49,.52a.69.69,0,0,1,.55-.45,4.43,4.43,0,0,1,2.14.15,3.41,3.41,0,0,1,1,.41c.11.07.12.14.07.26-.16.34-.31.68-.44,1a1.4,1.4,0,0,0-.1.57c0,.91,0,1.82.07,2.74a2.92,2.92,0,0,0,.09.5.16.16,0,0,1,0,.14L50.52,8a1.45,1.45,0,0,1-.63.4Zm2.75-5.16c-.08.33-.15.64-.24,1a6.16,6.16,0,0,1-1,2.08,2.13,2.13,0,0,1-1.15.85,4.34,4.34,0,0,1-.55.07c.11.2.2.4.31.59a.17.17,0,0,0,.15.09A.47.47,0,0,0,50,7.9c.43-.51.88-1,1.28-1.54a3.75,3.75,0,0,0,.81-2A3.14,3.14,0,0,0,52.06,3.42Z"/><path d="M38.88,26.64c-.31-.09-.61-.19-.92-.27a2.88,2.88,0,0,0-1.54,0,2.2,2.2,0,0,0-.6,3.76,9.13,9.13,0,0,0,.91.62,6.41,6.41,0,0,0,2.25.74,15.35,15.35,0,0,0,2.87.29,12.61,12.61,0,0,0,5.53-1.23l.08,0,.28.3a1.21,1.21,0,0,0-.81.26A11.83,11.83,0,0,1,43,32.43a10.69,10.69,0,0,1-4.25-.23,7.3,7.3,0,0,1-2.25-.89,6.13,6.13,0,0,1-1.33-1.16,2.4,2.4,0,0,1-.41-2.58,2.45,2.45,0,0,1,2-1.62A2.54,2.54,0,0,1,38.88,26.64Z"/><path d="M49.39,30.59c.55.2,1.1.42,1.66.6a12.32,12.32,0,0,0,4.83.53,18.65,18.65,0,0,0,3.48-.61,4,4,0,0,0,1.91-1.22,2.29,2.29,0,0,0,.59-1.05,2.21,2.21,0,0,0-2.5-2.57,3.82,3.82,0,0,0-1.11.31l-.28.11.05-.07a2.5,2.5,0,0,1,4.17,1.25,2.74,2.74,0,0,1-.57,2.4A5.05,5.05,0,0,1,59,32a11.82,11.82,0,0,1-4.34.47,10.22,10.22,0,0,1-4.25-1.22c-.35-.19-.66-.43-1-.65Z"/><path d="M38.9,30.76a2.51,2.51,0,0,1,1.32-.83A3,3,0,0,1,41.9,30a9.35,9.35,0,0,0,2.4.35l2,.09.1,0v0c-.3.13-.59.29-.9.41a4.53,4.53,0,0,1-3.06,0c-.32-.11-.65-.2-1-.3a3.32,3.32,0,0,0-1.77,0Z"/><path d="M37,32.56a13.81,13.81,0,0,0,9.3-.17l0,.07a5.15,5.15,0,0,1-.5.43,5.05,5.05,0,0,1-2.08.84A9.91,9.91,0,0,1,37.84,33c-.28-.12-.55-.28-.82-.42Z"/><path d="M57.88,30.79A3.46,3.46,0,0,0,55,30.74a6.22,6.22,0,0,1-1.42.39,4,4,0,0,1-2.92-.72l-.18-.12,0,0h.06a4.45,4.45,0,0,0,2.7.13c.62-.14,1.22-.32,1.83-.47a2.66,2.66,0,0,1,1.78.09A2.85,2.85,0,0,1,57.88,30.79Z"/><path d="M61.16,5.55l.1-.09.18.08v0l-.28,0Z"/><path d="M47.45,8.58c.13-.34.27-.67.39-1a.35.35,0,0,0-.18-.47,2.39,2.39,0,0,0-.54-.25,1.94,1.94,0,0,1-1.23-1,1.84,1.84,0,0,1-.21-.55,1,1,0,0,1,.07-.42c.06-.18.16-.34.21-.52a.36.36,0,0,0-.27-.47,4.28,4.28,0,0,0-.54-.12,3.31,3.31,0,0,1,.23-1.06.78.78,0,0,1,.76-.45c.24,0,.47,0,.72,0,0-.21,0-.43,0-.65A.24.24,0,0,1,47,1.45q.38-.25.72-.54c.16-.13.16-.19.08-.39a.71.71,0,0,0-.55-.45,4.43,4.43,0,0,0-2.14.15,3.41,3.41,0,0,0-1,.41C44,.7,44,.77,44,.89c.15.34.31.68.44,1a1.59,1.59,0,0,1,.1.57c0,.91,0,1.82-.07,2.74a4.37,4.37,0,0,1-.09.5.21.21,0,0,0,0,.14L46.23,8a1.54,1.54,0,0,0,.64.4ZM44.7,3.42c.08.33.15.64.24,1a6.16,6.16,0,0,0,1,2.08,2.09,2.09,0,0,0,1.15.85,4.34,4.34,0,0,0,.55.07c-.11.2-.2.4-.31.59a.2.2,0,0,1-.15.09.46.46,0,0,1-.42-.15c-.44-.51-.88-1-1.28-1.54a3.75,3.75,0,0,1-.81-2A3.14,3.14,0,0,1,44.7,3.42Z"/><path d="M42.29,52.14a4.24,4.24,0,0,1-.5-.18,1.21,1.21,0,0,1-.69-1.26c0-.29.07-.57.11-.9l-1.14,1.05a4.74,4.74,0,0,1-1.36,1,1.82,1.82,0,0,1-2.53-1.5,8.47,8.47,0,0,1,.15-1.94.42.42,0,0,0,0-.22l-.16.2a22.37,22.37,0,0,1-2.8,3.12,2,2,0,0,1-1.16.55,1.79,1.79,0,0,1-1.85-2.23,20.72,20.72,0,0,1,1.33-3.68c.17-.39.34-.77.5-1.16a1.64,1.64,0,0,0,.1-.38c.08-.5-.12-.78-.62-.79a1.26,1.26,0,0,1-.8-.44,1.13,1.13,0,0,1,1-.17,1.51,1.51,0,0,0,1.52-.29A5.92,5.92,0,0,0,35.8,38.2a1.4,1.4,0,0,0-.1-.54c-.18-.43-.39-.84-.6-1.26a8.64,8.64,0,0,0-.93.39,1.82,1.82,0,0,0-.56.47,23,23,0,0,0-2.7,5c-.69,1.67-1.38,3.35-2.12,5a7.86,7.86,0,0,1-3.58,3.9,7,7,0,0,1-5.51.52,2.8,2.8,0,0,1-1.19-4.47,1.86,1.86,0,0,1,2-.54,1,1,0,0,1,.76.83,2.42,2.42,0,0,1,0,.93,1.18,1.18,0,0,1-1.14.82,5.21,5.21,0,0,0-.55.08A.6.6,0,0,0,19,50a1.11,1.11,0,0,0,.56,1.13,2.8,2.8,0,0,0,3.85-.5,22,22,0,0,0,2.95-4.28c.57-1.09,1-2.25,1.57-3.36a18,18,0,0,1,3.12-4.57A13,13,0,0,1,34,36.13l.27-.16c-.34-.08-.63-.17-.92-.23A9.69,9.69,0,0,0,29,35.9a13.39,13.39,0,0,0-4.74,2,8.44,8.44,0,0,0-3.23,4,2.25,2.25,0,0,0-.14,1.23,1.28,1.28,0,0,0,1.35,1.2,2,2,0,0,0,1.13-.28,6.54,6.54,0,0,0,2.8-3.31L27.33,38c0-.09.09-.19.14-.32A3.26,3.26,0,0,1,27.74,39a6.39,6.39,0,0,1-3.22,5.78,3.31,3.31,0,0,1-2.54.36,2.1,2.1,0,0,1-1.66-2,5.21,5.21,0,0,1,1-3.32,8.84,8.84,0,0,1,2.77-2.5,14.84,14.84,0,0,1,5.07-2.09,11.93,11.93,0,0,1,5.38.23,1.67,1.67,0,0,0,.63,0c.46,0,.92-.11,1.39-.17l0,.32-.77.27c.11.11.18.22.28.26a3.24,3.24,0,0,1,.65,5.42,11.74,11.74,0,0,1-2.43,1.57L33,43.89a3.55,3.55,0,0,1,.74,1.32,4.52,4.52,0,0,1-.07,2.42c-.23.88-.49,1.74-.74,2.61,0,.13,0,.26-.08.39s0,.16.07.23.17,0,.25,0a14.38,14.38,0,0,0,2-2.11,29.22,29.22,0,0,1,3-3.14A17,17,0,0,1,41,43.62a2.29,2.29,0,0,1,1.49-.34,2,2,0,0,1,1.16.71l.42.5.09-.2a1.22,1.22,0,0,1,1-.79c.55-.06,1.11-.07,1.72-.11L42.94,51l.31.22A7.31,7.31,0,0,0,44.67,50c.93-1,1.84-2.05,2.8-3a17.65,17.65,0,0,1,3.75-3,5.33,5.33,0,0,1,.84-.39,1.78,1.78,0,0,1,2.1.61c.13.17.25.35.37.52a.1.1,0,0,0,0,0c1-1.63,1.93-3.25,2.89-4.89a6.77,6.77,0,0,0,.43-.9,2.22,2.22,0,0,1,2-1.44c.35,0,.7-.05,1.1-.07l-.11.23c-1.38,2.44-2.75,4.88-4.13,7.31-1.13,2-2.24,4-3.22,6.06,0,.09-.15.18,0,.28s.2.17.39.07a6.49,6.49,0,0,0,1.82-1.72c1.44-1.63,2.87-3.27,4.17-5a4,4,0,0,1,.48-.52,2.13,2.13,0,0,1,1.7-.61c.34,0,.69,0,1,0h.22l-4.19,7.55.23.21a4.18,4.18,0,0,0,1.33-1C61.78,49,62.88,47.85,64,46.69a18,18,0,0,1,3.59-2.8A2.49,2.49,0,0,1,69,43.61l.47,0a1.45,1.45,0,0,1,1,2.25,1.68,1.68,0,0,1-.24.29.83.83,0,0,1-1.2.17.92.92,0,0,1-.31-1.27,4.26,4.26,0,0,1,.41-.54l.21-.3,0-.06a4.36,4.36,0,0,0-.74.5,13,13,0,0,0-3.08,5.54,2.37,2.37,0,0,0,0,.8.38.38,0,0,0,.38.37,1.26,1.26,0,0,0,1-.24,23.48,23.48,0,0,0,3.5-3.26c.85-.94,1.7-1.88,2.6-2.77A5.48,5.48,0,0,1,76,43.53a3.36,3.36,0,0,1,1,0,1.43,1.43,0,0,1,1.21,1.08,4.26,4.26,0,0,1-.18,3,8.47,8.47,0,0,1-1.22,1.87,2.12,2.12,0,0,1-.15.21l.23.2,2.21-2.66c-.45,1.29-.94,2.55-2.29,3.2a2.45,2.45,0,0,1-.64.23,2.59,2.59,0,0,0-1,.48,5.1,5.1,0,0,1-1.4.79,2.33,2.33,0,0,1-3-2,10.56,10.56,0,0,1,.06-1.25.67.67,0,0,0,0-.31l-.58.57c-.73.67-1.45,1.35-2.19,2a4.2,4.2,0,0,1-2.22,1.16h-.33l-.11,0a1.87,1.87,0,0,1-1-.46,2.64,2.64,0,0,1-.89-1.77c-.06-.39-.09-.78-.13-1.2a.55.55,0,0,0-.11.11c-.79.74-1.57,1.49-2.36,2.22a3.67,3.67,0,0,1-1.54,1,1.23,1.23,0,0,1-1.65-1,2.86,2.86,0,0,1,0-1.27c.13-.44.32-.85.49-1.28.1-.26.19-.53.29-.79l-.05,0-.72.83c-.85.94-1.68,1.89-2.55,2.81a2.26,2.26,0,0,1-2,.72c-.61-.06-.9-.27-1-.83s-.15-.9-.23-1.34c-.24.22-.51.48-.8.71A15.13,15.13,0,0,1,49.4,51.8a1.81,1.81,0,0,1-2.63-.94,3.06,3.06,0,0,1-.14-1.47l.06-.7c-.63.6-1.2,1.21-1.79,1.82a5.12,5.12,0,0,1-2.19,1.63Zm30.84-.85,1-.3a.73.73,0,0,0,.49-.49,7.56,7.56,0,0,1,.43-.91,1,1,0,0,1,.33-.33,3.2,3.2,0,0,0,1.51-1.63c.3-.75.53-1.53.79-2.3a.22.22,0,0,0,0-.14c-.1-.22-.19-.45-.3-.66A.37.37,0,0,0,77,44.3a1.3,1.3,0,0,0-1,.37,12.23,12.23,0,0,0-3.09,5.23,1.63,1.63,0,0,0,0,.66A4.53,4.53,0,0,0,73.13,51.29ZM43.49,45.06c0-.56-.31-.88-.73-.85a1.49,1.49,0,0,0-1.19.63c-1,1.47-2,3-3.08,4.42a4.19,4.19,0,0,0-.76,1.94c0,.14.15.34.28.29A4.39,4.39,0,0,0,39.1,51a16,16,0,0,0,4.12-5.16A7.3,7.3,0,0,0,43.49,45.06Zm10.09-.69-.93.25a.92.92,0,0,0-.57.42c-1.14,1.67-2.27,3.34-3.42,5a2.55,2.55,0,0,0-.39,1.24c0,.14.18.35.29.3a6.41,6.41,0,0,0,1.2-.6,12.11,12.11,0,0,0,3.86-4.92,1.64,1.64,0,0,0,.12-.7A7.27,7.27,0,0,0,53.58,44.37Z"/><path d="M65.22,39.54A1.74,1.74,0,0,1,64.05,41a.76.76,0,0,1-.64-.11c-.21-.16-.42-.33-.62-.51a.23.23,0,0,1-.06-.16,2.23,2.23,0,0,1,.94-1.68.79.79,0,0,1,1.11.11A1.2,1.2,0,0,1,65.22,39.54Z"/><text class="cls-1" transform="translate(0 68.94)">Radico Khaitan Limited</text><rect y="58.1" width="96.88" height="0.67"/></g></g></svg>