<svg xmlns="http://www.w3.org/2000/svg" viewBox="0 0 195.76 72"><defs><style>.cls-1{fill-rule:evenodd;}</style></defs><g id="Layer_2" data-name="Layer 2"><g id="svg4403"><path class="cls-1" d="M28.54.08c1.75,2.45,3.35,4.9,4.94,7.43A49.46,49.46,0,0,0,21.1,6l-.17.25-.26,52.08c.17,2,1,3.63,1.51,5.4-3.51,0-6.44.25-10.21.09,1.26-2.28.92-5.32,1.18-8L13.06,6.24,13,6.08c-4.61.08-8.7,1.18-13,2.19l.08-.34C1.84,5.4,3.35,2.7,5.19.25A151.47,151.47,0,0,0,27.53,0l1,.08Zm148,8.2c.58,2.45-.59,4.89-2.18,6.75a3.44,3.44,0,0,1-1.59,1,4.47,4.47,0,0,0-.67-4,3,3,0,0,1-1.51-2.79,3.65,3.65,0,0,1,.84-2.11,3.36,3.36,0,0,1,3.51-.67A3.61,3.61,0,0,1,176.51,8.28Z"/><path class="cls-1" d="M34.32,8.87l.75,1.43A53.23,53.23,0,0,0,23.43,8.36l-.08.26-.67,29.79.09,17.73a38.9,38.9,0,0,0,.58,6.33C21.92,61.21,21.75,59,21.59,57l-.08-8.27c-.17-.17.08-.59.08-.85l.09-16.7.25-24.4a48.75,48.75,0,0,1,12.39,2.1ZM12.13,7.35c-.08.42.17,1.1-.25,1.18A53.55,53.55,0,0,0,1.42,10.47c-.26-.42-.67-.76-.59-1.26A36.71,36.71,0,0,1,12,7.1l.17.25Zm164.63,7.43a8.6,8.6,0,0,1-2.84,3.37c-1.84-1.52,1.42-1.94,1.68-3.2a10.24,10.24,0,0,0,1.84-4.56,6.16,6.16,0,0,1-.68,4.39Zm14.56,3.12.17.34-.08,7.84c-2-2.11-3.93-5.4-7.29-5.23a2.89,2.89,0,0,0-2.43,1.69,5.48,5.48,0,0,0,.76,4.81c4.44,6.5,12,11.81,11.05,20.42a9.5,9.5,0,0,1-5.36,7.51C184.63,57,179.85,56,176.68,54V47c2.34,2.37,5,5.32,8.45,4a3.8,3.8,0,0,0,2.09-3.55c-.59-8-9.87-11.56-11.21-19.24-.67-3.54,0-7.25,2.77-9.53,3-2.87,8.2-2.28,11.72-.76.32-.09.49.17.82,0ZM93.9,20.52v8.26c-1.67-2.36-2.59-6.66-6.44-6.58-2.09.26-3.51,2.45-4,4.39a47.12,47.12,0,0,0-.34,19.08c.58,2.36,1.84,5,4.44,5.32,3-.17,5.1-3,6.69-5.32.25,2.53.08,5.23.17,7.77-2.34,3-6.2,3.71-9.79,3C76,52.84,75.83,42.8,76,34.44a34.53,34.53,0,0,1,3-12.32c2-3.29,5.61-5.49,9.55-4.73a8.8,8.8,0,0,1,5.34,3.13Zm13.22-3c-.08,1-.66,1.85-.66,2.95l.08,12c2.26.34,4.44,0,6.53.09l.08-.26V19.42l-.5-1.94q3.67-.14,7.37,0l-.26,1.6.09,34.1a9,9,0,0,0,.83,2.11c-2.6,0-5.27.17-8,0a12.91,12.91,0,0,0,.66-4.13l-.17-13.67c-2.17-.34-3.94,0-6.45-.09l-.08.85.17,15a15.24,15.24,0,0,0,.83,2l-8.2.09c0-1.19.66-2.28.83-3.55l-.17-32c-.08-.76-.34-1.6-.42-2.36,2.79.08,5.13-.09,7.47,0Zm35.32-.09a12.26,12.26,0,0,1,2,4.73,33.13,33.13,0,0,0-9.21-.68l-.17.26V32.33l.26.17c2.26-.09,4.77.08,6.86-.59.08,2.36,0,4.22,0,6.24a19.25,19.25,0,0,0-6.95-.76l-.17.26V50.82l.17.17c3.18.08,6.78.34,9.55-.93a15.41,15.41,0,0,1-1.6,5.06l-.17.17H127c1.92-3.63,1.34-8.44,1.51-12.15.08-7.43.08-16.12-.26-23.47a8.85,8.85,0,0,0-.75-2.11l.16-.17Z"/><path class="cls-1" d="M44.77,17.56a10.24,10.24,0,0,1,1.92,4.73,29.45,29.45,0,0,0-9.12-.68c-.25,3.55-.17,7.6-.08,10.89a18.53,18.53,0,0,0,4.35.08L44.52,32c.08,2,.08,4.05.08,6.33l-.08.09c-2.09-.93-4.61-.93-7-.93-.17,5.48-.08,8.1-.08,13.5l.5.25c3.18.09,6.44.17,9.13-1,0,1.77-1,3.46-1.6,5.15-5.18.25-10.79.17-16.15.08,1.83-3,1.25-7.09,1.59-10.72l-.08-22.37A12,12,0,0,0,30,17.64c4.94-.16,9.88-.08,14.81-.08Zm76.84,2.62v35.2c-.76-.59-.83-1.78-.83-2.79-.17-4.3,0-6.83-.17-10.46V19.84a1.93,1.93,0,0,1,.83-1.27C122.44,18.66,121.44,19.59,121.61,20.18ZM108.8,18.74c-.66,4.48,0,7.94-.34,12.66a1.08,1.08,0,0,1-1,.09l.09-11.57A1.22,1.22,0,0,1,108.8,18.74Zm84.54,10.47c-.34-.09-.51-.51-.75-.59V19.33l.75.85ZM68.71,26l4.77,25c.17,1.09.42,2.19.58,3.37a3.82,3.82,0,0,1-1.51-2.53L69.87,38.67,66.28,20l.17-.25C68.54,21.11,68,23.89,68.71,26ZM169.39,52.34l-4.94-15.53v-.59a11.73,11.73,0,0,0,3.18-2.62c3-3.46,2.51-9.45.66-13.16-1.25-2-3.43-2.78-5.6-3q-6.83-.12-13.65,0a19.16,19.16,0,0,1,1.18,5V48.47c.17,2.44-.59,4.64-1.09,6.75,2.76,0,5.35.08,8-.09a6.77,6.77,0,0,1-.59-2.19q-.12-7.61,0-15.19c.59-.09,1.26-.25,1.68.08L162.18,51c.25,1.26,1,2.7.42,4l.09.17c2.84-.09,5.77.08,8.45-.17a6.83,6.83,0,0,1-1.75-2.71Zm-8.11-20.6c-1.26.93-3,.5-4.52.59l-.17-.25V21.53l.26-.17c2.09,0,4.43-.42,5.43,1.77C163.62,25.83,163.37,29.63,161.28,31.74Z"/><path class="cls-1" d="M171.49,30.81a13.16,13.16,0,0,1-4.6,6.5l.66,2.61,4.61,14.18c-1-.59-1.51-2-2.09-3.12-1.67-4.64-3.27-9.28-4.69-14.09l.17-.34c3.85-2.11,5.43-6.58,5.19-11,.09-1.44-.58-2.62-.58-4a11.15,11.15,0,0,1,1.33,9.2Zm14-8.78c-.58.34-1.84.85-2.09,1.78a3.8,3.8,0,0,0,0,2.87c-.59,0-.66-.93-.92-1.35a3.25,3.25,0,0,1,.42-2.79A2.32,2.32,0,0,1,185.46,22Zm-89.64,1c.09,2.87.09,6.16,0,9L95,31.32v-9Zm47.63.67a22.3,22.3,0,0,0-5.78-.17l-.17.26.09,7.59a3.06,3.06,0,0,1-1.26.09l-.17-.26.09-8.86c2.51-.08,5.19-.25,7.2,1.18v.17Zm17.49-.67c-.58.25-1.51-.17-2,.42l-.09,7.76h-1c-.17-3-.09-5.65-.09-8.77,1,0,2.68-.59,3.18.59Zm-115.25.67-.08.17a19,19,0,0,0-5.78-.08c-.17,2.44.17,5,0,7.84H38.57c-.17-2.95-.17-6.07-.17-9.11,2.43,0,4.69-.34,6.87.84Zm42.94-.34c-2.43.85-3,3.72-3.51,5.91C84.2,36,84,43.81,86.87,49.63c-1.42-.34-1.92-1.94-2.43-3.12-1.67-6.75-1.75-15,.59-21.52a3.66,3.66,0,0,1,2.26-1.77A2.4,2.4,0,0,1,88.63,23.38ZM71.56,52.08,65.7,20.94l-.84-3.29c-3.17-.17-5.86.16-8.7,0a10.31,10.31,0,0,1,.43,3.2L50.47,52.42l-1,3,.08.08a58.29,58.29,0,0,0,6.61-.08,6.26,6.26,0,0,1-.66-2.11,51.67,51.67,0,0,1,1.25-7.94h6.36l.51.17,1.09,6.84a4.73,4.73,0,0,1-.51,3A77.94,77.94,0,0,0,73,55.29a7.29,7.29,0,0,1-1.42-3.21ZM57.49,40.61c.84-4.47,1.67-8.86,2.69-13.25.83,4.3,1.83,8.69,2.51,13.16Z"/><path class="cls-1" d="M59.67,39.17c-.17.26-.67.17-.92.09l-.08-.09A61.44,61.44,0,0,1,59.92,32C61.18,34.35,60,36.72,59.67,39.17Zm84.62-5.49V41a.93.93,0,0,1-1-.59V33C143.78,32.84,144.12,33.34,144.29,33.68Zm-97.76.08c.09,2.79.09,4.9.09,7.43a1,1,0,0,1-1-.51V33.09C46,33,46.45,33.43,46.53,33.76Zm93.74,5.41c-.92.17-2.18-.08-2.77.76V50a2.53,2.53,0,0,1-1.34,0l-.08-11.57C137.51,38.24,139.43,37.9,140.27,39.17Zm-28.79.17-2.68.09A110.36,110.36,0,0,0,109,55.29c-.51-.17-.67-.93-1-1.43l-.26-2.28V38.41a29.63,29.63,0,0,1,3.77,0v.93Zm-67.29.51c-1.51-.09-3.26-.76-4.43.34v10c-.43,0-1.09.17-1.35-.17V38.75c.17-.42.92-.25,1.35-.34C41.26,38.49,43.19,38.4,44.19,39.85Zm114.41,4v11c-.67-.08-.67-1.1-.92-1.69a105,105,0,0,1-.08-12.66c.83.85.83,2.2,1,3.38Zm35.15,9.7a10.92,10.92,0,0,1-10,4.9c-1.92-.17-4-.34-5.1-2.11a15.13,15.13,0,0,0,5.95.93c4-.09,8-3.29,9.37-7.09.75-2.11.59-4.73.42-7a11.37,11.37,0,0,1-.68,10.38ZM62.18,46.35a1.18,1.18,0,0,1,.34,1.18l-3.85.17-.26.25-1.08,6.92c-1-.84-.75-2.62-.75-3.88a25.13,25.13,0,0,1,1-4.64ZM96.5,47.44l-.08,7.09a11.64,11.64,0,0,1-11.22,4,9.93,9.93,0,0,1-3.35-2.28c3.1,2,7.79,1.78,10.88,0a8.88,8.88,0,0,0,2.68-2.61V46.52A1.27,1.27,0,0,1,96.5,47.44Zm49.71,4.14a44.68,44.68,0,0,1-1.59,5.82l-.25.17H128.21c-.17-.34-.5-.68-.42-1.1l15.9-.08a41,41,0,0,0,2.18-5.23C146.13,51.07,146.13,51.33,146.21,51.58Zm27.63,5.65-.26.26H164a.82.82,0,0,1-.25-1l.25-.08h9.38C173.58,56.56,173.92,56.81,173.84,57.23Zm-13.73-.84c.34.17.66.42.66.76s-.33.59-.66.42H150.9c-.34-.25-.25-.68-.25-1.1,3.09-.25,6.35-.08,9.46-.08Zm-50,.08c.26.17.58.59.42.93l-.49.34h-9.38c-.59-.17-.25-.68-.25-1.1,0-.08.08-.25.25-.17Zm13,0c.34.17.75.51.5.93l-.34.25h-9.62a.6.6,0,0,1-.17-1l.08-.17ZM75,56.56a1.69,1.69,0,0,1,.92,1.09c-3.52.09-7.2,0-10.88.09a2.12,2.12,0,0,1-.66-1.1C68,56.73,71.47,56.39,75,56.56Zm-17.16,0a1.73,1.73,0,0,1,1.09,1.18H50.39a1.81,1.81,0,0,1-.84-1.1c2.84,0,5.52-.17,8.28-.08ZM46,56.64c.42.09.25.51.08.76l-.5.34H30.89a3.9,3.9,0,0,1-.75-1C35.32,56.64,40.67,56.56,46,56.64ZM23.68,64.91c.17.42.43.85.59,1.27H13.56a1,1,0,0,1-.34-1.1c1.75-.25,3.69,0,5.44-.17Zm168,6.41a3.2,3.2,0,0,0,2.43-1,3.29,3.29,0,0,0,1-2.44,3.5,3.5,0,0,0-1-2.54,3.43,3.43,0,0,0-4.86,0,3.5,3.5,0,0,0-1,2.54,3.29,3.29,0,0,0,1,2.44A3.19,3.19,0,0,0,191.66,71.32Zm2.92-.59A4.07,4.07,0,0,1,191.66,72a3.87,3.87,0,0,1-2.84-1.27,3.93,3.93,0,0,1-1.26-2.86,4.14,4.14,0,0,1,1.26-3,3.86,3.86,0,0,1,2.84-1.26,4.06,4.06,0,0,1,2.92,1.26,4.47,4.47,0,0,1,1.18,3A4.37,4.37,0,0,1,194.58,70.73Z"/><path class="cls-1" d="M190,69.81V65.59h1.75a3.07,3.07,0,0,1,1,.08.78.78,0,0,1,.49.42,1.51,1.51,0,0,1,.17.68,1.18,1.18,0,0,1-.25.76,1.33,1.33,0,0,1-.83.42.88.88,0,0,1,.42.34,2,2,0,0,1,.49.67l.51.85h-1l-.59-.93a4.72,4.72,0,0,0-.5-.59c0-.09-.08-.17-.25-.17S191.23,68,191,68h-.16v1.78Zm.84-2.45h.67c.42,0,.67,0,.75-.09s.17-.08.25-.16.09-.17.09-.34a.73.73,0,0,0-.17-.34c-.08-.08-.17-.08-.25-.17h-1.34v1.1Z"/></g></g></svg>