<svg xmlns="http://www.w3.org/2000/svg" viewBox="0 0 281.84 72"><defs><style>.cls-1{font-size:40.28px;font-family:Eurostile-Black-Italic, Eurostile-Black Italic;font-style:italic;letter-spacing:0.03em;}</style></defs><g id="Layer_2" data-name="Layer 2"><g id="svg4403"><path d="M4.26,58.14c3,3.54,6.64,1.71,9.92,2.08.17,0,.5-.11.52-.22.85-4.33,4.69-2.51,7.15-3.4a36.71,36.71,0,0,1,6.42-1.16l-.06-1-22.13.92,0-.57,23.74-3.08c-4.56-4,0-4.69,2.05-7L5,47.84l-.2-.77a6.19,6.19,0,0,1,1.53-.61c7.07-.74,14.15-1.39,21.21-2.24.83-.1,1.54-1.26,2.27-2,.55-.55,1.05-1.15,2.09-2.29v4l.71.29a7.72,7.72,0,0,0,1.23-2.47c.26-2.9.34-5.82.39-8.74,0-1.34-.32-2.22-2.11-2.09-7.18.5-14.36.82-21.54,1.23-2.2.12-4.4.39-6.6.41a6.3,6.3,0,0,1-2.16-.86l.27-.77c1.86,0,3.72.11,5.57,0,7.3-.5,14.59-1.09,21.88-1.59a2.69,2.69,0,0,0,2.87-2.81c.38-7.31-.69-14.29-5-20.4-3.23-4.53-6.93-5.76-13-4.65,2.91-2,6.44-2,10.24.12A18.09,18.09,0,0,1,34,16.33c1.16,13.62,2.48,27.26.5,41C32.73,69.67,20.85,74.47,10.66,70.8,5.81,69.05,4.14,65.85,4.26,58.14Z"/><path d="M28.94,14.42l1.32,3.75C20.43,22,10.83,18.8,1,18.09c.39-.31.89-1,1.14-.9,6.38,2.2,12.73,0,19.09-.12C23.73,17,26.79,17.92,28.94,14.42Z"/><path d="M.13,23.56c10.31,1.53,20.45,1.11,30.44-2.37l.83,3.66c-2.49.21-4.83.49-7.19.59C18.62,25.68,13,26,7.42,26A50,50,0,0,1,0,24.86Z"/><path d="M32.09,34.81,32.41,37,3.5,39.9c.62-.69,1.12-1.76,1.7-1.81,6.71-.5,13.43-.71,20.12-1.3C27.53,36.59,29.66,35.54,32.09,34.81Z"/><path d="M9.68,13.62c4.12-.77,8.25-1.47,12.36-2.32,2.12-.44,3.45.33,4.55,2.53H9.71Z"/><text class="cls-1" transform="translate(56.71 46.23)">moonwalkr</text><path d="M275.26,14.29a6.53,6.53,0,0,1,6.58,6.55,6.57,6.57,0,1,1-13.13,0A6.52,6.52,0,0,1,275.26,14.29Zm-5.44,6.5a5.49,5.49,0,0,0,5.49,5.55,5.58,5.58,0,0,0,5.44-5.46,5.44,5.44,0,0,0-5.53-5.5A5.33,5.33,0,0,0,269.82,20.79Z"/><path d="M274,21.48v2.77H273V17.84h2.56c1.34,0,2,.72,2,1.72a1.47,1.47,0,0,1-1.06,1.51c.48.14.94.52.94,1.64V23a4.35,4.35,0,0,0,.09,1.26h-.92a4.32,4.32,0,0,1-.11-1.39v-.13c0-.87-.25-1.25-1.37-1.25Zm0-.79h1.35c.94,0,1.34-.36,1.34-1s-.42-1-1.26-1H274Z"/></g></g></svg>