<svg xmlns="http://www.w3.org/2000/svg" viewBox="0 0 418.56 117.09"><defs><style>.cls-1{fill:#db031d;fill-rule:evenodd;}.cls-2{fill:#3d3c3d;}.cls-3{fill:#3c3b3b;}.cls-4{fill:#3a393a;}</style></defs><g id="Layer_2" data-name="Layer 2"><g id="Layer_1-2" data-name="Layer 1"><path class="cls-1" d="M5.69,0A5.69,5.69,0,1,1,0,5.69,5.69,5.69,0,0,1,5.69,0ZM18.88,0a5.69,5.69,0,1,1-5.69,5.69A5.69,5.69,0,0,1,18.88,0Zm13.2,0a5.69,5.69,0,1,1-5.69,5.69A5.69,5.69,0,0,1,32.08,0ZM45.27,0a5.69,5.69,0,1,1-5.69,5.69A5.69,5.69,0,0,1,45.27,0Zm13.2,0a5.69,5.69,0,1,1-5.69,5.69A5.68,5.68,0,0,1,58.47,0ZM71.66,0A5.69,5.69,0,1,1,66,5.69,5.69,5.69,0,0,1,71.66,0ZM84.85,0a5.69,5.69,0,1,1-5.69,5.69A5.69,5.69,0,0,1,84.85,0Zm13.2,0a5.69,5.69,0,1,1-5.69,5.69A5.69,5.69,0,0,1,98.05,0ZM5.69,13.21A5.69,5.69,0,1,1,0,18.9a5.69,5.69,0,0,1,5.69-5.69Zm52.78,0a5.69,5.69,0,1,1-5.69,5.69,5.68,5.68,0,0,1,5.69-5.69Zm13.19,0A5.69,5.69,0,1,1,66,18.9a5.69,5.69,0,0,1,5.69-5.69Zm13.19,0a5.69,5.69,0,1,1-5.69,5.69,5.69,5.69,0,0,1,5.69-5.69Zm13.2,0a5.69,5.69,0,1,1-5.69,5.69,5.69,5.69,0,0,1,5.69-5.69ZM5.69,26.43A5.69,5.69,0,1,1,0,32.12a5.69,5.69,0,0,1,5.69-5.69Zm13.19,0a5.69,5.69,0,1,1-5.69,5.69,5.69,5.69,0,0,1,5.69-5.69Zm52.78,0A5.69,5.69,0,1,1,66,32.12a5.69,5.69,0,0,1,5.69-5.69Zm13.19,0a5.69,5.69,0,1,1-5.69,5.69,5.69,5.69,0,0,1,5.69-5.69Zm13.2,0a5.69,5.69,0,1,1-5.69,5.69,5.69,5.69,0,0,1,5.69-5.69ZM5.69,39.64A5.69,5.69,0,1,1,0,45.33a5.69,5.69,0,0,1,5.69-5.69Zm13.19,0a5.69,5.69,0,1,1-5.69,5.69,5.69,5.69,0,0,1,5.69-5.69Zm13.2,0a5.69,5.69,0,1,1-5.69,5.69,5.69,5.69,0,0,1,5.69-5.69Zm52.77,0a5.69,5.69,0,1,1-5.69,5.69,5.69,5.69,0,0,1,5.69-5.69Zm13.2,0a5.69,5.69,0,1,1-5.69,5.69,5.69,5.69,0,0,1,5.69-5.69ZM5.69,52.86A5.69,5.69,0,1,1,0,58.55a5.69,5.69,0,0,1,5.69-5.69Zm13.19,0a5.69,5.69,0,1,1-5.69,5.69,5.68,5.68,0,0,1,5.69-5.69Zm13.2,0a5.69,5.69,0,1,1-5.69,5.69,5.69,5.69,0,0,1,5.69-5.69Zm13.19,0a5.69,5.69,0,1,1-5.69,5.69,5.69,5.69,0,0,1,5.69-5.69Zm52.78,0a5.69,5.69,0,1,1-5.69,5.69,5.69,5.69,0,0,1,5.69-5.69ZM5.69,66.07A5.69,5.69,0,1,1,0,71.76a5.69,5.69,0,0,1,5.69-5.69Zm13.19,0a5.69,5.69,0,1,1-5.69,5.69,5.69,5.69,0,0,1,5.69-5.69Zm13.2,0a5.69,5.69,0,1,1-5.69,5.69,5.69,5.69,0,0,1,5.69-5.69Zm52.77,0a5.69,5.69,0,1,1-5.69,5.69,5.69,5.69,0,0,1,5.69-5.69Zm13.2,0a5.69,5.69,0,1,1-5.69,5.69,5.69,5.69,0,0,1,5.69-5.69ZM5.69,79.28A5.69,5.69,0,1,1,0,85a5.69,5.69,0,0,1,5.69-5.69Zm13.19,0A5.69,5.69,0,1,1,13.19,85a5.69,5.69,0,0,1,5.69-5.69Zm52.78,0A5.69,5.69,0,1,1,66,85a5.69,5.69,0,0,1,5.69-5.69Zm13.19,0A5.69,5.69,0,1,1,79.16,85a5.69,5.69,0,0,1,5.69-5.69Zm13.2,0A5.69,5.69,0,1,1,92.36,85a5.69,5.69,0,0,1,5.69-5.69ZM5.69,92.5A5.69,5.69,0,1,1,0,98.19,5.69,5.69,0,0,1,5.69,92.5Zm52.78,0a5.69,5.69,0,1,1-5.69,5.69,5.68,5.68,0,0,1,5.69-5.69Zm13.19,0A5.69,5.69,0,1,1,66,98.19a5.69,5.69,0,0,1,5.69-5.69Zm13.19,0a5.69,5.69,0,1,1-5.69,5.69,5.69,5.69,0,0,1,5.69-5.69Zm13.2,0a5.69,5.69,0,1,1-5.69,5.69,5.69,5.69,0,0,1,5.69-5.69ZM5.69,105.71A5.69,5.69,0,1,1,0,111.4a5.69,5.69,0,0,1,5.69-5.69Zm13.19,0a5.69,5.69,0,1,1-5.69,5.69,5.69,5.69,0,0,1,5.69-5.69Zm13.2,0a5.69,5.69,0,1,1-5.69,5.69,5.69,5.69,0,0,1,5.69-5.69Zm13.19,0a5.69,5.69,0,1,1-5.69,5.69,5.69,5.69,0,0,1,5.69-5.69Zm13.2,0a5.69,5.69,0,1,1-5.69,5.69,5.68,5.68,0,0,1,5.69-5.69Zm13.19,0A5.69,5.69,0,1,1,66,111.4a5.69,5.69,0,0,1,5.69-5.69Zm13.19,0a5.69,5.69,0,1,1-5.69,5.69,5.69,5.69,0,0,1,5.69-5.69Zm13.2,0a5.69,5.69,0,1,1-5.69,5.69A5.69,5.69,0,0,1,98.05,105.71Z"/><path class="cls-2" d="M299.65,58.73c0-9.48,0-18.95,0-28.42,0-1.72-.62-4,2.39-3.87,10.45.31,21-1.16,31.32,1.23,17.08,4,26.55,16,25.87,32.28-.65,15.48-12.32,27.56-28.94,30-9.28,1.36-18.61.48-27.91.79-2.83.1-2.75-1.63-2.75-3.56Q299.67,72.95,299.65,58.73Zm12.54-.38c0,5.64,0,11.28,0,16.92,0,1.53-.18,3,2.15,3,6.11-.13,12.27.59,18.27-1.25,8.56-2.62,13.84-9.16,14.26-17.73.44-8.81-3.53-14.83-12.14-18.56C328.55,38,322,39,315.61,38.68c-3-.17-3.55,1.11-3.47,3.74C312.31,47.72,312.19,53,312.19,58.35Z"/><path class="cls-3" d="M377.38,58.81c0,8.88,0,16.49,0,24.09,0,5.13-2.31,8.09-6.26,7.71-4.48-.43-6-3.3-5.94-7.64.11-17.47.14-35,0-52.43,0-3.38,1-4.23,4.22-4.17,9.32.18,18.65-.05,28,.1,11.05.17,19.09,6.28,20.76,15.78,2,11.57-2.46,21.74-12.74,25.19-.43.14-.75.59-1.4,1.12,3.23,3.44,6.39,6.82,9.57,10.18,3.73,4,4.16,7.14,1.32,9.91-3.12,3-6.19,2.6-10.25-1.65q-12.25-12.8-24.45-25.66C379.57,60.76,378.94,60.24,377.38,58.81Zm11.86-1.62c2.65,0,5.31.12,8,0,6.41-.33,9.11-3.13,9.12-9.28,0-5.4-3.66-9-9.59-9.14-4.14-.12-8.29-.07-12.44,0-8.08.1-6.86-1-6.91,6.75C377.32,57.25,377.37,57.25,389.24,57.19Z"/><path class="cls-2" d="M249.23,58.1c0-9.15.11-18.31-.06-27.46-.06-3.08.53-4.38,4-4.3,10.81.23,21.64.05,32.46.1,5.63,0,8.39,2.2,8.29,6.31s-2.89,6-8.66,6c-5.32,0-10.66-.22-16,.09-3.26.19-8.11-2.5-8,4.85s5.1,4.14,8.27,4.66c2.44.4,5,0,7.48.12,3.82.16,6.4,1.85,6.46,6s-2.5,6-6.26,6.28a119.67,119.67,0,0,1-12,0c-2.64-.11-3.75.52-3.85,3.51-.48,13.94-.58,13.93,13.33,13.94,4.31,0,8.64-.1,13,.12,3.88.2,6.26,2.43,6.16,6.4-.09,3.76-2.57,5.81-6.17,5.86-12,.14-24,0-35.95.13-3,0-2.52-1.92-2.52-3.68Q249.21,72.57,249.23,58.1Z"/><path class="cls-4" d="M126.9,59.85c.26-14,4.12-24.41,15.67-29.79,12.16-5.67,24.5-5.23,36.12,2.17a16.88,16.88,0,0,1,3.38,2.94c2.3,2.52,2.84,5.32.4,8s-5.61,3.18-8.38.66c-6.47-5.86-14-6.4-22-4.78a14.92,14.92,0,0,0-11.8,10.28c-3.42,9.78-1,19.7,6.27,25.4,7,5.52,17.52,5.35,26-.55,3.24-2.24,6.25-2.42,8.77.79,2.78,3.54,1.36,6.63-1.84,8.94-11.12,8-23.3,9-35.39,3.25C132.27,81.54,126.94,71.13,126.9,59.85Z"/><path class="cls-3" d="M202.17,58.81c0,8.88,0,16.49,0,24.09,0,5.13-2.31,8.09-6.26,7.71-4.48-.43-6-3.3-5.95-7.64.12-17.47.15-35,0-52.43,0-3.38,1-4.23,4.22-4.17,9.32.18,18.65-.05,28,.1,11,.17,19.09,6.28,20.76,15.78,2,11.57-2.46,21.74-12.74,25.19-.43.14-.76.59-1.41,1.12,3.23,3.44,6.4,6.82,9.58,10.18,3.73,4,4.16,7.14,1.32,9.91-3.12,3-6.19,2.6-10.26-1.65-8.17-8.53-16.29-17.11-24.45-25.66C204.36,60.76,203.73,60.24,202.17,58.81ZM214,57.19c2.65,0,5.31.12,8,0,6.4-.33,9.1-3.13,9.12-9.28,0-5.4-3.66-9-9.59-9.14-4.14-.12-8.3-.07-12.44,0-8.08.1-6.86-1-6.91,6.75C202.11,57.25,202.16,57.25,214,57.19Z"/></g></g></svg>