<svg xmlns="http://www.w3.org/2000/svg" viewBox="0 0 216.37 72"><defs><style>.cls-1{fill:#006;}</style></defs><g id="Layer_2" data-name="Layer 2"><g id="svg4403"><path class="cls-1" d="M22.38,51.06c-4.11,0-6.08-3.15-5.05-6.81,2.13-7.57,15.81-18.79,25.13-18.79,6.8,0,6.28,6.08,2.29,11.27l-2.2,2.44c-7.9,7.75-15.22,11.89-20.17,11.89M55.7,0c-11.9,0-25,7.28-33.23,14.18l.65.94C35.89,6.17,53.62.34,58.5,9.08c2.58,4.6-1.8,13.91-8,21.26,1.48-3.25.51-9.48-8.09-9.48C28.14,20.86,0,39.79,0,59.17,0,66.94,5.39,72,14.26,72,38,72,70.2,33.08,70.2,13.53,70.2,6.63,66.23,0,55.7,0"/><path class="cls-1" d="M86.27,51.06A4.07,4.07,0,0,1,83,49.7a4,4,0,0,1-.62-3.58,7.64,7.64,0,0,1,7.2-5.24h7.64L94.51,51.06Zm22-30.51A11.18,11.18,0,0,0,100,16.66H86.09l-2.36,8.79h13.1l1.25.13a3,3,0,0,1,1.87,1,3.91,3.91,0,0,1,.23,3.31l-.62,2.32H91.31c-7.1,0-17,5.09-19.21,13.32a11.17,11.17,0,0,0,2,10.27c2.12,2.6,6.11,4,10.43,4h17.35l4.55-17,3.36-12.5c1.31-4.92-.11-8-1.55-9.79"/><path class="cls-1" d="M203.62,16.66a16.75,16.75,0,0,0-10.09,3.22,14,14,0,0,0-5.39,8.19c-2,7.62,4,11.3,8.77,13.91,3.45,1.87,6.44,3.48,5.79,5.87-.46,1.72-1.21,3.22-5.46,3.22h-13l-2.35,8.79h14.35c3.85,0,7.4-.8,10.26-3s4.48-5.28,5.48-9a9.86,9.86,0,0,0-2-9.51c-1.91-2.14-4.66-3.62-7.09-4.93-3.11-1.68-6-3.25-5.53-5.17a3.88,3.88,0,0,1,4-2.77H214l2.36-8.79Z"/><path class="cls-1" d="M128.37,16.66a16.75,16.75,0,0,0-10.09,3.22,14,14,0,0,0-5.4,8.19c-2,7.62,4,11.3,8.77,13.91,3.46,1.87,6.44,3.48,5.8,5.87-.47,1.72-1.21,3.22-5.46,3.22H109l-2.36,8.79H121c3.85,0,7.41-.8,10.27-3s4.48-5.28,5.48-9a9.91,9.91,0,0,0-2-9.51c-1.91-2.14-4.67-3.62-7.1-4.93-3.1-1.68-6-3.25-5.52-5.17a3.88,3.88,0,0,1,4-2.77h12.61l2.36-8.79Z"/><polygon class="cls-1" points="147.95 16.66 136.69 59.86 146.21 59.86 157.45 16.66 147.95 16.66"/><path class="cls-1" d="M182.76,16.66c-16.75.06-25.51,11.21-28.29,21.6-3.3,12.32,3.26,21.6,15.25,21.6h8l2.35-8.79h-8c-4.49,0-10.66-3.53-8.18-12.81A17.82,17.82,0,0,1,181,25.45h5.1l2.36-8.79Z"/></g></g></svg>