<?xml version="1.0" encoding="utf-8"?>
<!-- Generator: Adobe Illustrator 24.3.0, SVG Export Plug-In . SVG Version: 6.00 Build 0)  -->
<svg version="1.1" id="Layer_1" xmlns="http://www.w3.org/2000/svg" xmlns:xlink="http://www.w3.org/1999/xlink" x="0px" y="0px"
	 viewBox="0 0 281.8 72" style="enable-background:new 0 0 281.8 72;" xml:space="preserve">
<style type="text/css">
	.st0{fill:#FFFFFF;}
	.st1{font-family:'Eurostile-Black-Italic';}
	.st2{font-size:40.28px;}
	.st3{letter-spacing:1;}
</style>
<g id="Layer_2_1_">
	<g id="svg4403">
		<path class="st0" d="M4.3,58.1c3,3.5,6.6,1.7,9.9,2.1c0.2,0,0.5-0.1,0.5-0.2c0.9-4.3,4.7-2.5,7.1-3.4c2.1-0.6,4.2-1,6.4-1.2
			l-0.1-1L6.1,55.4v-0.6l23.7-3.1c-4.6-4,0-4.7,2-7L5,47.8l-0.2-0.8c0.5-0.3,1-0.5,1.5-0.6c7.1-0.7,14.1-1.4,21.2-2.2
			c0.8-0.1,1.5-1.3,2.3-2c0.5-0.5,1-1.2,2.1-2.3v4l0.7,0.3c0.6-0.7,1-1.6,1.2-2.5c0.3-2.9,0.3-5.8,0.4-8.7c0-1.3-0.3-2.2-2.1-2.1
			c-7.2,0.5-14.4,0.8-21.5,1.2c-2.2,0.1-4.4,0.4-6.6,0.4c-0.8-0.2-1.5-0.4-2.2-0.9l0.3-0.8c1.9,0,3.7,0.1,5.6,0
			c7.3-0.5,14.6-1.1,21.9-1.6c1.5,0.1,2.8-1,2.9-2.5c0-0.1,0-0.2,0-0.3c0.4-7.3-0.7-14.3-5-20.4c-3.2-4.5-6.9-5.8-13-4.7
			c2.9-2,6.4-2,10.2,0.1c5.4,3,9,8.5,9.4,14.7c1.2,13.6,2.5,27.3,0.5,41c-1.8,12.3-13.6,17.1-23.8,13.5C5.8,69.1,4.1,65.8,4.3,58.1z
			"/>
		<path class="st0" d="M28.9,14.4l1.3,3.8C20.4,22,10.8,18.8,1,18.1c0.4-0.3,0.9-1,1.1-0.9c6.4,2.2,12.7,0,19.1-0.1
			C23.7,17,26.8,17.9,28.9,14.4z"/>
		<path class="st0" d="M0.1,23.6c10.3,1.5,20.5,1.1,30.4-2.4l0.8,3.7c-2.5,0.2-4.8,0.5-7.2,0.6C18.6,25.7,13,26,7.4,26
			c-2.5-0.2-5-0.6-7.4-1.1L0.1,23.6z"/>
		<path class="st0" d="M32.1,34.8l0.3,2.2L3.5,39.9c0.6-0.7,1.1-1.8,1.7-1.8c6.7-0.5,13.4-0.7,20.1-1.3
			C27.5,36.6,29.7,35.5,32.1,34.8z"/>
		<path class="st0" d="M9.7,13.6c4.1-0.8,8.2-1.5,12.4-2.3c2.1-0.4,3.5,0.3,4.5,2.5H9.7L9.7,13.6z"/>
		<text transform="matrix(1 0 0 1 56.71 46.23)" class="st0 st1 st2 st3">moonwalkr</text>
		<path class="st0" d="M275.3,14.3c3.6,0,6.6,2.9,6.6,6.5c0,0,0,0,0,0.1c0.1,3.6-2.7,6.7-6.3,6.8c-3.6,0.1-6.7-2.7-6.8-6.3
			c0-0.2,0-0.3,0-0.5C268.7,17.2,271.6,14.3,275.3,14.3C275.2,14.3,275.2,14.3,275.3,14.3z M269.8,20.8c0,3,2.4,5.5,5.4,5.5
			c0,0,0,0,0.1,0c3-0.1,5.4-2.5,5.4-5.5c0-3-2.4-5.5-5.4-5.5c-0.1,0-0.1,0-0.2,0c-2.9,0-5.4,2.3-5.4,5.3
			C269.8,20.7,269.8,20.7,269.8,20.8z"/>
		<path class="st0" d="M274,21.5v2.8h-1v-6.4h2.6c1.3,0,2,0.7,2,1.7c0,0.7-0.4,1.3-1.1,1.5c0.5,0.1,0.9,0.5,0.9,1.6V23
			c0,0.4,0,0.8,0.1,1.3h-0.9c-0.1-0.5-0.1-0.9-0.1-1.4v-0.1c0-0.9-0.2-1.2-1.4-1.2L274,21.5z M274,20.7h1.4c0.9,0,1.3-0.4,1.3-1
			s-0.4-1-1.3-1H274V20.7z"/>
	</g>
</g>
</svg>
