<svg xmlns="http://www.w3.org/2000/svg" viewBox="0 0 131.39 72"><defs><style>.cls-1,.cls-2{fill:#e21836;}.cls-2{fill-rule:evenodd;}</style></defs><g id="Layer_2" data-name="Layer 2"><g id="svg4403"><g id="Layer_1-2" data-name="Layer_1"><g id="New_Balance_logo.xml" data-name="New Balance logo.xml"><g id="layer1"><g id="g12167"><path id="path12177" class="cls-1" d="M0,71.6H2.94V65.75a5.66,5.66,0,0,1,.54-3.07,2.52,2.52,0,0,1,2-1.09C8,61.59,8,64.52,8,65.53V71.6h3V65c0-1,0-3-1.13-4.36a5,5,0,0,0-3.7-1.71,4.54,4.54,0,0,0-3.36,1.49V59.31H0V71.6Z"/><path id="path12181" class="cls-2" d="M24.31,66.77a7.2,7.2,0,0,0,.18-1.48,6.46,6.46,0,0,0-6.36-6.47,6.56,6.56,0,0,0-6.47,6.67A6.47,6.47,0,0,0,18.15,72a6.39,6.39,0,0,0,5.94-4.27H21a3,3,0,0,1-2.83,1.57,3.53,3.53,0,0,1-3.39-2.53ZM14.67,64.4a3.57,3.57,0,0,1,3.48-2.88,3.3,3.3,0,0,1,3.32,2.88Z"/><polygon id="path12185" class="cls-1" points="28.26 71.6 30.08 71.6 32.4 63.63 32.45 63.63 34.75 71.6 36.57 71.6 41.06 59.31 37.92 59.31 35.66 66.82 35.61 66.82 33.62 59.31 31.27 59.31 29.26 66.82 29.21 66.82 26.98 59.31 23.83 59.31 28.26 71.6"/><path id="path12189" class="cls-2" d="M46.76,71.6h2.7V70.12A5,5,0,0,0,53.61,72c4.49,0,6.11-4.14,6.11-6.6a6.35,6.35,0,0,0-6.18-6.51,5.45,5.45,0,0,0-3.83,1.53V55.21h-3V71.6Zm2.77-6.31a3.67,3.67,0,0,1,3.65-3.7,3.87,3.87,0,0,1,0,7.71,3.74,3.74,0,0,1-3.7-4Z"/><path id="path12193" class="cls-2" d="M73.47,59.31H70.76v1.55h0a5.26,5.26,0,0,0-4.08-2,6.2,6.2,0,0,0-6.15,6.49c0,4.1,2.81,6.62,6,6.62a6.09,6.09,0,0,0,4.29-1.92V71.6h2.71V59.31Zm-2.79,6.12a3.62,3.62,0,0,1-3.59,3.87,3.68,3.68,0,0,1-3.66-3.79,3.73,3.73,0,0,1,3.66-3.92A3.6,3.6,0,0,1,70.68,65.43Z"/><polygon id="path12195" class="cls-1" points="77.98 55.21 75.03 55.21 75.03 71.6 77.98 71.6 77.98 55.21"/><path id="path12199" class="cls-2" d="M91.84,59.31h-2.7v1.55h0a5.23,5.23,0,0,0-4.07-2,6.21,6.21,0,0,0-6.16,6.49c0,4.1,2.81,6.62,6,6.62a6.13,6.13,0,0,0,4.3-1.92V71.6h2.7V59.31Zm-2.79,6.12a3.62,3.62,0,0,1-3.59,3.87,3.67,3.67,0,0,1-3.65-3.79,3.73,3.73,0,0,1,3.65-3.92A3.6,3.6,0,0,1,89.05,65.43Z"/><path id="path12203" class="cls-1" d="M93.41,71.6h2.94V65.75a5.76,5.76,0,0,1,.53-3.07,2.53,2.53,0,0,1,2-1.09c2.48,0,2.48,2.93,2.48,3.94V71.6h2.94V65c0-1,0-3-1.13-4.36a5,5,0,0,0-3.69-1.71,4.57,4.57,0,0,0-3.37,1.49V59.31H93.41V71.6Z"/><path id="path12207" class="cls-1" d="M114.79,67.59a3.17,3.17,0,0,1-2.72,1.71,3.68,3.68,0,0,1-3.7-3.85,3.58,3.58,0,0,1,3.56-3.86,3.07,3.07,0,0,1,2.86,1.79h3.32a6.44,6.44,0,0,0-6.18-4.49A6.56,6.56,0,0,0,112,72a6.37,6.37,0,0,0,6.15-4.41Z"/><path id="path12211" class="cls-2" d="M131.21,66.77a6.57,6.57,0,0,0,.18-1.48A6.46,6.46,0,0,0,125,58.82a6.56,6.56,0,0,0-6.46,6.67A6.46,6.46,0,0,0,125.05,72,6.39,6.39,0,0,0,131,67.73h-3.1a3,3,0,0,1-2.84,1.57,3.5,3.5,0,0,1-3.38-2.53Zm-9.63-2.37a3.55,3.55,0,0,1,3.47-2.88,3.3,3.3,0,0,1,3.33,2.88Z"/><path id="path12215" class="cls-2" d="M50.13,30.86l-3.94,6.8L24.4,36.43l2.18-3.79ZM65.88,9.2l2,7.5-30.91-2,2.18-3.79L65.88,9.2ZM45.38,0h18.1l1.36,5.13L43.2,3.79,45.38,0ZM43.79,41.88l-3.14,5.41-22.51,0,2.18-3.78,23.47-1.65ZM83.31,27.31l-5.44,9.44h5.19c2.4,0,6.71-1.2,8-4.62,1.23-3.18-1-4.83-2.6-4.83Zm5.2-9,4.53,0c3,0,6.15-1.39,7.3-4.19,1.06-2.59-.36-4.8-2.25-4.79H93.71l-5.2,9ZM68,16.7l4.57-7.93,15.47-1,.54-1-14.31-1L77.64,0h26.54c8.16,0,14.2,2.92,11.85,11.5-.71,2.6-4,9.14-13.75,11.88,2.06.25,7.2,2.53,6.32,8.44C107,42.29,93.46,47.28,85.92,47.28l-31.34,0L53,41.24l16.41-1.16.56-1L52.21,38l-1.92-7.18,25.33-1.48.55-.95-45.5-2.87,2.18-3.79,49-3.18.56-.95L68,16.7Z"/></g></g></g></g></g></g></svg>