<svg xmlns="http://www.w3.org/2000/svg" viewBox="0 0 652.37 521.46"><defs><style>.cls-1{fill:#1e1c18;}.cls-2{fill:#917b55;}</style></defs><g id="Layer_2" data-name="Layer 2"><g id="Layer_1-2" data-name="Layer 1"><path class="cls-1" d="M81.53,520.92h31.38a12.16,12.16,0,0,1-4.47-1.53c-4.8-2.85-6.48-8.23-6.94-9.61-2.4-7.28-20.77-48.9-46.41-106.57Q34.78,453.28,14.46,503.36C11.61,510.81,8.23,517.83,0,520.92H29c-10.93-2.73-14.25-7.63-13-17.67L25.79,480l48.78.78c3.82,9,7.7,18,11.43,27.09C89.11,515.4,88.36,517.29,81.53,520.92ZM26.18,478.15c4.46-11.12,8.54-21.74,13-32.22.84-2,2.51-7.17,5.41-13.94,1.84-4.29,3.55-7.9,4.91-10.64q11.88,28.71,23.78,57.41Z"/><path class="cls-1" d="M429.8,520.92h31.38a12.16,12.16,0,0,1-4.47-1.53c-4.81-2.85-6.48-8.23-6.94-9.61-2.4-7.28-20.77-48.9-46.41-106.57Q383,453.28,362.73,503.36c-2.85,7.45-6.23,14.47-14.46,17.56h29c-10.92-2.73-14.24-7.63-13-17.67L374.06,480l48.77.78c3.83,9,7.71,18,11.44,27.09C437.38,515.4,436.63,517.29,429.8,520.92Zm-55.35-42.77c4.46-11.12,8.54-21.74,13-32.22.84-2,2.51-7.17,5.41-13.94,1.84-4.29,3.55-7.9,4.9-10.64l23.79,57.41Z"/><path class="cls-1" d="M618.8,519.71a.45.45,0,0,0,.13.32.46.46,0,0,0,.35.16h0a1.28,1.28,0,0,1-.07-.28C619.13,519.25,618.88,519,618.8,519.71Z"/><path class="cls-1" d="M648.64,405.65c1.23-.28,2.48-.5,3.73-.74l-.07-.37H614c12,2.53,12.81,3.43,12.82,15,0,13.49-.08,27-.13,40.45l-33.14.12L560.41,460c0-13.48-.13-27-.13-40.45,0-11.58.77-12.48,12.82-15H534.8l-.07.37c1.25.24,2.5.46,3.73.74,6.48,1.52,8,3.24,8.15,9.91.15,10.65.09,21.3.08,32,0,20.81,0,41.62-.08,62.43,0,6.7-2,9.26-7.71,11.28q13.41,0,26.81,0c.95,0,1.78,0,2.08-1.06-8.45-1.71-7.49-8.36-7.51-14.45q-.06-19.47,0-39c0-1.63-.45-3.34.52-4.87h.52v.41c4.3,0,8.6-.09,12.9-.11l19.32-.11,19.32.11c4.3,0,8.6.07,12.9.11v-.41h.52c1,1.53.52,3.24.52,4.87q.06,19.47,0,39c0,6.09.94,12.74-7.51,14.45.3,1.05,1.13,1.06,2.08,1.06q13.41,0,26.81,0c-5.67-2-7.68-4.58-7.71-11.28-.11-20.81-.08-41.62-.08-62.43,0-10.66-.07-21.31.08-32C640.59,408.89,642.16,407.17,648.64,405.65Z"/><path class="cls-1" d="M568.17,520a.41.41,0,0,0,.12-.32c-.07-.67-.32-.46-.43.19a2.29,2.29,0,0,1-.07.28h0A.47.47,0,0,0,568.17,520Z"/><path class="cls-1" d="M237.28,520.25l-35.06.24c-.68-2,1-3,1.8-4.33q12.84-20.22,25.83-40.36,21.56-33.63,43.09-67.25c.66-1,2.16-2,1.25-3.48-.71-1.1-2.15-.49-3.25-.5-3.82,0-7.65.05-11.48.08h0c-15.38-.68-30.77-.5-46.15-.1-4.66,0-9.34.21-14-.1-3.21-.21-4.3,1.13-5,4-1.34,5.65-3,11.22-4.64,16.79-.2.69-.49,1.38,0,1.8.74.63,1.57.26,2.12-.45,1.94-2.49,3.75-5.1,5.79-7.51,4.63-5.49,9.41-10.84,16.65-13,14.94-.48,29.88-.76,44.81.11a1.42,1.42,0,0,0,.42-.3,1.42,1.42,0,0,1-.42.3L185.55,520.91h16.67c11.7.79,23.41.51,35.12.19,7.66,0,15.35-.38,23,.28,5.89.52,8.71-1.6,10.3-7s5-10.13,5.17-16.18C266,511.17,253.45,518.85,237.28,520.25Z"/><polygon class="cls-1" points="189.24 429.19 189.34 429.48 189.55 429.25 189.24 429.19"/><path class="cls-2" d="M431.28,107.37h0l0,0,0,0v0a5.66,5.66,0,0,0,3-4l0,0h0a.09.09,0,0,1,0,0C432,103.71,431.17,105.2,431.28,107.37Z"/><path class="cls-2" d="M445.28,69.4h0v0a3.12,3.12,0,0,0,2-3h0v0C445.31,66.52,445.14,67.86,445.28,69.4Z"/><path class="cls-2" d="M469.3,86.41h0c1.68-.32,3.18-.82,3-3h0a0,0,0,0,0,0,0C470.59,83.7,469,84.11,469.3,86.41Z"/><path class="cls-2" d="M253.33,78.39a1,1,0,0,0,1,1v0h0c0-.71-.22-1.1-1-1h0Z"/><path class="cls-2" d="M464.25,78.37h.05v0c1-.32,1.42-1,1-2h-.05v0C464.3,76.73,463.84,77.33,464.25,78.37Z"/><path class="cls-2" d="M403,113.55h0a2.22,2.22,0,0,0,.34-.22A2.22,2.22,0,0,1,403,113.55Z"/><path class="cls-2" d="M241.33,64.42c1.7,4.11,5.18,6.77,8,10a9.05,9.05,0,0,0,4,4h0s0,0,0,0c.56-2.6-1.41-3.7-3-5-3.08-2.91-4.34-7.65-9-8.95v0Z"/><path class="cls-2" d="M399.28,134.37h0v0a3.31,3.31,0,0,0,2-3h0v0C399.18,131.42,399.14,132.83,399.28,134.37Z"/><path class="cls-2" d="M239.31,62.42c.51.84.88,1.81,2,2,0,0,0,0,0,0l0,0c.95-1.45-.39-2.09-1.05-3-.41-.82-.9-1.47-2-1h0A1.79,1.79,0,0,0,239.31,62.42Z"/><path class="cls-2" d="M479.32,93.37h0l.95-1h0s0,0,0,0c-.7,0-1,.3-1,1Z"/><path class="cls-2" d="M408.28,143.4l0,0v0c1.29,0,2.11-.56,2-2h0l0,0h0c-1.29.06-2.06.63-2,2h0Z"/><path class="cls-2" d="M237.32,58.41a1.38,1.38,0,0,0,1,2,1.38,1.38,0,0,0-1-2v0Z"/><path class="cls-2" d="M406.33,145.36l-.05,0h0s0,0,0,0a1.5,1.5,0,0,0-2,1h0a0,0,0,0,0,0,0A1.64,1.64,0,0,0,406.33,145.36Z"/><path class="cls-2" d="M407.28,144.4a1,1,0,0,0,1-1h0v0a.91.91,0,0,0-1,1h0Z"/><path class="cls-2" d="M407.28,144.4h0s0,0,0,0a.91.91,0,0,0-1,1h0Z"/><path class="cls-2" d="M480.26,92.37h.05l-.05,0a1,1,0,0,0,1-1h0v0C480.53,91.31,480.2,91.64,480.26,92.37Z"/><path class="cls-2" d="M234.32,55.41a1,1,0,0,0,1,1v0h0c0-.66-.31-1-1-1v0Z"/><path class="cls-2" d="M235.32,56.41c.06,1.28.51,2.17,2,2v0l0,0,0,0h0c-.07-1.27-.6-2.07-2-2v0Z"/><path class="cls-2" d="M479.31,93.38l-.05,0h0s0,0,0,0c-.91.13-1.18.69-1,1.56h0Z"/><path class="cls-2" d="M411.31,140.39h0l-1,1v0C411,141.38,411.35,141.09,411.31,140.39Z"/><path class="cls-2" d="M314.35,160.36c0-.63-.32-1-1-1v.05l0,0,0,0-.06-.05a1,1,0,0,0,1,1.05v0Z"/><path class="cls-2" d="M313.35,159.35c0-.69-.18-1.15-1-1l0,.06,1,.95h.06Z"/><path class="cls-2" d="M269.38,85.45c-5.71-6.57-10.13-14-14.34-21.54A46.44,46.44,0,0,0,244.4,50.85c-.55-1.41-1.26-2.61-3.06-2.45v0h0c.16,1.94,1.56,3,2.93,4.06,7.05,10.6,14,21.25,21.22,31.75,1.15,1.68,1.9,4.33,4.83,4.16h0C271.31,87,270,86.22,269.38,85.45Z"/><path class="cls-2" d="M312.29,158.35h.08c.68-1.51-.4-2.5-1.24-3.39-5.65-6-11.38-12-18.25-16.64-.64-.91-1.25-1.88-2.53-2l0,0h0l-.13.07c-.8,1.1.3,1.47.9,2l21.2,19.93,0,0,0,0Z"/><path class="cls-2" d="M241.32,48.42v0h0c0-.68-.27-1.06-1-1a0,0,0,0,0,0,0l0,0,0,0h0A1,1,0,0,0,241.32,48.42Z"/><path class="cls-2" d="M290.33,136.36v0h0c-.41-.85-.71-1.91-2-1,0,0,0,.07,0,.11h0c.35.95.72,1.84,1.93,1.06,0,0,0-.07.08-.12Z"/><path class="cls-2" d="M316.34,162.36c-.16-1.17-.61-2.05-2-2v0l0,0,0,0h0c0,1.36.58,2.06,2,2a.09.09,0,0,0,0,0Z"/><path class="cls-2" d="M308.06,139.44l-6.8-12.91c-.7-3.74-2.9-6.57-5.26-9.29.13,3.34,3.07,5.72,2.3,9.21-2.85-1-3.7-4.68-7-5.08v0l0,0c1,3.19,3.71,4.92,5.91,7.09a73.2,73.2,0,0,1,9.17,10.87c1.28,2.6,2.47,5.27,4.94,7C311.81,143.32,309.66,141.51,308.06,139.44Z"/><path class="cls-2" d="M317.34,164.35v0l0,0,0,0h0c.19,1.78,1.07,2.88,3,3h0C320.11,165.56,319.35,164.34,317.34,164.35Z"/><path class="cls-2" d="M317.34,164.35a1.61,1.61,0,0,0-1-2v0h0a1.57,1.57,0,0,0,1,2v0Z"/><path class="cls-2" d="M288.39,135.3c.31-1,0-1.29-1-1a.64.64,0,0,0,0,.07h0l-.05,0c-.05.73.32,1,1,1l0,0Z"/><path class="cls-2" d="M402.29,114.4c-4.12,3.76-4.55,9.37-7,14,4.66-3.51,6.29-8.53,7-14l-.07.08Z"/><path class="cls-2" d="M257.32,82.4c0,.66.31,1,1,1a.06.06,0,0,0,0,0v0l0,0a1,1,0,0,0-1-1v0Z"/><path class="cls-2" d="M258.31,83.41a1.49,1.49,0,0,0,1,2v0h0a1.59,1.59,0,0,0-1-2v0Z"/><path class="cls-2" d="M254.33,79.4c.21,1.79,1,3,3,3v0l0,0,0,0h0c-.24-1.76-1-3-3-3a0,0,0,0,0,0,0Z"/><path class="cls-2" d="M223.3,76.38h0c-.62-2.64-2.23-4-5-4v0h0a8.87,8.87,0,0,0,5,4l0,0Z"/><path class="cls-2" d="M287.37,134.33c.83-2.3-1.43-3-2.4-4.26-9.8-12.83-23.05-21.83-35.42-31.81a177.9,177.9,0,0,0-15.09-14c-3.38-3.1-6.3-6.84-11.11-7.91a.06.06,0,0,0,0,0h0c2.74,3.66,6.58,6.08,10,9l14.8,14.31c.86,1.72,2.83,2.67,3.23,4.69-4.47.84-7.3-2.81-11-4L217.46,87.26c-2-1.7-3.17-4.38-6.1-4.88v0h0c.5,2.5,2.32,3.88,4.34,5.08,6.87,6.26,15.13,10.2,23.4,14.12a45.86,45.86,0,0,0,12.24,5.45c10.64,3.78,19.11,10.49,26.44,19,2.73,3.17,5.4,6.67,9.54,8.35,0,0,0,0,0,0Z"/><polygon class="cls-2" points="402.33 114.35 402.33 114.36 402.33 114.35 402.33 114.35"/><path class="cls-2" d="M259.32,85.4c.07,1.26.61,2.06,2,2a.06.06,0,0,1,0,0h0c-.07-1.26-.58-2.09-2-2v0Z"/><path class="cls-2" d="M218.3,72.38h.06c.09-.77-.3-1-1-1,0,0,0,0,0,.05h0a1,1,0,0,0,1,1l0,0Z"/><path class="cls-2" d="M511.2,118.06a8.13,8.13,0,0,0-1.07-2.25A394.3,394.3,0,0,0,478,67.67c-4.83-6.11-11-11.33-18.66-12.77-11.56-2.16-18.68-9-24.74-18.4-7.89-12.23-21.35-12.37-30.28-.84-3.4,4.38-5.58,9.44-7.75,14.5-4.13,9.64-7,19.82-12,29.09-1.32,2.46-2.4,7-5.42,6-2.4-.8-.55-5.13.11-7.71,3.77-14.85,7.6-29.68,11.7-44.44,4.88-17.58-4.57-30.36-22.91-30.19-9.87.09-19.67-.19-29.34-2.19a28.76,28.76,0,0,0-14.34.41,56.79,56.79,0,0,1-26.7,1.22C290,1,282.84,2.46,275.93,6c-5.63,2.89-11.36,5.62-17.23,8C247.81,18.29,238,23.33,233,35.17c-2.64,6.25-8.48,8.6-15.5,6.8a46.62,46.62,0,0,0-8.38-1.35c-5.93-.38-7.8,1.5-7.6,7.48.15,4.34.74,8.78-2.58,12.33-8.2,8.76-6.24,19.33-.76,28.07,6.26,10,15.21,15.88,26.63,18.75,14.84,3.73,28.52,10.63,38.16,22.44,9.17,11.25,19.58,20.77,30.83,29.66,12.86,10.16,22.35,22.77,27.14,38.64,5.05,16.74,7.52,33.79,6.27,51.3-1.44,20.26-4.95,40.37-4,62.64-.33,19.36,4.12,40.22,4.76,61.38a9.25,9.25,0,0,0,2.77,6.77c1.25,1.17,2.46,1.57,4,.39,5.8-4.56,7.38-10.74,5.38-18-10.37-37.67-12-75,2.79-112.24,14.29-36,38.68-58.41,78.11-62.34,20.56-2,41.13-3.74,61.83-2.09a137.27,137.27,0,0,0,17,.19c5.85-.27,9.78-3.48,12.17-8.91C520.7,157.27,515.45,137.67,511.2,118.06Zm-5.79,4c.18,1.61-.78,2.4-2.1,3-2,.83-4,1.69-5.93,2.53-2,.69-4.11,1.26-6.08,2.07-14.12,5.76-28.54,10.89-41.34,19.45-9.38,4.68-19.55,6.86-29.61,9.38-.74-.37-1.87.49-2.44-.78l6.56-3.06,1.24-.69,3-1c9.53-2.6,18.86-6.09,26.88-11.72,13.61-9.55,28.4-16.56,43.69-22.73a21.37,21.37,0,0,1,3.87.58A3.45,3.45,0,0,1,505.41,122.05ZM406.36,160c-2.4.25-4.45,2.22-7.07,1.43,2.58-4.08,7.19-5.41,10.9-7.95,4-2.76,8.28-5.24,12.43-7.84,8.23-4,14.31-10.7,20.77-16.91,2-2,4.13-3.85,6.28-5.67.89-.76,2-1.49,2.71.32a148.36,148.36,0,0,1-8.29,16.83l-3,3.09-13.42,8.43-2.61,1.35-1.7.43A124.37,124.37,0,0,0,406.36,160Zm92.95-43.48c-13.18,4.73-26.14,9.9-37.6,18.18-4.46,3.22-8.95,6.42-14.06,8.54-1.31.55-2.83,2.31-4.33.15.52-.83,1-1.66,1.54-2.49l13.7-11.31c9.81-6,19.57-12.16,28.87-19a36.71,36.71,0,0,0,8.85-6.29C501.24,105.83,502.91,112.53,499.31,116.51Zm-71.94-75.3c1.9,3.67.47,7.45,0,11.19a163.55,163.55,0,0,1-13.44,27.7,98.38,98.38,0,0,0-11,26.54c-.28,1.11-1.17,2.13.34,3,5.45-11.45,10.85-22.92,16.36-34.34,3.6-7.46,7.15-14.93,9.66-22.84,1.73-1.89,1.34-6.46,6-4.64s7.28,6.14,6.26,10.65c-3.2,4.92-6.78,9.61-9.38,14.92-4.16,6.18-8.64,12.16-12.06,18.81a63,63,0,0,0-3.3,5.5c-5,10.63-9.09,21.66-15.17,31.76a1.56,1.56,0,0,0-.4,2h0v0a2.92,2.92,0,0,0,2-2,42,42,0,0,0,8.57-14.3c2.69-7.43,5.32-14.88,9.42-21.69,4.43-6,9-12,12.23-18.73l9.8-16.23c4.9-2.22,6.65-1.48,6.63,2.8-1.47,1.42-3,2.8-2.67,5.16h0v0a5.45,5.45,0,0,0,3.05-3.29c2.38-2.42,4.9-3.44,8.26-1.66,2.83,1.5,3.4,3.19,1.47,5.72a216.2,216.2,0,0,0-18.91,25c-2.46,3.61-6.08,6.52-6.89,11.15h0l0,0,0,0v0c3.52-2.65,5.64-6.41,8-10L461.4,68.5c4.64-2.21,6.18-.94,5.76,4.78a4.07,4.07,0,0,0-1.9,3.1h0s0,0,0,0c1.74.4,2.27-.91,2.9-2.08,2.17-2.65,4.5-3,7.07-.54,2,1.93,3.73,3.89.88,6.47-1.39.93-3.23,1.3-3.88,3.13h0v0c1.76.66,2.85-.48,4-1.52,5.7-.67,7.94,1.4,6.92,6.39-1,.79-2.36,1.39-1.93,3.08h0s0,0,0,0a1.89,1.89,0,0,0,2.1-1.22c2.22-1.55,4.21-1.51,5.91.8,2.53,3.46,6.67,5.94,6.62,11L485.87,109a144,144,0,0,0-28.61,19.3l-5.8,4.23c-.18-.19-.36-.38-.55-.56,1-2.72,2-5.45,3-8.17,4.49-7.91,10.64-14.5,16.62-21.23l7.35-7.23.12-.13-.12.13c-4.25,0-6,3.56-8.62,6-4.31,3.85-8.71,7.61-12.93,11.56-11.46,10.73-22.17,22.28-35,31.49-6.85,4.12-13.73,8.19-20.53,12.38a9.79,9.79,0,0,0-4.16,4.72c-4.93,4.13-9.06,9-13.36,13.79l-3,2.12c-1.17-2.39.92-3.66,2-5,5.4-6.72,11-13.29,16.5-19.92,2.33-1.56,4.82-3,5.52-6.05h0v0c-3.18,1-5,3.56-7.15,5.83-9.19,7.52-15.41,17.41-21.8,27.18l-1.57,1.39-.78-.68c.91-6.54,4.38-12,7.54-17.55a3.51,3.51,0,0,0,1.79-3.16h0a0,0,0,0,1,0,0c-1-.28-1.55.28-2,1.07-1.29,0-1.28-1-1.34-1.88l1.52-5.39,6.68-11.65c1.51-1.8,3.6-3.31,3.16-6.11,0,0,0,0,0,0v0c-2.13.55-2.19,3.71-4.72,3.74,3.65-12.06,8.12-24,10.75-36.23a119.94,119.94,0,0,1,17.74-42.37c4.29-6.38,7.52-13.27,8.28-21.09C425.25,36.52,426.35,39.24,427.37,41.21ZM341.12,13.33c.94-2.12-1.11-5.94,2.89-6.21,2.83-.2,6,.25,6.6,4.21-.15,3.13-.43,6.27-.42,9.41,0,12.23.65,24.49-1.73,36.6-.71,3-1.41,6.06-2.12,9.09-1,3-1.93,6-2.9,9a7.7,7.7,0,0,0-2,5.12c-1,1.41-.68,3.55-2.92,4.71-.49-2-.93-3.87-1.37-5.71.19-3.3,0-6.67.63-9.88,3.09-15.64,5.07-31.3,2.49-47.22Q340.71,17.86,341.12,13.33Zm.28,100.1q-.39,17-.76,34c-.67,3,.24,6.3-1.52,9.14-.05.08-.29.11-.42.07a1.53,1.53,0,0,1-.41-.27c-2.71-6.72-2.05-13.89-2.69-20.87a129.93,129.93,0,0,0-1.46-13.2,49.62,49.62,0,0,1,1.75-12.88c1.33-2,1.17-4.8,3.48-6.24l1.09,3.07A14.7,14.7,0,0,0,341.4,113.43ZM329.76,6.32c7.48-2.5,9.6-.84,9.86,7-.76,3-.41,6.08-.34,9.12-.67.69-.41,1.48-.37,2.31.46,9.78,1.12,19.54-.49,29.32C337,62.49,334,70.79,335.63,79.59c.73,6.28,2.38,12.47,1.86,18.87-2.79,1.77.63,6.42-3.77,7.79-1.09-4.72.09-9.35-.53-13.88,1.11-11.54-3.58-22-5.95-32.94a174.88,174.88,0,0,0-3.05-20c-.48-6.08-1-12.15-2.76-18,0-1-.07-2-.1-3C321,7.75,319.51,9.74,329.76,6.32Zm-35.6,3.45c2.55-1.12,4.43,1.15,5.91,3.17.38.52.72,1.08,1.07,1.61q3.15,13,6.29,25.91a159.33,159.33,0,0,1,1.83,24.2c0,2.08-.31,3.23-2.11.88-1.6-3.38-2.35-7.15-4.76-10.14-.1-.81.07-1.76-1.06-2,0,0,0,0,0,.07l0-.08h0c-.75-8.17-3.22-16-5.15-23.9a16.38,16.38,0,0,0-1.59-7.06c-.37-1.66.22-3.52-1-5a15.88,15.88,0,0,1-.17-1.94C293.45,13.51,291.88,10.77,294.16,9.77Zm-11.87,3.68c6.28-4.39,7.2-4.11,10,4-.28,1.81.77,3.3,1.15,5a19.23,19.23,0,0,0,1.49,7c1.23,8.23,1.86,16.62,6.32,24h0l0,.08,0-.08c.1.65.2,1.29.29,1.94a26.63,26.63,0,0,0,4.47,10q2.71,7,5.41,14l5.28,23a148,148,0,0,0,9.64,38q1.58,4.95,3.16,9.9,1.77,8,3.55,16.07c0,1.94,0,3.89,0,5.84l-.85.57-1.87-1.34h0l-.07-.06.07.05,0-2.06a12.47,12.47,0,0,0-3.59-6.81Q324,154,321.25,145.41q-2.61-11.49-5.2-23c-4.53-25.45-17.1-48-25.73-72q-4.76-14.47-9.5-29C280.73,18.69,278.93,15.8,282.29,13.45Zm63.06,206.91-1.48-.12q.64-5,1.3-9.93c.71-2.31,1.43-4.63,2.14-6.95,2.9-6.62,3.43-13.87,5.43-20.73l3.57-11.26c1.95-6.26,4-12.5,4.92-19,2.38-8.92,4.89-17.81,7.09-26.78.68-2.79,2.51-5.79,0-8.66h-.06v-.06a193.81,193.81,0,0,0-8.74,35.6q-2.35,9.47-4.7,18.92-1.73,5-3.44,10.1l-1.84,3.91c-1.28-6.7.85-12.29.7-18,1.45-8.16.39-16.6,3.26-24.62,7.32-20.42,9.66-42,14.12-63l.76-2.19a21.22,21.22,0,0,0,1.9-9.84c-2.16,2.63-2.18,5.81-2.78,8.83-.17.88-.33,1.77-.49,2.66a14.49,14.49,0,0,0-1.82,4.51c-5.18,18-5.64,37-12,54.76a75.82,75.82,0,0,0-4.79,28.94c-1.22,11.94-.32,24.06-2.89,35.9-1.42,2.13-1.12,4.69-1.77,7-1.59,4.62-1.87,9.44-2.15,14.26a85.38,85.38,0,0,1-4.32,19.72c-2.14-1.35-.91-3.24-.65-4.86.74-4.7,1.65-9.37,2.49-14a118.21,118.21,0,0,0,2.14-30c.05-2.89.15-5.78.12-8.67,0-1.37.24-3.15-2.14-2.78l0-1c0,.34,0,.68,0,1l.75,11.37q-.45,7.53-.88,15.06c.16,5.09-1.21,10-1.72,15-.5,1.83-2.54,2.68-2.43,5.13.21,4.26-.4,8.56-.66,12.85-2.1,2.95-2,.45-2-.89,0-6.32.38-12.61-1-18.87q-2.82-12.65-5.2-25.38c-3.27-17.54-12.9-31.09-26.26-42.34-4.07-3.42-8.13-6.87-12.37-10.08a60.09,60.09,0,0,1-14.46-15c-6.82-10.43-16.47-17.15-27.87-21.71-9.73-3.88-19.49-7.73-28.14-13.82-7.82-5.51-14-12.28-16.54-21.77,4.77.8,5.94,6.11,9.91,7.91h0c-.53-4.92-5-6.87-7.71-10.12a9.15,9.15,0,0,1-1.12-1.56c-1-2.37-1.37-4.78.8-6.69,2.66-2.35,3.82,1.23,5.8,1.65,1.86,1.6,3.15,4.14,6.2,3.76,0,0,0,0,0,0l0,0,0,0h0c-1-2.27-3-3.62-4.94-5-3.81-3.29-3.89-7.29-2.33-11.67.45-1.27,1.18-1.38,2.24-1,12.79,12.39,25.45,24.91,38.42,37.09,5.93,5.57,12.24,10.79,19.63,14.45,7.44,4,14.35,8.71,20,15.1a5.57,5.57,0,0,0,3,3l0,0h0c.57-1.93-.56-3.05-1.93-4.05C283,107.45,274,102,267.29,94.43c-1.49-1.84-1.93-4.71-4.94-5.05a.08.08,0,0,1,0,0s0,0,0,0a8.71,8.71,0,0,0,3.24,5c.32,2.16,3.61,3.45,1.83,6.23-2.84-2-5.8-3.92-8.51-6.12-16.56-13.47-31.23-28.95-46.29-44A3.5,3.5,0,0,1,211.18,48a40,40,0,0,0,6.34.44c5-.4,9.69-.06,13.85,3v0l0,0,0,0h.09c0-2.31-1.34-4.63,1-6.87,1.87-1.82,3.19-2,4.87-.11a5.61,5.61,0,0,0,3,3s0,0,0,0h0a2.34,2.34,0,0,0-1.08-3,9.93,9.93,0,0,1,3.94-11.46c1.31-.82,2.15-.08,3.1.54l42.84,67.51c-.14,1.11.9,2.57-.26,3.25s-2-.74-2.81-1.47c-1.6-1.42-3.17-2.88-4.76-4.33l-9.89-10.23-1.12.25h0c-.08.36-.16.73-.23,1.09a76.28,76.28,0,0,0,10.16,9.93,56.74,56.74,0,0,0,8.67,8.37c1.46,1.89,2.93,3.77,4.4,5.66.16,1,.44,2,1.77,1.71.31-.07.53-.63.79-1l-1.61-.83c.41-2.94-1.14-5.36-2.12-7.92a13.85,13.85,0,0,0-2.7-6.25c-3.57-9.08-9.73-16.61-14.83-24.77-8.82-14.08-17.06-28.55-27-41.91-1.16-3.15,1.19-4,3.28-5.1,3.45-1.83,6.06-.54,8.39,2a14.09,14.09,0,0,0,4,5.87c-.12-2.24-.45-4.39-2.32-6-2.48-4.13-1.62-7,3.08-8.62a47.23,47.23,0,0,0,6.26-2.89c4.42-2.34,7.5-1.32,9.2,3.47,2.85,10.24,5.08,20.68,9.5,30.43,7.7,23.8,18.41,46.52,25.42,70.56l5.46,23c.11,1,.22,1.95.34,2.93-2.26.5-2.75-1.36-3.49-2.72a45.71,45.71,0,0,1-4.37-10.37c-.28-1.26-.93-2.34-2.27-1.4-1,.69-.17,1.29.73,1.5,1.08,2.72,2.21,5.43,3.23,8.17.43,1.15,1.88,2.35.74,3.54s-2.11-1.36-3.47-.64c.65,3,2.56,5.19,4.76,7.17.37,2.08,2.42,3,3.32,4.73,1.49,2.87,3.88,5.43,2.84,9.08h0c-1.47,1.05-1.71,2-.54,3.71a69.44,69.44,0,0,1,9.71,22.19,6.54,6.54,0,0,0,1.21,4.53c2.14,8.8,1,18,3.28,26.78q.91-7.11,1.84-14.22l-3.6-43.86a47.78,47.78,0,0,0-3.63-17.33,30.08,30.08,0,0,0-2.49-8.76l-9.83-38a118.23,118.23,0,0,0-5.26-23C312.23,76,311,72.6,311.38,69c.11-1.1-.32-2.48.85-3.11,1.52-.81,2.26.69,3.19,1.49l6.32,11.17c.37.75.29,1.86,1.55,1.87.72-.65.33-1.32.06-2a58.83,58.83,0,0,0-6.28-11c-5.21-8.24-6-17.76-7.8-27a153.46,153.46,0,0,0-6.76-26c.06-1.21-.64-2.54,1.32-3.18,8.49-2.78,14.43.47,16.38,9.15.07.32.11.65.17,1a121.24,121.24,0,0,0,2.74,18.08,113.31,113.31,0,0,0,2.31,19.86c1.18,10.81,4.86,21.19,5.63,32.07h-2.51c-1.48-3.78-.87-8.56-5.24-11q3.4,13,6.8,26,1.14,8.44,2.27,16.91c.73,8.91,1.14,17.87,2.41,26.7.33,2.33-.86,5.37,1.66,7.3.19,8.6,1.61,17.06,2.83,25.54,1.7.44,2.05-.67,2.06-1.94.08-13.74,3.13-27.09,5.17-40.58,2.59-8.51,3.78-17.27,4.67-26.08q1.36-8.94,2.74-17.87A248.65,248.65,0,0,0,359,56.48c.44-2,.87-4,1.31-6h0v0c-2.29,1.39-2.23,3.86-2.78,6.05-1.64,5.92-1.46,12.06-2.29,18.08-.7,5.09-.65,10.35-2.94,15.14a3.89,3.89,0,0,1-2-3.3c-.29-1.77-.48-3.58-.91-5.33-.5-2,.43-4.91-3.07-5.13l0,0,0,0,2.43,10.37c.52,8.6,2.05,17.15,1.2,25.8q-2.28,14.18-4.55,28.33c-.69,1.7-1.37,3.41-2.05,5.11-1.86-1.17-.91-3-.93-4.49-.1-9.21-.13-18.41-.19-27.62.16-2.34.4-4.69-.77-6.89-.22-8.77-.34-17.53,1.21-26.22l1.91-4.43,1.71.06c3-2.81.21-6.68,1.81-9.74q1-4.43,2-8.87c.22-4.93,2.64-9.54,2-14.64-1.42-10.43-.72-20.87.15-31.3,2.82-3.83,6.9-3.45,10.83-3,3.35.42,3.57,3.08,3,5.68a49.12,49.12,0,0,0-.65,15.25,32.84,32.84,0,0,1-2.08,12.08c-.92,2.22-2.53,4.29-2,6.94l.05,0v0a24.9,24.9,0,0,0,5.75-17.71c.56-6.12.27-12.33,1.64-18.37.31-1.34,0-3.65,1.83-3.66,2.06,0,2.1,2.36,2.3,3.86,1.14,8.64.58,17.29,0,25.92-.34,5-.88,10-1.33,14.91-.84,4.09-1.67,8.18-.66,12.43,1.27-4,2.49-8.08,2.42-12.39,2.07-14.15,4.4-28.29,2.34-44,5.05,3.07,6.71,6.84,7.78,11,1.34,5.13.88,10.34-.2,15.37-4.92,22.79-9.77,45.58-11.66,68.88l-3.21,12.23.05.06c2.32,0,2.3-2.07,2.71-3.48.88-3,1.45-6.07,2.15-9.11,2.33-5.34,6.54-9.14,10.68-13l2.16.25a4.54,4.54,0,0,0,1.33-3,269.18,269.18,0,0,1,14-30.05,269.18,269.18,0,0,0-14,30.05l-.87-1.1c3.6-10.5,7-21.06,10.85-31.47,2.34-6.39,5.17-12.65,11.18-16.64.91-.61,2-1.62,3.12-.73.92.74.18,1.84-.07,2.77l1.51,0h0c3.16-5.59,5.39-6.16,7.95-2.05a86.59,86.59,0,0,1-11.47,24.56c-3.72,5.5-7.49,11.07-9.64,17.42-7.78,23-12.89,46.71-20.07,69.85a19.7,19.7,0,0,0-2.43,7.34,162.57,162.57,0,0,1-7.6,18.86c-5.59,11.24-11.59,22.29-16.32,34l-2.27,3.08c-4.53-.83,1.36-5.22-2.3-6.52-1.84,3.25-1.84,6.92-2.69,10.35C346,218.9,345.65,219.63,345.35,220.36Zm152.43-42.73c-6,1.28-11.92-.34-17.87-.62-30.76-1.47-61.17-.2-90.49,10.68-17.33,6.43-28.36,19.16-36.36,35.15-1.58,3.16-2.27,6.89-5.69,9.7-.38-5.11,2.08-8.83,3.28-12.87l4.62-8.32c16.78-21.6,38.1-35.07,65.91-37.29,21.83-1.75,43.42-6,65.41-6.39,6.52-.1,13.23.38,19.5-2.34a2.06,2.06,0,0,1,2.55,1.07C507.45,173.11,504.32,176.25,497.78,177.63Zm11.41-15.4c-4.33,2.4-9.07,3-13.93,3.11-9.46.17-18.94-.49-28.4.7-15,1.88-30,4.12-45.05,5.17a85.65,85.65,0,0,0-44.88,16.14c-1.11.79-2,2.36-3.9,1.64.8-3.26,4.49-4.47,5.24-7.65a.87.87,0,0,0,1-1c2.43-.36,3.63-2.3,5.05-4,8.19-7.47,18.08-10.56,28.93-11.16,8.08.14,16.05-1,24-2.14l35-4.82c11-1.12,22-2.15,33.09-2C511.48,156.29,511.61,156.42,509.19,162.23Zm-8.74-8.14a142,142,0,0,0-28.15,2.32c-12.12.74-24,3.29-35.95,5.15l-23.13,2.18c-1.26-.4-2.91.45-3.8-1.16l1.78-.34c3-.76,6.27-.57,9.16-2,14.3-1.84,28.46-4.3,41.78-10.14,2.14-.94,4.91-1.06,6.06-3.69-2.68-.9-5.78,2.4-8.24-.81,12.36-6.82,25.71-11.39,38.65-16.88,2.51.9,5.93-3.35,7.76,1.38,0,.57,0,1.15,0,1.72,1.19,2.67-.45,3.43-2.59,4-5.5,1.52-11,3.12-16.47,4.69l-4,.9c-3.29.86-6.81,1-10.74,3.66,5,.21,8.36-1.56,11.91-2.38l2.82-.53c4.56-.73,9.17-1.09,13.6-2.66,3-1.05,5.16-.79,6.88,3.07C513,154.37,513.3,154.3,500.45,154.09Z"/><path class="cls-2" d="M405.32,133.41c.76.09,1.14-.2,1-1h-.06s0,0,0,0a1,1,0,0,0-1,1l.05,0Z"/><path class="cls-2" d="M405.32,133.41h-.05v0l-1.13,1a2,2,0,0,0-.86,2.53l2.1-2.46Z"/><path class="cls-2" d="M407.32,131.36h0v0c2.8.16,3.68-2.34,5.28-3.83a62.49,62.49,0,0,0,11.26-11.08,2.11,2.11,0,0,0,1.46-2.09h0a.42.42,0,0,1,0-.06c-1.64-.5-2.47,1.5-4,1.33l.21-5.29,5.82-12c4.56-6.84,9.78-13.26,13.3-20.76,2-2.51,4-5,4.73-8.21l0,0h0v0c-3,.95-3.72,3.84-5.13,6.14-5.19,6.88-10.37,13.75-14.06,21.6a42.86,42.86,0,0,0-5.54,13.33c-2.1,6.29-5.73,11.67-9.94,16.7-1.52,1.07-3.07,2.12-3.32,4.2Z"/><path class="cls-2" d="M406.33,132.41c.84.18,1.19-.14,1-1h0l0,0,0,0s0,0,0,0a.92.92,0,0,0-1,1h0S406.32,132.39,406.33,132.41Z"/><path class="cls-2" d="M361.33,48.39l0,0a.11.11,0,0,0,0,0c-1.08.29-1.07,1.14-1,2l0,0h0v.06C361.25,50.05,361.33,49.24,361.33,48.39Z"/><path class="cls-2" d="M386.32,154.36h0l0,0a1.49,1.49,0,0,0,1-2h0c-1.17.24-1.29,1-1,2Z"/><path class="cls-2" d="M398.08,141l1.62-.69,1.55-1.55-1.56,1.55-1.61.49c-1.45-.9-.75-2.24-.7-3.45a3.5,3.5,0,0,0,1.94-3l0,0h0v0c-2,0-2.29,1.7-2.88,3.08-3.11,4.94-7.12,9.34-9.13,15h0C391.76,149.44,394.68,145,398.08,141Z"/><path class="cls-2" d="M234.32,55.41v0h0c.12-2.13-.43-3.75-2.89-3.94v.07h0l-.09-.06C231.22,53.63,232.84,54.46,234.32,55.41Z"/><path class="cls-2" d="M403.28,136.89a5.42,5.42,0,0,1-.49.46,1.47,1.47,0,0,0-1.54,1.44l1.55-1.44C403,137.2,403.13,137.05,403.28,136.89Z"/><path class="cls-2" d="M391.32,134.37h0v0c2-.12,2.31-1.35,2-3h0v0a3,3,0,0,0-2,3Z"/><polygon class="cls-2" points="426.31 112.35 426.31 112.35 426.31 112.35 426.31 112.35"/><path class="cls-2" d="M391.31,134.39h0a1,1,0,0,0-1,1h0v0C391.05,135.46,391.33,135.07,391.31,134.39Z"/><path class="cls-2" d="M385.29,155.39l0,0h0l1-1v0c-.7,0-1,.35-1,1h0Z"/><path class="cls-2" d="M425.32,114.4c1-.34,1.41-1,1-2h-.07l.05-.06c-.89.4-1.44,1-1.05,2l.06,0Z"/><path class="cls-2" d="M469.94,144.92c-1.4-.58-1.49.58-1.69,1.49.89-.21,1.84.79,2.61-.09C471,146.19,470.39,145.1,469.94,144.92Z"/><path class="cls-2" d="M353.32,199.4q3.94-9,7.87-18.08h0l-1.08-1.26c-2.95,6.38-6.93,12.35-7.88,19.54-1.94,1.57-2.06,3.83-2.91,6.49C353.05,204.64,353,201.92,353.32,199.4Z"/><path class="cls-2" d="M427.32,111.36h0v0c2,0,2.63-1.36,3-3h0v0c-1.88.13-2.64,1.39-3,3l.05,0Z"/><path class="cls-2" d="M427.32,111.41h-.05l-1,1,0,0C427.06,112.48,427.34,112.1,427.32,111.41Z"/><path class="cls-2" d="M430.31,108.41a1.07,1.07,0,0,0,1-1l0,0v0c-.73-.06-1,.33-1,1h.05Z"/><path class="cls-2" d="M291.31,121.37h0c0-.66-.28-1.05-1-1a0,0,0,0,0,0,0Z"/><path class="cls-2" d="M308.33,130.36c.14,1,.35,2,1.71,1.81.32-.06.56-.62.84-.95l-1.61-.86c.42-1.87-.2-3.59-.8-5.32-2.88-8.29-5.66-16.63-8.64-24.89-1.62-4.51-3.32-9-6.56-12.73q-11.06-19-22.12-37.93a4.8,4.8,0,0,0-1.89-3.6c.14,1.43.24,2.53.34,3.63a328.41,328.41,0,0,0,22.6,39.07c1.58,3.84,3.35,7.6,4.69,11.52C300.37,110.32,303.61,120.62,308.33,130.36Z"/><path class="cls-2" d="M266.37,40.49c.11.73.22,1.46.34,2.19.14-.08.37-.13.4-.24A1.62,1.62,0,0,0,266.37,40.49Z"/><path class="cls-2" d="M436.31,115.39a5.19,5.19,0,0,0,3-4h0v0c-2.46.24-3.1,1.84-3,4h0Z"/><path class="cls-2" d="M393.31,131.37h0v0c2.08,0,2.37-1.29,2-3a3,3,0,0,0-2,3Z"/><path class="cls-2" d="M264.36,36.48c.1,1,0,2.13.93,2.86C265.24,38.3,265.27,37.24,264.36,36.48Z"/><path class="cls-2" d="M434.3,118.36l0,0a2.92,2.92,0,0,0,2-3l0,0v0c-1.94.15-2.33,1.33-2,3Z"/><path class="cls-2" d="M411.31,140.36h0s0,0,0,0c4.09-.29,6.32-3.5,9.12-5.81,4.24-3.51,9.92-5.27,12.74-10.5,2.16-.88,4-2,4.14-4.68h0v0c-1-.24-2.37.5-3-1l-.05,0v0c-2.11-.24-2.38,1.59-3.18,2.83a71.23,71.23,0,0,1-11.78,12.2c-2.9,2.08-6,3.92-8,7h0v0Z"/><path class="cls-2" d="M439.3,111.4a3,3,0,0,0,2-3h0v0c-2.19,0-2.4,1.3-2,3h0Z"/><path class="cls-2" d="M261.35,87.38v0h0a1.58,1.58,0,0,0,1,2v0h0A1.5,1.5,0,0,0,261.35,87.38Z"/><path class="cls-2" d="M449,99.53q6.65-9,13.28-18.09c1.07-.75,2-1.58,2-3l0,0h0l0,0c-1.74-.4-2.18,1-2.85,2.1-5,6.14-9.95,12.31-15,18.41-.89,1.08-1.63,2-1.14,3.49v0A6.47,6.47,0,0,0,449,99.53Z"/><path class="cls-2" d="M442.31,114.4c2-.67,2.94-2.4,4-4l19-20c1.54-1.13,3.27-2.08,4-4h0c-2.67-.76-3.72,1.42-5.18,2.85a93.76,93.76,0,0,0-18.94,20c-1.4,1.47-3.54,2.54-2.88,5.16h0Z"/><path class="cls-2" d="M383.32,157.35h0v0c1.41.07,1.93-.76,2-2l0,0v0c-1.4-.07-1.88.79-2,2Z"/><path class="cls-2" d="M383.32,157.39h0v0a1.58,1.58,0,0,0-1,2h0v0A1.51,1.51,0,0,0,383.32,157.39Z"/><path class="cls-2" d="M441.29,108.38a2.42,2.42,0,0,0,2.06-2.43,1.52,1.52,0,0,0,1-1.55h0l0-.06-1.07-.2c-1.19,1.16-2.61,2.21-1.9,4.22h0Z"/><path class="cls-2" d="M211.34,82.4v0h0c0-.67-.28-1.06-1-1v0h0A1,1,0,0,0,211.34,82.4Z"/><path class="cls-2" d="M437.31,119.4c2.8-.53,4.13-2.53,5-5h0c-3,.29-4.05,2.6-5,5h0A0,0,0,0,1,437.31,119.4Z"/><path class="cls-2" d="M217.32,71.42s0,0,0,0h0c0-2-1.29-2.71-3-3l0,0h0C214.15,70.59,215.66,71.08,217.32,71.42Z"/><path class="cls-2" d="M444.3,104.38h0v0c1-.32,1.62-.86,1-2-1.28.19-1.88.72-1,2l.07,0Z"/><path class="cls-2" d="M434.27,118.41l0,0Z"/><path class="cls-2" d="M368.3,116.84v.06h0v-.06Z"/><path class="cls-2" d="M290.34,120.4l0,0h0l0,0Z"/><polygon class="cls-2" points="311.33 146.37 311.33 146.37 311.33 146.37 311.33 146.37 311.33 146.37"/><path class="cls-2" d="M320.28,167.36h0Z"/><path class="cls-2" d="M287.33,134.37l0,0h0Z"/><path class="cls-2" d="M316.34,162.39h0v0Z"/><path class="cls-2" d="M290.37,136.39h0l0,0Z"/><path class="cls-2" d="M312.31,158.38l0,0h0l0-.05Z"/><path class="cls-2" d="M411.31,140.36v0h0l0,0Z"/><path class="cls-2" d="M406.33,145.36h0l0,0Z"/><path class="cls-2" d="M386.29,154.39h0l0,0Z"/><polygon class="cls-2" points="383.32 157.35 383.32 157.35 383.28 157.39 383.32 157.35 383.32 157.35"/><polygon class="cls-2" points="387.29 152.4 387.28 152.4 387.27 152.41 387.29 152.4"/><path class="cls-2" d="M403.87,110.64a1.87,1.87,0,0,1-.52,2.69A1.87,1.87,0,0,0,403.87,110.64Z"/><polygon class="cls-2" points="393.31 131.37 393.31 131.37 393.29 131.4 393.31 131.37 393.31 131.37"/><polygon class="cls-2" points="391.31 134.37 391.31 134.37 391.3 134.39 391.31 134.37 391.31 134.37"/><path class="cls-2" d="M402.33,114.36a.08.08,0,0,0,0,0l0,0Z"/><path class="cls-2" d="M402.29,114.4l.72-.85h0l-.72.85Z"/><polygon class="cls-2" points="390.31 135.36 390.31 135.36 390.29 135.4 390.31 135.36 390.31 135.36"/><polygon class="cls-2" points="360.33 50.37 360.33 50.37 360.29 50.44 360.33 50.37 360.33 50.37"/><path class="cls-2" d="M270.31,88.41h0v0Z"/><polygon class="cls-2" points="234.32 55.38 234.32 55.38 234.32 55.38 234.35 55.42 234.32 55.38"/><path class="cls-2" d="M258.33,83.39l0,0Z"/><path class="cls-2" d="M231.46,51.52h0l-.06-.06.06.06Z"/><path class="cls-2" d="M478.27,94.94l-.31.31.31-.31Z"/><path class="cls-2" d="M480.26,92.42h0l0,0Z"/><path class="cls-2" d="M479.26,93.42h0l0,0Z"/><path class="cls-2" d="M479.32,93.37h0l0,0,0,0Z"/><path class="cls-2" d="M211.34,82.38Z"/><polygon class="cls-2" points="218.3 72.38 218.3 72.38 218.36 72.43 218.3 72.38 218.3 72.38"/><polygon class="cls-2" points="217.31 71.38 217.31 71.38 217.31 71.38 217.36 71.42 217.31 71.38"/><polygon class="cls-2" points="223.3 76.38 223.3 76.38 223.36 76.43 223.3 76.38 223.3 76.38"/><path class="cls-2" d="M407.32,131.36h0l0,0,0,0Z"/><path class="cls-2" d="M399.29,134.41h0v0Z"/><path class="cls-2" d="M434.28,103.42Z"/><path class="cls-2" d="M427.32,111.36l-.05,0h0l.05,0Z"/><path class="cls-2" d="M431.3,107.39l0,0Z"/><path class="cls-2" d="M426.31,112.36h0l-.05.06Z"/><polygon class="cls-2" points="426.31 112.35 426.31 112.35 426.31 112.35 426.31 112.35"/><polygon class="cls-2" points="445.28 69.43 445.28 69.43 445.31 69.39 445.28 69.43 445.28 69.43"/><path class="cls-2" d="M370.4,154.88c.46-1.8.91-3.62,1.34-5.44C371.31,151.26,370.86,153.08,370.4,154.88Z"/><path class="cls-2" d="M413.1,41.34h0a52.22,52.22,0,0,1-4.9,10A52.22,52.22,0,0,0,413.1,41.34Z"/><path class="cls-2" d="M377.37,116.75c2.57-8.48,5.82-16.78,8.69-25.18h0C383.18,100,379.94,108.27,377.37,116.75Z"/><path class="cls-2" d="M370.4,154.88a137,137,0,0,1-9.21,26.44h0A137,137,0,0,0,370.4,154.88Z"/><polygon class="cls-2" points="442.3 114.4 442.3 114.4 442.3 114.4 442.31 114.39 442.3 114.4"/><polygon class="cls-2" points="472.31 83.39 472.31 83.39 472.31 83.39 472.27 83.42 472.31 83.39"/><polygon class="cls-2" points="439.27 111.41 439.27 111.41 439.27 111.41 439.31 111.36 439.27 111.41"/><path class="cls-2" d="M434.3,118.36v0Z"/><path class="cls-2" d="M464.27,78.42h0v0Z"/><path class="cls-2" d="M444.27,104.41h0l0,0Z"/><polygon class="cls-2" points="323.31 80.42 323.31 80.42 323.3 80.39 323.31 80.42 323.31 80.42"/></g></g></svg>