<?xml version="1.0" encoding="utf-8"?>
<!-- Generator: Adobe Illustrator 24.3.0, SVG Export Plug-In . SVG Version: 6.00 Build 0)  -->
<svg version="1.1" xmlns="http://www.w3.org/2000/svg" xmlns:xlink="http://www.w3.org/1999/xlink" x="0px" y="0px"
	 viewBox="0 0 1024 177" style="enable-background:new 0 0 1024 177;" xml:space="preserve">
<style type="text/css">
	.st0{fill:#FBE106;}
</style>
<g id="svg4072" xmlns:svg="http://www.w3.org/2000/svg">
	<g>
		<path id="path3141" d="M380.2,72.6l7.4-20.6h-90c0,0-4.8,0-9.3,3.5c0,0-4.6,3.3-6.3,8l-21.7,56.8c0,0-1.7,4.8,0.4,8
			c0,0,2,3.5,6.7,3.5h89.8l7.8-19.5h-71c0,0-2,0-2.8-1.3c0,0-0.9-1.3,0-3.3l11.7-30.8l2.6-3c0,0,1.7-1.3,3.7-1.3H380.2 M505.3,55.4
			c0,0,2,3.3,0.2,8l-21.7,56.8c0,0-1.7,4.8-6.3,8c0,0-4.6,3.5-9.3,3.5h-80.1c0,0-4.8,0-6.7-3.5c0,0-2.2-3.3-0.4-8l9.1-23.4
			c0,0,1.7-4.8,6.3-8c0,0,4.6-3.3,9.3-3.3h60.5l-6.5,16.1h-42.1c0,0-4.3,0-6.3,4.6l-0.7,1.5c0,0-0.7,2,0.2,3.3c0,0,0.9,1.3,2.6,1.3
			h44.3c0,0,4.3,0,6.3-4.6l11.7-30.8c0,0,0.7-1.7-0.2-3c0,0-0.9-1.3-2.6-1.3h-73.6l6.9-20.6h92.2C498.6,51.9,503.4,51.9,505.3,55.4
			 M613,51.9c0,0,4.8,0,6.7,3.5c0,0,2,3.3,0.2,8l-8.2,22.1h-20.6l3.3-8.7v-3c0,0-0.9-1.3-2.8-1.3h-42.3c0,0-2,0-3.7,1.3
			c0,0-2,1.3-2.6,3l-20.6,54.9h-25.6l30.6-79.8H613 M678.5,5.1l-47.3,126.7h-27.8L650.7,5.1H678.5 M776.8,51.9l-7.6,20.6h-77
			L677,112.3h77.5l-7.6,19.5h-90.5c0,0-4.6,0-6.7-3.5c0,0-2-3.3-0.2-8L682.6,32h25l-7.6,20H776.8 M805,51.9c-4.8,0-9.3,3.5-9.3,3.5
			c-4.6,3.3-6.3,8-6.3,8l-21.7,56.8c-1.7,4.8,0.2,8,0.2,8c2,3.5,6.7,3.5,6.7,3.5h86.8c4.8,0,9.3-3.5,9.3-3.5c4.8-3.3,6.5-8,6.5-8
			l21.5-56.8c1.7-4.8-0.2-8-0.2-8c-2-3.5-6.7-3.5-6.7-3.5H805z M817.6,72.6h43.8c0,0,2,0,2.8,1.3c0,0,0.9,1.3,0.2,3l-11.7,30.8
			c0,0-2,4.6-6.3,4.6h-43.8c0,0-2,0-2.8-1.3c0,0-0.9-1.3,0-3.3l11.5-30.8l2.6-3C813.9,73.9,815.8,72.6,817.6,72.6z M1018.1,55.4
			c0,0,2,3.3,0.2,8l-26,68.3h-24.3l20.6-54.9c0,0,0.9-1.7,0-3c0,0-0.9-1.3-2.8-1.3h-46.9c0,0-2,0-3.7,1.3c0,0-2,1.3-2.6,3L912,131.8
			h-24.7l30.2-79.8h93.9C1011.3,51.9,1016.1,51.9,1018.1,55.4"/>
		<path id="path3147" class="st0" d="M91.8,171.9l46.4-134.1H45.4L91.8,171.9 M114.4,146.8l64.2-69.9L146,55.2L114.4,146.8 M5,76.9
			l32.5-21.7l31.7,91.6L5,76.9"/>
	</g>
</g>
<g id="Layer_1">
</g>
</svg>
