<svg xmlns="http://www.w3.org/2000/svg" viewBox="0 0 225 225"><defs><style>.cls-1{fill:#fff;}</style></defs><g id="Layer_2" data-name="Layer 2"><g id="Layer_1-2" data-name="Layer 1"><circle cx="112.5" cy="112.5" r="159.1"/><path class="cls-1" d="M56.35,124.66c.55.28.84.55,1.12.55q47.23.11,94.47.18c3,0,4.05-1.62,4-4.46-.1-4.83,0-9.66,0-14.5,0-6.31-.1-6.4-6.49-6.4q-44,0-88,0c-1.62,0-3.24.14-5.08.22Z"/><path class="cls-1" d="M169,72.75c-4.38-10.8-8.37-20.11-11.89-29.6-1.22-3.31-2.95-4.08-6.23-4.06-30.13.12-60.26.06-90.4.08-1.4,0-2.8.23-5.49.46,1.9,2.1,3,3.45,4.19,4.6C65.31,49.89,71.32,55.67,77.68,61A12.77,12.77,0,0,0,85.06,64c20.63.37,41.28.41,61.92.6,1.62,0,4.29-.08,4.68.74C155.15,72.52,162.29,70.05,169,72.75Z"/><path class="cls-1" d="M168.73,152.42c-4.63.77-8.1,1.15-11.44,2-1.48.38-3.41,1.41-3.93,2.65-1.27,3-3.44,3-6,3-20.8.06-41.6.11-62.39.43a11.94,11.94,0,0,0-7,2.71c-6.68,5.74-13,11.87-19.48,17.89a32.12,32.12,0,0,0-2.62,3.19c.81.45.94.59,1.07.59q48.17.09,96.33.1a3.87,3.87,0,0,0,3-1.77C160.36,173.31,164.33,163.31,168.73,152.42Z"/></g></g></svg>