<svg xmlns="http://www.w3.org/2000/svg" viewBox="0 0 215.53 44.08"><g id="Layer_2" data-name="Layer 2"><g id="Layer_1-2" data-name="Layer 1"><path d="M165.2,0c6.2,0,12.3,0,18.4,0,7.49,0,15-.12,22.46.06,6.31.15,8.64,2.7,8.75,9,.15,8,.15,8-4.79,12.43,6.81,3.86,5.89,10.26,4.6,16.18-.47,2.13-3.47,4.5-5.8,5.24C205.44,44,201.62,44,198,44c-10.8.11-21.6,0-32.79,0Zm10.72,36.1c8.33,0,16.3,0,24.27,0,3.6,0,5-2,4.72-5.51-.19-2.47.39-5.4-3.39-5.44-8.45-.08-16.9,0-25.6,0Zm-.07-18.73c8.68,0,16.81,0,25,0,2.64,0,4-1.11,3.93-3.89-.11-2.58.71-6-3.16-6.16-8.55-.3-17.12-.1-25.72-.1Z"/><path d="M109.8.24h10.62v35h29.11V.31h10.8V5.14c0,9.83.07,19.65-.09,29.48-.11,6.32-2.17,9-8.14,9.17-11.31.38-22.65.37-34,0-5.77-.17-8.17-2.83-8.28-8.58C109.64,23.78,109.8,12.31,109.8.24Z"/><path d="M55.13.28H65.26V35.12H94.55V.34H105c0,12.24.1,24.19,0,36.13-.06,4.53-2.85,7.2-7.3,7.26-11.81.17-23.62.18-35.43,0-3.83-.06-7-2.17-7-6.37C55,25.06,55.13,12.78,55.13.28Z"/><path d="M9.71,16.93H40V.27H49.8V43.81H40.19V25.52H10V43.66H0V.43H9.71Z"/></g></g></svg>