<?xml version="1.0" encoding="utf-8"?>
<!-- Generator: Adobe Illustrator 24.3.0, SVG Export Plug-In . SVG Version: 6.00 Build 0)  -->
<svg version="1.1"
	 id="svg3003" inkscape:version="0.48.0 r9654" sodipodi:docname="XT.png" xmlns:cc="http://creativecommons.org/ns#" xmlns:dc="http://purl.org/dc/elements/1.1/" xmlns:inkscape="http://www.inkscape.org/namespaces/inkscape" xmlns:rdf="http://www.w3.org/1999/02/22-rdf-syntax-ns#" xmlns:sodipodi="http://sodipodi.sourceforge.net/DTD/sodipodi-0.dtd" xmlns:svg="http://www.w3.org/2000/svg"
	 xmlns="http://www.w3.org/2000/svg" xmlns:xlink="http://www.w3.org/1999/xlink" x="0px" y="0px" viewBox="0 0 214.5 60"
	 style="enable-background:new 0 0 214.5 60;" xml:space="preserve">
<style type="text/css">
	.st0{fill-rule:evenodd;clip-rule:evenodd;fill:#BD1717;}
</style>
<sodipodi:namedview  bordercolor="#666666" borderopacity="1" gridtolerance="10" guidetolerance="10" id="namedview3005" inkscape:current-layer="svg3003" inkscape:cx="100" inkscape:cy="30" inkscape:pageopacity="0" inkscape:pageshadow="2" inkscape:window-height="480" inkscape:window-maximized="0" inkscape:window-width="640" inkscape:window-x="0" inkscape:window-y="0" inkscape:zoom="2.55" objecttolerance="10" pagecolor="#ffffff" showgrid="false">
	</sodipodi:namedview>
<g>
	<path class="st0" d="M65.9,11.2C68.2,7.7,70.4,4,72.4,0h30.9c0,0-9.3,15-25.7,30L65.9,11.2z M0,59.5c0,0,26.1-5.5,49.8-28.7
		l8.6,13.9C42.3,54.8,22.6,61.9,0,59.5z M125.2,35.3h18.2c0.7,0,1.6-0.5,2.1-1.2l5.9-7.6h-20.5l-5.9,7.6
		C124.4,34.8,124.5,35.3,125.2,35.3z M91,48.8h16.7c0.7,0,1.6-0.5,2.1-1.2l19.3-24.7c20.9,0,41.8,0,62.7,0c3.1,0-0.3,4.8-3.5,4.8
		c-7.7,0-15.3,0-23,0l-15.2,20c-0.5,0.7-0.4,1.2,0.3,1.2h16.7c0.7,0,1.6-0.5,2.1-1.2l8.5-11.2h18.5c1.9,0,4,0.4,6.9-3.3
		c3.5-4.4,6.7-9,10.1-13.4c2.9-3.8-0.4-5.8-2.9-5.8H100.7c-0.6,0-1.5,0.5-2,1.1l-5.3,6.7c-0.5,0.6-0.4,1.1,0.2,1.1H110L90.7,47.6
		C90.2,48.3,90.3,48.8,91,48.8z M114.6,48.8h27.6c0.7,0,1.6-0.5,2.1-1.2l5.9-7.6h-30l-5.9,7.6C113.9,48.3,114,48.8,114.6,48.8z
		 M32.7,0h24.5l34,55.2H66.7L32.7,0z"/>
</g>
</svg>
