<?xml version="1.0" encoding="utf-8"?>
<!-- Generator: Adobe Illustrator 24.3.0, SVG Export Plug-In . SVG Version: 6.00 Build 0)  -->
<svg version="1.1" id="Layer_1" xmlns="http://www.w3.org/2000/svg" xmlns:xlink="http://www.w3.org/1999/xlink" x="0px" y="0px"
	 viewBox="0 0 225 225" style="enable-background:new 0 0 225 225;" xml:space="preserve">
<style type="text/css">
	.st0{fill:#FFFFFF;}
</style>
<g id="Layer_2_1_">
	<g id="Layer_1-2">
		<circle class="st0" cx="112.5" cy="112.5" r="159.1"/>
		<path d="M56.3,124.7c0.5,0.3,0.8,0.6,1.1,0.6c31.5,0.1,63,0.1,94.5,0.2c3,0,4.1-1.6,4-4.5c-0.1-4.8,0-9.7,0-14.5
			c0-6.3-0.1-6.4-6.5-6.4c-29.3,0-58.7,0-88,0c-1.6,0-3.2,0.1-5.1,0.2L56.3,124.7z"/>
		<path d="M169,72.8c-4.4-10.8-8.4-20.1-11.9-29.6c-1.2-3.3-2.9-4.1-6.2-4.1c-30.1,0.1-60.3,0.1-90.4,0.1c-1.4,0-2.8,0.2-5.5,0.5
			c1.9,2.1,3,3.5,4.2,4.6c6.1,5.7,12.1,11.4,18.5,16.8c2.1,1.8,4.7,2.8,7.4,3c20.6,0.4,41.3,0.4,61.9,0.6c1.6,0,4.3-0.1,4.7,0.7
			C155.1,72.5,162.3,70.1,169,72.8z"/>
		<path d="M168.7,152.4c-4.6,0.8-8.1,1.1-11.4,2c-1.5,0.4-3.4,1.4-3.9,2.6c-1.3,3-3.4,3-6,3c-20.8,0.1-41.6,0.1-62.4,0.4
			c-2.6,0.1-5,1.1-7,2.7c-6.7,5.7-13,11.9-19.5,17.9c-0.9,1-1.8,2.1-2.6,3.2c0.8,0.4,0.9,0.6,1.1,0.6c32.1,0.1,64.2,0.1,96.3,0.1
			c1.2-0.1,2.3-0.7,3-1.8C160.4,173.3,164.3,163.3,168.7,152.4z"/>
	</g>
</g>
</svg>
