<?xml version="1.0" encoding="utf-8"?>
<!-- Generator: Adobe Illustrator 24.3.0, SVG Export Plug-In . SVG Version: 6.00 Build 0)  -->
<svg version="1.1" id="Layer_1" xmlns="http://www.w3.org/2000/svg" xmlns:xlink="http://www.w3.org/1999/xlink" x="0px" y="0px"
	 viewBox="0 0 215.5 44.1" style="enable-background:new 0 0 215.5 44.1;" xml:space="preserve">
<style type="text/css">
	.st0{fill:#FFFFFF;}
</style>
<g id="Layer_2_1_">
	<g id="Layer_1-2">
		<path class="st0" d="M165.2,0c6.2,0,12.3,0,18.4,0c7.5,0,15-0.1,22.5,0.1c6.3,0.2,8.6,2.7,8.8,9c0.1,8,0.1,8-4.8,12.4
			c6.8,3.9,5.9,10.3,4.6,16.2c-0.5,2.1-3.5,4.5-5.8,5.2C205.4,44,201.6,44,198,44c-10.8,0.1-21.6,0-32.8,0L165.2,0z M175.9,36.1
			c8.3,0,16.3,0,24.3,0c3.6,0,5-2,4.7-5.5c-0.2-2.5,0.4-5.4-3.4-5.4c-8.4-0.1-16.9,0-25.6,0V36.1z M175.8,17.4c8.7,0,16.8,0,25,0
			c2.6,0,4-1.1,3.9-3.9c-0.1-2.6,0.7-6-3.2-6.2c-8.6-0.3-17.1-0.1-25.7-0.1L175.8,17.4z"/>
		<path class="st0" d="M109.8,0.2h10.6v35h29.1V0.3h10.8v4.8c0,9.8,0.1,19.6-0.1,29.5c-0.1,6.3-2.2,9-8.1,9.2
			c-11.3,0.4-22.6,0.4-34,0c-5.8-0.2-8.2-2.8-8.3-8.6C109.6,23.8,109.8,12.3,109.8,0.2z"/>
		<path class="st0" d="M55.1,0.3h10.1v34.8h29.3V0.3H105c0,12.2,0.1,24.2,0,36.1c-0.1,4.5-2.8,7.2-7.3,7.3
			c-11.8,0.2-23.6,0.2-35.4,0c-3.8-0.1-7-2.2-7-6.4C55,25.1,55.1,12.8,55.1,0.3z"/>
		<path class="st0" d="M9.7,16.9H40V0.3h9.8v43.5h-9.6V25.5H10v18.1H0V0.4h9.7V16.9z"/>
	</g>
</g>
</svg>
