<svg xmlns="http://www.w3.org/2000/svg" viewBox="0 0 176.04 72"><defs><style>.cls-1{fill:#176ab3;}.cls-2{fill:#71bd44;}.cls-3{font-size:17.35px;font-family:AmsiPro-BoldItalic;font-weight:700;font-style:italic;}.cls-4{letter-spacing:-0.02em;}.cls-5{letter-spacing:0em;}</style></defs><g id="Layer_2" data-name="Layer 2"><g id="svg4403"><path class="cls-1" d="M96.37,44.24c6.47-1.18,17.8-6,23.07-13.62a19.5,19.5,0,0,1-.19,3A13.49,13.49,0,0,1,115,40.26a39.71,39.71,0,0,1-13.84,8.24,44.52,44.52,0,0,1-18.62,3,20.46,20.46,0,0,1-7.73-2c-3.76-1.83-5.06-8.25-3.3-12a30.73,30.73,0,0,1,9-10.76,49.22,49.22,0,0,1,20.92-10,20.23,20.23,0,0,1,9.78,0c4.55,1.31,6.39,5.06,4.68,9.52S111.07,34,107.59,37a49.83,49.83,0,0,1-10.27,6.73C97,43.88,96.68,44.06,96.37,44.24Zm-9.6-4.31,1.59-.1a11.93,11.93,0,0,0,1.45-.17,29.53,29.53,0,0,0,14.25-7.29,12.28,12.28,0,0,0,4.2-6.42,3.5,3.5,0,0,0-2.51-4.48,11.76,11.76,0,0,0-3.58-.48c-4.31.12-8.15,1.79-11.78,3.93a21.67,21.67,0,0,0-8,7.41c-1,1.72-1.78,3.62-.6,5.52S84.94,39.88,86.77,39.93Z"/><path d="M0,48.08c.07-8.32,2.93-15.69,7.32-22.55A51.16,51.16,0,0,1,19,12.57a7.18,7.18,0,0,1,1.54-1,2.54,2.54,0,0,1,1,0c0,.36.07.86-.13,1.08-.69.73-1.49,1.38-2.24,2A40.45,40.45,0,0,0,8,31.36c-2.11,5.91-2.72,11.93-.76,18A20.25,20.25,0,0,0,20.76,63c7.39,2.44,14.61,1.46,21.6-1.55A42.87,42.87,0,0,0,64.24,40.84a30.72,30.72,0,0,0,3.59-14.52c-.16-8.65-3.66-15.59-11.55-19.78A25.27,25.27,0,0,0,42.45,4a2.21,2.21,0,0,1-.84,0,4.5,4.5,0,0,1-.91-.63c.2-.27.35-.71.61-.78a12.19,12.19,0,0,1,2.6-.5c5.5-.37,10.79.34,15.62,3.24,6,3.59,9.16,9,10.28,15.79,1.35,8.18-.71,15.76-4.39,23A52.76,52.76,0,0,1,44.83,65.84a42.15,42.15,0,0,1-18,6c-7.14.6-13.67-.75-19.23-5.5A20.56,20.56,0,0,1,.71,54.1C.35,52.11.23,50.09,0,48.08Z"/><path class="cls-2" d="M145.35,43.3c.24,2.19.85,3.89,2.74,4.71a4.88,4.88,0,0,0,5.15-.81c.65-.49,1.24-1.06,1.85-1.59a1.75,1.75,0,0,1,2.25-.16c.81.53.72,1.31.39,2.06a6.49,6.49,0,0,1-5.26,3.71,15.87,15.87,0,0,1-5,0,8.21,8.21,0,0,1-6.9-7.88c-.17-3.19.26-6.23,2.86-8.44,2.79-2.36,6.08-2.63,9.43-1.6a7.29,7.29,0,0,1,5.24,6.16c.45,2.53-.47,3.72-3,3.78-2.77.05-5.53,0-8.3,0C146.36,43.31,145.92,43.3,145.35,43.3Zm8.21-2.73c0-2.91-1.68-4.61-4.21-4.51a4,4,0,0,0-3.75,4.51Z"/><path class="cls-2" d="M129.23,51.62c-4.46-.18-7.31-2-8.66-5.62-1.47-4-.35-8.8,2.61-11.29,3.58-3,10.43-2.4,13.15,1.19a5.45,5.45,0,0,1,.82,1.61,1.85,1.85,0,0,1-1,2.37,1.88,1.88,0,0,1-2.52-.49c-.41-.5-.78-1-1.22-1.52a4.2,4.2,0,0,0-7.08.92,7.59,7.59,0,0,0,.11,6.94,4.28,4.28,0,0,0,7.16.66c.44-.54.77-1.14,1.18-1.71a1.88,1.88,0,0,1,2.32-.83,2.15,2.15,0,0,1,1.29,2.49,5.79,5.79,0,0,1-3.87,4.21A33,33,0,0,1,129.23,51.62Z"/><path class="cls-2" d="M171.36,38.7c0-3.29,0-6.59,0-9.88,0-1.9.75-2.81,2.27-2.8S176,27,176,28.86q0,9.95,0,19.89c0,1.82-1.1,2.89-2.68,2.68a2.17,2.17,0,0,1-2-2.47c0-3.42,0-6.84,0-10.26Z"/><path class="cls-2" d="M166.52,38.84c0,3.37,0,6.74,0,10.12a2.32,2.32,0,1,1-4.62.06q0-10.25,0-20.48c0-1.67.85-2.49,2.35-2.49s2.28.91,2.29,2.54C166.53,32,166.52,35.42,166.52,38.84Z"/><path class="cls-1" d="M32.18,4.15C32.2,1.49,33.76,0,36.45,0a4.1,4.1,0,0,1,3.76,4.28A4.19,4.19,0,0,1,36,8.45,4,4,0,0,1,32.18,4.15Z"/><path class="cls-1" d="M28.94,10.28a2.82,2.82,0,0,1-2.76-2.94A2.92,2.92,0,0,1,29,4.25a2.89,2.89,0,0,1,2.76,3A2.87,2.87,0,0,1,28.94,10.28Z"/><path class="cls-1" d="M24.18,8.26A1.86,1.86,0,0,1,26,10.37a2,2,0,0,1-1.88,2.12,2.11,2.11,0,0,1-1.89-2.14A1.91,1.91,0,0,1,24.18,8.26Z"/><path class="cls-2" d="M36.83,11.21c9.26.4,16.79,4.24,21.22,12.75,6,11.49.39,25.51-11.93,30.22-10,3.82-19.2,2.16-26.83-5.38-7.92-7.83-8.67-19.72-1.5-28.65C22.59,14.19,29.06,11.46,36.83,11.21Zm19.5,32.52c4.93-7,4.49-21.59-8.6-28.51-.86,1.89-.86,1.89,1.29,2.12a2.4,2.4,0,0,0,.23.76,1.5,1.5,0,0,1-.16,2.31c-.21.18,0,.91.15,1.34s.47.56.71.84A5.28,5.28,0,0,1,48.4,21.5a1.06,1.06,0,0,0-.84-.23c-.23.1-.34.49-.54.82l2,.33,0,.25-1.31.12c.34.48.57.85.84,1.17a1.74,1.74,0,0,1-.31,2.86A11,11,0,0,1,45.85,28c-1,.36-1.24.85-.62,1.77.35.53.74,1,1.11,1.55l-1,1.37a6.65,6.65,0,0,0-.64-.59c-.47-.3-1-.57-1.44-.85,0,.71,0,1.43.06,2.14,0,.22.24.42.38.62l1,1.53c-1.94-1.41-2.47-3.51-2.76-5.67-2,.31-1.65-1.43-2.41-2.27a1.78,1.78,0,0,0-.72.16,31.67,31.67,0,0,0-2.86,2.13,2.33,2.33,0,0,0-.83,1.43,2.88,2.88,0,0,1-1.6,2.33L32,27.74c-.86.37-1-.21-.91-1-2.19-.22-4.53.32-6-2.25-.35,2.24,1.17,2.61,2.4,3.16-1.53,1.82-3.14,3.07-5.56,2.78l-.53-5.74-.49,0c0,1.08,0,2.16,0,3.24a4.9,4.9,0,0,0,.8,3.13c.61.91,1.5,1,2.33,1.58-.8,1-1.38,2.24-2.34,2.85-1.62,1-1.45,2.33-1.1,3.79.08.31.31.58.37.89a2.25,2.25,0,0,1-.48,2.36c-.21.19-.22.66-.23,1,0,1,0,2,0,3l-1.13.09C26.76,56.53,43.39,58,52.9,48.34l-1-1.48a19.83,19.83,0,0,0-2.32.36,20.36,20.36,0,0,0-2.35,1c.2-3.68-.32-3.63,2.72-5.23.6-.31,1.09-.83,1.67-1.2a14.06,14.06,0,0,1,1.6-.79l.17-.93,2.18,1.88.8-1.4ZM23.47,19.35c-.73.36-.91,1.77-2.06,1.22-.31-.14-.29-1-.41-1.5-2.27,1.08-2.66,1.73-2.34,4.35.38-.05.82-.23,1.14-.11,1.8.65,1.79.68,2.88-1.12a1.48,1.48,0,0,1,2.13-.34L25,19.5Zm20.24-5.72c-3.32-1.65-12.27-1.5-14.22.09a4.32,4.32,0,0,0,1.35.69,7,7,0,0,0,3.16,0,9.07,9.07,0,0,1,1.39-.48c.78-.14,1.53-.4,2.31-.52a7.06,7.06,0,0,1,2-.11c1.1.12,2.19.4,3.29.58C43.19,13.89,43.42,13.73,43.71,13.63ZM14.47,35.3l-.35.07,1.13,5.23.43-.09Zm8.88-18.71.08.2h1.81V15.42Z"/><path class="cls-2" d="M47.72,37.39C46.85,36,47,35.15,48,34.57a4.71,4.71,0,0,1,1.38-.31c.06.53.36,1.23.13,1.56A9.23,9.23,0,0,1,47.72,37.39Z"/><path class="cls-2" d="M42.85,35.15l4.78,3.79c-2,.11-3.1-.66-5-3.52Z"/><path class="cls-2" d="M54.56,36a11,11,0,0,1,1.91.53,1.16,1.16,0,0,1,.56,1c-.09.34-.55.6-.86.89-.25-.26-.51-.52-.74-.79s-.7-.83-1-1.25Z"/><path class="cls-2" d="M23.38,45.05c-.82-3.12-.82-3.12.78-3.64C24,42.59,24.16,43.8,23.38,45.05Z"/><path class="cls-2" d="M51.79,20.32a6,6,0,0,1,.15,2c-.12.52-.67.95-1.13,1.54l.81-3.35Z"/><text class="cls-3" transform="translate(87.01 66.49) scale(0.99 1)">iit bomb<tspan class="cls-4" x="69.54" y="0">a</tspan><tspan class="cls-5" x="79.17" y="0">y</tspan></text></g></g></svg>