<svg xmlns="http://www.w3.org/2000/svg" viewBox="0 0 199.65 72"><defs><style>.cls-1{fill:#ca163f;}.cls-2{fill:#202466;}.cls-3{fill:#1c2064;}.cls-4{fill:#1e2265;}.cls-5{fill:#ca1d44;}.cls-25,.cls-6{fill:#231f20;}.cls-26,.cls-7{fill:#fff;}.cls-8{fill:#e01932;}.cls-9{fill:#e6ab39;}.cls-10{fill:#638e8c;}.cls-11{fill:#0c3c5d;}.cls-12{fill:#e5ae4a;}.cls-12,.cls-13,.cls-14,.cls-15,.cls-16,.cls-18,.cls-21,.cls-22,.cls-23,.cls-24,.cls-25,.cls-26,.cls-27,.cls-28,.cls-29,.cls-30{fill-rule:evenodd;}.cls-13{fill:#c08532;}.cls-14{fill:#85b3da;}.cls-15{fill:#162c53;}.cls-16,.cls-17{fill:#5e85a9;}.cls-18,.cls-20{fill:#c98e37;}.cls-19{fill:#d39a3e;}.cls-21{fill:#efc283;}.cls-22{fill:#e3aa36;}.cls-23{fill:#f9e8b6;}.cls-27{fill:#b21f2f;}.cls-28{fill:#ba7f2c;}.cls-29{fill:#e0bd2d;}.cls-30{fill:#b96367;}</style></defs><g id="Layer_2" data-name="Layer 2"><g id="svg4403"><g id="svg2"><path class="cls-1" d="M112.46,53.73H64.91c-.3,0-.81.31-.91-.4s.25-.81.81-.81h95.3c.31,0,.76-.2,1,.2s-.06.91-.61,1h-1.68C143.33,53.73,127.92,53.73,112.46,53.73Z"/><path class="cls-2" d="M64,2.38a7.83,7.83,0,0,1,1.87-.1c.36,0,.46.25.61.51C67.8,4.87,69.12,7,70.49,9c.1.16.15.41.4.51.2-.25.1-.56.1-.81V2.94c0-.46.1-.71.66-.71,1.93,0,1.93,0,1.93,1.83v9.88c0,.66-.15.86-.86.91a2.1,2.1,0,0,1-2.18-1.21c-1.27-2.13-2.64-4.16-4-6.19-.3.15-.15.41-.15.56v6.13c0,.51-.1.76-.66.66A7.42,7.42,0,0,1,64,14.7c.15-.2.1-.4.1-.66V2.94A.84.84,0,0,0,64,2.38Z"/><path class="cls-3" d="M94.77,9.53V3c0-.51.1-.71.66-.71,1.82,0,1.82,0,1.82,1.83V14c0,.71-.1.91-.86,1a2.11,2.11,0,0,1-2.13-1.16c-1.27-2.08-2.63-4.11-4-6.19-.36.21-.21.46-.21.66v5.93c0,.51-.1.71-.7.71-1.78,0-1.78,0-1.78-1.77v-10c0-.61.2-.76.76-.81A2,2,0,0,1,90.61,3.5c1.22,2.08,2.59,4.05,3.91,6.08A1,1,0,0,0,94.77,9.53Z"/><path class="cls-3" d="M128,2.38a9.52,9.52,0,0,1,2.08-.1c.36,0,.41.15.41.46V14.4c0,.35-.1.5-.46.5a9.14,9.14,0,0,0-1.17,0,.85.85,0,0,1-.91-.5c-1.47-2.28-2.94-4.57-4.46-6.9-.3.15-.15.41-.15.61,0,2,0,4,0,6,0,.56-.1.76-.71.76-1.78,0-1.78,0-1.78-1.72V3c0-.61.21-.71.77-.76a2.11,2.11,0,0,1,2.28,1.17c1.31,2.13,2.58,4.26,4.1,6.28.31-.2.15-.5.15-.76,0-1.16.06-2.33,0-3.49A20.12,20.12,0,0,0,128,2.38Z"/><path class="cls-3" d="M142.22,6.24h-2.08c-.31,0-.41-.16-.51-.41a2.13,2.13,0,0,0-4.15.76,26.26,26.26,0,0,0,0,4.16,2,2,0,0,0,2.33,2,2.21,2.21,0,0,0,2-2.43c0-.3-.1-.4-.35-.4h-.86c-1.12,0-1,0-1.12-1.07-.1-.91.26-1.06,1.07-1,1,.05,2.08.05,3.09,0,.46,0,.71.05.66.61a22.32,22.32,0,0,1-.15,2.58A4.37,4.37,0,0,1,138,14.9c-2.59.11-4.51-1.16-4.92-3.44a17.16,17.16,0,0,1,0-6c.46-2.29,2.38-3.5,5.07-3.35A4.59,4.59,0,0,1,142.22,6.24Z"/><path class="cls-4" d="M117.73,14.9c-.91.31-1.32-.25-1.47-1.21s-.61-1.17-1.47-1.07a10.75,10.75,0,0,1-1.27,0c-.65,0-1.36-.2-1.87.1s-.51,1.12-.71,1.73c-.1.35-.3.45-.66.45-2.13.11-2.18.11-1.42-1.87l3.65-10c.2-.61.56-.71,1.12-.71s1.11-.15,1.42.71c1.26,3.65,2.63,7.3,4,11,.35.91.35.91-.66.91A1.93,1.93,0,0,1,117.73,14.9Zm-4-8.77c-.51,1.42-1,2.69-1.37,4-.15.35,0,.51.35.51h2.08c.41,0,.41-.16.31-.46C114.69,8.82,114.23,7.55,113.78,6.13Z"/><path class="cls-4" d="M84.63,14.9c-.86.26-1.37-.2-1.47-1.16s-.56-1.22-1.47-1.12a16.1,16.1,0,0,1-2.69,0,.79.79,0,0,0-.86.56c-.66,1.83-.66,1.77-2.58,1.67-.41,0-.56-.1-.41-.55C76.57,10.44,78,6.59,79.36,2.74c.1-.36.3-.46.66-.51,1.47,0,1.47-.1,2,1.32L85.8,13.89c.35,1,.35,1-.71,1C85,14.9,84.93,14.9,84.63,14.9Zm-2.48-4.36c-.46-1.42-1-2.83-1.47-4.46-.56,1.63-1.07,3-1.52,4.46Z"/><path class="cls-2" d="M98.77,2.28h2.39c.45,0,.5.36.65.66.66,1.37,1.27,2.79,1.93,4.16.31,0,.31-.31.41-.51.4-.86.81-1.77,1.21-2.64.81-1.77,1-1.87,3-1.67.66.1.26.41.16.61-1,1.93-1.93,3.9-2.94,5.78A4.4,4.4,0,0,0,105,10.8c0,1.16,0,2.33,0,3.5,0,.4-.1.5-.51.55-2,.1-2.13.1-1.92-1.87a10.56,10.56,0,0,0-1.68-6.54A45.93,45.93,0,0,1,98.77,2.28Z"/><path class="cls-3" d="M78.34,48.21a9.43,9.43,0,0,1-2.07.1c-.36,0-.41-.15-.41-.46V36.2c0-.36.1-.51.46-.51a7.5,7.5,0,0,0,1.06,0,1,1,0,0,1,1.07.61c1.31,2.07,2.68,4.15,4,6.23.1.2.25.36.51.76V36.35c0-.51.15-.66.66-.66,1.82,0,1.82,0,1.82,1.77v10c0,.66-.15.86-.86.91A2,2,0,0,1,82.5,47.2c-1.22-2-2.53-4-3.85-6-.1-.15-.1-.3-.31-.35-.25.2-.15.51-.15.76,0,1.27,0,2.48,0,3.75A26.32,26.32,0,0,0,78.34,48.21Z"/><path class="cls-2" d="M114.69,42.08V36.45c0-.51.1-.76.66-.71,1.47,0,2.89,0,4.36,0a3.81,3.81,0,0,1,4,4.31A3,3,0,0,1,122,42.63c-.51.26-.46.46-.2.86.71,1.37,1.42,2.79,2.18,4.16.25.46.3.61-.36.71-1.62.2-2.68-.25-3.14-1.92a13.21,13.21,0,0,0-1.12-2.34,1.64,1.64,0,0,0-1.92-.76c-.31.1-.2.36-.2.56v3.7c0,.51-.06.76-.66.76-1.83,0-1.83,0-1.83-1.77C114.69,45.07,114.69,43.6,114.69,42.08Zm4-4.06h0a4.46,4.46,0,0,1-.81-.05c-.55-.1-.71.15-.66.71s0,1.37,0,2.08c0,.3.11.45.41.45a16.42,16.42,0,0,0,2.23-.05,1.52,1.52,0,0,0,1.42-1.57A1.55,1.55,0,0,0,119.81,38,9.12,9.12,0,0,0,118.64,38Z"/><path class="cls-2" d="M104.05,42V36.4c0-.51.1-.66.65-.66,2.34,0,4.67,0,7,0,.56,0,.66.2.66.66,0,1.57,0,1.57-1.57,1.57h-3.6c-.51,0-.71.1-.66.61,0,.71-.2,1.67.15,2.08s1.37.1,2.08.15,1.27,0,1.93,0,.81.2.81.86c0,1.37,0,1.37-1.42,1.37h-2.84c-.46,0-.76.05-.66.61.1.76-.3,1.77.15,2.23s1.42.1,2.18.15h2.94c.46,0,.56.15.56.56.05,1.67.1,1.67-1.62,1.67h-6c-.51,0-.66-.1-.66-.66C104.05,45.78,104.05,43.9,104.05,42Z"/><path class="cls-3" d="M64,40.4v-4c0-.51.15-.66.66-.66,1.82,0,1.82-.05,1.82,1.77V43.8c0,1.87,1.27,2.84,2.89,2.33A2,2,0,0,0,70.79,44c0-2.48,0-5,0-7.45,0-.66.2-.81.81-.76,1.73.05,1.73,0,1.73,1.67v6.59a4.34,4.34,0,0,1-4.62,4.41,4.28,4.28,0,0,1-4.61-4.41A29.88,29.88,0,0,1,64,40.4Z"/><path class="cls-3" d="M129.59,48.41a6.3,6.3,0,0,1-4-1.16c-.41-.31-.61-.61-.1-1a1.17,1.17,0,0,0,.35-.35c.46-.66.87-.71,1.63-.26a3.77,3.77,0,0,0,3.29.36,1.39,1.39,0,0,0,1.12-1.47,1.28,1.28,0,0,0-1.17-1.32c-.61-.1-1.22-.15-1.83-.25-2.23-.36-3.29-1.42-3.34-3.4a3.57,3.57,0,0,1,3.19-3.85,6.15,6.15,0,0,1,4.87,1c.4.31.4.51.05.81l-.05,0c-.61.61-1.12,1.32-2.18.51a2.73,2.73,0,0,0-2.28-.15A1.38,1.38,0,0,0,128,39.34c0,.76.56,1.11,1.22,1.27s1.42.2,2.13.35a3.2,3.2,0,0,1,3,2.89,3.61,3.61,0,0,1-2,3.95A4.88,4.88,0,0,1,129.59,48.41Z"/><path class="cls-4" d="M97.56,43.55c.45-1.42.86-2.79,1.31-4.21.31-1,.66-2,.92-3a.67.67,0,0,1,.81-.61,6.74,6.74,0,0,0,1.42,0c.5,0,.5.15.35.56-1.26,3.8-2.53,7.6-3.75,11.4-.25.76-.76.56-1.22.61s-.86.1-1.06-.56c-1.22-3.8-2.48-7.6-3.75-11.4-.15-.41-.15-.56.4-.61,2-.1,2-.1,2.59,1.82s1.22,4,1.88,6C97.46,43.55,97.51,43.55,97.56,43.55Z"/><path class="cls-2" d="M156,40.76c.65-1.42,1.31-2.79,1.87-4.16a1.23,1.23,0,0,1,1.32-.86c1.87,0,1.87,0,1,1.67l-2.58,5a2.82,2.82,0,0,0-.36,1.57c.05,1.22,0,2.44,0,3.7,0,.56-.15.66-.66.66-1.82,0-2,0-1.82-1.82a10.76,10.76,0,0,0-1.78-6.8c-.71-1.21-1.31-2.58-2.07-4h2.48c.35,0,.35.3.46.51C154.54,37.72,155.19,39.19,156,40.76Z"/><path class="cls-2" d="M146.78,43.14v4.61c0,.41-.1.56-.56.61-1.92.1-1.92.1-1.92-1.82,0-2.59-.06-5.12,0-7.71,0-.71-.21-.91-.87-.86s-1.16,0-1.77,0c-.46.05-.66,0-.71-.61,0-1.62,0-1.62,1.57-1.62h6.69c.61,0,.81.1.81.76C150,38,150,38,148.5,38c-1.82,0-1.82,0-1.82,1.82C146.78,40.91,146.78,42,146.78,43.14Z"/><path class="cls-2" d="M88.43,42V36.4c0-.56.15-.71.71-.71,1.83,0,1.83,0,1.83,1.82v10c0,.61-.16.76-.76.76-1.78,0-1.78,0-1.78-1.77Z"/><path class="cls-3" d="M136.64,42V36.45c0-.56.15-.71.71-.71,1.77,0,1.77,0,1.77,1.72V47.55c0,.61-.15.81-.76.81-1.67,0-1.67,0-1.67-1.72C136.64,45.12,136.64,43.6,136.64,42Z"/><path class="cls-2" d="M117.28,30.92a5.68,5.68,0,0,0-.92,0,1.6,1.6,0,0,1-1.82-1c-1.32-2.13-2.69-4.21-4.06-6.34-.35.16-.2.46-.2.66v5.93c0,.51-.1.66-.66.71-1.92.05-1.92.05-1.92-1.82v-10c0-.61.15-.76.81-.81a2.19,2.19,0,0,1,2.33,1.27,72.91,72.91,0,0,0,4,6.08V19c0-.46.11-.66.61-.61s1.17,0,1.78,0Z"/><path class="cls-2" d="M104.91,24.69v5.68c0,.45-.1.6-.61.6-1.88.05-1.88.05-1.88-1.87V26.26c0-.46-.15-.61-.55-.56-1,.05-2,.05-3,0-.5,0-.6.2-.6.61v4c0,.56-.16.71-.71.71-1.83,0-1.83,0-1.83-1.82v-10c0-.61.15-.76.76-.76,1.78,0,1.78,0,1.78,1.78,0,.91,0,1.82,0,2.73,0,.51.15.61.6.61,1,0,2,0,3,0,.45,0,.55-.15.55-.56V19c0-.46.1-.61.61-.61,1.88-.05,1.88-.05,1.88,1.78Z"/><path class="cls-3" d="M160.77,22.36h-1.16c-.77.05-1.42.05-1.73-.92-.25-.76-1.32-1.06-2.18-.91a1.78,1.78,0,0,0-1.62,1.57,17.91,17.91,0,0,0,0,5.17,1.94,1.94,0,0,0,2.48,1.52,2.21,2.21,0,0,0,1.78-2.43c-.05-.25-.1-.35-.36-.3h-.5c-1.63,0-1.58,0-1.47-1.58,0-.35.15-.45.5-.45h3.86c.35,0,.5.1.45.51a24.91,24.91,0,0,1-.1,2.73,4.33,4.33,0,0,1-4.61,3.86,4.29,4.29,0,0,1-4.57-3.76,18.61,18.61,0,0,1,0-5.27,4.5,4.5,0,0,1,5.63-3.7A4.43,4.43,0,0,1,160.77,22.36Z"/><path class="cls-4" d="M149.92,24.79a16.24,16.24,0,0,1-.15,2.69A4.38,4.38,0,0,1,145,31.13a4.28,4.28,0,0,1-4.25-4,24.16,24.16,0,0,1,0-4.81,4.3,4.3,0,0,1,4.31-4A4.35,4.35,0,0,1,149.77,22,12.72,12.72,0,0,1,149.92,24.79Zm-6.84-.1c0,.76.1,1.57.2,2.38a1.94,1.94,0,0,0,2,1.77,1.9,1.9,0,0,0,2-1.62,17.23,17.23,0,0,0,0-5.07,1.93,1.93,0,0,0-2.08-1.67,2,2,0,0,0-2,1.83C143.13,23.12,143.13,23.88,143.08,24.69Z"/><path class="cls-3" d="M129.14,24.74a12.6,12.6,0,0,1-.1,2.74,4.42,4.42,0,0,1-4.57,3.6A4.21,4.21,0,0,1,120,27.37,19.68,19.68,0,0,1,120,22c.36-2.43,2.34-3.8,4.87-3.65a4.29,4.29,0,0,1,4.21,4.16A17.36,17.36,0,0,1,129.14,24.74Zm-6.69,0c0,.71,0,1.47,0,2.18a2.08,2.08,0,0,0,2,2A2,2,0,0,0,126.55,27a16.94,16.94,0,0,0,0-4.61,2,2,0,0,0-2.08-1.88,2.06,2.06,0,0,0-2.07,2C122.4,23.22,122.45,24,122.45,24.69Z"/><path class="cls-3" d="M82,23.57a7,7,0,0,1,.11,1.83c0,.45-.36.35-.61.35H77.79c-.46,0-.61.1-.56.56a12.44,12.44,0,0,1,0,1.93c0,.45.15.55.56.55H82.3c.56,0,.76.11.76.71C83,31,83.06,31,81.59,31H75.4c-.5,0-.71-.1-.71-.65,0-3.76,0-7.51,0-11.21,0-.56.16-.71.71-.71,2.34.05,4.62.05,6.95,0,.61,0,.71.21.71.76,0,1.47,0,1.47-1.52,1.47s-2.89.05-4.36.05A7.82,7.82,0,0,0,77,23.42c0,.2.15.3.35.3A44.89,44.89,0,0,0,82,23.57Z"/><path class="cls-3" d="M188.4,31c-.86.26-1.32-.2-1.42-1.16s-.61-1.22-1.52-1.12a16.11,16.11,0,0,1-2.69,0c-.45,0-.61.15-.76.56-.66,1.83-.66,1.83-2.58,1.72-.41,0-.56-.1-.41-.5,1.42-3.91,2.84-7.76,4.26-11.66.05-.15.1-.31.3-.36a1.63,1.63,0,0,1,2.18,1L189.56,30C190,31,190,31,188.8,31A.86.86,0,0,0,188.4,31Zm-5.53-4.31h3c-.5-1.47-1-2.83-1.52-4.46-.5,1.42-.91,2.64-1.31,3.91C183,26.26,183,26.41,182.87,26.66Z"/><path class="cls-4" d="M87.16,24.64c.06,1,.06,1.62.11,2.28a2,2,0,0,0,1.67,1.92,1.93,1.93,0,0,0,2.23-1.21.74.74,0,0,1,.91-.56h.26c1.77,0,1.87.1,1,1.72A4.59,4.59,0,0,1,88.28,31a4.29,4.29,0,0,1-3.6-3.95,25.23,25.23,0,0,1,0-4.76,4.29,4.29,0,0,1,4.21-4,4.41,4.41,0,0,1,4.86,3.55c.11.35.06.51-.35.51h-.86c-.71.05-1.32.05-1.62-.87a1.78,1.78,0,0,0-2.13-.91,2,2,0,0,0-1.63,1.73Z"/><path class="cls-3" d="M171.52,24.69a14.9,14.9,0,0,0,.15,2.58,1.93,1.93,0,0,0,1.62,1.57,1.84,1.84,0,0,0,2.08-.91c.36-.81.86-.86,1.62-.86,1.47.05,1.52.1.92,1.47a4.53,4.53,0,0,1-5,2.54,4.26,4.26,0,0,1-3.75-3.6,18.31,18.31,0,0,1,0-5.58,4.26,4.26,0,0,1,4.41-3.55,4.39,4.39,0,0,1,4.61,3.45c.1.45,0,.61-.46.61a2.78,2.78,0,0,0-.91,0,1.13,1.13,0,0,1-1.37-.81,1.9,1.9,0,0,0-2.13-1,1.88,1.88,0,0,0-1.62,1.57A10.68,10.68,0,0,0,171.52,24.69Z"/><path class="cls-2" d="M69.78,25.85v4.46c0,.51-.1.77-.66.77-1.83,0-1.83.05-1.83-1.78,0-2.58-.05-5.17,0-7.81,0-.71-.2-.86-.86-.81a4.5,4.5,0,0,1-1.16,0c-.41-.05-1.07.26-1.22-.2a5.53,5.53,0,0,1,0-1.82c0-.26.25-.21.45-.21h8.11c.31,0,.51.1.46.41V19c.1,1.72.1,1.72-1.67,1.72-1.62,0-1.62,0-1.62,1.68C69.78,23.47,69.78,24.64,69.78,25.85Z"/><path class="cls-3" d="M131.37,24.74V19.11c0-.56.15-.71.71-.71,1.82,0,1.82,0,1.82,1.83V28c0,.66.21.81.81.76,1.37,0,2.79,0,4.16,0,.51,0,.71.05.71.66,0,1.57,0,1.57-1.57,1.57-1.88,0-3.8,0-5.68,0-.86.05-1-.25-1-1C131.42,28.24,131.37,26.46,131.37,24.74Z"/><path class="cls-3" d="M191.44,24.74V19.11c0-.51.05-.71.66-.71,1.82,0,1.82,0,1.82,1.78V28c0,.56.11.71.71.71,1.47,0,2.89,0,4.36,0,.51,0,.66.16.66.66,0,1.57,0,1.57-1.57,1.57H192.2c-.56,0-.76-.1-.76-.71C191.49,28.44,191.44,26.56,191.44,24.74Z"/><path class="cls-3" d="M166,24.79v5.52c0,.46-.05.71-.61.71-1.92,0-1.92.06-1.92-1.87V19.21c0-.66.15-.76.81-.76,1.72.05,1.72,0,1.72,1.73Z"/><path class="cls-1" d="M83.06,58.7A2.09,2.09,0,0,1,85.59,60a40.13,40.13,0,0,0,3.15,4.66c0-1.67.05-3.34,0-5.07,0-.71.15-1,.91-.91,1.16.05,1.16,0,1.16,1.17V68c0,.36.26,1-.25,1s-1.37.41-1.87-.45c-1-1.73-2.18-3.4-3.25-5.07-.1-.15-.2-.31-.46-.66v5C85,69,85,69,83.72,69c-.26,0-.56.16-.76-.15.2-.25.1-.61.1-.86Z"/><path class="cls-5" d="M149.62,69h-2c-.35,0-.46-.25-.56-.5-.5-1.07-1.06-2.08-1.52-3.15-.3-.65-.81-.5-1.27-.45s-.35.56-.35.86a22.38,22.38,0,0,0,0,2.59c0,.5-.1.65-.66.65-1.47,0-1.47,0-1.47-1.47V59.36c0-.61.15-.76.76-.76,1.22,0,2.43-.05,3.7,0a3.06,3.06,0,0,1,2.89,4,2.12,2.12,0,0,1-.86,1.36c-1,.46-.66,1-.3,1.68C148.5,66.76,149,67.83,149.62,69Zm-5.78-7.24v1c0,.2,0,.4.3.35a8.23,8.23,0,0,0,2-.1,1.31,1.31,0,0,0,.56-2.18,2,2,0,0,0-1.57-.4C143.84,60.53,143.84,60.53,143.84,61.8Z"/><path class="cls-5" d="M97.46,63.92a8.23,8.23,0,0,0,.1,2,1.56,1.56,0,0,0,1.82,1.32A1.69,1.69,0,0,0,101,65.5c0-.36-.1-.61-.5-.56h-.36c-1,0-1.37-.61-1.06-1.52.1-.26.25-.26.45-.26h3c.36,0,.51.11.51.51,0,.71,0,1.47-.1,2.18A3.6,3.6,0,0,1,98.77,69a3.55,3.55,0,0,1-3.44-3.6c0-1.16,0-2.28,0-3.44a3.51,3.51,0,0,1,3.44-3.45,3.76,3.76,0,0,1,4.11,2.69c.1.45.1.66-.46.66-.76,0-1.47.15-1.87-.87-.26-.65-1.07-.76-1.78-.6a1.49,1.49,0,0,0-1.26,1.16A16.64,16.64,0,0,0,97.46,63.92Z"/><path class="cls-5" d="M137.76,63.87c0,.56,0,1.12-.11,1.68A3.51,3.51,0,0,1,134.31,69c-2.23.16-3.8-1-4.11-3a13.28,13.28,0,0,1,.05-4.66,3.54,3.54,0,0,1,3.81-2.79,3.58,3.58,0,0,1,3.59,3.2C137.71,62.45,137.71,63.16,137.76,63.87Zm-2.13,0a6.63,6.63,0,0,0-.15-2.23,1.69,1.69,0,0,0-3.25.26,13.82,13.82,0,0,0,0,3.8c.15,1.06.71,1.62,1.67,1.62a1.67,1.67,0,0,0,1.73-1.67A10.74,10.74,0,0,0,135.63,63.82Z"/><path class="cls-5" d="M156,60.48a6.24,6.24,0,0,0-.11,2c0,.41.31.41.56.41,1,0,1.88,0,2.84,0,.81,0,.66.46.66.91s.2,1-.61.91c-1-.05-2,0-2.94,0-.4,0-.51.16-.51.51-.1,2-.1,2,1.83,2h2.43c.46,0,.66.15.56.56s.51,1.26-.51,1.26c-2,.05-3.9,0-5.88,0-.45,0-.5-.2-.5-.55V59.16c0-.41.15-.51.55-.51,2.08.05,4.11.05,6.19.05v.41c0,1.37.15,1.21-1.22,1.27A17.62,17.62,0,0,0,156,60.48Z"/><path class="cls-5" d="M115.5,69h-1.77c-.51,0-.51-.4-.56-.71a1.22,1.22,0,0,0-1.62-1.16,1.47,1.47,0,0,1-.66,0c-1.17-.15-2.08,0-2.23,1.42,0,.5-.51.4-.86.4-1.42,0-1.42,0-1-1.26,1-2.84,2.08-5.63,3-8.47a.79.79,0,0,1,1-.61c.45.05.86-.1,1.11.56,1.07,3.14,2.23,6.23,3.4,9.33A3.11,3.11,0,0,1,115.5,69ZM111,61.85c-.3.81-.46,1.31-.66,1.87-.66,1.93-.66,1.93,1.42,1.78.31-.06.46-.06.36-.41C111.75,64.08,111.45,63.06,111,61.85Z"/><path class="cls-5" d="M67.34,69.09a5.18,5.18,0,0,1-2.94-.81c-.5-.3-.66-.66-.1-1.06a1.46,1.46,0,0,0,.41-.41c.25-.35.5-.3.86,0a3.46,3.46,0,0,0,2.74.46,1.2,1.2,0,0,0,1.11-1.17,1.08,1.08,0,0,0-1.06-1.16,17.45,17.45,0,0,1-1.73-.31A2.61,2.61,0,0,1,64.25,62a2.93,2.93,0,0,1,2.08-3.15,5,5,0,0,1,4.36.56c.4.26.56.51.1.86s-.86,1-1.67.41a2.12,2.12,0,0,0-2.08-.1,1.15,1.15,0,0,0-.76,1.16,1,1,0,0,0,.91,1c.61.15,1.22.2,1.83.3A2.63,2.63,0,0,1,71.5,65.5a3.08,3.08,0,0,1-1.82,3.19A6,6,0,0,1,67.34,69.09Z"/><path class="cls-1" d="M119.25,58.7c1.37,0,2.74-.05,4.11,0a3.1,3.1,0,0,1,3.14,3.2,3.07,3.07,0,0,1-3.14,3.19H123c-1.82,0-1.82,0-1.82,1.77v.76c0,1.47-.46,1.78-2,1.22.2-.25.1-.61.1-.86Zm3.1,1.78c-1.27.05-1.27.05-1.27,1.26v1.07c0,.25,0,.46.3.46a6.85,6.85,0,0,0,2.08-.11,1.26,1.26,0,0,0,.91-1.31,1.21,1.21,0,0,0-1-1.27C123.06,60.53,122.7,60.53,122.35,60.48Z"/><path class="cls-5" d="M75.86,63.82c0-1.47,0-2.94,0-4.41,0-.61.15-.76.76-.76C78,58.7,78,58.65,78,60v8.21c0,.66-.15,1-.81.81a1.47,1.47,0,0,0-.66,0c-.46,0-.61-.15-.61-.6C75.86,66.92,75.86,65.34,75.86,63.82Z"/><g id="g4390"><path id="path4392" class="cls-6" d="M0,0V38.12C0,55.21,20.72,72,28,72c6.66,0,28-16.64,28-33.88V0H0"/></g><g id="g4394"><path id="path4396" class="cls-7" d="M.61.79V38.15C.61,54.94,20.88,71.28,28,71.28c6.51,0,27.38-16.34,27.38-33.13V.79H.61"/></g><g id="g4398"><path id="path4400" class="cls-8" d="M.61.79H55.37V19.4H47.66v3.93H40.24V19.4H31.47v3.93H24.06V19.4H15.44v3.93H7.87V19.4H.61V.79"/></g><g id="g4402"><path id="path4404" class="cls-6" d="M47.87,23.56H40V19.62H31.69v3.94H23.82V19.62H15.66v3.94H7.79V19.62H.68v-.45H8.24V23.1h7V19.17h9.08V23.1h7V19.17h9.22V23.1h7V19.17h7.87v.45H47.87v3.94"/></g><g id="g4406"><path id="path4408" class="cls-7" d="M7.07,4H6.92c-.76.45-.46,3.33,1.66,7.11,1.82,3.17,3.94,5.14,5,5.14h.16c.3-.15.45-.76.15-2.27a15.66,15.66,0,0,0-2-4.84C10.25,5.83,8.13,4,7.07,4m6.5,13.31c-1.81,0-4.23-2.88-5.9-5.6-2-3.48-3-7.56-1.36-8.47a1.15,1.15,0,0,1,.76-.15c1.82,0,4.24,2.87,5.9,5.6a17.81,17.81,0,0,1,2.12,5.14c.45,2.27-.15,3-.76,3.33a6.31,6.31,0,0,1-.76.15"/></g><g id="g4410"><path id="path4412" class="cls-7" d="M10.17,8.15c-4.23,0-6.8,1.21-6.8,2,0,.3.45.9,1.81,1.36a16.93,16.93,0,0,0,5.15.75h.15c4.23,0,6.8-1.21,6.8-2,0-.3-.45-.91-1.81-1.36a16.92,16.92,0,0,0-5.3-.76Zm.31,5h-.15a18.3,18.3,0,0,1-5.45-.75c-2.12-.76-2.57-1.67-2.57-2.27,0-2,3.93-3,7.86-3h.16a17.93,17.93,0,0,1,5.44.76c2.12.75,2.57,1.66,2.57,2.27,0,2.11-3.93,3-7.86,3"/></g><g id="g4414"><path id="path4416" class="cls-7" d="M13.63,4c-1.06,0-3.18,2-5,5.14a20.28,20.28,0,0,0-2,4.84,2.9,2.9,0,0,0,.15,2.27H7c1.06,0,3.18-2,5-5.14C14.08,7.47,14.38,4.44,13.63,4h0M7.12,17.3a1.12,1.12,0,0,1-.75-.15c-.61-.3-1.21-1.21-.76-3.33A17.53,17.53,0,0,1,7.73,8.68c1.66-2.87,4.08-5.6,5.9-5.6a1.12,1.12,0,0,1,.75.15c1.82,1.06.61,5-1.36,8.47-1.51,2.73-4.08,5.6-5.9,5.6"/></g><g id="g4418"><path id="path4420" class="cls-6" d="M7.09,17.46a.93.93,0,0,1-.61-.15,2.47,2.47,0,0,1-1.21-1.67,9.12,9.12,0,0,1,.31-3v-.15l1.51.3v.15a8.35,8.35,0,0,0-.3,1.82A3.38,3.38,0,0,0,6.94,16h.15a2.9,2.9,0,0,0,1.36-.61,17.39,17.39,0,0,0,2.12-2.27,34.81,34.81,0,0,0,2-3,14,14,0,0,0,1.52-4.39c0-.45,0-1.21-.16-1.36,0,0-.15-.15-.45,0,0,0-1.51.45-3.33,3,0,0-1.06,1.66-1.81,3L8,10.2c.75-1.51,2-3,2-3.18,2-2.57,3.33-3.17,3.48-3.17A.61.61,0,0,1,14.2,4c.3.3.15,1.51.15,1.66a13.81,13.81,0,0,1-1.51,4.54,11.18,11.18,0,0,1-2,3,17.39,17.39,0,0,1-2.12,2.27,2.56,2.56,0,0,1-1.66.76.58.58,0,0,1-.46-.15,3.32,3.32,0,0,1-.3-1.51,4.71,4.71,0,0,1,.3-1.67l-.75-.15a6.47,6.47,0,0,0-.3,2.57c.15.76.45,1.21.9,1.36a2.34,2.34,0,0,0,2.12-.6,18.63,18.63,0,0,0,3.18-3.33,20.49,20.49,0,0,0,2.72-5.6C14.8,6,15,5.06,15,5.06a2.58,2.58,0,0,0-.6-2,1.2,1.2,0,0,0-1.06-.3c-2.72.3-5.75,5.9-5.75,6.05l-.3-.15c.15-.31,3.18-5.9,6-6.2a1.57,1.57,0,0,1,1.36.45,2.59,2.59,0,0,1,.61,2.27,7.1,7.1,0,0,1-.46,2.27,23,23,0,0,1-2.72,5.59A14.35,14.35,0,0,1,8.9,16.55c0,.3-.9.91-1.81.91"/></g><g id="g4422"><path id="path4424" class="cls-6" d="M12.45,10.24a12.19,12.19,0,0,0-2.27-3.48l.3-.3a14.66,14.66,0,0,1,2.27,3.63l-.3.15"/></g><g id="g4426"><path id="path4428" class="cls-6" d="M13,9a24.84,24.84,0,0,0-2.12-3.18l.3-.3a19.49,19.49,0,0,1,2.27,3.17L13,9"/></g><g id="g4430"><path id="path4432" class="cls-6" d="M7.65,12.1l-.91-1.82c-2.57-5.75-.91-7-.75-7.11,2-1.51,4.38,1.52,4.53,1.67l-.3.3S7.8,2.27,6.14,3.48h0s-1.67.9.9,6.65L8,12l-.3.15"/></g><g id="g4434"><path id="path4436" class="cls-6" d="M9.05,12.3C5.58,7.16,6.33,4.43,6.33,4.43A.57.57,0,0,1,6.94,4C8,3.83,9.51,5.65,9.66,5.8l-.3.3a4.07,4.07,0,0,0-2.27-2c-.15,0-.15,0-.3.3C6.79,4.43,6,7,9.36,12l-.31.3"/></g><g id="g4438"><path id="path4440" class="cls-6" d="M13.61,17.53c-.91,0-2.12-.76-3.48-2.12l.3-.3c2,1.82,3,2.12,3.48,1.82.76-.31.91-1.37.91-1.37.45-1.66-1.21-5.44-1.36-5.59l.3-.15c0,.15,1.82,4.08,1.36,5.74a1.89,1.89,0,0,1-1.21,1.52c0,.45-.15.45-.3.45"/></g><g id="g4442"><path id="path4444" class="cls-6" d="M13.5,16.42c-.6,0-1.51-.61-2.57-1.67l.3-.3c1.67,1.82,2.42,1.67,2.57,1.51.31-.15.31-.6.31-1.36a12,12,0,0,0-.91-3.17l.15-.16a11.72,11.72,0,0,1,.91,3.18c.15.91,0,1.51-.46,1.67l-.3.3"/></g><g id="g4446"><path id="path4448" class="cls-6" d="M9.49,14.68c-.3-.31-.9-1.37-1.05-1.37l.3-.15A5,5,0,0,0,9.8,14.52l-.31.16"/></g><g id="g4450"><path id="path4452" class="cls-6" d="M6.41,11.75,6.1,11.6c0-.15.46-1.21.61-1.66l.3.15a12.76,12.76,0,0,0-.6,1.66"/></g><g id="g4454"><path id="path4456" class="cls-6" d="M12.88,12.2v-.45h.6v.45h-.6"/></g><g id="g4458"><path id="path4460" class="cls-6" d="M12.19,13.4c-.15,0-.15,0-.31-.15l.31-.31H12a15.62,15.62,0,0,1,1.66-.15v.3c-.91.16-1.21.31-1.51.31"/></g><g id="g4462"><path id="path4464" class="cls-6" d="M10.61,13.43a16.71,16.71,0,0,1-5.9-.91c-1.06-.45-2.42-1.21-2.57-2.27a2.2,2.2,0,0,1,1.06-2,7.26,7.26,0,0,1,2.57-1v.3a7.11,7.11,0,0,0-2.42.91,3.28,3.28,0,0,0-.91,1.81c.15.76.91,1.36,2.42,2,2.12.9,5.9.75,5.9.75l-.15.46h0"/></g><g id="g4466"><path id="path4468" class="cls-6" d="M10.5,12.39c-2.72,0-6.2-.76-7.11-1.82a.76.76,0,0,1-.15-.75c.3-.91,2.72-1.52,3-1.52l.15.31c-.9.15-2.57.75-2.72,1.21a.46.46,0,0,0,.15.3c.91,1.06,4.69,1.81,7.87,1.66v.46a4.32,4.32,0,0,1-1.21.15"/></g><g id="g4470"><path id="path4472" class="cls-6" d="M7.17,8.57v-.3a2.72,2.72,0,0,1,.76-.15v.45h0c-.15-.15-.45,0-.76,0"/></g><g id="g4474"><path id="path4476" class="cls-6" d="M6.81,7.5V7.2s1.37-.15,1.82-.15V7.5c-.45-.3-1.82,0-1.82,0"/></g><g id="g4478"><path id="path4480" class="cls-6" d="M7.48,12l-.31-.15.15-.45.31.15L7.48,12"/></g><g id="g4482"><path id="path4484" class="cls-6" d="M11.46,8.39H9.19V7.94h2.27v.45"/></g><g id="g4486"><path id="path4488" class="cls-6" d="M10,7.29V6.84h.75v.45H10"/></g><g id="g4490"><path id="path4492" class="cls-6" d="M13.72,7.58a9.08,9.08,0,0,0-1.67-.15V7a10.16,10.16,0,0,1,1.67.15v.45"/></g><g id="g4494"><path id="path4496" class="cls-6" d="M13.38,8.61l-.61-.16.15-.3.61.15-.15.31"/></g><g id="g4498"><path id="path4500" class="cls-6" d="M14.5,12l-.15-.3a5.64,5.64,0,0,0,2.42-1.06h0c.3-.15.3-.3.15-.46-.15-.6-1.67-1.05-2.57-1.36l.15-.3c.3,0,2.72.61,2.87,1.66a1,1,0,0,1-.3.76A5.66,5.66,0,0,1,14.5,12"/></g><g id="g4502"><path id="path4504" class="cls-6" d="M14.93,13v-.3s3.48-.61,3.32-2.42-3.32-2.42-3.32-2.42v-.3c.15,0,3.48.6,3.63,2.72S15.08,13,14.93,13"/></g><g id="g4506"><path id="path4508" class="cls-7" d="M7,6A1.06,1.06,0,1,1,5.91,5,1,1,0,0,1,7,6"/></g><g id="g4510"><path id="path4512" class="cls-6" d="M6,5.22A.71.71,0,0,0,5.22,6,.71.71,0,0,0,6,6.73.71.71,0,0,0,6.73,6,.71.71,0,0,0,6,5.22m0,2A1.3,1.3,0,0,1,4.77,6,1.19,1.19,0,0,1,6,4.77,1.3,1.3,0,0,1,7.19,6,1.31,1.31,0,0,1,6,7.19"/></g><g id="g4514"><path id="path4516" class="cls-7" d="M11.37,10.21a1.06,1.06,0,1,1-1.06-1.05,1,1,0,0,1,1.06,1.05"/></g><g id="g4518"><path id="path4520" class="cls-6" d="M10.38,9.41a.76.76,0,1,0,.76.76.72.72,0,0,0-.76-.76m0,2a1.3,1.3,0,0,1-1.21-1.21A1.29,1.29,0,0,1,10.38,9a1.3,1.3,0,0,1,1.21,1.21,1.31,1.31,0,0,1-1.21,1.21"/></g><g id="g4522"><path id="path4524" class="cls-7" d="M9.64,16a1.06,1.06,0,1,1-1.06-1.06A1,1,0,0,1,9.64,16"/></g><g id="g4526"><path id="path4528" class="cls-6" d="M8.65,15.19a.76.76,0,1,0,0,1.51.76.76,0,0,0,0-1.51m0,2a1.29,1.29,0,0,1-1.21-1.21,1.3,1.3,0,0,1,1.21-1.21,1.2,1.2,0,0,1,1.21,1.21,1.3,1.3,0,0,1-1.21,1.21"/></g><g id="g4530"><path id="path4532" class="cls-7" d="M17.58,11.67a1.06,1.06,0,1,1-1.06-1.06,1,1,0,0,1,1.06,1.06"/></g><g id="g4534"><path id="path4536" class="cls-6" d="M16.59,10.87a.76.76,0,1,0,0,1.51.76.76,0,1,0,0-1.51m0,2a1.19,1.19,0,0,1-1.21-1.21,1.3,1.3,0,0,1,1.21-1.21,1.31,1.31,0,0,1,1.21,1.21,1.3,1.3,0,0,1-1.21,1.21"/></g><g id="g4538"><path id="path4540" class="cls-7" d="M42.19,4.05H42c-.3.15-.46.91-.15,2.27a15.37,15.37,0,0,0,2,4.84c1.82,3.18,3.94,5.14,5,5.14H49c.3-.15.45-.75.15-2.27a15.51,15.51,0,0,0-2-4.84c-1.81-3.32-3.93-5.14-5-5.14m6.5,13.31c-1.81,0-4.23-2.87-5.9-5.59a17.91,17.91,0,0,1-2.11-5.15c-.46-2.27.15-3,.75-3.33a1.15,1.15,0,0,1,.76-.15c1.81,0,4.23,2.88,5.9,5.6a17.81,17.81,0,0,1,2.12,5.14c.45,2.27-.15,3-.76,3.33a6.31,6.31,0,0,1-.76.15"/></g><g id="g4542"><path id="path4544" class="cls-7" d="M45.29,8.18c-4.23,0-6.8,1.21-6.8,2,0,.3.45.91,1.81,1.36a16.89,16.89,0,0,0,5.14.76h.16c4.23,0,6.8-1.21,6.8-2,0-.91-2.72-2.12-7.11-2.12Zm.31,5h-.16A18.28,18.28,0,0,1,40,12.42c-2.12-.76-2.57-1.67-2.57-2.27,0-2,3.93-3,7.86-3h.15c3.94,0,8,1.06,8,3.18,0,2-3.93,2.87-7.86,2.87"/></g><g id="g4546"><path id="path4548" class="cls-7" d="M48.75,4c-1.06,0-3.18,2-5,5.14-2.12,3.64-2.42,6.66-1.67,7.11h.15c1.06,0,3.18-2,5-5.14C49.35,7.5,49.66,4.48,48.9,4h-.15M42.24,17.33a1.12,1.12,0,0,1-.75-.15c-1.82-1.06-.61-5,1.36-8.47,1.66-2.87,4.08-5.6,5.9-5.6.3,0,.6,0,.75.16,1.82,1.05.61,5-1.36,8.47-1.51,2.72-4.08,5.59-5.9,5.59"/></g><g id="g4550"><path id="path4552" class="cls-6" d="M42.21,17.49a.94.94,0,0,1-.61-.15,2.47,2.47,0,0,1-1.21-1.66,9.17,9.17,0,0,1,.31-3V12.5l1.51.3V13a8.35,8.35,0,0,0-.3,1.82A3.36,3.36,0,0,0,42.06,16h.15a2.9,2.9,0,0,0,1.36-.61,17.39,17.39,0,0,0,2.12-2.27,34.81,34.81,0,0,0,2-3,14,14,0,0,0,1.52-4.39A3.38,3.38,0,0,0,49,4.33a.4.4,0,0,0-.46,0s-1.51.45-3.33,3c0,0-1,1.66-1.81,3l-.3-.15c.75-1.51,2-3,2-3.18,2-2.57,3.33-3.17,3.48-3.17a1.2,1.2,0,0,1,.76,0,4,4,0,0,1,.15,1.81A13.81,13.81,0,0,1,48,10.23a11.18,11.18,0,0,1-2,3,16.66,16.66,0,0,1-2.12,2.27,2.54,2.54,0,0,1-1.66.76.55.55,0,0,1-.45-.15,3.21,3.21,0,0,1-.31-1.51A4.47,4.47,0,0,1,41.76,13L41,12.8a6.72,6.72,0,0,0-.3,2.57c.15.76.45,1.21.9,1.36a3,3,0,0,0,2.12-.45A18.63,18.63,0,0,0,46.9,13a20.63,20.63,0,0,0,2.72-5.59c.3-1.21.45-2.12.45-2.12a2.6,2.6,0,0,0-.6-2A1.19,1.19,0,0,0,48.41,3c-2.72.3-5.75,5.9-5.75,6l-.3-.15c.15-.3,3.18-5.9,6-6.2a1.61,1.61,0,0,1,1.36.45,2.56,2.56,0,0,1,.61,2.27,7.1,7.1,0,0,1-.46,2.27,22.85,22.85,0,0,1-2.72,5.59A13.78,13.78,0,0,1,44,16.73a2.45,2.45,0,0,1-1.81.76"/></g><g id="g4554"><path id="path4556" class="cls-6" d="M47.57,10.27A17.51,17.51,0,0,0,45.3,6.79l.3-.3a14.66,14.66,0,0,1,2.27,3.63l-.3.15"/></g><g id="g4558"><path id="path4560" class="cls-6" d="M48.16,9.06A24.84,24.84,0,0,0,46,5.88l.3-.3a18.84,18.84,0,0,1,2.27,3.17l-.45.31"/></g><g id="g4562"><path id="path4564" class="cls-6" d="M42.77,12.13l-.91-1.82c-2.57-5.74-.9-7-.75-7.1,2-1.52,4.38,1.51,4.53,1.66l-.3.3S42.92,2.3,41.26,3.51h0s-1.67.91.91,6.65l.9,1.82-.3.15"/></g><g id="g4566"><path id="path4568" class="cls-6" d="M44.17,12.33c-3.47-5.14-2.72-7.86-2.72-7.86A.57.57,0,0,1,42.06,4c1.06-.15,2.57,1.67,2.72,1.82l-.3.3a4.07,4.07,0,0,0-2.27-2c-.15,0-.15,0-.3.31,0,0-.76,2.57,2.57,7.56l-.31.3"/></g><g id="g4570"><path id="path4572" class="cls-6" d="M48.73,17.56c-.91,0-2.12-.75-3.48-2.11l.31-.31c2,1.82,3,2.12,3.47,1.82.76-.3.91-1.36.91-1.36.46-1.67-1.21-5.45-1.36-5.6l.3-.15c0,.15,1.82,4.08,1.36,5.75A1.87,1.87,0,0,1,49,17.11c0,.45-.15.45-.3.45"/></g><g id="g4574"><path id="path4576" class="cls-6" d="M48.62,16.45a4.73,4.73,0,0,1-2.57-1.66l.3-.31C48,16.3,48.77,16.15,48.93,16s.3-.61.3-1.36a11.56,11.56,0,0,0-.91-3.18l.15-.15a11.56,11.56,0,0,1,.91,3.17c.15.91,0,1.52-.45,1.67l-.31.3"/></g><g id="g4578"><path id="path4580" class="cls-6" d="M44.61,14.71c-.3-.31-.9-1.37-1-1.37l.3-.15a5,5,0,0,0,1.06,1.36l-.31.16"/></g><g id="g4582"><path id="path4584" class="cls-6" d="M41.53,11.79l-.31-.16c0-.15.46-1.21.61-1.66l.3.15a12.18,12.18,0,0,0-.6,1.67"/></g><g id="g4586"><path id="path4588" class="cls-6" d="M48,12.23v-.3h.6v.45l-.6-.15"/></g><g id="g4590"><path id="path4592" class="cls-6" d="M47.31,13.43c-.15,0-.15,0-.31-.15l.31-.3h-.15a15.62,15.62,0,0,1,1.66-.15v.3c-.91.15-1.21.3-1.51.3"/></g><g id="g4594"><path id="path4596" class="cls-6" d="M45.73,13.46a16.68,16.68,0,0,1-5.9-.91c-1.06-.45-2.42-1.21-2.57-2.27a2.18,2.18,0,0,1,1.06-2,7.17,7.17,0,0,1,2.57-1.06v.3a7.11,7.11,0,0,0-2.42.91,3.28,3.28,0,0,0-.91,1.81c.15.76.91,1.36,2.42,2,2.12.91,5.9.76,5.9.76l-.15.45h0"/></g><g id="g4598"><path id="path4600" class="cls-6" d="M45.62,12.42c-2.72,0-6.2-.76-7.11-1.82a.76.76,0,0,1-.15-.75c.3-.91,2.72-1.52,3-1.52l.15.31c-.9.15-2.57.75-2.72,1.21a.46.46,0,0,0,.15.3c.91,1.06,4.84,1.81,7.87,1.66v.46a4.32,4.32,0,0,1-1.21.15"/></g><g id="g4602"><path id="path4604" class="cls-6" d="M42.3,8.6V8.3a1.82,1.82,0,0,0,.75-.15v.3a6.5,6.5,0,0,1-.75.15"/></g><g id="g4606"><path id="path4608" class="cls-6" d="M41.93,7.53v-.3s1.37-.15,1.82-.15v.45c-.45-.3-1.82,0-1.82,0"/></g><g id="g4610"><path id="path4612" class="cls-6" d="M42.6,12l-.31-.16.16-.45.3.15L42.6,12"/></g><g id="g4614"><path id="path4616" class="cls-6" d="M46.58,8.43H44.31V8h2.27v.46"/></g><g id="g4618"><path id="path4620" class="cls-6" d="M45.07,7.32V6.87h.75v.45h-.75"/></g><g id="g4622"><path id="path4624" class="cls-6" d="M48.84,7.61a9.14,9.14,0,0,0-1.67-.15h0V7a10.16,10.16,0,0,1,1.67.15v.45"/></g><g id="g4626"><path id="path4628" class="cls-6" d="M48.5,8.64l-.61-.15L48,8.18l.61.16-.15.3"/></g><g id="g4630"><path id="path4632" class="cls-6" d="M49.62,12l-.15-.3a5.49,5.49,0,0,0,2.42-1.06h0c.3-.3.3-.3.15-.45-.15-.61-1.67-1.06-2.57-1.36l.15-.31c.3,0,2.72.61,2.87,1.67a1,1,0,0,1-.3.75A5.66,5.66,0,0,1,49.62,12"/></g><g id="g4634"><path id="path4636" class="cls-6" d="M50.05,13v-.3s3.48-.6,3.33-2.42-3.33-2.42-3.33-2.42v-.3c.15,0,3.48.6,3.63,2.72.15,2-3.48,2.72-3.63,2.72"/></g><g id="g4638"><path id="path4640" class="cls-7" d="M42.09,6.05A1.06,1.06,0,1,1,41,5a1,1,0,0,1,1.06,1.06"/></g><g id="g4642"><path id="path4644" class="cls-6" d="M41.1,5.25a.71.71,0,0,0-.76.76.76.76,0,0,0,1.51,0,.71.71,0,0,0-.75-.76m0,2A1.3,1.3,0,0,1,39.89,6,1.19,1.19,0,0,1,41.1,4.8,1.3,1.3,0,0,1,42.31,6,1.31,1.31,0,0,1,41.1,7.22"/></g><g id="g4646"><path id="path4648" class="cls-7" d="M46.49,10.24a1.06,1.06,0,1,1-1.06-1.05,1,1,0,0,1,1.06,1.05"/></g><g id="g4650"><path id="path4652" class="cls-6" d="M45.5,9.44a.76.76,0,1,0,.76.76.72.72,0,0,0-.76-.76m0,2a1.3,1.3,0,0,1-1.21-1.21A1.19,1.19,0,0,1,45.5,9a1.3,1.3,0,0,1,1.21,1.21,1.29,1.29,0,0,1-1.21,1.21"/></g><g id="g4654"><path id="path4656" class="cls-7" d="M44.76,16A1.06,1.06,0,1,1,43.7,15,1,1,0,0,1,44.76,16"/></g><g id="g4658"><path id="path4660" class="cls-6" d="M43.77,15.22a.76.76,0,1,0,.75.75.71.71,0,0,0-.75-.75m0,2A1.29,1.29,0,0,1,42.56,16a1.19,1.19,0,0,1,1.21-1.21A1.31,1.31,0,0,1,45,16a1.3,1.3,0,0,1-1.21,1.21"/></g><g id="g4662"><path id="path4664" class="cls-7" d="M52.7,11.7a1.06,1.06,0,1,1-1.06-1.06A1,1,0,0,1,52.7,11.7"/></g><g id="g4666"><path id="path4668" class="cls-6" d="M51.71,10.9a.76.76,0,1,0,.75.75.71.71,0,0,0-.75-.75m0,2a1.29,1.29,0,0,1-1.21-1.21,1.21,1.21,0,1,1,2.42,0,1.3,1.3,0,0,1-1.21,1.21"/></g><g id="g4670"><path id="path4672" class="cls-9" d="M27.19,4.22V2.86s0-.45.61-.61a.92.92,0,0,1,1.06.61V4.37a4.31,4.31,0,0,1,2.57,1.21l1.06-1.06a.92.92,0,0,1,1.21.15.78.78,0,0,1-.15,1.21l-.91.91A9,9,0,0,1,33.7,9.36h1.66a.81.81,0,0,1,.45,1.21,1.09,1.09,0,0,1-.75.46H33.85a6.65,6.65,0,0,1-1.06,2.57l1.06,1.06s.3.45,0,.75a.92.92,0,0,1-1.36.31l-1.06-1.06a6.35,6.35,0,0,1-2.57,1.21v1.36A1.14,1.14,0,0,1,28,18s-.76,0-.91-.6V16A7,7,0,0,1,24.17,15l-.61.76a.74.74,0,0,1-1.06-.16.78.78,0,0,1,0-1.05l.76-.76a5.58,5.58,0,0,1-1.21-2.87H20.84a.85.85,0,0,1-.61-1.06A1.06,1.06,0,0,1,21,9.21H22.2a7.77,7.77,0,0,1,1.21-2.87l-.91-.91a1.06,1.06,0,0,1,.31-1.21s.45-.3,1.05.3l.61.61a7.43,7.43,0,0,1,2.72-.91"/></g><g id="g4674"><path id="path4676" class="cls-6" d="M27.38,17.34a.66.66,0,0,0,.61.46.67.67,0,0,0,.6-.46V15.83h.15a6.2,6.2,0,0,0,2.58-1.21l.15-.15,1.06,1.06a.55.55,0,0,0,.45.15c.3,0,.45-.15.6-.46.16-.15,0-.45,0-.6l-1.21-1.21.16-.15a6,6,0,0,0,1-2.57v-.15H35.1a.65.65,0,0,0,.6-.31.46.46,0,0,0,0-.6c-.15-.15-.3-.3-.45-.3H33.58V9.17a6.11,6.11,0,0,0-1-2.57l-.16-.15.16-.15.9-.91a.79.79,0,0,0,.31-.6.65.65,0,0,0-.16-.46c-.15-.15-.3-.3-.45-.3s-.3.15-.45.15L31.62,5.24l-.15-.15A10.14,10.14,0,0,0,28.9,3.88h-.16V2.37a.68.68,0,0,0-.6-.46H28c-.46.15-.46.46-.46.46V3.88h-.15a6.07,6.07,0,0,0-2.72,1.06l-.15.15-.76-.76a1.14,1.14,0,0,0-.6-.3h-.31a.84.84,0,0,0-.3.91L23.6,6l-.15.15a6.63,6.63,0,0,0-1.21,2.72V9H20.88c-.3,0-.46.31-.61.46-.15,1.06.31,1.21.46,1.21h1.36v.15a5.5,5.5,0,0,0,1.21,2.72l.15.15-.91.91s-.3.45,0,.76a.56.56,0,0,0,.46.15c.15,0,.3-.15.45-.15l1.06-.91.15.15a6.76,6.76,0,0,0,2.72,1.06h.15v1.66Zm.61.76a1.07,1.07,0,0,1-1.06-.76h0V16.13a5.29,5.29,0,0,1-2.57-1.06l-.76.76A1.55,1.55,0,0,1,23,16a1.15,1.15,0,0,1-.76-.3,1.12,1.12,0,0,1,0-1.36l.76-.76A5.08,5.08,0,0,1,21.94,11H20.73A1.16,1.16,0,0,1,20,9.63h0A1.12,1.12,0,0,1,20.88,9h1.06A6.5,6.5,0,0,1,23,6.45l-.76-.91c-.3-.3-.45-.9.3-1.36A.67.67,0,0,1,23,4a1.65,1.65,0,0,1,.9.45l.46.46a5.17,5.17,0,0,1,2.57-1.06V2.67a1.1,1.1,0,0,1,.76-.76H28c.45,0,1.06.46,1.06.91V4.18a6.07,6.07,0,0,1,2.42,1.06l.9-.91A1.63,1.63,0,0,1,33,4.18a.84.84,0,0,1,.76.46h0a1,1,0,0,1,.3.6.83.83,0,0,1-.46.76l-.75.75a4.58,4.58,0,0,1,.91,2.42h1.51a1.06,1.06,0,0,1,.6.61,1,1,0,0,1,0,.91s-.15.45-.9.45H33.89A8.39,8.39,0,0,1,33,13.56L34,14.62a1.19,1.19,0,0,1,0,1.06,1.25,1.25,0,0,1-.91.6,1.14,1.14,0,0,1-.6-.3l-.91-.91a6,6,0,0,1-2.42,1.06v1.21A1.46,1.46,0,0,1,28,18.1h0"/></g><g id="g4678"><path id="path4680" class="cls-7" d="M32.49,10.13A4.69,4.69,0,1,1,27.8,5.44a4.72,4.72,0,0,1,4.69,4.69"/></g><g id="g4682"><path id="path4684" class="cls-6" d="M27.83,5.69a4.53,4.53,0,0,0-4.54,4.39,4.43,4.43,0,0,0,4.54,4.39,4.53,4.53,0,0,0,4.54-4.39,4.53,4.53,0,0,0-4.54-4.39m0,9.23A4.78,4.78,0,0,1,23,10.08a4.84,4.84,0,0,1,9.68,0,4.78,4.78,0,0,1-4.84,4.84"/></g><g id="g4686"><path id="path4688" class="cls-9" d="M31.11,10.11a3.18,3.18,0,1,1-3.18-3.18,3.11,3.11,0,0,1,3.18,3.18"/></g><g id="g4690"><path id="path4692" class="cls-6" d="M27.87,7.05a3,3,0,1,0,3,3,3,3,0,0,0-3-3m0,6.51a3.42,3.42,0,0,1-3.48-3.48,3.48,3.48,0,0,1,7,0,3.43,3.43,0,0,1-3.48,3.48"/></g><g id="g4694"><path id="path4696" class="cls-7" d="M29.61,10.09a1.82,1.82,0,1,1-3.63,0,1.82,1.82,0,0,1,3.63,0"/></g><g id="g4698"><path id="path4700" class="cls-6" d="M27.8,8.47a1.67,1.67,0,1,0,1.67,1.66A1.68,1.68,0,0,0,27.8,8.47m0,3.63a2,2,0,1,1,2-2,2,2,0,0,1-2,2"/></g><g id="g4702"><path id="path4704" class="cls-10" d="M23.23,9.58h1.51a2.35,2.35,0,0,1,.91-1.66L24.44,7a4.36,4.36,0,0,0-1.21,2.57"/></g><g id="g4706"><path id="path4708" class="cls-6" d="M24.44,7.29a4.62,4.62,0,0,0-.9,2.11h1.05a3.52,3.52,0,0,1,.76-1.51ZM23.08,9.71V9.4a6.22,6.22,0,0,1,1.21-2.72l.15-.15L26,7.44l-.15.15a3.38,3.38,0,0,0-.91,1.66V9.4l-1.82.31"/></g><g id="g4710"><path id="path4712" class="cls-10" d="M26.42,7.2,25.82,6A4.71,4.71,0,0,1,29,5.69l-.31,1.36a2.41,2.41,0,0,0-2.27.15"/></g><g id="g4714"><path id="path4716" class="cls-6" d="M26.07,6.06l.46.91a3.59,3.59,0,0,1,1.36-.3h.6l.31-.91c-.31,0-.61-.15-.91-.15a3.91,3.91,0,0,0-1.82.45m.31,1.36-.76-1.51.15-.15a5.25,5.25,0,0,1,2.12-.45,3.38,3.38,0,0,1,1.21.15h.15L28.8,7.12h-.16A1.82,1.82,0,0,0,27.89,7a4.38,4.38,0,0,0-1.36.3l-.15.15"/></g><g id="g4718"><path id="path4720" class="cls-11" d="M25.6,7.79,24.39,7A4,4,0,0,1,25.75,6l.6,1.21c.16,0-.45.31-.75.61"/></g><g id="g4722"><path id="path4724" class="cls-6" d="M24.71,7l.91.61c.15-.15.45-.3.6-.46l-.45-.9A1.9,1.9,0,0,0,24.71,7m.91,1.06L24.1,7.15,24.26,7a5.59,5.59,0,0,1,1.51-1.06h.15l.76,1.52-.15.15c-.16-.15-.61.15-.91.45h0"/></g><g id="g4726"><path id="path4728" class="cls-6" d="M24.85,8.91l-1.21-.6L23.79,8,25,8.61l-.15.3"/></g><g id="g4730"><path id="path4732" class="cls-6" d="M27.33,6.89l-.15-1.36h.45l.15,1.36h-.45"/></g><g id="g4734"><path id="path4736" class="cls-6" d="M29.68,7.43l-.3-.31.75-1,.31.15-.76,1.21"/></g><g id="g4738"><path id="path4740" class="cls-6" d="M23.32,11.09v-.31l1.21-.3v.3l-1.21.31"/></g><g id="g4742"><path id="path4744" class="cls-7" d="M10,13.24l.3.45"/></g><g id="g4746"><path id="path4748" class="cls-6" d="M10.22,13.86l-.3-.6.3-.15.3.45-.3.3"/></g><g id="g4750"><path id="path4752" class="cls-6" d="M45.33,13.83l-.3-.45.3-.15.31.45-.31.15"/></g><g id="g4754"><path id="path4756" class="cls-12" d="M31.7,52.07c.3.61.45,1.36-.15,1.82a14.7,14.7,0,0,1-3.63,2s-1.36.46-1.06,1.21.45.61.45.61l.91.3.76.3a1,1,0,0,0,.75,0c.46-.15.61,0,.61,0l.15.16a.59.59,0,0,0,.76,0,1.8,1.8,0,0,0,.9-.91c.15-.3.46-.61.61-.3a1.58,1.58,0,0,1,0,.9s.75-.45.75-1.06a2.11,2.11,0,0,1,.31,1.67s1.66-1.36,1.06-2.88l.6,1.67s.45-.91.61-1.36a2.61,2.61,0,0,0-.16-1.82l-.15-.15a1,1,0,0,0,.31-.6A8.06,8.06,0,0,1,34.88,51s-.16-1.51.75-2.11L34.88,46,32,45.57l-1.81.3a7.07,7.07,0,0,0-.61,2.57,5.74,5.74,0,0,0,1.06,1.82c.3.6.76,1.21,1.06,1.81"/></g><g id="g4758"><path id="path4760" class="cls-6" d="M30.38,58.17h0a.55.55,0,0,0,.45.15h.3a1.83,1.83,0,0,0,.76-.75.66.66,0,0,1,.6-.46c.16,0,.31,0,.31.3.15.16.15.31.15.61a1.15,1.15,0,0,0,.3-.76v-.6l.45.6a2.39,2.39,0,0,1,.46,1.21,2,2,0,0,0,.6-2.11V56.2l.31-.15v.15l.45,1.06a5,5,0,0,1,.45-.9,1.82,1.82,0,0,0-.15-1.52l-.3-.3.15-.15a.34.34,0,0,0,.15-.46c0-.15-.15-.3-.3-.6-.3-.61-.91-1.51-.76-2a2.94,2.94,0,0,1,.76-2.11l-.61-2.73-2.72-.45-1.66.3a2.82,2.82,0,0,0-.76,2.12A3.08,3.08,0,0,0,30.68,50l.15.15A9.55,9.55,0,0,1,32,52a1.61,1.61,0,0,1-.3,2.12,15.06,15.06,0,0,1-3.63,2s-1.21.46-1.06,1.06c0,.46.15.46.15.46h.15l.91.3.75.3h.16l.3-.15a.52.52,0,0,0,.3-.15c.45.15.61.15.61.3m2.87,1.21.3-.76c.15-.3,0-.75,0-1a1.69,1.69,0,0,1-.6.75l-.3.15L32.8,58a1.2,1.2,0,0,0,0-.76h0l-.31.31c-.15.15-.45.75-.9.9l-.46.15a.66.66,0,0,1-.45-.15h-.76a.55.55,0,0,1-.45.15h-.3l-.76-.15-.91-.3h-.15c-.3,0-.45-.3-.6-.76C26.44,56.51,28,55.9,28,55.9a14.55,14.55,0,0,0,3.47-2c.46-.45.46-.9.16-1.66a17.85,17.85,0,0,0-1.06-1.66l-.15-.15a3.57,3.57,0,0,1-.91-1.67,9.23,9.23,0,0,1,.6-2.72v-.15l2-.46h0l3,.46.75,3.17h-.15c-.76.46-.76,1.82-.76,2h0a4.79,4.79,0,0,0,.76,1.82c.3.45.45.6.45.75a.66.66,0,0,1-.15.76h0a2.25,2.25,0,0,1,.15,2,9.52,9.52,0,0,0-.6,1.36l-.15.45-.46-1.06a5,5,0,0,1-1.21,1.82l-.45.45"/></g><g id="g4762"><path id="path4764" class="cls-13" d="M29.67,48.1s2.58,0,3.33,1.36v1.37c0,.45.15.9.15,1.36,0,.3.15.45.15.75s.16.31.31.46c0,.45-1.21,1.06-1.52,1.21a34.94,34.94,0,0,1-3.32,1.81l.15.15c.15.15,2.12.31,2.27,0s.9,0,1.21,0a14.62,14.62,0,0,0,3.32-2.72,13.9,13.9,0,0,0-1-2.12,2.78,2.78,0,0,1-.16-1.21c0-.15.46-1.51.61-1.36L34.82,48c-.31-1.21-.31-1.06-.31-1.06a7,7,0,0,0-3.93-.6s-.91.6-.91.9c.16.16,0,.91,0,.91"/></g><g id="g4766"><path id="path4768" class="cls-12" d="M28.34,40a10.3,10.3,0,0,0,4.24-.15,4.6,4.6,0,0,1,2.26-.46l2.73.3s.75.16,4.23.61c0,0,4.54.45,5.6-.3a3.15,3.15,0,0,0,2.12-3.63A4.29,4.29,0,0,0,45,34.12c-3.48.3-3.48,2.72-2.88,3.33l1.06,1A1.77,1.77,0,0,0,42,38.2a1.89,1.89,0,0,1-1.81-.75,1.2,1.2,0,0,1-.3-1.06s-.46,1.21-2.88,2c0,0-.75.15-1.36.31a2.4,2.4,0,0,0,1.06-2,2.29,2.29,0,0,0-.76.45,2.73,2.73,0,0,1-3,1.06h-.3l.9-.3c.31-.15.76-.45.76-.76s-.91-.3-1.21-.3-.61.15-.91.15a3.28,3.28,0,0,1-1.21,0,4.47,4.47,0,0,1-2.42-.6c-1.36-.76-2.42-1.82-2.12-3.48s2.88-2.72,3.18-2.72a29.51,29.51,0,0,1,4.54-.46,3.14,3.14,0,0,0,2.42-1.06,3.93,3.93,0,0,1,3-1.21,3.6,3.6,0,0,0,2.73-2s.15,1.66-.61,2.27c0,0,1.66-.91,1.82-1.06a3.48,3.48,0,0,1,3-.15c1.67.6,2.57.6,3,0,0,0-.31,1.05-2.57,1.21A2.65,2.65,0,0,0,44.68,29c-.31.3-.76.45-1.06.75.3.15.6,0,.91.15s.45.31.75.46a2.61,2.61,0,0,1,.91.9s-.3-.9-2.72.16-3.33.9-4.84.45C37,31.24,36.51,30.49,35,30.64a12,12,0,0,0-6.36,1.06,1.79,1.79,0,0,0-.15,3s1.36,1.36,5.3.76a54.26,54.26,0,0,0,6.8-1.66c.91,0,4.24-1.21,6.81-.61a5.21,5.21,0,0,1,3.48,2.72A3.87,3.87,0,0,1,51,38.5,7.26,7.26,0,0,1,50,40.17,2.42,2.42,0,0,1,51,43s0-.75-1.06-.9a11.17,11.17,0,0,1-2-.61,11.84,11.84,0,0,1-3.78.76,6,6,0,0,0,1.67,1.06s-2.88.9-3.63-.46c0,0-.31.76.75.91a2.54,2.54,0,0,1-2.57-.45,7.91,7.91,0,0,1,.45,2.87c0,1.81,0,2.72,1.37,3.48a3,3,0,0,0,2,.6s.31.91-.15,1.36c0,0,.15.31,1.51.46s1.06,1.81,2,2c0,0-.3.31-1.06-.3a1,1,0,0,0-1.36.15,1.63,1.63,0,0,1,1.21,1.52,6,6,0,0,0,.15,1.66,2.57,2.57,0,0,1-.75-.76,1.94,1.94,0,0,0-1.21-.45,1.63,1.63,0,0,1,.6,1.66s-.15.61.15.76a1.65,1.65,0,0,1-1.06-.76,5.92,5.92,0,0,0-.75.91c0,.46,0,1.82-.91,2-1.06.15-.91-.46-.91-.46s-.15.61-1.51.16c0,0-1.06,0-1.21-.46,0,0-.76.3-.91-.45s.76-.76.91-.91a1.91,1.91,0,0,0,1.36-2,11.06,11.06,0,0,0-.76-3.93,6,6,0,0,0-2.42-1.51,2.74,2.74,0,0,1-2.27-2.42c-.3-1.21-.45-1.82-.6-1.82a5.71,5.71,0,0,0-4.08-.45s.75.45.9.91A1.92,1.92,0,0,0,29.7,47c-1.06.3-1.51-.16-1.51-.16A1.68,1.68,0,0,0,29.1,48a4,4,0,0,0-.91.16,1.49,1.49,0,0,1-1.36-.31s.45,1.21,1.06,1.52c0,0-.61-.16-1.52-.31s-1.21-.3-1.36-.6a3.83,3.83,0,0,1,0,2s-.15-.9-.91-1.05a2.55,2.55,0,0,1-1.21-.46L23.2,50s.15,0-.76,1.21a2.65,2.65,0,0,1,.76,1.51,2.79,2.79,0,0,0,.6,1.67s-.45.15-.91-.46-.75-.6-.75-.45a3.06,3.06,0,0,1,.15,2.27s-.3.75,0,1.06a1.72,1.72,0,0,1-.61-.91c-.15-.61-.6-.61-.6-.61a2.38,2.38,0,0,1,.3,1.67,2.38,2.38,0,0,0-.15,1.36,5.19,5.19,0,0,1-.6-.76c-.16-.45-.76-.6-.76-.3a3.57,3.57,0,0,1-.15,2.12s0-1.82-1.36-.61a2,2,0,0,0-.31.76c-.15.61-.45.45-.75.61s-.3.3-.76.15a1.82,1.82,0,0,1-.75-.15s0,.3-.76.15l-.76-.15s.15,0,.15-.31c-.15-.3-.45,0-.45-.3-.15-.3-.91-.15-.76-.6,0-.46.16-.61.76-.91a17.49,17.49,0,0,0,1.66-.91c.46-.3.76-1.51.76-1.51a25.33,25.33,0,0,0,.76-2.73,27.84,27.84,0,0,0,.3-4.84,12.78,12.78,0,0,0-.91-2l-2.12,1.21s-2,.75-2.72.3-.91-.91-1.06-.91a3.93,3.93,0,0,1-2.42.15,2.41,2.41,0,0,0-1.06,0,4.66,4.66,0,0,1,.91-.45c.46-.15.76-.91.76-.91a3.26,3.26,0,0,1-2-.45c-1.06-.61-1.21-.76-1.81-.61,0,0,0-.3.9-.45s1.36-1.06,1.67-1.21A7,7,0,0,1,6,42.29c-.75-.46-1.06-.61-1.36-.61,0,0,.15-.3.91-.3a1.17,1.17,0,0,0,1.21-1.06,2.37,2.37,0,0,0-.45-1.21s0-.15-.46-.3-.6-.15-1.21-.91c0,0-.91,0-.91-.61a1.11,1.11,0,0,1,.61-.9l.76.3c.15,0-.16-.61-.61-.91-.3-.45-.45-.91-.15-1.06s.3-.3.3-.3.46-.3.61,0a2.6,2.6,0,0,1,.6,1.06c.15.15,0-.61-.15-.76.15-.15-.3-.9.15-1.06h.3c.16,0,.16,0,.31-.15,0,0,.45-.15.45.46a5.3,5.3,0,0,0,.15.9s0-.9.15-.9h.31s.15.15.15,0l.45-.15c0-.16.3.15.3.6a6.12,6.12,0,0,0,0,1.66,7,7,0,0,0,1.37,2.58,8.71,8.71,0,0,0,3.32,2.42c.46.15,11-1.06,11-1.06l3.18-.15c-.15.15.61-.16,1.06.15"/></g><g id="g4770"><path id="path4772" class="cls-14" d="M26.88,57s.76-.15.45.76a1.17,1.17,0,0,0-.9.45A1,1,0,0,1,26.88,57"/></g><g id="g4774"><path id="path4776" class="cls-6" d="M26.93,57.08c-.31.3-.46.45-.46.75a2.57,2.57,0,0,1,.76-.3v-.3l-.3-.15m-.61,1.21v-.16s-.15-.6.61-1.21h0c.15,0,.45,0,.45.16.15.15.15.3,0,.6v.15h-.15a1.5,1.5,0,0,0-.91.3v.16"/></g><g id="g4778"><path id="path4780" class="cls-14" d="M28.08,58.14s.31-.91-.6-.61c0,0-.45.46-.15.91,0,0,.3-.6.75-.3"/></g><g id="g4782"><path id="path4784" class="cls-6" d="M27.58,57.7a1,1,0,0,0-.3.6.78.78,0,0,1,.61-.3v-.3h-.31m-.3,1.06v-.15a.86.86,0,0,1,.15-1.06h0c.15,0,.31-.15.46-.15a.52.52,0,0,1,.3.15c.15.15,0,.6,0,.6v.15h-.3a.56.56,0,0,0-.46.31l-.15.15"/></g><g id="g4786"><path id="path4788" class="cls-14" d="M29,58.26s0-.91-.76-.3c0,0-.15.15,0,.75a2.1,2.1,0,0,1,.76-.45"/></g><g id="g4790"><path id="path4792" class="cls-6" d="M28.4,58.09s-.15.15,0,.46a.76.76,0,0,1,.61-.31l-.15-.3h0c-.16-.15-.31,0-.46.15m-.15.91v-.15c-.15-.61,0-.91.15-.91.3-.3.61-.3.76-.15a.9.9,0,0,1,.15.6v.16h0a2.22,2.22,0,0,0-.76.45h-.3"/></g><g id="g4794"><path id="path4796" class="cls-14" d="M30.52,58.33s0-.75-.76-.45a1.1,1.1,0,0,0,0,1.06.81.81,0,0,1,.76-.61"/></g><g id="g4798"><path id="path4800" class="cls-6" d="M29.89,58a1.55,1.55,0,0,0-.15.6,2,2,0,0,1,.61-.45.32.32,0,0,0-.31-.3l-.15.15m-.15,1.21-.15-.31a1.08,1.08,0,0,1,0-1h0a.53.53,0,0,1,.45-.16c.31,0,.46.46.46.61v.15h-.15a.67.67,0,0,0-.61.45v.31"/></g><g id="g4802"><path id="path4804" class="cls-15" d="M35.56,29.58s-1.67.3,0,.91a6.87,6.87,0,0,1,1.21.45A9.83,9.83,0,0,0,39,31.7a4.51,4.51,0,0,0,3,.15,8,8,0,0,0,2.12-.76,2.81,2.81,0,0,1,2,0l.15.15a2,2,0,0,0-.91-.9c-.76-.46-.91-.61-1.36-.61A4.66,4.66,0,0,0,45.09,29a9.06,9.06,0,0,1,1.21-1.21,3.33,3.33,0,0,1,1.21-.15,3.6,3.6,0,0,0,2.11-.9s-.15,0-1.21.15-2-.61-2.57-.61-1.06-.15-2.72.91l-.91.45a2.12,2.12,0,0,0,.46-.9,6.79,6.79,0,0,0,.15-1.37A3,3,0,0,1,41.3,27a4.37,4.37,0,0,1-1.21.3,8.61,8.61,0,0,0-1.51.3,6.94,6.94,0,0,0-1.36.91c-.76.61-1.51.91-1.66,1.06"/></g><g id="g4806"><path id="path4808" class="cls-15" d="M34.56,36.52,43,34.71A2,2,0,0,0,42,37.43l.91.91s.15-.16-1.36-.16a1.89,1.89,0,0,1-1.82-1.51A3.3,3.3,0,0,1,38,37.88l-.91.46c-2.12.6-1.06.15-1.06.15a2.39,2.39,0,0,0,.76-1.06,6.75,6.75,0,0,0,.15-.76,1.88,1.88,0,0,0-1.21.61,3.67,3.67,0,0,1-.91.6,2.28,2.28,0,0,1-2.12.3l1.06-.3c.15-.15,1.21-.91.76-1.36"/></g><g id="g4810"><path id="path4812" class="cls-15" d="M48.32,41.27s1.52-.91,1.82-1.06a2.34,2.34,0,0,1,1.21,2.72,1.07,1.07,0,0,0-.76-.91c-.75-.45-.6.15-2.27-.75"/></g><g id="g4814"><path id="path4816" class="cls-15" d="M44.21,41.94H40.27a3.2,3.2,0,0,0,1.36,1.81,2.66,2.66,0,0,0,1.67,0s-.76.15-.91-.91c0,0,.3.91,3.78.46,0-.15-1.21-.61-2-1.36"/></g><g id="g4818"><path id="path4820" class="cls-15" d="M23.43,47.67s5.9-1.81,7.11-1.36l.91.76H30.24a5.74,5.74,0,0,1-1.81-.15,2.78,2.78,0,0,0,1.06,1.21,4.84,4.84,0,0,0-1.06.15c-.61.15-1.21-.15-1.21-.3l.9,1.36S26.46,49,26,48.88s-.61-.15-.61-.45a11.83,11.83,0,0,1,.15,1.51l-.15.46s-.15-.91-.6-1.06-1.06-.31-1.37-.46c0-.15-.3-1.06,0-1.21"/></g><g id="g4822"><path id="path4824" class="cls-15" d="M22.76,51.05a23.66,23.66,0,0,0-3.63,7v.15s.76-.61,1.06.15a6.75,6.75,0,0,1,.15.76A2.78,2.78,0,0,0,20.5,57s.15-.45.75,0a4.13,4.13,0,0,0,.61,1.21,4.1,4.1,0,0,1,0-1.51A2,2,0,0,0,21.55,55a1.06,1.06,0,0,1,.91.76s.15.6.46.6a1.69,1.69,0,0,1,0-1.05,6.27,6.27,0,0,0-.16-2.12s0-.3.46,0,.6.75,1.06.6a2.49,2.49,0,0,1-.61-1.21,2.54,2.54,0,0,0-.91-1.51"/></g><g id="g4826"><path id="path4828" class="cls-15" d="M44.23,51.47l.3,5.9a2.23,2.23,0,0,0,1.21.75s-.3-.15-.3-.9,0-1.21-.45-1.52c0,0,.6-.3,1.21.46a1.8,1.8,0,0,0,.6.6s-.3-.3-.3-1.51a1.65,1.65,0,0,0-1.21-1.51s.76-.76,1.51-.31.91.46,1.06.31A.84.84,0,0,1,47.1,53a1.52,1.52,0,0,0-1.66-1.21,1.26,1.26,0,0,1-1.21-.3"/></g><g id="g4830"><path id="path4832" class="cls-15" d="M35.67,54.4a14.93,14.93,0,0,1-3,2.57l.15.46A2.37,2.37,0,0,1,33,58a.87.87,0,0,0,.6-.9A1.28,1.28,0,0,1,34,58.49a2.24,2.24,0,0,0,.9-2.42s.31.15.76,1.36l.45-1.21c-.15,0,0-.91-.45-1.82"/></g><g id="g4834"><path id="path4836" class="cls-15" d="M6.46,39.49l4.39,7.26s-.15-.3-.76-.15a6.3,6.3,0,0,1-1.81,0c-.76-.15-.91,0-.91,0l.91-.45s.6-.76.6-1.06a2.08,2.08,0,0,1-1.81.15c-.76-.46-1.36-1.06-1.82-.76,0,0,0-.15.61-.3a3.57,3.57,0,0,0,1.51-.76L7.82,43s-.75-.15-1.21-.3a11.09,11.09,0,0,1-1.06-.46c-.45-.3-.6-.3-.75-.3a4.81,4.81,0,0,1,.91-.3c.6-.15.9-.15,1.21-.76-.16-.3-.16-.76-.46-1.36"/></g><g id="g4838"><path id="path4840" class="cls-16" d="M42.17,26.4s-.3.9-1.81,1.21-2.12,0-4.09,2.11a7.06,7.06,0,0,1,3-1.36,3.93,3.93,0,0,0,2.87-2"/></g><g id="g4842"><path id="path4844" class="cls-16" d="M46.36,26.67a3.41,3.41,0,0,0-2.12,0,12.24,12.24,0,0,0-1.82,1.06,1.68,1.68,0,0,1-1.21.46,4.69,4.69,0,0,1-1.51.15,6,6,0,0,0-3.48,1.36,16.28,16.28,0,0,1,4.69-1.21A2.77,2.77,0,0,0,42.73,28l.9-.91a5.84,5.84,0,0,1,2.73-.46"/></g><g id="g4846"><path id="path4848" class="cls-16" d="M45.21,30.65A16,16,0,0,0,42,31.71,4.34,4.34,0,0,1,37.79,31a5.23,5.23,0,0,0,3.33.46c2-.46,2.27-1.06,4.09-.76"/></g><g id="g4850"><path id="path4852" class="cls-16" d="M48.07,27.4a4.87,4.87,0,0,0-4.39,1.51S44.74,27.25,46,27.1A16,16,0,0,1,47.61,27a4.64,4.64,0,0,0-2.87.15c-1.36.6-1.21,1.66-3.93,1.66a17.46,17.46,0,0,0-4.09,1.06,4.66,4.66,0,0,0,1.36-.15,7.44,7.44,0,0,1,2.58,0,4.18,4.18,0,0,0,1.36.15c.45,0,1.06-.15,1.51-.15A3.48,3.48,0,0,0,45,28.91a3.54,3.54,0,0,1,1.06-1.05c.3-.16.61-.16.91-.31s.45-.15.6-.15c-.15,0,.31-.15.46,0"/></g><g id="g4854"><path id="path4856" class="cls-16" d="M41.75,31a5.53,5.53,0,0,1-4.08-.3,2.44,2.44,0,0,0-1.51-.3,2.91,2.91,0,0,1,1.51-.3c1.06,0,2,1.06,4.08.9"/></g><g id="g4858"><path id="path4860" class="cls-16" d="M37.93,30h2.42a2.13,2.13,0,0,0,.9.3c.61,0,2-.15,2-.15a4.92,4.92,0,0,1-2.57.45c-.15,0-.45-.15-.61-.15s-.3-.15-.45-.3S39.29,30,39,30H37.93"/></g><g id="g4862"><path id="path4864" class="cls-17" d="M41.61,42.05h-.9a2.29,2.29,0,0,0,1.06,1.37s-.61-.61-.61-1.06c0,0,.76,1.06,1.21,1.21a2.65,2.65,0,0,1-.76-1.52"/></g><g id="g4866"><path id="path4868" class="cls-17" d="M42.38,41.88h.45a1.61,1.61,0,0,0,1.21.91,1.63,1.63,0,0,1-1.66-.91"/></g><g id="g4870"><path id="path4872" class="cls-17" d="M43.39,41.88h.45s.46.91,1.21.91a1.82,1.82,0,0,1-1.66-.91"/></g><g id="g4874"><path id="path4876" class="cls-17" d="M48.7,41a2.13,2.13,0,0,0,.46-.3s.9.91,1.36.91A4.08,4.08,0,0,1,48.7,41"/></g><g id="g4878"><path id="path4880" class="cls-17" d="M49.55,40.48l.46-.15s.9,1.05.9,1.51c0,.15-.75-.91-1.36-1.36"/></g><g id="g4882"><path id="path4884" class="cls-17" d="M35.62,36.34l.76-.15a3.13,3.13,0,0,1-2,1.51c-.15,0,1.21-.91,1.21-1.36"/></g><g id="g4886"><path id="path4888" class="cls-17" d="M37.83,35.92l.76-.15a4.26,4.26,0,0,1-1.52,2.12c0-.16.91-1.52.76-2"/></g><g id="g4890"><path id="path4892" class="cls-17" d="M38.93,35.67a2.85,2.85,0,0,1-1.36,2.12s2-.76,2-2.12h-.6"/></g><g id="g4894"><path id="path4896" class="cls-17" d="M42.19,35a2.64,2.64,0,0,0-.45,2.27s-.6-.3-.3-1.51a1.07,1.07,0,0,0,.3,1.81s-1.06,0-1.06-1.66c0,0-.6,1.21.91,2,0,0-1.82-.3-1.21-2.57l1.81-.3"/></g><g id="g4898"><path id="path4900" class="cls-16" d="M22.45,51.46a.93.93,0,0,1,.9.76.75.75,0,0,0-.75-.46A1.3,1.3,0,0,1,23.5,53a1.22,1.22,0,0,0-1.05-.75,1.32,1.32,0,0,1,1.05,1.06s-.45-1.21-1.81-.46l.76-1.36"/></g><g id="g4902"><path id="path4904" class="cls-16" d="M21.42,53.25s.9-.46,1.06,1c0,0-.31-.75-.76-.75a2.15,2.15,0,0,1,.91,1.51,1.09,1.09,0,0,0-1.06-.91,1,1,0,0,1,.75,1.21s-.15-1.21-1.81-.6l.91-1.51"/></g><g id="g4906"><path id="path4908" class="cls-16" d="M20.44,55.09s1.36-.3,1.21,1.36c0,0-.3-.9-.91-.9a1.47,1.47,0,0,1,.76,1.51,1.15,1.15,0,0,0-1.21-.91s.9.15,1.06.91c0,0-.16-.76-1.37-.61l.46-1.36"/></g><g id="g4910"><path id="path4912" class="cls-16" d="M19.83,56.82a.94.94,0,0,1,.45,1.06s-.15-.76-.6-.61l.15-.45"/></g><g id="g4914"><path id="path4916" class="cls-16" d="M19.59,57.32s.45-.15.6.76c0,0-.3-.61-.75-.3l.15-.46"/></g><g id="g4918"><path id="path4920" class="cls-16" d="M19.38,57.83s.6-.15.75.3c0,0-.45-.3-.75,0v-.3"/></g><g id="g4922"><path id="path4924" class="cls-16" d="M32.61,57l.46-.3a2.63,2.63,0,0,1-.15.75c.15,0,.15-.3-.31-.45"/></g><g id="g4926"><path id="path4928" class="cls-16" d="M33.91,56l.3-.15a2.35,2.35,0,0,1,.3,1.51c-.15,0-.15-.91-.6-1.36"/></g><g id="g4930"><path id="path4932" class="cls-16" d="M33.5,56.25l.3-.15A2.07,2.07,0,0,1,34,57.62a2.28,2.28,0,0,0-.45-1.37"/></g><g id="g4934"><path id="path4936" class="cls-16" d="M34.57,55.47l.3-.3a2.09,2.09,0,0,1,.61,1.21s-.31-.76-.91-.91"/></g><g id="g4938"><path id="path4940" class="cls-16" d="M35.08,55.06l.3-.31a1.69,1.69,0,0,1,.15,1.06c.15.15,0-.45-.45-.75"/></g><g id="g4942"><path id="path4944" class="cls-16" d="M44.28,51.91v1.82s1.51-1.06,2.27-.46c0,0-.15-.6-1.66-.6a4.83,4.83,0,0,1,1.51,0s-.46-.61-2.12-.76"/></g><g id="g4946"><path id="path4948" class="cls-16" d="M44.4,53.83v1.51s1.21-.15,1.67.46c0,0,0-.61-1.06-.76a.94.94,0,0,1,1.21.6A1.75,1.75,0,0,0,45,54.28a3,3,0,0,1,1.36.76c-.15-.15-.15-1.21-2-1.21"/></g><g id="g4950"><path id="path4952" class="cls-16" d="M44.43,55.75v.76l.61.91-.45-.91a2.93,2.93,0,0,1,.6,1.21c0-.3,0-1.51-.76-2"/></g><g id="g4954"><path id="path4956" class="cls-17" d="M23.76,47.78l.61-.15a1.41,1.41,0,0,0,.45.91c.46.45.46.76.46.76a2.2,2.2,0,0,0-1.06-.91.66.66,0,0,1-.46-.61"/></g><g id="g4958"><path id="path4960" class="cls-17" d="M24.51,47.59l.45-.16a4.38,4.38,0,0,0,.31,1.21,1.47,1.47,0,0,1-.76-1"/></g><g id="g4962"><path id="path4964" class="cls-17" d="M25.15,47.4l.45-.16s.3,1.37,1.21,1.52a2,2,0,0,1-1.66-1.36"/></g><g id="g4966"><path id="path4968" class="cls-17" d="M25.64,47.16l.75-.15s0,.91.3,1.21a4.1,4.1,0,0,1-.6-.75,4.43,4.43,0,0,0,.6,1.21c0-.31-.75-.61-1.05-1.52"/></g><g id="g4970"><path id="path4972" class="cls-17" d="M27.11,46.8l.9-.3s0,.91.61,1.21a1.51,1.51,0,0,1-.91-.76s-.3.61.76.91c0,0-.91.15-1.36-1.06"/></g><g id="g4974"><path id="path4976" class="cls-17" d="M29.42,46.3l.61-.15s.3.45.6.3a3.43,3.43,0,0,1-1.06-.15,6.87,6.87,0,0,1,.76.3,2.91,2.91,0,0,1-1.67-.3h.76"/></g><g id="g4978"><path id="path4980" class="cls-17" d="M9.52,44.52l1.21,1.66a1.55,1.55,0,0,1-1.36.3.8.8,0,0,0,.76-.6,2.57,2.57,0,0,1-1.82.45s1.21-.3,1.51-.9a5.76,5.76,0,0,1-1.51.75s1.21-.6,1.21-1.66"/></g><g id="g4982"><path id="path4984" class="cls-17" d="M8.76,43.17l.61,1.06a1.68,1.68,0,0,1-2.27.46s1.36.15,1.66-.76a2.25,2.25,0,0,1-2.42.15,2.14,2.14,0,0,0,2.42-.91"/></g><g id="g4986"><path id="path4988" class="cls-17" d="M8.57,42.71l.16.3-1.67.76a10.63,10.63,0,0,1,1.51-1.06"/></g><g id="g4990"><path id="path4992" class="cls-17" d="M6.93,40.05a1.52,1.52,0,0,1-1.37,1.51A2.43,2.43,0,0,0,7.38,41a1.67,1.67,0,0,1-1.82.76,2.07,2.07,0,0,0,2.12,0s-.3.76-1.81.45a3,3,0,0,0,2.27.16L6.93,40.05"/></g><g id="g4994"><path id="path4996" class="cls-6" d="M23.22,49.06a2.09,2.09,0,0,1-.16-1.36l.16-.16S28.51,46,30.78,46h0v.46c-2.12,0-7.26,1.51-7.56,1.51a3.47,3.47,0,0,0,.15,1.06h-.15"/></g><g id="g4998"><path id="path5000" class="cls-6" d="M32.49,57.32,32.18,57s3.33-2.87,3.48-3l.31.3c-.16.15-3.33,2.87-3.48,3"/></g><g id="g5002"><path id="path5004" class="cls-6" d="M44.41,57.63a38.7,38.7,0,0,1-.3-6.2h.3a37,37,0,0,0,.3,6l-.3.15"/></g><g id="g5006"><path id="path5008" class="cls-6" d="M40.78,43.52s-.61-1.36-.76-1.66V41.7h.15s5,.16,5.6,0V42c-.61.15-4.54,0-5.45,0a14.78,14.78,0,0,0,.61,1.36l-.15.15"/></g><g id="g5010"><path id="path5012" class="cls-12" d="M48.14,41.38s2-.91,2.12-1.36"/></g><g id="g5014"><path id="path5016" class="cls-6" d="M48.23,41.55l-.15-.3A12.69,12.69,0,0,0,50,40l.31.15a8.84,8.84,0,0,1-2.12,1.36"/></g><g id="g5018"><path id="path5020" class="cls-6" d="M10.6,46.8c-.3-.76-4.38-7.56-4.38-7.71l.3-.16c.15.31,4.08,7,4.54,7.72l-.46.15"/></g><g id="g5022"><path id="path5024" class="cls-18" d="M35.78,40.87c.3.15.91.15,1.21.46a6.63,6.63,0,0,1,1.21.9,6.2,6.2,0,0,1,1.66,3.94c.3,4.69,3.33,4.69,3.33,4.69a3.45,3.45,0,0,1-2.27-3.18,16.08,16.08,0,0,0-.3-3.78,4.11,4.11,0,0,0-3-3,5.4,5.4,0,0,0-1.51-.3c-.15,0-.45,0-.3.3h0"/></g><g id="g5026"><path id="path5028" d="M42,60.14h0v-.31l.15-.3.15-.15.15-.15.3-.15.3-.15a.48.48,0,0,1,.31-.16.48.48,0,0,1-.15.31l-.46.45-.15.3-.15.31c-.45-.16-.45,0-.45,0"/></g><g id="g5030"><path id="path5032" d="M40.62,60a.52.52,0,0,1-.15-.3v-.3l.15-.3.3-.31.3-.15a.48.48,0,0,1,.31-.15.45.45,0,0,1-.16.3l-.15.31-.3.3c-.15.15-.3.3-.3.45V60"/></g><g id="g5034"><path id="path5036" d="M39.25,59.86h0l-.15-.3v-.31l.15-.3.3-.15.15-.15L40,58.5l-.16.15-.15.15v.45l-.3.31-.15.3"/></g><g id="g5038"><path id="path5040" d="M29.67,58.4h0v-.3l.15-.3.15-.16.15-.15.31-.3.3-.15a.46.46,0,0,1,.3-.15.52.52,0,0,0-.15.3,2,2,0,0,1-.61.45l-.3.16-.15.3a.46.46,0,0,0-.15.3"/></g><g id="g5042"><path id="path5044" d="M28.25,58.24v-.3l.15-.31.3-.3.3-.15.31-.15a.52.52,0,0,0,.3-.15l-.15.3-.31.15-.3.15-.45.46-.15.3"/></g><g id="g5046"><path id="path5048" d="M27.4,57.92h0v-.3l.15-.31.15-.15L28,57h.6l-.15.15-.3.15-.15.15c-.15.16-.31.16-.31.31l-.3.15"/></g><g id="g5050"><path id="path5052" d="M14.9,60.1h0v-.45l.15-.3.15-.16.16-.15.45-.15.3-.15a.52.52,0,0,0,.3-.15l-.3.3-.3.15-.3.15-.15.31-.31.3a.46.46,0,0,0-.15.3"/></g><g id="g5054"><path id="path5056" d="M13.82,59.55h0v-.3L14,59l.15-.15.3-.15H15l-.15.15-.3.15-.16.15c-.15.15-.3.15-.3.3l-.3.15"/></g><g id="g5058"><path id="path5060" d="M5.57,35l.15.15.3.31.16.45V36h0L6,35.86l-.3-.3a.56.56,0,0,1-.15-.46V35"/></g><g id="g5062"><path id="path5064" d="M6.93,34.25l.15.15c0,.15.15.3.15.45v.61h0l-.15-.15c0-.15-.15-.31-.15-.46v-.6"/></g><g id="g5066"><path id="path5068" class="cls-18" d="M43.66,50.86v5.29a2,2,0,0,0,.15.91h0a12.17,12.17,0,0,0-.46,1.66s-.45-.45-.75-.45-1.67-.15-1.67-.15l.31-.91s1.36.15,1.66-.15.15-4.84,0-5.45c.45-.15.76-.45.76-.75"/></g><g id="g5070"><path id="path5072" class="cls-19" d="M39.7,51.46c-.45-.15-.9-.45-1.36-.6A6,6,0,0,1,37,50.25a3.27,3.27,0,0,1-1.36-2.12l-.15-1.36h0c.45,0,1.36,1.36,1.36,1.36,0,1.67,2.87,3.33,2.87,3.33"/></g><g id="g5074"><path id="path5076" class="cls-18" d="M23,48.11l.46,1.81a28.85,28.85,0,0,0-4.54,8.32,2,2,0,0,0-.6,1.36s0,.16-.31.16a1.16,1.16,0,0,0-.45.15h-.15s-.15-.46-.3-.46c0,0,.9-.45,1.05-.9,0,0-.15-.31-1.21.3a2.11,2.11,0,0,0-.6.6,10.28,10.28,0,0,1,2.42-2.72s1.81-5,3.33-6.81l.9-1.81"/></g><g id="g5078"><path id="path5080" class="cls-18" d="M40.05,41.76s5.14.15,5.75,0c.45-.15,3.93-.45,4.84-2.57-.15,0-.61,2.42-10.59,2.57"/></g><g id="g5082"><path id="path5084" class="cls-20" d="M15.41,46.59,14.5,47a4.66,4.66,0,0,1-2,.45,1.37,1.37,0,0,1-.76-.15,1.57,1.57,0,0,1-.76-.6c-.15-.15-.15-.3-.3-.46A5.92,5.92,0,0,1,10,44.92c-.31-.6-.61-1.06-.91-1.66-.31-.45-.61-1.06-.91-1.51a2.91,2.91,0,0,0-.61-.91h0A9.21,9.21,0,0,0,6,38.72a3.79,3.79,0,0,1-1.21-1.36,3.39,3.39,0,0,0,1.51.76A18,18,0,0,0,5.43,36a6,6,0,0,1,1.81,2.42s4.09,6.65,5,7S14.05,44,14.05,44l1.36,2.57"/></g><g id="g5086"><path id="path5088" class="cls-6" d="M32.87,43.82h.46l.3.16.3.3.15.45c.15.3.3.46.46.76a2.13,2.13,0,0,1,.3.91,1.63,1.63,0,0,1,.15.75c0,.3,0,.46.15.61v.15a6.1,6.1,0,0,1-.3-.76c-.15-.15-.15-.45-.3-.75s-.16-.61-.31-.76c0-.15-.15-.3-.15-.45l-.15-.46-.15-.3-.15-.3L33.48,44l-.15-.16h-.46"/></g><g id="g5090"><path id="path5092" class="cls-18" d="M34.56,46.42s-2.12-1.67-11.19,1.21a2.67,2.67,0,0,1,0-2.42l.75.3a.9.9,0,0,0,1.21.91c1.21-.3,5.75-3,7.26-2.42a5.42,5.42,0,0,1,2,2.42"/></g><g id="g5094"><path id="path5096" class="cls-6" d="M23.17,48.42a.15.15,0,0,0-.16-.15v-.61l.16-.3.15-.15.15-.15h0v1.06c-.3.15-.3.3-.3.3"/></g><g id="g5098"><path id="path5100" class="cls-21" d="M35.18,41.17s-3-.76-1.81,1.81c0,0-.91-1.81,1.81-1.81"/></g><g id="g5102"><path id="path5104" class="cls-21" d="M27.45,40.71a12,12,0,0,0,3.32,0,22.54,22.54,0,0,1-3.32.76,2,2,0,0,1-1.21-.15l1.21-.61"/></g><g id="g5106"><path id="path5108" class="cls-21" d="M18.3,51.76l.76-.31s-1.67,5.6-2.12,5.9c0,0-.76.46-1.06.31.15.15,2-2.42,2.42-5.9"/></g><g id="g5110"><path id="path5112" class="cls-21" d="M7.87,36.38A8.26,8.26,0,0,0,9.23,38.8a5.75,5.75,0,0,1-1.36-1.66v-.76"/></g><g id="g5114"><path id="path5116" class="cls-6" d="M50.19,40.12v0ZM42,59.78l.31.16v.15c0,.15.3.15.6,0,.61-.15.76-.91.76-1.52v-.15c0-.45.75-1.06.75-1.06l.16-.15.15.15a1.92,1.92,0,0,0,.6.46h0v-.46c.15-1-.45-1.36-.6-1.36l-.31-.15.31-.15h.45a.84.84,0,0,1,.76.45l.3.31V55.4a1.23,1.23,0,0,0-1.06-1.21h-.3l.15-.3a1.13,1.13,0,0,1,.91-.46c.3,0,.45.15.75.3l.31.16c-.15-.16-.15-.46-.31-.61a1.49,1.49,0,0,0-1.06-1.06c-1.36,0-1.66-.45-1.66-.45l-.15-.15.15-.16a.92.92,0,0,0,.15-.9L44,50.41h-.15V50.1a10.41,10.41,0,0,1-1.51-.6C41,48.74,41,47.53,41,45.87a7.36,7.36,0,0,0-.46-2.72l-.3-.91L41,43a2.37,2.37,0,0,0,1.81.76l-.15-.3a1.83,1.83,0,0,1-.3-.91l.15-.45.3.3c.3.45.76.6,1.66.6a3,3,0,0,0,1.21-.15,3.31,3.31,0,0,1-1.21-.9l-.3-.31h.3a14,14,0,0,0,3.64-.6l.3-.15V41h.15c.15,0,.45.15.6.15a.56.56,0,0,1,.46.15c.45.15.91.15,1.21.45l.15.16h0v-.16c0-.3,0-.45-.15-.6s-.15-.61-.3-.76-.16-.3-.31-.3H50V40l-.15-.15.91-1.36a3.05,3.05,0,0,0,0-2.57,2.91,2.91,0,0,0-.61-.91,5.36,5.36,0,0,0-4.54-2,20.15,20.15,0,0,0-5.29.91c-.45.15-1.06.45-1.66.6a27.66,27.66,0,0,1-5.15,1.06,6.19,6.19,0,0,1-1.66.15,5.19,5.19,0,0,1-2.72-.6A4,4,0,0,1,28,34.07a1.58,1.58,0,0,1-.15-1.66c.45-1.21,2.72-1.82,3.63-2a10.72,10.72,0,0,1,2.11-.15,8.22,8.22,0,0,1,3.33.6,2.7,2.7,0,0,1,1.21.31,5.64,5.64,0,0,0,2.57.75h0a6.33,6.33,0,0,0,2.27-.6.93.93,0,0,1,.61-.15l.3-.16c.3-.15.6-.15.91-.3H46A2.43,2.43,0,0,0,44.44,30h-.9l-.76-.16.76-.3a1.13,1.13,0,0,1,.6-.15c.15-.15.3-.15.46-.3l.45-.46.45-.45c.46-.3.76-.6,1.21-.6h.46A6.24,6.24,0,0,0,49.29,27c-.31,0-.61.15-.91.15a6.53,6.53,0,0,1-1.67-.3c-.3-.15-.6-.15-.9-.3H44.6c-.46.15-.76.15-1.06.45a1.16,1.16,0,0,1-.61.3l-.15.15-.3.31h-.15a1.16,1.16,0,0,1-.61.3H40.66l.91-.45c.3-.16.3-.31.45-.76h0c0-.15.16-.45.16-.61a2.87,2.87,0,0,1-2.27,1.21h-.15A4.32,4.32,0,0,0,37,28.62a5.82,5.82,0,0,1-1.06.91c-.3.15-.75.15-1.21.3A4,4,0,0,0,33.4,30c-2.57,0-6.2.15-6.5,2.87-.15,1.36.45,2.42,2,3.33a7,7,0,0,0,2.87.6h0c.3,0,.76-.15,1.06-.15a4.44,4.44,0,0,1,1.36-.3h0a.6.6,0,0,1,.6.3c.16.3,0,.61-.3.91l-.91.45a4.07,4.07,0,0,0,1.82-.45,2.07,2.07,0,0,0,.6-.45c.31-.16.61-.46.91-.61l.3-.15v.3a2.83,2.83,0,0,1-.3,1.21l-.45.46c.15,0,.45-.16.6-.16h.15c.31-.15.76-.3,1.06-.45a3,3,0,0,0,.91-.6l.15-.16c0-.15.3-.3.46-.45l.15-.3.15.3a2.61,2.61,0,0,0,1.21,1.36,4.44,4.44,0,0,0,1.36.3,2.71,2.71,0,0,1-.76-1,2.09,2.09,0,0,1,.46-1.82,2.56,2.56,0,0,1,1.51-.91,5.47,5.47,0,0,1,4.08.3,3.41,3.41,0,0,1,2,2.12,2.78,2.78,0,0,1-.76,2.57,5.72,5.72,0,0,1-2.26,1.37,10.17,10.17,0,0,1-2.27.15H42.93a23.13,23.13,0,0,1-4.23-.46c-.61-.15-1.36-.15-2.12-.3a.55.55,0,0,1-.45-.15,5.24,5.24,0,0,0-1.52-.15h-.3a3.39,3.39,0,0,0-1.51.45,9,9,0,0,1-2.12.3,21.7,21.7,0,0,1-2.27-.15h0c-.15,0-.15-.15-.45-.15a1.57,1.57,0,0,0-.61.15h0l-3.17.15c-.31,0-9.23,1.06-10.89,1.06H13a11,11,0,0,1-3.33-2.42,5.71,5.71,0,0,1-1.36-2.42v-.15c-.15-.3,0-.91,0-1.36v-.45a.67.67,0,0,0-.15-.46.74.74,0,0,1-.45.15h0l-.3-.15h0c0,.15-.16.46,0,.76v.6l-.31-.45c0-.15-.15-.15-.15-.45v-.46c0-.3-.15-.3-.15-.3-.15.15-.15.15-.3.15h-.3a2.72,2.72,0,0,0,.15.76c0,.15.15.75.15.91V36H6.33A2,2,0,0,1,6,35.58c-.15-.15-.3-.45-.45-.6l-.15-.15H5.27l-.3.3v.15c0,.15,0,.3.3.45.3.31.75.76.75,1.06l-.15.15h0a2.53,2.53,0,0,1-.75-.3.79.79,0,0,0-.31.61c0,.45.76.45.76.45h.15a3.55,3.55,0,0,0,.91.76l.3.15a.49.49,0,0,1,.46.45,2.37,2.37,0,0,1,.45,1.36,1.59,1.59,0,0,1-1.36,1.36c-.3,0-.46,0-.61.16a8,8,0,0,0,1.06.45,9.52,9.52,0,0,0,1.67.45h.3l-.15.31a3.23,3.23,0,0,1-1.82,1.21l-.3.15a8.88,8.88,0,0,1,1.21.6,2.83,2.83,0,0,0,1.06.3,1.82,1.82,0,0,0,.75-.15l.46-.15-.15.46a2.28,2.28,0,0,1-.91,1l-.3.16H9.2c.3,0,.61.15.91.15a5.48,5.48,0,0,0,1.06-.15h.3c.3,0,.45.15.61.45l.15.15a3.41,3.41,0,0,0,.9.61,3.58,3.58,0,0,0,2.12-.31,11.86,11.86,0,0,0,2-1.06l.15.16h0l.15-.16a21.34,21.34,0,0,1,1.06,2,44.38,44.38,0,0,1-.3,5c-.15.91-.76,2.57-.76,2.73a6.17,6.17,0,0,1-.91,1.51,3.89,3.89,0,0,1-1.36.75l-.3.16c-.45.3-.61.45-.61.75s0,.15.31.15c.15,0,.45.15.45.31h.15c.15,0,.3,0,.46.3l.3.15a2.72,2.72,0,0,1,.91.15h.45v-.3l.3.15a1.84,1.84,0,0,0,.76.15h.15c.3,0,.3,0,.45-.15h0l.31-.15c.15,0,.3,0,.3-.3a4.81,4.81,0,0,1,.3-.91h0a2.42,2.42,0,0,1,.91-.46.53.53,0,0,1,.45.16l.15.3a3.68,3.68,0,0,0,0-1.36h0c0-.15.15-.31.46-.31a.78.78,0,0,1,.75.61c0,.15.15.3.31.45v-.9A5.18,5.18,0,0,0,22.81,56l-.15-.3H23a.82.82,0,0,1,.75.76c0,.15.15.3.15.45V55.1c0-.16-.15-.31-.15-.61h0l-.15-.3.15-.3.15-.16s.31,0,.76.61l.3.3a6.88,6.88,0,0,1-.45-1.36,2,2,0,0,0-.76-1.36l-.15-.15.15-.15a4.3,4.3,0,0,0,.76-.91l-.3-1.51.45.3a2.31,2.31,0,0,0,1.06.45,1.46,1.46,0,0,1,.75.61,5.71,5.71,0,0,0-.15-1.21L26,48.29l.76.91a1.79,1.79,0,0,0,1.21.6c.45,0,.75.15,1.06.15l-1.21-1.66-.61-.76a4.53,4.53,0,0,0,1.36.3H29a2.49,2.49,0,0,1-.61-1v-.31l2.72.15-.9-.45.3-.15a4.21,4.21,0,0,1,1.36-.15,5.48,5.48,0,0,1,2.87.75c.31,0,.46.46.76,2a3.49,3.49,0,0,0,2.12,2.27,4.65,4.65,0,0,1,2.57,1.51,9.67,9.67,0,0,1,.91,4.09,2.43,2.43,0,0,1-1.52,2.11h-.15c-.45.16-.75.31-.75.61s0,.3.3.3h.3l.3-.15v.3c0,.15.61.31,1.06.31h0a1.69,1.69,0,0,0,.76.15,1.54,1.54,0,0,0,.6-.31m.61.76a.82.82,0,0,1-.61-.3h0c-.15,0-.3.15-.45.15a2,2,0,0,1-.91-.15c-.3,0-1.06,0-1.21-.46h-.3c-.45,0-.6-.15-.76-.6-.15-.76.61-.91.91-1.06h.15a2,2,0,0,0,1.21-1.81,9.69,9.69,0,0,0-.75-3.79,3.69,3.69,0,0,0-2.42-1.36,3.47,3.47,0,0,1-2.42-2.57,7.33,7.33,0,0,0-.46-1.81,5.66,5.66,0,0,0-2.72-.61,2,2,0,0,0-.91.15l1.21,1.06-2-.15-1.36-.15a1.23,1.23,0,0,0,.75.75l.3.16-.3.15a2.63,2.63,0,0,1-1.06.15,6.5,6.5,0,0,1-.75-.15l1.06,1.51-.61-.15s-.61-.15-1.51-.3a2.18,2.18,0,0,1-1.06-.31,5.77,5.77,0,0,1-.15,1.52l-.31.75-.15-.75s-.15-.76-.75-.91c-.31-.15-.61-.15-.91-.3l.15.6c0,.15,0,.3-.76,1.21.16.3.76.91.76,1.51A2,2,0,0,0,24.18,54l.15.3-.31.15h-.15A1,1,0,0,1,23,54l-.31-.31h0a.94.94,0,0,1,.15.61v2.87l-.15-.45a1.68,1.68,0,0,1-.6-1.06v-.15a3.25,3.25,0,0,1,0,1.21v1.81l-.3-.3a2.76,2.76,0,0,1-.61-.91c-.15-.3-.3-.3-.3-.3h0a2.89,2.89,0,0,1-.3,2.12l-.31.6v-.6c0-.15,0-.61-.15-.76h-.15c-.15,0-.3,0-.76.46a1.82,1.82,0,0,0-.15.75c-.15.61-.45.61-.6.61h-.15c-.31.15-.31.3-.76.3a1.17,1.17,0,0,1-.76-.15c-.15.15-.15.15-.45.15H16a2.47,2.47,0,0,0-.61-.15h0a.8.8,0,0,1-.6-.45h-.15c-.15,0-.31,0-.46-.31l-.3-.15c-.3-.15-.6-.15-.6-.6s.3-.76.9-1.06l.31-.15a4.1,4.1,0,0,0,1.36-.76,6.14,6.14,0,0,0,.75-1.36s.61-1.82.76-2.57a30.66,30.66,0,0,0,.3-4.84,5.72,5.72,0,0,0-.91-1.67L15,47.38a4.32,4.32,0,0,1-2.27.3,2.45,2.45,0,0,1-1.06-.6l-.15-.15-.3-.31H11a7.8,7.8,0,0,1-1.21.16,2.78,2.78,0,0,1-1.06-.16l-1.67-.15.61-.3a4.34,4.34,0,0,1,.91-.45l.45-.46H8.6a2.48,2.48,0,0,1-1.37-.45,5,5,0,0,0-1.66-.76H5.12l.3-.3a2,2,0,0,1,.91-.45,4,4,0,0,0,1.36-.76,4,4,0,0,1-1.51-.45c-.76-.31-1.37-.61-1.37-.61H4.66l.15-.15a1.28,1.28,0,0,1,1.06-.45A1,1,0,0,0,6.93,40a3.36,3.36,0,0,0-.45-1.21h0a.52.52,0,0,0-.3-.15L6,38.46a3.54,3.54,0,0,1-1-.76c-.31,0-.91-.15-.91-.76a1.19,1.19,0,0,1,.6-1H5a.55.55,0,0,0,.45.15L5,35.58a1.06,1.06,0,0,1-.46-.91c0-.15.15-.3.3-.45a.5.5,0,0,1,.31-.15h0a.66.66,0,0,1,.45-.15c.15,0,.3.15.45.3l.16.15a.65.65,0,0,1,0-.75l.3-.31c.15,0,.3-.15.45,0h.15a.57.57,0,0,1,.61.46h.15l.3.15h0l.3-.15c.16-.15.31,0,.46.15a.6.6,0,0,1,.15.75v.46c0,.45-.15.91,0,1.21v.15a5.44,5.44,0,0,0,1.21,2.27A9.56,9.56,0,0,0,13.44,41h.15C15.1,41,24.33,40,24.33,40l2.87-.15a6.31,6.31,0,0,1,.76-.15.9.9,0,0,1,.6.15,21.05,21.05,0,0,0,2.12.15,6,6,0,0,0,2-.3,3.84,3.84,0,0,1,1.66-.46h.45c.61,0,1.06.15,1.52.15a.53.53,0,0,1,.45.16,12,12,0,0,0,2.12.3,23.93,23.93,0,0,0,4.23.45h1.67a8.8,8.8,0,0,0,2.12-.15A3.8,3.8,0,0,0,49,38.91a2.52,2.52,0,0,0,.61-2.27,2.69,2.69,0,0,0-1.82-1.81A5.46,5.46,0,0,0,44,34.52a2.22,2.22,0,0,0-1.36.91,2.59,2.59,0,0,0-.45,1.51,4.19,4.19,0,0,0,1,1.37l.46.3h-.61a5.52,5.52,0,0,1-2.11-.3c-.61-.31-1.06-.61-1.21-1.21-.16.15-.31.3-.46.3l-.15.15a3,3,0,0,1-.91.6c-.3.16-.75.31-1.06.46H37a2.25,2.25,0,0,1-1.06.15h-.3l-.6-.15.45-.3a2.34,2.34,0,0,0,.91-.76.92.92,0,0,0,.15-.61,1.86,1.86,0,0,1-.61.46c-.3.15-.45.45-.75.6a3.1,3.1,0,0,1-2.57.31l-.46-.16L32.8,38a6.14,6.14,0,0,0,1.36-.75l.3-.31a.46.46,0,0,1-.3-.15h0c-.3,0-.76.15-1.06.15a2.8,2.8,0,0,1-1.21.16h0a7.22,7.22,0,0,1-3-.61c-1.82-.91-2.43-2.12-2.27-3.63.45-3,4.23-3.18,6.95-3.33a3.84,3.84,0,0,0,1.37-.15,2.78,2.78,0,0,0,1-.3l.76-.76a4.09,4.09,0,0,1,3-1.21h.15a3.15,3.15,0,0,0,2.42-1.81l.45-.91v1.06a6.45,6.45,0,0,1-.3,1.66h0l-.15.15.15-.15.3-.15a3.16,3.16,0,0,1,.76-.45c.45-.15.75-.31,1.21-.46a1.67,1.67,0,0,1,1.21,0,2.1,2.1,0,0,1,.91.31,4.45,4.45,0,0,0,1.51.3,3.42,3.42,0,0,0,1.36-.3l.45-.16-.15.46s-.45,1.06-2.72,1.36h-.45a3.67,3.67,0,0,0-1.06.6l-.46.31-.45.45-.46.3h.16c.45.15,1.51.46,1.81,1.21l.15.15.15.31-.3-.15A4.41,4.41,0,0,0,44.9,31c-.3,0-.61.16-.91.16l-.3.15c-.15,0-.46.15-.61.15a3.65,3.65,0,0,1-2.27.91h0a9.08,9.08,0,0,1-2.87-.76c-.3-.15-.76-.3-1.06-.45a7.8,7.8,0,0,0-3.17-.61,10,10,0,0,0-2.12.15c-1.36.3-3,.91-3.48,1.82a1.48,1.48,0,0,0,.15,1.36,3.45,3.45,0,0,0,1.06.91,6.48,6.48,0,0,0,2.57.6,6.8,6.8,0,0,0,1.66-.15,48.74,48.74,0,0,0,5-1.21c.75-.15,1.36-.3,2-.45a19.13,19.13,0,0,1,5.3-.91c2.27,0,3.78.6,4.84,2.12a3.67,3.67,0,0,1,.6,1.06,3.17,3.17,0,0,1,0,2.87,6.14,6.14,0,0,1-.75,1.36l.45.45.45.91a6.75,6.75,0,0,1,.15.76V43.3l-.3-.31-.45-.45-.3-.3c-.31-.3-.76-.3-1.21-.46L49,41.63c-.3,0-.45-.15-.6-.15l-.15-.15a11.55,11.55,0,0,1-3.33.61,5.31,5.31,0,0,0,1.36.75l.45.15-.45.15a6.84,6.84,0,0,1-2,.31,2.66,2.66,0,0,1-1.66-.46V43a.76.76,0,0,0,.6.31l.61.15-.45.6a1.9,1.9,0,0,1-.76.15,3.39,3.39,0,0,1-1.51-.45,7.41,7.41,0,0,1,.3,2.27c0,1.81.15,2.57,1.21,3.33A5.39,5.39,0,0,0,44,50h.45c.16,0,.31.15.31.46a1.73,1.73,0,0,1-.15,1.21c.15.15.45.15,1.36.3a1.45,1.45,0,0,1,1.36,1.21c.15.45.3.76.6.76h.31l-.31.3a.66.66,0,0,1-.45.15,2.22,2.22,0,0,1-.91-.3c-.15-.15-.3-.15-.6-.15l-.31.15a1.58,1.58,0,0,1,.91,1.51,5.37,5.37,0,0,0,.15,1.51l.16.46-.46-.16a2.68,2.68,0,0,1-.76-.75c-.15-.15-.3-.15-.45-.3a2,2,0,0,1,.45,1.51c0,.3,0,.45.16.6l.15.31H45.5c-.15,0-.3-.16-.45-.16h0a2.29,2.29,0,0,1-.61-.45,1.27,1.27,0,0,0-.45.76V59c0,.6,0,1.81-1.06,2l-.3-.45"/></g><g id="g5118"><path id="path5120" class="cls-15" d="M16.59,30.55a4.81,4.81,0,0,0-.75-.45,2,2,0,0,1-.61-.45c-.15-.16-.45-.46-.45-.76a1.83,1.83,0,0,0,1.51.45,2.06,2.06,0,0,1,.91.31c-.15-.16-.46-.31-.61-.61a12.12,12.12,0,0,1-.6-1.36c.15.3.45.45.6.6a2.1,2.1,0,0,0,.91.31c.61.15,1.82.75,1.82,1.21,0,0,.6-.31.15-1.52,0,0,1.36.31,1.51,1.52,0,0,1.36-.91,2.42,1.21,0,0-.15-.15-.76-.15,0,0,.91.3,1.37,2s1.21,2.88,2.26,2.88a1.25,1.25,0,0,1-1.05.45s.3,4.08,3,3.78a3.74,3.74,0,0,1-2.87.61,2.82,2.82,0,0,1-1.21,2.27,1.68,1.68,0,0,0-.31,1.81,1.47,1.47,0,0,1-.75-1.51l-1.82,3.17s-.45,1.06-.15,1.52c0,0-.91-.31-.45-2.27A18.1,18.1,0,0,1,19.16,48a5.11,5.11,0,0,0-.9,1.81v-.15c-.15-.15-.15-.3-.31-.45s-.15-.61-.3-.91c0,.3-.15.45-.15.76,0,.15-.15.3-.15.45l-.15.3a1.35,1.35,0,0,0-.15-.75,3.15,3.15,0,0,0-.46-.76,4.36,4.36,0,0,1-1.51-2.72,2.14,2.14,0,0,1-1.21,1.36s1.36-.76-.45-2.87l-.15-.16s-1.06-.15-1.37-2a2.59,2.59,0,0,1,0-1.51l-.45.45A.55.55,0,0,1,11,41h-.61a1.5,1.5,0,0,0,1.06-1.51,3.25,3.25,0,0,1,.76-2.42,2.66,2.66,0,0,1-2.12-.15s1.21.45,1.81-1.82a1,1,0,0,0-.75.45s.15-1.66,2.87-2.72a.72.72,0,0,0-.6,0s.45-.75.9-.91a1.15,1.15,0,0,0-.75-.3l.45-.45c.15-.15.3-.15.46-.3s.3,0,.45-.16l-.15-.15H14l.15-.15c.15-.15.31-.3.46-.3a2.78,2.78,0,0,1,1.06-.3h.6a.54.54,0,0,0,.3.75"/></g><g id="g5122"><path id="path5124" class="cls-6" d="M17.74,47.57l.15.6.15.46a1.13,1.13,0,0,0,.15.6c0,.15.15.3.15.46a14.25,14.25,0,0,1,.76-1.52,10.76,10.76,0,0,0,1.36-2.42l.76-1.51-.31,1.66a2.61,2.61,0,0,0,0,1.52,1.28,1.28,0,0,1,.31-.91l2.11-4.08-.15.9a1.23,1.23,0,0,0,.31.91,1.39,1.39,0,0,1,.6-1.51c1.21-1.21,1.06-2.12,1.06-2.12v-.3h.91a4.5,4.5,0,0,0,1.51-.3C25.45,39.55,25,36.22,25,36.07v-.15h.15c.3,0,.45,0,.61-.15-.76-.3-1.37-1.21-2-2.87s-1.21-1.82-1.36-1.82l-1.36-.45h1.81a1.45,1.45,0,0,0-1.36-.91,1.63,1.63,0,0,0-.61.15l-.3.15v-.3a1.34,1.34,0,0,0-.91-1.21c.31,1.06-.3,1.36-.45,1.36L19,30v-.3c0-.45-1.06-1.06-1.67-1.06a2.13,2.13,0,0,1-.9-.3h-.15a2.16,2.16,0,0,1,.3.45l.3.3.61.16.75.75-1.06-.45c-.3-.15-.6-.3-.75-.15a2.49,2.49,0,0,1-1.06,0v.15a2.07,2.07,0,0,0,.6.45l.15.15c.16,0,.31.15.46.31l.6.45h-.75c-.15,0-.31-.15-.46-.15v-.3h-.6a1.94,1.94,0,0,0-.91.15l-.15.15h.3l.15.15h0l.46.15-.46.15-.3.15h-.15l-.45.31-.16.15h0l.61.3.15.15-.3.15c-.15,0-.46.3-.61.46h.31l.6.15-.6.3a4.65,4.65,0,0,0-2.58,2c.31-.15.46,0,.46,0h.15v.15a2.89,2.89,0,0,1-1.21,1.81h.3A3.69,3.69,0,0,0,12,37.13l.91-.3-.76.6a3,3,0,0,0-.75,2.27,1.72,1.72,0,0,1-.46,1.21l.46-.15.3-.3.6-1.06-.15,1.06a2.11,2.11,0,0,0,0,1.36,2.24,2.24,0,0,0,1.21,1.82h0l.3.3a2.49,2.49,0,0,1,.91,2.27v.15A2.31,2.31,0,0,0,15,45.6l.15-.75.15.75A3.42,3.42,0,0,0,16.68,48l.15.15a1.42,1.42,0,0,1,.45.76h0v-.15l.16-.3v-.31Zm-.61,3L17,49.84v-.76c-.15-.3-.3-.45-.45-.76l-.15-.15a3.32,3.32,0,0,1-1.21-2,2,2,0,0,1-1.21.9l-1.21.31,1.06-.61a1,1,0,0,0,.45-.6c.15-.46-.3-1.21-.91-2l-.15-.3a2.46,2.46,0,0,1-1.51-2.12c0-.3-.15-.76-.15-1.06h0c-.15.15-.31.15-.61.3h-.6l-.91.16.91-.31c.6-.15.9-.6.9-1.36a2.82,2.82,0,0,1,.46-2h-.61a2.91,2.91,0,0,1-1.21-.31l-1.21-.75L10,37h.16c.3,0,.9-.15,1.21-1.36a.32.32,0,0,0-.31.3l-.45.76.15-.91A3.67,3.67,0,0,1,12.9,33.2h-.15l.3-.46a3,3,0,0,1,.76-.75c-.16,0-.31-.15-.46-.15v-.15l-.15-.16.15-.3.15-.15.31-.3H13.2l.3-.3.15-.16c.16.16.31,0,.46,0a2.78,2.78,0,0,1,1.06-.3h.3l-.3-.3a1.29,1.29,0,0,1-.46-.91l-.15-.75.46.6a1.25,1.25,0,0,0,1.05.45h.61a2.25,2.25,0,0,1-.61-1.36l-.15-.9.46.75a.82.82,0,0,0,.6.46c.3.15.61.15.76.3a2.78,2.78,0,0,1,1.81,1.06c.15-.15.15-.46,0-1.06l-.15-.3h.3a1.9,1.9,0,0,1,1.52,1.51c.15,0,.3-.15.6-.15.46,0,1.21.3,1.82,1.51l.45.91-.6-.76a4,4,0,0,1,.9,1.66c.31,1.21,1.06,2.88,2,2.73h.45l-.3.3a1.26,1.26,0,0,1-1.06.45c.15.76.61,3.48,2.57,3.48h.31l.75-.15-.6.46a5.36,5.36,0,0,1-2.42.75H25.6A3,3,0,0,1,24.39,43a1.4,1.4,0,0,0-.3,1.66l.15.46-.45-.3A1.59,1.59,0,0,1,23,43.79l-1.51,2.57c-.15.3-.45,1.06-.15,1.36l.45.6-.6-.3a1.51,1.51,0,0,1-.76-1.51,18.82,18.82,0,0,0-.91,1.66A3.17,3.17,0,0,0,18.8,50l-.15.45-.31-.3-.3-.3c-.15-.15-.15-.31-.3-.46v-.15c0,.15-.15.3-.15.46l-.15.15h0l-.31.75"/></g><g id="g5126"><path id="path5128" class="cls-16" d="M20.63,41.27a5,5,0,0,1,.3,3.33,3.68,3.68,0,0,0,.15-4.09l-.45.76"/></g><g id="g5130"><path id="path5132" class="cls-16" d="M11.36,40.6l.15-.31.15-.3c.15-.3.15-.6.3-.76a.53.53,0,0,1,.16-.45c.15-.15.15-.3.3-.45s.91-.91,1.06-.61a1.76,1.76,0,0,0,0,.91h-.31a1.15,1.15,0,0,0-.75.3c-.15.15-.3.3-.3.46-.16.15-.16.3-.16.6,0,.15-.15.3-.15.45a.53.53,0,0,0-.45.16"/></g><g id="g5134"><path id="path5136" class="cls-16" d="M13.57,38.75s-2.57,1.37-.91,4.54c0,0-.75-2.72,1.06-3.78l-.15-.76"/></g><g id="g5138"><path id="path5140" class="cls-22" d="M17.14,32.79a1.17,1.17,0,0,0-.45-.6s.9.15,1,.45c0,0,0-.76-.3-.91,0,0,.61.15.76.61l.15-.46a1.63,1.63,0,0,1,.76.91,2,2,0,0,1,1.36-.15.54.54,0,0,0-.46.3s.91.15,1.21,1.52.15,1.66.31,2.11a7.49,7.49,0,0,0,.3,1.36,1.8,1.8,0,0,1,0,1.37,1.17,1.17,0,0,0-.15-.46l-.31-.15s.16.76-.15,1.06a11.77,11.77,0,0,0-.9,1.21,13.36,13.36,0,0,0-.91,1.51v1.21a1.69,1.69,0,0,1-.61.91s.31-.3,0-1.06a1.71,1.71,0,0,1-.6.91c-.46.3-.61.3-.61.6a1.82,1.82,0,0,1-.15-.75.89.89,0,0,0-.15-.61,1.19,1.19,0,0,0-.3.76,1,1,0,0,1-.3-1.06,1.3,1.3,0,0,0-.31.91s-.9,0-.6-1.52l-.15-.6-.91-2.87a2,2,0,0,0-.15,1.21s-.46-.31-.3-1.67a2.27,2.27,0,0,1-.31.61,4.84,4.84,0,0,0-.15-1.06A2.64,2.64,0,0,1,14,37a9.78,9.78,0,0,0,.61-1.67,8.54,8.54,0,0,1,.6-1.81c.46-.61,1.21-1.36,2-.76"/></g><g id="g5142"><path id="path5144" class="cls-6" d="M17.41,43.55l.16.16a1.82,1.82,0,0,1,.15.75v.3l.15-.15.3-.15a1.64,1.64,0,0,0,.45-.91l.16-.9.15.75a.57.57,0,0,0,.15.46.48.48,0,0,0,.15-.31h0V42.34a6,6,0,0,1,.91-1.66,11.77,11.77,0,0,1,.9-1.21c.16-.15.16-.76.16-.91L21,37.81l.61.75a1.82,1.82,0,0,0-.15-.75,4,4,0,0,1-.3-1.06V36a4.53,4.53,0,0,0-.31-1.66c-.3-1.21-1.06-1.36-1.06-1.36h-.3l.15-.16v-.15a.88.88,0,0,0-.6.15l-.3.16v-.31c0-.15-.16-.3-.16-.45v1.06l-.45-.91-.3-.3a1.49,1.49,0,0,1,.15.6v.76l-.45-.61c0-.15-.16-.15-.46-.15l.15.15.15.61L17,33a.53.53,0,0,0-.45-.16c-.46,0-.91.46-1.21.91a8.12,8.12,0,0,0-.61,1.82,5.44,5.44,0,0,1-.6,1.66c0,.15-.15.91-.15,1.21l.15.45.3-.75v1.66a.52.52,0,0,1,.15-.3l.15-.45,1.06,3.32c.15.61.3.76.15.76,0,.61,0,.91.15,1.06l.15.15c0-.6.31-.91.46-.91l.3-.3v1.06a1.16,1.16,0,0,0,.15-.45Zm.31,2.12-.31-.3a.89.89,0,0,1-.15-.61v.16l-.15-.16a1.86,1.86,0,0,1-.3-.45v.45h-.15a1,1,0,0,1-.61-.3c-.3-.3-.3-.75-.3-1.51a2.47,2.47,0,0,0-.15-.61l-.76-2.27v.46l.15.6-.45-.45a1.53,1.53,0,0,1-.3-1.06l-.3.76V39.32a4.56,4.56,0,0,0-.16-1.06,3.34,3.34,0,0,1,.16-1.51c.15-.46.6-1.36.6-1.52h0a4.54,4.54,0,0,1,.76-1.81,1.67,1.67,0,0,1,1.36-1.06l-1.06-.45,1.06.15a6.5,6.5,0,0,0,.75.15c0-.15-.15-.3-.15-.45l-.15-.31h.46a1.15,1.15,0,0,1,.75.31l.15-.16a3.16,3.16,0,0,1,.76.76,6.31,6.31,0,0,1,.76-.15.9.9,0,0,1,.6.15l.76.15-.91.15h-.15a2.6,2.6,0,0,1,1.06,1.52,4.89,4.89,0,0,1,.3,1.81v.91a1.3,1.3,0,0,0,.3.91,2.1,2.1,0,0,1,0,1.51h-.3a.9.9,0,0,1-.15.6,13.67,13.67,0,0,0-.91,1.21,6.53,6.53,0,0,0-.91,1.52v.15c0,.45,0,.91-.15,1.06a1.76,1.76,0,0,1-.75.9l-.16-.15h0l-.3.31-.3.15c-.15.15-.15.15-.15.3l-.15.3"/></g><g id="g5146"><path id="path5148" class="cls-12" d="M12.52,33.79l-.3-.61a1,1,0,0,1,.3-1.06,1.3,1.3,0,0,1,1.06-.3.54.54,0,0,1,.46.3,2,2,0,0,0-.91.91h.6s-.75.46-1.21.76"/></g><g id="g5150"><path id="path5152" d="M13.21,32.14c-.15,0-.3.15-.46.3a2.17,2.17,0,0,0-.3.91l.15.3.31-.15h-.16l.31-.45.75-.76h-.15l-.45-.15M12.6,34c-.3,0-.45-.6-.45-.6a1.26,1.26,0,0,1,.3-1.21.84.84,0,0,1,.76-.45h.45l.61.3.15.15-.3.15a2.52,2.52,0,0,0-.61.45h.3l.61.31L14,33.2c-.15.15-.9.45-1.36.75h0"/></g><g id="g5154"><path id="path5156" class="cls-12" d="M21.53,33.21a5.31,5.31,0,0,1,1.36,1.06,1.13,1.13,0,0,0-.15-1.36c-.6-.61-1.21.15-1.21.15v.15"/></g><g id="g5158"><path id="path5160" d="M21.75,33.12a2.91,2.91,0,0,1,1.06.9c0-.3.15-.6-.16-.9A.53.53,0,0,0,22.2,33c-.15-.15-.45.16-.45.16h0M23,34.63l-.15-.3a4.62,4.62,0,0,0-1.37-1.06h0l.16-.46a1,1,0,0,1,.75-.45.8.8,0,0,1,.61.3,1.41,1.41,0,0,1,.15,1.67l-.15.3"/></g><g id="g5162"><path id="path5164" class="cls-17" d="M20.28,28.7s.45,1.21-.15,1.82A2.08,2.08,0,0,0,19.37,32,2.76,2.76,0,0,1,20.13,31a1,1,0,0,0,.45-1.21,4.69,4.69,0,0,0-.3-1.06"/></g><g id="g5166"><path id="path5168" class="cls-17" d="M20.11,31.4s1.06-2.12,2.57-1.06a2.44,2.44,0,0,0-2.57,1.06"/></g><g id="g5170"><path id="path5172" class="cls-17" d="M17.33,28.65s2,.61,1.82,1.82c0,0,1.21-1.06.75-1.82,0,0,.46.61-.15,1.67A5.65,5.65,0,0,0,19,31.83a2.72,2.72,0,0,0-1.66-3.18"/></g><g id="g5174"><path id="path5176" class="cls-17" d="M16.44,28.16a8,8,0,0,1,2,1.67,4.66,4.66,0,0,0-1.21-.91S19,30,18.56,31.64l-.31-.15a2.46,2.46,0,0,0-.9-2.12,3.59,3.59,0,0,1-.91-1.21"/></g><g id="g5178"><path id="path5180" class="cls-17" d="M15.51,29.47a3.27,3.27,0,0,0,.9.15c.46-.15,1.21.15,1.21,1.21v.76l-.3-.16s.15-1.05-.45-1.36c-.46-.6-.91-.15-1.36-.6"/></g><g id="g5182"><path id="path5184" class="cls-17" d="M14.53,30.55a2.11,2.11,0,0,1,2.12.45l.75,1.06L17,31.91a3.17,3.17,0,0,0-1.06-1.21,5.87,5.87,0,0,0-1.36-.15"/></g><g id="g5186"><path id="path5188" class="cls-17" d="M16.87,32a2.27,2.27,0,0,0-2.27-1.36,2.37,2.37,0,0,1,1.81,1.21l.46.15"/></g><g id="g5190"><path id="path5192" class="cls-17" d="M16,32.5l-.3.15a2.12,2.12,0,0,0-2,.16A2.06,2.06,0,0,1,16,32.5"/></g><g id="g5194"><path id="path5196" class="cls-17" d="M15.54,32.79l-.15.3a3,3,0,0,0-1.51-.15,1.59,1.59,0,0,1,1.66-.15"/></g><g id="g5198"><path id="path5200" class="cls-17" d="M15.14,33.2a7,7,0,0,0-1.21.15,5,5,0,0,0-2.57,1.82,6.74,6.74,0,0,1,2.72-1.52,8.2,8.2,0,0,0-2,1.06s1.82-.9,2.58-.6l.45-.91"/></g><g id="g5202"><path id="path5204" class="cls-17" d="M10.85,37.21a3.43,3.43,0,0,0,1.21-1.36c.45-1.06,2.26-1.21,2.42-.91l-.16.31a1.29,1.29,0,0,0-1.51.15c-.91.45-.45,1.36-2,1.81"/></g><g id="g5206"><path id="path5208" class="cls-17" d="M19.75,32s1.67-1.82,2.73-.91A4.29,4.29,0,0,1,24,33.37a4.14,4.14,0,0,0,1.66,2.42s-2-.91-2.11-2.12c0,0-.76-2.87-2.88-1.51l-.3.15H19.6l.15-.3"/></g><g id="g5210"><path id="path5212" class="cls-17" d="M20.43,41.54s.76,3.32-.76,5.74c-1.06,1.67-1.36,2.27-1.36,2.27s-.15-.45,1.06-2.57a7.81,7.81,0,0,0,.45-4.69l.61-.75"/></g><g id="g5214"><path id="path5216" class="cls-16" d="M19.69,43.1a7.86,7.86,0,0,1-.15,3.18c-.45,1.51-.91,1.66-1.06,2.42a13.58,13.58,0,0,1,.61-2,5.12,5.12,0,0,0,.3-2.27,2.6,2.6,0,0,0,.3-1.36"/></g><g id="g5218"><path id="path5220" class="cls-16" d="M20.88,33.28l.15.45a7.52,7.52,0,0,1,1.21.61c.15,0-.3-.91-1.36-1.06"/></g><g id="g5222"><path id="path5224" class="cls-16" d="M21.23,34.1a5,5,0,0,1,1.52,1.36l-.61-.6.45.45-1.06-.45-.3-.76"/></g><g id="g5226"><path id="path5228" class="cls-16" d="M14.28,35.39h-.46a3,3,0,0,0-1.21.61l-.3.3-.15.3c-.15.15-.46.46-.76.46a2.94,2.94,0,0,0,1.21-.31c.46-.45,1.51-1.21,1.82-.9l-.15-.46h0"/></g><g id="g5230"><path id="path5232" class="cls-16" d="M19.1,44.66a3.88,3.88,0,0,0-1.05,2.42,9.3,9.3,0,0,0,.15,2,5,5,0,0,1,.3-1.82v.61c-.15,0,.76-2.12.6-3.18"/></g><g id="g5234"><path id="path5236" class="cls-16" d="M15.49,43.32c0,.3-.15.76-.15,1.06a4.88,4.88,0,0,0,.3,2.12,5.6,5.6,0,0,0,.76,1.21,2.69,2.69,0,0,1,.75,1,8.09,8.09,0,0,0-.9-2,2.62,2.62,0,0,1-.31-2.27,3.36,3.36,0,0,1-.45-1.21"/></g><g id="g5238"><path id="path5240" class="cls-16" d="M25.16,40.11a4,4,0,0,0,2,0s-.91.45-2.27-1.51a4.18,4.18,0,0,0-3.17-2l.15.61a3.89,3.89,0,0,1,2.87,2.11A4,4,0,0,1,24,42.83a3.19,3.19,0,0,0,1.21-2.72"/></g><g id="g5242"><path id="path5244" class="cls-16" d="M22,37.77s2.42.46,2.57,2a3.42,3.42,0,0,1-.45,2.12c-.15.45-.61.9-.61,1.51.15-.76.46-1.67.61-2.42a1.54,1.54,0,0,0-.91-1.67c-.3-.15-.76-.3-1.06-.45-.15.15.15-.6-.15-1.06"/></g><g id="g5246"><path id="path5248" class="cls-16" d="M22.58,39.33s1.82.76.91,3c0,0,.15-2.57-.91-3"/></g><g id="g5250"><path id="path5252" class="cls-16" d="M14,36.42s-1.67.75-2,1.36a3.29,3.29,0,0,0-.45,1.66s.3-1.66,1.21-2a2.94,2.94,0,0,1,.9-.45l.31-.6"/></g><g id="g5254"><path id="path5256" class="cls-16" d="M21.37,40.27l.15.46c.15.45.15.75.3,1.21a5.58,5.58,0,0,1-.6,3.48,4.4,4.4,0,0,0-.31,1.36A4.11,4.11,0,0,1,22,44.66c.76-.61,2.27-3.93.15-5.14a5.45,5.45,0,0,1,.76,2.87A3.75,3.75,0,0,1,22,44.51s1.67-2.57,0-4.84l-.6.6"/></g><g id="g5258"><path id="path5260" class="cls-16" d="M15,41.26a2.59,2.59,0,0,0-.6,2.27c.3,1.36.45,1.81.3,2.27,0,0,.3-.31.15-2.12a8.61,8.61,0,0,1,.3,1.51,3.47,3.47,0,0,0,0-1.81c0-.31,0-.76.31-.91L15,41.26"/></g><g id="g5262"><path id="path5264" class="cls-16" d="M14,40.13a3.32,3.32,0,0,0-.76,2.27c.15,1.21,1.06,2.11,1.21,2.72,0,0-1.51-3.33-.15-4.24,0-.15-.3-.6-.3-.75"/></g><g id="g5266"><path id="path5268" class="cls-16" d="M21.62,35.48s2.72,1.06,3.48,2.27,1,1.82,1.51,2c0,0-.61,0-1.36-.91a4.61,4.61,0,0,0-2.42-2.12l-1.21-.3v-.91"/></g><g id="g5270"><path id="path5272" class="cls-16" d="M23,35.42a3.67,3.67,0,0,1,2,1.36l.31.91s-1.21-1.36-1.82-1.52L23,35.42"/></g><g id="g5274"><path id="path5276" class="cls-23" d="M19.13,37.9a1.24,1.24,0,0,1,.9,1.36,4.81,4.81,0,0,1-.45.75s-.6,2.73-1.06,2.88-.75-.76-.91-.91c-.3,0-.75.76-1.05.6s-.46-.3-.61-1.36a5.32,5.32,0,0,0-.3-1.36s-1.06-1.21-.3-1.81,2.26.15,2.26.15l1.52-.3"/></g><g id="g5278"><path id="path5280" class="cls-16" d="M16.1,44.66a3,3,0,0,0,.3,1.82,4.65,4.65,0,0,1,.91,1.66v-.3s.45-2.42,1.05-3a2.66,2.66,0,0,0-.75,1.37s-1.51-.76-1.51-1.52"/></g><g id="g5282"><path id="path5284" class="cls-24" d="M18.8,38.53a9.43,9.43,0,0,1,6.51-.3s-2.42-.91-6.51.3"/></g><g id="g5286"><path id="path5288" class="cls-24" d="M19,38.87a9.06,9.06,0,0,1,5.9,1.36A9.73,9.73,0,0,0,19,38.87"/></g><g id="g5290"><path id="path5292" class="cls-24" d="M18.87,39.24s3,.76,4.38,2.73a12.36,12.36,0,0,0-4.38-2.73"/></g><g id="g5294"><path id="path5296" class="cls-24" d="M16.37,38.36a8.66,8.66,0,0,0-5.45-1.21,10.34,10.34,0,0,1,5.45,1.21"/></g><g id="g5298"><path id="path5300" class="cls-24" d="M16.11,38.56s-1.67-.91-4.54.3a10.11,10.11,0,0,1,4.54-.3"/></g><g id="g5302"><path id="path5304" class="cls-24" d="M16.37,38.83s-2.87.61-3.93,2.42a8.53,8.53,0,0,1,3.93-2.42"/></g><g id="g5306"><path id="path5308" class="cls-25" d="M15.86,39.72s1.21-.91,2-.76A5.59,5.59,0,0,1,19.34,40a4.14,4.14,0,0,1-.75,2.57s-.15.31-.61-.15c-.6-.3-.45-.3-1.06,0s-.6-.6-.6-.6a4.75,4.75,0,0,1-.3-1.51,3.39,3.39,0,0,1-.16-.61"/></g><g id="g5310"><path id="path5312" class="cls-26" d="M16.13,39.79a1.08,1.08,0,0,1,.61-.46,1.76,1.76,0,0,0,0,.91s-.15.15-.61-.45"/></g><g id="g5314"><path id="path5316" class="cls-26" d="M18.92,39.93a.67.67,0,0,1-.6.46,3.18,3.18,0,0,0,.15-.76s.15-.15.45.3"/></g><g id="g5318"><path id="path5320" class="cls-26" d="M16.8,41.36v.45l.15.46H16.5V42l.15-.3.15-.3h0"/></g><g id="g5322"><path id="path5324" class="cls-26" d="M18.09,42.32s.45.31.45,0a1.85,1.85,0,0,0-.3-.75l-.15.75"/></g><g id="g5326"><path id="path5328" class="cls-27" d="M17.13,42a.8.8,0,0,1,.76.15,3.4,3.4,0,0,0,.15-.6c0-.15.15-.15.3-.15l.15.3A1.43,1.43,0,0,0,18,40.64c-.45-.15-.45.15-.45.15s-.46-.3-.76.45a1.17,1.17,0,0,0,.15.46l.15.3"/></g><g id="g5330"><path id="path5332" class="cls-28" d="M17,35.69a.62.62,0,0,0,.76-.45s.15.6-.76.91v-.46"/></g><g id="g5334"><path id="path5336" class="cls-28" d="M18.94,35.64l-.31.75s-.75-.3-.75-.6a1.57,1.57,0,0,1,.15-.61s.3.91.91.46"/></g><g id="g5338"><path id="path5340" class="cls-25" d="M15.32,35.31a4,4,0,0,1,.76-.3,2.27,2.27,0,0,1,1.06.76l-.15.3v.3a7,7,0,0,0-.76,1.51c0,.46.3-.15.76.16.3.3.3.45.45.45s.3.15.45-.15.46-.46.61-.3c.15,0,.6.15.45-.46a5.63,5.63,0,0,1-.3-1.36c0-.45.3-.6.3-.76.15,0,.76-.45.91-.45a3.38,3.38,0,0,1,.76.45l-.16.16s-.3-.16-.45,0a1.17,1.17,0,0,1-.45.6c-.31.15-.46,0-.76-.15a1.55,1.55,0,0,0-.15.6c0,.31.3,1.06.3,1.21s-.3.31-.6.31a.78.78,0,0,0-.61.3c-.15.15-.45.45-.91-.15h-.45c-.15,0-.61-.3-.45-.61a5.49,5.49,0,0,1,.75-1.36v-.45a1,1,0,0,1-.6.3c-.31,0-.61-.45-.61-.76l-.3.16.15-.31"/></g><g id="g5342"><path id="path5344" class="cls-29" d="M16,35.32l.3.15s-.15.3,0,.3.3-.15.3-.15l.15.15a.32.32,0,0,1-.45.15.46.46,0,0,1-.3-.6"/></g><g id="g5346"><path id="path5348" class="cls-29" d="M19.1,35.9h0c.16-.15.31.15.46,0s.15-.3.15-.3h.15a.74.74,0,0,1-.15.45.38.38,0,0,1-.61-.15"/></g><g id="g5350"><path id="path5352" class="cls-30" d="M16.43,37.63s2-.15,2.42.31h0s0,.3-.45.15c-.3-.15-.45.3-.6.45a.29.29,0,0,1-.46,0c-.15-.15-.3-.45-.6-.45h-.31s-.15,0-.15-.31l.15-.15h0"/></g><g id="g5354"><path id="path5356" class="cls-26" d="M16,35.32l.3.15v.15h-.15l-.15-.3"/></g><g id="g5358"><path id="path5360" class="cls-26" d="M19.1,35.9h.31l-.15.15-.16-.15"/></g><g id="g5362"><path id="path5364" class="cls-28" d="M17.1,36.35s.15-.3.46,0a.94.94,0,0,0-.61.3l.15-.3"/></g><g id="g5366"><path id="path5368" class="cls-21" d="M15.41,34.11s.76-1.51,1.51-.9c.15,0-1.06.15-1.51.9"/></g><g id="g5370"><path id="path5372" class="cls-21" d="M16.25,35.1a4.54,4.54,0,0,1,.9.61l.46-.15h-.46a.79.79,0,0,0-.9-.46"/></g><g id="g5374"><path id="path5376" class="cls-17" d="M15.94,32.12l-.6-.3h.6a1.47,1.47,0,0,0-2.12,0,4.33,4.33,0,0,1,2.12.3"/></g><g id="g5378"><path id="path5380" class="cls-17" d="M20.46,32.27l.75.3s.91-.45,1.36-.15c0-.15-.6-1.06-2.11-.15"/></g><g id="g5382"><path id="path5384" class="cls-21" d="M36.49,45s.3,2.87,1.51,4.08c0,0-1.06-2.57-.91-3.18l-.6-.9"/></g><g id="g5386"><path id="path5388" class="cls-21" d="M46.93,33.84s3.63.91,3.18,4.09c0,0,1.36-3.63-3.18-4.09"/></g><g id="g5390"><path id="path5392" class="cls-14" d="M7.26,34a.42.42,0,0,0,.6,0A.92.92,0,0,0,7,32.9.81.81,0,0,1,7.26,34"/></g><g id="g5394"><path id="path5396" d="M7.43,33.92h.3a1.15,1.15,0,0,0-.15-.61l-.3-.3a1,1,0,0,1,.15.91m.15.3a.66.66,0,0,1-.45-.15v-.31c.15-.3-.15-.9-.15-.9l-.16-.31h.31a.83.83,0,0,1,.75.46.76.76,0,0,1,.15.75H8l-.45.46"/></g><g id="g5398"><path id="path5400" class="cls-14" d="M5.92,33.86a.53.53,0,0,0,.6-.15s.15-.45-.91-.76a1.92,1.92,0,0,1,.31.91"/></g><g id="g5402"><path id="path5404" d="M6,33.75l.31-.15c0-.15-.15-.3-.46-.46,0,.16.15.46.15.61m0,.3h-.3V33.9a1.2,1.2,0,0,0-.3-.76l-.3-.3.45.15c1.06.31.91.76.91.91h0c-.15,0-.3.15-.46.15"/></g><g id="g5406"><path id="path5408" class="cls-14" d="M4.26,35s.6,0,.45-.46c0,0-.6-.75-1.06-.3,0,0,.61.3.61.76"/></g><g id="g5410"><path id="path5412" d="M3.94,34.25a2.14,2.14,0,0,1,.45.61.32.32,0,0,0,.3-.3c-.15-.16-.45-.46-.75-.31m.15.91h0a1.06,1.06,0,0,0-.46-.76l-.15-.15.15-.15A.57.57,0,0,1,4.09,34c.45,0,.75.45.9.45H5c0,.46-.45.61-.9.76h0"/></g><g id="g5414"><path id="path5416" class="cls-14" d="M4.21,36.38a1,1,0,0,1-.3.61,1.22,1.22,0,0,1-.61-1.06,2.51,2.51,0,0,0,.91.45"/></g><g id="g5418"><path id="path5420" d="M3.47,36.2a.67.67,0,0,0,.45.6l.15-.3a.78.78,0,0,1-.6-.3m.45.9h0a1.25,1.25,0,0,1-.76-1.21v-.3l.15.15c.16.15.46.46.76.46h.15v.15c.15,0,.15.45-.3.75h0"/></g><g id="g5422"><path id="path5424" class="cls-14" d="M13.06,58.78s.9-.46.75.45a2,2,0,0,0-.75.61s-.31-.31,0-1.06"/></g><g id="g5426"><path id="path5428" class="cls-6" d="M13.15,58.87a1.69,1.69,0,0,0-.15.76c.15-.15.46-.3.61-.45v-.31h-.46M13,60.08l-.15-.15a1.35,1.35,0,0,1,0-1.21h0a1.51,1.51,0,0,1,.45-.15c.16,0,.31,0,.31.15.15.15.15.3.15.61v.15h0a3.38,3.38,0,0,0-.76.45v.15"/></g><g id="g5430"><path id="path5432" class="cls-14" d="M14.56,60s0-.76-.6-.6a.77.77,0,0,0,0,1.05c-.15,0,.15-.45.6-.45"/></g><g id="g5434"><path id="path5436" class="cls-6" d="M14,59.55c0,.15-.15.31-.15.61a.78.78,0,0,1,.61-.3l-.15-.31H14m-.15,1.21-.15-.15c-.3-.6-.15-1.06.15-1.21h0a.46.46,0,0,1,.61.15.93.93,0,0,1,.15.61v.15h-.15a.67.67,0,0,0-.61.45h0"/></g><g id="g5438"><path id="path5440" class="cls-14" d="M15.8,60.19s0-.75-.61-.6a.8.8,0,0,0,0,1.06c-.15,0,.15-.46.61-.46"/></g><g id="g5442"><path id="path5444" class="cls-6" d="M15.23,59.78c0,.15-.15.3-.15.6a.78.78,0,0,1,.6-.3l-.15-.3h-.3M15.08,61l-.15-.15c-.31-.61-.15-1.06.15-1.21h0c.3-.16.45,0,.6.15a.9.9,0,0,1,.15.6v.15h-.15a.67.67,0,0,0-.6.46h0"/></g><g id="g5446"><path id="path5448" class="cls-14" d="M16.38,59.84a.53.53,0,0,1,.76.15,1.68,1.68,0,0,0-.61.75s-.3,0-.15-.9"/></g><g id="g5450"><path id="path5452" class="cls-6" d="M16.49,59.92a.72.72,0,0,0,0,.6h0a1.92,1.92,0,0,1,.46-.6l-.31-.15-.15.15M16.64,61h0c-.15,0-.3,0-.3-.15s-.15-.46,0-.91h0a.66.66,0,0,1,.45-.15.61.61,0,0,1,.61.3v.15h-.15c0-.15-.46.15-.61.76h0"/></g><g id="g5454"><path id="path5456" class="cls-14" d="M38.62,59s.91,0,.46.61c0,0-.61,0-.76.45,0-.15-.3-.45.3-1.06"/></g><g id="g5458"><path id="path5460" class="cls-6" d="M38.67,59.18c-.3.3-.3.45-.3.6l.6-.3v-.15c0-.15-.15-.15-.3-.15m-.46,1.06v-.15s-.3-.46.46-1.21h0c.15,0,.6,0,.6.3a.55.55,0,0,1-.15.45h0a1.58,1.58,0,0,0-.75.3l-.16.31"/></g><g id="g5462"><path id="path5464" class="cls-14" d="M39.47,59.42s.61,0,.61.45c0,0-.61.15-.76.46a1.1,1.1,0,0,1,.15-.91"/></g><g id="g5466"><path id="path5468" class="cls-6" d="M39.55,59.55a1.13,1.13,0,0,0-.15.6,1.14,1.14,0,0,1,.6-.3c-.15-.3-.3-.3-.45-.3m-.15,1.06-.15-.16s-.3-.3.15-1.05h0a.78.78,0,0,1,.76.6v.15H40c-.3.15-.6.3-.6.46h0"/></g><g id="g5470"><path id="path5472" class="cls-14" d="M40.71,59.72s.61-.3.61.45a.8.8,0,0,0-.76.61c0-.15-.3-.15.15-1.06"/></g><g id="g5474"><path id="path5476" class="cls-6" d="M40.81,59.82a1.13,1.13,0,0,0-.15.6.6.6,0,0,1,.6-.3c0-.3-.15-.3-.3-.3h-.15m-.15.9h0l-.15-.15c-.16-.15,0-.45.15-1.06h0a.52.52,0,0,1,.3-.15c.15,0,.45,0,.45.61v.15h-.15c.15.15-.3.15-.6.6h0"/></g><g id="g5478"><path id="path5480" class="cls-14" d="M42.15,59.8s.75-.45.75.31a.67.67,0,0,0-.45.6c0-.15-.46-.15-.3-.91"/></g><g id="g5482"><path id="path5484" class="cls-6" d="M42.27,59.88v.61q.23-.45.45-.45a.15.15,0,0,0-.15-.16h-.3m.3.91h0l-.3-.15c-.31-.15-.31-.45-.31-.91h0a1.61,1.61,0,0,1,.46-.15c.15,0,.45,0,.45.46v.15h-.15c.3,0-.15.15-.15.6h0"/></g><g id="g5486"><path id="path5488" class="cls-6" d="M21.35,33.23a3.47,3.47,0,0,1,1.21.76l.3.3.15.16.16.15.15.15.15.15.15.15.15.15.15.46-.45-.31c-.3-.15-.46-.3-.76-.45l-.45-.15H22v-.3l.6.6c.15.15.3.45.45.61l.16.3.15.15.15.15.15.15v.15l-.15-.15-.15-.15c-.15-.15-.31-.45-.46-.6l-.6-.61a2,2,0,0,0-.61-.45l-.3-.31h.91c.15,0,.3.16.45.16a3.38,3.38,0,0,1,.76.45l-.3.15V34.9L23,34.75l-.15-.15-.15-.15L22.26,34a6.46,6.46,0,0,0-.91-.76"/></g><g id="g5490"><path id="path5492" class="cls-6" d="M19.27,58.43l-.3-.15a27.56,27.56,0,0,1,3.63-7.41l.3.15a30.68,30.68,0,0,0-3.63,7.41"/></g><g id="g5494"><path id="path5496" class="cls-6" d="M33.77,36.79v-.31l10.59-2.26v.3L33.77,36.79"/></g><g id="g5498"><path id="path5500" d="M16.14,60.1h0v-.45l.15-.3.15-.16.15-.15.46-.15.3-.15a.52.52,0,0,0,.3-.15l-.3.3-.3.15-.31.15-.15.31-.3.3a.46.46,0,0,0-.15.3"/></g></g></g></g></svg>