<svg xmlns="http://www.w3.org/2000/svg" viewBox="0 0 424.05 107.02"><defs><style>.cls-1{fill:#593594;}.cls-2,.cls-3{font-size:52.56px;font-family:FuturaStd-ExtraBoldOblique, Futura Std;font-weight:800;font-style:oblique;}.cls-2{fill:#0b0e15;}.cls-3{fill:#748c90;}</style></defs><g id="Layer_2" data-name="Layer 2"><g id="Layer_1-2" data-name="Layer 1"><path class="cls-1" d="M36.42,72.78c0-2.38-.07-4.77,0-7.16.07-1.79,1-3.17,2.91-3.09s2.35,1.54,2.35,3.22q0,11.69,0,23.38c0,1.77-.43,3.35-2.53,3.29-1.93,0-2.67-1.45-2.66-3.29,0-4.57,0-9.15,0-14-2,1.15-2.05,3.16-3.39,4.32-2.35,2-4.84,3.26-8,2.49-2.91-.72-5.87-1.27-8.52-2.85a13.15,13.15,0,0,0-4.66-1.82c-2-.31-3.35-1.22-3.08-3.73.26-2.33-.92-4.5-1.72-6.62A11.53,11.53,0,0,1,8.23,56.24c1-1.64.7-2.2-1-2.8C2.44,51.78-.72,46.1.14,41a16.92,16.92,0,0,0,0-7.36c-.37-1.38.41-2.13,1.26-2.95,2.1-2,4.32-4,6.22-6.15A9.26,9.26,0,0,1,17.84,21.4c1.93.54,2.89.36,2.82-2.12a10,10,0,0,1,7.42-9.81A31.49,31.49,0,0,0,36.76,5c1.33-.91,2.37-1.14,3.75.07,2.38,2.09,5.52,2.81,8.41,3.8a11.86,11.86,0,0,1,8.44,9.93c.38,2.21,1.22,2.58,3.39,2.13,3.59-.74,7,.14,9.22,3.26A33.85,33.85,0,0,0,77.43,32c.78.58,1.43,1.27.79,2.2-1.46,2.14-1.24,4.56-1.35,6.93-.24,5.55-1.77,10.26-7.66,12.3-.6.21-1.68.43-.81,1.38,3.66,4,2.3,8.43,1,12.77-.76,2.53-1.91,5-2.14,7.63a1.53,1.53,0,0,1-1.22,1.54c-4.38.91-8,3.68-12.36,4.76a9.16,9.16,0,0,1-7.18-.67c-2.13-1.23-3.46-2.86-3.32-5.55.24-4.42.29-8.85.4-13.27a18,18,0,0,0-.07-2.65c-.37-2.7-2.27-4.38-4.6-4.15-2.85.27-4.22,2.09-4,5.17C35.21,64.55,35.29,68.71,36.42,72.78ZM30.81,39.62c1.89.05,3.36-.34,4.31-2.11a4.08,4.08,0,0,0-.59-4.9c-2.33-2.67-5.55-4-8.86-5-1-.29-1.75,0-1.45,1.37a44.43,44.43,0,0,0,2.39,7.79A4,4,0,0,0,30.81,39.62ZM53.38,29.49c.33-2.11-.64-2.35-2.25-1.5-2.1,1.12-4.21,2.22-6.21,3.5-1.84,1.18-2.91,2.93-2.25,5.19.55,1.87,1.69,3.31,3.87,3.45,2.45.15,4-1.25,5-3.24C52.76,34.58,53,32,53.38,29.49Zm.46,23.82a16.47,16.47,0,0,0,5.79-.89c1.08-.3,1.71-.84.75-1.79C58.15,48.39,56,46,53.2,44.47c-2.1-1.1-4.91,0-6.08,2.26a4.31,4.31,0,0,0,2,5.62A7.75,7.75,0,0,0,53.84,53.31Zm-29,.72a22.61,22.61,0,0,0,3.46-.76,4.51,4.51,0,0,0,2.56-5.68,4.66,4.66,0,0,0-6-2.17A28.66,28.66,0,0,0,18,50.26c-1.51,1.47-1.07,2.25.72,2.64C20.76,53.35,22.86,53.67,24.88,54Z"/><text class="cls-2" transform="translate(86.84 43.62)">KOHINOOR</text><text class="cls-3" transform="translate(79.43 91.88)">CHEMICAL</text></g></g></svg>