<svg xmlns="http://www.w3.org/2000/svg" viewBox="0 0 545.15 304.89"><defs><style>.cls-1{fill:#164b8f;}.cls-2{fill:#4eb1b3;}</style></defs><g id="Layer_2" data-name="Layer 2"><g id="Layer_1-2" data-name="Layer 1"><path class="cls-1" d="M0,81.7c12.13,0,23.92,0,35.72,0,2.38,0,2.6,1.74,3.08,3.22q12.09,37.7,24.11,75.41Q76.44,202.56,90,244.82A4.54,4.54,0,0,0,92.13,248c2.91-9.12,5.8-18.08,8.64-27.05Q122,154.13,143,87.28c1.36-4.34,3.23-5.94,7.91-5.73,9.64.43,19.32.33,29,0,4.38-.13,4.45,1.18,3.23,4.82q-20,59.84-39.77,119.77c-5.42,16.4-10.72,32.84-16.09,49.25-5,15.24-10.07,30.44-14.91,45.72-.86,2.72-2,3.59-4.84,3.54-9.83-.18-19.67-.24-29.49.05-3.49.1-4.9-1.07-6-4.28q-17.69-54-35.62-108Q18.68,138.71.9,85C.59,84,.38,83.09,0,81.7Z"/><path class="cls-1" d="M308,222c0-26,.08-52-.09-78,0-3.71.84-4.83,4.64-4.72,9.49.28,19,.18,28.48,0,2.81,0,4.23.26,4.07,3.67-.14,3-1.66,7.46,1,8.74,2.15,1,4-3.59,6.31-5.27,12.94-9.28,27.43-12.34,43.05-10.53A78.79,78.79,0,0,1,413,139.82c16.68,6,22.4,19.65,25,35.54a94.28,94.28,0,0,1,1,14.93c0,36.49-.09,73,.1,109.46,0,4.32-1.25,5.25-5.28,5.1-8-.32-16-.34-24,0-4,.17-4.94-1.1-4.93-5,.1-36.16-.43-72.32.11-108.46.29-20-9.8-27.42-29-21.72a60.14,60.14,0,0,0-25.9,14.91,13.81,13.81,0,0,0-4.38,10.59c.17,34.82,0,69.64.2,104.46,0,4.11-.92,5.36-5.13,5.21-9.49-.33-19-.28-28.48,0-3.59.1-4.35-1-4.33-4.44.14-26.16.08-52.31.08-78.47Z"/><path class="cls-2" d="M208,192.52c0-35.66,0-71.31-.09-107,0-4,1.19-5,5.08-5q46,.23,92,0c4.39,0,5.27,1.51,5.16,5.45-.25,9.15-.31,18.33,0,27.48.12,4.09-1,5.4-5.21,5.34-17.66-.25-35.33.09-53-.24-5-.1-6,1.45-5.94,6.13.17,58,0,116,.21,174,0,4.71-1,6.33-6,6.09-9-.44-18-.38-27,0-4.24.17-5.33-1.1-5.31-5.24C208.06,263.83,208,228.18,208,192.52Z"/><path class="cls-2" d="M538.65,193.13c0,35.15-.08,70.29.1,105.43,0,4.65-.93,6.46-6,6.22-8.8-.42-17.66-.36-26.47,0-4.5.18-5.94-1.1-5.91-5.74.2-29.81.12-59.62.12-89.44,0-28.64-.09-57.29.08-85.94,0-4-1.07-5-5-5-18.15.2-36.31,0-54.46.15-3.43,0-4.63-.86-4.55-4.44.23-9.82.19-19.65,0-29.48-.06-3.24,1-4.29,4.24-4.28q46.72.15,93.44,0c3.61,0,4.42,1.25,4.41,4.64C538.61,121.18,538.65,157.16,538.65,193.13Z"/><path class="cls-2" d="M250,26.08a24.76,24.76,0,0,1-25.22,24.71,25.09,25.09,0,0,1-25-25C199.79,11.67,211.1.06,224.83,0,238.93-.06,250.06,11.48,250,26.08Z"/><path class="cls-2" d="M545.15,25.49a25.13,25.13,0,0,1-25.34,25.27c-13.42,0-24.88-11.32-24.92-24.64C494.83,11.76,505.81.41,519.74.41,534,.42,545.15,11.39,545.15,25.49Z"/></g></g></svg>