<?xml version="1.0" encoding="utf-8"?>
<!-- Generator: Adobe Illustrator 24.3.0, SVG Export Plug-In . SVG Version: 6.00 Build 0)  -->
<svg version="1.1" id="Layer_1" xmlns="http://www.w3.org/2000/svg" xmlns:xlink="http://www.w3.org/1999/xlink" x="0px" y="0px"
	 viewBox="0 0 424 107" style="enable-background:new 0 0 424 107;" xml:space="preserve">
<style type="text/css">
	.st0{fill:#593594;}
	.st1{fill:#FFFFFF;}
	.st2{font-family:'FuturaStd-Bold';}
	.st3{font-size:52.56px;}
	.st4{fill:#748C90;}
</style>
<g id="Layer_2_1_">
	<g id="Layer_1-2">
		<path class="st0" d="M36.4,72.8c0-2.4-0.1-4.8,0-7.2c0.1-1.8,1-3.2,2.9-3.1s2.3,1.5,2.3,3.2c0,7.8,0,15.6,0,23.4
			c0,1.8-0.4,3.3-2.5,3.3c-1.9,0-2.7-1.4-2.7-3.3c0-4.6,0-9.2,0-14c-2,1.2-2,3.2-3.4,4.3c-2.4,2-4.8,3.3-8,2.5
			c-2.9-0.7-5.9-1.3-8.5-2.8c-1.4-0.9-3-1.5-4.7-1.8c-2-0.3-3.4-1.2-3.1-3.7c0.3-2.3-0.9-4.5-1.7-6.6c-1.4-3.5-1-7.5,1.1-10.7
			c1-1.6,0.7-2.2-1-2.8C2.4,51.8-0.7,46.1,0.1,41c0.5-2.4,0.5-4.9,0-7.4c-0.4-1.4,0.4-2.1,1.3-3c2.1-2,4.3-4,6.2-6.1
			c2.4-3.1,6.5-4.4,10.2-3.1c1.9,0.5,2.9,0.4,2.8-2.1c-0.1-4.6,3-8.6,7.4-9.8c3.1-1,6-2.5,8.7-4.5c1.3-0.9,2.4-1.1,3.8,0.1
			c2.4,2.1,5.5,2.8,8.4,3.8c4.5,1.3,7.9,5.2,8.4,9.9c0.4,2.2,1.2,2.6,3.4,2.1c3.6-0.7,7,0.1,9.2,3.3c2.1,3,4.6,5.6,7.5,7.8
			c0.8,0.6,1.4,1.3,0.8,2.2c-1.5,2.1-1.2,4.6-1.3,6.9c-0.2,5.5-1.8,10.3-7.7,12.3c-0.6,0.2-1.7,0.4-0.8,1.4c3.7,4,2.3,8.4,1,12.8
			c-0.8,2.5-1.9,5-2.1,7.6c0,0.7-0.5,1.4-1.2,1.5c-4.4,0.9-8,3.7-12.4,4.8c-2.4,0.8-5,0.5-7.2-0.7c-2.1-1.2-3.5-2.9-3.3-5.6
			c0.2-4.4,0.3-8.8,0.4-13.3c0-0.9,0-1.8-0.1-2.7c-0.4-2.7-2.3-4.4-4.6-4.2c-2.8,0.3-4.2,2.1-4,5.2C35.2,64.6,35.3,68.7,36.4,72.8z
			 M30.8,39.6c1.9,0,3.4-0.3,4.3-2.1c0.9-1.6,0.7-3.6-0.6-4.9c-2.3-2.7-5.5-4-8.9-5c-1-0.3-1.8,0-1.5,1.4c0.6,2.7,1.4,5.3,2.4,7.8
			C27.2,38.6,28.9,39.8,30.8,39.6z M53.4,29.5c0.3-2.1-0.6-2.4-2.2-1.5c-2.1,1.1-4.2,2.2-6.2,3.5c-1.8,1.2-2.9,2.9-2.2,5.2
			c0.5,1.9,1.7,3.3,3.9,3.5c2.5,0.2,4-1.2,5-3.2C52.8,34.6,53,32,53.4,29.5z M53.8,53.3c2,0.1,3.9-0.2,5.8-0.9
			c1.1-0.3,1.7-0.8,0.8-1.8c-2.2-2.2-4.4-4.6-7.2-6.2c-2.1-1.1-4.9,0-6.1,2.3c-0.9,2.1-0.1,4.6,2,5.6C50.6,53.2,52.2,53.5,53.8,53.3
			z M24.8,54c1.2-0.2,2.3-0.4,3.5-0.8c2.2-0.9,3.4-3.4,2.6-5.7c-1.1-2.2-3.7-3.1-6-2.2c-2.5,1.3-4.8,2.9-6.9,4.8
			c-1.5,1.5-1.1,2.2,0.7,2.6C20.8,53.3,22.9,53.7,24.8,54L24.8,54z"/>
		<text transform="matrix(1 0 0 1 86.84 43.62)" class="st1 st2 st3">KOHINOOR</text>
		<text transform="matrix(1 0 0 1 79.43 91.88)" class="st4 st2 st3">CHEMICAL</text>
	</g>
</g>
</svg>
