<svg xmlns="http://www.w3.org/2000/svg" viewBox="0 0 219.38 75"><defs><style>.cls-1{fill:#fff;}.cls-2{fill:#006;}</style></defs><g id="Layer_2" data-name="Layer 2"><g id="svg4403"><path class="cls-1" d="M23.89,52.56c-4.11,0-6.08-3.15-5.05-6.81C21,38.18,34.65,27,44,27c6.8,0,6.28,6.08,2.3,11.27l-2.21,2.44c-7.9,7.75-15.22,11.89-20.17,11.89M57.21,1.5c-11.9,0-25,7.28-33.23,14.18l.65.94c12.77-9,30.5-14.78,35.38-6,2.58,4.6-1.8,13.91-8,21.26,1.47-3.25.5-9.48-8.1-9.48-14.3,0-42.44,18.93-42.44,38.31,0,7.77,5.39,12.83,14.26,12.83C39.51,73.5,71.71,34.58,71.71,15c0-6.9-4-13.53-14.5-13.53"/><path class="cls-1" d="M23.89,51.06c-2.65-.06-4.3-1.92-3.69-4.58a14.82,14.82,0,0,1,3.17-5.74,38.15,38.15,0,0,1,13-10.24c2.35-1.13,11-4.44,11.33.51.24,4.37-4.21,8.27-7.14,10.91a49.22,49.22,0,0,1-9.35,6.82,16.08,16.08,0,0,1-7.31,2.32c-1.93,0-1.93,3,0,3,6.67-.08,13-5,17.74-9.1,4-3.44,9.35-8.29,9-14.07-.37-7.12-9.37-5.68-13.86-3.85A39.83,39.83,0,0,0,21.05,38.86c-1.92,2.41-3.85,5.32-4,8.51-.15,4,3,6.6,6.82,6.69,1.93,0,1.93-3,0-3Z"/><path class="cls-1" d="M57.21,0C44.64.09,32.37,6.75,22.92,14.62a1.5,1.5,0,0,0-.23,1.81l.65.95a1.52,1.52,0,0,0,2.05.53c6.81-4.74,15-9.19,23.43-10,2.76-.28,6-.22,8.3,1.56,2.53,2,2.4,5,1.61,7.83-1.41,5-4.46,9.56-7.74,13.51l2.35,1.82A8.24,8.24,0,0,0,53,24.94c-2-3.18-5.89-4.16-9.43-4.08-6.65.16-13.26,3.2-18.88,6.51a61.36,61.36,0,0,0-18,15.8C2.3,49-1.08,56.52.32,63.89c1.53,8,9.43,11.57,17,11.06,6.64-.45,12.94-3.33,18.48-6.86A87.68,87.68,0,0,0,53.38,53,99.52,99.52,0,0,0,66.92,34.44c3-5.39,5.61-11.32,6.2-17.52C73.78,10,70.55,3.32,63.72,1a20.52,20.52,0,0,0-6.51-1,1.5,1.5,0,0,0,0,3c3.62,0,7.36.85,9.95,3.54a11.83,11.83,0,0,1,3,7.81c.2,5.16-1.78,10.35-4,14.92A93.66,93.66,0,0,1,39.93,61.5a52.48,52.48,0,0,1-16.58,9.25C17.69,72.5,10.21,73,5.78,68.35,1.2,63.5,3,55.64,5.68,50.33c3.22-6.37,8.38-11.71,14-16A54.74,54.74,0,0,1,37.6,24.88c4.12-1.18,12.77-2.53,13.49,3.62a5.5,5.5,0,0,1-.34,2.58c-.61,1.41,1.17,3.25,2.36,1.82A44.69,44.69,0,0,0,61.2,19.39c1.21-3.45,1.77-7.48-.57-10.59-4.9-6.51-15.22-3.89-21.58-1.52a68.48,68.48,0,0,0-15.17,8l2.05.54-.65-.94L25,16.74A68.39,68.39,0,0,1,39.79,7.39,42.33,42.33,0,0,1,57.21,3a1.5,1.5,0,0,0,0-3Z"/><path class="cls-1" d="M87.78,52.56a4.07,4.07,0,0,1-3.25-1.36,4,4,0,0,1-.62-3.58,7.64,7.64,0,0,1,7.2-5.24h7.64L96,52.56Zm22-30.51a11.18,11.18,0,0,0-8.25-3.89H87.6L85.24,27h13.1l1.26.13a3,3,0,0,1,1.86,1,3.87,3.87,0,0,1,.23,3.31l-.62,2.32H92.82c-7.1,0-17,5.09-19.21,13.32a11.14,11.14,0,0,0,2,10.27c2.11,2.6,6.11,4,10.42,4h17.35l4.55-17,3.36-12.5c1.31-4.92-.11-8-1.55-9.79"/><path class="cls-1" d="M87.78,51.06a2.68,2.68,0,0,1-2.09-.79,2.73,2.73,0,0,1-.21-2.64,5.94,5.94,0,0,1,3.69-3.41,9.05,9.05,0,0,1,3-.34h6.61L97.3,42,94.57,52.17,96,51.06H87.78a1.5,1.5,0,0,0,0,3H96A1.53,1.53,0,0,0,97.47,53l2.73-10.18a1.52,1.52,0,0,0-1.45-1.9H91.63a10,10,0,0,0-5,1.21,8.37,8.37,0,0,0-4.34,6,5.28,5.28,0,0,0,1.3,4.29,5.75,5.75,0,0,0,4.18,1.65C89.71,54.1,89.71,51.1,87.78,51.06Z"/><path class="cls-1" d="M110.8,21a12.63,12.63,0,0,0-9-4.33c-1.22,0-2.44,0-3.66,0H87.6a1.55,1.55,0,0,0-1.45,1.1L83.8,26.55a1.51,1.51,0,0,0,1.44,1.9H95.86a26.18,26.18,0,0,1,3.54.11c.51.07-.34-.17.14,0a1.49,1.49,0,0,1,.62.3c.51.54.24,1.5.08,2.13s-.41,1.54-.62,2.31l1.45-1.1c-2.74,0-5.47,0-8.21,0A23.77,23.77,0,0,0,79.25,37c-4.4,3.26-7.8,8.2-7.59,13.89a12.29,12.29,0,0,0,3.32,8,13.78,13.78,0,0,0,7.8,3.71c3.55.56,7.3.27,10.89.27a1.5,1.5,0,0,0,0-3h0a1.5,1.5,0,0,0,0,3h9.71a1.54,1.54,0,0,0,1.45-1.1q3.83-14.3,7.66-28.6c1.14-4.28,1.19-8.57-1.69-12.17-1.2-1.51-3.31.62-2.12,2.12,2.19,2.74,1.72,6.24.88,9.4l-2.4,8.91q-1.68,6.3-3.37,12.59l-1.86,7,1.45-1.1H93.67a1.5,1.5,0,0,0,0,3h0a1.5,1.5,0,0,0,0-3c-6.78,0-17,1.21-18.83-7.5-2.06-9.74,9.56-17,18-17.12,2.75,0,5.49,0,8.24,0a1.53,1.53,0,0,0,1.45-1.1c.68-2.55,1.91-6-.8-7.81-1.35-.9-3-.88-4.62-.88H85.24l1.45,1.9,2.36-8.79-1.45,1.1h9.84c1.33,0,2.66,0,4,0a9.7,9.7,0,0,1,7.24,3.45c1.25,1.47,3.37-.66,2.12-2.12Z"/><path class="cls-1" d="M205.13,18.16a16.72,16.72,0,0,0-10.08,3.22,13.9,13.9,0,0,0-5.39,8.19c-2,7.62,3.94,11.3,8.76,13.91,3.45,1.87,6.44,3.48,5.79,5.87-.46,1.72-1.21,3.22-5.45,3.22h-13l-2.35,8.79h14.35c3.85,0,7.4-.8,10.26-3s4.49-5.28,5.49-9a9.89,9.89,0,0,0-2-9.51c-1.91-2.14-4.66-3.62-7.09-4.93-3.11-1.68-6-3.25-5.53-5.17a3.89,3.89,0,0,1,4-2.77h12.61l2.36-8.79Z"/><path class="cls-1" d="M205.13,16.66c-6.19.07-12.57,3-15.49,8.73-2.55,5-2.64,10.68,1.45,14.83a25.53,25.53,0,0,0,5.83,4.15c1.24.69,2.51,1.33,3.7,2.09.76.48,2.22,1.29,2.18,2.35-.13,3-4.88,2.26-7,2.26h-10a1.52,1.52,0,0,0-1.45,1.1L182,61a1.52,1.52,0,0,0,1.45,1.9H194.5c5.48,0,11-.17,15.33-4,5.48-4.86,8-14.66,2.51-20.38-3-3.13-7.15-4.45-10.62-6.89-1.1-.78-1.88-1.58-.56-2.6a3.42,3.42,0,0,1,2.19-.51c4.05,0,8.11,0,12.17,0a1.52,1.52,0,0,0,1.45-1.1l2.35-8.79a1.51,1.51,0,0,0-1.44-1.9H205.13a1.5,1.5,0,0,0,0,3h12.75l-1.45-1.9-2.36,8.79,1.45-1.1H204.35c-2,0-4.09.08-5.61,1.68A4.21,4.21,0,0,0,197.5,31c.47,1.71,2.16,2.83,3.58,3.7,3.41,2.08,7.86,3.59,10.12,7.09s1.17,7.71-.56,11.07a12.45,12.45,0,0,1-8.72,6.6,28.41,28.41,0,0,1-6,.39H183.44l1.44,1.9L187.24,53l-1.45,1.1h8.69c3,0,7.28.63,9.64-1.54a5,5,0,0,0,1.29-5.48c-1.15-2.48-4.23-3.77-6.48-5-4-2.18-8.57-5.11-8.16-10.28.59-7.4,7.36-12,14.36-12.11A1.5,1.5,0,0,0,205.13,16.66Z"/><path class="cls-1" d="M129.88,18.16a16.75,16.75,0,0,0-10.09,3.22,14.05,14.05,0,0,0-5.4,8.19c-2,7.62,4,11.3,8.77,13.91,3.46,1.87,6.44,3.48,5.8,5.87-.46,1.72-1.21,3.22-5.46,3.22h-13l-2.36,8.79h14.35c3.86,0,7.41-.8,10.27-3s4.48-5.28,5.48-9a9.93,9.93,0,0,0-2-9.51c-1.92-2.14-4.68-3.62-7.11-4.93-3.1-1.68-6-3.25-5.51-5.17a3.86,3.86,0,0,1,4-2.77h12.61l2.36-8.79Z"/><path class="cls-1" d="M129.88,16.66c-6.2.07-12.57,3-15.49,8.73-2.56,5-2.65,10.68,1.45,14.83a25.69,25.69,0,0,0,5.82,4.15c1.24.69,2.51,1.33,3.71,2.09.76.48,2.21,1.29,2.17,2.35-.11,3-4.87,2.26-7,2.26h-10a1.52,1.52,0,0,0-1.45,1.1L106.73,61a1.52,1.52,0,0,0,1.45,1.9h11.06c5.48,0,11-.18,15.33-4,5.49-4.86,8-14.66,2.52-20.38-3-3.13-7.16-4.45-10.63-6.89-1.09-.78-1.87-1.59-.55-2.6a3.39,3.39,0,0,1,2.18-.51c4.06,0,8.11,0,12.17,0a1.54,1.54,0,0,0,1.45-1.1l2.36-8.79a1.52,1.52,0,0,0-1.45-1.9H129.88a1.5,1.5,0,0,0,0,3h12.74l-1.45-1.9-2.36,8.79,1.45-1.1H129.09c-2,0-4.08.08-5.6,1.68A4.21,4.21,0,0,0,122.25,31c.47,1.71,2.15,2.83,3.58,3.7,3.4,2.08,7.87,3.59,10.12,7.09s1.16,7.7-.56,11.07a12.47,12.47,0,0,1-8.72,6.6,28.51,28.51,0,0,1-6,.39H108.18l1.45,1.9L112,53l-1.44,1.1h8.68c3,0,7.28.63,9.65-1.54a5,5,0,0,0,1.29-5.48c-1.16-2.47-4.23-3.77-6.48-5-4-2.18-8.57-5.11-8.17-10.28.58-7.39,7.38-12,14.37-12.11A1.5,1.5,0,0,0,129.88,16.66Z"/><polygon class="cls-1" points="149.46 18.16 138.21 61.36 147.72 61.36 158.97 18.16 149.46 18.16"/><path class="cls-1" d="M148,17.76l-3.8,14.58L138.16,55.6,136.76,61a1.52,1.52,0,0,0,1.45,1.9h9.51a1.52,1.52,0,0,0,1.44-1.1L153,47.17,159,23.92l1.39-5.36a1.51,1.51,0,0,0-1.44-1.9h-9.51a1.5,1.5,0,0,0,0,3H159l-1.45-1.9-3.8,14.58L147.67,55.6,146.27,61l1.45-1.1h-9.51l1.44,1.9,3.8-14.59,6.06-23.25,1.4-5.36C151.4,16.69,148.5,15.89,148,17.76Z"/><path class="cls-1" d="M184.27,18.16c-16.75.06-25.51,11.21-28.29,21.6-3.3,12.32,3.26,21.6,15.25,21.6h8l2.35-8.79h-8c-4.49,0-10.66-3.53-8.17-12.81A17.82,17.82,0,0,1,182.47,27h5.1l2.36-8.79Z"/><path class="cls-1" d="M184.27,16.66a31.08,31.08,0,0,0-18.59,5.86,30.93,30.93,0,0,0-9.89,13.09c-2.14,5.27-3.1,11.49-1,16.93a16,16,0,0,0,11.8,9.84c4.1.86,8.51.48,12.67.48a1.53,1.53,0,0,0,1.44-1.1L183.07,53a1.52,1.52,0,0,0-1.45-1.9h-7.16a8.26,8.26,0,0,1-6.27-2.22c-2.85-3-2-7.94-.37-11.28a16.54,16.54,0,0,1,10.09-8.45c3.13-.92,6.44-.67,9.66-.67a1.52,1.52,0,0,0,1.45-1.1l2.35-8.79a1.51,1.51,0,0,0-1.44-1.9h-5.66l1.5,1.5h0a1.5,1.5,0,0,0-3,0h0a1.52,1.52,0,0,0,1.5,1.5h5.66l-1.45-1.9-2.36,8.79,1.45-1.1c-3.25,0-6.58-.21-9.77.59a19.6,19.6,0,0,0-12,9c-2.39,4.06-3.58,9.77-1.15,14.09a10.35,10.35,0,0,0,8.93,5c2.67,0,5.35,0,8,0l-1.45-1.9L177.82,61l1.45-1.1c-2.91,0-5.82.08-8.72,0-4.87-.15-9.64-2.22-12.11-6.59-2.59-4.55-2.07-10.12-.47-14.91a28.21,28.21,0,0,1,8-12.2c5.06-4.48,11.65-6.43,18.32-6.49A1.5,1.5,0,0,0,184.27,16.66Z"/><path class="cls-2" d="M23.89,52.56c-4.11,0-6.08-3.15-5.05-6.81C21,38.18,34.65,27,44,27c6.8,0,6.28,6.08,2.3,11.27l-2.21,2.44c-7.9,7.75-15.22,11.89-20.17,11.89M57.21,1.5c-11.9,0-25,7.28-33.23,14.18l.65.94c12.77-9,30.5-14.78,35.38-6,2.58,4.6-1.8,13.91-8,21.26,1.47-3.25.5-9.48-8.1-9.48-14.3,0-42.44,18.93-42.44,38.31,0,7.77,5.39,12.83,14.26,12.83C39.51,73.5,71.71,34.58,71.71,15c0-6.9-4-13.53-14.5-13.53"/><path class="cls-2" d="M87.78,52.56a4.07,4.07,0,0,1-3.25-1.36,4,4,0,0,1-.62-3.58,7.64,7.64,0,0,1,7.2-5.24h7.64L96,52.56Zm22-30.51a11.18,11.18,0,0,0-8.25-3.89H87.6L85.24,27h13.1l1.26.13a3,3,0,0,1,1.86,1,3.87,3.87,0,0,1,.23,3.31l-.62,2.32H92.82c-7.1,0-17,5.09-19.21,13.32a11.14,11.14,0,0,0,2,10.27c2.11,2.6,6.11,4,10.42,4h17.35l4.55-17,3.36-12.5c1.31-4.92-.11-8-1.55-9.79"/><path class="cls-2" d="M205.13,18.16a16.72,16.72,0,0,0-10.08,3.22,13.9,13.9,0,0,0-5.39,8.19c-2,7.62,3.94,11.3,8.76,13.91,3.45,1.87,6.44,3.48,5.79,5.87-.46,1.72-1.21,3.22-5.45,3.22h-13l-2.35,8.79h14.35c3.85,0,7.4-.8,10.26-3s4.49-5.28,5.49-9a9.89,9.89,0,0,0-2-9.51c-1.91-2.14-4.66-3.62-7.09-4.93-3.11-1.68-6-3.25-5.53-5.17a3.89,3.89,0,0,1,4-2.77h12.61l2.36-8.79Z"/><path class="cls-2" d="M129.88,18.16a16.75,16.75,0,0,0-10.09,3.22,14.05,14.05,0,0,0-5.4,8.19c-2,7.62,4,11.3,8.77,13.91,3.46,1.87,6.44,3.48,5.8,5.87-.46,1.72-1.21,3.22-5.46,3.22h-13l-2.36,8.79h14.35c3.86,0,7.41-.8,10.27-3s4.48-5.28,5.48-9a9.93,9.93,0,0,0-2-9.51c-1.92-2.14-4.68-3.62-7.11-4.93-3.1-1.68-6-3.25-5.51-5.17a3.86,3.86,0,0,1,4-2.77h12.61l2.36-8.79Z"/><polygon class="cls-2" points="149.46 18.16 138.21 61.36 147.72 61.36 158.97 18.16 149.46 18.16"/><path class="cls-2" d="M184.27,18.16c-16.75.06-25.51,11.21-28.29,21.6-3.3,12.32,3.26,21.6,15.25,21.6h8l2.35-8.79h-8c-4.49,0-10.66-3.53-8.17-12.81A17.82,17.82,0,0,1,182.47,27h5.1l2.36-8.79Z"/></g></g></svg>