<svg xmlns="http://www.w3.org/2000/svg" viewBox="0 0 224.26 75.02"><defs><style>.cls-1{fill:#fff;}.cls-2{fill:#e12a27;}</style></defs><g id="Layer_2" data-name="Layer 2"><g id="svg4403"><g id="path1"><path class="cls-1" d="M44.46,48.2l-4.52-8.37Q37.6,44,35.25,48.2ZM14.36,67.11l41.06,0c-1-.71-2.33-3.47-2.33-3.47H14.65c-4-.27-4.48-6.25.55-6.12l34.52,0-2-3.57H14.13C5.85,54.36,5.56,66.43,14.36,67.11Zm57-9.86L50.52,19.66a10.75,10.75,0,0,1-1.63,4.13L68.24,58.66c1.66,3.59-3.33,7-5.65,2.5L45.51,30.08l-2.07,3.66L60.05,63.81C64.38,70.88,75.05,65.29,71.37,57.25Zm-37-46.43-21.09,38a10,10,0,0,1,4.15-.51L37.26,12.75c2.17-3.31,7.67-.84,5.09,3.49l-17.94,32h4.07L45.93,17C49.66,9.61,39.3,3.46,34.41,10.82ZM77.09,56c4,8.2-2.55,17-9.51,17.05H12.88C3.59,73.06-.75,62.73,2.59,56.53L30.39,6.62C35-.45,45.61,0,49.87,6.7L76.24,54.45Z"/><path class="cls-1" d="M45.76,47.44q-2.26-4.19-4.52-8.37a1.52,1.52,0,0,0-2.59,0L34,47.44a1.52,1.52,0,0,0,1.29,2.26h9.21a1.5,1.5,0,0,0,0-3H35.25L36.55,49l4.69-8.36H38.65Q40.9,44.78,43.17,49a1.51,1.51,0,0,0,2,.54A1.53,1.53,0,0,0,45.76,47.44Z"/><path class="cls-1" d="M14.36,68.61l36,0h5c1.18,0,2.14-1.73,1.06-2.56a8.52,8.52,0,0,1-2.09-3.17,1.49,1.49,0,0,0-1.3-.74H18.61a32.7,32.7,0,0,1-4,0c-1.14-.13-2.07-1.46-1.39-2.42.51-.74,1.46-.7,2.27-.7H49.72A1.51,1.51,0,0,0,51,56.81l-2-3.56a1.51,1.51,0,0,0-1.3-.75H15.44c-3.39,0-6.7,1-8.27,4.34a8.45,8.45,0,0,0,.13,7.5,8.54,8.54,0,0,0,7.06,4.27c1.93.18,1.91-2.82,0-3-3.87-.36-6.4-4.4-4.26-7.9,1.39-2.25,3.85-2.21,6.16-2.21H47.74l-1.29-.74,2,3.57,1.3-2.26-34.13,0a6.5,6.5,0,0,0-3.44.72,4.38,4.38,0,0,0-1.92,4.95c.75,2.71,3.2,3.45,5.67,3.45H53.09l-1.29-.74a10.23,10.23,0,0,0,2.56,3.77l1.06-2.56-36,0h-5A1.5,1.5,0,0,0,14.36,68.61Z"/><path class="cls-1" d="M72.67,56.49l-7-12.66L54.42,23.6l-2.61-4.7a1.51,1.51,0,0,0-2.79.76A7.81,7.81,0,0,1,47.6,23a1.5,1.5,0,0,0,0,1.52l17,30.67c.76,1.37,1.65,2.73,2.31,4.16.09.2-.14-.65.07.21a1.81,1.81,0,0,1,0,1.15,1.62,1.62,0,0,1-1.43,1.06c-1,0-1.42-1-1.82-1.73q-4.23-7.65-8.42-15.31L46.8,29.33a1.51,1.51,0,0,0-2.59,0l-1.38,2.44c-.5.89-1.14,1.68-.68,2.73.34.76.82,1.49,1.23,2.22l6.53,11.83,6.92,12.51c1.58,2.88,2.92,6,6.31,7.11A8.17,8.17,0,0,0,71.43,66c2.51-2.66,2.65-6.26,1.24-9.49-.77-1.76-3.36-.24-2.59,1.52a5.28,5.28,0,0,1-.85,5.93,5.14,5.14,0,0,1-5.18,1.37c-2.24-.74-3.16-3.09-4.21-5l-11.63-21L44.74,33v1.51l2.06-3.65H44.21L61.06,61.48a6.77,6.77,0,0,0,2.15,2.62,4.4,4.4,0,0,0,5.93-1.2c1.63-2.22.71-4.41-.44-6.49l-9.93-17.9L50.19,23v1.52A10.88,10.88,0,0,0,52,19.66l-2.8.76,7,12.67L67.47,53.31,70.08,58C71,59.69,73.61,58.18,72.67,56.49Z"/><path class="cls-1" d="M33.11,10.06,26,22.93,14.64,43.33,12,48a1.52,1.52,0,0,0,2.06,2.06,7.32,7.32,0,0,1,3.39-.31,1.46,1.46,0,0,0,1.29-.74l17.5-31.42a45.79,45.79,0,0,1,2.29-4.11c.67-.95,2.45-1.2,2.92.11.28.79-.27,1.6-.65,2.28L32,31.68,23.12,47.44a1.52,1.52,0,0,0,1.29,2.26h4.07a1.52,1.52,0,0,0,1.3-.75l10-18,6-10.76c1.52-2.7,3.09-5.43,2-8.67A8.24,8.24,0,0,0,41.5,6.13c-3.46-.57-6.45,1.13-8.39,3.93-1.1,1.59,1.5,3.09,2.59,1.52a5.25,5.25,0,0,1,6-2.33,5,5,0,0,1,3.55,4.31c.15,2.17-1.46,4.27-2.47,6.08L30.65,41.24l-3.47,6.2,1.3-.74H24.41L25.71,49l7.93-14.13,9.69-17.25a8,8,0,0,0,1.17-3.06A4.38,4.38,0,0,0,41,9.82c-2.93-.6-4.58,1.42-5.81,3.64L25,31.61l-5.57,10c-1,1.85-2.31,3.71-3.15,5.65a2.34,2.34,0,0,1-.15.27l1.3-.74a10,10,0,0,0-4.91.72l2,2.05,7.15-12.87,11.32-20.4,2.62-4.71C36.64,9.89,34.05,8.37,33.11,10.06Z"/><path class="cls-1" d="M75.79,56.8a10.49,10.49,0,0,1-.63,10.07,9.53,9.53,0,0,1-7.42,4.72c-1.61,0-3.23,0-4.84,0H13.11a9.62,9.62,0,0,1-7-2.78C3.18,65.88,1.93,60.93,4,57.17c2.83-5.26,5.81-10.43,8.71-15.65l13.71-24.6L30.8,9C32.24,6.38,34.05,4.3,37,3.42c4.26-1.26,9.38.3,11.67,4.26,1.09,1.89,2.11,3.83,3.17,5.74L65,37.28Q69.88,46,74.71,54.8c.37.66.72,1.33,1.08,2,.91,1.7,3.5.19,2.59-1.51-2.62-4.9-5.34-9.73-8-14.59L56.23,15.11l-4.42-8A13.26,13.26,0,0,0,43.7.47C38.28-1,32,1,29.05,5.94c-1,1.7-1.95,3.5-2.92,5.24L12.59,35.49,1.77,54.93A12.85,12.85,0,0,0,.52,65a13,13,0,0,0,12.6,9.58c6-.07,12,0,18,0H67.21c5.38,0,9.85-3.77,11.74-8.68a13.4,13.4,0,0,0-.57-10.62C77.56,53.54,75,55.06,75.79,56.8Z"/></g><g id="path2"><path class="cls-1" d="M138.9,35.44h11c4.16,0,4.88,3.27,4.84,5.15-.06,3.29-2.12,4-4.1,4.52,1.42,2.06,3.72,4.9,5.22,6.9H150l-5.79-9.28s2.82,0,4.16,0c2.28,0,2.21-3.84,0-3.83h-4.49s0,13.12,0,13.12H138.9V35.44m-47,25.4h2.76c3.42,0,5.63,1.39,5.63,4.25,0,3.14-1.83,4.35-5.63,4.41H91.88ZM87.27,73h8.26c5.84,0,9.42-2.77,9.42-7.91,0-4.86-3.53-7.78-9.42-7.78H87.27Zm19.49,0h14.95V69.53H111.29v-3h9.31V63.35h-9.31V60.59h10.16V57.3H106.76Zm16.85.06H128V63.26H128l7,9.86h5.12V57.3h-4.22v9.75h-.52l-6.65-9.75h-5.11Zm70.73-3.28c-3.3,0-4.56-2.41-4.56-4.83s1.26-4.83,4.56-4.83,4.57,2.42,4.57,4.83-1.27,4.83-4.57,4.83M184.66,65c0,4.72,3.5,8.48,9.68,8.48S204,69.73,204,65s-3.5-8.47-9.69-8.47-9.68,3.76-9.68,8.47Zm-41.2,8h4.36V63.19h.05l7,9.86H160V57.23h-4.22V67h-.52l-6.64-9.75h-5.12Zm19.75.12h4.72V57.24h-4.72Zm7.14-.59a15.88,15.88,0,0,0,5.28.69c1.9-.08,5.56-.27,7.08-2.65a4.81,4.81,0,0,0,.71-2.65c0-5.81-8.38-4.06-8.38-6.66,0-1.41,2-1.5,3.18-1.5a10.47,10.47,0,0,1,3.93.73l.3-3.32a16.67,16.67,0,0,0-4.56-.59c-3.56,0-7.72,1.06-7.72,4.93,0,5.85,8.37,4,8.37,7a1.24,1.24,0,0,1-.16.66c-.47.85-1.86.89-2.75.91A11.29,11.29,0,0,1,170.76,69Zm35.9.47h4.36V63.19h0l7,9.86h5.12V57.23h-4.23V67H218l-6.64-9.75h-5.12ZM96.58,39.76l2.22,4.91H94.45Zm-10,12.1h4.57l1.68-3.63h7.53l1.68,3.63h4.86L99.42,35.4H94.11ZM121.72,35.4h-5l-4.44,11.47L107.5,35.4h-5l7.15,16.46h5Q118.2,43.63,121.72,35.4Zm51.64,0h-5.78l-3.9,6.69-3.9-6.69H154l7.13,10.33v6.13h5.1V45.73ZM122.28,52h14.89V48.3H126.8V45.16h9.26V41.84H126.8V39h10.11V35.5H122.28Z"/><path class="cls-1" d="M138.9,36.94h8.25c1,0,2,0,3,0A3.11,3.11,0,0,1,152.55,38c.17.21-.09-.13.06.08l.17.28c.1.19.16.34.17.35s.11.33.16.51.13.73.1.46a4.17,4.17,0,0,1-.42,2.72,4.15,4.15,0,0,1-2.54,1.26,1.51,1.51,0,0,0-.9,2.2c1.65,2.37,3.49,4.6,5.22,6.91l1.3-2.26H150l1.3.74L145.46,42l-1.3,2.26h2.12a10.49,10.49,0,0,0,2.91-.14,3.49,3.49,0,0,0,2-4.72c-.67-1.61-2.11-2-3.7-2h-3.72a1.52,1.52,0,0,0-1.5,1.5c0,2.21,0,4.43,0,6.64,0,1.5,0,3,0,4.49a8.69,8.69,0,0,0,.06,2.39l1.45-1.9H138.9l1.5,1.5V35.44a1.5,1.5,0,0,0-3,0V52a1.52,1.52,0,0,0,1.5,1.5h4.88a1.52,1.52,0,0,0,1.45-1.9c.17.53,0,.45,0,.2s0-.32,0-.48v-1.5c0-1.49,0-3,0-4.47,0-2.16,0-4.31,0-6.47l-1.5,1.5h4.57s0,0,0,0,.12.14.14.37c0-.33,0,.14,0,.16,0-.3,0,.13,0,.16s-.08.09,0,.09c-.24,0,.07.06-.11,0h-.26c-1.3,0-2.6,0-3.9,0a1.51,1.51,0,0,0-1.29,2.25l3.9,6.27c.6,1,1.18,1.94,1.8,2.88.74,1.11,2,.88,3.12.88h4.18a1.51,1.51,0,0,0,1.29-2.26c-1.73-2.31-3.57-4.53-5.22-6.9l-.9,2.2A8,8,0,0,0,154.41,45a5.4,5.4,0,0,0,1.78-3.63,6.81,6.81,0,0,0-2.06-6,7.79,7.79,0,0,0-5.24-1.41h-10a1.5,1.5,0,0,0,0,3Z"/><path class="cls-1" d="M91.88,62.34c1,0,2,0,3,0l.56,0c.08,0,.67.08.26,0a7.88,7.88,0,0,1,1,.2l.41.13s.34.09.1,0,0,0,0,0l.39.2c.09.06.28.25.39.26,0,0-.27-.23-.09-.06l.13.12c.1.1.18.21.28.3s-.21-.31,0-.05l.1.15c.06.09.12.34.21.4s-.12-.35,0-.1l.06.18c0,.14.07.28.1.42s0,.21,0,.05v-.1c0,.07,0,.14,0,.21a4.86,4.86,0,0,1,0,.54c0,.14,0,.28,0,.42a1.11,1.11,0,0,0,0,.19c-.06-.12,0-.3,0-.11s-.15.54-.23.82.18-.34,0-.09c0,0,0,.09-.08.14s-.11.18-.17.28.06-.11.1-.12-.1.12-.13.15-.2.18-.29.28.32-.21.08-.06l-.14.1-.29.17-.22.11c.2-.11,0,0,0,0l-.27.09a9,9,0,0,1-1,.23H96l-.2,0-.61,0c-1.11.06-2.23,0-3.34,0l1.5,1.5V60.84a1.5,1.5,0,0,0-3,0V69.5a1.52,1.52,0,0,0,1.5,1.5c3.07,0,7.53.39,9.22-2.89a6.57,6.57,0,0,0,.44-4.73,5.25,5.25,0,0,0-3-3.29c-2.12-.92-4.44-.75-6.69-.75a1.5,1.5,0,0,0,0,3Z"/><path class="cls-1" d="M87.27,74.52h7.31c3.38,0,7-.42,9.46-3a9.65,9.65,0,0,0,1.09-11.35C103,56.84,99,55.83,95.24,55.83h-8a1.52,1.52,0,0,0-1.5,1.5V73a1.5,1.5,0,0,0,3,0V57.33l-1.5,1.5h6.66c2.63,0,5.6-.06,7.68,1.81a6.57,6.57,0,0,1,.74,8.3c-1.74,2.34-4.92,2.58-7.6,2.58H87.27A1.5,1.5,0,0,0,87.27,74.52Z"/><path class="cls-1" d="M106.76,74.56h14.95a1.52,1.52,0,0,0,1.5-1.5V69.53a1.52,1.52,0,0,0-1.5-1.5H111.29l1.5,1.5v-3l-1.5,1.5h9.31a1.52,1.52,0,0,0,1.5-1.5V63.35a1.52,1.52,0,0,0-1.5-1.5h-9.31l1.5,1.5V60.59l-1.5,1.5h10.16a1.52,1.52,0,0,0,1.5-1.5V57.3a1.52,1.52,0,0,0-1.5-1.5H106.76a1.52,1.52,0,0,0-1.5,1.5V73.06a1.5,1.5,0,0,0,3,0V57.3l-1.5,1.5h14.69L120,57.3v3.29l1.5-1.5H111.29a1.52,1.52,0,0,0-1.5,1.5v2.76a1.52,1.52,0,0,0,1.5,1.5h9.31l-1.5-1.5v3.17l1.5-1.5h-9.31a1.52,1.52,0,0,0-1.5,1.5v3a1.52,1.52,0,0,0,1.5,1.5h10.42l-1.5-1.5v3.53l1.5-1.5H106.76A1.5,1.5,0,0,0,106.76,74.56Z"/><path class="cls-1" d="M123.61,74.62H128a1.52,1.52,0,0,0,1.5-1.5V63.26l-1.5,1.5H128l-1.3-.74L131,70l2.33,3.3.4.57c.55.75,1.24.74,2.06.74h4.35a1.52,1.52,0,0,0,1.5-1.5V57.3a1.52,1.52,0,0,0-1.5-1.5h-4.22a1.52,1.52,0,0,0-1.5,1.5v9.75l1.5-1.5h-.52l1.29.74-4.23-6.21-2.18-3.2a2,2,0,0,0-1.53-1.08c-1.68-.13-3.43,0-5.11,0a1.52,1.52,0,0,0-1.5,1.5V73.12a1.5,1.5,0,0,0,3,0V57.3l-1.5,1.5h5.11l-1.29-.74,3.73,5.48,2.28,3.34.57.84a2,2,0,0,0,1.88.83,1.52,1.52,0,0,0,1.5-1.5V57.3l-1.5,1.5h4.22l-1.5-1.5V73.12l1.5-1.5H135l1.3.74-3.73-5.26-2.4-3.4c-.55-.77-1.12-1.94-2.2-1.94a1.52,1.52,0,0,0-1.5,1.5v9.86l1.5-1.5h-4.35A1.5,1.5,0,0,0,123.61,74.62Z"/><path class="cls-1" d="M194.34,68.34h-.45c-.44,0,.26.06-.16,0a6.42,6.42,0,0,1-.63-.15c-.06,0-.43-.18-.1,0a3.18,3.18,0,0,1-.32-.16l-.2-.12-.18-.13,0,0-.39-.4c-.24-.26.16.27,0,0l-.18-.28c-.05-.08-.27-.61-.13-.23-.08-.22-.16-.45-.22-.68s-.12-.75-.07-.32c0-.19,0-.38-.05-.56s0-.46,0-.68a2.66,2.66,0,0,0,0-.28c0-.12,0-.08,0,.12,0-.08,0-.15,0-.22s.09-.4.15-.6l.09-.26c.11-.35-.15.28,0,0,.09-.16.17-.33.27-.48s.26-.34,0,0c.1-.11.19-.22.3-.32s.11-.1.16-.15c.25-.26-.26.15,0-.05s.38-.2.55-.31-.32.09,0,0l.36-.12.39-.08c.32-.06-.2,0,.16,0a6.76,6.76,0,0,1,.9,0l.29,0c-.34,0,.1,0,.14,0l.37.11s.39.14.17.05.14.07.15.08l.39.23c.29.18-.11-.15,0,0s.14.12.2.19a2.5,2.5,0,0,1,.22.24c.25.26-.15-.27,0,0,.1.16.2.31.28.47s.17.41,0,0c0,.1.08.21.11.31a4.77,4.77,0,0,1,.17.65s.07.38,0,.13,0,.11,0,.14a6.77,6.77,0,0,1,0,1.35c0-.41,0,0,0,0s0,.22-.08.33a1.68,1.68,0,0,1-.09.32c0,.08-.22.52-.05.16a4.51,4.51,0,0,1-.31.57c0,.07-.26.35,0,0l-.21.25-.24.23c-.2.19.22-.12-.1.07L196,68c-.07,0-.53.23-.18.1-.25.09-.49.15-.74.22-.41.11.29,0-.15,0q-.3,0-.6,0a1.5,1.5,0,0,0,0,3,6.22,6.22,0,0,0,4-1.37,5.76,5.76,0,0,0,1.81-3,7.08,7.08,0,0,0-1.52-6.72,6.47,6.47,0,0,0-7.76-.66,6.62,6.62,0,0,0-2.5,6.47,6.17,6.17,0,0,0,1.69,3.61,6.07,6.07,0,0,0,4.28,1.62,1.5,1.5,0,0,0,0-3Z"/><path class="cls-1" d="M183.16,65a9.81,9.81,0,0,0,7.08,9.4c4.28,1.32,9.89.57,12.93-3a10.05,10.05,0,0,0,.94-11.6c-2.54-4.1-7.67-5.3-12.19-4.61A10,10,0,0,0,183.16,65a1.52,1.52,0,0,0,1.5,1.5h0a1.5,1.5,0,0,0,0-3h0l1.5,1.5a6.74,6.74,0,0,1,5-6.54c3.24-1,7.49-.53,9.82,2.14a7,7,0,0,1,.54,8.06c-1.82,2.93-5.75,3.68-8.94,3.2-3.64-.54-6.37-3.08-6.42-6.86A1.5,1.5,0,0,0,183.16,65Z"/><path class="cls-1" d="M143.46,74.55h4.36a1.52,1.52,0,0,0,1.5-1.5V63.19l-1.5,1.5h.05l-1.3-.74,4.25,6,2.33,3.29.4.57a2.18,2.18,0,0,0,2.07.74H160a1.52,1.52,0,0,0,1.5-1.5V57.23a1.52,1.52,0,0,0-1.5-1.5h-4.22a1.52,1.52,0,0,0-1.5,1.5V67l1.5-1.5h-.52l1.29.74L152.28,60l-2.18-3.2a2,2,0,0,0-1.52-1.08c-1.69-.12-3.43,0-5.12,0a1.52,1.52,0,0,0-1.5,1.5V73.05a1.5,1.5,0,0,0,3,0V57.23l-1.5,1.5h5.12l-1.3-.74L151,63.47l2.28,3.35c.19.28.37.56.56.83a2,2,0,0,0,1.88.83,1.52,1.52,0,0,0,1.5-1.5V57.23l-1.5,1.5H160l-1.5-1.5V73.05l1.5-1.5h-5.11l1.29.74L152.42,67,150,63.64c-.55-.78-1.13-2-2.2-2a1.52,1.52,0,0,0-1.5,1.5v9.86l1.5-1.5h-4.36A1.5,1.5,0,0,0,143.46,74.55Z"/><path class="cls-1" d="M163.21,74.67h4.72a1.52,1.52,0,0,0,1.5-1.5V57.24a1.52,1.52,0,0,0-1.5-1.5h-4.72a1.52,1.52,0,0,0-1.5,1.5V73.17a1.5,1.5,0,0,0,3,0V57.24l-1.5,1.5h4.72l-1.5-1.5V73.17l1.5-1.5h-4.72A1.5,1.5,0,0,0,163.21,74.67Z"/><path class="cls-1" d="M170,74c5.09,1.5,14.62,1.41,15-5.77a5.68,5.68,0,0,0-3.32-5.52,15.14,15.14,0,0,0-2.84-1l-1.22-.32-.51-.16-.27-.09c-.29-.1.25.15,0,0l-.4-.23c.4.26.12.05.06,0,.11.07.18.3.06.06a.93.93,0,0,1,.1.34c0,.25-.29.21.22.07a8.67,8.67,0,0,1,5,.57c1,.39,1.82-.58,1.9-1.45l.3-3.32a1.51,1.51,0,0,0-1.1-1.44c-4.84-1.42-14.8-1-14.15,6.32A5.78,5.78,0,0,0,172.52,67a20.25,20.25,0,0,0,2.7.88l1.11.33.27.1c.22.08-.32-.16,0,0,.16.08.3.17.45.24s-.08-.15-.05,0,.29.14.09.07-.08,0,0,.06c-.16-.12-.07-.29,0,0,0-.12,0-.24,0-.23a7.54,7.54,0,0,0-.86.16,10.15,10.15,0,0,1-4.7-.84,1.52,1.52,0,0,0-2.25,1.3l-.41,3.55a1.5,1.5,0,1,0,3,0l.41-3.55L170,70.32a13.94,13.94,0,0,0,5.15,1.27c1.36,0,3,0,4.06-1a2.89,2.89,0,0,0,.36-3.59,4.36,4.36,0,0,0-2.28-1.54c-.8-.29-1.65-.48-2.46-.73a5.87,5.87,0,0,1-2.25-1c-.2-.15.25.23-.06-.06l-.2-.19c-.26-.24-.08,0-.27-.34a2.9,2.9,0,0,1-.35-1,2.87,2.87,0,0,1,1-2.68,7,7,0,0,1,3.67-1.22,15.35,15.35,0,0,1,5.73.47L181,57.22l-.3,3.32,1.9-1.44a12,12,0,0,0-5.24-.77c-1.44.12-3.08.55-3.61,2.07-.77,2.21,1.24,3.42,3,3.92.85.24,1.72.43,2.57.71a5.26,5.26,0,0,1,1.94,1.06,2.72,2.72,0,0,1,.65,2.3,3.12,3.12,0,0,1-2,2.65,11,11,0,0,1-4,.71,15.35,15.35,0,0,1-5.17-.62A1.5,1.5,0,0,0,170,74Z"/><path class="cls-1" d="M206.25,74.55h4.36a1.52,1.52,0,0,0,1.5-1.5V63.19l-1.5,1.5h0L209.37,64l4.24,6,2.33,3.29.4.57a2.18,2.18,0,0,0,2.07.74h4.35a1.52,1.52,0,0,0,1.5-1.5V57.23a1.52,1.52,0,0,0-1.5-1.5h-4.23a1.52,1.52,0,0,0-1.5,1.5V67l1.5-1.5H218l1.3.74L215.07,60l-2.18-3.2a2,2,0,0,0-1.52-1.08c-1.68-.12-3.43,0-5.12,0a1.52,1.52,0,0,0-1.5,1.5V73.05a1.5,1.5,0,0,0,3,0V57.23l-1.5,1.5h5.12l-1.3-.74,3.74,5.48,2.28,3.35c.19.28.37.56.57.83a2,2,0,0,0,1.87.83A1.52,1.52,0,0,0,220,67V57.23l-1.5,1.5h4.23l-1.5-1.5V73.05l1.5-1.5h-5.12l1.29.74L215.21,67l-2.4-3.39c-.55-.78-1.13-2-2.2-2a1.52,1.52,0,0,0-1.5,1.5v9.86l1.5-1.5h-4.36A1.5,1.5,0,0,0,206.25,74.55Z"/><path class="cls-1" d="M95.29,40.52l1.94,4.29.28.61,1.29-2.25H94.45l1.3,2.25,2.13-4.9A1.59,1.59,0,0,0,98,39.37a1.56,1.56,0,0,0-.69-.9,1.47,1.47,0,0,0-1.16-.15,1.44,1.44,0,0,0-.89.69l-2.13,4.9a1.53,1.53,0,0,0,0,1.51,1.49,1.49,0,0,0,1.29.75H98.8a1.52,1.52,0,0,0,1.3-.75,1.56,1.56,0,0,0,0-1.51l-1.94-4.29L97.88,39a1.52,1.52,0,0,0-.9-.69,1.5,1.5,0,0,0-1.84,1A1.65,1.65,0,0,0,95.29,40.52Z"/><path class="cls-1" d="M86.61,53.36h4.57a1.49,1.49,0,0,0,1.3-.75L94.15,49l-1.29.74h7.53L99.09,49l1.69,3.62a1.47,1.47,0,0,0,1.29.75h4.86a1.52,1.52,0,0,0,1.29-2.26l-6.57-14.41-.93-2a1.49,1.49,0,0,0-1.3-.74H94.11a1.48,1.48,0,0,0-1.29.74L86.25,49.06l-.93,2a1.54,1.54,0,0,0,.54,2,1.5,1.5,0,0,0,2-.54L94.48,38.2l.93-2-1.3.74h5.31l-1.29-.74,6.57,14.41.93,2,1.3-2.25h-4.86l1.3.74-1.69-3.63a1.47,1.47,0,0,0-1.29-.74H92.86a1.5,1.5,0,0,0-1.3.74L89.89,51.1l1.29-.74H86.61A1.5,1.5,0,0,0,86.61,53.36Z"/><path class="cls-1" d="M121.72,33.9h-5a1.55,1.55,0,0,0-1.44,1.1l-4.45,11.48h2.9L108.94,35a1.56,1.56,0,0,0-1.44-1.1h-5a1.52,1.52,0,0,0-1.29,2.26l6.25,14.39.89,2.06a1.49,1.49,0,0,0,1.3.75h5a1.48,1.48,0,0,0,1.3-.75L123,36.16a1.54,1.54,0,0,0-.53-2,1.52,1.52,0,0,0-2.06.53l-7,16.46,1.29-.74h-5l1.29.74-6.25-14.39-.89-2.07-1.3,2.26h5l-1.45-1.1,4.77,11.47a1.52,1.52,0,0,0,2.9,0l4.44-11.47-1.45,1.1h5A1.5,1.5,0,0,0,121.72,33.9Z"/><path class="cls-1" d="M173.36,33.9h-3.85c-1.1,0-2.53-.3-3.23.75-.39.57-.71,1.21-1.05,1.8l-2.85,4.88H165c-1.26-2.17-2.46-4.4-3.8-6.53-.74-1.17-2.12-.9-3.33-.9H154a1.51,1.51,0,0,0-1.3,2.26l7.13,10.32-.2-.75v6.13a1.52,1.52,0,0,0,1.5,1.5h5.1a1.52,1.52,0,0,0,1.5-1.5V45.73l-.2.75,7.13-10.32c1.1-1.59-1.5-3.1-2.59-1.52l-5.51,8c-.47.68-1,1.34-1.41,2a3.69,3.69,0,0,0-.42,2.22v5l1.5-1.5h-5.1l1.5,1.5v-4c0-1,.21-2.2-.33-3.05-1.58-2.55-3.42-5-5.13-7.43l-1.88-2.73L154,36.9h5.78l-1.29-.74,3.89,6.68a1.51,1.51,0,0,0,2.59,0l3.9-6.68-1.29.74h5.78A1.5,1.5,0,0,0,173.36,33.9Z"/><path class="cls-1" d="M122.28,53.5h14.89a1.52,1.52,0,0,0,1.5-1.5V48.3a1.52,1.52,0,0,0-1.5-1.5H126.8l1.5,1.5V45.16l-1.5,1.5h9.26a1.52,1.52,0,0,0,1.5-1.5V41.84a1.51,1.51,0,0,0-1.5-1.5H126.8l1.5,1.5V39l-1.5,1.5h10.11a1.52,1.52,0,0,0,1.5-1.5V35.5a1.52,1.52,0,0,0-1.5-1.5H122.28a1.52,1.52,0,0,0-1.5,1.5V52a1.5,1.5,0,0,0,3,0V35.5l-1.5,1.5h14.63l-1.5-1.5V39l1.5-1.5H126.8a1.52,1.52,0,0,0-1.5,1.5v2.89a1.52,1.52,0,0,0,1.5,1.5h9.26l-1.5-1.5v3.32l1.5-1.5H126.8a1.52,1.52,0,0,0-1.5,1.5V48.3a1.52,1.52,0,0,0,1.5,1.5h10.37l-1.5-1.5V52l1.5-1.5H122.28A1.5,1.5,0,0,0,122.28,53.5Z"/></g><path id="path1-2" data-name="path1" class="cls-2" d="M44.46,48.2l-4.52-8.37Q37.6,44,35.25,48.2ZM14.36,67.11l41.06,0c-1-.71-2.33-3.47-2.33-3.47H14.65c-4-.27-4.48-6.25.55-6.12l34.52,0-2-3.57H14.13C5.85,54.36,5.56,66.43,14.36,67.11Zm57-9.86L50.52,19.66a10.75,10.75,0,0,1-1.63,4.13L68.24,58.66c1.66,3.59-3.33,7-5.65,2.5L45.51,30.08l-2.07,3.66L60.05,63.81C64.38,70.88,75.05,65.29,71.37,57.25Zm-37-46.43-21.09,38a10,10,0,0,1,4.15-.51L37.26,12.75c2.17-3.31,7.67-.84,5.09,3.49l-17.94,32h4.07L45.93,17C49.66,9.61,39.3,3.46,34.41,10.82ZM77.09,56c4,8.2-2.55,17-9.51,17.05H12.88C3.59,73.06-.75,62.73,2.59,56.53L30.39,6.62C35-.45,45.61,0,49.87,6.7L76.24,54.45Z"/><path id="path2-2" data-name="path2" d="M138.9,35.44h11c4.16,0,4.88,3.27,4.84,5.15-.06,3.29-2.12,4-4.1,4.52,1.42,2.06,3.72,4.9,5.22,6.9H150l-5.79-9.28s2.82,0,4.16,0c2.28,0,2.21-3.84,0-3.83h-4.49s0,13.12,0,13.12H138.9V35.44m-47,25.4h2.76c3.42,0,5.63,1.39,5.63,4.25,0,3.14-1.83,4.35-5.63,4.41H91.88ZM87.27,73h8.26c5.84,0,9.42-2.77,9.42-7.91,0-4.86-3.53-7.78-9.42-7.78H87.27Zm19.49,0h14.95V69.53H111.29v-3h9.31V63.35h-9.31V60.59h10.16V57.3H106.76Zm16.85.06H128V63.26H128l7,9.86h5.12V57.3h-4.22v9.75h-.52l-6.65-9.75h-5.11Zm70.73-3.28c-3.3,0-4.56-2.41-4.56-4.83s1.26-4.83,4.56-4.83,4.57,2.42,4.57,4.83-1.27,4.83-4.57,4.83M184.66,65c0,4.72,3.5,8.48,9.68,8.48S204,69.73,204,65s-3.5-8.47-9.69-8.47-9.68,3.76-9.68,8.47Zm-41.2,8h4.36V63.19h.05l7,9.86H160V57.23h-4.22V67h-.52l-6.64-9.75h-5.12Zm19.75.12h4.72V57.24h-4.72Zm7.14-.59a15.88,15.88,0,0,0,5.28.69c1.9-.08,5.56-.27,7.08-2.65a4.81,4.81,0,0,0,.71-2.65c0-5.81-8.38-4.06-8.38-6.66,0-1.41,2-1.5,3.18-1.5a10.47,10.47,0,0,1,3.93.73l.3-3.32a16.67,16.67,0,0,0-4.56-.59c-3.56,0-7.72,1.06-7.72,4.93,0,5.85,8.37,4,8.37,7a1.24,1.24,0,0,1-.16.66c-.47.85-1.86.89-2.75.91A11.29,11.29,0,0,1,170.76,69Zm35.9.47h4.36V63.19h0l7,9.86h5.12V57.23h-4.23V67H218l-6.64-9.75h-5.12ZM96.58,39.76l2.22,4.91H94.45Zm-10,12.1h4.57l1.68-3.63h7.53l1.68,3.63h4.86L99.42,35.4H94.11ZM121.72,35.4h-5l-4.44,11.47L107.5,35.4h-5l7.15,16.46h5Q118.2,43.63,121.72,35.4Zm51.64,0h-5.78l-3.9,6.69-3.9-6.69H154l7.13,10.33v6.13h5.1V45.73ZM122.28,52h14.89V48.3H126.8V45.16h9.26V41.84H126.8V39h10.11V35.5H122.28Z"/></g></g></svg>