<svg xmlns="http://www.w3.org/2000/svg" viewBox="0 0 236.17 81.21"><defs><style>.cls-1{fill:#fff;stroke:#fff;stroke-miterlimit:10;stroke-width:3px;}.cls-2{fill:red;}</style></defs><g id="Layer_2" data-name="Layer 2"><g id="svg4403"><g id="Layer_1-2" data-name="Layer_1"><g id="_1910995475136" data-name=" 1910995475136"><path class="cls-1" d="M49.11,5.24c.41.11.82.23,1.22.36a5.71,5.71,0,0,1,3.91,6.61,11.78,11.78,0,0,1-3.77,6.55,5.23,5.23,0,0,1-2,1A1.92,1.92,0,0,1,46,18a5.36,5.36,0,0,1,4.25-5.7c.7-.12,1.45-.09,1.47-1.13S51.43,9.29,50.45,9a6.12,6.12,0,0,0-2.66-.09,19.73,19.73,0,0,0-8.47,4.27C26.9,23.27,17.56,35.52,12.78,50.94a22.23,22.23,0,0,0-.89,10.86c1,5.47,4.6,8.89,10.16,9.75a35.49,35.49,0,0,0,13.15-.84c7.46-1.65,14.88-3.51,22.34-5.16A67.72,67.72,0,0,1,74,63.76a31.28,31.28,0,0,1,17.94,5.81c2.53,1.82,5,3.77,7.4,5.71a5.7,5.7,0,0,1,1.53,2c-.48-.3-1-.59-1.46-.88a29.88,29.88,0,0,0-15.81-4.13c-4,.06-6.33,1.24-9.55,4.78a14.6,14.6,0,0,0-10.14-7,40.34,40.34,0,0,0-8.22-.62c-6.27.12-12.3,1.76-18.38,3.14C32.22,73.73,27.12,74.79,22,75.65a19.21,19.21,0,0,1-9.58-.88C6.21,72.59,2.78,68.09,1.75,61.66c-.06-.34-.17-.67-.25-1V55.44a2.16,2.16,0,0,0,.2-.51A42.77,42.77,0,0,1,5.39,41.3a69.41,69.41,0,0,1,17-22.9c5.15-4.71,10.68-8.88,17.3-11.34,2.19-.81,4.52-1.23,6.79-1.82h2.61Z"/><path class="cls-1" d="M166.78,46.8c0-2.35-1-3.5-2.64-3.28-2.28.31-4.92,3-5.13,5.26a5.61,5.61,0,0,0,3.93,5.56c.32.1,1,0,1.09-.21a16.51,16.51,0,0,0,2.75-7.33Zm-10.51,4.89c-2.88,3.92-5.77,7.86-7,12.69a7.56,7.56,0,0,0-.18,2.68,1.92,1.92,0,0,0,2.66,1.68,9.45,9.45,0,0,0,2.66-1.5,34.31,34.31,0,0,0,7.88-9.95.88.88,0,0,0,.05-.37,33.82,33.82,0,0,1-3.25-2.26,38,38,0,0,1-2.79-3ZM189.2,66.8c0,2,1.09,2.66,2.34,1.88a10.69,10.69,0,0,0,3-2.63c2.19-3,4.3-6,6.29-9.15,2.32-3.65,4.48-7.41,6.67-11.15.2-.35.34-1,.16-1.25A1.76,1.76,0,0,0,206.3,44a3.68,3.68,0,0,0-1.65.58,13.88,13.88,0,0,0-2.24,1.72,57.57,57.57,0,0,0-12.25,17.53,22.24,22.24,0,0,0-1,3ZM181.4,49c3.15-2.73,6.38-5.37,9.44-8.2A117.83,117.83,0,0,0,204.36,26.1c.8-1,1.89-.58,3.19-.81-.72.95-1.23,1.68-1.78,2.37C198,37.36,189.36,46.21,179,53.21a2,2,0,0,0-.78.84c-1.42,3.75-2.82,7.51-4.15,11.29a6.09,6.09,0,0,0-.14,2.34c.12,1.6,1.19,2.15,2.54,1.25a8.49,8.49,0,0,0,2.2-1.93c2.66-3.58,5.24-7.2,7.82-10.84,3.24-4.59,6.65-9,11.05-12.58a14.33,14.33,0,0,1,6.72-3.28,4.71,4.71,0,0,1,5,2.32c.12-.06.23-.07.25-.12.58-1.37,1.64-1.64,3-1.54,1.68.13,3.39,0,5.31,0-.32.56-.55,1-.8,1.4q-6.88,11.67-13.78,23.32a9.27,9.27,0,0,0-.86,1.8,4.43,4.43,0,0,0,0,1.36,3.66,3.66,0,0,0,1.31-.16,9.94,9.94,0,0,0,2.49-1.77c2.25-2.53,4.51-5.07,6.51-7.8a2.9,2.9,0,0,1,3.45-1.34c0,.07.06.16,0,.2-3.81,5.75-7.94,11.22-13.52,15.39a15.21,15.21,0,0,1-4.26,2.23c-3,1-4.89-.51-5-3.6,0-.47,0-.94,0-1.52a24,24,0,0,1-2.54,2.14,26.51,26.51,0,0,1-5.2,2.93c-3,1.06-5.54-.93-5.68-4.12,0-.75,0-1.49,0-2.18-.81.75-1.61,1.55-2.47,2.25a35.27,35.27,0,0,1-4.5,3.44c-3.94,2.25-7.57.06-7.64-4.47-.06-3.87,1.24-7.44,2.44-11,.27-.82.58-1.63.91-2.56-1.3.15-2.5.24-3.67.47-.29.06-.55.52-.73.85a43.69,43.69,0,0,1-11.47,13.84,26.13,26.13,0,0,1-5.11,3.15c-4.58,2-8.09-.68-7.68-5.69a25.5,25.5,0,0,1,3.05-10,45.82,45.82,0,0,1,14.92-17,16.47,16.47,0,0,1,5.38-2.3c3.59-.83,6,1.53,5.64,5.23a25.17,25.17,0,0,1-2.47,8.34l-.48,1.07c2.34.28,3.76-.43,4.72-2.39a125.63,125.63,0,0,1,25.46-35.62c3.55-3.43,7.13-6.85,11.55-9.15a13.51,13.51,0,0,1,4.79-1.49c2.34-.24,3.53,1.17,3,3.45A31.7,31.7,0,0,1,214,15c-.5,1.22-1.84.87-2.95,1.3.77-1.79,1.51-3.35,2.09-5a8,8,0,0,0,.14-2.15c-.73.19-1.64.15-2.15.59a109.25,109.25,0,0,0-8.71,7.79c-8.59,9-15.24,19.47-21.08,30.44-.12.23-.22.48-.32.72l.38.35Z"/><path class="cls-1" d="M52.69,29.57c.05-3.25-1.68-4.29-4.23-2.86a7.06,7.06,0,0,0-3.2,3.51,3.44,3.44,0,0,0,.85,4.22,13.58,13.58,0,0,0,3.41,1.76,1.13,1.13,0,0,0,1-.41,15.29,15.29,0,0,0,2.13-6.22ZM49,38.69c-2.73-1-5.22-2.12-6.71-4.88-1.31,1.93-2.55,3.65-3.68,5.44a24,24,0,0,0-3.57,8c-.27,1.33-.5,2.75.82,3.67s2.59.13,3.67-.64c4.18-3,6.77-7.26,9.47-11.63ZM80.82,49.32c0,2,.92,2.77,2.2,2a11,11,0,0,0,3-2.47c5.39-6.5,9.21-14,13.52-21.2a.83.83,0,0,0-.84-1.32,5.83,5.83,0,0,0-2.78,1.05,32.79,32.79,0,0,0-4.11,4.22C88,36.21,84.35,40.85,81.91,46.3c-.51,1.14-.85,2.35-1.09,3ZM53.49,36.23a15.23,15.23,0,0,0,2.94-1.38c2.34-1.79,4.56-3.74,6.87-5.58s4.49-3.59,6.87-5.19a8.42,8.42,0,0,1,5.54-1.32,4.67,4.67,0,0,1,4.48,5.51,11.12,11.12,0,0,1-3.38,6.49,4.28,4.28,0,0,1-1.7,1,2,2,0,0,1-2.63-2.34,5.54,5.54,0,0,1,4.46-4.61l1-.19c-.19-.68-.17-1.57-.59-1.87a2.46,2.46,0,0,0-2.07-.29,14.89,14.89,0,0,0-3.57,2.24A40.14,40.14,0,0,0,59.49,47.5a7.36,7.36,0,0,0-.24,3.13,2.82,2.82,0,0,0,3.9,2.45,16.64,16.64,0,0,0,4.49-2.5,55.69,55.69,0,0,0,9.81-10.7c3.4-4.51,6.8-9,11.14-12.69a26.3,26.3,0,0,1,4.87-3.31c2.7-1.39,4.91-2.05,7.8.8.43-1.27,1.44-1.21,2.49-1.18,1.8,0,3.6,0,5.58,0-.34.61-.57,1-.82,1.48q-6.89,11.46-13.75,22.92a7.14,7.14,0,0,0-.84,1.68,6.29,6.29,0,0,0,0,1.57c.54-.08,1.21,0,1.61-.27a21.9,21.9,0,0,0,3.38-2.76,69,69,0,0,0,5.28-6.06c1-1.31,2.07-1.43,3.67-1.15-1.15,1.51-2.18,2.93-3.28,4.31A57.19,57.19,0,0,1,94.37,55.75a18.16,18.16,0,0,1-3.66,2.14c-3.5,1.48-5.75,0-5.8-3.8,0-.18,0-.37,0-.71-.8.72-1.47,1.37-2.19,2a12.17,12.17,0,0,1-6.06,3c-3.3.42-5.17-1.33-4.89-4.64.1-1.29.37-2.56.58-4-1.52,1.33-2.92,2.64-4.4,3.84a21.94,21.94,0,0,1-8.62,4.78c-4.88,1.15-8.76-1.94-8.8-7,0-3.89,1.53-7.28,3.27-10.62l1.34-2.53c-1.93.34-3.53.54-4.63,2.49a43.4,43.4,0,0,1-11.68,14A25.47,25.47,0,0,1,33.1,58c-3.87,1.53-7.27-.9-7.48-5.05a18.61,18.61,0,0,1,2.07-9.13A47.3,47.3,0,0,1,43.37,25.24a13,13,0,0,1,6.53-2.55c3.28-.23,5.34,1.66,5.41,4.94a18.05,18.05,0,0,1-1.58,7.1c-.16.4-.33.79-.49,1.19.09.1.17.21.25.31Z"/><path class="cls-1" d="M162.75,10.89c-.54.29-.93.47-1.3.68a35,35,0,0,0-13.29,14.21A12.74,12.74,0,0,0,147,29.24a2,2,0,0,0,2.75,2.41,10.32,10.32,0,0,0,2.87-1.58,26.91,26.91,0,0,0,8.39-10.79c1.11-2.61,2-5.28,1.7-8.39ZM122.19,62c.43-1.82.75-3.66,1.32-5.43,1.58-5,3.8-9.62,8.09-12.93a15.17,15.17,0,0,1,7.32-3.38,4.71,4.71,0,0,1,5.63,4.36,14.56,14.56,0,0,1-.72,6.65c-3.23,9.78-9,17.56-18.17,22.52a15.49,15.49,0,0,1-9,1.93c-4.84-.49-8.24-3.83-9.28-8.9-1-4.89-.08-9.58,1.51-14.17,2.83-8.19,7.5-15.35,12.78-22.12,6.67-8.55,14.45-15.86,24.08-21,3.66-2,7.43-3.68,11.68-3.88a8.94,8.94,0,0,1,5.85,1.46,1.81,1.81,0,0,0,1.38.07,23.94,23.94,0,0,1,13.73-.93A25.1,25.1,0,0,1,184,8.43c4,2.11,7.81,4.42,11.87,6.74l-6.08,5.46c-1.63-1-3.67-2.18-5.64-3.47-3.57-2.34-7.05-4.8-11-6.39a11.52,11.52,0,0,0-7.71-.71c-.08,9.2-4.53,16-11.09,21.79a8.5,8.5,0,0,1-5.83,2.28,3.52,3.52,0,0,1-3.69-3.63c-.11-2.71,1-5.08,2.2-7.39,3-5.69,7.74-9.79,13-13.38L161,9l-.06-.4a11.62,11.62,0,0,0-3.33.37,42.78,42.78,0,0,0-7.24,3.67c-9.6,6.55-17.05,15.16-23.38,24.82C122.59,44.1,119,51.09,117.45,59a20.46,20.46,0,0,0-.34,5.63c.4,4.37,4,6.66,8.26,5.38a16.5,16.5,0,0,0,6.49-4.21c4.86-4.68,8.68-10,10.16-16.74a10.7,10.7,0,0,0,.17-3.39A1.73,1.73,0,0,0,139.67,44a10.33,10.33,0,0,0-3.39,2.22,17.88,17.88,0,0,0-4.05,8.05,2,2,0,0,1-1.18,1.46,27.15,27.15,0,0,0-7.52,5.46,5.1,5.1,0,0,0-.72,1.22l-.62-.43Z"/><path class="cls-1" d="M231.42,5.86c-5.88,11.26-19.91,20.92-32.49,18,1.79-2,3.5-3.92,5.24-5.82a.9.9,0,0,1,.63-.2c7.85.4,14.51-2.71,20.68-7.12,2.08-1.48,4-3.22,5.94-4.85Z"/><path class="cls-1" d="M121.52,23.51c-1.33,2.16-2.5,4.08-3.71,6a1,1,0,0,1-.75.41c-2.08,0-4.16,0-6.46,0,1.3-2.13,2.49-4.1,3.72-6a1,1,0,0,1,.69-.33c2.08,0,4.16,0,6.51,0Z"/></g></g><g id="Layer_1-3" data-name="Layer_1"><g id="_1910995475136-2" data-name=" 1910995475136"><path class="cls-2" d="M49.11,5.24c.41.11.82.23,1.22.36a5.71,5.71,0,0,1,3.91,6.61,11.78,11.78,0,0,1-3.77,6.55,5.23,5.23,0,0,1-2,1A1.92,1.92,0,0,1,46,18a5.36,5.36,0,0,1,4.25-5.7c.7-.12,1.45-.09,1.47-1.13S51.43,9.29,50.45,9a6.12,6.12,0,0,0-2.66-.09,19.73,19.73,0,0,0-8.47,4.27C26.9,23.27,17.56,35.52,12.78,50.94a22.23,22.23,0,0,0-.89,10.86c1,5.47,4.6,8.89,10.16,9.75a35.49,35.49,0,0,0,13.15-.84c7.46-1.65,14.88-3.51,22.34-5.16A67.72,67.72,0,0,1,74,63.76a31.28,31.28,0,0,1,17.94,5.81c2.53,1.82,5,3.77,7.4,5.71a5.7,5.7,0,0,1,1.53,2c-.48-.3-1-.59-1.46-.88a29.88,29.88,0,0,0-15.81-4.13c-4,.06-6.33,1.24-9.55,4.78a14.6,14.6,0,0,0-10.14-7,40.34,40.34,0,0,0-8.22-.62c-6.27.12-12.3,1.76-18.38,3.14C32.22,73.73,27.12,74.79,22,75.65a19.21,19.21,0,0,1-9.58-.88C6.21,72.59,2.78,68.09,1.75,61.66c-.06-.34-.17-.67-.25-1V55.44a2.16,2.16,0,0,0,.2-.51A42.77,42.77,0,0,1,5.39,41.3a69.41,69.41,0,0,1,17-22.9c5.15-4.71,10.68-8.88,17.3-11.34,2.19-.81,4.52-1.23,6.79-1.82h2.61Z"/><path class="cls-2" d="M166.78,46.8c0-2.35-1-3.5-2.64-3.28-2.28.31-4.92,3-5.13,5.26a5.61,5.61,0,0,0,3.93,5.56c.32.1,1,0,1.09-.21a16.51,16.51,0,0,0,2.75-7.33Zm-10.51,4.89c-2.88,3.92-5.77,7.86-7,12.69a7.56,7.56,0,0,0-.18,2.68,1.92,1.92,0,0,0,2.66,1.68,9.45,9.45,0,0,0,2.66-1.5,34.31,34.31,0,0,0,7.88-9.95.88.88,0,0,0,.05-.37,33.82,33.82,0,0,1-3.25-2.26,38,38,0,0,1-2.79-3ZM189.2,66.8c0,2,1.09,2.66,2.34,1.88a10.69,10.69,0,0,0,3-2.63c2.19-3,4.3-6,6.29-9.15,2.32-3.65,4.48-7.41,6.67-11.15.2-.35.34-1,.16-1.25A1.76,1.76,0,0,0,206.3,44a3.68,3.68,0,0,0-1.65.58,13.88,13.88,0,0,0-2.24,1.72,57.57,57.57,0,0,0-12.25,17.53,22.24,22.24,0,0,0-1,3ZM181.4,49c3.15-2.73,6.38-5.37,9.44-8.2A117.83,117.83,0,0,0,204.36,26.1c.8-1,1.89-.58,3.19-.81-.72.95-1.23,1.68-1.78,2.37C198,37.36,189.36,46.21,179,53.21a2,2,0,0,0-.78.84c-1.42,3.75-2.82,7.51-4.15,11.29a6.09,6.09,0,0,0-.14,2.34c.12,1.6,1.19,2.15,2.54,1.25a8.49,8.49,0,0,0,2.2-1.93c2.66-3.58,5.24-7.2,7.82-10.84,3.24-4.59,6.65-9,11.05-12.58a14.33,14.33,0,0,1,6.72-3.28,4.71,4.71,0,0,1,5,2.32c.12-.06.23-.07.25-.12.58-1.37,1.64-1.64,3-1.54,1.68.13,3.39,0,5.31,0-.32.56-.55,1-.8,1.4q-6.88,11.67-13.78,23.32a9.27,9.27,0,0,0-.86,1.8,4.43,4.43,0,0,0,0,1.36,3.66,3.66,0,0,0,1.31-.16,9.94,9.94,0,0,0,2.49-1.77c2.25-2.53,4.51-5.07,6.51-7.8a2.9,2.9,0,0,1,3.45-1.34c0,.07.06.16,0,.2-3.81,5.75-7.94,11.22-13.52,15.39a15.21,15.21,0,0,1-4.26,2.23c-3,1-4.89-.51-5-3.6,0-.47,0-.94,0-1.52a24,24,0,0,1-2.54,2.14,26.51,26.51,0,0,1-5.2,2.93c-3,1.06-5.54-.93-5.68-4.12,0-.75,0-1.49,0-2.18-.81.75-1.61,1.55-2.47,2.25a35.27,35.27,0,0,1-4.5,3.44c-3.94,2.25-7.57.06-7.64-4.47-.06-3.87,1.24-7.44,2.44-11,.27-.82.58-1.63.91-2.56-1.3.15-2.5.24-3.67.47-.29.06-.55.52-.73.85a43.69,43.69,0,0,1-11.47,13.84,26.13,26.13,0,0,1-5.11,3.15c-4.58,2-8.09-.68-7.68-5.69a25.5,25.5,0,0,1,3.05-10,45.82,45.82,0,0,1,14.92-17,16.47,16.47,0,0,1,5.38-2.3c3.59-.83,6,1.53,5.64,5.23a25.17,25.17,0,0,1-2.47,8.34l-.48,1.07c2.34.28,3.76-.43,4.72-2.39a125.63,125.63,0,0,1,25.46-35.62c3.55-3.43,7.13-6.85,11.55-9.15a13.51,13.51,0,0,1,4.79-1.49c2.34-.24,3.53,1.17,3,3.45A31.7,31.7,0,0,1,214,15c-.5,1.22-1.84.87-2.95,1.3.77-1.79,1.51-3.35,2.09-5a8,8,0,0,0,.14-2.15c-.73.19-1.64.15-2.15.59a109.25,109.25,0,0,0-8.71,7.79c-8.59,9-15.24,19.47-21.08,30.44-.12.23-.22.48-.32.72l.38.35Z"/><path class="cls-2" d="M52.69,29.57c.05-3.25-1.68-4.29-4.23-2.86a7.06,7.06,0,0,0-3.2,3.51,3.44,3.44,0,0,0,.85,4.22,13.58,13.58,0,0,0,3.41,1.76,1.13,1.13,0,0,0,1-.41,15.29,15.29,0,0,0,2.13-6.22ZM49,38.69c-2.73-1-5.22-2.12-6.71-4.88-1.31,1.93-2.55,3.65-3.68,5.44a24,24,0,0,0-3.57,8c-.27,1.33-.5,2.75.82,3.67s2.59.13,3.67-.64c4.18-3,6.77-7.26,9.47-11.63ZM80.82,49.32c0,2,.92,2.77,2.2,2a11,11,0,0,0,3-2.47c5.39-6.5,9.21-14,13.52-21.2a.83.83,0,0,0-.84-1.32,5.83,5.83,0,0,0-2.78,1.05,32.79,32.79,0,0,0-4.11,4.22C88,36.21,84.35,40.85,81.91,46.3c-.51,1.14-.85,2.35-1.09,3ZM53.49,36.23a15.23,15.23,0,0,0,2.94-1.38c2.34-1.79,4.56-3.74,6.87-5.58s4.49-3.59,6.87-5.19a8.42,8.42,0,0,1,5.54-1.32,4.67,4.67,0,0,1,4.48,5.51,11.12,11.12,0,0,1-3.38,6.49,4.28,4.28,0,0,1-1.7,1,2,2,0,0,1-2.63-2.34,5.54,5.54,0,0,1,4.46-4.61l1-.19c-.19-.68-.17-1.57-.59-1.87a2.46,2.46,0,0,0-2.07-.29,14.89,14.89,0,0,0-3.57,2.24A40.14,40.14,0,0,0,59.49,47.5a7.36,7.36,0,0,0-.24,3.13,2.82,2.82,0,0,0,3.9,2.45,16.64,16.64,0,0,0,4.49-2.5,55.69,55.69,0,0,0,9.81-10.7c3.4-4.51,6.8-9,11.14-12.69a26.3,26.3,0,0,1,4.87-3.31c2.7-1.39,4.91-2.05,7.8.8.43-1.27,1.44-1.21,2.49-1.18,1.8,0,3.6,0,5.58,0-.34.61-.57,1-.82,1.48q-6.89,11.46-13.75,22.92a7.14,7.14,0,0,0-.84,1.68,6.29,6.29,0,0,0,0,1.57c.54-.08,1.21,0,1.61-.27a21.9,21.9,0,0,0,3.38-2.76,69,69,0,0,0,5.28-6.06c1-1.31,2.07-1.43,3.67-1.15-1.15,1.51-2.18,2.93-3.28,4.31A57.19,57.19,0,0,1,94.37,55.75a18.16,18.16,0,0,1-3.66,2.14c-3.5,1.48-5.75,0-5.8-3.8,0-.18,0-.37,0-.71-.8.72-1.47,1.37-2.19,2a12.17,12.17,0,0,1-6.06,3c-3.3.42-5.17-1.33-4.89-4.64.1-1.29.37-2.56.58-4-1.52,1.33-2.92,2.64-4.4,3.84a21.94,21.94,0,0,1-8.62,4.78c-4.88,1.15-8.76-1.94-8.8-7,0-3.89,1.53-7.28,3.27-10.62l1.34-2.53c-1.93.34-3.53.54-4.63,2.49a43.4,43.4,0,0,1-11.68,14A25.47,25.47,0,0,1,33.1,58c-3.87,1.53-7.27-.9-7.48-5.05a18.61,18.61,0,0,1,2.07-9.13A47.3,47.3,0,0,1,43.37,25.24a13,13,0,0,1,6.53-2.55c3.28-.23,5.34,1.66,5.41,4.94a18.05,18.05,0,0,1-1.58,7.1c-.16.4-.33.79-.49,1.19.09.1.17.21.25.31Z"/><path class="cls-2" d="M162.75,10.89c-.54.29-.93.47-1.3.68a35,35,0,0,0-13.29,14.21A12.74,12.74,0,0,0,147,29.24a2,2,0,0,0,2.75,2.41,10.32,10.32,0,0,0,2.87-1.58,26.91,26.91,0,0,0,8.39-10.79c1.11-2.61,2-5.28,1.7-8.39ZM122.19,62c.43-1.82.75-3.66,1.32-5.43,1.58-5,3.8-9.62,8.09-12.93a15.17,15.17,0,0,1,7.32-3.38,4.71,4.71,0,0,1,5.63,4.36,14.56,14.56,0,0,1-.72,6.65c-3.23,9.78-9,17.56-18.17,22.52a15.49,15.49,0,0,1-9,1.93c-4.84-.49-8.24-3.83-9.28-8.9-1-4.89-.08-9.58,1.51-14.17,2.83-8.19,7.5-15.35,12.78-22.12,6.67-8.55,14.45-15.86,24.08-21,3.66-2,7.43-3.68,11.68-3.88a8.94,8.94,0,0,1,5.85,1.46,1.81,1.81,0,0,0,1.38.07,23.94,23.94,0,0,1,13.73-.93A25.1,25.1,0,0,1,184,8.43c4,2.11,7.81,4.42,11.87,6.74l-6.08,5.46c-1.63-1-3.67-2.18-5.64-3.47-3.57-2.34-7.05-4.8-11-6.39a11.52,11.52,0,0,0-7.71-.71c-.08,9.2-4.53,16-11.09,21.79a8.5,8.5,0,0,1-5.83,2.28,3.52,3.52,0,0,1-3.69-3.63c-.11-2.71,1-5.08,2.2-7.39,3-5.69,7.74-9.79,13-13.38L161,9l-.06-.4a11.62,11.62,0,0,0-3.33.37,42.78,42.78,0,0,0-7.24,3.67c-9.6,6.55-17.05,15.16-23.38,24.82C122.59,44.1,119,51.09,117.45,59a20.46,20.46,0,0,0-.34,5.63c.4,4.37,4,6.66,8.26,5.38a16.5,16.5,0,0,0,6.49-4.21c4.86-4.68,8.68-10,10.16-16.74a10.7,10.7,0,0,0,.17-3.39A1.73,1.73,0,0,0,139.67,44a10.33,10.33,0,0,0-3.39,2.22,17.88,17.88,0,0,0-4.05,8.05,2,2,0,0,1-1.18,1.46,27.15,27.15,0,0,0-7.52,5.46,5.1,5.1,0,0,0-.72,1.22l-.62-.43Z"/><path class="cls-2" d="M231.42,5.86c-5.88,11.26-19.91,20.92-32.49,18,1.79-2,3.5-3.92,5.24-5.82a.9.9,0,0,1,.63-.2c7.85.4,14.51-2.71,20.68-7.12,2.08-1.48,4-3.22,5.94-4.85Z"/><path class="cls-2" d="M121.52,23.51c-1.33,2.16-2.5,4.08-3.71,6a1,1,0,0,1-.75.41c-2.08,0-4.16,0-6.46,0,1.3-2.13,2.49-4.1,3.72-6a1,1,0,0,1,.69-.33c2.08,0,4.16,0,6.51,0Z"/></g></g></g></g></svg>