<svg xmlns="http://www.w3.org/2000/svg" viewBox="0 0 179.09 75.08"><defs><style>.cls-1{fill:#fff;}.cls-2{fill:#176ab3;}.cls-3{fill:#71bd44;}.cls-4{font-size:17.35px;font-family:AmsiPro-BoldItalic;font-weight:700;font-style:italic;}.cls-5{letter-spacing:-0.02em;}.cls-6{letter-spacing:0em;}</style></defs><g id="Layer_2" data-name="Layer 2"><g id="svg4403"><path class="cls-1" d="M97.88,45.75c6.48-1.18,17.8-6,23.07-13.62a17.24,17.24,0,0,1-.19,3,13.42,13.42,0,0,1-4.28,6.67A39.71,39.71,0,0,1,102.64,50,44.52,44.52,0,0,1,84,53.06a20.46,20.46,0,0,1-7.73-2c-3.76-1.83-5.06-8.26-3.3-12a30.64,30.64,0,0,1,9-10.76,49.28,49.28,0,0,1,20.92-10,20.23,20.23,0,0,1,9.78,0c4.55,1.31,6.39,5.06,4.68,9.52s-4.78,7.68-8.26,10.68a49.83,49.83,0,0,1-10.27,6.73C98.5,45.38,98.2,45.57,97.88,45.75Zm-9.6-4.31,1.59-.1a11.48,11.48,0,0,0,1.45-.17,29.53,29.53,0,0,0,14.25-7.29,12.26,12.26,0,0,0,4.2-6.42A3.5,3.5,0,0,0,107.26,23a11.76,11.76,0,0,0-3.58-.48c-4.31.12-8.15,1.79-11.78,3.93a21.67,21.67,0,0,0-8,7.41c-1,1.72-1.78,3.62-.6,5.52S86.45,41.39,88.28,41.44Z"/><path class="cls-1" d="M98.28,47.19a43.35,43.35,0,0,0,12.5-4.61,32.84,32.84,0,0,0,11.47-9.69l-2.8-.76a12.18,12.18,0,0,1-.4,3.51,10.05,10.05,0,0,1-1.79,3.11,26.14,26.14,0,0,1-5.08,4.66,46,46,0,0,1-13.47,6.35,38.46,38.46,0,0,1-16.08,1.67c-2.15-.31-5-.9-6.65-2.41a7.86,7.86,0,0,1-2.13-4.43c-.72-4.18,1.82-7.84,4.48-10.82a45,45,0,0,1,11.34-8.86,45.82,45.82,0,0,1,13.63-5.15c3.78-.77,10.57-1.53,12.71,2.74,1,2,.3,4.2-.59,6.05A23.57,23.57,0,0,1,111,34.69a45,45,0,0,1-6.48,5.46c-2.37,1.63-4.9,2.89-7.39,4.3A1.5,1.5,0,0,0,98.64,47c2.55-1.45,5.14-2.74,7.56-4.43a47.94,47.94,0,0,0,6.63-5.52c3.28-3.29,7.08-8.19,6.63-13.15-.5-5.36-5.73-7.55-10.51-7.73-5.69-.22-11.62,1.71-16.74,4a51.92,51.92,0,0,0-13.9,9.26c-3.46,3.25-7.24,7.73-7.57,12.68-.29,4.37,1.66,8.82,5.8,10.61,5.64,2.42,12.1,2.18,18,1.06a49.82,49.82,0,0,0,18.1-7.15,29.65,29.65,0,0,0,7-6.12,14,14,0,0,0,2.12-3.6,14.19,14.19,0,0,0,.71-4.85c.06-1.59-2-1.89-2.8-.76C117,35.19,113,38,109,40.16A40.41,40.41,0,0,1,97.48,44.3C95.59,44.66,96.39,47.55,98.28,47.19Z"/><path class="cls-1" d="M88.28,42.94a28.73,28.73,0,0,0,15.19-5.45,25.3,25.3,0,0,0,5.89-5.56c1.37-1.88,2.48-4.54,1.87-6.9-1.44-5.52-9.74-4.24-13.69-2.91-5,1.71-10.23,4.78-13.54,9-1.77,2.27-3.54,5.29-2.32,8.21,1.15,2.77,3.85,3.5,6.6,3.59,1.93.06,1.93-2.94,0-3-1.67,0-3.8-.33-4-2.4s1.63-4.14,2.86-5.48a27.47,27.47,0,0,1,10.4-6.76,18,18,0,0,1,6.6-1.3c1.48,0,4,.19,4.25,2.07s-1.08,3.81-2.22,5.1a26.32,26.32,0,0,1-4.53,4,25.84,25.84,0,0,1-13.35,4.8C86.36,40.05,86.35,43.05,88.28,42.94Z"/><path class="cls-1" d="M1.51,49.59C1.58,41.27,4.44,33.89,8.83,27a51.16,51.16,0,0,1,11.72-13,7.43,7.43,0,0,1,1.54-.95,2.54,2.54,0,0,1,1,0c0,.36.07.86-.13,1.07-.69.74-1.48,1.38-2.24,2.06A40.45,40.45,0,0,0,9.5,32.87c-2.11,5.91-2.72,11.93-.76,18A20.27,20.27,0,0,0,22.27,64.52C29.66,67,36.88,66,43.88,63A42.87,42.87,0,0,0,65.75,42.34a30.65,30.65,0,0,0,3.59-14.51c-.16-8.65-3.66-15.59-11.54-19.78A25.32,25.32,0,0,0,44,5.48a2.2,2.2,0,0,1-.84,0,4.5,4.5,0,0,1-.91-.63c.2-.27.35-.71.61-.79a12.82,12.82,0,0,1,2.6-.49C50.92,3.24,56.21,4,61,6.85c6,3.59,9.16,9,10.28,15.79,1.35,8.18-.71,15.76-4.38,23a52.76,52.76,0,0,1-20.6,21.74,42,42,0,0,1-18,6c-7.14.6-13.67-.75-19.23-5.5A20.61,20.61,0,0,1,2.22,55.61C1.86,53.62,1.74,51.6,1.51,49.59Z"/><path class="cls-1" d="M3,49.59A40.27,40.27,0,0,1,8.9,29.79a54.16,54.16,0,0,1,6.15-8.51,49.61,49.61,0,0,1,3.6-3.65q1-.87,2-1.68c.73-.6,1.49-1.41,2.48-1.31l-1.5-1.5v.29c0,.39,0,.4,0,0a9,9,0,0,1-1,.88c-.53.47-1.07.94-1.58,1.42A43,43,0,0,0,15.94,19a41.85,41.85,0,0,0-5.06,7.2C7.77,31.8,5.7,38.35,6.1,44.82a24.48,24.48,0,0,0,6.4,15.41,24.44,24.44,0,0,0,14.42,6.89c11.87,1.62,24.32-4.51,32.38-13s13.28-20.12,11-31.8a22.22,22.22,0,0,0-8.5-13.56,23.93,23.93,0,0,0-8.82-4.15,27,27,0,0,0-5.06-.7c-.87,0-1.74,0-2.61,0-.43,0-.88,0-1.31.07l-.58.07c.29,0,.25,0-.11-.22l.24,1.82a2.91,2.91,0,0,1,.28-.47c-.55.45.33.14.5.1a12.12,12.12,0,0,1,2-.22,35.5,35.5,0,0,1,3.86,0,23.41,23.41,0,0,1,7.19,1.58,19.75,19.75,0,0,1,9.73,8.23c5,8.52,3.53,19.34-.44,27.93A52,52,0,0,1,49.25,63.71c-8.07,5.61-18.08,9.51-28,8A21.64,21.64,0,0,1,8,64.66a18.58,18.58,0,0,1-3.6-6.47A42.42,42.42,0,0,1,3,49.59c-.21-1.9-3.21-1.92-3,0C.62,55.08,1.19,60.37,4.5,65a23.89,23.89,0,0,0,12.16,8.76C27.21,77.13,39,73.64,48.12,68A54.81,54.81,0,0,0,68.53,45.76c4.78-9.62,6.82-21.38,1.71-31.32A22.94,22.94,0,0,0,58.13,3.77,26.93,26.93,0,0,0,49.07,2a26.49,26.49,0,0,0-4.71.19c-1.61.25-2.57.52-3.44,1.91A1.5,1.5,0,0,0,41.15,6a5.06,5.06,0,0,0,1.57,1A4.74,4.74,0,0,0,44.4,7,30.27,30.27,0,0,1,49.16,7a21.3,21.3,0,0,1,8.21,2.49,19.33,19.33,0,0,1,8.95,10c3.9,10.29-.15,21.55-6.72,29.78S42.57,64,31.87,64.38c-5.42.21-11.27-1.22-15.54-4.69A20.53,20.53,0,0,1,9.33,47c-1.11-6.74,1-13.79,4.33-19.63a39.17,39.17,0,0,1,5.49-7.44c1-1.11,2.14-2.15,3.28-3.15A9,9,0,0,0,24.24,15a3.49,3.49,0,0,0,.34-1.83,1.52,1.52,0,0,0-1.5-1.5c-2-.19-3.48,1.24-4.93,2.46a49.72,49.72,0,0,0-4.35,4.11,55.69,55.69,0,0,0-7,9.34A43.69,43.69,0,0,0,0,49.59C0,51.52,3,51.52,3,49.59Z"/><path class="cls-1" d="M146.86,44.81c.24,2.19.85,3.89,2.74,4.71a4.9,4.9,0,0,0,5.16-.81c.64-.49,1.23-1.06,1.84-1.59a1.75,1.75,0,0,1,2.25-.16c.81.52.72,1.31.39,2.06A6.47,6.47,0,0,1,154,52.73a15.93,15.93,0,0,1-5,0,8.21,8.21,0,0,1-6.9-7.88c-.17-3.19.26-6.23,2.86-8.44,2.79-2.36,6.08-2.63,9.43-1.6A7.29,7.29,0,0,1,159.65,41c.45,2.53-.47,3.72-3.05,3.77-2.77.06-5.53,0-8.3.05Zm8.21-2.73c0-2.91-1.67-4.61-4.21-4.51a4,4,0,0,0-3.75,4.51Z"/><path class="cls-1" d="M145.36,44.81c.29,2.46,1.06,4.9,3.49,6a6.23,6.23,0,0,0,4.37.37A10.22,10.22,0,0,0,157,48.79c.3-.27.68-.86,1.11-.54-.25-.18,0-.15-.17,0s-.27.59-.42.81a4.61,4.61,0,0,1-2.45,1.84,10.76,10.76,0,0,1-7.78-.3,6.87,6.87,0,0,1-3.56-4.94,9.77,9.77,0,0,1,1.1-6.87,7.5,7.5,0,0,1,6.76-3c2.17.15,4.48,1,5.67,2.9a6.83,6.83,0,0,1,1,3.43,1.58,1.58,0,0,1-.06.52c0,.1-.11.25,0,.17-.2.27-.38.32-.83.4a29.23,29.23,0,0,1-5,.11h-5.42a1.5,1.5,0,0,0,0,3h5.76a28,28,0,0,0,5.5-.21c3.06-.65,3.47-3.66,2.81-6.26a8.87,8.87,0,0,0-5.52-6.25,11.52,11.52,0,0,0-9.83.58,10.05,10.05,0,0,0-4.92,8,11.72,11.72,0,0,0,2.15,8.6A10.44,10.44,0,0,0,151,54.43c3.26.09,6.77-.66,8.8-3.41,1-1.4,1.83-3.57.32-5a3.38,3.38,0,0,0-2.94-.87,5.61,5.61,0,0,0-2.44,1.58c-1.31,1.16-2.83,2.17-4.6,1.35-1.29-.6-1.63-2-1.78-3.31a1.54,1.54,0,0,0-1.5-1.5A1.51,1.51,0,0,0,145.36,44.81Z"/><path class="cls-1" d="M156.57,42.08a7.17,7.17,0,0,0-.87-3.46,5.15,5.15,0,0,0-2.57-2.19A5.52,5.52,0,0,0,146.88,38a5.94,5.94,0,0,0-1.27,4.06,1.53,1.53,0,0,0,1.5,1.5h8a1.5,1.5,0,0,0,0-3h-8l1.5,1.5a2.1,2.1,0,0,1,0-.9c0,.22,0,.24,0,.07s0-.13,0-.2l.12-.41.07-.19c-.09.2-.1.22,0,.08s.12-.24.19-.36a1.63,1.63,0,0,0,.11-.17c.1-.13.08-.11-.06.07,0-.07.15-.17.2-.23l.28-.27c.12-.1.1-.09-.08,0l.16-.12a3.79,3.79,0,0,1,.34-.2l.18-.09-.09,0c.13,0,.26-.09.39-.12l.2,0c.16,0,.13,0-.1,0,.15-.1.6,0,.78,0h.15c.16,0,.13,0-.11,0a3.49,3.49,0,0,0,.37.07l.35.1c.39.13-.17-.11,0,0l.31.16.14.1c.13.09.1.06-.09-.08a2.93,2.93,0,0,0,.47.46c.07.08,0,0-.1-.13a1.71,1.71,0,0,1,.11.14l.19.31a1.8,1.8,0,0,0,.16.34c-.08-.21-.1-.24,0-.09l.06.19a5.33,5.33,0,0,1,.2.81c0,.16,0,.14,0-.08,0,.08,0,.15,0,.23s0,.31,0,.47a1.5,1.5,0,0,0,3,0Z"/><path class="cls-1" d="M130.75,53.13c-4.47-.18-7.32-2-8.67-5.62-1.47-4-.35-8.8,2.61-11.29,3.58-3,10.44-2.4,13.15,1.19a5.45,5.45,0,0,1,.82,1.61,1.85,1.85,0,0,1-1,2.37,1.88,1.88,0,0,1-2.52-.49c-.41-.5-.78-1-1.21-1.52a4.21,4.21,0,0,0-7.09.92,7.59,7.59,0,0,0,.11,6.94,4.28,4.28,0,0,0,7.16.66c.44-.54.78-1.15,1.18-1.71a1.88,1.88,0,0,1,2.32-.83,2.14,2.14,0,0,1,1.29,2.49,5.79,5.79,0,0,1-3.87,4.21A33.24,33.24,0,0,1,130.75,53.13Z"/><path class="cls-1" d="M130.75,51.63c-2.31-.11-4.73-.73-6.2-2.65a9,9,0,0,1-1.29-7.63,7,7,0,0,1,4.65-5.17,9.16,9.16,0,0,1,6.89.61,4.57,4.57,0,0,1,2.42,2.63c.08.37.08.61-.38.71s-.83-.58-1.11-1c-1.84-2.37-4.71-3.63-7.58-2.25-3,1.47-4,5.52-3.36,8.56s2.83,5.62,6.07,5.54A6,6,0,0,0,135,49.21c.64-.69,1-1.65,1.66-2.29a.43.43,0,0,1,.75.1c.29.5-.15,1.3-.41,1.72a4.12,4.12,0,0,1-1.33,1.36c-1.59,1-3.54,1.17-5.32,1.58s-1.09,3.33.79,2.9a21.93,21.93,0,0,0,5.64-1.66A7.22,7.22,0,0,0,140,49.36c.73-1.78.59-4-1.21-5.08A3.48,3.48,0,0,0,134,45.44c-.79,1.1-1.41,2.37-2.87,2.57a2.76,2.76,0,0,1-2.77-1.33c-1.26-2.15-1.16-7.32,2.23-7.34,1.53,0,2.38,1.2,3.24,2.29a3.52,3.52,0,0,0,4.9.87c3.54-2.37.22-6.85-2.45-8.3a12.3,12.3,0,0,0-8.89-1,9.91,9.91,0,0,0-6.68,6.21,12.11,12.11,0,0,0,1.05,10.84c2,3,5.42,4.21,9,4.38C132.68,54.72,132.67,51.72,130.75,51.63Z"/><path class="cls-1" d="M172.87,40.21c0-3.29,0-6.59,0-9.88,0-1.9.75-2.81,2.27-2.81s2.41,1,2.41,2.85q0,9.94,0,19.89c0,1.82-1.1,2.89-2.68,2.68a2.17,2.17,0,0,1-2-2.48c0-3.41,0-6.83,0-10.25Z"/><path class="cls-1" d="M174.37,40.21V33.05a17.73,17.73,0,0,1,0-3.34c.09-.49.2-.69.73-.69,1.49,0,.91,3,.91,3.83q0,3.48,0,7c0,2.33,0,4.65,0,7,0,1.14.09,2.33,0,3.48,0,.53-.09,1.09-.69,1.21s-.85-.23-1-.71a15.06,15.06,0,0,1,0-3.22V40.21a1.52,1.52,0,0,0-1.5-1.5h0a1.5,1.5,0,0,0,0,3h0l-1.5-1.5V48c0,1.88-.3,4.13,1.25,5.52a4,4,0,0,0,4.73.29c1.72-1.16,1.69-3.21,1.69-5.06q0-7.85,0-15.67c0-1.92.37-4.35-1.06-5.9a4.07,4.07,0,0,0-4.3-.93c-2.16.8-2.32,3.07-2.32,5.05v8.89A1.5,1.5,0,0,0,174.37,40.21Z"/><path class="cls-1" d="M168,40.34c0,3.38,0,6.75,0,10.13a2.32,2.32,0,1,1-4.63.06q0-10.24,0-20.48c0-1.67.85-2.49,2.35-2.49s2.28.91,2.29,2.54C168,33.52,168,36.93,168,40.34Z"/><path class="cls-1" d="M166.53,40.34c0,2.25,0,4.5,0,6.75,0,.81.58,4.55-.9,4.43-.8-.06-.73-.9-.74-1.49,0-1.16,0-2.33,0-3.5q0-3.49,0-7v-7c0-.88-.63-3.85,1-3.47.56.12.57.5.61,1,.08,1.13,0,2.29,0,3.42,0,2.27,0,4.55,0,6.82a1.5,1.5,0,0,0,3,0c0-2.52,0-5,0-7.56,0-1.83.35-4.17-1.05-5.62a4.1,4.1,0,0,0-4.62-.69c-1.71.84-2,2.6-2,4.32,0,5.17,0,10.33,0,15.49,0,2-.49,4.78.67,6.57a3.79,3.79,0,0,0,4.54,1.4c2.26-.86,2.43-3.13,2.43-5.23,0-2.89,0-5.78,0-8.68A1.5,1.5,0,0,0,166.53,40.34Z"/><path class="cls-1" d="M33.69,5.65C33.72,3,35.27,1.49,38,1.51a4.1,4.1,0,0,1,3.76,4.28A4.19,4.19,0,0,1,37.51,10,4,4,0,0,1,33.69,5.65Z"/><path class="cls-1" d="M35.19,5.65c0-.2,0-.41,0-.62s-.08.37,0,0c0-.09,0-.17.05-.25a5.34,5.34,0,0,1,.16-.53c.06-.21,0,.08,0,.09s.12-.25.14-.29l.12-.19c.16-.24.13,0,0,0,.09,0,.24-.26.31-.32a1.49,1.49,0,0,0,.14-.12c-.05.15-.25.17,0,0s.48-.21.49-.27-.3.11-.09,0l.28-.09c.16-.05.33-.08.49-.12.34-.07-.25,0,0,0a1.23,1.23,0,0,0,.27,0q.34,0,.69,0c.33,0-.19-.09,0,0a1.31,1.31,0,0,0,.27.06,1,1,0,0,1,.31.11s-.3-.16-.05,0l.47.29c.3.19-.21-.22.05,0l.24.24.23.25s-.18-.25,0,0,.2.33.29.5.16.42,0,.07c0,.1.07.19.1.28a4.69,4.69,0,0,1,.14.65c0-.39,0,0,0,.08v.31a1.37,1.37,0,0,1,0,.29c.12-.27,0-.13,0,0s-.1.4-.16.6-.11.26,0,0c-.06.14-.13.27-.2.4s-.38.54-.13.24a4.73,4.73,0,0,1-.37.4l-.16.15c-.26.25.26-.16,0,0a6.32,6.32,0,0,1-.56.33c-.25.14,0,0,.06,0a.87.87,0,0,1-.32.11,2,2,0,0,1-.54.13c.35,0,.11,0,0,0h-.29s-.29,0-.33,0l.19,0-.21,0c-.12,0-.53-.08-.6-.17.1.13.22.11,0,0s-.21-.11-.31-.18S36.12,8,36.12,8l.06,0L36,7.88a1.85,1.85,0,0,1-.14-.14l-.14-.16,0,.06c-.11,0-.28-.44-.33-.54s-.07-.13-.09-.19c.1.4,0-.07,0-.15s-.1-.41-.14-.61,0,.37,0,0c0-.16,0-.32,0-.49a1.5,1.5,0,1,0-3,0,5.71,5.71,0,0,0,3.57,5.5,5.57,5.57,0,0,0,6.12-1.73,5.93,5.93,0,0,0,.39-6.92A5.65,5.65,0,0,0,39.39.24,6,6,0,0,0,36,.25a5.16,5.16,0,0,0-2.85,2,6.07,6.07,0,0,0-1,3.39,1.5,1.5,0,0,0,3,0Z"/><path class="cls-1" d="M30.45,11.79A2.81,2.81,0,0,1,27.7,8.85a2.78,2.78,0,1,1,5.53-.12A2.87,2.87,0,0,1,30.45,11.79Z"/><path class="cls-1" d="M30.45,10.29h-.24c-.14,0-.13-.09.16,0-.11,0-.25-.05-.37-.09l-.14-.06c.37.09.22.1.08,0s-.21-.15-.32-.2c.34.17.18.14.07,0l-.11-.11-.12-.14c-.14-.13.21.33.07.09s-.14-.22-.2-.33a1,1,0,0,0-.07-.15c.22.35.08.2,0,.06s-.07-.26-.1-.39c-.06-.3,0,.31,0,.1s0-.14,0-.21a3.42,3.42,0,0,0,0-.45c.05.21-.05.31,0,.14s0-.19.07-.29.1-.24.12-.36c-.07.35-.09.21,0,.06a1.09,1.09,0,0,0,.08-.15,1,1,0,0,0,.11-.17c.1-.14.17-.09-.06.08.1-.08.21-.22.3-.31s.22-.09-.09.06l.13-.09c.1-.07.23-.11.33-.18-.28.19-.25.09-.1,0l.18-.06a1.1,1.1,0,0,0,.16,0c-.28,0-.33,0-.17,0h.12c.12,0,.24,0,.36,0-.37,0-.26,0-.09,0l.15,0,.18.06c.19,0-.35-.18-.11,0l.36.21c.17.08-.29-.26-.09-.07l.11.1c.1.09.17.2.27.28-.27-.23-.15-.21-.08-.08l.11.16s.05.09.07.14l.07.14c-.09-.22-.12-.28-.08-.17a3.58,3.58,0,0,1,.11.35,1.69,1.69,0,0,0,0,.24s0-.39,0-.15a3.12,3.12,0,0,1,0,.43c0,.07,0,.15,0,.22s0,.05,0-.19l0,.16a2.85,2.85,0,0,1-.11.39c-.06.17-.16.19,0-.07a2.12,2.12,0,0,0-.11.21l-.08.13-.08.13c.15-.19.19-.24.11-.15l-.28.3s-.24.19,0,0-.05,0-.09.06l-.13.07c-.24.13-.05,0,.08,0-.14,0-.3.1-.44.13s.17,0,.17,0a1.13,1.13,0,0,1-.32,0,1.5,1.5,0,1,0,0,3,4.35,4.35,0,0,0,4.05-3,4.73,4.73,0,0,0-1.15-4.84,4.17,4.17,0,0,0-5-.57,4.79,4.79,0,0,0-2,4.89,4.3,4.3,0,0,0,4.16,3.53,1.5,1.5,0,0,0,0-3Z"/><path class="cls-1" d="M25.7,9.77a1.85,1.85,0,0,1,1.79,2.1A2,2,0,0,1,25.61,14a2.12,2.12,0,0,1-1.89-2.14A1.92,1.92,0,0,1,25.7,9.77Z"/><path class="cls-1" d="M25.7,11.27h.21l-.4,0a2,2,0,0,1,.5.13l-.36-.15a2.33,2.33,0,0,1,.34.2l-.3-.24a2.27,2.27,0,0,1,.31.31l-.23-.3a2.38,2.38,0,0,1,.25.44l-.15-.36a2.44,2.44,0,0,1,.15.59l-.05-.4a2.62,2.62,0,0,1,0,.74l.06-.4a2.94,2.94,0,0,1-.16.58L26,12a2.39,2.39,0,0,1-.28.49l.24-.3a2.73,2.73,0,0,1-.38.38l.3-.23a2.6,2.6,0,0,1-.36.21l.35-.15a2.13,2.13,0,0,1-.45.13l.4-.06a1.21,1.21,0,0,1-.38,0l.4.06a1.62,1.62,0,0,1-.43-.12l.36.16a2.43,2.43,0,0,1-.44-.26l.31.24a2.33,2.33,0,0,1-.41-.42l.23.31a2.39,2.39,0,0,1-.29-.52l.15.36a1.91,1.91,0,0,1-.14-.52l0,.4a2.43,2.43,0,0,1,0-.66l0,.4a2,2,0,0,1,.15-.59l-.15.36a2.11,2.11,0,0,1,.24-.44l-.23.31a1.88,1.88,0,0,1,.34-.35l-.3.24a2.08,2.08,0,0,1,.38-.22l-.35.15a1.69,1.69,0,0,1,.49-.13l-.4,0,.34,0a1.5,1.5,0,0,0,0-3,3.47,3.47,0,0,0-1.89.52,3.52,3.52,0,0,0-1.37,1.74,3.84,3.84,0,0,0,.87,4,3.22,3.22,0,0,0,4,.51,3.78,3.78,0,0,0,1.43-1.84A4.07,4.07,0,0,0,28.91,11a3.24,3.24,0,0,0-1-1.85,3.32,3.32,0,0,0-2.22-.88,1.5,1.5,0,0,0,0,3Z"/><path class="cls-1" d="M38.34,12.72c9.26.4,16.79,4.23,21.22,12.75C65.54,37,60,51,47.63,55.69c-10,3.81-19.2,2.16-26.83-5.39a21,21,0,0,1-1.49-28.64C24.1,15.7,30.57,13,38.34,12.72Zm19.5,32.52c4.93-7,4.49-21.59-8.6-28.51-.86,1.89-.86,1.89,1.29,2.11a2.38,2.38,0,0,0,.23.77,1.49,1.49,0,0,1-.16,2.3c-.21.19,0,.92.15,1.34s.47.57.71.85A5.28,5.28,0,0,1,49.91,23a1.06,1.06,0,0,0-.84-.23c-.23.1-.34.49-.54.82l2,.33,0,.25-1.31.12c.34.48.57.85.85,1.17a1.75,1.75,0,0,1-.32,2.86,11,11,0,0,1-2.36,1.15c-1,.36-1.24.85-.62,1.77.35.53.74,1,1.11,1.55l-1,1.37a6.65,6.65,0,0,0-.64-.59c-.47-.3-1-.57-1.44-.85,0,.71,0,1.43.06,2.14,0,.22.25.42.38.62l1,1.53c-1.94-1.41-2.47-3.51-2.76-5.67-2,.31-1.65-1.43-2.41-2.27a1.81,1.81,0,0,0-.72.16,33.14,33.14,0,0,0-2.86,2.13,2.33,2.33,0,0,0-.83,1.43A2.88,2.88,0,0,1,35,35.13l-1.56-5.88c-.86.37-1-.21-.91-1-2.19-.22-4.53.32-6-2.25-.35,2.24,1.17,2.61,2.4,3.15-1.53,1.83-3.14,3.08-5.56,2.79l-.53-5.74-.49,0c0,1.08,0,2.16,0,3.24a4.86,4.86,0,0,0,.8,3.12c.61.92,1.5,1,2.33,1.59-.8,1-1.38,2.23-2.34,2.85-1.62,1-1.45,2.33-1.1,3.78.08.32.31.59.37.9a2.25,2.25,0,0,1-.48,2.36c-.21.19-.22.66-.23,1,0,1,0,2,0,3l-1.13.1C28.28,58,44.9,59.49,54.41,49.85l-1-1.48a19.83,19.83,0,0,0-2.32.36,20.36,20.36,0,0,0-2.35,1c.2-3.68-.31-3.63,2.72-5.23.6-.31,1.09-.84,1.67-1.2a15.8,15.8,0,0,1,1.6-.8l.18-.92L57,43.44l.8-1.4ZM25,20.86c-.72.36-.91,1.77-2.06,1.22-.31-.14-.29-1-.41-1.5-2.27,1.08-2.66,1.73-2.34,4.35.39-.05.82-.23,1.14-.11,1.8.65,1.79.68,2.88-1.12a1.48,1.48,0,0,1,2.13-.34l.2-2.35Zm20.24-5.72C41.9,13.49,33,13.64,31,15.23a4.32,4.32,0,0,0,1.35.69,7,7,0,0,0,3.16,0,9.07,9.07,0,0,1,1.39-.48c.78-.15,1.53-.4,2.31-.52a7.46,7.46,0,0,1,2-.12c1.1.13,2.19.41,3.29.59C44.7,15.4,44.93,15.24,45.22,15.14ZM16,36.81l-.35.07,1.13,5.23.43-.09ZM24.86,18.1l.08.2h1.81V16.93Z"/><path class="cls-1" d="M38.34,14.22a25.53,25.53,0,0,1,12.23,3.46,21.8,21.8,0,0,1,8.15,9.47,20.1,20.1,0,0,1-4,22.15c-6.26,6.43-17,8.79-25.3,5.18-8.54-3.72-14.83-12.61-13.32-22.12a21.6,21.6,0,0,1,7.84-13.23c4.07-3.32,9.24-4.71,14.42-4.91,1.92-.07,1.93-3.07,0-3a27.7,27.7,0,0,0-14.8,4.47A25.13,25.13,0,0,0,14,28.23,22.09,22.09,0,0,0,14.28,43,25.87,25.87,0,0,0,24.41,55.17c8.82,5.82,21.09,5,29.51-1.23a23.34,23.34,0,0,0,8.79-24.46,24.79,24.79,0,0,0-9-13.28c-4.43-3.32-9.92-4.71-15.37-5C36.41,11.13,36.41,14.13,38.34,14.22Z"/><path class="cls-1" d="M59.13,46c3.07-4.4,3.69-10.26,2.61-15.42A22.67,22.67,0,0,0,50,15.44a1.52,1.52,0,0,0-2.06.53c-.44,1-1.09,2.15-.48,3.2s2,1.06,3.07,1.17l-1.44-1.1c.1.47.54,1,.58,1.44a9.28,9.28,0,0,0-.62,1.21,3.82,3.82,0,0,0,1.35,3.27l1.82-2.36c-1-.43-1.59-1.38-2.69-1.51s-1.8.6-2.29,1.55a1.51,1.51,0,0,0,.9,2.2l2,.34L49,23.93l0,.25,1.5-1.5-1.31.12c-1,.09-2,1.24-1.3,2.25.29.42.59.82.88,1.23s.42.4.19.76-1.2.68-1.59.84a7.13,7.13,0,0,0-1.48.69c-2,1.46-.4,3.53.66,5V32.05l-1,1.37,2.36-.31a11.43,11.43,0,0,0-2.39-1.68,1.51,1.51,0,0,0-2.25,1.3,9.16,9.16,0,0,0,.19,2.72,11.24,11.24,0,0,0,1.49,2.33L47.26,36c-1.64-1.28-2.1-3-2.38-5a1.48,1.48,0,0,0-1.44-1.1c-.44,0-.57-.08-.26.22a.9.9,0,0,1-.17-.32,4.45,4.45,0,0,0-.56-1.26c-.73-1.14-2-1-3.08-.42a13.32,13.32,0,0,0-3.44,2.75c-.81,1-.58,2.24-1.67,3l2.21.9-1.56-5.88a1.53,1.53,0,0,0-1.85-1.05q1,1.43,1,.45a1.52,1.52,0,0,0-1.5-1.5c-1.76-.15-3.65.2-4.71-1.51A1.52,1.52,0,0,0,25,26c-.27,2.38,1.14,3.59,3.15,4.45l-.31-2.36c-1.25,1.47-2.48,2.53-4.5,2.35l1.5,1.5-.53-5.74a1.52,1.52,0,0,0-1.5-1.5l-.49,0a1.54,1.54,0,0,0-1.5,1.5c0,1.87-.29,4,.34,5.79a5.33,5.33,0,0,0,1.39,2.19,16.92,16.92,0,0,0,2.14,1.26l-.54-2c-.46.6-.84,1.28-1.33,1.85s-1.12.86-1.59,1.4a4.2,4.2,0,0,0-.89,3.43,9.63,9.63,0,0,0,.48,1.77,1.77,1.77,0,0,1,.17.9c-.06.25-.4.5-.52.73-.67,1.26-.32,3.22-.32,4.58l1.5-1.5-1.13.1a1.53,1.53,0,0,0-1.06,2.56c8.69,10.91,26.25,11.35,36,1.66a1.51,1.51,0,0,0,.23-1.82l-1-1.47a1.5,1.5,0,0,0-1.3-.75,18.86,18.86,0,0,0-2.71.42,20.19,20.19,0,0,0-2.72,1.12l2.26,1.3c0-.81,0-1.87.11-2.55,0-.08.1-.35,0-.15.14-.33-.08,0,.06-.12a2.86,2.86,0,0,1,.73-.53c1-.61,2-1.38,3-2,.58-.32,1.33-.47,1.75-1A3.11,3.11,0,0,0,56.31,42l-2.51.66L56,44.5a1.52,1.52,0,0,0,2.36-.3l.79-1.4L56.34,42v3.2a1.5,1.5,0,0,0,3,0V42a1.51,1.51,0,0,0-2.8-.76l-.79,1.4,2.35-.3L55.93,40.5a1.52,1.52,0,0,0-2.51.66l-.17.93.69-.9c-1.3.61-2.34,1.47-3.58,2.16a8.09,8.09,0,0,0-2.1,1.42c-1.23,1.3-1,3.29-1.06,4.94A1.51,1.51,0,0,0,49.45,51a13.86,13.86,0,0,1,3.92-1.13l-1.29-.74,1,1.48.24-1.82c-8.66,8.64-24.06,8-31.73-1.66l-1.06,2.56,1.13-.1a1.52,1.52,0,0,0,1.5-1.5c0-.79,0-1.58,0-2.37s.12-.77.49-1.51a4.48,4.48,0,0,0-.14-3.67,1.76,1.76,0,0,1,.64-2.41,15.77,15.77,0,0,0,2.6-3.19,1.52,1.52,0,0,0-.54-2c-1.11-.71-2.12-.92-2.35-2.41a30,30,0,0,1,0-4.24l-1.5,1.5.49,0-1.5-1.5.53,5.74a1.55,1.55,0,0,0,1.5,1.5c2.75.24,4.9-1.21,6.62-3.22.56-.65.66-1.95-.3-2.36S27.89,27.32,28,26l-2.8.75a5.65,5.65,0,0,0,3.34,2.63,22.05,22.05,0,0,0,4,.37l-1.5-1.5c-.16,1.71,1.05,3,2.81,2.45L32,29.65l1.55,5.88a1.51,1.51,0,0,0,2.21.89,4.85,4.85,0,0,0,2.27-3.08,2.52,2.52,0,0,1,1.2-1.51c.41-.32,1.26-1.19,1.78-1.25L40,30.14c.38.5.42,1.25.86,1.76a2.9,2.9,0,0,0,2.61,1L42,31.75c.35,2.44,1.14,4.77,3.15,6.33,1.22,1,3.4-.27,2.36-1.82a10.7,10.7,0,0,1-1.27-1.83,8,8,0,0,1,0-1.7L44,34a8.6,8.6,0,0,1,1.78,1.21,1.52,1.52,0,0,0,2.35-.3l1-1.37a1.42,1.42,0,0,0,0-1.51A7.7,7.7,0,0,0,48,30.49l-.17-.29c-.38.6-.43.84-.14.74.08,0,.56-.21.65-.25a7.93,7.93,0,0,0,3-1.78c1.66-1.86.3-3.72-.85-5.37L49.19,25.8l1.31-.12a1.56,1.56,0,0,0,1.5-1.5l0-.25a1.49,1.49,0,0,0-1.1-1.45l-2-.33.9,2.21a2.43,2.43,0,0,1,.3-.52l-1.06.44c.26,0,1.34,1,1.64,1.11,1.47.67,3.1-1.07,1.82-2.35-.15-.15-.28-.32-.43-.47-.06-.39-.1-.42-.13-.1s-.06.29.08.07a2.35,2.35,0,0,0,.62-1.35c.2-1.09-.48-1.77-.69-2.74a1.54,1.54,0,0,0-1.45-1.11,4.08,4.08,0,0,0-.73-.08c-.22.11-.32-.36.14.48s.14.52.32.39a2.92,2.92,0,0,0,.27-.64L48.48,18A19.77,19.77,0,0,1,58.85,31.37a17.08,17.08,0,0,1-2.31,13.11C55.44,46.07,58,47.57,59.13,46Z"/><path class="cls-1" d="M24.23,19.56a3.44,3.44,0,0,0-1.1,1.08l-.11.15c-.21.29.21-.24.05-.06l-.12.13c-.22.25.26-.16.08-.06s-.06.05.21-.08q-.15,0,.09,0h.08c-.15,0-.09,0,.2,0l-.14,0a.93.93,0,0,1,.43.27l.17.21c.11.27.13.33.08.18l-.06-.29c-.06-.3,0,.34,0,.06s-.08-.64-.15-.95a1.42,1.42,0,0,0-.86-1,1.54,1.54,0,0,0-1.34.07,5.65,5.65,0,0,0-2.68,2.14,5.78,5.78,0,0,0-.4,3.51,1.55,1.55,0,0,0,.59,1.18,1.59,1.59,0,0,0,1.3.27,5.76,5.76,0,0,0,.6-.12c-.23,0-.27,0-.11,0l-.22,0s.25.08.3.1a7,7,0,0,0,.81.27,2.44,2.44,0,0,0,2-.26,5,5,0,0,0,1.4-1.72,1.14,1.14,0,0,0,.15-.23c-.16.19-.19.24-.09.12l.06-.05c-.2.15-.24.19-.11.1l.07,0c.22-.15-.32.08-.07,0l.16,0-.2,0c.06,0,.38,0,.09,0s-.16,0,0,0,.11,0,0,0-.14-.06,0,0,.1,0-.09-.09a1.51,1.51,0,0,0,2.56-1.06L28,21a1.54,1.54,0,0,0-.44-1.07,1.7,1.7,0,0,0-1.06-.43L25,19.36a1.5,1.5,0,0,0-1.5,1.5,1.54,1.54,0,0,0,1.5,1.5l1.54.15L25,21l-.2,2.35,2.56-1.06a3,3,0,0,0-1.86-.75,3.2,3.2,0,0,0-1.65.43,3.39,3.39,0,0,0-1.13,1.22l-.27.43c0,.08-.1.16-.16.24s-.22.15.09-.11c-.07.06-.35.32-.09.12s.08-.06,0,0c.45-.23.35-.13.21-.09s.45,0,.25,0a.56.56,0,0,0-.18,0c.05,0,.47.09.21,0l-.17,0c-.32-.09-.62-.24-.94-.33a4.55,4.55,0,0,0-1.94.11l1.9,1.45a8.23,8.23,0,0,1-.09-1.57c0-.09,0-.19,0-.29,0,.49,0,.24,0,.06a2.76,2.76,0,0,1,.08-.27c.06-.2-.17.33-.08.19l.05-.12.13-.2c.08-.14-.27.32-.12.16l.09-.1c.06-.07.13-.13.2-.2s.08-.08.12-.09-.32.23-.16.12a11.74,11.74,0,0,1,1.34-.75l-2.2-.9c0,.08.08.46,0,.19s0,0,0,.06l.06.48a2.85,2.85,0,0,0,.29.94,2.17,2.17,0,0,0,2.07,1.06,2.48,2.48,0,0,0,1.72-.92l.36-.48c.05-.06.25-.33.07-.1s0,0,.09-.08a.5.5,0,0,0,.08-.07c-.17.22-.28.2-.11.1a1.51,1.51,0,0,0,.54-2A1.53,1.53,0,0,0,24.23,19.56Z"/><path class="cls-1" d="M46,13.85c-2.57-1.25-5.67-1.42-8.47-1.38-2.47,0-5.54.12-7.57,1.7a1.5,1.5,0,0,0,.3,2.35,6,6,0,0,0,1.71.85,12,12,0,0,0,2.15.22,14.94,14.94,0,0,0,3.84-.86,8.78,8.78,0,0,1,3.63-.39c1.36.23,2.71.77,4,.25a1.56,1.56,0,0,0,1.05-1.85,1.51,1.51,0,0,0-1.85-1l-.56.23c.47,0,.51,0,.13-.09a4.65,4.65,0,0,0-.76-.15c-.59-.12-1.18-.23-1.77-.32a10.32,10.32,0,0,0-4,.27c-.59.14-1.19.26-1.77.43a11.66,11.66,0,0,1-1.51.51A6.59,6.59,0,0,1,33,14.5a2.87,2.87,0,0,1-1.21-.57l.3,2.36c-.39.31.09,0,.22-.09s-.29.09,0,0l.28-.09a10.58,10.58,0,0,1,1.5-.36l.44-.07.23,0c.3,0,.61-.07.91-.09.67-.05,1.34-.08,2-.08s1.32,0,2,0c.36,0,.71,0,1.06.08s.65.06.79.09a16,16,0,0,1,1.7.33l.81.24.36.13c-.23-.09,0,0,.08.05a1.54,1.54,0,0,0,2-.54A1.5,1.5,0,0,0,46,13.85Z"/><path class="cls-1" d="M15.58,35.36l-.35.07a1.56,1.56,0,0,0-.9.69,1.67,1.67,0,0,0-.15,1.16l1.14,5.23a1.52,1.52,0,0,0,1.84,1.05l.43-.1a1.53,1.53,0,0,0,1.05-1.84l-1.22-5.21a1.5,1.5,0,0,0-1.84-1,1.54,1.54,0,0,0-1.05,1.85l1.21,5.2,1-1.84-.43.09,1.85,1.05-1.13-5.23-1,1.85.35-.08a1.5,1.5,0,0,0,1-1.84A1.54,1.54,0,0,0,15.58,35.36Z"/><path class="cls-1" d="M23.41,18.5l.08.2.15.36a1.31,1.31,0,0,0,.39.42.69.69,0,0,0,.33.19,1.06,1.06,0,0,0,.58.13h1.81a1.52,1.52,0,0,0,1.5-1.5V16.93A1.51,1.51,0,0,0,26,15.63L24.1,16.81a1.62,1.62,0,0,0-.69.89,1.11,1.11,0,0,0,0,.6,1.11,1.11,0,0,0,.17.56,1.51,1.51,0,0,0,2.06.54l1.88-1.18-2.25-1.29V18.3l1.5-1.5H24.94l1.44,1.1-.07-.2a1.26,1.26,0,0,0-.27-.51,1.18,1.18,0,0,0-.42-.38,1.16,1.16,0,0,0-.56-.18,1,1,0,0,0-.6,0,1.54,1.54,0,0,0-.9.68l-.15.36A1.55,1.55,0,0,0,23.41,18.5Z"/><path class="cls-1" d="M49.23,38.9c-.87-1.39-.69-2.25.32-2.82a4.71,4.71,0,0,1,1.38-.31c.06.53.36,1.23.13,1.56A9.57,9.57,0,0,1,49.23,38.9Z"/><path class="cls-1" d="M50.52,38.14a5.19,5.19,0,0,1-.35-.66l.15.36a3.48,3.48,0,0,1-.19-.65l.06.4a1.7,1.7,0,0,1,0-.39l0,.4a1.25,1.25,0,0,1,.08-.32l-.15.36a1.92,1.92,0,0,1,.18-.31l-.23.3a1.64,1.64,0,0,1,.3-.29l-.3.23a2.05,2.05,0,0,1,.43-.26l-.36.15a2.67,2.67,0,0,1,.69-.16l-.4.05c.32,0,.65-.07,1-.13l-1.9-1.45a8.5,8.5,0,0,0,.15.88,4.94,4.94,0,0,1,.1.53l0-.4a1.82,1.82,0,0,1,0,.33l0-.4,0,.13.15-.35a1.13,1.13,0,0,1-.13.2l.23-.3a4.64,4.64,0,0,1-.72.68l.31-.24c-.44.34-.9.66-1.33,1a1.48,1.48,0,0,0-.44,1.06,1.5,1.5,0,0,0,1.5,1.5l.4-.06a1.57,1.57,0,0,0,.66-.38l.17-.14-.3.24c.38-.3.77-.58,1.15-.87a5,5,0,0,0,1-1,2.15,2.15,0,0,0,.33-1.62c-.05-.39-.16-.77-.21-1.17l0,.4v0a1.47,1.47,0,0,0-.2-.76,1.12,1.12,0,0,0-.39-.42,1.54,1.54,0,0,0-1.3-.27l-.31,0,.4,0a4.42,4.42,0,0,0-2,.55,3.14,3.14,0,0,0-1.16,1.21,3,3,0,0,0-.31,1.14,2.76,2.76,0,0,0,.08.86,3.23,3.23,0,0,0,.25.74,6.46,6.46,0,0,0,.42.83,1.58,1.58,0,0,0,.9.69A1.52,1.52,0,0,0,50,40.19a1.5,1.5,0,0,0,.69-.89A1.57,1.57,0,0,0,50.52,38.14Z"/><path class="cls-1" d="M44.36,36.66l4.78,3.78c-2,.12-3.09-.65-5-3.51Z"/><path class="cls-1" d="M43.3,37.72l4.78,3.79,1.06-2.57a5.26,5.26,0,0,1-1,0l.4,0a3.52,3.52,0,0,1-.9-.24l.36.15a3.39,3.39,0,0,1-.72-.4l-.09-.07s.32.26.17.13-.12-.09-.17-.15-.26-.24-.39-.36l-.37-.41a2.11,2.11,0,0,0-.19-.23l-.1-.13c.15.2,0,0,0,0l-.1-.13-.21-.29c-.15-.21-.31-.43-.46-.66L45.16,38l.26-.27A1.5,1.5,0,1,0,43.3,35.6l-.26.27a1.53,1.53,0,0,0-.24,1.82,12.55,12.55,0,0,0,3,3.41,5.2,5.2,0,0,0,3.3.84A1.51,1.51,0,0,0,50.51,41a1.47,1.47,0,0,0-.31-1.64L45.42,35.6a1.59,1.59,0,0,0-1.06-.44,1.53,1.53,0,0,0-1.06.44,1.56,1.56,0,0,0-.44,1.06A1.48,1.48,0,0,0,43.3,37.72Z"/><path class="cls-1" d="M56.07,37.55a11,11,0,0,1,1.91.53,1.16,1.16,0,0,1,.56,1c-.08.35-.55.61-.86.9-.25-.26-.51-.52-.74-.79s-.7-.83-1-1.25Z"/><path class="cls-1" d="M55.67,39a12.41,12.41,0,0,1,1.79.47l-.36-.15a.85.85,0,0,1,.25.13L57,39.21a1.8,1.8,0,0,1,.19.2L57,39.1a1.94,1.94,0,0,1,.2.33L57,39.08a.66.66,0,0,1,.06.2l-.05-.39V39l.05-.4a.56.56,0,0,1,0,.12l.16-.36-.09.14.23-.3a6.7,6.7,0,0,1-.74.66h2.12c-.31-.33-.62-.64-.91-1s-.59-.7-.88-1.05l.23,1.82.18-.34a1.54,1.54,0,0,0,.15-1.15,1.49,1.49,0,0,0-.69-.9,1.5,1.5,0,0,0-2,.54l-.18.33-.15.36a1.11,1.11,0,0,0,0,.6.75.75,0,0,0,.1.38,1.14,1.14,0,0,0,.31.48c.29.35.58.71.88,1.06s.6.66.91,1a1.52,1.52,0,0,0,1.06.44A1.61,1.61,0,0,0,58.74,41l.45-.38a2.52,2.52,0,0,0,.59-.67,2.16,2.16,0,0,0-.14-2.28,2.92,2.92,0,0,0-.84-.84,2.79,2.79,0,0,0-.59-.26c-.11-.05-.22-.08-.33-.12-.46-.14-1-.22-1.41-.33a1.56,1.56,0,0,0-1.16.15,1.52,1.52,0,0,0-.69.9,1.49,1.49,0,0,0,.15,1.15A1.52,1.52,0,0,0,55.67,39Z"/><path class="cls-1" d="M24.89,46.56c-.82-3.12-.82-3.12.78-3.64C25.47,44.1,25.67,45.31,24.89,46.56Z"/><path class="cls-1" d="M26.34,46.16a19,19,0,0,1-.52-2.2l.05.39a2.25,2.25,0,0,1,0-.52l-.06.4a.76.76,0,0,1,.06-.2l-.15.36a1.09,1.09,0,0,1,.08-.15l-.23.31a.86.86,0,0,1,.13-.14l-.3.24a1.48,1.48,0,0,1,.35-.19l-.36.15c.22-.1.46-.17.69-.25l-1.85-1.84c-.12.76-.13,1.52-.23,2.28l.05-.4a4.58,4.58,0,0,1-.31,1.21l.15-.36a5.68,5.68,0,0,1-.28.55,1.51,1.51,0,0,0,.53,2.05,1.53,1.53,0,0,0,2.06-.54,5.62,5.62,0,0,0,.75-2.11c.09-.7.11-1.41.2-2.11l-.05.4,0-.17a1.55,1.55,0,0,0,0-.8,1.44,1.44,0,0,0-.39-.66,1.49,1.49,0,0,0-1.46-.39,11.73,11.73,0,0,0-1.12.43,2.3,2.3,0,0,0-1,.84A3.26,3.26,0,0,0,23,45.25c.13.57.28,1.14.43,1.7a1.56,1.56,0,0,0,.69.9,1.5,1.5,0,0,0,2.21-1.69Z"/><path class="cls-1" d="M53.3,21.83a6.29,6.29,0,0,1,.16,2c-.13.52-.68.95-1.14,1.54L53.13,22Z"/><path class="cls-1" d="M51.8,21.83c.05.49.15,1,.22,1.46l-.05-.4a3.47,3.47,0,0,1,0,.72l0-.4a1.28,1.28,0,0,1-.09.35l.15-.35a2.26,2.26,0,0,1-.26.42l.23-.31c-.26.33-.55.62-.81.95l2.51,1.46.8-3.35-.38.66.17-.15a1.5,1.5,0,0,0,0-2.12,1.52,1.52,0,0,0-1.06-.44,1.68,1.68,0,0,0-1.06.44,1.77,1.77,0,0,0-.59.92l-.1.45-.21.86-.47,1.93a1.55,1.55,0,0,0,.69,1.7,1.83,1.83,0,0,0,.76.2,1.5,1.5,0,0,0,1.06-.44c.21-.27.45-.52.68-.78a4,4,0,0,0,.81-1.31,3.11,3.11,0,0,0,.13-.8A3,3,0,0,0,55,23c-.06-.48-.15-.95-.22-1.43l.05.4s0-.08,0-.12a1.66,1.66,0,0,0-.44-1.06,1.52,1.52,0,0,0-1.06-.44,1.5,1.5,0,0,0-1.06.44A1.46,1.46,0,0,0,51.8,21.83Z"/><path class="cls-1" d="M92.83,59.16,91.34,67.6a.42.42,0,0,1-.45.4H89.43c-.28,0-.39-.13-.35-.4l1.45-8.36a.42.42,0,0,1,.45-.38H92.5Q92.89,58.86,92.83,59.16Zm.54-3.07-.22,1.23q0,.51-.45.51H91.19c-.26,0-.38-.13-.34-.4l.21-1.21a.41.41,0,0,1,.45-.4H93C93.29,55.82,93.4,55.91,93.37,56.09Z"/><path class="cls-1" d="M91.38,58.77l-.67,3.81-.5,2.82a11,11,0,0,0-.3,1.7s0,.1,0,.1l0-.08a1.14,1.14,0,0,1,1-.62h0a1.92,1.92,0,0,0-.24,0h-.75c-.11,0-.22,0-.33,0-.39,0,.12-.3.64.31l.39.66s-.06.67,0,.47a1.7,1.7,0,0,0,0-.22l.14-.83.45-2.58.48-2.79c.1-.57.26-1.17.31-1.76,0,0,0-.08,0-.12s-1.15.67-1,.72h1.36c.27,0,0,.12-.37-.13l-.54-.54-.15-.53a1.49,1.49,0,0,0,1.5,1.5,1.54,1.54,0,0,0,1.5-1.5,1.72,1.72,0,0,0-1.22-1.72,3,3,0,0,0-.9-.08c-.41,0-.82,0-1.23,0a2,2,0,0,0-1.91,1.56L89,59.6l-1,6c-.09.54-.2,1.08-.28,1.61a2.17,2.17,0,0,0,.18,1.44,1.86,1.86,0,0,0,1.63.87q.66,0,1.32,0a2,2,0,0,0,2-1.51c0-.15,0-.32.08-.48l.46-2.58.94-5.37a1.5,1.5,0,1,0-2.89-.79Z"/><path class="cls-1" d="M91.92,55.69c-.1.55-.21,1.11-.27,1.66l0-.39a1,1,0,0,1-.06.23l.15-.36-.05.1.23-.31-.07.08.3-.24-.06,0,.35-.15a.28.28,0,0,1-.13,0l.4-.05c-.27,0-.55,0-.82,0a7.85,7.85,0,0,1-.84,0l.39.05-.1,0,.36.15,0,0,.3.23s0,0-.05-.05l.24.31,0-.06.15.35s0,0,0-.07l.06.4a.43.43,0,0,1,0-.16l-.06.4.12-.67a3.34,3.34,0,0,1,.14-.7l-.15.35,0-.07-.23.3.08-.08L92,57.2l.07,0-.36.15.12,0-.4.06a6,6,0,0,1,.85,0,8.61,8.61,0,0,1,.88,0l-.4-.06.12,0-.36-.15,0,0-.3-.24,0,.05-.23-.31v0l-.15-.36,0,.07-.06-.4v.05l.06-.4v0a1.11,1.11,0,0,0,0,.6,1,1,0,0,0,.17.55,1.51,1.51,0,0,0,2.06.54,1.47,1.47,0,0,0,.69-.89,1.77,1.77,0,0,0,0-.68,1.37,1.37,0,0,0-.2-.62,1.73,1.73,0,0,0-1-.78,1.93,1.93,0,0,0-.68-.09H91.54a2,2,0,0,0-1,.26,1.93,1.93,0,0,0-.9,1.24c-.08.4-.14.81-.21,1.21a2.16,2.16,0,0,0,0,1,1.94,1.94,0,0,0,.47.81,1.82,1.82,0,0,0,1.33.51c.22,0,.43,0,.65,0h.81a1.88,1.88,0,0,0,1.72-1,2.55,2.55,0,0,0,.27-1l-.05.39.22-1.22a1.73,1.73,0,0,0-.16-1.16,1.53,1.53,0,0,0-.89-.69,1.51,1.51,0,0,0-1.16.15A1.49,1.49,0,0,0,91.92,55.69Z"/><path class="cls-1" d="M97.49,59.16,96,67.6a.41.41,0,0,1-.44.4H94.09c-.28,0-.39-.13-.34-.4l1.44-8.36a.42.42,0,0,1,.46-.38h1.51Q97.55,58.86,97.49,59.16ZM98,56.09l-.22,1.23c0,.34-.18.51-.44.51H95.85c-.26,0-.37-.13-.34-.4l.21-1.21a.42.42,0,0,1,.45-.4h1.52C98,55.82,98.06,55.91,98,56.09Z"/><path class="cls-1" d="M96,58.77l-.67,3.81-.5,2.82a12.35,12.35,0,0,0-.3,1.7s0,.1,0,.1l0-.08a1.14,1.14,0,0,1,1-.62h0a1.77,1.77,0,0,0-.23,0h-.76c-.11,0-.22,0-.33,0-.39,0,.13-.3.65.31l.38.66s-.06.67,0,.47a1.7,1.7,0,0,0,0-.22l.15-.83.44-2.58.49-2.79c.1-.57.25-1.17.3-1.76,0,0,0-.08,0-.12s-1.15.67-1,.72h1.36c.28,0,0,.12-.37-.13l-.54-.54L96,59.16a1.5,1.5,0,0,0,1.5,1.5,1.54,1.54,0,0,0,1.5-1.5,1.72,1.72,0,0,0-1.22-1.72,3,3,0,0,0-.9-.08c-.41,0-.82,0-1.22,0a2,2,0,0,0-1.92,1.56c0,.23-.07.46-.11.68l-1,6c-.09.54-.19,1.08-.28,1.61a2.17,2.17,0,0,0,.18,1.44,1.88,1.88,0,0,0,1.64.87c.43,0,.87,0,1.31,0a2,2,0,0,0,2-1.51c0-.15,0-.32.08-.48L98,64.93l.94-5.37A1.5,1.5,0,1,0,96,58.77Z"/><path class="cls-1" d="M96.58,55.69c-.09.55-.21,1.11-.27,1.66l0-.39a1,1,0,0,1-.06.23l.15-.36,0,.1.23-.31-.07.08.3-.24-.06,0,.36-.15-.13,0,.4-.05c-.28,0-.56,0-.83,0a7.85,7.85,0,0,1-.84,0l.4.05-.11,0,.36.15,0,0,.3.23,0-.05.24.31,0-.06.15.35a.19.19,0,0,0,0-.07l.06.4a.43.43,0,0,1,0-.16l-.05.4.11-.67a3.34,3.34,0,0,1,.14-.7l-.15.35,0-.07-.24.3A.6.6,0,0,1,97,57l-.31.24.07,0-.35.15.11,0-.4.06a6.17,6.17,0,0,1,.86,0,8.45,8.45,0,0,1,.87,0l-.4-.06.12,0-.36-.15,0,0-.3-.24L97,57l-.24-.31v0l-.15-.36a.19.19,0,0,1,0,.07l0-.4a.09.09,0,0,1,0,.05l.06-.4v0a1.11,1.11,0,0,0,0,.6,1.09,1.09,0,0,0,.18.55,1.47,1.47,0,0,0,.89.69,1.51,1.51,0,0,0,1.16-.15,1.47,1.47,0,0,0,.69-.89,1.77,1.77,0,0,0,0-.68,1.37,1.37,0,0,0-.2-.62,1.75,1.75,0,0,0-1-.78,2,2,0,0,0-.69-.09H96.2a1.92,1.92,0,0,0-1.93,1.5c-.08.4-.14.81-.21,1.21a2.31,2.31,0,0,0,0,1,1.82,1.82,0,0,0,.46.81,1.85,1.85,0,0,0,1.34.51c.21,0,.43,0,.64,0h.82a2.08,2.08,0,0,0,1-.26,1.93,1.93,0,0,0,.68-.71,2.55,2.55,0,0,0,.27-1l0,.39.22-1.22a1.82,1.82,0,0,0-.15-1.16,1.55,1.55,0,0,0-.9-.69,1.52,1.52,0,0,0-1.16.15A1.49,1.49,0,0,0,96.58,55.69Z"/><path class="cls-1" d="M104.06,60.8h-1.91L101.41,65c0,.21,0,.39,0,.54a.67.67,0,0,0,.23.6,1.36,1.36,0,0,0,.78.17,2.38,2.38,0,0,0,.41,0l.33,0a.28.28,0,0,1,.25.07.31.31,0,0,1,0,.28l-.07,1c0,.19-.14.32-.39.4a4.32,4.32,0,0,1-1.33.19,3.1,3.1,0,0,1-1.91-.48,1.82,1.82,0,0,1-.63-1.55,5.49,5.49,0,0,1,.08-.94L100,60.8H99c-.28,0-.39-.13-.35-.4l.17-1a.42.42,0,0,1,.45-.4h1l.38-2.13a.42.42,0,0,1,.47-.37h1.36c.27,0,.39.12.34.36L102.46,59h1.89c.29,0,.4.13.33.4l-.16,1A.42.42,0,0,1,104.06,60.8Z"/><path class="cls-1" d="M104.06,59.3h-1.91a1.51,1.51,0,0,0-1.45,1.1l-.61,3.51a5.47,5.47,0,0,0-.14,2.2,2.08,2.08,0,0,0,1.51,1.59,3.32,3.32,0,0,0,1.13.11c.21,0,.41-.07.62-.09-.23,0-.08,0,.08,0l-.76-.2.1.06-.54-.54,0,.11-.2-.76a8.13,8.13,0,0,0-.07,1.1c-.08-1,1.28-1.09.34-.91a2,2,0,0,1-.36,0,3.62,3.62,0,0,1-.93-.07c-.06,0-.48-.12-.21-.06-.42-.09.27,0-.13-.1.11,0,.11.34,0,0s0,.08,0-.3a3.7,3.7,0,0,1,.08-.79l.73-4.12A1.52,1.52,0,0,0,100,59.3a9.73,9.73,0,0,1-1.08,0l.76.21.13.11.38.66c.14.49-.06.7,0,.32l.06-.32c0-.09.05-.21.05-.3,0-.25.2-.13-.17.19l-.66.39c-.1,0-.21,0,0,0h.84a1.52,1.52,0,0,0,1.45-1.1l.2-1.12.12-.7a1.11,1.11,0,0,0,0-.25c0-.19.3-.09-.18.29l-.66.39c-.16.06-.14,0,0,0h1c.21,0,.24.07.07,0l-.66-.39.07.07-.39-.66c-.15-.53.07-.74,0-.46a1.55,1.55,0,0,0,0,.21l-.13.75L101,58.63a1.53,1.53,0,0,0,1.45,1.9h1.62c.17,0,.38.09.1,0l-.66-.38-.13-.18-.2-.75c0-.2,0-.23,0-.05s0,.24-.06.36-.05.24-.05.35c0,.26-.19.11.16-.19l.66-.39h.14a1.54,1.54,0,0,0-1.5,1.5,1.51,1.51,0,0,0,1.5,1.5,2,2,0,0,0,2-1.82c.14-.86.36-1.75-.35-2.44s-2.22-.51-3.21-.51l1.44,1.9c.12-.67.24-1.33.35-2a1.91,1.91,0,0,0-.75-2.14,3.06,3.06,0,0,0-1.58-.26,5,5,0,0,0-1.34.07,1.94,1.94,0,0,0-1.38,1.51c-.15.67-.24,1.35-.36,2l1.44-1.1a6.35,6.35,0,0,0-1.51.07c-1,.26-1.3,1.13-1.46,2s-.13,2.11,1,2.52a4.62,4.62,0,0,0,1.66.15l-1.45-1.9-.6,3.32c-.32,1.83-.74,4,1,5.24a5.37,5.37,0,0,0,4,.55,2.43,2.43,0,0,0,1.72-1.1,3.18,3.18,0,0,0,.26-1.4,2.28,2.28,0,0,0-.22-1.47,1.74,1.74,0,0,0-1-.75,3.45,3.45,0,0,0-1.28,0c.25,0,0,0,0,0-.32,0-.2-.06.16.31s.31.52.33.26,0-.06,0,0c0-.16,0-.31.08-.46l.65-3.75-1.44,1.1h1.91A1.5,1.5,0,0,0,104.06,59.3Z"/><path class="cls-1" d="M112.45,66.72l-.22,1a.47.47,0,0,1-.47.31h-1.42c-.28,0-.4-.13-.35-.4l2-11.43a.43.43,0,0,1,.47-.38H114c.29,0,.4.13.36.39l-.73,3.92A3.2,3.2,0,0,1,114.89,59a3.77,3.77,0,0,1,1.69-.38,3.21,3.21,0,0,1,2.4.87,3.44,3.44,0,0,1,.86,2.55,7,7,0,0,1-.13,1.37q-.81,4.75-4.44,4.75a4.19,4.19,0,0,1-1.79-.38A1.83,1.83,0,0,1,112.45,66.72Zm.57-3.29a4.92,4.92,0,0,0-.09,1c0,1.29.6,1.93,1.79,1.93a2.3,2.3,0,0,0,1.75-.68,4.17,4.17,0,0,0,.91-2.23,7.46,7.46,0,0,0,.12-1.09c0-1.22-.58-1.83-1.75-1.83C114.26,60.5,113.35,61.48,113,63.43Z"/><path class="cls-1" d="M111,66.32l-.11.48c0,.11-.06.21-.07.31-.07.44-.18-.19.34-.42l.76-.21a8.34,8.34,0,0,1-1.73,0l.76.2.12.11.39.66s-.1.74,0,.47a2.21,2.21,0,0,0,0-.25l.14-.82.49-2.78,1.07-6.14.18-1a2.74,2.74,0,0,0,0-.28c0-.2.25-.09-.17.26l-.67.38c-.17.07-.11,0,0,0h.6c.3,0,.62,0,.92,0l-.76-.2-.12-.11-.38-.66c-.13-.44.07-.73,0-.38,0,.14,0,.28-.08.42l-.25,1.37-.37,2a1.51,1.51,0,0,0,2.75,1.16,2.07,2.07,0,0,1,1.65-.71,1.85,1.85,0,0,1,1.34.43c.21.2,0,0,.14.18,0,0,.19.42.12.23a2.5,2.5,0,0,1,.16,1A7.48,7.48,0,0,1,118,64.3a4.52,4.52,0,0,1-.68,1.47c-.15.22.09-.06-.15.17l-.29.28c-.08.06-.06,0,.06,0l-.16.11-.39.22c.23-.12,0,0-.12,0l-.39.1c-.37.1.26,0-.15,0l-.43,0a2.53,2.53,0,0,1-1-.18l-.32-.17c-.08,0-.11-.21,0,0a1.53,1.53,0,0,0-1.84-1,1.51,1.51,0,0,0-1,1.85,4.48,4.48,0,0,0,4.91,2.53,5.4,5.4,0,0,0,3.93-2.31,9.55,9.55,0,0,0,1.5-5,4.72,4.72,0,0,0-2.48-4.67,5.32,5.32,0,0,0-6.52,1.72l2.74,1.15.43-2.32c.19-1,.7-2.46-.12-3.31a2.49,2.49,0,0,0-2-.58,5.49,5.49,0,0,0-1.62.11c-1,.31-1.21,1.16-1.37,2-.61,3.54-1.25,7.07-1.85,10.6a2.29,2.29,0,0,0,.14,1.59c.5.85,1.42.89,2.28.89a2.8,2.8,0,0,0,2.22-.61,3.5,3.5,0,0,0,.68-1.77,1.53,1.53,0,0,0-1-1.85A1.51,1.51,0,0,0,111,66.32Z"/><path class="cls-1" d="M111.57,63a5.41,5.41,0,0,0,.06,2.71,3,3,0,0,0,1.88,1.91,3.94,3.94,0,0,0,4.63-1.75,7,7,0,0,0,.75-2.49,4.88,4.88,0,0,0-.09-2.4,3,3,0,0,0-2-1.86,4.3,4.3,0,0,0-2.28,0,4.58,4.58,0,0,0-3,3.87,1.59,1.59,0,0,0,.15,1.15,1.52,1.52,0,0,0,.9.69,1.51,1.51,0,0,0,1.84-1.05,6.39,6.39,0,0,1,.2-.84,1.2,1.2,0,0,1,.13-.36s-.17.36-.06.15l.09-.19.18-.29c.14-.21-.22.25-.1.12s.07-.08.11-.11.13-.13.2-.2-.34.24-.14.11l.15-.1.14-.07c.15-.09-.4.15-.17.07l.3-.09.12,0c.26-.06-.36,0-.17,0s.26,0,.38,0H116c.2,0-.41-.09-.15,0a3.19,3.19,0,0,0,.31.09s-.35-.19-.19-.08l.13.08c.15.08-.32-.27-.15-.11s.12.21-.08-.13l.15.26c-.23-.4-.07-.18,0,0s0,.1,0,.14c-.1-.4,0-.27,0-.13v.38a2.85,2.85,0,0,0,0,.4s.06-.38,0-.1c0,.09,0,.17,0,.26a8.1,8.1,0,0,1-.24,1l-.06.16c-.1.3.16-.32,0,0-.05.1-.1.2-.16.3l-.1.15c.14-.29.2-.24.11-.14l-.15.16c-.1.1-.29.15.06,0a2,2,0,0,0-.35.2s.35-.12.13-.06l-.2.06c-.13,0-.3,0,.1,0l-.18,0c-.16,0-.32,0-.49,0,.4,0,.32.05.2,0l-.22,0c-.15,0-.18-.15.15.07l-.15-.09c-.2-.1.19.14.16.14s-.1-.11-.14-.14.23.35.11.14l-.09-.16c-.12-.21.1.33.07.16s-.05-.15-.07-.23,0-.09,0-.14c.12.42,0,.25,0,.1a3.37,3.37,0,0,1,0-.55c0-.07,0-.13,0-.2s0-.12,0,.12l0-.19a1.64,1.64,0,0,0-.15-1.15,1.5,1.5,0,0,0-2.74.36Z"/><path class="cls-1" d="M125,68.19a4.09,4.09,0,0,1-2.86-.94,3.45,3.45,0,0,1-1-2.7,7,7,0,0,1,.1-1.15A6,6,0,0,1,123,59.86a4.87,4.87,0,0,1,3.4-1.21,4.12,4.12,0,0,1,2.87.94,3.45,3.45,0,0,1,1,2.7,7.05,7.05,0,0,1-.11,1.15A6,6,0,0,1,128.41,67,4.87,4.87,0,0,1,125,68.19Zm.18-1.84c1.42,0,2.31-1,2.66-2.93a5.74,5.74,0,0,0,.11-1c0-1.28-.59-1.91-1.76-1.91-1.42,0-2.31,1-2.67,2.93a6.73,6.73,0,0,0-.1,1C123.42,65.72,124,66.35,125.18,66.35Z"/><path class="cls-1" d="M125,66.69h-.58c.2,0-.27,0-.24,0l-.27-.07-.26-.08c.26.09,0,0-.07,0l-.22-.13-.17-.1c.12.09.14.1.06,0s-.41-.47-.23-.21a2.82,2.82,0,0,1-.26-.44c.13.26,0,0,0-.07s-.06-.22-.09-.33-.06-.29,0,0a3.4,3.4,0,0,1,0-.45,6,6,0,0,1,.5-2.51c-.1.23,0,0,0,0s.1-.2.16-.3.2-.33.31-.5c-.16.25.1-.11.17-.18s.15-.15.22-.22.34-.28.22-.19l.12-.08.3-.17.24-.13c-.23.11,0,0,0,0a4.24,4.24,0,0,1,.61-.17,2.29,2.29,0,0,1,.36-.07c-.27,0,.15,0,.2,0h.64l.31,0c-.26,0,0,0,.12,0l.6.17c-.06,0-.25-.12,0,0l.34.19c.23.14.05,0,0,0l.19.17s.27.31.13.13.1.16.1.16l.12.23c-.13-.23,0-.07,0,0s0,.18.07.26.09.43,0,.17a5.18,5.18,0,0,1-.33,2.63c0,.11-.08.22-.13.33.1-.23-.05.09-.08.15s-.22.38-.33.57-.17.23,0,0a3.22,3.22,0,0,1-.24.28,5.11,5.11,0,0,1-.48.45c.2-.16,0,0,0,0s-.23.15-.35.21l-.25.13c.27-.13-.09,0-.15,0l-.34.09-.3.07c.17,0-.14,0-.17,0l-.55,0a1.5,1.5,0,0,0,0,3,6.38,6.38,0,0,0,5.9-3.63c1-2.29,1.44-5.52-.52-7.45s-5.09-1.86-7.29-.67-3.35,3.83-3.48,6.3a5.17,5.17,0,0,0,1.38,4,5.72,5.72,0,0,0,4,1.46,1.5,1.5,0,0,0,0-3Z"/><path class="cls-1" d="M125.18,67.85a3.92,3.92,0,0,0,3.59-2.39,8.08,8.08,0,0,0,.67-2.83,3.74,3.74,0,0,0-.56-2.33,3.14,3.14,0,0,0-2.43-1.3,3.79,3.79,0,0,0-2.23.5c-1.53.89-2.07,2.7-2.26,4.36a3.92,3.92,0,0,0,.53,2.68,3.18,3.18,0,0,0,2.69,1.31,1.5,1.5,0,0,0,0-3H125c-.13,0-.19-.08.19,0l-.32-.08c-.24-.07.3.17.16.07a.47.47,0,0,0-.12-.07c-.21-.11.25.23.14.11s-.15-.26.06.11c0,0-.12-.26-.15-.26s.13.38.08.18,0-.11,0-.16,0-.12,0-.18c.11.37,0,.29,0,.14a3.69,3.69,0,0,1,0-.47c0-.1,0-.2,0-.3s0-.23,0,.08a2.22,2.22,0,0,1,.1-.5c.06-.3.21-.6.26-.9,0,0-.16.36-.06.15l.08-.17c0-.09.1-.18.16-.27l.12-.17c-.22.35-.19.23-.11.15l.26-.27c-.27.29-.25.18-.13.11a.57.57,0,0,1,.13-.08l.1-.06c.14-.07.27-.05-.13,0L126,62l.13,0c-.45.13-.27,0-.11,0h.32c.17,0,.29.1-.11,0l.13,0,.19.06c.12,0,.1.12-.19-.08l.15.09c.2.09-.3-.26-.12-.1s-.2-.32,0,0l.06.11c.13.22-.12-.38-.06-.13,0,.07.12.28.09.34s0-.43,0-.18a1.93,1.93,0,0,1,0,.24,3.69,3.69,0,0,1,0,.47v.1c0,.16,0,.14,0-.08a.78.78,0,0,1,0,.22,7.77,7.77,0,0,1-.24.95l-.06.15c-.09.27.17-.34,0,0-.06.12-.12.24-.19.36l-.11.17c-.14.2.25-.29.07-.1,0,0-.27.25-.27.27s.33-.24.16-.13l-.15.1-.16.09c-.22.11.37-.13.13-.06l-.36.09c.4-.11.33,0,.2,0h-.26a1.5,1.5,0,0,0,0,3Z"/><path class="cls-1" d="M140.05,62.53l-.87,5.07a.41.41,0,0,1-.44.4h-1.46c-.27,0-.39-.13-.35-.4l.93-5.24a4.55,4.55,0,0,0,0-.61c0-.76-.4-1.14-1.21-1.14a2.13,2.13,0,0,0-1.5.56,2.61,2.61,0,0,0-.76,1.47l-.87,5a.41.41,0,0,1-.44.4h-1.45c-.29,0-.41-.13-.36-.4l1.46-8.34a.43.43,0,0,1,.46-.4h1.36a.41.41,0,0,1,.3.09.31.31,0,0,1,.06.25l-.08.91a3.34,3.34,0,0,1,2.85-1.46c1.41,0,2.22.51,2.43,1.54a3.75,3.75,0,0,1,3.18-1.54,2.6,2.6,0,0,1,1.89.63,2.44,2.44,0,0,1,.64,1.83,4.45,4.45,0,0,1-.12,1l-1,5.5c0,.27-.19.4-.43.4h-1.47c-.27,0-.39-.13-.36-.4l.93-5.22a3.34,3.34,0,0,0,0-.61c0-.77-.41-1.16-1.23-1.16a2.14,2.14,0,0,0-1.47.54A2.43,2.43,0,0,0,140.05,62.53Z"/><path class="cls-1" d="M138.6,62.13l-.44,2.61-.3,1.72a5.21,5.21,0,0,0-.1.57c0,.08-.08.19,0,.11l.54-.53c.44-.26.57-.08.2-.11-.15,0-.31,0-.47,0s-.32,0-.47,0c-.38,0-.21-.15.21.11l.53.53-.06-.12.21.76c0,.27-.05.22,0,0s.09-.49.13-.73l.35-1.94a19,19,0,0,0,.52-3.35c0-2.83-3.49-3.33-5.27-1.64-1,1-1.19,2.36-1.42,3.7l-.4,2.27-.14.8c0,.1-.1.34-.05.26l.54-.53c.45-.26.57-.08.21-.11-.18,0-.37,0-.55,0s-.54,0-.8,0l.76.2.12.11.38.66c.15.51-.07.71,0,.43a2.17,2.17,0,0,0,0-.25l.17-.94.51-2.94.5-2.85.16-.93c0-.1.11-.34.06-.27l-.54.54c-.46.25-.55.08-.21.11h.88c.37,0,.2.15-.22-.11l-.54-.54.06.11-.2-.76a7.42,7.42,0,0,1-.08,1,1.51,1.51,0,0,0,1.1,1.44,1.56,1.56,0,0,0,1.69-.69,2,2,0,0,1,1.78-.71,5.24,5.24,0,0,1,.63.14c.18,0,.11.1,0,0,.08.16.1.17,0,0,0,.1.06.21.08.31a1.51,1.51,0,0,0,2.51.66,2.51,2.51,0,0,1,1.56-1.06c.4-.07,1.19-.07,1.38.13.46.46.12,1.52,0,2.14l-.52,3-.22,1.25c0,.12-.12.53-.08.46l.54-.53c.42-.26.6-.08.24-.11-.16,0-.34,0-.5,0s-.34,0-.51,0c-.36,0-.17-.15.23.11l.54.53-.06-.12.21.76c0,.33,0,.21,0,0s.06-.35.09-.52l.27-1.5c.17-1,.35-1.9.51-2.86.25-1.49.07-3.23-1.66-3.71a3.78,3.78,0,0,0-4.62,2.89c-.42,1.88,2.47,2.68,2.89.8a1.08,1.08,0,0,1,.31-.64c.17-.16.35-.08.48-.18-.06,0,0-.63.14,0,.05.23-.4-.31-.39-.31s-.07.53,0,.21c-.11.69-.25,1.38-.37,2.07l-.48,2.69a7.58,7.58,0,0,0-.13.81,1.86,1.86,0,0,0,1.88,1.9c1,.06,2.39.14,3-.84a5.51,5.51,0,0,0,.54-2c.29-1.69.73-3.42.87-5.14a3.77,3.77,0,0,0-3-4.23,5.42,5.42,0,0,0-5.22,1.89l2.51.66a3.55,3.55,0,0,0-3.45-2.62,5.1,5.1,0,0,0-4.58,2.18l2.8.76c.11-1.17,0-2.4-1.38-2.7a5.19,5.19,0,0,0-2.51.1c-1.37.52-1.36,2.51-1.57,3.72l-.85,4.88c-.07.36-.14.72-.2,1.09a1.88,1.88,0,0,0,.79,2,2.73,2.73,0,0,0,1.46.27c1.22,0,2.53,0,2.9-1.5.12-.49.18-1,.26-1.51l.44-2.51a4,4,0,0,1,.39-1.58c.1-.13.66-.5.72-.27s-.38-.29-.37-.29c-.23,0,.34-.39-.06.11,0,0-.06.5,0,0,0,0,0,.05,0,.07l-.33,1.84-.44,2.48a3.2,3.2,0,0,0,.06,2.3c.59,1,2,.91,3.05.84,1.31-.08,1.8-1,2-2.14l.75-4.43a1.55,1.55,0,0,0-1-1.85A1.53,1.53,0,0,0,138.6,62.13Z"/><path class="cls-1" d="M149.55,66.72l-.22,1a.45.45,0,0,1-.46.31h-1.42c-.28,0-.4-.13-.36-.4l2-11.43a.42.42,0,0,1,.47-.38h1.55q.42,0,.36.39l-.73,3.92A3.2,3.2,0,0,1,152,59a3.74,3.74,0,0,1,1.69-.38,3.24,3.24,0,0,1,2.4.87,3.48,3.48,0,0,1,.86,2.55,7,7,0,0,1-.14,1.37q-.8,4.75-4.43,4.75a4.16,4.16,0,0,1-1.79-.38A1.88,1.88,0,0,1,149.55,66.72Zm.57-3.29a5,5,0,0,0-.08,1c0,1.29.59,1.93,1.79,1.93a2.3,2.3,0,0,0,1.75-.68,4.17,4.17,0,0,0,.91-2.23,7.46,7.46,0,0,0,.12-1.09c0-1.22-.59-1.83-1.76-1.83C151.36,60.5,150.45,61.48,150.12,63.43Z"/><path class="cls-1" d="M148.11,66.32l-.11.48c0,.11-.06.21-.08.31-.06.44-.17-.19.35-.42l.75-.21a8.24,8.24,0,0,1-1.72,0l.76.2.12.11.38.66s-.09.74,0,.47a2.17,2.17,0,0,0,0-.25l.15-.82.48-2.78,1.08-6.14.17-1a.92.92,0,0,0,.05-.28c0-.2.25-.09-.17.26l-.66.38c-.17.07-.12,0,0,0h.6c.31,0,.62,0,.93,0l-.76-.2-.12-.11-.39-.66c-.12-.44.08-.73,0-.38,0,.14-.05.28-.08.42l-.25,1.37-.37,2A1.51,1.51,0,0,0,152,60.86a2.1,2.1,0,0,1,1.66-.71,1.88,1.88,0,0,1,1.34.43c.2.2,0,0,.14.18,0,0,.19.42.12.23a2.71,2.71,0,0,1,.16,1,7.78,7.78,0,0,1-.37,2.34,4.77,4.77,0,0,1-.69,1.47c-.14.22.1-.06-.15.17l-.28.28,0,0-.15.11-.39.22c.23-.12,0,0-.13,0l-.38.1c-.38.1.25,0-.15,0l-.43,0a2.6,2.6,0,0,1-1-.18l-.31-.17c-.08,0-.11-.21,0,0a1.54,1.54,0,0,0-1.85-1,1.51,1.51,0,0,0-1,1.85A4.48,4.48,0,0,0,153,69.65a5.38,5.38,0,0,0,3.92-2.31,9.56,9.56,0,0,0,1.51-5A4.76,4.76,0,0,0,156,57.63a5.33,5.33,0,0,0-6.53,1.72l2.74,1.15.43-2.32c.19-1,.7-2.46-.11-3.31a2.5,2.5,0,0,0-2-.58,5.51,5.51,0,0,0-1.62.11c-1,.31-1.21,1.16-1.36,2-.62,3.54-1.26,7.07-1.85,10.6a2.29,2.29,0,0,0,.14,1.59c.5.85,1.41.89,2.28.89a2.82,2.82,0,0,0,2.22-.61,3.5,3.5,0,0,0,.68-1.77A1.53,1.53,0,0,0,150,65.27,1.51,1.51,0,0,0,148.11,66.32Z"/><path class="cls-1" d="M148.68,63a5.41,5.41,0,0,0,0,2.71,3,3,0,0,0,1.89,1.91,3.92,3.92,0,0,0,4.62-1.75,7.06,7.06,0,0,0,.76-2.49,4.88,4.88,0,0,0-.1-2.4A3,3,0,0,0,154,59.15a4.3,4.3,0,0,0-2.28,0,4.57,4.57,0,0,0-3,3.87,1.5,1.5,0,0,0,1,1.84,1.52,1.52,0,0,0,1.85-1.05,6.39,6.39,0,0,1,.2-.84,1.2,1.2,0,0,1,.13-.36s-.17.36-.07.15a1.74,1.74,0,0,0,.1-.19c0-.1.12-.19.18-.29s-.23.25-.1.12l.1-.11.2-.2c.13-.12-.34.24-.13.11l.15-.1.13-.07c.15-.09-.4.15-.16.07l.29-.09.13,0c.25-.06-.36,0-.17,0s.25,0,.38,0h.19c.19,0-.41-.09-.15,0a3.19,3.19,0,0,0,.31.09s-.36-.19-.19-.08l.12.08c.16.08-.31-.27-.14-.11s.11.21-.08-.13l.15.26c-.23-.4-.08-.18,0,0s0,.1,0,.14c-.1-.4,0-.27,0-.13a2.41,2.41,0,0,1,0,.38c0,.13,0,.28,0,.4s.06-.38,0-.1a2.34,2.34,0,0,0,0,.26,6.65,6.65,0,0,1-.25,1l-.06.16c-.09.3.17-.32,0,0-.06.1-.1.2-.16.3a1.3,1.3,0,0,0-.1.15c.14-.29.19-.24.11-.14l-.15.16c-.1.1-.29.15,0,0a1.9,1.9,0,0,0-.34.2s.35-.12.13-.06l-.2.06c-.13,0-.3,0,.1,0l-.18,0c-.17,0-.33,0-.49,0,.39,0,.32.05.19,0l-.22,0c-.14,0-.17-.15.16.07l-.15-.09c-.2-.1.19.14.16.14s-.11-.11-.14-.14.22.35.11.14l-.09-.16c-.12-.21.1.33.06.16a2,2,0,0,0-.06-.23.89.89,0,0,0,0-.14c.13.42,0,.25,0,.1a5,5,0,0,1,0-.55c0-.07,0-.13,0-.2s0-.12,0,.12l0-.19a1.64,1.64,0,0,0-.15-1.15,1.55,1.55,0,0,0-.9-.69A1.51,1.51,0,0,0,148.68,63Z"/><path class="cls-1" d="M166.62,62.07l-1,5.53a.41.41,0,0,1-.44.4h-1.28q-.36,0-.36-.33l.11-.94a3.89,3.89,0,0,1-3.17,1.43,3,3,0,0,1-2-.63,2,2,0,0,1-.73-1.65A3.33,3.33,0,0,1,158,64.5a2.39,2.39,0,0,1,.8-1,5.34,5.34,0,0,1,1.11-.58,5.61,5.61,0,0,1,1.38-.32c.52-.07,1-.11,1.44-.14s.92,0,1.44-.06h.19l.07-.39a1.26,1.26,0,0,0-.26-1.2,2.18,2.18,0,0,0-1.49-.39,7.31,7.31,0,0,0-2.66.52q-.41.13-.45-.24l-.14-1a.43.43,0,0,1,.33-.48,9.05,9.05,0,0,1,3.39-.66q3.51,0,3.51,2.6A5.55,5.55,0,0,1,166.62,62.07ZM164,64.55l.13-.73-1,0q-.33,0-.93.09a3.71,3.71,0,0,0-.9.18,4.59,4.59,0,0,0-.66.29,1.19,1.19,0,0,0-.51.48,1.44,1.44,0,0,0-.15.67.86.86,0,0,0,.34.72,1.51,1.51,0,0,0,1,.28,2.89,2.89,0,0,0,1.85-.56A2.48,2.48,0,0,0,164,64.55Z"/><path class="cls-1" d="M165.18,61.67l-.67,3.81a11.91,11.91,0,0,0-.29,1.67c0,.48,1-.64,1-.65a2.81,2.81,0,0,0-.41,0h-.56a1.77,1.77,0,0,0-.23,0c-.34,0,.12-.42.67.29l.39.67c.08.23,0,.27,0,.11a1.65,1.65,0,0,0,0-.32l.06-.52a1.52,1.52,0,0,0-2.57-1.06,3.18,3.18,0,0,1-.58.58c.24-.18-.08,0-.13.07l-.36.19c.29-.13-.08,0-.15,0a2.88,2.88,0,0,1-.4.09c.29-.06-.14,0-.18,0h-.46s-.49-.06-.19,0l-.4-.1c-.35-.09.18.14-.11,0-.08,0-.32-.26-.1,0,0,0-.3-.34-.12-.08,0-.06-.2-.39-.09-.1a1.64,1.64,0,0,1-.1-.38c0,.33,0-.18,0-.2v-.16c0,.13,0,.1,0-.08s.14-.45,0-.21a1.68,1.68,0,0,1,.21-.37c-.15.2.08-.06.13-.11-.2.18.13-.07.18-.1l.41-.23.15-.07c-.12.05-.09.05.06,0l.43-.13a15.41,15.41,0,0,1,3.49-.29,1.53,1.53,0,0,0,1.45-1.1,4.64,4.64,0,0,0,.08-1.89,2.57,2.57,0,0,0-1.69-1.77,5.3,5.3,0,0,0-2.17-.19,10.76,10.76,0,0,0-1.4.23l-.51.14-.33.11c-.33.1-.22.12.31.07l.67.39c.34.29.25.59.22.26,0-.14,0-.28-.06-.42a2,2,0,0,0-.05-.34c-.13-.5,0,1.18-.52,1.23-.13,0,.25-.08.29-.1q.42-.14.84-.24l.42-.09.2,0a8,8,0,0,1,1.62,0l.27,0c-.34,0,.05,0,.11,0a4.94,4.94,0,0,1,.55.15c.19.06,0,0-.06,0l.26.15c.19.09,0-.06-.07-.07s.13.12.17.15c.23.2,0-.06,0-.06s.1.16.12.19c.17.27-.06,0,0-.06l.08.23s.06.23,0,.24,0-.37,0,0c0,.12,0,.23,0,.34s0,.48,0,.25a1.53,1.53,0,0,0,1,1.84,1.51,1.51,0,0,0,1.85-1A4.4,4.4,0,0,0,167,58.33a6,6,0,0,0-4.32-1.17,10.73,10.73,0,0,0-2.86.55,3,3,0,0,0-1.34.74A2,2,0,0,0,158,60.2c0,.32.06.64.13.95a1.76,1.76,0,0,0,1.23,1.31,2.73,2.73,0,0,0,1.57-.2c.25-.08.5-.14.76-.2L162,62c.29,0-.33,0,.18,0l.65,0,.3,0c-.2,0-.08,0,.05,0l.17,0c-.18-.09-.23-.1-.13,0s.05,0,0,0-.14-.18-.2-.26,0-.1,0,0l0-.15s0,.31,0,0c0,0,0,.05,0,.08l-.06.31,1.45-1.1a13.46,13.46,0,0,0-5.35.78A4.71,4.71,0,0,0,157,63.38a4.48,4.48,0,0,0-.68,2.79,3.88,3.88,0,0,0,3.78,3.47,5.54,5.54,0,0,0,4.69-1.84l-2.56-1.07c0,.31-.1.63-.11.93A1.85,1.85,0,0,0,164,69.5c1.16,0,2.49.07,3-1.2a6.88,6.88,0,0,0,.33-1.56l.45-2.56.3-1.71a1.55,1.55,0,0,0-1-1.85A1.51,1.51,0,0,0,165.18,61.67Z"/><path class="cls-1" d="M165.47,65l.13-.73a1.57,1.57,0,0,0-.27-1.31,1.42,1.42,0,0,0-1.18-.59,24.52,24.52,0,0,0-2.57.22,5,5,0,0,0-1.36.43,2.84,2.84,0,0,0-1.38,1.18,2.58,2.58,0,0,0,1,3.61,4.36,4.36,0,0,0,3.57-.14A3.89,3.89,0,0,0,165.47,65a1.59,1.59,0,0,0-.15-1.15,1.55,1.55,0,0,0-.9-.69,1.52,1.52,0,0,0-1.85,1,2.76,2.76,0,0,1-.16.54l.15-.36a2.47,2.47,0,0,1-.31.52l.23-.3A2.56,2.56,0,0,1,162,65l.31-.23a3.2,3.2,0,0,1-.51.29l.36-.15a3.14,3.14,0,0,1-.73.19l.4,0a3.54,3.54,0,0,1-.92,0l.4.06A2,2,0,0,1,161,65l.36.15-.28-.16.3.23a1.37,1.37,0,0,1-.17-.17l.24.3a.64.64,0,0,1-.11-.2l.15.36a.86.86,0,0,1-.06-.23l0,.4a1.93,1.93,0,0,1,0-.34l-.05.4a1.87,1.87,0,0,1,.08-.34l-.15.36a1.07,1.07,0,0,1,.16-.27l-.24.3.18-.17-.3.23a3.46,3.46,0,0,1,.63-.34l-.36.16a4,4,0,0,1,1-.27l-.4.06c.7-.09,1.4-.13,2.1-.16l-1.45-1.9-.13.74a1.6,1.6,0,0,0,.16,1.15,1.5,1.5,0,0,0,2.05.54A1.49,1.49,0,0,0,165.47,65Z"/><path class="cls-1" d="M176.77,59.31l-4,7.93a6.2,6.2,0,0,1-1.51,2.18A3.5,3.5,0,0,1,169,70a5.25,5.25,0,0,1-1.66-.19c-.24-.06-.33-.19-.29-.4l.31-1a.38.38,0,0,1,.41-.31l.36,0a3.34,3.34,0,0,0,.62.06,1.17,1.17,0,0,0,.93-.33.92.92,0,0,0,.18-.87l-1.67-7.72c-.06-.3.05-.45.34-.45h1.52a.37.37,0,0,1,.41.38l.69,4.06.31,2.53h0l1.08-2.53,1.83-4.06a.56.56,0,0,1,.51-.38h1.57c.14,0,.23,0,.27.13A.36.36,0,0,1,176.77,59.31Z"/><path class="cls-1" d="M175.47,58.55c-1.43,2.83-2.79,5.7-4.29,8.49a7,7,0,0,1-.42.71l-.15.21c.13-.16-.06.07-.09.1l-.19.18c-.1.11.2-.08-.05,0-.08,0-.15.09-.23.12.15-.06,0,0-.05,0l-.31.07c-.48.1.11,0-.19,0a8.26,8.26,0,0,1-.86,0l-.35,0c-.1,0-.23,0,0,0l-.25,0c-.12,0-.32-.18-.08,0l.54.54c.44.61,0,1.15.14.67,0-.12.07-.24.11-.35s.06-.22.1-.33.08-.08,0,0l-.54.54c-.14.11-.42,0-.57.09s-.05,0,.07,0a5.63,5.63,0,0,0,.92.1,2.93,2.93,0,0,0,1.48-.31,2.42,2.42,0,0,0,1.19-2.69c-.08-.4-.17-.8-.26-1.2L170,60.3l-.22-1a2.61,2.61,0,0,0-.06-.27c-.07-.28,0,.4,0,.06l-.21.75-.12.16-.66.38c-.24.09-.14,0,.05,0h1.08c.21,0,.24.08.06,0l-.66-.38c-.45-.42-.2-.45-.2-.25a1.35,1.35,0,0,0,0,.28l.18,1,.37,2.23c0,.11.11.71,0,.25s0-.1,0,0l.06.49.23,1.84a1.52,1.52,0,0,0,1.5,1.5h0a1.48,1.48,0,0,0,1.3-.74c.55-1.29,1.1-2.58,1.68-3.87.38-.85.83-1.7,1.15-2.57.18-.48.11.36-.71.21a2.41,2.41,0,0,0,.38,0,11.45,11.45,0,0,1,1.31,0l-.76-.2-.15-.12-.38-.66,0,.14v-.8l-.05.18a1.5,1.5,0,0,0,2.89.8,1.8,1.8,0,0,0-1.74-2.35c-.39,0-.8,0-1.2,0a2.33,2.33,0,0,0-1.82.68,3,3,0,0,0-.51.86c-.58,1.29-1.17,2.57-1.73,3.87l-1,2.3,1.3-.74h0l1.5,1.5c-.29-2.32-.54-4.68-1.05-7a1.85,1.85,0,0,0-1.33-1.43,4.65,4.65,0,0,0-1.24-.07c-.26,0-.53,0-.8,0a1.84,1.84,0,0,0-1.87,1.81,6.58,6.58,0,0,0,.22,1.24l.44,2,.93,4.27.12.55c.06.34,0-.09.09-.25,0,.07.33-.43.46-.3s-.4,0-.4,0c-.3,0-.58-.11-.87-.1a2,2,0,0,0-1.78,1.52,8.57,8.57,0,0,0-.27.86A1.85,1.85,0,0,0,167,71.27a6.93,6.93,0,0,0,4,0c1.8-.6,2.61-2.26,3.41-3.84l3.71-7.35a1.53,1.53,0,0,0-.54-2.05A1.51,1.51,0,0,0,175.47,58.55Z"/><path class="cls-2" d="M97.88,45.75c6.48-1.18,17.8-6,23.07-13.62a17.24,17.24,0,0,1-.19,3,13.42,13.42,0,0,1-4.28,6.67A39.71,39.71,0,0,1,102.64,50,44.52,44.52,0,0,1,84,53.06a20.46,20.46,0,0,1-7.73-2c-3.76-1.83-5.06-8.26-3.3-12a30.64,30.64,0,0,1,9-10.76,49.28,49.28,0,0,1,20.92-10,20.23,20.23,0,0,1,9.78,0c4.55,1.31,6.39,5.06,4.68,9.52s-4.78,7.68-8.26,10.68a49.83,49.83,0,0,1-10.27,6.73C98.5,45.38,98.2,45.57,97.88,45.75Zm-9.6-4.31,1.59-.1a11.48,11.48,0,0,0,1.45-.17,29.53,29.53,0,0,0,14.25-7.29,12.26,12.26,0,0,0,4.2-6.42A3.5,3.5,0,0,0,107.26,23a11.76,11.76,0,0,0-3.58-.48c-4.31.12-8.15,1.79-11.78,3.93a21.67,21.67,0,0,0-8,7.41c-1,1.72-1.78,3.62-.6,5.52S86.45,41.39,88.28,41.44Z"/><path d="M1.51,49.59C1.58,41.27,4.44,33.89,8.83,27a51.16,51.16,0,0,1,11.72-13,7.43,7.43,0,0,1,1.54-.95,2.54,2.54,0,0,1,1,0c0,.36.07.86-.13,1.07-.69.74-1.48,1.38-2.24,2.06A40.45,40.45,0,0,0,9.5,32.87c-2.11,5.91-2.72,11.93-.76,18A20.27,20.27,0,0,0,22.27,64.52C29.66,67,36.88,66,43.88,63A42.87,42.87,0,0,0,65.75,42.34a30.65,30.65,0,0,0,3.59-14.51c-.16-8.65-3.66-15.59-11.54-19.78A25.32,25.32,0,0,0,44,5.48a2.2,2.2,0,0,1-.84,0,4.5,4.5,0,0,1-.91-.63c.2-.27.35-.71.61-.79a12.82,12.82,0,0,1,2.6-.49C50.92,3.24,56.21,4,61,6.85c6,3.59,9.16,9,10.28,15.79,1.35,8.18-.71,15.76-4.38,23a52.76,52.76,0,0,1-20.6,21.74,42,42,0,0,1-18,6c-7.14.6-13.67-.75-19.23-5.5A20.61,20.61,0,0,1,2.22,55.61C1.86,53.62,1.74,51.6,1.51,49.59Z"/><path class="cls-3" d="M146.86,44.81c.24,2.19.85,3.89,2.74,4.71a4.9,4.9,0,0,0,5.16-.81c.64-.49,1.23-1.06,1.84-1.59a1.75,1.75,0,0,1,2.25-.16c.81.52.72,1.31.39,2.06A6.47,6.47,0,0,1,154,52.73a15.93,15.93,0,0,1-5,0,8.21,8.21,0,0,1-6.9-7.88c-.17-3.19.26-6.23,2.86-8.44,2.79-2.36,6.08-2.63,9.43-1.6A7.29,7.29,0,0,1,159.65,41c.45,2.53-.47,3.72-3.05,3.77-2.77.06-5.53,0-8.3.05Zm8.21-2.73c0-2.91-1.67-4.61-4.21-4.51a4,4,0,0,0-3.75,4.51Z"/><path class="cls-3" d="M130.75,53.13c-4.47-.18-7.32-2-8.67-5.62-1.47-4-.35-8.8,2.61-11.29,3.58-3,10.44-2.4,13.15,1.19a5.45,5.45,0,0,1,.82,1.61,1.85,1.85,0,0,1-1,2.37,1.88,1.88,0,0,1-2.52-.49c-.41-.5-.78-1-1.21-1.52a4.21,4.21,0,0,0-7.09.92,7.59,7.59,0,0,0,.11,6.94,4.28,4.28,0,0,0,7.16.66c.44-.54.78-1.15,1.18-1.71a1.88,1.88,0,0,1,2.32-.83,2.14,2.14,0,0,1,1.29,2.49,5.79,5.79,0,0,1-3.87,4.21A33.24,33.24,0,0,1,130.75,53.13Z"/><path class="cls-3" d="M172.87,40.21c0-3.29,0-6.59,0-9.88,0-1.9.75-2.81,2.27-2.81s2.41,1,2.41,2.85q0,9.94,0,19.89c0,1.82-1.1,2.89-2.68,2.68a2.17,2.17,0,0,1-2-2.48c0-3.41,0-6.83,0-10.25Z"/><path class="cls-3" d="M168,40.34c0,3.38,0,6.75,0,10.13a2.32,2.32,0,1,1-4.63.06q0-10.24,0-20.48c0-1.67.85-2.49,2.35-2.49s2.28.91,2.29,2.54C168,33.52,168,36.93,168,40.34Z"/><path class="cls-2" d="M33.69,5.65C33.72,3,35.27,1.49,38,1.51a4.1,4.1,0,0,1,3.76,4.28A4.19,4.19,0,0,1,37.51,10,4,4,0,0,1,33.69,5.65Z"/><path class="cls-2" d="M30.45,11.79A2.81,2.81,0,0,1,27.7,8.85a2.78,2.78,0,1,1,5.53-.12A2.87,2.87,0,0,1,30.45,11.79Z"/><path class="cls-2" d="M25.7,9.77a1.85,1.85,0,0,1,1.79,2.1A2,2,0,0,1,25.61,14a2.12,2.12,0,0,1-1.89-2.14A1.92,1.92,0,0,1,25.7,9.77Z"/><path class="cls-3" d="M38.34,12.72c9.26.4,16.79,4.23,21.22,12.75C65.54,37,60,51,47.63,55.69c-10,3.81-19.2,2.16-26.83-5.39a21,21,0,0,1-1.49-28.64C24.1,15.7,30.57,13,38.34,12.72Zm19.5,32.52c4.93-7,4.49-21.59-8.6-28.51-.86,1.89-.86,1.89,1.29,2.11a2.38,2.38,0,0,0,.23.77,1.49,1.49,0,0,1-.16,2.3c-.21.19,0,.92.15,1.34s.47.57.71.85A5.28,5.28,0,0,1,49.91,23a1.06,1.06,0,0,0-.84-.23c-.23.1-.34.49-.54.82l2,.33,0,.25-1.31.12c.34.48.57.85.85,1.17a1.75,1.75,0,0,1-.32,2.86,11,11,0,0,1-2.36,1.15c-1,.36-1.24.85-.62,1.77.35.53.74,1,1.11,1.55l-1,1.37a6.65,6.65,0,0,0-.64-.59c-.47-.3-1-.57-1.44-.85,0,.71,0,1.43.06,2.14,0,.22.25.42.38.62l1,1.53c-1.94-1.41-2.47-3.51-2.76-5.67-2,.31-1.65-1.43-2.41-2.27a1.81,1.81,0,0,0-.72.16,33.14,33.14,0,0,0-2.86,2.13,2.33,2.33,0,0,0-.83,1.43A2.88,2.88,0,0,1,35,35.13l-1.56-5.88c-.86.37-1-.21-.91-1-2.19-.22-4.53.32-6-2.25-.35,2.24,1.17,2.61,2.4,3.15-1.53,1.83-3.14,3.08-5.56,2.79l-.53-5.74-.49,0c0,1.08,0,2.16,0,3.24a4.86,4.86,0,0,0,.8,3.12c.61.92,1.5,1,2.33,1.59-.8,1-1.38,2.23-2.34,2.85-1.62,1-1.45,2.33-1.1,3.78.08.32.31.59.37.9a2.25,2.25,0,0,1-.48,2.36c-.21.19-.22.66-.23,1,0,1,0,2,0,3l-1.13.1C28.28,58,44.9,59.49,54.41,49.85l-1-1.48a19.83,19.83,0,0,0-2.32.36,20.36,20.36,0,0,0-2.35,1c.2-3.68-.31-3.63,2.72-5.23.6-.31,1.09-.84,1.67-1.2a15.8,15.8,0,0,1,1.6-.8l.18-.92L57,43.44l.8-1.4ZM25,20.86c-.72.36-.91,1.77-2.06,1.22-.31-.14-.29-1-.41-1.5-2.27,1.08-2.66,1.73-2.34,4.35.39-.05.82-.23,1.14-.11,1.8.65,1.79.68,2.88-1.12a1.48,1.48,0,0,1,2.13-.34l.2-2.35Zm20.24-5.72C41.9,13.49,33,13.64,31,15.23a4.32,4.32,0,0,0,1.35.69,7,7,0,0,0,3.16,0,9.07,9.07,0,0,1,1.39-.48c.78-.15,1.53-.4,2.31-.52a7.46,7.46,0,0,1,2-.12c1.1.13,2.19.41,3.29.59C44.7,15.4,44.93,15.24,45.22,15.14ZM16,36.81l-.35.07,1.13,5.23.43-.09ZM24.86,18.1l.08.2h1.81V16.93Z"/><path class="cls-3" d="M49.23,38.9c-.87-1.39-.69-2.25.32-2.82a4.71,4.71,0,0,1,1.38-.31c.06.53.36,1.23.13,1.56A9.57,9.57,0,0,1,49.23,38.9Z"/><path class="cls-3" d="M44.36,36.66l4.78,3.78c-2,.12-3.09-.65-5-3.51Z"/><path class="cls-3" d="M56.07,37.55a11,11,0,0,1,1.91.53,1.16,1.16,0,0,1,.56,1c-.08.35-.55.61-.86.9-.25-.26-.51-.52-.74-.79s-.7-.83-1-1.25Z"/><path class="cls-3" d="M24.89,46.56c-.82-3.12-.82-3.12.78-3.64C25.47,44.1,25.67,45.31,24.89,46.56Z"/><path class="cls-3" d="M53.3,21.83a6.29,6.29,0,0,1,.16,2c-.13.52-.68.95-1.14,1.54L53.13,22Z"/><text class="cls-4" transform="translate(88.52 68) scale(0.99 1)">iit bomb<tspan class="cls-5" x="69.54" y="0">a</tspan><tspan class="cls-6" x="79.17" y="0">y</tspan></text></g></g></svg>