<svg xmlns="http://www.w3.org/2000/svg" viewBox="0 0 296.89 75.06"><defs><style>.cls-1{fill:#fff;}.cls-2{fill:#e11e26;}</style></defs><g id="Layer_2" data-name="Layer 2"><g id="svg4403"><rect class="cls-1" x="1.5" y="1.53" width="293.89" height="72"/><path class="cls-1" d="M295.39,72h-282C9.65,72,5.77,71.77,2,72c-.17,0-.33,0-.5,0L3,73.53v-72L1.5,3h282c3.78,0,7.66.26,11.43,0h.5l-1.5-1.5v72a1.5,1.5,0,0,0,3,0v-72a1.52,1.52,0,0,0-1.5-1.5h-282C9.62,0,5.81,0,2,0c-.17,0-.33,0-.5,0A1.52,1.52,0,0,0,0,1.53v72A1.52,1.52,0,0,0,1.5,75h282c3.81,0,7.62.08,11.43,0h.5A1.5,1.5,0,0,0,295.39,72Z"/><path class="cls-1" d="M19.16,12.48H44.29c-.41,3.8-.83,7.59-1.23,11.39H29.68L28.6,33H42.16c-.33,3-.65,6.09-1,9.13q-6.84,0-13.69,0c-.4,3.44-.83,6.88-1.23,10.32H40.09c-.34,3.34-.7,6.68-1.06,10H13.17q3-25,6-49.95"/><path class="cls-1" d="M19.16,14H44.29l-1.5-1.5L41.56,23.86l1.5-1.5H29.68a1.54,1.54,0,0,0-1.5,1.5L27.1,33a1.52,1.52,0,0,0,1.5,1.5H42.16L40.66,33c-.33,3-.65,6.09-1,9.13l1.5-1.5q-6.84,0-13.69,0a1.54,1.54,0,0,0-1.5,1.5c-.4,3.44-.83,6.88-1.23,10.32a1.52,1.52,0,0,0,1.5,1.5H40.09l-1.5-1.5c-.34,3.34-.7,6.68-1.06,10l1.5-1.5H13.17l1.5,1.5q3-25,6-49.95c.23-1.92-2.77-1.9-3,0q-3,25-6,50a1.52,1.52,0,0,0,1.5,1.5H39a1.53,1.53,0,0,0,1.5-1.5c.36-3.34.72-6.68,1.06-10a1.51,1.51,0,0,0-1.5-1.5H26.24l1.5,1.5c.4-3.44.83-6.88,1.23-10.32l-1.5,1.5q6.84,0,13.69,0a1.54,1.54,0,0,0,1.5-1.5c.35-3,.67-6.09,1-9.13a1.51,1.51,0,0,0-1.5-1.5c-4.52,0-9,0-13.56,0L30.1,33l1.08-9.1-1.5,1.5H43.06a1.54,1.54,0,0,0,1.5-1.5l1.23-11.39a1.51,1.51,0,0,0-1.5-1.5H19.16a1.5,1.5,0,0,0,0,3Z"/><path class="cls-1" d="M70.46,12.5c3.84-.06,7.68,0,11.51,0q-9.06,25-18.13,50H52.76q-2.8-25-5.59-49.94H58.83c.63,9.9,1.23,19.81,1.88,29.72a3,3,0,0,0,.46-1c3.08-9.57,6.22-19.12,9.29-28.69"/><path class="cls-1" d="M70.46,14c3.84-.06,7.67,0,11.51,0l-1.45-1.9q-9.06,25-18.13,50l1.45-1.1H52.76l1.5,1.5q-2.8-25-5.59-49.94L47.17,14H58.83l-1.5-1.5c.63,9.9,1.23,19.81,1.88,29.72A1.51,1.51,0,0,0,62,43a14,14,0,0,0,1.22-3.27l1.22-3.77L67,28.19q2.49-7.65,5-15.29c.59-1.84-2.31-2.63-2.89-.8q-2.38,7.41-4.8,14.82l-2.37,7.29c-.4,1.25-.81,2.5-1.22,3.76a14.89,14.89,0,0,1-1.22,3.49l2.8.76C61.56,32.31,61,22.4,60.33,12.5a1.52,1.52,0,0,0-1.5-1.5H47.17a1.51,1.51,0,0,0-1.5,1.5q2.8,25,5.59,49.94a1.54,1.54,0,0,0,1.5,1.5H63.84a1.55,1.55,0,0,0,1.45-1.1q9.06-25,18.13-49.95A1.52,1.52,0,0,0,82,11c-3.84,0-7.67,0-11.51,0-1.93,0-1.93,3,0,3Z"/><path class="cls-1" d="M84.49,12.39h25.12c-.42,3.8-.81,7.6-1.23,11.39-4.46,0-8.92,0-13.38,0-.35,3-.71,6.06-1.06,9.1h13.53c-.31,3-.65,6.07-1,9.11H92.79q-.63,5.18-1.23,10.35h13.87c-.37,3.34-.71,6.68-1.07,10H78.51q3-25,6-50"/><path class="cls-1" d="M84.49,13.89h25.12l-1.5-1.5c-.42,3.8-.81,7.6-1.23,11.39l1.5-1.5c-4.46,0-8.92,0-13.38,0a1.53,1.53,0,0,0-1.5,1.5c-.35,3-.71,6.06-1.06,9.1a1.52,1.52,0,0,0,1.5,1.5h13.53l-1.5-1.5c-.31,3-.65,6.07-1,9.11l1.5-1.5H92.79a1.54,1.54,0,0,0-1.5,1.5q-.63,5.18-1.23,10.35a1.5,1.5,0,0,0,1.5,1.5h13.87l-1.5-1.5c-.37,3.34-.71,6.68-1.07,10l1.5-1.5H78.51l1.5,1.5q3-25,6-50c.23-1.91-2.77-1.9-3,0q-3,25-6,50a1.5,1.5,0,0,0,1.5,1.5h25.85a1.54,1.54,0,0,0,1.5-1.5c.36-3.34.7-6.68,1.07-10a1.51,1.51,0,0,0-1.5-1.5H91.56l1.5,1.5q.6-5.18,1.23-10.35l-1.5,1.5H106.5A1.54,1.54,0,0,0,108,42c.32-3,.66-6.07,1-9.11a1.5,1.5,0,0,0-1.5-1.5H93.94l1.5,1.5c.35-3,.71-6.07,1.06-9.1L95,25.28c4.46,0,8.92,0,13.38,0a1.54,1.54,0,0,0,1.5-1.5c.42-3.79.81-7.59,1.23-11.39a1.52,1.52,0,0,0-1.5-1.5H84.49a1.5,1.5,0,0,0,0,3Z"/><path class="cls-1" d="M114.55,12.39H133.7a14.46,14.46,0,0,1,6.6,1.22,7,7,0,0,1,2.63,2.61,13,13,0,0,1,1.92,5.55,21.62,21.62,0,0,1-2,11.56c-1.08,2.17-2.68,4.28-5,5.15a6.07,6.07,0,0,1,3.45,3.38,10.17,10.17,0,0,1,.71,3.86,34.81,34.81,0,0,1-.74,8.82,10.83,10.83,0,0,0-.46,4.11A4.17,4.17,0,0,0,142.44,61c0,.42,0,.84,0,1.26H131.28a2.07,2.07,0,0,1-1.5-.45,2.36,2.36,0,0,1-.29-1.73c.41-3.41.77-6.83.95-10.27a6.33,6.33,0,0,0-.48-3.47,3.31,3.31,0,0,0-2.81-1.55c-1.62-.06-3.25,0-4.88,0-.68,5.86-1.31,11.72-2,17.58H108.72q2.9-25,5.83-50m10.59,11.14q-.66,6-1.31,12c1.62,0,3.23,0,4.84,0,1.45-.18,2.42-1.48,3-2.7a12.9,12.9,0,0,0,1.1-6.71,2.6,2.6,0,0,0-2.15-2.54c-1.84,0-3.67,0-5.51,0"/><path class="cls-1" d="M114.55,13.89h14.24c2.2,0,4.41-.07,6.6.06,2,.11,4.07.48,5.47,2,2.81,3,2.95,7.75,2.3,11.57-.58,3.42-2.22,8.1-5.74,9.53a1.51,1.51,0,0,0,0,2.89c3.93,1.54,3.25,7.37,2.93,10.69-.21,2.17-.88,4.26-1.1,6.42a5.54,5.54,0,0,0,2.13,5.07L140.94,61c0,.42,0,.84,0,1.26l1.5-1.5H132.25c-.37,0-.76,0-1.13,0s-.23-.15-.16.05a7.22,7.22,0,0,1,.23-2.43c.19-1.7.37-3.41.52-5.13.22-2.62.95-6.19-1-8.37s-5.73-1.58-8.46-1.61a1.54,1.54,0,0,0-1.5,1.5c-.68,5.86-1.31,11.72-2,17.58l1.5-1.5H108.72l1.5,1.5q2.9-25,5.83-50c.22-1.92-2.78-1.9-3,0q-2.91,25-5.83,50a1.52,1.52,0,0,0,1.5,1.5h11.57a1.54,1.54,0,0,0,1.5-1.5c.67-5.86,1.3-11.72,2-17.58l-1.5,1.5a38.2,38.2,0,0,1,5,0c1.47.22,1.69,1.42,1.67,2.73a92.41,92.41,0,0,1-.83,9.83c-.14,1.28-.44,2.78.47,3.86s2.35,1,3.65,1H142.4a1.53,1.53,0,0,0,1.5-1.5,5.37,5.37,0,0,0,0-1.65c-.18-.59-.69-.86-1.08-1.29-.85-1-.62-2.13-.37-3.29a42.56,42.56,0,0,0,1.05-7.78c.14-4.55-.51-9.39-5.27-11.25v2.89c6.89-2.79,8.86-12.14,8.07-18.78-.4-3.29-2.21-7.19-5.23-8.83-3.44-1.87-7.77-1.43-11.53-1.43h-15a1.5,1.5,0,0,0,0,3Z"/><path class="cls-1" d="M123.64,23.53q-.66,6-1.31,12a1.52,1.52,0,0,0,1.5,1.5c1,0,2.08,0,3.11,0a7.62,7.62,0,0,0,3-.32,6.77,6.77,0,0,0,3.44-4,14.06,14.06,0,0,0,1-5.76c-.07-1.74-.57-3.68-2.27-4.52a7.51,7.51,0,0,0-3.4-.4h-3.56a1.5,1.5,0,0,0,0,3h5.28q.38,0,.15,0c.26,0,0,0,.22.09-.24-.16.29.31.13.1a2.75,2.75,0,0,1,.24.41c-.07-.15.1.33.12.39s0,.21,0,.06l0,.22a11,11,0,0,1-.09,2.92c-.27,1.58-.82,3.5-2,4.48a2.79,2.79,0,0,1-.31.19.76.76,0,0,1-.35.11,10.22,10.22,0,0,1-1.36,0c-1.11,0-2.22,0-3.34,0l1.5,1.5q.66-6,1.31-12a1.51,1.51,0,0,0-1.5-1.5,1.54,1.54,0,0,0-1.5,1.5Z"/><path class="cls-1" d="M150.75,12.47c8.37,0,16.74,0,25.12,0l-1.23,11.38H161.27c-.37,3-.72,6.06-1.07,9.1,4.51,0,9,0,13.52,0-.3,3-.65,6.07-1,9.11-4.57,0-9.13,0-13.71,0-.41,3.44-.81,6.88-1.22,10.32,4.62,0,9.24,0,13.86,0-.35,3.31-.69,6.63-1.05,9.94H144.76q3-24.93,6-49.88"/><path class="cls-1" d="M150.75,14c8.37,0,16.74,0,25.12,0l-1.5-1.5-1.23,11.38,1.5-1.5H161.27a1.53,1.53,0,0,0-1.5,1.5c-.37,3-.72,6.06-1.07,9.1a1.52,1.52,0,0,0,1.5,1.5c4.51,0,9,0,13.52,0l-1.5-1.5c-.31,3-.65,6.07-1,9.11l1.5-1.5c-4.57,0-9.14,0-13.71,0a1.55,1.55,0,0,0-1.5,1.5c-.41,3.44-.81,6.88-1.22,10.32a1.51,1.51,0,0,0,1.5,1.5c4.62,0,9.24,0,13.86,0l-1.5-1.5c-.35,3.31-.69,6.63-1.05,9.94l1.5-1.5H144.76l1.5,1.5q3-24.93,6-49.88c.23-1.91-2.78-1.89-3,0q-3,24.95-6,49.88a1.52,1.52,0,0,0,1.5,1.5h25.87a1.54,1.54,0,0,0,1.5-1.5c.36-3.31.7-6.63,1.05-9.94a1.5,1.5,0,0,0-1.5-1.5c-4.62,0-9.24,0-13.86,0l1.5,1.5c.41-3.44.81-6.88,1.22-10.32l-1.5,1.5c4.57,0,9.14,0,13.71,0a1.53,1.53,0,0,0,1.5-1.5c.32-3,.66-6.07,1-9.11a1.5,1.5,0,0,0-1.5-1.5c-4.5,0-9,0-13.52,0l1.5,1.5c.35-3,.7-6.07,1.07-9.1l-1.5,1.5h13.37a1.54,1.54,0,0,0,1.5-1.5l1.23-11.38a1.52,1.52,0,0,0-1.5-1.5c-8.38,0-16.75,0-25.12,0a1.5,1.5,0,0,0,0,3Z"/><path class="cls-1" d="M191.4,12.39h12q3.09,25,6.15,49.93c-3.52,0-7,0-10.56,0-.33-2.36-.55-4.73-.84-7.1h-12.4q-1.26,3.57-2.54,7.14c-3.55,0-7.11,0-10.67,0q9.45-25,18.88-50m3.32,17.84q-2.7,7.15-5.4,14.31h8.62c-.76-5.51-1.49-11-2.29-16.55a13.73,13.73,0,0,0-.93,2.24"/><path class="cls-1" d="M191.4,13.89h12l-1.5-1.5q3.09,25,6.15,49.93l1.5-1.5c-3.52,0-7,0-10.56,0l1.45,1.1c-.31-2.23-.52-4.47-.79-6.7a1.54,1.54,0,0,0-1.5-1.5h-12.4a1.54,1.54,0,0,0-1.44,1.1L181.75,62l1.44-1.1c-3.55,0-7.11,0-10.67,0l1.45,1.9q9.43-25,18.88-50c.68-1.81-2.22-2.59-2.89-.8q-9.44,25-18.88,50a1.5,1.5,0,0,0,1.44,1.9c3.56,0,7.12,0,10.67,0a1.54,1.54,0,0,0,1.45-1.1q1.28-3.57,2.54-7.14l-1.45,1.1h12.4l-1.5-1.5c.3,2.5.55,5,.9,7.5a1.51,1.51,0,0,0,1.44,1.1c3.52,0,7,0,10.56,0a1.5,1.5,0,0,0,1.5-1.5q-3.06-25-6.15-49.93a1.52,1.52,0,0,0-1.5-1.5h-12a1.5,1.5,0,0,0,0,3Z"/><path class="cls-1" d="M193.28,29.83c-1.81,4.77-3.6,9.54-5.41,14.31a1.51,1.51,0,0,0,1.45,1.9h8.62a1.52,1.52,0,0,0,1.44-1.9c-.75-5.51-1.49-11-2.28-16.55-.19-1.34-2.13-1.35-2.74-.35a17.26,17.26,0,0,0-1.08,2.59,1.51,1.51,0,0,0,1,1.85,1.55,1.55,0,0,0,1.85-1.05,12.84,12.84,0,0,1,.78-1.88l-2.74-.36c.79,5.51,1.52,11,2.28,16.55l1.45-1.9h-8.62l1.45,1.9,5.4-14.31a1.5,1.5,0,1,0-2.89-.8Z"/><path class="cls-1" d="M218.55,12.48H236.1a12.18,12.18,0,0,1,9.52,5,9.78,9.78,0,0,1,2.07,6.65c-1.06,8.35-2.07,16.72-3.09,25.08A14.88,14.88,0,0,1,238.75,59a16.92,16.92,0,0,1-9.82,3.32H211.85q3.36-24.93,6.7-49.87M228,23.14Q226.24,37,224.46,50.88c1.64,0,3.27.07,4.91,0a5,5,0,0,0,2.73-.49,3.89,3.89,0,0,0,1.43-2.91c1-7.28,2-14.55,2.86-21.83a2.29,2.29,0,0,0-.25-1.74,2.75,2.75,0,0,0-2.19-.8c-2,0-4,0-6,0"/><path class="cls-1" d="M218.55,14h13.16a29.26,29.26,0,0,1,6.28.22,10.7,10.7,0,0,1,4.61,2.25,10.45,10.45,0,0,1,3.16,4.38c.73,2,.35,3.95.09,6q-.84,6.77-1.67,13.53L243.37,47a18,18,0,0,1-1.27,5.56,14.13,14.13,0,0,1-7.8,7.24c-3.66,1.39-7.61,1.05-11.45,1.05h-11l1.45,1.9q3.36-24.93,6.7-49.87A1.56,1.56,0,0,0,219,11a1.51,1.51,0,0,0-1.84,1.05Q213.75,37,210.4,62a1.53,1.53,0,0,0,1.45,1.9h10.39c4.29,0,8.77.38,12.86-1.16a17.28,17.28,0,0,0,9.05-7.57c2.13-3.75,2.22-8.12,2.73-12.31q.9-7.37,1.82-14.75c.28-2.2.75-4.41.33-6.62a12.5,12.5,0,0,0-2.7-5.48c-2.87-3.53-7-5-11.45-5H218.55a1.5,1.5,0,0,0,0,3Z"/><path class="cls-1" d="M226.48,23.14Q224.74,37,223,50.88a1.52,1.52,0,0,0,1.5,1.5c3.37,0,8.57,1.09,10.11-2.87a25.23,25.23,0,0,0,1-5.75q.43-3.23.86-6.46t.83-6.3c.14-1.14.29-2.27.43-3.4a12.85,12.85,0,0,0,.26-3,3.38,3.38,0,0,0-3.28-2.91,54.64,54.64,0,0,0-6.65,0,1.5,1.5,0,0,0,0,3c1.74,0,3.48,0,5.22,0,.44,0,1.49-.18,1.75.31s-.18,1.72-.24,2.17q-.65,5.1-1.32,10.19c-.44,3.32-.79,6.65-1.33,10a3.45,3.45,0,0,1-.54,1.69c-.44.49-1.16.43-1.75.45-1.77,0-3.54,0-5.31,0l1.5,1.5q1.75-13.87,3.52-27.74c.24-1.91-2.77-1.9-3,0Z"/><path class="cls-1" d="M248.17,12.48c3.89,0,7.78,0,11.66,0,1.62,5.87,3.22,11.74,4.85,17.6q4.69-8.76,9.32-17.57c3.87-.06,7.73,0,11.6,0l-16.54,30a3.84,3.84,0,0,0-.58,1.27q-1.32,9.3-2.66,18.58H254.48q1.05-8.58,2.08-17.18a8.9,8.9,0,0,0,.15-2.24q-4.27-15.22-8.54-30.45"/><path class="cls-1" d="M248.17,14c3.89,0,7.77,0,11.66,0l-1.45-1.1c1.63,5.87,3.22,11.74,4.85,17.6a1.52,1.52,0,0,0,2.75.36q4.68-8.77,9.32-17.57L274,14c3.87-.06,7.73,0,11.6,0l-1.3-2.26L270.88,36.09c-1.1,2-2.21,4-3.29,6-1,1.81-1,4.2-1.26,6.21L264.38,62l1.44-1.1H254.48l1.5,1.5q.78-6.37,1.55-12.76a50.29,50.29,0,0,0,.73-6.21,13.45,13.45,0,0,0-.77-3.23l-.87-3.09q-3.5-12.5-7-25a1.5,1.5,0,0,0-2.89.8q3.42,12.25,6.87,24.5l.86,3.09a16.52,16.52,0,0,1,.8,2.91,17.15,17.15,0,0,1-.35,3c-.13,1.06-.26,2.13-.38,3.19Q253.75,56,253,62.35a1.52,1.52,0,0,0,1.5,1.5h11.34a1.51,1.51,0,0,0,1.45-1.1q1-6.84,2-13.69c.26-1.83.22-4.18,1.12-5.8,1.13-2,2.24-4.07,3.36-6.1q6.6-12,13.18-23.93A1.51,1.51,0,0,0,285.6,11c-3.87,0-7.73,0-11.6,0a1.48,1.48,0,0,0-1.29.74q-4.63,8.81-9.33,17.57l2.75.36c-1.64-5.86-3.23-11.73-4.85-17.6a1.54,1.54,0,0,0-1.45-1.1c-3.89,0-7.77,0-11.66,0a1.5,1.5,0,0,0,0,3Z"/><path class="cls-1" d="M278.22,50.78a5.87,5.87,0,1,1-4,3.4,5.9,5.9,0,0,1,4-3.4m.49,1.62a4.18,4.18,0,1,0,4.18,1.48,4.21,4.21,0,0,0-4.18-1.48"/><path class="cls-1" d="M278.61,52.23l.44-.1c.3-.06.11,0,0,0a5.34,5.34,0,0,1,.8,0c.12,0,.25,0,.37,0-.28,0,0,0,.1,0l.78.22c.42.13-.22-.13.18.07l.26.13a7.92,7.92,0,0,1,.69.42c.22.16-.25-.22.1.08l.27.24a6,6,0,0,1,.54.59c-.17-.22.1.17.11.18l.15.25c.07.12.14.26.2.39-.1-.23,0,.06,0,.12a6,6,0,0,1,.22.72c0,.12.05.24.07.36,0-.28,0,.14,0,.2,0,.25,0,.49,0,.74,0,.45.07-.25,0,.19,0,.12,0,.25-.08.37a6.43,6.43,0,0,1-.22.71c-.1.25.16-.3-.06.12-.06.13-.13.26-.2.39l-.24.38s-.27.36-.15.21-.19.22-.17.19a3.19,3.19,0,0,1-.26.26l-.28.25c.18-.15-.06,0-.11.08a6.37,6.37,0,0,1-.72.41,4.4,4.4,0,0,1-2.67.34,4.28,4.28,0,0,1-2.56-1.5,6.76,6.76,0,0,1-.63-1c.08.17-.1-.3-.09-.26,0-.12-.08-.24-.11-.37a2.49,2.49,0,0,1-.09-.37c0-.1,0-.21-.06-.31,0,.12,0,.13,0,0a4.39,4.39,0,0,1,3.34-4.75,1.5,1.5,0,1,0-.79-2.89A7.36,7.36,0,1,0,286.1,53a7.45,7.45,0,0,0-8.28-3.62,1.5,1.5,0,1,0,.79,2.89Z"/><path class="cls-1" d="M278.31,51a5.62,5.62,0,0,0-2.94,1.76,7.05,7.05,0,0,0-.58.77c-.06.1-.12.2-.17.3a2,2,0,0,0-.1.21,3.08,3.08,0,0,0-.14.33l-.12.28-.06.15-.09.29a6.2,6.2,0,0,0-.16,1,5.74,5.74,0,0,0,2.8,5.39l.27.14.46.19c-.08,0-.38-.15,0,0a4.5,4.5,0,0,0,.78.27,5.09,5.09,0,0,0,1.6.15,5.86,5.86,0,0,0,3-1.06A5.68,5.68,0,0,0,285,54.67,5.76,5.76,0,0,0,278.31,51a1.52,1.52,0,0,0-1.05,1.85,1.54,1.54,0,0,0,1.85,1l.11,0c.17,0,.16,0-.05,0l.23,0c.15,0,.46-.06.59,0l-.17,0,.23,0,.23.06.33.1c.36.11-.26-.14.07,0s.34.19.51.29-.21-.21.07,0l.17.16a4.07,4.07,0,0,1,.4.43c-.23-.28,0,0,0,.09l.17.3c.2.32-.05-.19,0,0s.07.19.1.28a2,2,0,0,1,.13.58c0-.34,0-.09,0,0s0,.2,0,.3a2.81,2.81,0,0,1,0,.29c0,.4.05-.17,0,.13s-.1.38-.16.57,0,0,0,0c-.05.1-.1.21-.16.31a1.74,1.74,0,0,1-.11.18c0,.07-.19.38,0,0a2.08,2.08,0,0,1-.43.46,1,1,0,0,1-.15.14l.13-.11-.17.12a3.35,3.35,0,0,1-.45.27.82.82,0,0,1-.19.09l.17-.07-.2.07a3.87,3.87,0,0,1-.56.15h-.05q-.26,0,.09,0h-.74c-.35,0,.34.08,0,0l-.21,0-.3-.08c-.07,0-.41-.16,0,0l-.36-.15c.2.09.22.09.07,0l-.18-.09-.26-.17c-.14-.08-.12,0,.05,0-.12,0-.28-.25-.37-.35s-.2-.17-.21-.23l.11.14-.12-.16c-.09-.15-.18-.29-.26-.45s-.17-.32-.05-.1,0-.08,0-.11a3.94,3.94,0,0,1-.14-.49l0-.1c0-.14,0-.14,0,0s0,.13,0,0a1.49,1.49,0,0,1,0-.21c0-.09,0-.58,0-.61s-.08.39,0,.09l.09-.35c0-.05,0-.22.08-.25-.12.29-.1.22.08-.19l-.06.15a5.88,5.88,0,0,1,.35-.6c.21-.31-.21.21,0-.06l.24-.25.21-.19c.09-.07.06-.05-.08,0l.19-.13a3,3,0,0,1,.61-.33c-.05,0-.3.1,0,0l.45-.13A1.51,1.51,0,0,0,280.16,52a1.54,1.54,0,0,0-1.85-1Z"/><path class="cls-1" d="M277.67,53.66a22.51,22.51,0,0,1,3,.08,1.66,1.66,0,0,1,.1,3.09c.41.82.82,1.64,1.22,2.47h-1.2L279.69,57h-.93c0,.76,0,1.53,0,2.3h-1.08Zm1.09.87c0,.53,0,1.06,0,1.58a4.31,4.31,0,0,0,1.6-.13.83.83,0,0,0-.24-1.41,9,9,0,0,0-1.37,0"/><path class="cls-1" d="M277.67,55.16c.81,0,1.61,0,2.41,0l.17,0c.11,0,.07,0-.13,0l.2,0c.23,0-.15,0-.17-.08a.71.71,0,0,0,.15.08c.19.09-.26-.23-.15-.11l.11.11c.18.18-.12-.15-.11-.15a.87.87,0,0,1,.08.14s.11.23,0,0,0-.09,0,0,0,.11,0,.16,0,.23,0-.18c0,.1,0,.19,0,.28s-.1.14,0-.17a.9.9,0,0,0,0,.16s0,.09-.05.13.19-.36.08-.18a.71.71,0,0,0-.08.15c-.09.19.23-.26.12-.15l-.09.1c-.19.2.06-.09.13-.09a1.19,1.19,0,0,0-.15.09c-.2.12.38-.14.14-.06a1.53,1.53,0,0,0-.9,2.2c.41.83.82,1.65,1.22,2.48L282,57.8h-1.2l1.3.74c-.36-.76-.71-1.52-1.06-2.28a1.48,1.48,0,0,0-1.3-.74h-.93a1.52,1.52,0,0,0-1.5,1.5c0,.77,0,1.53,0,2.3l1.5-1.5h-1.08l1.5,1.5V53.66a1.5,1.5,0,0,0-3,0V59.3a1.52,1.52,0,0,0,1.5,1.5h1.08a1.53,1.53,0,0,0,1.5-1.5c0-.77,0-1.53,0-2.3l-1.5,1.5h.93l-1.29-.75c.35.77.7,1.53,1.06,2.29a1.48,1.48,0,0,0,1.29.74H282a1.5,1.5,0,0,0,1.29-.74,1.55,1.55,0,0,0,0-1.52c-.4-.82-.81-1.65-1.22-2.47l-.89,2.2a3,3,0,0,0,2-2,3.39,3.39,0,0,0-.2-2.46A2.85,2.85,0,0,0,281,52.29a17.16,17.16,0,0,0-3.36-.13,1.5,1.5,0,0,0,0,3Z"/><path class="cls-1" d="M277.26,54.53c0,.53,0,1.06,0,1.58a1.14,1.14,0,0,0,.12.58,1.21,1.21,0,0,0,.31.49,1.49,1.49,0,0,0,1.07.43c.39,0,.78,0,1.17,0a4.78,4.78,0,0,0,.66-.11l.13-.05a1.78,1.78,0,0,0,.4-.17l.33-.25a3.24,3.24,0,0,0,.35-.42.8.8,0,0,0,.08-.16,2.25,2.25,0,0,0,.2-.51,2.7,2.7,0,0,0,0-.28c0-.09,0-.19,0-.28a3.42,3.42,0,0,0-.07-.57,1,1,0,0,0,0-.17,2.48,2.48,0,0,0-.55-.94,2.09,2.09,0,0,0-.94-.55,3.1,3.1,0,0,0-.69-.1h-1.12a1.15,1.15,0,0,0-.58.13,1.36,1.36,0,0,0-.79.79,1.15,1.15,0,0,0-.13.58l.05.4a1.59,1.59,0,0,0,.39.66,1.54,1.54,0,0,0,1.06.44,10,10,0,0,1,1.34,0l-.4-.06.13,0-.35-.15.14.08-.3-.23a.68.68,0,0,1,.12.12l-.24-.31a.81.81,0,0,1,.1.18l-.15-.36a.86.86,0,0,1,.06.23l0-.4a1,1,0,0,1,0,.24l0-.4a1.05,1.05,0,0,1-.06.24l.15-.36a.65.65,0,0,1-.09.16l.23-.31a.57.57,0,0,1-.13.14l.31-.24h0l.36-.15a1.46,1.46,0,0,1-.41.11l.4,0c-.39,0-.78,0-1.17,0l1.5,1.5c0-.52,0-1,0-1.58a1.06,1.06,0,0,0-.13-.58,1.14,1.14,0,0,0-.31-.48,1.08,1.08,0,0,0-.48-.31,1.15,1.15,0,0,0-.58-.13l-.4,0a1.59,1.59,0,0,0-.66.39,1.54,1.54,0,0,0-.44,1.06Z"/><rect class="cls-2" x="1.5" y="1.53" width="293.89" height="72"/><path class="cls-1" d="M19.16,12.48H44.29c-.41,3.8-.83,7.59-1.23,11.39H29.68L28.6,33H42.16c-.33,3-.65,6.09-1,9.13q-6.84,0-13.69,0c-.4,3.44-.83,6.88-1.23,10.32H40.09c-.34,3.34-.7,6.68-1.06,10H13.17q3-25,6-49.95"/><path class="cls-1" d="M70.46,12.5c3.84-.06,7.68,0,11.51,0q-9.06,25-18.13,50H52.76q-2.8-25-5.59-49.94H58.83c.63,9.9,1.23,19.81,1.88,29.72a3,3,0,0,0,.46-1c3.08-9.57,6.22-19.12,9.29-28.69"/><path class="cls-1" d="M84.49,12.39h25.12c-.42,3.8-.81,7.6-1.23,11.39-4.46,0-8.92,0-13.38,0-.35,3-.71,6.06-1.06,9.1h13.53c-.31,3-.65,6.07-1,9.11H92.79q-.63,5.18-1.23,10.35h13.87c-.37,3.34-.71,6.68-1.07,10H78.51q3-25,6-50"/><path class="cls-1" d="M114.55,12.39H133.7a14.46,14.46,0,0,1,6.6,1.22,7,7,0,0,1,2.63,2.61,13,13,0,0,1,1.92,5.55,21.62,21.62,0,0,1-2,11.56c-1.08,2.17-2.68,4.28-5,5.15a6.07,6.07,0,0,1,3.45,3.38,10.17,10.17,0,0,1,.71,3.86,34.81,34.81,0,0,1-.74,8.82,10.83,10.83,0,0,0-.46,4.11A4.17,4.17,0,0,0,142.44,61c0,.42,0,.84,0,1.26H131.28a2.07,2.07,0,0,1-1.5-.45,2.36,2.36,0,0,1-.29-1.73c.41-3.41.77-6.83.95-10.27a6.33,6.33,0,0,0-.48-3.47,3.31,3.31,0,0,0-2.81-1.55c-1.62-.06-3.25,0-4.88,0-.68,5.86-1.31,11.72-2,17.58H108.72q2.9-25,5.83-50m10.59,11.14q-.66,6-1.31,12c1.62,0,3.23,0,4.84,0,1.45-.18,2.42-1.48,3-2.7a12.9,12.9,0,0,0,1.1-6.71,2.6,2.6,0,0,0-2.15-2.54c-1.84,0-3.67,0-5.51,0"/><path class="cls-1" d="M150.75,12.47c8.37,0,16.74,0,25.12,0l-1.23,11.38H161.27c-.37,3-.72,6.06-1.07,9.1,4.51,0,9,0,13.52,0-.3,3-.65,6.07-1,9.11-4.57,0-9.13,0-13.71,0-.41,3.44-.81,6.88-1.22,10.32,4.62,0,9.24,0,13.86,0-.35,3.31-.69,6.63-1.05,9.94H144.76q3-24.93,6-49.88"/><path class="cls-1" d="M191.4,12.39h12q3.09,25,6.15,49.93c-3.52,0-7,0-10.56,0-.33-2.36-.55-4.73-.84-7.1h-12.4q-1.26,3.57-2.54,7.14c-3.55,0-7.11,0-10.67,0q9.45-25,18.88-50m3.32,17.84q-2.7,7.15-5.4,14.31h8.62c-.76-5.51-1.49-11-2.29-16.55a13.73,13.73,0,0,0-.93,2.24"/><path class="cls-1" d="M218.55,12.48H236.1a12.18,12.18,0,0,1,9.52,5,9.78,9.78,0,0,1,2.07,6.65c-1.06,8.35-2.07,16.72-3.09,25.08A14.88,14.88,0,0,1,238.75,59a16.92,16.92,0,0,1-9.82,3.32H211.85q3.36-24.93,6.7-49.87M228,23.14Q226.24,37,224.46,50.88c1.64,0,3.27.07,4.91,0a5,5,0,0,0,2.73-.49,3.89,3.89,0,0,0,1.43-2.91c1-7.28,2-14.55,2.86-21.83a2.29,2.29,0,0,0-.25-1.74,2.75,2.75,0,0,0-2.19-.8c-2,0-4,0-6,0"/><path class="cls-1" d="M248.17,12.48c3.89,0,7.78,0,11.66,0,1.62,5.87,3.22,11.74,4.85,17.6q4.69-8.76,9.32-17.57c3.87-.06,7.73,0,11.6,0l-16.54,30a3.84,3.84,0,0,0-.58,1.27q-1.32,9.3-2.66,18.58H254.48q1.05-8.58,2.08-17.18a8.9,8.9,0,0,0,.15-2.24q-4.27-15.22-8.54-30.45"/><path class="cls-1" d="M278.22,50.78a5.87,5.87,0,1,1-4,3.4,5.9,5.9,0,0,1,4-3.4m.49,1.62a4.18,4.18,0,1,0,4.18,1.48,4.21,4.21,0,0,0-4.18-1.48"/><path class="cls-1" d="M277.67,53.66a22.51,22.51,0,0,1,3,.08,1.66,1.66,0,0,1,.1,3.09c.41.82.82,1.64,1.22,2.47h-1.2L279.69,57h-.93c0,.76,0,1.53,0,2.3h-1.08Zm1.09.87c0,.53,0,1.06,0,1.58a4.31,4.31,0,0,0,1.6-.13.83.83,0,0,0-.24-1.41,9,9,0,0,0-1.37,0"/></g></g></svg>