<svg xmlns="http://www.w3.org/2000/svg" xmlns:xlink="http://www.w3.org/1999/xlink" viewBox="0 0 212.77 74.98"><defs><style>.cls-1,.cls-2,.cls-3,.cls-4{fill:#fff;}.cls-2{clip-path:url(#clip-path);}.cls-3{clip-path:url(#clip-path-2);}.cls-4{clip-path:url(#clip-path-3);}.cls-5{fill:none;}.cls-6{clip-path:url(#clip-path-4);}.cls-7{clip-path:url(#clip-path-5);}.cls-8{fill:url(#radial-gradient);}.cls-9{fill:#a19589;}</style><clipPath id="clip-path"><path class="cls-1" d="M16.74,31c0,3.2,1.86,5.7,5.26,5.7,3,0,4.53-2,4.53-4.88,0-3.12-1.79-5.6-5.12-5.6A4.42,4.42,0,0,0,16.74,31"/></clipPath><clipPath id="clip-path-2"><path class="cls-2" d="M45.56,41.18c0-2.3-2.43-3.41-5.07-4.66-2.91-1.39-6-2.91-6-6.45,0-4.31,4.17-6.18,7.92-6.18a11.84,11.84,0,0,1,5.76,1.45v3.13a9.36,9.36,0,0,0-5.83-2.08c-2.09,0-4.1.83-4.1,2.7,0,2.22,2.64,3.48,5.42,4.87s6,3.12,6,6.31c0,4.66-4.65,6.25-8.54,6.25a17.59,17.59,0,0,1-6.81-1.38v-3.2a16.47,16.47,0,0,0,6.95,2c1.94,0,4.37-.48,4.37-2.77"/></clipPath><clipPath id="clip-path-3"><path class="cls-3" d="M52.71,40.35V21.11c0-3.13-.2-4.52-.83-5.35l4.79-1.25V33.12L63,27.22a20.25,20.25,0,0,0,2.36-2.57h5.49c-.28.07-1.25.28-4.72,3.54l-5.91,5.55s3.55,4.17,6.88,7.85c2.57,2.78,4.52,3.61,5.7,3.61a2.47,2.47,0,0,0,.69-.13,7.3,7.3,0,0,1-4.24,1.18c-2.15,0-4-1.18-6.18-3.82l-6.39-7.64v5.56c0,3.89.21,4.51.56,5.41H52.09c.42-1.11.62-1.53.62-5.41"/></clipPath><clipPath id="clip-path-4"><path class="cls-4" d="M5.83,21.52A20.46,20.46,0,0,0,4,30,28.39,28.39,0,0,0,6.39,42.08c3.06,6.81,8.54,10.7,16,10.7a16.79,16.79,0,0,0,5.14-.63,3.31,3.31,0,0,0,2.36-3A2.39,2.39,0,0,0,28.41,47,15.26,15.26,0,0,0,24,46.46c-2.57-.14-3.47-.21-5.28-.35-2.84-.27-4.3-2.15-4.3-4,0-1.6,1.11-3,3.19-4a7.16,7.16,0,0,1-4.7-6.65c0-4.31,3.37-7.65,8.81-7.65a13.94,13.94,0,0,1,3.74.62,11.27,11.27,0,0,0,3.13.48,16,16,0,0,0,4.09-.41v2.78a32.14,32.14,0,0,0-4.09-.28,7.16,7.16,0,0,1,1.73,4.65c0,3.89-3.05,7.15-8.47,7.15a12.89,12.89,0,0,1-1.56-.09,3.53,3.53,0,0,0-1.47.68A2.16,2.16,0,0,0,18,41.1c0,.91.49,1.6,2.71,1.74l4.79.28c4.66.28,7.15,2.16,7.09,5.49-.14,3.82-3.2,6.6-10.56,6.6a24.79,24.79,0,0,1-6.81-1.05,14.68,14.68,0,0,1-4.65-2.43c6.25,10.7,17.36,19.94,30.21,19.94,6.25,0,11.6-2.23,16.6-5.9,11.94-8.9,27.09-28.83,27.09-44.32,0-11.59-8.41-16.74-19-18.4a65.8,65.8,0,0,0-11.11-.69c-16,0-40.63,2.77-48.55,19.16"/></clipPath><clipPath id="clip-path-5"><path id="SVGID" class="cls-5" d="M16.74,31c0,3.2,1.86,5.7,5.26,5.7,3,0,4.53-2,4.53-4.88,0-3.12-1.79-5.6-5.12-5.6A4.42,4.42,0,0,0,16.74,31M45.56,41.18c0-2.3-2.43-3.41-5.07-4.66-2.91-1.39-6-2.91-6-6.45,0-4.31,4.17-6.18,7.92-6.18a11.84,11.84,0,0,1,5.76,1.45v3.13a9.36,9.36,0,0,0-5.83-2.08c-2.09,0-4.1.83-4.1,2.7,0,2.22,2.64,3.48,5.42,4.87s6,3.12,6,6.31c0,4.66-4.65,6.25-8.54,6.25a17.59,17.59,0,0,1-6.81-1.38v-3.2a16.47,16.47,0,0,0,6.95,2c1.94,0,4.37-.48,4.37-2.77m7.15-.83V21.11c0-3.13-.2-4.52-.83-5.35l4.79-1.25V33.12L63,27.22a20.25,20.25,0,0,0,2.36-2.57h5.49c-.28.07-1.25.28-4.72,3.54l-5.91,5.55s3.55,4.17,6.88,7.85c2.57,2.78,4.52,3.61,5.7,3.61a2.47,2.47,0,0,0,.69-.13,7.3,7.3,0,0,1-4.24,1.18c-2.15,0-4-1.18-6.18-3.82l-6.39-7.64v5.56c0,3.89.21,4.51.56,5.41H52.09c.42-1.11.62-1.53.62-5.41M5.83,21.52A20.46,20.46,0,0,0,4,30,28.39,28.39,0,0,0,6.39,42.08c3.06,6.81,8.54,10.7,16,10.7a16.79,16.79,0,0,0,5.14-.63,3.31,3.31,0,0,0,2.36-3A2.39,2.39,0,0,0,28.41,47,15.26,15.26,0,0,0,24,46.46c-2.57-.14-3.47-.21-5.28-.35-2.84-.27-4.3-2.15-4.3-4,0-1.6,1.11-3,3.19-4a7.16,7.16,0,0,1-4.7-6.65c0-4.31,3.37-7.65,8.81-7.65a13.94,13.94,0,0,1,3.74.62,11.27,11.27,0,0,0,3.13.48,16,16,0,0,0,4.09-.41v2.78a32.14,32.14,0,0,0-4.09-.28,7.16,7.16,0,0,1,1.73,4.65c0,3.89-3.05,7.15-8.47,7.15a12.89,12.89,0,0,1-1.56-.09,3.53,3.53,0,0,0-1.47.68A2.16,2.16,0,0,0,18,41.1c0,.91.49,1.6,2.71,1.74l4.79.28c4.66.28,7.15,2.16,7.09,5.49-.14,3.82-3.2,6.6-10.56,6.6a24.79,24.79,0,0,1-6.81-1.05,14.68,14.68,0,0,1-4.65-2.43c6.25,10.7,17.36,19.94,30.21,19.94,6.25,0,11.6-2.23,16.6-5.9,11.94-8.9,27.09-28.83,27.09-44.32,0-11.59-8.41-16.74-19-18.4a65.8,65.8,0,0,0-11.11-.69c-16,0-40.63,2.77-48.55,19.16"/></clipPath><radialGradient id="radial-gradient" cx="-1693.35" cy="242.37" r="0.08" gradientTransform="matrix(648.19, 0, 0, -648.19, 1097662.46, 157122.37)" gradientUnits="userSpaceOnUse"><stop offset="0" stop-color="#faa71a"/><stop offset="0.05" stop-color="#f99f1c"/><stop offset="0.26" stop-color="#f58120"/><stop offset="0.47" stop-color="#f26922"/><stop offset="0.66" stop-color="#f15523"/><stop offset="0.84" stop-color="#ef4723"/><stop offset="1" stop-color="#ef4223"/></radialGradient></defs><g id="Layer_2" data-name="Layer 2"><g id="svg4403"><path class="cls-1" d="M85.27,22c0-13-9.22-18.07-20-19.78a86.85,86.85,0,0,0-11.82-.67C37.93,1.51,12.18,4,3.69,21.41A23,23,0,0,0,1.5,30.72c0,11.07,6.06,22.93,14.05,31.39,7.52,8,15.73,11.4,24.5,11.4a29.13,29.13,0,0,0,17.67-6.08C69.7,58.52,85.27,38.12,85.27,22"/><path class="cls-1" d="M86.77,22a21,21,0,0,0-2.92-11.15,19.43,19.43,0,0,0-7.47-6.72C68.85.13,59.94-.09,51.63,0A106.22,106.22,0,0,0,30.74,2.15c-7.1,1.51-14.22,4-20,8.52C4.33,15.59-.15,23.05,0,31.3c.18,9.58,4.37,18.93,10,26.52s12.9,13.94,22.11,16.23a31.41,31.41,0,0,0,26.35-5.33A78.29,78.29,0,0,0,75.34,51c5-6.94,9.3-14.88,10.86-23.34A32.34,32.34,0,0,0,86.77,22a1.5,1.5,0,0,0-3,0c0,7.75-3.36,15.23-7.25,21.78A83.43,83.43,0,0,1,61.35,62.46,41.9,41.9,0,0,1,52,69.19,26.72,26.72,0,0,1,39.14,72c-8.67-.23-16.29-4.46-22.21-10.61A50.49,50.49,0,0,1,3.79,37.73a25.1,25.1,0,0,1,.2-13,22.75,22.75,0,0,1,5.44-8.93c4.63-4.8,10.87-7.7,17.2-9.54a87.28,87.28,0,0,1,19.8-3.09c7.61-.39,15.65-.6,23.05,1.44C75.69,6.32,81.31,10,83.09,16.5A21,21,0,0,1,83.77,22a1.5,1.5,0,0,0,3,0Z"/><path class="cls-1" d="M16.74,31c0,3.2,1.86,5.7,5.26,5.7,3,0,4.53-2,4.53-4.88,0-3.12-1.79-5.6-5.12-5.6A4.42,4.42,0,0,0,16.74,31"/><path class="cls-1" d="M45.56,41.18c0-2.3-2.43-3.41-5.07-4.66-2.91-1.39-6-2.91-6-6.45,0-4.31,4.17-6.18,7.92-6.18a11.84,11.84,0,0,1,5.76,1.45v3.13a9.36,9.36,0,0,0-5.83-2.08c-2.09,0-4.1.83-4.1,2.7,0,2.22,2.64,3.48,5.42,4.87s6,3.12,6,6.31c0,4.66-4.65,6.25-8.54,6.25a17.59,17.59,0,0,1-6.81-1.38v-3.2a16.47,16.47,0,0,0,6.95,2c1.94,0,4.37-.48,4.37-2.77"/><path class="cls-1" d="M52.71,40.35V21.11c0-3.13-.2-4.52-.83-5.35l4.79-1.25V33.12L63,27.22a20.25,20.25,0,0,0,2.36-2.57h5.49c-.28.07-1.25.28-4.72,3.54l-5.91,5.55s3.55,4.17,6.88,7.85c2.57,2.78,4.52,3.61,5.7,3.61a2.47,2.47,0,0,0,.69-.13,7.3,7.3,0,0,1-4.24,1.18c-2.15,0-4-1.18-6.18-3.82l-6.39-7.64v5.56c0,3.89.21,4.51.56,5.41H52.09c.42-1.11.62-1.53.62-5.41"/><path class="cls-1" d="M5.83,21.52A20.46,20.46,0,0,0,4,30,28.39,28.39,0,0,0,6.39,42.08c3.06,6.81,8.54,10.7,16,10.7a16.79,16.79,0,0,0,5.14-.63,3.31,3.31,0,0,0,2.36-3A2.39,2.39,0,0,0,28.41,47,15.26,15.26,0,0,0,24,46.46c-2.57-.14-3.47-.21-5.28-.35-2.84-.27-4.3-2.15-4.3-4,0-1.6,1.11-3,3.19-4a7.16,7.16,0,0,1-4.7-6.65c0-4.31,3.37-7.65,8.81-7.65a13.94,13.94,0,0,1,3.74.62,11.27,11.27,0,0,0,3.13.48,16,16,0,0,0,4.09-.41v2.78a32.14,32.14,0,0,0-4.09-.28,7.16,7.16,0,0,1,1.73,4.65c0,3.89-3.05,7.15-8.47,7.15a12.89,12.89,0,0,1-1.56-.09,3.53,3.53,0,0,0-1.47.68A2.16,2.16,0,0,0,18,41.1c0,.91.49,1.6,2.71,1.74l4.79.28c4.66.28,7.15,2.16,7.09,5.49-.14,3.82-3.2,6.6-10.56,6.6a24.79,24.79,0,0,1-6.81-1.05,14.68,14.68,0,0,1-4.65-2.43c6.25,10.7,17.36,19.94,30.21,19.94,6.25,0,11.6-2.23,16.6-5.9,11.94-8.9,27.09-28.83,27.09-44.32,0-11.59-8.41-16.74-19-18.4a65.8,65.8,0,0,0-11.11-.69c-16,0-40.63,2.77-48.55,19.16"/><g class="cls-6"><rect class="cls-1" x="3.96" y="2.35" width="80.5" height="69.31"/><path class="cls-1" d="M4,3.85h80.5L83,2.35V71.67l1.5-1.5H4l1.5,1.5V2.35a1.5,1.5,0,0,0-3,0V71.67A1.52,1.52,0,0,0,4,73.17h80.5a1.52,1.52,0,0,0,1.5-1.5V2.35a1.52,1.52,0,0,0-1.5-1.5H4A1.5,1.5,0,0,0,4,3.85Z"/></g><path class="cls-1" d="M209.38,54.65h-4.51c.14-1.17.63-2.63,2.36-2.63,1.53,0,2.15,1.18,2.15,2.63M211.23,56a2.75,2.75,0,0,0,0-.5c0-2.8-1-4.84-4-4.84-2.63,0-4.23,2-4.23,4.79,0,3.12,1.39,5.13,4.72,5.13a5.38,5.38,0,0,0,2.78-.62V58.19a4.71,4.71,0,0,1-2.71,1,3,3,0,0,1-2.91-3.2Zm-9.9,4.38V54.72c0-2.57-1-4.09-3.47-4.09a3.12,3.12,0,0,0-3,1.73h-.07V50.84h-1.67v9.51h1.74V56c0-2.36.76-4,2.77-3.95,1.53.07,1.95,1.18,1.95,3.4v4.93ZM190.75,47.71a1,1,0,0,0-1-1,1.07,1.07,0,0,0-1,1,1,1,0,0,0,1,1,1,1,0,0,0,1-1m-.14,3.13h-1.74v9.51h1.74V50.84Zm-3.45,9.44c-.7-.21-.83-.69-.83-1.32V47.16h-1.81v12a1.21,1.21,0,0,0,1.39,1.38,2.69,2.69,0,0,0,1.25-.27m-3.75.07L178,53.54l5-6.17h-2.13l-4.58,5.77V47.37H174.4v13h1.83V54L181,60.35Zm-11.61,0V54.72c0-2.57-1.05-4.09-3.48-4.09a3.17,3.17,0,0,0-2.91,1.6h-.07V47.16H163.6V60.35h1.74V56c0-2.36.76-4,2.78-3.95,1.52.07,1.94,1.18,1.94,3.4v4.93ZM162,60.28V58.82a2.32,2.32,0,0,1-1.18.35c-.83,0-1.46-.63-1.46-1.74V52.22h2.37V50.83h-2.37V48.06l-1.73.55v2.22h-1.67v1.39h1.67v5.56c0,1.94,1.11,2.77,2.91,2.77a4.11,4.11,0,0,0,1.46-.28m-7.4-12.56a1.07,1.07,0,0,0-1-1,1,1,0,0,0-1,1,1,1,0,0,0,1,1,1,1,0,0,0,1-1m-.2,3.13h-1.74v9.51h1.73V50.84Zm-4.09,9.51V54.24c0-2.09-.91-3.61-3.34-3.61a3.36,3.36,0,0,0-2.91,1.8,2.8,2.8,0,0,0-2.71-1.8,3.26,3.26,0,0,0-3,1.6V50.84H136.6v9.51h1.74V55.56c0-1.81.76-3.54,2.5-3.54,1.46,0,1.73,1.46,1.73,2.63v5.7h1.74V55.56c0-1.81.69-3.54,2.5-3.54,1.39,0,1.66,1.46,1.66,2.63v5.7h1.81Zm-15.19-3.61c0-2.64-2.22-3.41-4.16-4.31a4,4,0,0,1-1-.48,1.78,1.78,0,0,1-1-1.53c0-1.39,1.38-1.81,2.57-1.81a7.87,7.87,0,0,1,2.63.56l.28-1.53a9.57,9.57,0,0,0-3-.55c-2.64,0-4.58,1.25-4.58,3.54,0,2.5,2.43,3.12,4.16,4,1,.41,2.09,1,2.09,2.22,0,1.67-1.74,2.22-2.85,2.22a9.22,9.22,0,0,1-3.06-.63l-.14,1.67a11.35,11.35,0,0,0,2.88.49c2.85,0,5.11-1.12,5.11-3.82m-19.22,3.61-3-5,2.77-4.51h-2l-1.8,3.4L110,50.84h-2.14l2.77,4.51-3.12,5h2.08l2.08-3.75,2.08,3.75ZM97.1,60.28c-.7-.21-.83-.69-.83-1.32V47.16H94.46v12a1.21,1.21,0,0,0,1.39,1.38,2.47,2.47,0,0,0,1.25-.27M92.31,60V54.33H90.44v4.35a6.32,6.32,0,0,1-2.08.21,5.07,5.07,0,0,1,.07-10.13,6.78,6.78,0,0,1,3.6.9l.14-1.88a9.06,9.06,0,0,0-3.81-.69,6.5,6.5,0,0,0-6.87,6.66c0,4.17,2.7,6.8,6.8,6.8a13.14,13.14,0,0,0,4-.55m33.25-4.44c0-2.85-1.67-4.93-4.51-4.93s-4.58,2.08-4.58,4.93,1.66,5,4.58,5,4.51-2.21,4.51-5m-1.87,0c0,1.73-.63,3.61-2.64,3.61s-2.71-1.88-2.71-3.61S119.1,52,121.05,52c1.8,0,2.64,1.74,2.64,3.55m-17.51,4.79a10.38,10.38,0,0,1-.07-1.88V54.52c0-2.57-1-3.89-3.68-3.89a5.41,5.41,0,0,0-3.05.9L99.51,53a4.22,4.22,0,0,1,2.64-1c1.74,0,2.15.82,2.15,2.5a13.55,13.55,0,0,0-1.8-.08c-1.81,0-4.17.77-4.17,3.13,0,2.08,1.32,3,3.33,3a3.15,3.15,0,0,0,2.78-1.46h.07v1.26Zm-1.88-3.68a2.29,2.29,0,0,1-2.5,2.5,1.57,1.57,0,0,1-1.59-1.6c0-1.67,2.15-1.81,3.05-1.81.42,0,.7.07,1,.07v.84Z"/><path class="cls-1" d="M209.38,53.15h-4.51l1.5,1.5a.28.28,0,0,0,0-.09l0,.4a4.62,4.62,0,0,1,.29-1.15l-.15.36a3,3,0,0,1,.34-.6l-.24.31a2.06,2.06,0,0,1,.39-.39l-.31.23a2.3,2.3,0,0,1,.4-.23l-.36.15a2.56,2.56,0,0,1,.56-.15l-.4,0a3.14,3.14,0,0,1,.75,0l-.4,0a2.3,2.3,0,0,1,.53.14l-.36-.15a2.3,2.3,0,0,1,.4.23l-.31-.23a1.87,1.87,0,0,1,.32.31l-.24-.3a2.26,2.26,0,0,1,.3.52l-.15-.35a3.07,3.07,0,0,1,.21.79l-.05-.39a5.68,5.68,0,0,1,0,.59,1.5,1.5,0,0,0,3,0,5.14,5.14,0,0,0-.53-2.34,3.45,3.45,0,0,0-3.15-1.79,3.53,3.53,0,0,0-1.25.21A3.6,3.6,0,0,0,204,52.35a6,6,0,0,0-.66,2.3,1.5,1.5,0,0,0,.44,1.06,1.58,1.58,0,0,0,1.06.44h4.51a1.5,1.5,0,0,0,0-3Z"/><path class="cls-1" d="M212.73,56a6.52,6.52,0,0,0-2.18-5.88,5.94,5.94,0,0,0-6.31-.15,6.49,6.49,0,0,0-2.73,6,6.28,6.28,0,0,0,2.69,5.23,6.66,6.66,0,0,0,3.52.88,8.31,8.31,0,0,0,3.54-.82,1.5,1.5,0,0,0,.74-1.3V58.19a1.51,1.51,0,0,0-.92-1.37,1.57,1.57,0,0,0-1.64.31c.35-.27.08-.07,0,0l-.37.22-.19.09c.12,0,.12,0,0,0l-.44.15c-.06,0-.52.1-.33.08-.15,0-.31,0-.46,0s.2.08-.11,0l-.35-.1c.29.07,0,0-.08,0s-.33-.26-.09,0l-.26-.25c-.23-.21.07.17-.07-.09l-.18-.32c.15.28,0,0,0-.13s-.12-.49-.09-.33,0-.31,0-.37l-1.5,1.5h6.35l-1.5-1.5h0a1.52,1.52,0,0,0,1.5,1.5h0a1.5,1.5,0,0,0,0-3h0l1.5,1.5h0a1.52,1.52,0,0,0-1.5-1.5h-6.35a1.52,1.52,0,0,0-1.5,1.5,4.65,4.65,0,0,0,2.91,4.43,5.6,5.6,0,0,0,5.27-1.14L209,58.19v1.74l.74-1.29-.37.17.11-.05s-.17.06-.21.08l-.46.13-.17,0-.39,0a12,12,0,0,1-1.34,0c.35,0-.18,0-.27-.06s-.41-.13-.61-.19c.36.1-.11-.06-.22-.12l-.35-.23c.34.24-.08-.09-.15-.17s-.09-.1-.14-.14c-.21-.23.14.23,0,0s-.18-.29-.26-.45l-.09-.19c.17.36,0,0,0,0a6,6,0,0,1-.27-1.11c.06.33,0-.1,0-.22s0-.43,0-.65,0-.47,0-.7c0,.31.05-.29.08-.39a6.13,6.13,0,0,1,.18-.61c0-.08.13-.24,0,0l.11-.21c.09-.18.21-.34.31-.51-.15.25-.08.09,0,0a3.83,3.83,0,0,1,.28-.29l.21-.19s-.25.16,0,0l.5-.29c-.28.15.08,0,.2,0s.24-.06.36-.09c.31-.08-.24,0,.11,0s.41,0,.62,0l.34,0c.08,0,.27.06,0,0,.2,0,.39.08.59.14l.21.07c-.34-.1,0,0,0,0l.23.14.12.08c-.15-.12-.19-.14-.1-.07s.27.26.38.4c-.27-.31.07.14.13.25a2.56,2.56,0,0,1,.11.24c-.1-.22-.05-.13,0,0a5.44,5.44,0,0,1,.15.54c0,.1,0,.2.05.29.08.39,0-.17,0,.14a8.69,8.69,0,0,1,0,1.53,1.49,1.49,0,0,0,1.5,1.5A1.54,1.54,0,0,0,212.73,56Z"/><path class="cls-1" d="M202.83,60.35V55.28a8.88,8.88,0,0,0-.36-3,4.42,4.42,0,0,0-3.29-3c-2.12-.43-4.62.24-5.6,2.34l1.3-.75h-.07l1.5,1.5V50.84a1.52,1.52,0,0,0-1.5-1.5h-1.67a1.52,1.52,0,0,0-1.5,1.5v9.51a1.52,1.52,0,0,0,1.5,1.5h1.74a1.52,1.52,0,0,0,1.5-1.5V57.22c0-.41,0-.82,0-1.23,0-.15,0-.3,0-.45s0-.19,0-.28.06-.5,0-.14c0-.2.07-.41.12-.61s.07-.23.1-.34c.08-.29-.13.23,0-.05.07-.13.35-.51.1-.23l.2-.21c.2-.23-.2.07,0,0l.21-.13c.27-.17-.3.06,0,0l.21,0c.16,0,.14,0-.07,0h.36c.14,0,.15,0,0,0l-.09,0,.18,0,.09,0c.16,0,.12,0-.11-.06,0,0,.15.08.15.08.25.17-.26-.24,0,0s-.12-.24-.05-.07a1.18,1.18,0,0,0,.11.19c.15.21-.07-.31,0,0,0,.2.09.39.13.59-.07-.31,0-.11,0,0l0,.4c0,.28,0,.56,0,.84v4.84a1.52,1.52,0,0,0,1.5,1.5h1.73l-1.5-1.5h0a1.5,1.5,0,0,0,3,0h0a1.52,1.52,0,0,0-1.5-1.5H199.6l1.5,1.5V57a11.77,11.77,0,0,0-.38-4.27,3.16,3.16,0,0,0-2.36-2.08,4,4,0,0,0-3.46.89c-1.38,1.23-1.52,3.23-1.52,5v3.9l1.5-1.5h-1.74l1.5,1.5V50.84l-1.5,1.5h1.67l-1.5-1.5v1.52a1.52,1.52,0,0,0,1.5,1.5h.07a1.46,1.46,0,0,0,1.29-.74,4.17,4.17,0,0,1,.26-.46c-.15.22.09-.07.16-.14s-.19.12,0,0l.17-.1a1.71,1.71,0,0,1,.23-.13c-.24.12,0,0,.08,0a4.15,4.15,0,0,1,.48-.11c-.27,0,.2,0,.31,0l.51,0s-.27,0-.1,0l.28,0,.41.13c-.26-.07-.11,0,0,0s.24.21.06,0l.31.31c.14.12-.12-.24,0-.07s.06.08.08.12.13.24.2.36c-.14-.26,0,0,0,.1s.09.33.13.5,0,.16,0,.24,0-.32,0,0a3.44,3.44,0,0,1,0,.46c0,.13,0,.27,0,.41v5.56a1.51,1.51,0,0,0,1.5,1.5A1.53,1.53,0,0,0,202.83,60.35Z"/><path class="cls-1" d="M192.25,47.71a4.52,4.52,0,0,0-.06-.53,1.16,1.16,0,0,0,0-.18,4.19,4.19,0,0,0-.2-.49c0-.06,0-.11-.08-.16s-.21-.27-.32-.4l-.12-.12a3.15,3.15,0,0,0-.41-.31,1.33,1.33,0,0,0-.32-.15,2.57,2.57,0,0,0-.88-.2h-.17a2.44,2.44,0,0,0-.54.09,3,3,0,0,0-.49.2l-.16.08a4.35,4.35,0,0,0-.42.33.74.74,0,0,0-.12.13,2.45,2.45,0,0,0-.4.57,4.19,4.19,0,0,0-.2.49,4.85,4.85,0,0,0-.08.55v.18a4.68,4.68,0,0,0,.08.54,3,3,0,0,0,.12.32,2.23,2.23,0,0,0,.15.31,4.47,4.47,0,0,0,.32.41,1.36,1.36,0,0,0,.12.12,2.65,2.65,0,0,0,.74.47c.11,0,.21.09.32.12a3.5,3.5,0,0,0,.55.09,2.92,2.92,0,0,0,.72-.06l.19-.06a3,3,0,0,0,.49-.21,3.43,3.43,0,0,0,.43-.32l.12-.13a2.64,2.64,0,0,0,.54-.93.61.61,0,0,0,.05-.18,3.68,3.68,0,0,0,.07-.58,1.52,1.52,0,0,0-.44-1.06,1.24,1.24,0,0,0-.48-.31,1.27,1.27,0,0,0-.58-.13,1.54,1.54,0,0,0-1.06.44,1.63,1.63,0,0,0-.44,1.06.61.61,0,0,1,0,.14l0-.4a1.22,1.22,0,0,1-.06.26l.15-.36a1,1,0,0,1-.13.22l.24-.31-.16.16.3-.23a.94.94,0,0,1-.22.12l.36-.15a1,1,0,0,1-.25.07l.4,0h-.28l.4,0a1,1,0,0,1-.29-.08l.36.15a1,1,0,0,1-.23-.13l.3.23a.77.77,0,0,1-.18-.18l.23.3a.82.82,0,0,1-.12-.2l.15.36a1.17,1.17,0,0,1-.07-.25l.06.39a1,1,0,0,1,0-.24l-.05.39a.86.86,0,0,1,.06-.23l-.15.35a1.09,1.09,0,0,1,.14-.23l-.24.3a1,1,0,0,1,.21-.21l-.3.23a1.88,1.88,0,0,1,.24-.14l-.36.16a1.09,1.09,0,0,1,.24-.07l-.4,0h.25l-.4,0a1.05,1.05,0,0,1,.24.06l-.36-.16a1,1,0,0,1,.22.14l-.3-.24a1.07,1.07,0,0,1,.18.19l-.23-.31.13.23-.15-.35a.89.89,0,0,1,.07.28l0-.39a.57.57,0,0,1,0,.13,1.54,1.54,0,0,0,.44,1.06,1.14,1.14,0,0,0,.48.31,1.06,1.06,0,0,0,.58.13,1.46,1.46,0,0,0,1.06-.44,1.5,1.5,0,0,0,.44-1.06Z"/><path class="cls-1" d="M190.61,49.34h-1.74a1.52,1.52,0,0,0-1.5,1.5v9.51a1.52,1.52,0,0,0,1.5,1.5h1.74a1.52,1.52,0,0,0,1.5-1.5V50.84a1.5,1.5,0,0,0-3,0h0a1.5,1.5,0,0,0,3,0h0a1.5,1.5,0,0,0-3,0v9.51l1.5-1.5h-1.74l1.5,1.5V50.84l-1.5,1.5h1.74a1.5,1.5,0,0,0,0-3Z"/><path class="cls-1" d="M187.56,58.83c.07,0,0,0,.14.13l.11.12c0,.12.05.13,0,0s0,0,0-.15V47.16a1.52,1.52,0,0,0-1.5-1.5h-1.81a1.52,1.52,0,0,0-1.5,1.5c0,4-.08,8,0,12a2.88,2.88,0,0,0,1.07,2.39,3.78,3.78,0,0,0,3.82.07,1.5,1.5,0,0,0,.54-2,1.53,1.53,0,0,0-2-.54c-.07,0-.23.06,0,0a2,2,0,0,1-.23.06h-.46c0-.09.26.17.27.18l0,.06c0,.13,0,.15,0,0s0,0,0-.08,0-.3,0-.44V47.16l-1.5,1.5h1.81l-1.5-1.5V58.43c0,.17,0,.35,0,.53a2.75,2.75,0,0,0,1.93,2.76,1.51,1.51,0,0,0,1.84-1,1.53,1.53,0,0,0-1-1.85Z"/><path class="cls-1" d="M184.47,59.29,179,52.47V54.6l5-6.17a1.52,1.52,0,0,0-1.07-2.56c-.92,0-2.49-.27-3.2.44-.44.46-.81,1-1.2,1.53l-3.37,4.23,2.56,1.07V47.37a1.52,1.52,0,0,0-1.5-1.5H174.4a1.52,1.52,0,0,0-1.5,1.5v13a1.52,1.52,0,0,0,1.5,1.5h1.83a1.52,1.52,0,0,0,1.5-1.5V54l-2.8.76,3.6,4.74A17.25,17.25,0,0,0,180,61.41a2.6,2.6,0,0,0,2,.44h1.45a1.5,1.5,0,0,0,0-3H181l1.29.74-4.79-6.32a1.56,1.56,0,0,0-1.69-.68,1.51,1.51,0,0,0-1.1,1.44v6.32l1.5-1.5H174.4l1.5,1.5v-13l-1.5,1.5h1.83l-1.5-1.5v5.77c0,1.19,1.72,2.12,2.56,1.06l4.58-5.77-1.06.44h2.13l-1.06-2.56-5,6.16a1.58,1.58,0,0,0,0,2.13l5.46,6.81a1.51,1.51,0,0,0,2.12,0A1.53,1.53,0,0,0,184.47,59.29Z"/><path class="cls-1" d="M173.3,60.35V55.23a8.49,8.49,0,0,0-.41-3.09,4.43,4.43,0,0,0-3.34-2.89,5.06,5.06,0,0,0-5.44,2.22l1.3-.74h-.07l1.5,1.5V47.16a1.52,1.52,0,0,0-1.5-1.5H163.6a1.52,1.52,0,0,0-1.5,1.5V60.35a1.52,1.52,0,0,0,1.5,1.5h1.74a1.52,1.52,0,0,0,1.5-1.5V56a7.94,7.94,0,0,1,0-1c0,.1.07-.38.09-.44s.18-.58.09-.37a2.15,2.15,0,0,1,.28-.49c-.22.29.28-.3,0,0a.62.62,0,0,1,.16-.1c.22-.09-.21.06,0,0l.27-.07c.22-.05-.31,0,.13,0a3,3,0,0,1,.31,0c-.16,0-.12.06,0,0,0,0,.27,0,0,0s.06.09,0,0,.25.3,0,0a.63.63,0,0,1,.12.21c-.11-.28,0,0,0,.08a15.74,15.74,0,0,1,.15,3.14v3.41a1.52,1.52,0,0,0,1.5,1.5h1.74l-1.5-1.5h0a1.5,1.5,0,0,0,3,0h0a1.52,1.52,0,0,0-1.5-1.5h-1.74l1.5,1.5V56.88a11.32,11.32,0,0,0-.45-4.38c-.93-2.22-3.91-2.57-5.67-1.07-1.41,1.2-1.6,3.19-1.6,4.92v4l1.5-1.5H163.6l1.5,1.5V47.16l-1.5,1.5h1.74l-1.5-1.5v5.07a1.52,1.52,0,0,0,1.5,1.5,1.76,1.76,0,0,0,1.43-.88,1.88,1.88,0,0,1,.7-.57,2.13,2.13,0,0,1,1-.15l.33,0c-.13,0-.11,0,.07,0s.6.19.33.07l.41.23,0,0,.19.18c.11.13.12.13,0,0a1.82,1.82,0,0,1,.15.23l.13.24c-.06-.14-.06-.12,0,0a4.5,4.5,0,0,1,.23,1.64c0,1.86,0,3.72,0,5.57A1.5,1.5,0,0,0,173.3,60.35Z"/><path class="cls-1" d="M163.47,60.28V58.82a1.51,1.51,0,0,0-2.25-1.29s-.32.14-.18.09-.22.06-.26.06.2,0,.06,0,.12.07-.08,0l.1.06,0,0s0,0,0-.16c0,.15,0-.1,0-.17V52.22l-1.5,1.5h2.37a1.52,1.52,0,0,0,1.5-1.5V50.83a1.52,1.52,0,0,0-1.5-1.5h-2.37l1.5,1.5V48.06a1.51,1.51,0,0,0-1.89-1.45l-1.74.55a1.54,1.54,0,0,0-1.1,1.45v2.22l1.5-1.5h-1.67a1.52,1.52,0,0,0-1.5,1.5v1.39a1.52,1.52,0,0,0,1.5,1.5h1.67l-1.5-1.5v5.19a4.72,4.72,0,0,0,1.08,3.41,5.05,5.05,0,0,0,5.19.9,1.54,1.54,0,0,0,1-1.85,1.51,1.51,0,0,0-1.85-1,3.12,3.12,0,0,1-1.14.22l-.36,0-.3-.07-.2-.06c.14.07.14.06,0,0s-.34-.27-.12-.06c-.06,0-.27-.33-.1-.08,0,0-.21-.39-.09-.12a4.45,4.45,0,0,1-.15-1.79V52.22a1.52,1.52,0,0,0-1.5-1.5h-1.67l1.5,1.5V50.83l-1.5,1.5h1.67a1.52,1.52,0,0,0,1.5-1.5V48.61L158,50.06l1.73-.56-1.9-1.44v2.77a1.52,1.52,0,0,0,1.5,1.5h2.37l-1.5-1.5v1.39l1.5-1.5h-2.37a1.52,1.52,0,0,0-1.5,1.5v4.47a4.82,4.82,0,0,0,.5,2.61c1,1.61,2.9,1.58,4.4.82l-2.26-1.3v1.46a1.5,1.5,0,0,0,3,0Z"/><path class="cls-1" d="M156.07,47.71a3.07,3.07,0,0,0-.06-.53,1.21,1.21,0,0,0,0-.18,3,3,0,0,0-.2-.49l-.09-.15a2.25,2.25,0,0,0-.45-.52,3.32,3.32,0,0,0-.42-.32,5.27,5.27,0,0,0-.49-.22,2.78,2.78,0,0,0-.71-.12h-.17a3.47,3.47,0,0,0-.55.08,4.19,4.19,0,0,0-.49.2l-.14.08a2.34,2.34,0,0,0-.53.46,3.15,3.15,0,0,0-.31.41,3,3,0,0,0-.21.49,2.4,2.4,0,0,0-.13.7,1.09,1.09,0,0,0,0,.18,4.85,4.85,0,0,0,.08.55.83.83,0,0,0,0,.15,4.1,4.1,0,0,0,.21.48,2.24,2.24,0,0,0,.42.54,4,4,0,0,0,.41.31l.14.08a2.55,2.55,0,0,0,.48.2,3.5,3.5,0,0,0,.55.09,2.88,2.88,0,0,0,.72-.06l.19,0a3.27,3.27,0,0,0,.51-.22,3.54,3.54,0,0,0,.44-.32l.14-.13a2.6,2.6,0,0,0,.56-.93,1.21,1.21,0,0,0,.05-.18,2.79,2.79,0,0,0,.07-.58,1.52,1.52,0,0,0-.44-1.06,1.11,1.11,0,0,0-.48-.31,1.27,1.27,0,0,0-.58-.13,1.56,1.56,0,0,0-1.06.44,1.63,1.63,0,0,0-.44,1.06v.11l.05-.39a.78.78,0,0,1-.07.25l.15-.36a.67.67,0,0,1-.12.2l.24-.3a1.07,1.07,0,0,1-.19.18l.3-.23a.86.86,0,0,1-.23.13l.36-.15a1,1,0,0,1-.29.08l.4,0h-.28l.4,0a1,1,0,0,1-.25-.07l.36.15a.94.94,0,0,1-.22-.12l.3.23-.16-.16.24.3a1.48,1.48,0,0,1-.13-.21l.15.35a1,1,0,0,1-.06-.25l0,.4a1.22,1.22,0,0,1,0-.27l0,.39a1.28,1.28,0,0,1,.07-.28l-.15.35.13-.23-.23.31a1.07,1.07,0,0,1,.18-.19l-.3.24a1.37,1.37,0,0,1,.2-.13l-.36.16a.84.84,0,0,1,.26-.07l-.4,0h.22l-.39,0a.84.84,0,0,1,.26.07l-.36-.15a.77.77,0,0,1,.25.14l-.3-.23a1.14,1.14,0,0,1,.19.19l-.24-.31a1.1,1.1,0,0,1,.15.26l-.15-.36a1.11,1.11,0,0,1,.07.26l-.06-.4a.45.45,0,0,1,0,.11,1.59,1.59,0,0,0,.44,1.06,1.11,1.11,0,0,0,.49.31,1,1,0,0,0,.57.13,1.5,1.5,0,0,0,1.5-1.5Z"/><path class="cls-1" d="M154.37,49.34h-1.74a1.52,1.52,0,0,0-1.5,1.5v9.51a1.52,1.52,0,0,0,1.5,1.5h1.73a1.52,1.52,0,0,0,1.5-1.5V50.84L153.3,51.9h0a1.5,1.5,0,1,0,2.12-2.12h0a1.52,1.52,0,0,0-2.57,1.06v9.51l1.5-1.5h-1.73l1.5,1.5V50.84l-1.5,1.5h1.74a1.5,1.5,0,0,0,0-3Z"/><path class="cls-1" d="M151.78,60.35V55a8.64,8.64,0,0,0-.3-2.82,4.35,4.35,0,0,0-3.56-3,4.93,4.93,0,0,0-5.18,2.47h2.59a4.35,4.35,0,0,0-4.11-2.55A5,5,0,0,0,137,51.47l2.8.76V50.84a1.52,1.52,0,0,0-1.5-1.5H136.6a1.52,1.52,0,0,0-1.5,1.5v9.51a1.52,1.52,0,0,0,1.5,1.5h1.74a1.52,1.52,0,0,0,1.5-1.5V57.48a12.2,12.2,0,0,1,.16-3.1,1.29,1.29,0,0,1,.15-.37c0-.1.12-.19.17-.28s-.08.11,0,0,.31-.15.47-.21c0,0,.24,0,0-.08.12,0,.13.15,0,0s.12.25.05,0A4.58,4.58,0,0,1,141,54c0,.17,0,0,0,0,0,.13,0,.27,0,.4,0,.91,0,1.83,0,2.74v3.19a1.52,1.52,0,0,0,1.5,1.5h1.74a1.52,1.52,0,0,0,1.5-1.5V57.42a11.92,11.92,0,0,1,.16-3.08,1.39,1.39,0,0,1,.3-.6c.17-.2.28-.18.54-.22,0,0-.42,0,.09,0,0,0-.14,0-.13-.06s.1,0,0,0,0,0,0,.08c-.08-.19.08.29.1.37s0,.29,0,.07c0,.11,0,.21,0,.32,0,.92,0,1.84,0,2.76v3.25a1.52,1.52,0,0,0,1.5,1.5h1.8l-1.06-.44h0a1.5,1.5,0,0,0,2.12-2.12c-.68-.67-2-.44-2.87-.44l1.5,1.5V57a21,21,0,0,0-.12-3.72,3.24,3.24,0,0,0-2.15-2.67,3.68,3.68,0,0,0-3.44.87c-1.31,1.24-1.45,3.08-1.45,4.77v4.07l1.5-1.5h-1.74l1.5,1.5V57a22,22,0,0,0-.12-3.72,3.33,3.33,0,0,0-2-2.62,3.63,3.63,0,0,0-3.62.85c-1.29,1.27-1.44,3.09-1.44,4.79v4l1.5-1.5H136.6l1.5,1.5V50.84l-1.5,1.5h1.67l-1.5-1.5v1.39a1.51,1.51,0,0,0,2.8.75,1.74,1.74,0,0,1,1.65-.85,1.46,1.46,0,0,1,1.52,1.06,1.51,1.51,0,0,0,2.59,0,1.84,1.84,0,0,1,1.5-1.07c-.31.06,0,0,.11,0h.4c.2,0,.24,0,.13,0a1.29,1.29,0,0,1,.78.31c-.22-.15.17.19.21.24-.17-.22,0,.11.07.16s.09.17,0,0l.09.28c0,.06.12.59.09.38a7,7,0,0,1,0,1v5.75A1.5,1.5,0,0,0,151.78,60.35Z"/><path class="cls-1" d="M136.59,56.74a5,5,0,0,0-1.49-3.61,10.55,10.55,0,0,0-3-1.82,8.77,8.77,0,0,1-1.5-.76c-.13-.1-.06-.14-.07-.17s0-.12-.07,0l.1-.11c-.09.06-.09.07,0,0a1.7,1.7,0,0,1,1.15-.21,6.44,6.44,0,0,1,2.12.5,1.51,1.51,0,0,0,1.85-1l.28-1.53a1.54,1.54,0,0,0-1-1.84,9.1,9.1,0,0,0-6.48,0,4.78,4.78,0,0,0-3,4.44A5,5,0,0,0,128.46,55c.68.34,1.4.62,2.08.94a6.62,6.62,0,0,1,.88.49c.25.21.26.28.23.49s-.14.2-.26.29-.3.16-.15.09-.24.08-.24.08-.6.12-.3.09a6.81,6.81,0,0,1-3-.55c-1-.38-1.83.57-1.9,1.44l-.14,1.67a1.52,1.52,0,0,0,1.11,1.44,10.06,10.06,0,0,0,6.46,0,5.08,5.08,0,0,0,3.42-4.8c0-1.93-3-1.93-3,0a2.35,2.35,0,0,1-.16.92c.08-.22-.09.16-.11.19s-.27.35-.11.17a2.45,2.45,0,0,1-1.3.79,7.75,7.75,0,0,1-4.41-.19l1.1,1.45.14-1.67-1.9,1.45a7.38,7.38,0,0,0,5.79.13,3.46,3.46,0,0,0,1.19-5.33c-1.13-1.32-3-1.64-4.41-2.5a1.82,1.82,0,0,1-1-1.13c-.05-.27,0,.18,0-.11a2.72,2.72,0,0,1,0-.28,2.08,2.08,0,0,1,0-.35s0,.17,0,0,.14-.49.07-.31a1.38,1.38,0,0,1,.14-.27c.11-.21,0,0,.07-.12a1.71,1.71,0,0,1,.8-.62,5.64,5.64,0,0,1,1.21-.34,7.82,7.82,0,0,1,3.35.47l-1-1.85-.28,1.53,1.84-1a6.87,6.87,0,0,0-5.23-.16A3.12,3.12,0,0,0,127.92,52c.85,1.41,2.54,1.8,3.91,2.51a4,4,0,0,1,1.36,1,2,2,0,0,1,.4,1.27c0,1.92,3,1.93,3,0Z"/><path class="cls-1" d="M117.17,59.59l-3-5V56.1l2.78-4.51a1.51,1.51,0,0,0-1.3-2.25h-2a1.48,1.48,0,0,0-1.29.74l-1.8,3.4h2.59l-1.81-3.4a1.5,1.5,0,0,0-1.3-.74h-2.14a1.51,1.51,0,0,0-1.3,2.25l2.78,4.51V54.59l-3.13,5a1.51,1.51,0,0,0,1.3,2.26h2.08a1.48,1.48,0,0,0,1.29-.74l2.09-3.75h-2.59l2.08,3.75a1.48,1.48,0,0,0,1.29.74h2.16a1.5,1.5,0,0,0,0-3h-2.16l1.3.74-2.08-3.75a1.52,1.52,0,0,0-2.59,0l-2.09,3.75,1.3-.74h-2.08l1.29,2.26,3.13-5a1.51,1.51,0,0,0,0-1.51l-2.78-4.51-1.29,2.26H110l-1.29-.75L110.49,55a1.52,1.52,0,0,0,2.59,0l1.8-3.41-1.3.75h2l-1.29-2.26-2.78,4.51a1.49,1.49,0,0,0,0,1.51l3,5a1.5,1.5,0,1,0,2.59-1.52Z"/><path class="cls-1" d="M97.5,58.83c.07,0,0,0,.14.13l.11.12c0,.12,0,.13,0,0s0,0,0-.15v-.11c0-.23,0-.45,0-.68v-11a1.52,1.52,0,0,0-1.5-1.5H94.46a1.52,1.52,0,0,0-1.5,1.5c0,4-.08,8,0,12A2.88,2.88,0,0,0,94,61.5a3.69,3.69,0,0,0,3.83.07A1.5,1.5,0,0,0,96.34,59c-.08.05-.18.06,0,0l-.23.06h-.49c0-.09.25.17.27.18l0,.06c0,.13,0,.15,0,0s0,0,0-.08a3.23,3.23,0,0,1,0-.44V47.16l-1.5,1.5h1.81l-1.5-1.5V58.43c0,.17,0,.35,0,.53a2.74,2.74,0,0,0,1.93,2.76,1.52,1.52,0,0,0,1.85-1,1.54,1.54,0,0,0-1-1.85Z"/><path class="cls-1" d="M93.81,60V54.33a1.52,1.52,0,0,0-1.5-1.5H90.44a1.52,1.52,0,0,0-1.5,1.5v4.35L90,57.23l-.41.1c-.31.11.32,0-.08,0s-.91,0-1.37,0a3.69,3.69,0,0,1-1.78-.57,3.37,3.37,0,0,1-1.18-1.44,4.38,4.38,0,0,1-.27-2,3.27,3.27,0,0,1,2-2.84c-.16.07.24-.08.28-.09a4,4,0,0,1,.68-.16,7.64,7.64,0,0,1,1.25,0,4.85,4.85,0,0,1,2.12.66,1.51,1.51,0,0,0,2.25-1.29l.14-1.88a1.54,1.54,0,0,0-1.1-1.45c-4.27-1.59-9.85-.64-11.85,3.91a9.15,9.15,0,0,0-.13,6.88,7.63,7.63,0,0,0,4.58,4.43,12.84,12.84,0,0,0,7.54-.1,1.5,1.5,0,0,0-.79-2.9,13,13,0,0,1-2,.43c-.53.05-1.07.07-1.6.07A6.63,6.63,0,0,1,87,58.94a5,5,0,0,1-2.08-.84,4.68,4.68,0,0,1-1.3-1.49A6.23,6.23,0,0,1,83.24,52a4.81,4.81,0,0,1,2.81-3,7.94,7.94,0,0,1,5.73.23l-1.11-1.45-.14,1.88,2.26-1.3c-3.16-1.94-7.91-1.41-9.92,1.91C81,53.38,82,58,85.31,59.65a7.94,7.94,0,0,0,5.53.48,1.54,1.54,0,0,0,1.1-1.45V54.33l-1.5,1.5h1.87l-1.5-1.5V60a1.5,1.5,0,0,0,3,0Z"/><path class="cls-1" d="M127.06,55.56a6.06,6.06,0,0,0-10.91-4,7.39,7.39,0,0,0-.43,7.33,6,6,0,0,0,6.66,3c3-.56,4.65-3.48,4.68-6.35a1.5,1.5,0,0,0-3,0c0,.24,0,.49,0,.73s.08-.34,0,.06l-.09.37c0,.2-.13.4-.18.6.08-.27,0-.1,0,0s-.14.28-.22.42l-.16.25c0,.08-.23.26,0,0a4.07,4.07,0,0,1-.41.42c0,.05-.35.26,0,.06l-.2.13a3.14,3.14,0,0,1-.31.18c-.12.06-.32.12-.08,0l-.66.19c-.08,0-.36,0,0,0a2.69,2.69,0,0,1-.4,0,5.39,5.39,0,0,1-.7,0c.28,0,.07,0,0,0l-.5-.12c-.1,0-.19-.08-.29-.1s.28.16,0,0-.35-.19-.51-.3c.29.19,0,0-.07-.06l-.17-.16a2.85,2.85,0,0,1-.23-.26c-.23-.25.1.19,0-.07s-.23-.38-.33-.57-.12-.34,0,0l-.12-.35c-.06-.2-.1-.41-.15-.61s0-.05,0,0c0-.18,0-.35,0-.53a5.15,5.15,0,0,1,0-.68l0-.4c0,.06-.05.3,0,0a6,6,0,0,1,.14-.61l.12-.35c.11-.32-.12.19,0-.07a3.41,3.41,0,0,0,.32-.55c.07-.19-.22.23,0,0l.23-.25.16-.16.06,0a4.48,4.48,0,0,1,.6-.35c.24-.13,0,0,0,0l.34-.12c.13,0,.25,0,.37-.09s.29,0,0,0a5.07,5.07,0,0,1,.68,0h.41c.36,0-.19,0,.12,0l.72.19c.37.11-.25-.15.08,0l.31.17.29.19c-.29-.2,0,0,0,.06l.24.24c.1.11.2.26.06.06.14.21.27.43.39.65s.12.33,0,0c0,.14.1.27.14.41s.06.21.08.31.1.5.07.31,0,.2,0,.2c0,.18,0,.36,0,.55a1.5,1.5,0,0,0,3,0Z"/><path class="cls-1" d="M122.19,55.56c0,.15,0,.3,0,.45a1.64,1.64,0,0,1,0,.22c0,.17-.1.21,0-.08-.11.26-.12.58-.21.85,0,0-.11.32,0,.06s0,0,0,0-.14.21-.19.32.25-.28,0-.08a1.14,1.14,0,0,1-.11.11c-.13.14-.22.09.06,0a1.37,1.37,0,0,0-.2.13s-.13,0-.15.08c.17-.18.27-.09.08,0l-.22.06c-.26.07.1,0,.12,0a4.54,4.54,0,0,0-.51,0c-.27,0,.09,0,.11,0a1.41,1.41,0,0,0-.31-.07c-.17,0-.18-.15.07,0l-.15-.07a1.2,1.2,0,0,0-.21-.13,1.26,1.26,0,1,0,.11.09,2.57,2.57,0,0,0-.28-.29s.21.31.09.11l-.12-.21c0-.06-.07-.17-.11-.22s.13.35,0,.12-.09-.27-.13-.41,0-.25-.08-.38,0-.28,0,.09a2.3,2.3,0,0,0,0-.26,8.42,8.42,0,0,1,0-.87c0-.08,0-.16,0-.24,0-.26,0,.09,0,.12a3.15,3.15,0,0,0,.11-.55c0-.13.09-.26.12-.39s-.17.34,0,.08l.08-.16c.07-.12.17-.23.23-.35-.13.27-.17.2-.08.11s.15-.13.21-.2-.32.19-.07.06l.14-.09c.24-.14.12,0,0,0l.16-.06.18,0c.31-.09-.35,0,0,0a2.11,2.11,0,0,0,.5,0l-.21,0,.17,0,.09,0q.23.07-.12-.06a1.25,1.25,0,0,0,.37.21c-.21,0-.22-.18,0,0s.12.16.17.18c-.13,0-.17-.25-.07-.1s.1.15.14.23.08.16.13.24c.13.25-.11-.32,0,0s.1.32.14.49,0,.16.05.24c.07.29,0-.34,0,0s0,.4,0,.6a1.52,1.52,0,0,0,1.5,1.5,1.54,1.54,0,0,0,1.5-1.5c0-2-.86-4.07-2.84-4.82a4,4,0,0,0-4.93,2.06,6.91,6.91,0,0,0-.16,5.21A4.16,4.16,0,0,0,119,60.17a4.29,4.29,0,0,0,3.16.34c2.17-.63,3-2.89,3-4.95a1.5,1.5,0,0,0-3,0Z"/><path class="cls-1" d="M107.62,60c-.07-.31,0,.33,0,.09s0-.25,0-.37c0-.4,0-.8,0-1.2V55a8.5,8.5,0,0,0-.35-2.88,4.29,4.29,0,0,0-3-2.75,7.34,7.34,0,0,0-5.69.87,1.49,1.49,0,0,0-.74,1.3L98,53a1.53,1.53,0,0,0,.93,1.37,1.58,1.58,0,0,0,1.64-.31c-.2.15.18-.11.18-.11a4.1,4.1,0,0,1,.41-.22c-.21.09.22-.08.23-.08a2.6,2.6,0,0,1,.4-.1c.1,0,.1,0,0,0h.61c.38,0-.25-.08.08,0l.3.08c-.21,0-.18-.14,0,0-.09-.09-.19-.22-.07,0s-.19-.28,0-.07.1,0,0,0c.1.09.14.75.11.31q0,.38,0,.75l1.5-1.5c-2.71-.27-6.17.13-7.23,3.1a4.69,4.69,0,0,0,.64,4.26,5.16,5.16,0,0,0,8-.53l-1.3.74h.07l-1.5-1.5v1.26a1.52,1.52,0,0,0,1.5,1.5h1.67l-1.5-1.5h0a1.51,1.51,0,0,0,1.5,1.5,1.53,1.53,0,0,0,1.5-1.5h0a1.52,1.52,0,0,0-1.5-1.5h-1.67l1.5,1.5V59.09a1.52,1.52,0,0,0-1.5-1.5,1.62,1.62,0,0,0-1.45.87c-.08.12-.06.09.09-.1l-.12.14-.3.28c.3-.27-.1,0-.17.08s-.14.08,0,0l-.26.09a2.58,2.58,0,0,1-.42.1c.25,0-.31,0-.37,0a4.41,4.41,0,0,1-.52,0c.38,0-.13,0-.2-.05l-.44-.14c.38.14,0-.06-.12-.1-.27-.14.17.19,0,0s-.31-.41-.11-.08c-.07-.12-.15-.24-.21-.37.18.35,0-.09,0-.18a2,2,0,0,1,0-.24c0,.18,0,.19,0,0s0-.37,0-.55c0,.35,0-.08,0-.16a1.09,1.09,0,0,1,0-.17c-.08.18-.08.19,0,0s.33-.45.07-.16c.1-.11.2-.21.31-.31s.11-.1,0,0l.19-.13.39-.21c-.34.18.09,0,.17,0l.33-.1.45-.1h-.06l.22,0a12.29,12.29,0,0,1,2.35.05,1.51,1.51,0,0,0,1.5-1.5c0-1.61-.47-3.17-2.11-3.77a5.61,5.61,0,0,0-5.24,1.18L101,53l-.13-1.46-.75,1.29.46-.25c.06,0,.47-.22.23-.13a7.72,7.72,0,0,1,1-.28,7.4,7.4,0,0,1,1,0c.16,0,.31,0,.46,0-.33,0,0,0,.18,0s.24.09.36.11-.1,0-.12-.06a1.51,1.51,0,0,0,.18.09l.24.15c.22.12,0,0-.08-.06l.14.12s.13.12.12.13-.2-.33-.06-.08c0,.08.1.16.14.24s.06.12.09.17-.1-.28-.06-.12.09.26.13.39.05.25.08.38,0,.27,0,0a1.1,1.1,0,0,1,0,.18c0,.24,0,.48,0,.72v3.32a13.37,13.37,0,0,0,.12,2.9,1.5,1.5,0,1,0,2.89-.8Z"/><path class="cls-1" d="M102.8,56.67c0,.15,0,.29,0,.44l0-.4a3.56,3.56,0,0,1-.19.73l.15-.36a2.13,2.13,0,0,1-.27.46l.24-.3a2.28,2.28,0,0,1-.38.38l.3-.23a2.6,2.6,0,0,1-.49.28l.36-.16a2.59,2.59,0,0,1-.66.18l.39-.06a2.8,2.8,0,0,1-.71,0l.4.05a1.55,1.55,0,0,1-.42-.12l.36.16a2.33,2.33,0,0,1-.34-.2l.31.24a2.57,2.57,0,0,1-.29-.28l.24.3a1.44,1.44,0,0,1-.19-.31l.15.36a1.69,1.69,0,0,1-.12-.44l0,.4a1.93,1.93,0,0,1,0-.48l0,.4a1.64,1.64,0,0,1,.1-.38l-.15.36a1.92,1.92,0,0,1,.18-.31l-.23.3a1.79,1.79,0,0,1,.28-.27l-.3.23a2.6,2.6,0,0,1,.49-.28l-.36.15a4.66,4.66,0,0,1,1-.26l-.39,0a6.49,6.49,0,0,1,.77,0c.41,0,.8.06,1.2.06l-1.5-1.5v.84a1.5,1.5,0,0,0,3,0h0a1.5,1.5,0,0,0-3,0h0a1.5,1.5,0,0,0,3,0v-.84a1.52,1.52,0,0,0-1.5-1.5c-.45,0-.89-.08-1.34-.06a10,10,0,0,0-1.34.15,3.63,3.63,0,0,0-2.55,1.68,3.3,3.3,0,0,0-.27,2.23,3,3,0,0,0,1.34,1.86,3.21,3.21,0,0,0,1.91.47,4.38,4.38,0,0,0,1.94-.54,3.94,3.94,0,0,0,1.81-3.45,1.5,1.5,0,0,0-1.5-1.5A1.52,1.52,0,0,0,102.8,56.67Z"/><path class="cls-1" d="M85.27,22c0-13-9.22-18.07-20-19.78a86.85,86.85,0,0,0-11.82-.67C37.93,1.51,12.18,4,3.69,21.41A23,23,0,0,0,1.5,30.72c0,11.07,6.06,22.93,14.05,31.39,7.52,8,15.73,11.4,24.5,11.4a29.13,29.13,0,0,0,17.67-6.08C69.7,58.52,85.27,38.12,85.27,22"/><g class="cls-7"><path class="cls-8" d="M4,2.35h80.5V71.67H4Z"/></g><path class="cls-9" d="M209.38,54.65h-4.51c.14-1.17.63-2.63,2.36-2.63,1.53,0,2.15,1.18,2.15,2.63M211.23,56a2.75,2.75,0,0,0,0-.5c0-2.8-1-4.84-4-4.84-2.63,0-4.23,2-4.23,4.79,0,3.12,1.39,5.13,4.72,5.13a5.38,5.38,0,0,0,2.78-.62V58.19a4.71,4.71,0,0,1-2.71,1,3,3,0,0,1-2.91-3.2Zm-9.9,4.38V54.72c0-2.57-1-4.09-3.47-4.09a3.12,3.12,0,0,0-3,1.73h-.07V50.84h-1.67v9.51h1.74V56c0-2.36.76-4,2.77-3.95,1.53.07,1.95,1.18,1.95,3.4v4.93ZM190.75,47.71a1,1,0,0,0-1-1,1.07,1.07,0,0,0-1,1,1,1,0,0,0,1,1,1,1,0,0,0,1-1m-.14,3.13h-1.74v9.51h1.74V50.84Zm-3.45,9.44c-.7-.21-.83-.69-.83-1.32V47.16h-1.81v12a1.21,1.21,0,0,0,1.39,1.38,2.69,2.69,0,0,0,1.25-.27m-3.75.07L178,53.54l5-6.17h-2.13l-4.58,5.77V47.37H174.4v13h1.83V54L181,60.35Zm-11.61,0V54.72c0-2.57-1.05-4.09-3.48-4.09a3.17,3.17,0,0,0-2.91,1.6h-.07V47.16H163.6V60.35h1.74V56c0-2.36.76-4,2.78-3.95,1.52.07,1.94,1.18,1.94,3.4v4.93ZM162,60.28V58.82a2.32,2.32,0,0,1-1.18.35c-.83,0-1.46-.63-1.46-1.74V52.22h2.37V50.83h-2.37V48.06l-1.73.55v2.22h-1.67v1.39h1.67v5.56c0,1.94,1.11,2.77,2.91,2.77a4.11,4.11,0,0,0,1.46-.28m-7.4-12.56a1.07,1.07,0,0,0-1-1,1,1,0,0,0-1,1,1,1,0,0,0,1,1,1,1,0,0,0,1-1m-.2,3.13h-1.74v9.51h1.73V50.84Zm-4.09,9.51V54.24c0-2.09-.91-3.61-3.34-3.61a3.36,3.36,0,0,0-2.91,1.8,2.8,2.8,0,0,0-2.71-1.8,3.26,3.26,0,0,0-3,1.6V50.84H136.6v9.51h1.74V55.56c0-1.81.76-3.54,2.5-3.54,1.46,0,1.73,1.46,1.73,2.63v5.7h1.74V55.56c0-1.81.69-3.54,2.5-3.54,1.39,0,1.66,1.46,1.66,2.63v5.7h1.81Zm-15.19-3.61c0-2.64-2.22-3.41-4.16-4.31a4,4,0,0,1-1-.48,1.78,1.78,0,0,1-1-1.53c0-1.39,1.38-1.81,2.57-1.81a7.87,7.87,0,0,1,2.63.56l.28-1.53a9.57,9.57,0,0,0-3-.55c-2.64,0-4.58,1.25-4.58,3.54,0,2.5,2.43,3.12,4.16,4,1,.41,2.09,1,2.09,2.22,0,1.67-1.74,2.22-2.85,2.22a9.22,9.22,0,0,1-3.06-.63l-.14,1.67a11.35,11.35,0,0,0,2.88.49c2.85,0,5.11-1.12,5.11-3.82m-19.22,3.61-3-5,2.77-4.51h-2l-1.8,3.4L110,50.84h-2.14l2.77,4.51-3.12,5h2.08l2.08-3.75,2.08,3.75ZM97.1,60.28c-.7-.21-.83-.69-.83-1.32V47.16H94.46v12a1.21,1.21,0,0,0,1.39,1.38,2.47,2.47,0,0,0,1.25-.27M92.31,60V54.33H90.44v4.35a6.32,6.32,0,0,1-2.08.21,5.07,5.07,0,0,1,.07-10.13,6.78,6.78,0,0,1,3.6.9l.14-1.88a9.06,9.06,0,0,0-3.81-.69,6.5,6.5,0,0,0-6.87,6.66c0,4.17,2.7,6.8,6.8,6.8a13.14,13.14,0,0,0,4-.55m33.25-4.44c0-2.85-1.67-4.93-4.51-4.93s-4.58,2.08-4.58,4.93,1.66,5,4.58,5,4.51-2.21,4.51-5m-1.87,0c0,1.73-.63,3.61-2.64,3.61s-2.71-1.88-2.71-3.61S119.1,52,121.05,52c1.8,0,2.64,1.74,2.64,3.55m-17.51,4.79a10.38,10.38,0,0,1-.07-1.88V54.52c0-2.57-1-3.89-3.68-3.89a5.41,5.41,0,0,0-3.05.9L99.51,53a4.22,4.22,0,0,1,2.64-1c1.74,0,2.15.82,2.15,2.5a13.55,13.55,0,0,0-1.8-.08c-1.81,0-4.17.77-4.17,3.13,0,2.08,1.32,3,3.33,3a3.15,3.15,0,0,0,2.78-1.46h.07v1.26Zm-1.88-3.68a2.29,2.29,0,0,1-2.5,2.5,1.57,1.57,0,0,1-1.59-1.6c0-1.67,2.15-1.81,3.05-1.81.42,0,.7.07,1,.07v.84Z"/></g></g></svg>