<svg xmlns="http://www.w3.org/2000/svg" viewBox="0 0 135.7 74.98"><defs><style>.cls-1,.cls-2{fill:#fff;}.cls-1,.cls-3,.cls-4,.cls-5,.cls-6{fill-rule:evenodd;}.cls-3{fill:#009b46;}.cls-4{fill:#e2001c;}.cls-5{fill:#f59f00;}.cls-6{fill:#0068b1;}.cls-7{fill:#000002;}</style></defs><g id="Layer_2" data-name="Layer 2"><g id="Layer_1-2" data-name="Layer 1"><path class="cls-1" d="M109.06,43.88c.63-.08,9.56,0,10.47,0A6.31,6.31,0,0,1,123.7,45a4.48,4.48,0,0,1,1.66,3.59c0,3.67-2.65,4.68-5.83,4.68-.83,0-9.88.06-10.46,0V43.88Zm11.28-7.5a3.67,3.67,0,0,1-1.4.1h-7.1c-.86,0-1.94.06-2.77,0-.1-.36-.11-8.3,0-8.84.63-.08,7.32,0,8.55,0a11.67,11.67,0,0,1,2.7.1A4.7,4.7,0,0,1,123.38,29a4.52,4.52,0,0,1,1.2,3.12,4.21,4.21,0,0,1-4.24,4.3ZM100.42,25.12c0,.44.39.72.62,1a14.67,14.67,0,0,1,1.4,1.89,22.64,22.64,0,0,1-1.38,26.94c-.24.31-.61.5-.64,1v4.83c.95.09,14.24,0,15.58,0,2.48,0,5.32.13,7.76,0,12.17-.91,13.22-15.19,5.65-19.74a9.09,9.09,0,0,0-2.78-1.09c.23-.14,1.09-.36,1.4-.5a9.07,9.07,0,0,0,5.31-7.69,9.82,9.82,0,0,0-4.91-9.81c-3.72-2.13-8.4-1.62-13.23-1.62-1.17,0-14-.07-14.77,0Z"/><path class="cls-2" d="M109.06,45.38a54.76,54.76,0,0,1,6,0h3.51a9.44,9.44,0,0,1,3.35.32A3.14,3.14,0,0,1,123.85,49a2.48,2.48,0,0,1-1.79,2.36c-1.86.61-4.17.35-6.13.35h-4.38a22.76,22.76,0,0,1-2.48,0l1.5,1.5V43.88a1.5,1.5,0,0,0-3,0v9.34a1.54,1.54,0,0,0,1.5,1.5c.79.09,1.61,0,2.41,0h4.28c2.39,0,5.18.29,7.44-.59a5.45,5.45,0,0,0,3.43-3.68,6.57,6.57,0,0,0-1.27-6c-2.12-2.47-5.52-2.16-8.47-2.17-1.6,0-3.21,0-4.82,0a27.48,27.48,0,0,0-3,0,1.54,1.54,0,0,0-1.5,1.5A1.52,1.52,0,0,0,109.06,45.38Z"/><path class="cls-2" d="M119.58,35.09c.51-.23.19-.1-.09-.1H115c-2,0-4,.14-5.93,0l1.45,1.1c.14.63,0,.11,0-.13s0-.64,0-1c0-.95,0-1.91,0-2.86s0-1.89,0-2.83c0-.34,0-.68,0-1s.1-1,0-.24l-1.44,1.1a53.23,53.23,0,0,1,5.79,0h2.67l1.19,0c.28,0,.55,0,.82,0l.41,0c-.14,0-.25-.06-.06,0l-.66-.39a2.61,2.61,0,0,0,1.52.48,3.26,3.26,0,0,1,1.22.54,2.69,2.69,0,0,1,1.09,1.93,2.78,2.78,0,0,1-2.72,3.19,1.5,1.5,0,0,0,0,3,5.76,5.76,0,0,0,5.73-5.68c.08-3.12-2.48-6.14-5.75-6l1.06.43c-1-.78-2.4-.55-3.57-.54-.84,0-1.69,0-2.54,0a55.74,55.74,0,0,0-6.2,0,1.55,1.55,0,0,0-1.45,1.1,30.71,30.71,0,0,0-.13,4.89c0,1,0,2,0,2.92a9.33,9.33,0,0,0,.11,1.83,1.56,1.56,0,0,0,1.45,1.1c2.05.15,4.18,0,6.24,0h3a6.66,6.66,0,0,0,2.81-.3,1.51,1.51,0,0,0,.54-2A1.53,1.53,0,0,0,119.58,35.09Z"/><path class="cls-2" d="M99,25.52a5.69,5.69,0,0,0,1.38,2.09,23.68,23.68,0,0,1,1.53,2.31,20.75,20.75,0,0,1,2.22,5.46,21.36,21.36,0,0,1-.33,11.49,21.09,21.09,0,0,1-2.25,4.78A18.51,18.51,0,0,1,100,53.86a3.47,3.47,0,0,0-1.08,2c-.13,1.59,0,3.24,0,4.83a1.54,1.54,0,0,0,1.5,1.5c3,.25,6.2,0,9.26,0,3.7,0,7.4,0,11.1,0,4.57,0,9.18-.78,12.22-4.54a12.64,12.64,0,0,0,2.39-10.62A11.17,11.17,0,0,0,127,38.4l.36,2.74c.77-.36,1.58-.53,2.33-1a9.83,9.83,0,0,0,2.52-2.11,11.32,11.32,0,0,0,2.56-6A11.57,11.57,0,0,0,130,21.09c-4.17-2.93-9.56-2.39-14.38-2.37-2.39,0-4.78,0-7.17,0-2.66,0-5.4-.19-8,0a1.54,1.54,0,0,0-1.5,1.5l0,4.88a1.5,1.5,0,0,0,3,0l0-4.88-1.5,1.5c1.9-.16,3.87,0,5.77,0l7.77,0c3.41,0,7-.37,10.32.26,3.72.69,6.8,3.1,7.48,7a9.05,9.05,0,0,1-1.18,6.33,7,7,0,0,1-2.23,2.22,22.69,22.69,0,0,1-2.49,1.06c-1.27.59-.74,2.36.36,2.74a9.23,9.23,0,0,1,4.24,2.46,8.85,8.85,0,0,1,1.92,3.71,9.59,9.59,0,0,1-1.74,8.43c-2.85,3.42-7.32,3.42-11.42,3.38-3.14,0-6.28,0-9.42,0s-6.29.22-9.39,0l1.5,1.5V56.59a3.49,3.49,0,0,1,0-.56c.06-.32,0,.23,0,.17A24,24,0,0,0,107,46.56a24.53,24.53,0,0,0,0-12,23.71,23.71,0,0,0-3.48-7.67c-.29-.44-.59-.86-.92-1.28-.19-.24-.65-.6-.73-.91C101.4,22.85,98.5,23.65,99,25.52Z"/><path class="cls-1" d="M37.91,60.71c.09-1.89,0-3.94,0-5.85,0-2.4.1-17-.08-17.28a8.58,8.58,0,0,0-.67-.79,23.31,23.31,0,0,1-4.9-11.06c-.44-3.09,0-3.76-.16-5.5l-2.89,0V36.12H10.13V20.23H1.5v40.5l8.63,0v-17H29.22v17Z"/><path class="cls-2" d="M39.41,60.71c.2-5.43,0-10.92,0-16.35,0-2,0-4.11-.06-6.16A3.08,3.08,0,0,0,38.5,36a20.15,20.15,0,0,1-3-4.6A21.79,21.79,0,0,1,33.68,25c-.19-1.61,0-3.2-.07-4.81a1.53,1.53,0,0,0-1.5-1.5l-2.89,0a1.52,1.52,0,0,0-1.5,1.5V36.12l1.5-1.5H10.13l1.5,1.5V20.23a1.52,1.52,0,0,0-1.5-1.5H1.5A1.52,1.52,0,0,0,0,20.23v40.5a1.53,1.53,0,0,0,1.5,1.5l8.63,0a1.53,1.53,0,0,0,1.5-1.5v-17l-1.5,1.5H29.22l-1.5-1.5v17a1.52,1.52,0,0,0,1.5,1.5h8.68a1.5,1.5,0,0,0,0-3H29.23l1.5,1.5v-17a1.52,1.52,0,0,0-1.5-1.5H10.14a1.52,1.52,0,0,0-1.5,1.5v17l1.5-1.5-8.63,0L3,60.73V20.23l-1.5,1.5h8.62l-1.5-1.5V36.12a1.52,1.52,0,0,0,1.5,1.5H29.21a1.51,1.51,0,0,0,1.5-1.5V20.25l-1.5,1.5,2.89,0-1.5-1.5c.08,1.28-.1,2.56,0,3.84A23.39,23.39,0,0,0,31.77,30a26.25,26.25,0,0,0,2.49,5.38,19.57,19.57,0,0,0,1.63,2.23,2.8,2.8,0,0,0,.39.45c.22.16.08.26.16.09,0,0,0-.63-.07-.3a15.6,15.6,0,0,0,.06,2.05c0,1.14,0,2.29,0,3.43,0,2.67,0,5.33,0,8,0,3.13.09,6.27,0,9.4C36.34,62.64,39.34,62.64,39.41,60.71Z"/><path class="cls-1" d="M62.66,41.93c.11-.27,1.05-.58,1.32-.71a20.86,20.86,0,0,0,6.09-4.54L72,34.35l.35-.59c-1-.59-6.73-3.1-7-3.48-.33.16-.4.34-.64.63a12.36,12.36,0,0,1-2,1.93,13.57,13.57,0,0,1-3.41,1.87,13.08,13.08,0,1,1,6.09-19.93A27.31,27.31,0,0,0,69,13.09c.63-.32,1.18-.58,1.76-.88s1.32-.6,1.74-.89a20.92,20.92,0,0,0-37.25,3.47,21.18,21.18,0,0,0-.75,13,20.69,20.69,0,0,0,9.87,12.84A20.94,20.94,0,0,0,56.61,43.3a19.89,19.89,0,0,0,5.76-1.37Z"/><path class="cls-2" d="M63.72,43c.28-.33,1-.47,1.39-.67A18.64,18.64,0,0,0,67.3,41a19.38,19.38,0,0,0,3.83-3.28,24.24,24.24,0,0,0,2.5-3.21,1.52,1.52,0,0,0-.54-2.05c-1.16-.68-2.43-1.2-3.65-1.77-.7-.32-1.4-.65-2.1-1l-.77-.39c-.19-.1-.59-.47-.21-.09A1.51,1.51,0,0,0,64.54,29c-1,.65-1.67,1.76-2.62,2.52a11.18,11.18,0,0,1-3.42,1.87,11.59,11.59,0,0,1-6.15.38A11.75,11.75,0,0,1,43.67,26,11.58,11.58,0,0,1,64,15.54a1.61,1.61,0,0,0,1.7.69,12.74,12.74,0,0,0,3.35-1.51c1.37-.71,2.84-1.29,4.15-2.11a1.51,1.51,0,0,0,.54-2A22.44,22.44,0,0,0,32.35,20.68,22.3,22.3,0,0,0,40.6,39.85a22.69,22.69,0,0,0,11.3,4.84,24.26,24.26,0,0,0,6.7-.13,14.38,14.38,0,0,0,2-.48,8.49,8.49,0,0,1,2-.65c1.93,0,1.93-3,0-3a12.92,12.92,0,0,0-3.19.87,16.75,16.75,0,0,1-4.57.58,19.22,19.22,0,0,1-10.13-2.75,19.5,19.5,0,0,1-9.46-15.34A19.44,19.44,0,0,1,71.17,12.07L71.71,10c-1.25.77-2.65,1.33-3.95,2a10.77,10.77,0,0,1-2.84,1.32l1.69.69A14.56,14.56,0,0,0,40.33,24.8,14.65,14.65,0,0,0,58,36.65a14.44,14.44,0,0,0,4.55-1.89,15.68,15.68,0,0,0,1.85-1.39c.58-.51,1.08-1.39,1.71-1.79l-1.82-.24a12.52,12.52,0,0,0,3.44,1.84c1.3.61,2.65,1.15,3.89,1.88L71,33c-.08.12-.14.27-.23.38-.36.42.21-.24,0,0s-.45.55-.68.82c-.43.53-.85,1.08-1.32,1.59a17.52,17.52,0,0,1-3.79,3.12A15.72,15.72,0,0,1,63.14,40a4,4,0,0,0-1.54.92C60.35,42.33,62.46,44.46,63.72,43Z"/><path class="cls-1" d="M62.66,41.93A20.95,20.95,0,0,0,92.09,59.65a19.92,19.92,0,0,0,3.42-1.92,22.2,22.2,0,0,0,3.85-3.48,16.27,16.27,0,0,0,1.78-2.39c-.24-.23-4.48-2.2-5.36-2.63a10.46,10.46,0,0,0-1.84-.84,12.43,12.43,0,0,1-3.2,3,13.32,13.32,0,0,1-4.3,1.85,13.12,13.12,0,0,1-9.93-1.78,13.08,13.08,0,0,1-5.42-15c.25-.85.63-1.5.89-2.18l-1.91,2.33A20.86,20.86,0,0,1,64,41.22C63.71,41.35,62.77,41.66,62.66,41.93Z"/><path class="cls-2" d="M61.16,41.93a22.47,22.47,0,0,0,33.66,18c2.87-1.74,6.06-4.26,7.61-7.32a1.54,1.54,0,0,0-.23-1.82,18.8,18.8,0,0,0-3.61-1.89,28.13,28.13,0,0,0-4.25-2,1.55,1.55,0,0,0-1.7.69c-1.36,2.19-4.18,3.63-6.6,4.2A11.33,11.33,0,0,1,77.4,50.3a12.1,12.1,0,0,1-4.85-6.11c-1.1-3.31-.39-6.33.87-9.44.56-1.38-1.58-2.59-2.5-1.46s-1.67,2.13-2.63,3.08a19,19,0,0,1-3.58,2.74c-.94.56-2.4.92-3.11,1.76-1.25,1.46.86,3.59,2.12,2.12.24-.28.87-.41,1.2-.57a19.43,19.43,0,0,0,2-1.17,21.83,21.83,0,0,0,3.46-2.76c1-1,1.77-2,2.63-3.08L70.53,34c-1.53,3.77-2.17,7.7-.66,11.62a15.4,15.4,0,0,0,6.29,7.5,14.46,14.46,0,0,0,10.68,1.65,13.85,13.85,0,0,0,8.39-5.57l-1.69.68a23.17,23.17,0,0,1,3.53,1.67c.65.31,1.3.61,1.94.93l.85.43c.14.06.67.41.22.06l-.24-1.82a16,16,0,0,1-5.4,5.53A20.35,20.35,0,0,1,84.14,60a19.69,19.69,0,0,1-16.67-8.48,18.75,18.75,0,0,1-3.31-9.55C64,40,61,40,61.16,41.93Z"/><path class="cls-1" d="M65.3,30.28c.3.38,6,2.89,7,3.48a15,15,0,0,1,1.87-2.39,13.07,13.07,0,0,1,18-.67,12.72,12.72,0,0,1,2,2.21c.37-.08,3-1.44,3.61-1.72,1.1-.54,2.42-1.31,3.54-1.75A16.4,16.4,0,0,0,99,26.37c-.32-.3-.55-.58-.87-.88A20.67,20.67,0,0,0,82.9,19.57a20.36,20.36,0,0,0-10.75,3.37,19.75,19.75,0,0,0-5.46,5.16A12.24,12.24,0,0,0,65.3,30.28Z"/><path class="cls-2" d="M64.24,31.34a12.52,12.52,0,0,0,3.44,1.84c1.3.61,2.65,1.15,3.89,1.88a1.55,1.55,0,0,0,2.06-.54,11.86,11.86,0,0,1,10-5.59c3.35,0,7.44,1.69,9.19,4.74a1.54,1.54,0,0,0,1.7.69c2.51-.77,4.73-2.48,7.15-3.47.67-.28,1.38-1,1-1.84-.91-2.23-3-4.24-4.8-5.75a22.29,22.29,0,0,0-8.17-4.37,22.86,22.86,0,0,0-19.1,3.18,20,20,0,0,0-4,3.62A17.33,17.33,0,0,0,64,29.52c-.8,1.75,1.78,3.27,2.59,1.52a17.1,17.1,0,0,1,6.66-7,19.46,19.46,0,0,1,20.62,0A21.42,21.42,0,0,1,98,27.43a13.38,13.38,0,0,1,1.9,2.41L100.9,28c-1.49.61-2.9,1.39-4.35,2.11a25.58,25.58,0,0,1-2.8,1.35l1.69.69C93.16,28.2,88.05,26,83.66,25.93,78.34,25.89,74,28.72,71,33l2-.53c-1.16-.68-2.43-1.2-3.65-1.77-.7-.32-1.4-.65-2.1-1l-.77-.39c-.19-.1-.59-.47-.21-.09C65,27.87,62.86,30,64.24,31.34Z"/><path class="cls-2" d="M4.87,73.4H3.94V71.51H2.45V73.4H1.53V69h.92v1.71H3.94V69h.93Z"/><path class="cls-2" d="M4.87,71.9H3.94l1.5,1.5V71.51A1.52,1.52,0,0,0,3.94,70H2.45A1.52,1.52,0,0,0,1,71.51V73.4l1.5-1.5H1.53L3,73.4V69l-1.5,1.5h.92L1,69v1.71a1.52,1.52,0,0,0,1.5,1.5H3.94a1.52,1.52,0,0,0,1.5-1.5V69l-1.5,1.5h.93L3.37,69V73.4a1.52,1.52,0,0,0,1.5,1.5,1.53,1.53,0,0,0,1.5-1.5V69a1.52,1.52,0,0,0-1.5-1.5H3.94A1.52,1.52,0,0,0,2.44,69v1.71l1.5-1.5H2.45L4,70.73V69a1.52,1.52,0,0,0-1.5-1.5H1.53A1.52,1.52,0,0,0,0,69V73.4a1.52,1.52,0,0,0,1.5,1.5h.92A1.52,1.52,0,0,0,4,73.4V71.51L2.45,73H3.94l-1.5-1.5V73.4a1.52,1.52,0,0,0,1.5,1.5h.93a1.5,1.5,0,1,0,0-3Z"/><path class="cls-2" d="M7.61,73.4h-2v-.53l.53-.25V69.79l-.53-.24V69h2v.53l-.53.24v2.83l.53.25Z"/><path class="cls-2" d="M7.61,71.9h-2l1.5,1.5v-.53l-.74,1.29.53-.24a1.48,1.48,0,0,0,.74-1.3V69.79a1.45,1.45,0,0,0-.74-1.29l-.53-.25.74,1.3V69l-1.5,1.5h2L6.11,69v.53l.74-1.3-.53.25a1.45,1.45,0,0,0-.74,1.29v2.83a1.48,1.48,0,0,0,.74,1.3l.53.24-.74-1.29v.53a1.5,1.5,0,0,0,3,0v-.53a1.5,1.5,0,0,0-.74-1.3l-.54-.24.75,1.29V69.79l-.75,1.3.54-.25a1.48,1.48,0,0,0,.74-1.29V69a1.52,1.52,0,0,0-1.5-1.5h-2A1.52,1.52,0,0,0,4.12,69v.53a1.48,1.48,0,0,0,.74,1.29l.53.25-.74-1.3v2.83l.74-1.29-.53.24a1.5,1.5,0,0,0-.74,1.3v.53a1.52,1.52,0,0,0,1.5,1.5h2a1.5,1.5,0,0,0,0-3Z"/><path class="cls-2" d="M12.06,73.4H10.88L9.16,70.08h0l0,.46c0,.13,0,.27,0,.41s0,.27,0,.39V73.4H8.36V69H9.53l1.72,3.28h0l0-.45v-.2a1.27,1.27,0,0,1,0-.2v-.19a1,1,0,0,1,0-.17V69h.84Z"/><path class="cls-2" d="M12.06,71.9H10.88l1.29.74-1.72-3.31a1.49,1.49,0,0,0-1.29-.75h0a1.52,1.52,0,0,0-1.5,1.5c.08,1.11.06,2.21.06,3.32l1.5-1.5H8.36l1.5,1.5V69l-1.5,1.5H9.53l-1.3-.74L10,73.05a1.49,1.49,0,0,0,1.3.75h0a1.52,1.52,0,0,0,1.5-1.5c0-1.1,0-2.19,0-3.28l-1.5,1.5h.84L10.56,69V73.4a1.5,1.5,0,0,0,3,0V69a1.52,1.52,0,0,0-1.5-1.5h-.84A1.52,1.52,0,0,0,9.72,69c0,1.09,0,2.18,0,3.28l1.5-1.5h0l1.29.74-1.72-3.28a1.48,1.48,0,0,0-1.29-.74H8.36A1.52,1.52,0,0,0,6.86,69V73.4a1.52,1.52,0,0,0,1.5,1.5h.83a1.52,1.52,0,0,0,1.5-1.5c0-1.11,0-2.21-.06-3.32l-1.5,1.5h0l-1.3-.74,1.72,3.31a1.49,1.49,0,0,0,1.3.75h1.18a1.5,1.5,0,1,0,0-3Z"/><path class="cls-2" d="M16.55,71.17a2.86,2.86,0,0,1-.15,1,1.86,1.86,0,0,1-.44.7,2,2,0,0,1-.7.42,3.06,3.06,0,0,1-.95.14H13.16V69h1.28a2.41,2.41,0,0,1,.87.14,1.71,1.71,0,0,1,.67.41,1.82,1.82,0,0,1,.42.67A2.63,2.63,0,0,1,16.55,71.17Zm-.94,0a2.35,2.35,0,0,0-.08-.63,1.13,1.13,0,0,0-.21-.44.88.88,0,0,0-.34-.26,1.3,1.3,0,0,0-.46-.08h-.43v2.85h.34a1.06,1.06,0,0,0,.88-.36A1.66,1.66,0,0,0,15.61,71.19Z"/><path class="cls-2" d="M15.05,71.17a3.4,3.4,0,0,1,0,.45l.05-.4a2.5,2.5,0,0,1-.17.65l.15-.35a2.5,2.5,0,0,1-.25.41l.23-.3a2.47,2.47,0,0,1-.28.28l.3-.24a2.1,2.1,0,0,1-.41.24l.35-.15a2.49,2.49,0,0,1-.61.16l.4,0a14.55,14.55,0,0,1-1.62,0l1.5,1.5V69l-1.5,1.5a15.51,15.51,0,0,1,1.67,0l-.4-.05a2.29,2.29,0,0,1,.62.17l-.36-.15a2.71,2.71,0,0,1,.37.21l-.3-.23a1.85,1.85,0,0,1,.28.28l-.23-.3a1.92,1.92,0,0,1,.27.46l-.15-.36a2.38,2.38,0,0,1,.14.54l-.05-.4a3.44,3.44,0,0,1,0,.46,1.5,1.5,0,0,0,3,0,3.87,3.87,0,0,0-.77-2.37,3.43,3.43,0,0,0-2.45-1.26,15.51,15.51,0,0,0-1.67,0,1.52,1.52,0,0,0-1.5,1.5V73.4a1.52,1.52,0,0,0,1.5,1.5,12.62,12.62,0,0,0,2.13-.1,3.44,3.44,0,0,0,2.12-1.38,3.91,3.91,0,0,0,.64-2.25,1.5,1.5,0,0,0-3,0Z"/><path class="cls-2" d="M17.11,71.19a5.16,5.16,0,0,0-.08-.78,1.89,1.89,0,0,0-.1-.41,2.88,2.88,0,0,0-.43-.79,2.17,2.17,0,0,0-.68-.6,2.74,2.74,0,0,0-1.34-.33h-.39a1.52,1.52,0,0,0-1.5,1.5v2.85a1.52,1.52,0,0,0,1.5,1.5h.39a3.33,3.33,0,0,0,.77-.11,2.4,2.4,0,0,0,1.38-1,2.54,2.54,0,0,0,.3-.62,3.65,3.65,0,0,0,.18-1.19,1.56,1.56,0,0,0-.44-1.06,1.52,1.52,0,0,0-1.06-.44,1.5,1.5,0,0,0-1.06.44,1.54,1.54,0,0,0-.44,1.06,2.34,2.34,0,0,1,0,.38l.06-.4a2.09,2.09,0,0,1-.11.43l.15-.35c0,.08-.09.16-.14.24l.23-.31a.77.77,0,0,1-.18.18l.31-.23-.19.11.35-.15a1.67,1.67,0,0,1-.3.08l.39,0a5.19,5.19,0,0,1-.56,0l1.5,1.5V69.78l-1.5,1.5c.21,0,.42,0,.63,0l-.4-.05a1.11,1.11,0,0,1,.26.07l-.36-.15.19.1-.3-.23.15.15-.23-.3a1.1,1.1,0,0,1,.15.26L14,70.78a2.17,2.17,0,0,1,.11.42l-.06-.39a2.34,2.34,0,0,1,0,.38,1.5,1.5,0,0,0,2.56,1.06A1.54,1.54,0,0,0,17.11,71.19Z"/><path class="cls-2" d="M20.77,69v2.83a1.91,1.91,0,0,1-.1.64,1.37,1.37,0,0,1-.32.51,1.45,1.45,0,0,1-.52.33,2.19,2.19,0,0,1-1.46,0,1.33,1.33,0,0,1-.52-.33,1.34,1.34,0,0,1-.32-.51,2,2,0,0,1-.1-.66V69h.92v2.75a1.73,1.73,0,0,0,0,.42.82.82,0,0,0,.14.28.6.6,0,0,0,.24.16,1,1,0,0,0,.32.05.66.66,0,0,0,.57-.23,1.09,1.09,0,0,0,.18-.69V69Z"/><path class="cls-2" d="M19.27,69v1.5a12.67,12.67,0,0,1,0,1.63l.06-.4a2.62,2.62,0,0,1-.11.4l.15-.36a1.51,1.51,0,0,1-.2.35l.23-.3a1.75,1.75,0,0,1-.24.23l.31-.24a1.92,1.92,0,0,1-.31.18l.36-.15a1.88,1.88,0,0,1-.45.12l.4,0a3.09,3.09,0,0,1-.68,0l.4,0a1.91,1.91,0,0,1-.47-.12l.36.15a1.46,1.46,0,0,1-.3-.17l.3.23a1.31,1.31,0,0,1-.24-.23l.24.31a1.55,1.55,0,0,1-.21-.35l.15.36a2.88,2.88,0,0,1-.11-.42l.06.4a12.67,12.67,0,0,1,0-1.63V69l-1.5,1.5h.92L16.85,69c0,.94,0,1.89,0,2.83a2.82,2.82,0,0,0,.36,1.33,2.17,2.17,0,0,0,1.75,1,2.3,2.3,0,0,0,1.31-.29,2.13,2.13,0,0,0,1-1.26,6.63,6.63,0,0,0,.12-1.94V69l-1.5,1.5h.92a1.5,1.5,0,0,0,0-3h-.92a1.52,1.52,0,0,0-1.5,1.5v1.46a13.53,13.53,0,0,1,0,1.56l.05-.39a1.38,1.38,0,0,1-.08.27l.15-.35a.75.75,0,0,1-.07.12l.23-.3a1.14,1.14,0,0,1-.11.11l.3-.24-.09.06.36-.16a1,1,0,0,1-.23.06l.4,0a1.31,1.31,0,0,1-.28,0l.4,0a1.05,1.05,0,0,1-.24-.06l.36.15-.1-.06.3.23a.43.43,0,0,1-.11-.12l.23.3-.06-.1.15.35a1.09,1.09,0,0,1-.08-.31l.05.4c-.05-.51,0-1,0-1.54V69a1.52,1.52,0,0,0-1.5-1.5h-.92a1.52,1.52,0,0,0-1.5,1.5v1.69a5.82,5.82,0,0,0,.36,2.68,3.33,3.33,0,0,0,5.17.62,3.2,3.2,0,0,0,.81-2.21V69a1.51,1.51,0,0,0-1.5-1.5A1.53,1.53,0,0,0,19.27,69Z"/><path class="cls-2" d="M24.24,72.18a1.29,1.29,0,0,1-.1.53,1,1,0,0,1-.29.4,1.43,1.43,0,0,1-.47.26,2.13,2.13,0,0,1-.65.09,3.08,3.08,0,0,1-.61-.07,1.83,1.83,0,0,1-.54-.2v-.86l.29.13a1.48,1.48,0,0,0,.29.12l.31.08a1.53,1.53,0,0,0,.3,0,1,1,0,0,0,.26,0,.77.77,0,0,0,.18-.1.38.38,0,0,0,.09-.15.37.37,0,0,0,0-.18.38.38,0,0,0-.06-.22.73.73,0,0,0-.14-.18,2.29,2.29,0,0,0-.23-.16l-.3-.16-.31-.18a1.46,1.46,0,0,1-.32-.25,1.36,1.36,0,0,1-.25-.36,1.21,1.21,0,0,1-.1-.52,1.42,1.42,0,0,1,.09-.52,1.15,1.15,0,0,1,.28-.4,1.43,1.43,0,0,1,.44-.24A1.71,1.71,0,0,1,23,69a1.56,1.56,0,0,1,.31,0,1.59,1.59,0,0,1,.3.06,1.71,1.71,0,0,1,.3.09l.3.13-.29.73a1.83,1.83,0,0,0-.26-.11,2,2,0,0,0-.22-.09l-.22,0a.75.75,0,0,0-.21,0,.49.49,0,0,0-.36.12.44.44,0,0,0-.13.33.59.59,0,0,0,0,.2.61.61,0,0,0,.12.16l.21.15.32.18.41.24a1.87,1.87,0,0,1,.33.28,1.08,1.08,0,0,1,.21.34A1.25,1.25,0,0,1,24.24,72.18Z"/><path class="cls-2" d="M22.74,72.18a1,1,0,0,1,0,.24l.06-.4a2.45,2.45,0,0,1-.08.29l.15-.36a1.28,1.28,0,0,1-.15.25l.24-.31a1.26,1.26,0,0,1-.2.2l.3-.23a1.35,1.35,0,0,1-.29.16l.36-.15a1.91,1.91,0,0,1-.47.12l.4,0a3.18,3.18,0,0,1-.69,0l.39,0a2.42,2.42,0,0,1-.64-.17l.36.15-.13-.06.75,1.29v-.86l-2.26,1.3a5.16,5.16,0,0,0,1.8.55,2,2,0,0,0,2.14-2.5,2.2,2.2,0,0,0-.92-1.18c-.3-.22-.65-.35-.95-.58l.31.24a2,2,0,0,1-.25-.25l.23.31A1.65,1.65,0,0,1,23,69.9l.15.36a1.05,1.05,0,0,1-.06-.24l.05.39a1.69,1.69,0,0,1,0-.45l-.05.4a1.57,1.57,0,0,1,.08-.29l-.15.36a1.49,1.49,0,0,1,.14-.24l-.24.31a1.21,1.21,0,0,1,.19-.2l-.3.24a1.58,1.58,0,0,1,.24-.15l-.36.15a2,2,0,0,1,.42-.12l-.4.06a2.08,2.08,0,0,1,.61,0l-.4-.06a3.23,3.23,0,0,1,.75.22l-.36-.15.16.07-.69-1.69-.3.72,2.2-.9A3.9,3.9,0,0,0,23,68.23a2,2,0,0,0-1.92,1.43A2,2,0,0,0,22,71.91c.31.21.66.36,1,.58l-.3-.23a1.88,1.88,0,0,1,.25.24l-.23-.3a1.35,1.35,0,0,1,.16.29l-.15-.36a2.46,2.46,0,0,1,.07.29l-.06-.4a.86.86,0,0,1,0,.16,1.5,1.5,0,0,0,3,0,2.72,2.72,0,0,0-.87-2,5.23,5.23,0,0,0-.78-.55,4.48,4.48,0,0,1-.6-.35l.31.24-.1-.09.24.3a.26.26,0,0,1-.07-.11L24,70a.56.56,0,0,1,0-.12l.06.39a.29.29,0,0,1,0-.13l-.06.4s0-.08,0-.12l-.15.35a.47.47,0,0,1,.05-.1l-.23.31.08-.08-.3.23.11-.06-.36.16a.28.28,0,0,1,.13,0l-.4,0a1.42,1.42,0,0,1,.29,0l-.4-.06a2.09,2.09,0,0,1,.5.16L23,71.2l.19.08a1.51,1.51,0,0,0,2.2-.9l.3-.72,0-.4a1.13,1.13,0,0,0-.12-.57A1.41,1.41,0,0,0,25,68a4.34,4.34,0,0,0-2.47-.47,2.7,2.7,0,0,0-2.23,1.78,2.73,2.73,0,0,0,.31,2.45,3.27,3.27,0,0,0,1,.94,6.44,6.44,0,0,1,.72.42l-.3-.24a1.14,1.14,0,0,1,.15.16L22,72.7a.83.83,0,0,1,.07.13l-.15-.36v.08l-.05-.4a.33.33,0,0,1,0,.14l.06-.4,0,.12.15-.35a.27.27,0,0,1-.06.1l.24-.3-.05,0,.31-.24a.26.26,0,0,1-.11.07l.36-.15a.67.67,0,0,1-.19,0l.4,0a1.51,1.51,0,0,1-.37,0l.4.06a3,3,0,0,1-.6-.18l.36.15L22.33,71a1.53,1.53,0,0,0-1.51,0,1.48,1.48,0,0,0-.74,1.29v.86a1.47,1.47,0,0,0,.74,1.3,4.06,4.06,0,0,0,2.92.33,2.66,2.66,0,0,0,2-2.64,1.5,1.5,0,0,0-3,0Z"/><path class="cls-2" d="M26.65,73.4h-.92V69.79h-1.1V69h3.12v.77h-1.1Z"/><path class="cls-2" d="M26.65,71.9h-.92l1.5,1.5V69.79a1.52,1.52,0,0,0-1.5-1.5h-1.1l1.5,1.5V69l-1.5,1.5h3.12L26.25,69v.77l1.5-1.5h-1.1a1.52,1.52,0,0,0-1.5,1.5V73.4a1.5,1.5,0,0,0,3,0V69.79l-1.5,1.5h1.1a1.52,1.52,0,0,0,1.5-1.5V69a1.52,1.52,0,0,0-1.5-1.5H24.63a1.52,1.52,0,0,0-1.5,1.5v.77a1.52,1.52,0,0,0,1.5,1.5h1.1l-1.5-1.5V73.4a1.52,1.52,0,0,0,1.5,1.5h.92a1.5,1.5,0,1,0,0-3Z"/><path class="cls-2" d="M30.55,73.4l-.3-1.05H28.74l-.3,1.05H27.5L28.93,69h1.13l1.43,4.4ZM30,71.58l-.28-1s0-.1-.06-.18-.05-.17-.07-.27-.06-.2-.08-.3a1.57,1.57,0,0,1-.05-.25s0,.09,0,.15,0,.13,0,.19,0,.14-.05.21l-.05.19c0,.06,0,.11-.05.16l0,.1-.28,1Z"/><path class="cls-2" d="M32,73l-.3-1a1.53,1.53,0,0,0-1.45-1.11H28.74A1.53,1.53,0,0,0,27.3,72L27,73l1.45-1.1H27.5L29,73.8,30.19,70l.18-.55-1.44,1.1h1.13l-1.45-1.1,1.25,3.84.18.56,1.45-1.9h-.94a1.5,1.5,0,1,0,0,3h.94A1.52,1.52,0,0,0,32.94,73l-1.25-3.85-.18-.55a1.55,1.55,0,0,0-1.45-1.1H28.93a1.53,1.53,0,0,0-1.45,1.1l-1.24,3.85-.18.55a1.51,1.51,0,0,0,1.44,1.9h.94a1.54,1.54,0,0,0,1.45-1.1l.3-1-1.45,1.1h1.51l-1.44-1.1.3,1A1.5,1.5,0,0,0,32,73Z"/><path class="cls-2" d="M31.48,71.18l-.22-.76a11.75,11.75,0,0,1-.32-1.2l-.15-.36a1.18,1.18,0,0,0-.38-.42.79.79,0,0,0-.33-.19,1.08,1.08,0,0,0-.58-.13l-.4,0-.36.15a1.31,1.31,0,0,0-.42.39,1.14,1.14,0,0,0-.27.51,19.59,19.59,0,0,1-.53,2,1.51,1.51,0,0,0,0,.79,1.14,1.14,0,0,0,.27.51,1.12,1.12,0,0,0,.42.39,1.45,1.45,0,0,0,.76.21H30a1.56,1.56,0,0,0,1.06-.44,1.21,1.21,0,0,0,.31-.49,1.22,1.22,0,0,0,.13-.57,1.54,1.54,0,0,0-.44-1.06A1.58,1.58,0,0,0,30,70.08H29L30.41,72a18.71,18.71,0,0,0,.53-2H28.05a8.5,8.5,0,0,0,.32,1.2l.22.75a1.56,1.56,0,0,0,.69.9,1.66,1.66,0,0,0,1.16.15,1.47,1.47,0,0,0,.89-.69A1.49,1.49,0,0,0,31.48,71.18Z"/><path class="cls-2" d="M35.74,73.4H34.56l-1.72-3.32h0l0,.46c0,.13,0,.27,0,.41s0,.27,0,.39V73.4H32V69h1.17l1.72,3.28h0c0-.15,0-.3,0-.45a1.34,1.34,0,0,1,0-.2c0-.06,0-.13,0-.2V69h.83Z"/><path class="cls-2" d="M35.74,71.9H34.56l1.3.74-1.73-3.31a1.49,1.49,0,0,0-1.29-.75h0a1.52,1.52,0,0,0-1.5,1.5c.09,1.11.06,2.21.06,3.32l1.5-1.5H32l1.5,1.5V69L32,70.52h1.17l-1.29-.74,1.71,3.27a1.5,1.5,0,0,0,1.3.75h0a1.52,1.52,0,0,0,1.5-1.5c-.05-1.1,0-2.19,0-3.28l-1.5,1.5h.83L34.24,69V73.4a1.5,1.5,0,0,0,3,0V69a1.52,1.52,0,0,0-1.5-1.5h-.83a1.52,1.52,0,0,0-1.5,1.5c0,1.09,0,2.18,0,3.28L35,70.8h0l1.29.74-1.71-3.28a1.51,1.51,0,0,0-1.3-.74H32a1.52,1.52,0,0,0-1.5,1.5V73.4A1.52,1.52,0,0,0,32,74.9h.83a1.52,1.52,0,0,0,1.5-1.5c0-1.11,0-2.21-.06-3.32l-1.5,1.5h0l-1.3-.74,1.73,3.31a1.47,1.47,0,0,0,1.29.75h1.18a1.5,1.5,0,1,0,0-3Z"/><path class="cls-2" d="M40.3,69.73a1.06,1.06,0,0,0-.48.1,1,1,0,0,0-.34.3,1.46,1.46,0,0,0-.21.47,2.35,2.35,0,0,0-.07.62,2.9,2.9,0,0,0,.06.62,1.21,1.21,0,0,0,.2.46.87.87,0,0,0,.34.29,1.24,1.24,0,0,0,.5.09,2.46,2.46,0,0,0,.53-.06,4.06,4.06,0,0,0,.58-.17v.78a1.57,1.57,0,0,1-.28.1l-.29.07-.3,0-.33,0a2.16,2.16,0,0,1-.88-.17,1.46,1.46,0,0,1-.61-.45,2,2,0,0,1-.36-.71,3.26,3.26,0,0,1-.12-.92,2.94,2.94,0,0,1,.14-.91,2.13,2.13,0,0,1,.39-.71,1.78,1.78,0,0,1,.64-.47A2.24,2.24,0,0,1,40.3,69,2.46,2.46,0,0,1,41,69a3.35,3.35,0,0,1,.63.22l-.3.76a3.47,3.47,0,0,0-.5-.2A1.4,1.4,0,0,0,40.3,69.73Z"/><path class="cls-2" d="M40.3,68.23a2.48,2.48,0,0,0-2.24,1.36,4,4,0,0,0-.26,2.58,2.51,2.51,0,0,0,1.73,1.91,3.87,3.87,0,0,0,2.28-.18l-1.9-1.45v.78L41,71.79a3.47,3.47,0,0,1-.72.19l.4,0a3.7,3.7,0,0,1-.88,0l.4,0a2.62,2.62,0,0,1-.48-.13l.36.15a2,2,0,0,1-.37-.22L40,72a2.76,2.76,0,0,1-.29-.3L40,72a2,2,0,0,1-.22-.37l.16.36a2.55,2.55,0,0,1-.19-.72l.05.4a4.41,4.41,0,0,1,0-.89l0,.4a2.74,2.74,0,0,1,.2-.73l-.16.36A2.47,2.47,0,0,1,40,70.4l-.23.3a2.13,2.13,0,0,1,.3-.3l-.3.24a2.08,2.08,0,0,1,.38-.22l-.36.15a2.28,2.28,0,0,1,.57-.15l-.4,0a2.74,2.74,0,0,1,.64,0l-.4-.06a3.73,3.73,0,0,1,.81.22l-.36-.15.15.07-.69-1.69-.3.75,2.2-.9a4.36,4.36,0,0,0-1.73-.49,1.5,1.5,0,0,0,0,3h.16l-.4-.06a3.31,3.31,0,0,1,.61.19l-.36-.15.21.09a1.54,1.54,0,0,0,1.34.08,1.57,1.57,0,0,0,.86-1l.3-.76.06-.4a1.25,1.25,0,0,0-.13-.57,1.37,1.37,0,0,0-.62-.72,4.48,4.48,0,0,0-3-.39,3.6,3.6,0,0,0-1.39.77A3.44,3.44,0,0,0,37,69.69a4.6,4.6,0,0,0-.13,2.7,3.21,3.21,0,0,0,1.69,2.2,4.19,4.19,0,0,0,3.24.09,1.7,1.7,0,0,0,.78-.54,1.48,1.48,0,0,0,.32-.91v-.78A1.5,1.5,0,0,0,41,71a4.38,4.38,0,0,1-.81.21l.4-.06a2.44,2.44,0,0,1-.54,0l.4,0-.2,0,.36.15a1.71,1.71,0,0,1-.23-.13l.31.24-.14-.14.23.31a1.78,1.78,0,0,1-.17-.3l.15.36a2.07,2.07,0,0,1-.1-.43l0,.4a3.66,3.66,0,0,1,0-.81l0,.39a2.11,2.11,0,0,1,.12-.43l-.15.35a1.33,1.33,0,0,1,.18-.3l-.24.31.14-.14-.3.23.22-.13-.36.15.27-.07-.4.06h.15a1.5,1.5,0,0,0,0-3Z"/><path class="cls-2" d="M46.07,71.2a3.68,3.68,0,0,1-.11.92,1.89,1.89,0,0,1-.37.72,1.54,1.54,0,0,1-.61.45,2.31,2.31,0,0,1-1.74,0,1.54,1.54,0,0,1-.61-.45,2,2,0,0,1-.36-.72,3.31,3.31,0,0,1-.12-.92,3.38,3.38,0,0,1,.12-.93,2.07,2.07,0,0,1,.36-.71,1.65,1.65,0,0,1,.61-.45,2.47,2.47,0,0,1,1.75,0,1.64,1.64,0,0,1,.61.46,1.9,1.9,0,0,1,.36.71A3.68,3.68,0,0,1,46.07,71.2Zm-3,0a2.9,2.9,0,0,0,.06.62,1.2,1.2,0,0,0,.19.46.81.81,0,0,0,.31.3,1.06,1.06,0,0,0,.45.1,1.08,1.08,0,0,0,.46-.1.89.89,0,0,0,.31-.3,1.38,1.38,0,0,0,.18-.46,2.9,2.9,0,0,0,.06-.62,3,3,0,0,0-.06-.62,1.47,1.47,0,0,0-.18-.46.89.89,0,0,0-.31-.3,1.06,1.06,0,0,0-.45-.1,1.08,1.08,0,0,0-.46.1.89.89,0,0,0-.31.3,1.27,1.27,0,0,0-.19.46A3,3,0,0,0,43.1,71.2Z"/><path class="cls-2" d="M44.57,71.2a4.15,4.15,0,0,1,0,.49l.06-.4a3.47,3.47,0,0,1-.19.72l.15-.36a1.51,1.51,0,0,1-.22.37l.24-.3a2.06,2.06,0,0,1-.29.3l.3-.24a1.65,1.65,0,0,1-.36.22l.35-.15a2.52,2.52,0,0,1-.47.13l.4,0a3.57,3.57,0,0,1-.8,0l.4,0a2.52,2.52,0,0,1-.47-.13L44,72a1.65,1.65,0,0,1-.36-.22l.3.24a2.06,2.06,0,0,1-.29-.3l.24.3a1.72,1.72,0,0,1-.22-.37l.16.36a3,3,0,0,1-.2-.73l.06.4a3.94,3.94,0,0,1,0-1l-.06.4a3,3,0,0,1,.2-.72l-.16.35a1.65,1.65,0,0,1,.22-.36l-.23.3a1.54,1.54,0,0,1,.28-.29l-.3.23a2,2,0,0,1,.37-.21l-.36.15a1.9,1.9,0,0,1,.48-.14l-.4.06a2.62,2.62,0,0,1,.79,0l-.4-.06a2,2,0,0,1,.48.14l-.36-.15a1.62,1.62,0,0,1,.36.21l-.3-.23a1.59,1.59,0,0,1,.29.29l-.24-.3a1.72,1.72,0,0,1,.22.37l-.15-.36a3.47,3.47,0,0,1,.19.72l-.06-.4a4.15,4.15,0,0,1,0,.49,1.5,1.5,0,0,0,3,0,4.37,4.37,0,0,0-.5-2.13,3.24,3.24,0,0,0-1.81-1.46,4.06,4.06,0,0,0-2.16,0,3.19,3.19,0,0,0-1.85,1.35,4.06,4.06,0,0,0-.6,2.07,4.8,4.8,0,0,0,.42,2.18,3,3,0,0,0,1.41,1.42,4,4,0,0,0,2.42.28A3.12,3.12,0,0,0,47,73.48a4.07,4.07,0,0,0,.6-2.28,1.5,1.5,0,0,0-3,0Z"/><path class="cls-2" d="M41.6,71.2a4,4,0,0,0,.2,1.29A2.43,2.43,0,0,0,43,73.9a2.66,2.66,0,0,0,1.07.28,2.4,2.4,0,0,0,.84-.11,2.47,2.47,0,0,0,.91-.54,2.24,2.24,0,0,0,.34-.42.82.82,0,0,0,.12-.2,3.85,3.85,0,0,0,.37-1.57A3.8,3.8,0,0,0,46.45,70a2.4,2.4,0,0,0-3-1.7,2.36,2.36,0,0,0-1,.55,2,2,0,0,0-.49.62,4,4,0,0,0-.39,1.73A1.56,1.56,0,0,0,42,72.26a1.52,1.52,0,0,0,1.06.44,1.5,1.5,0,0,0,1.06-.44,1.54,1.54,0,0,0,.44-1.06,3.22,3.22,0,0,1,0-.43l-.05.4a1.82,1.82,0,0,1,.11-.46l-.15.36a.92.92,0,0,1,.16-.27l-.24.31a1.21,1.21,0,0,1,.16-.16l-.31.24a1.18,1.18,0,0,1,.19-.11l-.36.15.22,0-.39,0a1.5,1.5,0,0,1,.3,0l-.4,0,.22,0-.36-.15a1.18,1.18,0,0,1,.19.11L43.61,71a1.21,1.21,0,0,1,.16.16l-.24-.31a1.17,1.17,0,0,1,.15.27l-.15-.36a1.82,1.82,0,0,1,.11.46l0-.4a4.12,4.12,0,0,1,0,.86l0-.4a2,2,0,0,1-.11.47l.15-.36a1.35,1.35,0,0,1-.15.26l.24-.3-.16.15.31-.24a1.18,1.18,0,0,1-.19.11l.36-.15-.23,0,.4,0a1.5,1.5,0,0,1-.3,0l.4,0-.22,0,.36.15a1.18,1.18,0,0,1-.19-.11l.3.24-.15-.15.24.3a1,1,0,0,1-.16-.26l.15.36a1.89,1.89,0,0,1-.11-.47l.05.4a3,3,0,0,1,0-.43,1.5,1.5,0,0,0-1.5-1.5,1.5,1.5,0,0,0-1.5,1.5Z"/><path class="cls-2" d="M48.84,69.73a1,1,0,0,0-.47.1.92.92,0,0,0-.35.3,1.46,1.46,0,0,0-.21.47,2.35,2.35,0,0,0-.07.62,2.9,2.9,0,0,0,.06.62,1.39,1.39,0,0,0,.2.46.87.87,0,0,0,.34.29,1.28,1.28,0,0,0,.5.09,2.39,2.39,0,0,0,.53-.06,4.06,4.06,0,0,0,.58-.17v.78a1.57,1.57,0,0,1-.28.1l-.29.07-.3,0-.33,0a2.16,2.16,0,0,1-.88-.17,1.52,1.52,0,0,1-.61-.45,2,2,0,0,1-.36-.71,3.26,3.26,0,0,1-.12-.92,2.94,2.94,0,0,1,.14-.91,2.13,2.13,0,0,1,.39-.71,1.81,1.81,0,0,1,.65-.47,2.19,2.19,0,0,1,.88-.16,2.41,2.41,0,0,1,.65.08,3.35,3.35,0,0,1,.63.22l-.3.76a3.37,3.37,0,0,0-.49-.2A1.46,1.46,0,0,0,48.84,69.73Z"/><path class="cls-2" d="M48.84,68.23a2.5,2.5,0,0,0-2.24,1.36,4.15,4.15,0,0,0-.26,2.58,2.51,2.51,0,0,0,1.73,1.91,3.87,3.87,0,0,0,2.28-.18l-1.9-1.45v.78l1.11-1.44a3.83,3.83,0,0,1-.72.19l.39,0a3.7,3.7,0,0,1-.88,0l.4,0a2.62,2.62,0,0,1-.48-.13l.36.15a2,2,0,0,1-.37-.22l.31.24a1.64,1.64,0,0,1-.29-.3l.23.31a2.71,2.71,0,0,1-.21-.37l.15.36a2.55,2.55,0,0,1-.19-.72l.05.4a4.41,4.41,0,0,1,0-.89l-.06.4a3.17,3.17,0,0,1,.2-.73l-.15.36a2.43,2.43,0,0,1,.26-.44l-.23.3a1.77,1.77,0,0,1,.31-.3l-.31.24a2.08,2.08,0,0,1,.38-.22l-.35.15a2.11,2.11,0,0,1,.56-.15l-.4,0a2.73,2.73,0,0,1,.64,0l-.39-.06a3.8,3.8,0,0,1,.8.22l-.36-.15.15.07-.69-1.69-.3.75,2.21-.9a4.45,4.45,0,0,0-1.74-.49,1.51,1.51,0,0,0-1.5,1.5,1.53,1.53,0,0,0,1.5,1.5H49l-.4-.06a3.31,3.31,0,0,1,.61.19l-.36-.15.21.09a1.52,1.52,0,0,0,2.21-.89l.3-.76,0-.4a1.14,1.14,0,0,0-.13-.57,1.4,1.4,0,0,0-.61-.72,4.49,4.49,0,0,0-3.05-.39,3.32,3.32,0,0,0-2.28,2.11,4.6,4.6,0,0,0-.13,2.7,3.22,3.22,0,0,0,1.7,2.2,4.16,4.16,0,0,0,3.23.09,1.65,1.65,0,0,0,.78-.54,1.48,1.48,0,0,0,.32-.91v-.78A1.5,1.5,0,0,0,49.56,71a4.7,4.7,0,0,1-.82.21l.4-.06a2.35,2.35,0,0,1-.53,0l.39,0-.2,0,.36.15-.23-.13.31.24-.14-.14.24.31a1,1,0,0,1-.17-.3l.15.36a2.09,2.09,0,0,1-.11-.43l0,.4a3.14,3.14,0,0,1,0-.81l-.06.39a3,3,0,0,1,.12-.43l-.15.35a1.83,1.83,0,0,1,.18-.3l-.24.31.14-.14-.3.23.22-.13-.36.15.27-.07-.4.06h.15a1.5,1.5,0,0,0,0-3Z"/><path class="cls-2" d="M53.38,73.4l-.3-1.05H51.57l-.3,1.05h-.94L51.76,69h1.13l1.43,4.4Zm-.51-1.82-.28-1s0-.1-.06-.18-.05-.17-.07-.27-.06-.2-.08-.3,0-.18-.05-.25l0,.15c0,.06,0,.13,0,.19a1.6,1.6,0,0,1,0,.21l-.05.19a1.24,1.24,0,0,0,0,.16l0,.1-.28,1Z"/><path class="cls-2" d="M54.83,73l-.3-1a1.53,1.53,0,0,0-1.45-1.11H51.57A1.53,1.53,0,0,0,50.13,72l-.3,1,1.44-1.1h-.94l1.45,1.9L53,70l.18-.55-1.44,1.1h1.13l-1.44-1.1,1.24,3.84.18.56,1.45-1.9h-.94a1.5,1.5,0,1,0,0,3h.94A1.52,1.52,0,0,0,55.77,73l-1.25-3.85-.18-.55a1.55,1.55,0,0,0-1.45-1.1H51.76a1.53,1.53,0,0,0-1.45,1.1l-1.24,3.85-.18.55a1.52,1.52,0,0,0,1.44,1.9h.94a1.54,1.54,0,0,0,1.45-1.1l.3-1-1.45,1.1h1.51l-1.44-1.1.3,1a1.5,1.5,0,0,0,2.89-.8Z"/><path class="cls-2" d="M54.31,71.18l-.22-.76a9.6,9.6,0,0,1-.31-1.2l-.16-.36a1.18,1.18,0,0,0-.38-.42.79.79,0,0,0-.33-.19,1.06,1.06,0,0,0-.58-.13l-.4,0-.36.15a1.31,1.31,0,0,0-.42.39,1.14,1.14,0,0,0-.27.51,19.59,19.59,0,0,1-.53,2,1.51,1.51,0,0,0,0,.79,1.14,1.14,0,0,0,.27.51,1.12,1.12,0,0,0,.42.39,1.48,1.48,0,0,0,.76.21h1.07a1.56,1.56,0,0,0,1.06-.44,1.21,1.21,0,0,0,.31-.49,1.11,1.11,0,0,0,.13-.57,1.54,1.54,0,0,0-.44-1.06,1.56,1.56,0,0,0-1.06-.44H51.8L53.25,72c.18-.64.4-1.29.53-2h-2.9a8.5,8.5,0,0,0,.32,1.2l.22.75a1.56,1.56,0,0,0,.69.9,1.66,1.66,0,0,0,1.16.15,1.47,1.47,0,0,0,.89-.69A1.49,1.49,0,0,0,54.31,71.18Z"/><path class="cls-2" d="M54.5,72.13v-.75h1.61v.75Z"/><path class="cls-2" d="M56,72.13v-.75l-1.5,1.5h1.61l-1.5-1.5v.75l1.5-1.5H54.5a1.08,1.08,0,0,0-.58.13,1.14,1.14,0,0,0-.48.31,1.11,1.11,0,0,0-.31.48,1.15,1.15,0,0,0-.13.58l.06.4a1.49,1.49,0,0,0,1.44,1.1h1.61a1.27,1.27,0,0,0,.58-.13,1.17,1.17,0,0,0,.48-.31,1.58,1.58,0,0,0,.44-1.06v-.75a1.06,1.06,0,0,0-.13-.58,1,1,0,0,0-.31-.48,1.54,1.54,0,0,0-1.06-.44H54.5a1.08,1.08,0,0,0-.58.13,1.14,1.14,0,0,0-.48.31A1.54,1.54,0,0,0,53,71.38v.75a1.11,1.11,0,0,0,.13.57,1.21,1.21,0,0,0,.31.49,1.24,1.24,0,0,0,.48.31,1.29,1.29,0,0,0,.58.13l.4-.06a1.45,1.45,0,0,0,.66-.38A1.58,1.58,0,0,0,56,72.13Z"/><path class="cls-2" d="M58.7,69.73a1,1,0,0,0-.47.1,1,1,0,0,0-.34.3,1.13,1.13,0,0,0-.21.47,2.33,2.33,0,0,0-.08.62,2.86,2.86,0,0,0,.07.62,1.21,1.21,0,0,0,.2.46.87.87,0,0,0,.34.29,1.22,1.22,0,0,0,.49.09,2.48,2.48,0,0,0,.54-.06,4.06,4.06,0,0,0,.58-.17v.78a1.9,1.9,0,0,1-.28.1l-.29.07-.3,0-.33,0a2.16,2.16,0,0,1-.88-.17,1.46,1.46,0,0,1-.61-.45,1.71,1.71,0,0,1-.36-.71,3.26,3.26,0,0,1-.12-.92,2.94,2.94,0,0,1,.13-.91,2.15,2.15,0,0,1,.4-.71,1.78,1.78,0,0,1,.64-.47A2.23,2.23,0,0,1,58.7,69a2.48,2.48,0,0,1,.66.08,3.35,3.35,0,0,1,.63.22l-.3.76a3.47,3.47,0,0,0-.5-.2A1.41,1.41,0,0,0,58.7,69.73Z"/><path class="cls-2" d="M58.7,68.23a2.47,2.47,0,0,0-2.23,1.36,4,4,0,0,0-.26,2.58,2.52,2.52,0,0,0,1.72,1.91,3.9,3.9,0,0,0,2.29-.18l-1.9-1.45v.78l1.1-1.44a3.47,3.47,0,0,1-.72.19l.4,0a3.7,3.7,0,0,1-.88,0l.4,0a2.42,2.42,0,0,1-.48-.13l.36.15a2,2,0,0,1-.37-.22l.3.24a2.06,2.06,0,0,1-.29-.3l.24.31a2,2,0,0,1-.22-.37l.15.36a2.92,2.92,0,0,1-.18-.72l0,.4a3.79,3.79,0,0,1,0-.89l-.05.4a2.71,2.71,0,0,1,.19-.73l-.15.36a2.47,2.47,0,0,1,.27-.44l-.24.3a2.91,2.91,0,0,1,.31-.3l-.3.24a1.79,1.79,0,0,1,.38-.22l-.36.15a2.21,2.21,0,0,1,.56-.15l-.4,0a2.83,2.83,0,0,1,.65,0l-.4-.06a3.65,3.65,0,0,1,.8.22l-.35-.15.15.07-.69-1.69-.3.75,2.2-.9a4.36,4.36,0,0,0-1.74-.49,1.5,1.5,0,0,0,0,3h.16l-.39-.06a3.31,3.31,0,0,1,.61.19l-.36-.15.21.09a1.52,1.52,0,0,0,1.33.08,1.55,1.55,0,0,0,.87-1l.3-.76.06-.4a1.25,1.25,0,0,0-.13-.57,1.41,1.41,0,0,0-.62-.72,4.48,4.48,0,0,0-3.05-.39,3.53,3.53,0,0,0-1.39.77,3.33,3.33,0,0,0-.88,1.34,4.69,4.69,0,0,0-.14,2.7,3.22,3.22,0,0,0,1.7,2.2,4.19,4.19,0,0,0,3.24.09,1.7,1.7,0,0,0,.78-.54,1.48,1.48,0,0,0,.32-.91v-.78A1.51,1.51,0,0,0,59.42,71a4.38,4.38,0,0,1-.81.21l.4-.06a2.44,2.44,0,0,1-.54,0l.4,0-.2,0,.36.15a1.26,1.26,0,0,1-.23-.13l.3.24L59,71.29l.23.31a1.78,1.78,0,0,1-.17-.3l.15.36a2.07,2.07,0,0,1-.1-.43l.05.4a3.66,3.66,0,0,1,0-.81l-.05.39a1.62,1.62,0,0,1,.12-.43l-.15.35a1.28,1.28,0,0,1,.17-.3l-.23.31a.93.93,0,0,1,.14-.14l-.3.23.22-.13-.36.15.27-.07-.4.06h.14a1.5,1.5,0,0,0,0-3Z"/><path class="cls-2" d="M64.36,71.2a3.26,3.26,0,0,1-.12.92,2,2,0,0,1-.36.72,1.62,1.62,0,0,1-.61.45,2.34,2.34,0,0,1-1.75,0,1.62,1.62,0,0,1-.61-.45,2,2,0,0,1-.36-.72,3.31,3.31,0,0,1-.12-.92,3.38,3.38,0,0,1,.12-.93,2.07,2.07,0,0,1,.36-.71,1.77,1.77,0,0,1,.62-.45,2.45,2.45,0,0,1,1.74,0,1.57,1.57,0,0,1,.61.46,1.9,1.9,0,0,1,.36.71A3.26,3.26,0,0,1,64.36,71.2Zm-3,0a2.9,2.9,0,0,0,.06.62,1.38,1.38,0,0,0,.18.46.91.91,0,0,0,.32.3,1,1,0,0,0,.45.1,1,1,0,0,0,.45-.1.81.81,0,0,0,.31-.3,1.38,1.38,0,0,0,.18-.46,2.9,2.9,0,0,0,.06-.62,3,3,0,0,0-.06-.62,1.47,1.47,0,0,0-.18-.46.81.81,0,0,0-.31-.3,1,1,0,0,0-.45-.1,1.06,1.06,0,0,0-.45.1.91.91,0,0,0-.32.3,1.47,1.47,0,0,0-.18.46A3,3,0,0,0,61.39,71.2Z"/><path class="cls-2" d="M62.86,71.2a4.15,4.15,0,0,1,0,.49l.05-.4a2.55,2.55,0,0,1-.19.72l.15-.36a1.88,1.88,0,0,1-.21.37l.23-.3a1.64,1.64,0,0,1-.29.3l.31-.24a2,2,0,0,1-.37.22l.36-.15a2.62,2.62,0,0,1-.48.13l.4,0a3.48,3.48,0,0,1-.79,0l.4,0a2.62,2.62,0,0,1-.48-.13l.36.15a2,2,0,0,1-.37-.22l.31.24a2.06,2.06,0,0,1-.29-.3l.23.3a2.22,2.22,0,0,1-.21-.37l.15.36a3,3,0,0,1-.19-.73l.05.4a5.24,5.24,0,0,1,0-1l-.05.4a2.94,2.94,0,0,1,.19-.72l-.15.35a1.65,1.65,0,0,1,.22-.36l-.24.3a1.59,1.59,0,0,1,.29-.29l-.3.23a1.62,1.62,0,0,1,.36-.21l-.36.15a2.18,2.18,0,0,1,.48-.14l-.4.06a2.68,2.68,0,0,1,.8,0l-.4-.06a2,2,0,0,1,.47.14l-.35-.15a1.62,1.62,0,0,1,.36.21l-.3-.23a1.54,1.54,0,0,1,.28.29l-.23-.3a2.22,2.22,0,0,1,.21.37l-.15-.36a2.55,2.55,0,0,1,.19.72l-.05-.4a4.15,4.15,0,0,1,0,.49,1.5,1.5,0,0,0,3,0,4.38,4.38,0,0,0-.51-2.13,3.22,3.22,0,0,0-1.8-1.46,4.06,4.06,0,0,0-2.16,0,3.25,3.25,0,0,0-1.86,1.35A4.14,4.14,0,0,0,58.94,71a4.55,4.55,0,0,0,.42,2.18,3,3,0,0,0,1.41,1.42,4,4,0,0,0,2.42.28,3.12,3.12,0,0,0,2.07-1.39,4.23,4.23,0,0,0,.6-2.28,1.5,1.5,0,0,0-3,0Z"/><path class="cls-2" d="M59.89,71.2a3.52,3.52,0,0,0,.2,1.29,2.43,2.43,0,0,0,1.16,1.41,2.61,2.61,0,0,0,1.07.28,2.32,2.32,0,0,0,.83-.11,2.51,2.51,0,0,0,.92-.54,2.72,2.72,0,0,0,.34-.42,1.32,1.32,0,0,0,.12-.2,3.85,3.85,0,0,0,.37-1.57A3.8,3.8,0,0,0,64.74,70a2.4,2.4,0,0,0-3-1.7,2.46,2.46,0,0,0-1,.55,1.82,1.82,0,0,0-.48.62,3.71,3.71,0,0,0-.39,1.73,1.56,1.56,0,0,0,.44,1.06,1.52,1.52,0,0,0,1.06.44,1.5,1.5,0,0,0,1.06-.44,1.54,1.54,0,0,0,.44-1.06,3.22,3.22,0,0,1,0-.43l-.06.4a2.39,2.39,0,0,1,.12-.46l-.15.36A1.17,1.17,0,0,1,63,70.8l-.23.31A.75.75,0,0,1,62.9,71l-.3.24a1.18,1.18,0,0,1,.19-.11l-.36.15.22,0-.4,0a1.5,1.5,0,0,1,.3,0l-.4,0,.23,0L62,71.08l.18.11L61.9,71a.75.75,0,0,1,.15.16l-.23-.31a1.17,1.17,0,0,1,.15.27l-.16-.36a1.83,1.83,0,0,1,.12.46l0-.4a4.12,4.12,0,0,1,0,.86l0-.4a2,2,0,0,1-.12.47l.16-.36a1.35,1.35,0,0,1-.15.26l.23-.3a1.06,1.06,0,0,1-.15.15l.3-.24-.18.11.35-.15-.22,0,.4,0a1.5,1.5,0,0,1-.3,0l.39,0-.22,0,.36.15-.18-.11.3.24a1.06,1.06,0,0,1-.15-.15l.23.3a1.35,1.35,0,0,1-.15-.26l.15.36a2.49,2.49,0,0,1-.12-.47l.06.4a3,3,0,0,1,0-.43,1.58,1.58,0,0,0-.44-1.06,1.56,1.56,0,0,0-1.06-.44,1.54,1.54,0,0,0-1.06.44A1.56,1.56,0,0,0,59.89,71.2Z"/><path class="cls-2" d="M65.26,73.4V69h.93v3.61h1.6v.77Z"/><path class="cls-2" d="M66.76,73.4V69l-1.5,1.5h.93L64.69,69v3.61a1.52,1.52,0,0,0,1.5,1.5h1.6l-1.5-1.5v.77l1.5-1.5H65.26a1.5,1.5,0,0,0,0,3h2.53a1.52,1.52,0,0,0,1.5-1.5v-.77a1.52,1.52,0,0,0-1.5-1.5h-1.6l1.5,1.5V69a1.52,1.52,0,0,0-1.5-1.5h-.93a1.52,1.52,0,0,0-1.5,1.5V73.4a1.5,1.5,0,1,0,3,0Z"/><path class="cls-2" d="M71,73.4l-.3-1.05H69.23l-.3,1.05H68L69.42,69h1.13L72,73.4Zm-.51-1.82-.28-1s0-.1-.06-.18,0-.17-.07-.27-.06-.2-.08-.3,0-.18-.05-.25l0,.15c0,.06,0,.13,0,.19a1.6,1.6,0,0,1,0,.21l0,.19a1.24,1.24,0,0,0,0,.16l0,.1-.28,1Z"/><path class="cls-2" d="M72.49,73l-.3-1a1.53,1.53,0,0,0-1.45-1.11H69.23A1.53,1.53,0,0,0,67.79,72l-.3,1,1.44-1.1H68l1.45,1.9L70.68,70l.18-.55-1.44,1.1h1.13l-1.44-1.1,1.24,3.84.18.56L72,71.9H71a1.5,1.5,0,1,0,0,3H72A1.52,1.52,0,0,0,73.43,73l-1.25-3.85L72,68.6a1.55,1.55,0,0,0-1.45-1.1H69.42A1.53,1.53,0,0,0,68,68.6l-1.24,3.85-.18.55A1.52,1.52,0,0,0,68,74.9h.94a1.54,1.54,0,0,0,1.45-1.1l.3-1-1.45,1.1h1.51l-1.44-1.1.3,1a1.5,1.5,0,0,0,2.89-.8Z"/><path class="cls-2" d="M72,71.18l-.22-.76a9.6,9.6,0,0,1-.31-1.2l-.16-.36a1.18,1.18,0,0,0-.38-.42.79.79,0,0,0-.33-.19,1.06,1.06,0,0,0-.58-.13l-.4,0-.36.15a1.31,1.31,0,0,0-.42.39,1.14,1.14,0,0,0-.27.51,19.59,19.59,0,0,1-.53,2A1.51,1.51,0,0,0,68,72a1.14,1.14,0,0,0,.27.51,1.12,1.12,0,0,0,.42.39,1.48,1.48,0,0,0,.76.21h1.07a1.56,1.56,0,0,0,1.06-.44,1.21,1.21,0,0,0,.31-.49,1.11,1.11,0,0,0,.13-.57,1.54,1.54,0,0,0-.44-1.06,1.56,1.56,0,0,0-1.06-.44H69.46L70.91,72c.18-.64.4-1.29.53-2h-2.9a8.5,8.5,0,0,0,.32,1.2l.22.75a1.56,1.56,0,0,0,.69.9,1.66,1.66,0,0,0,1.16.15,1.47,1.47,0,0,0,.89-.69A1.49,1.49,0,0,0,72,71.18Z"/><path class="cls-2" d="M74.12,69h1.29a3.88,3.88,0,0,1,.72.06,1.45,1.45,0,0,1,.52.19.81.81,0,0,1,.32.34,1.15,1.15,0,0,1,.1.52,1.22,1.22,0,0,1,0,.34,1.11,1.11,0,0,1-.13.29.8.8,0,0,1-.21.2.61.61,0,0,1-.29.11v0a1.63,1.63,0,0,1,.31.11.83.83,0,0,1,.25.18.86.86,0,0,1,.16.3,1.42,1.42,0,0,1,.06.44,1.29,1.29,0,0,1-.1.53,1.08,1.08,0,0,1-.3.4,1.37,1.37,0,0,1-.48.25,2,2,0,0,1-.63.09H74.12Zm.93,1.73h.48a1.12,1.12,0,0,0,.29,0,.42.42,0,0,0,.19-.09.36.36,0,0,0,.11-.16.73.73,0,0,0,0-.22.39.39,0,0,0-.16-.36.9.9,0,0,0-.5-.11h-.44Zm0,.74v1.14h.55a.87.87,0,0,0,.3,0,.48.48,0,0,0,.2-.12.37.37,0,0,0,.11-.19.66.66,0,0,0,0-.25.54.54,0,0,0,0-.22.39.39,0,0,0-.11-.17.42.42,0,0,0-.21-.11,1,1,0,0,0-.32,0Z"/><path class="cls-2" d="M74.12,70.52a14.71,14.71,0,0,1,1.88,0l-.4-.06a2.59,2.59,0,0,1,.48.12l-.36-.15a1.71,1.71,0,0,1,.23.13l-.3-.23a1.07,1.07,0,0,1,.19.18l-.24-.3.1.17-.15-.36a1,1,0,0,1,.06.25l0-.4a1.55,1.55,0,0,1,0,.43l0-.4a2.5,2.5,0,0,1-.07.26l.15-.36a.83.83,0,0,1-.09.16l.24-.3a1.21,1.21,0,0,1-.16.16l.31-.24a.82.82,0,0,1-.17.11l.36-.16a1.27,1.27,0,0,1-.18.06,1.51,1.51,0,0,0-1.1,1.44v0A1.52,1.52,0,0,0,76,72.55l.25.08-.36-.15a.94.94,0,0,1,.22.12l-.31-.23.14.13-.24-.3a1,1,0,0,1,.1.18L75.65,72a1.47,1.47,0,0,1,.08.3l-.06-.4a1.48,1.48,0,0,1,0,.42l0-.4a1.08,1.08,0,0,1-.09.32l.15-.36a1.28,1.28,0,0,1-.15.25l.24-.3a1.8,1.8,0,0,1-.2.19l.3-.24a1.69,1.69,0,0,1-.29.17l.36-.15a2.66,2.66,0,0,1-.47.11l.4-.05c-.61.06-1.24,0-1.85,0l1.5,1.5V69a1.51,1.51,0,0,0-1.5-1.5,1.53,1.53,0,0,0-1.5,1.5V73.4a1.52,1.52,0,0,0,1.5,1.5,13.81,13.81,0,0,0,2.32-.08,2.86,2.86,0,0,0,1.45-.75,2.69,2.69,0,0,0,.78-1.73,2.45,2.45,0,0,0-1.87-2.68l1.1,1.44v0l-1.1,1.45a2.55,2.55,0,0,0,1-4.23,2.72,2.72,0,0,0-1.39-.68,14.78,14.78,0,0,0-2.31-.09,1.5,1.5,0,0,0,0,3Z"/><path class="cls-2" d="M75.05,72.25h.64l.48-.07.09,0a1.94,1.94,0,0,0,.81-.47,2,2,0,0,0,.58-1.42,2.78,2.78,0,0,0-.07-.57,1.93,1.93,0,0,0-.45-.8,1.65,1.65,0,0,0-.41-.33,1.87,1.87,0,0,0-.51-.2,3,3,0,0,0-.73-.09h-.43a1.08,1.08,0,0,0-.58.13,1.14,1.14,0,0,0-.48.31l-.23.3a1.48,1.48,0,0,0-.21.76v1a1.15,1.15,0,0,0,.13.58,1.11,1.11,0,0,0,.31.48,1.14,1.14,0,0,0,.48.31,1.08,1.08,0,0,0,.58.13l.4,0a1.39,1.39,0,0,0,.66-.39l.24-.3a1.54,1.54,0,0,0,.2-.76v-1l-1.5,1.5c.22,0,.44,0,.65,0l-.4-.05a.8.8,0,0,1,.21.05l-.36-.15.09,0-.3-.23L75,71l-.24-.3a.25.25,0,0,1,0,.07l-.15-.36a.65.65,0,0,1,0,.13l-.06-.4a.74.74,0,0,1,0,.21l0-.4a.28.28,0,0,1,0,.13l.15-.35,0,.07.23-.3-.06.06.3-.24-.09.06.36-.15-.19,0,.4-.06a5,5,0,0,1-.67,0,1.17,1.17,0,0,0-.58.13,1.36,1.36,0,0,0-.79.79,1.17,1.17,0,0,0-.13.58l.06.4a1.45,1.45,0,0,0,.38.66l.31.24A1.5,1.5,0,0,0,75.05,72.25Z"/><path class="cls-2" d="M73.55,71.49v1.14a1.15,1.15,0,0,0,.13.58,1.24,1.24,0,0,0,.31.48l.31.24a1.5,1.5,0,0,0,.75.2h.66l.49-.07a.29.29,0,0,0,.1,0,1.91,1.91,0,0,0,.84-.48,1.45,1.45,0,0,0,.34-.44,2.34,2.34,0,0,0,.26-1,2.21,2.21,0,0,0-.06-.63.27.27,0,0,0,0-.12,1.82,1.82,0,0,0-.2-.45,2,2,0,0,0-.66-.65,3.43,3.43,0,0,0-.44-.19.53.53,0,0,0-.12,0,3.27,3.27,0,0,0-.7-.08h-.48a1.08,1.08,0,0,0-.58.13,1.14,1.14,0,0,0-.48.31,1.17,1.17,0,0,0-.31.48,1.15,1.15,0,0,0-.13.58l.06.4a1.57,1.57,0,0,0,.38.66l.31.23a1.42,1.42,0,0,0,.75.21,5.58,5.58,0,0,1,.71,0l-.4,0a.8.8,0,0,1,.21,0l-.36-.15.11.06-.3-.23.07.08-.23-.31,0,.08-.16-.36a.42.42,0,0,1,0,.16l-.05-.4a.89.89,0,0,1,0,.23l.05-.4a.85.85,0,0,1,0,.17l.15-.35a.47.47,0,0,1-.06.09l.24-.3-.07.07.3-.23-.13.07.36-.15-.17,0,.4,0a2.67,2.67,0,0,1-.4,0h-.32l1.5,1.5V71.49a1.06,1.06,0,0,0-.13-.58,1.08,1.08,0,0,0-.31-.48,1,1,0,0,0-.48-.31,1.06,1.06,0,0,0-.58-.13l-.4.05a1.49,1.49,0,0,0-.66.39l-.23.3A1.48,1.48,0,0,0,73.55,71.49Z"/><path class="cls-2" d="M80.58,73.4H78.06V69h2.52v.76H79v1h1.48v.76H79v1.13h1.59Z"/><path class="cls-2" d="M80.58,71.9H78.06l1.5,1.5V69l-1.5,1.5h2.52L79.08,69v.76l1.5-1.5H79a1.52,1.52,0,0,0-1.5,1.5v1a1.52,1.52,0,0,0,1.5,1.5h1.48L79,70.74v.76l1.5-1.5H79a1.52,1.52,0,0,0-1.5,1.5v1.13a1.52,1.52,0,0,0,1.5,1.5h1.59l-1.5-1.5v.77a1.5,1.5,0,0,0,3,0v-.77a1.52,1.52,0,0,0-1.5-1.5H79l1.5,1.5V71.5L79,73h1.48A1.52,1.52,0,0,0,82,71.5v-.76a1.52,1.52,0,0,0-1.5-1.5H79l1.5,1.5v-1L79,71.28h1.59a1.52,1.52,0,0,0,1.5-1.5V69a1.52,1.52,0,0,0-1.5-1.5H78.06a1.52,1.52,0,0,0-1.5,1.5V73.4a1.52,1.52,0,0,0,1.5,1.5h2.52a1.5,1.5,0,1,0,0-3Z"/><path class="cls-2" d="M83.75,69h.93L83.32,73.4h-1L80.94,69h.94l.74,2.63s0,.09,0,.17,0,.17,0,.27a2.5,2.5,0,0,1,0,.29c0,.09,0,.17,0,.24s0-.15,0-.24l.06-.29c0-.1,0-.18,0-.26l0-.18Z"/><path class="cls-2" d="M83.75,70.52h.93l-1.44-1.9L82,72.45l-.17.55,1.45-1.1h-1L83.75,73l-1.19-3.83-.17-.55-1.45,1.9h.94l-1.44-1.1a31.69,31.69,0,0,1,.93,3.6l.15.36a1.21,1.21,0,0,0,.39.42,1.48,1.48,0,0,0,.91.32,1.66,1.66,0,0,0,.75-.21,1.47,1.47,0,0,0,.69-.89,31.69,31.69,0,0,1,.93-3.6,1.52,1.52,0,0,0-1-1.85,1.53,1.53,0,0,0-1.85,1.05,32.24,32.24,0,0,0-.93,3.6h2.89a32.24,32.24,0,0,0-.93-3.6,1.54,1.54,0,0,0-1.45-1.1h-.94a1.51,1.51,0,0,0-1.44,1.9l1.19,3.83.17.55a1.54,1.54,0,0,0,1.45,1.1h1a1.54,1.54,0,0,0,1.45-1.1L86,70l.17-.55a1.52,1.52,0,0,0-1.45-1.9h-.93a1.5,1.5,0,0,0,0,3Z"/><path class="cls-2" d="M87.76,73.4H85.24V69h2.52v.76h-1.6v1h1.49v.76H86.16v1.13h1.6Z"/><path class="cls-2" d="M87.76,71.9H85.24l1.5,1.5V69l-1.5,1.5h2.52L86.26,69v.76l1.5-1.5h-1.6a1.52,1.52,0,0,0-1.5,1.5v1a1.52,1.52,0,0,0,1.5,1.5h1.49l-1.5-1.5v.76l1.5-1.5H86.16a1.52,1.52,0,0,0-1.5,1.5v1.13a1.52,1.52,0,0,0,1.5,1.5h1.6l-1.5-1.5v.77a1.5,1.5,0,0,0,3,0v-.77a1.52,1.52,0,0,0-1.5-1.5h-1.6l1.5,1.5V71.5L86.16,73h1.49a1.52,1.52,0,0,0,1.5-1.5v-.76a1.52,1.52,0,0,0-1.5-1.5H86.16l1.5,1.5v-1l-1.5,1.5h1.6a1.52,1.52,0,0,0,1.5-1.5V69a1.52,1.52,0,0,0-1.5-1.5H85.24a1.52,1.52,0,0,0-1.5,1.5V73.4a1.52,1.52,0,0,0,1.5,1.5h2.52a1.5,1.5,0,1,0,0-3Z"/><path class="cls-2" d="M89.6,71.72V73.4h-.93V69h1.2a2,2,0,0,1,1.24.32,1.2,1.2,0,0,1,.4,1,1.31,1.31,0,0,1-.06.41,1.07,1.07,0,0,1-.16.32,1.1,1.1,0,0,1-.23.25l-.27.18.59,1,.22.35.19.31c.06.09.1.16.14.21l0,.09H91l-1-1.68Zm0-.76h.25a.8.8,0,0,0,.55-.15.57.57,0,0,0,.17-.46.52.52,0,0,0-.18-.44.93.93,0,0,0-.56-.13H89.6Z"/><path class="cls-2" d="M88.1,71.72V73.4l1.5-1.5h-.93l1.5,1.5V69l-1.5,1.5a12.83,12.83,0,0,1,1.64,0l-.4-.06a2.52,2.52,0,0,1,.54.14l-.36-.15a1.4,1.4,0,0,1,.26.16l-.3-.24a1.29,1.29,0,0,1,.16.17L90,70.26a1.28,1.28,0,0,1,.15.25L90,70.15a1.71,1.71,0,0,1,.09.3l-.06-.4a2,2,0,0,1,0,.49l0-.39a2.5,2.5,0,0,1-.07.26l.15-.36a1.39,1.39,0,0,1-.18.31l.24-.3a1.31,1.31,0,0,1-.24.23l.3-.23-.22.13a1.53,1.53,0,0,0-.54,2.06c.4.63.81,1.26,1.2,1.9L92,71.9H91l1.3.74L91.3,71a1.51,1.51,0,0,0-1.3-.74h-.4a1.5,1.5,0,0,0,0,3H90l-1.29-.75,1,1.68A1.5,1.5,0,0,0,91,74.9h1a1.52,1.52,0,0,0,1.3-2.26c-.39-.64-.8-1.27-1.2-1.91l-.54,2A2.74,2.74,0,0,0,93,70.12a2.87,2.87,0,0,0-.67-1.68,2.79,2.79,0,0,0-1.19-.74,7.56,7.56,0,0,0-2.47-.18,1.52,1.52,0,0,0-1.5,1.5V73.4a1.52,1.52,0,0,0,1.5,1.5h.93a1.52,1.52,0,0,0,1.5-1.5V71.72a1.5,1.5,0,0,0-3,0Z"/><path class="cls-2" d="M89.6,72.46a2.81,2.81,0,0,0,.41,0,3.55,3.55,0,0,0,.47-.06l.08,0a2.62,2.62,0,0,0,.49-.19,2,2,0,0,0,.73-.71,2.23,2.23,0,0,0,.29-1v-.18A2.74,2.74,0,0,0,92,69.7l-.16-.38,0,0a1.49,1.49,0,0,0-.15-.2s-.1-.14-.15-.19l0,0a2.51,2.51,0,0,0-.32-.25,2.13,2.13,0,0,0-.47-.21l-.16,0a3.36,3.36,0,0,0-.71-.08h-.2a1.06,1.06,0,0,0-.58.13,1,1,0,0,0-.48.31l-.24.3a1.57,1.57,0,0,0-.2.76V71a1.06,1.06,0,0,0,.13.58,1.36,1.36,0,0,0,.79.79,1.06,1.06,0,0,0,.58.13l.4,0a1.49,1.49,0,0,0,.66-.39l.23-.3A1.45,1.45,0,0,0,91.1,71V69.78l-1.5,1.5a3.53,3.53,0,0,1,.46,0l-.4-.05a.79.79,0,0,1,.22.06l-.35-.15a.37.37,0,0,1,.12.07L89.34,71a.46.46,0,0,1,.07.07l-.23-.3,0,.09-.15-.36a.75.75,0,0,1,0,.16l-.06-.4a.89.89,0,0,1,0,.23l.06-.4a.61.61,0,0,1-.05.18l.15-.36a.6.6,0,0,1-.06.11l.23-.31a.3.3,0,0,1-.08.08l.31-.23-.11.06.36-.15a.87.87,0,0,1-.22,0l.4,0a3.38,3.38,0,0,1-.45,0,1.15,1.15,0,0,0-.58.13,1.11,1.11,0,0,0-.48.31,1.14,1.14,0,0,0-.31.48,1.08,1.08,0,0,0-.13.58l.05.4a1.39,1.39,0,0,0,.39.66l.3.24A1.57,1.57,0,0,0,89.6,72.46Z"/><path class="cls-2" d="M95,73.4l-.3-1.05H93.22l-.3,1.05H92L93.4,69h1.14L96,73.4Zm-.52-1.82-.28-1,0-.18c0-.08-.05-.17-.08-.27s0-.2-.07-.3a1.57,1.57,0,0,1,0-.25s0,.09,0,.15a1.29,1.29,0,0,1,0,.19c0,.07,0,.14-.05.21l0,.19c0,.06,0,.11,0,.16l0,.1-.27,1Z"/><path class="cls-2" d="M96.48,73l-.3-1a1.55,1.55,0,0,0-1.45-1.11H93.22A1.54,1.54,0,0,0,91.77,72l-.3,1,1.45-1.1H92l1.45,1.9L94.67,70l.18-.55L93.4,70.5h1.14l-1.45-1.1,1.25,3.84.18.56L96,71.9H95a1.5,1.5,0,0,0,0,3H96A1.51,1.51,0,0,0,97.41,73l-1.25-3.85L96,68.6a1.55,1.55,0,0,0-1.45-1.1H93.4A1.53,1.53,0,0,0,92,68.6l-1.25,3.85-.17.55A1.51,1.51,0,0,0,92,74.9h.94a1.54,1.54,0,0,0,1.45-1.1l.3-1-1.45,1.1h1.51l-1.45-1.1.3,1a1.5,1.5,0,0,0,2.9-.8Z"/><path class="cls-2" d="M96,71.18l-.22-.76a8.16,8.16,0,0,1-.32-1.2l-.15-.36a1.12,1.12,0,0,0-.39-.42.69.69,0,0,0-.33-.19,1,1,0,0,0-.57-.13l-.4,0-.36.15a1.72,1.72,0,0,0-.69.9,19.59,19.59,0,0,1-.53,2A1.51,1.51,0,0,0,92,72a1.14,1.14,0,0,0,.27.51,1,1,0,0,0,.42.39,1.45,1.45,0,0,0,.76.21h1.06a1.59,1.59,0,0,0,1.07-.44,1.21,1.21,0,0,0,.31-.49,1.11,1.11,0,0,0,.12-.57,1.49,1.49,0,0,0-.43-1.06,1.59,1.59,0,0,0-1.07-.44H93.45L94.89,72a18.71,18.71,0,0,0,.53-2H92.53a8.5,8.5,0,0,0,.32,1.2l.22.75a1.56,1.56,0,0,0,.69.9,1.12,1.12,0,0,0,.56.18,1.08,1.08,0,0,0,.59,0,1.46,1.46,0,0,0,.9-.69A1.49,1.49,0,0,0,96,71.18Z"/><path class="cls-2" d="M98.12,70.94h1.74v2.27l-.35.1-.37.08-.4,0-.44,0a2.33,2.33,0,0,1-.87-.15,1.68,1.68,0,0,1-.64-.43,2,2,0,0,1-.39-.71,3.15,3.15,0,0,1-.14-1,2.75,2.75,0,0,1,.15-.93,2,2,0,0,1,.44-.71,2.2,2.2,0,0,1,.72-.45,3,3,0,0,1,1-.15,3.23,3.23,0,0,1,.69.07,3.63,3.63,0,0,1,.61.2l-.31.74a2.3,2.3,0,0,0-1-.24,1.33,1.33,0,0,0-.54.1,1.3,1.3,0,0,0-.69.78,1.91,1.91,0,0,0-.09.61,2.68,2.68,0,0,0,.06.59,1.3,1.3,0,0,0,.21.46,1,1,0,0,0,.35.31,1.18,1.18,0,0,0,.52.1h.33l.26,0v-.91h-.83Z"/><path class="cls-2" d="M98.12,72.44h1.74l-1.5-1.5v2.27l1.1-1.45a6.87,6.87,0,0,1-.87.21l.39-.06a4.25,4.25,0,0,1-1.07,0l.4,0a2.12,2.12,0,0,1-.55-.14l.36.15a2,2,0,0,1-.37-.22l.31.24a2.13,2.13,0,0,1-.3-.3L98,72a2,2,0,0,1-.22-.37l.15.35a2.49,2.49,0,0,1-.19-.71l.05.4a3.79,3.79,0,0,1,0-.89l-.05.4a3.05,3.05,0,0,1,.17-.66l-.15.36a2.22,2.22,0,0,1,.25-.42l-.23.31a1.59,1.59,0,0,1,.29-.29l-.3.23a1.83,1.83,0,0,1,.49-.28l-.36.15a2.82,2.82,0,0,1,.57-.15l-.4,0a3.47,3.47,0,0,1,.91,0l-.4-.06a4.31,4.31,0,0,1,.87.24l-1-1.84-.3.74,2.2-.9a3.49,3.49,0,0,0-2.7-.28,2.9,2.9,0,0,0-1.4,1.09,3,3,0,0,0-.46,1.46,3.11,3.11,0,0,0,.82,2.55,3,3,0,0,0,2.79.58,1.43,1.43,0,0,0,.78-.54,1.48,1.48,0,0,0,.32-.91v-.91a1.52,1.52,0,0,0-1.5-1.5h-.83l1.5,1.5v-.77a1.5,1.5,0,0,0-3,0v.77a1.52,1.52,0,0,0,1.5,1.5H99l-1.5-1.5v.91l1.1-1.44-.26,0,.4,0a2.53,2.53,0,0,1-.55,0l.4,0-.25-.06.36.15a1,1,0,0,1-.22-.14l.3.24a1.85,1.85,0,0,1-.14-.14l.23.3a1.11,1.11,0,0,1-.17-.3l.15.36a2.09,2.09,0,0,1-.11-.43l0,.4a2.73,2.73,0,0,1,0-.7l0,.4a1.62,1.62,0,0,1,.12-.43l-.15.36a1.69,1.69,0,0,1,.17-.29l-.23.31a1.26,1.26,0,0,1,.2-.2l-.3.23a1.28,1.28,0,0,1,.25-.15l-.36.15a2,2,0,0,1,.33-.09l-.4,0a2.44,2.44,0,0,1,.54,0l-.4,0a2.75,2.75,0,0,1,.56.16l-.36-.15.12.05a1.54,1.54,0,0,0,1.34.08,1.61,1.61,0,0,0,.87-1l.31-.75a1.49,1.49,0,0,0-.15-1.15,1.82,1.82,0,0,0-.9-.69,4.61,4.61,0,0,0-2.91-.17,3.79,3.79,0,0,0-1.44.8A3.41,3.41,0,0,0,95,69.74a4,4,0,0,0-.26,1.42A4.75,4.75,0,0,0,95,72.57a3.31,3.31,0,0,0,2.24,2.24,5.45,5.45,0,0,0,3.07-.16,1.53,1.53,0,0,0,1.1-1.44V70.94a1.52,1.52,0,0,0-1.5-1.5H98.12a1.5,1.5,0,0,0,0,3Z"/><path class="cls-2" d="M103.42,73.4H100.9V69h2.52v.76h-1.59v1h1.48v.76h-1.48v1.13h1.59Z"/><path class="cls-2" d="M103.42,71.9H100.9l1.5,1.5V69l-1.5,1.5h2.52l-1.5-1.5v.76l1.5-1.5h-1.59a1.52,1.52,0,0,0-1.5,1.5v1a1.52,1.52,0,0,0,1.5,1.5h1.48l-1.5-1.5v.76l1.5-1.5h-1.48a1.52,1.52,0,0,0-1.5,1.5v1.13a1.52,1.52,0,0,0,1.5,1.5h1.59l-1.5-1.5v.77a1.5,1.5,0,0,0,3,0v-.77a1.52,1.52,0,0,0-1.5-1.5h-1.59l1.5,1.5V71.5l-1.5,1.5h1.48a1.52,1.52,0,0,0,1.5-1.5v-.76a1.52,1.52,0,0,0-1.5-1.5h-1.48l1.5,1.5v-1l-1.5,1.5h1.59a1.52,1.52,0,0,0,1.5-1.5V69a1.52,1.52,0,0,0-1.5-1.5H100.9A1.52,1.52,0,0,0,99.4,69V73.4a1.52,1.52,0,0,0,1.5,1.5h2.52a1.5,1.5,0,0,0,0-3Z"/><path class="cls-2" d="M106.73,72.18a1.29,1.29,0,0,1-.1.53,1.06,1.06,0,0,1-.29.4,1.38,1.38,0,0,1-.48.26,2.06,2.06,0,0,1-.64.09,3.08,3.08,0,0,1-.61-.07,2,2,0,0,1-.55-.2v-.86l.29.13a1.88,1.88,0,0,0,.3.12l.3.08a1.63,1.63,0,0,0,.31,0,1,1,0,0,0,.26,0,.55.55,0,0,0,.17-.1.31.31,0,0,0,.1-.15.52.52,0,0,0,0-.18.38.38,0,0,0,0-.22.6.6,0,0,0-.15-.18,1.4,1.4,0,0,0-.22-.16l-.3-.16-.31-.18a1.46,1.46,0,0,1-.32-.25,1.16,1.16,0,0,1-.25-.36,1.21,1.21,0,0,1-.11-.52,1.42,1.42,0,0,1,.1-.52,1.15,1.15,0,0,1,.28-.4,1.37,1.37,0,0,1,.43-.24,1.77,1.77,0,0,1,.58-.08,1.62,1.62,0,0,1,.31,0,1.59,1.59,0,0,1,.3.06,1.61,1.61,0,0,1,.29.09l.31.13-.3.73a1.74,1.74,0,0,0-.25-.11l-.23-.09-.21,0a.78.78,0,0,0-.22,0,.48.48,0,0,0-.35.12.44.44,0,0,0-.13.33.42.42,0,0,0,0,.2.36.36,0,0,0,.12.16,1,1,0,0,0,.21.15l.32.18.41.24a2.31,2.31,0,0,1,.33.28,1.08,1.08,0,0,1,.21.34A1.25,1.25,0,0,1,106.73,72.18Z"/><path class="cls-2" d="M105.23,72.18a1.94,1.94,0,0,1,0,.24l.06-.4a1.4,1.4,0,0,1-.09.29l.16-.36a2.07,2.07,0,0,1-.15.25l.24-.31-.2.2.3-.23a1.64,1.64,0,0,1-.29.16l.36-.15a1.91,1.91,0,0,1-.47.12l.4,0a3.29,3.29,0,0,1-.7,0l.4,0a2.42,2.42,0,0,1-.64-.17L105,72l-.13-.06.74,1.29v-.86l-2.25,1.3a5.11,5.11,0,0,0,1.79.55,2,2,0,0,0,2.15-2.5,2.25,2.25,0,0,0-.92-1.18c-.3-.22-.65-.35-1-.58l.31.24a2.06,2.06,0,0,1-.26-.25l.24.31a1.65,1.65,0,0,1-.18-.32l.15.36a2.17,2.17,0,0,1-.07-.24l.06.39a1.69,1.69,0,0,1,0-.45l0,.4a1.57,1.57,0,0,1,.08-.29l-.15.36c0-.08.08-.16.13-.24l-.23.31a1.21,1.21,0,0,1,.19-.2l-.3.24a1.2,1.2,0,0,1,.24-.15l-.36.15a2.12,2.12,0,0,1,.41-.12l-.39.06a2.08,2.08,0,0,1,.61,0l-.4-.06a3.38,3.38,0,0,1,.75.22l-.36-.15.16.07-.69-1.69-.3.72,2.2-.9a3.9,3.9,0,0,0-1.67-.46,2,2,0,0,0-1.91,1.43,2,2,0,0,0,.93,2.25c.31.21.66.36,1,.58l-.3-.23a1.88,1.88,0,0,1,.25.24l-.24-.3a1.05,1.05,0,0,1,.17.29l-.15-.36a2.46,2.46,0,0,1,.07.29l-.06-.4a.86.86,0,0,1,0,.16,1.5,1.5,0,0,0,3,0,2.72,2.72,0,0,0-.87-2,4.85,4.85,0,0,0-.79-.55,4.36,4.36,0,0,1-.59-.35l.3.24-.09-.09.23.3-.07-.11.16.36a.56.56,0,0,1,0-.12l.06.39a.57.57,0,0,1,0-.13l0,.4a.42.42,0,0,1,0-.12l-.15.35a.47.47,0,0,1,.05-.1l-.23.31.08-.08-.3.23.1-.06-.35.16a.28.28,0,0,1,.13,0l-.4,0a1.42,1.42,0,0,1,.29,0l-.4-.06a2.24,2.24,0,0,1,.5.16l-.36-.15.2.08a1.55,1.55,0,0,0,1.33.08,1.57,1.57,0,0,0,.87-1l.3-.72,0-.4a1,1,0,0,0-.13-.57,1.35,1.35,0,0,0-.61-.72A4.34,4.34,0,0,0,105,67.5a2.68,2.68,0,0,0-2.23,1.78,2.73,2.73,0,0,0,.31,2.45,3.16,3.16,0,0,0,1,.94,7.49,7.49,0,0,1,.72.42l-.31-.24a1.21,1.21,0,0,1,.16.16l-.23-.31a.83.83,0,0,1,.07.13l-.16-.36,0,.08-.05-.4a.33.33,0,0,1,0,.14l.05-.4a.5.5,0,0,1,0,.12l.15-.35-.06.1.23-.3,0,0,.31-.24a.34.34,0,0,1-.11.07l.36-.15a.67.67,0,0,1-.19,0l.4,0a1.51,1.51,0,0,1-.37,0l.4.06a3,3,0,0,1-.6-.18l.35.15-.36-.16a1.53,1.53,0,0,0-1.51,0,1.49,1.49,0,0,0-.75,1.29v.86a1.48,1.48,0,0,0,.75,1.3,4.06,4.06,0,0,0,2.92.33,2.81,2.81,0,0,0,1.32-.8,2.88,2.88,0,0,0,.68-1.84,1.5,1.5,0,0,0-3,0Z"/><path class="cls-2" d="M112,70.38a1.73,1.73,0,0,1-.09.56,1.1,1.1,0,0,1-.28.46,1.53,1.53,0,0,1-.53.32,2.29,2.29,0,0,1-.8.12h-.21V73.4h-.93V69h1.21a2.55,2.55,0,0,1,.73.09,1.53,1.53,0,0,1,.51.27,1.06,1.06,0,0,1,.29.43A1.48,1.48,0,0,1,112,70.38Zm-1.91.7h.18a.9.9,0,0,0,.59-.16.6.6,0,0,0,.2-.5.59.59,0,0,0-.18-.48.8.8,0,0,0-.56-.16h-.23Z"/><path class="cls-2" d="M110.48,70.38a2,2,0,0,1,0,.25l.06-.4a1.56,1.56,0,0,1-.1.37l.15-.36a1.11,1.11,0,0,1-.17.3l.24-.31a1.14,1.14,0,0,1-.19.19l.31-.23a2.6,2.6,0,0,1-.36.21l.36-.15a2.23,2.23,0,0,1-.51.12l.4-.05a5.62,5.62,0,0,1-.58,0,1.52,1.52,0,0,0-1.5,1.5V73.4l1.5-1.5h-.93l1.5,1.5V69l-1.5,1.5a14.42,14.42,0,0,1,1.61,0l-.4-.05a2.44,2.44,0,0,1,.53.14l-.36-.15.27.16-.31-.23a.77.77,0,0,1,.18.18l-.23-.31a1.71,1.71,0,0,1,.13.23l-.15-.36a1.4,1.4,0,0,1,.11.4l0-.4c0,.08,0,.16,0,.23a1.5,1.5,0,0,0,3,0,3.31,3.31,0,0,0-.25-1.21,2.67,2.67,0,0,0-.93-1.12,3.34,3.34,0,0,0-2-.53h-1.21a1.52,1.52,0,0,0-1.5,1.5V73.4a1.52,1.52,0,0,0,1.5,1.5h.93a1.52,1.52,0,0,0,1.5-1.5V71.84l-1.5,1.5a4.18,4.18,0,0,0,2-.41,2.86,2.86,0,0,0,1.44-2.55,1.5,1.5,0,0,0-3,0Z"/><path class="cls-2" d="M110.07,72.58h.29l.11,0c.16,0,.32,0,.48-.06l.14,0a2.5,2.5,0,0,0,.48-.21,2,2,0,0,0,.71-.74,3.69,3.69,0,0,0,.19-.48,2.87,2.87,0,0,0,.07-.58,4.8,4.8,0,0,0-.06-.56,1.09,1.09,0,0,0,0-.17,1.82,1.82,0,0,0-.22-.47,2.18,2.18,0,0,0-.26-.34l0,0-.32-.25-.13-.07a2.15,2.15,0,0,0-.5-.19,4,4,0,0,0-.9-.08,1.06,1.06,0,0,0-.58.13,1,1,0,0,0-.48.31l-.24.3a1.57,1.57,0,0,0-.2.76v1.3a1.06,1.06,0,0,0,.13.58,1.14,1.14,0,0,0,.31.48,1,1,0,0,0,.48.31,1.15,1.15,0,0,0,.58.13l.4,0a1.59,1.59,0,0,0,.66-.39l.23-.3a1.48,1.48,0,0,0,.21-.76v-1.3l-1.5,1.5a3.09,3.09,0,0,1,.43,0l-.4-.05.22.05-.36-.15.12.07-.3-.23.08.07-.24-.3a.47.47,0,0,1,.07.12l-.15-.36a1.21,1.21,0,0,1,0,.18l-.06-.4a1.22,1.22,0,0,1,0,.27l0-.4a1.16,1.16,0,0,1,0,.18l.15-.36-.07.11.24-.3-.08.07.3-.23-.13.08.35-.15a.86.86,0,0,1-.23.06l.4-.06a2.68,2.68,0,0,1-.4,0,1.06,1.06,0,0,0-.58.13A1,1,0,0,0,109,70a1.08,1.08,0,0,0-.31.48,1.06,1.06,0,0,0-.13.58l.05.4a1.49,1.49,0,0,0,.39.66l.3.23A1.45,1.45,0,0,0,110.07,72.58Z"/><path class="cls-2" d="M115.06,69H116l-1.37,4.38h-1L112.26,69h.93l.75,2.63,0,.17c0,.08,0,.17,0,.27l.06.29c0,.09,0,.17,0,.24s0-.15,0-.24l.06-.29c0-.1,0-.18,0-.26l0-.18Z"/><path class="cls-2" d="M115.06,70.52H116l-1.45-1.9-1.2,3.83-.17.55,1.45-1.1h-1l1.44,1.1-1.19-3.83-.17-.55-1.44,1.9h.93l-1.44-1.1a31.69,31.69,0,0,1,.93,3.6l.15.36a1.21,1.21,0,0,0,.39.42,1.48,1.48,0,0,0,.91.32,1.66,1.66,0,0,0,.75-.21,1.47,1.47,0,0,0,.69-.89,36.54,36.54,0,0,1,.93-3.6,1.52,1.52,0,0,0-1-1.85,1.53,1.53,0,0,0-1.85,1.05,32.24,32.24,0,0,0-.93,3.6h2.89a32.24,32.24,0,0,0-.93-3.6,1.54,1.54,0,0,0-1.45-1.1h-.93a1.52,1.52,0,0,0-1.45,1.9L112,73.25l.17.55a1.54,1.54,0,0,0,1.45,1.1h1a1.54,1.54,0,0,0,1.45-1.1L117.27,70l.17-.55a1.51,1.51,0,0,0-1.44-1.9h-.94a1.5,1.5,0,0,0,0,3Z"/><path class="cls-2" d="M118.14,73.4h-.92V69.79h-1.1V69h3.12v.77h-1.1Z"/><path class="cls-2" d="M118.14,71.9h-.92l1.5,1.5V69.79a1.52,1.52,0,0,0-1.5-1.5h-1.1l1.5,1.5V69l-1.5,1.5h3.12l-1.5-1.5v.77l1.5-1.5h-1.1a1.52,1.52,0,0,0-1.5,1.5V73.4a1.5,1.5,0,0,0,3,0V69.79l-1.5,1.5h1.1a1.52,1.52,0,0,0,1.5-1.5V69a1.52,1.52,0,0,0-1.5-1.5h-3.12a1.52,1.52,0,0,0-1.5,1.5v.77a1.52,1.52,0,0,0,1.5,1.5h1.1l-1.5-1.5V73.4a1.52,1.52,0,0,0,1.5,1.5h.92a1.5,1.5,0,1,0,0-3Z"/><path class="cls-2" d="M119.41,73a.57.57,0,0,1,0-.24.36.36,0,0,1,.11-.16.34.34,0,0,1,.17-.08.68.68,0,0,1,.4,0,.38.38,0,0,1,.17.08.46.46,0,0,1,.11.16.57.57,0,0,1,0,.24.53.53,0,0,1,0,.23.46.46,0,0,1-.11.16.56.56,0,0,1-.17.09.68.68,0,0,1-.4,0,.46.46,0,0,1-.17-.09.36.36,0,0,1-.11-.16A.53.53,0,0,1,119.41,73Z"/><path class="cls-2" d="M120.91,73v-.11l0,.39,0-.12-.15.36.06-.1-.24.3a.46.46,0,0,0,.07-.07l-.3.24a.27.27,0,0,1,.1-.06l-.36.15.15,0-.4.06H120l-.4,0,.15,0-.36-.15a.24.24,0,0,1,.11.06l-.31-.24a.46.46,0,0,1,.07.07l-.23-.3.06.1-.15-.36,0,.13,0-.4a.67.67,0,0,1,0,.2l0-.4a.58.58,0,0,1,0,.14l.15-.36-.06.1.23-.3-.08.08.3-.24-.09.06.36-.16-.15,0L120,72a.6.6,0,0,1-.19,0l.39.06a.58.58,0,0,1-.16,0l.36.16-.09-.06.31.24-.09-.08.24.3-.06-.1.15.36,0-.12,0,.4V73a1.27,1.27,0,0,0-.13-.58,1.34,1.34,0,0,0-.8-.79,1,1,0,0,0-.57-.13l-.4,0a1.39,1.39,0,0,0-.66.39l-.24.3a1.47,1.47,0,0,0-.2.76,2.1,2.1,0,0,0,.07.56,1.09,1.09,0,0,0,.1.25,1.45,1.45,0,0,0,.11.26,1.93,1.93,0,0,0,.64.63,1.57,1.57,0,0,0,.51.23l.1,0c.15,0,.31,0,.47.06h.1l.41,0,.08,0a1.57,1.57,0,0,0,.5-.21,2.06,2.06,0,0,0,.65-.63,2.38,2.38,0,0,0,.22-.49s0,0,0-.08l0-.23a2.13,2.13,0,0,0,0-.25,2.47,2.47,0,0,0-.06-.56.24.24,0,0,0,0-.08s0,0,0,0a2.71,2.71,0,0,0-.17-.39,1.61,1.61,0,0,0-.32-.42,1.92,1.92,0,0,0-.79-.46A2.91,2.91,0,0,0,120,71h-.21a3,3,0,0,0-.49.07l0,0-.36.15h0a3.78,3.78,0,0,0-.38.28l-.07.07a2.16,2.16,0,0,0-.46.81,2.27,2.27,0,0,0-.07.59,1.17,1.17,0,0,0,.12.58,1.27,1.27,0,0,0,.32.48,1,1,0,0,0,.48.31,1.15,1.15,0,0,0,.58.13l.39-.06a1.45,1.45,0,0,0,.67-.38l.23-.3A1.58,1.58,0,0,0,120.91,73Z"/><path class="cls-2" d="M123,73.4V69h.93v3.61h1.59v.77Z"/><path class="cls-2" d="M124.45,73.4V69l-1.5,1.5h.93l-1.5-1.5v3.61a1.52,1.52,0,0,0,1.5,1.5h1.59l-1.5-1.5v.77l1.5-1.5H123a1.5,1.5,0,0,0,0,3h2.52a1.52,1.52,0,0,0,1.5-1.5v-.77a1.52,1.52,0,0,0-1.5-1.5h-1.59l1.5,1.5V69a1.52,1.52,0,0,0-1.5-1.5H123a1.52,1.52,0,0,0-1.5,1.5V73.4a1.5,1.5,0,0,0,3,0Z"/><path class="cls-2" d="M127.46,73.4h-.93V69.79h-1.1V69h3.12v.77h-1.09Z"/><path class="cls-2" d="M127.46,71.9h-.93l1.5,1.5V69.79a1.52,1.52,0,0,0-1.5-1.5h-1.1l1.5,1.5V69l-1.5,1.5h3.12l-1.5-1.5v.77l1.5-1.5h-1.09a1.52,1.52,0,0,0-1.5,1.5V73.4a1.5,1.5,0,0,0,3,0V69.79l-1.5,1.5h1.09a1.52,1.52,0,0,0,1.5-1.5V69a1.52,1.52,0,0,0-1.5-1.5h-3.12a1.52,1.52,0,0,0-1.5,1.5v.77a1.52,1.52,0,0,0,1.5,1.5h1.1l-1.5-1.5V73.4a1.52,1.52,0,0,0,1.5,1.5h.93a1.5,1.5,0,1,0,0-3Z"/><path class="cls-2" d="M132.61,71.17a2.86,2.86,0,0,1-.15,1,1.84,1.84,0,0,1-.43.7,2.09,2.09,0,0,1-.71.42,3,3,0,0,1-.94.14h-1.15V69h1.28a2.41,2.41,0,0,1,.87.14,1.61,1.61,0,0,1,.66.41,1.72,1.72,0,0,1,.43.67A2.89,2.89,0,0,1,132.61,71.17Zm-.94,0a2.38,2.38,0,0,0-.07-.63,1.29,1.29,0,0,0-.21-.44,1.06,1.06,0,0,0-.34-.26,1.36,1.36,0,0,0-.47-.08h-.42v2.85h.34a1.08,1.08,0,0,0,.88-.36A1.72,1.72,0,0,0,131.67,71.19Z"/><path class="cls-2" d="M131.11,71.17c0,.15,0,.3,0,.45l0-.4a2.52,2.52,0,0,1-.18.65l.15-.35a2.5,2.5,0,0,1-.25.41l.24-.3a2.57,2.57,0,0,1-.29.28l.31-.24a2.18,2.18,0,0,1-.42.24l.36-.15a2.61,2.61,0,0,1-.61.16l.39,0a14.42,14.42,0,0,1-1.61,0l1.5,1.5V69l-1.5,1.5a15.29,15.29,0,0,1,1.66,0l-.39-.05a2.29,2.29,0,0,1,.62.17l-.36-.15a2.71,2.71,0,0,1,.37.21l-.31-.23a1.92,1.92,0,0,1,.29.28l-.23-.3a1.89,1.89,0,0,1,.26.46l-.15-.36a2.39,2.39,0,0,1,.15.54l-.06-.4a3.44,3.44,0,0,1,0,.46,1.5,1.5,0,1,0,3,0,3.86,3.86,0,0,0-.76-2.37,3.45,3.45,0,0,0-2.46-1.26,15.32,15.32,0,0,0-1.66,0,1.52,1.52,0,0,0-1.5,1.5V73.4a1.52,1.52,0,0,0,1.5,1.5,12.55,12.55,0,0,0,2.12-.1,3.46,3.46,0,0,0,2.13-1.38,3.9,3.9,0,0,0,.63-2.25,1.5,1.5,0,0,0-3,0Z"/><path class="cls-2" d="M133.17,71.19a6.85,6.85,0,0,0-.07-.78A2.75,2.75,0,0,0,133,70a3.14,3.14,0,0,0-.42-.79,2.1,2.1,0,0,0-.69-.6,2.68,2.68,0,0,0-1.33-.33h-.39a1.52,1.52,0,0,0-1.5,1.5v2.85a1.52,1.52,0,0,0,1.5,1.5h.38a3.41,3.41,0,0,0,.78-.11,2.47,2.47,0,0,0,.64-.29,2.54,2.54,0,0,0,.73-.73,2.23,2.23,0,0,0,.3-.62,3.41,3.41,0,0,0,.18-1.19,1.52,1.52,0,0,0-.44-1.06,1.5,1.5,0,0,0-1.06-.44,1.52,1.52,0,0,0-1.06.44,1.59,1.59,0,0,0-.44,1.06,2.36,2.36,0,0,1,0,.38l0-.4a1.6,1.6,0,0,1-.11.43l.15-.35a1.49,1.49,0,0,1-.14.24l.24-.31a.77.77,0,0,1-.18.18l.3-.23a1.18,1.18,0,0,1-.19.11l.36-.15a1.57,1.57,0,0,1-.31.08l.4,0a5.28,5.28,0,0,1-.56,0l1.5,1.5V69.78l-1.5,1.5c.2,0,.42,0,.62,0l-.4-.05a1.34,1.34,0,0,1,.27.07l-.36-.15.19.1-.31-.23.16.15-.24-.3a1.1,1.1,0,0,1,.15.26l-.15-.36a1.63,1.63,0,0,1,.11.42l0-.39a2.36,2.36,0,0,1,0,.38,1.59,1.59,0,0,0,.44,1.06,1.52,1.52,0,0,0,1.06.44,1.5,1.5,0,0,0,1.5-1.5Z"/><path class="cls-2" d="M133.14,73a.57.57,0,0,1,0-.24.36.36,0,0,1,.11-.16.34.34,0,0,1,.17-.08.68.68,0,0,1,.4,0,.34.34,0,0,1,.17.08.36.36,0,0,1,.11.16.57.57,0,0,1,.05.24.52.52,0,0,1-.05.23.36.36,0,0,1-.11.16.46.46,0,0,1-.17.09.68.68,0,0,1-.4,0,.46.46,0,0,1-.17-.09.36.36,0,0,1-.11-.16A.53.53,0,0,1,133.14,73Z"/><path class="cls-2" d="M134.64,73v-.11l0,.39,0-.12-.15.36.06-.1-.23.3.06-.07-.3.24a.27.27,0,0,1,.1-.06l-.35.15.14,0-.4.06h.21l-.4,0,.15,0-.35-.15a.27.27,0,0,1,.1.06l-.3-.24.06.07-.23-.3.06.1-.15-.36a.61.61,0,0,1,0,.13l0-.4a.67.67,0,0,1,0,.2l0-.4a.32.32,0,0,1,0,.14l.15-.36-.06.1.23-.3-.08.08.31-.24-.09.06.35-.16-.15,0,.4-.06a.6.6,0,0,1-.19,0l.4.06a.43.43,0,0,1-.16,0l.35.16-.09-.06.31.24a.6.6,0,0,1-.08-.08l.23.3-.06-.1.15.36,0-.12,0,.4V73a1.15,1.15,0,0,0-.13-.58,1.11,1.11,0,0,0-.31-.48,1.14,1.14,0,0,0-.48-.31,1.08,1.08,0,0,0-.58-.13l-.4,0a1.39,1.39,0,0,0-.66.39l-.24.3a1.57,1.57,0,0,0-.2.76,2.1,2.1,0,0,0,.07.56,1.86,1.86,0,0,0,.1.25,1,1,0,0,0,.12.26,2,2,0,0,0,.63.63,1.57,1.57,0,0,0,.51.23l.1,0,.47.06h.1l.42,0,.07,0a1.57,1.57,0,0,0,.5-.21,2.06,2.06,0,0,0,.65-.63,2.38,2.38,0,0,0,.22-.49.24.24,0,0,0,0-.08,1.81,1.81,0,0,0,0-.23,2.13,2.13,0,0,0,0-.25,2.47,2.47,0,0,0-.06-.56.24.24,0,0,0,0-.08.08.08,0,0,0,0,0,2.71,2.71,0,0,0-.17-.39,1.61,1.61,0,0,0-.32-.42,1.92,1.92,0,0,0-.79-.46,2.91,2.91,0,0,0-.55-.1h-.21a3,3,0,0,0-.49.07l-.05,0-.36.15h0a3.78,3.78,0,0,0-.38.28l-.06.07a2,2,0,0,0-.54,1.4,1.08,1.08,0,0,0,.13.58,1.14,1.14,0,0,0,.31.48,1,1,0,0,0,.48.31,1.15,1.15,0,0,0,.58.13l.4-.06a1.47,1.47,0,0,0,.66-.38l.23-.3A1.48,1.48,0,0,0,134.64,73Z"/><path class="cls-3" d="M109.06,43.88c.63-.08,9.56,0,10.47,0A6.31,6.31,0,0,1,123.7,45a4.48,4.48,0,0,1,1.66,3.59c0,3.67-2.65,4.68-5.83,4.68-.83,0-9.88.06-10.46,0V43.88Zm11.28-7.5a3.67,3.67,0,0,1-1.4.1h-7.1c-.86,0-1.94.06-2.77,0-.1-.36-.11-8.3,0-8.84.63-.08,7.32,0,8.55,0a11.67,11.67,0,0,1,2.7.1A4.7,4.7,0,0,1,123.38,29a4.52,4.52,0,0,1,1.2,3.12,4.21,4.21,0,0,1-4.24,4.3ZM100.42,25.12c0,.44.39.72.62,1a14.67,14.67,0,0,1,1.4,1.89,22.64,22.64,0,0,1-1.38,26.94c-.24.31-.61.5-.64,1v4.83c.95.09,14.24,0,15.58,0,2.48,0,5.32.13,7.76,0,12.17-.91,13.22-15.19,5.65-19.74a9.09,9.09,0,0,0-2.78-1.09c.23-.14,1.09-.36,1.4-.5a9.07,9.07,0,0,0,5.31-7.69,9.82,9.82,0,0,0-4.91-9.81c-3.72-2.13-8.4-1.62-13.23-1.62-1.17,0-14-.07-14.77,0Z"/><path class="cls-4" d="M37.91,60.71c.09-1.89,0-3.94,0-5.85,0-2.4.1-17-.08-17.28a8.58,8.58,0,0,0-.67-.79,23.31,23.31,0,0,1-4.9-11.06c-.44-3.09,0-3.76-.16-5.5l-2.89,0V36.12H10.13V20.23H1.5v40.5l8.63,0v-17H29.22v17Z"/><path class="cls-5" d="M62.66,41.93c.11-.27,1.05-.58,1.32-.71a20.86,20.86,0,0,0,6.09-4.54L72,34.35l.35-.59c-1-.59-6.73-3.1-7-3.48-.33.16-.4.34-.64.63a12.36,12.36,0,0,1-2,1.93,13.57,13.57,0,0,1-3.41,1.87,13.08,13.08,0,1,1,6.09-19.93A27.31,27.31,0,0,0,69,13.09c.63-.32,1.18-.58,1.76-.88s1.32-.6,1.74-.89a20.92,20.92,0,0,0-37.25,3.47,21.18,21.18,0,0,0-.75,13,20.69,20.69,0,0,0,9.87,12.84A20.94,20.94,0,0,0,56.61,43.3a19.89,19.89,0,0,0,5.76-1.37Z"/><path class="cls-6" d="M62.66,41.93A20.95,20.95,0,0,0,92.09,59.65a19.92,19.92,0,0,0,3.42-1.92,22.2,22.2,0,0,0,3.85-3.48,16.27,16.27,0,0,0,1.78-2.39c-.24-.23-4.48-2.2-5.36-2.63a10.46,10.46,0,0,0-1.84-.84,12.43,12.43,0,0,1-3.2,3,13.32,13.32,0,0,1-4.3,1.85,13.12,13.12,0,0,1-9.93-1.78,13.08,13.08,0,0,1-5.42-15c.25-.85.63-1.5.89-2.18l-1.91,2.33A20.86,20.86,0,0,1,64,41.22C63.71,41.35,62.77,41.66,62.66,41.93Z"/><path class="cls-6" d="M65.3,30.28c.3.38,6,2.89,7,3.48a15,15,0,0,1,1.87-2.39,13.07,13.07,0,0,1,18-.67,12.72,12.72,0,0,1,2,2.21c.37-.08,3-1.44,3.61-1.72,1.1-.54,2.42-1.31,3.54-1.75A16.4,16.4,0,0,0,99,26.37c-.32-.3-.55-.58-.87-.88A20.67,20.67,0,0,0,82.9,19.57a20.36,20.36,0,0,0-10.75,3.37,19.75,19.75,0,0,0-5.46,5.16A12.24,12.24,0,0,0,65.3,30.28Z"/><path class="cls-7" d="M4.87,73.4H3.94V71.51H2.45V73.4H1.53V69h.92v1.71H3.94V69h.93Z"/><path class="cls-7" d="M7.61,73.4h-2v-.53l.53-.25V69.79l-.53-.24V69h2v.53l-.53.24v2.83l.53.25Z"/><path class="cls-7" d="M12.06,73.4H10.88L9.16,70.08h0l0,.46c0,.13,0,.27,0,.41s0,.27,0,.39V73.4H8.36V69H9.53l1.72,3.28h0l0-.45v-.2a1.27,1.27,0,0,1,0-.2v-.19a1,1,0,0,1,0-.17V69h.84Z"/><path class="cls-7" d="M16.55,71.17a2.86,2.86,0,0,1-.15,1,1.86,1.86,0,0,1-.44.7,2,2,0,0,1-.7.42,3.06,3.06,0,0,1-.95.14H13.16V69h1.28a2.41,2.41,0,0,1,.87.14,1.71,1.71,0,0,1,.67.41,1.82,1.82,0,0,1,.42.67A2.63,2.63,0,0,1,16.55,71.17Zm-.94,0a2.35,2.35,0,0,0-.08-.63,1.13,1.13,0,0,0-.21-.44.88.88,0,0,0-.34-.26,1.3,1.3,0,0,0-.46-.08h-.43v2.85h.34a1.06,1.06,0,0,0,.88-.36A1.66,1.66,0,0,0,15.61,71.19Z"/><path class="cls-7" d="M20.77,69v2.83a1.91,1.91,0,0,1-.1.64,1.37,1.37,0,0,1-.32.51,1.45,1.45,0,0,1-.52.33,2.19,2.19,0,0,1-1.46,0,1.33,1.33,0,0,1-.52-.33,1.34,1.34,0,0,1-.32-.51,2,2,0,0,1-.1-.66V69h.92v2.75a1.73,1.73,0,0,0,0,.42.82.82,0,0,0,.14.28.6.6,0,0,0,.24.16,1,1,0,0,0,.32.05.66.66,0,0,0,.57-.23,1.09,1.09,0,0,0,.18-.69V69Z"/><path class="cls-7" d="M24.24,72.18a1.29,1.29,0,0,1-.1.53,1,1,0,0,1-.29.4,1.43,1.43,0,0,1-.47.26,2.13,2.13,0,0,1-.65.09,3.08,3.08,0,0,1-.61-.07,1.83,1.83,0,0,1-.54-.2v-.86l.29.13a1.48,1.48,0,0,0,.29.12l.31.08a1.53,1.53,0,0,0,.3,0,1,1,0,0,0,.26,0,.77.77,0,0,0,.18-.1.38.38,0,0,0,.09-.15.37.37,0,0,0,0-.18.38.38,0,0,0-.06-.22.73.73,0,0,0-.14-.18,2.29,2.29,0,0,0-.23-.16l-.3-.16-.31-.18a1.46,1.46,0,0,1-.32-.25,1.36,1.36,0,0,1-.25-.36,1.21,1.21,0,0,1-.1-.52,1.42,1.42,0,0,1,.09-.52,1.15,1.15,0,0,1,.28-.4,1.43,1.43,0,0,1,.44-.24A1.71,1.71,0,0,1,23,69a1.56,1.56,0,0,1,.31,0,1.59,1.59,0,0,1,.3.06,1.71,1.71,0,0,1,.3.09l.3.13-.29.73a1.83,1.83,0,0,0-.26-.11,2,2,0,0,0-.22-.09l-.22,0a.75.75,0,0,0-.21,0,.49.49,0,0,0-.36.12.44.44,0,0,0-.13.33.59.59,0,0,0,0,.2.61.61,0,0,0,.12.16l.21.15.32.18.41.24a1.87,1.87,0,0,1,.33.28,1.08,1.08,0,0,1,.21.34A1.25,1.25,0,0,1,24.24,72.18Z"/><path class="cls-7" d="M26.65,73.4h-.92V69.79h-1.1V69h3.12v.77h-1.1Z"/><path class="cls-7" d="M30.55,73.4l-.3-1.05H28.74l-.3,1.05H27.5L28.93,69h1.13l1.43,4.4ZM30,71.58l-.28-1s0-.1-.06-.18-.05-.17-.07-.27-.06-.2-.08-.3a1.57,1.57,0,0,1-.05-.25s0,.09,0,.15,0,.13,0,.19,0,.14-.05.21l-.05.19c0,.06,0,.11-.05.16l0,.1-.28,1Z"/><path class="cls-7" d="M35.74,73.4H34.56l-1.72-3.32h0l0,.46c0,.13,0,.27,0,.41s0,.27,0,.39V73.4H32V69h1.17l1.72,3.28h0c0-.15,0-.3,0-.45a1.34,1.34,0,0,1,0-.2c0-.06,0-.13,0-.2V69h.83Z"/><path class="cls-7" d="M40.3,69.73a1.06,1.06,0,0,0-.48.1,1,1,0,0,0-.34.3,1.46,1.46,0,0,0-.21.47,2.35,2.35,0,0,0-.07.62,2.9,2.9,0,0,0,.06.62,1.21,1.21,0,0,0,.2.46.87.87,0,0,0,.34.29,1.24,1.24,0,0,0,.5.09,2.46,2.46,0,0,0,.53-.06,4.06,4.06,0,0,0,.58-.17v.78a1.57,1.57,0,0,1-.28.1l-.29.07-.3,0-.33,0a2.16,2.16,0,0,1-.88-.17,1.46,1.46,0,0,1-.61-.45,2,2,0,0,1-.36-.71,3.26,3.26,0,0,1-.12-.92,2.94,2.94,0,0,1,.14-.91,2.13,2.13,0,0,1,.39-.71,1.78,1.78,0,0,1,.64-.47A2.24,2.24,0,0,1,40.3,69,2.46,2.46,0,0,1,41,69a3.35,3.35,0,0,1,.63.22l-.3.76a3.47,3.47,0,0,0-.5-.2A1.4,1.4,0,0,0,40.3,69.73Z"/><path class="cls-7" d="M46.07,71.2a3.68,3.68,0,0,1-.11.92,1.89,1.89,0,0,1-.37.72,1.54,1.54,0,0,1-.61.45,2.31,2.31,0,0,1-1.74,0,1.54,1.54,0,0,1-.61-.45,2,2,0,0,1-.36-.72,3.31,3.31,0,0,1-.12-.92,3.38,3.38,0,0,1,.12-.93,2.07,2.07,0,0,1,.36-.71,1.65,1.65,0,0,1,.61-.45,2.47,2.47,0,0,1,1.75,0,1.64,1.64,0,0,1,.61.46,1.9,1.9,0,0,1,.36.71A3.68,3.68,0,0,1,46.07,71.2Zm-3,0a2.9,2.9,0,0,0,.06.62,1.2,1.2,0,0,0,.19.46.81.81,0,0,0,.31.3,1.06,1.06,0,0,0,.45.1,1.08,1.08,0,0,0,.46-.1.89.89,0,0,0,.31-.3,1.38,1.38,0,0,0,.18-.46,2.9,2.9,0,0,0,.06-.62,3,3,0,0,0-.06-.62,1.47,1.47,0,0,0-.18-.46.89.89,0,0,0-.31-.3,1.06,1.06,0,0,0-.45-.1,1.08,1.08,0,0,0-.46.1.89.89,0,0,0-.31.3,1.27,1.27,0,0,0-.19.46A3,3,0,0,0,43.1,71.2Z"/><path class="cls-7" d="M48.84,69.73a1,1,0,0,0-.47.1.92.92,0,0,0-.35.3,1.46,1.46,0,0,0-.21.47,2.35,2.35,0,0,0-.07.62,2.9,2.9,0,0,0,.06.62,1.39,1.39,0,0,0,.2.46.87.87,0,0,0,.34.29,1.28,1.28,0,0,0,.5.09,2.39,2.39,0,0,0,.53-.06,4.06,4.06,0,0,0,.58-.17v.78a1.57,1.57,0,0,1-.28.1l-.29.07-.3,0-.33,0a2.16,2.16,0,0,1-.88-.17,1.52,1.52,0,0,1-.61-.45,2,2,0,0,1-.36-.71,3.26,3.26,0,0,1-.12-.92,2.94,2.94,0,0,1,.14-.91,2.13,2.13,0,0,1,.39-.71,1.81,1.81,0,0,1,.65-.47,2.19,2.19,0,0,1,.88-.16,2.41,2.41,0,0,1,.65.08,3.35,3.35,0,0,1,.63.22l-.3.76a3.37,3.37,0,0,0-.49-.2A1.46,1.46,0,0,0,48.84,69.73Z"/><path class="cls-7" d="M53.38,73.4l-.3-1.05H51.57l-.3,1.05h-.94L51.76,69h1.13l1.43,4.4Zm-.51-1.82-.28-1s0-.1-.06-.18-.05-.17-.07-.27-.06-.2-.08-.3,0-.18-.05-.25l0,.15c0,.06,0,.13,0,.19a1.6,1.6,0,0,1,0,.21l-.05.19a1.24,1.24,0,0,0,0,.16l0,.1-.28,1Z"/><path class="cls-7" d="M54.5,72.13v-.75h1.61v.75Z"/><path class="cls-7" d="M58.7,69.73a1,1,0,0,0-.47.1,1,1,0,0,0-.34.3,1.13,1.13,0,0,0-.21.47,2.33,2.33,0,0,0-.08.62,2.86,2.86,0,0,0,.07.62,1.21,1.21,0,0,0,.2.46.87.87,0,0,0,.34.29,1.22,1.22,0,0,0,.49.09,2.48,2.48,0,0,0,.54-.06,4.06,4.06,0,0,0,.58-.17v.78a1.9,1.9,0,0,1-.28.1l-.29.07-.3,0-.33,0a2.16,2.16,0,0,1-.88-.17,1.46,1.46,0,0,1-.61-.45,1.71,1.71,0,0,1-.36-.71,3.26,3.26,0,0,1-.12-.92,2.94,2.94,0,0,1,.13-.91,2.15,2.15,0,0,1,.4-.71,1.78,1.78,0,0,1,.64-.47A2.23,2.23,0,0,1,58.7,69a2.48,2.48,0,0,1,.66.08,3.35,3.35,0,0,1,.63.22l-.3.76a3.47,3.47,0,0,0-.5-.2A1.41,1.41,0,0,0,58.7,69.73Z"/><path class="cls-7" d="M64.36,71.2a3.26,3.26,0,0,1-.12.92,2,2,0,0,1-.36.72,1.62,1.62,0,0,1-.61.45,2.34,2.34,0,0,1-1.75,0,1.62,1.62,0,0,1-.61-.45,2,2,0,0,1-.36-.72,3.31,3.31,0,0,1-.12-.92,3.38,3.38,0,0,1,.12-.93,2.07,2.07,0,0,1,.36-.71,1.77,1.77,0,0,1,.62-.45,2.45,2.45,0,0,1,1.74,0,1.57,1.57,0,0,1,.61.46,1.9,1.9,0,0,1,.36.71A3.26,3.26,0,0,1,64.36,71.2Zm-3,0a2.9,2.9,0,0,0,.06.62,1.38,1.38,0,0,0,.18.46.91.91,0,0,0,.32.3,1,1,0,0,0,.45.1,1,1,0,0,0,.45-.1.81.81,0,0,0,.31-.3,1.38,1.38,0,0,0,.18-.46,2.9,2.9,0,0,0,.06-.62,3,3,0,0,0-.06-.62,1.47,1.47,0,0,0-.18-.46.81.81,0,0,0-.31-.3,1,1,0,0,0-.45-.1,1.06,1.06,0,0,0-.45.1.91.91,0,0,0-.32.3,1.47,1.47,0,0,0-.18.46A3,3,0,0,0,61.39,71.2Z"/><path class="cls-7" d="M65.26,73.4V69h.93v3.61h1.6v.77Z"/><path class="cls-7" d="M71,73.4l-.3-1.05H69.23l-.3,1.05H68L69.42,69h1.13L72,73.4Zm-.51-1.82-.28-1s0-.1-.06-.18,0-.17-.07-.27-.06-.2-.08-.3,0-.18-.05-.25l0,.15c0,.06,0,.13,0,.19a1.6,1.6,0,0,1,0,.21l0,.19a1.24,1.24,0,0,0,0,.16l0,.1-.28,1Z"/><path class="cls-7" d="M74.12,69h1.29a3.88,3.88,0,0,1,.72.06,1.45,1.45,0,0,1,.52.19.81.81,0,0,1,.32.34,1.15,1.15,0,0,1,.1.52,1.22,1.22,0,0,1,0,.34,1.11,1.11,0,0,1-.13.29.8.8,0,0,1-.21.2.61.61,0,0,1-.29.11v0a1.63,1.63,0,0,1,.31.11.83.83,0,0,1,.25.18.86.86,0,0,1,.16.3,1.42,1.42,0,0,1,.06.44,1.29,1.29,0,0,1-.1.53,1.08,1.08,0,0,1-.3.4,1.37,1.37,0,0,1-.48.25,2,2,0,0,1-.63.09H74.12Zm.93,1.73h.48a1.12,1.12,0,0,0,.29,0,.42.42,0,0,0,.19-.09.36.36,0,0,0,.11-.16.73.73,0,0,0,0-.22.39.39,0,0,0-.16-.36.9.9,0,0,0-.5-.11h-.44Zm0,.74v1.14h.55a.87.87,0,0,0,.3,0,.48.48,0,0,0,.2-.12.37.37,0,0,0,.11-.19.66.66,0,0,0,0-.25.54.54,0,0,0,0-.22.39.39,0,0,0-.11-.17.42.42,0,0,0-.21-.11,1,1,0,0,0-.32,0Z"/><path class="cls-7" d="M80.58,73.4H78.06V69h2.52v.76H79v1h1.48v.76H79v1.13h1.59Z"/><path class="cls-7" d="M83.75,69h.93L83.32,73.4h-1L80.94,69h.94l.74,2.63s0,.09,0,.17,0,.17,0,.27a2.5,2.5,0,0,1,0,.29c0,.09,0,.17,0,.24s0-.15,0-.24l.06-.29c0-.1,0-.18,0-.26l0-.18Z"/><path class="cls-7" d="M87.76,73.4H85.24V69h2.52v.76h-1.6v1h1.49v.76H86.16v1.13h1.6Z"/><path class="cls-7" d="M89.6,71.72V73.4h-.93V69h1.2a2,2,0,0,1,1.24.32,1.2,1.2,0,0,1,.4,1,1.31,1.31,0,0,1-.06.41,1.07,1.07,0,0,1-.16.32,1.1,1.1,0,0,1-.23.25l-.27.18.59,1,.22.35.19.31c.06.09.1.16.14.21l0,.09H91l-1-1.68Zm0-.76h.25a.8.8,0,0,0,.55-.15.57.57,0,0,0,.17-.46.52.52,0,0,0-.18-.44.93.93,0,0,0-.56-.13H89.6Z"/><path class="cls-7" d="M95,73.4l-.3-1.05H93.22l-.3,1.05H92L93.4,69h1.14L96,73.4Zm-.52-1.82-.28-1,0-.18c0-.08-.05-.17-.08-.27s0-.2-.07-.3a1.57,1.57,0,0,1,0-.25s0,.09,0,.15a1.29,1.29,0,0,1,0,.19c0,.07,0,.14-.05.21l0,.19c0,.06,0,.11,0,.16l0,.1-.27,1Z"/><path class="cls-7" d="M98.12,70.94h1.74v2.27l-.35.1-.37.08-.4,0-.44,0a2.33,2.33,0,0,1-.87-.15,1.68,1.68,0,0,1-.64-.43,2,2,0,0,1-.39-.71,3.15,3.15,0,0,1-.14-1,2.75,2.75,0,0,1,.15-.93,2,2,0,0,1,.44-.71,2.2,2.2,0,0,1,.72-.45,3,3,0,0,1,1-.15,3.23,3.23,0,0,1,.69.07,3.63,3.63,0,0,1,.61.2l-.31.74a2.3,2.3,0,0,0-1-.24,1.33,1.33,0,0,0-.54.1,1.3,1.3,0,0,0-.69.78,1.91,1.91,0,0,0-.09.61,2.68,2.68,0,0,0,.06.59,1.3,1.3,0,0,0,.21.46,1,1,0,0,0,.35.31,1.18,1.18,0,0,0,.52.1h.33l.26,0v-.91h-.83Z"/><path class="cls-7" d="M103.42,73.4H100.9V69h2.52v.76h-1.59v1h1.48v.76h-1.48v1.13h1.59Z"/><path class="cls-7" d="M106.73,72.18a1.29,1.29,0,0,1-.1.53,1.06,1.06,0,0,1-.29.4,1.38,1.38,0,0,1-.48.26,2.06,2.06,0,0,1-.64.09,3.08,3.08,0,0,1-.61-.07,2,2,0,0,1-.55-.2v-.86l.29.13a1.88,1.88,0,0,0,.3.12l.3.08a1.63,1.63,0,0,0,.31,0,1,1,0,0,0,.26,0,.55.55,0,0,0,.17-.1.31.31,0,0,0,.1-.15.52.52,0,0,0,0-.18.38.38,0,0,0,0-.22.6.6,0,0,0-.15-.18,1.4,1.4,0,0,0-.22-.16l-.3-.16-.31-.18a1.46,1.46,0,0,1-.32-.25,1.16,1.16,0,0,1-.25-.36,1.21,1.21,0,0,1-.11-.52,1.42,1.42,0,0,1,.1-.52,1.15,1.15,0,0,1,.28-.4,1.37,1.37,0,0,1,.43-.24,1.77,1.77,0,0,1,.58-.08,1.62,1.62,0,0,1,.31,0,1.59,1.59,0,0,1,.3.06,1.61,1.61,0,0,1,.29.09l.31.13-.3.73a1.74,1.74,0,0,0-.25-.11l-.23-.09-.21,0a.78.78,0,0,0-.22,0,.48.48,0,0,0-.35.12.44.44,0,0,0-.13.33.42.42,0,0,0,0,.2.36.36,0,0,0,.12.16,1,1,0,0,0,.21.15l.32.18.41.24a2.31,2.31,0,0,1,.33.28,1.08,1.08,0,0,1,.21.34A1.25,1.25,0,0,1,106.73,72.18Z"/><path class="cls-7" d="M112,70.38a1.73,1.73,0,0,1-.09.56,1.1,1.1,0,0,1-.28.46,1.53,1.53,0,0,1-.53.32,2.29,2.29,0,0,1-.8.12h-.21V73.4h-.93V69h1.21a2.55,2.55,0,0,1,.73.09,1.53,1.53,0,0,1,.51.27,1.06,1.06,0,0,1,.29.43A1.48,1.48,0,0,1,112,70.38Zm-1.91.7h.18a.9.9,0,0,0,.59-.16.6.6,0,0,0,.2-.5.59.59,0,0,0-.18-.48.8.8,0,0,0-.56-.16h-.23Z"/><path class="cls-7" d="M115.06,69H116l-1.37,4.38h-1L112.26,69h.93l.75,2.63,0,.17c0,.08,0,.17,0,.27l.06.29c0,.09,0,.17,0,.24s0-.15,0-.24l.06-.29c0-.1,0-.18,0-.26l0-.18Z"/><path class="cls-7" d="M118.14,73.4h-.92V69.79h-1.1V69h3.12v.77h-1.1Z"/><path class="cls-7" d="M119.41,73a.57.57,0,0,1,0-.24.36.36,0,0,1,.11-.16.34.34,0,0,1,.17-.08.68.68,0,0,1,.4,0,.38.38,0,0,1,.17.08.46.46,0,0,1,.11.16.57.57,0,0,1,0,.24.53.53,0,0,1,0,.23.46.46,0,0,1-.11.16.56.56,0,0,1-.17.09.68.68,0,0,1-.4,0,.46.46,0,0,1-.17-.09.36.36,0,0,1-.11-.16A.53.53,0,0,1,119.41,73Z"/><path class="cls-7" d="M123,73.4V69h.93v3.61h1.59v.77Z"/><path class="cls-7" d="M127.46,73.4h-.93V69.79h-1.1V69h3.12v.77h-1.09Z"/><path class="cls-7" d="M132.61,71.17a2.86,2.86,0,0,1-.15,1,1.84,1.84,0,0,1-.43.7,2.09,2.09,0,0,1-.71.42,3,3,0,0,1-.94.14h-1.15V69h1.28a2.41,2.41,0,0,1,.87.14,1.61,1.61,0,0,1,.66.41,1.72,1.72,0,0,1,.43.67A2.89,2.89,0,0,1,132.61,71.17Zm-.94,0a2.38,2.38,0,0,0-.07-.63,1.29,1.29,0,0,0-.21-.44,1.06,1.06,0,0,0-.34-.26,1.36,1.36,0,0,0-.47-.08h-.42v2.85h.34a1.08,1.08,0,0,0,.88-.36A1.72,1.72,0,0,0,131.67,71.19Z"/><path class="cls-7" d="M133.14,73a.57.57,0,0,1,0-.24.36.36,0,0,1,.11-.16.34.34,0,0,1,.17-.08.68.68,0,0,1,.4,0,.34.34,0,0,1,.17.08.36.36,0,0,1,.11.16.57.57,0,0,1,.05.24.52.52,0,0,1-.05.23.36.36,0,0,1-.11.16.46.46,0,0,1-.17.09.68.68,0,0,1-.4,0,.46.46,0,0,1-.17-.09.36.36,0,0,1-.11-.16A.53.53,0,0,1,133.14,73Z"/></g></g></svg>