<svg xmlns="http://www.w3.org/2000/svg" viewBox="0 0 71.99 75.01"><defs><style>.cls-1{fill:#fff;}.cls-2{fill:#062f62;}</style></defs><g id="Layer_2" data-name="Layer 2"><g id="svg4403"><g id="_062f62ff" data-name="#062f62ff"><g id="path6"><path class="cls-1" d="M13.46,43.21,36.65,2.61q-2.16,13.89-4.34,27.8c0,.09-.1.15-.16.22L2.54,62.33Q8,52.76,13.46,43.21Z" transform="translate(-1.05 -1.09)"/><path class="cls-1" d="M14.75,44,37.94,3.36,35.2,2.21,33.07,15.86c-.35,2.28-.71,4.56-1.06,6.83l-.54,3.42a26.27,26.27,0,0,1-.53,3.41l.08,0q.33.08-.27.39c-.15.19-.34.37-.51.55l-1.19,1.27L26.67,34.3,21.9,39.4q-4.75,5.12-9.53,10.21L1.48,61.27l2.36,1.81Q9.29,53.53,14.75,44a1.5,1.5,0,0,0-2.59-1.52Q6.71,52,1.25,61.57C.42,63,2.42,64.66,3.6,63.39l19.57-21c3.29-3.52,6.66-7,9.87-10.57A3.71,3.71,0,0,0,34,29.58l.57-3.65c.35-2.28.71-4.55,1.06-6.83L38.1,3c.24-1.58-1.84-2.75-2.75-1.16L12.16,42.45A1.5,1.5,0,0,0,14.75,44Z" transform="translate(-1.05 -1.09)"/></g><g id="path8"><path class="cls-1" d="M37.42,2.6,71.55,62.34Q64.76,55.08,58,47.81L41.81,30.53c-.06-.07-.05-.17-.07-.26Z" transform="translate(-1.05 -1.09)"/><path class="cls-1" d="M36.12,3.36Q49.43,26.63,62.71,49.89L70.26,63.1l2.35-1.82L53.47,40.81,44,30.73a11.23,11.23,0,0,1-.85-.86,5.77,5.77,0,0,1-.27-1.7l-.57-3.64c-.35-2.26-.7-4.53-1.06-6.79Q40.07,10,38.87,2.2C38.57.3,35.68,1.11,36,3q1.11,7,2.2,14.08c.36,2.26.71,4.53,1.06,6.79a61.7,61.7,0,0,0,1.1,6.93c.26.95,1.28,1.71,1.93,2.41l2.52,2.7,4.89,5.22,9.61,10.28q5.61,6,11.21,12a1.51,1.51,0,0,0,2.36-1.82Q59.55,38.32,46.26,15.05q-3.76-6.6-7.55-13.2A1.5,1.5,0,0,0,36.12,3.36Z" transform="translate(-1.05 -1.09)"/></g><g id="path10"><path class="cls-1" d="M20.87,45c.29-.32.57-.66.87-1h5.78q-5,9.15-10,18.29H5.44Q13.17,53.68,20.87,45Z" transform="translate(-1.05 -1.09)"/><path class="cls-1" d="M21.93,46.07c.29-.32.57-.65.87-1l-1.06.44h5.78l-1.3-2.26q-5,9.15-10,18.3l1.29-.75H5.44L6.5,63.39q7.73-8.66,15.43-17.32c1.28-1.44-.84-3.57-2.12-2.12Q12.09,52.61,4.38,61.27a1.52,1.52,0,0,0,1.06,2.56H17.51a1.5,1.5,0,0,0,1.3-.74q5-9.15,10-18.3a1.51,1.51,0,0,0-1.29-2.25H23.19a5.52,5.52,0,0,0-2,.13A4.45,4.45,0,0,0,19.81,44C18.52,45.38,20.63,47.51,21.93,46.07Z" transform="translate(-1.05 -1.09)"/></g><g id="path12"><path class="cls-1" d="M29.42,44H39.5q.45,3,.89,6.09H37.06v12.2H26.5c.51-1.76,1.05-3.5,1.57-5.25l2.07-6.93H26.73Z" transform="translate(-1.05 -1.09)"/><path class="cls-1" d="M29.42,45.54H39.5l-1.45-1.1.9,6.08,1.44-1.89H37.06a1.52,1.52,0,0,0-1.5,1.5v12.2l1.5-1.5H26.5L28,62.73c1.19-4.06,2.42-8.11,3.64-12.17a1.52,1.52,0,0,0-1.45-1.9H26.73L28,50.92q1.34-3.06,2.69-6.13a1.56,1.56,0,0,0-.54-2,1.51,1.51,0,0,0-2.05.54q-1.35,3.06-2.69,6.13a1.51,1.51,0,0,0,1.29,2.25h3.41l-1.45-1.9c-1.22,4.06-2.45,8.11-3.63,12.18a1.51,1.51,0,0,0,1.44,1.9H37.06a1.52,1.52,0,0,0,1.5-1.5V50.13l-1.5,1.5h3.33a1.53,1.53,0,0,0,1.45-1.9q-.45-3-.89-6.09a1.51,1.51,0,0,0-1.45-1.1H29.42A1.5,1.5,0,0,0,29.42,45.54Z" transform="translate(-1.05 -1.09)"/></g><g id="path14"><path class="cls-1" d="M42.85,44.13A3.19,3.19,0,0,1,44,44h8.37c1.65,1.83,3.28,3.68,4.93,5.52H50.47a.67.67,0,0,0-.57.95c.69,1.3,1.39,2.59,2.08,3.88a1.77,1.77,0,0,0,1.56,1h9q3.08,3.45,6.13,6.92H48.23a5.42,5.42,0,0,1-.9,0A2.29,2.29,0,0,1,45.64,61a5.31,5.31,0,0,1-.29-1Q43.6,53,41.83,46A1.63,1.63,0,0,1,42.85,44.13Z" transform="translate(-1.05 -1.09)"/><path class="cls-1" d="M43.25,45.58a20.67,20.67,0,0,1,4.45,0h4.67l-1.06-.44c1.65,1.83,3.28,3.68,4.92,5.52l1.07-2.56H53.4a11.57,11.57,0,0,0-3.58.12c-2.75,1-.8,3.88.06,5.46a6.86,6.86,0,0,0,1.83,2.66,4.89,4.89,0,0,0,3,.61c2.59,0,5.18,0,7.77,0l-1.06-.43q3.07,3.44,6.13,6.91l1.06-2.56H49c-.57,0-1.42.19-1.86-.26s-.43-1.35-.56-1.83L45.39,54l-1.17-4.71c-.18-.7-.35-1.41-.53-2.11-.13-.51-.65-1.52-.09-1.8,1.74-.83.22-3.42-1.51-2.59a3.21,3.21,0,0,0-1.64,3.78c.41,2,1,3.92,1.46,5.87l1.41,5.64c.4,1.59.56,3.52,1.81,4.7s3.34,1,5.09,1h18.4a1.53,1.53,0,0,0,1.06-2.57l-5.16-5.82a6.13,6.13,0,0,0-1.27-1.32,3.3,3.3,0,0,0-1.65-.21H55.67a8.53,8.53,0,0,1-1.89,0c-.86-.23-1.35-1.85-1.78-2.65-.1-.18-.29-.75-.46-.86-.12-.36-.24-.28-.35.22-.36.37-.35.51,0,.44a6.07,6.07,0,0,0,1.95,0H57.3a1.52,1.52,0,0,0,1.06-2.56l-3.28-3.69c-.49-.55-1-1.13-1.48-1.65a2.28,2.28,0,0,0-2-.62H47a20.56,20.56,0,0,0-4.51.14C40.57,43.13,41.37,46,43.25,45.58Z" transform="translate(-1.05 -1.09)"/></g><g id="path16"><path class="cls-1" d="M20.37,67.54a3,3,0,0,1,2.28-.77,2.64,2.64,0,0,1,1.42.56c.13.1.31.21.46.1s.14-.47.33-.63c.05,0,.14.06.13.14,0,.85,0,1.7,0,2.55a1,1,0,0,1-.05.34c-.06,0-.14,0-.16-.09a9.52,9.52,0,0,0-.44-1.2,4,4,0,0,0-.6-1A1.74,1.74,0,0,0,22.65,67a1.68,1.68,0,0,0-1.56.6,3.06,3.06,0,0,0-.44,1.18,15.71,15.71,0,0,0-.17,1.94,6.25,6.25,0,0,0,.3,2.39,1.87,1.87,0,0,0,.85,1,2.16,2.16,0,0,0,1.46.11,2.12,2.12,0,0,0,1.36-1,3.39,3.39,0,0,0,.41-1.59.76.76,0,0,1,.3,0c0,.06.05.12,0,.18A4.68,4.68,0,0,1,25,73a2.26,2.26,0,0,1-1.61,1.39,3.43,3.43,0,0,1-1.56,0,3.93,3.93,0,0,1-1.63-.85,1.75,1.75,0,0,1-.42-.48,7.11,7.11,0,0,1-.53-1,4,4,0,0,1,0-2.88A4.75,4.75,0,0,1,20.37,67.54Z" transform="translate(-1.05 -1.09)"/><path class="cls-1" d="M21.43,68.6c-.26.22,0,0,.09-.06l.32-.18c-.17.1-.1,0,.05,0l.3-.09c.32-.09-.22,0,.09,0l.37,0c-.21,0-.1,0,.05,0l.18.06-.06,0a2.82,2.82,0,0,0,1.82.63,1.73,1.73,0,0,0,1.25-.83,3,3,0,0,0,.23-.52c.1-.3.17-.17-.2.26l-1.82.23-.19-.15-.39-.67c-.05-.24,0-.15,0,0v.3c0,.25,0,.49,0,.74s0,.45,0,.68,0,.2,0,.3a1.34,1.34,0,0,1,0,.2c0,.12,0,.08,0-.1l1.85-1,.23.11.54.53c.17.28.06.15,0,0l-.09-.27c-.05-.16-.11-.32-.17-.47a6.86,6.86,0,0,0-.61-1.21,3.62,3.62,0,0,0-2.08-1.56,3.46,3.46,0,0,0-2.5.36,3.36,3.36,0,0,0-1.47,2.19A13.22,13.22,0,0,0,19,70.62,8.93,8.93,0,0,0,19.17,73a3.82,3.82,0,0,0,1.2,2.09,3.3,3.3,0,0,0,2.67.68,3.57,3.57,0,0,0,2.34-1.23,4.85,4.85,0,0,0,1-2.84l-1.11,1.45h-.49l-1.05-1q0-.39,0-.09l0-.13c0,.13-.05.26-.08.39s-.07.35-.12.38l.07-.16a1.28,1.28,0,0,1-.11.2c-.13.25.19-.15,0,0,0,0-.27.24-.1.1s-.14.07-.17.1.26-.07,0,0L22.8,73c-.41.1.26,0-.17,0h-.42c.27,0-.07,0-.15-.05l-.35-.11c.2.07.09,0,0,0l-.33-.19-.15-.11.06,0L21,72.38c-.22-.2.07.15-.07-.11s-.14-.24-.21-.36-.21-.42-.09-.15a2.93,2.93,0,0,1-.21-.77c0,.22,0,.07,0-.07v-.4c0-.13,0-.28,0-.07,0-.13,0-.26.09-.39s.09-.25.13-.38c-.11.32,0,0,.05-.09a6,6,0,0,1,.38-.64c-.11.17-.06.07,0,0a3,3,0,0,1,.3-.32,1.52,1.52,0,0,0,0-2.12,1.54,1.54,0,0,0-2.13,0,6,6,0,0,0-1.86,4.24,5.43,5.43,0,0,0,2.3,4.46,4.83,4.83,0,0,0,4.83.37A3.68,3.68,0,0,0,26.16,74a4.67,4.67,0,0,0,.41-1.21,3,3,0,0,0,0-1.5,1.49,1.49,0,0,0-1-1,3.38,3.38,0,0,0-1.1,0,1.51,1.51,0,0,0-1.1,1.45c0,.08-.1.6,0,.23a4.54,4.54,0,0,1-.12.5c.1-.33,0,.15-.13.2.12-.15.13-.16,0,0a1.29,1.29,0,0,1-.17.16l.12-.1-.19.12,0,0-.22.06c-.17,0-.16,0,0,0h-.5c.2,0,.21,0,0,0q.24.12,0,0c.13.12.15.14.07.06-.24-.28,0,.17-.09-.09l-.11-.2c.08.19.08.19,0,0s-.1-.35-.14-.52,0-.18,0,0l0-.27c0-.14,0-.27,0-.41,0-.37,0-.75,0-1.12,0-.2,0-.4,0-.6l0-.3c0-.18,0-.2,0,0a3.88,3.88,0,0,1,.23-.89c-.07.17-.07.17,0,0-.12.14-.12.15,0,0-.16.11-.18.13,0,0s.12-.08-.06,0a.75.75,0,0,1,.32-.08c-.22,0-.24,0-.07,0s.14,0-.07,0a.86.86,0,0,1,.23.06q-.26-.12,0,0c.13.09.13.09,0,0,.06,0,.11.11.17.17s.11.12,0,0l.13.21.18.33c.07.15.08.15,0,0,0,.09.07.18.1.27l.18.54a1.81,1.81,0,0,0,1.25,1.28,1.52,1.52,0,0,0,1.85-1A8.81,8.81,0,0,0,26.5,68c0-.94.08-1.95-.89-2.49a1.51,1.51,0,0,0-1.81.24,2.1,2.1,0,0,0-.49.81.85.85,0,0,0-.06.17c-.11.33,0,.15.43-.54l.76-.21c.45,0,.61.22.34,0l-.27-.18a4.34,4.34,0,0,0-.83-.36,3.83,3.83,0,0,0-1.46-.2,5,5,0,0,0-2.92,1.22,1.52,1.52,0,0,0,0,2.12A1.55,1.55,0,0,0,21.43,68.6Z" transform="translate(-1.05 -1.09)"/></g><g id="path18"><path class="cls-1" d="M66.91,66.83a2.58,2.58,0,0,1,.48,0,.21.21,0,0,1,.16.22q0,3.2,0,6.39c0,.22,0,.49.19.63a2,2,0,0,0,.84.1c0,.06.06.18,0,.19l-1.93.1c-.12,0-.27,0-.3-.16s0-.43,0-.65l-.06-.08a3.41,3.41,0,0,1-.45.48,1.94,1.94,0,0,1-1.64.4A2.31,2.31,0,0,1,62.7,73.3a3.1,3.1,0,0,1-.27-2.42,2.8,2.8,0,0,1,1.31-1.63,1.81,1.81,0,0,1,2.53.58.65.65,0,0,0,0-.34c0-.61,0-1.21,0-1.82a.48.48,0,0,0-.31-.45,2.83,2.83,0,0,0-.82-.09c0-.07,0-.16.07-.18l1.67-.12m-2.23,2.42a1.16,1.16,0,0,0-.69.68,4.75,4.75,0,0,0-.29,1.76,6.54,6.54,0,0,0,.12,1.25,1.82,1.82,0,0,0,.42.91,1,1,0,0,0,1,.27,1.08,1.08,0,0,0,.56-.42,3,3,0,0,0,.47-1.39,5,5,0,0,0-.17-2,1.9,1.9,0,0,0-.61-.93A.92.92,0,0,0,64.68,69.25Z" transform="translate(-1.05 -1.09)"/><path class="cls-1" d="M66.91,68.33c.16,0,.32,0,.48,0l-.76-.2.09,0-.54-.54q-.15-.72-.12-.27V73a4.52,4.52,0,0,0,.06,1.16,1.89,1.89,0,0,0,1.23,1.37,3.47,3.47,0,0,0,1.24.16L67.3,74.9l0,0-.21-.75v.06l.2-.76,0,0,.9-.69c.24,0,.25,0,0,0l-.3,0-.45,0-.45,0h-.29c-.32,0-.21,0,.35.14l.54.53,0-.08.2.76a2.51,2.51,0,0,0-.27-1.48,1.6,1.6,0,0,0-1.1-.72,1.44,1.44,0,0,0-1.26.41,3.41,3.41,0,0,1-.45.48c.25-.21,0-.06,0,0s.25-.09,0,0,.28,0-.06,0a.87.87,0,0,1-.23,0c.19,0,.23,0,.12,0l-.16,0s.27.15,0,0l-.14-.09c-.09-.06-.06,0,.08.08l-.16-.15-.12-.13c-.07-.08,0,0,.07.09a1.57,1.57,0,0,1-.12-.19c0-.07-.15-.39-.06-.09,0-.08-.06-.16-.08-.24s-.06-.24-.08-.37c0,.21,0,.12,0,0s0-.2,0-.31c0,.21,0,.13,0,0a1.11,1.11,0,0,1,.08-.29s-.14.28,0,0c0-.09.09-.16.14-.25s-.12.11,0,0,.13-.14.19-.2.29-.2.11-.1l.13-.07c.23-.14-.13,0,0,0s.2-.09.3-.07c-.19,0-.17,0,0,0s-.28,0,0,0l-.14-.07a.8.8,0,0,1,.16.08c.12.06-.14-.17,0,0s.27.34.07.06a1.51,1.51,0,0,0,2.74-.36,4.5,4.5,0,0,0,.09-1.42c0-.41,0-.83,0-1.23a2.08,2.08,0,0,0-1-1.62,3.52,3.52,0,0,0-1.67-.33l1.5,1.5,0,.26-.69.89,0,0-.75.21,1.67-.12a1.5,1.5,0,0,0,0-3l-1.47.1a2,2,0,0,0-1.17.38,1.59,1.59,0,0,0-.6,1.32,1.54,1.54,0,0,0,1.5,1.5c.11,0,.24,0,.35,0s.09,0-.06,0l-.37-.24-.29-.71v1.82c0,.17,0,.15,0-.06l2.74-.36A3.31,3.31,0,0,0,63,68a4.41,4.41,0,0,0-2.18,3.73,4.3,4.3,0,0,0,2.08,3.84,3.56,3.56,0,0,0,2.48.35A3.68,3.68,0,0,0,67.3,74.6L65,74.3l.06.08-.21-.76c0,.22,0,.43,0,.65a1.75,1.75,0,0,0,.78,1.38,2.73,2.73,0,0,0,1.76.24A8.71,8.71,0,0,0,69,75.77a1.56,1.56,0,0,0,1-.94,1.68,1.68,0,0,0-.11-1.45,1.5,1.5,0,0,0-1.3-.74s-.36,0-.36,0l.15,0a.9.9,0,0,1-.23-.08l.66.39a.92.92,0,0,1,.24.63,1.34,1.34,0,0,1,0-.2V67.33a2,2,0,0,0-.52-1.54,1.9,1.9,0,0,0-1.63-.46,1.53,1.53,0,0,0-1.5,1.5,1.51,1.51,0,0,0,1.5,1.5Z" transform="translate(-1.05 -1.09)"/><path class="cls-1" d="M64.28,67.8a2.7,2.7,0,0,0-1.66,1.56,5.56,5.56,0,0,0-.4,1.9,4.93,4.93,0,0,0,.93,3.62,2.47,2.47,0,0,0,2,.77,2.64,2.64,0,0,0,2-1.26,4.26,4.26,0,0,0,.59-1.8,7,7,0,0,0,0-2,4.15,4.15,0,0,0-.87-2,2.51,2.51,0,0,0-2.55-.79,1.5,1.5,0,0,0,.8,2.89l.15,0-.4.06a1,1,0,0,1,.24,0l-.4-.06a1.41,1.41,0,0,1,.22.06l-.36-.15a1.39,1.39,0,0,1,.21.11l-.31-.23a1.34,1.34,0,0,1,.27.26l-.23-.3a1.89,1.89,0,0,1,.26.46l-.15-.36a4.3,4.3,0,0,1,.24.92l0-.4a5.63,5.63,0,0,1,0,1.36l.06-.4a3.91,3.91,0,0,1-.22.88l.15-.36a2.2,2.2,0,0,1-.28.49l.24-.31a1.26,1.26,0,0,1-.2.2l.3-.23a1.23,1.23,0,0,1-.25.14l.36-.15a.73.73,0,0,1-.2,0l.4,0h-.28l.4,0a.9.9,0,0,1-.27-.07l.36.15a1.49,1.49,0,0,1-.24-.14l.31.24a1.94,1.94,0,0,1-.2-.21l.23.3a2.21,2.21,0,0,1-.18-.34l.15.36a3.75,3.75,0,0,1-.2-.8l0,.4a7.87,7.87,0,0,1,0-1.75l-.06.39a4,4,0,0,1,.24-.9l-.15.36a1.92,1.92,0,0,1,.18-.31l-.24.3a1.89,1.89,0,0,1,.2-.2l-.3.23a1,1,0,0,1,.24-.14l-.36.15.07,0a1.5,1.5,0,1,0-.8-2.89Z" transform="translate(-1.05 -1.09)"/></g><g id="path20"><path class="cls-1" d="M37.41,66.9a.73.73,0,1,1-.53.77A.74.74,0,0,1,37.41,66.9Z" transform="translate(-1.05 -1.09)"/><path class="cls-1" d="M37.81,68.35l.1,0-.4,0h.18l-.4,0,.2,0-.36-.15.17.1L37,68.09l.15.15-.24-.31a1.19,1.19,0,0,1,.09.15l-.16-.36a.49.49,0,0,1,.05.16l-.05-.39a3.18,3.18,0,0,0,.06.43l-.06-.39a.54.54,0,0,1,0,.18l.06-.4a1.09,1.09,0,0,1,0,.17l.15-.36a1,1,0,0,1-.1.17l.23-.3a.62.62,0,0,1-.14.14l.31-.24-.16.1.36-.16a.48.48,0,0,1-.17,0l.4,0a.81.81,0,0,1-.22,0l.4,0-.17,0,.35.15-.17-.1.31.23L38.09,67l.24.3a.59.59,0,0,1-.1-.17l.15.36a1.09,1.09,0,0,1-.05-.17l.05.39a1.33,1.33,0,0,1,0-.2l-.05.4a.61.61,0,0,1,.05-.18l-.16.36a.62.62,0,0,1,.11-.17l-.24.3a.8.8,0,0,1,.13-.13l-.3.24.15-.1-.35.15.09,0a1.72,1.72,0,0,0,.9-.69,1.12,1.12,0,0,0,.18-.56,1.18,1.18,0,0,0,0-.59l-.15-.36a1.4,1.4,0,0,0-.54-.54l-.36-.15a1.55,1.55,0,0,0-.8,0,2.17,2.17,0,0,0-.94.54l-.07.06c-.1.11-.19.24-.28.36l-.09.16a2.82,2.82,0,0,0-.19.51,2.09,2.09,0,0,0-.06.56,2.27,2.27,0,0,0,.29,1.06,2.33,2.33,0,0,0,.75.78l.15.09a2.23,2.23,0,0,0,.51.19,2.36,2.36,0,0,0,1.12,0,2.51,2.51,0,0,0,.94-.53,2.42,2.42,0,0,0,.35-.44,2.38,2.38,0,0,0,.24-.51,2.43,2.43,0,0,0,.1-.58,2.76,2.76,0,0,0,0-.59l0,.39a2.65,2.65,0,0,0-.09-.54,3.12,3.12,0,0,0-.18-.42.16.16,0,0,0,0-.07,2.42,2.42,0,0,0-.27-.36l0-.06a.46.46,0,0,0-.07-.07l-.36-.27a1.94,1.94,0,0,0-.49-.22l-.16,0a3.62,3.62,0,0,0-.46-.06h-.09a2.42,2.42,0,0,0-.46.06l-.1,0a1.06,1.06,0,0,0-.51.27,1,1,0,0,0-.38.42,1.12,1.12,0,0,0-.18.56,1.08,1.08,0,0,0,0,.59l.15.36a1.4,1.4,0,0,0,.54.54l.35.15A1.55,1.55,0,0,0,37.81,68.35Z" transform="translate(-1.05 -1.09)"/></g><g id="path22"><path class="cls-1" d="M51.56,66.9a.73.73,0,1,1-.54.61A.73.73,0,0,1,51.56,66.9Z" transform="translate(-1.05 -1.09)"/><path class="cls-1" d="M52,68.35l.1,0-.4,0h.17l-.4,0a.61.61,0,0,1,.18,0l-.36-.15a.52.52,0,0,1,.18.1l-.3-.23a.53.53,0,0,1,.13.13L51,67.92l.1.17L51,67.73a.94.94,0,0,1,0,.16l-.05-.4a.81.81,0,0,1,0,.22l.05-.4a1,1,0,0,1,0,.17l.15-.36-.1.17.24-.31-.14.14.3-.24a.54.54,0,0,1-.18.11l.36-.15-.17,0,.4-.06a.61.61,0,0,1-.19,0l.4.06a.6.6,0,0,1-.19-.06l.35.15a.6.6,0,0,1-.15-.09l.3.24a.86.86,0,0,1-.13-.14l.23.3a1,1,0,0,1-.1-.17l.15.36a1,1,0,0,1,0-.17l.05.4a.54.54,0,0,1,0-.18l-.05.4.06-.44-.06.4a.75.75,0,0,1,.05-.16l-.16.36a.86.86,0,0,1,.1-.16l-.24.3a.67.67,0,0,1,.15-.14l-.31.23a.83.83,0,0,1,.16-.09l-.36.15.1,0a1.26,1.26,0,0,0,.51-.27,1.21,1.21,0,0,0,.39-.42A1,1,0,0,0,53,67.1a1.11,1.11,0,0,0,0-.6l-.15-.35a1.55,1.55,0,0,0-.54-.54L52,65.46a1.55,1.55,0,0,0-.8,0,2,2,0,0,0-.56.24c-.13.08-.26.19-.38.28l-.09.09a2,2,0,0,0-.35.48,2.58,2.58,0,0,0-.18.46,2.74,2.74,0,0,0-.08.5l.06-.4a2.24,2.24,0,0,0-.06.58,2.43,2.43,0,0,0,.1.59,2.35,2.35,0,0,0,.24.51c.09.12.18.25.28.37l.08.07a2.24,2.24,0,0,0,1,.54,2.17,2.17,0,0,0,1.16,0A2.29,2.29,0,0,0,53.9,68.2a2.4,2.4,0,0,0,0-1.16,2.14,2.14,0,0,0-.54-1,.3.3,0,0,0-.08-.08,3.47,3.47,0,0,0-.38-.29,2.11,2.11,0,0,0-.53-.24,1.75,1.75,0,0,0-.6-.09h-.11a2.74,2.74,0,0,0-.5.08,1.06,1.06,0,0,0-.51.27,1,1,0,0,0-.38.42,1.09,1.09,0,0,0-.18.55,1.11,1.11,0,0,0,0,.6l.16.36a1.52,1.52,0,0,0,.53.54l.36.15A1.55,1.55,0,0,0,52,68.35Z" transform="translate(-1.05 -1.09)"/></g><g id="path24"><path class="cls-1" d="M54.79,67c0-.15.25-.14.26,0,0,.63,0,1.26,0,1.89a.16.16,0,0,0,.16.18h1.35c.13,0,.15.21,0,.27-.45,0-.89,0-1.34,0a.2.2,0,0,0-.2.24c0,1.3,0,2.59,0,3.89a.68.68,0,0,0,.31.63.84.84,0,0,0,1-.22,1.78,1.78,0,0,0,.3-1.1.34.34,0,0,1,.06-.2c.06,0,.15,0,.19.06s0,.18,0,.26a2,2,0,0,1-.53,1.32,1.31,1.31,0,0,1-.92.35,2.12,2.12,0,0,1-1.16-.25,1.06,1.06,0,0,1-.55-.94V69.7c0-.1,0-.24-.09-.31a1.35,1.35,0,0,0-.4,0c-.15,0-.32,0-.45,0s0-.23.14-.22a1.59,1.59,0,0,0,1.48-.9A4,4,0,0,0,54.79,67Z" transform="translate(-1.05 -1.09)"/><path class="cls-1" d="M56.24,67.42l0,0-.69.89-.25.11h-.8l-.25-.1-.68-.9c0-.24,0-.26,0-.05v.29c0,.2,0,.39,0,.59a3.45,3.45,0,0,0,.15,1.39,1.72,1.72,0,0,0,1.66,1c.2,0,.4,0,.6,0h.3c.21,0,.2,0,0,0l-.89-.69-.11-.24v-.8l0,.07.39-.66-.05,0,1.06-.44a6.22,6.22,0,0,0-1.83.07,1.68,1.68,0,0,0-1,.83A2.53,2.53,0,0,0,53.55,70c0,1.07,0,2.14,0,3.21A2.63,2.63,0,0,0,54,74.92a2.13,2.13,0,0,0,1.81.78,2.34,2.34,0,0,0,1.87-1.13,3.22,3.22,0,0,0,.33-.79c0-.19.07-.44.09-.63V73c0-.28,0-.16-.13.33l-1.3.74.14,0-1.06-.44.05,0-.39-.66c0-.11-.05-.35,0-.08s.06-.25,0-.07,0,.24-.07.27.1-.25,0,0,.11-.1,0,0,.29-.14,0,0c.11-.05.21-.06,0,0,.19,0,.2,0,0,0s-.28,0-.3,0,.27,0,0,0l-.11,0,.08,0c-.18-.13.18.2,0,0s.14.26,0,0c0,.09.09.26,0,.07.1.37,0,.09,0,0v-3a2.3,2.3,0,0,0-.51-1.79c-.54-.53-1.14-.45-1.82-.5l.75.21-.1,0,.74,1.3,0,.25-.38.66,0,0-.66.38c-.66.16.48,0,.4,0a2.76,2.76,0,0,0,.66-.24,2.73,2.73,0,0,0,.87-.64,4.16,4.16,0,0,0,1-2.23,1.5,1.5,0,0,0-2.9-.79c0,.18-.06.36-.1.53s-.05.18-.08.26-.06.17,0,0a1.14,1.14,0,0,1-.1.19c.12-.16.13-.18,0-.06s.23-.17-.08.06c-.1.05-.06,0,.12,0-.17,0-.14,0,.08,0a.81.81,0,0,1-.22,0,2.54,2.54,0,0,0-.47.07,1.69,1.69,0,0,0-1.17,1.65,1.47,1.47,0,0,0,.75,1.29,2.34,2.34,0,0,0,1,.26c.07,0,.57,0,.23,0l-.66-.38.05.06-.39-.66c0-.26,0-.31,0-.15v3.19a3.45,3.45,0,0,0,.38,1.87A2.8,2.8,0,0,0,54.37,76a3.14,3.14,0,0,0,3.54-1.23,4,4,0,0,0,.52-1.82,1.69,1.69,0,0,0-1.71-1.82,1.47,1.47,0,0,0-1.29.75,2.18,2.18,0,0,0-.22.55,2.8,2.8,0,0,1-.06.63c0-.19,0-.22,0-.11a1.09,1.09,0,0,1-.05.17c.08-.16.09-.19,0-.1s0,.07.07-.08a.73.73,0,0,1,.52-.22l.15,0c-.29-.08-.1.07.56.45a.54.54,0,0,1,.08.3c0,.14,0,.14,0,0s0-.3,0-.45c0-1.17-.08-2.37,0-3.53l-.2.76-.13.17-.66.38c-.16,0-.19,0,0,0s.25,0,.37,0h.6a1.62,1.62,0,0,0,1.61-1.82,1.65,1.65,0,0,0-1.58-1.45h-1c-.1,0-.4,0-.06,0l.66.39L56.13,68l.38.66c.07.44,0-.19,0-.27v-.58a4,4,0,0,0-.07-1.19,1.65,1.65,0,0,0-1.56-1.15,1.69,1.69,0,0,0-1.58,1.21,1.51,1.51,0,0,0,1,1.84A1.54,1.54,0,0,0,56.24,67.42Z" transform="translate(-1.05 -1.09)"/></g><g id="path26"><path class="cls-1" d="M11,67H17.5c0,1,0,2,0,3,0,.13-.17.16-.25.07a5.6,5.6,0,0,0-.7-2.06,1.31,1.31,0,0,0-.74-.63,2.36,2.36,0,0,0-.75-.07.36.36,0,0,0-.1.3v6a.4.4,0,0,0,.25.41,6.38,6.38,0,0,0,1.16.19c0,.09,0,.21-.14.19h-4c-.07,0-.16,0-.2-.06v-.14a4.31,4.31,0,0,0,1.28-.28c.11-.07.25-.16.24-.31V67.5c0-.08,0-.2-.12-.21a1.64,1.64,0,0,0-1,.18,2.52,2.52,0,0,0-.76,1A6.55,6.55,0,0,0,11.28,70c0,.11-.17.08-.24,0Z" transform="translate(-1.05 -1.09)"/><path class="cls-1" d="M11,68.53H17.5L16,67v2.5c0,.11-.05.54,0,.12l.38-.67,0,0,.66-.39-.06,0h.8l.23.1.69.89c-.2-1.24-.74-2.86-1.92-3.51a2.56,2.56,0,0,0-2.78.09c-.65.62-.54,1.5-.54,2.32v3.9a4.18,4.18,0,0,0,.29,2.22,2,2,0,0,0,1.31.89,4.76,4.76,0,0,0,.66.09c.07,0,.61.09.25,0l-1.1-1.44,0-.26.39-.66,0,0,1.06-.44a20.21,20.21,0,0,1-2.06,0H12.7c-.15,0-.77-.07-.18,0l.66.38-.06,0,.44,1.06v-.14l-1.1,1.45.47-.07.36-.06a2.78,2.78,0,0,0,.94-.4,1.85,1.85,0,0,0,.85-1.51c0-.29,0-.58,0-.87v-4c0-.82.16-1.78-.46-2.43A2.33,2.33,0,0,0,12.05,66c-1.37.58-1.93,2.25-2.21,3.59l.38-.66,0,.06.66-.39-.07,0h.8l.23.1.74,1.29V67a1.5,1.5,0,0,0-3,0v2.3a2.77,2.77,0,0,0,.21,1.48,1.68,1.68,0,0,0,1.89.72A1.8,1.8,0,0,0,12.82,70c0-.13.06-.27.1-.4s.2-.57.08-.28a3.48,3.48,0,0,1,.22-.43l.12-.2c-.12.15-.13.16,0,0s.11-.11,0,0-.19.07,0,0c-.2,0-.21,0,0,0s.17,0-.09,0l-.66-.39,0,.06-.39-.66q0-.48,0-.12v5.84c.69-.78.87-1.07.53-.87-.08,0,0,0,.11,0l-.23.07c-.06,0-.46.08-.08,0l-.75.1a1.51,1.51,0,0,0-1.1,1.45,1.66,1.66,0,0,0,1.84,1.7h3.52a1.92,1.92,0,0,0,1.28-.33,1.63,1.63,0,0,0,.66-1.36,1.52,1.52,0,0,0-1.1-1.45c-.24,0-.48-.08-.72-.1l-.2,0c-.18,0-.18,0,0,0l-.13,0c.51,1.11.76,1.39.73.84,0-.15,0-.3,0-.44V67.59c-.06.26-.06.31,0,.16l-.39.66.06-.06-1.06.44c.08,0,.6,0,.23,0,.18,0,.17,0,0,0s-.16-.14,0,0,.1.11,0,0a1.37,1.37,0,0,1,.13.2c0,.06.26.55.12.22a5.92,5.92,0,0,1,.3,1,1.7,1.7,0,0,0,1,1.39,1.64,1.64,0,0,0,1.81-.35A2.22,2.22,0,0,0,19,69.39c0-.79,0-1.58,0-2.36a1.52,1.52,0,0,0-1.5-1.5H11a1.5,1.5,0,1,0,0,3Z" transform="translate(-1.05 -1.09)"/></g><g id="path28"><path class="cls-1" d="M5.47,67.25c0-.07,0-.19.1-.18H9.2c.11,0,.1.12.09.19a4.88,4.88,0,0,0-1,.2.39.39,0,0,0-.21.36v5.86a.38.38,0,0,0,.28.37,3.68,3.68,0,0,0,.88.15c.07,0,.08.1.06.17a.29.29,0,0,1-.22,0H5.61a.13.13,0,0,1-.14-.17c.07-.08.19,0,.28-.07a2.81,2.81,0,0,0,.7-.14.38.38,0,0,0,.24-.36V67.8a.37.37,0,0,0-.26-.37A6.25,6.25,0,0,0,5.47,67.25Z" transform="translate(-1.05 -1.09)"/><path class="cls-1" d="M7,67.25a.49.49,0,0,1,0-.12l-.21.75,0,0-.89.69c-.43.1,0,0,.09,0H8.69c.12,0,.61.07.17,0L8,67.84l0,0-.2-.75a.24.24,0,0,1,0,.12l1.1-1.44c-.29,0,.2,0,0,0a5.58,5.58,0,0,0-.57.08,2.34,2.34,0,0,0-.62.19,1.9,1.9,0,0,0-1.13,1.73c0,.94,0,1.91,0,2.86v2.78a2,2,0,0,0,.93,1.84,3.82,3.82,0,0,0,1.73.4l-.76-.2.06,0-.69-.9V74l.69-.9q.88-.16.39-.15H6.12c-.09,0-.61,0-.2,0l.66.38,0-.06L7,74.33v-.09l-.74,1.29.08,0-.75.21A5.25,5.25,0,0,0,7,75.4a1.9,1.9,0,0,0,1.16-1.73c.05-1,0-1.91,0-2.86V68a2.06,2.06,0,0,0-.91-1.85,2.32,2.32,0,0,0-.8-.28L6,65.82c-.41,0,.32.06-.09,0a1.5,1.5,0,0,0-.8,2.89c.26,0,.51.06.76.11q-.29,0,0,0c.51.15.31-.19-.61-1a5.91,5.91,0,0,0,0,1v4.7c0,.56.22.26.75-.91l-.23.06c.18,0,.21,0,.1,0a1.89,1.89,0,0,0-1.63.82,1.64,1.64,0,0,0,.28,2,2.23,2.23,0,0,0,1.73.46H8.35a5.25,5.25,0,0,0,1.19,0,1.6,1.6,0,0,0,.09-3.11l-.53-.07c-.17,0-.17,0,0,0a1.83,1.83,0,0,1-.25-.06c.36.3.47.36.31.17l.39.66c0,.26,0,.28,0,.07V68.39a3.23,3.23,0,0,0,0-.44c0-.57-.23-.27-.79.91l.11,0c.17,0,.15,0-.05,0l.17,0,.68-.1a1.52,1.52,0,0,0,1.1-1.45A1.58,1.58,0,0,0,10.32,66a1.84,1.84,0,0,0-1.27-.46c-.55,0-1.11,0-1.67,0H5.79A1.81,1.81,0,0,0,4.45,66,1.63,1.63,0,0,0,4,67.25a1.53,1.53,0,0,0,1.5,1.5A1.5,1.5,0,0,0,7,67.25Z" transform="translate(-1.05 -1.09)"/></g><g id="path30"><path class="cls-1" d="M29.3,67.08c1.28,0,2.56,0,3.83,0a.11.11,0,0,1,.08.21,5,5,0,0,0-1.09.16.42.42,0,0,0-.27.45c0,1.91,0,3.83,0,5.74a.43.43,0,0,0,.32.44,2.38,2.38,0,0,0,1.06.08,2.32,2.32,0,0,0,1.39-.51,3.35,3.35,0,0,0,.84-2c0-.1,0-.25.13-.28s.13.17.13.28v2.54a.15.15,0,0,1-.12.18H29.68a1.62,1.62,0,0,1-.38,0,.11.11,0,0,1,0-.2,3.33,3.33,0,0,0,.89-.16.4.4,0,0,0,.26-.41V67.85a.42.42,0,0,0-.3-.42,3.43,3.43,0,0,0-.85-.14A.11.11,0,0,1,29.3,67.08Z" transform="translate(-1.05 -1.09)"/><path class="cls-1" d="M29.3,68.58c1.29,0,2.61-.08,3.9,0l-1.06-.44,0,0-.38-.67,0,.06v-.74l.39-.66-.05,0,1.06-.44c-1,.12-1.94.1-2.54,1a4.22,4.22,0,0,0-.32,2.39c0,1.46,0,2.92,0,4.38A2,2,0,0,0,30.94,75a2.43,2.43,0,0,0,1.42.59,4.66,4.66,0,0,0,2.16-.23,3.36,3.36,0,0,0,1.83-1.59,5,5,0,0,0,.42-1c0-.15.07-.3.1-.45s.16-.53,0-.1l-.54.54.07,0H34.84l.07,0-.54-.54c-.27-.47-.15-.7-.15-.31V73c0,.45,0,.91,0,1.35l.2-.75-.05.06.9-.69c.21,0,.24,0,.11,0H29.83c-.08,0-.49,0-.13,0l.66.38-.05,0,.44,1.06v-.06l-.21.76,0-.06-.53.53.06,0-.76.2A4.44,4.44,0,0,0,31,75.31a2,2,0,0,0,1-1.83c0-.93,0-1.87,0-2.81s0-1.84,0-2.75A2,2,0,0,0,31,66.17a4.14,4.14,0,0,0-1.7-.38l.76.2L30,66l.53.54,0-.06.21.76v-.07l-.44,1.06,0,0A1.5,1.5,0,0,0,28.24,66,1.68,1.68,0,0,0,28,68a1.51,1.51,0,0,0,.8.67,2.15,2.15,0,0,0,.57.13l.19,0c.11,0,.08,0-.09,0,0,0,.12,0,.18,0l.06,0a.63.63,0,0,1-.43-.54c-.43-.74-.26-.39-.26,0v5.13a1.62,1.62,0,0,0,0,.22c.89-.78,1.11-1.1.66-1-.11,0-.09,0,.08,0l-.59.07a1.66,1.66,0,0,0-.92.44,1.62,1.62,0,0,0,0,2.27c.68.68,1.87.48,2.76.48,1.51,0,3,.06,4.54,0a1.69,1.69,0,0,0,1.7-1.6c0-.4,0-.81,0-1.21,0-1.07.21-2.35-.87-3a1.46,1.46,0,0,0-1.51,0A1.72,1.72,0,0,0,34,71.25c0,.24-.08.48-.14.71a2,2,0,0,0-.08.25c.06-.18-.06.13-.09.18s-.08.15-.09.15.2-.29,0,0c0,0-.15.19,0,0s0,0-.07,0,.09-.06.11,0a.44.44,0,0,0-.15,0l-.37.08c-.28.06.28,0,0,0h-.2s-.31,0-.14,0-.08,0-.12,0h-.07l.78,1a1.55,1.55,0,0,0,0-.43V68.39a2.06,2.06,0,0,0,0-.43c-.05-.22-.12.37-.15.41l-.28.24c-.34.21-.4.28-.17.21-.26,0,0,0,.09,0l.57-.06a1.61,1.61,0,0,0,.55-3,2.81,2.81,0,0,0-1.46-.21H29.3a1.5,1.5,0,1,0,0,3Z" transform="translate(-1.05 -1.09)"/></g><g id="path32"><path class="cls-1" d="M42.73,69.34a1.85,1.85,0,0,1,2.08,0,1.58,1.58,0,0,1,.55.79,1.51,1.51,0,0,0,.11.22c.13-.12.17-.31.29-.44a2.65,2.65,0,0,1,.86-.7,2,2,0,0,1,1.31-.1,1.43,1.43,0,0,1,1.13,1.29c0,.35,0,.69,0,1,0,.75,0,1.5-.06,2.25a.41.41,0,0,0,.2.42,3,3,0,0,0,.78.18.54.54,0,0,1,0,.18c-.6,0-1.19,0-1.78,0s-1,0-1.52,0a.28.28,0,0,1,0-.18,3.4,3.4,0,0,0,.77-.16.36.36,0,0,0,.23-.36c0-1,0-2.07,0-3.1a1.63,1.63,0,0,0-.1-.85.59.59,0,0,0-.54-.35,1.15,1.15,0,0,0-.88.41,3,3,0,0,0-.67,1.47,5,5,0,0,0,0,1.09c0,.44,0,.89,0,1.34a.38.38,0,0,0,.24.36,5.25,5.25,0,0,0,.71.15.11.11,0,0,1,0,.18,1,1,0,0,1-.25,0H43.23a.11.11,0,0,1-.12-.18c.28-.09.6,0,.85-.22s.15-.37.15-.57c0-1,0-2.07,0-3.1a1.16,1.16,0,0,0-.29-.82.66.66,0,0,0-.64-.08,1.42,1.42,0,0,0-.74.58A2.76,2.76,0,0,0,42,71.12a12.13,12.13,0,0,0-.11,2.33c0,.2,0,.47.17.59a3.11,3.11,0,0,0,.8.19l0,.08,0,.1c-.45,0-.89,0-1.34,0-.66,0-1.32,0-2,0-.11,0-.1-.14,0-.2a4.63,4.63,0,0,0,.83-.13.36.36,0,0,0,.26-.37c0-1.29,0-2.57,0-3.85a.38.38,0,0,0-.28-.36,4.27,4.27,0,0,0-.7-.12c-.15,0-.09-.24,0-.25.65,0,1.3-.06,1.95-.09a.28.28,0,0,1,.33.23c0,.29,0,.59,0,.89,0,.11.13,0,.16-.06A2,2,0,0,1,42.73,69.34Z" transform="translate(-1.05 -1.09)"/><path class="cls-1" d="M43.49,70.63c.1-.06.44-.16.17-.13.05,0,.49.06.26,0,0,0-.19-.3,0,0-.14-.22.19.44.24.52a1.5,1.5,0,0,0,2.35.3c.15-.18.27-.39.42-.58s0-.07,0,0l.23-.22c-.14.11.21-.12.22-.12-.17.06,0,0,.06,0s.33.07.14,0c.18.06.09.08,0-.06.29.36-.08-.17,0-.1s0,.62,0,.72c0,.87-.09,1.75-.07,2.62a1.88,1.88,0,0,0,.84,1.58,2.88,2.88,0,0,0,1.24.4l-1.1-1.44v.18l1.5-1.5c-1.1,0-2.21,0-3.3,0l1.5,1.5v-.18l-1.1,1.44a2.16,2.16,0,0,0,2-1.44,9.46,9.46,0,0,0,.07-2.38A7.68,7.68,0,0,0,49,69.36a2.15,2.15,0,0,0-2.36-1.42c-1.79.25-2.65,2.18-2.73,3.8a18.22,18.22,0,0,0,0,2.09c.1,1.18,1,1.64,2,1.85l-.9-.69.05.09V73.56l-.05.09,1.29-.74a14.81,14.81,0,0,1-1.49,0H43.64c-.24,0-.27,0-.11,0l.9.68,0-.07.15,1.16,0-.09-1.05,1c.9-.23,1.72-.44,2-1.47a9,9,0,0,0,.07-2.32,9.12,9.12,0,0,0-.12-2.39,2.12,2.12,0,0,0-2.18-1.59c-1.92.1-2.78,2.13-2.91,3.78a8.11,8.11,0,0,0,0,2.41,2.12,2.12,0,0,0,2,1.56l-.9-.69,0,.08-.15-1.15,0,.1,1.45-1.1c-1.1,0-2.22,0-3.33,0l.76.2-.07,0,.69.9,0-.08-.15,1.15,0-.07-1.3.74a2.64,2.64,0,0,0,2.37-1.12,6,6,0,0,0,.22-2.71A9.79,9.79,0,0,0,42,69.35c-.33-1.13-1.4-1.34-2.41-1.46l.75.21-.07,0L41,69.34v-.08l-.2.76,0-.08-.54.53.08,0-.76.2,1.07,0,.49,0h.19c.26,0,.26,0,0,0l-.67-.38.08.07-.38-.66c-.06-.16,0-.07,0,.06s0,.3,0,.45a1.59,1.59,0,0,0,.51,1.2,1.54,1.54,0,0,0,1.81.23,2.3,2.3,0,0,0,.68-.71c.13-.21-.14.12,0-.06,0,0,.27-.24.09-.11a1.55,1.55,0,0,0,.54-2A1.51,1.51,0,0,0,42,68a4.68,4.68,0,0,0-1.28,1.38l.54-.54-.06,0,1.82.24-.06,0,.44,1.06a3.65,3.65,0,0,0-.24-1.76,1.91,1.91,0,0,0-1.79-.85c-1.13,0-2.74-.15-3.24,1.12a1.61,1.61,0,0,0,.7,2,1.67,1.67,0,0,0,.89.22c-.47-1-.69-1.18-.65-.64v.41a30.27,30.27,0,0,1,0,3.16l.2-.76.49-.39-.17,0c.16,0-.25,0-.3,0a1.5,1.5,0,0,0-1.13.79,1.61,1.61,0,0,0,1,2.32,7.39,7.39,0,0,0,1.88.06c.62,0,1.23,0,1.84,0a1.58,1.58,0,0,0,1.45-1.1,1.61,1.61,0,0,0-.7-1.88,1.77,1.77,0,0,0-.76-.22c-.42-.09-.24.19.54.87v-.32c0-.45,0-.91,0-1.36a3,3,0,0,1,.14-.75,2.39,2.39,0,0,1,.12-.22c.1-.17.12-.19.06-.09s-.29.07-.25.07c-.69-.77-1-.92-.82-.46,0-.17,0-.14,0,.11s0,.41,0,.62v2.4c0-.19,0-.21,0,0l.39-.66c.27-.28.4-.2.08-.15l-.36.07a1.56,1.56,0,0,0-1.07,1.14,1.61,1.61,0,0,0,.43,1.53,1.88,1.88,0,0,0,1.36.46c.66,0,1.31,0,2,0,.91,0,1.78,0,2.32-.84a1.53,1.53,0,0,0,0-1.52,1.58,1.58,0,0,0-.95-.78l-.35-.06c-.38-.1-.27,0,.32.35l.2.76a16.68,16.68,0,0,1,0-2,2,2,0,0,1,.14-.7c0-.09,0-.1,0,0l.08-.15c.06-.1,0-.16.17-.21-.43.16-.14.26-.73-.15s-.41-.46-.42-.17,0,.8,0,1.2a20,20,0,0,1,0,2.19l.21-.76c.08-.17.87-.45.3-.35-.13,0-.26,0-.39.06a1.51,1.51,0,0,0-1.1,1.45v.18a1.53,1.53,0,0,0,1.5,1.5c1.09,0,2.2,0,3.3,0a1.54,1.54,0,0,0,1.5-1.5v-.18a1.53,1.53,0,0,0-1.1-1.45l-.4-.06-.16,0q-.16,0,0,0l.54.54c.08.48.12.55.12.2,0-.13,0-.27,0-.4s0-.48,0-.72c0-.51,0-1,0-1.54a3.05,3.05,0,0,0-1.24-2.68,3.4,3.4,0,0,0-2.79-.48,3.72,3.72,0,0,0-1.38.75,4.78,4.78,0,0,0-.45.45c.07-.08-.55.76-.29.44l2.36.3c-.08-.13-.09-.14,0,0-.07-.17-.14-.34-.22-.5a4.09,4.09,0,0,0-.42-.58,2.9,2.9,0,0,0-1.29-.8A3.39,3.39,0,0,0,42,68a1.53,1.53,0,0,0-.54,2A1.51,1.51,0,0,0,43.49,70.63Z" transform="translate(-1.05 -1.09)"/></g><g id="path34"><path class="cls-1" d="M59.28,69a2.47,2.47,0,0,1,2,.6,2.44,2.44,0,0,1,.63,1.85.13.13,0,0,1-.15.13H58.54c-.1,0-.14.12-.14.21a3.6,3.6,0,0,0,.21,1.66,1.24,1.24,0,0,0,.84.72,1.75,1.75,0,0,0,1.66-.46,2,2,0,0,0,.5-1,.15.15,0,0,1,.17-.15c.14,0,.1.2.09.31a1.93,1.93,0,0,1-1.15,1.42,2.66,2.66,0,0,1-2.29-.1A2.74,2.74,0,0,1,57,72.11,2.84,2.84,0,0,1,59.28,69m.14.23a1,1,0,0,0-.57.38,3.16,3.16,0,0,0-.41,1.45c0,.12,0,.31.19.29h1.64c.15,0,.34,0,.39-.2a2.06,2.06,0,0,0,.05-.74,1.36,1.36,0,0,0-.34-1A1.11,1.11,0,0,0,59.42,69.25Z" transform="translate(-1.05 -1.09)"/><path class="cls-1" d="M59.28,70.52a3,3,0,0,1,.73,0l-.4,0a1.7,1.7,0,0,1,.31.06l.16,0c.14,0,.1,0-.14-.07.08.06.2.11.28.16s.1,0-.1-.1l.12.11.11.12c-.15-.2-.18-.24-.09-.11s.09.2.15.28c-.09-.24-.11-.28-.06-.14a1.24,1.24,0,0,1,0,.16,3,3,0,0,1,.07.32l-.06-.4a3.44,3.44,0,0,1,0,.56l0-.4.11-.26.54-.53-.05,0,.76-.2c-1.06,0-2.13,0-3.19,0a1.73,1.73,0,0,0-1.53.84,2.52,2.52,0,0,0-.23,1.24,4.42,4.42,0,0,0,.28,1.69,2.82,2.82,0,0,0,1.3,1.54,3.22,3.22,0,0,0,2.16.24,3,3,0,0,0,1.54-.86,3.53,3.53,0,0,0,.58-.81,4.54,4.54,0,0,0,.24-.61.84.84,0,0,0,0-.17c0-.17,0-.11-.08.16l-.54.54,0,0-.76.2h.07l-.4,0,0,0-.66-.39,0,0L60.42,73v0l0-.4a.74.74,0,0,1,0,.21l.06-.4c0,.1-.07.2-.08.29l.06-.14,0,.06a.57.57,0,0,1-.08.13c-.09.13-.06.09.1-.12a1.14,1.14,0,0,0-.19.19c-.09.08,0,0,.16-.11l-.13.08s-.35.17-.1.07S60,73,60,73a2,2,0,0,1-.35.07L60,73a3.39,3.39,0,0,1-.78,0l.4.05a3,3,0,0,1-.43-.1c-.25-.06.23.12.07,0l-.18-.1A.57.57,0,0,1,59,72.8s-.25-.18,0,0,0,0,0,0l-.14-.14s-.13-.14-.12-.15.21.31.09.12l-.19-.34c-.12-.22.1.28,0,.11l-.06-.18a2.62,2.62,0,0,1-.09-.38l.06.4a3,3,0,0,1,0-.73l-.06.4a3.29,3.29,0,0,1,.09-.43l.06-.17c.09-.25-.06.08-.06.13s.16-.31.21-.39.18-.23,0,0l0,0c0-.05.28-.21.29-.27s-.33.23-.07.06l.15-.1.16-.08c.24-.14-.35.12-.09,0a2.17,2.17,0,0,1,.42-.11,1.5,1.5,0,1,0-.79-2.89A4.2,4.2,0,0,0,56,69.9,4.33,4.33,0,0,0,56.13,74,4.13,4.13,0,0,0,60,76a4,4,0,0,0,2.33-1,3.29,3.29,0,0,0,1.08-2.16,1.64,1.64,0,0,0-1.19-1.76,1.68,1.68,0,0,0-2,1.29.84.84,0,0,0,0,.17c-.06.27.17-.31,0,0,0,0-.12.15-.12.19.15-.19.17-.22.07-.1l0,0c-.18.22.3-.16,0,0s-.31.1.08,0a3.43,3.43,0,0,1-.46.11l.4-.05a2.46,2.46,0,0,1-.47,0l.4.06s-.23,0-.23-.05.33.19.15.06.24.26.06,0c0,0-.2-.22,0,0s0,0,0,0,.14.38,0,.07a3,3,0,0,1-.12-.5l.06.4a4.78,4.78,0,0,1,0-1l0,.4-.3.52-.66.39h0l-.4,0h2.61c.21,0,.42,0,.63,0a1.66,1.66,0,0,0,1.4-.77,2.59,2.59,0,0,0,.16-1.86,3.68,3.68,0,0,0-4.06-3,1.68,1.68,0,0,0-1.06.44A1.56,1.56,0,0,0,57.78,69a1.54,1.54,0,0,0,.44,1.06,1.45,1.45,0,0,0,1.06.44Z" transform="translate(-1.05 -1.09)"/><path class="cls-1" d="M59,67.81a2.07,2.07,0,0,0-.58.23l-.14.08c-.13.1-.26.2-.38.31a2.63,2.63,0,0,0-.39.49,1.51,1.51,0,0,0-.15.28,4.24,4.24,0,0,0-.3.89c-.06.33-.1.66-.14,1l.05-.4a2.5,2.5,0,0,0-.05.47,2.63,2.63,0,0,0,.06.48,1.69,1.69,0,0,0,.76,1,1.91,1.91,0,0,0,.94.24h.37a9.86,9.86,0,0,0,1.72-.06,1.79,1.79,0,0,0,1.32-1.24,3.17,3.17,0,0,0,.11-1,4.5,4.5,0,0,0-.12-1,2.57,2.57,0,0,0-.6-1.11,2.08,2.08,0,0,0-.51-.42l-.29-.13a1.66,1.66,0,0,0-.31-.12,3.16,3.16,0,0,0-1.37,0,1.54,1.54,0,0,0-.89.69A1.49,1.49,0,0,0,58,69.65a1.51,1.51,0,0,0,.69.9l.35.15a1.55,1.55,0,0,0,.8,0h.07l-.4,0h.37l-.4,0a1.1,1.1,0,0,1,.26.06l-.36-.15a.82.82,0,0,1,.2.12l-.3-.23a.68.68,0,0,1,.12.12l-.23-.3a1.38,1.38,0,0,1,.14.24l-.15-.36a1.67,1.67,0,0,1,.11.44l0-.4a3.14,3.14,0,0,1,0,.75l0-.4a.86.86,0,0,1,0,.23l.15-.36,0,0,.23-.3,0,0,.3-.23-.07,0,.36-.15-.14,0,.4-.06a8.23,8.23,0,0,1-.86,0H58.6l.4.06h0l.36.15,0,0,.3.24v0l.23.3a.21.21,0,0,1,0-.06l.15.36s0,0,0-.08l0,.4V71.1l-.06.4c0-.22.06-.45.09-.68l0,.4a3.59,3.59,0,0,1,.2-.86l-.15.36a2.08,2.08,0,0,1,.2-.36l-.23.31a.73.73,0,0,1,.17-.18l-.31.24A1.2,1.2,0,0,1,60,70.6l-.36.15.17,0a1.59,1.59,0,0,0,.9-.69,1.52,1.52,0,0,0,.15-1.16,1.5,1.5,0,0,0-.69-.89A1.56,1.56,0,0,0,59,67.81Z" transform="translate(-1.05 -1.09)"/></g><g id="path36"><path class="cls-1" d="M37.45,69.12c.22,0,.43,0,.65,0a.23.23,0,0,1,.17.26v4.41a.32.32,0,0,0,.24.31,5.93,5.93,0,0,0,.84.16c.09,0,.06.2-.05.19H36c-.11,0-.11-.11-.09-.18l.77-.2a.41.41,0,0,0,.3-.41V69.91a.4.4,0,0,0-.25-.38,4,4,0,0,0-.77-.14c-.07,0-.05-.11-.06-.17a1,1,0,0,1,.35,0C36.67,69.17,37.06,69.13,37.45,69.12Z" transform="translate(-1.05 -1.09)"/><path class="cls-1" d="M37.45,70.62c.22,0,.43,0,.65,0l-.4,0-.88-.85,0-.39c0,1.08,0,2.17,0,3.25A4.41,4.41,0,0,0,37,74.66a2,2,0,0,0,1.21.89l.37.07.18,0c.18,0,.13,0-.13-.09L38.09,75v0l-.2-.75v0l.2-.76.19-.23L39,73h0l.39,0H37.61a12.82,12.82,0,0,1-1.64,0l1.06.44,0,0,.39.66,0,0,.06.4v-.06l-.06.4v0l-1,1a8.38,8.38,0,0,0,1-.29,1.9,1.9,0,0,0,1.1-1.29,5.39,5.39,0,0,0,.06-1.27v-1c0-.64,0-1.3,0-1.94a2,2,0,0,0-.93-1.62,3.67,3.67,0,0,0-1.49-.36l.4.06.22.11.69.89,0,0,0,.4v-.1l-1.11,1.45.18,0-.4.05c.45,0,.9-.05,1.35-.06a1.5,1.5,0,0,0,0-3l-.83,0a4.44,4.44,0,0,0-1.09.12,1.51,1.51,0,0,0-1.1,1.44A1.67,1.67,0,0,0,35,70.54a2.27,2.27,0,0,0,1.24.39l-.4-.06.34.06c.12,0,.06,0-.16-.07a1.17,1.17,0,0,1-.5-.62l-.06-.4c0,.64,0,1.29,0,1.93s0,1.29,0,1.93l.05-.4c0,.16,0,.1.13-.18a.82.82,0,0,1,.62-.53,2.1,2.1,0,0,0-.24.06l-.53.14a1.49,1.49,0,0,0-1,1,1.66,1.66,0,0,0,.57,1.75,2.34,2.34,0,0,0,1.55.33h1.85a7.19,7.19,0,0,0,1,0,1.6,1.6,0,0,0,1.4-1.55,1.58,1.58,0,0,0-1.25-1.57c-.12,0-.25,0-.37-.06l-.23,0c-.08,0-.06,0,.05,0a1.07,1.07,0,0,1,.62.73l.06.4a15,15,0,0,1,0-1.64V69.77a3.22,3.22,0,0,0-.07-.93,1.71,1.71,0,0,0-1.2-1.19,3.37,3.37,0,0,0-1,0,1.5,1.5,0,0,0,0,3Z" transform="translate(-1.05 -1.09)"/></g><g id="path38"><path class="cls-1" d="M50.74,69.17c.45,0,.92,0,1.37-.08.12,0,.29,0,.29.18v4.45a.34.34,0,0,0,.22.34,6.37,6.37,0,0,0,.87.17c.1,0,0,.22-.08.19H50.17a.1.1,0,0,1-.07-.18c.26-.1.54-.13.8-.22a.4.4,0,0,0,.25-.39V69.91a.4.4,0,0,0-.28-.39,3.58,3.58,0,0,0-.74-.13c-.07,0-.05-.11-.06-.17A3.64,3.64,0,0,1,50.74,69.17Z" transform="translate(-1.05 -1.09)"/><path class="cls-1" d="M50.74,70.67l.78,0a5.58,5.58,0,0,1,.7,0l-.39,0L51,69.67l-.05-.4v3.28a4.26,4.26,0,0,0,.23,2.07,1.94,1.94,0,0,0,1.19.92c.25.07.51.09.77.14l-.66-.39,0,0-.39-.66v-.75l.12-.27.54-.54,0,0,.76-.2H51.79a13.29,13.29,0,0,1-1.67,0l1.06.44,0,0,.39.66,0,0,.05.4v0l-.43,1.06,0,0-.66.39c.32-.12.66-.17,1-.3a1.92,1.92,0,0,0,1.11-1.29,5.27,5.27,0,0,0,.06-1.32v-1a16.8,16.8,0,0,0,0-2.13,1.86,1.86,0,0,0-1-1.42,4.48,4.48,0,0,0-1.5-.33l.76.21,0,0,.69.89,0,0,.06.4a.34.34,0,0,1,0-.1l-1.1,1.45.18,0-.39.05h.48a1.5,1.5,0,0,0,0-3,6.36,6.36,0,0,0-1.07.1,1.52,1.52,0,0,0-1.1,1.45,1.67,1.67,0,0,0,.61,1.32,1.49,1.49,0,0,0,.76.33l.47,0-.39,0a3,3,0,0,0,.32.06c.12,0,.06,0-.15-.09a1.15,1.15,0,0,1-.49-.6l-.06-.4c0,.64,0,1.29,0,1.93s0,1.29,0,1.93l.06-.4q-.09.32.24-.27a.69.69,0,0,1,.47-.43s-.19.05-.22.06a3.94,3.94,0,0,0-.49.14,1.6,1.6,0,0,0-1.08,1.08,1.83,1.83,0,0,0,.16,1.26,1.62,1.62,0,0,0,1.36.77h2.75c.17,0,.35,0,.52,0a1.61,1.61,0,0,0,.83-3,2.16,2.16,0,0,0-.74-.21l-.29,0-.1,0a1.16,1.16,0,0,1,.74.74l0,.4c0-.6,0-1.21,0-1.82V70.12a7.37,7.37,0,0,0,0-1.05,1.7,1.7,0,0,0-1.19-1.41,2.7,2.7,0,0,0-1.06,0l-.88,0a1.5,1.5,0,1,0,0,3Z" transform="translate(-1.05 -1.09)"/></g></g><g id="_062f62ff-2" data-name="#062f62ff"><path id="path6-2" data-name="path6" class="cls-2" d="M13.46,43.21,36.65,2.61q-2.16,13.89-4.34,27.8c0,.09-.1.15-.16.22L2.54,62.33Q8,52.76,13.46,43.21Z" transform="translate(-1.05 -1.09)"/><path id="path8-2" data-name="path8" class="cls-2" d="M37.42,2.6,71.55,62.34Q64.76,55.08,58,47.81L41.81,30.53c-.06-.07-.05-.17-.07-.26Z" transform="translate(-1.05 -1.09)"/><path id="path10-2" data-name="path10" class="cls-2" d="M20.87,45c.29-.32.57-.66.87-1h5.78q-5,9.15-10,18.29H5.44Q13.17,53.68,20.87,45Z" transform="translate(-1.05 -1.09)"/><path id="path12-2" data-name="path12" class="cls-2" d="M29.42,44H39.5q.45,3,.89,6.09H37.06v12.2H26.5c.51-1.76,1.05-3.5,1.57-5.25l2.07-6.93H26.73Z" transform="translate(-1.05 -1.09)"/><path id="path14-2" data-name="path14" class="cls-2" d="M42.85,44.13A3.19,3.19,0,0,1,44,44h8.37c1.65,1.83,3.28,3.68,4.93,5.52H50.47a.67.67,0,0,0-.57.95c.69,1.3,1.39,2.59,2.08,3.88a1.77,1.77,0,0,0,1.56,1h9q3.08,3.45,6.13,6.92H48.23a5.42,5.42,0,0,1-.9,0A2.29,2.29,0,0,1,45.64,61a5.31,5.31,0,0,1-.29-1Q43.6,53,41.83,46A1.63,1.63,0,0,1,42.85,44.13Z" transform="translate(-1.05 -1.09)"/><path id="path16-2" data-name="path16" class="cls-2" d="M20.37,67.54a3,3,0,0,1,2.28-.77,2.64,2.64,0,0,1,1.42.56c.13.1.31.21.46.1s.14-.47.33-.63c.05,0,.14.06.13.14,0,.85,0,1.7,0,2.55a1,1,0,0,1-.05.34c-.06,0-.14,0-.16-.09a9.52,9.52,0,0,0-.44-1.2,4,4,0,0,0-.6-1A1.74,1.74,0,0,0,22.65,67a1.68,1.68,0,0,0-1.56.6,3.06,3.06,0,0,0-.44,1.18,15.71,15.71,0,0,0-.17,1.94,6.25,6.25,0,0,0,.3,2.39,1.87,1.87,0,0,0,.85,1,2.16,2.16,0,0,0,1.46.11,2.12,2.12,0,0,0,1.36-1,3.39,3.39,0,0,0,.41-1.59.76.76,0,0,1,.3,0c0,.06.05.12,0,.18A4.68,4.68,0,0,1,25,73a2.26,2.26,0,0,1-1.61,1.39,3.43,3.43,0,0,1-1.56,0,3.93,3.93,0,0,1-1.63-.85,1.75,1.75,0,0,1-.42-.48,7.11,7.11,0,0,1-.53-1,4,4,0,0,1,0-2.88A4.75,4.75,0,0,1,20.37,67.54Z" transform="translate(-1.05 -1.09)"/><path id="path18-2" data-name="path18" class="cls-2" d="M66.91,66.83a2.58,2.58,0,0,1,.48,0,.21.21,0,0,1,.16.22q0,3.2,0,6.39c0,.22,0,.49.19.63a2,2,0,0,0,.84.1c0,.06.06.18,0,.19l-1.93.1c-.12,0-.27,0-.3-.16s0-.43,0-.65l-.06-.08a3.41,3.41,0,0,1-.45.48,1.94,1.94,0,0,1-1.64.4A2.31,2.31,0,0,1,62.7,73.3a3.1,3.1,0,0,1-.27-2.42,2.8,2.8,0,0,1,1.31-1.63,1.81,1.81,0,0,1,2.53.58.65.65,0,0,0,0-.34c0-.61,0-1.21,0-1.82a.48.48,0,0,0-.31-.45,2.83,2.83,0,0,0-.82-.09c0-.07,0-.16.07-.18l1.67-.12m-2.23,2.42a1.16,1.16,0,0,0-.69.68,4.75,4.75,0,0,0-.29,1.76,6.54,6.54,0,0,0,.12,1.25,1.82,1.82,0,0,0,.42.91,1,1,0,0,0,1,.27,1.08,1.08,0,0,0,.56-.42,3,3,0,0,0,.47-1.39,5,5,0,0,0-.17-2,1.9,1.9,0,0,0-.61-.93A.92.92,0,0,0,64.68,69.25Z" transform="translate(-1.05 -1.09)"/><path id="path20-2" data-name="path20" class="cls-2" d="M37.41,66.9a.73.73,0,1,1-.53.77A.74.74,0,0,1,37.41,66.9Z" transform="translate(-1.05 -1.09)"/><path id="path22-2" data-name="path22" class="cls-2" d="M51.56,66.9a.73.73,0,1,1-.54.61A.73.73,0,0,1,51.56,66.9Z" transform="translate(-1.05 -1.09)"/><path id="path24-2" data-name="path24" class="cls-2" d="M54.79,67c0-.15.25-.14.26,0,0,.63,0,1.26,0,1.89a.16.16,0,0,0,.16.18h1.35c.13,0,.15.21,0,.27-.45,0-.89,0-1.34,0a.2.2,0,0,0-.2.24c0,1.3,0,2.59,0,3.89a.68.68,0,0,0,.31.63.84.84,0,0,0,1-.22,1.78,1.78,0,0,0,.3-1.1.34.34,0,0,1,.06-.2c.06,0,.15,0,.19.06s0,.18,0,.26a2,2,0,0,1-.53,1.32,1.31,1.31,0,0,1-.92.35,2.12,2.12,0,0,1-1.16-.25,1.06,1.06,0,0,1-.55-.94V69.7c0-.1,0-.24-.09-.31a1.35,1.35,0,0,0-.4,0c-.15,0-.32,0-.45,0s0-.23.14-.22a1.59,1.59,0,0,0,1.48-.9A4,4,0,0,0,54.79,67Z" transform="translate(-1.05 -1.09)"/><path id="path26-2" data-name="path26" class="cls-2" d="M11,67H17.5c0,1,0,2,0,3,0,.13-.17.16-.25.07a5.6,5.6,0,0,0-.7-2.06,1.31,1.31,0,0,0-.74-.63,2.36,2.36,0,0,0-.75-.07.36.36,0,0,0-.1.3v6a.4.4,0,0,0,.25.41,6.38,6.38,0,0,0,1.16.19c0,.09,0,.21-.14.19h-4c-.07,0-.16,0-.2-.06v-.14a4.31,4.31,0,0,0,1.28-.28c.11-.07.25-.16.24-.31V67.5c0-.08,0-.2-.12-.21a1.64,1.64,0,0,0-1,.18,2.52,2.52,0,0,0-.76,1A6.55,6.55,0,0,0,11.28,70c0,.11-.17.08-.24,0Z" transform="translate(-1.05 -1.09)"/><path id="path28-2" data-name="path28" class="cls-2" d="M5.47,67.25c0-.07,0-.19.1-.18H9.2c.11,0,.1.12.09.19a4.88,4.88,0,0,0-1,.2.39.39,0,0,0-.21.36v5.86a.38.38,0,0,0,.28.37,3.68,3.68,0,0,0,.88.15c.07,0,.08.1.06.17a.29.29,0,0,1-.22,0H5.61a.13.13,0,0,1-.14-.17c.07-.08.19,0,.28-.07a2.81,2.81,0,0,0,.7-.14.38.38,0,0,0,.24-.36V67.8a.37.37,0,0,0-.26-.37A6.25,6.25,0,0,0,5.47,67.25Z" transform="translate(-1.05 -1.09)"/><path id="path30-2" data-name="path30" class="cls-2" d="M29.3,67.08c1.28,0,2.56,0,3.83,0a.11.11,0,0,1,.08.21,5,5,0,0,0-1.09.16.42.42,0,0,0-.27.45c0,1.91,0,3.83,0,5.74a.43.43,0,0,0,.32.44,2.38,2.38,0,0,0,1.06.08,2.32,2.32,0,0,0,1.39-.51,3.35,3.35,0,0,0,.84-2c0-.1,0-.25.13-.28s.13.17.13.28v2.54a.15.15,0,0,1-.12.18H29.68a1.62,1.62,0,0,1-.38,0,.11.11,0,0,1,0-.2,3.33,3.33,0,0,0,.89-.16.4.4,0,0,0,.26-.41V67.85a.42.42,0,0,0-.3-.42,3.43,3.43,0,0,0-.85-.14A.11.11,0,0,1,29.3,67.08Z" transform="translate(-1.05 -1.09)"/><path id="path32-2" data-name="path32" class="cls-2" d="M42.73,69.34a1.85,1.85,0,0,1,2.08,0,1.58,1.58,0,0,1,.55.79,1.51,1.51,0,0,0,.11.22c.13-.12.17-.31.29-.44a2.65,2.65,0,0,1,.86-.7,2,2,0,0,1,1.31-.1,1.43,1.43,0,0,1,1.13,1.29c0,.35,0,.69,0,1,0,.75,0,1.5-.06,2.25a.41.41,0,0,0,.2.42,3,3,0,0,0,.78.18.54.54,0,0,1,0,.18c-.6,0-1.19,0-1.78,0s-1,0-1.52,0a.28.28,0,0,1,0-.18,3.4,3.4,0,0,0,.77-.16.36.36,0,0,0,.23-.36c0-1,0-2.07,0-3.1a1.63,1.63,0,0,0-.1-.85.59.59,0,0,0-.54-.35,1.15,1.15,0,0,0-.88.41,3,3,0,0,0-.67,1.47,5,5,0,0,0,0,1.09c0,.44,0,.89,0,1.34a.38.38,0,0,0,.24.36,5.25,5.25,0,0,0,.71.15.11.11,0,0,1,0,.18,1,1,0,0,1-.25,0H43.23a.11.11,0,0,1-.12-.18c.28-.09.6,0,.85-.22s.15-.37.15-.57c0-1,0-2.07,0-3.1a1.16,1.16,0,0,0-.29-.82.66.66,0,0,0-.64-.08,1.42,1.42,0,0,0-.74.58A2.76,2.76,0,0,0,42,71.12a12.13,12.13,0,0,0-.11,2.33c0,.2,0,.47.17.59a3.11,3.11,0,0,0,.8.19l0,.08,0,.1c-.45,0-.89,0-1.34,0-.66,0-1.32,0-2,0-.11,0-.1-.14,0-.2a4.63,4.63,0,0,0,.83-.13.36.36,0,0,0,.26-.37c0-1.29,0-2.57,0-3.85a.38.38,0,0,0-.28-.36,4.27,4.27,0,0,0-.7-.12c-.15,0-.09-.24,0-.25.65,0,1.3-.06,1.95-.09a.28.28,0,0,1,.33.23c0,.29,0,.59,0,.89,0,.11.13,0,.16-.06A2,2,0,0,1,42.73,69.34Z" transform="translate(-1.05 -1.09)"/><path id="path34-2" data-name="path34" class="cls-2" d="M59.28,69a2.47,2.47,0,0,1,2,.6,2.44,2.44,0,0,1,.63,1.85.13.13,0,0,1-.15.13H58.54c-.1,0-.14.12-.14.21a3.6,3.6,0,0,0,.21,1.66,1.24,1.24,0,0,0,.84.72,1.75,1.75,0,0,0,1.66-.46,2,2,0,0,0,.5-1,.15.15,0,0,1,.17-.15c.14,0,.1.2.09.31a1.93,1.93,0,0,1-1.15,1.42,2.66,2.66,0,0,1-2.29-.1A2.74,2.74,0,0,1,57,72.11,2.84,2.84,0,0,1,59.28,69m.14.23a1,1,0,0,0-.57.38,3.16,3.16,0,0,0-.41,1.45c0,.12,0,.31.19.29h1.64c.15,0,.34,0,.39-.2a2.06,2.06,0,0,0,.05-.74,1.36,1.36,0,0,0-.34-1A1.11,1.11,0,0,0,59.42,69.25Z" transform="translate(-1.05 -1.09)"/><path id="path36-2" data-name="path36" class="cls-2" d="M37.45,69.12c.22,0,.43,0,.65,0a.23.23,0,0,1,.17.26v4.41a.32.32,0,0,0,.24.31,5.93,5.93,0,0,0,.84.16c.09,0,.06.2-.05.19H36c-.11,0-.11-.11-.09-.18l.77-.2a.41.41,0,0,0,.3-.41V69.91a.4.4,0,0,0-.25-.38,4,4,0,0,0-.77-.14c-.07,0-.05-.11-.06-.17a1,1,0,0,1,.35,0C36.67,69.17,37.06,69.13,37.45,69.12Z" transform="translate(-1.05 -1.09)"/><path id="path38-2" data-name="path38" class="cls-2" d="M50.74,69.17c.45,0,.92,0,1.37-.08.12,0,.29,0,.29.18v4.45a.34.34,0,0,0,.22.34,6.37,6.37,0,0,0,.87.17c.1,0,0,.22-.08.19H50.17a.1.1,0,0,1-.07-.18c.26-.1.54-.13.8-.22a.4.4,0,0,0,.25-.39V69.91a.4.4,0,0,0-.28-.39,3.58,3.58,0,0,0-.74-.13c-.07,0-.05-.11-.06-.17A3.64,3.64,0,0,1,50.74,69.17Z" transform="translate(-1.05 -1.09)"/></g></g></g></svg>