<svg xmlns="http://www.w3.org/2000/svg" viewBox="0 0 154.04 73.5"><defs><style>.cls-1,.cls-2,.cls-3,.cls-5{fill:#fff;}.cls-1,.cls-5{stroke:#fff;stroke-miterlimit:10;}.cls-1{stroke-width:1.02px;}.cls-2,.cls-6,.cls-7{fill-rule:evenodd;}.cls-4,.cls-9{isolation:isolate;}.cls-5{stroke-width:3px;}.cls-6{fill:#93824d;}.cls-8{fill:#3d3935;}.cls-9{font-size:11.04px;font-family:Montserrat-Bold, Montserrat;font-weight:700;letter-spacing:0.24em;}</style></defs><g id="Layer_2" data-name="Layer 2"><g id="svg4403"><circle class="cls-1" cx="149.69" cy="58.95" r="3.84"/><path class="cls-2" d="M142.81,32.94h2.89a3.67,3.67,0,0,1-.67-.45l-6.44-4.22a8.69,8.69,0,0,0-.89-.67l-3.56,8-3.33-11.78L125,21.16l-.88-.23,1.77,2.44v24l-2.23.45a22.6,22.6,0,0,1,2.89,2l3.33,2-1.55-2.89V34l4.44,15.78,4.44-11.56V54.93l-2,.22a38.05,38.05,0,0,1,4,2.89l3.33,2.67,2.23,2-2-3.78v-26ZM117,18.27l-1.77-.67c-2.89-1.11-7.33-2.44-7.33-2.44l2,1.77c-2.23,6.67-6,21.11-6,21.11l-1.56.45,5.56,2.44a2.31,2.31,0,0,1,.67.22L107,38.92l.67-3.11,5.56,2,.44,3.77-2,.45a.77.77,0,0,0,.44.22,57.75,57.75,0,0,1,7.12,3.33c1.33.67,3.11,1.78,3.11,1.78l-1.56-2.67C119.48,36.27,117,18.27,117,18.27Zm-8.44,14.88s1.77-7.11,2.67-10.44l1.55,12-4.22-1.56ZM93.7,34.27V23.82H95l2.45,3.12V19.38l-2.23,2.44-1.77-.22V13.82l4.22.67,2.89,4.88.22-6.44S91,11.16,85.7,10.71l2,1.77v22l-2.89.89h1.11l12.89,2.44,2,.44V30.48a54.87,54.87,0,0,1-3.11,4.67,40.17,40.17,0,0,1-4-.88ZM78.59,15.6a10.59,10.59,0,0,0,3.33-2.23,8.66,8.66,0,0,0,1.12-8C81.7,3.15,80.59,2.26,77.48,1.6c-4.67-.22-14.67,0-14.67,0L65.7,2.93V34L63,36s8.22-.44,12.22-.67c2,0,3.12-.67,4.89-1.33,4-2.89,4.44-8,3.78-12.67-1.1-4-3.1-4.43-5.33-5.77ZM71.71,4a1.48,1.48,0,0,0,1.11,0c1.55.23,3.11,0,3.77,1.56.67,2,.89,5.33-.67,7.33C74.81,14.26,71.71,14,71.71,14V4Zm4.66,26.45a3.5,3.5,0,0,1-2.66,2l-2,.45V17.16s4-.23,4.88,1.55C78.15,21.6,77.93,28,76.37,30.49ZM54.82,13.38l2.44-1.77c-2.44.44-7.55,2-7.55,2L45.48,26.94,40.81,15.82l-6.66,2.23,2.23.67V42.05s-2.23,2.44-1.78,2.44l6.45-2.67-2-.88V25.16l6,12.67,4.45-13.77V37.39l-1.56,2,4.89-1.56c.67-.23,4.67-1.11,4.67-1.11l-2.67-.89V13.38ZM30.6,20.71l1.55-2s-4.67,2-5.11,2c-.23,0-4.44,2.23-4.44,2.23l2,.22V48.05a27.92,27.92,0,0,0-2,2.88c2.88-1.33,5.55-3.33,8.44-4.66.44-.23,2-.89,2-.89l-2.44-.89V20.71Zm-9.78-8.44L9.93,18.05H12.6V45.16c-.22,2.89.23,6-.67,8.67a6.14,6.14,0,0,1-2.44,2.89c-.22.22-1.11.44-1.11-.23V45.6s-4.89,3.78-6.67,5.33L1.48,57.6A4.91,4.91,0,0,0,2.6,61.16c1.55,1.11,3.11,1.11,5.11.22a26.6,26.6,0,0,0,10.22-9.56,13.54,13.54,0,0,0,1.55-6.67V14.94Z"/><path class="cls-3" d="M142.81,34.44h2.89a1.52,1.52,0,0,0,.76-2.8c-1.42-.76-2.75-1.81-4.1-2.69L140,27.38c-.19-.13-.39-.25-.58-.39s0,0,0,0,.09,0-.24-.19-.47-.35-.71-.52a1.5,1.5,0,0,0-2.05.54l-3.56,8,2.74.36-3.08-10.88a2.72,2.72,0,0,0-.94-1.79,14.38,14.38,0,0,0-1.91-.88,31.09,31.09,0,0,0-5.12-2.17c-1.16-.29-2.5,1.09-1.69,2.21A10.59,10.59,0,0,0,124.51,24c.35.26,0-.75-.09-.49a2,2,0,0,0,0,.49v23.4l1.1-1.44-2.22.44a1.51,1.51,0,0,0-.36,2.74c1.09.66,2.07,1.47,3.13,2.15s2.06,1.23,3.09,1.85a1.51,1.51,0,0,0,2.05-2L130,48.79c-.08-.13-.15-.32-.24-.44-.32-.43.36.24.11.56,0,0,0-.25,0-.31.1-1.58,0-3.21,0-4.79V34l-3,.4,4.44,15.77a1.52,1.52,0,0,0,2.9,0l4.44-11.55-2.95-.4V54.93l1.5-1.5-2,.22a1.52,1.52,0,0,0-.75,2.8,74,74,0,0,1,9.25,7.32A1.5,1.5,0,0,0,146.09,62L144.55,59a5.92,5.92,0,0,0-.33-.61c-.37-.51.21.32.08.51,0-.06,0-.27,0-.33.14-1.65,0-3.36,0-5V32.94a1.5,1.5,0,0,0-3,0c0,8.5-.17,17,0,25.52,0,1.76,1.4,3.48,2.2,5l2.36-1.82A78.68,78.68,0,0,0,136,53.86l-.76,2.79,2-.22a1.54,1.54,0,0,0,1.5-1.5V38.26c0-1.78-2.36-1.91-2.94-.4l-4.45,11.56h2.9L129.8,33.64a1.5,1.5,0,0,0-2.94.4V44.16c0,1.52-.07,3.06,0,4.58,0,1.33,1.14,2.69,1.76,3.83l2-2c-1-.62-2.07-1.21-3.08-1.85-.25-.16-.73-.57-1.33-1s-1.2-.79-1.81-1.16l-.36,2.74,2.23-.44a1.51,1.51,0,0,0,1.1-1.45V24.15a3.1,3.1,0,0,0-.21-1.54,21.94,21.94,0,0,0-1.77-2.44l-1.69,2.21a5.13,5.13,0,0,0,.68.14c-.34-.1.12.06.21.1l2,.91,3.45,1.59-.69-.9L132.7,36c.32,1.13,2.19,1.59,2.74.36l3.56-8-2.06.53c2.62,1.78,5.31,3.89,8,5.34l.76-2.79h-2.89A1.5,1.5,0,0,0,142.81,34.44Z"/><path class="cls-3" d="M117.43,16.82c-3-1.13-6-2.19-9.1-3.11a1.51,1.51,0,0,0-1.46,2.51l2,1.77-.39-1.46c-2.3,6.94-4.15,14-6,21.11l1-1L102,37c-1.13.32-1.59,2.2-.36,2.74l3.23,1.42,1.87.82.43.19a4,4,0,0,0,.7.23c1.22.57,3-.69,2-2l-1.55-2.22.15,1.15.67-3.11-1.85,1,5.56,2-1.1-1.45.44,3.77,1.1-1.44-2,.44a1.51,1.51,0,0,0-.66,2.51,16.1,16.1,0,0,0,3.73,1.74c.68.29,1.35.59,2,.93,1.78.89,3.54,1.85,5.23,2.89a1.51,1.51,0,0,0,2-2,23,23,0,0,1-1.45-2.49c-.16-.4,0,.29,0-.29,0-.34-.1-.67-.15-1-.12-.73-.23-1.46-.34-2.19q-.74-4.93-1.43-9.89-.92-6.43-1.79-12.87a1.52,1.52,0,0,0-1.85-1.05,1.55,1.55,0,0,0-1,1.85c1.1,8.1,2.21,16.2,3.45,24.29a8.08,8.08,0,0,0,.71,2.87c.43.77.89,1.52,1.33,2.29l2-2.06c-1.66-1-3.4-2-5.15-2.86-.61-.31-1.23-.59-1.86-.87l-1.64-.7-1.13-.49c-.16-.06-1.15-.63-.58-.17l-.66,2.5,2-.44a1.51,1.51,0,0,0,1.1-1.45l-.44-3.77a1.61,1.61,0,0,0-1.11-1.45l-5.55-2a1.52,1.52,0,0,0-1.85,1c-.22,1-.54,2.07-.67,3.11-.16,1.28,1,2.39,1.71,3.38l2-2c-.15-.07-1-.35-.68-.22-.13,0-.25-.12-.38-.17-.65-.26-1.29-.57-1.93-.85l-3.23-1.42-.36,2.74c.81-.23,2-.35,2.45-1.13a4,4,0,0,0,.34-1.08q.7-2.67,1.43-5.33c1.37-5,2.74-10.1,4.38-15.06a1.46,1.46,0,0,0-.38-1.46l-2-1.77-1.46,2.5c3.08.93,6.1,2,9.1,3.11C118.44,20.4,119.22,17.5,117.43,16.82Z"/><path class="cls-3" d="M110,33.55c.87-3.48,1.74-7,2.67-10.44l-2.95-.4,1.36,10.51.19,1.49,1.9-1.45L109,31.71a1.5,1.5,0,1,0-.8,2.89l4.23,1.56a1.5,1.5,0,0,0,1.89-1.45L113,24.2l-.19-1.49a1.52,1.52,0,0,0-1.3-1.47,1.5,1.5,0,0,0-1.65,1.07c-.93,3.47-1.8,7-2.67,10.45C106.68,34.63,109.57,35.43,110,33.55Z"/><path class="cls-3" d="M95.2,34.27V23.82l-1.5,1.5H95L94,24.88,96.42,28c.83,1.06,2.56.13,2.56-1.06V19.38a1.52,1.52,0,0,0-2.56-1.06l-2.23,2.44,1.06-.44-1.77-.22L95,21.6V13.82l-1.9,1.44,4.22.67-.89-.69,2.89,4.89a1.51,1.51,0,0,0,2.79-.76l.22-6.44a1.52,1.52,0,0,0-1.1-1.45C96.08,10.55,90.9,9.66,85.7,9.21a1.51,1.51,0,0,0-1.06,2.56l2,1.77-.44-1.06v22L87.3,33l-2.89.89a1.51,1.51,0,0,0,.4,2.95h1c-.51,0-.33-.06-.09,0,.51.11,1,.19,1.54.29l5.51,1.05c2.54.48,5.07.94,7.59,1.5a1.52,1.52,0,0,0,1.9-1.45V30.48a1.52,1.52,0,0,0-2.8-.76,38.24,38.24,0,0,1-2.87,4.37l1.46-.39a34.4,34.4,0,0,1-4-.88,1.5,1.5,0,0,0-.8,2.89c.79.22,1.59.41,2.39.59,1.39.3,2.51.64,3.48-.62a45.39,45.39,0,0,0,2.93-4.44l-2.79-.76v7.77l1.9-1.44c-2.6-.58-5.22-1.06-7.83-1.55-2.8-.53-5.71-1.39-8.57-1.39l.4,2.94,2.89-.88a1.55,1.55,0,0,0,1.1-1.45V13.12a2.28,2.28,0,0,0-.44-1.7,21.18,21.18,0,0,0-2-1.78L85.7,12.21c4.93.43,9.84,1.28,14.71,2.17l-1.1-1.45-.22,6.44,2.8-.75c-.94-1.59-1.81-3.25-2.83-4.79-.59-.88-1.4-.86-2.35-1l-2.83-.45A1.53,1.53,0,0,0,92,13.82V21.6a1.54,1.54,0,0,0,1.5,1.5c1.08.14,2.11.49,3-.36s1.4-1.54,2.09-2.3L96,19.38v7.56l2.56-1.06-2-2.55c-.8-1-1.6-1-2.84-1a1.52,1.52,0,0,0-1.5,1.5V34.27A1.5,1.5,0,0,0,95.2,34.27Z"/><path class="cls-3" d="M79.35,16.89a9,9,0,0,0,4.66-4A10.21,10.21,0,0,0,85,7.07c-.44-3.62-3-5.94-6.49-6.78A20.28,20.28,0,0,0,73.92,0c-1.69,0-3.38,0-5.07,0l-6,.09c-1.38,0-2.18,2.14-.76,2.8l2.89,1.33-.74-1.3V34l.74-1.29-2.67,2c-1.07.8-.88,2.88.76,2.79l5.39-.29a67.78,67.78,0,0,0,8.68-.57,10.59,10.59,0,0,0,4.69-2,10.57,10.57,0,0,0,2.84-4.05A17,17,0,0,0,85.37,21a8.65,8.65,0,0,0-2.44-4.38,20,20,0,0,0-3.58-2.3,1.5,1.5,0,0,0-1.51,2.59,14.51,14.51,0,0,1,3.16,2,6.84,6.84,0,0,1,1.64,4.64c.18,3.22-.35,7.8-3.67,9.35-3,1.39-6.53,1.13-9.75,1.31L63,34.54l.76,2.8c.88-.67,1.83-1.28,2.67-2a2.15,2.15,0,0,0,.74-2V2.93a1.47,1.47,0,0,0-.74-1.29L63.57.31,62.81,3.1C67.05,3,71.3,2.94,75.54,3c2.4,0,5.1.58,6.16,3.06a7,7,0,0,1,0,4.59,6.2,6.2,0,0,1-3.84,3.61C76.07,15.06,77.59,17.65,79.35,16.89Z"/><path class="cls-3" d="M71,5.34a3.17,3.17,0,0,0,2.27.15h-.8c.36,0,.72.1,1.08.13l.4,0,.33,0c-.18,0,.18,0,.23,0a3.58,3.58,0,0,1,.35.09l.17,0c-.07,0-.24-.14,0,0l.15.09c.07,0,.06,0,0,0s-.08-.06,0,0l.12.13s-.12-.18,0,0l.1.18s-.08-.21,0-.06.14.51.2.77.1.52.14.78c0-.27,0,0,0,.14s0,.33,0,.49,0,.57,0,.85,0,.29,0,.43-.06.51,0,.24a7.26,7.26,0,0,1-.2.9c0,.13-.08.26-.13.39s0,.13-.07.2c.06-.14,0-.09,0,0a5.64,5.64,0,0,1-.42.7c.15-.19,0-.08-.06,0s.23-.14.09-.08l-.18.12s-.35.18-.16.09-.14,0-.19.06a4.74,4.74,0,0,1-.72.18c-.07,0-.45.07-.24,0s-.21,0-.27,0l-.64,0c-.21,0-.42,0-.63,0l1.5,1.5V4a1.5,1.5,0,0,0-3,0V14a1.52,1.52,0,0,0,1.5,1.5,10.19,10.19,0,0,0,2.64-.19,4.6,4.6,0,0,0,3.43-2.59,9.57,9.57,0,0,0,.78-4.84c-.14-1.65-.44-3.51-1.91-4.52A5.54,5.54,0,0,0,74,2.67l-.54,0-.27,0c-.47,0,.42.07-.21,0a2.3,2.3,0,0,0-.69.05c-.15,0,.07.07-.14,0,.34.08.15,0,.08,0s-.36-.16.19.1a1.54,1.54,0,0,0-2,.54A1.51,1.51,0,0,0,71,5.34Z"/><path class="cls-3" d="M75.08,29.74c-.63,1.4-2.44,1.45-3.77,1.75l1.9,1.45V17.16l-1.5,1.5a8.42,8.42,0,0,1,.87,0,6.47,6.47,0,0,1,1.56.2,4.91,4.91,0,0,1,.77.27s.39.25.18.1c.06,0,.29.35.14.13a5.21,5.21,0,0,1,.61,1.71,16.22,16.22,0,0,1,.26,4.77A13.14,13.14,0,0,1,75.75,28a5.45,5.45,0,0,1-.67,1.75c-1,1.65,1.58,3.16,2.59,1.51a12.32,12.32,0,0,0,1.43-5.42,17.92,17.92,0,0,0-.46-5.93,4.89,4.89,0,0,0-3.31-3.83,10.3,10.3,0,0,0-3.62-.41,1.52,1.52,0,0,0-1.5,1.5V32.94a1.51,1.51,0,0,0,1.89,1.44c2.16-.47,4.55-.87,5.57-3.13a1.55,1.55,0,0,0-.54-2.05A1.5,1.5,0,0,0,75.08,29.74Z"/><path class="cls-3" d="M55.58,14.68,58,12.9a1.51,1.51,0,0,0-1.16-2.74,54.53,54.53,0,0,0-7.43,2c-1.36.47-1.59,2.41-2,3.63L44,26.54h2.89L42.26,15.43a1.53,1.53,0,0,0-1.85-1L33.75,16.6a1.52,1.52,0,0,0,0,2.9l2.23.67-1.1-1.45V42.05L35.32,41c-.91,1-3.95,4.16-1.14,4.94.75.21,1.49-.27,2.17-.55l2.4-1,2.69-1.11c1-.42,1.69-2.15.36-2.74l-2-.89.75,1.3V25.16l-2.8.76,6,12.67c.59,1.24,2.38.77,2.74-.36l4.44-13.77L48,24.06V37.39l.44-1.06-1.56,2c-.83,1.07-.12,3,1.46,2.5,3.18-1,6.3-1.94,9.56-2.67,1.52-.34,1.32-2.45,0-2.89l-2.67-.89,1.1,1.45V13.38a1.5,1.5,0,0,0-3,0V35.83a1.54,1.54,0,0,0,1.1,1.45l2.67.88V35.27c-3.26.72-6.38,1.66-9.56,2.67L49,40.45c.74-1,1.95-2,2-3.28s0-2.75,0-4.12v-9a1.51,1.51,0,0,0-3-.4L43.6,37.43l2.74-.36-6-12.67c-.66-1.38-2.79-.65-2.79.76V40.94a1.46,1.46,0,0,0,.74,1.29l2,.89.36-2.74-2.23.91-2,.83-1,.44c-.45.18-1.2.18-.43.47l1,1c.21.9-.29,1.14.2.48.13-.17.27-.34.41-.5.26-.32.57-.61.82-.94a2.29,2.29,0,0,0,.45-1.56c0-1.58,0-3.17,0-4.76V18.72a1.54,1.54,0,0,0-1.1-1.45l-2.23-.67v2.9l6.66-2.23-1.84-1.05L44,27.34a1.51,1.51,0,0,0,2.89,0L51.15,14l-1,1a75.57,75.57,0,0,1,7.55-2l-1.15-2.74-2.45,1.78C52.51,13.21,54,15.81,55.58,14.68Z"/><path class="cls-3" d="M31.66,21.77l1.55-2a1.51,1.51,0,0,0-1.82-2.35l-2.15.89c-.58.24-1.16.48-1.75.7a4.66,4.66,0,0,0-.49.16c-.62.3.68-.28-.36.1a37.52,37.52,0,0,0-4.8,2.37c-1.45.76-.59,2.64.76,2.8l2,.22-1.5-1.5V48.05L23.54,47a22.61,22.61,0,0,0-2.24,3.19,1.51,1.51,0,0,0,2.05,2c3.58-1.69,6.79-4,10.45-5.56,1.3-.55.7-2.35-.36-2.74L31,43.05l1.11,1.44V20.71a1.5,1.5,0,0,0-3,0V44.49a1.55,1.55,0,0,0,1.1,1.45l2.44.89-.36-2.75c-3.65,1.56-6.86,3.87-10.44,5.56l2.05,2a15.93,15.93,0,0,1,1.17-1.77c.19-.27.39-.53.58-.79l.18-.24a2,2,0,1,1,.15-.26,3.26,3.26,0,0,0,.13-1.28V23.16a1.54,1.54,0,0,0-1.5-1.5l-2-.22.75,2.79,2.25-1.17,1.62-.81c.71-.34-.73.2.35-.12A49,49,0,0,0,32.91,20l-1.82-2.36-1.56,2C28.36,21.16,30.47,23.3,31.66,21.77Z"/><path class="cls-3" d="M20.06,11,9.18,16.75a1.51,1.51,0,0,0,.75,2.8H12.6l-1.5-1.5V36.14c0,2.84,0,5.69,0,8.53,0,1.92,0,3.87-.11,5.79-.08,1.65-.32,3.33-1.62,4.49-.08.06-.6.5-.6.49l1.11,1v0a2.08,2.08,0,0,0,0-.61V45.6a1.52,1.52,0,0,0-2.56-1.06C5.16,46.21,2.86,47.81.88,49.68c-.84.79-.69,1.88-.73,3L0,56.69a9.11,9.11,0,0,0,.57,4.14,5.17,5.17,0,0,0,5.9,2.54c2.33-.49,4.48-2.11,6.32-3.55a26.79,26.79,0,0,0,4.48-4.55,17.48,17.48,0,0,0,3.28-6.22A14.22,14.22,0,0,0,21,44.94c0-1.47,0-2.94,0-4.41V16.38A4.69,4.69,0,0,0,21,15c-.1-.28-.43.85-.16.62s.36-.7.46-.91L22.12,13c.86-1.73-1.73-3.25-2.59-1.52C19,12.64,18,13.91,18,15.2s0,2.38,0,3.56V44a15.35,15.35,0,0,1-.56,5c-1.14,3.41-3.9,6.43-6.73,8.61-1.53,1.18-3.94,3.17-6,2.8C3,60.19,3,58.49,3,57.09l.21-6.16L2.77,52c2.15-1.87,4.42-3.6,6.67-5.34L6.88,45.6v9.94A5.2,5.2,0,0,0,7,57.12c.53,1.54,2.27,1.53,3.43.79C13.86,55.69,14,51.73,14,48c0-7.13.07-14.28.07-21.42V18.05a1.52,1.52,0,0,0-1.5-1.5H9.93l.76,2.8,10.89-5.79C23.28,12.66,21.77,10.07,20.06,11Z"/><path class="cls-2" d="M8.15,52l.23-6.44,1.77.88V57.15H8.38L8.15,52Zm99.78-11.55-1.33-.67s3.33-14,4.88-17.33l.45,3.78Z"/><path class="cls-3" d="M8.15,52a27.82,27.82,0,0,1-.61-3.23c-.13-1.08-.26-2.17-.33-3.25L7.1,43.87l1.8.68c.62.23,1.24.48,1.85.73l.68.29.07.91a67.87,67.87,0,0,1-.13,10.67l-.12,1.32-1.1-.1c-.59,0-1.18-.12-1.77-.2L7.27,58l.09-.84c.1-.87.16-1.73.3-2.59A25.29,25.29,0,0,1,8.15,52Zm0,0a24.87,24.87,0,0,1,.72,2.54c.22.85.35,1.69.53,2.53l-1-1,1.77-.2L8.94,57.15a66.69,66.69,0,0,1-.13-10.67l.74,1.21c-.57-.34-1.13-.69-1.69-1l1.69-1C9.4,46.7,9.2,47.76,9,48.83A29.2,29.2,0,0,1,8.15,52Z"/><path class="cls-3" d="M107.93,40.49c-.4-.13-.91-.24-1.46-.42l-.16-.06,0-.25c.12-1.52.28-3,.51-4.52s.49-3,.77-4.47.64-3,1-4.43a31.75,31.75,0,0,1,1.49-4.48l2.2-5.07.64,5.53c.15,1.26.27,2.52.39,3.78l0,.32-.08.24c-.39,1.26-.81,2.52-1.25,3.76s-.91,2.44-1.37,3.62-.94,2.31-1.41,3.38S108.36,39.53,107.93,40.49Zm0,0,1.24-7.77.62-3.49c.23-1.13.48-2.24.75-3.35l0,.56c-.18-1.26-.35-2.51-.5-3.77l2.84.46c-.51,1.18-1,2.64-1.44,4L110,31.41c-.49,1.41-1,2.84-1.49,4.25s-1.06,2.82-1.65,4.23l-.14-.31C107.06,39.84,107.44,40.17,107.93,40.49Z"/><path class="cls-2" d="M102.37,38.49l1.56,1.78,5.33,2.22c.22,0-1.11-2.22-1.11-2.22ZM33.71,19.6l-1.33,2V45.15l.67.23,1.55.67a12.49,12.49,0,0,1-2,1.11,60.72,60.72,0,0,0-8.22,4.67l-1.78-.89s3.78-2.44,5.12-3.11c1.11-.67,5.33-2.44,5.33-2.44l-2.67-.89V21.17a17,17,0,0,1,1.77-2.44,8.18,8.18,0,0,1,1.56.87ZM20.6,15.82l.22,30.89a15.43,15.43,0,0,1-2,6.89c-2.44,4-5.33,6.67-10,9.55-2,.67-3.55.89-5.11-.22A4.49,4.49,0,0,1,1.94,59.6s0,2,3.33,2.45C7,62.27,11.93,58.72,13,57.6c0,0,6-5.55,6-10.66V15.16l1.77-2.89,1.12,1.55-1.33,2Zm20.45,26,2,.67s-4,1.78-6.89,2.89a9.39,9.39,0,0,1-1.56-.89l6.45-2.67-2.23-.67V24.71l2.23,4.89V41.82ZM45.71,27.6,40.82,15.82l2,.45,3.77,8.22-.88,3.11ZM57.26,14.27V36.71l2,1.11a33.9,33.9,0,0,0-4.88,1.12l-4.89,1.33-1.56-.89s3.11-1.11,4.89-1.56c1.56-.44,4.67-1.11,4.67-1.11l-2.67-.89V13.38l2.44-1.77,1.56,1.11-1.56,1.55ZM49.49,29.6,46.6,38.49,45,37.82l4.45-14.23v6Zm36-6.89c-.67-4.22-2.89-4.89-5.12-6a16.17,16.17,0,0,0,3.33-2,8.35,8.35,0,0,0,.89-8.22c-1.11-2.23-4.67-4-4.67-4s2.67.89,3.33,5.33a7.28,7.28,0,0,1-4.88,7.77l2,1.33s3.33,2.89,3.55,6c0,4.23-.22,6-2.44,9.56a11.07,11.07,0,0,1-7.11,2.89L63,36l1.55,1.12s8.23-.23,12.22-.45a11.64,11.64,0,0,0,4.89-1.55c3.79-2.66,4.89-7.33,3.79-12.44Zm-8.67-16C77,2.71,71.26,4,71.26,4V14.26h2V5.83S75.93,5.61,76.82,6.71Z"/><path class="cls-3" d="M101.31,39.55,102.57,41a2.2,2.2,0,0,0,1,.72l.38.16,4.14,1.73c.79.33,1.5.68,2.29-.06,1-.92.08-2.32-.44-3.24-.14-.25-.28-.5-.43-.75a1.77,1.77,0,0,0-1-.76c-.54-.18-1.08-.34-1.62-.5l-4-1.24a1.5,1.5,0,0,0-1.84,1,1.53,1.53,0,0,0,1,1.85l5,1.55.74.22-.9-.69c.19.31.37.63.54.94s.26.47.38.71l.14.28c-.26-.52-.13-.32-.1-.21.14.59.08-1.05.4-1.31l.66-.39h.79l-5.33-2.23.66.39-1.56-1.78a1.51,1.51,0,0,0-2.12,0A1.54,1.54,0,0,0,101.31,39.55Z"/><path class="cls-3" d="M32.41,18.84c-.75,1.13-1.53,2-1.53,3.4V45.15A1.54,1.54,0,0,0,32,46.6l.6.2c-.58-.19-.06,0,.08,0l1.18.5V44.75C32,46,29.91,46.71,28,47.81c-1.49.86-3,1.77-4.39,2.72h1.51l-1.77-.88v2.59c1.67-1.09,3.36-2.17,5.11-3.12.92-.49,1.87-.93,2.83-1.35.54-.25,1.09-.49,1.64-.72.19-.08,1.21-.51.5-.22a1.51,1.51,0,0,0,0-2.89l-2.66-.89,1.1,1.45V22.34a3.7,3.7,0,0,0,0-1.15c.08.18-.47.89-.09.56a3.62,3.62,0,0,0,.42-.65c.18-.26.35-.54.55-.8s.45-.42.15-.28l-1.16.15c-.2,0,0-.07.08,0a4.15,4.15,0,0,0,.53.32l.59.37c1.61,1.07,3.12-1.52,1.51-2.59-1-.69-2.36-1.62-3.49-.55a9.14,9.14,0,0,0-2,2.84c-.43,1.1-.13,2.72-.13,3.86V44.5A1.52,1.52,0,0,0,30,45.94l2.67.89V43.94a68.34,68.34,0,0,0-10.8,5.71,1.51,1.51,0,0,0,0,2.59l1.77.88a1.48,1.48,0,0,0,1.51,0q2.16-1.42,4.39-2.72c1.91-1.1,4-1.85,5.84-3.06.83-.55,1.11-2.11,0-2.59-.86-.37-1.7-.75-2.58-1l1.1,1.44V22.93a4.29,4.29,0,0,0,0-1.29s-.32.75-.14.62a2.57,2.57,0,0,0,.4-.61L35,20.36C36.08,18.74,33.48,17.24,32.41,18.84Z"/><path class="cls-3" d="M19.1,15.82l.13,17.44.07,10.66c0,.85,0,1.7,0,2.56a13.12,13.12,0,0,1-2,6.68,24.56,24.56,0,0,1-7.13,7.3c-1.44,1-3.43,2.39-5.24,1.48a2.79,2.79,0,0,1-1.35-1.57c-.09-.23-.1-.48-.18-.71.06.17,0,.06,0-.06h-3c.06,2.54,3.05,4.1,5.32,3.93a9.78,9.78,0,0,0,4-1.67,29.78,29.78,0,0,0,3.69-2.63c3.56-3,7-7.69,7.08-12.44.12-8.51,0-17,0-25.55V15.87a3.37,3.37,0,0,0,0-.55c-.09-.5-.13.5-.16.52.38-.24.73-1.2,1-1.58L22.11,13H19.52l1.11,1.55V13.07l-1.32,2c-1.07,1.61,1.53,3.12,2.59,1.51l1.32-2a1.46,1.46,0,0,0,0-1.51l-1.11-1.56a1.52,1.52,0,0,0-2.59,0c-.68,1.11-1.91,2.45-2,3.79-.05,1,0,2.09,0,3.13V44.7c0,.74,0,1.49,0,2.23-.06,3-2.06,5.76-3.95,7.92A22,22,0,0,1,8.65,59c-1,.63-2.43,1.67-3.57,1.47a2.8,2.8,0,0,1-1.53-.74c-.17-.2-.12-.49-.11-.16,0-1.92-3-1.93-3,0A5.82,5.82,0,0,0,5.2,65.13c3.68.57,7-2.18,9.57-4.42C19,57.09,22.34,52,22.32,46.24c0-7.43-.11-14.86-.16-22.3l-.06-8.12A1.5,1.5,0,0,0,19.1,15.82Z"/><path class="cls-3" d="M40.65,43.27l2,.67-.36-2.74c-2.16.95-4.33,1.88-6.53,2.73h.8c-.18,0,.19.17-.15-.08-.14-.1-.3-.17-.45-.26l-.6-.39L35,45.94l6.44-2.67a1.51,1.51,0,0,0,0-2.89l-2.22-.67,1.1,1.44V24.71l-2.8.76,2,4.47c.36.8-.15,0,0-.32,0,.09,0,.31,0,.41V41.82a1.5,1.5,0,0,0,3,0V30.3A5.18,5.18,0,0,0,42,28L40.12,24c-.64-1.4-2.8-.64-2.8.76V41.15a1.53,1.53,0,0,0,1.1,1.45l2.23.67V40.38L34.2,43.05a1.53,1.53,0,0,0-.36,2.74,7.07,7.07,0,0,0,1.84,1c1.06.29,2.5-.63,3.46-1,1.56-.64,3.12-1.31,4.66-2,1.27-.57.75-2.38-.36-2.74l-2-.67C39.61,39.76,38.82,42.66,40.65,43.27Z"/><path class="cls-3" d="M47.15,27.2,42.88,16.9l-.61-1.47-1.85,1.84,2,.44-.9-.68,3.78,8.22-.15-1.16-.89,3.11a1.5,1.5,0,0,0,2.89.8c.29-1,.62-2,.86-3a4.22,4.22,0,0,0-.73-2.58l-3.05-6.65c-.51-1.11-1.95-1.15-3-1.38s-2.32.71-1.85,1.84l4.28,10.31L44.26,28a1.55,1.55,0,0,0,1.85,1.05A1.51,1.51,0,0,0,47.15,27.2Z"/><path class="cls-3" d="M55.76,14.27V36.71a1.52,1.52,0,0,0,.75,1.3l2,1.11.35-2.74c-.84.14-1.68.29-2.51.47-.58.12-1.17.24-1.74.41-.24.07-.46.17-.69.25-.57.2.31-.09-.07,0-1.59.42-3.17.87-4.76,1.3l1.16.15-1.56-.89-.36,2.75a75.27,75.27,0,0,1,9.56-2.67c1.53-.33,1.31-2.46,0-2.9l-2.67-.88,1.1,1.44V13.38l-.74,1.3L58,12.9H56.51L58.06,14l-.3-2.35L56.2,13.21a1.5,1.5,0,0,0,2.12,2.12l1.56-1.55a1.53,1.53,0,0,0-.3-2.36L58,10.31a1.46,1.46,0,0,0-1.51,0c-1.16.84-3.13,1.73-3.19,3.3,0,1.4,0,2.81,0,4.21v18a1.54,1.54,0,0,0,1.1,1.45l2.67.89v-2.9a77,77,0,0,0-9.56,2.67,1.52,1.52,0,0,0-.35,2.74c.92.53,1.77,1.24,2.88,1s2.35-.64,3.52-1a61,61,0,0,1,6.08-1.44A1.51,1.51,0,0,0,60,36.53l-2-1.11.74,1.29V14.27A1.5,1.5,0,0,0,55.76,14.27Z"/><path class="cls-3" d="M48,29.2l-2.89,8.89,2.21-.9-1.56-.67.69,1.7,3.89-12.44L50.93,24,48,23.59v6a1.5,1.5,0,0,0,3,0v-6a1.51,1.51,0,0,0-3-.4L44.16,35.63l-.56,1.79a1.49,1.49,0,0,0,.69,1.69l1.55.67a1.54,1.54,0,0,0,2.21-.9L50.93,30C51.53,28.16,48.64,27.37,48,29.2Z"/><path class="cls-3" d="M86.93,22.31a8.46,8.46,0,0,0-2.26-4.74,13.47,13.47,0,0,0-3.54-2.15V18c1.93-1.11,3.74-1.82,4.73-4a10.14,10.14,0,0,0,.67-6.33c-.62-3.08-3.15-5.16-5.85-6.53L79.52,3.93c-.47-.16,0,0,.29.19a4.62,4.62,0,0,1,.94,1,6.55,6.55,0,0,1,.81,5.38,5.53,5.53,0,0,1-2.11,2.81,10.53,10.53,0,0,1-1.21.7c-.34.17.2-.08-.12.05l-.15.06a1.52,1.52,0,0,0-.36,2.74l1.1.73.62.41c.43.27.08,0,0,0a11.91,11.91,0,0,1,2.23,2.67c1.74,2.9.82,7.17-.77,10-2.14,3.79-8,3.29-11.74,3.51l-6,.35a1.52,1.52,0,0,0-.76,2.8,5.17,5.17,0,0,0,2.35,1.32A22.67,22.67,0,0,0,67,38.58c3.11-.1,6.24-.17,9.35-.35a11.27,11.27,0,0,0,9.26-5C87.62,30,87.68,26,86.93,22.31c-.39-1.89-3.28-1.09-2.89.8.63,3.07.55,6.55-1.44,9.14s-4.87,2.92-7.83,3c-2.69.12-5.37.2-8.06.29a6.25,6.25,0,0,0-2,.06c-.32.14.66.37.6.15s-.44-.31-.52-.37l-1-.69L63,37.53l11.38-.66c3.35-.2,7.13-1.47,8.88-4.52a14.35,14.35,0,0,0,1.93-5.45,12.53,12.53,0,0,0-.37-6.32C83.68,17.71,81.6,16,79.12,14.3L78.77,17a8.86,8.86,0,0,0,5.82-6.26C85.34,7.35,84,2.33,80.32,1c-1.59-.56-2.67,2-1.15,2.74,1.67.85,3.73,2.11,4.29,4a7.11,7.11,0,0,1-.13,4.6c-.68,1.74-2.2,2.17-3.71,3a1.51,1.51,0,0,0,0,2.59,13.54,13.54,0,0,1,2.74,1.51A5.73,5.73,0,0,1,84,23.11C84.37,25,87.26,24.2,86.93,22.31Z"/><path class="cls-3" d="M78.32,6.71a4.08,4.08,0,0,0-3.67-4.26,10.28,10.28,0,0,0-3.79.15A1.51,1.51,0,0,0,69.76,4V14.26a1.52,1.52,0,0,0,1.5,1.5h2a1.52,1.52,0,0,0,1.5-1.5V5.83l-1.5,1.5a7,7,0,0,1,1.29,0l.21,0c-.4,0,0,0,0,0a4.37,4.37,0,0,1,.49.12l.27.09c-.33-.1-.1,0,0,0s.12.09,0,0l.21.21a1.5,1.5,0,0,0,2.12,0,1.53,1.53,0,0,0,0-2.12c-1.06-1.23-3.09-1.44-4.62-1.32a1.52,1.52,0,0,0-1.5,1.5v8.43l1.5-1.5h-2l1.5,1.5V4l-1.1,1.45.21,0,.25,0,.15,0c.24,0-.41,0-.17,0a11.07,11.07,0,0,1,1.82,0c.06,0,.37,0,.09,0s0,0,.08,0l.48.11a.9.9,0,0,0,.23.08c.13,0-.34-.18-.07,0,.07,0,.51.3.28.15s0,0,.06.06.1.12.16.17-.18-.32,0,0c0,0,.18.32.06.08s0,0,0,.11,0,.18.06.27,0-.34,0,0v.38a1.5,1.5,0,0,0,3,0Z"/><path class="cls-2" d="M71.26,16.94v16s.67.44,2.23-.23V18.27s1.77.22,3.11.44C76.59,18.71,76.37,16.71,71.26,16.94Zm31.11-2.89v6.67l-1.77-1.33V12.94ZM97.48,26.94V19.38L99,20.49v7.56Zm-4-3.12H95l2.22,2.89-2-1.77v9.78l-1.77-.23ZM93.26,13.6l4.44.67L98.82,16,95,15.37V22l-1.77-.44v-8Z"/><path class="cls-3" d="M71.26,16.94l.49,4.32.43,4,.33,3.86c.08,1.26.14,2.52.18,3.77l-.64-1.2-.14-.08,0,0h0a.79.79,0,0,0,.25,0,3,3,0,0,0,.74-.26L72,32.71c0-2.41,0-4.81,0-7.22,0-1.2.07-2.41.13-3.61s.15-2.41.23-3.61l.08-1.3,1.13.23c1,.2,2.08.48,3.11.71l7.44,1.72-7.57-.11a.84.84,0,0,1-.52-.2.78.78,0,0,1-.27-.46h0v0s0,0,0-.07-.06-.12-.09-.19a1.74,1.74,0,0,0-.38-.39,4.36,4.36,0,0,0-1.18-.6,8.71,8.71,0,0,0-1.4-.38C72.23,17.1,71.84,17,71.26,16.94Zm0,0a13.21,13.21,0,0,1,1.51-.25,10.22,10.22,0,0,1,1.57,0,5.2,5.2,0,0,1,1.62.4,3,3,0,0,1,.81.51,2.07,2.07,0,0,1,.36.41,2.75,2.75,0,0,1,.15.25l.06.15,0,.09v0a.78.78,0,0,0-.26-.43.88.88,0,0,0-.52-.18l-.13,1.61c-1-.06-2.09-.08-3.12-.17l1.22-1.07c.07,1.2.18,2.41.22,3.61s.1,2.41.14,3.61c.06,2.41.06,4.81,0,7.22l0,1-.88.36a6.1,6.1,0,0,1-1.46.41,4.23,4.23,0,0,1-.89,0c-.16,0-.33,0-.52-.08l-.29-.09-.17-.07-.27-.15-.66-.42,0-.77c0-1.42.1-2.83.19-4.24s.2-2.78.32-4.13.27-2.68.43-3.95S71.09,18.1,71.26,16.94Z"/><path class="cls-3" d="M102.37,14.05a9.12,9.12,0,0,1,.55,1.45c.16.52.3,1.06.42,1.63a25.69,25.69,0,0,1,.46,3.59l.17,2.75-2.46-1.61c-.62-.4-1.22-.83-1.81-1.27l-.61-.46v-.74a26.36,26.36,0,0,1,.79-6.45l.35-1.35.73.75A9.42,9.42,0,0,1,102.37,14.05Zm0,0-2.15-.5,1.09-.61a25.87,25.87,0,0,1,.78,6.45l-.59-1.2c.59.44,1.17.9,1.73,1.38l-2.29,1.15a22.52,22.52,0,0,1,.47-3.09c.12-.54.25-1.1.42-1.69S102.16,14.72,102.37,14.05Z"/><path class="cls-3" d="M97.48,26.94a18.2,18.2,0,0,1-1-3.54,32.51,32.51,0,0,1-.45-4l-.13-2.71,2.42,1.53c.54.35,1.06.71,1.59,1.07l.63.44v.78a34.19,34.19,0,0,1-.2,3.78,25,25,0,0,1-.68,3.78l-.32,1.21-.65-.71A9.4,9.4,0,0,1,97.48,26.94Zm0,0c.75.25,1.38.42,1.91.61l-1,.5a23.83,23.83,0,0,1-.68-3.78,36.83,36.83,0,0,1-.21-3.78l.63,1.22c-.51-.37-1-.75-1.52-1.15l2.28-1.18a25.21,25.21,0,0,1-.45,3.54C98.23,24.15,97.92,25.45,97.48,26.94Z"/><path class="cls-3" d="M93.49,23.82c.41-.09.94-.25,1.55-.34l.1,0,.18.15c.47.4.91.83,1.36,1.25s.87.86,1.31,1.29L96.65,27.4c-.75-.5-1.47-1-2.19-1.56l2-.9a86.33,86.33,0,0,1,.26,9.78l0,1.69-1.59-.24-1.77-.3L92,35.64l0-1.15c.09-1.94.26-3.88.52-5.69S93.17,25.29,93.49,23.82Zm0,0,.87,5.7c.26,1.74.43,3.36.52,5l-1.22-1.38c.6,0,1.19.1,1.78.16L93.8,34.72a86.33,86.33,0,0,1,.26-9.78l.23-2.76L96.06,24c.62.64,1.22,1.3,1.81,2l-1.34,1.25c-.3-.53-.63-1.05-.91-1.59S95,24.6,94.76,24l.28.13C94.61,24.08,94.11,23.92,93.49,23.82Z"/><path class="cls-3" d="M93.26,13.6a35.38,35.38,0,0,1,4.58-.22h.28l.34.4c.47.54.91,1.08,1.34,1.64l1.53,1.95-2.72-.19c-1.28-.1-2.55-.24-3.82-.4l1.69-1.42q.13,3.35,0,6.67l-.09,1.87-1.66-.5c-.59-.18-1.17-.36-1.75-.56l-1-.35,0-.9A50.34,50.34,0,0,1,93.26,13.6Zm0,0c.5,3.26,1.1,5.67,1.3,8l-1-1.25q.9.15,1.8.33L93.63,22c-.11-2.22-.11-4.44,0-6.67l.07-1.78,1.61.37c1.25.28,2.49.59,3.73.94l-1.19,1.76c-.31-.63-.61-1.27-.89-1.91l.63.41C96.36,14.78,95,14.14,93.26,13.6Z"/><path class="cls-2" d="M100.59,38.05l.22-7.56,1.77,1.56v7.77c-5.11-1.55-14.88-3.11-14.88-3.11L85,35.38s10.67.67,15.56,2.67Zm16.22,7.55c1.34.67,6.67,4,6.67,4l-.88-2.23c-1.34-8.44-3.33-26.88-3.33-26.88L117,18.26l3.11,26.22,2.45,2.89s-4.67-2.67-5.79-3.11C116.15,44,111.7,42,111.7,42l1.78,2.23,3.33,1.34Zm20.67-7.33v5.55l-2.89,7.33-1.78-1.33,4.45-11.55Zm-8.89-4,1.33,5.11V51.6L131,54.71,124.37,50a11.38,11.38,0,0,0-.67-2.22l6,3.77-1.33-2.67V34.48ZM135,33.6l-.89,2-3.33-11.78L133,25.6Zm9.56,29.11V34.27l2.44.22a4.36,4.36,0,0,1-.67-.88l-.89-.67h-2.88v26l2,3.56s-3.56-3.77-3.33-3.56c0,0-3.56-2.44-3.33-2.22l-2.67-1.56L137,58a23.54,23.54,0,0,0,2,1.56s3.33,2.67,3.11,2.44l3.33,2.89Z"/><path class="cls-3" d="M102.09,38.05l.22-7.56-2.56,1.06,1.77,1.56-.44-1.06v7.77l1.9-1.44a102.07,102.07,0,0,0-11.87-2.6l-2-.35c-.12,0-.86-.24-1-.16,0,0,.53.26.07,0l-.93-.46-1.48-.75L85,36.88c2,.11,3.91.33,5.85.57a38,38,0,0,1,9.31,2,1.5,1.5,0,0,0,1.85-1A1.55,1.55,0,0,0,101,36.6a40.29,40.29,0,0,0-9.9-2.12c-2-.26-4-.49-6.06-.6a1.51,1.51,0,0,0-.76,2.79,18.91,18.91,0,0,0,3,1.49,27.15,27.15,0,0,0,2.84.48,105,105,0,0,1,12,2.63,1.52,1.52,0,0,0,1.9-1.45V33.94a9.23,9.23,0,0,0,0-2.29c-.25-.9-1.49-1.63-2.16-2.22a1.52,1.52,0,0,0-2.56,1.06l-.22,7.56C99,40,102,40,102.09,38.05Z"/><path class="cls-3" d="M116.06,46.89c2.3,1.18,4.48,2.64,6.67,4,1,.65,2.7-.45,2.2-1.69a23.09,23.09,0,0,1-.88-2.21,27.16,27.16,0,0,1-.53-3.6c-.41-2.9-.77-5.81-1.12-8.71q-.83-6.84-1.58-13.69a2.63,2.63,0,0,0-.6-1.67c-.67-.74-1.42-1.42-2.12-2.12s-2.72-.29-2.56,1.06l3,25.57a3.3,3.3,0,0,0,.57,1.78c.74,1,1.6,1.89,2.4,2.82l1.81-2.35c-1.83-1-3.67-2.17-5.6-3-1.75-.79-3.54-1.51-5.29-2.3a1.51,1.51,0,0,0-1.82,2.36c.73.9,1.39,2.11,2.47,2.61s2.21.89,3.31,1.33c1.79.72,2.57-2.18.79-2.89a25.78,25.78,0,0,0-3.2-1.29c-.4-.1.65.68.4.17a4.84,4.84,0,0,0-.61-.76l-1-1.3L111,43.33c1.74.79,3.86,1.67,5.41,2.35s3.72,2,5.48,3a1.51,1.51,0,0,0,1.82-2.36l-2.45-2.89.44,1.06-2.72-23-.39-3.25L116,19.32l2.22,2.23-.43-1.06q.69,6.38,1.46,12.76c.4,3.36.82,6.73,1.28,10.08.19,1.39.28,2.85.6,4.21A18.79,18.79,0,0,0,122,50l2.2-1.7c-2.19-1.36-4.37-2.82-6.67-4C115.86,43.42,114.34,46,116.06,46.89Z"/><path class="cls-3" d="M136,38.27v2.52a24.52,24.52,0,0,0,0,3c0,.21.13-.42,0-.3a2.85,2.85,0,0,0-.12.31L135.43,45l-1.37,3.48-.92,2.32,2.21-.89-1.78-1.33.69,1.69,3.89-10.11.55-1.44-1.44,1.1h.22a1.5,1.5,0,0,0,0-3h-.22a1.54,1.54,0,0,0-1.45,1.1L131.92,48l-.55,1.44a1.53,1.53,0,0,0,.69,1.7l1.77,1.33c.85.64,1.89-.1,2.2-.9l2.15-5.45A10.41,10.41,0,0,0,139,44a18.15,18.15,0,0,0,0-2.66V38.27A1.5,1.5,0,0,0,136,38.27Z"/><path class="cls-3" d="M127.14,34.67l1.15,4.42a2.4,2.4,0,0,0,.17.65c-.07-.07,0-.57,0-.15s0,1.09,0,1.62c0,3.37-.09,6.75,0,10.11a12.91,12.91,0,0,0,1.17,3.79l2.2-1.7-6.66-4.66.69.89a7.64,7.64,0,0,0-.82-2.58l-2.06,2,6,3.78c1.35.84,2.69-.79,2.06-2.06l-1.33-2.67.2.76V34.48l-.44,1.06.22-.21c1.39-1.35-.73-3.47-2.12-2.12-.8.77-.66,1.67-.66,2.68v4.59c0,2.76-.12,5.55,0,8.31,0,1.2,1,2.5,1.54,3.56l2.05-2.06-6-3.77c-1.22-.77-2.94.81-2,2,.14.2-.07-.24,0,0s.09.29.14.44c.09.31.17.63.24.95a2.26,2.26,0,0,0,.82,1.38c.59.46,1.24.87,1.86,1.3L130.28,56a1.51,1.51,0,0,0,2.2-1.69l-.72-2a5.62,5.62,0,0,0-.35-1c-.16-.24,0,.51,0,.12a38.12,38.12,0,0,0,0-4.14V41.52a12.83,12.83,0,0,0-.11-2.77c-.38-1.64-.85-3.26-1.27-4.88A1.51,1.51,0,0,0,127.14,34.67Z"/><path class="cls-3" d="M133.74,32.84l-.89,2,2.74.36-2.91-10.3-.42-1.47-2.51,1.45L132,26.66l-.39-.66,2,8c.46,1.87,3.36,1.08,2.89-.8l-1.1-4.4-.68-2.75a2.86,2.86,0,0,0-.71-1.6c-.68-.59-1.41-1.13-2.12-1.69a1.56,1.56,0,0,0-1.81-.23,1.52,1.52,0,0,0-.69,1.69l2.91,10.3L132.7,36c.32,1.13,2.19,1.59,2.74.36l.89-2a1.56,1.56,0,0,0-.54-2.06A1.52,1.52,0,0,0,133.74,32.84Z"/><path class="cls-3" d="M146.09,62.71V34.27l-1.5,1.5L147,36c1.36.13,1.89-1.69,1.06-2.56s-1.44-1.92-2.71-2c-.93-.06-1.87,0-2.79,0a1.52,1.52,0,0,0-1.5,1.5V58.38c0,1.76,1.37,3.38,2.2,4.87l2.36-1.82c-1.11-1.18-2.32-2.31-3.34-3.57L140.19,60h0L142,57.64a19.32,19.32,0,0,0-3.7-2.39,1.51,1.51,0,0,0-1.69,2.2v0l2.05-2.06L136,53.86a1.51,1.51,0,0,0-2,2l1.42,2.31a7.11,7.11,0,0,0,1.84,1.91c.26.2.51.41.78.59.47.31-.25-.21.09,0s.71.56,1.06.84a17.18,17.18,0,0,0,2.25,1.75c1.21.65,3-.76,2-2.05v0l-2.36,1.82L144.41,66c1,.87,3.12.06,2.51-1.46L146,62.31c-.7-1.77-3.61-1-2.89.8l.89,2.22,2.51-1.46L143.2,61c-1.19-1-3.42.35-2.35,1.82h0l2-2.05a44.19,44.19,0,0,1-3.62-2.8c-.39-.29-.74-.63-1.13-.93-.14-.1.28.47.07.09l-.31-.5-1.37-2.22-2.05,2.05L137.17,58c1.23.72,3-.78,2.05-2h0l-1.69,2.2c-.64-.24.12.15.3.27l1.13.76,1.55,1.06c1.4,1,3.1-1.23,1.82-2.36h0A1.5,1.5,0,0,0,140.19,60c1,1.25,2.23,2.38,3.34,3.56a1.5,1.5,0,0,0,2.35-1.82l-1.61-2.87a3.6,3.6,0,0,0-.31-.54c-.3-.36.5.14.13.6,0-.05,0-.29,0-.36.1-1.67,0-3.39,0-5.07V32.94l-1.5,1.5c.83,0,1.69.07,2.52,0,0,0,.29,0,.34,0-.69-.27-.88-.29-.56-.08l.37.28c.24.19.28.47,0,0a6.41,6.41,0,0,0,.7.86L147,33l-2.44-.22a1.5,1.5,0,0,0-1.5,1.5V62.71A1.5,1.5,0,0,0,146.09,62.71Z"/><path class="cls-3" d="M152.74,58.88c.06,3.49-5.44,3.49-5.38,0s5.44-3.5,5.38,0"/><path class="cls-3" d="M152.74,58.88a2.43,2.43,0,0,1-.26,2.43,3.46,3.46,0,0,1-2.43,1.36,3.78,3.78,0,0,1-2.9-.86,3.66,3.66,0,0,1-1-1.37,4.69,4.69,0,0,1-.3-1.57c0-.25,0-.51.07-.77a4.12,4.12,0,0,1,.23-.79,3.66,3.66,0,0,1,1-1.37,3.79,3.79,0,0,1,2.9-.86,3.46,3.46,0,0,1,2.44,1.36,2.45,2.45,0,0,1,.25,2.44,2.2,2.2,0,0,0-2.69-1.44,1.67,1.67,0,0,0-1,.58,1.38,1.38,0,0,0-.23.86,1.4,1.4,0,0,0,.23.86,1.68,1.68,0,0,0,1,.58A2.19,2.19,0,0,0,152.74,58.88Z"/><path class="cls-3" d="M152.1,58.88c.08-2.73-4.17-2.73-4.11,0s4.19,2.72,4.11,0"/><path class="cls-3" d="M152.1,58.88a1.75,1.75,0,0,0-1.07-1,1.68,1.68,0,0,0-1,.08.84.84,0,0,0-.5.42,1.23,1.23,0,0,0-.06.45,1.27,1.27,0,0,0,.06.45.87.87,0,0,0,.5.41,1.58,1.58,0,0,0,1,.08,1.72,1.72,0,0,0,1.08-.94,1.88,1.88,0,0,1-.06,2,2.8,2.8,0,0,1-2,1.21,3.12,3.12,0,0,1-2.47-.72,3.34,3.34,0,0,1-.85-1.19,4.06,4.06,0,0,1-.24-1.32,3.3,3.3,0,0,1,1.09-2.49,3.1,3.1,0,0,1,2.47-.72,2.8,2.8,0,0,1,2,1.21A1.88,1.88,0,0,1,152.1,58.88Z"/><path class="cls-3" d="M150.66,59.1l.6,1.21h-.73L150,59.2h-.3v1.11h-.64V57.44h1.17a.87.87,0,0,1,.42,1.66"/><path class="cls-3" d="M150.66,59.1a7.18,7.18,0,0,1,1.21.9l.55.49-1.16.5c-.24.1-.48.18-.73.26l-.27.08-.58-.62c-.29-.32-.55-.65-.8-1l1.13.72-.3,0L151,59.2c.06.37.11.74.14,1.11l.12,1.35-1.57.09c-.21,0-.42,0-.64,0l-1.43,0,0-1.51a13.84,13.84,0,0,1,.17-2.87L148,56l1,.17c.29,0,.59.12.88.19l.23.06c.07,0,.26,0,.38.08a1.74,1.74,0,0,1,.8.49,1.5,1.5,0,0,1,.31,1.51,1.17,1.17,0,0,1-.43.54.77.77,0,0,1-.58.1.54.54,0,0,0,0-.72c-.11-.15-.32-.18-.37-.09s.14.19-.32.27c-.3.07-.61.14-.92.19l1.31-1.31a13.85,13.85,0,0,1,.18,2.87l-1.49-1.49c.22,0,.43,0,.64,0l-1.44,1.45a10.52,10.52,0,0,1,.14-1.11l.27-1.49,1,.19.3.05,1,.24.11.48a9.71,9.71,0,0,1,.24,1.24l-.85-.54a4.89,4.89,0,0,1,.73.26l-.61,1A8.48,8.48,0,0,1,150.66,59.1Z"/><path class="cls-3" d="M150.55,58.34c0-.42-.54-.38-.84-.37v.75c.3,0,.86,0,.84-.38"/><path class="cls-3" d="M150.55,58.34a.31.31,0,0,0-.48.17,1.84,1.84,0,0,0,0,.43.47.47,0,0,1-.25.44L151.12,58a.86.86,0,0,1,0,.75l-1.38-1.42a.48.48,0,0,1,.28.44,2.44,2.44,0,0,0,0,.43.32.32,0,0,0,.49.17.5.5,0,0,1,.32.65,1.34,1.34,0,0,1-.42.65,2.83,2.83,0,0,1-.77.49l-.58.3-.8-1.71a.86.86,0,0,1,0-.75l.78-1.65.57.24a2.72,2.72,0,0,1,.79.48,1.36,1.36,0,0,1,.43.66A.49.49,0,0,1,150.55,58.34Z"/><g class="cls-4"><path class="cls-5" d="M51.05,58.44l.61-1.35a4.49,4.49,0,0,0,2.54.81c1.06,0,1.49-.36,1.49-.83,0-1.45-4.49-.45-4.49-3.32,0-1.31,1.06-2.41,3.26-2.41a5.21,5.21,0,0,1,2.68.69l-.55,1.35a4.46,4.46,0,0,0-2.14-.6c-1.06,0-1.47.4-1.47.88,0,1.42,4.49.44,4.49,3.28,0,1.29-1.07,2.39-3.28,2.39A5.49,5.49,0,0,1,51.05,58.44Z"/><path class="cls-5" d="M61.36,51.48h1.79V59.2H61.36Z"/><path class="cls-5" d="M74.72,51.48V59.2H73.25L69.4,54.51V59.2H67.64V51.48h1.48L73,56.16V51.48Z"/><path class="cls-5" d="M78.73,55.34a4.25,4.25,0,0,1,7.37-2.63L85,53.77a2.47,2.47,0,0,0-1.94-.9,2.47,2.47,0,0,0,0,4.94A2.43,2.43,0,0,0,85,56.89L86.1,58a4.24,4.24,0,0,1-7.37-2.61Z"/><path class="cls-5" d="M96,57.76V59.2H90V51.48h5.84v1.43H91.75v1.68h3.58V56H91.75v1.78Z"/></g><g class="cls-4"><path class="cls-5" d="M60.64,62.84v7.72H58.86V64.28H57.31V62.84Z"/><path class="cls-5" d="M70.7,62.84V64l-2.87,6.56H65.89l2.77-6.26H66.1v1.26H64.51V62.84Z"/><path class="cls-5" d="M80.32,66.54c0,2.67-1.6,4.16-3.93,4.16a4.14,4.14,0,0,1-2.14-.53l.66-1.32a2.46,2.46,0,0,0,1.44.39A2.07,2.07,0,0,0,78.53,67a2.67,2.67,0,0,1-1.92.69A2.44,2.44,0,0,1,74,65.28a2.65,2.65,0,0,1,2.92-2.57C79,62.71,80.32,64,80.32,66.54Zm-2-1.35c0-.66-.5-1.15-1.35-1.15a1.16,1.16,0,1,0,0,2.31A1.2,1.2,0,0,0,78.33,65.19Z"/><path class="cls-5" d="M89.68,68.14c0,1.37-1,2.56-3.21,2.56a5.31,5.31,0,0,1-2.94-.83l.7-1.37a3.74,3.74,0,0,0,2.2.7c.89,0,1.44-.38,1.44-1s-.39-1-1.79-1h-2l.4-4.35h4.71v1.44H86l-.12,1.46h.63C88.78,65.74,89.68,66.77,89.68,68.14Z"/></g><g id="Isolation_Mode" data-name="Isolation Mode"><path class="cls-6" d="M8.15,52l.23-6.44,1.77.88V57.15H8.38L8.15,52Zm99.78-11.55-1.33-.67s3.33-14,4.88-17.33l.45,3.78Z"/><path class="cls-6" d="M102.37,38.49l1.56,1.78,5.33,2.22c.22,0-1.11-2.22-1.11-2.22ZM33.71,19.6l-1.33,2V45.15l.67.23,1.55.67a12.49,12.49,0,0,1-2,1.11,60.72,60.72,0,0,0-8.22,4.67l-1.78-.89s3.78-2.44,5.12-3.11c1.11-.67,5.33-2.44,5.33-2.44l-2.67-.89V21.17a17,17,0,0,1,1.77-2.44,8.18,8.18,0,0,1,1.56.87ZM20.6,15.82l.22,30.89a15.43,15.43,0,0,1-2,6.89c-2.44,4-5.33,6.67-10,9.55-2,.67-3.55.89-5.11-.22A4.49,4.49,0,0,1,1.94,59.6s0,2,3.33,2.45C7,62.27,11.93,58.72,13,57.6c0,0,6-5.55,6-10.66V15.16l1.77-2.89,1.12,1.55-1.33,2Zm20.45,26,2,.67s-4,1.78-6.89,2.89a9.39,9.39,0,0,1-1.56-.89l6.45-2.67-2.23-.67V24.71l2.23,4.89V41.82ZM45.71,27.6,40.82,15.82l2,.45,3.77,8.22-.88,3.11ZM57.26,14.27V36.71l2,1.11a33.9,33.9,0,0,0-4.88,1.12l-4.89,1.33-1.56-.89s3.11-1.11,4.89-1.56c1.56-.44,4.67-1.11,4.67-1.11l-2.67-.89V13.38l2.44-1.77,1.56,1.11-1.56,1.55ZM49.49,29.6,46.6,38.49,45,37.82l4.45-14.23v6Zm36-6.89c-.67-4.22-2.89-4.89-5.12-6a16.17,16.17,0,0,0,3.33-2,8.35,8.35,0,0,0,.89-8.22c-1.11-2.23-4.67-4-4.67-4s2.67.89,3.33,5.33a7.28,7.28,0,0,1-4.88,7.77l2,1.33s3.33,2.89,3.55,6c0,4.23-.22,6-2.44,9.56a11.07,11.07,0,0,1-7.11,2.89L63,36l1.55,1.12s8.23-.23,12.22-.45a11.64,11.64,0,0,0,4.89-1.55c3.79-2.66,4.89-7.33,3.79-12.44Zm-8.67-16C77,2.71,71.26,4,71.26,4V14.26h2V5.83S75.93,5.61,76.82,6.71Z"/><path class="cls-6" d="M71.26,16.94v16s.67.44,2.23-.23V18.27s1.77.22,3.11.44C76.59,18.71,76.37,16.71,71.26,16.94Zm31.11-2.89v6.67l-1.77-1.33V12.94ZM97.48,26.94V19.38L99,20.49v7.56Zm-4-3.12H95l2.22,2.89-2-1.77v9.78l-1.77-.23ZM93.26,13.6l4.44.67L98.82,16,95,15.37V22l-1.77-.44v-8Z"/><path class="cls-6" d="M100.59,38.05l.22-7.56,1.77,1.56v7.77c-5.11-1.55-14.88-3.11-14.88-3.11L85,35.38s10.67.67,15.56,2.67Zm16.22,7.55c1.34.67,6.67,4,6.67,4l-.88-2.23c-1.34-8.44-3.33-26.88-3.33-26.88L117,18.26l3.11,26.22,2.45,2.89s-4.67-2.67-5.79-3.11C116.15,44,111.7,42,111.7,42l1.78,2.23,3.33,1.34Zm20.67-7.33v5.55l-2.89,7.33-1.78-1.33,4.45-11.55Zm-8.89-4,1.33,5.11V51.6L131,54.71,124.37,50a11.38,11.38,0,0,0-.67-2.22l6,3.77-1.33-2.67V34.48ZM135,33.6l-.89,2-3.33-11.78L133,25.6Zm9.56,29.11V34.27l2.44.22a4.36,4.36,0,0,1-.67-.88l-.89-.67h-2.88v26l2,3.56s-3.56-3.77-3.33-3.56c0,0-3.56-2.44-3.33-2.22l-2.67-1.56L137,58a23.54,23.54,0,0,0,2,1.56s3.33,2.67,3.11,2.44l3.33,2.89Z"/><path class="cls-7" d="M142.81,32.94h2.89a3.67,3.67,0,0,1-.67-.45l-6.44-4.22a8.69,8.69,0,0,0-.89-.67l-3.56,8-3.33-11.78L125,21.16l-.88-.23,1.77,2.44v24l-2.23.45a22.6,22.6,0,0,1,2.89,2l3.33,2-1.55-2.89V34l4.44,15.78,4.44-11.56V54.93l-2,.22a38.05,38.05,0,0,1,4,2.89l3.33,2.67,2.23,2-2-3.78v-26ZM117,18.27l-1.77-.67c-2.89-1.11-7.33-2.44-7.33-2.44l2,1.77c-2.23,6.67-6,21.11-6,21.11l-1.56.45,5.56,2.44a2.31,2.31,0,0,1,.67.22L107,38.92l.67-3.11,5.56,2,.44,3.77-2,.45a.77.77,0,0,0,.44.22,57.75,57.75,0,0,1,7.12,3.33c1.33.67,3.11,1.78,3.11,1.78l-1.56-2.67C119.48,36.27,117,18.27,117,18.27Zm-8.44,14.88s1.77-7.11,2.67-10.44l1.55,12-4.22-1.56ZM93.7,34.27V23.82H95l2.45,3.12V19.38l-2.23,2.44-1.77-.22V13.82l4.22.67,2.89,4.88.22-6.44S91,11.16,85.7,10.71l2,1.77v22l-2.89.89h1.11l12.89,2.44,2,.44V30.48a54.87,54.87,0,0,1-3.11,4.67,40.17,40.17,0,0,1-4-.88ZM78.59,15.6a10.59,10.59,0,0,0,3.33-2.23,8.66,8.66,0,0,0,1.12-8C81.7,3.15,80.59,2.26,77.48,1.6c-4.67-.22-14.67,0-14.67,0L65.7,2.93V34L63,36s8.22-.44,12.22-.67c2,0,3.12-.67,4.89-1.33,4-2.89,4.44-8,3.78-12.67-1.1-4-3.1-4.43-5.33-5.77ZM71.71,4a1.48,1.48,0,0,0,1.11,0c1.55.23,3.11,0,3.77,1.56.67,2,.89,5.33-.67,7.33C74.81,14.26,71.71,14,71.71,14V4Zm4.66,26.45a3.5,3.5,0,0,1-2.66,2l-2,.45V17.16s4-.23,4.88,1.55C78.15,21.6,77.93,28,76.37,30.49ZM54.82,13.38l2.44-1.77c-2.44.44-7.55,2-7.55,2L45.48,26.94,40.81,15.82l-6.66,2.23,2.23.67V42.05s-2.23,2.44-1.78,2.44l6.45-2.67-2-.88V25.16l6,12.67,4.45-13.77V37.39l-1.56,2,4.89-1.56c.67-.23,4.67-1.11,4.67-1.11l-2.67-.89V13.38ZM30.6,20.71l1.55-2s-4.67,2-5.11,2c-.23,0-4.44,2.23-4.44,2.23l2,.22V48.05a27.92,27.92,0,0,0-2,2.88c2.88-1.33,5.55-3.33,8.44-4.66.44-.23,2-.89,2-.89l-2.44-.89V20.71Zm-9.78-8.44L9.93,18.05H12.6V45.16c-.22,2.89.23,6-.67,8.67a6.14,6.14,0,0,1-2.44,2.89c-.22.22-1.11.44-1.11-.23V45.6s-4.89,3.78-6.67,5.33L1.48,57.6A4.91,4.91,0,0,0,2.6,61.16c1.55,1.11,3.11,1.11,5.11.22a26.6,26.6,0,0,0,10.22-9.56,13.54,13.54,0,0,0,1.55-6.67V14.94Z"/><path class="cls-8" d="M152.31,58.88c.06,3.49-5.44,3.49-5.38,0s5.44-3.5,5.38,0"/><path class="cls-3" d="M151.67,58.88c.08-2.73-4.18-2.73-4.11,0s4.19,2.72,4.11,0"/><path class="cls-8" d="M150.23,59.1l.6,1.21h-.73l-.52-1.11h-.3v1.11h-.64V57.44h1.17a.87.87,0,0,1,.42,1.66"/><path class="cls-3" d="M150.12,58.34c0-.42-.55-.38-.84-.37v.75c.29,0,.86,0,.84-.38"/><text class="cls-9" transform="translate(50.74 59.2)">SINCE</text><text class="cls-9" transform="translate(57.24 70.56)">1795</text></g></g></g></svg>