<svg xmlns="http://www.w3.org/2000/svg" viewBox="0 0 189.67 74.93"><defs><style>.cls-1{fill:#fff;}.cls-2{fill:#e2001a;}</style></defs><g id="Layer_2" data-name="Layer 2"><g id="svg4403"><path class="cls-1" d="M162.42,34.05s0-.08,0-.13a.52.52,0,0,1,.13.06s-.07.05-.09.07m24.06-7.6c-2.92-3.24-7.61-3.31-11.28-1.22a1.64,1.64,0,0,0,0-.25c1.59-5.55-3.22-11-8.1-10.58-6.41-.18-10.95,7.65-6.85,12.88a5.22,5.22,0,0,0-.76,2.66c-.08-.06-.16-.08-.24-.14-2.68-8.18-14.88-2-19.55,1.58a5.91,5.91,0,0,0-8-3.94c-5.92-3.55-10.9,1.91-16.4,1.62-2.67-.33-6.16-2.1-8.85-1.5-1.8-1.44-4.55-1.4-6.83-.71,12.74-17.29,2.06-29.54-15.08-14-9.37-11-22.83,4.47-28.15,14.79a7.17,7.17,0,0,0-4.74-2.2c4.62-4,11-9.48,11.61-16.35-.45-8.8-10.37-9.84-15-4-1.77,2.08-5,5.89-6.72,7.89a4.72,4.72,0,0,0-4.54-3.83c-6.93.13-10.64,4.61-16.07,7.2-5.43,2.95-11,4.83-15.36,10C2,30.37,2.27,37,7.33,39.28c-2.6,2.84-5.67,6.7-5.8,10.94-.25,7.23,9.12,10,14,5.59a31.65,31.65,0,0,0,4.18-4.26c.29,15.74,21,12.69,19.55,3.52,5.31,2.69,11.42,1.31,15.6-1.59,4.5,4.15,11.63,2.92,16.46.12,3.94,4.68,11.12,4.46,15.4.24,6.26,6.79,15.75,2.37,20.65-3.63a7.47,7.47,0,0,0,1.16,1.55c-6.15,3.22-14.29,10.39-10.25,18A6.33,6.33,0,0,0,103.73,73c10,.25,16-6,19.3-10.53-1.28,4.4.3,9.56,5.28,10.67,6.39,1.46,10.91-2.43,13.35-4.54,4.27-3.64,7.13-8.31,10.47-12.56a21.22,21.22,0,0,1,4.48-3.31c3.33,6.67,12.64,6.89,18.06,3,4.58-3.14,8-9,7.82-14.77,0-1.39-.07-2.77,0-4.12a6.13,6.13,0,0,0,4-10.33"/><path class="cls-1" d="M163.92,34.05h0l0-.4v0a.14.14,0,0,1,0-.06l0,.4v0l-2.25,1.3.4.17h.05l-.36-.15,0,0-.54-2.05h0l.23-.31,0,0,.3-.24-.06,0a1.72,1.72,0,0,0-.69.9,1.22,1.22,0,0,0,0,.6,1.09,1.09,0,0,0,.18.55l.23.31a1.54,1.54,0,0,0,.67.38l.4.06a1.42,1.42,0,0,0,.75-.21l.05,0a1.61,1.61,0,0,0,.58-.58,1.69,1.69,0,0,0,.16-1.15l-.16-.36a1.45,1.45,0,0,0-.53-.54h0l-.36-.15h0l-.05,0,.36.15h0a1.45,1.45,0,0,0-.76-.21,1.42,1.42,0,0,0-.75.21,1.45,1.45,0,0,0-.54.53,1.48,1.48,0,0,0-.21.76v0l.06.4h0s0,0,0,0,0,0,0,0l-.06-.39h0a1.11,1.11,0,0,0,.12.57,1.32,1.32,0,0,0,.8.8,1.27,1.27,0,0,0,.58.13l.39-.06a1.54,1.54,0,0,0,.67-.38l.23-.31a1.51,1.51,0,0,0,.21-.75Z"/><path class="cls-1" d="M187.54,25.38c-3.48-3.67-8.83-3.78-13.1-1.45l2.2,1.7a11.23,11.23,0,0,0,0-5.7,10.5,10.5,0,0,0-2.75-4.43,9.76,9.76,0,0,0-9.25-2.3C158.38,14.8,155,22.73,159,28V26.52a7.74,7.74,0,0,0-1,3.42l2.26-1.3-.24-.13.69.89c-3.38-9.7-16.28-3.42-21.76.69l2.2.89a7.46,7.46,0,0,0-9.8-5l1.15.15a10.19,10.19,0,0,0-6.7-1.27,36.77,36.77,0,0,0-6.23,1.92,14.29,14.29,0,0,1-2.88.72,8.43,8.43,0,0,1-3.26-.42c-2.41-.67-4.8-1.46-7.33-1l1.15.15c-2.29-1.7-5.35-1.61-8-.86l1.69,2.2c3.5-4.79,7.35-11.82,5.31-18-1.7-5.09-7-6.23-11.71-4.76-4.18,1.3-7.81,4-11,6.89h2.12A11.22,11.22,0,0,0,72.5,8.57c-5.07,2.07-9.09,6.29-12.37,10.55a52.36,52.36,0,0,0-5,7.74l2.35-.3a9.11,9.11,0,0,0-5.8-2.64l1.06,2.56a51.75,51.75,0,0,0,8.78-9C63.87,14.19,65.65,10,64.3,6,62.1-.45,54.24-1.68,49.17,2.21a28.25,28.25,0,0,0-4,4.36c-1.51,1.8-3,3.6-4.58,5.37l2.51.66a6.43,6.43,0,0,0-4-4.58c-1.93-.71-4.32-.28-6.25.25-4,1.12-7.2,3.76-10.73,5.8-3.92,2.27-8.19,3.91-12,6.4C6.72,22.75,3.05,25.91,2,30.09A9,9,0,0,0,6.57,40.58l-.3-2.36C2.44,42.44-2,48.7,1,54.56c2.16,4.13,7.61,5.76,11.91,4.4,3.24-1,5.75-3.81,7.86-6.35l-2.57-1.06c.15,5.41,2.82,10.34,8.19,12,4,1.26,9.15.5,12.23-2.54a7.22,7.22,0,0,0,2.08-6.37l-2.2,1.69a17.11,17.11,0,0,0,17.11-1.59l-1.82-.23c5.15,4.57,12.68,3.54,18.28.35l-1.82-.23c4.59,5.26,12.66,4.89,17.53.24H85.67c6.84,7.2,17.26,3,22.77-3.63L106.08,51a11,11,0,0,0,1.4,1.86l.3-2.36c-6.2,3.3-14,10.06-11.64,18,2.73,9,14.39,6.31,20.35,2.41a31.36,31.36,0,0,0,7.84-7.66L121.59,62a11,11,0,0,0,1,8.76c1.9,3,5.33,4.19,8.78,4.12,7-.15,12.67-5.86,16.69-11,1.4-1.79,2.72-3.64,4.09-5.46a11.8,11.8,0,0,1,2.06-2.34A33.89,33.89,0,0,1,157.37,54l-2.05-.53c2.62,5,8.33,6.89,13.7,6.07,6-.92,10.93-5.5,13.33-10.91a19.28,19.28,0,0,0,1.52-5.42c.26-2.12,0-4.28.11-6.42l-1.5,1.5a7.64,7.64,0,0,0,5.06-12.9c-1.29-1.43-3.41.69-2.12,2.13,2.48,2.74.91,7.48-2.94,7.77a1.54,1.54,0,0,0-1.5,1.5c-.07,2,.16,4-.06,6A15.37,15.37,0,0,1,179.34,48a16.71,16.71,0,0,1-7.05,7.38c-4.85,2.5-11.69,1.76-14.38-3.43a1.52,1.52,0,0,0-2-.54,24.71,24.71,0,0,0-4.43,3.15,32.62,32.62,0,0,0-3,4,54.32,54.32,0,0,1-7.3,8.57,20.21,20.21,0,0,1-6.1,4.12c-2.64,1-6.29,1.24-8.64-.59s-2.6-5.11-1.87-7.76c.48-1.75-1.77-2.45-2.74-1.16-3.37,4.53-7.88,8.23-13.51,9.41-3.22.67-7.32.94-8.89-2.6-1.33-3-.31-6.11,1.55-8.62a24.88,24.88,0,0,1,8.41-6.82,1.51,1.51,0,0,0,.3-2.35,7.51,7.51,0,0,1-.93-1.25,1.5,1.5,0,0,0-2.35-.3c-4.43,5.33-12.83,9.63-18.52,3.63a1.53,1.53,0,0,0-2.13,0c-3.76,3.59-9.77,3.78-13.28-.25a1.53,1.53,0,0,0-1.82-.23C66.24,54.77,60,56,55.93,52.42a1.54,1.54,0,0,0-1.82-.24C50,55,44.65,56,40,53.77a1.52,1.52,0,0,0-2.2,1.69,4,4,0,0,1-1.14,3.28,7.79,7.79,0,0,1-3.85,2.1,9.47,9.47,0,0,1-9.29-2.49,10.37,10.37,0,0,1-2.33-6.8c0-1.19-1.68-2.11-2.56-1.06-1.86,2.24-4.08,5-7,5.72a7.71,7.71,0,0,1-6.1-1c-5.77-3.85-.37-11.29,2.86-14.84A1.51,1.51,0,0,0,8.09,38a5.94,5.94,0,0,1-3.25-6.8c.74-3.49,3.84-6.12,6.68-8a103.48,103.48,0,0,1,10.07-5.41c3.06-1.59,5.8-3.69,8.85-5.29,2.78-1.46,8.7-3.6,9.74.93a1.51,1.51,0,0,0,2.5.66C45,11.47,47.17,8.81,49.4,6.17a8.29,8.29,0,0,1,6.45-3.24A5.81,5.81,0,0,1,61.2,6.27c1.46,3.21-.17,6.67-2,9.37-2.3,3.37-5.46,6.07-8.52,8.72-1.08.94-.11,2.44,1.06,2.56a5.9,5.9,0,0,1,3.68,1.76,1.52,1.52,0,0,0,2.36-.31C61.7,20.81,74.28,3.29,83.56,13.89a1.53,1.53,0,0,0,2.12,0,30.28,30.28,0,0,1,8.45-5.67,9.82,9.82,0,0,1,6.12-.79c3.89,1.05,3.92,5.75,3.1,9a29.05,29.05,0,0,1-4.95,9.7c-.79,1.09.52,2.54,1.7,2.2a6.67,6.67,0,0,1,5.38.34c.89.51,1.48.28,2.45.3a11.88,11.88,0,0,1,2.64.46c1.78.47,3.61,1.21,5.48,1.16a15.82,15.82,0,0,0,4.84-1c3.06-1.07,6.41-2.69,9.59-1.08a2.77,2.77,0,0,0,1.3.5,6.47,6.47,0,0,0,1.36-.35,4.52,4.52,0,0,1,2.1.08,4.31,4.31,0,0,1,3,3.11,1.51,1.51,0,0,0,2.2.9,28.86,28.86,0,0,1,10-5,8.58,8.58,0,0,1,4.89-.12,3.7,3.7,0,0,1,1.72,1.24c.63.83.67,1.89,1.63,2.43A1.52,1.52,0,0,0,161,29.94a4.19,4.19,0,0,1,.55-1.9,1.5,1.5,0,0,0,0-1.52,6.8,6.8,0,0,1,10.17-8.9c2.1,2,2.51,4.47,2,7.21a1.52,1.52,0,0,0,2.2,1.69c3.12-1.7,6.92-1.71,9.47,1,1.33,1.4,3.45-.72,2.12-2.13Z"/><path class="cls-1" d="M27.62,32.72C30.67,39,19.93,47.94,25,56.11c1.9,3.32,7.65,3.32,10,.78,1.77-1.9-1.72.48-2.33-2.8-1.27-6.76,5.34-13.91,2-21.77,6.53-4.54,26.23-15.39,24.44-24.81a3.58,3.58,0,0,0-4.17-2.09,7.15,7.15,0,0,0-3.56,2.31c-6.68,7.62-13,16.37-22.27,22.46l-1.43,2.53m-.41-.61C22.77,37.29,16.54,56.46,7.49,53.56c-9-7.23,16.42-19.79,17.08-28.32.05-.25-.33-.54-.84-.38-5.48,1.16-9.38,15.36-16,9.87C4.64,28,16.29,23.43,20.89,20.9c5.69-2.34,10.2-7.59,16.24-7.79a1.07,1.07,0,0,1,.55,1.51C34,20.59,30.33,26,27.21,32.11M166.93,18.35c2.22.13,3.32.34,4.35,2.94a4.28,4.28,0,0,1,.06,3c-.4,2.23-5.39,7.32-7.71,5.87-.46-.32.48-1.47,1-2.32a1.44,1.44,0,0,0-.07-1.67c-3.77-3.22-1.29-7.46,2.38-7.81"/><path class="cls-1" d="M26.33,33.48c.74,1.61.2,3.51-.33,5.1-.71,2.09-1.68,4.08-2.47,6.15-1.6,4.2-2.39,9.45.87,13.13,2.85,3.23,9,3.13,11.79-.09a2.06,2.06,0,0,0,.63-2.22c-.41-.93-1.21-.92-2-1-.41-.06-.58-.19-.71-.95a10.53,10.53,0,0,1,.16-3.71c1.2-6.06,4.37-11.73,1.84-17.93l-.69,1.69c3.81-2.63,7.79-5,11.56-7.7,4.27-3.07,8.68-6.47,11.6-10.91a12.06,12.06,0,0,0,2.13-5.91,4.72,4.72,0,0,0-1.09-3.5,5.09,5.09,0,0,0-4-1.78c-3.58.13-5.84,3.4-7.93,5.88-2.31,2.74-4.6,5.51-7,8.17a74.27,74.27,0,0,1-8.87,8.51c-.85.67-1.72,1.31-2.61,1.93a4.69,4.69,0,0,0-1.54,1.32c-.47.76-.88,1.56-1.32,2.34a1.5,1.5,0,0,0,2.59,1.52l1-1.87a5,5,0,0,1,.36-.64c-.57.71.47-.15.55-.2.47-.33.93-.66,1.39-1a66.79,66.79,0,0,0,7.55-6.61C44.29,18.6,48.1,13.5,52.38,8.79c.87-.95,2.17-2.11,3.57-2A1.9,1.9,0,0,1,57.66,9a9.28,9.28,0,0,1-1.79,4.6c-2.6,3.9-6.57,6.93-10.33,9.64S37.71,28.36,33.86,31a1.53,1.53,0,0,0-.69,1.7c2,4.94-.08,9.65-1.39,14.47-.9,3.28-2.1,9.86,2.84,10.31a.93.93,0,0,0,.29,0c.45-.13,0,.15,0,0s-.91-1.85-.87-1.86c-.13,0-.33.35-.44.45a4.9,4.9,0,0,1-2.47,1c-1.66.25-3.7-.11-4.75-1.54-2.51-3.42-.91-7.88.53-11.37,1.58-3.84,3.89-8.13,2-12.27-.81-1.75-3.39-.23-2.59,1.52Z"/><path class="cls-1" d="M26.15,31.05c-2.86,3.39-4.61,7.69-6.82,11.5a39.25,39.25,0,0,1-4.11,6.1,10.31,10.31,0,0,1-4.57,3.51,9.21,9.21,0,0,1-2.34.08s-.49-.13-.07,0,0,0-.07-.1-.26-.25-.39-.39A3.28,3.28,0,0,1,7.26,51a2.66,2.66,0,0,1-.17-1.53,6.87,6.87,0,0,1,.66-1.79c1.95-3.68,5.49-6.54,8.49-9.34s6.58-5.81,8.66-9.53c.84-1.49,2.22-4.71-.28-5.4-2-.57-4.26,1.48-5.51,2.84-1.53,1.66-2.79,3.54-4.25,5.27-1,1.2-2.52,3-4.13,3a2.54,2.54,0,0,1-.94-.21c-.58-.25-.79-.42-.9-.81a3.52,3.52,0,0,1,.23-2.59c1-2.11,3.21-3.56,5.12-4.74,2.09-1.28,4.3-2.33,6.48-3.46,2.81-1.45,5.46-3,8.12-4.68a29.44,29.44,0,0,1,4.49-2.51,13.94,13.94,0,0,1,2.22-.69,4.34,4.34,0,0,0,1-.16h.18l-.63-.36a5.3,5.3,0,0,0-.62,1c-2.2,3.53-4.47,7-6.58,10.59q-1.59,2.7-3,5.49c-.87,1.71,1.71,3.23,2.59,1.51,2.07-4,4.45-7.9,6.87-11.74A67.36,67.36,0,0,0,39,15.38a2.5,2.5,0,0,0-2.21-3.75c-3.59.15-6.82,2.09-9.75,4a90.76,90.76,0,0,1-8.53,4.84C14.05,22.7,7.89,25.29,6.1,30.36A6.49,6.49,0,0,0,6,34.14,4.11,4.11,0,0,0,8.61,37a5.85,5.85,0,0,0,6.17-1.16,31.58,31.58,0,0,0,4.72-5.4,26.32,26.32,0,0,1,2.29-2.66,7.44,7.44,0,0,1,1-.86c.12-.09,1.16-.55,1.17-.58s-1-1-.9-1,0,0,0,.1a3,3,0,0,0-.16.62,4.72,4.72,0,0,1-.43,1,13.92,13.92,0,0,1-1.52,2.28,50.74,50.74,0,0,1-5,5.18C12.45,37.81,8.56,41,5.86,45a9.08,9.08,0,0,0-1.8,5.16c.07,1.85,1.23,4.14,3,4.86,4.72,1.9,9.14-2.62,11.64-6,3.18-4.28,5.32-9.18,8.08-13.72a19.29,19.29,0,0,1,1.46-2.13c1.24-1.46-.88-3.6-2.12-2.12Z"/><path class="cls-1" d="M166.93,19.85l.85.06c.42,0-.2,0,.05,0l.29,0a4.81,4.81,0,0,1,.65.18c-.46-.16.44.35.08.05a4,4,0,0,1,.41.41c-.22-.25.05.08.08.12s.15.25.22.38a4.06,4.06,0,0,1,.52,1.45,4.52,4.52,0,0,1-.22,1.47c0,.08-.19.53-.1.32s0,.06,0,.09l-.2.37c-.1.17-.21.34-.32.5l-.21.3c-.24.34.19-.23-.08.1s-.64.76-1,1.11a7.93,7.93,0,0,1-2.24,1.73c-.08.05-.64.28-.28.15-.19.07-.38.12-.57.18s-.35,0,.05,0h-.29c-.16,0-.33-.1,0,0a1.11,1.11,0,0,0-.26-.07l.2.08q-.69-.39.42,1.2c.07-.32-.16.22.05-.13s.28-.48.44-.71a4.28,4.28,0,0,0,.89-2.35,2.79,2.79,0,0,0-1-2.05,4,4,0,0,1-1.06-1.43c.11.25-.06-.2-.06-.2s-.11-.51-.09-.36,0-.23,0-.22,0-.62,0-.28a4.18,4.18,0,0,1,.21-.77c-.12.31,0-.09.07-.13l.21-.34c.21-.35-.18.17.1-.13l.39-.39.21-.18c-.23.18.22-.13.27-.16l.38-.2c.27-.13-.14,0,.17-.06l.43-.13c.05,0,.61-.1.33-.07a1.54,1.54,0,0,0,1.5-1.5,1.5,1.5,0,0,0-1.5-1.5,6.63,6.63,0,0,0-4.11,1.87,5.53,5.53,0,0,0-1.64,4,5.61,5.61,0,0,0,.63,2.37,5.46,5.46,0,0,0,.65,1,4.13,4.13,0,0,0,1,1c.2.11,0-.19-.07-.21s.18-.14,0,0c.42-.41-.06.15,0,.08a10.72,10.72,0,0,1-.64,1,2.65,2.65,0,0,0-.44,2.7c.7,1.21,2.43,1.29,3.63.92a9.48,9.48,0,0,0,3.34-2,14.54,14.54,0,0,0,2.61-2.93A7.64,7.64,0,0,0,173,23.4a6.43,6.43,0,0,0-1.88-5.17,6.24,6.24,0,0,0-4.21-1.38,1.5,1.5,0,0,0,0,3Z"/><path class="cls-1" d="M135.63,62.85a21.39,21.39,0,0,0,5-6.06c.3-.49-.44.07-1.59.39s-8.53,5.15-5.72,6.84a4.6,4.6,0,0,0,2.31-1.17m33.78-15.48c2.86-2.1,4.38-7.13,3.35-10.75-2,.77-5.57,3.77-7.95,6.06-2.83,2.75-.44.59,1,1s3.23,2.3,2.31,3.27c-.34.37.66.88,1.27.42M154.26,29.76c1.37-.07,1.81,2.37.61,2.86-4,1.71-11.31,3.68-11.54,9.92a1.66,1.66,0,0,0,2.4,1c4.35-1.91,5.47-7.11,9.23-10.08,2.12-1.65,4.28.74,3.48,2.9A40.71,40.71,0,0,1,154.33,44c-.76,1.2.83.48,1.19.26,6.67-3.12,21.3-21.18,28.07-15.14a2.21,2.21,0,0,1,.41,2.47c-.66,1.45-2.4,1.16-3.86,1.43-3.12,1.51-.76,8.49-2.07,11.43-1.67,6.06-8.17,11.61-14.76,9.27a5.18,5.18,0,0,1-2.4-1.71c-4.1-4.88,2.5-7.82-1.23-5.68-3.06,1.75-8.74,4.74-10.68,7.17-5.38,6.35-10.31,16.92-19.84,15.69a3.37,3.37,0,0,1-2.58-3.07c-.3-9.94,13.09-12.27,18.54-16.93-.55-.26-3.2,1.73-5.48,1.62-1.13,0-2.88-.24-3.78-1.66-4.57-9.07,10.06-19.4,18.4-19.43M47.57,39.6a8.93,8.93,0,0,0,2-4.38c0-.87,0-1-.91-.95-1.35.11-5.5,4.95-5,7.79.08.48,1.69-.18,1.86-.29a12.23,12.23,0,0,0,2.11-2.17M69.68,28.91c1.32-2,6.55-7.93,3.91-8.08-4,.41-10.45,10.18-10.75,15,.67.51,5-4.44,6.84-6.95M88,28.14c14.14-19.06-3.93-6.3-6.28,6.26,1.18-.42,4.49-3.83,6.28-6.26M50.2,29.49a3.69,3.69,0,0,1,4.6,4c-.5,5.58-3.33,8.91-8.59,12.84-.5.4.09.78.45.79,3.63,0,8.29-4,8.66-5.1.63-1.75,1.17-4.7,1.69-6.17,3.55-9.23,13.89-25.71,22.86-22.14,1.71.75,1.86,2.15,1.25,4.48-2.84,10.73-11.8,19.46-18.06,24.16C59,45.41,68.36,45,70.88,43c.68-.55,2.15-1.23,2.35-2.28,1.89-10.09,12.69-29.52,25.35-31,1.29-.15,2.48.48,2.68,2.5.49,5.24-2.33,8.19-4.79,12.39C92.07,32,86.4,36.45,80.93,42.1c-1,1-.74,3.72,2.17,4,1.25.14,2.43-.55,3.4-.63.19,7.28-11.45,11-13.12,3.27.09-2.61-.41-1.17-.73-.89-4.32,3.74-13,7.12-16.71.79-2.86.67-6.49,4.26-10.48,3.89-2.65-.26-5.27-.89-6.69-2.79-.51-.7-2.34.83-3.56.18-1.67-.88-1.18-1.82-.44-2.64s3.15-1,3.29-2.69c.65-6.9,5.29-13.45,12.14-15.14"/><path class="cls-1" d="M136.39,64.14a21.59,21.59,0,0,0,5.09-5.88,2.72,2.72,0,0,0,.69-1.82A1.57,1.57,0,0,0,140,55.23l-.54.23-.1,0-.75.25a5.32,5.32,0,0,0-.78.32,18.68,18.68,0,0,0-3.56,2.4,8.47,8.47,0,0,0-2.92,3.63,2.7,2.7,0,0,0,.59,2.71,3.51,3.51,0,0,0,.6.48,2.15,2.15,0,0,0,1.79,0,7.19,7.19,0,0,0,2.08-1.2,1.54,1.54,0,0,0,.54-2,1.52,1.52,0,0,0-2.05-.54c-.33.24-.64.49-1,.7l-.2.12s-.34.15-.14.07-.11,0-.15,0-.44.08-.08,0l.76.2c-.32-.19.14.16.06.06a1.59,1.59,0,0,0-.13-.13c.24.16.23.33.14.19a.26.26,0,0,0-.05-.09c-.09-.12.14.43.07.13s0,.43,0,.18a1.21,1.21,0,0,0,0-.19c.05.4-.08.38,0,.18s.06-.16.08-.24-.19.4-.09.2a.93.93,0,0,1,.05-.1,2.12,2.12,0,0,1,.11-.21c.1-.16.22-.3.31-.46-.25.43-.1.13,0,0s.12-.13.17-.2.31-.33.48-.49c.32-.32.67-.63,1-.92l.23-.18.11-.09c.22-.18-.25.19-.1.07l.55-.4a17.34,17.34,0,0,1,2-1.24l.38-.19c.24-.12-.42.15-.18.07l.14,0c.32-.1.63-.2.94-.33l.18-.07.16-.07.07,0,.15-.06c.33-.14.19.25-.6,0l-.67-.39,0,0-.39-.67v-.77c0,.16.21-.37.1-.24s0,.1-.08.14-.15.24-.22.36l-.48.76c-.36.55-.73,1.09-1.12,1.61,0,.06-.09.13-.14.18s.13-.16,0,0l-.33.41c-.23.27-.46.54-.7.8s-.5.51-.76.75l-.41.36-.18.15s-.36.28-.07.06a1.63,1.63,0,0,0-.69.9,1.49,1.49,0,0,0,.15,1.15,1.51,1.51,0,0,0,2,.54Z"/><path class="cls-1" d="M170.17,48.67a12.17,12.17,0,0,0,4-12.44,1.51,1.51,0,0,0-1.85-1,18.65,18.65,0,0,0-4.76,3A55.86,55.86,0,0,0,163,42.34c-.58.58-1.22,1.24-1,2.15a1.63,1.63,0,0,0,2.3.93c.22-.08.44-.16.66-.22l.38-.09s-.4,0-.14,0h.25c.28,0-.18,0-.15,0a1,1,0,0,1,.19.06c.34.15-.19-.11,0,0l.29.15c.08,0,.45.33.25.16.17.15.34.3.5.47,0,0,.26.33.13.16s.1.18.12.21,0,.26,0,0c0,.29,0-.24,0,0s.13-.36,0-.06c.07-.17.39-.72,0,0a1.67,1.67,0,0,0-.26,1c0,1.76,2.34,2.28,3.59,1.5a1.55,1.55,0,0,0,.54-2.06,1.53,1.53,0,0,0-2.06-.54c-.23.13-.15.13.26,0-.16,0-.18,0-.06,0a.71.71,0,0,1,.52.35l.21.76c-.4.79-.47,1-.2.61l.15-.19a2.16,2.16,0,0,0,.22-.49,2.44,2.44,0,0,0,.13-.77,3.18,3.18,0,0,0-.46-1.58,5.89,5.89,0,0,0-2.34-2.17,3.78,3.78,0,0,0-2.7-.32,6.7,6.7,0,0,0-.76.24l-.28.1-.11,0a3.06,3.06,0,0,1,.67,0l.66.39h0l.39.66h0v.79c0-.11-.17.38-.12.28s-.28.31-.11.15a3.68,3.68,0,0,0,.33-.35l1.16-1.13c.83-.78,1.67-1.53,2.54-2.26a29.62,29.62,0,0,1,2.41-1.88c.39-.27.78-.53,1.19-.77q.27-.16.54-.3l.25-.13c.28-.14-.27.11,0,0l-1.85-1a5.73,5.73,0,0,1,.16.69,2.74,2.74,0,0,1,.05.28c0-.28,0,0,0,.1a9.49,9.49,0,0,1,0,1.41c0,.22,0,.45,0,.67s0,.35,0,.13l-.06.38a13.17,13.17,0,0,1-.34,1.41c-.07.22-.14.44-.22.66s-.09.23-.13.35c.06-.15,0,0,0,.06a11.23,11.23,0,0,1-.65,1.24c-.13.21-.26.41-.4.6s.21-.25-.07.09l-.18.21c-.15.17-.31.34-.48.5l-.2.18s-.36.28-.11.09a1.55,1.55,0,0,0-.53,2.06,1.52,1.52,0,0,0,2,.54Z"/><path class="cls-1" d="M154.26,31.26l-.25-.13a.29.29,0,0,1,.05.13s0,.17,0,.19c.59-.31-.53.11-.7.18-1,.41-2.08.81-3.11,1.26a18.08,18.08,0,0,0-5.65,3.5,8.7,8.7,0,0,0-2.77,6.15,2.82,2.82,0,0,0,1.61,2.34,3.83,3.83,0,0,0,3.66-.33c2.3-1.26,3.81-3.45,5.23-5.58.5-.74,3.84-6,4.69-4,.46,1.07-.84,2.93-1.31,3.82-.81,1.55-1.84,3-2.67,4.49-.57,1-.56,2.43.78,2.85a3.47,3.47,0,0,0,2.53-.57c3.19-1.62,5.91-4.24,8.6-6.54a69.92,69.92,0,0,1,10.19-7.79,12.8,12.8,0,0,1,4.35-1.75c.72-.1,3.55,0,3.2,1.36-.22.87-2.3.57-2.95.77a3.85,3.85,0,0,0-2.17,2.13c-.9,2-.65,4.35-.59,6.46a12,12,0,0,1-1.79,7.11,11.56,11.56,0,0,1-7.08,5.33c-2.66.58-6.46-.3-7.05-3.42a2.55,2.55,0,0,1,.39-1.89c.27-.44.34-.29.71-.91a1.51,1.51,0,0,0-.89-2.2,2.15,2.15,0,0,0-1.78.52c-1,.6-2,1.15-3,1.73a46.92,46.92,0,0,0-7.15,4.66,29.73,29.73,0,0,0-4.59,5.53c-1.45,2-2.87,4-4.5,5.81A17.49,17.49,0,0,1,134.63,67c-1.54.71-5.42,1.85-6.39-.21-.77-1.66.36-4.2,1.3-5.56a15.05,15.05,0,0,1,4.32-3.82c4-2.52,8.67-4,12.32-7.08a1.5,1.5,0,0,0-.66-2.5c-1.15-.28-2.23.46-3.25.9a5.84,5.84,0,0,1-3.76.52c-2.26-.54-2.25-3.64-1.76-5.47,1.28-4.74,6-8.28,10.13-10.39a17.31,17.31,0,0,1,7.38-2.09,1.5,1.5,0,0,0,0-3c-5.76.08-11.61,3.38-15.67,7.29a16.78,16.78,0,0,0-4.69,7.26c-.71,2.48-.62,6,1.33,8a6.64,6.64,0,0,0,5.11,1.54,9.65,9.65,0,0,0,2.78-.76c.47-.2.92-.42,1.38-.62a2.19,2.19,0,0,0,.38-.17c.24-.17.55.07-.16-.1l-.66-2.51c-3.35,2.81-7.79,4.18-11.48,6.47-4,2.47-7.38,6-7.5,10.94-.08,3.13,2.19,5.14,5.22,5.24a12.93,12.93,0,0,0,7.39-2.13c4.62-3,7.59-7.85,10.83-12.15a19.87,19.87,0,0,1,2.57-3,27.13,27.13,0,0,1,4.06-2.84c1.4-.86,2.84-1.66,4.27-2.47.73-.41,1.44-.93,2.2-1.28l-1.15.15h0l-.9-2.21c.38-.62,0,0-.16.17a6.42,6.42,0,0,0-.82,1.25,5.54,5.54,0,0,0-.36,3.94c1.13,3.93,5.2,5.85,9.06,5.51a14,14,0,0,0,9.88-6A14.88,14.88,0,0,0,180,40.2a19.26,19.26,0,0,1,.09-4.49c.09-.41.22-1,.61-1.24a3.39,3.39,0,0,1,.91-.08,8,8,0,0,0,1.47-.23,3.62,3.62,0,0,0,2.51-4.46,4.64,4.64,0,0,0-3.06-2.9c-5-1.8-10.55,2.69-14.17,5.52-2.76,2.15-5.36,4.49-8.05,6.73-1.07.9-2.16,1.8-3.3,2.61-.51.35-1,.69-1.56,1-.22.13-.44.24-.67.35a2,2,0,0,0-.26.14c-.42.39-.72-.94.71.42l.44,1.06c0,.36.09,0,.22-.2s.32-.5.47-.74c.34-.56.69-1.11,1-1.68a34.14,34.14,0,0,0,1.79-3.45c.85-1.91,1.5-3.94,0-5.75-3.28-4-7.29,1.46-9,4.09a18.66,18.66,0,0,1-3.48,4.37,6.1,6.1,0,0,1-1.21.78s-.84.25-.73.09-.1.56.14.25a3.61,3.61,0,0,0,.08-.67,6.15,6.15,0,0,1,.36-1.2c1.27-2.89,4.68-4.32,7.42-5.41,1.48-.59,3.63-1,4.2-2.69a3.09,3.09,0,0,0-2.64-4.15c-1.93-.1-1.92,2.9,0,3Z"/><path class="cls-1" d="M48.86,40.36A12.88,12.88,0,0,0,50.71,37a4.19,4.19,0,0,0,0-3.33,2.4,2.4,0,0,0-3-.68,5.94,5.94,0,0,0-1.71,1.18,14.74,14.74,0,0,0-3,4,8.67,8.67,0,0,0-.88,2.42c-.19,1.1-.26,2.51,1,3a3.8,3.8,0,0,0,3-.47A6.4,6.4,0,0,0,47.51,42a12.88,12.88,0,0,0,1.35-1.59,1.5,1.5,0,0,0-.54-2,1.53,1.53,0,0,0-2,.54l-.06.08,0,0s-.11.14-.15.19-.31.35-.47.51a14.39,14.39,0,0,1-1.07,1c-.17.14.3-.23,0-.05-.12.07-.24,0,.17-.07a.77.77,0,0,0-.19.08l-.38.12c-.09,0-.55.11-.24.07s0,0,0,0h-.06a1.14,1.14,0,0,1,.57.16l.3.39a.72.72,0,0,1,.34.64.52.52,0,0,0,0-.21c0-.13,0-.25,0-.38a.61.61,0,0,0,0-.15c0,.27-.05.32,0,.17l0-.16a7.66,7.66,0,0,1,.23-.82l.06-.16c0-.14.19-.28,0,0a3.81,3.81,0,0,0,.23-.5,13.43,13.43,0,0,1,1-1.71c.06-.09.27-.29.29-.39,0,.2-.17.21,0,0l.15-.18c.2-.25.42-.5.64-.73s.38-.38.58-.56l.27-.24c.12-.1.27-.12-.09.07l.15-.11c.14-.1.33-.16.46-.27-.27.21-.36.14-.2.09l.08,0c.19-.08-.56,0-.19,0H49c.29,0-.37-.09-.14,0a1.3,1.3,0,0,1-.81-.82c.06.19-.06.14,0-.15a1,1,0,0,0,0,.25,2.35,2.35,0,0,1,0,.26,1.28,1.28,0,0,1,0,.19c0-.2,0-.2,0,0s-.12.5-.21.75l-.09.25c.11-.3-.1.21-.13.27a7.43,7.43,0,0,1-.4.73,16.34,16.34,0,0,1-.93,1.41,1.5,1.5,0,0,0,.54,2,1.54,1.54,0,0,0,2-.54Z"/><path class="cls-1" d="M71,29.67c1.12-1.7,2.47-3.23,3.57-5,1-1.5,2.35-4.44-.21-5.27-2-.64-4.29,1.32-5.6,2.58A27.6,27.6,0,0,0,64,28.31a18.51,18.51,0,0,0-2.68,7.55,1.48,1.48,0,0,0,.74,1.3c1.68,1,3.53-1.26,4.54-2.32A53.59,53.59,0,0,0,71,29.67a1.5,1.5,0,0,0-.54-2.05,1.54,1.54,0,0,0-2.05.54c-.91,1.22-2.2,2.75-3.38,4A25.19,25.19,0,0,1,63.22,34l-.3.26c-.22.18.19-.1-.15.11a2.91,2.91,0,0,0-.3.17,1.15,1.15,0,0,1,1.13,0l.74,1.29a1.06,1.06,0,0,1,0-.25c.12-.39,0,.19,0-.06s.07-.42.12-.63q.17-.69.39-1.35A17.66,17.66,0,0,1,66,30.91a27.53,27.53,0,0,1,3.62-5.48,16.79,16.79,0,0,1,2.17-2.13l.29-.21c.15-.11.31-.21.47-.31s.34-.18.52-.27-.23.08,0,0l.34-.11a1.66,1.66,0,0,0,.21-.06c.19-.06.23.06,0,0,0,0-.37-.06-.13,0,0,0-.33-.18-.16-.06a1.37,1.37,0,0,1-.36-.36c-.1-.14-.14-.33-.08-.17-.09-.26,0-.34,0-.18s.12-.3,0-.05c0,.06-.17.5-.1.32s-.13.27-.16.33c-.21.41-.45.8-.7,1.19-1.08,1.66-2.4,3.16-3.49,4.82s1.54,3.12,2.59,1.51Z"/><path class="cls-1" d="M89.25,28.89c1.15-1.55,2.28-3.13,3.31-4.77a23.07,23.07,0,0,0,1.81-3.4,3.86,3.86,0,0,0,.36-2.36A2,2,0,0,0,92.31,17a4.86,4.86,0,0,0-1.76.88,18.46,18.46,0,0,0-2.22,1.91,32.9,32.9,0,0,0-4.59,5.8,25.82,25.82,0,0,0-3.31,7.48c-.08.31-.14.62-.2.93a1.53,1.53,0,0,0,.38,1.46,1.49,1.49,0,0,0,1.46.39,6.36,6.36,0,0,0,1.81-1.14,20.11,20.11,0,0,0,1.73-1.6,37.62,37.62,0,0,0,3.64-4.22,1.49,1.49,0,0,0,.15-1.15,1.56,1.56,0,0,0-.69-.9,1.54,1.54,0,0,0-2,.54l-.2.26c0,.07-.25.3,0,0l-.38.48c-.26.33-.54.66-.82,1-.56.64-1.14,1.26-1.74,1.87S82.49,32,81.92,32.46c-.11.09-.58.43-.11.09a4,4,0,0,1-.33.24,1.75,1.75,0,0,1-.29.18l-.11.06c-.24.14.38-.15.19-.08l1.85,1.85a19.37,19.37,0,0,1,1.06-3.58l.09-.23c.12-.28-.07.18,0,.09s.13-.29.19-.43c.13-.3.27-.58.41-.87q.42-.86.9-1.68a33,33,0,0,1,2-3.09l.26-.35.06-.07c.12-.17-.14.18-.13.16l.14-.18.54-.67c.34-.41.7-.82,1.07-1.22a22.44,22.44,0,0,1,2-1.92l.23-.18.1-.08c.21-.17-.28.21-.16.12l.42-.3A6.44,6.44,0,0,1,93,19.9c.24-.12-.45.16-.18.07l.14,0,.14,0c.17-.06-.52,0-.27,0s-.47-.11-.18,0c-.73-.2-.41-.19-.31-.12s.14.1-.11-.09-.16-.14-.12-.09-.26-.36-.19-.26-.07,0-.1-.26c0,0,0,.07,0,.11s0-.53,0-.26v.15c0,.26.09-.49,0-.21a1.42,1.42,0,0,1,0,.2,3.73,3.73,0,0,1-.14.44l-.09.25a.5.5,0,0,0,0,.13s.18-.42.1-.25l0,.08-.3.62c-.26.52-.55,1-.84,1.52-.87,1.45-1.83,2.84-2.81,4.21l-1,1.31a1.45,1.45,0,0,0-.15,1.15,1.49,1.49,0,0,0,.69.9,1.53,1.53,0,0,0,2-.54Z"/><path class="cls-1" d="M50.6,30.93c2.08-.41,2.87,1.46,2.62,3.2a12.68,12.68,0,0,1-1.86,5.08,19.74,19.74,0,0,1-4.12,4.39,10.94,10.94,0,0,0-2.41,2.06,1.86,1.86,0,0,0,.73,2.62c1.56.89,3.92-.12,5.38-.82a16.84,16.84,0,0,0,4.39-3.09c2.42-2.34,2.28-6.14,3.52-9.12,2.68-6.45,6.65-13.13,12-17.67,2-1.69,4.7-3.33,7.43-2.8a2.34,2.34,0,0,1,1.5.67c.39.59,0,1.71-.14,2.31a30.3,30.3,0,0,1-2.53,6.42,46.13,46.13,0,0,1-7.69,10.46c-1.36,1.42-2.78,2.76-4.27,4-1.21,1-2.67,1.93-3.77,3.08a2.32,2.32,0,0,0-.28,3.31,4.57,4.57,0,0,0,3.14,1,12.62,12.62,0,0,0,7.56-1.94,10.87,10.87,0,0,0,2-1.58,4.83,4.83,0,0,0,1-2.33A36,36,0,0,1,76.1,36a53.91,53.91,0,0,1,4.52-9.41c3.48-5.83,8.4-12.27,15-14.68.79-.29,3-1.27,3.78-.64s.42,2.19.36,2.93a9.9,9.9,0,0,1-.8,3.12,41.06,41.06,0,0,1-3.19,5.43,59.83,59.83,0,0,1-4.09,6,117.19,117.19,0,0,1-9.52,9.91c-1.27,1.25-3,2.5-3.24,4.41A4,4,0,0,0,80.86,47c2.06,1.22,3.91.29,6,0L85,45.51a6,6,0,0,1-3.39,5.27c-1.64.88-4,1.26-5.52,0a4.08,4.08,0,0,1-1.23-3.14C74.73,46.16,73.25,45,72,46.26c-.16.16-.26.36-.4.52-.33.4.26-.13-.23.22s-1.07.82-1.64,1.18a17.59,17.59,0,0,1-4.18,2c-3.12,1-6.48.79-8.34-2.23a1.53,1.53,0,0,0-1.69-.69c-3.08.8-5.5,3.32-8.69,3.81a9.74,9.74,0,0,1-5.28-.92c-1.35-.66-2-2.21-3.65-2-.59.07-1.18.45-1.76.46a3.59,3.59,0,0,1-.56-.06c.08.07-.16.3.06.07a3.5,3.5,0,0,1,.24-.3c.9-.78,2.16-.85,3-1.85,1-1.2.82-3.1,1.22-4.55A17,17,0,0,1,42,37.44a14.39,14.39,0,0,1,8.59-6.51c1.87-.48,1.07-3.38-.8-2.89a17.16,17.16,0,0,0-9.4,6.45,19.79,19.79,0,0,0-2.79,5.28,16.81,16.81,0,0,0-.74,2.72c-.12.6,0,1.7-.41,2.18s-1.25.59-1.72.84A4.35,4.35,0,0,0,33,47.2a3,3,0,0,0,1.94,4.26,4,4,0,0,0,2.3,0c.15,0,1-.2,1-.32s-.65-.06-.58-.26c0,.1.65.71.72.77a10.55,10.55,0,0,0,5.64,2.29,11.3,11.3,0,0,0,6.67-1c1.87-.86,3.59-2.23,5.6-2.75l-1.7-.69c4.27,7,13.33,4.12,18.55-.06.25-.2,1.09-.8,1.08-1.18L73.07,48c-.91-.59-1.3-.58-1.18,0a4.34,4.34,0,0,0,0,.8,5.46,5.46,0,0,0,.36,1.43,6.66,6.66,0,0,0,2.62,3.34c2.43,1.54,5.58,1.17,8-.07a9,9,0,0,0,5.09-8,1.53,1.53,0,0,0-1.9-1.45c-1.07.15-3.53,1.39-4.14-.17a1,1,0,0,1,0-.73A11.78,11.78,0,0,1,84.16,41c2.92-2.87,5.93-5.66,8.6-8.78A81.58,81.58,0,0,0,100,21.71c1.9-3.08,3.57-7,2.56-10.69S97.74,8,95,9a24.49,24.49,0,0,0-7.8,4.78,50,50,0,0,0-11.67,16A50.61,50.61,0,0,0,72.32,38c-.15.54-.28,1.09-.4,1.64a2.08,2.08,0,0,1-1.11,1.56A8.74,8.74,0,0,1,68,42.63a12.83,12.83,0,0,1-3.48.44,5.18,5.18,0,0,1-1.1-.11c-.23-.06-.27-.05-.27-.11s.3.41.26.31a2.78,2.78,0,0,1,.06.86s2.44-2,2.77-2.29c1.33-1.1,2.62-2.24,3.86-3.44,5.54-5.38,10.42-12,12.45-19.54.42-1.56.75-3.38-.14-4.85a5,5,0,0,0-3.5-2.06,10.87,10.87,0,0,0-7.73,1.84c-5.48,3.49-9.43,9.42-12.46,15A37.64,37.64,0,0,0,55.11,37c-.22.82-.41,1.65-.62,2.47-.11.4-.21.81-.33,1.21-.06.2-.12.41-.19.62-.29.83.06,0-.08.19A11,11,0,0,1,51,44a13.58,13.58,0,0,1-2,1.1,9,9,0,0,1-1.24.4c-.13,0-.29,0-.41.08s-.51-.14-.26.15l.44,1.06c-.35.59-.38.74-.07.46L47.8,47l.79-.62c.51-.41,1-.82,1.49-1.25a22.43,22.43,0,0,0,2.47-2.5,16.06,16.06,0,0,0,3.09-5.55c.63-2.06,1.08-4.5,0-6.49A5.26,5.26,0,0,0,49.8,28c-1.89.38-1.09,3.27.8,2.89Z"/><path class="cls-1" d="M110.52,63c1.56-1.09,6.34-6.12,5.06-6s-6.29,3-7.81,5.17c-.51.74-.21,1.42.53,1.54a3.51,3.51,0,0,0,2.22-.73M130,32.34c-1.87.24-12.65,7.08-11.36,11.41a1.71,1.71,0,0,0,2.26.85c4.68-1.69,5.5-7.12,8.35-10.62.39-1,4.94-4.67,6.42-2.13,1.74,3-4.12,10.4-7.1,15.38-1,2.62,4.15-2.15,4.14-2.13,2.13,1.06-3.11,8.6-9.23,10.19-1.74.44-6.45,14-19.67,13.71-2.73,0-3.24-3.69-2-6.07,3.42-6.33,12.5-9.78,16.88-11.11a7.78,7.78,0,0,0,1.83-2.12c.21-.69-.14-.41-.36-.33-11.83,5.33-12.62-7.08-4.33-12.73-2.34.24-4.2.15-5.81-.83-.46-.3-1.16,1.22-1.3,2.37-.89,7.27-8.73,17-16.6,14.67a6.23,6.23,0,0,1-4.09-5.27c-.84-8.35,5.91-15.87,14.12-17.2a2.58,2.58,0,0,1,3,1.8A16.18,16.18,0,0,0,97,40.5c-.61,1.38-1.74,5.35,1.28,4.74,4.7-.93,7-7.55,6.24-10.79l.07-1a30,30,0,0,1,2.87-2c1.76-.14,5.08,1.37,7.54,1.58,6.35.83,10.17-4.88,15.07-1.85.42.29.52,1.22.34,1.17a3.73,3.73,0,0,0-.42,0"/><path class="cls-1" d="M111.28,64.34a23.07,23.07,0,0,0,3.44-3.19c.59-.64,1.16-1.3,1.68-2a4.1,4.1,0,0,0,.84-1.51,1.69,1.69,0,0,0-.74-1.86,2.06,2.06,0,0,0-1.48-.15,9,9,0,0,0-2.23.9,21.18,21.18,0,0,0-5.11,3.53c-1.07,1-2.17,2.43-1.39,4,1,1.89,3.59,1.29,5,.31a1.5,1.5,0,1,0-1.52-2.59,5.06,5.06,0,0,1-.68.4c.22-.11,0,0-.13,0l-.2.05s-.3,0-.12,0-.39,0-.11,0,0,0,0,0a1.59,1.59,0,0,1,.26.14c.16.09.07.06,0,0a1.59,1.59,0,0,1,.18.27c.09.14,0,.1,0,0a.79.79,0,0,1,0,.43c.06-.24-.14.19,0,0l.15-.23c.14-.21-.21.25,0,.05a2,2,0,0,0,.19-.22c.27-.29.55-.56.85-.83.14-.13.29-.25.45-.38s.16-.12.23-.19l-.1.08.16-.13c.35-.26.71-.51,1.07-.75a22.06,22.06,0,0,1,2.15-1.27l1-.46c.23-.11-.32.12-.09,0l.2-.08.37-.13.32-.07c.18-.07-.39,0-.25,0h0a1.71,1.71,0,0,1-.51-.12,1.36,1.36,0,0,1-.82-1.4c0-.32,0-.19,0-.11s.07-.23.1-.22l-.29.49-.21.29s-.19.25,0,0,0,0,0,.07c-.42.51-.87,1-1.32,1.5s-1.1,1.15-1.68,1.7l-.74.67-.33.27c-.2.16,0,0,.12-.09l-.15.11a1.5,1.5,0,0,0,1.52,2.59Z"/><path class="cls-1" d="M129.62,30.89c-1.57.26-3.2,1.45-4.49,2.31A27.77,27.77,0,0,0,119.44,38c-1.34,1.55-2.76,3.64-2.31,5.81a3.11,3.11,0,0,0,3.26,2.41,7.22,7.22,0,0,0,4.07-2.05c2.19-2,3.26-4.81,4.69-7.31,1-1.82,2.19-3.63,4.39-4.28s.32,3.11-.06,3.87a84.07,84.07,0,0,1-5,8.1c-.67,1-1.87,2.39-1.48,3.72s1.73,1.45,2.78,1a19.31,19.31,0,0,0,4-3.05l-1.81.23c-.1,0-.22-.37-.26-.38s0,.1,0,.08a9.28,9.28,0,0,1-.3.88,10.86,10.86,0,0,1-2,2.75,15.48,15.48,0,0,1-3.15,2.67,11.89,11.89,0,0,1-1.86,1c-.57.25-1.23.34-1.78.63a7.13,7.13,0,0,0-2.14,2.48c-.93,1.38-1.86,2.77-2.92,4.06-3,3.61-7,6.46-11.76,6.88-1,.08-2.45.44-2.94-.63a3.9,3.9,0,0,1,.26-3.13c1.23-2.51,3.65-4.46,6-5.94a38.16,38.16,0,0,1,8-3.82,8,8,0,0,0,3-1.38c1-.9,2.25-2.24,1.85-3.68a1.57,1.57,0,0,0-1.45-1.1,3.17,3.17,0,0,0-1.47.46,14.85,14.85,0,0,1-1.88.64,7.2,7.2,0,0,1-2.73.29A2.75,2.75,0,0,1,112,47c-.89-3.42,2-7.19,4.63-9.05,1.09-.77.86-2.95-.76-2.8a11.93,11.93,0,0,1-3.48,0c-1-.21-2-1.1-3-.75-2,.64-2,3.39-2.37,5a18.67,18.67,0,0,1-6.62,10.11c-2.9,2.19-8.29,3.76-10.35-.39-.88-1.76-.65-4.08-.19-5.93a14.18,14.18,0,0,1,2.83-5.64,16.4,16.4,0,0,1,5.62-4.39A15.42,15.42,0,0,1,101.58,32c1.23-.28,1.81-.31,2.38.9l.54-2.05a18.13,18.13,0,0,0-7.61,6.64c-1.16,1.84-2.28,4.28-2,6.52.31,3,3.23,3.14,5.46,2.1a10.5,10.5,0,0,0,5-5.84,12.4,12.4,0,0,0,.89-4c.06-1.25-.15-1.8-.08-2.86l-.75,1.3c.57-.4,1.12-.81,1.67-1.22a6.16,6.16,0,0,0,.78-.56c.21-.23.19,0-.08,0a11.63,11.63,0,0,1,3.42.78,16.28,16.28,0,0,0,7.36.68,33.67,33.67,0,0,0,5.8-2,8.07,8.07,0,0,1,2.65-.62,3.83,3.83,0,0,1,1.21.15,4.84,4.84,0,0,0,.6.22c.4.06.17.26.27-.24l.69-.9c.6-.15.69-.19.28-.14-1.9.18-1.92,3.18,0,3,1.06-.1,2-.45,2-1.69a2.84,2.84,0,0,0-1.72-2.62,7.89,7.89,0,0,0-6-.32c-2,.61-3.8,1.6-5.81,2.09-2.46.6-4.74,0-7.11-.68a15.86,15.86,0,0,0-3.39-.71,4.07,4.07,0,0,0-2.79,1.23c-1,.72-2,1.17-2.12,2.48-.06.74.11,1.42.11,2.15,0,2.95-2,7.91-5.49,8,.18,0,.18.34.13.1a2.24,2.24,0,0,1,0-.52A5.39,5.39,0,0,1,98,42.2a9.89,9.89,0,0,1,1.09-2.54,15.18,15.18,0,0,1,6.9-6.19,1.52,1.52,0,0,0,.54-2c-2.44-5.18-9.8-1.28-13,1.14a17.65,17.65,0,0,0-7.06,12.93A8.89,8.89,0,0,0,89,52.61a8.38,8.38,0,0,0,6.91,2c4.89-.62,8.86-4.35,11.4-8.36a20,20,0,0,0,2.91-7.39c0-.32.09-.63.17-.94a7.59,7.59,0,0,0,.32-.85l0-.09c-1.19,0-1.45.2-.79.44a5.09,5.09,0,0,0,1,.4,12.32,12.32,0,0,0,5,.31l-.76-2.79c-3.8,2.64-7.26,7.57-6,12.44a5.73,5.73,0,0,0,4,4.12,8.41,8.41,0,0,0,3.53.13,13.49,13.49,0,0,0,2-.46c.44-.14.86-.3,1.28-.47l.7-.29q.69-.27,0-.06l-1.45-1.1c-.11-.4.31-.52-.07-.34a1.63,1.63,0,0,0-.17.22,7.4,7.4,0,0,1-.66.71c-.16.15-.66.46-.28.3s-.43.07-.57.12c-1.25.4-2.47.86-3.68,1.36a35.69,35.69,0,0,0-8.48,4.81c-2.34,1.84-4.89,4.45-5.42,7.49s.85,6.07,4.17,6.17c5.77.19,11.07-2.65,14.87-6.83a42.6,42.6,0,0,0,3.83-5c.4-.58.78-1.18,1.21-1.74-.15.2.14-.12.27-.29s-.21.13-.07,0-.22.09-.21.09a2.42,2.42,0,0,0,.62-.18,17.62,17.62,0,0,0,8.42-6.37c1.21-1.64,3-4.95.55-6.39a1.55,1.55,0,0,0-1.82.24,31.24,31.24,0,0,1-2.84,2.29,2.1,2.1,0,0,0-.41.24l.12,0c-.72.19-.24.61,1.42,1.26-.09,0-.1.15.09-.06a4.86,4.86,0,0,0,.33-.54c.8-1.28,1.64-2.54,2.47-3.8a40,40,0,0,0,4-7.17c.74-1.89,1.18-4.41-.53-5.94s-4.35-.55-6,.63a13.53,13.53,0,0,0-3.9,4.72c-1.26,2.25-2.22,5-4.29,6.62-.44.35-1.85,1.34-2.06.81s.53-1.61.84-2.07A19.43,19.43,0,0,1,126,36.23a28.51,28.51,0,0,1,2.83-1.77,4.32,4.32,0,0,1,1.59-.67c1.9-.32,1.1-3.21-.8-2.9Z"/><path class="cls-1" d="M185.14,52.19c.08-5.32-8.16-5.35-8.09,0-.09,5.35,8.12,5.31,8.09,0m-4.72-.41V50.73c.46.08,1.43-.2,1.47.49S180.9,51.72,180.42,51.78Zm0,.75h.44l1,1.81H183l-1.1-1.89a1,1,0,0,0,1-1.11c.12-1.7-2.23-1.3-3.39-1.34v4.35h.92Zm3.54-.34a2.93,2.93,0,0,1-2.89,3.09v0c-3.8.07-3.78-6.22,0-6.16A2.91,2.91,0,0,1,184,52.19"/><path class="cls-1" d="M186.64,52.19a5.34,5.34,0,0,0-3.82-5.25,5.54,5.54,0,0,0-6.47,8.25,5.73,5.73,0,0,0,5.86,2.37,5.29,5.29,0,0,0,4.43-5.37,1.5,1.5,0,0,0-3,0c0,.11,0,.23,0,.34s0,.11,0,.16c0,.26,0-.15,0-.15s-.14.6-.16.67-.21.27,0,0a1.19,1.19,0,0,0-.13.25,2.39,2.39,0,0,1-.13.21l-.07.11c-.14.21,0-.08.09-.11-.13.07-.26.29-.37.39s-.14.11-.2.18c.33-.34.12-.1,0,0s-.31.17-.47.26.38-.14.05,0l-.28.1-.53.12c-.32.06.4,0,.07,0l-.3,0-.54,0a.57.57,0,0,0-.13,0l.2,0-.3-.06a4.91,4.91,0,0,1-.51-.15l-.12-.05c-.17,0,.33.16.17.07l-.26-.13c-.16-.08-.29-.2-.45-.28.38.2.17.13,0,0l-.24-.23a1.73,1.73,0,0,0-.17-.21s.22.33.11.14a.76.76,0,0,0-.08-.11c-.1-.16-.16-.34-.26-.5.22.35.07.19,0,0a2.45,2.45,0,0,1-.08-.29c0-.1,0-.2-.06-.3s0,.14,0,.16a2,2,0,0,0,0-.25q0-.35,0-.69c0-.06,0-.11,0-.17s.09-.11,0,.16a2,2,0,0,0,.06-.35c0-.09,0-.19.08-.29s.16-.4,0-.13,0-.06.06-.11.1-.18.16-.27.27-.26,0,0c.06-.06.11-.14.17-.2l.19-.19c.05-.05.34-.28.11-.1s0,0,.09-.05l.23-.14.23-.12c.26-.13-.36.12,0,0a4.91,4.91,0,0,1,.51-.15l.26-.06c.37-.07-.37,0,0,0l.5,0,.27,0c.4,0-.25-.06,0,0s.41.08.61.14l.29.1c.21.07-.17-.07-.18-.07a1.42,1.42,0,0,0,.18.08c.18.09.35.21.52.31s-.14-.1-.15-.11.12.09.15.13a1.45,1.45,0,0,1,.22.21c.07.07.13.16.2.23-.32-.31-.11-.14,0,0s.11.18.16.27l.06.13c.13.24-.12-.36,0-.09s.13.43.18.65c.08.39,0-.33,0,.08,0,.14,0,.29,0,.43a1.5,1.5,0,0,0,3,0Z"/><path class="cls-1" d="M181.92,51.78V50.73L180,52.17a3.49,3.49,0,0,0,.85.07,3,3,0,0,1,.52,0l-.4-.06a1,1,0,0,1,.23.06l-.36-.15.11.06-.3-.23.07.07-.23-.3a.41.41,0,0,1,.05.09l-.15-.36a.31.31,0,0,1,0,.13l-.05-.4a.67.67,0,0,1,0,.2l.05-.4a.5.5,0,0,1,0,.13l.15-.35-.05.08.23-.3-.07.07.3-.23-.11.06.36-.15a.8.8,0,0,1-.21,0l.39,0c-.32,0-.65,0-1,0a1.72,1.72,0,0,0-1.06.44,1.17,1.17,0,0,0-.31.48,1.27,1.27,0,0,0-.13.58l.06.4a1.57,1.57,0,0,0,.38.66l.31.23a1.42,1.42,0,0,0,.75.21,5.43,5.43,0,0,1,.7,0h.19a5.58,5.58,0,0,0,.57-.08,2.34,2.34,0,0,0,.5-.19l.06,0,0,0c.11-.08.24-.17.34-.26l0-.05a2.51,2.51,0,0,0,.25-.32l0,0,0,0,.16-.39a.19.19,0,0,0,0-.08,2.35,2.35,0,0,0,.06-.6,3.93,3.93,0,0,0-.06-.48s0,0,0,0a2.66,2.66,0,0,0-.16-.39,1.34,1.34,0,0,0-.32-.43l0,0a4.08,4.08,0,0,0-.33-.25l-.07,0-.42-.17-.08,0a3.72,3.72,0,0,0-.57-.08c-.29,0-.58,0-.87,0l.4.06h-.05a1.55,1.55,0,0,0-.8,0,1.26,1.26,0,0,0-.51.27,1,1,0,0,0-.38.42,1.45,1.45,0,0,0-.21.76v1.05a1.27,1.27,0,0,0,.13.58,1.24,1.24,0,0,0,.31.48,1.72,1.72,0,0,0,1.06.44l.4-.05a1.47,1.47,0,0,0,.66-.39A1.54,1.54,0,0,0,181.92,51.78Z"/><path class="cls-1" d="M180.42,54h.44l-1.3-.75,1,1.82a1.49,1.49,0,0,0,1.29.74H183a1.51,1.51,0,0,0,1.29-2.25l-1.09-1.9L181.85,54a2.57,2.57,0,0,0,2.23-1.31,3,3,0,0,0,0-2.68c-.6-1.19-2-1.46-3.22-1.47-.46,0-.92,0-1.37,0A1.52,1.52,0,0,0,178,50v4.35a1.52,1.52,0,0,0,1.5,1.5h.92a1.52,1.52,0,0,0,1.5-1.5V52.53a1.5,1.5,0,0,0-3,0v1.82l1.5-1.5h-.92l1.5,1.5V50l-1.5,1.5c.69,0,1.38,0,2.07,0l-.4-.05a2.86,2.86,0,0,1,.64.16l-.36-.15a1.64,1.64,0,0,1,.29.16l-.3-.23.18.17-.24-.3a.8.8,0,0,1,.13.21l-.15-.35a1.12,1.12,0,0,1,.08.26l-.06-.39a2.26,2.26,0,0,1,0,.52l.05-.4a1.16,1.16,0,0,1-.08.32l.15-.35a1.13,1.13,0,0,1-.12.21l.24-.31a.87.87,0,0,1-.17.16l.31-.23-.2.11.36-.15a1.54,1.54,0,0,1-.37.09l.4-.05h-.1a1.54,1.54,0,0,0-1.29.74,1.51,1.51,0,0,0,0,1.51l1.09,1.9,1.3-2.26h-1.1l1.3.75-1-1.82a1.49,1.49,0,0,0-1.29-.74h-.44a1.5,1.5,0,0,0,0,3Z"/><path class="cls-1" d="M182.46,52.19c0,.11,0,.21,0,.32s0,.06,0-.17a.55.55,0,0,1,0,.17,2.75,2.75,0,0,1-.14.49c-.08.25.18-.34,0,0l-.12.21c-.09.13-.21.19.05,0a1.71,1.71,0,0,0-.18.2l-.2.18c-.19.18.3-.19.07,0l-.2.12c-.05,0-.36.16-.09.06s-.05,0-.11,0l-.22,0c-.27.06,0,0,.09,0-.1,0-.21,0-.31,0l1.5,1.5v0a1.52,1.52,0,0,0-1.5-1.5h-.34c-.15,0-.2-.09.19,0a.86.86,0,0,0-.17,0l-.26-.08-.1,0c-.22-.07.4.2.11,0l-.22-.13-.1-.07c-.15-.09.32.28.16.13s-.13-.11-.18-.17-.27-.41,0,0c-.09-.16-.19-.29-.27-.45-.17-.33.12.34,0,.07a2.46,2.46,0,0,1-.09-.29,2.68,2.68,0,0,1-.07-.27c0-.17,0-.46,0,.09,0-.19,0-.38,0-.57a2.46,2.46,0,0,0,0-.26c0-.25-.07.43,0,.19,0,0,0-.07,0-.1,0-.19.1-.37.15-.55s-.18.38,0,0c0-.08.09-.16.14-.24s.09-.14.13-.21-.13.2-.14.18.12-.13.13-.15l.19-.18c.23-.22-.34.22-.07.05l.22-.13.14-.07c-.33.22-.31.12-.16.07l.27-.08.16,0c.24-.06-.38,0-.19,0l.3,0h.17c.06,0,.41,0,.11,0s0,0,0,0l.26.07.18.06c-.41-.1-.19-.08-.05,0l.16.1.13.09c-.2-.16-.25-.2-.16-.12l.33.32c.11.12,0,.19-.07-.09,0,.08.11.15.15.23s.06.12.1.17c.14.25-.13-.35,0,0a3.07,3.07,0,0,1,.13.5c0,.22-.07.1,0-.09a1.56,1.56,0,0,0,0,.37,1.5,1.5,0,0,0,3,0,4.57,4.57,0,0,0-2.92-4.34,4.33,4.33,0,0,0-3.92.49,5,5,0,0,0-1.19,6.44,4.17,4.17,0,0,0,3.64,2l-1.5-1.5v0a1.52,1.52,0,0,0,1.5,1.5,4.42,4.42,0,0,0,3.09-1.29,4.75,4.75,0,0,0,1.3-3.3,1.51,1.51,0,0,0-1.5-1.5,1.53,1.53,0,0,0-1.5,1.5Z"/><path class="cls-1" d="M162.42,34.05s0-.08,0-.13a.52.52,0,0,1,.13.06s-.07.05-.09.07m24.06-7.6c-2.92-3.24-7.61-3.31-11.28-1.22a1.64,1.64,0,0,0,0-.25c1.59-5.55-3.22-11-8.1-10.58-6.41-.18-10.95,7.65-6.85,12.88a5.22,5.22,0,0,0-.76,2.66c-.08-.06-.16-.08-.24-.14-2.68-8.18-14.88-2-19.55,1.58a5.91,5.91,0,0,0-8-3.94c-5.92-3.55-10.9,1.91-16.4,1.62-2.67-.33-6.16-2.1-8.85-1.5-1.8-1.44-4.55-1.4-6.83-.71,12.74-17.29,2.06-29.54-15.08-14-9.37-11-22.83,4.47-28.15,14.79a7.17,7.17,0,0,0-4.74-2.2c4.62-4,11-9.48,11.61-16.35-.45-8.8-10.37-9.84-15-4-1.77,2.08-5,5.89-6.72,7.89a4.72,4.72,0,0,0-4.54-3.83c-6.93.13-10.64,4.61-16.07,7.2-5.43,2.95-11,4.83-15.36,10C2,30.37,2.27,37,7.33,39.28c-2.6,2.84-5.67,6.7-5.8,10.94-.25,7.23,9.12,10,14,5.59a31.65,31.65,0,0,0,4.18-4.26c.29,15.74,21,12.69,19.55,3.52,5.31,2.69,11.42,1.31,15.6-1.59,4.5,4.15,11.63,2.92,16.46.12,3.94,4.68,11.12,4.46,15.4.24,6.26,6.79,15.75,2.37,20.65-3.63a7.47,7.47,0,0,0,1.16,1.55c-6.15,3.22-14.29,10.39-10.25,18A6.33,6.33,0,0,0,103.73,73c10,.25,16-6,19.3-10.53-1.28,4.4.3,9.56,5.28,10.67,6.39,1.46,10.91-2.43,13.35-4.54,4.27-3.64,7.13-8.31,10.47-12.56a21.22,21.22,0,0,1,4.48-3.31c3.33,6.67,12.64,6.89,18.06,3,4.58-3.14,8-9,7.82-14.77,0-1.39-.07-2.77,0-4.12a6.13,6.13,0,0,0,4-10.33"/><path class="cls-2" d="M27.62,32.72C30.67,39,19.93,47.94,25,56.11c1.9,3.32,7.65,3.32,10,.78,1.77-1.9-1.72.48-2.33-2.8-1.27-6.76,5.34-13.91,2-21.77,6.53-4.54,26.23-15.39,24.44-24.81a3.58,3.58,0,0,0-4.17-2.09,7.15,7.15,0,0,0-3.56,2.31c-6.68,7.62-13,16.37-22.27,22.46l-1.43,2.53m-.41-.61C22.77,37.29,16.54,56.46,7.49,53.56c-9-7.23,16.42-19.79,17.08-28.32.05-.25-.33-.54-.84-.38-5.48,1.16-9.38,15.36-16,9.87C4.64,28,16.29,23.43,20.89,20.9c5.69-2.34,10.2-7.59,16.24-7.79a1.07,1.07,0,0,1,.55,1.51C34,20.59,30.33,26,27.21,32.11M166.93,18.35c2.22.13,3.32.34,4.35,2.94a4.28,4.28,0,0,1,.06,3c-.4,2.23-5.39,7.32-7.71,5.87-.46-.32.48-1.47,1-2.32a1.44,1.44,0,0,0-.07-1.67c-3.77-3.22-1.29-7.46,2.38-7.81"/><path class="cls-2" d="M135.63,62.85a21.39,21.39,0,0,0,5-6.06c.3-.49-.44.07-1.59.39s-8.53,5.15-5.72,6.84a4.6,4.6,0,0,0,2.31-1.17m33.78-15.48c2.86-2.1,4.38-7.13,3.35-10.75-2,.77-5.57,3.77-7.95,6.06-2.83,2.75-.44.59,1,1s3.23,2.3,2.31,3.27c-.34.37.66.88,1.27.42M154.26,29.76c1.37-.07,1.81,2.37.61,2.86-4,1.71-11.31,3.68-11.54,9.92a1.66,1.66,0,0,0,2.4,1c4.35-1.91,5.47-7.11,9.23-10.08,2.12-1.65,4.28.74,3.48,2.9A40.71,40.71,0,0,1,154.33,44c-.76,1.2.83.48,1.19.26,6.67-3.12,21.3-21.18,28.07-15.14a2.21,2.21,0,0,1,.41,2.47c-.66,1.45-2.4,1.16-3.86,1.43-3.12,1.51-.76,8.49-2.07,11.43-1.67,6.06-8.17,11.61-14.76,9.27a5.18,5.18,0,0,1-2.4-1.71c-4.1-4.88,2.5-7.82-1.23-5.68-3.06,1.75-8.74,4.74-10.68,7.17-5.38,6.35-10.31,16.92-19.84,15.69a3.37,3.37,0,0,1-2.58-3.07c-.3-9.94,13.09-12.27,18.54-16.93-.55-.26-3.2,1.73-5.48,1.62-1.13,0-2.88-.24-3.78-1.66-4.57-9.07,10.06-19.4,18.4-19.43M47.57,39.6a8.93,8.93,0,0,0,2-4.38c0-.87,0-1-.91-.95-1.35.11-5.5,4.95-5,7.79.08.48,1.69-.18,1.86-.29a12.23,12.23,0,0,0,2.11-2.17M69.68,28.91c1.32-2,6.55-7.93,3.91-8.08-4,.41-10.45,10.18-10.75,15,.67.51,5-4.44,6.84-6.95M88,28.14c14.14-19.06-3.93-6.3-6.28,6.26,1.18-.42,4.49-3.83,6.28-6.26M50.2,29.49a3.69,3.69,0,0,1,4.6,4c-.5,5.58-3.33,8.91-8.59,12.84-.5.4.09.78.45.79,3.63,0,8.29-4,8.66-5.1.63-1.75,1.17-4.7,1.69-6.17,3.55-9.23,13.89-25.71,22.86-22.14,1.71.75,1.86,2.15,1.25,4.48-2.84,10.73-11.8,19.46-18.06,24.16C59,45.41,68.36,45,70.88,43c.68-.55,2.15-1.23,2.35-2.28,1.89-10.09,12.69-29.52,25.35-31,1.29-.15,2.48.48,2.68,2.5.49,5.24-2.33,8.19-4.79,12.39C92.07,32,86.4,36.45,80.93,42.1c-1,1-.74,3.72,2.17,4,1.25.14,2.43-.55,3.4-.63.19,7.28-11.45,11-13.12,3.27.09-2.61-.41-1.17-.73-.89-4.32,3.74-13,7.12-16.71.79-2.86.67-6.49,4.26-10.48,3.89-2.65-.26-5.27-.89-6.69-2.79-.51-.7-2.34.83-3.56.18-1.67-.88-1.18-1.82-.44-2.64s3.15-1,3.29-2.69c.65-6.9,5.29-13.45,12.14-15.14"/><path class="cls-2" d="M110.52,63c1.56-1.09,6.34-6.12,5.06-6s-6.29,3-7.81,5.17c-.51.74-.21,1.42.53,1.54a3.51,3.51,0,0,0,2.22-.73M130,32.34c-1.87.24-12.65,7.08-11.36,11.41a1.71,1.71,0,0,0,2.26.85c4.68-1.69,5.5-7.12,8.35-10.62.39-1,4.94-4.67,6.42-2.13,1.74,3-4.12,10.4-7.1,15.38-1,2.62,4.15-2.15,4.14-2.13,2.13,1.06-3.11,8.6-9.23,10.19-1.74.44-6.45,14-19.67,13.71-2.73,0-3.24-3.69-2-6.07,3.42-6.33,12.5-9.78,16.88-11.11a7.78,7.78,0,0,0,1.83-2.12c.21-.69-.14-.41-.36-.33-11.83,5.33-12.62-7.08-4.33-12.73-2.34.24-4.2.15-5.81-.83-.46-.3-1.16,1.22-1.3,2.37-.89,7.27-8.73,17-16.6,14.67a6.23,6.23,0,0,1-4.09-5.27c-.84-8.35,5.91-15.87,14.12-17.2a2.58,2.58,0,0,1,3,1.8A16.18,16.18,0,0,0,97,40.5c-.61,1.38-1.74,5.35,1.28,4.74,4.7-.93,7-7.55,6.24-10.79l.07-1a30,30,0,0,1,2.87-2c1.76-.14,5.08,1.37,7.54,1.58,6.35.83,10.17-4.88,15.07-1.85.42.29.52,1.22.34,1.17a3.73,3.73,0,0,0-.42,0"/><path class="cls-2" d="M185.14,52.19c.08-5.32-8.16-5.35-8.09,0-.09,5.35,8.12,5.31,8.09,0m-4.72-.41V50.73c.46.08,1.43-.2,1.47.49S180.9,51.72,180.42,51.78Zm0,.75h.44l1,1.81H183l-1.1-1.89a1,1,0,0,0,1-1.11c.12-1.7-2.23-1.3-3.39-1.34v4.35h.92Zm3.54-.34a2.93,2.93,0,0,1-2.89,3.09v0c-3.8.07-3.78-6.22,0-6.16A2.91,2.91,0,0,1,184,52.19"/></g></g></svg>