<svg xmlns="http://www.w3.org/2000/svg" viewBox="0 0 432.88 73.5"><defs><style>.cls-1{fill:#fff;}.cls-2,.cls-4{isolation:isolate;}.cls-3,.cls-4{fill:#b49b57;}.cls-4{font-size:14.88px;font-family:AcherusGrotesque-Regular, Acherus Grotesque;letter-spacing:0.3em;}.cls-5{letter-spacing:0.3em;}.cls-6{letter-spacing:0.3em;}.cls-7{letter-spacing:0.23em;}</style></defs><g id="Layer_2" data-name="Layer 2"><g id="svg4403"><polygon class="cls-1" points="41.37 42.05 37.31 42.05 37.31 9.62 22.34 27.3 20.31 27.3 5.34 9.62 5.34 42.05 1.5 42.05 1.5 2.48 4.43 2.48 21.66 22.86 38.89 2.48 41.83 2.48 41.83 42.05 41.37 42.05"/><path class="cls-1" d="M41.37,40.55H37.31l1.5,1.5V9.62a1.52,1.52,0,0,0-2.56-1.06L23.16,24l-1.88,2.21,1.06-.44h-2l1.06.44L8.27,10.78,6.4,8.56A1.52,1.52,0,0,0,3.84,9.62V42.05l1.5-1.5H1.5L3,42.05V2.48L1.5,4H4.43L3.37,3.54,18.46,21.39l2.14,2.54a1.51,1.51,0,0,0,2.12,0L37.81,6.07,40,3.54,38.89,4h2.93l-1.5-1.5V42.05l1.5-1.5h-.45a1.5,1.5,0,0,0,0,3h.45a1.52,1.52,0,0,0,1.5-1.5V2.48A1.52,1.52,0,0,0,41.82,1c-1.56,0-3.3-.38-4.38.9L33.88,6.09,23.26,18.65,20.6,21.8h2.12L6.16,2.2a4.47,4.47,0,0,0-1-1C4.26.63,2.53,1,1.5,1A1.52,1.52,0,0,0,0,2.48V42.05a1.52,1.52,0,0,0,1.5,1.5H5.34a1.52,1.52,0,0,0,1.5-1.5V9.62L4.28,10.69,18.12,27c.74.87,1.21,1.72,2.46,1.76.89,0,2.12.19,2.83-.44a5.46,5.46,0,0,0,.53-.64l7.59-8.95,6.84-8.08L35.81,9.62V42.05a1.52,1.52,0,0,0,1.5,1.5h4.06A1.5,1.5,0,0,0,41.37,40.55Z"/><rect class="cls-1" x="49.2" y="2.48" width="4.06" height="39.57"/><path class="cls-1" d="M50.7,42.05V2.48L49.2,4h4.06l-1.5-1.5V42.05l1.5-1.5H49.2a1.5,1.5,0,0,0,0,3h4.06a1.52,1.52,0,0,0,1.5-1.5V2.48A1.52,1.52,0,0,0,53.26,1H49.2a1.52,1.52,0,0,0-1.5,1.5V42.05A1.5,1.5,0,0,0,50.7,42.05Z"/><path class="cls-1" d="M87.72,12.48l-4.29.91c-.9-4.89-4.67-8-10.08-8-4.89,0-8.5,2.7-8.5,7.14,0,3.84,2.48,5.12,6,6.25l8.73,2.93c5.34,1.58,8.5,4.67,8.5,10.08,0,6.7-5.56,11.21-13.61,11.21s-14.3-4.29-15.2-11.66l4.44-.9c.67,5.79,5.11,9,11.21,9,5.56,0,9.18-2.93,9.18-7.37,0-3.39-1.81-5.12-6-6.47L69.81,23c-4.66-1.58-9.4-4.07-9.4-10.31,0-6.7,5.11-11,13-11S86.36,6,87.72,12.48Z"/><path class="cls-1" d="M87.32,11l-4.29.9L84.87,13A11,11,0,0,0,78.38,4.8a12.69,12.69,0,0,0-11,.56,8.34,8.34,0,0,0-3.75,9.28c.9,3.29,4,4.58,6.93,5.56l6.32,2.12c2.25.76,4.65,1.35,6.59,2.78a8.37,8.37,0,0,1,2.93,8.68A9.51,9.51,0,0,1,80,40.57c-7.52,2.63-18-.4-19.21-9.28l-1.1,1.45,4.44-.9-1.9-1.45a11.24,11.24,0,0,0,5.54,8.75,15.15,15.15,0,0,0,11.43,1.1,8.73,8.73,0,0,0,6.38-7.51c.34-3.7-1.68-6.44-5-7.88-4.3-1.88-9.11-2.38-13.33-4.46-3.42-1.68-5.54-4.37-5.35-8.31a8.77,8.77,0,0,1,5-7.5,15.91,15.91,0,0,1,12.57-.26,11.62,11.62,0,0,1,6.81,8.56c.41,1.89,3.31,1.09,2.89-.8a14.76,14.76,0,0,0-5.5-8.79A17.3,17.3,0,0,0,72.86.23,15.71,15.71,0,0,0,62.57,3.92a11.94,11.94,0,0,0-3.66,9.17,11,11,0,0,0,5.37,9.08,28.46,28.46,0,0,0,7.1,2.88c2.1.63,4.21,1.23,6.3,1.89,1.47.47,3.22,1.1,4.19,2.38a4.94,4.94,0,0,1,.58,4c-1,4.09-6,4.88-9.53,4.38-4-.57-7.16-3.2-7.7-7.33a1.54,1.54,0,0,0-1.9-1.45l-4.44.91a1.49,1.49,0,0,0-1.1,1.44,14.09,14.09,0,0,0,4.88,9.28A18,18,0,0,0,73,44.41c7.34.48,15.46-3.07,16.46-11.12a11.29,11.29,0,0,0-3.19-9.71c-2.08-1.94-4.7-2.82-7.34-3.71l-6.89-2.32c-2.17-.73-5.12-1.39-5.63-4-.88-4.43,3.23-6.77,7.09-6.72A8.33,8.33,0,0,1,82,13.78a1.53,1.53,0,0,0,1.85,1.05l4.29-.9C90,13.53,89.2,10.64,87.32,11Z"/><path class="cls-1" d="M120.82,12.48l-4.29.91c-.9-4.89-4.66-8-10.08-8-4.89,0-8.5,2.7-8.5,7.14,0,3.84,2.48,5.12,6,6.25l8.72,2.93c5.35,1.58,8.51,4.67,8.51,10.08,0,6.7-5.57,11.21-13.62,11.21s-14.3-4.29-15.2-11.66l4.44-.9c.68,5.79,5.12,9,11.21,9,5.57,0,9.18-2.93,9.18-7.37,0-3.39-1.81-5.12-6-6.47L102.91,23c-4.66-1.36-9.17-3.84-9.17-10.09,0-6.69,5.11-11,13-11C114.35,1.8,119.47,6,120.82,12.48Z"/><path class="cls-1" d="M120.42,11l-4.29.9L118,13a11.05,11.05,0,0,0-6.5-8.19,12.69,12.69,0,0,0-11,.56,8.33,8.33,0,0,0-3.74,9.28c.89,3.29,4,4.58,6.92,5.56L110,22.32c2.25.76,4.66,1.35,6.6,2.78a8.4,8.4,0,0,1,2.93,8.68,9.54,9.54,0,0,1-6.4,6.79c-7.52,2.63-18-.4-19.21-9.28l-1.1,1.45,4.44-.9-1.9-1.45a11.28,11.28,0,0,0,5.41,8.68,15.13,15.13,0,0,0,11.4,1.21,8.71,8.71,0,0,0,6.5-7.21,7.47,7.47,0,0,0-4.47-8c-4.25-2-9.1-2.51-13.4-4.38-3.47-1.51-5.61-4.18-5.52-8.06A8.72,8.72,0,0,1,99.82,5a15.94,15.94,0,0,1,12.36-.74,11.35,11.35,0,0,1,7.19,8.61c.42,1.89,3.31,1.09,2.9-.8a14.62,14.62,0,0,0-5.63-8.82,17.05,17.05,0,0,0-11-2.78A15.3,15.3,0,0,0,95.7,4.34a12,12,0,0,0-3.44,9.37,10.74,10.74,0,0,0,5.62,8.87,32.71,32.71,0,0,0,6.92,2.57c2,.6,4,1.16,6,1.79,1.48.47,3.26,1.11,4.21,2.43a5,5,0,0,1,.52,4.1c-1.08,4.05-6.15,4.77-9.67,4.22-3.95-.62-7-3.23-7.53-7.3a1.54,1.54,0,0,0-1.9-1.45L92,29.85a1.49,1.49,0,0,0-1.1,1.44,14.18,14.18,0,0,0,4.88,9.28,18,18,0,0,0,10.38,3.84c7.33.48,15.45-3.07,16.45-11.12a11.29,11.29,0,0,0-3.19-9.71c-2.08-1.94-4.7-2.82-7.34-3.71l-6.89-2.32c-2.17-.73-5.12-1.39-5.63-4-.87-4.43,3.23-6.77,7.09-6.72a8.32,8.32,0,0,1,8.45,6.94,1.53,1.53,0,0,0,1.85,1.05l4.29-.9C123.11,13.53,122.31,10.64,120.42,11Z"/><path class="cls-1" d="M205.83,24.6c0,10.75-6.69,17.9-16.55,17.9s-16.55-7.15-16.55-17.9V2.25h4.06V24.6c0,8.5,4.89,14.06,12.57,14.06,7.37,0,12.33-5.56,12.33-14.06V2.25h4.07Z"/><path class="cls-1" d="M204.33,24.6c0,6-2.46,12.08-8.12,14.89-5.09,2.53-12.06,2-16.47-1.67-4.07-3.37-5.5-8.54-5.51-13.65V2.25l-1.5,1.5h4.06l-1.5-1.5V17c0,5.6-.69,11.86,2.33,16.86C182,41.07,193,42.4,199,36.3c4.54-4.66,4.23-11.06,4.23-17.06v-17l-1.5,1.5h4.07l-1.5-1.5.06,19.53V24.6a1.5,1.5,0,0,0,3,0l-.06-19.53V2.25a1.53,1.53,0,0,0-1.5-1.5h-4.07a1.52,1.52,0,0,0-1.5,1.5V23.39a18.69,18.69,0,0,1-1.14,7.41,10.18,10.18,0,0,1-8.42,6.31,10.82,10.82,0,0,1-9.77-3.83c-3.27-4.25-2.57-10.11-2.57-15.15V2.25a1.52,1.52,0,0,0-1.5-1.5h-4.06a1.52,1.52,0,0,0-1.5,1.5q0,11,0,22.06c0,5.85,1.83,11.9,6.5,15.72a18.85,18.85,0,0,0,18.69,2.63c7.36-3,10.86-10.43,10.91-18.06A1.5,1.5,0,0,0,204.33,24.6Z"/><polygon class="cls-1" points="247.44 41.82 244.28 41.82 216.06 9.62 216.06 41.82 212 41.82 212 2.25 214.94 2.25 243.15 34.68 243.15 2.25 247.21 2.25 247.44 41.82"/><path class="cls-1" d="M247.44,40.32h-3.16l1.06.44-9.49-10.83L220.62,12.55l-3.5-4a1.52,1.52,0,0,0-2.56,1.06v32.2l1.5-1.5H212l1.5,1.5V2.25L212,3.75h2.94l-1.07-.44,9.51,10.93,15.18,17.45,3.53,4.05a1.52,1.52,0,0,0,2.56-1.06V2.25l-1.5,1.5h4.06l-1.5-1.5.2,34.73,0,4.84a1.5,1.5,0,0,0,3,0l-.2-34.73,0-4.84a1.52,1.52,0,0,0-1.5-1.5h-4.06a1.52,1.52,0,0,0-1.5,1.5V34.68l2.56-1.06L233.36,21.14l-15.5-17.8c-.57-.67-1.12-1.38-1.74-2-1-1-2.86-.58-4.12-.58a1.52,1.52,0,0,0-1.5,1.5V41.82a1.52,1.52,0,0,0,1.5,1.5h4.06a1.52,1.52,0,0,0,1.5-1.5V9.62L215,10.69l10.92,12.46,15.5,17.69c.56.64,1.09,1.33,1.69,1.93,1,1,3.06.55,4.33.55A1.5,1.5,0,0,0,247.44,40.32Z"/><rect class="cls-1" x="253.98" y="2.25" width="4.06" height="39.57"/><path class="cls-1" d="M255.48,41.82V2.25L254,3.75H258l-1.5-1.5V41.82l1.5-1.5H254a1.5,1.5,0,0,0,0,3H258a1.52,1.52,0,0,0,1.5-1.5V2.25A1.52,1.52,0,0,0,258,.75H254a1.52,1.52,0,0,0-1.5,1.5V41.82A1.5,1.5,0,0,0,255.48,41.82Z"/><polygon class="cls-1" points="282.12 41.82 279.18 41.82 260.83 2.25 265.27 2.25 280.46 35.13 295.66 2.25 300.1 2.25 282.12 41.82"/><path class="cls-1" d="M282.12,40.32h-2.94l1.3.75L274.3,27.74,264.39,6.38l-2.27-4.89-1.29,2.26h4.44L264,3l13.31,28.8,1.89,4.08a1.51,1.51,0,0,0,2.59,0l13.31-28.8L297,3l-1.3.74h4.44l-1.3-2.26L292.71,14.9l-9.65,21.25-2.24,4.92c-.79,1.74,1.8,3.27,2.59,1.51l6.1-13.41,9.65-21.25L301.39,3A1.52,1.52,0,0,0,300.1.75h-4.44a1.47,1.47,0,0,0-1.29.74l-13.32,28.8-1.88,4.08h2.59L268.45,5.57l-1.89-4.08a1.47,1.47,0,0,0-1.29-.74h-4.44A1.53,1.53,0,0,0,259.53,3l6.18,13.32,9.91,21.37,2.27,4.88a1.46,1.46,0,0,0,1.29.74h2.94A1.5,1.5,0,0,0,282.12,40.32Z"/><polygon class="cls-1" points="330.04 41.82 303.18 41.82 303.18 2.25 329.82 2.25 329.82 6.09 307.25 6.09 307.25 19.1 328.54 19.1 328.54 22.94 307.25 22.94 307.25 38.14 329.82 38.14 329.82 41.98 330.04 41.98 330.04 41.82"/><path class="cls-1" d="M330,40.32H303.18l1.5,1.5V2.25l-1.5,1.5h26.64l-1.5-1.5V6.09l1.5-1.5H307.25a1.52,1.52,0,0,0-1.5,1.5v13a1.52,1.52,0,0,0,1.5,1.5h21.29L327,19.1v3.84l1.5-1.5H307.25a1.52,1.52,0,0,0-1.5,1.5v15.2a1.52,1.52,0,0,0,1.5,1.5h22.57l-1.5-1.5V42a1.51,1.51,0,0,0,1.5,1.5H330a1.52,1.52,0,0,0,1.5-1.5v-.15a1.5,1.5,0,0,0-3,0V42l1.5-1.5h-.22l1.5,1.5V38.14a1.52,1.52,0,0,0-1.5-1.5H307.25l1.5,1.5V22.94l-1.5,1.5h21.29a1.52,1.52,0,0,0,1.5-1.5V19.1a1.52,1.52,0,0,0-1.5-1.5H307.25l1.5,1.5v-13l-1.5,1.5h22.57a1.52,1.52,0,0,0,1.5-1.5V2.25a1.52,1.52,0,0,0-1.5-1.5H303.18a1.52,1.52,0,0,0-1.5,1.5V41.82a1.52,1.52,0,0,0,1.5,1.5H330A1.5,1.5,0,0,0,330,40.32Z"/><path class="cls-1" d="M365.85,41.82l-18.35-19H339v19h-4.06V2.25h14.3c7.14,0,12.11,4.06,12.11,10.31,0,5.11-3.39,9-8.95,10.08L371,41.9h-5.12ZM349.3,19c4.67,0,8.05-2.71,8.05-6.47,0-4.06-3.16-6.47-8.05-6.47H339.22V19.25Z"/><path class="cls-1" d="M366.91,40.76,357,30.44,350.72,24c-.93-1-2-2.62-3.45-2.68-2.75-.12-5.52,0-8.28,0a1.52,1.52,0,0,0-1.5,1.5v19l1.5-1.5h-4.06l1.5,1.5V2.25l-1.5,1.5h12.92A15.79,15.79,0,0,1,355.07,5a8.38,8.38,0,0,1,4.75,8.25c-.26,4.41-3.78,7.1-7.83,8a1.51,1.51,0,0,0-.66,2.51L367.6,40.56l2.31,2.4L371,40.4h-5.12l1.5,1.5v-.08a1.5,1.5,0,0,0-3,0v.08a1.52,1.52,0,0,0,1.5,1.5H371A1.52,1.52,0,0,0,372,40.84L355.76,24l-2.31-2.4-.67,2.51c4.24-.92,8-3.51,9.44-7.7A11.67,11.67,0,0,0,360,4.91C355.49,0,348.36.75,342.33.75h-7.4a1.52,1.52,0,0,0-1.5,1.5V41.82a1.52,1.52,0,0,0,1.5,1.5H339a1.51,1.51,0,0,0,1.5-1.5v-19l-1.5,1.5h8.51l-1.06-.44,16.07,16.67,2.28,2.36C366.13,44.28,368.25,42.15,366.91,40.76Z"/><path class="cls-1" d="M349.3,20.53c3.27,0,6.7-1.26,8.49-4.16a7.67,7.67,0,0,0-.53-8.57c-3-3.8-8.33-3.21-12.64-3.21h-5.4a1.52,1.52,0,0,0-1.5,1.5V19.25a1.52,1.52,0,0,0,1.5,1.5l10.08-.22c1.93,0,1.94-3,0-3l-10.08.22,1.5,1.5V6.09l-1.5,1.5h9.12a10.7,10.7,0,0,1,4.92.78,4.57,4.57,0,0,1,2.48,5.2c-.69,2.85-3.81,3.93-6.44,4A1.5,1.5,0,0,0,349.3,20.53Z"/><path class="cls-1" d="M399.41,12.26l-4.29.9c-.9-4.89-4.67-8-10.08-8-4.89,0-8.5,2.71-8.5,7.15,0,3.83,2.48,5.11,6,6.24l8.73,2.71c5.34,1.58,8.5,4.66,8.5,10.08,0,6.7-5.56,11.21-13.61,11.21s-14.3-4.29-15.2-11.66l4.44-.9c.67,5.79,5.11,9,11.21,9,5.56,0,9.18-2.93,9.18-7.37,0-3.39-1.81-5.12-6-6.47l-8.28-2.49c-4.66-1.35-9.18-3.83-9.18-10.08,0-6.69,5.12-11,13-11C392.94,1.57,398.05,5.79,399.41,12.26Z"/><path class="cls-1" d="M399,10.81l-4.29.9,1.84,1a11,11,0,0,0-6.5-8.18,12.67,12.67,0,0,0-11,.55,8.36,8.36,0,0,0-3.78,9.15c.8,3.34,4,4.74,7,5.69,2.08.66,4.17,1.29,6.25,1.94,2.33.72,4.81,1.31,6.78,2.83A8.42,8.42,0,0,1,398,33.48a9.53,9.53,0,0,1-6.36,6.63c-7.52,2.64-18-.39-19.21-9.27l-1.1,1.45,4.44-.91-1.9-1.44a11.25,11.25,0,0,0,5.41,8.67,15.08,15.08,0,0,0,11.4,1.22,8.74,8.74,0,0,0,6.5-7.21,7.48,7.48,0,0,0-4.47-8c-4.26-2-9.1-2.51-13.41-4.38-3.46-1.51-5.6-4.18-5.51-8.06a8.72,8.72,0,0,1,4.58-7.61A15.42,15.42,0,0,1,390.77,4a11.66,11.66,0,0,1,7.19,8.7c.41,1.88,3.31,1.08,2.89-.8A14.77,14.77,0,0,0,395.23,3a17.16,17.16,0,0,0-11-3,15.25,15.25,0,0,0-9.94,3.86,12,12,0,0,0-3.44,9.37,10.74,10.74,0,0,0,5.62,8.87,32.51,32.51,0,0,0,6.92,2.57c2,.6,4,1.16,6,1.79,1.49.47,3.26,1.11,4.22,2.43a5,5,0,0,1,.52,4.1c-1.09,4-6.15,4.77-9.67,4.22-3.95-.62-7-3.23-7.53-7.3a1.53,1.53,0,0,0-1.9-1.45l-4.44.9a1.51,1.51,0,0,0-1.1,1.45,14.16,14.16,0,0,0,4.88,9.28A18,18,0,0,0,384.72,44c7.23.49,15.36-3,16.43-10.91a11.41,11.41,0,0,0-2.95-9.71c-2.05-2-4.73-3-7.43-3.85l-7.06-2.19c-2.22-.69-5.18-1.43-5.61-4.11-.72-4.36,3.3-6.62,7.12-6.57a8.33,8.33,0,0,1,8.45,7,1.54,1.54,0,0,0,1.85,1l4.29-.91C401.69,13.31,400.89,10.41,399,10.81Z"/><polygon class="cls-1" points="431.38 41.82 404.52 41.82 404.52 2.25 431.15 2.25 431.15 6.09 408.58 6.09 408.58 19.1 429.88 19.1 429.88 22.94 408.58 22.94 408.58 38.14 431.15 38.14 431.15 41.98 431.38 41.98 431.38 41.82"/><path class="cls-1" d="M431.38,40.32H404.52l1.5,1.5V2.25l-1.5,1.5h26.63l-1.5-1.5V6.09l1.5-1.5H408.58a1.52,1.52,0,0,0-1.5,1.5v13a1.52,1.52,0,0,0,1.5,1.5h21.3l-1.5-1.5v3.84l1.5-1.5h-21.3a1.52,1.52,0,0,0-1.5,1.5v15.2a1.52,1.52,0,0,0,1.5,1.5h22.57l-1.5-1.5V42a1.52,1.52,0,0,0,1.5,1.5h.23a1.52,1.52,0,0,0,1.5-1.5v-.15a1.5,1.5,0,0,0-3,0V42l1.5-1.5h-.23l1.5,1.5V38.14a1.52,1.52,0,0,0-1.5-1.5H408.58l1.5,1.5V22.94l-1.5,1.5h21.3a1.52,1.52,0,0,0,1.5-1.5V19.1a1.52,1.52,0,0,0-1.5-1.5h-21.3l1.5,1.5v-13l-1.5,1.5h22.57a1.52,1.52,0,0,0,1.5-1.5V2.25a1.52,1.52,0,0,0-1.5-1.5H404.52a1.52,1.52,0,0,0-1.5,1.5V41.82a1.52,1.52,0,0,0,1.5,1.5h26.86A1.5,1.5,0,0,0,431.38,40.32Z"/><polygon class="cls-1" points="165.81 23.24 150.16 21.66 156.18 14.52 148.81 20.53 147.45 4.66 147.23 4.66 145.87 20.53 138.5 14.52 144.52 21.66 128.64 23.24 144.52 24.82 138.5 32.19 145.87 26.18 147.23 41.82 147.45 41.82 148.81 26.18 156.18 32.19 150.16 24.82 165.81 23.24"/><path class="cls-1" d="M165.81,21.74l-15.65-1.58,1.06,2.56,6-7.14a1.5,1.5,0,0,0-2.12-2.13l-7.37,6,2.56,1.06L149,4.66a1.53,1.53,0,0,0-1.5-1.5h-.22a1.53,1.53,0,0,0-1.5,1.5l-1.36,15.87,2.56-1.06-7.37-6a1.5,1.5,0,0,0-2.12,2.13l6,7.14,1.06-2.56-15.88,1.58a1.5,1.5,0,0,0,0,3l15.88,1.58-1.06-2.56-6,7.37a1.5,1.5,0,0,0,2.12,2.12l7.37-6-2.56-1.06,1.36,15.64a1.53,1.53,0,0,0,1.5,1.5h.22a1.54,1.54,0,0,0,1.5-1.5l1.36-15.64-2.56,1.06,7.37,6a1.5,1.5,0,0,0,2.12-2.12l-6-7.37-1.06,2.56,15.65-1.58c1.9-.19,1.92-3.19,0-3l-15.65,1.58a1.52,1.52,0,0,0-1.06,2.56l6,7.37,2.12-2.12-7.37-6a1.52,1.52,0,0,0-2.56,1.06L146,41.82l1.5-1.5h-.22l1.5,1.5-1.36-15.64a1.52,1.52,0,0,0-2.56-1.06l-7.37,6,2.12,2.12,6-7.37a1.52,1.52,0,0,0-1.06-2.56l-15.88-1.58v3l15.88-1.58a1.52,1.52,0,0,0,1.06-2.56l-6-7.15-2.12,2.13,7.37,6a1.52,1.52,0,0,0,2.56-1.06l1.36-15.87-1.5,1.5h.22L146,4.66l1.36,15.87a1.52,1.52,0,0,0,2.56,1.06l7.37-6-2.12-2.13-6,7.15a1.52,1.52,0,0,0,1.06,2.56l15.65,1.58C167.73,24.94,167.71,21.93,165.81,21.74Z"/><g class="cls-2"><path class="cls-1" d="M80.34,66.19a.22.22,0,0,1,.17-.07c.06,0,.1,0,.16.09l.45.47c.12.15.12.23,0,.36a5.67,5.67,0,0,1-3.89,1.53,5.4,5.4,0,0,1,0-10.8A5.67,5.67,0,0,1,81.1,59.3c.12.12.11.2,0,.33l-.43.48a.24.24,0,0,1-.18.1.22.22,0,0,1-.16-.09,4.25,4.25,0,0,0-3.11-1.31,4.37,4.37,0,0,0,0,8.72A4.25,4.25,0,0,0,80.34,66.19Z"/><path class="cls-1" d="M81.1,67.49l-.19.07h-.8l.08,0-.66-.39a3.44,3.44,0,0,1,.27.27c.11.12.32.46.1.1l-.2-.76v.11l.21-.76c.1-.14-.12.06-.12.06a5.29,5.29,0,0,1-.5.32,3.36,3.36,0,0,1-1,.39,3.2,3.2,0,0,1-1,.14l-.53,0h-.1L76.43,67a3.94,3.94,0,0,1-.49-.14l-.2-.07c.06,0,.22.11,0,0a5.73,5.73,0,0,1-.86-.51c.2.14-.19-.19-.23-.23a2.91,2.91,0,0,1-.3-.31c-.06-.07-.13-.14-.18-.21s.11.15,0,0-.21-.32-.3-.48-.23-.45-.13-.23a4.59,4.59,0,0,1-.17-.48c0-.17-.08-.33-.12-.5s-.05-.29,0,0c0-.1,0-.2,0-.3a3.44,3.44,0,0,1,.3-1.87c.07-.16,0,0,0,0s.09-.17.13-.26.17-.29.26-.43l.12-.18s-.17.19,0,0a3.88,3.88,0,0,1,.39-.42c.06-.06.34-.3.27-.25s.26-.17.32-.21a2.71,2.71,0,0,1,.37-.21l.26-.13c-.15.07,0,0,0,0l.56-.16.28-.06c-.21,0,0,0,.12,0a4.72,4.72,0,0,1,1.1,0,4.85,4.85,0,0,1,1.13.36,4.19,4.19,0,0,1,.58.34,1.53,1.53,0,0,1,.21.14c-.15-.12.21.25,0,0l-.2-.76v.1l.21-.75c.22-.32,0,0-.1.09l-.27.28.66-.39-.09,0h.8c.08,0,.54.4.31.11L81,58.74c-.19-.16-.38-.31-.58-.45a5.52,5.52,0,0,0-1.31-.65,5.8,5.8,0,0,0-2.86-.24,5.69,5.69,0,0,0-4,2.89,6,6,0,0,0,3.37,8.52,5.79,5.79,0,0,0,5.71-1.56,1.5,1.5,0,0,0-2.13-2.12,2.75,2.75,0,0,1-1.8.89,2.15,2.15,0,0,1-1.06-.12s-.27-.11,0,0l-.26-.14c-.09,0-.17-.1-.25-.14-.33-.19.12.13-.16-.12s-.28-.27-.42-.41-.09-.1,0,0l-.17-.24a2.42,2.42,0,0,1-.43-1l-.06-.29c0,.27,0,0,0-.11a4,4,0,0,1,0-.6c0-.25,0,.2,0,0s.05-.24.08-.36l.09-.29,0-.13c0,.11,0,.11,0,0a6.65,6.65,0,0,1,.33-.58l0,0a2.09,2.09,0,0,1,.2-.22,2.26,2.26,0,0,1,.86-.64s.26-.1,0,0l.28-.1c.07,0,.6-.09.34-.08a3,3,0,0,1,1.29.16c.46.13-.09-.06.16.05l.27.15.25.15c.21.14-.14-.12,0,0,.56.46,1,.92,1.77.82a2.64,2.64,0,0,0,2-2.17c0-1.23-1.33-2.07-2.33-2.52a7.31,7.31,0,0,0-3.44-.71A6.86,6.86,0,0,0,72,58.78a7,7,0,0,0,1.72,10.3,7.08,7.08,0,0,0,6.73.24c1.24-.57,3-1.87,2-3.39-.58-.92-1.76-1.76-2.82-1a1.53,1.53,0,0,0-.54,2A1.51,1.51,0,0,0,81.1,67.49Z"/><path class="cls-1" d="M92.4,57.77a5.4,5.4,0,1,1-5.32,5.4A5.39,5.39,0,0,1,92.4,57.77Zm0,9.76a4.37,4.37,0,1,0-4.13-4.36A4.33,4.33,0,0,0,92.4,67.53Z"/><path class="cls-1" d="M92.4,59.27l.45,0c.05,0,.29.05,0,0a5.68,5.68,0,0,1,.71.18s.42.15.23.07.23.12.21.11a5.23,5.23,0,0,1,.67.41c.21.15-.24-.23.08.07l.21.19a4.79,4.79,0,0,1,.48.53c-.18-.24.09.15.1.16l.15.24c.06.11.11.22.17.32s0,.09,0,0c0,.09.07.19.1.28s.13.47.19.7c0,0,0,.3,0,0,0,.12,0,.25,0,.37s0,.46,0,.69c0,.45.08-.24,0,.19,0,.14-.06.29-.1.43s-.07.23-.11.35-.16.34,0,.11c-.11.21-.22.42-.35.62a2,2,0,0,1-.16.24l-.07.09c-.18.2-.37.37-.56.55s.22-.12-.14.12l-.24.16a4.71,4.71,0,0,1-.63.33c.23-.1,0,0,0,0l-.42.13L93,67c-.18,0-.19,0,0,0l-.22,0a5.14,5.14,0,0,1-.68,0s-.5-.07-.19,0L91.62,67a6,6,0,0,1-.69-.21c.24.09,0,0-.1,0l-.43-.24c-.09,0-.16-.11-.24-.16-.37-.24.11.1-.09-.07a5.9,5.9,0,0,1-.51-.49l-.24-.27c.15.19,0,0,0,0-.14-.24-.3-.48-.42-.74.1.21,0,0,0,0s-.09-.27-.13-.41,0-.19-.07-.29-.09-.49,0-.18a5.23,5.23,0,0,1,0-.68c0-.13,0-.26,0-.38,0-.43-.08.21,0-.2s.15-.56.24-.84,0-.1,0,0c.07-.15.15-.3.23-.45l.19-.3c.22-.35-.16.16.11-.15s.39-.41.6-.61.09-.07,0,0a4.38,4.38,0,0,1,.42-.28,3.07,3.07,0,0,1,.31-.17s.42-.19.16-.09c.28-.1.55-.16.84-.24h0a3.81,3.81,0,0,1,.59,0,1.5,1.5,0,0,0,0-3A6.91,6.91,0,0,0,88,68.43a6.81,6.81,0,0,0,7.92.65,7,7,0,0,0,3.15-7.35,6.92,6.92,0,0,0-6.67-5.46,1.5,1.5,0,0,0,0,3Z"/><path class="cls-1" d="M92.4,69A5.8,5.8,0,0,0,97.75,65a6,6,0,0,0-1.67-6.21,5.44,5.44,0,0,0-6.57-.59,6.05,6.05,0,0,0-2.63,6.11A5.82,5.82,0,0,0,92.4,69a1.51,1.51,0,0,0,1.5-1.5A1.53,1.53,0,0,0,92.4,66L92,66c.06,0,.32.07,0,0s-.38-.1-.57-.16-.21-.12,0,0l-.2-.11a1.92,1.92,0,0,1-.31-.18c-.07,0-.33-.28-.07,0a4.27,4.27,0,0,1-.38-.36l-.2-.22s.17.25,0,0a5.19,5.19,0,0,1-.31-.5,2.14,2.14,0,0,1-.1-.22c.16.32,0,0,0-.08s-.11-.38-.15-.57,0,0,0,0c0-.1,0-.2,0-.3a4.87,4.87,0,0,1,0-.54c0-.38-.06.21,0,0s.06-.27.1-.41a4,4,0,0,1,.15-.45c-.13.35.11-.19.17-.28l.12-.2c0-.05.29-.34.05-.07a5.49,5.49,0,0,1,.4-.43s.3-.26.12-.11.12-.08.13-.09.31-.17.46-.26-.33.1,0,0l.23-.08.29-.07.17,0c-.18,0-.21,0-.09,0h.55c.39,0-.19-.06,0,0l.29.06.23.07s.36.15.15,0,.14.07.14.08l.31.18.19.13c-.3-.21,0,0,.05.07s.22.23.33.34c.26.27-.15-.25,0,.07l.14.19a2.12,2.12,0,0,1,.11.21s.22.43.14.24,0,.14,0,.15,0,.16.07.23.12.69.08.3a4.89,4.89,0,0,1,0,.54c0,.1,0,.2,0,.3,0,.32.07-.27,0,.07a5.29,5.29,0,0,1-.15.57c0,.07-.19.41,0,.08-.06.11-.11.22-.17.32a5.19,5.19,0,0,1-.31.5c.19-.27,0,0,0,0a4.11,4.11,0,0,1-.29.3l-.17.15c.23-.23,0,0-.07,0l-.25.15s-.39.2-.2.11-.13,0-.15,0l-.34.1-.24.05c.39-.07-.13,0-.22,0a1.5,1.5,0,0,0,0,3Z"/><path class="cls-1" d="M105.59,68.14c0,.18-.06.24-.24.24h-.69c-.18,0-.24-.06-.24-.24V57.89c0-.1,0-.12.13-.12h.07a.22.22,0,0,1,.2.11l6.93,8.27v-8c0-.19.06-.24.24-.24h.71c.18,0,.23,0,.23.24V68.45c0,.11,0,.12-.12.12h-.08a.31.31,0,0,1-.22-.12l-6.92-8.31Z"/><path class="cls-1" d="M104.09,68.14v.11l.2-.75,0,.07.54-.54-.07,0,.76-.2a4.82,4.82,0,0,1-.93,0l.76.2-.07,0,.53.54,0-.07.21.75a33.86,33.86,0,0,1,0-3.49V58.25c0-.19,0-.69,0,0l-.38.66,0,0-1.06.44c.18,0,.16,0-.14,0l-.66-.38a7.62,7.62,0,0,1,.74.86l1.66,2,3.74,4.46.88,1.06a1.51,1.51,0,0,0,2.56-1.06v-4c0-1.32-.12-2.71,0-4l-.2.76,0-.07-.54.54.07,0-.75.2a7.22,7.22,0,0,1,.93,0l-.75-.2.06,0-.53-.54,0,.07-.2-.76c.09,1.16,0,2.35,0,3.51V68.1c0,.24-.11.56,0,.05l1-1a1.06,1.06,0,0,1,.53,0l.66.39a6.39,6.39,0,0,1-.77-.87l-1.63-2-3.77-4.53-.87-1c-.86-1-2.56-.16-2.56,1.06v8a1.5,1.5,0,1,0,3,0v-8l-2.56,1.06,6.35,7.64c.65.77,1.25,1.41,2.42,1.16a1.5,1.5,0,0,0,1-1,5.39,5.39,0,0,0,.08-1.39V59.63c0-.46,0-.92,0-1.38A1.7,1.7,0,0,0,113,56.5a3.65,3.65,0,0,0-1.71.1c-1,.41-1,1.38-1,2.28v7.27l2.56-1.06-6.66-8c-.09-.1-.17-.22-.27-.32a1.71,1.71,0,0,0-2.94.87,13.36,13.36,0,0,0,0,1.55v6.54c0,.76,0,1.52,0,2.28a1.75,1.75,0,0,0,1.75,1.82c.23,0,.46,0,.68,0a1.75,1.75,0,0,0,1.74-1.74,1.5,1.5,0,0,0-1.5-1.5A1.54,1.54,0,0,0,104.09,68.14Z"/><path class="cls-1" d="M121.61,68.14c0,.18-.06.24-.23.24h-.71c-.18,0-.24-.06-.24-.24V58.2c0-.18.06-.24.24-.24h6.61c.18,0,.23.06.23.24v.55c0,.18-.07.24-.23.24h-5.67v3.62h5.53c.18,0,.24.06.24.23v.55c0,.18-.06.24-.24.24h-5.53Z"/><path class="cls-1" d="M120.11,68.14v.11l.2-.75,0,.07.54-.54-.07,0,.76-.2a4.82,4.82,0,0,1-.93,0l.76.2-.08,0,.54.54,0-.07.2.75a33.08,33.08,0,0,1,0-3.45V59.42c0-.44,0-.89,0-1.33l-.2.76,0-.08-.54.54.08,0-.76.21a32.31,32.31,0,0,1,3.41,0,32.51,32.51,0,0,1,3.42,0l-.76-.21.08,0-.54-.54,0,.08-.21-.76a3.39,3.39,0,0,1,0,.78l.21-.76,0,.07.54-.54-.07,0,.75-.2a25.32,25.32,0,0,1-2.89,0h-2.88a1.52,1.52,0,0,0-1.5,1.5v3.62a1.52,1.52,0,0,0,1.5,1.5h2.82a26.72,26.72,0,0,1,2.83,0l-.76-.21.07,0-.54-.53,0,.07-.2-.76a3.39,3.39,0,0,1,0,.78l.2-.76,0,.07.54-.53-.07,0,.76-.21a26.72,26.72,0,0,1-2.83,0h-2.82a1.52,1.52,0,0,0-1.5,1.5v4.51a1.5,1.5,0,0,0,3,0V63.63l-1.5,1.5c1.81,0,3.62.06,5.43,0a1.75,1.75,0,0,0,1.84-1.82,2.85,2.85,0,0,0-.14-1.16,1.71,1.71,0,0,0-1.61-1c-.86,0-1.73,0-2.6,0h-2.92l1.5,1.5V59l-1.5,1.5c1.86,0,3.73.06,5.59,0a1.78,1.78,0,0,0,1.81-2,2.07,2.07,0,0,0-.49-1.57,1.85,1.85,0,0,0-1.29-.5c-.91,0-1.83,0-2.74,0H121.1a2.51,2.51,0,0,0-1.37.26,1.86,1.86,0,0,0-.8,1.71V64.9c0,1,0,2,0,3a1.76,1.76,0,0,0,1.63,1.92,7.27,7.27,0,0,0,.81,0,1.74,1.74,0,0,0,1.74-1.74,1.51,1.51,0,0,0-1.5-1.5A1.53,1.53,0,0,0,120.11,68.14Z"/><path class="cls-1" d="M134.29,58.2c0-.18.06-.24.24-.24h.71c.18,0,.23.06.23.24v9.94c0,.18-.05.24-.23.24h-.71c-.18,0-.24-.06-.24-.24Z"/><path class="cls-1" d="M135.79,58.2v-.11l-.2.76,0-.08-.54.54.07,0-.75.21a3.62,3.62,0,0,1,.93,0l-.75-.21.06,0-.53-.54,0,.08-.2-.76c.09,1.14,0,2.31,0,3.45v5.38c0,.44,0,.89,0,1.33l.2-.75,0,.07.53-.54-.06,0,.75-.2a4.82,4.82,0,0,1-.93,0l.75.2-.07,0,.54.54,0-.07.2.75a32.13,32.13,0,0,1,0-3.4V58.2a1.5,1.5,0,0,0-3,0c0,3.28-.11,6.58,0,9.86a1.75,1.75,0,0,0,1.74,1.82,2.23,2.23,0,0,0,2.19-.8,4,4,0,0,0,.25-2V60.6c0-.77,0-1.54,0-2.31a1.75,1.75,0,0,0-1.77-1.83h-.67a1.75,1.75,0,0,0-1.74,1.74,1.5,1.5,0,0,0,1.5,1.5A1.54,1.54,0,0,0,135.79,58.2Z"/><path class="cls-1" d="M146.87,58a5.21,5.21,0,0,1,0,10.42h-3.65c-.16,0-.24-.06-.24-.24V58.2c0-.18.06-.24.24-.24Zm-2.71,1v8.39h2.69a4.2,4.2,0,0,0,0-8.39Z"/><path class="cls-1" d="M146.87,59.46l.56,0c-.3,0,.21,0,.28.06l.46.13.25.09c.16.06-.18-.1.06,0l.46.25c.08.06.44.34.22.15.11.1.23.2.33.31s.42.48.23.23a4.88,4.88,0,0,1,.54.9c-.12-.24,0,.12.07.2s.11.4.15.6a2.56,2.56,0,0,1,.05.27c0-.07,0-.27,0,0s0,.34,0,.5a2.71,2.71,0,0,1,0,.29s0,.34,0,.15,0,.11,0,.15-.05.22-.08.34a5,5,0,0,1-.16.51c0,.06-.12.26,0,0l-.09.18c-.08.15-.17.3-.26.45l-.15.22c-.13.18.23-.23,0,0-.12.12-.23.25-.36.37l-.14.13c-.17.15.18-.13,0,0s-.29.19-.44.28-.56.28-.29.17a5.39,5.39,0,0,1-1,.28s-.32,0-.14,0h-1.48a25.78,25.78,0,0,1-2.78,0l.76.2-.07,0,.54.54-.05-.07.21.75a7.48,7.48,0,0,1,0-1.06V59.42c0-.44,0-.89,0-1.33l-.2.76,0-.08-.54.54.08,0-.76.21a16.85,16.85,0,0,1,1.88,0h1.88a1.5,1.5,0,0,0,0-3h-3.1a2.11,2.11,0,0,0-2,.8,2.31,2.31,0,0,0-.26,1.28v6.93c0,.84,0,1.69,0,2.53a1.77,1.77,0,0,0,1.74,1.88c.37,0,.75,0,1.12,0a24.43,24.43,0,0,0,3.63-.1,6.54,6.54,0,0,0,4.7-3.22,7,7,0,0,0,0-6.83,6.71,6.71,0,0,0-5.77-3.27,1.5,1.5,0,0,0,0,3Z"/><path class="cls-1" d="M142.66,59v8.39a1.52,1.52,0,0,0,1.5,1.5h2.64a5.49,5.49,0,0,0,4.7-2.6,6.11,6.11,0,0,0,.24-5.75,5.41,5.41,0,0,0-4.77-3c-.94,0-1.88,0-2.81,0a1.5,1.5,0,0,0,0,3h3.05c.37,0-.22-.06,0,0l.59.15c.33.09-.18-.12,0,0a1.79,1.79,0,0,0,.24.12,1.86,1.86,0,0,1,.44.29s-.25-.23-.06,0l.18.18.18.19c.23.25-.16-.26,0,0s.19.29.27.44a1.11,1.11,0,0,1,.09.19l-.07-.16c0,.06,0,.13.08.2s.09.31.13.46.07.21.05.27c0-.2,0-.24,0-.13s0,.11,0,.17a5.19,5.19,0,0,1,0,.56c0,.07,0,.15,0,.22,0,.35.08-.21,0,0a3.38,3.38,0,0,0-.11.48,1.15,1.15,0,0,1-.11.31l.07-.16-.09.19a4.25,4.25,0,0,1-.27.46.66.66,0,0,1-.12.17c.26-.24.07-.08,0,0l-.34.33c-.25.24.27-.16,0,0l-.27.17-.2.1c-.31.18.31-.08,0,0l-.49.14h-.05c-.17,0-.15,0,.05,0a.86.86,0,0,1-.24,0h-2.93l1.5,1.5V59a1.5,1.5,0,1,0-3,0Z"/><path class="cls-1" d="M158.88,68.38c-.18,0-.24-.06-.24-.24V58.2c0-.18.06-.24.24-.24h6.62c.16,0,.22.06.22.24v.55c0,.18-.06.24-.22.24h-5.68v3.62h5.41c.18,0,.24.06.24.23v.55c0,.18-.06.24-.24.24h-5.41v3.72h5.68c.18,0,.22.06.22.24v.55c0,.18,0,.24-.22.24Z"/><path class="cls-1" d="M158.88,66.88h-.11l.75.2-.07,0,.54.54,0-.07.2.75a33.08,33.08,0,0,1,0-3.45V59.42c0-.44,0-.89,0-1.33l-.2.76,0-.08-.54.54.07,0-.75.21a32.51,32.51,0,0,1,3.42,0,29.83,29.83,0,0,1,3.41,0l-.75-.21.07,0-.54-.54,0,.08-.21-.76a3.39,3.39,0,0,1,0,.78l.21-.76,0,.07.54-.54-.07,0,.75-.2a25.32,25.32,0,0,1-2.89,0h-2.89a1.52,1.52,0,0,0-1.5,1.5v3.62a1.52,1.52,0,0,0,1.5,1.5h2.76a25.6,25.6,0,0,1,2.77,0l-.76-.21.07,0-.54-.53,0,.07-.2-.76a3.39,3.39,0,0,1,0,.78l.2-.76,0,.07.54-.53-.07,0,.76-.21a25.6,25.6,0,0,1-2.77,0h-2.76a1.52,1.52,0,0,0-1.5,1.5v3.72a1.52,1.52,0,0,0,1.5,1.5h2.89a28.05,28.05,0,0,1,2.9,0l-.76-.2.07,0-.54-.54,0,.08-.21-.76a3.31,3.31,0,0,1,0,.77l.21-.75,0,.07.54-.54-.07,0,.76-.2a31.56,31.56,0,0,1-3.37,0h-3.36a1.5,1.5,0,0,0,0,3H165a2.26,2.26,0,0,0,1.55-.38,2.31,2.31,0,0,0-.19-3.41,2.85,2.85,0,0,0-1.5-.24h-5.08l1.5,1.5V63.63l-1.5,1.5c1.77,0,3.55.05,5.32,0A1.76,1.76,0,0,0,167,63.31c0-1.15-.45-2.15-1.74-2.2-.85,0-1.7,0-2.55,0h-2.86l1.5,1.5V59l-1.5,1.5h5.45a1.75,1.75,0,0,0,1.91-1.42c.2-1.1-.14-2.35-1.38-2.57a13,13,0,0,0-2.25,0H159a1.76,1.76,0,0,0-1.86,1.74c-.09,1.68,0,3.39,0,5.08V68a1.78,1.78,0,0,0,1.74,1.9,1.5,1.5,0,0,0,1.5-1.5A1.54,1.54,0,0,0,158.88,66.88Z"/><path class="cls-1" d="M173.85,68.14c0,.18-.06.24-.23.24h-.7c-.18,0-.24-.06-.24-.24V57.89c0-.1,0-.12.13-.12h.08a.21.21,0,0,1,.19.11L180,66.15v-8c0-.19.06-.24.24-.24H181c.18,0,.23,0,.23.24V68.45c0,.11,0,.12-.12.12H181a.31.31,0,0,1-.22-.12l-6.92-8.31Z"/><path class="cls-1" d="M172.35,68.14v.11l.21-.75,0,.07L173,67l-.07,0,.76-.2a4.82,4.82,0,0,1-.93,0l.76.2-.07,0,.54.54,0-.07.2.75a33.86,33.86,0,0,1,0-3.49V58.25c0-.19,0-.69,0,0l-.39.66,0,0-1.06.44c.18,0,.16,0-.14,0l-.66-.38a7.62,7.62,0,0,1,.74.86l1.66,2,3.74,4.46.88,1.06a1.51,1.51,0,0,0,2.56-1.06v-4c0-1.32-.12-2.71,0-4l-.2.76,0-.07-.54.54.07,0-.75.2a7.22,7.22,0,0,1,.93,0l-.75-.2.07,0-.54-.54,0,.07-.2-.76c.09,1.16,0,2.35,0,3.51V68.1c0,.24-.11.56,0,.05l1-1a1.06,1.06,0,0,1,.53,0l.66.39a6.39,6.39,0,0,1-.77-.87l-1.63-2-3.77-4.53-.87-1c-.86-1-2.56-.16-2.56,1.06v8a1.5,1.5,0,1,0,3,0v-8l-2.56,1.06,6.36,7.64c.64.77,1.24,1.41,2.41,1.16a1.5,1.5,0,0,0,1.05-1,5.39,5.39,0,0,0,.08-1.39V59.63c0-.46,0-.92,0-1.38a1.7,1.7,0,0,0-1.42-1.75,3.66,3.66,0,0,0-1.71.1c-1,.41-1.05,1.38-1.05,2.28v7.27l2.56-1.06-6.65-8c-.1-.1-.18-.22-.28-.32a1.71,1.71,0,0,0-2.94.87,13.36,13.36,0,0,0,0,1.55v6.54c0,.76,0,1.52,0,2.28a1.75,1.75,0,0,0,1.76,1.82c.22,0,.45,0,.68,0a1.75,1.75,0,0,0,1.73-1.74,1.5,1.5,0,0,0-1.5-1.5A1.54,1.54,0,0,0,172.35,68.14Z"/><path class="cls-1" d="M195.91,58c.19,0,.22.06.22.24v.6c0,.18,0,.24-.22.24h-3.57v9.1c0,.18-.05.24-.22.24h-.72c-.19,0-.24-.06-.24-.24V59h-3.55c-.2,0-.24-.06-.24-.24v-.6c0-.18.06-.24.24-.24Z"/><path class="cls-1" d="M195.91,59.46l.12,0-.76-.21.07,0-.54-.54,0,.08-.21-.76a4.49,4.49,0,0,1,0,.82l.21-.76,0,.08.54-.54-.07,0,.76-.21a16.14,16.14,0,0,1-1.84,0h-1.84a1.52,1.52,0,0,0-1.5,1.5v8c0,.4,0,.81,0,1.2l.2-.75,0,.07.54-.54-.07,0,.76-.2a5,5,0,0,1-.95,0l.76.2L192,67l.53.54,0-.07.2.75c-.09-1,0-2.1,0-3.14V59a1.52,1.52,0,0,0-1.5-1.5,34.55,34.55,0,0,1-3.67,0l.76.21-.08,0,.54.54,0-.08.21.76a4.49,4.49,0,0,1,0-.82l-.2.76,0-.08-.54.54.07,0-.76.21a12,12,0,0,1,1.34,0h7.08a1.5,1.5,0,0,0,0-3h-6c-.76,0-1.53,0-2.28,0a1.78,1.78,0,0,0-1.53.87,2.54,2.54,0,0,0-.22,1.39,1.78,1.78,0,0,0,2,1.82h3.33l-1.5-1.5v9.09a1.74,1.74,0,0,0,1.8,1.75,2.42,2.42,0,0,0,1.89-.49,1.94,1.94,0,0,0,.49-1.38c0-1.51,0-3,0-4.52V59l-1.5,1.5h3.56a1.7,1.7,0,0,0,1.7-1.43,4.49,4.49,0,0,0,0-.9,1.74,1.74,0,0,0-1.72-1.75,1.5,1.5,0,0,0,0,3Z"/><path class="cls-1" d="M208.56,67.35c.18,0,.23.06.23.24v.55c0,.18,0,.24-.23.24h-6.05c-.18,0-.24-.06-.24-.24V58.2c0-.18.06-.24.24-.24h.7c.17,0,.23.06.23.24v9.15Z"/><path class="cls-1" d="M208.56,68.85h.11l-.76-.2.07,0-.53-.54,0,.08-.2-.76a5,5,0,0,1,0,.77l.2-.75,0,.07L208,67l-.07,0,.76-.2a29.89,29.89,0,0,1-3.14,0,29.9,29.9,0,0,1-3.14,0l.76.2-.07,0,.54.54,0-.07.2.75a33.08,33.08,0,0,1,0-3.45V59.42a11.8,11.8,0,0,1,0-1.33l-.2.76,0-.08-.54.54.07,0-.76.21a3.62,3.62,0,0,1,.93,0l-.76-.21.08,0-.54-.54,0,.08-.21-.76a30.27,30.27,0,0,1,0,3.16v6.1a1.52,1.52,0,0,0,1.5,1.5h5.12a1.5,1.5,0,0,0,0-3h-5.12l1.5,1.5V60.86c0-.87,0-1.75,0-2.62a1.79,1.79,0,0,0-.49-1.28,2.13,2.13,0,0,0-1.64-.5,1.81,1.81,0,0,0-2,1.79c-.09,2.26,0,4.54,0,6.79,0,1,0,2,0,2.94a1.77,1.77,0,0,0,1.74,1.9c.29,0,.58,0,.87,0h4.39a3.2,3.2,0,0,0,1.73-.26,2,2,0,0,0,.79-1.94,1.75,1.75,0,0,0-1.73-1.83,1.51,1.51,0,0,0-1.5,1.5A1.53,1.53,0,0,0,208.56,68.85Z"/><path class="cls-1" d="M212.91,58.2c-.1-.18-.06-.24.11-.24h.84c.15,0,.23.06.32.24l3.21,5,3.2-5c.12-.19.18-.24.33-.24h.81c.18,0,.2.08.11.24L218,64.3v3.84c0,.18,0,.24-.23.24h-.67c-.18,0-.24-.06-.24-.24V64.3Z"/><path class="cls-1" d="M214.21,57.45l-.05-.12.2.76V58l-.74,1.29,0,0-.75.21a4.52,4.52,0,0,1,1,0l-.75-.21c-.35-.17-.42-.45-.21-.12l.36.56,1.1,1.71L216.09,64a1.52,1.52,0,0,0,2.59,0l1.63-2.54,1.09-1.71.36-.56c.22-.34.13,0-.18.12l-.76.2h.45c.15,0,.79,0,.17,0l-.66-.39.05,0L220.39,58v.08l.21-.76a11.07,11.07,0,0,1-.86,1.39L218,61.44c-.42.65-.85,1.3-1.25,2a3.85,3.85,0,0,0-.3,2.07,25.78,25.78,0,0,1,0,2.78l.21-.75,0,.07.54-.54-.08,0,.76-.2a4.51,4.51,0,0,1-.9,0l.76.2-.07,0,.54.54,0-.07.2.75a22.82,22.82,0,0,1,0-2.34,5.09,5.09,0,0,0-.23-2.4c-.86-1.51-1.88-2.94-2.81-4.4l-1.06-1.66a1.54,1.54,0,0,0-2.06-.54,1.51,1.51,0,0,0-.53,2.05l3.89,6.1-.2-.76c0,1.28-.07,2.57,0,3.84a1.76,1.76,0,0,0,1.88,1.74,2,2,0,0,0,2.05-.87,5.51,5.51,0,0,0,.21-2.43V64.3l-.2.76,3.58-5.62a2.53,2.53,0,0,0,.56-1.42c0-1.45-1.63-1.72-2.77-1.52s-2,2-2.59,2.93l-1.94,3h2.59l-2.48-3.86A9.06,9.06,0,0,0,215.1,57a2.56,2.56,0,0,0-2-.5,2,2,0,0,0-1,.26,1.63,1.63,0,0,0-.49,2.24,1.5,1.5,0,0,0,2,.54A1.54,1.54,0,0,0,214.21,57.45Z"/><path class="cls-1" d="M236.44,68.38c-.18,0-.23,0-.23-.24V58.2c0-.18,0-.24.23-.24H240c1.7,0,3.65.7,3.65,2.89A2.35,2.35,0,0,1,242,63h0a2.73,2.73,0,0,1,2.09,2.49c0,2.1-1.7,2.87-3.66,2.87Zm3.87-5.82c1.28,0,2.19-.64,2.19-1.6,0-1.37-1-2-2.53-2h-2.59v3.58Zm0,4.81c1.8,0,2.54-.73,2.54-2a2.17,2.17,0,0,0-2.41-1.85h-3.08v3.83Z"/><path class="cls-1" d="M236.44,66.88h-.11l.76.2L237,67l.54.54,0-.08.21.76a33.27,33.27,0,0,1,0-3.46V59.42a11.8,11.8,0,0,1,0-1.33l-.21.76,0-.08-.54.54.08,0-.76.21a19.42,19.42,0,0,1,2,0c.64,0,1.29,0,1.93,0l.36,0c.18,0,.16,0,0,0l.24,0,.35.09c.05,0,.46.18.27.09s.2.12.24.14.24.21.07,0c.06.06.36.42.15.12.07.1.12.2.18.3-.17-.29,0,.14.07.24.08.28,0-.19,0,.15,0,.1,0,.2,0,.3,0-.13,0-.14,0,0a1.46,1.46,0,0,1-.05.2c.07-.16.06-.16,0,0-.22.3.21-.17-.06.08l-.17.16,0,0-.27.16-.18.09c.22-.09.26-.1.11,0a1.57,1.57,0,0,0-1.1,1.45h0a1.54,1.54,0,0,0,1.1,1.45s.23,0,.25.09l-.13-.06.16.08.33.2c.13.1.12.08,0,0a1.14,1.14,0,0,1,.16.15c.07.06.24.33.06,0,0,.07.23.5.12.17,0,.09.09.56.08.26,0,.07,0,.65,0,.31,0,.14-.1.3-.11.44s0,.08,0-.08a2.12,2.12,0,0,1-.11.21q-.15.21,0,0l-.15.17-.17.15c.15-.12.16-.13,0,0s-.52.25-.18.11a2.06,2.06,0,0,1-.35.12,4,4,0,0,1-.5.11c-.17,0-.17,0,0,0l-.27,0c-1.45.08-2.93,0-4.39,0a1.5,1.5,0,0,0,0,3c1.32,0,2.64,0,4,0a5.86,5.86,0,0,0,3.83-1.23,4.18,4.18,0,0,0,1.2-4.22,4.44,4.44,0,0,0-3-2.85l1.1,1.44h0l-1.1,1.44A3.92,3.92,0,0,0,245.18,61a4.1,4.1,0,0,0-2.12-3.82c-1.75-1-3.88-.72-5.8-.72h-.81a1.75,1.75,0,0,0-1.74,1.76c0,.4,0,.8,0,1.2v8.07c0,.2,0,.39,0,.59a1.74,1.74,0,0,0,1.73,1.8,1.51,1.51,0,0,0,1.5-1.5A1.53,1.53,0,0,0,236.44,66.88Z"/><path class="cls-1" d="M240.31,64.06a3.73,3.73,0,0,0,3.3-1.65,3.26,3.26,0,0,0-.17-3.38,3.94,3.94,0,0,0-3.1-1.54c-.47,0-.94,0-1.41,0h-1.55a1.52,1.52,0,0,0-1.5,1.5v3.58a1.52,1.52,0,0,0,1.5,1.5h2.93a1.5,1.5,0,0,0,0-3h-2.93l1.5,1.5V59l-1.5,1.5h1.52a13.9,13.9,0,0,1,1.71,0l-.4-.06a4.82,4.82,0,0,1,.68.16c.21.07-.32-.15-.17-.07l.12.07.15.08c.18.11-.27-.24-.16-.12l.19.18c.12.12-.23-.34-.12-.15a.57.57,0,0,1,.08.13c0,.06.11.23,0,0s0-.09,0,0A2.05,2.05,0,0,1,241,61l-.05-.4a2.18,2.18,0,0,1,0,.51l0-.4a1.06,1.06,0,0,1,0,.23c0,.06-.09.24,0,0s.05-.11,0-.06L241,61c-.06.12.23-.25.13-.17s-.19.15-.19.19.32-.22.15-.13l-.11.06-.11.06c-.18.1.18-.08.18-.07s-.55.14-.63.15l.4,0a3.59,3.59,0,0,1-.47,0,1.5,1.5,0,0,0,0,3Z"/><path class="cls-1" d="M240.33,68.87a4.17,4.17,0,0,0,3.26-1.22A3.41,3.41,0,0,0,244,63.9,4,4,0,0,0,240.46,62h-3.08a1.52,1.52,0,0,0-1.5,1.5v3.83a1.52,1.52,0,0,0,1.5,1.5h3a1.5,1.5,0,1,0,0-3h-3l1.5,1.5V63.54l-1.5,1.5h3.34c.13,0,.16.09-.15,0a.9.9,0,0,0,.16,0l.3.08.15,0c-.35-.07-.25-.11-.12,0a2.61,2.61,0,0,0,.28.17c-.3-.13-.23-.2-.12-.08l.1.09.09.1c.13.12-.22-.34-.09-.12l.12.22s-.13-.39-.08-.18c0,0,0,.18,0,.18s0-.42,0-.21v.13a1.94,1.94,0,0,1,0,.24c0-.5.05-.26,0-.09s0,.15-.07.23c.12-.44.14-.31.07-.2l-.06.11c-.08.16.12-.17.14-.18a1.27,1.27,0,0,0-.1.12l-.08.07c-.14.16.33-.21.14-.1l-.25.14c-.11,0-.2,0,.19-.08l-.18.06-.34.08c-.1,0-.25,0,.18,0l-.2,0-.46,0a1.5,1.5,0,0,0-1.5,1.5A1.52,1.52,0,0,0,240.33,68.87Z"/><path class="cls-1" d="M250.91,68.38c-.18,0-.24-.06-.24-.24V58.2c0-.18.06-.24.24-.24h6.62c.17,0,.22.06.22.24v.55c0,.18-.05.24-.22.24h-5.68v3.62h5.41c.18,0,.24.06.24.23v.55c0,.18-.06.24-.24.24h-5.41v3.72h5.68c.18,0,.22.06.22.24v.55c0,.18,0,.24-.22.24Z"/><path class="cls-1" d="M250.91,66.88h-.11l.76.2-.08,0,.54.54,0-.07.2.75a33.08,33.08,0,0,1,0-3.45V59.42c0-.44,0-.89,0-1.33l-.2.76,0-.08-.54.54.08,0-.76.21a32.51,32.51,0,0,1,3.42,0,30,30,0,0,1,3.42,0l-.76-.21.07,0-.54-.54,0,.08-.21-.76a3.39,3.39,0,0,1,0,.78l.21-.76,0,.07.54-.54-.07,0,.76-.2a25.51,25.51,0,0,1-2.9,0h-2.89a1.52,1.52,0,0,0-1.5,1.5v3.62a1.52,1.52,0,0,0,1.5,1.5h2.76a25.6,25.6,0,0,1,2.77,0l-.76-.21.07,0-.54-.53,0,.07-.2-.76a3.39,3.39,0,0,1,0,.78l.2-.76,0,.07.54-.53-.07,0,.76-.21a25.6,25.6,0,0,1-2.77,0h-2.76a1.52,1.52,0,0,0-1.5,1.5v3.72a1.52,1.52,0,0,0,1.5,1.5h2.89a28,28,0,0,1,2.9,0l-.76-.2.07,0-.54-.54,0,.08-.2-.76a5,5,0,0,1,0,.77l.2-.75,0,.07L257,67l-.07,0,.76-.2a31.56,31.56,0,0,1-3.37,0h-3.36a1.5,1.5,0,1,0,0,3h6.16a2.26,2.26,0,0,0,1.55-.38,2.31,2.31,0,0,0-.19-3.41,2.85,2.85,0,0,0-1.5-.24h-5.08l1.5,1.5V63.63l-1.5,1.5c1.77,0,3.55.05,5.32,0A1.75,1.75,0,0,0,259,63.31c0-1.15-.45-2.15-1.74-2.2-.85,0-1.7,0-2.55,0h-2.86l1.5,1.5V59l-1.5,1.5h5.45a1.76,1.76,0,0,0,1.92-1.42c.19-1.1-.14-2.35-1.38-2.57a13.13,13.13,0,0,0-2.26,0H251a1.76,1.76,0,0,0-1.86,1.74c-.09,1.68,0,3.39,0,5.08V68a1.78,1.78,0,0,0,1.74,1.9,1.5,1.5,0,0,0,1.5-1.5A1.54,1.54,0,0,0,250.91,66.88Z"/><path class="cls-1" d="M273.58,68.14a.15.15,0,0,1-.15.24h-.87c-.14,0-.2-.06-.29-.24l-1.16-2.53h-5.2l-1.16,2.53c-.09.18-.15.24-.31.24h-.86c-.14,0-.2-.11-.14-.24l4.85-10.22c.08-.12.11-.21.2-.21h0c.08,0,.12.09.18.21Zm-5.08-8.39-2.18,4.85h4.38l-2.18-4.85Z"/><path class="cls-1" d="M272.13,68.54l0,.12.15-1.16-.05.09.9-.69c.38-.1.28,0,.08,0H273a3.85,3.85,0,0,1-.48,0l.75.2c.65.35.36.44.31.24a1.42,1.42,0,0,0-.12-.25l-.41-.89-.6-1.32a1.48,1.48,0,0,0-1.29-.74h-5.2a1.48,1.48,0,0,0-1.29.74l-.6,1.32-.4.85c0,.09-.09.18-.12.27s-.23,0,.29-.22l.76-.2a4,4,0,0,1-.49,0h-.29c-.21,0-.27-.09.1,0l.9.69,0-.09.15,1.16c0,.17-.17.34-.1.16l.11-.21.35-.74,1.17-2.48L269,59.87a7.29,7.29,0,0,1,.68-1.37l-.9.69c-.31,0-.4,0-.28,0l-.75-.2.09.06-.54-.54c.65,1.14,1.15,2.38,1.71,3.56l2.63,5.52.61,1.29a1.52,1.52,0,0,0,2.05.54,1.54,1.54,0,0,0,.54-2.06l-2.43-5.11c-.81-1.69-1.54-3.46-2.43-5.11a1.69,1.69,0,0,0-3,0c-.11.19-.19.4-.29.6l-1.36,2.89-3,6.39a2,2,0,0,0-.17,2,1.82,1.82,0,0,0,1.73.86,2.82,2.82,0,0,0,1.44-.22,3.3,3.3,0,0,0,1.2-1.74l.71-1.55-1.3.74h5.2l-1.3-.74c.37.81.73,1.63,1.12,2.44a2,2,0,0,0,1.92,1.07,5.09,5.09,0,0,0,.78,0A1.66,1.66,0,0,0,275,67.74a1.51,1.51,0,0,0-1.84-1A1.54,1.54,0,0,0,272.13,68.54Z"/><path class="cls-1" d="M267.21,59l-1.92,4.25-.27.6a1.58,1.58,0,0,0,0,1.52,1.53,1.53,0,0,0,1.3.74h4.38a1.53,1.53,0,0,0,1.3-.74,1.58,1.58,0,0,0,0-1.52l-1.91-4.24-.28-.61a1.48,1.48,0,0,0-1.29-.74h0a1.5,1.5,0,0,0,0,3h0l-1.3-.74,1.92,4.24.27.61,1.29-2.26h-4.38l1.29,2.26,1.91-4.25.28-.6a1.67,1.67,0,0,0,.15-1.16,1.59,1.59,0,0,0-.69-.9A1.52,1.52,0,0,0,267.21,59Z"/><path class="cls-1" d="M279.42,64.09V58.2c0-.19.06-.24.23-.24h.7c.18,0,.24.06.24.24V64c0,2.47,1.25,3.51,3,3.51s3-1,3-3.51V58.2c0-.18.06-.24.24-.24h.71c.18,0,.23.06.23.24v5.89c0,3-1.79,4.48-4.21,4.48S279.42,67.05,279.42,64.09Z"/><path class="cls-1" d="M280.92,64.09v-3c0-1-.09-2,0-3l-.21.76,0-.07-.53.54.07,0-.76.2a4.83,4.83,0,0,1,.93,0l-.76-.21.07,0-.54-.54,0,.08-.2-.76a12.69,12.69,0,0,1,0,1.38v2.67c0,1.68-.17,3.56.82,5a4.69,4.69,0,0,0,6.81.75c1.46-1.33,1.44-3.34,1.44-5.16V59.84a17,17,0,0,1,0-1.75l-.2.76,0-.08-.54.54.07,0-.75.21a3.62,3.62,0,0,1,.93,0l-.75-.21.06,0-.53-.54,0,.08-.2-.76c.06.77,0,1.56,0,2.33v3.27c0,.34,0,.68,0,1s0-.16,0,.11c0,.09,0,.18-.05.27a5.4,5.4,0,0,1-.18.57c.1-.29-.07.14-.11.22a1.37,1.37,0,0,1-.13.2c0,.07-.27.33,0,.08l-.33.33c-.24.27.18-.11,0,0l-.19.13a3.33,3.33,0,0,1-.46.24c.06,0,.29-.09,0,0l-.34.11c-.12,0-.54.1-.21,0a3.69,3.69,0,0,1-.58,0l-.52,0c-.09,0-.36-.06,0,0l-.3-.06-.29-.08s-.36-.13-.15,0-.13-.06-.14-.07a2,2,0,0,1-.25-.14l-.24-.16c.16.11.11.09,0,0l-.21-.2c-.2-.19.08.12,0,0a4,4,0,0,1-.31-.52c0-.07-.13-.33,0,0a2.81,2.81,0,0,1-.1-.31c0-.11-.06-.22-.09-.33s-.07-.4-.05-.22,0-.27,0-.24c0-.16,0-.32,0-.48a1.5,1.5,0,1,0-3,0,6.32,6.32,0,0,0,1.51,4.29,5.61,5.61,0,0,0,3.81,1.68,5.89,5.89,0,0,0,3.86-1,5.72,5.72,0,0,0,2.17-4,39.06,39.06,0,0,0,.07-4.84c0-.65,0-1.29,0-1.94a1.74,1.74,0,0,0-1.74-1.77,2.67,2.67,0,0,0-1.8.38c-.77.62-.64,1.62-.64,2.5v2.9c0,.59,0,1.18,0,1.77,0,.11,0,.22,0,.34s0,.45,0,.2c0,.16-.06.32-.1.47s-.05.17-.08.25.17-.28,0,0c-.06.1-.12.19-.17.29s.16-.13-.07.08a1.07,1.07,0,0,0-.16.14c-.09.12.07-.06.1-.07-.12,0-.26.14-.37.2.31-.18,0,0-.09,0s-.4.06-.1,0c-.3,0-.59,0-.89,0s.24.09.06,0a.42.42,0,0,0-.16,0c-.05,0-.44-.14-.23-.06s-.15-.1-.2-.12-.2-.18.05.06l-.16-.14-.14-.16s.14.23.07.09a3.87,3.87,0,0,0-.21-.34c0-.07-.08-.25,0,0l-.06-.18c0-.18-.09-.35-.12-.53s0,.22,0,0c0-.08,0-.15,0-.23s0-.23,0-.34V58.77c0-.19,0-.37,0-.56a1.77,1.77,0,0,0-1.89-1.75c-.87,0-1.78.12-2.14,1a2.74,2.74,0,0,0-.14,1v5.56a1.5,1.5,0,0,0,3,0Z"/><path class="cls-1" d="M302.16,58c.19,0,.22.06.22.24v.6c0,.18-.05.24-.22.24h-3.58v9.1c0,.18,0,.24-.22.24h-.71c-.2,0-.24-.06-.24-.24V59h-3.56c-.19,0-.23-.06-.23-.24v-.6c0-.18.05-.24.23-.24Z"/><path class="cls-1" d="M302.16,59.46l.11,0-.76-.21.07,0-.54-.54,0,.08-.21-.76a5.61,5.61,0,0,1,0,.82l.2-.76,0,.08.54-.54-.07,0,.76-.21a16.31,16.31,0,0,1-1.85,0h-1.84a1.52,1.52,0,0,0-1.5,1.5v8c0,.4,0,.81,0,1.2l.2-.75,0,.07.54-.54-.07,0,.76-.2a4.92,4.92,0,0,1-.94,0l.76.2-.08,0,.54.54,0-.07.21.75c-.09-1,0-2.1,0-3.14V59a1.52,1.52,0,0,0-1.5-1.5,34.75,34.75,0,0,1-3.68,0l.76.21-.07,0,.54.54,0-.08.21.76a3.75,3.75,0,0,1,0-.82l-.21.76,0-.08-.54.54.08,0-.76.21a11.81,11.81,0,0,1,1.33,0h7.09a1.5,1.5,0,0,0,0-3h-6c-.76,0-1.53,0-2.29,0a1.8,1.8,0,0,0-1.53.87,2.63,2.63,0,0,0-.21,1.39,1.78,1.78,0,0,0,2,1.82h3.33l-1.5-1.5v8.69c0,.13,0,.27,0,.4a1.74,1.74,0,0,0,1.8,1.75,2.44,2.44,0,0,0,1.89-.49,1.89,1.89,0,0,0,.48-1.38c0-1.51,0-3,0-4.52V59l-1.5,1.5h3.57a1.69,1.69,0,0,0,1.69-1.43,4.49,4.49,0,0,0,0-.9,1.75,1.75,0,0,0-1.72-1.75,1.5,1.5,0,0,0,0,3Z"/><path class="cls-1" d="M308.57,58.2c0-.18.06-.24.24-.24h.72c.18,0,.22.06.22.24v9.94c0,.18,0,.24-.22.24h-.72c-.18,0-.24-.06-.24-.24Z"/><path class="cls-1" d="M310.07,58.2l0-.11-.21.76,0-.08-.54.54.08,0-.76.21a3.7,3.7,0,0,1,.94,0l-.76-.21.07,0-.54-.54,0,.08-.2-.76c.1,1.14,0,2.31,0,3.45v5.38c0,.44,0,.89,0,1.33l.2-.75,0,.07L309,67l-.07,0,.76-.2a4.92,4.92,0,0,1-.94,0l.76.2-.08,0,.54.54,0-.07.21.75a32.12,32.12,0,0,1,0-3.4V58.2a1.5,1.5,0,1,0-3,0c0,3.28-.11,6.58,0,9.86a1.75,1.75,0,0,0,1.74,1.82,2.23,2.23,0,0,0,2.19-.8,4,4,0,0,0,.25-2V60.6c0-.77,0-1.54,0-2.31a1.75,1.75,0,0,0-1.76-1.83h-.68a1.75,1.75,0,0,0-1.74,1.74,1.5,1.5,0,0,0,3,0Z"/><path class="cls-1" d="M318.44,68.14c0,.18-.06.24-.22.24h-.72c-.17,0-.23-.06-.23-.24V58.2c0-.18.06-.24.23-.24h6.61c.18,0,.24.06.24.24v.55c0,.18-.08.24-.24.24h-5.67v3.62H324c.18,0,.23.06.23.23v.55c0,.18,0,.24-.23.24h-5.54Z"/><path class="cls-1" d="M316.94,68.14v.11l.21-.75,0,.07.53-.54-.06,0,.75-.2a4.82,4.82,0,0,1-.93,0l.76.2-.07,0,.53.54,0-.07.21.75a33.08,33.08,0,0,1,0-3.45V59.42a11.8,11.8,0,0,1,0-1.33l-.21.76,0-.08-.53.54.07,0-.76.21a291.57,291.57,0,0,1,6.83,0l-.75-.21.07,0-.54-.54,0,.08-.2-.76a3.4,3.4,0,0,1,0,.78l.21-.76,0,.07.53-.54-.07,0,.76-.2a25.33,25.33,0,0,1-2.89,0h-2.89a1.52,1.52,0,0,0-1.5,1.5v3.62a1.52,1.52,0,0,0,1.5,1.5h2.82a26.72,26.72,0,0,1,2.83,0l-.76-.21.08,0-.54-.53,0,.07-.21-.76a3.39,3.39,0,0,1,0,.78l.21-.76,0,.07.54-.53-.08,0,.76-.21a26.72,26.72,0,0,1-2.83,0h-2.82a1.52,1.52,0,0,0-1.5,1.5v4.51a1.5,1.5,0,0,0,3,0V63.63l-1.5,1.5c1.81,0,3.63.06,5.43,0a1.75,1.75,0,0,0,1.84-1.82,2.69,2.69,0,0,0-.14-1.16,1.69,1.69,0,0,0-1.6-1c-.87,0-1.74,0-2.6,0h-2.93l1.5,1.5V59l-1.5,1.5c1.86,0,3.74.06,5.6,0a1.78,1.78,0,0,0,1.81-2,2.11,2.11,0,0,0-.49-1.57,1.88,1.88,0,0,0-1.29-.5c-.91,0-1.84,0-2.75,0h-3.38a2.53,2.53,0,0,0-1.38.26,1.88,1.88,0,0,0-.79,1.71V64.9c0,1,0,2,0,3a1.76,1.76,0,0,0,1.62,1.92,7.3,7.3,0,0,0,.81,0,1.73,1.73,0,0,0,1.74-1.74,1.5,1.5,0,0,0-1.5-1.5A1.54,1.54,0,0,0,316.94,68.14Z"/><path class="cls-1" d="M330.71,64.09V58.2c0-.19.06-.24.24-.24h.69c.18,0,.24.06.24.24V64c0,2.47,1.25,3.51,3,3.51s3-1,3-3.51V58.2c0-.18.06-.24.24-.24h.72c.17,0,.22.06.22.24v5.89c0,3-1.79,4.48-4.21,4.48S330.71,67.05,330.71,64.09Z"/><path class="cls-1" d="M332.21,64.09v-3c0-1-.09-2,0-3l-.2.76,0-.07-.54.54.07,0-.76.2a4.82,4.82,0,0,1,.93,0l-.76-.21.07,0-.53-.54,0,.08-.21-.76a12.69,12.69,0,0,1,0,1.38v2.67c0,1.68-.17,3.56.82,5a4.69,4.69,0,0,0,6.81.75c1.47-1.33,1.44-3.34,1.44-5.16V59.84a14.58,14.58,0,0,1,0-1.75l-.21.76,0-.08-.54.54.08,0-.76.21a3.7,3.7,0,0,1,.94,0l-.76-.21.07,0-.54-.54,0,.08-.2-.76c.06.77,0,1.56,0,2.33v3.27c0,.34,0,.68,0,1s0-.16,0,.11a2.56,2.56,0,0,1-.05.27,5.4,5.4,0,0,1-.18.57c.1-.29-.06.14-.11.22l-.12.2c-.05.07-.28.33-.05.08l-.32.33c-.25.27.17-.11,0,0l-.19.13a5.06,5.06,0,0,1-.46.24c.05,0,.28-.09,0,0l-.35.11c-.12,0-.53.1-.21,0a3.69,3.69,0,0,1-.58,0l-.52,0c-.09,0-.36-.06,0,0l-.3-.06-.29-.08s-.35-.13-.15,0-.13-.06-.14-.07a2,2,0,0,1-.25-.14l-.24-.16c.16.11.11.09,0,0l-.21-.2c-.2-.19.08.12,0,0s-.21-.34-.31-.52-.13-.33,0,0c0-.1-.07-.2-.1-.31l-.09-.33s-.07-.4,0-.22,0-.27,0-.24c0-.16,0-.32,0-.48a1.5,1.5,0,1,0-3,0,6.37,6.37,0,0,0,1.51,4.29,5.63,5.63,0,0,0,3.81,1.68,5.89,5.89,0,0,0,3.86-1,5.74,5.74,0,0,0,2.18-4,41.12,41.12,0,0,0,.06-4.84c0-.65,0-1.29,0-1.94a1.74,1.74,0,0,0-1.74-1.77,2.64,2.64,0,0,0-1.79.38c-.78.62-.65,1.62-.65,2.5v2.9c0,.59,0,1.18,0,1.77v.34c0,.07-.05.45,0,.2a3.56,3.56,0,0,1-.1.47,1.83,1.83,0,0,1-.08.25c-.06.2.17-.28,0,0l-.17.29c-.12.21.16-.13-.07.08a1.07,1.07,0,0,0-.16.14c-.09.12.07-.06.1-.07s-.25.14-.37.2c.31-.18,0,0-.09,0s-.4.06-.1,0c-.3,0-.59,0-.89,0s.24.09.06,0a.42.42,0,0,0-.16,0s-.43-.14-.23-.06-.14-.1-.2-.12-.2-.18,0,.06c0,0-.11-.09-.15-.14l-.15-.16s.14.23.07.09-.14-.23-.2-.34-.08-.25,0,0l-.06-.18c0-.18-.09-.35-.12-.53s0,.22,0,0a1.79,1.79,0,0,1,0-.23c0-.11,0-.23,0-.34V58.77c0-.19,0-.37,0-.56a1.76,1.76,0,0,0-1.89-1.75c-.86,0-1.78.12-2.14,1a2.74,2.74,0,0,0-.14,1v5.56a1.5,1.5,0,0,0,3,0Z"/><path class="cls-1" d="M352.52,67.35c.18,0,.23.06.23.24v.55c0,.18-.05.24-.23.24h-6c-.18,0-.24-.06-.24-.24V58.2c0-.18.06-.24.24-.24h.7c.18,0,.24.06.24.24v9.15Z"/><path class="cls-1" d="M352.52,68.85h.11l-.75-.2.07,0-.54-.54,0,.08-.2-.76a5,5,0,0,1,0,.77l.2-.75,0,.07L352,67l-.07,0,.75-.2a491.42,491.42,0,0,1-6.27,0l.75.2L347,67l.54.54,0-.07.2.75a33.08,33.08,0,0,1,0-3.45V59.42c0-.44,0-.89,0-1.33l-.2.76,0-.08-.54.54.07,0-.75.21a3.54,3.54,0,0,1,.92,0l-.76-.21.08,0-.54-.54,0,.08-.2-.76a30.27,30.27,0,0,1,0,3.16v6.1a1.52,1.52,0,0,0,1.5,1.5h5.11a1.5,1.5,0,0,0,0-3h-5.11l1.5,1.5V60.86c0-.87,0-1.75,0-2.62a1.88,1.88,0,0,0-.49-1.28,2.15,2.15,0,0,0-1.65-.5,1.81,1.81,0,0,0-2,1.79c-.09,2.26,0,4.54,0,6.79,0,1,0,2,0,2.94a1.77,1.77,0,0,0,1.74,1.9c.29,0,.58,0,.87,0h4.39a3.2,3.2,0,0,0,1.73-.26,2,2,0,0,0,.79-1.94,1.75,1.75,0,0,0-1.73-1.83,1.52,1.52,0,0,0-1.5,1.5A1.54,1.54,0,0,0,352.52,68.85Z"/></g><path class="cls-3" d="M41.37,42.05H37.31V9.62l-15,17.68h-2L5.34,9.62V42.05H1.5V2.48H4.43L21.66,22.87,38.89,2.48h2.93V42.05Z"/><path class="cls-3" d="M49.2,42.05V2.48h4.06V42.05Z"/><path class="cls-3" d="M87.72,12.48l-4.29.91c-.9-4.89-4.67-8-10.08-8-4.89,0-8.5,2.7-8.5,7.14,0,3.84,2.48,5.12,6,6.25l8.73,2.93c5.34,1.58,8.5,4.67,8.5,10.08,0,6.7-5.56,11.21-13.61,11.21s-14.3-4.29-15.2-11.66l4.44-.9c.67,5.79,5.11,9,11.21,9,5.56,0,9.18-2.93,9.18-7.37,0-3.39-1.81-5.12-6-6.47L69.81,23c-4.66-1.58-9.4-4.07-9.4-10.31,0-6.7,5.11-11,13-11S86.36,6,87.72,12.48Z"/><path class="cls-3" d="M120.82,12.48l-4.29.91c-.9-4.89-4.66-8-10.08-8-4.89,0-8.5,2.7-8.5,7.14,0,3.84,2.48,5.12,6,6.25l8.72,2.93c5.35,1.58,8.51,4.67,8.51,10.08,0,6.7-5.57,11.21-13.62,11.21s-14.3-4.29-15.2-11.66l4.44-.9c.68,5.79,5.12,9,11.21,9,5.57,0,9.18-2.93,9.18-7.37,0-3.39-1.81-5.12-6-6.47L102.91,23c-4.66-1.36-9.17-3.84-9.17-10.09,0-6.69,5.11-11,13-11C114.35,1.8,119.47,6,120.82,12.48Z"/><path class="cls-3" d="M205.83,24.6c0,10.75-6.69,17.9-16.55,17.9s-16.55-7.15-16.55-17.9V2.25h4.06V24.6c0,8.5,4.89,14.06,12.57,14.06,7.37,0,12.33-5.56,12.33-14.06V2.25h4.07Z"/><path class="cls-3" d="M247.44,41.82h-3.16L216.06,9.62v32.2H212V2.25h2.94l28.21,32.43V2.25h4.06Z"/><path class="cls-3" d="M254,41.82V2.25H258V41.82Z"/><path class="cls-3" d="M282.12,41.82h-2.94L260.83,2.25h4.44l15.19,32.88,15.2-32.88h4.44Z"/><path class="cls-3" d="M330,41.82H303.18V2.25h26.64V6.09H307.25v13h21.29v3.84H307.25v15.2h22.57V42H330Z"/><path class="cls-3" d="M365.85,41.82l-18.35-19H339v19h-4.06V2.25h14.3c7.14,0,12.11,4.06,12.11,10.31,0,5.11-3.39,9-8.95,10.08L371,41.9h-5.12ZM349.3,19c4.67,0,8.05-2.71,8.05-6.47,0-4.06-3.16-6.47-8.05-6.47H339.22V19.25Z"/><path class="cls-3" d="M399.41,12.26l-4.29.9c-.9-4.89-4.67-8-10.08-8-4.89,0-8.5,2.71-8.5,7.15,0,3.83,2.48,5.11,6,6.24l8.73,2.71c5.34,1.58,8.5,4.66,8.5,10.08,0,6.7-5.56,11.21-13.61,11.21s-14.3-4.29-15.2-11.66l4.44-.9c.67,5.79,5.11,9,11.21,9,5.56,0,9.18-2.93,9.18-7.37,0-3.39-1.81-5.12-6-6.47l-8.28-2.49c-4.66-1.35-9.18-3.83-9.18-10.08,0-6.69,5.12-11,13-11C392.94,1.57,398.05,5.79,399.41,12.26Z"/><path class="cls-3" d="M431.38,41.82H404.52V2.25h26.63V6.09H408.58v13h21.3v3.84h-21.3v15.2h22.57V42h.23Z"/><path class="cls-3" d="M165.81,23.24l-15.65-1.58,6-7.15-7.37,6L147.45,4.66h-.22l-1.36,15.87-7.37-6,6,7.15-15.88,1.58,15.88,1.58-6,7.37,7.37-6,1.36,15.64h.22l1.36-15.64,7.37,6-6-7.37Z"/><text class="cls-4" transform="translate(71.14 68.38)">C<tspan class="cls-5" x="15.2" y="0">O</tspan><tspan x="31.76" y="0">NFI</tspan><tspan class="cls-6" x="70.37" y="0">D</tspan><tspan x="86.08" y="0">ENT</tspan><tspan class="cls-7" x="129.66" y="0">L</tspan><tspan x="141.58" y="0">Y BEAUTIFUL</tspan></text></g></g></svg>