<svg xmlns="http://www.w3.org/2000/svg" viewBox="0 0 140.44 73.5"><defs><style>.cls-1,.cls-2{fill:#fff;}.cls-2{stroke:#fff;stroke-miterlimit:10;stroke-width:3px;}.cls-3{fill:#5e6faf;}.cls-4,.cls-5{fill:#c51e6d;}.cls-5{font-size:8.52px;font-family:AcherusGrotesque-Regular, Acherus Grotesque;letter-spacing:0.5em;}.cls-6{letter-spacing:0.49em;}.cls-7{letter-spacing:0.5em;}</style></defs><g id="Layer_2" data-name="Layer 2"><g id="svg4403"><path class="cls-1" d="M120.3,14.16a6.17,6.17,0,0,0,1.18,1.67A23.64,23.64,0,0,0,121.6,12a1.46,1.46,0,0,1,.7-1.49,12,12,0,0,0,1.46-1.21c.33-.29.38-.05.45.19,0,3.35,0,6.7,0,10.05,0,.79-.21,1-1,1a2.32,2.32,0,0,1-2.34-1.26,61.27,61.27,0,0,0-4.17-5.66v2.11c0,1.34,0,2.68,0,4,0,.55-.14.75-.73.76-1.83,0-1.83.06-1.83-1.76,0-2.08,0-4.16,0-6.23a2.25,2.25,0,0,1,1-2.23l.1-.21c.28-.21.67-.25.87-.59.76-1,.91.11,1.3.38A47.49,47.49,0,0,0,120.16,14Z"/><path class="cls-1" d="M119,14.91a7.85,7.85,0,0,0,1.41,2,1.5,1.5,0,0,0,1.64.31,1.58,1.58,0,0,0,.92-1.37A28.69,28.69,0,0,0,123.1,12a1.61,1.61,0,0,1,0-.31c0,.36,0-.17,0,0s-.26.2,0,0l.11-.07c.31-.21.61-.46.9-.7l.29-.26.21-.19c.15-.12.08-.1-.2.06h-.8l.07,0-.89-.69-.08-.24v1.12c0,.45,0,.89,0,1.34,0,1,0,1.94,0,2.91V18c0,.52,0,1,0,1.56,0,.18-.1.39,0,.11a1,1,0,0,1,.44-.53c.2-.07.24-.09.13-.06s-.08,0,.08,0l-.31,0c-.08,0-.5-.05-.2,0-.06,0-.42-.15-.14,0l-.22-.13c.11.1.13.11,0,0s-.35-.37-.19-.17c-.11-.14-.2-.29-.3-.43-.25-.38-.5-.76-.76-1.14-1.1-1.6-2.29-3.15-3.53-4.65-.86-1-2.56-.15-2.56,1.06,0,2,0,3.94,0,5.91a2.71,2.71,0,0,1,0,.29c0,.13,0,.1,0-.09a1.2,1.2,0,0,1,.63-.69c.15,0,.16,0,0,0a2.52,2.52,0,0,0-.82,0h-.19c.25,0,.32,0,.2,0-.31-.08.3.17.1.05a1.23,1.23,0,0,1,.49.63c0-.05-.07-.37,0-.09s0-.14,0-.2,0-.25,0-.38v-1.4c0-1,0-1.93,0-2.9s-.06-1.8,0-2.7c0-.19,0-.21,0-.05a1.6,1.6,0,0,1,0-.21c0-.1,0-.09,0,0,.09-.14.09-.16,0,0,.24-.34.57-.44.8-.93l-.53.54c.27-.17.55-.28.81-.48a1.78,1.78,0,0,0,.5-.52c0,.05,0,0,0,0,.43-.41-.08-.44-1.51-.09-.24-.21-.1-.13,0,0a2.43,2.43,0,0,0,.14.2c.1.14.22.27.32.41-.17-.25.17.28.16.27.82,1.28,1.71,2.51,2.64,3.71a1.54,1.54,0,0,0,2,.54,1.52,1.52,0,0,0,.54-2c-.64-.82-1.26-1.65-1.84-2.51-.31-.46-.61-.92-.91-1.38a2.38,2.38,0,0,0-.46-.65c-.16-.12.18.28,0-.06a2,2,0,0,0-2.64-.94,2.19,2.19,0,0,0-.5.36,1.94,1.94,0,0,0-.23.26c-.3.38-.32.4,0,.07a4,4,0,0,0-.54.28,1.72,1.72,0,0,0-.64.75L114.3,9a3.66,3.66,0,0,0-1.54,2.06,9.32,9.32,0,0,0-.12,2.69c0,1.83,0,3.67,0,5.5,0,1.23.41,2.44,1.77,2.7a6,6,0,0,0,2.11,0,2,2,0,0,0,1.67-1.93c.08-1,0-2.13,0-3.18s0-2.14,0-3.22l-2.56,1.06c.78,1,1.54,1.93,2.27,2.93s1.32,2,2.06,2.95a3.72,3.72,0,0,0,2.77,1.48,2.61,2.61,0,0,0,2.76-1.35,3.94,3.94,0,0,0,.2-1.63v-2c0-1.34,0-2.68,0-4,0-.6,0-1.2,0-1.79A8.06,8.06,0,0,0,125.64,9,1.77,1.77,0,0,0,124,7.67c-.8,0-1.33.6-1.88,1.09a11.78,11.78,0,0,0-1.34,1.11,3.09,3.09,0,0,0-.7,2c0,1.34,0,2.64-.11,4l2.56-1.07a4.93,4.93,0,0,1-.94-1.36A1.5,1.5,0,1,0,119,14.91Z"/><path class="cls-1" d="M93.22,20.72a.91.91,0,0,1-.6-1c0-2.74,0-5.49,0-8.23.57-.42,1.16-.79,1.68-1.26a3.54,3.54,0,0,1,3.11-1.21l.4,0a5.36,5.36,0,0,1,3,2c0,.4.21.68.38,1l0,.4v.4l-.1.58a1.59,1.59,0,0,0,0,2.56c.92,1,.42,2.65-.78,3.51a6.4,6.4,0,0,1-3.91,1c-.41,0-.53-.21-.51-.57a3,3,0,0,0,0-.6c-.14-1,.09-1.52,1.24-1.35a1.24,1.24,0,0,0,1.5-.73c.25-.75-.29-1.2-.81-1.57a2.8,2.8,0,0,0-1.31-.62c0-.26-.52-.17-.46-.54a2.92,2.92,0,0,0,1.68-.83h0c.86-.73.88-1.48,0-1.9a3.45,3.45,0,0,0-2.41,0c-.51.13-.17.94-.22,1.44a7.93,7.93,0,0,0,0,1.09v5.83l-.06.37h0l-.57.06A2.18,2.18,0,0,0,93.22,20.72Z"/><path class="cls-1" d="M94,19.43c-.41-.21.29.32.14.33,0,0,0-1,0-1.14,0-.8,0-1.6,0-2.4V11.53l-.74,1.3c.72-.53,1.44-1,2.11-1.62a3.08,3.08,0,0,1,1.22-.7,3.52,3.52,0,0,1,2.85,1.36l-.21-.76a3.58,3.58,0,0,0,.58,1.76l-.2-.75a3.55,3.55,0,0,1,0,1l.39-.66a3.24,3.24,0,0,0-1,3.11,3.82,3.82,0,0,0,1,1.57c-.08-.11-.07-.09,0,.05q-.08-.21,0,0c0,.18,0,.18,0,0a1.31,1.31,0,0,1,0,.28c0-.39-.15.4,0,.1,0,.06-.28.49-.18.36a2.14,2.14,0,0,1-1,.72,4.76,4.76,0,0,1-1.1.3,6.83,6.83,0,0,1-.78.06h-.39q-.63,0,.42.24l.38.67c0-.15-.06-.14,0,0a2.67,2.67,0,0,0,0-.4,3,3,0,0,0,0-.6c0-.18,0-.17,0,.05,0-.16,0-.13-.06.08,0,0-.51.57-.6.39a5.32,5.32,0,0,0,.6,0,3.21,3.21,0,0,0,.82-.05,2.63,2.63,0,0,0,1.33-.69,2.59,2.59,0,0,0,.3-3.31A4.75,4.75,0,0,0,97,13.67l1,1.05a2.08,2.08,0,0,0-.48-.81,1.55,1.55,0,0,0-.39-.28q-.34-.18.27.3l.2.76v-.12L96.58,16a4.54,4.54,0,0,0,2.34-1.22L96.8,12.68h0c-1.37,1.38.7,3.42,2.12,2.13A2.92,2.92,0,0,0,100,12.62a2.45,2.45,0,0,0-1.4-2.06,4.22,4.22,0,0,0-2.45-.41,2.68,2.68,0,0,0-2.25,1.08,3.47,3.47,0,0,0-.19,1.89c0,.78,0,1.57,0,2.36v2.31a15.23,15.23,0,0,1,0,2.34,1.51,1.51,0,0,0,2.5,1.46h0A1.51,1.51,0,0,0,95.19,19a7.4,7.4,0,0,0-2.72.41,1.51,1.51,0,0,0-.54,2.05A1.54,1.54,0,0,0,94,22a2.39,2.39,0,0,1,.44,0,5,5,0,0,0,.77,0l-1.06-2.57,0,0,2.51,1.46A28.5,28.5,0,0,0,96.73,16q0-1.18,0-2.37c0-.27,0-.54,0-.82a2.57,2.57,0,0,0,0-.4v-.13a1.18,1.18,0,0,1-.26.58l-.67.38A2.19,2.19,0,0,1,97,13.14s.24,0,.18,0c.1.06.11.06,0,0L97,12.89c0-.1.07-.42,0-.48a1.69,1.69,0,0,1-.27.27l2.12,2.13h0c1.37-1.38-.69-3.4-2.12-2.12a1.48,1.48,0,0,1-.47.32c-.23.11.13,0-.12,0s-.28.06-.43.09a1.5,1.5,0,0,0-1.1,1.44,1.8,1.8,0,0,0,.48,1.27,2.63,2.63,0,0,0,.37.29c.12.07.27.21,0,0l-.38-.66a1.79,1.79,0,0,0,1.36,1.19,3.88,3.88,0,0,1,.81.5c-.1-.07,0,0,0,0s-.06.1,0-.06,0-.16,0-.31.1-.1.18-.2.23-.11.05,0,0,0,.06,0a1.31,1.31,0,0,1-.28,0,2.64,2.64,0,0,0-2.27.65,2.67,2.67,0,0,0-.62,2.12,6.66,6.66,0,0,0,.09,1.34,1.89,1.89,0,0,0,1.07,1.22,5.77,5.77,0,0,0,2.92,0A5.44,5.44,0,0,0,102.8,19a3.87,3.87,0,0,0,.28-2.57,3.26,3.26,0,0,0-.59-1.14c-.11-.15-.24-.29-.36-.44s-.07-.13-.09-.15,0,0,0-.07a1.28,1.28,0,0,0,0,.19c0,.16.09-.12,0,0l.11-.14a3,3,0,0,0,.6-1.71,3.13,3.13,0,0,0-.27-1.63,2.33,2.33,0,0,0-.17-.3s0,.08,0,.12a1.93,1.93,0,0,0-.26-.83,6.41,6.41,0,0,0-4.48-2.7A4.74,4.74,0,0,0,94.9,8a12.36,12.36,0,0,0-2,1.49,14.13,14.13,0,0,0-1.33,1c-.55.55-.44,1.38-.44,2.09v3.31c0,1.15,0,2.29,0,3.43A2.67,2.67,0,0,0,92.47,22a1.54,1.54,0,0,0,2-.54A1.51,1.51,0,0,0,94,19.43Z"/><path class="cls-1" d="M125.62,11.31c.59-1,1.69-1.37,2.41-2.19.42.89.11,1.83.18,2.74,0,.7,0,1.4,0,2.28a27.43,27.43,0,0,0,2.15-3c1.56-2.22,1.56-2.22,4.46-2-1.05,1.51-2.05,3-3.11,4.44a.93.93,0,0,0,0,1.24c1.2,1.89,2.37,3.8,3.56,5.7l-3,.07-3.92-6.22a8.34,8.34,0,0,0-.12,2.31c0,1,0,2.07,0,3.11,0,.64-.2.83-.81.78s-1.07,0-1.6,0c-.26-.32-.15-.71-.15-1.06C125.65,16.78,125.64,14,125.62,11.31Z"/><path class="cls-1" d="M126.92,12.07a3.13,3.13,0,0,1,.81-.76,9.27,9.27,0,0,0,1.36-1.13l-2.5-.66a6.42,6.42,0,0,1,.11,2.24c0,.8,0,1.59,0,2.38a1.51,1.51,0,0,0,2.56,1.06,22.74,22.74,0,0,0,2-2.7c.25-.38.51-.75.78-1.12.1-.15.2-.29.31-.43-.23.31,0-.06.1-.12s.18-.16.26-.25-.3.21,0,0-.22,0,0,0,.5,0,0,0c.7,0,1.39,0,2.1.07l-1.3-2.26-2,3c-.71,1-1.84,2.13-1.43,3.48a7,7,0,0,0,.88,1.61c.34.54.68,1.07,1,1.61l2,3.24,1.3-2.26-3,.07,1.29.74-3.92-6.22a1.51,1.51,0,0,0-2.74.36,7.75,7.75,0,0,0-.17,2.15c0,.74,0,1.48,0,2.22,0,.37,0,.75,0,1.12a1.92,1.92,0,0,0,0,.48c-.11-.28.35-.68.59-.79s.35,0,.1-.08a2.77,2.77,0,0,0-.5,0c-.37,0-.73,0-1.1,0l1.29.74c0,.07,0,.24,0,.09a1.28,1.28,0,0,0,0-.39c0-.38,0-.76,0-1.14,0-.8,0-1.59,0-2.39l0-4.67a1.5,1.5,0,0,0-3,0l0,5.69c0,.91.06,1.83,0,2.74-.06,1.2.52,2.33,1.86,2.32a8.35,8.35,0,0,0,2.29-.1,2.14,2.14,0,0,0,1.42-2.19c0-.89,0-1.78,0-2.67a11.61,11.61,0,0,1,.07-2.36L127,15.1l3,4.79.68,1.08a1.85,1.85,0,0,0,1.73,1.1c.93,0,1.86-.05,2.79-.07a1.52,1.52,0,0,0,1.29-2.26c-1.16-1.87-2.34-3.73-3.5-5.6a2.26,2.26,0,0,1-.16-.26.69.69,0,0,1,0,.61,5.83,5.83,0,0,1,.48-.69q.45-.62.87-1.23c.63-.9,1.24-1.8,1.86-2.69a1.52,1.52,0,0,0-1.29-2.26c-1.55-.11-3.1-.25-4.32.89-1.37,1.3-2.11,3.17-3.35,4.57l2.56,1.06c0-.86,0-1.72,0-2.57a7.39,7.39,0,0,0-.22-2.85,1.6,1.6,0,0,0-1-1.05,1.49,1.49,0,0,0-1.46.39c-.76.82-1.93,1.39-2.64,2.49a1.5,1.5,0,1,0,2.59,1.52Z"/><path class="cls-1" d="M110.08,13.27l-7.47,7V17.2c0-.36.29-.51.5-.71,2.52-2.35,5-4.69,7.54-7.06a1.61,1.61,0,0,1,1.68-.3c.46.13.23.7.23,1.07,0,3.11,0,6.23,0,9.34,0,.76-.16,1.15-1,1-.63-.11-1.51.39-1.65-.81,0-.23-.48-.14-.74-.14H105.1c1.38-1.16,2.09-2.84,4.12-2.45.72.14.92-.22.88-.9C110,15.35,110.08,14.44,110.08,13.27Z"/><path class="cls-1" d="M109,12.21l-7.47,7,2.56,1.06V17.47c0-.74-.12.36-.23.33.06,0,.51-.45.54-.48l.65-.61,1.48-1.38,2.8-2.61,1.39-1.3.65-.62a3.14,3.14,0,0,0,.32-.31s-.14.08-.14,0,.32-.08.06,0h.08c.44.12.25-.2-.6-.94a2.73,2.73,0,0,0,0,.5c0,.64,0,1.3,0,1.94,0,1.29,0,2.58,0,3.88s-.08,2.54,0,3.79c0,.33,0,0,0,0l0,.1.25-.42c-.16.2.46-.37.58-.27a1.32,1.32,0,0,0-.3,0c-.12,0-.84-.08-.91,0s.33.08.39.12a.65.65,0,0,1,.35.4c0,.12,0,.09,0-.07a1.66,1.66,0,0,0-.75-1.15A2.88,2.88,0,0,0,109,18.1H105.1l1.06,2.56c.63-.54,1.17-1.18,1.77-1.76.08-.09.13-.11,0,0l.22-.15a2.53,2.53,0,0,1,.23-.12c-.26.12,0,0,.09,0,.23,0-.23,0,0,0a1.6,1.6,0,0,1,.31,0c.25,0-.16,0,.08,0s.41.07.61.07a2.13,2.13,0,0,0,2.1-2.22c0-1.06,0-2.13,0-3.19a1.5,1.5,0,0,0-3,0c0,1,0,2,0,3v.27a.59.59,0,0,1,.1-.34l.62-.48a.51.51,0,0,1,.3,0c-.21.08-.64-.1-.89-.11a4.08,4.08,0,0,0-.85.08c-1.71.31-2.62,1.82-3.84,2.87a1.52,1.52,0,0,0,1.06,2.56h4.37c.29,0,.18,0-.31-.14l-.54-.53c-.14-.31-.05,0,0,.09a1.72,1.72,0,0,0,.23.52,2.21,2.21,0,0,0,.67.69,2.52,2.52,0,0,0,1.45.34c1,0,2.16.11,2.79-1s.35-2.56.34-3.72c0-1.41,0-2.81,0-4.22,0-1.19,0-2.39,0-3.58,0-1.65-1.78-2.32-3.17-2a4,4,0,0,0-1.75,1.14l-1.56,1.47L104.68,13,103,14.58a8.88,8.88,0,0,0-1.51,1.49,3.72,3.72,0,0,0-.33,2v2.16a1.52,1.52,0,0,0,2.56,1.06l7.47-7A1.5,1.5,0,1,0,109,12.21Z"/><path class="cls-1" d="M81.67,19.94c-.23-.07-.35.11-.5.21,0-1-.07-2-.11-3l.15-.4.2-.19.16-.17c1-1.25,2.49-2.05,3.46-3.35L85.1,13l.49-.46A33.74,33.74,0,0,0,89,9.4,1.87,1.87,0,0,1,90,9h.78c.38.22.24.59.24.9,0,3.25,0,6.5,0,9.74,0,.72-.24,1-.91.86s-1.34.45-1.79-.36c.17-.28.34-.56-.2-.58-.39,0-.78,0-1.17.05H85.76l-2.13-.11A24.18,24.18,0,0,1,86,17.28c.53-.37,1.3-.09,2-.12.39,0,.54-.15.54-.54,0-1,0-2.09,0-3.37-2.26,2.18-4.48,4.05-6.47,6.16l-.07.06C81.75,19.53,81.68,19.71,81.67,19.94Z"/><path class="cls-1" d="M81.67,18.44a1.89,1.89,0,0,0-1.26.41l2.26,1.3-.06-1.61a3.7,3.7,0,0,1,0-1.37l-.38.66c.66-.64,1.27-1.3,2-1.9s1.33-1.29,2-1.95,1.67-1.4,2.46-2.17l1.14-1.14c.07-.06.35-.24.13-.15s.12,0,.17,0,.42,0,.64,0l-1.06-.44c-.11-.09-.1-.81-.18-.43a1.23,1.23,0,0,0,0,.27c0,.31,0,.61,0,.91v5.55c0,.6,0,1.21,0,1.81v.91c0,.15,0,.3,0,.45v.19c0,.1,0,.11,0,0-.17-.05.62-.61.38-.44.38-.28.25-.16.54-.25.12,0-.2,0-.26,0a2.56,2.56,0,0,0-.39,0c-.26,0-.52.08-.78.11s.21,0,0,0-.09,0,.14.05a.58.58,0,0,1,.44.25v1.51a1.82,1.82,0,0,0-.09-2.27,2.64,2.64,0,0,0-2.19-.53c-1.24.06-2.48,0-3.73-.09l1.06,2.56c.66-.63,1.37-1.25,2-1.91.13-.15.18-.14,0-.09a1.41,1.41,0,0,1,.5,0,4.41,4.41,0,0,0,1.45,0c1.19-.32,1.45-1.35,1.44-2.43V13.25a1.52,1.52,0,0,0-2.56-1.06c-2.17,2.09-4.42,4.08-6.54,6.22L81.6,18a2,2,0,0,0-1.43,1.91,1.51,1.51,0,0,0,1.5,1.5,1.54,1.54,0,0,0,1.5-1.5l-.24.64-.66.39a5.28,5.28,0,0,0,1.81-1.49c.58-.57,1.18-1.14,1.78-1.69,1.24-1.16,2.51-2.3,3.73-3.47L87,13.25v2.82c0,.12,0,.25,0,.37,0,.42,0-.07.08-.16l.54-.54c-.24.17.31-.1.34-.08a1.21,1.21,0,0,0-.33,0c-.26,0-.52-.06-.78-.07a2.85,2.85,0,0,0-1.75.5,25.15,25.15,0,0,0-2.57,2.38A1.52,1.52,0,0,0,83.63,21c.75,0,1.49.1,2.23.11.4,0,.81,0,1.21,0l.58,0H88c.23,0,.26,0,.08,0l-.66-.39.06.06L87,20.11l0,.07v-.8c0,.26.17-.27,0,0a1.46,1.46,0,0,0,0,1.51,2.28,2.28,0,0,0,1.82,1.17,3.33,3.33,0,0,0,.77-.05l.26,0c-.47.06.34,0-.17,0,.67,0,1.17.18,1.79-.19a2.21,2.21,0,0,0,1-1.81c.11-1.26,0-2.56,0-3.82v-6a3.07,3.07,0,0,0-.31-1.79c-.89-1.37-3.21-1-4.28,0-.9.8-1.69,1.72-2.61,2.51-.43.37-.9.69-1.3,1.1s-.63.74-1,1.07c-.89.82-1.79,1.59-2.64,2.45a2.81,2.81,0,0,0-.81,2.27l.09,2.41c0,1,1.28,2,2.25,1.29a2.56,2.56,0,0,1,.35-.22l-.75.21h.15a1.5,1.5,0,0,0,0-3Z"/><path class="cls-1" d="M72.29,10.11c.19,0,.45,0,.57-.09,2-1.88,3.84-.8,5.68.31.27.53.54,1.06.82,1.59a3.55,3.55,0,0,1-.26,2.54l-.22.26-.18.21c-.62.34-.47.77,0,1.08A2,2,0,0,1,79.54,18v2l0,.41c-.49.06-.68-.39-.91-.64-1.37-1.5-2.7-3-4.09-4.63a8.21,8.21,0,0,0,1.17-.49c.69-.39,1.28-.9,1.12-1.82s-.88-1.13-1.63-1.25c-1.65-.27-1.75-.17-1.75,1.49,0,2.24,0,4.48,0,6.73,0,.61-.18.86-.8.79a6.87,6.87,0,0,0-1.2,0c-.46,0-.59-.2-.6-.59,0-2.34.05-4.68,0-7,0-.86,0-1.59.91-2A.94.94,0,0,0,72.29,10.11Z"/><path class="cls-1" d="M72.29,11.61a3.46,3.46,0,0,0,1.06-.17,4.8,4.8,0,0,0,.87-.6,1.34,1.34,0,0,1,.52-.27s.47-.09.17-.06h.36c.06,0,.37.05.1,0l.35.09.35.11c.41.13-.2-.12.19.08s1,.55,1.52.85l-.54-.54a5.4,5.4,0,0,1,.78,1.6,1.17,1.17,0,0,1-.06.39,8.57,8.57,0,0,1-.31,1L78,13.4a7,7,0,0,1-.67.66,2,2,0,0,0-.56,1.17,1.92,1.92,0,0,0,.28,1.26,2.68,2.68,0,0,0,.4.49l.36.28h0c.24.15,0-.1.12.12s0-.06,0,.07,0,.28,0,.07c0,.14,0,.29,0,.43,0,.81,0,1.61,0,2.42l1.5-1.5c.12,0,.71.29.47.19s.16.21,0,0-.41-.5-.63-.75c-.42-.46-.84-.92-1.25-1.39C77.25,16,76.42,15,75.58,14l-.67,2.51A5.49,5.49,0,0,0,78,14.49a3,3,0,0,0-.55-3.57,4.91,4.91,0,0,0-3-1,2.15,2.15,0,0,0-2.33,1.41,8.9,8.9,0,0,0-.18,2.73c0,1.37,0,2.73,0,4.1v.95c0,.17,0,.35,0,.52v.11c0,.19,0,.18,0,0,.19-.24,0-.26.45-.53.74-.42.58-.07.36-.13a3.36,3.36,0,0,0-1.14,0c-.27.05-.13-.08-.06.05l.73.71q0,.3,0,.06a7.21,7.21,0,0,0,0-.93c0-.69,0-1.38,0-2.07,0-1.44-.06-2.9,0-4.34a2.28,2.28,0,0,1,0-.26c0,.35,0,0,0-.09-.15.44,0-.16,0,.09-.07.08,0,.07.06,0-.12.1-.09.1.06,0a2.53,2.53,0,0,0,1.26-2.11,1.5,1.5,0,0,0-3,0,2,2,0,0,1,.2-.45l0,0a1.35,1.35,0,0,0-.26.15,3.54,3.54,0,0,0-.6.5,3.17,3.17,0,0,0-.73,1.65,25.39,25.39,0,0,0-.05,3.49c0,1.27,0,2.55,0,3.82a3.71,3.71,0,0,0,.26,1.81,2,2,0,0,0,1.84,1c1.15,0,2.53.18,3.21-1A3.39,3.39,0,0,0,75,19.34c0-.67,0-1.34,0-2V13.45c0-.23,0-.46,0-.7,0-.07,0-.51,0-.56s-.08.39,0,.15a1.27,1.27,0,0,0,0-.14c.08.15-.29.47-.38.54a.56.56,0,0,1-.31.17c.23-.08-.34,0-.16,0a2.35,2.35,0,0,0,.27,0l.26,0c-.23,0-.1,0,0,0a5.62,5.62,0,0,1,.71.16s-.28-.11,0,0,0,0-.1-.12c.16.15,0,.12,0,0v0c0,.12,0,.1,0,0l0,.13,0-.12c-.09.14-.09.14,0,0l-.1.1c-.34.14.12-.07-.06.05l-.3.19a8.67,8.67,0,0,1-.81.34,1.52,1.52,0,0,0-.66,2.5c1,1.11,1.93,2.22,2.9,3.31l.66.74.39.43c.29.3-.07-.12.11.11a2.43,2.43,0,0,0,2,1.12,1.54,1.54,0,0,0,1.5-1.5,24.64,24.64,0,0,0,0-2.85A3.5,3.5,0,0,0,80,15.14a4.78,4.78,0,0,0-.42-.34q-.24-.17,0,0c.32.63.3,1.12-.07,1.45a1.32,1.32,0,0,0,.4-.34,3.65,3.65,0,0,0,.82-1.38,4.42,4.42,0,0,0,.06-3.16c-.21-.49-.47-.95-.71-1.42a2.76,2.76,0,0,0-1.14-1.13,10.77,10.77,0,0,0-2.22-1.06,4.91,4.91,0,0,0-2.58-.1,5.11,5.11,0,0,0-1.23.52,4.52,4.52,0,0,0-.75.55c-.32.24-.17.2.44-.1h-.25a1.54,1.54,0,0,0-1.5,1.5A1.5,1.5,0,0,0,72.29,11.61Z"/><path class="cls-1" d="M64.82,20.55l-.39,0a8.68,8.68,0,0,0-2.22,0,.33.33,0,0,0-.17,0l-.23-.19h-.38c0-.11-.08-.21-.22-.18-.42,0-.58-.5-1-.45l-.47-.45,0-.07c-.23-.49-.72-.73-1.07-1.1h0A4.82,4.82,0,0,0,58,16.53l-.07-.4-.12-.29c0-.7,0-1.39,0-2.09A6.25,6.25,0,0,1,60,10.23a6.48,6.48,0,0,1,4.76-1.09l1.66.62.58.36c.48.47,1,.94,1.45,1.4h0c1.68,3.18,1.3,5.3-1.4,7.91l-.45.31Zm-1.3-9a3.25,3.25,0,0,0-3.26,3.34,3.32,3.32,0,1,0,6.63-.11A3.28,3.28,0,0,0,63.52,11.51Z"/><path class="cls-1" d="M64.82,19.05c-1,.1-2-.06-3,.1h.79l-.17,0,.66.39a2.41,2.41,0,0,0-1.67-.64L62.87,20a2.26,2.26,0,0,0-.49-.83,1.7,1.7,0,0,0-.66-.39c-.18,0-.89-.21-.21.07s0-.19-.24-.3a2.18,2.18,0,0,0-1.06-.28l1.06.44-.32-.3c.07.13.08.16,0,.08s-.27-.43-.45-.63-.57-.5-.85-.77l-1.06,2.56h0a1.52,1.52,0,0,0,1.45-1.9c-.11-.71-.61-1.32-.71-2a6.06,6.06,0,0,1,0-1.77,4.36,4.36,0,0,1,1.48-2.49,5,5,0,0,1,3.27-.89,4.55,4.55,0,0,1,1.7.56,7.71,7.71,0,0,1,1.58,1.44,1.52,1.52,0,0,0,2.51-.66h0l-2.74.35a7.08,7.08,0,0,1,.79,2.19c0-.29,0,.26,0,.32s0,.37,0,.56c0-.33,0,.22-.07.29a4.26,4.26,0,0,1-.15.47c0,.1,0,.09,0,0,0,.09-.08.18-.13.27a5.74,5.74,0,0,1-.32.53,4.94,4.94,0,0,1-.68.86,3.17,3.17,0,0,1-.95.8c-.52.26-1.06.48-1.59.71a1.5,1.5,0,0,0,1.52,2.59c.58-.26,1.22-.49,1.78-.8a5.88,5.88,0,0,0,1.43-1.25,9,9,0,0,0,1.82-2.89c.77-2.09.11-4.25-.87-6.14a1.52,1.52,0,0,0-2.74.36h0l2.51-.66a12,12,0,0,0-2.19-1.91,7.7,7.7,0,0,0-2.94-1,7.94,7.94,0,0,0-5.06,1.28,7.75,7.75,0,0,0-2.83,4.22,4.67,4.67,0,0,0-.16,1.49,8.78,8.78,0,0,0,0,1.45,5.11,5.11,0,0,0,.45,1.42,3.15,3.15,0,0,1,.41,1.05l1.44-1.9h0a1.52,1.52,0,0,0-1.06,2.56,9.12,9.12,0,0,1,.8.72c-.13-.17,0,.07.06.13a3,3,0,0,0,.56.62,2,2,0,0,0,.82.54c.53.09.53.07,0-.05-.14-.11-.15-.11,0,0a2.45,2.45,0,0,0,1.52.56l-1.06-.44.07.07-.39-.66,0,.1a1.6,1.6,0,0,0,1.45,1.1h.38l-1.06-.43a2.89,2.89,0,0,0,1,.59,4,4,0,0,0,1.15,0c.65,0,1.29.08,1.94,0a1.54,1.54,0,0,0,1.5-1.5A1.51,1.51,0,0,0,64.82,19.05Z"/><path class="cls-1" d="M63.52,10a4.79,4.79,0,0,0-3.08,8.43,4.91,4.91,0,0,0,2.85,1.16,4.73,4.73,0,0,0,2.77-.7A4.78,4.78,0,0,0,63.52,10a1.51,1.51,0,0,0-1.5,1.5,1.53,1.53,0,0,0,1.5,1.5h.28c.26,0-.09,0-.12,0a2.84,2.84,0,0,0,.44.1,1.29,1.29,0,0,0,.26.08s-.34-.16-.12,0l.46.26c.25.15-.2-.19-.07-.05l.17.14c.09.09.18.25.29.31-.18-.11-.17-.23-.08-.1l.14.22a1.09,1.09,0,0,0,.08.15l.07.15c-.08-.21-.11-.27-.07-.16s.09.29.12.42,0,.24,0-.09a1.64,1.64,0,0,0,0,.22,3.49,3.49,0,0,1,0,.46c0,.21.08-.39,0-.08l-.06.26a2.41,2.41,0,0,1-.08.25c0,.15-.1.07,0-.11-.08.1-.13.27-.2.38a1.88,1.88,0,0,0-.12.18c-.09.17.25-.28,0-.07s-.24.25-.37.37.08-.07.11-.07-.16.11-.22.14a2.42,2.42,0,0,0-.39.21s.35-.13.12-.06l-.26.08-.17.05-.18,0,.18,0-.42,0a2.45,2.45,0,0,0-.27,0c.27,0,.27.05.13,0l-.43-.12c-.31-.09.3.17,0,0l-.24-.12-.18-.12c-.19-.12,0-.12.06.05,0-.09-.26-.24-.32-.31s-.18-.26-.06-.05,0,0,0-.06a2.12,2.12,0,0,0-.26-.47s.13.35,0,.11c0-.08-.06-.17-.08-.25a1.16,1.16,0,0,1,0-.18s-.08-.34,0-.07,0,0,0-.08v-.23c0-.08,0-.15,0-.23,0-.31-.07.32,0,0s.09-.34.15-.51-.15.24,0,.08.09-.18.14-.26a.71.71,0,0,1,.1-.14l.09-.14c-.15.19-.17.22-.07.11l.3-.3c.21-.22-.3.19,0,0l.21-.13.22-.13c.24-.13-.32.11,0,0l.5-.14c.16,0,.11.06-.13,0a2.23,2.23,0,0,0,.36,0,1.5,1.5,0,0,0,0-3Z"/><path class="cls-1" d="M40.88,20.58c-1.56-.09-1.56-.09-1.56-1.67,0-2.18,0-4.35,0-6.52a1.55,1.55,0,0,1,.54-1.2,6.53,6.53,0,0,1,6-2.17,29.12,29.12,0,0,0,3.5.08l-2.84,2.4-4,0c-.88-.17-.64.51-.6.88s-.44,1.21.6,1.1l4,0,.13,2.18c-.15.45-.53.33-.84.33-1.07,0-2.13,0-3.2,0-.51,0-.76.15-.63.69v3.62C41.61,20.69,41.21,20.47,40.88,20.58Z"/><path class="cls-1" d="M40.88,19.08l-.56,0c-.38,0,.29.07,0,0s.19.12.28.21.28.56.24.39,0,.35,0,.05,0-.33,0-.49c0-.47,0-.95,0-1.43V14.86c0-.52,0-1,0-1.57V12.5c0-.06,0-.21,0-.07.1-.21,0,0,.14-.18s.34-.34.52-.5a4.13,4.13,0,0,1,.72-.55A4.57,4.57,0,0,1,44,10.49c.18,0,.21,0,.09,0l.34,0h.52c.45,0,.89.08,1.34.12,1,.1,2,0,3.07,0L48.29,8l-2.84,2.4L46.51,10l-2.23,0-1.12,0c-.37,0-.59,0-1,0a1.86,1.86,0,0,0-1.78,1.32,2.3,2.3,0,0,0-.07.74,5.77,5.77,0,0,0,.08.58c0,.27,0-.32,0-.13s.07-.41,0-.11c0,.12,0,.25-.06.38a2.14,2.14,0,0,0,0,.87A1.85,1.85,0,0,0,42,15a19,19,0,0,0,2.14,0h2.31L45,13.54l.13,2.18.2-.76c.89-.27,1.12-.41.7-.4h-2.3a3.85,3.85,0,0,0-2.61.45c-.85.71-.66,1.68-.66,2.59s0,1.84,0,2.76l.44-1.06-.13.11.66-.38c-.28.11.11,0-.2,0a2.35,2.35,0,0,0-.69.1,1.5,1.5,0,1,0,.8,2.89c-.16,0-.14,0,0,0a2.06,2.06,0,0,0,.55-.06,1.92,1.92,0,0,0,.95-.46,2.35,2.35,0,0,0,.58-2V17.82c0-.29,0-.58,0-.86a2.6,2.6,0,0,0,0-.62,1.35,1.35,0,0,1-.08.6l-.54.54c.14-.09.09-.09-.14,0s-.28.07-.13.06a1.88,1.88,0,0,0,.53,0h1.14c.67,0,1.35,0,2,0a1.94,1.94,0,0,0,1.89-1.64,11.86,11.86,0,0,0-.1-2.38,1.52,1.52,0,0,0-1.5-1.5H43.26a2.63,2.63,0,0,0-.93,0c.21-.1,1,1.12,1,1.09s-.06.36,0,.1a4.57,4.57,0,0,0,.1-.73,3.73,3.73,0,0,0-.09-.67c0-.16,0,.33,0,.08L42.48,13c-.46,0-.52,0-.19,0a16.3,16.3,0,0,0,2.21,0,13.55,13.55,0,0,0,2.21,0c.78-.13,1.44-.9,2-1.4l1.67-1.41A1.51,1.51,0,0,0,49.35,7.6c-1,0-1.9.05-2.85,0a15.09,15.09,0,0,0-2.42-.11,8.19,8.19,0,0,0-4.5,1.93,4.82,4.82,0,0,0-1.61,2,8.68,8.68,0,0,0-.15,2.79c0,1.81-.1,3.65,0,5.46a2.36,2.36,0,0,0,1,2,4.41,4.41,0,0,0,2.06.42,1.51,1.51,0,0,0,1.5-1.5A1.53,1.53,0,0,0,40.88,19.08Z"/><path class="cls-1" d="M51.6,11.1v6.46c-.15.58.24.57.63.56,1.09,0,2.18,0,3.27,0,.47,0,.77.1.79.61v.47c0,.46-.09.91-.14,1.36a.39.39,0,0,0-.18,0c-2,0-4.07-.05-6.1,0-.61,0-.81-.18-.8-.79,0-2.71,0-5.41,0-8.11a1.18,1.18,0,0,1,.26-.93,14.69,14.69,0,0,0,1.84-1.5c.16-.06.33-.16.43.08C51.61,9.91,51.6,10.5,51.6,11.1Z"/><path class="cls-1" d="M50.1,11.1v6.12c0,.74,0,1.6.79,2.09a2.85,2.85,0,0,0,1.55.31h2a7.93,7.93,0,0,0,1.09,0c.21,0,.08.05,0,0l-.57-.47c-.08-.43-.11-.53-.11-.32-.08.57-.08,1.18-.14,1.75l1.1-1.44a8.94,8.94,0,0,1-1,0l-1.25,0H49.72l.16,0a.82.82,0,0,1,.55.46.48.48,0,0,1,.14.37,6,6,0,0,0,0-1.05c0-.41,0-.82,0-1.23,0-1.58,0-3.16,0-4.74,0-.41,0-.82,0-1.23s0,0,0,0a3.36,3.36,0,0,0,.74-.53,8,8,0,0,0,1-.86l-.66.38a.86.86,0,0,1,.23-.06H51l.1,0L50.23,10l.08.12-.2-.76c0,.6,0,1.19,0,1.79a1.5,1.5,0,0,0,3,0c0-.59,0-1.2,0-1.79a1.74,1.74,0,0,0-1.7-1.65,2.51,2.51,0,0,0-1.68.9c-.32.28-.78.58-1.17.88-1,.8-1,1.93-1,3.12s0,2.4,0,3.6-.05,2.41,0,3.61A2.13,2.13,0,0,0,49.2,22a8.32,8.32,0,0,0,1.8.06h1.81A19.47,19.47,0,0,0,56.55,22a1.54,1.54,0,0,0,1.1-1.45c.15-1.45.43-3.41-1.43-3.86a10.34,10.34,0,0,0-2.36-.06h-1.2a3.39,3.39,0,0,0-.55,0c-.28,0,.2,0,.29.09l.54.53c.06.84.11.94.16.31V11.1A1.5,1.5,0,0,0,50.1,11.1Z"/><path class="cls-1" d="M20.59,58.14a2.08,2.08,0,0,0,0,1.16,23.28,23.28,0,0,0,1,2.92A7.81,7.81,0,0,0,24,65.3a5.36,5.36,0,0,0,1.56.8l2.25.73a3.11,3.11,0,0,1,.59.26.44.44,0,0,1,.08.77,2.28,2.28,0,0,1-.46.36A6,6,0,0,1,26,69a14.9,14.9,0,0,1-2.3.21c-.79,0-1.59,0-2.38,0A11.17,11.17,0,0,1,19,69a1.33,1.33,0,0,0-.4,0,8.47,8.47,0,0,1-2-.2l-.74-.1a.94.94,0,0,0-.87.47.49.49,0,0,0,0,.21.76.76,0,0,1-.57.81,2,2,0,0,1-.93.14,9,9,0,0,1-2.25-.49,14.86,14.86,0,0,1-2.66-1.13A1.35,1.35,0,0,1,8.09,68c-.06-.1.09-.4.22-.47a2.58,2.58,0,0,1,.48-.21A10,10,0,0,1,10.1,67a8.11,8.11,0,0,0,3.74-1.71,13.63,13.63,0,0,0,2-2.06,12.59,12.59,0,0,0,2.82-6.49,21.06,21.06,0,0,0,.13-5.32c-.16-1.53-.37-3.06-.55-4.59-.1-.85-.16-1.71-.27-2.57a20.89,20.89,0,0,1,0-3v-.06a19.46,19.46,0,0,1,.37-3.64,2.22,2.22,0,0,0,0-.37,1.45,1.45,0,0,0-1.18-1.48,13.13,13.13,0,0,0-1.4-.21,12.51,12.51,0,0,1-1.72-.36,8.45,8.45,0,0,1-.94-.29,1,1,0,0,1-.32-.16.78.78,0,0,1-.35-.94,8.76,8.76,0,0,1,.46-1.24c.59-1.16,1.21-2.31,1.82-3.46A6.33,6.33,0,0,1,16,27.62l.34-.31a1.49,1.49,0,0,0,.36-1.59l0-.12a1.13,1.13,0,0,0-1-.84,1.19,1.19,0,0,1-.39-.16c-.27-.15-.51-.34-.78-.49a1.21,1.21,0,0,1-.59-1,11.55,11.55,0,0,1-.08-1.32c0-.24.15-.39.27-.56a2.35,2.35,0,0,0,.23-.32c.09-.18.2-.36-.08-.56A.4.4,0,0,0,14.7,20l-.33-.24,0-.33c.07,0,.18,0,.2-.09s.07-.14.22,0l-.31-.7a.56.56,0,0,0,.23,0c.05,0,.06-.11.1-.18a1.69,1.69,0,0,0,.32.19c.17.06.22-.1.29-.24a.41.41,0,0,0,.46.25.33.33,0,0,1,.19.06c.11,0,.2.12.32.19s-.19.18-.12.35-.23.21,0,.37l.23-.18-.11-.2c.15,0,.26,0,.25.21l.17-.09.22.16c-.23.12,0,.31-.12.5l.57-.27.15.25a1.81,1.81,0,0,0,.2.33.72.72,0,0,1,.21.53.67.67,0,0,0,.18.47c.1.13.17.28.26.41a.54.54,0,0,0,.15.18,2.82,2.82,0,0,0,.38.21c.12.06.17.15.11.27a.4.4,0,0,0,0,.35,8,8,0,0,1,.32.86c.06.16,0,.27-.14.38s-.39.41-.6.62a.71.71,0,0,0,.09,1.05.3.3,0,0,0,.39,0,2.85,2.85,0,0,0,.83-.9c.11-.19.18-.39.29-.58s.38-.68.61-1a4,4,0,0,0,.65-1.25c.1-.3.22-.6.3-.91a3,3,0,0,0,.08-.6c0-1.23.09-2.47.17-3.7a8.23,8.23,0,0,1,.23-1.39,6.08,6.08,0,0,0,.14-1.41,1.18,1.18,0,0,1,.17-.64c.18-.28.36-.55.55-.82a1.63,1.63,0,0,1,.23-.23,4.33,4.33,0,0,1-.1.71.23.23,0,0,0,.27-.12,1.14,1.14,0,0,0,.1-.19A1.09,1.09,0,0,1,24.85,12c-.06.14-.11.27-.17.38-.3.5-.61,1-.92,1.49a5.79,5.79,0,0,1-.45.62.53.53,0,0,0-.13.43c.07,1.27.13,2.54.21,3.81a7.93,7.93,0,0,0,.17,1.07,3,3,0,0,1-.11,1.43,29,29,0,0,1-1.76,5,1.23,1.23,0,0,0,0,1.27,1.56,1.56,0,0,1,.1.22c-.24,0-.48,0-.64.22a1.69,1.69,0,0,0-.42.62c.28-.17.54-.3.77-.46a.75.75,0,0,1,1.21.44,5.19,5.19,0,0,1,.19.87,14.6,14.6,0,0,1,0,3.17,6.9,6.9,0,0,0,.15,2.17,4,4,0,0,0,.2.58c.13.31.26.63.42.93a9.72,9.72,0,0,1,.86,2.84,23,23,0,0,1,.22,5.68c-.12,1.63-.41,3.22-.67,4.82-.17,1.06-.33,2.11-.53,3.16-.12.64-.31,1.25-.46,1.88-.23,1-.49,1.94-.67,2.91a8.61,8.61,0,0,0-.05,3.16,4.27,4.27,0,0,0,2.25,3.1,6.05,6.05,0,0,0,1,.44c1.2.38,2.4.73,3.59,1.11a6.7,6.7,0,0,1,1.89.9,3.5,3.5,0,0,1,.69.64,1.32,1.32,0,0,1,0,1.76A4.57,4.57,0,0,1,30.3,69.9a9.15,9.15,0,0,1-1.07.47,15.06,15.06,0,0,1-4.13,1c-1.22.1-2.45.24-3.68.33a41.89,41.89,0,0,1-4.62.06A34.63,34.63,0,0,1,12,71.2c-1.06-.2-2.12-.43-3.16-.69a7,7,0,0,1-2.13-.94,1.92,1.92,0,0,1-.89-1.07,1.57,1.57,0,0,1,.66-1.86,6.48,6.48,0,0,1,1.78-.9c1-.31,1.92-.67,2.88-1a11.33,11.33,0,0,1,2.44-.48,1.42,1.42,0,0,1,.5,0l-.12.06a23.61,23.61,0,0,0-3,.86c-.72.24-1.44.51-2.14.79a2.81,2.81,0,0,0-1.21,1,.94.94,0,0,0-.09,1,2.27,2.27,0,0,0,.59.78,5.45,5.45,0,0,0,2.67,1.33,34.2,34.2,0,0,0,3.64.64A36.87,36.87,0,0,0,18.4,71a35.42,35.42,0,0,0,5.25-.32,38.45,38.45,0,0,0,5.09-1.1,3.55,3.55,0,0,0,1.42-.78,2.07,2.07,0,0,0,.56-.83.81.81,0,0,0-.06-.68,2.23,2.23,0,0,0-1-1c-.66-.32-1.32-.62-2-.91a3.69,3.69,0,0,0-.64-.21,13.54,13.54,0,0,1-2.68-1,6.31,6.31,0,0,1-2.44-2.37,10.84,10.84,0,0,1-1.17-3.16C20.68,58.49,20.63,58.32,20.59,58.14ZM14.52,33.47a3.53,3.53,0,0,0,.55.31,29.77,29.77,0,0,1,2.82,1.15,1.08,1.08,0,0,0,.44.09.4.4,0,0,0,.41-.41,1.52,1.52,0,0,0,0-.21,3.38,3.38,0,0,0-1.16-2c-.35-.34-.7-.67-1-1a1.37,1.37,0,0,0-.16-.18.42.42,0,0,0-.67.07,1.62,1.62,0,0,0-.17.32,6.21,6.21,0,0,1-.64,1.19A5.33,5.33,0,0,0,14.52,33.47Zm3.61-3.93,0,0,.19-.14a1.94,1.94,0,0,1,1-.47c.28-.06.55-.15.82-.23a.68.68,0,0,0,.16-.09,3.25,3.25,0,0,0-1.2,0,1,1,0,0,0-.75.47C18.29,29.23,18.21,29.39,18.13,29.54ZM15,19.69l.35,0,.18-.28c.08.1.2.17,0,.28l.22.18.17-.21-.23-.15,0-.08h.15l.08-.27L15.77,19a1,1,0,0,0-.2.11,1.22,1.22,0,0,0-.15.17c-.23,0-.14-.31-.3-.43,0,.22.16.47-.16.56Zm.59.6-.36.61-.17-.22-.25.31.33.12c0,.1,0,.23.09.32A2.46,2.46,0,0,0,15.61,20.29Zm-.9-.11.19.31h.37l.16-.31L15.05,20C15.07,20.19,14.89,20.15,14.71,20.18Zm.19,2,0-.33-.3.07,0,.35Zm-.19-.92-.19-.3c-.13.08-.21.14-.13.27Zm.18.07c-.16.07-.2.17-.14.3l.33-.06Zm-.16,1.29c0-.17-.11-.22-.23-.19s-.07.08-.11.12.07.08.11.08A.92.92,0,0,0,14.73,22.66Z"/><path class="cls-1" d="M19.15,57.75c-.39,2.27.8,5.12,2.17,6.92A8.42,8.42,0,0,0,23.83,67a9.83,9.83,0,0,0,1.81.74c.52.18,1.55.29,1.95.7l-.43-1.06c.25-.46.19-.53-.2-.23a3.07,3.07,0,0,1-.5.2,7,7,0,0,1-1.43.3,23.92,23.92,0,0,1-2.81.07,38.37,38.37,0,0,1-5.56-.46,3,3,0,0,0-2,.22,2.25,2.25,0,0,0-.83.79c-.06.1-.46,1-.31,1.07l.32-.55a3.37,3.37,0,0,1-.84-.07,12.62,12.62,0,0,1-1.34-.36c-.61-.2-1.94-.51-2.25-1.07l.16,1.16c-.11.71-.59.24.08.25a6,6,0,0,0,.88-.21,10.1,10.1,0,0,0,1.41-.37,10.6,10.6,0,0,0,2.84-1.6,14.5,14.5,0,0,0,4-4.81C20.8,57.5,20.52,52.91,20,48.44a50.21,50.21,0,0,1-.5-7.14c0-1.81,1-4.22-.15-5.82a3.21,3.21,0,0,0-2.2-1.26c-.52-.1-1-.13-1.56-.23a8.89,8.89,0,0,0-1.72-.44c.1-.08-.29.92.14.43a4.45,4.45,0,0,0,.34-.89c.24-.52.53-1,.8-1.52A11.81,11.81,0,0,1,17,28.68a3.25,3.25,0,0,0,1.19-2.81,3,3,0,0,0-1.27-2.21c-.48-.3-1-.39-1.49-.72s0,.33-.06-.09a1.88,1.88,0,0,1,0-.85c.15-.46.47-.73.51-1.26a1.94,1.94,0,0,0-.6-1.44l-.66,2.51a1.83,1.83,0,0,0,1.36-1,1.56,1.56,0,0,0-.54-2.05l-.33-.25.69.9-.06-.33-1,1.85A2.2,2.2,0,0,0,15.89,20l-1.7.69.15.06c1.37.51,2.16-1.14,1.7-2.2l-.31-.7-.9,2.2a1.72,1.72,0,0,0,1.23-.91L14,19.71a1.8,1.8,0,0,0,2.67-.59l-2.36.3c.4.44.82.46,1.27.74L15,18.1c-.09.17-.61,1.37-.2.58a1.53,1.53,0,0,0,0,1.52l.09.14a1.52,1.52,0,0,0,2.36.3l.23-.18a1.51,1.51,0,0,0,.23-1.82l-.11-.19L16,20.65l.19,0-1.05-1,.07.16a1.52,1.52,0,0,0,2.2.9l.17-.09H16l.22.15-.3-2.35A2.31,2.31,0,0,0,15.37,20a1.52,1.52,0,0,0,2.26,1.3L18.2,21l-2.06-.54c.32.52.45,1.06.74,1.58A4.62,4.62,0,0,0,18,23.27l-.43-1.06a2.82,2.82,0,0,0,.07.89c.11.54.21.57.28.1a3.11,3.11,0,0,0-.54.61,2.22,2.22,0,0,0-.11,2.33c1.26,2.25,3.4.39,4.22-1.09,1-1.8,1.86-3.21,1.95-5.35a25.94,25.94,0,0,1,.22-3.53c.21-1.2.06-2.17.8-2.9l-2.56-1.06-.05.31a1.52,1.52,0,0,0,1.45,1.9A1.88,1.88,0,0,0,24.55,14a1.9,1.9,0,0,0,.34-.41c.15-.22.14-.25,0-.09l-1.29-2.26c-.56,1.21-1.82,2.31-1.88,3.68A41.06,41.06,0,0,0,22.07,20c.12,1.37-.71,3.16-1.21,4.42a8.9,8.9,0,0,0-.79,2.16,3.52,3.52,0,0,0,.45,1.92l1.3-2.26a2.69,2.69,0,0,0-2.36,1.58,1.51,1.51,0,0,0,2.05,2.05,7,7,0,0,0,.77-.46l-.87,0a4.43,4.43,0,0,1,.09.72,15.28,15.28,0,0,1,0,2,8.81,8.81,0,0,0,.37,3.61A24.19,24.19,0,0,1,23,38.65a18.08,18.08,0,0,1,.4,4.46,54.49,54.49,0,0,1-1.05,8.34c-.44,2.55-1.46,5.06-1.52,7.66a6.43,6.43,0,0,0,2.54,5.62,11.08,11.08,0,0,0,3.29,1.37l1.79.56c.53.16,1.64.38,2,.88.83,1.24-5.18,2.29-6,2.36a54.63,54.63,0,0,1-8.09.3,32.35,32.35,0,0,1-4.8-.63c-1.09-.22-3.23-.38-4-1.3-.39-.44-.06-.49.44-.76a13.57,13.57,0,0,1,1.78-.67c1.07-.37,2.83-1.29,4-1.06L13.36,63a23.34,23.34,0,0,1-2.33.63,23.22,23.22,0,0,0-2.92,1.08c-1.44.7-2.56,2.18-1.91,3.81,1.32,3.3,6.56,3.54,9.49,3.79a36.6,36.6,0,0,0,12.07-1c1.66-.42,3.51-.94,4.25-2.66s-.38-3.06-1.81-3.78a17,17,0,0,0-2.79-1.17,10.41,10.41,0,0,1-2.66-1.06c-1.73-1.1-2.26-3.09-2.71-5s-3.34-1.09-2.89.79c.79,3.34,2.22,6.1,5.53,7.46.74.31,1.5.49,2.26.75.39.14.77.32,1.15.5.11,0,1.21.62,1.13.4.11-.22.07-.19-.13.08a1.49,1.49,0,0,1-.56.32,10.43,10.43,0,0,1-1.57.44c-.91.23-1.83.44-2.77.6a33.94,33.94,0,0,1-12.06-.24,7.67,7.67,0,0,1-2.3-.7c-.34-.2-.53-.46-.84-.68-.09.33-.05.39.13.17a1.24,1.24,0,0,1,.57-.32c1.64-.78,3.56-.93,5.18-1.69a1.51,1.51,0,0,0-.36-2.74,8.35,8.35,0,0,0-4.15.56,17.22,17.22,0,0,0-4.61,1.89,3.12,3.12,0,0,0-1.41,3.2c.3,1.59,1.62,2.45,3,3a29.14,29.14,0,0,0,9.89,1.66,40.29,40.29,0,0,0,10.34-.79c2.38-.57,7.08-2.29,5.92-5.61-1.06-3-5.32-3.08-7.76-4.17-3.19-1.42-1.69-5.55-1.05-8.11a52.75,52.75,0,0,0,1.65-10.74,23,23,0,0,0-.4-5.55c-.33-1.67-1.43-3.13-1.52-4.83s.45-3.91-.41-5.67a2.27,2.27,0,0,0-1.51-1.29,3.44,3.44,0,0,0-2.52.77l2.05,2.06c.21-.47.28-.15-.23-.1A1.52,1.52,0,0,0,23.11,27c-.14-.32.41-1.17.57-1.55.24-.62.46-1.25.65-1.89a9.34,9.34,0,0,0,.73-3.74c-.15-1.32-.26-2.61-.33-3.93,0-.13.07-1.16-.09-.79s.43-.47.42-.45a14,14,0,0,0,1.09-1.87c.43-1-.06-2.35-1.3-2.26a3.31,3.31,0,0,0-1.57.41c-.38.24-.62.75-.85,1l1.06-.44h-.16l1.44,1.9c.07-.37.12-.74.16-1.11.15-1.35-1.71-1.91-2.56-1.06-1.56,1.54-1.65,3.93-1.79,6-.08,1.13,0,2.34-.16,3.45a7.61,7.61,0,0,1-1.22,2.45,7.53,7.53,0,0,0-.76,1.24c.71,1.19,1.3,1.47,1.78.87a3.32,3.32,0,0,0,.38-.46,1.8,1.8,0,0,0,.34-1.14c0-.25-.44-2-.41-.81a2.28,2.28,0,0,0-.81-2,14.58,14.58,0,0,1-1-1.85,1.53,1.53,0,0,0-2.05-.53l-.56.27L18.37,20a1.09,1.09,0,0,0,0-.36l-.44,1.06.12-.14a1.54,1.54,0,0,0-.3-2.36L17.53,18A1.46,1.46,0,0,0,16,18l-.17.09,2.21.9a1.73,1.73,0,0,0-1.31-1.26A1.51,1.51,0,0,0,15.05,20l.11.19.24-1.81-.23.18,2.35.31-.09-.15V20.2a5,5,0,0,0,.23-.53,2.34,2.34,0,0,0,0-.26c.05-.33,0-.27-.07.21a1.52,1.52,0,0,0-.53-2.05c-.19-.12-1.07-.71-.67-.27a1.51,1.51,0,0,0-2.35.31L14,17.8l.9-.69-.18,0,1.16.16-.32-.19a1.52,1.52,0,0,0-2.06.53l-.1.18.9-.69-.22.05a1.52,1.52,0,0,0-.9,2.2l.31.7,1.69-2.2L15,17.83a1.53,1.53,0,0,0-1.69.69l.62-.5a1.55,1.55,0,0,0-1.05,1.84,2.15,2.15,0,0,0,1.07,1.47l-.54-2,.44-.36c-1.22.2-1.3,1.73-.66,2.5l.16.2-.44-1.06.12-.4c-.13.2-.27.39-.41.58a2.62,2.62,0,0,0-.29,1.06,5.35,5.35,0,0,0,.3,2.28,3.22,3.22,0,0,0,1.5,1.57,7.22,7.22,0,0,1,1.15.56q-.16-.37-.06-.09c.06.21,0,.36-.32.44a15.33,15.33,0,0,0-1.45,1.77c-.5.83-.92,1.73-1.37,2.59-.72,1.38-1.81,3.29-.54,4.68,1,1.06,2.93,1.25,4.26,1.44,1.17.15,1.11,0,.95,1.07a25.26,25.26,0,0,0-.27,3.13c-.08,3.76.71,7.41.93,11.15s-.44,7.3-2.86,10.09a8.57,8.57,0,0,1-4,2.89c-1.41.4-3.57.41-3.89,2.23s1.4,2.48,2.67,3c1.53.65,3.52,1.43,5.21,1a2.75,2.75,0,0,0,1.63-1.09,1.85,1.85,0,0,0,.32-1l0-.28c-.8.59-.89.88-.26.87a6.67,6.67,0,0,0,2.41.25c1.05.09,2.05.26,3.11.26a16.15,16.15,0,0,0,6-.67c1.45-.58,3.33-2.08,1.94-3.73-1.26-1.5-3.78-1.22-5.24-2.55a6.56,6.56,0,0,1-1.6-2.26A7,7,0,0,1,22,58.54C22.36,56.65,19.47,55.84,19.15,57.75Z"/><path class="cls-1" d="M13.76,34.77c.16.09.32.2.49.28a8.36,8.36,0,0,0,.83.32c.39.14.78.3,1.16.46l-.36-.15,1,.43a3.57,3.57,0,0,0,1.49.41,1.93,1.93,0,0,0,1.78-1.31,2.68,2.68,0,0,0,0-1.51,4.84,4.84,0,0,0-1.17-2c-.45-.49-1-.92-1.4-1.42a2,2,0,0,0-2-.61,2.09,2.09,0,0,0-1.11.87,4.07,4.07,0,0,0-.38.82l.15-.36a6.9,6.9,0,0,1-.48.89c-.18.28-.33.56-.48.84a1.5,1.5,0,1,0,2.59,1.52c.18-.33.36-.65.56-1A9,9,0,0,0,17,31.93l-.16.36c0-.09.09-.17.15-.26l-.24.31a.92.92,0,0,1,.14-.14l-.3.24,0,0-.36.15.1,0-.4.06h.11l-.4,0,.1,0-.35-.15.11.06-.31-.23a4.78,4.78,0,0,1,.44.46l.51.51a9.14,9.14,0,0,1,.86.9l-.24-.3a3.4,3.4,0,0,1,.42.71l-.15-.36a3.06,3.06,0,0,1,.19.72l-.06-.4a.62.62,0,0,1,0,.19l.05-.39a.37.37,0,0,1,0,.14l.15-.36a.22.22,0,0,1-.05.08l.24-.3-.07.06.3-.23-.08,0,.36-.15-.1,0,.4,0H18.2l.4.05a1.25,1.25,0,0,1-.32-.08l.36.15c-1.07-.47-2.14-.91-3.23-1.32l.35.15c-.17-.08-.32-.19-.49-.28a1.52,1.52,0,0,0-2,.53A1.54,1.54,0,0,0,13.76,34.77Z"/><path class="cls-1" d="M17.07,30.6l0,0,.3.24a1.12,1.12,0,0,0,.56.18.9.9,0,0,0,.4,0,1.09,1.09,0,0,0,.55-.18c.22-.16.42-.33.64-.5l-.31.24a2.12,2.12,0,0,1,.36-.21l-.36.16a5,5,0,0,1,.75-.22,3.45,3.45,0,0,0,1.08-.41,1.74,1.74,0,0,0,.54-.54l.15-.36a1.18,1.18,0,0,0,0-.59.8.8,0,0,0-.1-.38.7.7,0,0,0-.2-.33.59.59,0,0,0-.27-.27,1.05,1.05,0,0,0-.51-.27,3.63,3.63,0,0,0-1.14-.12l-.37,0a3.38,3.38,0,0,0-.7.1,2.44,2.44,0,0,0-1.08.67,4.17,4.17,0,0,0-.59.91,1.54,1.54,0,0,0-.15,1.15,1.49,1.49,0,0,0,.69.9,1.54,1.54,0,0,0,1.15.15,1.52,1.52,0,0,0,.9-.69,3.86,3.86,0,0,1,.32-.56l-.23.31a.9.9,0,0,1,.19-.2l-.3.24.17-.11-.35.16a.61.61,0,0,1,.24-.07l-.4.05a4.27,4.27,0,0,1,1,0l-.4-.05.25.05-.36-2.74-.13.09.36-.16a10.34,10.34,0,0,1-1.09.3,4,4,0,0,0-.77.32,4.45,4.45,0,0,0-.69.52l.3-.23-.14.1,1.82.23,0,0a1.11,1.11,0,0,0-.48-.31,1.27,1.27,0,0,0-.58-.13,1.56,1.56,0,0,0-1.06.44,1.52,1.52,0,0,0-.44,1.06l.06.4A1.45,1.45,0,0,0,17.07,30.6Z"/><path class="cls-1" d="M15,21.19l.19,0a3.06,3.06,0,0,0,.56-.07l.36-.15.3-.23a1.8,1.8,0,0,0,.26-.34l0-.07.11-.17-2.36.3.08.1-.23-.31s0,0,0,.05l-.15-.36a0,0,0,0,1,0,0l-.05-.4a0,0,0,0,1,0,0l.06-.39h0l.15-.35h0l.24-.3s0,0,0,0l.3-.23,0,0a1.45,1.45,0,0,0-.54.53,1.16,1.16,0,0,0-.18.56,1.22,1.22,0,0,0,0,.6,1.44,1.44,0,0,0,.39.66l.22.18a1.14,1.14,0,0,0,.48.31,1.15,1.15,0,0,0,.58.13l.4,0a1.59,1.59,0,0,0,.66-.39l.17-.21a1.49,1.49,0,0,0,.39-.66,1.22,1.22,0,0,0,0-.6,1.16,1.16,0,0,0-.18-.56,1.52,1.52,0,0,0-.54-.53l-.24-.15L17,20.23l0-.08-1.29.74h.15l.4-.05a1.26,1.26,0,0,0,.51-.27.87.87,0,0,0,.27-.27,1,1,0,0,0,.26-.51l.09-.27.05-.4a1.11,1.11,0,0,0-.12-.57.79.79,0,0,0-.2-.34,1,1,0,0,0-.42-.38l-.25-.17a1.54,1.54,0,0,0-.76-.2,1.5,1.5,0,0,0-.75.2l-.11.06a2.2,2.2,0,0,0-.25.17,1.42,1.42,0,0,0-.22.2l-.08.09,1.46-.39h-.06l.36.15,0,0,.31.23,0,0,.24.3,0,0,.15.36a1.27,1.27,0,0,0-.06-.18,1.08,1.08,0,0,0-.08-.19,2.05,2.05,0,0,0-.08-.2l0,0a3.76,3.76,0,0,0-.25-.31v0l0,0-.32-.24a1.46,1.46,0,0,0-1.51,0,1.48,1.48,0,0,0-.74,1.29,3.16,3.16,0,0,0,.08.68l0-.4v.1l0-.4a.13.13,0,0,1,0,.06l.15-.36,0,0,.24-.3s0,0,0,0l.3-.24-.05,0,.35-.15-.06,0a1.26,1.26,0,0,0-.51.27,1.18,1.18,0,0,0-.38.42l-.15.36a1.55,1.55,0,0,0,0,.8l.05.32a1.14,1.14,0,0,0,.27.51,1.34,1.34,0,0,0,1,.57,1.22,1.22,0,0,0,.6,0l.36-.15a1.45,1.45,0,0,0,.53-.54l.15-.36a1.33,1.33,0,0,0,0-.79L16.41,19l-1.05,1.85a2.44,2.44,0,0,0,.44-.19,1.56,1.56,0,0,0,.19-.13l.17-.14,0,0,.23-.3,0,0,.15-.35v-.05a1.91,1.91,0,0,0,0-.92,1,1,0,0,1,0-.16l.05.4a.41.41,0,0,1,0-.11l-2.26,1.3h0l-.31-.24s0,0,0,0l-.23-.3,0,.06-.15-.36a.94.94,0,0,1,0,.16,1.93,1.93,0,0,0,.45.77,1.67,1.67,0,0,0,1.57.44,1.38,1.38,0,0,0,.72-.46l.09-.1-.3.24a1.32,1.32,0,0,1,.2-.12H15l.25.17-.69-1.7-.09.27,1.45-1.1-.35,0a.72.72,0,0,0-.38.1.78.78,0,0,0-.33.19.87.87,0,0,0-.27.27,1.67,1.67,0,0,0-.12.16l-.05.07a1.16,1.16,0,0,0-.18.56,1.22,1.22,0,0,0,0,.6l.15.36a1.55,1.55,0,0,0,.54.54l.24.15-.31-2.36-.17.21h2.12l-.22-.18L16.33,21a1.33,1.33,0,0,0,.19-.14l.17-.13,0,0,.23-.3h0a1.08,1.08,0,0,0,.08-.19l.08-.18c0-.13.05-.54.05-.42h0l-.06-.4v0c0-.06-.08-.19-.08-.19a.81.81,0,0,0-.09-.19,2.7,2.7,0,0,0-.25-.34l-.08-.09a1.57,1.57,0,0,0-.66-.38,1,1,0,0,0-.6,0,1.16,1.16,0,0,0-.56.18,1.45,1.45,0,0,0-.53.54l-.18.27,1.29-.74-.35,0a1.06,1.06,0,0,0-.58.13,1.36,1.36,0,0,0-.79.79,1.06,1.06,0,0,0-.13.58l.05.39a1.47,1.47,0,0,0,.39.67l.3.23A1.45,1.45,0,0,0,15,21.19Z"/><path class="cls-1" d="M14.32,19.53l-.37.61h2.59l-.16-.22a1.45,1.45,0,0,0-.54-.53,1.12,1.12,0,0,0-.56-.18,1.08,1.08,0,0,0-.59,0,1.56,1.56,0,0,0-.67.39l-.25.31a1.47,1.47,0,0,0-.39.67,1.51,1.51,0,0,0,0,.79,1.47,1.47,0,0,0,.39.67,1.51,1.51,0,0,0,.66.38l.33.12-1-1s0,0,0,.06l-.06-.4a3.71,3.71,0,0,0,.06.54,1.55,1.55,0,0,0,.46.78,1.49,1.49,0,0,0,.66.39,1.22,1.22,0,0,0,.6,0,1.12,1.12,0,0,0,.56-.18,1.55,1.55,0,0,0,.54-.54,7.38,7.38,0,0,0,.4-.91A1.74,1.74,0,0,0,17,21a4.19,4.19,0,0,0,.09-.7,1.06,1.06,0,0,0-.13-.58,1.36,1.36,0,0,0-.79-.79,1.06,1.06,0,0,0-.58-.13l-.4.05a1.49,1.49,0,0,0-.66.39l-.23.3a1.48,1.48,0,0,0-.21.76,1.09,1.09,0,0,1,0,.18l.05-.4a2.43,2.43,0,0,1-.17.6l.15-.35c-.05.12-.11.24-.17.36l2.35-.31,0,0,.24.31,0,0,.15.36a.09.09,0,0,1,0-.05l.05.4s0-.08,0-.13a.76.76,0,0,0,0-.21,1.49,1.49,0,0,0,0-.21,0,0,0,0,1,0,0v0l-.15-.35-.23-.31a1.21,1.21,0,0,0-.49-.31l-.5-.19.66,2.51.26-.32-2.36-.3.16.21a1.55,1.55,0,0,0,.54.54,1.58,1.58,0,0,0,.76.21,1.5,1.5,0,0,0,1.29-.75l.37-.6a1.16,1.16,0,0,0,.18-.56,1.22,1.22,0,0,0,0-.6,1.72,1.72,0,0,0-.69-.9L16,18.84a1.55,1.55,0,0,0-.8,0l-.35.15A1.55,1.55,0,0,0,14.32,19.53Z"/><path class="cls-1" d="M13.41,20.94c.07.1.13.2.19.3l.12.16a.75.75,0,0,0,.27.26.7.7,0,0,0,.33.2.72.72,0,0,0,.38.1L15,22h.32a1.54,1.54,0,0,0,.76-.2,1.4,1.4,0,0,0,.54-.54l.15-.32a1.09,1.09,0,0,0,.18-.55,1,1,0,0,0,0-.6l-.15-.36a1.45,1.45,0,0,0-.53-.54l-.38-.24a1.54,1.54,0,0,0-1.52,0,1.74,1.74,0,0,0-.54.54,1.57,1.57,0,0,0-.2.76V20l0-.4a.06.06,0,0,1,0,0l.15-.35s0,0,0,0L14,19l0,0,.31-.24a.05.05,0,0,1,0,0l.36-.15-.09,0,.39-.05c-.18,0-.37,0-.55.08a1.13,1.13,0,0,0-.51.26,1.31,1.31,0,0,0-.39.42,1,1,0,0,0-.17.56,1.11,1.11,0,0,0,0,.6l.15.36a1.74,1.74,0,0,0,.54.54l.36.15a1.55,1.55,0,0,0,.8,0h.05l-.4.05.52-.07a1.35,1.35,0,0,0,.45-.17A1.64,1.64,0,0,0,16.55,20l-2.26,1.29.38.24-.54-2.05-.15.32L15.27,19H14.9l1.29.74L16,19.42a1.18,1.18,0,0,0-.38-.42,1.13,1.13,0,0,0-.51-.26,1,1,0,0,0-.6,0,1.12,1.12,0,0,0-.56.18l-.3.23a1.49,1.49,0,0,0-.39.66l0,.4A1.57,1.57,0,0,0,13.41,20.94Z"/><path class="cls-1" d="M16.4,22.22l0-.33a1.57,1.57,0,0,0-.2-.76,1.31,1.31,0,0,0-.39-.42,1.14,1.14,0,0,0-.51-.27,1.55,1.55,0,0,0-.8,0l-.3.07-.36.15a1.31,1.31,0,0,0-.42.39.78.78,0,0,0-.19.33,1.15,1.15,0,0,0-.13.58l0,.35a1.43,1.43,0,0,0,.21.76,1,1,0,0,0,.38.42,1.26,1.26,0,0,0,.51.27,1.55,1.55,0,0,0,.8,0l.26-.1a1,1,0,0,0,.51-.26A1.12,1.12,0,0,0,16.2,23a1.16,1.16,0,0,0,.18-.56,1.22,1.22,0,0,0,0-.6l-.15-.36a1.55,1.55,0,0,0-.54-.54l-.36-.15a1.51,1.51,0,0,0-.79,0l-.27.1,1.9,1.44,0-.35L15,23.41l.3-.07-1.9-1.45,0,.33a1.27,1.27,0,0,0,.13.58,1.24,1.24,0,0,0,.31.48,1.11,1.11,0,0,0,.49.31,1.14,1.14,0,0,0,.57.13l.4-.06a1.37,1.37,0,0,0,.66-.38l.24-.3A1.47,1.47,0,0,0,16.4,22.22Z"/><path class="cls-1" d="M16,20.55l-.19-.31a1.31,1.31,0,0,0-.39-.42,1.14,1.14,0,0,0-.51-.27l-.4-.05a1.57,1.57,0,0,0-.76.2l-.06.05h0l-.31.24,0,0c-.05.05-.1.14-.13.17a1.13,1.13,0,0,0-.14.18c0,.06-.06.16-.08.19a1.15,1.15,0,0,0-.07.19h0l-.05.4h0l.05.4s0,0,0,0a2.57,2.57,0,0,0,.17.39v0l.11.15a1.18,1.18,0,0,0,.42.38l.36.15.4.06h.13l.19,0a1.14,1.14,0,0,0,.58-.12,1.21,1.21,0,0,0,.48-.31,1.11,1.11,0,0,0,.31-.49,1.06,1.06,0,0,0,.13-.58l-.05-.39a1.47,1.47,0,0,0-.39-.67l-.3-.23a1.55,1.55,0,0,0-.76-.21l-.32,0,1.3.74,0,0,.15.36v0l0,.4v0l-.06.4a0,0,0,0,0,0,0l-.15.36,0,0-.23.3,0,0-.3.23.09-.05-2-.54.19.3a1,1,0,0,0,.38.42,1.26,1.26,0,0,0,.51.27,1.22,1.22,0,0,0,.6,0,1.12,1.12,0,0,0,.56-.18l.3-.23a1.47,1.47,0,0,0,.39-.67l.05-.4A1.5,1.5,0,0,0,16,20.55Z"/><path class="cls-1" d="M14.5,19.93l-.39.16h0l0,0a2.51,2.51,0,0,0-.32.25l0,0a3.81,3.81,0,0,0-.24.32l0,0-.07.18-.08.18h0v0c0,.14,0,.28,0,.42v0a1.74,1.74,0,0,0,.06.45.43.43,0,0,1,0,.05,1.26,1.26,0,0,0,.27.51A1.18,1.18,0,0,0,14,23l.36.16a1.55,1.55,0,0,0,.8,0l.33-.06a1.54,1.54,0,0,0,1.05-1,1.55,1.55,0,0,0,0-.8,1.49,1.49,0,0,0-.39-.66L16,20.31a1.11,1.11,0,0,0-.49-.31,1.15,1.15,0,0,0-.58-.13,1.14,1.14,0,0,0-.57.13,1.11,1.11,0,0,0-.49.31l-.23.3a1.58,1.58,0,0,0-.21.76l.06.4a1.51,1.51,0,0,0,.38.66l.19.24.66-2.5-.33,0,1.85,1.05s0-.05,0-.08l.06.4a0,0,0,0,1,0-.05l-.06.4a.06.06,0,0,0,0,0l-.15.36s0,0,0,0l-.23.3,0,0-.3.23a.19.19,0,0,1,.09,0l-.36.15h0a1.14,1.14,0,0,0,.51-.27,1.34,1.34,0,0,0,.57-1,1.22,1.22,0,0,0,0-.6l-.15-.36a1.45,1.45,0,0,0-.54-.53l-.36-.15A1.33,1.33,0,0,0,14.5,19.93Z"/><path class="cls-1" d="M16.23,22.66l0-.21,0-.21s0,0,0,0v0a2,2,0,0,0-.07-.19S16,21.86,16,21.8v0h0l-.24-.3h0l-.31-.24h0L15,21h0l-.4-.05h-.06l-.4.05h0l-.18.07-.18.08h0l-.31.23h0l-.23.3h0v0l0,.06.24-.3h0A1.24,1.24,0,0,0,13,22a1.29,1.29,0,0,0-.13.58L13,23a1.51,1.51,0,0,0,.38.66l.07.06.31.24h0l.36.15h0l.4.05h0l.2,0a1.08,1.08,0,0,0,.58-.13,1.14,1.14,0,0,0,.48-.31,1.11,1.11,0,0,0,.31-.48,1.15,1.15,0,0,0,.13-.58l-.06-.4a1.57,1.57,0,0,0-.38-.66l-.31-.23a1.42,1.42,0,0,0-.75-.21.81.81,0,0,1-.22,0l.4.06h0l.36.15h0l.3.23-.07-.06v2.12a3.65,3.65,0,0,0,.24-.31h0l0,0,0,0-.24.31s0,0,0,0l-.3.24h0l-.36.15h0l-.4.06h.06l-.4-.06h.05l-.36-.15,0,0-.31-.23,0,0-.24-.3,0,0L13.26,23a.29.29,0,0,1,0,.09l0-.4h0a1.06,1.06,0,0,0,.13.58,1.36,1.36,0,0,0,.79.79,1.06,1.06,0,0,0,.58.13l.4-.05a1.49,1.49,0,0,0,.66-.39l.23-.3A1.45,1.45,0,0,0,16.23,22.66Z"/><path class="cls-1" d="M26.69,1.56A19.93,19.93,0,0,0,17.38,6.4a32.83,32.83,0,0,0-5.3,6,50.24,50.24,0,0,0-5.2,9.24A44.42,44.42,0,0,0,4.6,28.17,18.82,18.82,0,0,0,4,32.46a10.6,10.6,0,0,0,1.36,5.7,6.31,6.31,0,0,0,2.22,2.31,5.33,5.33,0,0,0,2.63.77,8.85,8.85,0,0,0,2.85-.4l1.6-.47a.37.37,0,0,1,.21,0l-.37.21A10.66,10.66,0,0,1,11,41.82a10.12,10.12,0,0,1-3.8,0A6.33,6.33,0,0,1,3.33,39.2a9.88,9.88,0,0,1-1.6-3.93,15.33,15.33,0,0,1,0-5.61A33.08,33.08,0,0,1,4,22.54a43.78,43.78,0,0,1,4.64-8.43A36.8,36.8,0,0,1,19.23,4.05a19.8,19.8,0,0,1,4-2,10.2,10.2,0,0,1,3-.56h.39Z"/><path class="cls-1" d="M26.29.12c-8,1.68-13.77,8.28-17.8,15a49.84,49.84,0,0,0-5,11.49c-1.15,4-1.6,8.55.6,12.27a7.7,7.7,0,0,0,4.39,3.55,7.85,7.85,0,0,0,3.2.19,12.39,12.39,0,0,0,1.61-.32,7.82,7.82,0,0,1,1.61-.48l-.76-2.79c-3,1.69-7.38,2.38-9.59-.81S2.87,30.47,4,26.88A40.32,40.32,0,0,1,15.69,8.52c3-2.6,6.88-5.52,11-5.52l-1.5-1.5v.06c.22,1.9,3.22,1.92,3,0V1.5A1.53,1.53,0,0,0,26.68,0C22.21,0,18.2,2.66,14.82,5.36a38.9,38.9,0,0,0-8.46,9.45A43.53,43.53,0,0,0,.71,27.43C-.41,31.77-.47,36.91,2.5,40.56c3.24,4,9.06,3.42,13.11,1.1a1.51,1.51,0,0,0-.75-2.8c-2.16,0-4,1.54-6.18.51-1.8-.84-2.72-2.92-3-4.77C4.82,30,6.92,25,8.81,21c3.58-7.69,9.46-16.12,18.28-18C29,2.62,28.18-.28,26.29.12Z"/><path class="cls-1" d="M26.89,4.22A5.81,5.81,0,0,1,32.38,5a5.3,5.3,0,0,1,1.83,2.82,10.63,10.63,0,0,1,.36,3.93,15.1,15.1,0,0,1-.85,4.15.92.92,0,0,1-.16.29c.06-.58.13-1.17.19-1.76a17.23,17.23,0,0,0,0-4.06A9.71,9.71,0,0,0,32.72,7a4.71,4.71,0,0,0-2.31-2,8.55,8.55,0,0,0-2.86-.68l-.55,0Z"/><path class="cls-1" d="M27.29,5.66a4.92,4.92,0,0,1,3.32,0,3.82,3.82,0,0,1,2,2,9.06,9.06,0,0,1,.49,3.82,13.76,13.76,0,0,1-.27,2,5.62,5.62,0,0,1-.56,1.88l2.8.75c.36-3.19.62-6.33-.77-9.34a6.33,6.33,0,0,0-2.72-2.95,9,9,0,0,0-2.16-.81c-.41-.09-.82-.15-1.23-.2l-.63-.07h-.18c-.35,0-.25,0,.28.12a1.5,1.5,0,0,0-1.51,2.59A4.59,4.59,0,0,0,28,5.85a6.86,6.86,0,0,1,1.67.44A3.5,3.5,0,0,1,31.7,8.35c1.09,2.46.65,5.26.36,7.83a1.51,1.51,0,0,0,1.1,1.45,1.56,1.56,0,0,0,1.69-.69,7.27,7.27,0,0,0,.86-2.59,18,18,0,0,0,.38-2.83,11.36,11.36,0,0,0-.93-5.4A6.61,6.61,0,0,0,31.5,2.81a7.88,7.88,0,0,0-5,0A1.5,1.5,0,0,0,27.29,5.66Z"/><path class="cls-1" d="M24.94,10.59l-1.18-.93-1.24,1c.14-.53.36-1,.5-1.44l-1.2-.85a12.08,12.08,0,0,1,1.48,0l.43-1.52h.05l.44,1.53,1.41-.07,0,0c-.38.29-.77.55-1.16.84L25,10.56Z"/><path class="cls-1" d="M26,9.53,24.82,8.6a1.56,1.56,0,0,0-1.06-.44l-.4.05a1.49,1.49,0,0,0-.66.39l-1.24,1L24,11c.13-.49.35-.95.49-1.44a1.41,1.41,0,0,0-.07-1,1.6,1.6,0,0,0-.62-.72L22.58,7l-.76,2.8a14.63,14.63,0,0,1,1.48,0,1.54,1.54,0,0,0,1.44-1.11l.44-1.52L23.73,8.36h.05l-1.44-1.1.43,1.52a1.54,1.54,0,0,0,1.45,1.11l1.41-.07-1.3-.75,0,.06.54-2c-.38.29-.78.55-1.16.84a1.62,1.62,0,0,0-.61.71,1.38,1.38,0,0,0-.08,1L23.54,11l.69-1.7-.05,0a1.58,1.58,0,0,0-.68.9,1.49,1.49,0,0,0,.15,1.15,1.51,1.51,0,0,0,2.05.54l.05,0a1.53,1.53,0,0,0,.61-.72,1.42,1.42,0,0,0,.08-1l-.5-1.36-.69,1.7c.39-.29.78-.55,1.16-.84a1.63,1.63,0,0,0,.69-.9A1.57,1.57,0,0,0,27,7.6l0,0a1.44,1.44,0,0,0-1.29-.74l-1.41.07L25.67,8l-.44-1.53a1.48,1.48,0,0,0-.54-.78,1.37,1.37,0,0,0-.91-.32h-.05a1.59,1.59,0,0,0-.91.32,1.46,1.46,0,0,0-.53.78L21.85,8l1.45-1.1a14.63,14.63,0,0,0-1.48,0,1.59,1.59,0,0,0-.91.32,1.46,1.46,0,0,0-.53.78,1.8,1.8,0,0,0,0,.8,1.52,1.52,0,0,0,.68.89l1.2.86L21.57,8.8c-.14.48-.36.94-.49,1.43a1.52,1.52,0,0,0,.69,1.69,1.49,1.49,0,0,0,1.82-.23l1.23-1H22.7l1.18.93a1.68,1.68,0,0,0,1.06.44A1.54,1.54,0,0,0,26,11.65a1.47,1.47,0,0,0,.44-1.06A1.4,1.4,0,0,0,26,9.53Z"/><path class="cls-1" d="M18.38,12l-.64.46,0,0,.21-.8-.33-.2-.33-.19v-.06h.84l.25-.77h.06l.16.77h.85l0,.06-.68.4.31.8,0,0Z"/><path class="cls-1" d="M17.62,10.74,17,11.2h1.51l0,0,.69,1.69.21-.8,0-.4a1.14,1.14,0,0,0-.12-.58.82.82,0,0,0-.2-.33,1,1,0,0,0-.42-.38c-.22-.14-.44-.26-.67-.39l.69,1.69v-.06l-1.44,1.1h.84l.4-.05A1.26,1.26,0,0,0,19,12.4a.87.87,0,0,0,.27-.27,1.26,1.26,0,0,0,.27-.51l.24-.78L18.34,12h.06L17,10.84l.17.77.15.35a1,1,0,0,0,.39.42.7.7,0,0,0,.33.2,1.25,1.25,0,0,0,.57.13h.85L18,11.61l0,.06L18.67,10l-.68.4-.3.23a1.27,1.27,0,0,0-.32.48.86.86,0,0,0-.1.38,1.22,1.22,0,0,0,0,.6l.31.8.69-1.7,0,0h1.51l-.64-.46a1.12,1.12,0,0,0-.56-.18,1.19,1.19,0,0,0-.59,0,1.5,1.5,0,0,0-1.05,1.84l.15.36a1.4,1.4,0,0,0,.54.54l.64.46A1.42,1.42,0,0,0,19,14a1.45,1.45,0,0,0,.76-.21l0,0,.31-.24a1.24,1.24,0,0,0,.31-.48.75.75,0,0,0,.1-.38,1.12,1.12,0,0,0,0-.6l-.31-.8L19.5,13l.69-.4.3-.24a1.08,1.08,0,0,0,.31-.48.72.72,0,0,0,.1-.38,1.11,1.11,0,0,0,0-.6l0-.06-.15-.36a1.13,1.13,0,0,0-.39-.42A.69.69,0,0,0,20,9.84a1.06,1.06,0,0,0-.58-.13h-.85L20,10.81l-.17-.76-.15-.36a1,1,0,0,0-.39-.42.7.7,0,0,0-.33-.2,1.25,1.25,0,0,0-.57-.13h-.06l-.4.05a1.05,1.05,0,0,0-.51.27.7.7,0,0,0-.27.27,1.14,1.14,0,0,0-.27.51l-.25.77,1.45-1.1h-.84l-.4,0a1.14,1.14,0,0,0-.51.27,1.43,1.43,0,0,0-.54.78v.06l0,.4a1.14,1.14,0,0,0,.12.58.7.7,0,0,0,.2.33,1.13,1.13,0,0,0,.42.39c.22.13.45.25.67.39l-.69-1.7-.22.81,0,.39a1.06,1.06,0,0,0,.13.58.69.69,0,0,0,.19.33,1.12,1.12,0,0,0,.42.39,3,3,0,0,0,.41.17,1.55,1.55,0,0,0,.8,0l.35-.15a1.7,1.7,0,0,0,.22-.15l.42-.31a1,1,0,0,0,.42-.39,1,1,0,0,0,.27-.51,1.18,1.18,0,0,0,0-.59,1.12,1.12,0,0,0-.18-.56,1.52,1.52,0,0,0-.9-.69A1.45,1.45,0,0,0,17.62,10.74Z"/><path class="cls-1" d="M27.7,13.77h.61l.2-.67.19.67h.7l0,.06-.54.39.21.53,0,0-.55-.37-.52.42c0-.16.05-.25.08-.33s0-.35-.15-.47-.15-.13-.23-.19Z"/><path class="cls-1" d="M27.7,15.27h.61l.4,0a1.14,1.14,0,0,0,.51-.27.87.87,0,0,0,.27-.27,1.26,1.26,0,0,0,.27-.51L30,13.5H27.06l.19.67.15.35a1.13,1.13,0,0,0,.39.42.7.7,0,0,0,.33.2,1.27,1.27,0,0,0,.58.13h.7L28,14.17l0,.06.69-1.7-.54.4-.3.23a1.11,1.11,0,0,0-.31.49.69.69,0,0,0-.1.37,1.11,1.11,0,0,0,0,.6l.21.53L28,13.69l0,0,1.82-.23-.55-.37L28.9,13a1.19,1.19,0,0,0-.59,0,.8.8,0,0,0-.38.1,1.21,1.21,0,0,0-.49.31l-.52.42,2.51,1.46a1.65,1.65,0,0,1,.07-.32l-.15.36a2.57,2.57,0,0,0,.21-.52,2.4,2.4,0,0,0,.05-.46,2.83,2.83,0,0,0-.06-.42s0,0,0,0-.12-.3-.16-.38l0,0a3.92,3.92,0,0,0-.25-.32l0,0a3.33,3.33,0,0,0-.46-.36l.31.24-.19-.16.39,1.46v-.07a1.22,1.22,0,0,0,0-.6,1.34,1.34,0,0,0-.57-1,1.14,1.14,0,0,0-.51-.27,1.54,1.54,0,0,0-1.15.15,1.51,1.51,0,0,0-.69.9l0,.07a1.55,1.55,0,0,0,0,.8,1.59,1.59,0,0,0,.39.66l.58.46-.3-.24.09.1-.23-.31,0,.06-.15-.36a.19.19,0,0,1,0,.08l-.05-.4v.06l.05-.4a.27.27,0,0,1,0,.12l.15-.36a3.47,3.47,0,0,0-.2.5c0,.07,0,.15,0,.22l-.06.4a1.17,1.17,0,0,0,.13.58.92.92,0,0,0,.19.33,1.13,1.13,0,0,0,.43.38l.35.15.4.06a1.15,1.15,0,0,0,.58-.13,1,1,0,0,0,.48-.31l.53-.41-1.82.23.55.37.35.15a1.22,1.22,0,0,0,.6,0,.84.84,0,0,0,.38-.11,1,1,0,0,0,.48-.31l0,0a1.57,1.57,0,0,0,.38-.66,1.55,1.55,0,0,0,0-.8l-.2-.52-.69,1.69.54-.4.3-.23a1.14,1.14,0,0,0,.31-.48.75.75,0,0,0,.1-.38,1,1,0,0,0,0-.6l0-.06L30.69,13a1,1,0,0,0-.39-.42A.69.69,0,0,0,30,12.4a1,1,0,0,0-.57-.13h-.7l1.45,1.1L30,12.7l-.15-.36a1,1,0,0,0-.38-.42.79.79,0,0,0-.33-.19,1.08,1.08,0,0,0-.58-.13l-.4.05-.36.15a1.21,1.21,0,0,0-.42.39,1.14,1.14,0,0,0-.27.51l-.2.67,1.45-1.1H27.7a1.06,1.06,0,0,0-.58.13,1,1,0,0,0-.48.31,1.08,1.08,0,0,0-.31.48,1.06,1.06,0,0,0-.13.58,1.46,1.46,0,0,0,.44,1.06A1.54,1.54,0,0,0,27.7,15.27Z"/><path class="cls-1" d="M28.31,9.94,28,9.67l-.43.29.13-.48-.48-.35.57,0,.2-.48.2.49h.49l0,.05-.43.32.11.43Z"/><path class="cls-1" d="M29.07,8.64l-.35-.27a1.5,1.5,0,0,0-.75-.2,1.54,1.54,0,0,0-.76.2l-.42.3L29,10.36l.13-.48.05-.4A1.15,1.15,0,0,0,29,8.9a.78.78,0,0,0-.19-.33,1.31,1.31,0,0,0-.42-.39L28,7.84l-.76,2.79.57,0,.4,0a1.14,1.14,0,0,0,.51-.27.87.87,0,0,0,.27-.27,1.26,1.26,0,0,0,.27-.51l.2-.49h-2.9l.2.5.15.36a1.12,1.12,0,0,0,.39.42.78.78,0,0,0,.33.19,1.15,1.15,0,0,0,.58.13h.49l-1.3-.74,0,.05.54-2-.43.31-.3.24a1,1,0,0,0-.31.48.84.84,0,0,0-.11.38,1.22,1.22,0,0,0,0,.6l.12.43.69-1.7-.05,0a1,1,0,0,0-.42.39,1,1,0,0,0-.27.51,1.19,1.19,0,0,0,0,.59,1.12,1.12,0,0,0,.18.56l.23.31a1.54,1.54,0,0,0,.67.38l.39.06a1.55,1.55,0,0,0,.76-.21l.05,0,.3-.23a1.14,1.14,0,0,0,.31-.48.76.76,0,0,0,.11-.38,1.22,1.22,0,0,0,0-.6l-.12-.43L29,10.77l.43-.31a1,1,0,0,0,.42-.39,1,1,0,0,0,.27-.51l.06-.4A1.51,1.51,0,0,0,30,8.41l0-.06a1.55,1.55,0,0,0-.54-.54,1.5,1.5,0,0,0-.75-.2h-.49l1.44,1.1-.19-.49-.16-.36a1,1,0,0,0-.38-.42.82.82,0,0,0-.33-.2A1.14,1.14,0,0,0,28,7.12l-.4,0-.36.15a1.12,1.12,0,0,0-.42.39,1.14,1.14,0,0,0-.27.51l-.19.48,1.44-1.1-.57,0-.4,0a1.26,1.26,0,0,0-.51.27.87.87,0,0,0-.27.27,1.13,1.13,0,0,0-.26.51l-.06.4.06.4A1.13,1.13,0,0,0,26,10a1.31,1.31,0,0,0,.42.39l.48.35-.69-1.7-.12.49L26,10l.06.4.15.36a1,1,0,0,0,.39.42.69.69,0,0,0,.33.19.7.7,0,0,0,.37.11.9.9,0,0,0,.4,0,1.12,1.12,0,0,0,.56-.18l.42-.3H27.21l.35.27a1.12,1.12,0,0,0,.55.18,1.22,1.22,0,0,0,.6,0,1,1,0,0,0,.51-.27,1,1,0,0,0,.39-.42l.15-.36a1.51,1.51,0,0,0,0-.79l-.15-.36A1.4,1.4,0,0,0,29.07,8.64Z"/><path class="cls-1" d="M19.93,13.39l.48-.06-.38.35.14.5-.42-.31-.41.28.11-.47-.38-.34.48,0,.2-.56Z"/><path class="cls-1" d="M19.93,14.89l.48-.06-1.06-2.56-.38.35a1.51,1.51,0,0,0-.39,1.46l.14.5,2.21-1.69-.42-.31a1.48,1.48,0,0,0-1.52,0l-.41.28,2.2,1.69.12-.47a1.55,1.55,0,0,0,0-.8,1.49,1.49,0,0,0-.39-.66l-.38-.34-1.06,2.56.48,0,.4-.05a1.15,1.15,0,0,0,.51-.27.62.62,0,0,0,.26-.27,1,1,0,0,0,.27-.51l.2-.56H18.3l.19.57a1.06,1.06,0,0,0,.27.51,1,1,0,0,0,.42.38,1.09,1.09,0,0,0,.55.18,1,1,0,0,0,.6,0l.36-.15a1.45,1.45,0,0,0,.54-.53l.15-.36a1.55,1.55,0,0,0,0-.8l-.19-.57L21,12.06a1.18,1.18,0,0,0-.38-.42.88.88,0,0,0-.34-.19,1.11,1.11,0,0,0-.57-.13l-.4,0-.36.16a1,1,0,0,0-.42.38,1.26,1.26,0,0,0-.27.51l-.2.57,1.45-1.11-.48,0-.4.05-.36.15-.3.24a1,1,0,0,0-.31.48.72.72,0,0,0-.1.38.68.68,0,0,0,0,.4.69.69,0,0,0,.1.37,1.11,1.11,0,0,0,.31.49l.38.34L18,13.28l-.11.47-.05.4.05.4.15.36a1.21,1.21,0,0,0,.39.42.69.69,0,0,0,.33.19.72.72,0,0,0,.38.1.68.68,0,0,0,.4,0,1,1,0,0,0,.55-.17l.42-.28H19l.42.31.36.15.4,0,.4,0a1.26,1.26,0,0,0,.51-.27.87.87,0,0,0,.27-.27.78.78,0,0,0,.19-.33.72.72,0,0,0,.1-.38,1.11,1.11,0,0,0,0-.6l-.14-.49-.39,1.45.39-.35.23-.31.15-.35.05-.4a1.14,1.14,0,0,0-.12-.58.7.7,0,0,0-.2-.33.7.7,0,0,0-.27-.27A.69.69,0,0,0,21,12a1.06,1.06,0,0,0-.58-.13l-.48.06a1,1,0,0,0-.57.13,1.34,1.34,0,0,0-.8.79,1.27,1.27,0,0,0-.13.58l.06.4a1.57,1.57,0,0,0,.38.66l.31.23A1.42,1.42,0,0,0,19.93,14.89Z"/><polygon class="cls-1" points="37.1 44.73 32.72 44.31 34.4 42.43 32.34 44.02 31.96 39.82 31.89 39.82 31.52 44.02 29.45 42.43 31.14 44.31 26.69 44.73 31.14 45.15 29.45 47.1 31.52 45.51 31.89 49.64 31.96 49.64 32.34 45.51 34.4 47.1 32.72 45.15 37.1 44.73"/><path class="cls-1" d="M37.1,43.23l-4.38-.42,1.06,2.57,1.68-1.89a1.51,1.51,0,0,0,.12-2,1.49,1.49,0,0,0-1.94-.39l-2.06,1.59L33.84,44l-.38-4.2a1.53,1.53,0,0,0-1.5-1.5H31.9a1.53,1.53,0,0,0-1.5,1.5L30,44l2.25-1.3-2.06-1.59a1.48,1.48,0,0,0-1.94.39,1.52,1.52,0,0,0,.12,2l1.69,1.89,1.06-2.57-4.45.42a1.55,1.55,0,0,0-1.5,1.5,1.52,1.52,0,0,0,1.5,1.5l4.45.42-1.06-2.56L28.39,46a1.52,1.52,0,0,0-.12,2,1.48,1.48,0,0,0,1.94.38l2.06-1.59L30,45.51l.38,4.13a1.52,1.52,0,0,0,1.5,1.5H32a1.54,1.54,0,0,0,1.5-1.5l.38-4.13L31.58,46.8l2.06,1.59A1.49,1.49,0,0,0,35.58,48a1.52,1.52,0,0,0-.12-2l-1.68-1.95-1.06,2.56,4.38-.42a1.54,1.54,0,0,0,1.5-1.5,1.51,1.51,0,0,0-1.5-1.5l-4.38.42a1.52,1.52,0,0,0-1.06,2.56l1.68,1.95,1.82-2.36-2.07-1.59a1.48,1.48,0,0,0-1.51,0,1.57,1.57,0,0,0-.74,1.3l-.38,4.13,1.5-1.5H31.9l1.5,1.5L33,45.51a1.58,1.58,0,0,0-.75-1.3,1.49,1.49,0,0,0-1.51,0L28.69,45.8l1.82,2.36,1.69-1.95a1.52,1.52,0,0,0-1.06-2.56l-4.45-.42v3l4.45-.42a1.52,1.52,0,0,0,1.06-2.56l-1.69-1.88-1.82,2.35,2.07,1.59a1.44,1.44,0,0,0,1.51,0A1.55,1.55,0,0,0,33,44l.38-4.2-1.5,1.5H32l-1.5-1.5.38,4.2a1.54,1.54,0,0,0,.74,1.29,1.44,1.44,0,0,0,1.51,0l2.07-1.59-1.82-2.35-1.68,1.88a1.52,1.52,0,0,0,1.06,2.56l4.38.42a1.5,1.5,0,0,0,1.5-1.5A1.54,1.54,0,0,0,37.1,43.23Z"/><path class="cls-1" d="M39.34,70.57c-.1,0-.14,0-.14-.14V64.74c0-.1,0-.13.14-.13H41.4c1,0,2.09.4,2.09,1.65a1.34,1.34,0,0,1-1,1.23h0a1.56,1.56,0,0,1,1.19,1.42c0,1.2-1,1.65-2.1,1.65Zm2.21-3.33c.74,0,1.26-.37,1.26-.92,0-.78-.57-1.13-1.45-1.13H39.88v2Zm0,2.75c1,0,1.46-.42,1.46-1.13a1.24,1.24,0,0,0-1.38-1.06H39.88V70Z"/><path class="cls-1" d="M39.34,69.07h-.06l.75.21,0,0,.54.53,0,0,.2.76c-.06-.65,0-1.33,0-2V65.44a6.43,6.43,0,0,1,0-.76l-.2.76,0,0-.54.54,0,0-.75.2a11,11,0,0,1,1.15,0c.37,0,.74,0,1.11,0h.2c.26,0-.43-.08-.05,0l.2.06c.06,0,.35.13.07,0s0,0,.06,0c.28.17-.09-.08-.09-.08l.1.09c.1.11.06.06-.11-.15l.11.18c-.1-.26-.13-.31-.07-.17s0,.1,0,.15c.07.24,0-.38,0-.09a1.09,1.09,0,0,1,0,.18c.05-.25.05-.31,0-.2-.08.33.16-.26,0-.05s.26-.25.07-.08.26-.15.06,0l-.16.09c-.29.17.32-.12.12,0A1.55,1.55,0,0,0,41,67.49h0A1.54,1.54,0,0,0,42.12,69l.14,0c-.46-.12-.29-.13-.14,0s.13.08.19.11-.31-.28-.06,0,.07.22-.07-.1l.07.11c.07.13,0,.08-.06-.17,0,0,0,.1,0,.14s0,.1,0-.16V69c0,.16,0,.11,0-.16a1,1,0,0,0-.07.25c0,.11.18-.38,0-.08s.29-.3,0,0,.25-.14,0,0l-.12.06c-.13.07-.08,0,.17-.06-.06,0-.13,0-.2.07l-.28.06c-.26.05.42,0,0,0-.83,0-1.68,0-2.51,0a1.5,1.5,0,0,0,0,3h2.27a4.06,4.06,0,0,0,2.64-.89,3,3,0,0,0,.85-3.05,3.2,3.2,0,0,0-2.19-2.07L44,67.5h0l-1.11,1.45A2.91,2.91,0,0,0,45,66.35a3,3,0,0,0-1.53-2.75,7.38,7.38,0,0,0-3.64-.49h-.46a1.65,1.65,0,0,0-1.65,1.64V70.4c0,.1,0,.2,0,.3a1.52,1.52,0,0,0,.59,1,1.89,1.89,0,0,0,1,.35,1.51,1.51,0,0,0,1.5-1.5A1.54,1.54,0,0,0,39.34,69.07Z"/><path class="cls-1" d="M41.55,68.74A2.79,2.79,0,0,0,44,67.49a2.62,2.62,0,0,0,.21-.45.75.75,0,0,0,.05-.16,2.8,2.8,0,0,0,.06-.71,2.62,2.62,0,0,0-.39-1.27A2.54,2.54,0,0,0,43,64a3.63,3.63,0,0,0-1.35-.34,7.69,7.69,0,0,0-.83,0h-.9a1.52,1.52,0,0,0-1.5,1.5v2a1.52,1.52,0,0,0,1.5,1.5h1.67a1.54,1.54,0,0,0,1.06-.44,1.47,1.47,0,0,0,.44-1.06,1.46,1.46,0,0,0-.44-1.06,1.54,1.54,0,0,0-1.06-.44H39.88l1.5,1.5v-2l-1.5,1.5h.87a8.06,8.06,0,0,1,1,0l-.4,0a1.85,1.85,0,0,1,.45.11l-.36-.15a2,2,0,0,1,.25.14l-.31-.23a1,1,0,0,1,.18.17l-.24-.31a1.13,1.13,0,0,1,.12.21l-.15-.35a1.29,1.29,0,0,1,.08.28l-.06-.4a.94.94,0,0,1,0,.29l.05-.4a.79.79,0,0,1-.06.22l.16-.36-.1.17.23-.31a.61.61,0,0,1-.16.16l.31-.23a1.23,1.23,0,0,1-.25.14l.36-.15a2.21,2.21,0,0,1-.42.12l.4-.06-.27,0a1.5,1.5,0,0,0-1.06,2.56A1.58,1.58,0,0,0,41.55,68.74Z"/><path class="cls-1" d="M41.56,71.49a3,3,0,0,0,2.32-.89,2.51,2.51,0,0,0,.5-.85,3.23,3.23,0,0,0,.13-.69,2.4,2.4,0,0,0-.31-1.38,2.61,2.61,0,0,0-1-1,3.36,3.36,0,0,0-1.53-.38H39.88a1.52,1.52,0,0,0-1.5,1.5V70a1.52,1.52,0,0,0,1.5,1.5h1.68a1.54,1.54,0,0,0,1.06-.44,1.5,1.5,0,0,0-1.06-2.56H39.88l1.5,1.5V67.8l-1.5,1.5h1a9,9,0,0,1,1,0l-.4-.06a1.69,1.69,0,0,1,.44.12l-.36-.15a1.64,1.64,0,0,1,.29.16l-.3-.23a1.14,1.14,0,0,1,.22.22l-.24-.31a1,1,0,0,1,.13.22l-.15-.35a1.05,1.05,0,0,1,.06.21l-.06-.4a1.61,1.61,0,0,1,0,.31l.05-.4a1.32,1.32,0,0,1-.08.3l.15-.35a1,1,0,0,1-.1.17l.23-.3a.91.91,0,0,1-.17.17l.31-.24a1.35,1.35,0,0,1-.26.15l.36-.15a1.89,1.89,0,0,1-.41.1l.4-.05a3.11,3.11,0,0,1-.43,0,1.5,1.5,0,0,0,0,3Z"/><path class="cls-1" d="M54.29,70.43c0,.08,0,.14-.08.14h-.5c-.08,0-.12,0-.17-.14L52.88,69h-3l-.67,1.45c-.05.1-.08.14-.18.14h-.49c-.08,0-.11-.06-.08-.14l2.78-5.85c0-.07.06-.12.11-.12h0c.05,0,.07.05.11.12Zm-2.9-4.8L50.14,68.4h2.51L51.4,65.63Z"/><path class="cls-1" d="M52.84,70.83l0,.07L53,69.74l0,.05.89-.69c.41-.11.41,0,.22,0h-.43l.75.21c.44.23.52.61.34.22L54.52,69l-.35-.75a1.46,1.46,0,0,0-1.29-.75h-3a1.48,1.48,0,0,0-1.3.75l-.34.75-.23.49-.07.15c-.09.24-.19-.06.4-.35l.75-.21h-.44c-.19,0-.15-.08.23,0l.89.69,0-.05.15,1.16c0,.22-.19.39-.12.25l.06-.13.2-.42.67-1.42L52.24,66a4.37,4.37,0,0,1,.39-.78l-.89.68c-.35,0-.46,0-.34,0l-.75-.2.05,0-.54-.54c.37.66.66,1.37,1,2l1.5,3.16.36.74a1.51,1.51,0,0,0,2,.54,1.55,1.55,0,0,0,.54-2.06l-1.4-2.92c-.46-1-.88-2-1.39-2.92a1.6,1.6,0,0,0-2.83,0c-.06.11-.11.23-.17.34L49,65.83l-1.74,3.66a1.8,1.8,0,0,0-.09,1.77,1.69,1.69,0,0,0,1.54.81,2.27,2.27,0,0,0,1.15-.21c.72-.41,1-1.41,1.32-2.12l-1.29.74h3l-1.3-.74c.22.47.42.94.64,1.4a1.76,1.76,0,0,0,1.66.93,4.84,4.84,0,0,0,.53,0,1.64,1.64,0,0,0,1.16-.73A1.73,1.73,0,0,0,55.74,70a1.52,1.52,0,0,0-1.85-1A1.56,1.56,0,0,0,52.84,70.83Z"/><path class="cls-1" d="M50.09,64.87,49,67.3l-.16.35a1.5,1.5,0,0,0,1.3,2.25h2.51a1.48,1.48,0,0,0,1.29-.74,1.46,1.46,0,0,0,0-1.51l-1.09-2.43-.16-.35a1.55,1.55,0,0,0-.54-.54,1.5,1.5,0,0,0-.75-.2h0a1.54,1.54,0,0,0-1.06.44,1.52,1.52,0,0,0-.44,1.06,1.46,1.46,0,0,0,.44,1.06,1.54,1.54,0,0,0,1.06.44h0l-1.3-.74,1.1,2.42.15.35,1.3-2.26H50.14l1.29,2.26,1.1-2.43.15-.34a1.16,1.16,0,0,0,.18-.56,1,1,0,0,0,0-.6,1.51,1.51,0,0,0-.69-.9A1.54,1.54,0,0,0,51,64.18,1.49,1.49,0,0,0,50.09,64.87Z"/><path class="cls-1" d="M60.22,70.43c0,.1,0,.14-.14.14h-.4c-.1,0-.14,0-.14-.14V64.56c0-.06,0-.06.08-.06h0a.11.11,0,0,1,.11.06l4,4.73V64.74c0-.11,0-.13.14-.13h.41c.1,0,.12,0,.12.13v5.87c0,.06,0,.07-.06.07h0s-.07,0-.12-.07l-4-4.76Z"/><path class="cls-1" d="M58.72,70.43v.07l.2-.76,0,0,.54-.54,0,0,.75-.21a2.26,2.26,0,0,1-.52,0l.75.21,0,0,.54.54,0,0,.2.76a19.07,19.07,0,0,1,0-2V64.77c0-.18.05-.49,0,.15l-.39.66,0,0L59.57,66c.17,0,.11,0-.24,0l-.67-.39c.16.15.29.33.43.49L60,67.19l2.15,2.56.5.6a1.49,1.49,0,0,0,1.64.31,1.51,1.51,0,0,0,.92-1.37V67a22.24,22.24,0,0,1,0-2.31l-.21.75,0,0-.54.54,0,0-.76.2a4.86,4.86,0,0,1,.54,0l-.76-.2,0,0-.54-.54,0,0-.2-.75c.05.66,0,1.34,0,2v3.73c0,.24-.08.32,0-.14l1-1a1.26,1.26,0,0,1,.64,0l.66.38a3,3,0,0,1-.43-.5L63.93,68l-2.15-2.59-.5-.6a1.51,1.51,0,0,0-2.56,1.06v4.58a1.51,1.51,0,0,0,1.5,1.5,1.53,1.53,0,0,0,1.5-1.5V65.85l-2.56,1.06,3.63,4.37.29.34a1.72,1.72,0,0,0,1.72.49,1.49,1.49,0,0,0,1-1,4,4,0,0,0,.06-1V65.56c0-.26,0-.53,0-.79a1.59,1.59,0,0,0-1.36-1.63,2.53,2.53,0,0,0-1.31.1,1.64,1.64,0,0,0-1,1.54v4.51l2.56-1.06L61,63.68l-.15-.18a1.62,1.62,0,0,0-2.77.87,7.8,7.8,0,0,0,0,1v3.74c0,.43,0,.87,0,1.3a1.67,1.67,0,0,0,1.65,1.69h.39a1.7,1.7,0,0,0,1.17-.47,1.93,1.93,0,0,0,.47-1.17,1.51,1.51,0,0,0-1.5-1.5A1.54,1.54,0,0,0,58.72,70.43Z"/><path class="cls-1" d="M70.66,67.59A2.47,2.47,0,0,0,73,70.08a2.69,2.69,0,0,0,1.76-.65V68.05H73.13c-.09,0-.12,0-.12-.13V67.6c0-.11,0-.14.12-.14H75.3c.11,0,.14,0,.14.14v1.88a.36.36,0,0,1-.14.3,3.35,3.35,0,0,1-2.29.9,3.09,3.09,0,0,1,0-6.18,3.31,3.31,0,0,1,2.23.87c.07.07.06.11,0,.18l-.26.28a.12.12,0,0,1-.1,0,.11.11,0,0,1-.09,0A2.66,2.66,0,0,0,73,65.09,2.47,2.47,0,0,0,70.66,67.59Z"/><path class="cls-1" d="M69.16,67.59a4.1,4.1,0,0,0,1.26,2.93,3.89,3.89,0,0,0,3.4,1,3.81,3.81,0,0,0,1.45-.58,2,2,0,0,0,.94-1.09,1.63,1.63,0,0,0,.06-.52V68.05a1.52,1.52,0,0,0-1.5-1.5c-.56,0-1.14,0-1.7,0l.76.21,0,0,.54.53,0,0,.2.75a3.38,3.38,0,0,1,0-.45l-.2.76,0,0-.54.53,0,0-.76.21a11,11,0,0,1,1.15,0,8.81,8.81,0,0,1,1.15,0l-.75-.21,0,0-.54-.54,0,0-.2-.76c0,.59,0,1.19,0,1.78,0,.39-.08,0,.16-.39,0,0,.24-.35.08-.13s.21-.14,0,0l-.46.27c-.12.06-.16,0,.09,0l-.18.07a4.21,4.21,0,0,1-.48.12l.1,0-.24,0h-.22c-.15,0-.3-.09.06,0-.12,0-.24,0-.36-.09a1.59,1.59,0,0,0-.2-.07s.35.17.14.06l-.36-.2a1.13,1.13,0,0,0-.13-.1c.29.14.18.15.05,0a3.83,3.83,0,0,1-.28-.29c-.1-.12,0-.1.09.11l-.09-.14c-.07-.1-.12-.26-.2-.36.16.19.1.27,0,.13s0-.16-.07-.24a1.17,1.17,0,0,1-.05-.2c0-.17,0-.21,0,.1a2.61,2.61,0,0,0,0-.39,1.48,1.48,0,0,0,0-.21c0-.12.08-.21,0,.14,0-.15.07-.3.11-.45a1.46,1.46,0,0,0,.07-.19s-.16.33,0,.13l.19-.32c.07-.12.19-.18-.07.07a.58.58,0,0,0,.1-.12c.1-.12.23-.21.32-.32s-.32.22-.07.06l.2-.13.14-.08.15-.07-.21.09a2.64,2.64,0,0,0,.48-.14c.11,0,.25,0-.15,0l.26,0h.39l-.14,0,.55.15c.16,0,0,.1-.08,0,0,0,.21.1.27.14l.21.13L74,66.3c.12.11.11.07,0-.11l-.21-.76v.06l.2-.76s.28-.32.15-.19l-.09.09c-.28.31-.09-.06.43-.19h.8s.73.46.41.19l-.41-.32a2.77,2.77,0,0,0-.37-.22,4,4,0,0,0-1.13-.41,3.86,3.86,0,0,0-2.52.36,4.1,4.1,0,0,0-2.09,3.55,1.52,1.52,0,0,0,1.5,1.5,1.54,1.54,0,0,0,1.5-1.5,2.18,2.18,0,0,0,0-.25c0,.33,0,.26,0,.07s0-.11,0-.16.17-.22,0,0c.08-.1.13-.25.2-.36s-.24.26,0,0,.15-.16.23-.23.15,0-.12.08c.07,0,.14-.1.21-.14l.18-.09c.15-.1-.37.11-.09,0l.24-.06c.29-.07-.31,0-.11,0h.24c.17,0,.14,0-.09,0l.2,0,.19.06-.17-.08.18.09.25.15c.22.13-.08,0-.09-.07s.57.44.43.35a1.51,1.51,0,0,0,.45.2A1.62,1.62,0,0,0,76,66.89a3.89,3.89,0,0,0,.38-.43,1.64,1.64,0,0,0-.34-2.35,4.74,4.74,0,0,0-5.25-.54,4.61,4.61,0,0,0,.07,8.07,4.79,4.79,0,0,0,5.12-.5,2.12,2.12,0,0,0,.93-1.59V67.61A1.62,1.62,0,0,0,75.37,66c-.27,0-.54,0-.82,0H73.24a1.85,1.85,0,0,0-1.27.47,1.83,1.83,0,0,0-.46,1.49,1.63,1.63,0,0,0,1.64,1.63h1.62l-1.5-1.5v1.38l.44-1.06.11-.09a.71.71,0,0,1-.14.1l-.22.12c-.14.07-.11.06.11,0l-.17.06a1.91,1.91,0,0,0-.28.07c.24,0,.27,0,.1,0h-.38l.22,0a1.14,1.14,0,0,0-.33-.08c-.27-.07.33.17,0,0-.08,0-.18-.14-.25-.15l.1.08-.09-.09a1.34,1.34,0,0,0-.2-.21c.15.19.18.23.09.1a.41.41,0,0,1-.07-.11c0-.07-.08-.19-.14-.26.09.23.11.28.06.13a.56.56,0,0,1,0-.12,2.46,2.46,0,0,0-.07-.29c0,.26,0,.31,0,.15v-.17a1.5,1.5,0,0,0-3,0Z"/><path class="cls-1" d="M84.69,70c.1,0,.13,0,.13.14v.31c0,.1,0,.14-.13.14H81.22c-.1,0-.13,0-.13-.14V64.74c0-.1,0-.13.13-.13h.4c.1,0,.14,0,.14.13V70Z"/><path class="cls-1" d="M84.69,71.48h.06L84,71.28l0,0-.54-.54,0,0-.2-.76a3.38,3.38,0,0,1,0,.45l.2-.76,0,0,.54-.54,0,0,.76-.21c-.59.06-1.21,0-1.8,0a17.8,17.8,0,0,1-1.79,0l.75.21,0,0,.54.54,0,0,.2.76a18.68,18.68,0,0,1,0-2V65.44c0-.25,0-.51,0-.76l-.2.76,0,0-.54.54,0,0-.75.2a4.68,4.68,0,0,1,.53,0l-.76-.2,0,0-.54-.54,0,0-.21-.76a15.44,15.44,0,0,1,0,1.8V70a1.52,1.52,0,0,0,1.5,1.5h2.93a1.5,1.5,0,0,0,0-3H81.76l1.5,1.5V66.26c0-.5,0-1,0-1.49a1.69,1.69,0,0,0-.47-1.19,1.89,1.89,0,0,0-1.4-.47,1.83,1.83,0,0,0-1.34.47,1.69,1.69,0,0,0-.46,1.19c0,1.29,0,2.6,0,3.89,0,.56,0,1.12,0,1.68a1.65,1.65,0,0,0,1.63,1.73h3a2.35,2.35,0,0,0,1.32-.24,1.8,1.8,0,0,0,.77-1.66,1.76,1.76,0,0,0-.24-.92,1.7,1.7,0,0,0-1.39-.77,1.5,1.5,0,0,0-1.06.44A1.52,1.52,0,0,0,83.19,70,1.54,1.54,0,0,0,84.69,71.48Z"/><path class="cls-1" d="M95.3,70.43c0,.08,0,.14-.08.14h-.5c-.08,0-.11,0-.17-.14L93.89,69h-3l-.67,1.45c0,.1-.08.14-.17.14h-.5c-.08,0-.11-.06-.08-.14l2.78-5.85c0-.07.06-.12.11-.12h0s.06.05.1.12Zm-2.9-4.8L91.15,68.4h2.51l-1.25-2.77Z"/><path class="cls-1" d="M93.86,70.83v.07L94,69.74l0,.05.9-.69c.4-.11.4,0,.22,0h-.44l.76.21c.43.23.51.61.33.22L95.53,69l-.34-.75a1.49,1.49,0,0,0-1.3-.75h-3a1.49,1.49,0,0,0-1.3.75l-.34.75-.23.49-.07.15c-.09.23-.19-.05.4-.35l.76-.21h-.45c-.19,0-.15-.08.23,0l.9.69,0-.05.15,1.16c0,.21-.19.39-.12.25l.06-.13.2-.42.67-1.42L93.25,66a4.37,4.37,0,0,1,.39-.78l-.89.68c-.35,0-.46,0-.33,0l-.76-.2,0,0-.53-.54c.36.66.65,1.37,1,2l1.51,3.16.35.74a1.51,1.51,0,0,0,2,.54,1.55,1.55,0,0,0,.54-2.06l-1.39-2.92c-.47-1-.89-2-1.4-2.92a1.6,1.6,0,0,0-2.83,0c-.06.11-.11.23-.16.34L90,65.83,88.3,69.49a1.78,1.78,0,0,0-.1,1.77,1.7,1.7,0,0,0,1.54.81,2.27,2.27,0,0,0,1.15-.21c.72-.41,1-1.41,1.32-2.12l-1.29.74h3l-1.3-.74c.22.47.42.94.65,1.4a1.75,1.75,0,0,0,1.65.93,4.71,4.71,0,0,0,.53,0,1.62,1.62,0,0,0,1.16-.73A1.68,1.68,0,0,0,96.75,70a1.52,1.52,0,0,0-1.85-1A1.54,1.54,0,0,0,93.86,70.83Z"/><path class="cls-1" d="M91.1,64.87,90,67.3l-.16.35a1.5,1.5,0,0,0,1.3,2.25h2.51A1.48,1.48,0,0,0,95,69.16a1.46,1.46,0,0,0,0-1.51l-1.09-2.43-.16-.35a1.61,1.61,0,0,0-.53-.54,1.57,1.57,0,0,0-.76-.2h0a1.56,1.56,0,0,0-1.06.44,1.52,1.52,0,0,0-.44,1.06,1.5,1.5,0,0,0,.44,1.06,1.54,1.54,0,0,0,1.06.44h0l-1.3-.74,1.1,2.42.15.35,1.3-2.26H91.15l1.29,2.26,1.1-2.43.16-.34a1.26,1.26,0,0,0,.17-.56,1.11,1.11,0,0,0,0-.6,1.59,1.59,0,0,0-.69-.9A1.56,1.56,0,0,0,92,64.18,1.49,1.49,0,0,0,91.1,64.87Z"/><path class="cls-1" d="M102.75,64.61a3,3,0,0,1,0,6h-2.08c-.1,0-.14,0-.14-.14V64.74c0-.1,0-.13.14-.13Zm-1.55.58V70h1.54a2.4,2.4,0,0,0,0-4.8Z"/><path class="cls-1" d="M102.75,66.11a1.2,1.2,0,0,1,.33,0s-.41-.07-.17,0l.16,0,.26.08.14.05c.17.06-.33-.17-.11,0l.26.14.12.09c.11.07.05.12-.13-.1,0,.06.13.11.19.17l.1.11c.17.17,0,0-.07-.1s.12.16.17.25a2.15,2.15,0,0,0,.14.26s-.12-.32-.08-.18a1.21,1.21,0,0,1,0,.14,2.14,2.14,0,0,1,.09.34.5.5,0,0,1,0,.16s0-.41,0-.16a2.81,2.81,0,0,1,0,.29c0,.06,0,.46,0,.17s0,.12,0,.19l-.09.29c-.08.24.16-.32,0,0a2.2,2.2,0,0,1-.15.26.91.91,0,0,0-.08.13c-.08.13.25-.29.07-.1l-.21.21-.08.07c-.12.14.28-.19.13-.09l-.25.16c-.14.08-.44.15,0,0-.19,0-.37.12-.56.16-.34.08.36,0,0,0h-.77a13.87,13.87,0,0,1-1.58,0l.75.21,0,0,.54.54,0,0,.21.76a4.14,4.14,0,0,1,0-.61V65.44a6.43,6.43,0,0,1,0-.76l-.21.76,0,0-.53.54,0,0-.76.2c.36,0,.73,0,1.08,0h1.07a1.5,1.5,0,0,0,0-3h-2a1.68,1.68,0,0,0-1.44.77A1.86,1.86,0,0,0,99,64.94v4c0,.49,0,1,0,1.45a1.67,1.67,0,0,0,1.64,1.72h.64a15.39,15.39,0,0,0,2.25-.08,4.35,4.35,0,0,0,3.07-2.14,4.68,4.68,0,0,0,0-4.56,4.51,4.51,0,0,0-3.86-2.18,1.5,1.5,0,0,0,0,3Z"/><path class="cls-1" d="M99.7,65.19V70a1.52,1.52,0,0,0,1.5,1.5h1.51A3.8,3.8,0,0,0,106,69.68a4.2,4.2,0,0,0,.14-3.94,3.76,3.76,0,0,0-3.29-2c-.53,0-1.07,0-1.61,0a1.5,1.5,0,1,0,0,3,14.72,14.72,0,0,1,1.88,0l-.4,0a2.12,2.12,0,0,1,.55.14l-.36-.15a2.11,2.11,0,0,1,.52.31l-.3-.24a2.65,2.65,0,0,1,.37.38l-.23-.3a2.62,2.62,0,0,1,.3.51l-.15-.35a2.41,2.41,0,0,1,.18.65l0-.4a3.22,3.22,0,0,1,0,.76l0-.4a2.94,2.94,0,0,1-.16.6l.15-.35a2.53,2.53,0,0,1-.34.57l.24-.3a2.79,2.79,0,0,1-.39.38l.3-.23a2.78,2.78,0,0,1-.47.28l.36-.16a2.36,2.36,0,0,1-.56.16l.4-.06a14.9,14.9,0,0,1-1.89,0l1.5,1.5v-4.8a1.5,1.5,0,0,0-3,0Z"/><path class="cls-1" d="M111.31,70.57c-.1,0-.14,0-.14-.14V64.74c0-.1,0-.13.14-.13h3.79c.09,0,.13,0,.13.13v.32c0,.1,0,.13-.13.13h-3.25v2.07h3.09c.11,0,.14,0,.14.14v.31c0,.11,0,.14-.14.14h-3.09V70h3.25c.1,0,.13,0,.13.14v.31c0,.1,0,.14-.13.14Z"/><path class="cls-1" d="M111.31,69.07h-.06l.75.21,0,0,.54.54,0,0,.2.76a18.68,18.68,0,0,1,0-2V65.44a6.43,6.43,0,0,1,0-.76l-.2.76,0,0-.54.54,0,0-.75.2c.63-.06,1.31,0,2,0a18.31,18.31,0,0,1,2,0l-.76-.2,0,0-.54-.54,0,0-.2-.76a3.23,3.23,0,0,1,0,.44l.2-.75,0,0,.54-.54,0,0,.76-.2a15.32,15.32,0,0,1-1.66,0h-1.65a1.52,1.52,0,0,0-1.5,1.5v2.07a1.52,1.52,0,0,0,1.5,1.5h1.58c.52,0,1.06,0,1.58,0l-.76-.2,0,0-.53-.54,0,0-.21-.75a1.62,1.62,0,0,1,0,.44l.21-.76,0,0,.53-.53,0,0,.76-.21a13.88,13.88,0,0,1-1.58,0h-1.58a1.52,1.52,0,0,0-1.5,1.5V70a1.52,1.52,0,0,0,1.5,1.5h1.65a15.31,15.31,0,0,1,1.66,0l-.76-.21,0,0-.53-.54,0,0-.21-.76a3.38,3.38,0,0,1,0,.45l.21-.76,0,0,.53-.54,0,0,.76-.21a17.74,17.74,0,0,1-1.93,0h-1.92a1.51,1.51,0,0,0-1.5,1.5,1.53,1.53,0,0,0,1.5,1.5h3.52a2,2,0,0,0,1.28-.35,2,2,0,0,0-.17-3,4.78,4.78,0,0,0-2.23-.22h-1.86l1.5,1.5V67.85l-1.5,1.5c1,0,2,0,3,0a1.65,1.65,0,0,0,1.69-1.68,2.52,2.52,0,0,0-.06-.73,1.63,1.63,0,0,0-1.58-1.18c-.48,0-1,0-1.46,0h-1.63l1.5,1.5V65.19l-1.5,1.5H115a1.63,1.63,0,0,0,1.73-1.37,3.52,3.52,0,0,0,0-.56,1.62,1.62,0,0,0-1.37-1.62,10.6,10.6,0,0,0-1.38,0h-2.6a1.65,1.65,0,0,0-1.71,1.63c0,1,0,1.94,0,2.91v2.78a1.71,1.71,0,0,0,.36,1,1.67,1.67,0,0,0,1.28.62,1.51,1.51,0,0,0,1.5-1.5A1.54,1.54,0,0,0,111.31,69.07Z"/><path class="cls-1" d="M121.24,66.28c0,.69.79.87,1.72,1,1.1.15,2,.49,2,1.63,0,.91-.71,1.76-2.17,1.76a3.89,3.89,0,0,1-2.3-.65c-.09-.06-.09-.1,0-.19l.16-.27c0-.06.06-.09.1-.09l.09,0a3.43,3.43,0,0,0,1.89.57c.79,0,1.6-.25,1.6-1.14,0-.7-.63-.93-1.75-1.09-.93-.12-2-.4-2-1.54a1.9,1.9,0,0,1,2.15-1.78,3.73,3.73,0,0,1,2.09.65c.09,0,.08.1,0,.19l-.16.26c0,.06-.07.1-.11.1s0,0-.08,0a3,3,0,0,0-1.7-.56C121.52,65.11,121.24,65.83,121.24,66.28Z"/><path class="cls-1" d="M119.74,66.28a2.29,2.29,0,0,0,1.1,1.92,3.82,3.82,0,0,0,1.53.49l.5.07-.14,0,.33.06.31.08c.15,0,.37.21,0,0l.25.13c.22.12-.32-.26,0,0s-.24-.34,0,0-.14-.4,0,0c0,.15,0,.09,0-.17a1,1,0,0,1,0,.17c0,.19-.11.33,0-.09l-.06.25c-.07.22.2-.38,0-.07s.21-.22,0,0l-.2.19c.31-.31.15-.13,0,0s.38-.12,0,0a1.14,1.14,0,0,0-.33.08c.25,0,.29,0,.12,0h-.71s-.72-.21-.74-.2c.21.1.25.11.1,0l-.16-.08-.17-.1c-.23-.15-.12,0,.32.36l.2.76v-.05l-.21.76a2.65,2.65,0,0,1,.24-.4l-.9.69.06,0h-.8c-.34-.07-.33-.16-.14,0l.22.12c.22.11.45.21.68.3a5.6,5.6,0,0,0,1.28.26,3.8,3.8,0,0,0,2.1-.38,2.47,2.47,0,0,0,.27-4.21,4.18,4.18,0,0,0-1.68-.56,5.09,5.09,0,0,1-.68-.12,2,2,0,0,1-.35-.1l-.14-.05c.42.13.22.1.1,0-.33-.18.27.23,0,0-.09-.08,0-.19.11.15a.75.75,0,0,0-.09-.15c-.11-.13.13.39.06.13s0-.16,0,.17v-.31c0-.17-.09.45,0,.24,0,0,0-.07,0-.1s.13-.35,0-.06,0,0,0-.06.15-.22,0,0,0,0,0,0a1,1,0,0,0,.11-.1c-.22.26-.25.17-.1.08l.12-.07c.25-.13,0,0-.09,0a.82.82,0,0,0,.19-.06l.12,0-.15,0c.16,0,.34,0,.49,0H123c.32,0-.34-.07,0,0a3.64,3.64,0,0,1,.47.14c.11,0,.2.12-.11-.06a1.79,1.79,0,0,0,.24.12,3.18,3.18,0,0,1,.44.26l-.53-.53,0,0-.21-.76s.24-.72.15-.61a.75.75,0,0,1-.07.12,1,1,0,0,1-.12.17l.54-.53-.06,0,1.16-.15c.31.15.37.17.19.06l-.18-.11a3.14,3.14,0,0,0-.37-.18,4.15,4.15,0,0,0-1-.34,4.11,4.11,0,0,0-2,.11,2.65,2.65,0,0,0-1.83,2.48,1.52,1.52,0,0,0,1.5,1.5,1.54,1.54,0,0,0,1.5-1.5c0-.34-.11.37,0,.14a.19.19,0,0,0,0-.1c.05-.22-.18.38-.07.19s-.29.28,0,.06-.31.18-.15.11a1.18,1.18,0,0,0,.19-.11c-.34.22-.26.09-.12.07a.65.65,0,0,0,.2,0l-.22,0H123c.17,0,.13,0-.11,0l.19,0a2,2,0,0,1,.29.09c-.2-.09-.23-.1-.08,0l.14.07a2.73,2.73,0,0,0,.72.37,1.61,1.61,0,0,0,1.25-.16,2.34,2.34,0,0,0,.75-.87,1.66,1.66,0,0,0-.58-2.24,6,6,0,0,0-1.2-.58,4.16,4.16,0,0,0-4.46.87,3,3,0,0,0,0,4.12,3.68,3.68,0,0,0,1.88.93c.28.06.57.09.86.14l.45.1.14,0c.26.07-.39-.16,0,0,.18.08-.16-.13-.16-.13s.14.22-.09-.15c.17.27-.11-.38,0-.06l0-.28a.75.75,0,0,1,0,.15s.07-.4,0-.16.17-.33,0-.1c.24-.38.13-.2.06-.1l.19-.15-.12.06c.2-.18.31-.1.12,0l-.18,0c-.18,0-.26,0,.1,0-.14,0-.28,0-.41,0h-.2c-.16,0-.13,0,.11,0l-.2,0c-.1,0-.44-.07-.49-.15l.18.07-.18-.09-.18-.11a1.65,1.65,0,0,0-2.33.54,2.06,2.06,0,0,0-.39,1.09,1.83,1.83,0,0,0,1.12,1.62,5.08,5.08,0,0,0,4.94.07,3.16,3.16,0,0,0,1.4-2,3,3,0,0,0-.79-2.75,4.07,4.07,0,0,0-2.19-1h-.09l-.19,0a1.26,1.26,0,0,0-.27,0l-.54-.13c-.18,0-.11-.14.11.05l-.12-.07c.21.17.27.22.18.14s-.09-.18.1.14.12.33.08.19c0,.29,0,.36,0,.2a1.5,1.5,0,0,0-3,0Z"/><path class="cls-1" d="M134.63,64.74c0-.1,0-.13.13-.13h.41c.1,0,.13,0,.13.13v5.69c0,.1,0,.14-.13.14h-.41c-.11,0-.13,0-.13-.14V67.88h-3.36v2.55c0,.1,0,.14-.12.14h-.41c-.1,0-.14,0-.14-.14V64.74c0-.1,0-.13.14-.13h.41c.1,0,.12,0,.12.13v2.54h3.36Z"/><path class="cls-1" d="M136.13,64.74v-.06l-.2.76,0,0-.54.54,0,0-.76.2a4.86,4.86,0,0,1,.54,0l-.76-.2,0,0-.53-.54,0,0-.21-.76a18.67,18.67,0,0,1,0,2v3.07a6.6,6.6,0,0,1,0,.77l.21-.76,0,0,.53-.54,0,0,.76-.21a2.44,2.44,0,0,1-.54,0l.76.21,0,0,.54.54,0,0,.2.76c0-.44,0-.88,0-1.32v-1.3a1.52,1.52,0,0,0-1.5-1.5h-3.36a1.52,1.52,0,0,0-1.5,1.5v1.3c0,.44,0,.88,0,1.32l.2-.76,0,0,.54-.54,0,0,.76-.21a2.44,2.44,0,0,1-.54,0l.76.21,0,0,.54.54,0,0,.21.76a18.68,18.68,0,0,1,0-2V65.44a6.43,6.43,0,0,1,0-.76l-.21.76,0,0-.54.54,0,0-.76.2a4.86,4.86,0,0,1,.54,0l-.76-.2,0,0-.54-.54,0,0-.2-.76c0,.43,0,.87,0,1.3v1.3a1.52,1.52,0,0,0,1.5,1.5h3.36a1.52,1.52,0,0,0,1.5-1.5V64.74a1.5,1.5,0,0,0-3,0v2.54l1.5-1.5h-3.36l1.5,1.5V66a10.31,10.31,0,0,0,0-1.47,1.6,1.6,0,0,0-1.53-1.37h-.4a1.65,1.65,0,0,0-1.71,1.64c0,.29,0,.59,0,.88v3.58c0,.38,0,.76,0,1.14a1.7,1.7,0,0,0,.77,1.48,2.33,2.33,0,0,0,1.54.2,1.64,1.64,0,0,0,1.36-1.75v-2.4l-1.5,1.5h3.36l-1.5-1.5V70.5a1.67,1.67,0,0,0,1.78,1.57,1.79,1.79,0,0,0,1.67-.8,1.88,1.88,0,0,0,.22-.91c0-1.68,0-3.36,0-5,0-.21,0-.43,0-.64a1.6,1.6,0,0,0-1.36-1.54,3.83,3.83,0,0,0-.47,0,2.54,2.54,0,0,0-.67.06,1.64,1.64,0,0,0-1.16,1.57,1.5,1.5,0,0,0,1.5,1.5A1.54,1.54,0,0,0,136.13,64.74Z"/><path class="cls-1" d="M52.73,35.73c0-3,0-5.94.09-7.49h-.07C52.13,30.32,49,38,47,42.86H45.84c-1.48-3.79-4.74-12.3-5.45-14.64h0c.11,1.77.15,5.38.15,8v6.6H39.31V27.35H41.1c2.13,5.32,4.81,12.28,5.38,14h.05c.35-1.13,3.45-8.87,5.63-14h1.77V42.86h-1.2Z"/><path class="cls-1" d="M54.23,35.73c0-2.5,0-5,.09-7.49a1.52,1.52,0,0,0-1.5-1.5h-.07a1.53,1.53,0,0,0-1.44,1.1C50.66,30,49.77,32,49,34.1c-1.12,2.79-2.26,5.57-3.38,8.36L47,41.36H45.84l1.45,1.1c-1-2.61-2-5.23-3-7.86-.84-2.24-1.73-4.49-2.43-6.78a1.54,1.54,0,0,0-1.45-1.1h0a1.5,1.5,0,0,0-1.5,1.5c.29,4.86.15,9.77.15,14.64l1.5-1.5H39.31l1.5,1.5V27.35l-1.5,1.5H41.1l-1.45-1.1c1.86,4.64,3.81,9.28,5.39,14a1.54,1.54,0,0,0,1.44,1.11h.05A1.55,1.55,0,0,0,48,41.77c.59-1.86,1.4-3.68,2.13-5.5Q51.82,32,53.6,27.75l-1.44,1.1h1.77l-1.5-1.5V42.86l1.5-1.5h-1.2l1.5,1.5V35.73a1.5,1.5,0,0,0-3,0v7.13a1.52,1.52,0,0,0,1.5,1.5h1.2a1.52,1.52,0,0,0,1.5-1.5V27.35a1.52,1.52,0,0,0-1.5-1.5H52.16A1.56,1.56,0,0,0,50.71,27q-1.78,4.25-3.5,8.53c-.72,1.81-1.53,3.63-2.13,5.5l1.45-1.1h-.05L47.93,41c-1.57-4.75-3.53-9.39-5.38-14a1.58,1.58,0,0,0-1.45-1.1H39.31a1.52,1.52,0,0,0-1.5,1.5V42.86a1.52,1.52,0,0,0,1.5,1.5H40.5a1.52,1.52,0,0,0,1.5-1.5c0-4.87.14-9.78-.15-14.64l-1.5,1.5h0l-1.45-1.11c.7,2.3,1.6,4.54,2.44,6.79,1,2.62,2,5.25,3,7.86a1.58,1.58,0,0,0,1.45,1.1H47a1.55,1.55,0,0,0,1.44-1.1c1.13-2.79,2.26-5.57,3.38-8.37.82-2.06,1.72-4.13,2.36-6.25l-1.45,1.1h.07l-1.5-1.5c-.1,2.49-.09,5-.09,7.49A1.5,1.5,0,0,0,54.23,35.73Z"/><path class="cls-1" d="M60.17,27.35V42.86H59V27.35Z"/><path class="cls-1" d="M58.67,27.35V42.86l1.5-1.5H59l1.5,1.5V27.35L59,28.85h1.19a1.5,1.5,0,0,0,0-3H59a1.52,1.52,0,0,0-1.5,1.5V42.86a1.52,1.52,0,0,0,1.5,1.5h1.19a1.52,1.52,0,0,0,1.5-1.5V27.35A1.5,1.5,0,0,0,58.67,27.35Z"/><path class="cls-1" d="M65.11,38.7C65.58,40.76,67,42,69.5,42c2.84,0,3.92-1.41,3.92-3.1s-.77-2.83-4.19-3.68-4.69-1.88-4.69-4.12c0-2,1.48-3.94,4.81-3.94s4.85,2.08,5.05,4H73.16c-.36-1.67-1.44-2.86-3.88-2.86-2.24,0-3.46,1-3.46,2.77s1,2.37,3.88,3.08c4.37,1.08,5,2.83,5,4.69,0,2.29-1.66,4.26-5.25,4.26-3.88,0-5.3-2.26-5.59-4.34Z"/><path class="cls-1" d="M63.67,39.09a5.54,5.54,0,0,0,2.47,3.56,7.21,7.21,0,0,0,4.85.69,4.62,4.62,0,0,0,3.75-5.91c-.9-3.11-4.43-3.23-6.93-4.24a5.79,5.79,0,0,1-.71-.34,3.07,3.07,0,0,1-.5-.35,1.35,1.35,0,0,1-.54-1c0,.06,0,.26,0-.08,0-.17,0-.34,0-.51a1.6,1.6,0,0,1,.08-.49,2.13,2.13,0,0,1,.7-1.08,4.71,4.71,0,0,1,4.23-.44,3.08,3.08,0,0,1,1.29.9c.08.11.15.23.22.35s.22.48.15.3a2.64,2.64,0,0,1,.1.3c0,.05.12.62.09.35l1.5-1.5H73.16l1.44,1.1a4.86,4.86,0,0,0-2.44-3.33,6.66,6.66,0,0,0-5-.31,4,4,0,0,0-2.76,3.18,4,4,0,0,0,1.12,3.65c1.19,1.08,2.85,1.37,4.34,1.79a8.63,8.63,0,0,1,2.09.84,3.85,3.85,0,0,1,.89.76c.07.11.13.23.19.34.19.35,0-.18,0,.05s.1.39.14.59,0-.36,0,0c0,.1,0,.21,0,.31s0,.23,0,.35,0,.22,0,.33c0-.1,0-.1,0,0a2.47,2.47,0,0,1-1.73,1.95,5.67,5.67,0,0,1-4.6-.3,3.27,3.27,0,0,1-1.52-2.63l-1.45,1.9h1.24a1.5,1.5,0,0,0,0-3H63.87a1.52,1.52,0,0,0-1.44,1.89A6.32,6.32,0,0,0,67.8,44.4c3.15.49,6.8-.39,8-3.63a5.56,5.56,0,0,0-1.57-6.26,12.9,12.9,0,0,0-4.82-2,7.7,7.7,0,0,1-1.7-.63,1.19,1.19,0,0,1-.28-.21c.13.12-.09-.13-.1-.16.12.31,0-.13,0-.2,0,.14,0-.37,0-.41a1.69,1.69,0,0,1,.14-.5c-.09.2.16-.21,0,0A2.08,2.08,0,0,1,69,29.74a3,3,0,0,1,2.07.49,1.92,1.92,0,0,1,.35.48,3.38,3.38,0,0,1,.26.78,1.53,1.53,0,0,0,1.45,1.11H74.4a1.52,1.52,0,0,0,1.5-1.5,6.12,6.12,0,0,0-6-5.45c-3.23-.22-6.44,1.49-6.8,4.93a4.88,4.88,0,0,0,1.05,3.65,7.38,7.38,0,0,0,3.52,2.07c.8.26,1.64.43,2.44.7a6,6,0,0,1,1.42.71s.3.31.16.14.1.17.1.16c.21.31,0-.17,0,0s.06.2.09.3.06.4,0,.18,0,.21,0,.2,0,.25,0,.38,0,.1,0,0a2.47,2.47,0,0,1-.06.29,1.18,1.18,0,0,1-.71.8,4.42,4.42,0,0,1-2.13.28,2.48,2.48,0,0,1-2.46-2.16C66.1,36.42,63.21,37.22,63.67,39.09Z"/><path class="cls-1" d="M78.72,38.7C79.18,40.76,80.56,42,83.1,42c2.84,0,3.92-1.41,3.92-3.1s-.77-2.83-4.18-3.68-4.7-1.88-4.7-4.12c0-2,1.48-3.94,4.81-3.94s4.85,2.08,5,4H86.76c-.36-1.67-1.44-2.86-3.88-2.86-2.24,0-3.45,1-3.45,2.77s1,2.37,3.87,3.08c4.37,1.08,5,2.83,5,4.69,0,2.29-1.66,4.26-5.25,4.26-3.88,0-5.3-2.26-5.58-4.34Z"/><path class="cls-1" d="M77.27,39.09a5.54,5.54,0,0,0,2.47,3.56,7.23,7.23,0,0,0,4.86.69,4.6,4.6,0,0,0,3.74-5.91c-.9-3.11-4.43-3.23-6.93-4.24a5.66,5.66,0,0,1-.7-.34,2.83,2.83,0,0,1-.51-.35,1.35,1.35,0,0,1-.54-1c0,.06,0,.26,0-.08,0-.17,0-.34,0-.51a1.41,1.41,0,0,1,.09-.49,2,2,0,0,1,.69-1.08,4.71,4.71,0,0,1,4.23-.44,3.08,3.08,0,0,1,1.29.9c.08.11.15.23.22.35s.22.48.15.3a2.64,2.64,0,0,1,.1.3c0,.05.12.62.09.35L88,29.6H86.76l1.44,1.1a4.86,4.86,0,0,0-2.44-3.33,6.64,6.64,0,0,0-5-.31A4,4,0,0,0,78,30.24a4,4,0,0,0,1.12,3.65C80.31,35,82,35.26,83.46,35.68a8.63,8.63,0,0,1,2.09.84,3.85,3.85,0,0,1,.89.76c.07.11.13.23.19.34.19.35,0-.18,0,.05s.11.39.14.59,0-.36,0,0c0,.1,0,.21,0,.31V39l0,.33c0-.1,0-.1,0,0A2.47,2.47,0,0,1,85,41.23a5.68,5.68,0,0,1-4.6-.3,3.27,3.27,0,0,1-1.52-2.63l-1.44,1.9h1.24a1.5,1.5,0,0,0,0-3H77.48A1.52,1.52,0,0,0,76,39.09,6.33,6.33,0,0,0,81.4,44.4c3.15.49,6.8-.39,8.06-3.63a5.57,5.57,0,0,0-1.58-6.26,12.92,12.92,0,0,0-4.81-2,7.6,7.6,0,0,1-1.71-.63,1.19,1.19,0,0,1-.28-.21c.13.12-.09-.13-.1-.16.12.31,0-.13,0-.2,0,.14,0-.37,0-.41a1.68,1.68,0,0,1,.13-.5c-.09.2.17-.21,0,0a2.11,2.11,0,0,1,1.56-.58,3,3,0,0,1,2.07.49,1.93,1.93,0,0,1,.34.48,3,3,0,0,1,.26.78,1.53,1.53,0,0,0,1.45,1.11H88a1.51,1.51,0,0,0,1.5-1.5,6.12,6.12,0,0,0-6-5.45c-3.22-.22-6.44,1.49-6.8,4.93a4.88,4.88,0,0,0,1,3.65,7.43,7.43,0,0,0,3.52,2.07c.81.26,1.64.43,2.44.7a5.81,5.81,0,0,1,1.42.71s.3.31.16.14.1.17.1.16c.21.31,0-.17,0,0s.06.2.09.3.06.4,0,.18,0,.21,0,.2v.38c0,.11,0,.1,0,0a2.46,2.46,0,0,1-.07.29,1.18,1.18,0,0,1-.71.8,4.41,4.41,0,0,1-2.13.28,2.48,2.48,0,0,1-2.46-2.16C79.71,36.42,76.81,37.22,77.27,39.09Z"/><path class="cls-1" d="M40.46,46.65V56c0,4.12,2.32,5.19,4.52,5.19,2.59,0,4.52-1.09,4.52-5.19V46.65h1.22V56c0,4.85-2.57,6.35-5.79,6.35-3,0-5.71-1.66-5.71-6.15V46.65Z"/><path class="cls-1" d="M39,46.65V53c0,2.49-.34,5.41,1.22,7.52a6.46,6.46,0,0,0,8.93.9C51.22,59.55,51,56.49,51,54v-7.3l-1.5,1.5h1.22l-1.5-1.5v6.12c0,2.1.34,4.83-.78,6.59a3.61,3.61,0,0,1-2.83,1.45,6,6,0,0,1-2-.13,5.7,5.7,0,0,1-.55-.16.94.94,0,0,1-.23-.1,4.1,4.1,0,0,1-.75-.48c-1.62-1.46-1.33-4.07-1.33-6.21V46.65l-1.5,1.5h1.24a1.5,1.5,0,0,0,0-3H39.22a1.52,1.52,0,0,0-1.5,1.5v6.73c0,2.85-.21,5.87,1.75,8.21,2.23,2.64,7.06,3,9.85,1.07s2.9-5.2,2.9-8.26V46.65a1.52,1.52,0,0,0-1.5-1.5H49.5a1.52,1.52,0,0,0-1.5,1.5v8.82a7.55,7.55,0,0,1-.36,2.92,2.25,2.25,0,0,1-.74.92,4.1,4.1,0,0,1-1.28.39,6.68,6.68,0,0,1-1,0l-.3,0L44,59.61A2.32,2.32,0,0,1,42.79,59a2.35,2.35,0,0,1-.46-.71,4.45,4.45,0,0,1-.29-1A7.37,7.37,0,0,1,42,55.88c0-.87,0-1.75,0-2.63v-6.6A1.5,1.5,0,0,0,39,46.65Z"/><path class="cls-1" d="M54.28,62.16V46.65h1.77c2.42,3.72,8.09,12.38,9.06,14.07h0c-.14-2.24-.11-4.52-.11-7v-7h1.21V62.16H64.61c-2.31-3.59-8.07-12.61-9.18-14.31h0c.11,2,.09,4.29.09,7.11v7.2Z"/><path class="cls-1" d="M55.78,62.16V46.65l-1.5,1.5h1.77l-1.29-.74,5.34,8.21,2.5,3.88c.58.92,1.3,2.72,2.54,2.72a1.52,1.52,0,0,0,1.5-1.5c-.27-4.67-.11-9.39-.11-14.07L65,48.15h1.21l-1.5-1.5V62.16l1.5-1.5H64.61l1.29.74-5.3-8.28-2.58-4c-.59-.91-1.38-2.74-2.61-2.74a1.51,1.51,0,0,0-1.5,1.5c.25,4.75.09,9.55.09,14.31l1.5-1.5H54.28a1.5,1.5,0,0,0,0,3H55.5a1.52,1.52,0,0,0,1.5-1.5c0-4.76.16-9.56-.09-14.31l-1.5,1.5h0l-1.29-.75c1.75,2.71,3.48,5.43,5.22,8.15q1.56,2.43,3.11,4.86c.54.84,1,2,2.14,2,.54,0,1.09,0,1.63,0a1.52,1.52,0,0,0,1.5-1.5V46.65a1.52,1.52,0,0,0-1.5-1.5H65a1.52,1.52,0,0,0-1.5,1.5c0,4.68-.16,9.4.11,14.07l1.5-1.5h0l1.3.74c-1.62-2.78-3.46-5.45-5.21-8.15L58.07,47c-.54-.84-1-1.79-2.08-1.85-.56,0-1.14,0-1.71,0a1.52,1.52,0,0,0-1.5,1.5V62.16A1.5,1.5,0,0,0,55.78,62.16Z"/><path class="cls-1" d="M71.23,46.65V62.16H70V46.65Z"/><path class="cls-1" d="M69.73,46.65V62.16l1.5-1.5H70l1.5,1.5V46.65L70,48.15h1.2a1.5,1.5,0,0,0,0-3H70a1.52,1.52,0,0,0-1.5,1.5V62.16a1.52,1.52,0,0,0,1.5,1.5h1.2a1.52,1.52,0,0,0,1.5-1.5V46.65A1.5,1.5,0,0,0,69.73,46.65Z"/><path class="cls-1" d="M78.69,62.16,72.93,46.65h1.29l3,8.11c.87,2.35,1.84,4.94,2.17,6.25h0c.33-1.16,1.39-3.88,2.26-6.16l3.12-8.2h1.26l-6,15.51Z"/><path class="cls-1" d="M80.14,61.76l-5-13.58-.72-1.93-1.45,1.9h1.29l-1.45-1.1L75,53c1,2.78,2.22,5.55,3,8.41a1.52,1.52,0,0,0,1.44,1.11h0a1.52,1.52,0,0,0,1.44-1.11c.83-2.8,2-5.51,3.06-8.24l2.33-6.11-1.45,1.1h1.26l-1.44-1.9L79.41,59.83l-.74,1.93,1.44-1.1H78.69a1.5,1.5,0,0,0,0,3h1.42a1.56,1.56,0,0,0,1.45-1.1L86.8,49l.74-1.93a1.51,1.51,0,0,0-1.45-1.9H84.83a1.53,1.53,0,0,0-1.44,1.1l-2.34,6.11c-1,2.74-2.22,5.45-3,8.25l1.45-1.1h0l1.45,1.1a87.7,87.7,0,0,0-3-8.42l-2.21-5.94a1.54,1.54,0,0,0-1.44-1.1H72.93a1.51,1.51,0,0,0-1.44,1.9l5,13.58.72,1.93a1.5,1.5,0,0,0,2.89-.8Z"/><path class="cls-1" d="M97.06,54.54H89.15v6.51h8.66l-.17,1.11H88V46.65h9.51v1.11H89.15v5.67h7.91Z"/><path class="cls-1" d="M97.06,53H89.15a1.52,1.52,0,0,0-1.5,1.5v6.51a1.52,1.52,0,0,0,1.5,1.5h8.66l-1.44-1.9-.18,1.11,1.45-1.1H88l1.5,1.5V46.65L88,48.15h9.51L96,46.65v1.11l1.5-1.5H89.15a1.52,1.52,0,0,0-1.5,1.5v5.67a1.52,1.52,0,0,0,1.5,1.5h7.91l-1.5-1.5v1.11a1.5,1.5,0,0,0,3,0V53.43a1.52,1.52,0,0,0-1.5-1.5H89.15l1.5,1.5V47.76l-1.5,1.5h8.31a1.52,1.52,0,0,0,1.5-1.5V46.65a1.52,1.52,0,0,0-1.5-1.5H88a1.52,1.52,0,0,0-1.5,1.5V62.16a1.52,1.52,0,0,0,1.5,1.5h9.69a1.51,1.51,0,0,0,1.44-1.1l.18-1.11a1.53,1.53,0,0,0-1.45-1.9H89.15l1.5,1.5V54.54L89.15,56h7.91A1.5,1.5,0,0,0,97.06,53Z"/><path class="cls-1" d="M101.31,54.91v7.25h-1.22V46.65h5.56c3.06,0,4.68,1.64,4.68,4.08a3.52,3.52,0,0,1-2.9,3.63c1.59.38,2.66,1.42,2.66,4V59a10.67,10.67,0,0,0,.19,3.15h-1.21a10.36,10.36,0,0,1-.22-3.24v-.4c0-2.54-.76-3.61-3.73-3.61Zm0-1.1h3.75c2.72,0,4-1,4-3.06s-1.24-3-3.65-3h-4.08Z"/><path class="cls-1" d="M99.81,54.91v7.25l1.5-1.5h-1.22l1.5,1.5V46.65l-1.5,1.5c1.86,0,3.71,0,5.56,0a4.16,4.16,0,0,1,2.18.51,2,2,0,0,1,.89,1.2,2.28,2.28,0,0,1-1.69,3,1.52,1.52,0,0,0,0,2.9,1.56,1.56,0,0,1,1.17.67c-.14-.19.12.24.11.23s.07.19.08.23a4,4,0,0,1,.19,1.09c.06,1.45-.3,3.15.26,4.53l1.44-1.9h-1.21l1.44,1.1a7.88,7.88,0,0,1-.17-2.7,12.39,12.39,0,0,0-.12-2.11,4,4,0,0,0-2.64-3.21,10.5,10.5,0,0,0-3.4-.33h-2.87a1.5,1.5,0,0,0,0,3h2.44a13.45,13.45,0,0,1,2.57.09l.39.11c.16.06-.12-.07.11,0s.34.23.13.07c0,0,.28.34.09.09,0,0,.18.34.11.17s.06.18.07.22a2.89,2.89,0,0,1,.11.74c.09,1.5-.25,3.17.29,4.61a1.56,1.56,0,0,0,1.45,1.1h1.21a1.51,1.51,0,0,0,1.45-1.9,7.64,7.64,0,0,1-.14-2.75,11.52,11.52,0,0,0-.2-2.49,4.71,4.71,0,0,0-3.56-3.61v2.9a5.08,5.08,0,0,0,3.82-3.63,5.77,5.77,0,0,0-1.11-5.11c-1.84-2.18-4.86-1.92-7.43-1.92h-3a1.52,1.52,0,0,0-1.5,1.5V62.16a1.52,1.52,0,0,0,1.5,1.5h1.22a1.52,1.52,0,0,0,1.5-1.5V54.91A1.5,1.5,0,0,0,99.81,54.91Z"/><path class="cls-1" d="M101.31,55.31h3.29c1.67,0,3.53-.15,4.78-1.43a4.71,4.71,0,0,0,.42-5.7c-1.17-1.58-3-1.92-4.84-1.92h-3.65a1.52,1.52,0,0,0-1.5,1.5v6.05a1.5,1.5,0,0,0,3,0V47.76l-1.5,1.5h4.6l.17,0c.3,0-.08,0-.08,0s.29,0,.35.06.35.11.54.16-.28-.14-.12,0l.12.06.25.14s.06.06.1.07-.25-.21-.15-.11.14.13.2.19a.73.73,0,0,0,.08.09c.1.1-.12-.15-.12-.15s.11.16.15.23l0,.08c-.11-.25,0,.06,0,.12a2.27,2.27,0,0,1,.06.25c.06.23,0-.35,0,0s0,.4,0,.6a2.13,2.13,0,0,0,0,.25s.07-.34,0-.19,0,.1,0,.15a2,2,0,0,1-.07.26c-.07.26-.05,0,0-.08a1.24,1.24,0,0,0-.1.2l-.06.09c-.08.15-.15.06.09-.1a2.94,2.94,0,0,0-.3.31c-.17.16.27-.16.06,0s-.17.11-.27.15l-.1.06c-.13.07.17-.07.17-.07a1.25,1.25,0,0,0-.25.09,6.42,6.42,0,0,1-.63.15l-.15,0,.15,0a1.84,1.84,0,0,0-.33,0c-.23,0-.46,0-.7,0h-3.74a1.5,1.5,0,0,0,0,3Z"/><path class="cls-1" d="M113.34,58c.47,2.06,1.84,3.28,4.39,3.28,2.83,0,3.92-1.42,3.92-3.1s-.78-2.84-4.19-3.68-4.69-1.88-4.69-4.12c0-2,1.48-3.94,4.8-3.94s4.85,2.08,5.05,4h-1.24c-.35-1.66-1.44-2.85-3.87-2.85-2.24,0-3.46,1-3.46,2.76s1,2.37,3.88,3.08c4.36,1.09,5,2.84,5,4.7,0,2.28-1.66,4.25-5.25,4.25-3.87,0-5.29-2.25-5.58-4.34Z"/><path class="cls-1" d="M111.89,58.39A5.55,5.55,0,0,0,114.37,62a7.21,7.21,0,0,0,4.85.69A4.62,4.62,0,0,0,123,56.72c-.9-3.1-4.43-3.22-6.94-4.23a5.08,5.08,0,0,1-.7-.35,2.07,2.07,0,0,1-.5-.34,1.33,1.33,0,0,1-.54-1c0,.06,0,.25,0-.09a2.77,2.77,0,0,1,0-.5,1.34,1.34,0,0,1,.08-.49,2,2,0,0,1,.7-1.08,4.75,4.75,0,0,1,4.23-.45,3.26,3.26,0,0,1,1.29.91c.08.11.15.23.22.35s.22.47.15.3A2.46,2.46,0,0,1,121,50c0,.06.13.63.09.35l1.5-1.5h-1.24l1.45,1.1a4.9,4.9,0,0,0-2.44-3.33,6.76,6.76,0,0,0-5-.31,4.06,4.06,0,0,0-2.77,3.18,4,4,0,0,0,1.13,3.66c1.18,1.08,2.85,1.37,4.34,1.79a8.79,8.79,0,0,1,2.09.84,3.54,3.54,0,0,1,.88.76,3.79,3.79,0,0,1,.2.34c.18.35-.05-.18,0,0a5.66,5.66,0,0,1,.15.59c0,.24,0-.36,0,0,0,.1,0,.2,0,.31s0,.23,0,.35,0,.22,0,.33c0-.11,0-.1,0,0a2.5,2.5,0,0,1-1.73,2,5.67,5.67,0,0,1-4.6-.3,3.27,3.27,0,0,1-1.52-2.64l-1.45,1.9h1.24a1.5,1.5,0,0,0,0-3H112.1a1.53,1.53,0,0,0-1.45,1.9,6.32,6.32,0,0,0,5.38,5.3c3.15.5,6.79-.38,8-3.62a5.56,5.56,0,0,0-1.57-6.26,13,13,0,0,0-4.82-2,8.06,8.06,0,0,1-1.7-.64.85.85,0,0,1-.28-.2c.13.12-.09-.13-.1-.17.12.32,0-.12,0-.19,0,.13,0-.37,0-.42a1.71,1.71,0,0,1,.14-.49c-.09.2.16-.21,0,0a2.07,2.07,0,0,1,1.56-.58,3,3,0,0,1,2.07.49,2.09,2.09,0,0,1,.35.47,3.31,3.31,0,0,1,.26.79,1.5,1.5,0,0,0,1.44,1.1h1.24a1.5,1.5,0,0,0,1.5-1.5,6.12,6.12,0,0,0-6-5.45c-3.23-.21-6.45,1.5-6.81,4.94a5,5,0,0,0,1.06,3.65,7.4,7.4,0,0,0,3.51,2.07c.81.26,1.64.42,2.45.69a6.08,6.08,0,0,1,1.41.71s.3.31.16.15.11.16.11.16c.21.31,0-.17,0,0l.09.29s.06.41,0,.19,0,.21,0,.2,0,.25,0,.37,0,.11,0,0a2.46,2.46,0,0,1-.07.29,1.16,1.16,0,0,1-.7.8,4.42,4.42,0,0,1-2.13.28,2.49,2.49,0,0,1-2.46-2.17C114.33,55.72,111.44,56.51,111.89,58.39Z"/><path class="cls-1" d="M134.65,54.54h-7.91v6.51h8.67l-.18,1.11h-9.68V46.65h9.5v1.11h-8.31v5.67h7.91Z"/><path class="cls-1" d="M134.65,53h-7.91a1.52,1.52,0,0,0-1.5,1.5v6.51a1.52,1.52,0,0,0,1.5,1.5h8.67L134,60.65l-.18,1.11,1.45-1.1h-9.68l1.5,1.5V46.65l-1.5,1.5h9.5l-1.5-1.5v1.11l1.5-1.5h-8.31a1.52,1.52,0,0,0-1.5,1.5v5.67a1.52,1.52,0,0,0,1.5,1.5h7.91l-1.5-1.5v1.11a1.5,1.5,0,0,0,3,0V53.43a1.52,1.52,0,0,0-1.5-1.5h-7.91l1.5,1.5V47.76l-1.5,1.5h8.31a1.52,1.52,0,0,0,1.5-1.5V46.65a1.52,1.52,0,0,0-1.5-1.5h-9.5a1.52,1.52,0,0,0-1.5,1.5V62.16a1.52,1.52,0,0,0,1.5,1.5h9.68a1.52,1.52,0,0,0,1.45-1.1l.17-1.11a1.52,1.52,0,0,0-1.44-1.9h-8.67l1.5,1.5V54.54l-1.5,1.5h7.91A1.5,1.5,0,0,0,134.65,53Z"/><path class="cls-2" d="M32.54,69.08a1.12,1.12,0,1,1-1.11,1.11A1.12,1.12,0,0,1,32.54,69.08Zm-.92,1.11a.92.92,0,0,0,.93.94,1,1,0,0,0,.92-.93.91.91,0,0,0-.94-.93A.9.9,0,0,0,31.62,70.19Z"/><path class="cls-2" d="M32.32,70.3v.47h-.16V69.68h.44c.23,0,.35.12.35.29a.25.25,0,0,1-.18.26c.08,0,.16.09.16.28v0a.69.69,0,0,0,0,.21h-.15a.69.69,0,0,1,0-.23v0c0-.14,0-.21-.24-.21Zm0-.13h.23c.16,0,.23-.06.23-.18s-.07-.17-.21-.17h-.25Z"/><path class="cls-3" d="M120.3,14.16a6.17,6.17,0,0,0,1.18,1.67A23.64,23.64,0,0,0,121.6,12a1.46,1.46,0,0,1,.7-1.49,12,12,0,0,0,1.46-1.21c.33-.29.38-.05.45.19,0,3.35,0,6.7,0,10.05,0,.79-.21,1-1,1a2.32,2.32,0,0,1-2.34-1.26,61.27,61.27,0,0,0-4.17-5.66v2.11c0,1.34,0,2.68,0,4,0,.55-.14.75-.73.76-1.83,0-1.83.06-1.83-1.76,0-2.08,0-4.16,0-6.23a2.25,2.25,0,0,1,1-2.23l.1-.21c.28-.21.67-.25.87-.59.76-1,.91.11,1.3.38A47.49,47.49,0,0,0,120.16,14Z"/><path class="cls-3" d="M93.22,20.72a.91.91,0,0,1-.6-1c0-2.74,0-5.49,0-8.23.57-.42,1.16-.79,1.68-1.26a3.54,3.54,0,0,1,3.11-1.21l.4,0a5.36,5.36,0,0,1,3,2c0,.4.21.68.38,1l0,.4v.4l-.1.58a1.59,1.59,0,0,0,0,2.56c.92,1,.42,2.65-.78,3.51a6.4,6.4,0,0,1-3.91,1c-.41,0-.53-.21-.51-.57a3,3,0,0,0,0-.6c-.14-1,.09-1.52,1.24-1.35a1.24,1.24,0,0,0,1.5-.73c.25-.75-.29-1.2-.81-1.57a2.8,2.8,0,0,0-1.31-.62c0-.26-.52-.17-.46-.54a2.92,2.92,0,0,0,1.68-.83h0c.86-.73.88-1.48,0-1.9a3.45,3.45,0,0,0-2.41,0c-.51.13-.17.94-.22,1.44a7.93,7.93,0,0,0,0,1.09v5.83l-.06.37h0l-.57.06A2.18,2.18,0,0,0,93.22,20.72Z"/><path class="cls-3" d="M125.62,11.31c.59-1,1.69-1.37,2.41-2.19.42.89.11,1.83.18,2.74,0,.7,0,1.4,0,2.28a27.43,27.43,0,0,0,2.15-3c1.56-2.22,1.56-2.22,4.46-2-1.05,1.51-2.05,3-3.11,4.44a.93.93,0,0,0,0,1.24c1.2,1.89,2.37,3.8,3.56,5.7l-3,.07-3.92-6.22a8.34,8.34,0,0,0-.12,2.31c0,1,0,2.07,0,3.11,0,.64-.2.83-.81.78s-1.07,0-1.6,0c-.26-.32-.15-.71-.15-1.06C125.65,16.78,125.64,14,125.62,11.31Z"/><path class="cls-3" d="M110.08,13.27l-7.47,7V17.2c0-.36.29-.51.5-.71,2.52-2.35,5-4.69,7.54-7.06a1.61,1.61,0,0,1,1.68-.3c.46.13.23.7.23,1.07,0,3.11,0,6.23,0,9.34,0,.76-.16,1.15-1,1-.63-.11-1.51.39-1.65-.81,0-.23-.48-.14-.74-.14H105.1c1.38-1.16,2.09-2.84,4.12-2.45.72.14.92-.22.88-.9C110,15.35,110.08,14.44,110.08,13.27Z"/><path class="cls-3" d="M81.67,19.94c-.23-.07-.35.11-.5.21,0-1-.07-2-.11-3l.15-.4.2-.19.16-.17c1-1.25,2.49-2.05,3.46-3.35L85.1,13l.49-.46A33.74,33.74,0,0,0,89,9.4,1.87,1.87,0,0,1,90,9h.78c.38.22.24.59.24.9,0,3.25,0,6.5,0,9.74,0,.72-.24,1-.91.86s-1.34.45-1.79-.36c.17-.28.34-.56-.2-.58-.39,0-.78,0-1.17.05H85.76l-2.13-.11A24.18,24.18,0,0,1,86,17.28c.53-.37,1.3-.09,2-.12.39,0,.54-.15.54-.54,0-1,0-2.09,0-3.37-2.26,2.18-4.48,4.05-6.47,6.16l-.07.06C81.75,19.53,81.68,19.71,81.67,19.94Z"/><path class="cls-3" d="M72.29,10.11c.19,0,.45,0,.57-.09,2-1.88,3.84-.8,5.68.31.27.53.54,1.06.82,1.59a3.55,3.55,0,0,1-.26,2.54l-.22.26-.18.21c-.62.34-.47.77,0,1.08A2,2,0,0,1,79.54,18v2l0,.41c-.49.06-.68-.39-.91-.64-1.37-1.5-2.7-3-4.09-4.63a8.21,8.21,0,0,0,1.17-.49c.69-.39,1.28-.9,1.12-1.82s-.88-1.13-1.63-1.25c-1.65-.27-1.75-.17-1.75,1.49,0,2.24,0,4.48,0,6.73,0,.61-.18.86-.8.79a6.87,6.87,0,0,0-1.2,0c-.46,0-.59-.2-.6-.59,0-2.34.05-4.68,0-7,0-.86,0-1.59.91-2A.94.94,0,0,0,72.29,10.11Z"/><path class="cls-3" d="M64.82,20.55l-.39,0a8.68,8.68,0,0,0-2.22,0,.33.33,0,0,0-.17,0l-.23-.19h-.38c0-.11-.08-.21-.22-.18-.42,0-.58-.5-1-.45l-.47-.45,0-.07c-.23-.49-.72-.73-1.07-1.1h0A4.82,4.82,0,0,0,58,16.53l-.07-.4-.12-.29c0-.7,0-1.39,0-2.09A6.25,6.25,0,0,1,60,10.23a6.48,6.48,0,0,1,4.76-1.09l1.66.62.58.36c.48.47,1,.94,1.45,1.4h0c1.68,3.18,1.3,5.3-1.4,7.91l-.45.31Zm-1.3-9a3.25,3.25,0,0,0-3.26,3.34,3.32,3.32,0,1,0,6.63-.11A3.28,3.28,0,0,0,63.52,11.51Z"/><path class="cls-3" d="M40.88,20.58c-1.56-.09-1.56-.09-1.56-1.67,0-2.18,0-4.35,0-6.52a1.55,1.55,0,0,1,.54-1.2,6.53,6.53,0,0,1,6-2.17,29.12,29.12,0,0,0,3.5.08l-2.84,2.4-4,0c-.88-.17-.64.51-.6.88s-.44,1.21.6,1.1l4,0,.13,2.18c-.15.45-.53.33-.84.33-1.07,0-2.13,0-3.2,0-.51,0-.76.15-.63.69v3.62C41.61,20.69,41.21,20.47,40.88,20.58Z"/><path class="cls-3" d="M51.6,11.1v6.46c-.15.58.24.57.63.56,1.09,0,2.18,0,3.27,0,.47,0,.77.1.79.61v.47c0,.46-.09.91-.14,1.36a.39.39,0,0,0-.18,0c-2,0-4.07-.05-6.1,0-.61,0-.81-.18-.8-.79,0-2.71,0-5.41,0-8.11a1.18,1.18,0,0,1,.26-.93,14.69,14.69,0,0,0,1.84-1.5c.16-.06.33-.16.43.08C51.61,9.91,51.6,10.5,51.6,11.1Z"/><path class="cls-4" d="M20.59,58.14a2.08,2.08,0,0,0,0,1.16,23.28,23.28,0,0,0,1,2.92A7.81,7.81,0,0,0,24,65.3a5.36,5.36,0,0,0,1.56.8l2.25.73a3.11,3.11,0,0,1,.59.26.44.44,0,0,1,.08.77,2.28,2.28,0,0,1-.46.36A6,6,0,0,1,26,69a14.9,14.9,0,0,1-2.3.21c-.79,0-1.59,0-2.38,0A11.17,11.17,0,0,1,19,69a1.33,1.33,0,0,0-.4,0,8.47,8.47,0,0,1-2-.2l-.74-.1a.94.94,0,0,0-.87.47.49.49,0,0,0,0,.21.76.76,0,0,1-.57.81,2,2,0,0,1-.93.14,9,9,0,0,1-2.25-.49,14.86,14.86,0,0,1-2.66-1.13A1.35,1.35,0,0,1,8.09,68c-.06-.1.09-.4.22-.47a2.58,2.58,0,0,1,.48-.21A10,10,0,0,1,10.1,67a8.11,8.11,0,0,0,3.74-1.71,13.63,13.63,0,0,0,2-2.06,12.59,12.59,0,0,0,2.82-6.49,21.06,21.06,0,0,0,.13-5.32c-.16-1.53-.37-3.06-.55-4.59-.1-.85-.16-1.71-.27-2.57a20.89,20.89,0,0,1,0-3v-.06a19.46,19.46,0,0,1,.37-3.64,2.22,2.22,0,0,0,0-.37,1.45,1.45,0,0,0-1.18-1.48,13.13,13.13,0,0,0-1.4-.21,12.51,12.51,0,0,1-1.72-.36,8.45,8.45,0,0,1-.94-.29,1,1,0,0,1-.32-.16.78.78,0,0,1-.35-.94,8.76,8.76,0,0,1,.46-1.24c.59-1.16,1.21-2.31,1.82-3.46A6.33,6.33,0,0,1,16,27.62l.34-.31a1.49,1.49,0,0,0,.36-1.59l0-.12a1.13,1.13,0,0,0-1-.84,1.19,1.19,0,0,1-.39-.16c-.27-.15-.51-.34-.78-.49a1.21,1.21,0,0,1-.59-1,11.55,11.55,0,0,1-.08-1.32c0-.24.15-.39.27-.56a2.35,2.35,0,0,0,.23-.32c.09-.18.2-.36-.08-.56A.4.4,0,0,0,14.7,20l-.33-.24,0-.33c.07,0,.18,0,.2-.09s.07-.14.22,0l-.31-.7a.56.56,0,0,0,.23,0c.05,0,.06-.11.1-.18a1.69,1.69,0,0,0,.32.19c.17.06.22-.1.29-.24a.41.41,0,0,0,.46.25.33.33,0,0,1,.19.06c.11,0,.2.12.32.19s-.19.18-.12.35-.23.21,0,.37l.23-.18-.11-.2c.15,0,.26,0,.25.21l.17-.09.22.16c-.23.12,0,.31-.12.5l.57-.27.15.25a1.81,1.81,0,0,0,.2.33.72.72,0,0,1,.21.53.67.67,0,0,0,.18.47c.1.13.17.28.26.41a.54.54,0,0,0,.15.18,2.82,2.82,0,0,0,.38.21c.12.06.17.15.11.27a.4.4,0,0,0,0,.35,8,8,0,0,1,.32.86c.06.16,0,.27-.14.38s-.39.41-.6.62a.71.71,0,0,0,.09,1.05.3.3,0,0,0,.39,0,2.85,2.85,0,0,0,.83-.9c.11-.19.18-.39.29-.58s.38-.68.61-1a4,4,0,0,0,.65-1.25c.1-.3.22-.6.3-.91a3,3,0,0,0,.08-.6c0-1.23.09-2.47.17-3.7a8.23,8.23,0,0,1,.23-1.39,6.08,6.08,0,0,0,.14-1.41,1.18,1.18,0,0,1,.17-.64c.18-.28.36-.55.55-.82a1.63,1.63,0,0,1,.23-.23,4.33,4.33,0,0,1-.1.71.23.23,0,0,0,.27-.12,1.14,1.14,0,0,0,.1-.19A1.09,1.09,0,0,1,24.85,12c-.06.14-.11.27-.17.38-.3.5-.61,1-.92,1.49a5.79,5.79,0,0,1-.45.62.53.53,0,0,0-.13.43c.07,1.27.13,2.54.21,3.81a7.93,7.93,0,0,0,.17,1.07,3,3,0,0,1-.11,1.43,29,29,0,0,1-1.76,5,1.23,1.23,0,0,0,0,1.27,1.56,1.56,0,0,1,.1.22c-.24,0-.48,0-.64.22a1.69,1.69,0,0,0-.42.62c.28-.17.54-.3.77-.46a.75.75,0,0,1,1.21.44,5.19,5.19,0,0,1,.19.87,14.6,14.6,0,0,1,0,3.17,6.9,6.9,0,0,0,.15,2.17,4,4,0,0,0,.2.58c.13.31.26.63.42.93a9.72,9.72,0,0,1,.86,2.84,23,23,0,0,1,.22,5.68c-.12,1.63-.41,3.22-.67,4.82-.17,1.06-.33,2.11-.53,3.16-.12.64-.31,1.25-.46,1.88-.23,1-.49,1.94-.67,2.91a8.61,8.61,0,0,0-.05,3.16,4.27,4.27,0,0,0,2.25,3.1,6.05,6.05,0,0,0,1,.44c1.2.38,2.4.73,3.59,1.11a6.7,6.7,0,0,1,1.89.9,3.5,3.5,0,0,1,.69.64,1.32,1.32,0,0,1,0,1.76A4.57,4.57,0,0,1,30.3,69.9a9.15,9.15,0,0,1-1.07.47,15.06,15.06,0,0,1-4.13,1c-1.22.1-2.45.24-3.68.33a41.89,41.89,0,0,1-4.62.06A34.63,34.63,0,0,1,12,71.2c-1.06-.2-2.12-.43-3.16-.69a7,7,0,0,1-2.13-.94,1.92,1.92,0,0,1-.89-1.07,1.57,1.57,0,0,1,.66-1.86,6.48,6.48,0,0,1,1.78-.9c1-.31,1.92-.67,2.88-1a11.33,11.33,0,0,1,2.44-.48,1.42,1.42,0,0,1,.5,0l-.12.06a23.61,23.61,0,0,0-3,.86c-.72.24-1.44.51-2.14.79a2.81,2.81,0,0,0-1.21,1,.94.94,0,0,0-.09,1,2.27,2.27,0,0,0,.59.78,5.45,5.45,0,0,0,2.67,1.33,34.2,34.2,0,0,0,3.64.64A36.87,36.87,0,0,0,18.4,71a35.42,35.42,0,0,0,5.25-.32,38.45,38.45,0,0,0,5.09-1.1,3.55,3.55,0,0,0,1.42-.78,2.07,2.07,0,0,0,.56-.83.81.81,0,0,0-.06-.68,2.23,2.23,0,0,0-1-1c-.66-.32-1.32-.62-2-.91a3.69,3.69,0,0,0-.64-.21,13.54,13.54,0,0,1-2.68-1,6.31,6.31,0,0,1-2.44-2.37,10.84,10.84,0,0,1-1.17-3.16C20.68,58.49,20.63,58.32,20.59,58.14ZM14.52,33.47a3.53,3.53,0,0,0,.55.31,29.77,29.77,0,0,1,2.82,1.15,1.08,1.08,0,0,0,.44.09.4.4,0,0,0,.41-.41,1.52,1.52,0,0,0,0-.21,3.38,3.38,0,0,0-1.16-2c-.35-.34-.7-.67-1-1a1.37,1.37,0,0,0-.16-.18.42.42,0,0,0-.67.07,1.62,1.62,0,0,0-.17.32,6.21,6.21,0,0,1-.64,1.19A5.33,5.33,0,0,0,14.52,33.47Zm3.61-3.93,0,0,.19-.14a1.94,1.94,0,0,1,1-.47c.28-.06.55-.15.82-.23a.68.68,0,0,0,.16-.09,3.25,3.25,0,0,0-1.2,0,1,1,0,0,0-.75.47C18.29,29.23,18.21,29.39,18.13,29.54ZM15,19.69l.35,0,.18-.28c.08.1.2.17,0,.28l.22.18.17-.21-.23-.15,0-.08h.15l.08-.27L15.77,19a1,1,0,0,0-.2.11,1.22,1.22,0,0,0-.15.17c-.23,0-.14-.31-.3-.43,0,.22.16.47-.16.56Zm.59.6-.36.61-.17-.22-.25.31.33.12c0,.1,0,.23.09.32A2.46,2.46,0,0,0,15.61,20.29Zm-.9-.11.19.31h.37l.16-.31L15.05,20C15.07,20.19,14.89,20.15,14.71,20.18Zm.19,2,0-.33-.3.07,0,.35Zm-.19-.92-.19-.3c-.13.08-.21.14-.13.27Zm.18.07c-.16.07-.2.17-.14.3l.33-.06Zm-.16,1.29c0-.17-.11-.22-.23-.19s-.07.08-.11.12.07.08.11.08A.92.92,0,0,0,14.73,22.66Z"/><path class="cls-4" d="M26.69,1.56A19.93,19.93,0,0,0,17.38,6.4a32.83,32.83,0,0,0-5.3,6,50.24,50.24,0,0,0-5.2,9.24A44.42,44.42,0,0,0,4.6,28.17,18.82,18.82,0,0,0,4,32.46a10.6,10.6,0,0,0,1.36,5.7,6.31,6.31,0,0,0,2.22,2.31,5.33,5.33,0,0,0,2.63.77,8.85,8.85,0,0,0,2.85-.4l1.6-.47a.37.37,0,0,1,.21,0l-.37.21A10.66,10.66,0,0,1,11,41.82a10.12,10.12,0,0,1-3.8,0A6.33,6.33,0,0,1,3.33,39.2a9.88,9.88,0,0,1-1.6-3.93,15.33,15.33,0,0,1,0-5.61A33.08,33.08,0,0,1,4,22.54a43.78,43.78,0,0,1,4.64-8.43A36.8,36.8,0,0,1,19.23,4.05a19.8,19.8,0,0,1,4-2,10.2,10.2,0,0,1,3-.56h.39Z"/><path class="cls-4" d="M26.89,4.22A5.81,5.81,0,0,1,32.38,5a5.3,5.3,0,0,1,1.83,2.82,10.63,10.63,0,0,1,.36,3.93,15.1,15.1,0,0,1-.85,4.15.92.92,0,0,1-.16.29c.06-.58.13-1.17.19-1.76a17.23,17.23,0,0,0,0-4.06A9.71,9.71,0,0,0,32.72,7a4.71,4.71,0,0,0-2.31-2,8.55,8.55,0,0,0-2.86-.68l-.55,0Z"/><path class="cls-4" d="M24.94,10.59l-1.18-.93-1.24,1c.14-.53.36-1,.5-1.44l-1.2-.85a12.08,12.08,0,0,1,1.48,0l.43-1.52h.05l.44,1.53,1.41-.07,0,0c-.38.29-.77.55-1.16.84L25,10.56Z"/><path class="cls-4" d="M18.38,12l-.64.46,0,0,.21-.8-.33-.2-.33-.19v-.06h.84l.25-.77h.06l.16.77h.85l0,.06-.68.4.31.8,0,0Z"/><path class="cls-4" d="M27.7,13.77h.61l.2-.67.19.67h.7l0,.06-.54.39.21.53,0,0-.55-.37-.52.42c0-.16.05-.25.08-.33s0-.35-.15-.47-.15-.13-.23-.19Z"/><path class="cls-4" d="M28.31,9.94,28,9.67l-.43.29.13-.48-.48-.35.57,0,.2-.48.2.49h.49l0,.05-.43.32.11.43Z"/><path class="cls-4" d="M19.93,13.39l.48-.06-.38.35.14.5-.42-.31-.41.28.11-.47-.38-.34.48,0,.2-.56Z"/><path class="cls-4" d="M37.1,44.73l-4.38-.42,1.68-1.88L32.34,44,32,39.82H31.9L31.52,44l-2.07-1.59,1.69,1.88-4.45.42,4.45.42-1.69,2,2.07-1.59.38,4.13H32l.38-4.13L34.4,47.1l-1.68-2Z"/><text class="cls-5" transform="translate(38.39 70.57)">BANGLA<tspan class="cls-6" x="61.3" y="0">D</tspan><tspan class="cls-7" x="71.97" y="0">ESH</tspan></text><path class="cls-4" d="M52.73,35.73c0-3,0-5.94.09-7.49h-.07C52.13,30.32,49,38,47,42.86H45.84c-1.48-3.79-4.74-12.3-5.45-14.64h0c.11,1.77.15,5.38.15,8v6.6H39.31V27.35H41.1c2.13,5.32,4.81,12.28,5.38,14h.05c.35-1.13,3.45-8.87,5.63-14h1.77V42.86h-1.2Z"/><path class="cls-4" d="M60.17,27.35V42.86H59V27.35Z"/><path class="cls-4" d="M65.11,38.7C65.58,40.76,67,42,69.5,42c2.84,0,3.92-1.41,3.92-3.1s-.77-2.83-4.19-3.68-4.69-1.88-4.69-4.12c0-2,1.48-3.94,4.81-3.94s4.85,2.08,5.05,4H73.16c-.36-1.67-1.44-2.86-3.88-2.86-2.24,0-3.46,1-3.46,2.77s1,2.37,3.88,3.08c4.37,1.08,5,2.83,5,4.69,0,2.29-1.66,4.26-5.25,4.26-3.88,0-5.3-2.26-5.59-4.34Z"/><path class="cls-4" d="M78.72,38.7C79.18,40.76,80.56,42,83.1,42c2.84,0,3.92-1.41,3.92-3.1s-.77-2.83-4.18-3.68-4.7-1.88-4.7-4.12c0-2,1.48-3.94,4.81-3.94s4.85,2.08,5,4H86.76c-.36-1.67-1.44-2.86-3.88-2.86-2.24,0-3.46,1-3.46,2.77s1,2.37,3.88,3.08c4.37,1.08,5,2.83,5,4.69,0,2.29-1.66,4.26-5.25,4.26-3.88,0-5.3-2.26-5.58-4.34Z"/><path class="cls-4" d="M40.46,46.65V56c0,4.12,2.32,5.19,4.52,5.19,2.59,0,4.52-1.09,4.52-5.19V46.65h1.22V56c0,4.85-2.57,6.35-5.79,6.35-3,0-5.71-1.66-5.71-6.15V46.65Z"/><path class="cls-4" d="M54.28,62.16V46.65h1.77c2.42,3.72,8.09,12.38,9.06,14.07h0c-.14-2.24-.11-4.52-.11-7v-7h1.21V62.16H64.61c-2.31-3.59-8.07-12.61-9.18-14.31h0c.11,2,.09,4.29.09,7.11v7.2Z"/><path class="cls-4" d="M71.23,46.65V62.16H70V46.65Z"/><path class="cls-4" d="M78.69,62.16,72.93,46.65h1.29l3,8.11c.87,2.35,1.84,4.94,2.17,6.25h0c.33-1.16,1.39-3.88,2.26-6.16l3.12-8.2h1.26l-6,15.51Z"/><path class="cls-4" d="M97.06,54.54H89.15v6.51h8.66l-.17,1.11H88V46.65h9.51v1.11H89.15v5.67h7.91Z"/><path class="cls-4" d="M101.31,54.91v7.25h-1.22V46.65h5.56c3.06,0,4.68,1.64,4.68,4.08a3.52,3.52,0,0,1-2.9,3.63c1.59.38,2.66,1.42,2.66,4V59a10.67,10.67,0,0,0,.19,3.15h-1.21a10.31,10.31,0,0,1-.23-3.24v-.4c0-2.54-.75-3.61-3.72-3.61Zm0-1.1h3.75c2.72,0,4-1,4-3.06s-1.24-3-3.65-3h-4.08Z"/><path class="cls-4" d="M113.34,58c.47,2.06,1.84,3.28,4.39,3.28,2.83,0,3.92-1.42,3.92-3.1s-.78-2.84-4.19-3.68-4.7-1.88-4.7-4.12c0-2,1.49-3.94,4.81-3.94s4.85,2.08,5.05,4h-1.24c-.35-1.66-1.44-2.85-3.87-2.85-2.24,0-3.46,1-3.46,2.76s1,2.37,3.88,3.08c4.36,1.09,5,2.84,5,4.7,0,2.28-1.66,4.25-5.25,4.25-3.87,0-5.29-2.25-5.58-4.34Z"/><path class="cls-4" d="M134.65,54.54h-7.91v6.51h8.67l-.18,1.11h-9.68V46.65h9.5v1.11h-8.31v5.67h7.91Z"/><path class="cls-4" d="M32.54,69.08a1.12,1.12,0,1,1-1.11,1.11A1.12,1.12,0,0,1,32.54,69.08Zm-.92,1.11a.92.92,0,0,0,.93.94,1,1,0,0,0,.92-.93.91.91,0,0,0-.94-.93A.9.9,0,0,0,31.62,70.19Z"/><path class="cls-4" d="M32.32,70.3v.47h-.16V69.68h.44c.23,0,.35.12.35.29a.25.25,0,0,1-.18.26c.08,0,.16.09.16.28v0a.69.69,0,0,0,0,.21h-.15a.69.69,0,0,1,0-.23v0c0-.14,0-.21-.24-.21Zm0-.13h.23c.16,0,.23-.06.23-.18s-.07-.17-.21-.17h-.25Z"/></g></g></svg>