<svg xmlns="http://www.w3.org/2000/svg" viewBox="0 0 284.82 74.91"><defs><style>.cls-1{fill:#fff;}.cls-2{font-size:40.28px;font-family:Eurostile-Black-Italic, Eurostile-Black Italic;font-style:italic;letter-spacing:0.03em;}</style></defs><g id="Layer_2" data-name="Layer 2"><g id="svg4403"><path class="cls-1" d="M5.77,59.57c3,3.54,6.64,1.71,9.91,2.08.17,0,.51-.11.53-.22.84-4.33,4.69-2.51,7.15-3.4a36.6,36.6,0,0,1,6.41-1.16l-.06-1-22.12.92,0-.57,23.73-3.08c-4.55-4,.05-4.69,2.05-7L6.5,49.27l-.21-.77a6.35,6.35,0,0,1,1.53-.61C14.89,47.15,22,46.5,29,45.65c.82-.1,1.53-1.26,2.26-2,.56-.54,1.06-1.15,2.1-2.29v4l.7.29a7.75,7.75,0,0,0,1.24-2.47c.26-2.9.33-5.82.39-8.74,0-1.33-.33-2.22-2.12-2.09-7.17.5-14.35.82-21.53,1.23-2.21.12-4.4.39-6.61.41a6.18,6.18,0,0,1-2.16-.86l.27-.77c1.86,0,3.73.11,5.58,0,7.29-.49,14.58-1.09,21.88-1.59A2.7,2.7,0,0,0,33.91,28c.37-7.31-.7-14.29-5-20.4C25.63,3,21.93,1.79,15.9,2.9c2.92-2,6.44-2,10.24.12A18.07,18.07,0,0,1,35.5,17.77C36.66,31.38,38,45,36,58.73,34.23,71.1,22.36,75.9,12.17,72.23,7.32,70.48,5.64,67.28,5.77,59.57Z"/><path class="cls-1" d="M4.71,60.63a8.24,8.24,0,0,0,7.05,2.64c1.21-.07,2.39-.17,3.6-.15a2.48,2.48,0,0,0,1.65-.4c.55-.42.6-1,.82-1.58.6-1.7,2.73-1.23,4.16-1.35a21.94,21.94,0,0,0,3.21-.73c1.64-.37,3.32-.48,5-.74a1.5,1.5,0,0,0,1.1-1.45l-.06-1a1.52,1.52,0,0,0-1.5-1.5l-22.12.92,1.5,1.5L9,56.22l-1.5,1.5,23.73-3.08c1.17-.15,2.13-1.59,1.06-2.56-.39-.35-1.48-1.16-1.5-1.76,0-.27.26-.48.53-.71a33.88,33.88,0,0,0,3-2.44c.77-.86.33-2.73-1.06-2.57L6.5,47.77,8,48.87l-.21-.77-.69,1.69a12.41,12.41,0,0,1,4-.73l4-.4c2.8-.28,5.59-.56,8.39-.86,1.31-.15,2.63-.29,3.94-.45a6.55,6.55,0,0,0,3.27-.8,28.36,28.36,0,0,0,3.88-4.09L31.9,41.4v4A1.57,1.57,0,0,0,33,46.82l.71.29a1.49,1.49,0,0,0,1.69-.69A11.46,11.46,0,0,0,36.71,44a15.37,15.37,0,0,0,.3-3.18c.13-2.1.24-4.22.22-6.32a3.33,3.33,0,0,0-1.65-3.26c-1.61-.78-3.94-.19-5.64-.09-4.4.28-8.81.5-13.21.73-2.18.12-4.36.22-6.54.39-1.1.08-2.2.18-3.3.24a6.75,6.75,0,0,1-1.42,0,6.56,6.56,0,0,1-1.4-.65l.69,1.69L5,32.77l-1.45,1.1c5.78,0,11.5-.44,17.26-.87l8.71-.64c2-.14,4.22-.23,5.32-2.24s.66-4.77.56-6.85a36.13,36.13,0,0,0-1-7.17C33.31,11.73,31.15,7,27.73,4S19.9.68,15.5,1.46L16.66,4.2c6.75-4.37,14.62,3.44,16.55,9.62a24.71,24.71,0,0,1,.92,5.4c.21,2.44.42,4.87.61,7.3.37,4.7.67,9.41.76,14.13A121.87,121.87,0,0,1,35,54.82c-.37,3.67-.88,7.27-2.93,10.43-3.19,4.9-9.08,7.1-14.76,6.61-2.73-.24-6.12-1-8-3.15-2.11-2.38-2-6.17-2-9.14a1.5,1.5,0,0,0-3,0c0,3.34.07,7.14,2,10,1.7,2.61,4.57,3.92,7.49,4.66,6.55,1.64,13.9.16,18.72-4.73a18.42,18.42,0,0,0,4.84-9.35,84.35,84.35,0,0,0,1.25-15.64c0-5.37-.24-10.73-.63-16.08q-.31-4.14-.68-8.27a36.49,36.49,0,0,0-.86-6.34A19.64,19.64,0,0,0,29,3.05c-4.06-3-9.34-4.34-13.83-1.44A1.51,1.51,0,0,0,16.3,4.35c3.09-.55,6.38-.57,9,1.47,3,2.4,4.93,6.46,6,10.08A30.35,30.35,0,0,1,32.35,22a24.35,24.35,0,0,1,0,6.15,1.13,1.13,0,0,1-1,1,20.73,20.73,0,0,1-3.62.3c-2.49.17-5,.36-7.46.55-5.6.42-11.15.86-16.77.83A1.57,1.57,0,0,0,2.13,32l-.26.77a1.51,1.51,0,0,0,.69,1.7,12,12,0,0,0,2.16,1,9.34,9.34,0,0,0,2.64,0c1.9-.11,3.8-.29,5.7-.4l12-.64L30.92,34l2.87-.19c.1,0,.54.06.43,0s0,.13,0,.21a8.74,8.74,0,0,1,0,2.6c0,1-.06,1.94-.1,2.92S34,41.5,33.9,42.47a6,6,0,0,1-1.09,2.44l1.69-.69-.7-.3,1.1,1.45v-4a1.52,1.52,0,0,0-2.56-1.06c-.59.65-1.16,1.32-1.77,1.95s-1.11,1.54-1.76,1.86a5.94,5.94,0,0,1-1.74.23l-2,.23-4.19.45-7.9.8-3.94.41a10.14,10.14,0,0,0-3.52.93,1.52,1.52,0,0,0-.69,1.7l.2.77a1.51,1.51,0,0,0,1.45,1.1L33.32,47.6,32.26,45c-1.18,1.31-3,2-3.95,3.53-1.28,2.14.34,4.21,1.9,5.63l1.06-2.56L7.54,54.72c-.75.1-1.58.61-1.5,1.5l0,.57a1.52,1.52,0,0,0,1.5,1.5l22.12-.92-1.5-1.5.06,1,1.1-1.44c-1.44.23-2.9.34-4.33.61-1.07.2-2.09.66-3.17.76-1.73.16-3.53-.08-5.06.92A4.66,4.66,0,0,0,15,60.05c-.16.43-.52.78.22.36s.17-.29-.22-.31a14.79,14.79,0,0,0-1.63,0c-2.54.17-4.74.44-6.58-1.64C5.55,57.05,3.43,59.18,4.71,60.63Z"/><path class="cls-1" d="M30.44,15.85l1.32,3.75c-9.82,3.81-19.42.64-29.3-.07.39-.32.9-1,1.14-.91,6.38,2.2,12.74,0,19.09-.12C25.24,18.44,28.3,19.35,30.44,15.85Z"/><path class="cls-1" d="M29,16.25,30.32,20l1.05-1.85c-9.46,3.57-19.24.61-28.91-.12l1.06,2.56c.16-.15.43-.32.52-.5s.13-.15-.13,0-.31.21.23.26a8.73,8.73,0,0,0,2.1.45,25.36,25.36,0,0,0,4.36.28c3-.07,6-.6,9.07-.9,2.21-.21,4.42,0,6.61-.17a7,7,0,0,0,5.46-3.41c1.05-1.62-1.54-3.13-2.59-1.51-1.21,1.86-2.85,2-4.91,1.94a47,47,0,0,0-7.59.5,42.8,42.8,0,0,1-8.38.5,16.13,16.13,0,0,1-2.4-.34,17.6,17.6,0,0,0-2.07-.55c-1.07-.11-1.68.66-2.4,1.31A1.52,1.52,0,0,0,2.46,21c10,.75,20,3.69,29.7,0a1.53,1.53,0,0,0,1.05-1.85l-1.32-3.75C31.25,13.64,28.35,14.42,29,16.25Z"/><path class="cls-1" d="M1.63,25c10.31,1.53,20.46,1.11,30.45-2.37l.83,3.66c-2.5.21-4.84.49-7.19.59-5.6.24-11.19.54-16.79.52a50.1,50.1,0,0,1-7.43-1.1Z"/><path class="cls-1" d="M1.24,26.44c10.5,1.53,21.14,1.1,31.24-2.38l-1.85-1,.83,3.66,1.45-1.9c-5.11.44-10.21.74-15.34.94-2.63.09-5.27.16-7.9.17A46.51,46.51,0,0,1,1.9,24.84L3,26.29,3.13,25c.2-1.92-2.8-1.9-3,0L0,26.29a1.49,1.49,0,0,0,1.11,1.44A55.65,55.65,0,0,0,8.7,28.89c2.79.06,5.59-.06,8.38-.16,5.29-.19,10.55-.5,15.83-.95a1.53,1.53,0,0,0,1.45-1.89l-.83-3.67a1.52,1.52,0,0,0-1.85-1A62.89,62.89,0,0,1,2,23.55C.14,23.27-.67,26.16,1.24,26.44Z"/><path class="cls-1" d="M33.59,36.24l.32,2.23L5,41.33c.62-.69,1.13-1.76,1.71-1.8,6.7-.51,13.42-.72,20.11-1.31C29,38,31.17,37,33.59,36.24Z"/><path class="cls-1" d="M32.14,36.64l.33,2.23L33.91,37,5,39.83l1.06,2.56A9.54,9.54,0,0,1,7,41.22c.39-.32.66-.26,1.22-.3l3.93-.25c2.53-.15,5.07-.28,7.61-.44s5-.25,7.52-.56a38.12,38.12,0,0,0,6.75-2c1.83-.57,1-3.47-.8-2.89-2.36.74-4.61,1.78-7.1,2-2.78.24-5.56.41-8.34.57s-5.4.3-8.1.47a14.49,14.49,0,0,0-3.55.32c-1,.35-1.51,1.35-2.16,2.13S3.58,43,5,42.83L33.91,40a1.54,1.54,0,0,0,1.45-1.9L35,35.84C34.76,33.94,31.87,34.74,32.14,36.64Z"/><path class="cls-1" d="M11.18,15.05c4.12-.76,8.26-1.47,12.36-2.32,2.12-.44,3.46.33,4.55,2.53H11.22Z"/><path class="cls-1" d="M11.58,16.5c3.31-.62,6.63-1.19,9.93-1.84,1.07-.2,2.54-.73,3.54-.5.83.19,1.34,1.06,1.75,1.86l1.29-2.26H11.22l1.45,1.11,0-.22a1.52,1.52,0,0,0-1.85-1.05,1.55,1.55,0,0,0-1,1.85l0,.21a1.51,1.51,0,0,0,1.45,1.1H28.09a1.51,1.51,0,0,0,1.3-2.25,6.26,6.26,0,0,0-2.67-2.92,6.67,6.67,0,0,0-4.39-.14c-3.84.77-7.69,1.44-11.55,2.15a1.5,1.5,0,0,0,.8,2.9Z"/><path class="cls-1" d="M71.27,28.85l-.73,2.66h.16a3.56,3.56,0,0,1,.51-.62l.58-.59c.21-.16.43-.3.64-.44a7.49,7.49,0,0,1,.69-.36c.27-.11.53-.2.78-.28s.52-.15.79-.21l.74-.14.79-.1h.48c.35,0,.69,0,1,0s.62.07.89.12a3.91,3.91,0,0,1,.84.17l.81.24a1.75,1.75,0,0,1,.6.42,1.66,1.66,0,0,1,.36.62,2.43,2.43,0,0,1,.1.91,5.81,5.81,0,0,1-.14,1.11l.33-.08a4.93,4.93,0,0,1,.48-.91,8,8,0,0,1,.6-.78,4.35,4.35,0,0,1,.71-.65,3,3,0,0,1,.86-.44,5.19,5.19,0,0,1,.91-.32L86,29l.92-.14a8,8,0,0,1,1-.06,12.24,12.24,0,0,1,1.55.1,5.52,5.52,0,0,1,1.23.31,2.91,2.91,0,0,1,1,.46,3.47,3.47,0,0,1,.68.7,3.73,3.73,0,0,1,.38.89,4.35,4.35,0,0,1,.18,1.09,10.84,10.84,0,0,1-.08,1.33,10.38,10.38,0,0,1-.28,1.53L89.15,47.66H83l2.82-10.55c.05-.21.1-.44.14-.66s.07-.44.1-.63,0-.41.06-.6,0-.38,0-.57a1.37,1.37,0,0,0-.16-.44.84.84,0,0,0-.37-.32,2.45,2.45,0,0,0-.58-.2,3.12,3.12,0,0,0-.78-.08,4.88,4.88,0,0,0-1.37.2,5,5,0,0,0-.57.28,2.31,2.31,0,0,0-.48.36,4.41,4.41,0,0,0-.4.45,1.91,1.91,0,0,0-.33.52,5.5,5.5,0,0,0-.28.6,5.38,5.38,0,0,0-.2.65l-2.94,11H71.59l2.94-11.07c0-.22.1-.42.14-.61s.07-.37.1-.56V35.2a.34.34,0,0,1,0-.18v-.57a1.13,1.13,0,0,0-.14-.36.9.9,0,0,0-.3-.28,3.67,3.67,0,0,0-.55-.14,3.58,3.58,0,0,0-.7-.06,5.86,5.86,0,0,0-.75,0,2.84,2.84,0,0,0-.62.12,2.81,2.81,0,0,0-.58.2,2.16,2.16,0,0,0-.47.28,2.67,2.67,0,0,0-.44.38,2,2,0,0,0-.36.55,6.75,6.75,0,0,0-.33.66,5,5,0,0,0-.24.83l-2.94,11H60.27l5-18.81Z"/><path class="cls-1" d="M69.82,28.45l-.73,2.66A1.53,1.53,0,0,0,70.54,33c1.21,0,1.61-1.13,2.49-1.75a6.62,6.62,0,0,1,3.25-1,10.1,10.1,0,0,1,1.1,0,5.58,5.58,0,0,1,2.07.37c.54.3.38.75.28,1.34a1.51,1.51,0,0,0,1.84,1.84c1.58-.39,1.72-2.37,3.28-3s4.55-1.17,6,.05.19,4.1-.23,5.64L87.7,47.26l1.45-1.1H83l1.44,1.9L86,42.31a51.62,51.62,0,0,0,1.52-6.09c.3-2-.18-3.68-2.44-4a5,5,0,0,0-5.25,2.48c-1,1.76-1.28,4-1.79,5.92l-1.79,6.68,1.45-1.1H71.59L73,48.06c1-3.83,2.21-7.66,3-11.53.4-1.81.33-3.86-1.86-4.31a5.31,5.31,0,0,0-5.45,1.9c-1.15,1.73-1.48,4.38-2,6.34L65,47.26l1.44-1.1H60.27l1.45,1.9,5-18.81-1.45,1.1h6a1.5,1.5,0,0,0,0-3h-6a1.53,1.53,0,0,0-1.44,1.1l-5,18.81a1.52,1.52,0,0,0,1.45,1.9h6.12a1.52,1.52,0,0,0,1.45-1.1c1-3.54,1.91-7.08,2.84-10.63.25-.93.43-1.92,1.47-2.22a7.06,7.06,0,0,1,1.12-.1c.22,0,.75.26.24-.16s-.08-.25-.21,0a8.4,8.4,0,0,0-.24,1.27c-.45,1.79-.94,3.56-1.42,5.34l-1.5,5.65a1.52,1.52,0,0,0,1.45,1.9h6.12a1.53,1.53,0,0,0,1.45-1.1Q80.57,42.79,82,37.53a3.54,3.54,0,0,1,1-2.08,1.85,1.85,0,0,1,.88-.33,6.6,6.6,0,0,0,.77,0l.16,0c.28.11.23,0-.16-.24a9.87,9.87,0,0,0-.27,1.79c-.41,1.68-.89,3.35-1.34,5l-1.47,5.51A1.52,1.52,0,0,0,83,49.16h6.12a1.54,1.54,0,0,0,1.45-1.1l2.53-9.46c.32-1.2.7-2.4.94-3.62a7.76,7.76,0,0,0-.27-5,5.06,5.06,0,0,0-4-2.58c-3.7-.6-8,.48-9.61,4.13l.9-.69-.32.08,1.84,1.85c.3-1.68.33-3.53-1.28-4.57a9,9,0,0,0-4.7-1,8.73,8.73,0,0,0-7.23,3.48L70.7,30h-.16L72,31.91l.72-2.66A1.5,1.5,0,0,0,69.82,28.45Z"/><path class="cls-1" d="M97.14,35a16.15,16.15,0,0,1,.83-1.9,11,11,0,0,1,1-1.49,6,6,0,0,1,1.12-1.08,7,7,0,0,1,1.37-.77,13,13,0,0,1,1.7-.56,17.57,17.57,0,0,1,2-.33,21.2,21.2,0,0,1,2.33-.12c.86,0,1.66,0,2.38.08a13.61,13.61,0,0,1,2,.29,7.65,7.65,0,0,1,1.59.44,8.17,8.17,0,0,1,1.22.6,2.34,2.34,0,0,1,.81,1,4.05,4.05,0,0,1,.32,1.55,8.61,8.61,0,0,1-.08,2.05,19,19,0,0,1-.56,2.58c-.24.92-.49,1.76-.75,2.54s-.53,1.5-.82,2.17c-.11.22-.21.43-.3.65a6.71,6.71,0,0,1-.31.6c-.19.38-.38.73-.58,1.07a11.18,11.18,0,0,1-.63.95,4.7,4.7,0,0,1-1.22,1.12,6.8,6.8,0,0,1-1.8.81,13.75,13.75,0,0,1-2.33.42,26.6,26.6,0,0,1-2.94.14c-.84,0-1.61,0-2.32-.08s-1.37-.12-2-.2a11.45,11.45,0,0,1-1.57-.46,4.32,4.32,0,0,1-1.17-.63,2.5,2.5,0,0,1-.83-1A4.11,4.11,0,0,1,95.23,44a12.49,12.49,0,0,1,.1-2,21.85,21.85,0,0,1,.5-2.55l.61-2.14C96.65,36.47,96.89,35.71,97.14,35Zm4.94,4.14a7.58,7.58,0,0,0-.24,1,7.24,7.24,0,0,0-.12.81,4.61,4.61,0,0,0,0,.72c0,.22,0,.42.07.61a1.41,1.41,0,0,0,.26.5,1.14,1.14,0,0,0,.5.34,2,2,0,0,0,.73.22,7.46,7.46,0,0,0,1,.06,7.69,7.69,0,0,0,.85,0,3.11,3.11,0,0,0,.76-.16,3.64,3.64,0,0,0,.63-.3,1.89,1.89,0,0,0,.5-.42,3.39,3.39,0,0,0,.4-.49,3.26,3.26,0,0,0,.37-.64c.1-.21.2-.46.3-.73s.19-.55.3-.84a.24.24,0,0,1,0-.08.31.31,0,0,0,0-.08.19.19,0,0,1,0-.08.31.31,0,0,0,0-.08.64.64,0,0,0,.06-.16,1,1,0,0,0,0-.17.09.09,0,0,0,0-.08V39a.09.09,0,0,0,0-.08.14.14,0,0,1,0-.06s0,0,0-.06v-.08s0,0,0-.08a.24.24,0,0,1,0-.08l.06-.08a.88.88,0,0,1,0-.16l.06-.16a.19.19,0,0,1,0-.08.13.13,0,0,0,0-.08.19.19,0,0,1,0-.08.16.16,0,0,0,0-.09.12.12,0,0,1,0-.08v-.08a.22.22,0,0,1,0-.1.21.21,0,0,1,.06-.1v-.08a.12.12,0,0,1,0-.08v-.08a.1.1,0,0,1,0-.08,8.58,8.58,0,0,0,.18-.91c0-.28.07-.54.1-.78a4.94,4.94,0,0,0,0-.65,2.82,2.82,0,0,0-.1-.52,1.2,1.2,0,0,0-.28-.38,1.67,1.67,0,0,0-.53-.3,2.76,2.76,0,0,0-.68-.19,6.41,6.41,0,0,0-.93-.06,6.89,6.89,0,0,0-1,.08,4.52,4.52,0,0,0-.88.25,3.18,3.18,0,0,0-.69.36,1.83,1.83,0,0,0-.48.48,5.58,5.58,0,0,0-.38.65c-.12.24-.24.49-.35.76s-.21.56-.32.87-.21.64-.32,1l-.12.49Z"/><path class="cls-1" d="M98.59,35.41a6.88,6.88,0,0,1,3.59-4.31,14.9,14.9,0,0,1,5.7-.83c1.81,0,4.2,0,5.77,1.05,1.34.89.58,3.67.26,4.94a30.16,30.16,0,0,1-2.06,6c-.87,1.77-1.79,3.12-3.78,3.63a20.94,20.94,0,0,1-6.27.39c-1.38-.07-4.19-.05-4.89-1.55a5.6,5.6,0,0,1,0-3,19.42,19.42,0,0,1,.51-2.26c.37-1.37.74-2.76,1.22-4.1.65-1.82-2.25-2.6-2.89-.79-.51,1.42-.91,2.9-1.31,4.37-.57,2.16-1.14,4.88-.18,7,1.07,2.38,3.92,3,6.27,3.2a27.66,27.66,0,0,0,7.76-.27,8,8,0,0,0,5.76-4.3,31.77,31.77,0,0,0,2.76-7.39c.59-2.26,1.15-5.33-.32-7.38s-4.61-2.37-6.86-2.52a19.41,19.41,0,0,0-8.5,1c-2.82,1.15-4.35,3.54-5.38,6.29C95,36.43,97.92,37.21,98.59,35.41Z"/><path class="cls-1" d="M100.63,38.77c-.4,1.32-.75,3.08-.12,4.39.72,1.5,2.51,1.77,4,1.73a4.92,4.92,0,0,0,4.08-2,7.57,7.57,0,0,0,.92-1.87,8.65,8.65,0,0,0,.51-1.89l-.2.76a2,2,0,0,0,.24-.92l-.2.76a2.22,2.22,0,0,0,.28-1l-.2.76c.07-.14.13-.29.19-.44-.12.32-.09.26.08-.16,0-.42,0-.53.08-.32l0-.17c0-.14,0-.11-.07.12a1.52,1.52,0,0,0,.21-.76c-.18.6-.17.64,0,.12a2,2,0,0,0,.06-.48l-.21.76a2,2,0,0,0,.25-.92l-.21.76a7.54,7.54,0,0,0,.55-2.79,2.87,2.87,0,0,0-1.36-2.75,6.27,6.27,0,0,0-5-.21A4.28,4.28,0,0,0,102.36,34a11.85,11.85,0,0,0-1,2.4c-.28.79-.48,1.59-.69,2.4a1.5,1.5,0,1,0,2.89.79c.13-.47.24-.94.37-1.41a15.57,15.57,0,0,1,.64-1.85c0,.13.12-.27.12-.26s.14-.29.22-.42.16-.31.32-.42a2.57,2.57,0,0,1,.46-.21l.45-.11.16,0h0a7.85,7.85,0,0,1,1,0c.06,0,.47,0,.19,0a2.16,2.16,0,0,1,.44.1l.13,0c.14,0,.15.06,0,0l-.11-.15a.08.08,0,0,1,0-.08,1.77,1.77,0,0,1,0,.23c0,.14,0,.28,0,.42l-.06.46c0-.22,0,.29,0,.27s-.08.58,0,.28a3.33,3.33,0,0,0-.2.84l.2-.76a2,2,0,0,0-.24.92l.2-.75a2,2,0,0,0-.28,1l.2-.75a4.72,4.72,0,0,0-.41,1.48l.21-.76c-.09.12-.3.67-.17.34.07-.16.06-.13,0,.08a1.15,1.15,0,0,0-.13.58,1.49,1.49,0,0,1,.13-.47,2,2,0,0,0-.21.83l.21-.75a6.21,6.21,0,0,0-.42,1.26c-.09.25-.17.5-.27.75l-.07.19c0-.12-.1.21-.11.23a2,2,0,0,1-.7.91,2.48,2.48,0,0,1-.76.24,7.91,7.91,0,0,1-1.46,0c.09,0-.45-.1-.2,0-.5-.12,0,0-.08,0s0,0,0,0-.06-.08,0,.11c.06.43,0,0,0-.13a2.83,2.83,0,0,1,0-.29c0-.12,0-.24,0-.36s0-.32,0-.19,0-.29,0-.28l.06-.32c.06-.28.13-.55.21-.82a1.51,1.51,0,0,0-1-1.84A1.53,1.53,0,0,0,100.63,38.77Z"/><path class="cls-1" d="M119.46,35a16.17,16.17,0,0,1,.82-1.9,11,11,0,0,1,1-1.49,5.73,5.73,0,0,1,1.13-1.08,6.68,6.68,0,0,1,1.37-.77,12.87,12.87,0,0,1,1.69-.56,18.33,18.33,0,0,1,2-.33,21.52,21.52,0,0,1,2.34-.12c.86,0,1.65,0,2.38.08a13.47,13.47,0,0,1,2,.29,7.65,7.65,0,0,1,1.59.44,8.83,8.83,0,0,1,1.23.6,2.25,2.25,0,0,1,.8,1,4.24,4.24,0,0,1,.33,1.55,9.8,9.8,0,0,1-.08,2.05,19.09,19.09,0,0,1-.57,2.58c-.24.92-.49,1.76-.74,2.54s-.53,1.5-.83,2.17c-.11.22-.21.43-.3.65s-.2.42-.3.6c-.19.38-.39.73-.59,1.07s-.41.65-.62.95a4.59,4.59,0,0,1-1.23,1.12,6.88,6.88,0,0,1-1.79.81,13.69,13.69,0,0,1-2.34.42,26.6,26.6,0,0,1-2.94.14c-.83,0-1.6,0-2.32-.08s-1.37-.12-2-.2a11.89,11.89,0,0,1-1.57-.46,4.32,4.32,0,0,1-1.17-.63,2.48,2.48,0,0,1-.82-1,4.11,4.11,0,0,1-.39-1.49,13.72,13.72,0,0,1,.1-2,22,22,0,0,1,.51-2.55l.6-2.14C119,36.47,119.2,35.71,119.46,35Zm4.93,4.14a7.58,7.58,0,0,0-.24,1,7.24,7.24,0,0,0-.12.81,3.57,3.57,0,0,0,0,.72,5.48,5.48,0,0,0,.06.61,1.41,1.41,0,0,0,.26.5,1.14,1.14,0,0,0,.5.34,2,2,0,0,0,.73.22,7.52,7.52,0,0,0,1,.06,7.63,7.63,0,0,0,.84,0,3.19,3.19,0,0,0,.77-.16,3.93,3.93,0,0,0,.62-.3,1.89,1.89,0,0,0,.5-.42,4.24,4.24,0,0,0,.41-.49,3.84,3.84,0,0,0,.36-.64,5,5,0,0,0,.3-.73c.1-.26.2-.55.3-.84a.24.24,0,0,1,0-.08.16.16,0,0,0,0-.08.19.19,0,0,1,0-.08.16.16,0,0,0,0-.08l.06-.16a1,1,0,0,0,0-.17.12.12,0,0,0,0-.08V39a.12.12,0,0,0,0-.08.07.07,0,0,1,0-.06.08.08,0,0,0,0-.06v-.08a.1.1,0,0,1,0-.08.12.12,0,0,1,0-.08.21.21,0,0,1,.06-.08.44.44,0,0,1,0-.16.52.52,0,0,1,.06-.16.11.11,0,0,1,0-.08.31.31,0,0,0,0-.08.11.11,0,0,1,0-.08.29.29,0,0,0,0-.09.12.12,0,0,1,0-.08v-.08a.22.22,0,0,1,0-.1.21.21,0,0,1,.06-.1v-.08a.12.12,0,0,1,0-.08v-.08a.1.1,0,0,1,0-.08,8.58,8.58,0,0,0,.18-.91c0-.28.07-.54.1-.78a2.91,2.91,0,0,0,0-.65,2.18,2.18,0,0,0-.1-.52,1.07,1.07,0,0,0-.28-.38,1.73,1.73,0,0,0-.52-.3,2.85,2.85,0,0,0-.69-.19,6.41,6.41,0,0,0-.93-.06,6.76,6.76,0,0,0-1,.08,4.43,4.43,0,0,0-.89.25,2.88,2.88,0,0,0-.68.36,2,2,0,0,0-.49.48,5.58,5.58,0,0,0-.38.65c-.12.24-.23.49-.34.76s-.22.56-.32.87-.22.64-.33,1l-.12.49Z"/><path class="cls-1" d="M120.9,35.41a6.9,6.9,0,0,1,3.6-4.31,14.84,14.84,0,0,1,5.69-.83c1.81,0,4.21,0,5.78,1.05,1.34.89.57,3.67.25,4.94a30.78,30.78,0,0,1-2.05,6c-.87,1.77-1.79,3.12-3.79,3.63a20.94,20.94,0,0,1-6.27.39c-1.37-.07-4.19-.05-4.89-1.55a5.61,5.61,0,0,1,0-3,17.53,17.53,0,0,1,.5-2.26c.38-1.37.74-2.76,1.22-4.1.66-1.82-2.24-2.6-2.89-.79-.51,1.42-.91,2.9-1.3,4.37-.58,2.16-1.15,4.88-.19,7,1.07,2.38,3.92,3,6.27,3.2a27.64,27.64,0,0,0,7.76-.27,8,8,0,0,0,5.76-4.3,31.77,31.77,0,0,0,2.76-7.39c.59-2.26,1.16-5.33-.31-7.38s-4.61-2.37-6.87-2.52a19.45,19.45,0,0,0-8.5,1c-2.82,1.15-4.34,3.54-5.38,6.29C117.33,36.43,120.23,37.21,120.9,35.41Z"/><path class="cls-1" d="M122.94,38.77c-.39,1.32-.75,3.08-.12,4.39.72,1.5,2.51,1.77,4,1.73a4.92,4.92,0,0,0,4.07-2,7.23,7.23,0,0,0,.92-1.87,8.67,8.67,0,0,0,.52-1.89l-.21.76a1.87,1.87,0,0,0,.25-.92l-.21.76a2.23,2.23,0,0,0,.29-1l-.21.76a3.43,3.43,0,0,0,.19-.44c-.11.32-.09.26.08-.16,0-.42,0-.53.08-.32l0-.17c.05-.14,0-.11-.07.12a1.43,1.43,0,0,0,.21-.76q-.27.9,0,.12a2,2,0,0,0,.05-.48l-.21.76a1.87,1.87,0,0,0,.25-.92l-.21.76a7.16,7.16,0,0,0,.55-2.79,2.85,2.85,0,0,0-1.36-2.75,6.27,6.27,0,0,0-5-.21A4.28,4.28,0,0,0,124.67,34a11.85,11.85,0,0,0-1,2.4c-.28.79-.47,1.59-.69,2.4a1.5,1.5,0,0,0,2.9.79c.12-.47.23-.94.36-1.41a15.57,15.57,0,0,1,.64-1.85c0,.13.13-.27.12-.26s.14-.29.22-.42.16-.31.33-.42A2.07,2.07,0,0,1,128,35l.45-.11.16,0h0a7.85,7.85,0,0,1,1,0c.07,0,.47,0,.19,0a2.16,2.16,0,0,1,.44.1l.13,0c.14,0,.16.06.05,0l-.11-.15a.08.08,0,0,1,0-.08,1.77,1.77,0,0,1,0,.23,3,3,0,0,1,0,.42c0,.15,0,.3-.05.46,0-.22-.06.29,0,.27s-.08.58,0,.28a3.33,3.33,0,0,0-.2.84l.2-.76a2,2,0,0,0-.24.92l.2-.75a2,2,0,0,0-.28,1L130,37a4.46,4.46,0,0,0-.4,1.48l.2-.76c-.09.12-.29.67-.16.34.07-.16.06-.13,0,.08a1.06,1.06,0,0,0-.13.58,1.48,1.48,0,0,1,.12-.47,2,2,0,0,0-.2.83l.2-.75a6.89,6.89,0,0,0-.42,1.26c-.08.25-.17.5-.26.75l-.08.19-.11.23a2,2,0,0,1-.69.91,2.54,2.54,0,0,1-.77.24,7.91,7.91,0,0,1-1.46,0c.1,0-.45-.1-.2,0-.5-.12,0,0-.07,0s0,0,0,0-.06-.08,0,.11c.06.43,0,0,0-.13a2.83,2.83,0,0,1,0-.29c0-.12,0-.24,0-.36s0-.32,0-.19,0-.29,0-.28,0-.21.07-.32a7.58,7.58,0,0,1,.21-.82,1.5,1.5,0,0,0-2.9-.79Z"/><path class="cls-1" d="M149.73,28.85l-.93,3.43H149c.19-.3.38-.57.58-.83s.41-.5.63-.74a5.89,5.89,0,0,1,.7-.61,5.05,5.05,0,0,1,.79-.48,4.64,4.64,0,0,1,.78-.36,8.87,8.87,0,0,1,.87-.29l.89-.14a7.06,7.06,0,0,1,1-.06,11.75,11.75,0,0,1,1.37.08,8.62,8.62,0,0,1,1.21.25,5.65,5.65,0,0,1,1,.38,3.64,3.64,0,0,1,.82.54,2.47,2.47,0,0,1,.59.77,3.08,3.08,0,0,1,.3,1,4.88,4.88,0,0,1,0,1.21,11.65,11.65,0,0,1-.28,1.49l-3.51,13.17h-6.12l2.94-11a1.71,1.71,0,0,0,.1-.51q0-.25.06-.54v-.36c0-.11,0-.22,0-.34a.81.81,0,0,0,0-.35,1.1,1.1,0,0,0-.14-.42.78.78,0,0,0-.3-.3,1.94,1.94,0,0,0-.46-.2,2,2,0,0,0-.63-.08,4.93,4.93,0,0,0-.78.06,6.38,6.38,0,0,0-.71.14l-.66.24a4.68,4.68,0,0,0-.63.32,2.78,2.78,0,0,0-.52.4,3.19,3.19,0,0,0-.44.57,3.58,3.58,0,0,0-.37.64,6.35,6.35,0,0,0-.28.81l-2.9,10.95h-6.12l5-18.81Z"/><path class="cls-1" d="M148.28,28.45l-.93,3.43a1.52,1.52,0,0,0,1.45,1.9c1.59,0,2-1.77,3.17-2.56a6.12,6.12,0,0,1,3.8-.93c1.21.05,3.15.3,3.32,1.78a6.39,6.39,0,0,1-.33,2.29c-.83,3.19-1.69,6.37-2.54,9.55l-.89,3.35,1.44-1.1h-6.12l1.45,1.9c1-3.67,2.07-7.33,2.94-11,.44-1.9.43-4.21-1.79-4.87A5.84,5.84,0,0,0,147,34.8c-1,1.71-1.26,4-1.75,5.85l-1.75,6.61,1.44-1.1h-6.12l1.45,1.9,4.4-16.43.63-2.38-1.45,1.1h5.89a1.5,1.5,0,0,0,0-3h-5.89a1.53,1.53,0,0,0-1.44,1.1L138,44.89l-.64,2.37a1.52,1.52,0,0,0,1.45,1.9h6.12a1.52,1.52,0,0,0,1.45-1.1c.93-3.52,1.85-7,2.79-10.56a2.82,2.82,0,0,1,2-2.33c.25-.07,1.19,0,1.32-.12l.1.05-.23-.23c-.09.09,0,.21-.07.35-.09.33,0,.74-.13,1.09-.42,1.79-.94,3.56-1.42,5.33l-1.49,5.62a1.51,1.51,0,0,0,1.44,1.9h6.12a1.52,1.52,0,0,0,1.45-1.1l2.51-9.44c.33-1.24.68-2.47,1-3.71a7.15,7.15,0,0,0,0-4.57,5.34,5.34,0,0,0-4.05-2.83,10.06,10.06,0,0,0-5.65.36,8.88,8.88,0,0,0-4.24,3.65l1.29-.74h-.24l1.45,1.9.92-3.43A1.5,1.5,0,0,0,148.28,28.45Z"/><path class="cls-1" d="M186.46,47.66H177.6l.92-13.41h-.2l-6.16,13.41h-8.94l1.61-18.81h5.92l-1.81,14.54h.28l7-14.54h7.17l-.81,14.54h.32L189,28.85h5.8Z"/><path class="cls-1" d="M186.46,46.16H177.6l1.5,1.5L180,34.25a1.51,1.51,0,0,0-1.5-1.5h-.2a1.47,1.47,0,0,0-1.29.74l-6.17,13.42,1.3-.75h-8.94l1.5,1.5,1.61-18.81-1.5,1.5h5.92l-1.5-1.5-1.81,14.54a1.51,1.51,0,0,0,1.5,1.5h.28a1.46,1.46,0,0,0,1.29-.74l7-14.54-1.29.74h7.17l-1.5-1.5-.81,14.54a1.52,1.52,0,0,0,1.5,1.5h.32a1.57,1.57,0,0,0,1.45-1.1l6-14.54L189,30.35h5.8l-1.3-2.25-8.3,18.81c-.77,1.75,1.82,3.27,2.59,1.51l8.3-18.81a1.52,1.52,0,0,0-1.29-2.26H189a1.57,1.57,0,0,0-1.45,1.1l-6,14.54,1.44-1.1h-.32l1.5,1.5.81-14.54a1.52,1.52,0,0,0-1.5-1.5h-7.17a1.49,1.49,0,0,0-1.3.75l-7,14.54,1.3-.75h-.28l1.5,1.5,1.81-14.54a1.52,1.52,0,0,0-1.5-1.5h-5.92a1.54,1.54,0,0,0-1.5,1.5l-1.61,18.81a1.51,1.51,0,0,0,1.5,1.5h8.94a1.45,1.45,0,0,0,1.29-.74L179.62,35l-1.3.74h.2l-1.5-1.5-.92,13.41a1.51,1.51,0,0,0,1.5,1.5h8.86A1.5,1.5,0,0,0,186.46,46.16Z"/><path class="cls-1" d="M196.57,34.45a13.57,13.57,0,0,1,.64-1.81,6.44,6.44,0,0,1,.85-1.41,4.75,4.75,0,0,1,1-1,4.19,4.19,0,0,1,1.23-.62,11.1,11.1,0,0,1,1.35-.34q.71-.15,1.47-.27l1.57-.14q.81-.06,1.65-.06c.65,0,1.27,0,1.86.08s1.15.12,1.69.2,1,.19,1.51.31a9,9,0,0,1,1.27.42,2.45,2.45,0,0,1,1,.77,3,3,0,0,1,.53,1.2,5.78,5.78,0,0,1,.08,1.7,12.86,12.86,0,0,1-.4,2.13l-3.23,12.08H204.5l1-2.78h-.24a4.42,4.42,0,0,1-.39.75,3.09,3.09,0,0,1-.46.58,3,3,0,0,1-.52.49,5.15,5.15,0,0,1-.61.36c-.24.11-.47.2-.7.28a6.3,6.3,0,0,1-.67.2l-.42.08a2.32,2.32,0,0,1-.46,0l-.22,0a.86.86,0,0,1-.23,0h-.3l-.06,0H200s-.05,0-.08,0h-.74a.56.56,0,0,0-.15,0h-.44a9.14,9.14,0,0,1-1.33-.08l-1.17-.16a4.1,4.1,0,0,1-1-.36,4.51,4.51,0,0,1-.79-.52,2.87,2.87,0,0,1-.58-.73,2.68,2.68,0,0,1-.3-.93,4.77,4.77,0,0,1,0-1.2,8.17,8.17,0,0,1,.26-1.41,17.81,17.81,0,0,1,.6-1.71,7.85,7.85,0,0,1,.73-1.39,5.84,5.84,0,0,1,.88-1.07,4.21,4.21,0,0,1,1.05-.75,6.31,6.31,0,0,1,1.19-.52c.41-.13.85-.26,1.31-.36a10.44,10.44,0,0,1,1.45-.24,13.7,13.7,0,0,1,1.61-.09h.68l.61.07.56.06.38.08.35.08.18.06a.64.64,0,0,1,.18.06,1.21,1.21,0,0,1,.48.24,2,2,0,0,1,.36.36,2.39,2.39,0,0,1,.29.46,2.13,2.13,0,0,1,.16.59l.28-.08.93-3.42a5.2,5.2,0,0,0,.1-.59c0-.17,0-.34,0-.5a3.92,3.92,0,0,0-.1-.43.77.77,0,0,0-.19-.3,1.46,1.46,0,0,0-.3-.22,1.3,1.3,0,0,0-.42-.14,3.61,3.61,0,0,0-.54-.12,4.35,4.35,0,0,0-.63,0l-.6,0a4.08,4.08,0,0,0-.53.06,2.58,2.58,0,0,0-.48.12l-.4.16a1.41,1.41,0,0,0-.32.24,1.76,1.76,0,0,0-.29.37A2.25,2.25,0,0,0,203,34a3,3,0,0,0-.2.58v-.08Zm3.28,8.14a2.5,2.5,0,0,0,0,.56.62.62,0,0,0,.18.36,1,1,0,0,0,.38.21,3.77,3.77,0,0,1,.43.1l.46.1a4.26,4.26,0,0,0,.54,0h.59l.56,0,.57-.06.5-.1.54-.14a1.94,1.94,0,0,0,.47-.25,1.85,1.85,0,0,0,.38-.36,1.72,1.72,0,0,0,.34-.48,2.75,2.75,0,0,0,.22-.65v0a.2.2,0,0,1,0-.08v-.12a.31.31,0,0,1,0-.08.12.12,0,0,0,0-.08v-.12a.32.32,0,0,0,0-.16v-.3a.12.12,0,0,0,0-.1l-.06-.15a.21.21,0,0,0-.06-.1l-.08-.06a.21.21,0,0,1-.08-.06.12.12,0,0,1-.08,0,.21.21,0,0,1-.08-.06.4.4,0,0,0-.18-.1.48.48,0,0,1-.18-.06.2.2,0,0,1-.1,0l-.1,0a.2.2,0,0,0-.08,0h-.23a.13.13,0,0,1-.1,0l-.12,0-.12,0h-.24a.1.1,0,0,1-.08,0h-1l-.54,0a3.8,3.8,0,0,0-.5.06l-.53.1a3.81,3.81,0,0,0-.44.14,1.67,1.67,0,0,0-.42.22,1.3,1.3,0,0,0-.31.35,2,2,0,0,0-.26.46,4,4,0,0,0-.18.58v-.08A3.1,3.1,0,0,0,199.85,42.59Z"/><path class="cls-1" d="M198,34.85c.41-1.39,1-3.06,2.43-3.72a13.9,13.9,0,0,1,5.08-.84,19.33,19.33,0,0,1,5.31.47c.65.16,1.42.28,1.74.92a3.94,3.94,0,0,1,.09,2.38c-.57,3.18-1.65,6.32-2.48,9.43l-1,3.77,1.44-1.1H204.5l1.45,1.9,1-2.78a1.52,1.52,0,0,0-1.45-1.9h-.24a1.49,1.49,0,0,0-1.3.75,3.34,3.34,0,0,1-2.93,2c-.5.06-1,.2-1.5.25,0,0,.92-.11.49-.17a1.48,1.48,0,0,0-.76.21l.6-.17c-.14-.11-.93,0-1.06.06.37,0,0,0-.1,0a6.77,6.77,0,0,1-.78,0c-1.37-.08-3-.3-3-2a8.24,8.24,0,0,1,1.41-4.23A5.54,5.54,0,0,1,200,38a12.33,12.33,0,0,1,3-.24c.86,0,2.1,0,2.3,1a1.53,1.53,0,0,0,1.85,1.05c1.32-.38,1.42-1.49,1.74-2.65a10.36,10.36,0,0,0,.66-3.59c-.23-2.07-2.31-2.64-4.11-2.54a4.1,4.1,0,0,0-4.09,3.1l3,.4v-.08a1.52,1.52,0,0,0-1.5-1.5h-6.2a1.5,1.5,0,0,0,0,3h6.2l-1.5-1.5v.08a1.51,1.51,0,0,0,2.95.4,1.64,1.64,0,0,1,.33-.69c.11-.14-.38.1.11-.07A3.53,3.53,0,0,1,206,34a2.76,2.76,0,0,1,.64.1c.11,0-.12-.18-.12-.18a1.76,1.76,0,0,1-.11.64c-.26,1.11-.59,2.2-.89,3.3l1-1.05-.28.08L208.16,38c-.52-2.68-3.31-3.17-5.63-3.16-3.33,0-6.89.84-8.83,3.77-1.62,2.44-2.95,6.89-.45,9.19a7.54,7.54,0,0,0,5,1.56c.41,0,.79,0,1.19,0-.32,0,0,0,.16,0a3.13,3.13,0,0,0,.53,0c.2,0,1-.36.26-.1-.47.18-.34.06-.18.08a1.29,1.29,0,0,0,.58-.13c.61-.18-.8,0-.32.09a5.16,5.16,0,0,0,1.83-.21,5.94,5.94,0,0,0,4.24-3.35l-1.29.74h.24L204,44.49l-1,2.77a1.5,1.5,0,0,0,1.44,1.9h6.12a1.52,1.52,0,0,0,1.45-1.1l2.78-10.41c.54-2,1.25-4.18.76-6.3s-2.18-3.07-4.16-3.53a23.15,23.15,0,0,0-6.1-.53c-2.17.1-4.81.26-6.73,1.42a8.82,8.82,0,0,0-3.5,5.34A1.5,1.5,0,0,0,198,34.85Z"/><path class="cls-1" d="M198.35,42.59a2.86,2.86,0,0,0,.33,1.6,2.43,2.43,0,0,0,1.56,1,9,9,0,0,0,2.83.22,5.49,5.49,0,0,0,2.86-.81,3.71,3.71,0,0,0,1.6-2.76l-.2.76a2.43,2.43,0,0,0,.22-.64c-.05.37,0-.24,0-.24s-.08.73,0-.24c0-.21,0,.18,0,.2a5.83,5.83,0,0,0,.06-.72,1.85,1.85,0,0,0-.06-.52l-.15-.36c-.05-.08,0-.05,0,.07l0-.07a2.44,2.44,0,0,0-.1-.24,1.42,1.42,0,0,0-.42-.46,2.34,2.34,0,0,0-.31-.24l-.36-.15c.49.31.58.35.29.14a2.2,2.2,0,0,0-.77-.37,1,1,0,0,0-.44-.07l.3,0c-.17,0-.34-.06-.5-.08l.75.21a1.56,1.56,0,0,0-.89-.25c-.26,0-.1,0,.49.17a1.12,1.12,0,0,0-.56-.18c-.29,0-.26,0,.08,0a1.63,1.63,0,0,0-.45-.06h-.31l.76.21a3.72,3.72,0,0,0-1.81-.25,8.32,8.32,0,0,0-1.92.22,3.46,3.46,0,0,0-1.74.92,4.36,4.36,0,0,0-1,1.9l3,.39v-.08a1.51,1.51,0,0,0-3-.4,6.2,6.2,0,0,0-.19,1.13,1.51,1.51,0,0,0,1.5,1.5,1.54,1.54,0,0,0,1.5-1.5c0-.32-.09.34,0,0l.09-.33-2.95-.4v.08a1.5,1.5,0,0,0,2.95.4,2,2,0,0,1,.18-.58c-.08.17-.09.21,0,.11l.09-.13c.05-.08.27-.33,0,0,.09-.09.09-.09,0,0s-.11.09,0,0,.11-.06,0,0-.11,0,0,0,.37-.12.56-.16l.32-.05c.3,0-.33,0,0,0l.64,0h1l-.76-.2a2.08,2.08,0,0,0,1,.24c.23,0-.17,0-.2,0a4.34,4.34,0,0,1,.52.07l-.75-.2a1.91,1.91,0,0,0,1.08.24l-.76-.2.44.19c.49.06.53.07.1,0,.23,0,.77.17.18,0,.19.06.14,0-.14-.11s-.32-.19.06.09a1.19,1.19,0,0,0,.44.21c-.22-.1-.26-.1-.11,0l-.54-.54c.11.14-.06-.18-.07-.19s.13.42.19.43-.14-.79-.17-.51c0,.06,0,.31,0,0s0,.3,0,.31,0,0,0-.1,0-.17,0-.09a1.51,1.51,0,0,0-.07.56l.21-.75a2.69,2.69,0,0,0-.19.43s-.09.69,0,.28,0-.06,0,0-.1.26,0,0l0,.08a1.2,1.2,0,0,0-.11.17s.19-.23,0-.08l-.18.19c-.1.14.21-.12.05,0a1.42,1.42,0,0,0-.22.13c0-.06.29-.09.05,0l-.22.06-.47.11-.19,0c-.19,0,.37,0,0,0s-.64,0-1,0h-.53a.62.62,0,0,0-.23,0c.06,0,.32.07.08,0l-.51-.12-.21,0c-.17,0,.25.17.06,0a1.22,1.22,0,0,1,.31.33c0,.06.12.32.07.11,0,.12,0,.35,0,.09,0-.08,0-.17,0-.25a1.5,1.5,0,0,0-1.5-1.5A1.53,1.53,0,0,0,198.35,42.59Z"/><path class="cls-1" d="M221.66,47.66h-6.12l7.17-26.86h6.12Z"/><path class="cls-1" d="M221.66,46.16h-6.12l1.44,1.9,6.27-23.49.9-3.37-1.44,1.1h6.12l-1.45-1.9-6.27,23.49-.9,3.37a1.51,1.51,0,0,0,2.9.8l6.27-23.49.9-3.37a1.52,1.52,0,0,0-1.45-1.9h-6.12a1.52,1.52,0,0,0-1.45,1.1L215,43.89l-.9,3.37a1.52,1.52,0,0,0,1.45,1.9h6.12A1.5,1.5,0,0,0,221.66,46.16Z"/><path class="cls-1" d="M236.08,35.94h1.09l5.63-7.09h6.77l-7.73,9,3.91,9.78h-7.17L236.12,40H235L233,47.66h-6.13L234,20.8h6.13Z"/><path class="cls-1" d="M236.08,37.44c.91,0,1.69.05,2.33-.67s1.26-1.58,1.88-2.36l3.58-4.5-1.07.44h6.77l-1.06-2.56-7.73,9a1.5,1.5,0,0,0-.39,1.46l3.91,9.79,1.45-1.9h-7.17l1.44,1.1-2.45-7.69a1.55,1.55,0,0,0-1.45-1.1H235a1.52,1.52,0,0,0-1.44,1.1l-2.06,7.69,1.45-1.1h-6.13l1.45,1.9,6.27-23.49.9-3.37L234,22.3h6.13l-1.45-1.9-4.07,15.14a1.5,1.5,0,0,0,2.89.8l4.07-15.14a1.51,1.51,0,0,0-1.44-1.9H234a1.52,1.52,0,0,0-1.44,1.1l-6.27,23.49-.9,3.37a1.51,1.51,0,0,0,1.44,1.9H233a1.52,1.52,0,0,0,1.44-1.1l2.06-7.69L235,41.47h1.09l-1.45-1.1,2.46,7.69a1.54,1.54,0,0,0,1.45,1.1h7.17a1.51,1.51,0,0,0,1.44-1.9l-3.91-9.78-.38,1.46,7.73-9a1.52,1.52,0,0,0-1.06-2.56h-4.48c-1.15,0-2.66-.29-3.5.64-2,2.17-3.67,4.61-5.48,6.89l1.06-.44h-1.09A1.5,1.5,0,0,0,236.08,37.44Z"/><path class="cls-1" d="M260.12,28.85l-.84,2.78h.28l.56-.62.57-.59.62-.52a4.73,4.73,0,0,1,.59-.4,3.19,3.19,0,0,1,.64-.32,5.82,5.82,0,0,1,.73-.21l.76-.14a5.77,5.77,0,0,1,.85-.06,7.68,7.68,0,0,1,1.51.14,4.48,4.48,0,0,1,1.11.39,1.86,1.86,0,0,1,.68.62,2,2,0,0,1,.28.91c0,.35,0,.7,0,1a10.51,10.51,0,0,1-.1,1.09c0,.38-.07.77-.14,1.17s-.15.82-.26,1.25v.06s0,0,0,.06v.12a.1.1,0,0,0,0,.08v.08l0,0v.08a.12.12,0,0,0,0,.08v.28a.12.12,0,0,0,0,.09.09.09,0,0,0,0,.08v.08a.44.44,0,0,0-.06.16.41.41,0,0,0,0,.16,1.11,1.11,0,0,0-.07.16.86.86,0,0,0,0,.16L262,37.07v0a.1.1,0,0,1,0-.08l0,0v-.08a.1.1,0,0,1,0-.08v-.1a.07.07,0,0,1,0-.06v-.08a.09.09,0,0,1,0-.08v0a.09.09,0,0,1,0-.08V36.3a.12.12,0,0,1,0-.08v-.08a.12.12,0,0,1,0-.08V36a.12.12,0,0,1,0-.08v-.06s0,0,0-.06v-.12a2.65,2.65,0,0,0,.06-.42,1.78,1.78,0,0,1,.06-.38,1.84,1.84,0,0,1,0-.39v-.34a.73.73,0,0,0-.14-.32,1,1,0,0,0-.22-.2,1.92,1.92,0,0,0-.36-.14,1.45,1.45,0,0,0-.49-.07,1.9,1.9,0,0,0-.54.07,2.28,2.28,0,0,0-.46.14,3.31,3.31,0,0,0-.43.24,1.68,1.68,0,0,0-.34.32,4,4,0,0,0-.3.42c-.1.15-.18.29-.26.43l-.25.42c-.08.15-.14.29-.2.42v0a.2.2,0,0,0,0,.08v.08l0,0a157349295472.5,157349295472.5,0,0,1-.08.16v.13a.17.17,0,0,0-.06.1.52.52,0,0,0,0,.14.14.14,0,0,1,0,.06.08.08,0,0,0,0,.06.14.14,0,0,1,0,.06.08.08,0,0,0,0,.06l-2.86,10.79h-6.12l5-18.81Z"/><path class="cls-1" d="M258.68,28.45l-.85,2.78a1.52,1.52,0,0,0,1.45,1.9c1.28,0,1.81-1.06,2.68-1.83a4.2,4.2,0,0,1,2.77-1,4,4,0,0,1,1.87.25c.44.24.37.47.35,1a19.43,19.43,0,0,1-.16,2,13.79,13.79,0,0,0-.35,1.9l.2-.76a1.71,1.71,0,0,0-.24.94l.2-.76a2,2,0,0,0-.24.92l.44-1.06a1.59,1.59,0,0,0-.48,1.18l.2-.76a2.46,2.46,0,0,0-.24,1.12l.2-.75-.08.16c-.06.12-.24.87-.21.68,0,.1-.11.43-.15.8l1.5-1.5L262,35.57a1.52,1.52,0,0,0-1.5,1.5v0c0,1.42,2.11,2.13,2.79.76-.23.47.08-.11.16-.3a1.85,1.85,0,0,0,.13-.66l-.21.76a2,2,0,0,0,.25-.94l-.21.75a1.56,1.56,0,0,0,.25-.89l-.21.75a1.79,1.79,0,0,0,.25-.87l-.21.75a1.84,1.84,0,0,0,.25-.92l-.21.76a1.87,1.87,0,0,0,.25-.92l-.21.76a1.87,1.87,0,0,0,.25-.92l-.21.76a1.87,1.87,0,0,0,.25-.9l-.21.76a1.61,1.61,0,0,0,.25-.82c0-.1,0-.08,0,.07l.05-.4a6.43,6.43,0,0,0,0-1.32,2.49,2.49,0,0,0-2.45-2.21,3.85,3.85,0,0,0-3.09,1.19A5.21,5.21,0,0,0,257,35.9l.21-.76a1.87,1.87,0,0,0-.25.92l.44-1.06a2,2,0,0,0-.56,1.39l.21-.76a7.76,7.76,0,0,0-.59,1.86l-1,3.73-1.61,6,1.45-1.1h-6.12l1.44,1.9L255,31.59l.63-2.34-1.45,1.1h5.92a1.5,1.5,0,0,0,0-3H254.2a1.53,1.53,0,0,0-1.44,1.1l-4.41,16.48-.63,2.33a1.52,1.52,0,0,0,1.45,1.9h6.12a1.53,1.53,0,0,0,1.45-1.1l1.65-6.23,1-3.71c.07-.27.15-.53.21-.8,0-.07.05-.13.07-.2.08-.3-.09.39,0-.16a3.21,3.21,0,0,0,.13-.7l-.2.76c.06-.11.05-.11,0,0s-.1.12.16-.21a1.74,1.74,0,0,0,.2-.84l-.2.76a1.93,1.93,0,0,0,.24-.88l-.2.76a3.93,3.93,0,0,1,1-1.58c.12-.08.5-.07.55-.13s-.2-.6-.32-.34.06.54.08.68v-.79a7.22,7.22,0,0,0-.17,1.32l.2-.76a1.62,1.62,0,0,0-.24.88l.2-.76a2,2,0,0,0-.24.92l.2-.75a1.9,1.9,0,0,0-.24.91l.2-.75a2,2,0,0,0-.24.92l.2-.76a1.79,1.79,0,0,0-.24.88l.2-.76a2,2,0,0,0-.24.92l.2-.76a1.65,1.65,0,0,0-.24.92l.2-.76a2,2,0,0,0-.24.92l.44-1.06a1.87,1.87,0,0,0-.32.42l2.8.76v0l-1.5,1.5,5.56.08a1.54,1.54,0,0,0,1.5-1.5c0,.29.13-.5.09-.28,0,0,.07-.34.07-.44l-.21.75a2.5,2.5,0,0,0,.29-1.2l-.21.76a1.87,1.87,0,0,0,.25-.92l-.44,1.06a1.63,1.63,0,0,0,.48-1.18l-.21.76a2.05,2.05,0,0,0,.25-1l-.21.76a5.28,5.28,0,0,0,.5-2,23.19,23.19,0,0,0,.27-2.88,3.65,3.65,0,0,0-2.86-3.81,8.64,8.64,0,0,0-4.73.11,9.13,9.13,0,0,0-3.87,2.92l1.06-.44h-.28l1.44,1.9.85-2.78C262.13,27.4,259.24,26.61,258.68,28.45Z"/><path class="cls-1" d="M276.77,15.72a6.55,6.55,0,0,1,6.58,6.55,6.57,6.57,0,1,1-13.14,0A6.52,6.52,0,0,1,276.77,15.72Zm-5.45,6.5a5.49,5.49,0,0,0,5.49,5.55,5.59,5.59,0,0,0,5.45-5.46,5.44,5.44,0,0,0-5.54-5.5A5.33,5.33,0,0,0,271.32,22.22Z"/><path class="cls-1" d="M276.77,17.22a5.06,5.06,0,1,1-4.95,4,5.07,5.07,0,0,1,4.95-4c1.92,0,1.93-3,0-3a8.12,8.12,0,0,0-7.51,5.17,8.06,8.06,0,0,0,11.63,9.82,8.22,8.22,0,0,0,3.8-8.52,8.12,8.12,0,0,0-7.92-6.47A1.5,1.5,0,0,0,276.77,17.22Z"/><path class="cls-1" d="M269.82,22.22a7.15,7.15,0,0,0,4.63,6.65,7,7,0,0,0,8.22-10.36,7.13,7.13,0,0,0-7.46-3,6.9,6.9,0,0,0-5.39,6.74,1.5,1.5,0,0,0,3,0c0-.15,0-.3,0-.45s0-.12,0-.05A4.41,4.41,0,0,1,273,21c0-.14.08-.27.13-.4,0,.06-.11.23,0,0a7.38,7.38,0,0,1,.41-.72c.23-.36-.11.12.06-.08l.22-.26a5.57,5.57,0,0,1,.51-.46c-.2.16,0,0,0,0l.35-.22.24-.14.26-.12,0,0a6,6,0,0,1,.69-.2l.36-.07c-.27,0,0,0,.11,0a6.42,6.42,0,0,1,.76,0c.07,0,.39,0,.13,0a3.43,3.43,0,0,1,.44.09,4.54,4.54,0,0,1,.69.21c-.28-.1.15.07.17.08l.25.14.3.18c.06,0,.3.22.1.06a4.76,4.76,0,0,1,.61.58,4.19,4.19,0,0,1,.95,2.09,4.09,4.09,0,0,1-.47,2.39,4.32,4.32,0,0,1-1.89,1.77s-.26.12-.05,0a3.52,3.52,0,0,1-.42.15,5.28,5.28,0,0,1-.66.16c-.27.05.34,0-.13,0h-.77c-.34,0,.11,0-.19,0a8.24,8.24,0,0,1-.85-.24c-.43-.15.13.07-.11-.05a3.75,3.75,0,0,1-.44-.24,4,4,0,0,1-1-.87c-.29-.32.12.21-.12-.16-.08-.12-.16-.24-.23-.36s-.14-.26-.21-.39,0,.13-.08-.18-.17-.57-.24-.86c0,0,0-.29,0-.05,0-.21,0-.42,0-.62a1.5,1.5,0,1,0-3,0Z"/><path class="cls-1" d="M275.48,22.91v2.77h-.94V19.27h2.57c1.33,0,2,.73,2,1.72a1.46,1.46,0,0,1-1.06,1.51c.49.14,1,.52,1,1.64v.28a4.78,4.78,0,0,0,.08,1.26h-.92a4.59,4.59,0,0,1-.11-1.39v-.13c0-.87-.24-1.25-1.37-1.25Zm0-.79h1.35c.94,0,1.35-.36,1.35-1s-.43-1-1.26-1h-1.44Z"/><path class="cls-1" d="M274,22.91v2.77l1.5-1.5h-.94l1.5,1.5V19.27l-1.5,1.5h2.54c.07,0,.29.05.33,0-.25,0-.29,0-.13,0h.09a1.7,1.7,0,0,0,.32.1c-.27,0-.26-.12-.08,0s-.17-.19,0,0l.14.16c-.16-.22-.2-.27-.12-.14a.75.75,0,0,1,.07.12c-.18-.23-.11-.29-.05-.1.1.37,0-.29,0,0v.26c0,.28.07-.35,0,.06s.15-.3,0-.05.25-.27,0,0,.27-.13,0,0,.26-.08,0,0a1.52,1.52,0,0,0-1.1,1.44,1.56,1.56,0,0,0,1.1,1.45c.19.06.05.09-.16-.08l.14.08c.21.09-.3-.26-.12-.1s.17.2,0,0,0,0,0,0-.1-.35-.06-.11c0,.08,0,.18.06.25-.11-.34,0-.16,0,0a7.44,7.44,0,0,0,.15,2l1.44-1.9h-.92l1.45,1.1-.06-.19c-.06-.24,0,.31,0,.12s0-.38,0-.56,0-.52,0-.77a2.5,2.5,0,0,0-1.19-2.11,6,6,0,0,0-2.91-.36,1.5,1.5,0,0,0,0,3h1.24c.09,0,.53,0,.24,0s.38.15,0,0-.11,0-.05,0-.31-.27-.16-.12-.22-.3-.13-.16-.1,0-.08-.19a.49.49,0,0,0,0,.11c0,.24,0-.35,0-.19s0,.22,0,.33a5.83,5.83,0,0,0,.17,1.91,1.54,1.54,0,0,0,1.44,1.1h.92a1.52,1.52,0,0,0,1.45-1.9.5.5,0,0,1,0-.13c0-.15,0-.1,0,.15,0-.06,0-.22,0-.28,0-.21,0-.41,0-.61a6.74,6.74,0,0,0-.11-1.27,2.74,2.74,0,0,0-1.94-2.08V24a3,3,0,0,0,2.14-2.66,3.07,3.07,0,0,0-1-2.62,3.89,3.89,0,0,0-2.58-.9h-2.54a1.52,1.52,0,0,0-1.5,1.5v6.41a1.52,1.52,0,0,0,1.5,1.5h.94a1.52,1.52,0,0,0,1.5-1.5V22.91a1.5,1.5,0,0,0-3,0Z"/><path class="cls-1" d="M275.48,23.62h1.14a5.72,5.72,0,0,0,.59,0,3.63,3.63,0,0,0,.81-.16,2.57,2.57,0,0,0,1-.57,3.29,3.29,0,0,0,.33-.41l.09-.15a3,3,0,0,0,.28-1.09,3,3,0,0,0-.07-.8,2.2,2.2,0,0,0-.13-.36,2.69,2.69,0,0,0-.17-.34,2.57,2.57,0,0,0-1.54-1.07,5.52,5.52,0,0,0-1-.09h-1.29a1.52,1.52,0,0,0-1.5,1.5v2.06a1.5,1.5,0,0,0,1.5,1.5,1.49,1.49,0,0,0,1.5-1.5V20.06l-1.5,1.5h.83a7.07,7.07,0,0,1,.92,0l-.39,0a1.86,1.86,0,0,1,.39.1l-.36-.15a1,1,0,0,1,.22.13l-.3-.23.13.13-.23-.3a1.18,1.18,0,0,1,.11.19l-.15-.36a1.82,1.82,0,0,1,.07.25l-.06-.4a1.34,1.34,0,0,1,0,.4l.06-.4a2,2,0,0,1-.07.26l.15-.36a.62.62,0,0,1-.11.17l.24-.3-.14.14.3-.23a1.13,1.13,0,0,1-.21.12l.36-.15a1.91,1.91,0,0,1-.41.11l.4-.06a7.38,7.38,0,0,1-.94,0h-.81a1.58,1.58,0,0,0-1.06.44,1.5,1.5,0,0,0,0,2.12A1.58,1.58,0,0,0,275.48,23.62Z"/><path d="M5.77,59.57c3,3.54,6.64,1.71,9.91,2.08.17,0,.51-.11.53-.22.84-4.33,4.69-2.51,7.15-3.4a36.6,36.6,0,0,1,6.41-1.16l-.06-1-22.12.92,0-.57,23.73-3.08c-4.55-4,.05-4.69,2.05-7L6.5,49.27l-.21-.77a6.35,6.35,0,0,1,1.53-.61C14.89,47.15,22,46.5,29,45.65c.82-.1,1.53-1.26,2.26-2,.56-.54,1.06-1.15,2.1-2.29v4l.7.29a7.75,7.75,0,0,0,1.24-2.47c.26-2.9.33-5.82.39-8.74,0-1.33-.33-2.22-2.12-2.09-7.17.5-14.35.82-21.53,1.23-2.21.12-4.4.39-6.61.41a6.18,6.18,0,0,1-2.16-.86l.27-.77c1.86,0,3.73.11,5.58,0,7.29-.49,14.58-1.09,21.88-1.59A2.7,2.7,0,0,0,33.91,28c.37-7.31-.7-14.29-5-20.4C25.63,3,21.93,1.79,15.9,2.9c2.92-2,6.44-2,10.24.12A18.07,18.07,0,0,1,35.5,17.77C36.66,31.38,38,45,36,58.73,34.23,71.1,22.36,75.9,12.17,72.23,7.32,70.48,5.64,67.28,5.77,59.57Z"/><path d="M30.44,15.85l1.32,3.75c-9.82,3.81-19.42.64-29.3-.07.39-.32.9-1,1.14-.91,6.38,2.2,12.74,0,19.09-.12C25.24,18.44,28.3,19.35,30.44,15.85Z"/><path d="M1.63,25c10.31,1.53,20.46,1.11,30.45-2.37l.83,3.66c-2.5.21-4.84.49-7.19.59-5.6.24-11.19.54-16.79.52a50.1,50.1,0,0,1-7.43-1.1Z"/><path d="M33.59,36.24l.32,2.23L5,41.33c.62-.69,1.13-1.76,1.71-1.8,6.7-.51,13.42-.72,20.11-1.31C29,38,31.17,37,33.59,36.24Z"/><path d="M11.18,15.05c4.12-.76,8.26-1.47,12.36-2.32,2.12-.44,3.46.33,4.55,2.53H11.22Z"/><text class="cls-2" transform="translate(58.22 47.66)">moonwalkr</text><path d="M276.77,15.72a6.55,6.55,0,0,1,6.58,6.55,6.57,6.57,0,1,1-13.14,0A6.52,6.52,0,0,1,276.77,15.72Zm-5.45,6.5a5.49,5.49,0,0,0,5.49,5.55,5.59,5.59,0,0,0,5.45-5.46,5.44,5.44,0,0,0-5.54-5.5A5.33,5.33,0,0,0,271.32,22.22Z"/><path d="M275.48,22.91v2.77h-.94V19.27h2.57c1.33,0,2,.73,2,1.72a1.46,1.46,0,0,1-1.06,1.51c.49.14,1,.52,1,1.64v.28a4.78,4.78,0,0,0,.08,1.26h-.92a4.59,4.59,0,0,1-.11-1.39v-.13c0-.87-.24-1.25-1.37-1.25Zm0-.79h1.35c.94,0,1.35-.36,1.35-1s-.43-1-1.26-1h-1.44Z"/></g></g></svg>