<svg xmlns="http://www.w3.org/2000/svg" viewBox="0 0 395.65 75.01"><defs><style>.cls-1{fill:#fff;}.cls-2{fill:#1978be;}</style></defs><g id="Layer_2" data-name="Layer 2"><g id="svg4403"><path class="cls-1" d="M41.37,28.1c0,9-4.33,15-15.3,15H22.59V14.58c1.23-.06,2.39-.06,3.48-.06,10.38,0,15.3,4.9,15.3,13.58M30.11,55.57c19.64,0,32.06-10.12,32.06-27.75,0-19.38-13.3-26.32-35-26.32A239.15,239.15,0,0,0,1.5,3V72H22.59V55.57ZM312.62,28.1c0,9-4.32,15-15.31,15h-3.46V14.58c1.23-.06,2.38-.06,3.46-.06,10.39,0,15.31,4.9,15.31,13.58M301.35,55.57c19.63,0,32.06-10.12,32.06-27.75,0-19.38-13.28-26.32-35-26.32A239,239,0,0,0,272.75,3V72h21.09V55.57Zm59.51-35c0-3.76,3.75-5.51,9.82-5.51a52.82,52.82,0,0,1,18.78,3.48l-1.73-15a83.08,83.08,0,0,0-19.36-2c-17,0-28.59,6.73-28.59,20.83,0,24.28,32.94,19.36,32.94,30.65,0,4.34-3.17,6.65-11,6.65-6.92,0-17.62-2.31-24-5.49l2.31,15.91c6.35,2.31,15,3.45,21.95,3.45,17.62,0,32.07-5.78,32.07-23.13,0-23.14-33.24-18.8-33.24-29.78M256.87,3H235.78V72h21.09ZM171.35,3H150.26V72h21.09V3ZM208,58.16V3H187V72h38.13l3.17-13.88ZM134.67,3H113.58V30.41h-22V3H70.55V72H91.64V44.87h22V72h21.1l0-69.09Z"/><path class="cls-1" d="M39.87,28.1c0,4.36-1.16,9-5.09,11.47-3.67,2.29-8,2.07-12.19,2.07l1.5,1.5V14.58l-1.5,1.5c4.43-.2,9.54-.29,13.29,2.47,3,2.24,4,6,4,9.55a1.5,1.5,0,0,0,3,0c0-4.51-1.38-9-5.07-11.83-4.29-3.29-10-3.42-15.21-3.19a1.53,1.53,0,0,0-1.5,1.5V43.14a1.52,1.52,0,0,0,1.5,1.5c4.85,0,10,.1,14.15-2.77,4.55-3.13,6.1-8.48,6.13-13.77a1.5,1.5,0,0,0-3,0Z"/><path class="cls-1" d="M30.11,57.07c8.46,0,17.2-1.85,23.92-7.26,6.1-4.91,9.17-12.34,9.59-20C64,22.41,62.4,14.6,57.16,9.12S44.25,1.47,37,.56A105.79,105.79,0,0,0,20.35.12C14.05.32,7.75.71,1.5,1.45A1.54,1.54,0,0,0,0,3V72a1.52,1.52,0,0,0,1.5,1.5H22.59a1.52,1.52,0,0,0,1.5-1.5V55.57l-1.5,1.5h7.52a1.5,1.5,0,0,0,0-3H22.59a1.52,1.52,0,0,0-1.5,1.5V72l1.5-1.5H1.5L3,72V3L1.5,4.45c5.15-.61,10.34-1,15.52-1.2a148.78,148.78,0,0,1,15.23-.11c7,.4,14.64,1.66,20.42,6,5.31,4,7.63,10.28,7.95,16.75.36,7.26-1.43,14.68-6.67,20C47.76,52.11,38.62,54,30.11,54.07A1.5,1.5,0,0,0,30.11,57.07Z"/><path class="cls-1" d="M311.12,28.1c0,4.35-1.15,9-5.06,11.45-3.67,2.3-8.05,2.09-12.21,2.09l1.5,1.5V14.58l-1.5,1.5c4.43-.2,9.53-.29,13.27,2.47,3,2.24,4,6,4,9.55a1.5,1.5,0,0,0,3,0c0-4.51-1.38-9-5.08-11.83-4.28-3.29-10-3.42-15.19-3.19a1.53,1.53,0,0,0-1.5,1.5V43.14a1.52,1.52,0,0,0,1.5,1.5c4.85,0,10,.1,14.16-2.79,4.54-3.13,6.08-8.47,6.11-13.75a1.5,1.5,0,0,0-3,0Z"/><path class="cls-1" d="M301.35,57.07c8.46,0,17.2-1.86,23.92-7.26,6.1-4.91,9.17-12.34,9.59-20,.4-7.37-1.21-15.18-6.45-20.66S315.5,1.47,308.2.56A105.88,105.88,0,0,0,291.59.12c-6.29.2-12.59.59-18.84,1.33a1.54,1.54,0,0,0-1.5,1.5V72a1.52,1.52,0,0,0,1.5,1.5h21.09a1.52,1.52,0,0,0,1.5-1.5V55.57l-1.5,1.5h7.51a1.5,1.5,0,0,0,0-3h-7.51a1.52,1.52,0,0,0-1.5,1.5V72l1.5-1.5H272.75l1.5,1.5V3l-1.5,1.5c5.15-.61,10.33-1,15.52-1.2a148.78,148.78,0,0,1,15.23-.11c7,.4,14.64,1.66,20.42,6,5.31,4,7.63,10.28,7.95,16.75.35,7.27-1.44,14.68-6.68,20C319,52.11,309.87,54,301.35,54.07A1.5,1.5,0,0,0,301.35,57.07Z"/><path class="cls-1" d="M362.36,20.59c.1-4.39,7.14-4.08,10.06-4A49.08,49.08,0,0,1,389.06,20a1.5,1.5,0,0,0,1.9-1.44l-1.73-15a1.55,1.55,0,0,0-1.1-1.45A95,95,0,0,0,369.33,0C363.12,0,356.79.62,351,3.1a20.66,20.66,0,0,0-10.75,9.81A23.08,23.08,0,0,0,339,28.1c2.12,8.51,9.54,13,17.2,16,3.27,1.26,6.79,2.29,9.89,3.69a21.94,21.94,0,0,1,2,1l.84.52a7,7,0,0,1,.61.46,6.06,6.06,0,0,1,.64.6l.27.29c.13.15,0-.09.15.2a6.16,6.16,0,0,1,.4.71c-.07-.15.12.34.18.58a1.1,1.1,0,0,1,.09.57,7.36,7.36,0,0,1-.06,1.24,3.84,3.84,0,0,1-1.1,2.17c-1.82,1.74-4.9,1.92-7.27,2a56.76,56.76,0,0,1-20-3.49,39.24,39.24,0,0,1-4.3-1.77,1.52,1.52,0,0,0-2.2,1.69l2.31,15.91a1.51,1.51,0,0,0,1.05,1,65.13,65.13,0,0,0,18.14,3.38A65.78,65.78,0,0,0,373.55,74c8.23-1.5,16.55-5.48,20.07-13.53,3.16-7.24,2.82-16.5-2.38-22.7-4.27-5.08-10.86-7.5-16.94-9.63a55.58,55.58,0,0,1-8.49-3.37,7.89,7.89,0,0,1-2.67-2,3.69,3.69,0,0,1-.78-2.19c0-1.93-3-1.94-3,0,.06,5.17,5.63,7.38,9.71,8.9,5.66,2.12,11.65,3.72,16.63,7.28a16.43,16.43,0,0,1,5.61,6.75,20,20,0,0,1,.91,11.34A17.94,17.94,0,0,1,386.75,65a25.19,25.19,0,0,1-10.63,5.38A56.68,56.68,0,0,1,360.06,72a63.92,63.92,0,0,1-19.58-3.38l1,1.05-2.31-15.91-2.2,1.7a60.69,60.69,0,0,0,19.79,5.38,35.48,35.48,0,0,0,9.71-.06,9.73,9.73,0,0,0,6.28-3.22,7.27,7.27,0,0,0-.44-9.21c-2.05-2.24-5.18-3.39-8-4.43-6.88-2.58-14.95-4.56-19.7-10.63-5.67-7.27-4.32-19.15,3-24.79,4.37-3.38,10.1-4.76,15.51-5.25a76.81,76.81,0,0,1,20.14.95c1.34.24,2.68.51,4,.78l-1.1-1.44,1.73,15,1.9-1.45a51.08,51.08,0,0,0-19.6-3.52c-4.57.06-10.77,1.34-10.9,7-.05,1.93,2.95,1.93,3,0Z"/><path class="cls-1" d="M256.87,1.45H235.78a1.52,1.52,0,0,0-1.5,1.5V72a1.52,1.52,0,0,0,1.5,1.5h21.09a1.52,1.52,0,0,0,1.5-1.5V3a1.5,1.5,0,0,0-3,0V72l1.5-1.5H235.78l1.5,1.5V3l-1.5,1.5h21.09A1.5,1.5,0,0,0,256.87,1.45Z"/><path class="cls-1" d="M171.35,1.45H150.26a1.52,1.52,0,0,0-1.5,1.5V72a1.52,1.52,0,0,0,1.5,1.5h21.09a1.51,1.51,0,0,0,1.5-1.5V3l-1.5,1.5h0a1.5,1.5,0,0,0,0-3h0a1.52,1.52,0,0,0-1.5,1.5V72l1.5-1.5H150.26l1.5,1.5V3l-1.5,1.5h21.09A1.5,1.5,0,0,0,171.35,1.45Z"/><path class="cls-1" d="M209.54,58.16V3a1.52,1.52,0,0,0-1.5-1.5H187a1.52,1.52,0,0,0-1.5,1.5V72a1.52,1.52,0,0,0,1.5,1.5h38.13a1.51,1.51,0,0,0,1.44-1.1l3.18-13.88a1.53,1.53,0,0,0-1.45-1.9H208a1.5,1.5,0,0,0,0,3h20.21l-1.45-1.89-3.17,13.87,1.45-1.1H187l1.5,1.5V3L187,4.45H208L206.54,3V58.16A1.5,1.5,0,0,0,209.54,58.16Z"/><path class="cls-1" d="M134.67,1.45H113.58a1.52,1.52,0,0,0-1.5,1.5V30.41l1.5-1.5h-22l1.5,1.5V3a1.52,1.52,0,0,0-1.5-1.5H70.55A1.52,1.52,0,0,0,69.05,3V72a1.52,1.52,0,0,0,1.5,1.5H91.64a1.52,1.52,0,0,0,1.5-1.5V44.87l-1.5,1.5h22l-1.5-1.5V72a1.52,1.52,0,0,0,1.5,1.5h21.1a1.52,1.52,0,0,0,1.5-1.5V3a1.5,1.5,0,0,0-3,0V72l1.5-1.5h-21.1l1.5,1.5V44.87a1.52,1.52,0,0,0-1.5-1.5h-22a1.52,1.52,0,0,0-1.5,1.5V72l1.5-1.5H70.55l1.5,1.5V3l-1.5,1.5H91.62L90.12,3V30.41a1.52,1.52,0,0,0,1.5,1.5h22a1.52,1.52,0,0,0,1.5-1.5V3l-1.5,1.5h21.09A1.5,1.5,0,0,0,134.67,1.45Z"/><path class="cls-2" d="M41.37,28.1c0,9-4.33,15-15.3,15H22.59V14.58c1.23-.06,2.39-.06,3.48-.06,10.38,0,15.3,4.9,15.3,13.58M30.11,55.57c19.64,0,32.06-10.12,32.06-27.75,0-19.38-13.3-26.32-35-26.32A239.15,239.15,0,0,0,1.5,3V72H22.59V55.57ZM312.62,28.1c0,9-4.32,15-15.31,15h-3.46V14.58c1.23-.06,2.38-.06,3.46-.06,10.39,0,15.31,4.9,15.31,13.58M301.35,55.57c19.63,0,32.06-10.12,32.06-27.75,0-19.38-13.28-26.32-35-26.32A239,239,0,0,0,272.75,3V72h21.09V55.57Zm59.51-35c0-3.76,3.75-5.51,9.82-5.51a52.82,52.82,0,0,1,18.78,3.48l-1.73-15a83.08,83.08,0,0,0-19.36-2c-17,0-28.59,6.73-28.59,20.83,0,24.28,32.94,19.36,32.94,30.65,0,4.34-3.17,6.65-11,6.65-6.92,0-17.62-2.31-24-5.49l2.31,15.91c6.35,2.31,15,3.45,21.95,3.45,17.62,0,32.07-5.78,32.07-23.13,0-23.14-33.24-18.8-33.24-29.78M256.87,3H235.78V72h21.09ZM171.35,3H150.26V72h21.09V3ZM208,58.16V3H187V72h38.13l3.17-13.88ZM134.67,3H113.58V30.41h-22V3H70.55V72H91.64V44.87h22V72h21.1l0-69.09Z"/></g></g></svg>