<svg xmlns="http://www.w3.org/2000/svg" xmlns:xlink="http://www.w3.org/1999/xlink" viewBox="0 0 75 75"><defs><style>.cls-1,.cls-3,.cls-5,.cls-6{fill:#fff;}.cls-1{stroke:#fff;stroke-miterlimit:10;stroke-width:3px;}.cls-2,.cls-5,.cls-6{isolation:isolate;}.cls-4{fill:url(#linear-gradient);}.cls-5,.cls-6{font-size:8.58px;font-family:ArialMT, Arial;}.cls-6{letter-spacing:0.01em;}.cls-7{fill:#1978be;}</style><linearGradient id="linear-gradient" x1="1.5" y1="-36.37" x2="73.5" y2="-36.37" gradientTransform="matrix(1, 0, 0, -1, 0, 18.78)" gradientUnits="userSpaceOnUse"><stop offset="0" stop-color="#461c64"/><stop offset="1" stop-color="#7e0167"/></linearGradient></defs><g id="Layer_2" data-name="Layer 2"><g id="svg4403"><path class="cls-1" d="M1.5,46.68V1.5h72V36.82c-.15.39-.31.78-.46,1.18a10.52,10.52,0,0,1-2.21,3.29A14.59,14.59,0,0,1,66,44.52a26.91,26.91,0,0,1-10.69,2.16q-26.79,0-53.59,0Z"/><path class="cls-1" d="M1.5,46.68h.22q26.79,0,53.59,0A27,27,0,0,0,66,44.52a14.59,14.59,0,0,0,4.83-3.23A10.52,10.52,0,0,0,73,38c.16-.4.31-.79.46-1.18V73.5H1.5Z"/><g class="cls-2"><path class="cls-1" d="M8.44,57.83V51.69H9.66L11.12,56c.13.41.23.71.29.91l.32-1,1.47-4.27h1.1v6.14h-.78V52.69l-1.79,5.14H11L9.22,52.6v5.23Z"/><path class="cls-1" d="M15.23,55.6a2.3,2.3,0,0,1,.69-1.83,2.06,2.06,0,0,1,1.4-.49,2,2,0,0,1,1.5.6,2.27,2.27,0,0,1,.58,1.66,3,3,0,0,1-.26,1.35,1.85,1.85,0,0,1-.75.77,2.18,2.18,0,0,1-1.07.27,2,2,0,0,1-1.51-.6A2.38,2.38,0,0,1,15.23,55.6Zm.78,0a1.88,1.88,0,0,0,.37,1.28,1.23,1.23,0,0,0,1.87,0,1.92,1.92,0,0,0,.37-1.3,1.83,1.83,0,0,0-.37-1.25,1.23,1.23,0,0,0-1.87,0A1.85,1.85,0,0,0,16,55.6Z"/><path class="cls-1" d="M21,57.83h-.7V51.69H21v2.19a1.5,1.5,0,0,1,1.22-.6,1.88,1.88,0,0,1,.78.16,1.63,1.63,0,0,1,.6.47,2.23,2.23,0,0,1,.37.72,3,3,0,0,1,.14.91,2.5,2.5,0,0,1-.57,1.76,1.75,1.75,0,0,1-1.36.63A1.41,1.41,0,0,1,21,57.27Zm0-2.26a2.29,2.29,0,0,0,.22,1.16,1.1,1.1,0,0,0,1,.58,1.08,1.08,0,0,0,.86-.43,2,2,0,0,0,.36-1.28A2,2,0,0,0,23,54.31a1.07,1.07,0,0,0-.83-.41,1.08,1.08,0,0,0-.86.43A1.87,1.87,0,0,0,21,55.57Z"/><path class="cls-1" d="M25.06,52.55v-.86h.75v.86Zm0,5.28V53.38h.75v4.45Z"/><path class="cls-1" d="M26.94,57.83V51.69h.76v6.14Z"/><path class="cls-1" d="M31.91,56.39l.78.1A1.87,1.87,0,0,1,32,57.55a2.07,2.07,0,0,1-1.28.38,2,2,0,0,1-1.54-.6,2.37,2.37,0,0,1-.57-1.69,2.47,2.47,0,0,1,.57-1.74,2,2,0,0,1,1.5-.62,1.89,1.89,0,0,1,1.46.61,2.38,2.38,0,0,1,.57,1.7s0,.12,0,.21H29.39a1.73,1.73,0,0,0,.42,1.12,1.24,1.24,0,0,0,.93.39,1.13,1.13,0,0,0,.71-.22A1.48,1.48,0,0,0,31.91,56.39Zm-2.47-1.21h2.48a1.55,1.55,0,0,0-.28-.85,1.25,1.25,0,0,0-1.81-.08A1.33,1.33,0,0,0,29.44,55.18Z"/></g><g class="cls-2"><path class="cls-1" d="M7.61,67.54,10,61.4h.88l2.51,6.14h-.92l-.72-1.86H9.15l-.67,1.86ZM9.39,65h2.08l-.64-1.7c-.2-.52-.34-.94-.44-1.28a8.29,8.29,0,0,1-.33,1.18Z"/><path class="cls-1" d="M16.92,65.91l.74.1a1.94,1.94,0,0,1-.62,1.2,1.81,1.81,0,0,1-1.23.43,1.91,1.91,0,0,1-1.47-.6,2.39,2.39,0,0,1-.55-1.71A3.08,3.08,0,0,1,14,64.07a1.63,1.63,0,0,1,.72-.81A2.17,2.17,0,0,1,15.81,63a1.82,1.82,0,0,1,1.19.37,1.67,1.67,0,0,1,.59,1l-.73.11a1.24,1.24,0,0,0-.37-.67,1,1,0,0,0-.65-.23,1.17,1.17,0,0,0-.92.41,1.91,1.91,0,0,0-.36,1.29,2,2,0,0,0,.35,1.3,1.1,1.1,0,0,0,.89.41,1.05,1.05,0,0,0,.74-.27A1.32,1.32,0,0,0,16.92,65.91Z"/><path class="cls-1" d="M21.31,65.91l.74.1a1.89,1.89,0,0,1-.62,1.2,1.79,1.79,0,0,1-1.23.43,1.91,1.91,0,0,1-1.47-.6,2.39,2.39,0,0,1-.55-1.71,3.08,3.08,0,0,1,.24-1.26,1.68,1.68,0,0,1,.72-.81A2.18,2.18,0,0,1,20.21,63a1.81,1.81,0,0,1,1.18.37,1.62,1.62,0,0,1,.59,1l-.73.11a1.18,1.18,0,0,0-.37-.67,1,1,0,0,0-.64-.23,1.19,1.19,0,0,0-.93.41A1.91,1.91,0,0,0,19,65.31a2,2,0,0,0,.35,1.3,1.11,1.11,0,0,0,.89.41,1.08,1.08,0,0,0,.75-.27A1.37,1.37,0,0,0,21.31,65.91Z"/><path class="cls-1" d="M25.85,66.11l.78.09a1.89,1.89,0,0,1-.69,1.06A2.31,2.31,0,0,1,23.12,67a2.35,2.35,0,0,1-.57-1.69,2.44,2.44,0,0,1,.58-1.74,2,2,0,0,1,1.5-.62,1.9,1.9,0,0,1,1.46.61,2.43,2.43,0,0,1,.56,1.71v.2H23.33a1.75,1.75,0,0,0,.41,1.12,1.24,1.24,0,0,0,.93.39,1.11,1.11,0,0,0,.71-.22A1.41,1.41,0,0,0,25.85,66.11Zm-2.48-1.22h2.49a1.48,1.48,0,0,0-.29-.84,1.16,1.16,0,0,0-.93-.44,1.22,1.22,0,0,0-.88.35A1.42,1.42,0,0,0,23.37,64.89Z"/><path class="cls-1" d="M27.37,66.21l.75-.12a1,1,0,0,0,.35.69,1.21,1.21,0,0,0,.8.24,1.18,1.18,0,0,0,.77-.21.63.63,0,0,0,.25-.5.45.45,0,0,0-.22-.4,3,3,0,0,0-.77-.25,7.06,7.06,0,0,1-1.15-.37,1.19,1.19,0,0,1-.49-.42,1.12,1.12,0,0,1-.16-.6,1,1,0,0,1,.14-.55A1.15,1.15,0,0,1,28,63.3a1.54,1.54,0,0,1,.48-.22,2.27,2.27,0,0,1,.65-.09,2.61,2.61,0,0,1,.92.15,1.24,1.24,0,0,1,.58.41,1.56,1.56,0,0,1,.26.69l-.74.1a.8.8,0,0,0-.29-.54,1.12,1.12,0,0,0-.68-.19,1.28,1.28,0,0,0-.74.17.5.5,0,0,0-.22.4.44.44,0,0,0,.09.27.65.65,0,0,0,.29.2l.67.19a11.08,11.08,0,0,1,1.11.35,1.17,1.17,0,0,1,.5.4,1.1,1.1,0,0,1,.18.64,1.32,1.32,0,0,1-.22.71,1.38,1.38,0,0,1-.64.52,2.3,2.3,0,0,1-.93.18A2.13,2.13,0,0,1,28,67.28,1.73,1.73,0,0,1,27.37,66.21Z"/><path class="cls-1" d="M31.77,66.21l.74-.12a1,1,0,0,0,.35.69,1.21,1.21,0,0,0,.8.24,1.16,1.16,0,0,0,.77-.21.64.64,0,0,0,.26-.5.46.46,0,0,0-.23-.4,3,3,0,0,0-.77-.25,7.42,7.42,0,0,1-1.15-.37,1.1,1.1,0,0,1-.48-.42,1.13,1.13,0,0,1-.17-.6,1.2,1.2,0,0,1,.51-1,1.8,1.8,0,0,1,.48-.22,2.27,2.27,0,0,1,.65-.09,2.57,2.57,0,0,1,.92.15,1.24,1.24,0,0,1,.58.41,1.45,1.45,0,0,1,.26.69l-.73.1a.85.85,0,0,0-.29-.54,1.15,1.15,0,0,0-.69-.19,1.28,1.28,0,0,0-.74.17.53.53,0,0,0-.22.4.44.44,0,0,0,.09.27.65.65,0,0,0,.29.2l.67.19a11.08,11.08,0,0,1,1.11.35,1.17,1.17,0,0,1,.5.4,1.1,1.1,0,0,1,.18.64,1.24,1.24,0,0,1-.22.71,1.41,1.41,0,0,1-.63.52,2.35,2.35,0,0,1-.94.18,2.08,2.08,0,0,1-1.32-.36A1.64,1.64,0,0,1,31.77,66.21Z"/><path class="cls-1" d="M36.18,65.32a2.27,2.27,0,0,1,.69-1.83,2.05,2.05,0,0,1,1.4-.5,2,2,0,0,1,1.5.6,2.33,2.33,0,0,1,.58,1.66,2.91,2.91,0,0,1-.26,1.35,1.8,1.8,0,0,1-.75.77,2.21,2.21,0,0,1-1.07.27,2,2,0,0,1-1.51-.6A2.36,2.36,0,0,1,36.18,65.32Zm.77,0a1.9,1.9,0,0,0,.38,1.28,1.2,1.2,0,0,0,.94.42,1.17,1.17,0,0,0,.93-.43,1.92,1.92,0,0,0,.37-1.3A1.83,1.83,0,0,0,39.2,64a1.25,1.25,0,0,0-1.87,0A1.88,1.88,0,0,0,37,65.32Z"/><path class="cls-1" d="M41.32,67.54V63.09H42v.68a2,2,0,0,1,.48-.63A.86.86,0,0,1,43,63a1.47,1.47,0,0,1,.77.24l-.26.7a1.05,1.05,0,0,0-.55-.16.69.69,0,0,0-.44.15.81.81,0,0,0-.29.41,3.07,3.07,0,0,0-.12.88v2.33Z"/><path class="cls-1" d="M44.3,62.27V61.4h.75v.87Zm0,5.27V63.09h.75v4.45Z"/><path class="cls-1" d="M49.35,66.11l.78.09a1.89,1.89,0,0,1-.69,1.06A2.31,2.31,0,0,1,46.62,67a2.35,2.35,0,0,1-.57-1.69,2.44,2.44,0,0,1,.58-1.74,2,2,0,0,1,1.5-.62,1.9,1.9,0,0,1,1.46.61,2.43,2.43,0,0,1,.56,1.71v.2H46.83a1.75,1.75,0,0,0,.41,1.12,1.24,1.24,0,0,0,.93.39,1.11,1.11,0,0,0,.71-.22A1.41,1.41,0,0,0,49.35,66.11Zm-2.48-1.22h2.49a1.48,1.48,0,0,0-.29-.84,1.16,1.16,0,0,0-.93-.44,1.22,1.22,0,0,0-.88.35A1.42,1.42,0,0,0,46.87,64.89Z"/><path class="cls-1" d="M50.87,66.21l.75-.12a1,1,0,0,0,.35.69,1.21,1.21,0,0,0,.8.24,1.18,1.18,0,0,0,.77-.21.63.63,0,0,0,.25-.5.45.45,0,0,0-.22-.4,3,3,0,0,0-.77-.25,7.42,7.42,0,0,1-1.15-.37,1.1,1.1,0,0,1-.48-.42,1.13,1.13,0,0,1-.17-.6,1.2,1.2,0,0,1,.51-1,1.54,1.54,0,0,1,.48-.22,2.27,2.27,0,0,1,.65-.09,2.61,2.61,0,0,1,.92.15,1.24,1.24,0,0,1,.58.41,1.56,1.56,0,0,1,.26.69l-.74.1a.8.8,0,0,0-.29-.54,1.1,1.1,0,0,0-.68-.19,1.28,1.28,0,0,0-.74.17.5.5,0,0,0-.22.4.44.44,0,0,0,.09.27.65.65,0,0,0,.29.2l.67.19a11.08,11.08,0,0,1,1.11.35,1.17,1.17,0,0,1,.5.4,1.1,1.1,0,0,1,.18.64,1.24,1.24,0,0,1-.22.71,1.38,1.38,0,0,1-.64.52,2.3,2.3,0,0,1-.93.18,2.13,2.13,0,0,1-1.33-.36A1.73,1.73,0,0,1,50.87,66.21Z"/></g><path class="cls-1" d="M13.61,22.05a2.06,2.06,0,0,1-2.34,2.29h-.53V20h.53c1.59,0,2.34.75,2.34,2.08m-1.72,4.19c3,0,4.9-1.54,4.9-4.24,0-3-2-4-5.34-4a36.91,36.91,0,0,0-3.93.22V28.76h3.22V26.24Zm43.16-4.19a2.06,2.06,0,0,1-2.34,2.29h-.53V20h.53c1.59,0,2.34.75,2.34,2.08m-1.72,4.19c3,0,4.9-1.54,4.9-4.24,0-3-2-4-5.34-4A36.91,36.91,0,0,0,49,18.2V28.76h3.22V26.24Zm9.09-5.34c0-.58.58-.84,1.5-.84a8.07,8.07,0,0,1,2.87.53l-.26-2.3a13,13,0,0,0-3-.31c-2.6,0-4.37,1-4.37,3.18,0,3.71,5,3,5,4.68,0,.67-.48,1-1.67,1A9.59,9.59,0,0,1,58.89,26l.36,2.43A10.73,10.73,0,0,0,62.6,29c2.7,0,4.9-.88,4.9-3.54,0-3.52-5.08-2.86-5.08-4.54M46.53,18.2H43.31V28.76h3.22Zm-13.06,0H30.25V28.76h3.22Zm5.6,8.44V18.2H35.85V28.76h5.83l.48-2.12ZM27.86,18.2H24.64v4.2H21.29V18.2H18.07V28.76h3.22V24.61h3.35v4.15h3.23V18.2Z"/><path class="cls-3" d="M1.5,46.68V1.5h72V36.82c-.15.39-.31.78-.46,1.18a10.52,10.52,0,0,1-2.21,3.29A14.59,14.59,0,0,1,66,44.52a26.91,26.91,0,0,1-10.69,2.16q-26.79,0-53.59,0Z"/><path class="cls-4" d="M1.5,46.68h.22q26.79,0,53.59,0A27,27,0,0,0,66,44.52a14.59,14.59,0,0,0,4.83-3.23A10.52,10.52,0,0,0,73,38c.16-.4.31-.79.46-1.18V73.5H1.5Z"/><text class="cls-5" transform="translate(7.8 57.83)">Mobile</text><text class="cls-6" transform="translate(7.63 67.54)">Accessories</text><path class="cls-7" d="M13.61,22.05a2.06,2.06,0,0,1-2.34,2.29h-.53V20h.53c1.59,0,2.34.75,2.34,2.08m-1.72,4.19c3,0,4.9-1.54,4.9-4.24,0-3-2-4-5.34-4a36.91,36.91,0,0,0-3.93.22V28.76h3.22V26.24Zm43.16-4.19a2.06,2.06,0,0,1-2.34,2.29h-.53V20h.53c1.59,0,2.34.75,2.34,2.08m-1.72,4.19c3,0,4.9-1.54,4.9-4.24,0-3-2-4-5.34-4A36.91,36.91,0,0,0,49,18.2V28.76h3.22V26.24Zm9.09-5.34c0-.58.58-.84,1.5-.84a8.07,8.07,0,0,1,2.87.53l-.26-2.3a13,13,0,0,0-3-.31c-2.6,0-4.37,1-4.37,3.18,0,3.71,5,3,5,4.68,0,.67-.48,1-1.67,1A9.59,9.59,0,0,1,58.89,26l.36,2.43A10.73,10.73,0,0,0,62.6,29c2.7,0,4.9-.88,4.9-3.54,0-3.52-5.08-2.86-5.08-4.54M46.53,18.2H43.31V28.76h3.22Zm-13.06,0H30.25V28.76h3.22Zm5.6,8.44V18.2H35.85V28.76h5.83l.48-2.12ZM27.86,18.2H24.64v4.2H21.29V18.2H18.07V28.76h3.22V24.61h3.35v4.15h3.23V18.2Z"/></g></g></svg>