<svg xmlns="http://www.w3.org/2000/svg" viewBox="0 0 458.63 74.98"><defs><style>.cls-1,.cls-2{fill:#fff;}.cls-1,.cls-3{fill-rule:evenodd;}.cls-3{fill:#099;}</style></defs><g id="Layer_2" data-name="Layer 2"><g id="svg4403"><g id="SIEMENS"><path class="cls-1" d="M2.91,71V57.26q11.7,3.68,20.7,3.68,12.44,0,12.44-6.57a5.4,5.4,0,0,0-1.82-4.12q-1.84-1.76-9.49-4.9Q11,39.73,6.89,35.74A17.68,17.68,0,0,1,1.5,22.51q0-10.29,7.84-15.68T29.55,1.49Q36.4,1.49,49.4,4V17.2a48.48,48.48,0,0,0-17.95-3.86q-11.67,0-11.67,6.42a4.52,4.52,0,0,0,2.35,3.92q2,1.23,10.78,5.2,12.71,5.64,16.92,9.81a17.21,17.21,0,0,1,5,12.79q0,11.28-9.81,17.21-7.94,4.8-20.59,4.8A94.2,94.2,0,0,1,2.91,71Z"/><path class="cls-2" d="M4.41,71V57.26L2.51,58.7a79.61,79.61,0,0,0,17.2,3.58c4.5.36,9.74.49,13.88-1.63a7,7,0,0,0,3.52-8.77c-1.47-3.91-6.4-5.61-9.9-7.11a131,131,0,0,1-14.85-7c-3.53-2.07-6.56-4.66-8.14-8.57a19.34,19.34,0,0,1,.25-14.44c1.89-4.29,5.68-7.21,9.88-9.06C25.21,1,37.82,3.3,49,5.46L47.9,4V17.2l1.9-1.45a51.65,51.65,0,0,0-17-3.88c-4-.16-9.14,0-12.36,2.8a6.43,6.43,0,0,0,0,9.62,19.26,19.26,0,0,0,3.94,2.28c2.2,1.07,4.43,2.09,6.66,3.1A101.58,101.58,0,0,1,45.23,37c3.41,2.25,6.19,5.14,7.37,9.16a19.38,19.38,0,0,1-1.05,13.65,20.24,20.24,0,0,1-9.85,9c-5.28,2.47-11.27,3.2-17,3.23A94.07,94.07,0,0,1,3.31,69.52C1.43,69.08.62,72,2.51,72.41a98.8,98.8,0,0,0,18.83,2.52A54.32,54.32,0,0,0,38,73.31c8.94-2.52,16.8-8.73,18.13-18.37.67-4.84,0-10-2.67-14.21C51.23,37.36,48,35,44.55,33c-4.8-2.82-9.92-5-14.95-7.31-1.83-.84-3.66-1.69-5.44-2.62-1.45-.76-2.88-1.63-2.88-3.46C21.28,15.49,27,15,30,14.87c6.55-.25,13,1.38,19,3.77A1.5,1.5,0,0,0,50.9,17.2V4a1.51,1.51,0,0,0-1.1-1.45c-10.25-2-21-3.89-31.38-1.34A27.9,27.9,0,0,0,5.8,7.78,19.5,19.5,0,0,0,.1,20.2,20.47,20.47,0,0,0,4,34.68c2.44,3.17,5.83,5.24,9.33,7.07,5,2.62,10.29,4.53,15.37,6.94C31.41,50,35.86,52,34.29,55.9c-.64,1.58-2.36,2.35-3.88,2.78a26.38,26.38,0,0,1-8.07.74,70.56,70.56,0,0,1-19-3.61,1.52,1.52,0,0,0-1.9,1.45V71A1.5,1.5,0,0,0,4.41,71Z"/><polygon class="cls-1" points="65.77 2.69 65.77 2.69 85.16 2.69 85.16 72.08 65.77 72.08 65.77 2.69"/><path class="cls-2" d="M65.77,4.19H85.16l-1.5-1.5V72.08l1.5-1.5H65.77l1.5,1.5V2.69a1.5,1.5,0,0,0-3,0V72.08a1.52,1.52,0,0,0,1.5,1.5H85.16a1.52,1.52,0,0,0,1.5-1.5V2.69a1.52,1.52,0,0,0-1.5-1.5H65.77A1.5,1.5,0,0,0,65.77,4.19Z"/><polygon class="cls-1" points="102.93 72.08 102.93 2.69 152.64 2.69 152.64 15.24 121.61 15.24 121.61 30.91 148.62 30.91 148.62 42.36 121.61 42.36 121.61 58.83 153.44 58.83 153.44 72.08 102.93 72.08"/><path class="cls-2" d="M104.43,72.08V2.69l-1.5,1.5h49.71l-1.5-1.5V15.24l1.5-1.5h-31a1.52,1.52,0,0,0-1.5,1.5V30.91a1.52,1.52,0,0,0,1.5,1.5h27l-1.5-1.5V42.36l1.5-1.5h-27a1.52,1.52,0,0,0-1.5,1.5V58.83a1.52,1.52,0,0,0,1.5,1.5h31.83l-1.5-1.5V72.08l1.5-1.5H102.93a1.5,1.5,0,0,0,0,3h50.51a1.52,1.52,0,0,0,1.5-1.5V58.83a1.52,1.52,0,0,0-1.5-1.5H121.61l1.5,1.5V42.36l-1.5,1.5h27a1.52,1.52,0,0,0,1.5-1.5V30.91a1.52,1.52,0,0,0-1.5-1.5h-27l1.5,1.5V15.24l-1.5,1.5h31a1.52,1.52,0,0,0,1.5-1.5V2.69a1.52,1.52,0,0,0-1.5-1.5H102.93a1.52,1.52,0,0,0-1.5,1.5V72.08A1.5,1.5,0,0,0,104.43,72.08Z"/><polygon class="cls-1" points="166.1 72.08 166.1 2.69 191.23 2.69 208.69 47.03 226.58 2.69 250.45 2.69 250.45 72.08 232.08 72.08 232.08 22.95 211.73 72.79 199.71 72.79 179.75 22.95 179.75 72.08 166.1 72.08"/><path class="cls-2" d="M167.6,72.08V2.69l-1.5,1.5h25.13l-1.45-1.1,5.89,15,9.4,23.87,2.17,5.51a1.51,1.51,0,0,0,2.89,0l6.05-15,9.64-23.88L228,3.09l-1.45,1.1h23.87L249,2.69V72.08l1.5-1.5H232.08l1.5,1.5V23c0-1.8-2.34-1.88-3-.4l-6.87,16.84-11,26.83-2.52,6.17,1.45-1.1h-12l1.45,1.1-6.74-16.83L183.67,28.72l-2.47-6.17c-.59-1.48-2.95-1.41-2.95.4V72.08l1.5-1.5H166.1a1.5,1.5,0,0,0,0,3h13.65a1.52,1.52,0,0,0,1.5-1.5V23l-2.94.4,6.74,16.84L195.8,67l2.46,6.17a1.58,1.58,0,0,0,1.45,1.1h12a1.55,1.55,0,0,0,1.44-1.1l6.88-16.84L231,29.52l2.52-6.17-2.94-.4V72.08a1.51,1.51,0,0,0,1.5,1.5h18.37a1.52,1.52,0,0,0,1.5-1.5V2.69a1.52,1.52,0,0,0-1.5-1.5H226.58a1.55,1.55,0,0,0-1.44,1.1l-6,15-9.64,23.88-2.21,5.47h2.89l-5.89-15L194.84,7.8l-2.17-5.51a1.55,1.55,0,0,0-1.44-1.1H166.1a1.52,1.52,0,0,0-1.5,1.5V72.08A1.5,1.5,0,0,0,167.6,72.08Z"/><polygon class="cls-1" points="268.23 72.08 268.23 2.69 317.94 2.69 317.94 15.24 286.92 15.24 286.92 30.91 313.93 30.91 313.93 42.36 286.92 42.36 286.92 58.83 318.75 58.83 318.75 72.08 268.23 72.08"/><path class="cls-2" d="M269.73,72.08V2.69l-1.5,1.5h49.71l-1.5-1.5V15.24l1.5-1.5h-31a1.52,1.52,0,0,0-1.5,1.5V30.91a1.52,1.52,0,0,0,1.5,1.5h27l-1.5-1.5V42.36l1.5-1.5h-27a1.52,1.52,0,0,0-1.5,1.5V58.83a1.52,1.52,0,0,0,1.5,1.5h31.83l-1.5-1.5V72.08l1.5-1.5H268.23a1.5,1.5,0,0,0,0,3h50.52a1.52,1.52,0,0,0,1.5-1.5V58.83a1.52,1.52,0,0,0-1.5-1.5H286.92l1.5,1.5V42.36l-1.5,1.5h27a1.52,1.52,0,0,0,1.5-1.5V30.91a1.52,1.52,0,0,0-1.5-1.5h-27l1.5,1.5V15.24l-1.5,1.5h31a1.52,1.52,0,0,0,1.5-1.5V2.69a1.52,1.52,0,0,0-1.5-1.5H268.23a1.52,1.52,0,0,0-1.5,1.5V72.08A1.5,1.5,0,0,0,269.73,72.08Z"/><polygon class="cls-1" points="331.5 72.08 331.5 2.69 353.97 2.69 377.8 49.15 377.8 2.69 391.45 2.69 391.45 72.08 369.63 72.08 345.16 25.01 345.16 72.08 331.5 72.08"/><path class="cls-2" d="M333,72.08V2.69l-1.5,1.5H354l-1.3-.74,8.05,15.69,12.84,25,2.94,5.74a1.51,1.51,0,0,0,2.8-.76V2.69l-1.5,1.5h13.65L390,2.69V72.08l1.5-1.5H369.63l1.29.75-8.27-15.92L349.47,30.06l-3-5.81a1.51,1.51,0,0,0-2.8.76V72.08l1.5-1.5H331.5a1.5,1.5,0,0,0,0,3h13.66a1.52,1.52,0,0,0,1.5-1.5V25l-2.8.75,8.28,15.92L365.31,67l3,5.8a1.5,1.5,0,0,0,1.3.74h21.82a1.52,1.52,0,0,0,1.5-1.5V2.69a1.52,1.52,0,0,0-1.5-1.5H377.8a1.52,1.52,0,0,0-1.5,1.5V49.14l2.79-.75-8-15.7-12.83-25-2.95-5.74A1.48,1.48,0,0,0,354,1.19H331.5a1.52,1.52,0,0,0-1.5,1.5V72.08A1.5,1.5,0,0,0,333,72.08Z"/><path class="cls-1" d="M405.21,71V57.26a69.59,69.59,0,0,0,20.71,3.68q12.43,0,12.43-6.57a5.47,5.47,0,0,0-1.75-4.12q-1.87-1.76-9.55-4.9-13.65-5.58-17.86-9.61a17.64,17.64,0,0,1-5.38-13.28q0-10.24,7.84-15.63t20.21-5.34A96.22,96.22,0,0,1,450,3.72l1.71.29V17.2a48.6,48.6,0,0,0-18-3.86q-11.62,0-11.62,6.42a4.52,4.52,0,0,0,2.35,3.92q1.86,1.18,10.83,5.2,12.6,5.64,16.86,9.8a17.21,17.21,0,0,1,5,12.8q0,11.28-9.75,17.21-8,4.8-20.64,4.8A94.22,94.22,0,0,1,405.21,71Z"/><path class="cls-2" d="M406.71,71V57.26l-1.9,1.44a77.47,77.47,0,0,0,17.68,3.62c4.4.31,9.63.41,13.62-1.79a7.06,7.06,0,0,0,3-9.33,8.91,8.91,0,0,0-3.83-3.66,60.32,60.32,0,0,0-6.76-3.18,108.16,108.16,0,0,1-14.5-6.9c-3.55-2.17-6.48-5-7.83-9.07a19.24,19.24,0,0,1,1-14.5c2.22-4.22,6.36-7,10.75-8.67,10.85-4,22.34-1.67,33.34.24L450.21,4V17.2l1.9-1.45a51.54,51.54,0,0,0-17.2-3.89c-4-.13-9,0-12.12,2.81a6.43,6.43,0,0,0,.11,9.73,18.85,18.85,0,0,0,3.65,2.09c2.2,1.07,4.43,2.09,6.66,3.09a105.39,105.39,0,0,1,14.06,7.23c3.47,2.25,6.34,5.09,7.58,9.15a19.38,19.38,0,0,1-1,13.83,19.91,19.91,0,0,1-9.66,8.9C438.87,71.21,432.81,72,427,72a94.22,94.22,0,0,1-21.36-2.47c-1.88-.44-2.68,2.45-.8,2.89a98.9,98.9,0,0,0,19.07,2.53,54.54,54.54,0,0,0,16.4-1.63,28.44,28.44,0,0,0,12.3-6.74,20,20,0,0,0,5.83-11.83,20.91,20.91,0,0,0-2.7-14c-2.2-3.43-5.55-5.76-9-7.79-4.83-2.83-10-5-15.06-7.35-1.76-.82-3.52-1.63-5.24-2.53-1.37-.72-2.76-1.57-2.8-3.3-.11-4.23,5.6-4.78,8.66-4.89,6.57-.26,13,1.37,19.06,3.77a1.5,1.5,0,0,0,1.9-1.44V4a1.51,1.51,0,0,0-1.1-1.44C442.19.85,432.29-1.14,422.25.89a29.37,29.37,0,0,0-13.36,6.19,18.94,18.94,0,0,0-6.36,12.15A20.9,20.9,0,0,0,405.7,34c2.34,3.32,5.63,5.51,9.15,7.42,5,2.7,10.31,4.64,15.46,7,2.9,1.33,7.93,3.35,6.29,7.51a5.07,5.07,0,0,1-3.33,2.63,24.05,24.05,0,0,1-8.1.92,69.11,69.11,0,0,1-19.56-3.62,1.52,1.52,0,0,0-1.9,1.45V71A1.5,1.5,0,0,0,406.71,71Z"/></g><g id="SIEMENS-2" data-name="SIEMENS"><path class="cls-3" d="M2.91,71V57.26q11.7,3.68,20.7,3.68,12.44,0,12.44-6.57a5.4,5.4,0,0,0-1.82-4.12q-1.84-1.76-9.49-4.9Q11,39.73,6.89,35.74A17.68,17.68,0,0,1,1.5,22.51q0-10.29,7.84-15.68T29.55,1.49Q36.4,1.49,49.4,4V17.2a48.48,48.48,0,0,0-17.95-3.86q-11.67,0-11.67,6.42a4.52,4.52,0,0,0,2.35,3.92q2,1.23,10.78,5.2,12.71,5.64,16.92,9.81a17.21,17.21,0,0,1,5,12.79q0,11.28-9.81,17.21-7.94,4.8-20.59,4.8A94.2,94.2,0,0,1,2.91,71Z"/><polygon class="cls-3" points="65.77 2.69 65.77 2.69 85.16 2.69 85.16 72.08 65.77 72.08 65.77 2.69"/><polygon class="cls-3" points="102.93 72.08 102.93 2.69 152.64 2.69 152.64 15.24 121.61 15.24 121.61 30.91 148.62 30.91 148.62 42.36 121.61 42.36 121.61 58.83 153.44 58.83 153.44 72.08 102.93 72.08"/><polygon class="cls-3" points="166.1 72.08 166.1 2.69 191.23 2.69 208.69 47.03 226.58 2.69 250.45 2.69 250.45 72.08 232.08 72.08 232.08 22.95 211.73 72.79 199.71 72.79 179.75 22.95 179.75 72.08 166.1 72.08"/><polygon class="cls-3" points="268.23 72.08 268.23 2.69 317.94 2.69 317.94 15.24 286.92 15.24 286.92 30.91 313.93 30.91 313.93 42.36 286.92 42.36 286.92 58.83 318.75 58.83 318.75 72.08 268.23 72.08"/><polygon class="cls-3" points="331.5 72.08 331.5 2.69 353.97 2.69 377.8 49.15 377.8 2.69 391.45 2.69 391.45 72.08 369.63 72.08 345.16 25.01 345.16 72.08 331.5 72.08"/><path class="cls-3" d="M405.21,71V57.26a69.59,69.59,0,0,0,20.71,3.68q12.43,0,12.43-6.57a5.47,5.47,0,0,0-1.75-4.12q-1.87-1.76-9.55-4.9-13.65-5.58-17.86-9.61a17.64,17.64,0,0,1-5.38-13.28q0-10.24,7.84-15.63t20.21-5.34A96.22,96.22,0,0,1,450,3.72l1.71.29V17.2a48.6,48.6,0,0,0-18-3.86q-11.62,0-11.62,6.42a4.52,4.52,0,0,0,2.35,3.92q1.86,1.18,10.83,5.2,12.6,5.64,16.86,9.8a17.21,17.21,0,0,1,5,12.8q0,11.28-9.75,17.21-8,4.8-20.64,4.8A94.22,94.22,0,0,1,405.21,71Z"/></g></g></g></svg>