<svg xmlns="http://www.w3.org/2000/svg" viewBox="0 0 198.74 74.95"><defs><style>.cls-1,.cls-2{fill:#fff;}.cls-1,.cls-3{fill-rule:evenodd;}</style></defs><g id="Layer_2" data-name="Layer 2"><g id="svg4403"><path class="cls-1" d="M30,1.55C31.79,4,33.38,6.44,35,9A49.08,49.08,0,0,0,22.59,7.46l-.17.25-.25,52.08c.17,2,1,3.62,1.51,5.4-3.52,0-6.44.25-10.21.08,1.25-2.28.92-5.32,1.17-8L14.56,7.71l-.09-.17c-4.6.09-8.7,1.18-13,2.2l.09-.34c1.75-2.53,3.26-5.23,5.1-7.68A151.44,151.44,0,0,0,29,1.47l1,.08Zm148,8.2c.58,2.44-.59,4.89-2.17,6.75a3.47,3.47,0,0,1-1.6,1,4.52,4.52,0,0,0-.66-4,3,3,0,0,1-1.51-2.78,3.68,3.68,0,0,1,.83-2.11A3.38,3.38,0,0,1,176.41,8,3.61,3.61,0,0,1,178,9.75Z"/><path class="cls-2" d="M28.74,2.31c1.73,2.42,3.36,4.91,4.94,7.42l1.7-2.2C32.81,7,30.23,6.46,27.62,6.17a33.14,33.14,0,0,0-3.85-.23c-1.17,0-2.42,0-2.79,1.37a8.67,8.67,0,0,0-.07,2.16l-.05,12L20.7,54l0,4.86c0,2.38.89,4.49,1.56,6.75l1.45-1.9c-3.41,0-6.81.22-10.21.08L14.76,66c1.38-2.71,1.3-6,1.38-8.94,0-.79,0-1.59,0-2.39l0-11.45L16.07,14.1V9.3a5.51,5.51,0,0,0-.29-2.52A1.5,1.5,0,0,0,14.47,6,65.22,65.22,0,0,0,1.1,8.29l1.84,1.84a5.35,5.35,0,0,1,.84-1.32L5.15,6.67C6.05,5.25,7,3.83,8,2.48l-1.29.74c4.28.2,8.57.33,12.86.27,2.07,0,4.14-.1,6.2-.24a28.15,28.15,0,0,1,4.3-.2C32,3.21,32,.21,30,.05a61.05,61.05,0,0,0-7.39.36c-3.27.13-6.55.12-9.83,0C11.24.41,9.66.35,8.08.28A4,4,0,0,0,5.92.42,5.7,5.7,0,0,0,4.58,2.08C3.65,3.4,2.8,4.77,1.94,6.13A12.15,12.15,0,0,0,.05,9.34a1.51,1.51,0,0,0,1.84,1.84A61.2,61.2,0,0,1,14.47,9L13.18,8.3c.15.3,0-.79-.12-.52a.82.82,0,0,0,0,.27c0,.35,0,.72,0,1.07v4l0,13,0,27.2c0,1.17,0,2.35,0,3.53,0,2.47.17,5.48-1,7.72a1.52,1.52,0,0,0,1.3,2.26c3.4.14,6.8-.07,10.21-.08a1.52,1.52,0,0,0,1.45-1.9c-.55-1.83-1.47-3.62-1.46-5.56l0-3.14L23.75,44l.14-29.45,0-5c0-.45,0-.89,0-1.34a2.16,2.16,0,0,0,0-.36c-.09-.44-.32.82,0,.39L22.59,9a50.51,50.51,0,0,1,12,1.46,1.51,1.51,0,0,0,1.69-2.2c-1.58-2.52-3.21-5-4.94-7.43C30.22-.77,27.62.73,28.74,2.31Z"/><path class="cls-2" d="M176.56,10.14a5.46,5.46,0,0,1-.54,3.4,10.28,10.28,0,0,1-.53.91c-.08.14-.18.27-.27.4a2.48,2.48,0,0,1-.19.26c.06-.07.05-.06,0,0s-.22.27-.34.4-.31.3-.12.14a2.34,2.34,0,0,1-.39.25,2.44,2.44,0,0,1-.28.14q.2-.09-.06,0l1.85,1.85a5.92,5.92,0,0,0-.19-4,5.15,5.15,0,0,0-.51-1,2.29,2.29,0,0,0-.66-.69s-.38-.27-.16-.09a1.92,1.92,0,0,1-.29-.28c.2.22-.07-.11-.11-.18l-.09-.18c.07.16.07.16,0,0s-.07-.25-.1-.38c-.09-.38,0,.28,0-.12a3.09,3.09,0,0,1,0-.43c0,.21.07-.24.09-.3s0-.09,0,0a2.29,2.29,0,0,1,.14-.27c.07-.13.16-.25.23-.38s.1-.17-.15.12l.12-.08c.15-.07.28-.18.43-.25l.2-.1c-.13.06-.12.05,0,0l.43-.11c-.28.06.13,0,.18,0s.42.07.17,0l.28.08q-.18-.08,0,0s.35.26.13.08a2.35,2.35,0,0,1,.33.3s.3.34.16.15c0,.06.27.54.18.28a1.5,1.5,0,0,0,2.89-.79,4.61,4.61,0,0,0-4.32-3.13,5.36,5.36,0,0,0-2.66.88,4.51,4.51,0,0,0-1.68,2.32A4.66,4.66,0,0,0,172,14.28c.11.1.48.5.65.48-.25-.29-.32-.35-.22-.2s.07.11.11.17l.12.23c-.06-.15-.05-.14,0,0s.11.35.16.54a2.56,2.56,0,0,1,0,.27c0-.17,0-.16,0,0a3.41,3.41,0,0,1,0,.55c0,.09,0,.18,0,.27,0-.17,0-.18,0,0s-.08.32-.13.48A1.51,1.51,0,0,0,174.63,19a7.17,7.17,0,0,0,4-3.91,8.43,8.43,0,0,0,.84-5.7,1.5,1.5,0,1,0-2.89.79Z"/><path class="cls-1" d="M35.81,10.34l.75,1.43A52.07,52.07,0,0,0,24.93,9.83l-.09.25-.66,29.8.08,17.73a40.16,40.16,0,0,0,.58,6.33c-1.42-1.27-1.59-3.46-1.75-5.49L23,50.18c-.17-.16.09-.59.09-.84l.08-16.71.26-24.39a48.68,48.68,0,0,1,12.38,2.1ZM13.63,8.82c-.09.42.17,1.09-.26,1.18A53.69,53.69,0,0,0,2.91,11.94c-.25-.42-.67-.76-.58-1.27A37,37,0,0,1,13.46,8.56l.17.26Zm164.63,7.42a8.58,8.58,0,0,1-2.85,3.38c-1.83-1.52,1.43-1.94,1.68-3.21a10.2,10.2,0,0,0,1.84-4.56,6.2,6.2,0,0,1-.67,4.39Zm14.56,3.13.17.33-.09,7.85c-2-2.11-3.93-5.4-7.28-5.23A2.84,2.84,0,0,0,183.19,24a5.42,5.42,0,0,0,.76,4.81c4.43,6.49,12,11.81,11,20.42a9.52,9.52,0,0,1-5.35,7.51c-3.52,1.69-8.29.76-11.47-1.27v-7c2.34,2.36,5,5.31,8.46,4a3.79,3.79,0,0,0,2.09-3.54c-.59-8-9.87-11.56-11.21-19.24-.67-3.54,0-7.26,2.76-9.54,3-2.86,8.21-2.27,11.72-.75.33-.09.5.16.83,0ZM95.4,22v8.27c-1.67-2.36-2.6-6.67-6.44-6.58-2.09.25-3.52,2.45-4,4.39a47.12,47.12,0,0,0-.33,19.08c.58,2.36,1.83,5,4.43,5.31,3-.16,5.1-3,6.7-5.31.25,2.53.08,5.23.16,7.76-2.34,3-6.19,3.71-9.78,3-8.62-3.54-8.79-13.58-8.62-22a34.11,34.11,0,0,1,3-12.32c2-3.29,5.61-5.48,9.54-4.72A8.84,8.84,0,0,1,95.4,22Zm13.22-3c-.09,1-.67,1.86-.67,3l.09,12c2.26.34,4.43,0,6.52.08l.09-.25V20.88l-.51-1.94c2.46-.08,4.91-.08,7.37,0l-.25,1.61.08,34.1a9.2,9.2,0,0,0,.84,2.11c-2.6,0-5.27.17-8,0a12.92,12.92,0,0,0,.67-4.14L114.64,39c-2.18-.34-3.94,0-6.45-.08l-.09.84.17,15a14.87,14.87,0,0,0,.84,2l-8.21.08c0-1.18.67-2.28.84-3.54l-.17-32c-.09-.76-.34-1.61-.42-2.37,2.79.09,5.12-.08,7.47,0Zm35.32-.08a12.2,12.2,0,0,1,2,4.72,33.06,33.06,0,0,0-9.2-.67l-.17.25V33.8l.25.16c2.26-.08,4.77.09,6.87-.59.08,2.37,0,4.22,0,6.25a19.05,19.05,0,0,0-6.95-.76l-.17.25V52.29l.17.16c3.18.09,6.78.34,9.54-.92a15.39,15.39,0,0,1-1.59,5.06l-.17.17h-16c1.93-3.63,1.34-8.44,1.51-12.15.09-7.43.09-16.12-.25-23.47A8.72,8.72,0,0,0,129,19l.17-.17Z"/><path class="cls-2" d="M34.52,11.09l.75,1.44L37,10.32a57.8,57.8,0,0,0-12-2,1.53,1.53,0,0,0-1.45,1.1,8.6,8.6,0,0,0-.18,2.48l-.12,5.21-.31,14.17c-.14,6-.18,11.88-.15,17.83,0,5-.27,10.26.68,15.22l2.5-1.46c-1.65-1.63-1.31-4.69-1.34-6.87,0-1.93.05-3.88-.06-5.8,0-.26,0-.58,0-.18,0-.24.09-.47.11-.71s0-.29,0-.44c0-.7,0-1.4,0-2.1l0-7.15c0-6.77.1-13.54.17-20.31l.12-11.08-1.5,1.5a49.76,49.76,0,0,1,12,2,1.5,1.5,0,0,0,.8-2.89A52.35,52.35,0,0,0,23.43,6.74a1.51,1.51,0,0,0-1.5,1.5l-.24,22.92c0,2.42,0,4.84-.05,7.26l0,7.48,0,2.57a11.56,11.56,0,0,1-.11,1.28,3.74,3.74,0,0,0,0,.52h0c0,.14,0,.28,0,.42,0,.5,0,1,0,1.49l.05,4.17c0,3-.06,6.42,2.21,8.65a1.51,1.51,0,0,0,2.51-1.46c-.8-4.16-.54-8.6-.56-12.82,0-3.6-.08-7.2-.05-10.8C25.73,33,26,26,26.14,19l.15-6.42,0-1.85a4.34,4.34,0,0,1,0-.51c0-.4-.09.34,0,0l-1.44,1.1a52.85,52.85,0,0,1,11.23,1.89A1.53,1.53,0,0,0,37.86,11l-.75-1.43C36.21,7.87,33.62,9.38,34.52,11.09Z"/><path class="cls-2" d="M12.13,8.82a2.26,2.26,0,0,0,0,.45,1.34,1.34,0,0,0,0,.2c0,.37.08.18.28-.57l.66-.39h-.13l-.32,0-.74.07c-.49.05-1,.11-1.45.18-.9.12-1.79.28-2.68.46-1.76.36-3.5.81-5.24,1.24l1.7.69-.33-.47c-.16-.23,0-.21,0,0l-1.1,1.45a36.82,36.82,0,0,1,10.73-2.06l-1.3-.74.17.25a1.5,1.5,0,0,0,2.59-1.51,2,2,0,0,0-1.06-.94,6.33,6.33,0,0,0-2,0,28.55,28.55,0,0,0-3.57.45A52.31,52.31,0,0,0,1.93,9.23a1.54,1.54,0,0,0-1.1,1.44,3.24,3.24,0,0,0,.79,2,1.56,1.56,0,0,0,1.69.69c2.25-.56,4.49-1.15,6.77-1.54,1.1-.18,2.19-.25,3.29-.35A1.86,1.86,0,0,0,15,10.21a8.12,8.12,0,0,0,.09-1.39,1.51,1.51,0,0,0-1.5-1.5A1.53,1.53,0,0,0,12.13,8.82Z"/><path class="cls-2" d="M177,15.49a7.37,7.37,0,0,1-.48.87c-.09.15-.18.29-.28.43L176,17c.13-.17,0,0,0,.06a8.51,8.51,0,0,1-.71.76c-.12.12-.26.22-.38.34s.19-.13,0,0l-.25.17,1.81.24-.26-.25c-.15-.14.07.09.09.13l-.06-.11s.13.37.08.2,0,.35,0,.22a1.16,1.16,0,0,1-.14.48c.11-.24-.06.08-.08.09s.12-.12.17-.16c.19-.2-.3.2-.06,0l.25-.18a4,4,0,0,0,2-2.21l-.39.66a12.11,12.11,0,0,0,2.23-5.22h-2.9c0,.06.13.62.08.28a4.89,4.89,0,0,1,0,.54c0,.18,0,.36,0,.54h0l0,.2a8.16,8.16,0,0,1-.26,1c0,.06-.24.56-.1.25l-.22.46A1.5,1.5,0,0,0,179.55,17a7.82,7.82,0,0,0,.83-5.54,1.5,1.5,0,0,0-2.9,0,18,18,0,0,1-.43,1.76c-.08.29-.19.57-.29.85.12-.32-.09.18-.11.24l-.18.35q-.24.4-.51.78l-.16.21a1.28,1.28,0,0,0-.17.42c0,.2.18-.35.07-.16s.16-.14.08-.09-.1.11-.15.16-.28.23,0,.05l-.07,0a5.92,5.92,0,0,0-1.84,1.57,2.36,2.36,0,0,0,.68,3,1.54,1.54,0,0,0,1.82.23A9.76,9.76,0,0,0,179.55,17,1.53,1.53,0,0,0,179,15,1.51,1.51,0,0,0,177,15.49Z"/><path class="cls-2" d="M191.52,20.12c.33.65.08-.72,0-.22a4.93,4.93,0,0,0,0,.77l0,2.71,0,4.17L194,26.49c-2.42-2.6-5.22-6.74-9.41-5.49a4.64,4.64,0,0,0-3.11,5.12c.23,2.25,1.53,4,2.88,5.7,2.49,3.18,5.44,6.06,7.43,9.61s2.7,7.88.34,11.35c-3,4.42-9.08,3.92-13.16,1.41l.74,1.29v-7l-2.56,1.06c2.76,2.79,7.21,6.89,11.18,3.54,3.4-2.86,1.61-7.77-.5-10.88s-5-5.47-7-8.55-3.09-8.13-.51-11.4a7.17,7.17,0,0,1,6-2.65,13.21,13.21,0,0,1,3.58.59c1.16.35,2.09.87,3.34.62,1.89-.37,1.09-3.26-.8-2.89.53-.11.06,0-.14-.05l-.65-.25q-.63-.24-1.29-.42a17.71,17.71,0,0,0-3.16-.55,11.41,11.41,0,0,0-6,1c-4,1.95-5.75,6.44-5.37,10.66.35,3.85,2.18,6.91,4.66,9.8,2.23,2.6,5.07,5.1,6.22,8.43a6.62,6.62,0,0,1,.52,2.87,2.32,2.32,0,0,1-2.36,1.85c-2.29,0-4.16-2.38-5.63-3.86a1.51,1.51,0,0,0-2.56,1.06V52.1a14.93,14.93,0,0,0,.05,3.78c.32,1.12,2,1.67,3,2.06a15.54,15.54,0,0,0,4.45,1.11,11.35,11.35,0,0,0,7.67-1.82c4.55-3.22,5.7-9.14,3.92-14.22-1.7-4.87-5.46-8.57-8.65-12.49a14.09,14.09,0,0,1-2.38-3.47c-.5-1.25-.54-3.23,1.24-3.24,2.55,0,4.35,3.17,5.88,4.8a1.52,1.52,0,0,0,2.56-1.06l0-4.53c0-1.43.32-3.1-.34-4.41C193.25,16.88,190.66,18.4,191.52,20.12Z"/><path class="cls-2" d="M93.9,22v8.27l2.79-.76c-1.69-2.47-2.53-5.77-5.6-7-3.8-1.46-6.8,1.95-7.65,5.35a44.73,44.73,0,0,0-.94,14.59c.32,3.69.67,8.64,4.27,10.76C91,55.74,94.91,51,97,47.89l-2.79-.75c.23,2.58.09,5.17.16,7.76l.44-1.06a7.51,7.51,0,0,1-5,2.73,7.35,7.35,0,0,1-5.35-1.26c-2.73-1.86-4.13-5-4.83-8.08A44.58,44.58,0,0,1,79,36.85a31.78,31.78,0,0,1,1-7.12c.56-2.22,1.21-4.8,2.72-6.58A7.49,7.49,0,0,1,94.34,23c1.27,1.46,3.39-.67,2.12-2.12a10.41,10.41,0,0,0-14.62-1.18c-2.38,2-3.5,4.75-4.37,7.66A34.48,34.48,0,0,0,76,36.69c-.07,4.61,0,9.48,1.55,13.87s5.14,8.56,10,9a11.18,11.18,0,0,0,8.11-2.32,6.46,6.46,0,0,0,1.53-1.6,5.68,5.68,0,0,0,.18-2.57c0-2,0-4-.14-6a1.52,1.52,0,0,0-2.8-.76,12,12,0,0,1-3.84,4.09c-1.61.86-2.81.18-3.67-1.35a14.79,14.79,0,0,1-1.34-5.72,49.13,49.13,0,0,1-.25-7.28,37.28,37.28,0,0,1,.94-7.21c.33-1.38,1.1-3.51,2.75-3.74,2.68-.37,4,4.19,5.07,5.84a1.52,1.52,0,0,0,2.8-.76V22A1.5,1.5,0,0,0,93.9,22Z"/><path class="cls-2" d="M107.17,18.54a27.39,27.39,0,0,0-.71,4.11l0,4.12.05,7.11a1.54,1.54,0,0,0,1.5,1.5,61.63,61.63,0,0,0,6.52.08,1.53,1.53,0,0,0,1.45-1.1,9.64,9.64,0,0,0,.14-2.89v-10a11.93,11.93,0,0,0-.56-2.94l-1.45,1.9c2.46-.08,4.91-.08,7.37,0l-1.45-1.9c-.65,4.13-.29,8.43-.28,12.59l0,19.81v3a7.91,7.91,0,0,0,1,3.6l1.3-2.25c-2.68,0-5.36.14-8,0l1.45,1.9a20.44,20.44,0,0,0,.71-5.38l-.06-4.64-.1-8.19a1.51,1.51,0,0,0-1.1-1.44,58,58,0,0,0-6.85-.14,1.54,1.54,0,0,0-1.5,1.5,77.38,77.38,0,0,0,0,8.48l.06,5.69a9,9,0,0,0,1.06,4.47l1.3-2.25-8.21.08,1.5,1.5c.08-1.32.8-2.53.83-3.87,0-.68,0-1.36,0-2l0-7.75-.09-18.45,0-2.79a26.24,26.24,0,0,0-.48-3.4l-1.44,1.9c2.49.07,5-.07,7.47,0,1.93.06,1.93-2.94,0-3-2.49-.07-5,.07-7.47,0a1.53,1.53,0,0,0-1.45,1.9,18.46,18.46,0,0,1,.37,2.52v2.25l0,8.15.1,18.09c0,.82,0,1.64,0,2.46,0,1.38-.75,2.63-.83,4a1.51,1.51,0,0,0,1.5,1.5l8.21-.08A1.52,1.52,0,0,0,110.4,56a4.26,4.26,0,0,1-.63-1.77,16.26,16.26,0,0,1,0-1.71l-.07-5.67a70.81,70.81,0,0,1,0-8l-1.5,1.5a53.08,53.08,0,0,1,6,0L113.14,39l.1,7.94.05,4.7a17.58,17.58,0,0,1-.6,4.77,1.53,1.53,0,0,0,1.45,1.9c2.68.14,5.36,0,8,0A1.52,1.52,0,0,0,123.47,56a3.94,3.94,0,0,1-.63-2.14V51.34l0-8.7,0-18.86V20.57c0,.67,0,.09,0-.19l.17-1a1.53,1.53,0,0,0-1.45-1.9c-2.46-.08-4.91-.08-7.37,0a1.52,1.52,0,0,0-1.45,1.9c.16.61.27,1.27.49,1.86,0,0,0-.5,0-.16a2.78,2.78,0,0,0,0,.5V33c0,.18,0,.37,0,.56,0,.41.1-.39,0,0l1.44-1.11a61.63,61.63,0,0,1-6.52-.08l1.5,1.5L109.49,27l0-4.09c0-.32,0-.65,0-1,0-.9.49-1.73.61-2.62a1.53,1.53,0,0,0-1-1.84A1.52,1.52,0,0,0,107.17,18.54Z"/><path class="cls-2" d="M142.64,19.62A12,12,0,0,1,144.5,24l1.84-1.84a38.29,38.29,0,0,0-6.75-.81c-1.65,0-4.28-.37-4.52,1.84a45.4,45.4,0,0,0,0,4.81c0,1.87-.08,3.76,0,5.63.06,1.56,1.28,1.86,2.61,1.83a24.11,24.11,0,0,0,6.4-.62l-1.89-1.45c.06,2.09,0,4.17,0,6.25l1.89-1.45a20.06,20.06,0,0,0-5.22-.85c-1.52,0-3.59-.17-3.79,1.79-.12,1.18,0,2.42,0,3.6v6.52c0,1-.34,2.84.2,3.81a2.18,2.18,0,0,0,2.09.93c1.08,0,2.15.07,3.23.06A16.57,16.57,0,0,0,147,52.82l-2.26-1.29a9.09,9.09,0,0,1-.6,2.4,5.83,5.83,0,0,1-.72,1.77l1.06-.44h-16l1.3,2.25a19.84,19.84,0,0,0,1.67-9c0-3.2.07-6.39.09-9.59q0-5.21-.07-10.41c-.06-3.41.3-7.14-1.19-10.27l-.24,1.82.17-.17-1.06.44h14.74a1.5,1.5,0,0,0,0-3h-13c-1.05,0-2.15-.2-3,.61a1.54,1.54,0,0,0-.24,1.81,11.35,11.35,0,0,1,.69,4.77c.05,1.55.08,3.11.11,4.66q.08,4.88.06,9.74c0,2.87-.08,5.74-.08,8.61s0,5.85-1.27,8.44a1.52,1.52,0,0,0,1.29,2.26H139c1.71,0,3.42,0,5.13,0a2,2,0,0,0,1.63-.61A9.44,9.44,0,0,0,147,54.94a12.51,12.51,0,0,0,.78-3.41c.11-1.27-1.32-1.7-2.25-1.3-2.71,1.16-5.93.81-8.79.72l1.06.44-.17-.17.44,1.07V39.63a1.78,1.78,0,0,0,0-.4c-.11-.43-.33.83,0,.39l-1.29.74a17.69,17.69,0,0,1,6.55.7,1.52,1.52,0,0,0,1.9-1.44c0-2.08.06-4.16,0-6.25a1.52,1.52,0,0,0-1.9-1.44,13.62,13.62,0,0,1-3.41.48c-.59,0-1.18,0-1.77,0h-.86c.24.16.27.18.08,0l.74,1.3V24.73c0-.38,0-.78,0-1.16,0-.09,0-.23,0-.31-.08-.26-.29.78,0,.41l-1.29.74a32.59,32.59,0,0,1,8.81.62,1.51,1.51,0,0,0,1.84-1.84,14.35,14.35,0,0,0-2.16-5.09C144.16,16.51,141.56,18,142.64,19.62Z"/><path class="cls-1" d="M46.27,19a10.36,10.36,0,0,1,1.92,4.72,29.48,29.48,0,0,0-9.12-.67C38.81,26.62,38.9,30.67,39,34a18.53,18.53,0,0,0,4.35.09L46,33.46c.09,2,.09,4,.09,6.33l-.09.08c-2.09-.93-4.6-.93-6.94-.93C38.9,44.43,39,47,39,52.44l.51.26c3.18.08,6.44.17,9.12-1,0,1.77-1,3.45-1.59,5.14-5.19.26-10.8.17-16.16.09,1.84-3,1.26-7.09,1.59-10.72l-.08-22.37a11.89,11.89,0,0,0-.92-4.73c4.94-.16,9.88-.07,14.82-.07Zm76.83,2.61v35.2c-.76-.59-.83-1.77-.83-2.78-.17-4.31,0-6.84-.17-10.47V21.31a1.92,1.92,0,0,1,.84-1.27C123.94,20.12,122.94,21.05,123.1,21.64Zm-12.8-1.43c-.67,4.47,0,7.93-.34,12.66a1.05,1.05,0,0,1-1,.08L109,21.39A1.21,1.21,0,0,1,110.3,20.21Zm84.53,10.46c-.34-.08-.5-.5-.75-.59V20.8l.75.84ZM70.2,27.47l4.78,25c.16,1.1.42,2.2.58,3.38a3.81,3.81,0,0,1-1.51-2.53L71.37,40.13,67.78,21.47l.16-.25C70,22.57,69.54,25.36,70.2,27.47ZM170.89,53.8l-4.95-15.52v-.59a12.1,12.1,0,0,0,3.18-2.62c3-3.46,2.52-9.45.67-13.16-1.26-2-3.43-2.79-5.61-3q-6.83-.14-13.64,0a19.56,19.56,0,0,1,1.17,5V49.93c.17,2.45-.59,4.64-1.09,6.75,2.77,0,5.36.09,8-.08a6.41,6.41,0,0,1-.59-2.2q-.13-7.59,0-15.19c.59-.08,1.25-.25,1.68.09l3.93,13.16c.25,1.27,1,2.7.42,4l.08.17c2.84-.08,5.78.09,8.46-.17a6.72,6.72,0,0,1-1.75-2.71Zm-8.11-20.6c-1.26.93-3,.51-4.52.6l-.17-.26V23l.25-.16c2.09,0,4.44-.43,5.44,1.77C165.12,27.3,164.87,31.09,162.78,33.2Z"/><path class="cls-2" d="M45,19.78a10.14,10.14,0,0,1,1.77,4.37l1.85-1.84a30.48,30.48,0,0,0-9.52-.73,1.52,1.52,0,0,0-1.5,1.5c-.25,3.62-.18,7.26-.09,10.88a1.52,1.52,0,0,0,1.1,1.45,20.44,20.44,0,0,0,7.83-.51l-1.9-1.44c.08,2.11.09,4.22.09,6.33L45,38.73l-.09.08,1.46-.39a19,19,0,0,0-7.34-1,1.52,1.52,0,0,0-1.5,1.5c-.14,4.5-.09,9-.09,13.5a1.49,1.49,0,0,0,.74,1.3c1.48.74,3.28.54,4.9.48A16.66,16.66,0,0,0,49,53.13l-1.9-1.44c-.07,1.67-1,3.2-1.54,4.74L47,55.33c-5.39.25-10.77.17-16.16.09l1.3,2.25c2-3.44,1.68-7.76,1.79-11.6,0-1.6,0-3.21,0-4.81l-.06-15.49c0-2.51,0-5.13-1.13-7.42l-1.3,2.25c4.94-.15,9.88-.07,14.82-.07a1.5,1.5,0,0,0,0-3c-4.94,0-9.88-.08-14.82.07a1.52,1.52,0,0,0-1.29,2.26c.84,1.69.71,3.77.72,5.63l0,6.69L31,45.62c0,1-.09,2-.12,3.05-.07,2.53,0,5.22-1.26,7.49a1.51,1.51,0,0,0,1.29,2.26c5.39.08,10.77.16,16.16-.09a1.55,1.55,0,0,0,1.44-1.1c.68-1.85,1.57-3.54,1.65-5.54a1.51,1.51,0,0,0-1.9-1.45,14,14,0,0,1-4.87,1c-.83,0-1.66,0-2.49,0H40.4c-.52-.09-.6,0-.23.14-.07,0-.38-.18-.43-.21l.74,1.29c0-4.5,0-9,.09-13.5l-1.5,1.5a16.64,16.64,0,0,1,6.54.88,1.49,1.49,0,0,0,1.46-.39c.82-.81.53-2.22.52-3.27,0-1.4,0-2.8-.08-4.2A1.53,1.53,0,0,0,45.61,32a16.55,16.55,0,0,1-6.23.51L40.48,34c-.09-3.62-.16-7.26.09-10.88l-1.5,1.5a28.08,28.08,0,0,1,8.72.62,1.52,1.52,0,0,0,1.84-1.85,11.93,11.93,0,0,0-2.07-5.08C46.45,16.71,43.85,18.21,45,19.78Z"/><path class="cls-2" d="M121.6,21.64v35.2l2.56-1.06c-.61-.58-.4-1.91-.42-2.69,0-1.19,0-2.38,0-3.57,0-2-.06-4-.09-5.93,0-1.13,0-2.26,0-3.39V22.4a5.89,5.89,0,0,0,0-.84c0-.26,0-.18.09-.22l-1.15.15c-1-.23-.49-1.75-.86-.68a2.35,2.35,0,0,0-.08.83c.16,1.91,3.16,1.93,3,0,0-.3.24-.75.26-1.09a1.76,1.76,0,0,0-.34-1.25,2,2,0,0,0-3,0,3.68,3.68,0,0,0-.91,2.62v6.64c0,5-.08,10,0,14.93,0,2.09.08,4.17.09,6.25,0,1.57,0,3.13.08,4.69A4.85,4.85,0,0,0,122,57.9a1.52,1.52,0,0,0,2.56-1.06V21.64A1.5,1.5,0,0,0,121.6,21.64Z"/><path class="cls-2" d="M108.85,19.81c-.63,4.34-.09,8.7-.39,13.06l.74-1.3c.08-.06.44,0,.15-.07L110.46,33l.07-10.51c0-.29,0-.58,0-.87s0,.15-.24.14c1.93.07,1.92-2.93,0-3a2.78,2.78,0,0,0-2.76,2.93c0,.8,0,1.6,0,2.4l0,7.13V33a1.52,1.52,0,0,0,1.1,1.45,2.73,2.73,0,0,0,1.85-.07c1-.46,1-1.34,1.1-2.32.06-1.32.06-2.64,0-4a46.19,46.19,0,0,1,.2-7.44,1.55,1.55,0,0,0-1-1.85A1.52,1.52,0,0,0,108.85,19.81Z"/><path class="cls-2" d="M195.23,29.23c.38.26.48.3.29.13l-.15-.17a2.31,2.31,0,0,0-.53-.4l.74,1.29V20.8L193,21.86l.75.84-.44-1.06v9a1.5,1.5,0,0,0,3,0V21.9a1.9,1.9,0,0,0-.44-1.32c-.24-.28-.5-.56-.75-.84a1.51,1.51,0,0,0-2.56,1.06v9.28a1.49,1.49,0,0,0,.75,1.3c-.14-.07-.21-.21,0,0a1.8,1.8,0,0,0,.19.2,2.54,2.54,0,0,0,1,.56,1.52,1.52,0,0,0,1.85-1A1.54,1.54,0,0,0,195.23,29.23Z"/><path class="cls-2" d="M68.76,27.87l4.36,22.85c.35,1.83.72,3.66,1,5.51l2.2-1.7c-.76-.5-.85-1.82-1-2.67L74.5,48q-.81-4-1.61-7.92c-.86-4.25-1.65-8.53-2.47-12.79l-1.2-6.22-.15,1.15.17-.25-2,.54c1.44,1,1.12,3.8,1.57,5.35a1.5,1.5,0,0,0,2.89-.8c-.77-2.69-.42-5.33-3-7.14a1.51,1.51,0,0,0-2,.53,2.88,2.88,0,0,0-.13,2.4l.68,3.57L69,36c.8,4.16,1.65,8.31,2.49,12.47.56,2.74.72,7,3.27,8.67,1.22.81,2.37-.52,2.2-1.69-.52-3.6-1.3-7.17-2-10.74L72.3,30.48l-.65-3.41C71.29,25.17,68.4,26,68.76,27.87Z"/><path class="cls-2" d="M172.33,53.41l-2.58-8.12L168.05,40c-.17-.54-.33-1.09-.52-1.63l-.12-.38a.25.25,0,0,0,0-.07c.17.66.05,0,.05-.19L166.7,39c2.82-1.77,5-4.08,5.75-7.41a15.94,15.94,0,0,0-.83-9.21c-1.33-3.31-4.49-4.85-7.93-5-4.37-.19-8.78-.07-13.15,0a1.52,1.52,0,0,0-1.45,1.9A18,18,0,0,1,150.21,24c0,.54,0,1.08,0,1.62V48.09c0,.58,0,1.17,0,1.75a25.17,25.17,0,0,1-1,6.44,1.52,1.52,0,0,0,1.44,1.9c2.68,0,5.36.07,8-.08A1.52,1.52,0,0,0,160,55.84a10.62,10.62,0,0,1-.42-4.13c0-1.39,0-2.78,0-4.17q0-4.15.06-8.33l-1.1,1.45a4.34,4.34,0,0,1,.52-.07l-.69-.89,2.42,8.11L162,52.23c.08.27.16.55.23.82a7.8,7.8,0,0,1,.53,2.45c-.07.8-.3,1.17.09,1.94a1.45,1.45,0,0,0,1.29.74c2.82-.07,5.65.07,8.46-.17a1.52,1.52,0,0,0,1.06-2.56,5.87,5.87,0,0,1-1.37-2c-.64-1.81-3.54-1-2.89.79a9.35,9.35,0,0,0,2.14,3.37L172.64,55c-2.81.24-5.64.1-8.46.17l1.3.75-.09-.17.15,1.15c.67-2-.18-4.06-.76-6l-1.59-5.33-1.62-5.42c-.12-.4-.21-.84-.36-1.23-.61-1.52-2.18-1.39-3.54-1.18a1.5,1.5,0,0,0-1.1,1.44q-.07,4.66-.06,9.31c0,2.93-.35,6.1.85,8.84l1.3-2.26c-2.68.15-5.36.09-8,.08l1.45,1.9a28,28,0,0,0,1.14-7.16V26c0-.67,0-1.33,0-2A21,21,0,0,0,152,18.47l-1.45,1.9q4.62-.09,9.26-.06c2.5,0,5.57-.38,7.7,1.26,1.62,1.24,2.09,3.87,2.24,5.79a9.68,9.68,0,0,1-1.31,6.16,8.9,8.9,0,0,1-2.31,2.27c-1,.67-1.74,1.09-1.68,2.39a7.42,7.42,0,0,0,.45,1.74l2.53,7.94,2,6.34C170,56,172.92,55.25,172.33,53.41Z"/><path class="cls-2" d="M162,31.91a2.32,2.32,0,0,1-1.58.41c-.73,0-1.45-.06-2.18,0l1.29.74-.17-.25.21.75V23l-.75,1.3.26-.17-.76.21c.58,0,1.16,0,1.73,0,.29,0,.57,0,.85,0,.43,0-.26-.07.15,0l.39.09a2.65,2.65,0,0,1,.37.12c-.24-.1,0,0,.1.08.25.12-.09-.14.12.08,0,0,.26.28.16.16a3.74,3.74,0,0,1,.59,1.34,6.08,6.08,0,0,1,.29,1.52c0,.31,0,.62,0,.94,0,.15,0,.31,0,.46,0,.48.07-.25,0,.22-.06.3-.12.6-.21.9l-.15.43c-.1.28.06-.09-.09.2s-.25.48-.4.71a2.14,2.14,0,0,1-.13.19c.07-.09.08-.09,0,0s-.23.26-.35.38a1.51,1.51,0,0,0,2.13,2.13,9.21,9.21,0,0,0,1.6-9.59A5.43,5.43,0,0,0,164,22.45a4.61,4.61,0,0,0-2.29-1,12.62,12.62,0,0,0-2.38-.11,3.11,3.11,0,0,0-2.32.62,2.61,2.61,0,0,0-.44,2v8.63a3.1,3.1,0,0,0,.36,2c.52.73,1.16.73,2,.74.48,0,1,0,1.44,0a5.52,5.52,0,0,0,3.17-.82,1.54,1.54,0,0,0,.54-2A1.51,1.51,0,0,0,162,31.91Z"/><path class="cls-1" d="M173,32.28a13.09,13.09,0,0,1-4.61,6.49l.67,2.62,4.6,14.18c-1-.59-1.51-2-2.09-3.13-1.67-4.64-3.26-9.28-4.69-14.09L167,38c3.85-2.11,5.44-6.58,5.2-11,.08-1.43-.59-2.61-.59-4a11.15,11.15,0,0,1,1.34,9.2Zm14-8.78c-.59.34-1.84.84-2.09,1.77a3.75,3.75,0,0,0,0,2.87c-.6,0-.67-.93-.92-1.35a3.21,3.21,0,0,1,.42-2.78A2.29,2.29,0,0,1,187,23.5Zm-89.64,1c.08,2.87.08,6.16,0,9l-.83-.76v-9Zm47.62.68a21.8,21.8,0,0,0-5.77-.17l-.17.25.08,7.6a3.06,3.06,0,0,1-1.26.08l-.16-.25.08-8.86c2.51-.09,5.19-.26,7.2,1.18v.17Zm17.5-.68c-.58.26-1.51-.17-2,.42l-.08,7.77h-1c-.17-3-.08-5.66-.08-8.78,1,0,2.67-.59,3.18.59Zm-115.26.68-.08.17a18.67,18.67,0,0,0-5.78-.09c-.16,2.45.17,5,0,7.85H40.07C39.9,30.17,39.9,27,39.9,24c2.43,0,4.69-.34,6.86.84Zm42.95-.34c-2.43.84-3,3.71-3.52,5.91-.92,6.66-1.09,14.51,1.76,20.33-1.43-.33-1.93-1.94-2.43-3.12-1.67-6.75-1.76-15,.59-21.52a3.7,3.7,0,0,1,2.26-1.77A2.42,2.42,0,0,1,90.13,24.85ZM73.05,53.55,67.19,22.4l-.83-3.29c-3.18-.17-5.86.17-8.7,0a10.12,10.12,0,0,1,.42,3.21L52,53.89l-1,3,.09.09a56.11,56.11,0,0,0,6.61-.09A6.2,6.2,0,0,1,57,54.73a51.56,51.56,0,0,1,1.26-7.93h6.36l.5.17L66.2,53.8a4.66,4.66,0,0,1-.51,3,75.82,75.82,0,0,0,8.79-.08,7.36,7.36,0,0,1-1.43-3.21ZM59,42.07c.83-4.47,1.67-8.86,2.68-13.24.84,4.3,1.84,8.69,2.51,13.16Z"/><path class="cls-2" d="M171.54,31.88a11.87,11.87,0,0,1-3.92,5.6,1.56,1.56,0,0,0-.68,1.69c1.44,5.68,3.46,11.22,5.27,16.8l2.2-1.7c-.88-.61-1.37-2.16-1.73-3.12-.52-1.42-1-2.85-1.49-4.28q-1.53-4.42-2.87-8.92l-.15,1.16c.24-.49-.26,0,.1-.08a3.69,3.69,0,0,0,1-.74,10.42,10.42,0,0,0,1.5-1.47,12.62,12.62,0,0,0,2.2-4,15.36,15.36,0,0,0,.76-4.66,15.15,15.15,0,0,0-.11-2.33c-.13-.92-.45-1.8-.5-2.73l-2.79.76a9.75,9.75,0,0,1,1.18,8c-.57,1.85,2.33,2.64,2.89.8A12.69,12.69,0,0,0,173,22.32a1.52,1.52,0,0,0-2.8.76c.08,1.6.6,3.08.61,4.7a12.88,12.88,0,0,1-.65,4.22,8.83,8.83,0,0,1-2,3.35c-.82.83-2.19,1.28-2.6,2.42a3.85,3.85,0,0,0,.34,2.37c.29.92.57,1.84.87,2.76q.87,2.73,1.82,5.45c1,2.81,1.76,6.71,4.36,8.51a1.52,1.52,0,0,0,2.21-1.69c-1.81-5.58-3.83-11.11-5.27-16.79l-.69,1.69a15.44,15.44,0,0,0,5.29-7.39C175.12,30.87,172.23,30.09,171.54,31.88Z"/><path class="cls-2" d="M186.2,22.2a13.81,13.81,0,0,0-1.24.72,3.67,3.67,0,0,0-1.54,1.95l.15-.35a5.23,5.23,0,0,0-.15,4l1.45-1.9h-.05l.4.05a.28.28,0,0,1-.13,0l.35.15a.3.3,0,0,1-.11-.06l.3.24-.12-.13.23.31a2.37,2.37,0,0,1-.19-.35l.16.36a9.56,9.56,0,0,0-.47-1.15l.15.36-.06-.37.06.4a4.54,4.54,0,0,1,0-1.22l-.06.4a3.05,3.05,0,0,1,.17-.61l-.15.36a2.9,2.9,0,0,1,.29-.52l-.23.3a1.88,1.88,0,0,1,.35-.34l-.3.23a2.2,2.2,0,0,1,.4-.23l-.36.15a2.75,2.75,0,0,1,.56-.16l-.4.06a2.81,2.81,0,0,1,.71,0l-.4-.06a2.72,2.72,0,0,1,.62.17,1.5,1.5,0,0,0,1.84-1.05,1.51,1.51,0,0,0-.15-1.16,1.75,1.75,0,0,0-.89-.69,3.74,3.74,0,0,0-4.1,1,4.18,4.18,0,0,0-.93,2.47,5.63,5.63,0,0,0,0,.82c0,.26.07.52.11.78a3.06,3.06,0,0,0,.25.63l-.15-.36a11,11,0,0,0,.48,1.19,2.14,2.14,0,0,0,1.81,1.1,1.51,1.51,0,0,0,1.44-1.9,8.59,8.59,0,0,1-.24-1.12l.05.4a3.57,3.57,0,0,1,0-1l-.06.4a2.19,2.19,0,0,1,.16-.57l-.15.36c.11-.24.21-.48.31-.72l-.15.36a1.63,1.63,0,0,1,.19-.34l-.23.3a2.74,2.74,0,0,1,.45-.45l-.3.24a11.39,11.39,0,0,1,1.38-.82,1.5,1.5,0,0,0-1.51-2.6Z"/><path class="cls-2" d="M95.82,24.51q.14,4.51,0,9l2.56-1.06-.83-.76L98,32.78v-9l-2.57,1.06.84.76a1.5,1.5,0,0,0,2.12-2.12l-.83-.76A1.52,1.52,0,0,0,95,23.75v8.76a1.8,1.8,0,0,0,.43,1.33c.26.27.56.51.84.76a1.52,1.52,0,0,0,2.56-1.06q.14-4.51,0-9a1.5,1.5,0,0,0-3,0Z"/><path class="cls-2" d="M145.34,23.74a23.66,23.66,0,0,0-6-.24,1.84,1.84,0,0,0-1.55.89,1.72,1.72,0,0,0-.29.9c0,.17,0,.35,0,.52l.06,5.4,0,1.66,1.1-1.45c-.16,0-.15.06,0,0h-.29l-.59,0,1.3.74-.17-.25.21.76.07-7.74V23.84l-1.5,1.5a31.75,31.75,0,0,1,3.65,0l.3,0,.3.05a7.72,7.72,0,0,1,.83.2l.4.14c.1,0,.09,0,0,0l.2.09a6.86,6.86,0,0,1,.79.47L143.44,25v.17a1.5,1.5,0,0,0,3,0,1.71,1.71,0,0,0-.86-1.55,6.17,6.17,0,0,0-.87-.48,8.68,8.68,0,0,0-2.28-.68,23.72,23.72,0,0,0-4.69-.14,1.52,1.52,0,0,0-1.5,1.5l-.08,8.6a2,2,0,0,0,.21,1,1.81,1.81,0,0,0,1.53,1,3.68,3.68,0,0,0,1.58-.14,1.54,1.54,0,0,0,1.1-1.44l-.08-7.6-.21.76.17-.25-1.29.74a16.71,16.71,0,0,1,2.83-.11c.45,0,.91.05,1.36.09l.67.07.34,0,.17,0a1.54,1.54,0,0,0,1.85-1A1.52,1.52,0,0,0,145.34,23.74Z"/><path class="cls-2" d="M162,23.07s-.19.07-.2.06.41,0,.08,0h-.4a3.35,3.35,0,0,0-1.3.21A1.9,1.9,0,0,0,158.93,25c0,.47,0,.94,0,1.41l-.06,5V32.7l1.5-1.5h-1l1.5,1.5c-.16-2.93-.08-5.85-.08-8.78l-1.5,1.5c.52,0,1-.12,1.56-.14.13,0,.25,0,.37,0,.28,0-.34-.06.08,0,.16.05.12,0-.1-.05.14.08.11.05-.08-.08.11.11.1.08-.05-.09a1.74,1.74,0,0,1,.1.19,1.51,1.51,0,0,0,2.05.54,1.54,1.54,0,0,0,.54-2,2.82,2.82,0,0,0-2.49-1.48c-.67,0-1.32.13-2,.14a1.53,1.53,0,0,0-1.5,1.5c0,2.93-.08,5.85.08,8.78a1.54,1.54,0,0,0,1.5,1.5h1a1.53,1.53,0,0,0,1.5-1.5l.07-6.79v-1L161.49,26c.13-.14.06-.05,0,0s-.23.1,0,.05c-.12,0-.25,0-.07,0h.29a3.3,3.3,0,0,0,1.21-.14,1.53,1.53,0,0,0,1-1.85A1.51,1.51,0,0,0,162,23.07Z"/><path class="cls-2" d="M45.89,24.43l-.08.17,1.69-.69a21,21,0,0,0-6.57-.08,1.51,1.51,0,0,0-1.11,1.44c-.16,2.62.15,5.23,0,7.85l1.5-1.5H40.07l1.5,1.5c-.17-3-.17-6.08-.17-9.11l-1.5,1.5a37.73,37.73,0,0,1,4,0l.23,0c-.13,0-.13,0,0,0l.52.1a8.34,8.34,0,0,1,.89.26c.48.17-.26-.09.23.1s-.14-.15,0-.05a2.6,2.6,0,0,1,.36.3,1.55,1.55,0,0,0,2.13,0,1.52,1.52,0,0,0,0-2.12,5.93,5.93,0,0,0-1.31-.86,9.32,9.32,0,0,0-2.48-.68,31.56,31.56,0,0,0-4.56-.08A1.52,1.52,0,0,0,38.4,24c0,3,0,6.08.17,9.11a1.52,1.52,0,0,0,1.5,1.5h1.25a1.52,1.52,0,0,0,1.5-1.5c.15-2.62-.16-5.23,0-7.85l-1.1,1.45.32,0h.09l.66-.05c.47,0,1,0,1.43,0l1.34.09.66.07.32,0,.16,0a1.55,1.55,0,0,0,1.7-.69l.08-.17a1.5,1.5,0,1,0-2.59-1.51Z"/><path class="cls-2" d="M89.73,23.4c-4.68,1.86-4.87,8.15-5.12,12.43-.32,5.43.1,11.05,2.46,16l1.69-2.2c-1.49-.48-1.75-3.64-2-4.88a41.11,41.11,0,0,1-.58-7c0-1.7.39-12.77,3.51-11.46a1.51,1.51,0,0,0,1.84-1.05,1.54,1.54,0,0,0-1-1.85,4,4,0,0,0-3.82.65,6,6,0,0,0-2.13,3.53,36.32,36.32,0,0,0-1.35,9.32A44.42,44.42,0,0,0,84,46.18c.46,2.48,1.25,5.5,4,6.36,1.34.43,2.22-1.1,1.69-2.2-1.94-4.1-2.27-8.8-2.11-13.27a33.71,33.71,0,0,1,.64-6.5c.35-1.47.74-3.64,2.34-4.27C92.3,25.59,91.53,22.69,89.73,23.4Z"/><path class="cls-2" d="M74.5,53.15,68.94,23.58c-.31-1.64-.72-3.24-1.13-4.87a1.54,1.54,0,0,0-1.45-1.1c-2.9-.13-5.8.15-8.7,0a1.53,1.53,0,0,0-1.45,1.9,7.86,7.86,0,0,1,.31,3L56.05,25l-1.65,8.5L50.89,51.57a36.36,36.36,0,0,1-1.37,4.87,1.49,1.49,0,0,0,.38,1.46c.81.81,2.22.54,3.27.56a35.44,35.44,0,0,0,4.49-.12c.85-.09,1.85-.9,1.44-1.9a5.08,5.08,0,0,1-.58-1.93c0-.8.19-1.64.28-2.43a29.94,29.94,0,0,1,.9-4.88l-1.45,1.1h6.28c.13,0,.22-.09-.24,0a1.32,1.32,0,0,1,.42.15l-1-1.05.66,4.14.36,2.31a4.88,4.88,0,0,1-.44,2.62,1.51,1.51,0,0,0,1.44,1.9,83.12,83.12,0,0,0,8.79-.08c1-.08,2-1.27,1.29-2.26a7.13,7.13,0,0,1-1.27-2.85c-.42-1.88-3.32-1.08-2.89.8a9.06,9.06,0,0,0,1.57,3.56l1.3-2.25a83.12,83.12,0,0,1-8.79.08l1.45,1.9a6.73,6.73,0,0,0,.49-3.93c-.13-.71-.22-1.42-.34-2.12l-.73-4.62a1.5,1.5,0,0,0-1-1A10.91,10.91,0,0,0,62,45.3H58.25a1.54,1.54,0,0,0-1.45,1.1,36.31,36.31,0,0,0-1,5.68,23.63,23.63,0,0,0-.31,2.65,6.71,6.71,0,0,0,.72,2.51l1.45-1.9a60.75,60.75,0,0,1-6.61.09l1.06.44L52,55.78l.39,1.46a31.79,31.79,0,0,0,1.27-4.35l1.48-7.6,3.72-19.23.54-2.8a11.69,11.69,0,0,0-.32-4.55l-1.44,1.9c2.9.15,5.8-.13,8.7,0l-1.45-1.1c.93,3.65,1.59,7.31,2.29,11l3.52,18.7L71.61,54C72,55.84,74.86,55,74.5,53.15Z"/><path class="cls-2" d="M60.44,42.47c.82-4.43,1.67-8.85,2.68-13.25h-2.9c.86,4.39,1.84,8.75,2.52,13.17l1.44-1.9L59,40.57c-1.93,0-1.93,3,0,3l5.19-.08a1.53,1.53,0,0,0,1.45-1.9C65,37.17,64,32.81,63.12,28.43a1.51,1.51,0,0,0-2.9,0c-1,4.39-1.85,8.82-2.68,13.25a1.54,1.54,0,0,0,1.05,1.84A1.52,1.52,0,0,0,60.44,42.47Z"/><path class="cls-1" d="M61.16,40.64c-.16.25-.66.17-.91.08l-.09-.08a58.7,58.7,0,0,1,1.26-7.17C62.67,35.82,61.5,38.18,61.16,40.64Zm84.63-5.49v7.34a1,1,0,0,1-1-.59V34.47C145.28,34.3,145.62,34.81,145.79,35.15ZM48,35.23c.08,2.78.08,4.89.08,7.43a1,1,0,0,1-1-.51v-7.6A.93.93,0,0,1,48,35.23Zm93.73,5.41c-.92.17-2.17-.08-2.76.76v10a2.35,2.35,0,0,1-1.34,0l-.09-11.56C139,39.7,140.93,39.36,141.76,40.64ZM113,40.81l-2.68.08a109.05,109.05,0,0,0,.17,15.87c-.51-.17-.67-.93-1-1.44L109.21,53V39.88a27.89,27.89,0,0,1,3.77,0v.93Zm-67.3.5c-1.5-.08-3.26-.75-4.43.34v10c-.42,0-1.09.17-1.34-.16V40.22c.17-.42.92-.26,1.34-.34C42.75,40,44.68,39.87,45.68,41.31Zm114.41,4.06v11c-.66-.09-.66-1.1-.92-1.69A107.07,107.07,0,0,1,159.09,42c.83.84.83,2.19,1,3.38Zm35.15,9.7a10.9,10.9,0,0,1-10,4.89c-1.92-.16-4-.33-5.1-2.11a14.73,14.73,0,0,0,5.94.93c4-.08,8-3.29,9.38-7.09.75-2.11.59-4.72.42-7a11.4,11.4,0,0,1-.69,10.38ZM63.68,47.81A1.21,1.21,0,0,1,64,49l-3.86.17-.25.26-1.09,6.92c-1-.85-.75-2.62-.75-3.89a26.17,26.17,0,0,1,1-4.64ZM98,48.91,97.91,56a11.66,11.66,0,0,1-11.21,4,9.74,9.74,0,0,1-3.35-2.28c3.09,2,7.78,1.77,10.88,0a8.91,8.91,0,0,0,2.68-2.62V48A1.25,1.25,0,0,1,98,48.91ZM147.71,53a46,46,0,0,1-1.6,5.83l-.25.17H129.71c-.17-.34-.5-.68-.43-1.1l15.91-.09a41.77,41.77,0,0,0,2.17-5.23C147.62,52.54,147.62,52.79,147.71,53Zm27.62,5.66-.25.25h-9.63a.82.82,0,0,1-.26-1l.26-.09h9.37A.86.86,0,0,1,175.33,58.7Zm-13.73-.85c.34.17.67.43.67.76s-.34.59-.67.43h-9.2c-.34-.26-.26-.68-.26-1.1,3.1-.25,6.36-.09,9.46-.09Zm-50,.09c.25.17.58.59.42.93l-.5.33h-9.37c-.59-.16-.26-.67-.26-1.09,0-.09.09-.26.26-.17Zm13,0c.34.17.75.51.5.93l-.34.25h-9.62a.6.6,0,0,1-.16-1l.08-.17ZM76.49,58a1.69,1.69,0,0,1,.91,1.1c-3.51.08-7.2,0-10.87.08a2.08,2.08,0,0,1-.67-1.09C69.54,58.19,73,57.85,76.49,58ZM59.33,58c.58.17.83.59,1.08,1.18H51.88a1.72,1.72,0,0,1-.83-1.09c2.84,0,5.51-.17,8.28-.09Zm-11.81.09c.42.08.26.5.09.76l-.51.33H32.38a4.21,4.21,0,0,1-.75-1C36.81,58.11,42.17,58,47.52,58.11ZM25.18,66.38c.17.42.42.84.58,1.26H15.05a1,1,0,0,1-.33-1.09c1.75-.26,3.68,0,5.43-.17Zm168,6.41a3.45,3.45,0,0,0,3.44-3.46,3.44,3.44,0,0,0-1-2.53,3.42,3.42,0,0,0-4.85,0,3.44,3.44,0,0,0-1,2.53,3.26,3.26,0,0,0,1,2.45A3.21,3.21,0,0,0,193.15,72.79Zm2.93-.59a4.08,4.08,0,0,1-2.93,1.27,4.32,4.32,0,0,1-4.09-4.14,4.12,4.12,0,0,1,1.25-3,3.91,3.91,0,0,1,2.84-1.27,4.08,4.08,0,0,1,2.93,1.27,4.2,4.2,0,0,1,0,5.82Z"/><path class="cls-2" d="M60.1,39.58a1.39,1.39,0,0,1,.41-.23c.26,0,.3,0,.14,0,.44,0,.13,0,0,0l.67.38-.09-.08L61.61,41a59.71,59.71,0,0,1,1.25-7.17l-2.74.35a1.42,1.42,0,0,1,.12.25h0a3.16,3.16,0,0,1,.12.37c0,.14.06.29.1.43s0,.08,0-.1a2.29,2.29,0,0,1,0,.25,6.17,6.17,0,0,1,0,.86l0,.37q0,.26,0,0l0,.18c-.19,1.16-.53,2.28-.69,3.44a1.67,1.67,0,0,0,.15,1.16,1.56,1.56,0,0,0,.9.69A1.51,1.51,0,0,0,62.61,41c.19-1.33.59-2.62.77-3.95a7.13,7.13,0,0,0-.67-4.38A1.49,1.49,0,0,0,61.22,32,1.52,1.52,0,0,0,60,33.07,32.32,32.32,0,0,0,59,38.23c-.06.45-.13.89-.2,1.34,0,.23-.07.45-.1.67a1.65,1.65,0,0,0,.39,1.47,2.29,2.29,0,0,0,3.12,0,1.54,1.54,0,0,0,0-2.12A1.52,1.52,0,0,0,60.1,39.58Z"/><path class="cls-2" d="M144.29,35.15v7.34l1.5-1.5c-.18,0-.17,0,.05,0a.61.61,0,0,1,.3.2c-.11-.12-.1-.09,0,.08l-.1-.17.2.76V34.47l-1.1,1.45a1.07,1.07,0,0,1-.68-.12l-.15-.12c.08.09.09.09,0,0s-.07-.1,0,0a.35.35,0,0,1,0,.08l.11.19a1.51,1.51,0,0,0,2,.54,1.53,1.53,0,0,0,.54-2,2.37,2.37,0,0,0-2.7-1.37,1.53,1.53,0,0,0-1.1,1.45v7.12a4.36,4.36,0,0,0,0,.51A2.4,2.4,0,0,0,145.79,44a1.54,1.54,0,0,0,1.5-1.5V35.15a1.5,1.5,0,0,0-3,0Z"/><path class="cls-2" d="M46.53,35.23c.07,2.47.08,5,.08,7.43l1.5-1.5c-.17,0-.15,0,.06.05-.13,0-.14,0,0,0a.39.39,0,0,1,.21.13c.11.17.13.19,0,0l.2.76v-7.6l-1.5,1.5q.26,0-.09,0a.51.51,0,0,1-.24-.1.44.44,0,0,1-.17-.19c.09.14.08.11,0-.1a1.5,1.5,0,0,0,2.9-.8,2.44,2.44,0,0,0-2.37-1.78,1.54,1.54,0,0,0-1.5,1.5v7.26c0,.11,0,.23,0,.34a2.32,2.32,0,0,0,2.5,2,1.54,1.54,0,0,0,1.5-1.5c0-2.48,0-5-.08-7.43a1.5,1.5,0,1,0-3,0Z"/><path class="cls-2" d="M141.36,39.19c.29,0-.27,0-.33,0l-.54,0a5.05,5.05,0,0,0-1.34.26,2.33,2.33,0,0,0-1.65,2c0,.6,0,1.21,0,1.81v8.18L138.6,50a.93.93,0,0,1-.55,0l1.11,1.45-.08-10.1V39.88l-1.5,1.5a15.16,15.16,0,0,1,2-.18c.16,0,.31,0,.46,0-.28,0,.13,0,.19.05.29.06-.07-.08.16.07s.15.1,0,0c.12.13.13.14.05,0a1.54,1.54,0,0,0,2.05.54,1.53,1.53,0,0,0,.54-2.06c-1.33-1.87-3.44-1.76-5.49-1.5a1.54,1.54,0,0,0-1.5,1.5L136.15,50v1.45a1.51,1.51,0,0,0,1.1,1.45,4,4,0,0,0,2.14,0,1.57,1.57,0,0,0,1.1-1.45v-10l-.44,1.06a1.3,1.3,0,0,0,.19-.22c-.07.11-.22.07-.1.08a1.43,1.43,0,0,0,.28-.07c.25,0-.33,0,.13,0s1.07-.07,1.6-.15a1.52,1.52,0,0,0,1.05-1.85A1.55,1.55,0,0,0,141.36,39.19Z"/><path class="cls-2" d="M113,39.31l-2.68.08a1.54,1.54,0,0,0-1.5,1.5A106.42,106.42,0,0,0,109,56.76l2.25-1.3s-.35-.7-.46-.89l.2.75a121.43,121.43,0,0,1-.25-13.22V39.88l-1.5,1.5a31.61,31.61,0,0,1,3.77,0l-1.5-1.5v.93a1.5,1.5,0,0,0,3,0v-.93a1.52,1.52,0,0,0-1.5-1.5,31.61,31.61,0,0,0-3.77,0,1.53,1.53,0,0,0-1.5,1.5v6.67c0,2.15-.12,4.35,0,6.5.1,1.68.28,4.16,2,5,.92.45,2.38-.07,2.26-1.29a106.42,106.42,0,0,1-.17-15.87l-1.5,1.5,2.68-.08C114.9,42.25,114.91,39.25,113,39.31Z"/><path class="cls-2" d="M45.68,39.81c-.45,0-.59-.06-1.07-.12a10.74,10.74,0,0,0-1.69-.16c-1.08,0-2.58.45-3,1.54a5.48,5.48,0,0,0-.13,2v8.64l1.5-1.5a4,4,0,0,0-.5,0h-.23a.81.81,0,0,1,.45.23l.44,1.06V40.22L41.2,41c0,.05-.54.52-.64.44a1.45,1.45,0,0,0,.29,0l.48,0c.62,0-.15,0,.14,0l1.32.07c.07,0,.24,0,.08,0l.31,0,.6.16a1.85,1.85,0,0,1,.61.4,1.54,1.54,0,0,0,2,.54,1.51,1.51,0,0,0,.54-2,4.93,4.93,0,0,0-3.32-2,13.67,13.67,0,0,0-1.81-.16c-.34,0-.66,0-1,0,.33,0,0,0,0,0a3.45,3.45,0,0,0-.64.05,1.93,1.93,0,0,0-1.8,1.91c0,.4,0,.8,0,1.19v8.62c0,.41,0,.83,0,1.24a1.65,1.65,0,0,0,.53,1.25,2.91,2.91,0,0,0,2.31.52,1.52,1.52,0,0,0,1.5-1.5v-10l-.44,1.06a.81.81,0,0,1,.51-.18c-.22,0,.27,0,.26,0a4.41,4.41,0,0,1,.52,0c.33,0,.44,0,.83.11s.83.12,1.25.14a1.5,1.5,0,0,0,1.5-1.5A1.53,1.53,0,0,0,45.68,39.81Z"/><path class="cls-2" d="M158.59,45.37v11l1.9-1.45c.43.46.56.55.37.26.06.1.06.07,0-.11s-.08-.33-.13-.49a8.31,8.31,0,0,1-.18-1.58c-.07-1.19-.1-2.39-.1-3.59,0-2.46.1-4.93.15-7.39L158,43.05c.56.62.51,1.94.62,2.71a1.5,1.5,0,0,0,1.84,1.05,1.54,1.54,0,0,0,1-1.84c-.2-1.5-.33-2.87-1.39-4A1.52,1.52,0,0,0,157.59,42c-.06,2.92-.2,5.84-.14,8.77a19.87,19.87,0,0,0,.33,4.43c.3,1.11.65,2.28,1.91,2.59a1.51,1.51,0,0,0,1.9-1.44v-11A1.5,1.5,0,0,0,158.59,45.37Z"/><path class="cls-2" d="M194,54.31a10,10,0,0,1-6.15,4.06,11.5,11.5,0,0,1-3.61,0,3.58,3.58,0,0,1-2.71-1.26l-1.69,2.2a17.69,17.69,0,0,0,7.25.91,11.85,11.85,0,0,0,6.09-2.74A12.56,12.56,0,0,0,197,52.09c.85-2.33.66-5,.48-7.4l-2.8.76a9.62,9.62,0,0,1-.68,8.86c-1,1.63,1.55,3.14,2.59,1.52a12.71,12.71,0,0,0,.68-11.9,1.51,1.51,0,0,0-2.79.76,17.44,17.44,0,0,1-.25,6.24,9.41,9.41,0,0,1-3,4.26,8.59,8.59,0,0,1-4.38,2.05,15,15,0,0,1-6.22-.83,1.52,1.52,0,0,0-1.7,2.2A5.94,5.94,0,0,0,183,61.18a15.61,15.61,0,0,0,5.19.16,13,13,0,0,0,8.4-5.51,1.52,1.52,0,0,0-.54-2.06A1.54,1.54,0,0,0,194,54.31Z"/><path class="cls-2" d="M62.62,48.87c.12.12.11.1,0,0s-.07-.2,0-.09,0,.08,0-.1c0,.17,0,.16,0,0L64,47.49l-2.44.11c-.42,0-.85,0-1.27.06a3.43,3.43,0,0,0-.55.06,2.15,2.15,0,0,0-1.3,1.3c-.13.52-.17,1.09-.25,1.62l-.51,3.22-.33,2.08,2.51-.66-.15-.15c.12.16.13.18,0,0a1.18,1.18,0,0,1-.11-.19q.12.3,0,.06c0-.15-.08-.29-.11-.43s0-.16,0,.05c0-.08,0-.16,0-.24,0-.62,0-1.25,0-1.87,0,.37,0-.23.06-.31s.07-.41.1-.61c.07-.4.13-.8.2-1.2a10.19,10.19,0,0,1,.59-2.23l-1.45,1.1h4.61a1.5,1.5,0,1,0,0-3H59.07a1.56,1.56,0,0,0-1.44,1.1A11.07,11.07,0,0,0,57,49.94a21.12,21.12,0,0,0-.41,2.84c0,1.6-.11,3.45,1.19,4.62a1.53,1.53,0,0,0,1.46.38,1.47,1.47,0,0,0,1.05-1.05l1.08-6.92-.38.67.25-.26-1.06.44L64,50.49a1.5,1.5,0,0,0,1.44-1.1,2.78,2.78,0,0,0-.72-2.64,1.54,1.54,0,0,0-2.12,0A1.52,1.52,0,0,0,62.62,48.87Z"/><path class="cls-2" d="M96.49,48.91,96.41,56l.44-1.06a10,10,0,0,1-5.77,3.56,11.55,11.55,0,0,1-3.47.16c-1.28-.11-2.29-1.12-3.2-1.95l-1.82,2.36a12.33,12.33,0,0,0,12.69-.2,9.5,9.5,0,0,0,2.78-2.76,2.35,2.35,0,0,0,.35-1.42V48l-1.5,1.5c-.48,0-.41-.27-.21.19a1.5,1.5,0,0,0,2,.53,1.53,1.53,0,0,0,.54-2.05,2.77,2.77,0,0,0-2.38-1.67,1.51,1.51,0,0,0-1.5,1.5v7.17l.2-.75c-2.42,3.52-8,4.33-11.5,2.08a1.5,1.5,0,0,0-1.82,2.35,12.17,12.17,0,0,0,3.19,2.33,8.47,8.47,0,0,0,3.71.55,13.42,13.42,0,0,0,6.62-1.88c1.37-.84,3.55-2.35,3.6-4.1,0-1.21,0-2.43,0-3.64l0-3.18C99.52,47,96.52,47,96.49,48.91Z"/><path class="cls-2" d="M146.26,52.65a49.63,49.63,0,0,1-1.59,5.82l.69-.9-.26.17.76-.2H129.71l1.29.74c0-.08-.22-.49-.22-.34l-1.5,1.5,13.88-.07,2,0a1.49,1.49,0,0,0,1.29-.74A47.07,47.07,0,0,0,148.81,53l-1.45,1.1.19,0-1.3-.74v0a1.5,1.5,0,0,0,2.89-.79,1.85,1.85,0,0,0-1.79-1.53,1.54,1.54,0,0,0-1.45,1.1,38.54,38.54,0,0,1-2,4.88l1.3-.75-13.89.08h-2a1.52,1.52,0,0,0-1.5,1.5,3.51,3.51,0,0,0,.63,1.85,1.51,1.51,0,0,0,1.3.75c5.3,0,10.63.16,15.94,0a2,2,0,0,0,1.91-1.27,30.51,30.51,0,0,0,1.59-5.83,1.53,1.53,0,0,0-1-1.84A1.51,1.51,0,0,0,146.26,52.65Z"/><path class="cls-2" d="M174.27,57.64l-.25.25,1.06-.44h-9.63l1.06.44c-.19-.18-.16-.11.07.2,0,.42,0,.51.06.25l-1,1c.11,0,.41-.09,0-.06-.58.05-.21,0-.16,0h9.35l-.75-.2c.13.09.13.09,0,0a2.13,2.13,0,0,1-.23-.45,1.51,1.51,0,0,0,1.5,1.5,1.53,1.53,0,0,0,1.5-1.5,2.28,2.28,0,0,0-2-2.35h-8.6c-.8,0-1.65,0-2.2.68a2.2,2.2,0,0,0,1.23,3.39,2.91,2.91,0,0,0,.51,0H175a2,2,0,0,0,1.44-.69,1.53,1.53,0,0,0,0-2.12A1.51,1.51,0,0,0,174.27,57.64Z"/><path class="cls-2" d="M160.85,59.15c.07,0,.3.1.2.11s-.23-.36,0-.7a.6.6,0,0,1,.1-.78l.75-.21c.33,0-.17,0-.29,0H152.4l1.06.44a.65.65,0,0,1,.12.31c0,.24.07.26,0,.06a1.88,1.88,0,0,0,0-.41l-1.5,1.5c3.15-.25,6.31-.09,9.46-.09a1.5,1.5,0,0,0,0-3c-3.15,0-6.31-.16-9.46.09a1.53,1.53,0,0,0-1.5,1.5c0,1.18.35,2.5,1.76,2.6h9.17c.21,0-.67,0,0,0a1.9,1.9,0,0,0,1.19-.23,2.08,2.08,0,0,0,1-2.23,2.51,2.51,0,0,0-1.34-1.53,1.53,1.53,0,0,0-2.05.54A1.51,1.51,0,0,0,160.85,59.15Z"/><path class="cls-2" d="M110.88,59.23c-.25-.19-.42-.24-.27-.76l.69-.9-.49.34.75-.21h-8.51c-.24,0-.48,0-.71,0,0,0-.1,0-.14,0h0c-.26,0-.07.18.57.53.44.11.63.32.57.62,0,.11,0,.12,0,0a1,1,0,0,0,0-.17c0-.1,0-.2,0-.31.06-.37,0-.26-.11.31l-.54.54.08,0-1.15.15a19.22,19.22,0,0,0,3.56.08h6.4a1.5,1.5,0,0,0,0-3h-4.23c-1.69,0-3.4-.08-5.09,0h-.12s-.49-.18.13,0c.41.13-.31,0-.45,0a1.63,1.63,0,0,0-1.18.76,2.23,2.23,0,0,0-.27.91c0-.35,0,0,0,.14a2.06,2.06,0,0,0,.47,1.87,2.77,2.77,0,0,0,2.24.58h6c.76,0,1.54,0,2.3,0a2.23,2.23,0,0,0,1.27-.45,1.86,1.86,0,0,0,.88-1.85,2.66,2.66,0,0,0-1.18-1.76,1.51,1.51,0,0,0-2,.54A1.53,1.53,0,0,0,110.88,59.23Z"/><path class="cls-2" d="M123.85,59.23c.14.09.15.09,0,0a1.45,1.45,0,0,1-.22-.49l.21-.76-.06.14.53-.54-.33.26.75-.21h-9.62l.76.21c-.36-.17.32.45.34.52a1,1,0,0,1-.14.74c-.15.28.18-.24.18-.25a.91.91,0,0,0,.07-.14l-1.29.74h9.54l-1.5-1.5h0a1.5,1.5,0,0,0,3,0h0a1.52,1.52,0,0,0-1.5-1.5h-9.54a1.51,1.51,0,0,0-1.3.74c-.09.19-.08,0,0,0l.08-.09a2,2,0,0,0-.53,1,2.05,2.05,0,0,0,.85,2.15,2.2,2.2,0,0,0,1.24.32h9a2,2,0,0,0,1.19-.28,2.07,2.07,0,0,0,1.06-1.74,2.31,2.31,0,0,0-1.32-2,1.54,1.54,0,0,0-2,.54A1.51,1.51,0,0,0,123.85,59.23Z"/><path class="cls-2" d="M75.73,59.32c.28.17,0-.08.22.16,0,0-.08-.33,0,0l1.44-1.9c-3.62.08-7.25,0-10.87.08l1.06.44s-.31-.34-.2-.21c-.15-.18,0,0-.08-.22l-1.45,1.9c3.54.07,7.08-.25,10.63-.09A1.51,1.51,0,0,0,78,58a1.53,1.53,0,0,0-1.5-1.5c-3.55-.16-7.09.16-10.63.09a1.52,1.52,0,0,0-1.44,1.9,3.49,3.49,0,0,0,.81,1.5A2,2,0,0,0,67,60.7c1.18,0,2.37,0,3.55,0,2.29,0,4.58,0,6.86,0a1.52,1.52,0,0,0,1.45-1.9,3.32,3.32,0,0,0-1.61-2C75.6,55.7,74.09,58.29,75.73,59.32Z"/><path class="cls-2" d="M58.93,59.47l-.08,0c.1.06.07,0-.07-.07,0,0,.2.27.1.1s.07.14.07.15a3.78,3.78,0,0,1,.17.35l1.29-2.26H51.88l.76.21c-.17-.08,0,0,0,0-.14-.24,0,.12,0,0a1.55,1.55,0,0,0-.12-.22c-.12-.15.09.29,0,0l-1.44,1.9c2.76,0,5.52-.17,8.28-.09a1.51,1.51,0,0,0,1.5-1.5,1.54,1.54,0,0,0-1.5-1.5c-2.76-.08-5.52.08-8.28.09a1.52,1.52,0,0,0-1.45,1.9,2.79,2.79,0,0,0,2.5,2.19h8.31a1.51,1.51,0,0,0,1.3-.74,1.59,1.59,0,0,0,0-1.51,3.19,3.19,0,0,0-2-1.87,1.51,1.51,0,0,0-1.85,1A1.54,1.54,0,0,0,58.93,59.47Z"/><path class="cls-2" d="M47.12,59.55l.17.07-.9-.69.08.11-.2-.75c.16-.36.17-.42,0-.18l.54-.54-.51.34.76-.21H32.38l1.06.44a3.14,3.14,0,0,1-.51-.7l-1.3,2.25c5.3-.08,10.59-.16,15.89-.08,1.93,0,1.93-3,0-3-5.3-.08-10.59,0-15.89.08A1.53,1.53,0,0,0,30.33,59a2.79,2.79,0,0,0,2.16,1.75c.33,0,.67,0,1,0H46.62A2.37,2.37,0,0,0,48,60.41c1.56-.94,1.77-3-.07-3.75a1.5,1.5,0,0,0-1.84,1.05A1.53,1.53,0,0,0,47.12,59.55Z"/><path class="cls-2" d="M23.88,67.13c.13.31.31.6.43.91l1.45-1.9H15.05l1.06.44c-.15-.13,0-.08,0,0s-.05.64.06.34l-1.44,1.1c1.61-.22,3.23,0,4.84-.13.57,0,1.13,0,1.71,0h3.91a1.5,1.5,0,0,0,0-3H21.27c-.58,0-1.14,0-1.71,0-1.61.08-3.23-.09-4.84.13a1.59,1.59,0,0,0-1.45,1.1,2.28,2.28,0,0,0,1.78,3c.11,0,.23,0,.34,0H25.76a1.51,1.51,0,0,0,1.45-1.9c-.23-.55-.5-1.07-.74-1.62a1.51,1.51,0,0,0-2-.54A1.55,1.55,0,0,0,23.88,67.13Z"/><path class="cls-2" d="M193.15,74.29a5,5,0,0,0,4.69-3.36,5.12,5.12,0,0,0-1.39-5.37,5,5,0,0,0-5.89-.52,5.11,5.11,0,0,0-2.23,5.35,4.9,4.9,0,0,0,4.82,3.9,1.5,1.5,0,0,0,0-3,1.63,1.63,0,0,1-.44,0c.34.11.13,0,0,0l-.21,0-.21-.07c-.19-.06.24.13.06,0S192,71,192,70.91l.13.11-.12-.11-.15-.15-.29-.31c-.14-.14.13.23,0,0s-.08-.12-.11-.19a.7.7,0,0,1-.13-.24l.07.16a.88.88,0,0,1-.05-.15c0-.14-.07-.29-.11-.43s0,.28,0,.07,0-.15,0-.22a4.34,4.34,0,0,1,0-.51c0-.19-.06-.07,0,.07a.63.63,0,0,1,.06-.27c0-.14.08-.27.12-.4s-.18.31,0,0a1.62,1.62,0,0,1,.1-.18l.11-.18c.09-.13,0-.12,0,0,0-.13.28-.29.37-.38s.05-.14-.05,0c0,0,.16-.11.18-.12s.36-.24.4-.22-.36.12,0,0l.21-.07.23,0c.34-.1-.3,0,0,0h.46c.18,0,.09-.06,0,0,0,0,.2,0,.22,0a2.25,2.25,0,0,1,.44.14c-.25-.16-.13,0-.05,0l.29.17.19.12s-.28-.24,0,0l.3.3c.2.2,0,0,0-.06a1.4,1.4,0,0,0,.12.18,1.74,1.74,0,0,1,.11.18l.1.18-.07-.16c0,.11.1.29.13.4s0,.14,0,.21c.07.28,0,0,0-.07a3,3,0,0,0,0,.51v.22c0,.32-.05,0,0,0a2.88,2.88,0,0,0-.14.53c-.06.21,0,0,0-.06s-.13.27-.14.29l-.12.18s.22-.25,0,0-.22.23-.34.34-.28.23-.09.09l-.11.07-.19.1c-.3.17.29-.08,0,0-.09,0-.44.18-.53.14s.38,0,.07,0h-.33a1.5,1.5,0,0,0,0,3Z"/><path class="cls-2" d="M195,71.14c-.12.12-.24.22-.37.33.22-.19.07,0,0,0l-.26.16a2.25,2.25,0,0,1-.21.12c-.05,0-.29.12-.11.05l-.11,0-.31.08-.25.06c.29-.07.09,0,0,0h-.61c-.22,0,.21.07,0,0a2.44,2.44,0,0,0-.26-.06l-.26-.08c-.16,0,.16.09-.08,0l-.46-.27c-.33-.2.09.12-.06,0l-.19-.17c-.12-.12-.24-.24-.35-.37s-.2-.24-.1-.09-.09-.15-.11-.18a3,3,0,0,1-.24-.47c.11.27-.08-.28-.09-.35s-.07-.33,0-.14,0-.1,0-.14c0-.21,0-.41,0-.61,0,.28,0,.08,0,0s0-.21.07-.31a2.25,2.25,0,0,0,.08-.24c.05-.22-.11.2,0,0s.15-.3.24-.44l.13-.21c.09-.15-.16.16,0,0s.25-.28.38-.41.13-.11.19-.18-.18.11,0,0,.29-.2.45-.28.29-.12.13-.06.17,0,.2-.06l.33-.08c.21-.08-.22,0,0,0a4.91,4.91,0,0,1,.54,0c.05,0,.33,0,.13,0s.07,0,.12,0l.25.06s.41.14.23.07.06,0,.11.06l.21.11.21.14s.25.18.1.06,0,0,.09.08a1.37,1.37,0,0,1,.17.17c.06,0,.11.12.17.18l0-.06.11.15a4.76,4.76,0,0,1,.28.49l.11.23c-.13-.31,0,.1,0,.13a2.5,2.5,0,0,1,.07.26c0,.07.07.46,0,.13a4.42,4.42,0,0,1,0,.63s-.05.32,0,.13,0,.16-.05.2-.05.17-.08.25-.18.41,0,.14c-.1.19-.2.38-.32.57s-.1.14-.14.21c.14-.21,0,0-.09.1a1.5,1.5,0,1,0,2.12,2.12,6.19,6.19,0,0,0,1.52-3,5.82,5.82,0,0,0-.59-3.62,5.52,5.52,0,0,0-5.32-3,5.84,5.84,0,0,0-5,4.19A5.71,5.71,0,0,0,190.13,74a5.5,5.5,0,0,0,7-.75A1.5,1.5,0,0,0,195,71.14Z"/><path class="cls-1" d="M191.48,71.27V67.05h1.75a2.68,2.68,0,0,1,1,.09.77.77,0,0,1,.5.42,1.65,1.65,0,0,1,.17.67,1.17,1.17,0,0,1-.26.76,1.28,1.28,0,0,1-.83.43.78.78,0,0,1,.42.33,2.17,2.17,0,0,1,.5.68l.51.84h-1l-.59-.93a6.8,6.8,0,0,0-.5-.59c0-.08-.08-.17-.25-.17s-.17-.08-.42-.08h-.17v1.77Zm.84-2.45H193c.42,0,.66,0,.75-.08s.16-.08.25-.17.08-.17.08-.34a.62.62,0,0,0-.17-.33c-.08-.09-.16-.09-.25-.17h-1.34v1.09Z"/><path class="cls-2" d="M193,71.27V67.05l-1.5,1.5h1.12a11.06,11.06,0,0,1,1.41,0l-.4-.06.19,0-.35-.15.49.2-.36-.15.16.1-.3-.24a.86.86,0,0,1,.13.14l-.24-.3a1.1,1.1,0,0,1,.15.26l-.15-.36a1.91,1.91,0,0,1,.11.41l-.05-.4a1.82,1.82,0,0,1,0,.33l.05-.4a2,2,0,0,1-.09.35l.15-.36a.82.82,0,0,1-.12.2l.24-.31-.31.39.24-.3a.74.74,0,0,1-.13.12l.3-.23-.22.12.36-.16a3.36,3.36,0,0,1-.45.14,1.51,1.51,0,0,0-.36,2.74,1.75,1.75,0,0,1,.27.16l-.3-.24a.6.6,0,0,1,.08.08l-.23-.3.55.68-.23-.31c.16.22.28.47.42.7l.33.55,1.3-2.26h-1l1.3.74a12.41,12.41,0,0,0-1.32-1.82l.38.66a1.68,1.68,0,0,0-.17-.42,1.61,1.61,0,0,0-.56-.57,2,2,0,0,0-1-.28l1.06.44a2,2,0,0,0-1.29-.52h-.36a1.52,1.52,0,0,0-1.5,1.5v1.77l1.5-1.5h-.82a1.52,1.52,0,0,0-1.5,1.5h0a1.5,1.5,0,1,0,3,0h0l-1.5,1.5h.82a1.52,1.52,0,0,0,1.5-1.5V69.5L192.3,71a3.2,3.2,0,0,1,.44,0l-.39-.05.06,0-.36-.16.06,0-.3-.24a1.72,1.72,0,0,0,1.15.47l-.4,0h.06l-.36-.15a.14.14,0,0,1,.08,0l-.3-.24,0,0-.23-.3v0l-.15-.35c.07.46.52.81.8,1.16l-.24-.3c.26.33.46.7.69,1a1.58,1.58,0,0,0,1.34.74h1a1.51,1.51,0,0,0,1.29-2.26,9.75,9.75,0,0,0-1.24-1.82l.24.31a2.32,2.32,0,0,0-1-.88l-.36,2.74a3.93,3.93,0,0,0,.87-.31,2.36,2.36,0,0,0,.86-.8l-.23.3a2.82,2.82,0,0,0,0-3.72,2.34,2.34,0,0,0-1-.64l.36.15a3,3,0,0,0-1.11-.27c-.22,0-.43,0-.65,0h-1.75a1.52,1.52,0,0,0-1.5,1.5v4.22a1.5,1.5,0,1,0,3,0Z"/><path class="cls-2" d="M192.32,70.32H193c.15,0,.31,0,.47,0a3,3,0,0,0,.6-.08,1.78,1.78,0,0,0,.78-.44l-1.06.44a2.13,2.13,0,0,0,.42-.06,1,1,0,0,0,.22-.09,1.38,1.38,0,0,0,.55-.35l.1-.08,0,0a1,1,0,0,0,.31-.48.72.72,0,0,0,.1-.38.76.76,0,0,0,0-.21l-.05.4a1.52,1.52,0,0,1,.06-.2s0-.05,0-.07a3.29,3.29,0,0,0,0-.44,1.43,1.43,0,0,0-.08-.53,2.41,2.41,0,0,0-.53-.88,1.48,1.48,0,0,0-.39-.31.39.39,0,0,1-.14-.08l.3.24a2.6,2.6,0,0,0-.32-.26,1.57,1.57,0,0,0-.76-.2h-1.34a1.06,1.06,0,0,0-.58.13,1.14,1.14,0,0,0-.48.31,1.54,1.54,0,0,0-.44,1.06v1.09a1.54,1.54,0,0,0,.44,1.07,1.17,1.17,0,0,0,.48.31,1.14,1.14,0,0,0,.58.12,1.49,1.49,0,0,0,1.06-.43,1.59,1.59,0,0,0,.44-1.07V67.73l-1.5,1.5h1.34l-1.06-.44a2.33,2.33,0,0,0,.35.27l.06,0,.12.07-.3-.23.06.06-.23-.3.09.15-.15-.36c0,.05,0,.09,0,.14l-.06-.4v.06l.05-.4a.48.48,0,0,1-.05.17,1.75,1.75,0,0,0-.08.51l.44-1.06-.12.11.31-.24-.07.05.36-.15h0l.4-.05a1.55,1.55,0,0,0-.78.21,2.43,2.43,0,0,0-.32.24l.3-.23,0,0,.36-.15a.5.5,0,0,1-.13,0l.4,0a5.61,5.61,0,0,1-.71,0h-.52a1.27,1.27,0,0,0-.58.13,1.17,1.17,0,0,0-.48.31,1.11,1.11,0,0,0-.31.49,1,1,0,0,0-.13.57,1.52,1.52,0,0,0,.44,1.07A1.58,1.58,0,0,0,192.32,70.32Z"/><path class="cls-3" d="M30,1.55C31.79,4,33.38,6.44,35,9A49.08,49.08,0,0,0,22.59,7.46l-.17.25-.25,52.08c.17,2,1,3.62,1.51,5.4-3.52,0-6.44.25-10.21.08,1.25-2.28.92-5.32,1.17-8L14.56,7.71l-.09-.17c-4.6.09-8.7,1.18-13,2.2l.09-.34c1.75-2.53,3.26-5.23,5.1-7.68A151.44,151.44,0,0,0,29,1.47l1,.08Zm148,8.2c.58,2.44-.59,4.89-2.17,6.75a3.47,3.47,0,0,1-1.6,1,4.52,4.52,0,0,0-.66-4,3,3,0,0,1-1.51-2.78,3.68,3.68,0,0,1,.83-2.11A3.38,3.38,0,0,1,176.41,8,3.61,3.61,0,0,1,178,9.75Z"/><path class="cls-3" d="M35.81,10.34l.75,1.43A52.07,52.07,0,0,0,24.93,9.83l-.09.25-.66,29.8.08,17.73a40.16,40.16,0,0,0,.58,6.33c-1.42-1.27-1.59-3.46-1.75-5.49L23,50.18c-.17-.16.09-.59.09-.84l.08-16.71.26-24.39a48.68,48.68,0,0,1,12.38,2.1ZM13.63,8.82c-.09.42.17,1.09-.26,1.18A53.69,53.69,0,0,0,2.91,11.94c-.25-.42-.67-.76-.58-1.27A37,37,0,0,1,13.46,8.56l.17.26Zm164.63,7.42a8.58,8.58,0,0,1-2.85,3.38c-1.83-1.52,1.43-1.94,1.68-3.21a10.2,10.2,0,0,0,1.84-4.56,6.2,6.2,0,0,1-.67,4.39Zm14.56,3.13.17.33-.09,7.85c-2-2.11-3.93-5.4-7.28-5.23A2.84,2.84,0,0,0,183.19,24a5.42,5.42,0,0,0,.76,4.81c4.43,6.49,12,11.81,11,20.42a9.52,9.52,0,0,1-5.35,7.51c-3.52,1.69-8.29.76-11.47-1.27v-7c2.34,2.36,5,5.31,8.46,4a3.79,3.79,0,0,0,2.09-3.54c-.59-8-9.87-11.56-11.21-19.24-.67-3.54,0-7.26,2.76-9.54,3-2.86,8.21-2.27,11.72-.75.33-.09.5.16.83,0ZM95.4,22v8.27c-1.67-2.36-2.6-6.67-6.44-6.58-2.09.25-3.52,2.45-4,4.39a47.12,47.12,0,0,0-.33,19.08c.58,2.36,1.83,5,4.43,5.31,3-.16,5.1-3,6.7-5.31.25,2.53.08,5.23.16,7.76-2.34,3-6.19,3.71-9.78,3-8.62-3.54-8.79-13.58-8.62-22a34.11,34.11,0,0,1,3-12.32c2-3.29,5.61-5.48,9.54-4.72A8.84,8.84,0,0,1,95.4,22Zm13.22-3c-.09,1-.67,1.86-.67,3l.09,12c2.26.34,4.43,0,6.52.08l.09-.25V20.88l-.51-1.94c2.46-.08,4.91-.08,7.37,0l-.25,1.61.08,34.1a9.2,9.2,0,0,0,.84,2.11c-2.6,0-5.27.17-8,0a12.92,12.92,0,0,0,.67-4.14L114.64,39c-2.18-.34-3.94,0-6.45-.08l-.09.84.17,15a14.87,14.87,0,0,0,.84,2l-8.21.08c0-1.18.67-2.28.84-3.54l-.17-32c-.09-.76-.34-1.61-.42-2.37,2.79.09,5.12-.08,7.47,0Zm35.32-.08a12.2,12.2,0,0,1,2,4.72,33.06,33.06,0,0,0-9.2-.67l-.17.25V33.8l.25.16c2.26-.08,4.77.09,6.87-.59.08,2.37,0,4.22,0,6.25a19.05,19.05,0,0,0-6.95-.76l-.17.25V52.29l.17.16c3.18.09,6.78.34,9.54-.92a15.39,15.39,0,0,1-1.59,5.06l-.17.17h-16c1.93-3.63,1.34-8.44,1.51-12.15.09-7.43.09-16.12-.25-23.47A8.72,8.72,0,0,0,129,19l.17-.17Z"/><path class="cls-3" d="M46.27,19a10.36,10.36,0,0,1,1.92,4.72,29.48,29.48,0,0,0-9.12-.67C38.81,26.62,38.9,30.67,39,34a18.53,18.53,0,0,0,4.35.09L46,33.46c.09,2,.09,4,.09,6.33l-.09.08c-2.09-.93-4.6-.93-6.94-.93C38.9,44.43,39,47,39,52.44l.51.26c3.18.08,6.44.17,9.12-1,0,1.77-1,3.45-1.59,5.14-5.19.26-10.8.17-16.16.09,1.84-3,1.26-7.09,1.59-10.72l-.08-22.37a11.89,11.89,0,0,0-.92-4.73c4.94-.16,9.88-.07,14.82-.07Zm76.83,2.61v35.2c-.76-.59-.83-1.77-.83-2.78-.17-4.31,0-6.84-.17-10.47V21.31a1.92,1.92,0,0,1,.84-1.27C123.94,20.12,122.94,21.05,123.1,21.64Zm-12.8-1.43c-.67,4.47,0,7.93-.34,12.66a1.05,1.05,0,0,1-1,.08L109,21.39A1.21,1.21,0,0,1,110.3,20.21Zm84.53,10.46c-.34-.08-.5-.5-.75-.59V20.8l.75.84ZM70.2,27.47l4.78,25c.16,1.1.42,2.2.58,3.38a3.81,3.81,0,0,1-1.51-2.53L71.37,40.13,67.78,21.47l.16-.25C70,22.57,69.54,25.36,70.2,27.47ZM170.89,53.8l-4.95-15.52v-.59a12.1,12.1,0,0,0,3.18-2.62c3-3.46,2.52-9.45.67-13.16-1.26-2-3.43-2.79-5.61-3q-6.83-.14-13.64,0a19.56,19.56,0,0,1,1.17,5V49.93c.17,2.45-.59,4.64-1.09,6.75,2.77,0,5.36.09,8-.08a6.41,6.41,0,0,1-.59-2.2q-.13-7.59,0-15.19c.59-.08,1.25-.25,1.68.09l3.93,13.16c.25,1.27,1,2.7.42,4l.08.17c2.84-.08,5.78.09,8.46-.17a6.72,6.72,0,0,1-1.75-2.71Zm-8.11-20.6c-1.26.93-3,.51-4.52.6l-.17-.26V23l.25-.16c2.09,0,4.44-.43,5.44,1.77C165.12,27.3,164.87,31.09,162.78,33.2Z"/><path class="cls-3" d="M173,32.28a13.09,13.09,0,0,1-4.61,6.49l.67,2.62,4.6,14.18c-1-.59-1.51-2-2.09-3.13-1.67-4.64-3.26-9.28-4.69-14.09L167,38c3.85-2.11,5.44-6.58,5.2-11,.08-1.43-.59-2.61-.59-4a11.15,11.15,0,0,1,1.34,9.2Zm14-8.78c-.59.34-1.84.84-2.09,1.77a3.75,3.75,0,0,0,0,2.87c-.6,0-.67-.93-.92-1.35a3.21,3.21,0,0,1,.42-2.78A2.29,2.29,0,0,1,187,23.5Zm-89.64,1c.08,2.87.08,6.16,0,9l-.83-.76v-9Zm47.62.68a21.8,21.8,0,0,0-5.77-.17l-.17.25.08,7.6a3.06,3.06,0,0,1-1.26.08l-.16-.25.08-8.86c2.51-.09,5.19-.26,7.2,1.18v.17Zm17.5-.68c-.58.26-1.51-.17-2,.42l-.08,7.77h-1c-.17-3-.08-5.66-.08-8.78,1,0,2.67-.59,3.18.59Zm-115.26.68-.08.17a18.67,18.67,0,0,0-5.78-.09c-.16,2.45.17,5,0,7.85H40.07C39.9,30.17,39.9,27,39.9,24c2.43,0,4.69-.34,6.86.84Zm42.95-.34c-2.43.84-3,3.71-3.52,5.91-.92,6.66-1.09,14.51,1.76,20.33-1.43-.33-1.93-1.94-2.43-3.12-1.67-6.75-1.76-15,.59-21.52a3.7,3.7,0,0,1,2.26-1.77A2.42,2.42,0,0,1,90.13,24.85ZM73.05,53.55,67.19,22.4l-.83-3.29c-3.18-.17-5.86.17-8.7,0a10.12,10.12,0,0,1,.42,3.21L52,53.89l-1,3,.09.09a56.11,56.11,0,0,0,6.61-.09A6.2,6.2,0,0,1,57,54.73a51.56,51.56,0,0,1,1.26-7.93h6.36l.5.17L66.2,53.8a4.66,4.66,0,0,1-.51,3,75.82,75.82,0,0,0,8.79-.08,7.36,7.36,0,0,1-1.43-3.21ZM59,42.07c.83-4.47,1.67-8.86,2.68-13.24.84,4.3,1.84,8.69,2.51,13.16Z"/><path class="cls-3" d="M61.16,40.64c-.16.25-.66.17-.91.08l-.09-.08a58.7,58.7,0,0,1,1.26-7.17C62.67,35.82,61.5,38.18,61.16,40.64Zm84.63-5.49v7.34a1,1,0,0,1-1-.59V34.47C145.28,34.3,145.62,34.81,145.79,35.15ZM48,35.23c.08,2.78.08,4.89.08,7.43a1,1,0,0,1-1-.51v-7.6A.93.93,0,0,1,48,35.23Zm93.73,5.41c-.92.17-2.17-.08-2.76.76v10a2.35,2.35,0,0,1-1.34,0l-.09-11.56C139,39.7,140.93,39.36,141.76,40.64ZM113,40.81l-2.68.08a109.05,109.05,0,0,0,.17,15.87c-.51-.17-.67-.93-1-1.44L109.21,53V39.88a27.89,27.89,0,0,1,3.77,0v.93Zm-67.3.5c-1.5-.08-3.26-.75-4.43.34v10c-.42,0-1.09.17-1.34-.16V40.22c.17-.42.92-.26,1.34-.34C42.75,40,44.68,39.87,45.68,41.31Zm114.41,4.06v11c-.66-.09-.66-1.1-.92-1.69A107.07,107.07,0,0,1,159.09,42c.83.84.83,2.19,1,3.38Zm35.15,9.7a10.9,10.9,0,0,1-10,4.89c-1.92-.16-4-.33-5.1-2.11a14.73,14.73,0,0,0,5.94.93c4-.08,8-3.29,9.38-7.09.75-2.11.59-4.72.42-7a11.4,11.4,0,0,1-.69,10.38ZM63.68,47.81A1.21,1.21,0,0,1,64,49l-3.86.17-.25.26-1.09,6.92c-1-.85-.75-2.62-.75-3.89a26.17,26.17,0,0,1,1-4.64ZM98,48.91,97.91,56a11.66,11.66,0,0,1-11.21,4,9.74,9.74,0,0,1-3.35-2.28c3.09,2,7.78,1.77,10.88,0a8.91,8.91,0,0,0,2.68-2.62V48A1.25,1.25,0,0,1,98,48.91ZM147.71,53a46,46,0,0,1-1.6,5.83l-.25.17H129.71c-.17-.34-.5-.68-.43-1.1l15.91-.09a41.77,41.77,0,0,0,2.17-5.23C147.62,52.54,147.62,52.79,147.71,53Zm27.62,5.66-.25.25h-9.63a.82.82,0,0,1-.26-1l.26-.09h9.37A.86.86,0,0,1,175.33,58.7Zm-13.73-.85c.34.17.67.43.67.76s-.34.59-.67.43h-9.2c-.34-.26-.26-.68-.26-1.1,3.1-.25,6.36-.09,9.46-.09Zm-50,.09c.25.17.58.59.42.93l-.5.33h-9.37c-.59-.16-.26-.67-.26-1.09,0-.09.09-.26.26-.17Zm13,0c.34.17.75.51.5.93l-.34.25h-9.62a.6.6,0,0,1-.16-1l.08-.17ZM76.49,58a1.69,1.69,0,0,1,.91,1.1c-3.51.08-7.2,0-10.87.08a2.08,2.08,0,0,1-.67-1.09C69.54,58.19,73,57.85,76.49,58ZM59.33,58c.58.17.83.59,1.08,1.18H51.88a1.72,1.72,0,0,1-.83-1.09c2.84,0,5.51-.17,8.28-.09Zm-11.81.09c.42.08.26.5.09.76l-.51.33H32.38a4.21,4.21,0,0,1-.75-1C36.81,58.11,42.17,58,47.52,58.11ZM25.18,66.38c.17.42.42.84.58,1.26H15.05a1,1,0,0,1-.33-1.09c1.75-.26,3.68,0,5.43-.17Zm168,6.41a3.45,3.45,0,0,0,3.44-3.46,3.44,3.44,0,0,0-1-2.53,3.42,3.42,0,0,0-4.85,0,3.44,3.44,0,0,0-1,2.53,3.26,3.26,0,0,0,1,2.45A3.21,3.21,0,0,0,193.15,72.79Zm2.93-.59a4.08,4.08,0,0,1-2.93,1.27,4.32,4.32,0,0,1-4.09-4.14,4.12,4.12,0,0,1,1.25-3,3.91,3.91,0,0,1,2.84-1.27,4.08,4.08,0,0,1,2.93,1.27,4.2,4.2,0,0,1,0,5.82Z"/><path class="cls-3" d="M191.48,71.27V67.05h1.75a2.68,2.68,0,0,1,1,.09.77.77,0,0,1,.5.42,1.65,1.65,0,0,1,.17.67,1.17,1.17,0,0,1-.26.76,1.28,1.28,0,0,1-.83.43.78.78,0,0,1,.42.33,2.17,2.17,0,0,1,.5.68l.51.84h-1l-.59-.93a6.8,6.8,0,0,0-.5-.59c0-.08-.08-.17-.25-.17s-.17-.08-.42-.08h-.17v1.77Zm.84-2.45H193c.42,0,.66,0,.75-.08s.16-.08.25-.17.08-.17.08-.34a.62.62,0,0,0-.17-.33c-.08-.09-.16-.09-.25-.17h-1.34v1.09Z"/></g></g></svg>