<svg xmlns="http://www.w3.org/2000/svg" viewBox="0 0 356.13 75"><defs><style>.cls-1{fill:#fff;}.cls-2{fill:#da0112;}</style></defs><g id="Layer_2" data-name="Layer 2"><g id="svg4403"><g id="path2534"><path class="cls-1" d="M342.36,73.45a1.07,1.07,0,0,0,1.08-1.07V65a1.07,1.07,0,0,0-1.08-1.07h-9.9c-2.32,0-8.44-.12-11.81-1.77a6.74,6.74,0,0,1-2.48-1.89,4.14,4.14,0,0,1-.76-2.56V2.75a1.07,1.07,0,0,0-1.07-1.07h-22a1.06,1.06,0,0,0-1.06,1.07V55.91a13.28,13.28,0,0,0,1.85,7.23,17.26,17.26,0,0,0,6,5.38c8.17,4.44,23,5,28.62,4.93h12.62"/><path class="cls-1" d="M342.76,74.9c2.57-.35,2.18-3.27,2.18-5.14V66.25a6.5,6.5,0,0,0-.17-2.16c-.74-2.08-3.12-1.71-4.86-1.71h-6.57c-2,0-3.92,0-5.87-.22-2.55-.23-8.16-.74-8.54-4.06a43.77,43.77,0,0,1,0-4.86V4.93c0-2.13.16-4.63-2.8-4.75-3.58-.13-7.19,0-10.77,0s-7.18-.12-10.75,0a2.7,2.7,0,0,0-2.82,2.7c0,.65,0,1.31,0,2V52.66a30.94,30.94,0,0,0,.52,7.63c1.86,7.31,9.46,10.85,16.16,12.47,9.8,2.39,19.91,2.19,29.92,2.19h4a1.5,1.5,0,0,0,0-3c-7.44,0-14.94.24-22.37-.41-6.23-.54-13.22-1.39-18.7-4.65-3.23-1.93-5.75-4.8-6.35-8.59a19.51,19.51,0,0,1-.17-3.15V5.57a17.91,17.91,0,0,0,0-2.43c0-.05,0-.35,0-.38s-.52.29-.37.42.37,0,.43,0H314.6a5.42,5.42,0,0,0,1.45,0c.05,0,.24,0,.27,0s-.29-.49-.41-.37,0,.45,0,.52V56.42c0,.41,0,.83,0,1.24.11,3.65,3,5.66,6.23,6.6,4.34,1.25,9,1.12,13.45,1.12h6.11c.09,0,.52.07.59,0s.48.38-.14-.21c-.44-.42-.13-.18-.21,0a3.35,3.35,0,0,0,0,1v4.72a10.84,10.84,0,0,0,0,1.14c.06.6,0,0,0,0a1.51,1.51,0,0,0-1.05,1.85,1.54,1.54,0,0,0,1.84,1.05Z"/></g><g id="path2536"><path class="cls-1" d="M194.4,1.68c-5.62,0-20.45.48-28.62,4.93a17.19,17.19,0,0,0-6,5.39c-1.22,1.8-1.85,4.41-1.85,7.88V72.65a1.66,1.66,0,0,0,1.06.48h22a1.07,1.07,0,0,0,1.07-1.07V30.34h13.22a1.07,1.07,0,0,0,1.07-1.07V21.85a1.07,1.07,0,0,0-1.07-1.08H182.07v-3.3a4.19,4.19,0,0,1,.76-2.57A6.83,6.83,0,0,1,185.31,13c3.37-1.65,9.49-1.77,11.81-1.77H207a1.07,1.07,0,0,0,1.08-1.07V2.75A1.07,1.07,0,0,0,207,1.68H194.4"/><path class="cls-1" d="M194.4.18a104.81,104.81,0,0,0-12.14.64A54.94,54.94,0,0,0,167.93,4c-4.61,1.84-9.22,5.17-10.76,10.11a23,23,0,0,0-.74,6.87v49.8c0,1.24-.26,2.58.94,3.36,1.51,1,4.1.51,5.78.51,5.8,0,11.62.12,17.42,0,2,0,3-1.35,3-3.25v-41l-1.5,1.5h12.29c1.39,0,2.84-.18,3.35-1.76a13.1,13.1,0,0,0,.15-3.91c0-1.4.07-2.83,0-4.23-.18-3.45-4.38-2.67-6.75-2.67h-9l1.5,1.5c0-1.69-.47-4.21.92-5.45,2.2-2,5.83-2.24,8.64-2.44,3.65-.25,7.33-.13,11-.13,1.34,0,3.27.32,4.42-.52,1.48-1.08,1.06-3.42,1.06-5a22.49,22.49,0,0,0-.08-5c-.47-2-2.3-2-3.94-2H194.4a1.5,1.5,0,0,0,0,3h11.71c.35,0,1.12.2.7-.21s-.17-.08-.21.2a7.79,7.79,0,0,0,0,1.08V7.32a16.56,16.56,0,0,0,0,2.44c0,.29-.16.55.21.2s.16-.14-.07-.21a8.43,8.43,0,0,0-2.07,0h-3a86.61,86.61,0,0,0-11.16.39c-3.17.42-7,1.2-9,4-1.32,1.88-1,4.44-1,6.62a1.52,1.52,0,0,0,1.5,1.5h12.65a1.27,1.27,0,0,0,.39,0s.11,0,.13,0h0c.18,0,0-.1-.4-.31-.09,0,.06-.14,0,.14a3.09,3.09,0,0,0,0,.68v4.45a7.15,7.15,0,0,0,0,1.79c.07.24-.08.14,0,.14s.41-.22.29-.32-.89,0-1.1,0h-12a1.52,1.52,0,0,0-1.5,1.5V70.9c0,.19-.12.95,0,1.09s.36-.41.4-.36-.46,0-.52,0H160.27a5,5,0,0,1-1.28,0l.44,1.06V24.09c0-1.33,0-2.66,0-4a19.12,19.12,0,0,1,.37-4.21A11.38,11.38,0,0,1,164,9.63C168.37,6,174.7,4.84,180.21,4.08a99,99,0,0,1,14.19-.9,1.5,1.5,0,0,0,0-3Z"/></g><g id="path2538"><path class="cls-1" d="M51.8,73.13a1.07,1.07,0,0,0,1.07-1.07V11.4H79.11a1.07,1.07,0,0,0,1.07-1.07V2.9a1.07,1.07,0,0,0-1.07-1.07H2.59A1.07,1.07,0,0,0,1.52,2.9v7.43A1.07,1.07,0,0,0,2.59,11.4H28.78V72.06a1.06,1.06,0,0,0,1.06,1.07h22"/><path class="cls-1" d="M52.2,74.58c3-.49,2.17-5.18,2.17-7.34V11.4l-1.5,1.5H77.48c.53,0,1.08,0,1.62,0,2-.12,2.58-1.65,2.58-3.34V4.61c0-1.44.18-3.06-1.27-3.93a6.16,6.16,0,0,0-3-.35h-71c-1.15,0-2.3,0-3.45,0A3.07,3.07,0,0,0,1.14.8C-.22,1.76,0,3.38,0,4.83V9.71c0,1.65.72,3.08,2.58,3.19s3.72,0,5.56,0H28.78l-1.5-1.5V66.8c0,1.63,0,3.26,0,4.88a2.84,2.84,0,0,0,1.27,2.6,5.46,5.46,0,0,0,2.78.35H51.8a1.5,1.5,0,0,0,0-3H33.66a23.83,23.83,0,0,0-3.38,0c-.08,0-.28,0-.34,0s-.08,0-.08,0,.22.54.42.43c0,0,0-.21,0-.24a6.59,6.59,0,0,0,0-1.6V11.4a1.52,1.52,0,0,0-1.5-1.5H5.22a12.4,12.4,0,0,0-2.36,0c-.72.15.63.07.16.42A5.65,5.65,0,0,0,3,9V4.2C3,4,3.14,3.05,3,2.94c.3.27-.61.23-.35.39a2.69,2.69,0,0,0,.85,0h74.8c.1,0,.68.07.75,0s-.25-.53-.39-.33,0,1.33,0,1.61V9.39a4.91,4.91,0,0,0,0,.94l.43-.43h0s-.2,0-.25,0a10.77,10.77,0,0,0-2.34,0H52.87a1.52,1.52,0,0,0-1.5,1.5V71.51a2.67,2.67,0,0,0,0,.4c0,.36-.13-.2,0-.22-1.9.3-1.09,3.19.8,2.89Z"/></g><g id="path2540"><path class="cls-1" d="M146.71,73.13a1.06,1.06,0,0,0,1.07-1.07V64.63a1.06,1.06,0,0,0-1.07-1.07H104.45c-2.32,0-8.44-.12-11.82-1.77a6.71,6.71,0,0,1-2.47-1.88,4.13,4.13,0,0,1-.77-2.57V53.4H111c5.62,0,20.45-.29,28.61-4.29a16.15,16.15,0,0,0,6-4.56c2.81-3.75,3.06-11.25,0-15.31a16.11,16.11,0,0,0-6-4.55c-8.16-4-23-4.3-28.61-4.3h-9.25c-5.62,0-20.44.44-28.61,4.44a16.69,16.69,0,0,0-6,4.86,11,11,0,0,0-1.85,6.51V57.33a11,11,0,0,0,1.85,6.51,16.78,16.78,0,0,0,6,4.85c8.17,4,23,4.47,28.61,4.44ZM123.29,37.61a4.15,4.15,0,0,1-.76,2.57,6.73,6.73,0,0,1-2.48,1.87c-3.37,1.66-9.49,1.78-11.81,1.78H89.37V35.54A4.16,4.16,0,0,1,90.13,33a6.64,6.64,0,0,1,2.48-1.88c3.37-1.66,9.49-1.78,11.81-1.78h3.82c2.32,0,8.44.12,11.81,1.78A6.64,6.64,0,0,1,122.53,33a4.1,4.1,0,0,1,.76,2.56v2.07"/><path class="cls-1" d="M146.71,74.63a2.8,2.8,0,0,0,2.57-3.12V67.25c0-2.17.32-5-2.69-5.19-3.62-.17-7.29,0-10.91,0H104.87a40.65,40.65,0,0,1-8.81-.73c-2.21-.48-5.12-1.38-5.17-4.06,0-1.29,0-2.58,0-3.87l-1.5,1.5h20.37c3.76,0,7.52-.08,11.27-.36,6.31-.46,12.94-1.24,18.75-3.89,3-1.36,6.08-3.38,7.71-6.33a15.94,15.94,0,0,0,1.68-9.23,13,13,0,0,0-3.77-8.3,22.92,22.92,0,0,0-8.72-4.87c-9.77-3.2-20.41-3-30.58-3-3.9,0-7.79,0-11.68.22-6.36.36-13,1-19,3.16a20.6,20.6,0,0,0-8.49,5.3,12.61,12.61,0,0,0-3.16,8.69c0,3.21,0,6.42,0,9.63v11a14,14,0,0,0,1.56,7,16.93,16.93,0,0,0,8,6.59C79.13,73,85.69,73.77,92,74.27c3.48.27,7,.36,10.45.36h44.28a1.5,1.5,0,0,0,0-3h-39.9A153.1,153.1,0,0,1,87,70.75c-6-.77-13-2-17.41-6.39a9.65,9.65,0,0,1-2.79-7.19V41.27c0-3.26-.51-7.33,1.24-10.22,3.27-5.42,10.79-7,16.54-7.91A104.79,104.79,0,0,1,101,21.9a207.08,207.08,0,0,1,23.37.64c6,.63,12.68,1.67,17.71,5.32a10,10,0,0,1,4.16,7.41c.28,2.81-.11,6-1.82,8.39s-4.92,4.05-7.75,5.06a47.76,47.76,0,0,1-8.84,2.09,110.5,110.5,0,0,1-16.26,1.09c-6.63,0-13.25,0-19.88,0H89.39a1.52,1.52,0,0,0-1.5,1.5c0,3.08-.47,6.42,2.24,8.58,3.29,2.63,8.15,2.9,12.18,3,3.07.11,6.15,0,9.22,0H146.2c.07,0,.39,0,.44,0s-.2-.5-.36-.3,0,1.3,0,1.58v4.78a3.18,3.18,0,0,0,0,.69c.15.52-.48-.06.43-.18a1.55,1.55,0,0,0-1.5,1.5A1.5,1.5,0,0,0,146.71,74.63Z"/><path class="cls-1" d="M121.79,37.61c-.14,3.85-6.19,4.31-9.06,4.54-1.79.15-3.59.18-5.39.18h-18l1.5,1.5v-6.6a8.23,8.23,0,0,1,.19-2.89c.79-1.86,3.53-2.5,5.31-2.86a46,46,0,0,1,9.23-.66,71.66,71.66,0,0,1,8.67.33c2.17.26,4.73.68,6.47,2.12,1.32,1.1,1.05,2.79,1.05,4.34a1.5,1.5,0,0,0,3,0c0-1.6.15-3.3-.59-4.77-1.1-2.16-3.57-3.32-5.79-3.94a41.62,41.62,0,0,0-11.13-1.08,70.43,70.43,0,0,0-10.16.5c-4.28.62-9.2,2.39-9.25,7.45,0,2.69,0,5.37,0,8.06a1.52,1.52,0,0,0,1.5,1.5H101.5A105.36,105.36,0,0,0,114.44,45c4.42-.55,10.16-2,10.35-7.37.07-1.93-2.93-1.93-3,0Z"/></g><g id="path2542"><path class="cls-1" d="M279.1,30.07a16.6,16.6,0,0,0-6-4.86c-8.16-4-23-4.47-28.61-4.44H207.57a1.07,1.07,0,0,0-1.07,1.08v7.42a1.07,1.07,0,0,0,1.07,1.07h34.19c2.33,0,8.45.12,11.82,1.78A6.62,6.62,0,0,1,256.06,34a4.16,4.16,0,0,1,.76,2.56v3.57H235.26c-5.62,0-20.44.29-28.61,4.29a16.13,16.13,0,0,0-6,4.56c-3,4-3,11.67,0,15.67a16.21,16.21,0,0,0,6,4.56c8.17,4,23,4.29,28.61,4.29h9.25c5.62,0,20.45-.44,28.61-4.44a16.58,16.58,0,0,0,6-4.85A11,11,0,0,0,281,57.7V36.57A11,11,0,0,0,279.1,30.07ZM256.85,58.35a4.13,4.13,0,0,1-.77,2.57,6.6,6.6,0,0,1-2.47,1.88c-3.38,1.65-9.5,1.77-11.82,1.77H238c-2.32,0-8.44-.12-11.81-1.77a6.73,6.73,0,0,1-2.48-1.88,4.19,4.19,0,0,1-.76-2.57V55.92a4.17,4.17,0,0,1,.76-2.57,6.73,6.73,0,0,1,2.48-1.88c3.37-1.65,9.49-1.77,11.81-1.77h18.88v8.65"/><path class="cls-1" d="M280.4,29.31c-5.54-7.22-15.46-8.64-23.95-9.48-5.66-.56-11.32-.56-17-.56h-4.8c-.85,0-2.13-.21-2.78.44l1.06-.44H215.05c-2.43,0-4.89-.11-7.32,0A2.71,2.71,0,0,0,205,22.1c-.06,1.74,0,3.5,0,5.25,0,1.58-.23,3.47,1.53,4.25a4.86,4.86,0,0,0,2,.24h30c2.4,0,4.81,0,7.21.14,2.78.19,6.68.43,8.77,2.55,1.27,1.28.79,3.93.79,5.6l1.5-1.5c-8.58,0-17.17-.18-25.74.06-8.05.22-16.76.75-24.24,4-4.05,1.76-7.69,4.51-9.13,8.83a16.92,16.92,0,0,0,.67,12.3c1.89,3.95,6.15,6.33,10.1,7.79A54.1,54.1,0,0,0,221,74.26a158.69,158.69,0,0,0,18.11.74c5.79,0,11.56,0,17.33-.57,8.23-.81,18.37-2.14,23.74-9.2,1.9-2.48,2.26-5.53,2.26-8.56V49.49c0-4.45.13-8.92,0-13.36a12.37,12.37,0,0,0-2-6.82c-1.11-1.56-3.71-.07-2.59,1.51,1.52,2.15,1.64,4.64,1.64,7.16V45c0,4.22,0,8.44,0,12.66a9.53,9.53,0,0,1-1.73,5.88,15.56,15.56,0,0,1-5.38,4.2,39.07,39.07,0,0,1-11.19,3.07,116.75,116.75,0,0,1-18,1.16c-5,0-9.93.08-14.89-.16a90.55,90.55,0,0,1-11.95-1.28,31.35,31.35,0,0,1-11.13-3.87,10.73,10.73,0,0,1-4.2-4.38,13.1,13.1,0,0,1-1.08-5.49A12.78,12.78,0,0,1,201.13,51a11,11,0,0,1,4.05-4.1A31.69,31.69,0,0,1,216.5,43a89.86,89.86,0,0,1,11.93-1.26c9.1-.43,18.27-.15,27.38-.15h1a1.52,1.52,0,0,0,1.5-1.5,38.32,38.32,0,0,0-.06-4.42c-.39-3.14-3.21-4.86-6-5.7a38.3,38.3,0,0,0-10.94-1.17H209c-.15,0-1.28-.13-1.38,0,.33-.42.28.85.42.18a3.18,3.18,0,0,0,0-.69V23a4.12,4.12,0,0,0,0-.86c-.14-.66-.05.58-.41.17.17.2,1.69,0,1.93,0h21.87c.82,0,2,.19,2.61-.44l-1.06.44c11,0,22.15-.48,32.89,2.06,4.47,1.06,9.08,2.72,12,6.49a1.54,1.54,0,0,0,2.05.54A1.51,1.51,0,0,0,280.4,29.31Z"/><path class="cls-1" d="M255.35,58.35c-.13,3.6-5.47,4.19-8.22,4.47a68.67,68.67,0,0,1-6.88.25c-2.14,0-4.29,0-6.43-.15a27.86,27.86,0,0,1-4.9-.73c-1.47-.38-3.49-1-4.22-2.48a8.1,8.1,0,0,1-.28-3.37,3.52,3.52,0,0,1,2.3-3.47c2.7-1.4,6.14-1.53,9.12-1.63,3.19-.11,6.4,0,9.6,0h11.41l-1.5-1.5v8.65a1.5,1.5,0,0,0,3,0V49.7a1.52,1.52,0,0,0-1.5-1.5H245.44c-3.86,0-7.77-.14-11.62.15-3.63.26-8,.73-10.74,3.42a6.1,6.1,0,0,0-1.66,4.57,12.52,12.52,0,0,0,.3,4c1.3,3.85,6.18,4.87,9.7,5.33a62.53,62.53,0,0,0,8.09.39,67.7,67.7,0,0,0,9-.41c4.31-.58,9.64-2.13,9.83-7.31.07-1.93-2.93-1.93-3,0Z"/></g><g id="path2544"><path class="cls-1" d="M348,6.79V5.1h1.25c.6,0,1.18,0,1.18.78s-.52.91-1.27.91Zm0,.94h.8l1.57,2.5h1.27l-1.71-2.58A1.61,1.61,0,0,0,351.47,6a1.7,1.7,0,0,0-1.94-1.79h-2.67v6.07H348V7.73"/><path class="cls-1" d="M349.45,6.79V5.1L348,6.6h.81c.31,0,.61,0,.91,0l-.4,0a1.55,1.55,0,0,1,.31.07l-.36-.15a1,1,0,0,1,.17.1l-.3-.23a.47.47,0,0,1,.1.1l-.24-.3a.41.41,0,0,1,.07.11l-.15-.36a1.55,1.55,0,0,1,.06.23l-.06-.4a2.29,2.29,0,0,1,0,.37l.05-.4a1.11,1.11,0,0,1-.07.26l.15-.35-.08.13.24-.3-.11.1.31-.23-.15.08.36-.15a1.09,1.09,0,0,1-.3.07l.4-.05a6.88,6.88,0,0,1-.91,0H348a1.54,1.54,0,0,0-1.06.44,1.52,1.52,0,0,0-.44,1.06,1.5,1.5,0,0,0,.44,1.06,1.54,1.54,0,0,0,1.06.44h1c.17,0,.35,0,.52,0a4.57,4.57,0,0,0,.73-.1,2.85,2.85,0,0,0,.31-.12,2.23,2.23,0,0,0,.31-.15,2.11,2.11,0,0,0,1-1.61,2.92,2.92,0,0,0,0-1,1.55,1.55,0,0,0-.13-.36,1.92,1.92,0,0,0-.39-.61A2.44,2.44,0,0,0,350.9,4l-.16-.09a3.13,3.13,0,0,0-.51-.19,3.75,3.75,0,0,0-.57-.09,5.24,5.24,0,0,0-.56,0H348a1.52,1.52,0,0,0-1.5,1.5V6.79a1.54,1.54,0,0,0,.44,1.06,1.47,1.47,0,0,0,1.06.44A1.46,1.46,0,0,0,349,7.85,1.54,1.54,0,0,0,349.45,6.79Z"/><path class="cls-1" d="M348,9.23h.8l-1.3-.75,1.32,2.1L349,11a1.61,1.61,0,0,0,1.38.78h1.21a1.5,1.5,0,0,0,1.29-2.25l-1.7-2.58-1.3,2.25a3.69,3.69,0,0,0,1.74-.56,3.21,3.21,0,0,0,1.18-1.54,3.43,3.43,0,0,0-.38-3,3.44,3.44,0,0,0-2.9-1.39h-2.66a1.52,1.52,0,0,0-1.5,1.5v6.07a1.52,1.52,0,0,0,1.5,1.5H348a1.52,1.52,0,0,0,1.5-1.5V7.73a1.5,1.5,0,0,0-3,0v2.5l1.5-1.5h-1.09l1.5,1.5V4.16l-1.5,1.5h2.66l.36,0s-.34-.07-.2,0l.11,0c.08,0,.36.13.1,0s0,0,0,0,.26.18,0,0,0,0,0,0-.16-.16-.14-.18a.41.41,0,0,1,.07.11s0,.06.05.08-.12-.34-.07-.18l.06.2c0,.07.06.33,0,0s0,0,0,.1,0,.38,0,.09,0,0,0,.08a1,1,0,0,0,0,.1c0,.13.16-.28.07-.18l0,.09c-.09.19.11-.15.11-.14s-.16.15-.19.2.27-.17.16-.13a.35.35,0,0,0-.13.08c-.1.08.17-.07.18-.07l-.15,0c-.11,0-.49.09,0,0a1.61,1.61,0,0,0-1.29.75,1.49,1.49,0,0,0,0,1.51l1.7,2.58,1.3-2.26h-1.27l1.3.75-1.16-1.85L350.05,7a1.72,1.72,0,0,0-1.53-.74H348a1.51,1.51,0,0,0-1.5,1.5,1.53,1.53,0,0,0,1.5,1.5Z"/></g><g id="path2546"><path class="cls-1" d="M349,1.5a5.67,5.67,0,1,0,5.67,5.67A5.67,5.67,0,0,0,349,1.5Zm0,10.28a4.61,4.61,0,1,1,4.61-4.61A4.61,4.61,0,0,1,349,11.78"/><path class="cls-1" d="M349,0a7.28,7.28,0,0,0-6.74,4.74,7.17,7.17,0,0,0,2.11,7.89A7.16,7.16,0,0,0,356,5.76,7.24,7.24,0,0,0,349,0c-1.93,0-1.93,3,0,3a4.13,4.13,0,0,1,2.52.84c.38.26-.1-.1.1.08l.28.25.2.21s.32.37.15.15a5,5,0,0,1,.4.62c.05.09.09.18.14.26s.09.18,0,0a1.43,1.43,0,0,1,.08.22,4.09,4.09,0,0,1,.27,1.25,7,7,0,0,1,0,.79c0,.28.08-.33,0,.14,0,.15-.06.29-.1.44s-.09.29-.14.43-.12.26,0,.06c-.11.22-.23.44-.36.65l-.21.31c-.16.21.23-.23-.09.1s-.4.42-.63.62c.17-.15,0,0-.05,0a3.87,3.87,0,0,1-.37.24l-.26.15s-.45.21-.19.1a4.32,4.32,0,0,1-.72.23l-.29.07h-.06l-.24,0h-.71s-.51-.06-.22,0l-.3-.06a6.14,6.14,0,0,1-.73-.22c-.42-.14.2.13-.19-.08l-.39-.22-.31-.2s-.29-.23-.11-.07a6.38,6.38,0,0,1-.53-.51s-.29-.34-.17-.19-.17-.23-.15-.2a5.93,5.93,0,0,1-.43-.78c0,.06.08.23,0-.06s-.1-.28-.14-.43-.05-.2-.08-.29-.08-.46-.05-.26,0-.3,0-.27c0-.13,0-.26,0-.39s0-.26,0-.39c0-.34,0,.08,0-.22a8.84,8.84,0,0,1,.25-.88c.15-.44-.07.13.05-.12s.16-.31.25-.46l.15-.25.18-.24c-.09.11-.07.1,0,0L346.3,4c.32-.31-.2.12.16-.13l.37-.25.39-.21c.26-.14-.11,0,.19-.08a8.84,8.84,0,0,1,.88-.25s.29,0,.06,0q.31,0,.63,0C350.91,3,350.91,0,349,0Z"/><path class="cls-1" d="M349,10.28l-.39,0c-.28,0,0,0,0,0a4.18,4.18,0,0,1-.61-.15,2.3,2.3,0,0,1-.34-.12c.05,0,.26.14,0,0a6.75,6.75,0,0,1-.62-.37c-.29-.19.1.15,0,0a2.2,2.2,0,0,0-.23-.2c-.07-.07-.45-.52-.24-.24a3.84,3.84,0,0,1-.32-.5l-.12-.22c-.14-.24.05.22-.06-.14-.06-.2-.12-.39-.17-.6s0-.36,0,0c0-.11,0-.21,0-.32s0-.42,0-.64-.08.35,0,0c0-.12.05-.24.09-.36s.07-.23.11-.35.13-.23,0,0c.1-.17.18-.36.29-.53s.12-.16.17-.25-.23.24,0,0l.51-.5c-.2.19-.09.06,0,0l.31-.19c.08-.06.62-.31.29-.18a5.58,5.58,0,0,1,.58-.18l.24-.06c.3-.07-.23,0,.17,0a5.61,5.61,0,0,1,.58,0c.06,0,.46.07.1,0l.24,0a5.9,5.9,0,0,1,.6.17c.36.12-.25-.15.08,0a3.3,3.3,0,0,1,.32.18l.26.16c.07,0,.26.23,0,0a5.51,5.51,0,0,1,.43.41s.27.3.12.12.09.13.09.14a5.67,5.67,0,0,1,.36.63s-.1-.28,0,0,.08.23.11.35l.06.24s.07.41,0,.17,0,.18,0,.18,0,.22,0,.32,0,.22,0,.32c0,.35.06-.21,0,.1s-.13.48-.2.71.11-.13,0,0-.13.26-.2.37a2.39,2.39,0,0,1-.13.21l-.14.19c.12-.14.12-.15,0,0l-.42.42c-.27.27.24-.15-.08.06a3.13,3.13,0,0,1-.3.2l-.32.17c-.27.16.24-.06-.08.05l-.72.2c-.07,0-.28,0,0,0l-.51,0a1.5,1.5,0,0,0,0,3,6.22,6.22,0,0,0,5.75-4.06,6.1,6.1,0,0,0-1.79-6.69A6.09,6.09,0,0,0,343,8.39a6.16,6.16,0,0,0,6,4.89,1.5,1.5,0,0,0,0-3Z"/></g><path id="path2534-2" data-name="path2534" class="cls-2" d="M342.36,73.45a1.07,1.07,0,0,0,1.08-1.07V65a1.07,1.07,0,0,0-1.08-1.07h-9.9c-2.32,0-8.44-.12-11.81-1.77a6.74,6.74,0,0,1-2.48-1.89,4.14,4.14,0,0,1-.76-2.56V2.75a1.07,1.07,0,0,0-1.07-1.07h-22a1.06,1.06,0,0,0-1.06,1.07V55.91a13.28,13.28,0,0,0,1.85,7.23,17.26,17.26,0,0,0,6,5.38c8.17,4.44,23,5,28.62,4.93h12.62"/><path id="path2536-2" data-name="path2536" class="cls-2" d="M194.4,1.68c-5.62,0-20.45.48-28.62,4.93a17.19,17.19,0,0,0-6,5.39c-1.22,1.8-1.85,4.41-1.85,7.88V72.65a1.66,1.66,0,0,0,1.06.48h22a1.07,1.07,0,0,0,1.07-1.07V30.34h13.22a1.07,1.07,0,0,0,1.07-1.07V21.85a1.07,1.07,0,0,0-1.07-1.08H182.07v-3.3a4.19,4.19,0,0,1,.76-2.57A6.83,6.83,0,0,1,185.31,13c3.37-1.65,9.49-1.77,11.81-1.77H207a1.07,1.07,0,0,0,1.08-1.07V2.75A1.07,1.07,0,0,0,207,1.68H194.4"/><path id="path2538-2" data-name="path2538" class="cls-2" d="M51.8,73.13a1.07,1.07,0,0,0,1.07-1.07V11.4H79.11a1.07,1.07,0,0,0,1.07-1.07V2.9a1.07,1.07,0,0,0-1.07-1.07H2.59A1.07,1.07,0,0,0,1.52,2.9v7.43A1.07,1.07,0,0,0,2.59,11.4H28.78V72.06a1.06,1.06,0,0,0,1.06,1.07h22"/><path id="path2540-2" data-name="path2540" class="cls-2" d="M146.71,73.13a1.06,1.06,0,0,0,1.07-1.07V64.63a1.06,1.06,0,0,0-1.07-1.07H104.45c-2.32,0-8.44-.12-11.82-1.77a6.71,6.71,0,0,1-2.47-1.88,4.13,4.13,0,0,1-.77-2.57V53.4H111c5.62,0,20.45-.29,28.61-4.29a16.15,16.15,0,0,0,6-4.56c2.81-3.75,3.06-11.25,0-15.31a16.11,16.11,0,0,0-6-4.55c-8.16-4-23-4.3-28.61-4.3h-9.25c-5.62,0-20.44.44-28.61,4.44a16.69,16.69,0,0,0-6,4.86,11,11,0,0,0-1.85,6.51V57.33a11,11,0,0,0,1.85,6.51,16.78,16.78,0,0,0,6,4.85c8.17,4,23,4.47,28.61,4.44ZM123.29,37.61a4.15,4.15,0,0,1-.76,2.57,6.73,6.73,0,0,1-2.48,1.87c-3.37,1.66-9.49,1.78-11.81,1.78H89.37V35.54A4.16,4.16,0,0,1,90.13,33a6.64,6.64,0,0,1,2.48-1.88c3.37-1.66,9.49-1.78,11.81-1.78h3.82c2.32,0,8.44.12,11.81,1.78A6.64,6.64,0,0,1,122.53,33a4.1,4.1,0,0,1,.76,2.56v2.07"/><path id="path2542-2" data-name="path2542" class="cls-2" d="M279.1,30.07a16.6,16.6,0,0,0-6-4.86c-8.16-4-23-4.47-28.61-4.44H207.57a1.07,1.07,0,0,0-1.07,1.08v7.42a1.07,1.07,0,0,0,1.07,1.07h34.19c2.33,0,8.45.12,11.82,1.78A6.62,6.62,0,0,1,256.06,34a4.16,4.16,0,0,1,.76,2.56v3.57H235.26c-5.62,0-20.44.29-28.61,4.29a16.13,16.13,0,0,0-6,4.56c-3,4-3,11.67,0,15.67a16.21,16.21,0,0,0,6,4.56c8.17,4,23,4.29,28.61,4.29h9.25c5.62,0,20.45-.44,28.61-4.44a16.58,16.58,0,0,0,6-4.85A11,11,0,0,0,281,57.7V36.57A11,11,0,0,0,279.1,30.07ZM256.85,58.35a4.13,4.13,0,0,1-.77,2.57,6.6,6.6,0,0,1-2.47,1.88c-3.38,1.65-9.5,1.77-11.82,1.77H238c-2.32,0-8.44-.12-11.81-1.77a6.73,6.73,0,0,1-2.48-1.88,4.19,4.19,0,0,1-.76-2.57V55.92a4.17,4.17,0,0,1,.76-2.57,6.73,6.73,0,0,1,2.48-1.88c3.37-1.65,9.49-1.77,11.81-1.77h18.88v8.65"/><path id="path2544-2" data-name="path2544" class="cls-2" d="M348,6.79V5.1h1.25c.6,0,1.18,0,1.18.78s-.52.91-1.27.91Zm0,.94h.8l1.57,2.5h1.27l-1.71-2.58A1.61,1.61,0,0,0,351.47,6a1.7,1.7,0,0,0-1.94-1.79h-2.67v6.07H348V7.73"/><path id="path2546-2" data-name="path2546" class="cls-2" d="M349,1.5a5.67,5.67,0,1,0,5.67,5.67A5.67,5.67,0,0,0,349,1.5Zm0,10.28a4.61,4.61,0,1,1,4.61-4.61A4.61,4.61,0,0,1,349,11.78"/></g></g></svg>