<svg xmlns="http://www.w3.org/2000/svg" viewBox="0 0 102.84 75.01"><defs><style>.cls-1{fill:#fff;}.cls-2{fill:#be212e;}</style></defs><g id="Layer_2" data-name="Layer 2"><g id="svg4403"><rect class="cls-1" x="1.76" y="58.9" width="99.33" height="1.55"/><path class="cls-1" d="M101.09,59H5.81a27.91,27.91,0,0,0-3.88,0H1.76l1.5,1.5V58.9l-1.5,1.5H97a27.91,27.91,0,0,0,3.88,0h.18l-1.5-1.5v1.56a1.5,1.5,0,0,0,3,0V58.9a1.52,1.52,0,0,0-1.5-1.5h-87c-4,0-8.09-.17-12.12,0H1.76a1.52,1.52,0,0,0-1.5,1.5v1.56A1.52,1.52,0,0,0,1.76,62h87c4,0,8.09.17,12.11,0h.18A1.5,1.5,0,0,0,101.09,59Z"/><path class="cls-1" d="M4.7,71.9a4.28,4.28,0,0,0,2.13.6c1.21,0,1.92-.64,1.92-1.57S8.26,69.58,7,69.11c-1.5-.53-2.43-1.31-2.43-2.6s1.19-2.5,3-2.5a4.19,4.19,0,0,1,2,.45l-.33,1A3.68,3.68,0,0,0,7.52,65c-1.25,0-1.73.75-1.73,1.38,0,.86.56,1.28,1.83,1.77,1.55.6,2.34,1.35,2.34,2.7s-1.05,2.64-3.21,2.64a4.72,4.72,0,0,1-2.35-.59Z"/><path class="cls-1" d="M4,73.19c1.4.83,3.48,1.21,4.92.26a3.07,3.07,0,0,0,1-4.06A3.66,3.66,0,0,0,8.21,68q-.36-.17-.72-.3c-.07,0-.5-.2-.25-.09a8.6,8.6,0,0,1-.84-.47c-.14-.08,0,0,.07.06s-.11-.1-.17-.16a.63.63,0,0,0-.11-.12c-.14-.12.1.22,0,0s-.13-.41-.06-.08c0-.12-.07-.5-.07-.14a2.81,2.81,0,0,0,0-.41c0-.15,0,.1,0,.12s0-.14,0-.21a.88.88,0,0,0,0-.15c0-.15,0,.09,0,.11l.1-.19c.09-.16,0,0,0,0,.11-.11.2-.21.31-.31-.27.24.15,0,.23-.1s0,0-.08,0a2.63,2.63,0,0,1,.3-.09l.18,0c.28-.07-.11,0,.07,0s.4,0,.61,0l.24,0h.12l.49.13a1.15,1.15,0,0,0,.17.06c-.35-.1-.1,0,0,0l-.69-1.69-.32,1,2.2-.89a4.32,4.32,0,0,0-4.82.18,2.87,2.87,0,0,0-.1,4.07,5.69,5.69,0,0,0,2,1.17s.33.13.17.06l.08,0c.16.08.31.15.46.24s.4.27.25.15,0,0,0,0a1.14,1.14,0,0,0,.19.19c.15.08-.1-.22,0-.06l.08.13c0,.06.06.12.1.18s-.09-.31,0-.07c0,.08.05.44.05.23s0,0,0,0a2.62,2.62,0,0,0,0,.28c0,.36.07-.2,0,0a2.68,2.68,0,0,1-.12.37s.16-.27.05-.13a.83.83,0,0,0-.09.16c0,.08-.18.17,0,0s0,0-.08.08a.58.58,0,0,0-.12.1c-.08.12.24-.13,0,0s-.25.15-.39.21c.33-.15-.19,0-.28.06l-.19,0c.28-.07,0,0-.09,0a5.3,5.3,0,0,1-.69,0H6.31l-.26,0c-.2,0-.39-.1-.58-.15s-.07,0,0,0l-.3-.16.69,1.69.3-1a1.5,1.5,0,1,0-2.89-.8l-.3,1a1.53,1.53,0,0,0,.69,1.7c2.52,1.57,7,.88,7.7-2.41a4,4,0,0,0-1.24-3.93,7.64,7.64,0,0,0-2.17-1.19c-.24-.09.16.08-.06,0l-.18-.09c-.15-.07-.28-.15-.43-.23s-.16-.14,0,0l0,0c-.11-.17.17.25.07.09s-.17-.31,0,.08a.65.65,0,0,1,0-.13c0-.18,0,.34,0,.06,0-.11,0-.25,0,.16a.94.94,0,0,1,0-.16c-.16.38-.09.2,0,.12s-.16.2,0,.05.07-.06.1-.1q-.24.18-.09.09h0l-.08,0,.18,0c.08,0,.08,0,0,0s-.09,0,.08,0h.24c.07,0,.38,0,.17,0a5.36,5.36,0,0,1,.54.14c.27.07,0,0-.05,0l.24.12a1.52,1.52,0,0,0,2.2-.9l.33-1a1.51,1.51,0,0,0-.69-1.69c-2.6-1.41-6.76-.54-7.21,2.8A3.9,3.9,0,0,0,5,69.79a5.25,5.25,0,0,0,.81.43l.69.28.21.08c.26.1-.25-.14.13.06a2.16,2.16,0,0,0,.39.22c.14,0,0,0-.08-.06l.16.14c.19.16-.12-.22,0,0-.19-.39,0-.18,0-.1,0,.24,0-.12,0-.12s0,.19,0,.21c0,.26,0-.09,0-.08s0,.17,0,.2l.07-.17c-.07.11-.07.11,0,0s.12-.06,0,0,.14-.12,0,0a.87.87,0,0,1-.14.08c.17-.1.16-.06,0,0L7,71c.22,0,.07,0-.07,0H6.48c.09,0,.08,0,0,0a4.16,4.16,0,0,1-.63-.17h0c-.13-.06-.25-.13-.37-.2A1.5,1.5,0,1,0,4,73.19Z"/><path class="cls-1" d="M20.74,65.17H18v-1h6.79v1H21.93v8.17H20.74Z"/><path class="cls-1" d="M20.74,63.67H18l1.5,1.5v-1L18,65.66h6.79l-1.5-1.5v1l1.5-1.5H21.93a1.52,1.52,0,0,0-1.5,1.5v8.17l1.5-1.5H20.74l1.5,1.5V65.17a1.5,1.5,0,0,0-3,0v8.17a1.52,1.52,0,0,0,1.5,1.5h1.19a1.52,1.52,0,0,0,1.5-1.5V65.17l-1.5,1.5h2.81a1.52,1.52,0,0,0,1.5-1.5v-1a1.52,1.52,0,0,0-1.5-1.5H18a1.52,1.52,0,0,0-1.5,1.5v1a1.52,1.52,0,0,0,1.5,1.5h2.79a1.5,1.5,0,0,0,0-3Z"/><path class="cls-1" d="M34.36,64.16V69.6c0,2.05.91,2.92,2.14,2.92s2.23-.89,2.23-2.92V64.16h1.2v5.36c0,2.81-1.48,4-3.47,4s-3.3-1.07-3.3-3.92V64.16Z"/><path class="cls-1" d="M32.86,64.16v3.45a10.26,10.26,0,0,0,.53,4.51,3.6,3.6,0,0,0,5.8.76c1.12-1.32,1-3,1-4.66V64.16l-1.5,1.5h1.2l-1.5-1.5v5.35c0,.13,0,.25,0,.37s-.05.51,0,.22a5.06,5.06,0,0,1-.18.77c0,.12-.22.41,0,.11-.07.1-.11.21-.18.32a.83.83,0,0,1-.08.12c-.06.1-.11.07,0,0s.06-.07,0,0l-.13.14-.1.09c-.1.12.1-.09.12-.09s-.29.19-.32.21c-.27.15,0,0,0,0s-.24.08-.27.09l-.33.08c-.34.08.2,0,0,0a5.15,5.15,0,0,1-.68,0c-.06,0-.39,0-.14,0s-.13,0-.22-.06a2.76,2.76,0,0,0-.27-.08c-.17,0,.18.06.15.07l-.17-.08-.23-.14c-.2-.11.2.21,0,0l-.23-.24s.17.26.09.11-.06-.08-.08-.12-.1-.18-.15-.26,0,0,0,.06,0-.14-.07-.21a3.37,3.37,0,0,1-.1-.34c0-.08-.09-.45-.07-.3s0-.21,0-.28,0-.35,0-.52V64.16l-1.5,1.5h1.2a1.51,1.51,0,0,0,1.5-1.5,1.53,1.53,0,0,0-1.5-1.5h-1.2a1.52,1.52,0,0,0-1.5,1.5v4c0,1.89,0,3.86,1.29,5.38a5.08,5.08,0,0,0,6.47.56,5,5,0,0,0,1.91-3.35,15.79,15.79,0,0,0,.1-2.06V64.16a1.52,1.52,0,0,0-1.5-1.5h-1.2a1.52,1.52,0,0,0-1.5,1.5V69.6c0,.14,0,.29,0,.43s0,.19,0,0c0,.08,0,.16,0,.24a1.89,1.89,0,0,1-.09.34c0,.12-.19.34,0,0a.88.88,0,0,0-.12.21c0,.15.24-.21,0,0,0,0-.13.18-.2.19l.16-.13-.15.09c-.27.14.34,0,0,0l-.17,0c-.16,0-.12,0,.12,0,0,0-.47.07-.49,0l.22,0-.17,0c-.21-.1-.22.08,0,0-.05,0-.17-.1-.22-.12l-.08-.05c.19.15.22.17.1.06s-.3-.23-.06-.06c.08.11.08.11,0,0a1.62,1.62,0,0,1-.1-.18c-.18-.28.07.31,0,0,0-.11-.07-.23-.09-.34s-.06-.46,0-.13l0-.44V64.16a1.5,1.5,0,0,0-3,0Z"/><path class="cls-1" d="M49.4,64.29a16.82,16.82,0,0,1,2.52-.19,5.26,5.26,0,0,1,3.72,1.14,4.25,4.25,0,0,1,1.29,3.29,4.84,4.84,0,0,1-1.32,3.57,5.64,5.64,0,0,1-4.06,1.32,18.69,18.69,0,0,1-2.15-.11Zm1.19,8.11a6.78,6.78,0,0,0,1.19.07c2.54,0,3.91-1.42,3.91-3.89C55.71,66.41,54.48,65,52,65a6.44,6.44,0,0,0-1.39.13Z"/><path class="cls-1" d="M49.8,65.73l.17,0,.53,0c.36,0,.71,0,1.07-.06s.72,0,1.08,0l.23,0s.26,0,.1,0,.07,0,.08,0l.34.08.38.1c.06,0,.38.16.23.08s0,0,0,0l.2.11c.06,0,.38.24.22.13s.11.1.15.14a3.07,3.07,0,0,1,.25.26s.17.24.07.08,0,0,0,0l.21.37s0,.11.08.16-.07-.22,0-.06.1.29.13.44.06.27.08.41c0-.27,0,.18,0,.26a6.77,6.77,0,0,1,0,1c0-.24,0,.11,0,.18a5.62,5.62,0,0,1-.15.55c-.08.26.07-.1,0,.14a3.9,3.9,0,0,1-.19.35c0,.06-.26.38-.18.28s0,0,0,0l-.18.19-.26.23c.2-.17,0,0-.08,0a3.47,3.47,0,0,1-.37.21l-.18.08c.14-.06.13,0,0,0a9,9,0,0,1-1,.27c-.17,0,0,0,0,0l-.31,0c-.21,0-.43,0-.64,0a18,18,0,0,1-2.32-.11l1.5,1.5v-9a1.5,1.5,0,1,0-3,0v9a1.54,1.54,0,0,0,1.5,1.5c3.17.35,7,0,8.44-3.36a7.13,7.13,0,0,0,.24-5.12A5.43,5.43,0,0,0,54.81,63a11.77,11.77,0,0,0-5.81-.2,1.51,1.51,0,0,0-1,1.85A1.54,1.54,0,0,0,49.8,65.73Z"/><path class="cls-1" d="M50.19,73.85a7.44,7.44,0,0,0,4.3-.45,4.69,4.69,0,0,0,2.37-2.69A6.56,6.56,0,0,0,57,67a4.45,4.45,0,0,0-2.15-2.81,7.08,7.08,0,0,0-4.67-.49,1.51,1.51,0,0,0-1.1,1.45V72.4a1.5,1.5,0,0,0,3,0V65.16L51,66.6c.07,0,.39-.06.14,0s.14,0,.21,0a7.1,7.1,0,0,1,.92,0,1.38,1.38,0,0,1,.37,0s-.32-.06-.15,0l.19,0,.32.08c.09,0,.25.12.34.11s-.29-.14-.16-.07l.15.07.25.15.1.07c.12.05-.14-.12-.15-.12a2.41,2.41,0,0,0,.24.21l.1.12c.09.09,0,.16-.09-.13a2.26,2.26,0,0,0,.13.2l.14.24c.15.29-.1-.3,0,0s.09.39.15.57,0-.33,0-.13c0,0,0,.09,0,.13a2.42,2.42,0,0,1,0,.38,5.31,5.31,0,0,1,0,.69c0,.28.08-.34,0,0,0,.12,0,.24-.08.35l-.09.29s0,.08,0,.12.14-.29,0-.13a3.88,3.88,0,0,0-.3.52s.21-.25.11-.15l-.1.12-.2.19a.6.6,0,0,0-.08.08c-.1.1.14-.12.14-.12a2.4,2.4,0,0,0-.26.18,1.32,1.32,0,0,0-.29.15c.18-.16.27-.11.13-.06l-.21.07-.34.1-.21,0-.24,0h-1c-.13,0-.66-.08-.21,0a1.5,1.5,0,1,0-.79,2.89Z"/><path class="cls-1" d="M67.07,64.16v9.18H65.89V64.16Z"/><path class="cls-1" d="M65.57,64.16v9.18l1.5-1.5H65.89l1.5,1.5V64.16l-1.5,1.5h1.18a1.51,1.51,0,0,0,1.5-1.5,1.53,1.53,0,0,0-1.5-1.5H65.89a1.52,1.52,0,0,0-1.5,1.5v9.18a1.52,1.52,0,0,0,1.5,1.5h1.18a1.52,1.52,0,0,0,1.5-1.5V64.16a1.5,1.5,0,0,0-3,0Z"/><path class="cls-1" d="M84.39,68.66c0,3.16-1.91,4.83-4.26,4.83S76,71.61,76,68.83,77.82,64,80.27,64,84.39,65.93,84.39,68.66Zm-7.12.15c0,2,1.07,3.71,2.93,3.71s2.94-1.73,2.94-3.81c0-1.82-1-3.73-2.92-3.73S77.27,66.79,77.27,68.81Z"/><path class="cls-1" d="M82.89,68.66c0,.26,0,.53,0,.79s.08-.33,0,.07c0,.11,0,.21-.07.32s-.13.43-.21.65c0,0,.13-.28,0,0s-.12.24-.19.36l-.16.23c-.19.3.22-.21,0,0l-.38.37c-.18.18,0,0,.06,0l-.26.17-.18.11c-.09,0-.51.19-.11.06a5,5,0,0,1-.51.16l-.21,0c-.35.09.34,0,0,0L80,72c-.1,0-.2,0-.3,0l.11,0-.23,0a4.81,4.81,0,0,1-.54-.16c.36.12-.14-.08-.24-.14a2.68,2.68,0,0,1-.28-.18s.24.21,0,0a5.21,5.21,0,0,1-.47-.47c.25.28-.09-.17-.15-.26s-.11-.21-.16-.31c-.12-.25,0,0,0,0a5.38,5.38,0,0,1-.2-.65l-.06-.32c-.08-.34,0,.2,0-.12s0-.51,0-.77,0-.23,0-.35c0-.42,0,.18,0-.06a7,7,0,0,1,.16-.69,2.25,2.25,0,0,1,.08-.24,2.09,2.09,0,0,1,.08-.23q-.1.26,0,0c.09-.17.18-.34.28-.5l.14-.19c-.23.31,0,0,0,0s.26-.25.4-.38c-.23.22-.11.09,0,0s.24-.16.37-.23l.2-.09c-.34.17,0,0,.06,0s.36-.09.54-.14c.35-.08-.21,0,0,0a2.91,2.91,0,0,0,.3,0h.37c.09,0,.45.07.09,0,.23,0,.45.11.67.17s-.16-.12,0,0,.23.11.34.18l.19.12c.13.09.12.08,0,0l.16.15.16.15c.06.07.33.45.12.13.12.19.24.39.35.59s.11.26,0,0c.06.15.11.3.16.45a5.52,5.52,0,0,1,.15.68c0,.24,0-.36,0,0,0,.19,0,.37,0,.55a1.5,1.5,0,0,0,3,0,6,6,0,0,0-3.81-5.86,5.7,5.7,0,0,0-6.44,2.12,7.21,7.21,0,0,0-.3,7.3,5.59,5.59,0,0,0,6.22,2.6c2.86-.66,4.31-3.4,4.33-6.16a1.5,1.5,0,0,0-1.5-1.5A1.53,1.53,0,0,0,82.89,68.66Z"/><path class="cls-1" d="M75.77,68.81a5.13,5.13,0,0,0,3,5,4.2,4.2,0,0,0,5.11-1.92,6.5,6.5,0,0,0,.34-5.45A4.7,4.7,0,0,0,82.28,64a4.26,4.26,0,0,0-3.15-.4c-2.32.57-3.34,3-3.36,5.19a1.5,1.5,0,0,0,3,0l0-.54c0-.29,0,.07,0,.09s0-.19,0-.26.07-.29.11-.44l.06-.19a1.34,1.34,0,0,1,.07-.18c-.09.19-.1.24-.06.13s.13-.25.2-.37l.1-.15c.17-.28-.23.23,0,0,.08-.08.16-.17.25-.25s-.23.11-.06,0a1.88,1.88,0,0,0,.24-.14c.23-.14,0,.08-.07,0a.7.7,0,0,0,.17-.06,1.32,1.32,0,0,0,.23,0c.18-.08-.37,0,0,0h.47c.21,0-.36-.1,0,0l.27.08c.21.06-.08,0-.09,0l.16.08s.19.16.23.15-.27-.24-.09-.06a4,4,0,0,0,.28.3c.14.13-.19-.31,0,0l.15.24s0,.11.09.17c.15.27-.08-.25,0-.05s.1.27.14.41.07.32.11.49-.05-.09,0-.11,0,.29,0,.3c0,.18,0,.35,0,.52s0,.34,0,.44c.12-.2,0-.23,0,0a2.21,2.21,0,0,1,0,.25c0,.16-.09.32-.14.48-.09.32.13-.21,0,0a2.14,2.14,0,0,0-.1.22c-.07.12-.16.23-.22.35s.25-.26,0,0l-.12.13a1.59,1.59,0,0,0-.13.13c-.19.19.29-.17,0,0a2,2,0,0,0-.35.19c.16-.16.26-.09.1,0l-.22.06c-.26.08,0-.09.08,0a1.48,1.48,0,0,0-.2,0,2.09,2.09,0,0,1-.25,0H79.9c.22,0,.27,0,.16,0a1.69,1.69,0,0,0-.24,0l-.13,0c-.11,0-.06,0,.15.07a2.05,2.05,0,0,0-.4-.23c.12,0,.24.22.06,0a2.5,2.5,0,0,0-.23-.23c-.15-.16.1,0,.06.08s-.15-.22-.15-.23l-.1-.17L79,70.07c0-.12,0-.12,0,0l0,.09A1.07,1.07,0,0,1,79,70l-.09-.29c0-.07,0-.14,0-.2s-.15-.35,0,0a2.72,2.72,0,0,1,0-.64,1.5,1.5,0,0,0-1.5-1.5A1.53,1.53,0,0,0,75.77,68.81Z"/><path class="cls-1" d="M93.19,71.9a4.24,4.24,0,0,0,2.12.6c1.21,0,1.92-.64,1.92-1.57s-.49-1.35-1.73-1.82c-1.5-.53-2.42-1.31-2.42-2.6s1.18-2.5,3-2.5a4.19,4.19,0,0,1,2,.45l-.33,1A3.68,3.68,0,0,0,96,65c-1.26,0-1.73.75-1.73,1.38,0,.86.56,1.28,1.82,1.77,1.55.6,2.34,1.35,2.34,2.7s-1,2.64-3.21,2.64a4.71,4.71,0,0,1-2.34-.59Z"/><path class="cls-1" d="M92.43,73.19c1.41.83,3.48,1.21,4.93.26a3.06,3.06,0,0,0,1-4.06A3.66,3.66,0,0,0,96.69,68c-.23-.11-.47-.21-.71-.3-.07,0-.5-.2-.25-.09-.3-.13-.56-.31-.85-.47-.14-.08.06,0,.08.06s-.12-.1-.17-.16a1.31,1.31,0,0,0-.11-.12c-.15-.12.1.22,0,0s-.14-.41-.07-.08c0-.12-.06-.5-.06-.14,0-.13,0-.28,0-.41s0,.1,0,.12,0-.14.05-.21,0-.1,0-.15,0,.09,0,.11a1.18,1.18,0,0,0,.11-.19c.08-.16,0,0,0,0l.32-.31c-.28.24.14,0,.22-.1s0,0-.08,0,.2-.07.3-.09l.19,0c.27-.07-.11,0,.06,0s.41,0,.61,0l.25,0c.27,0,0,0,.11,0l.5.13.16.06c-.34-.1-.1,0,0,0l-.69-1.69-.33,1,2.21-.89a4.33,4.33,0,0,0-4.83.18,2.87,2.87,0,0,0-.09,4.07,5.69,5.69,0,0,0,2,1.17s.32.13.17.06.07,0,.07,0c.16.08.32.15.47.24s.39.27.24.15,0,0,0,0a1.7,1.7,0,0,0,.19.19c.15.08-.1-.22,0-.06a1,1,0,0,0,.09.13l.09.18s-.09-.31,0-.07c0,.08.06.44.06.23s0,0,0,0V71c0,.36.07-.2,0,0a1.79,1.79,0,0,1-.11.37s.15-.27.05-.13a.86.86,0,0,0-.1.16c0,.08-.17.16,0,0s0,0-.08.08a1,1,0,0,0-.11.1c-.09.12.24-.13,0,0s-.26.15-.4.21c.33-.15-.18,0-.28.06l-.19,0c.28-.07,0,0-.09,0a5.15,5.15,0,0,1-.68,0H94.8l-.27,0c-.19,0-.38-.1-.57-.15s-.08,0,0,0a2.11,2.11,0,0,1-.3-.16l.68,1.69.3-1a1.5,1.5,0,1,0-2.89-.8l-.3,1a1.55,1.55,0,0,0,.69,1.7c2.53,1.57,7,.88,7.71-2.41a4,4,0,0,0-1.24-3.93,7.92,7.92,0,0,0-2.17-1.19c-.25-.09.16.08-.06,0l-.19-.09-.42-.23s-.16-.14,0,0,0,0,0,0l.06.09c0-.08-.16-.31,0,.08a.61.61,0,0,1,0-.13c0-.18,0,.34,0,.06,0-.11,0-.25,0,.16a.94.94,0,0,1,0-.16c-.17.38-.1.2-.05.12s-.16.2,0,.05.07-.06.1-.1c-.15.12-.19.15-.09.09h0l-.07,0,.17,0c.08,0,.08,0,0,0s-.09,0,.07,0h.24c.08,0,.39,0,.17,0a4.75,4.75,0,0,1,.54.14c.27.07,0,0,0,0l.23.12a1.53,1.53,0,0,0,2.21-.9l.32-1a1.5,1.5,0,0,0-.69-1.69c-2.6-1.41-6.75-.54-7.2,2.8a3.88,3.88,0,0,0,1.84,3.82,4.83,4.83,0,0,0,.81.43c.22.1.45.19.69.28l.21.08c.25.1-.26-.14.12.06a3.15,3.15,0,0,0,.39.22c.14,0,0,0-.07-.06l.15.14c.19.16-.11-.22,0,0-.19-.39-.05-.18,0-.1,0,.24,0-.12,0-.12a1.34,1.34,0,0,1,0,.21c0,.26,0-.09,0-.08a1.08,1.08,0,0,1-.06.2l.07-.17c-.06.11-.06.11,0,0s.11-.06,0,0,.14-.12,0,0l-.14.08c.16-.1.16-.06,0,0l-.18,0c.22,0,.07,0-.08,0H95c.09,0,.09,0,0,0a4.91,4.91,0,0,1-.63-.17c-.16-.06,0,0,0,0l-.38-.2a1.5,1.5,0,0,0-1.51,2.59Z"/><path class="cls-1" d="M20,41.91l-3.44-7h-1L12,41.32,8.14,35H1.5L11.68,51.39l3.55-5.63h1.11l3.19,5.63L29.51,35H23.38Z"/><path class="cls-1" d="M21.27,41.15l-3.44-7a1.5,1.5,0,0,0-1.3-.74h-1a1.53,1.53,0,0,0-1.3.74l-3.58,6.37h2.59c-1.26-2.09-2.38-4.4-3.84-6.36-.83-1.13-2.75-.75-4-.75H1.5A1.51,1.51,0,0,0,.21,35.71L10.38,52.14a1.52,1.52,0,0,0,2.6,0c1.18-1.87,2.36-3.75,3.55-5.62l-1.3.74h1.11l-1.29-.74,3.18,5.62a1.51,1.51,0,0,0,2.59,0l10-16.43a1.52,1.52,0,0,0-1.3-2.26H23.38a1.5,1.5,0,0,0-1.3.74l-3.4,7c-.85,1.73,1.74,3.25,2.59,1.52l3.4-7-1.29.74h6.13l-1.29-2.26-10,16.44h2.59L17.64,45a1.52,1.52,0,0,0-1.3-.74,3.66,3.66,0,0,0-1.86.21c-.66.38-1,1.32-1.43,1.94l-2.67,4.22H13L2.8,34.19,1.5,36.45H8.14l-1.3-.74,3.84,6.37a1.52,1.52,0,0,0,2.59,0l3.58-6.37-1.29.74h1l-1.29-.74,3.44,7C19.53,44.4,22.12,42.88,21.27,41.15Z"/><path class="cls-1" d="M32,44"/><path class="cls-1" d="M32,45.48a1.5,1.5,0,0,0,0-3,1.5,1.5,0,0,0,0,3Z"/><path class="cls-1" d="M69.05,35.94a19.5,19.5,0,1,0-37.48,7.55L32,44c.14-9.37,4.48-17.09,10.66-19.25a15.7,15.7,0,0,1,8.44-.29,14.24,14.24,0,0,1,7.07,4.65.32.32,0,0,1,0,.44l-14,13.64a1.46,1.46,0,0,1-2.22-1.85L51.07,33a1.67,1.67,0,0,0,.52-.89c.26-1.5-2.22-2.95-2.37-3-2.52-1.43-6.49-.69-9,1.41a10.4,10.4,0,0,0-1.86,13.4,9.91,9.91,0,0,0,5.78,3.78c4.42,1,8.1-1.54,9.44-2.45,3.05-2.08,3.55-3.92,7.75-9.08a81.9,81.9,0,0,1,5.62-6.24,39.92,39.92,0,0,0-3.6,5.47c-.49.91-.68,1.36-2.77,5.74C59.41,43.5,59.34,44,58.7,45a18.94,18.94,0,0,1-7.93,7.25,18.68,18.68,0,0,1-8.42,1.81c9.18,2.29,18.23-.42,23.1-6.81A19.79,19.79,0,0,0,69.05,35.94Z"/><path class="cls-1" d="M70.55,35.94a21,21,0,0,0-40.22-8.42,21,21,0,0,0-1.77,8.62c0,2.9.49,6.57,2.35,8.9.85,1.08,2.53.13,2.56-1.06.13-6.25,2.23-13.82,8.07-17.11a12.59,12.59,0,0,1,9-1,12.45,12.45,0,0,1,3.89,1.81,13.21,13.21,0,0,1,1.53,1.27c.22.22.44.44.65.67s.37.74.18.13l.15-1.16c.09-.2.07,0-.1.14a7.28,7.28,0,0,0-.69.67l-2.34,2.28-6.35,6.18-2.65,2.58A9.23,9.23,0,0,0,43.21,42c-.1.17-.25.22.11.1.55-.2,1.39-1.26,1.83-1.66L47,38.73l3.3-3c.92-.83,2.18-1.64,2.63-2.84.71-1.95-.83-3.62-2.3-4.67a7.73,7.73,0,0,0-5-1.35,11,11,0,0,0-9.8,7.58A11,11,0,0,0,49.22,49a16.93,16.93,0,0,0,8.91-6.19A118.54,118.54,0,0,1,68,31l-2.35-1.82a38.51,38.51,0,0,0-4.25,6.75c-1.23,2.55-2.31,5.2-3.62,7.7a17.21,17.21,0,0,1-15.41,8.94,1.5,1.5,0,0,0-.4,2.94c7.22,1.75,15.2.84,21.18-3.82a20,20,0,0,0,7.42-15.73c0-1.93-3-1.93-3,0a17.06,17.06,0,0,1-6.24,13.37C56.1,53.4,49,54.12,42.75,52.6l-.4,2.95A20.38,20.38,0,0,0,60,45.8a36.06,36.06,0,0,0,1.67-3.49c.72-1.53,1.46-3.06,2.19-4.59a39.19,39.19,0,0,1,4.39-7c1-1.37-1.19-3-2.36-1.81A85,85,0,0,0,59.49,36c-1.55,2-2.89,4.12-4.55,6-2.79,3.18-7.59,5.46-11.75,3.82C38,43.78,36.65,37,40.08,32.73a7.61,7.61,0,0,1,7.54-2.68,4.84,4.84,0,0,1,1.88,1.1c.14.13.42.34.48.53.31,1,.12-.18,0,.29,0,.23-.91.82-1.1,1l-1.47,1.33-4,3.65c-1.32,1.19-3.34,2.35-3.19,4.36a3,3,0,0,0,5.07,1.83c2.07-1.86,4-3.91,6-5.85l7.19-7c1-.93,1.72-1.91.73-3.25a14.36,14.36,0,0,0-5.47-4.2,15.28,15.28,0,0,0-16.41,2.44C32.49,30.7,30.61,37.64,30.47,44L33,42.92c-.07-.09-.25-.22-.27-.33-.06-.38.19.53,0-.11s-.44-1.23-.61-1.87a17.37,17.37,0,0,1-.61-4.24,18,18,0,1,1,36-.43A1.5,1.5,0,0,0,70.55,35.94Z"/><rect class="cls-1" x="58.96" y="11.3" width="8.19" height="8.19" rx="1.48" transform="translate(14.56 58.54) rotate(-55.38)"/><path class="cls-1" d="M63.63,19l-4.18-2.89c-.09-.07-.14-.05-.07-.05s.16.24.08.08.06.34,0-.05c0-.08-.1-.24,0,0,0-.15,0-.17,0,0s0,.09,0-.06c0,0-.17.28,0,0l0-.07.24-.36,1.8-2.6.73-1.06a.9.9,0,0,0,.14-.2c0,.06-.26.2-.11.13s-.22.08,0,0l.19-.05q-.26,0-.09,0h.07q-.28,0,0,0s-.31-.2,0,0l0,0,.31.21,1.14.79,2.52,1.74a1.2,1.2,0,0,0,.27.19l0,0c-.06,0-.14-.14-.16-.17.19.24,0-.18.06.1s0,0,0,0v.12c0-.16,0-.19,0-.08l0,.06c.07-.16.06-.16,0,0h0l-.14.21-1.95,2.83L63.74,19c0,.07-.16.25,0,.05l.11-.07c-.13.07-.15.09,0,.05s-.31,0-.11,0-.22-.08,0,0,.1,0,0,0q.24.09,0,0a1.51,1.51,0,0,0-2.05.53,1.54,1.54,0,0,0,.54,2.06,3,3,0,0,0,3.71-.41,7.39,7.39,0,0,0,.74-1l2.05-3,.58-.83a3,3,0,0,0,0-3.22A9.6,9.6,0,0,0,66.57,11c-.85-.58-1.68-1.19-2.54-1.75a3,3,0,0,0-2.85-.23,3.58,3.58,0,0,0-1.49,1.37l-2,2.86c-.75,1.09-1.57,2.12-1.18,3.57s1.88,2.14,3,2.91l2.59,1.79A1.51,1.51,0,0,0,64.17,21,1.53,1.53,0,0,0,63.63,19Z"/><rect class="cls-1" x="61.8" y="4.49" width="8.88" height="1.63" rx="0.78" transform="translate(24.25 56.81) rotate(-55.38)"/><path class="cls-1" d="M64.51,7.68c-.13-.09.19.16.17.13.21.24.11.18.06.09.06.12.24.7,0,.79,0,0,.06-.1.08-.12l.24-.36,1-1.49,2.44-3.53.33-.48.07-.1,0,0c-.39.65,0,0-.26.28l0,0c.1-.06,0,0-.14.06a.78.78,0,0,1-.43,0s-.32-.17-.1,0,.06.12-.17-.13c0,0-.17-.3-.06-.08a.88.88,0,0,1,0-.71c0-.15.05-.09,0,0l-.18.26L65.25,5.55,64,7.39l-.36.53s-.07.07-.07.09-.8,1,.09-.1c0-.06.36-.28.16-.18a.85.85,0,0,1,.41-.12c.09,0,.53.2.31.07A1.5,1.5,0,0,0,63,10.27a2.33,2.33,0,0,0,3.14-.74,2,2,0,0,0,.16-.24L67.4,7.7l2.68-3.88.21-.31A2.31,2.31,0,0,0,70,.7,2.35,2.35,0,0,0,67.1.33a2.82,2.82,0,0,0-.84.88l-2.5,3.62L62.42,6.77l-.22.32A2.33,2.33,0,0,0,63,10.27a1.51,1.51,0,0,0,2.06-.54A1.54,1.54,0,0,0,64.51,7.68Z"/><rect class="cls-1" x="55.29" y="8.46" width="8.88" height="1.63" rx="0.78" transform="translate(18.17 53.17) rotate(-55.38)"/><path class="cls-1" d="M58,11.65c-.13-.09.19.16.17.14.21.23.11.18.06.08.06.12.24.7,0,.79a.81.81,0,0,0,.08-.12l.24-.36,1-1.49L62,7.16l.33-.48a.86.86,0,0,0,.07-.1l0,0c-.39.65,0,0-.26.28l0,0c.1-.06,0,0-.14.06a.79.79,0,0,1-.43,0s-.32-.17-.1,0,.06.11-.17-.14c0,0-.17-.3-.06-.08a.88.88,0,0,1,0-.71c0-.15,0-.09,0,0L61,6.23,58.74,9.52l-1.28,1.85-.36.52S57,12,57,12l.09-.11c.05-.06.36-.27.16-.18a1,1,0,0,1,.41-.11c.09,0,.53.2.31.06a1.5,1.5,0,0,0-1.52,2.59,2.33,2.33,0,0,0,3.14-.73l.17-.24,1.1-1.6,2.68-3.88.21-.3a2.32,2.32,0,0,0-.32-2.82,2.36,2.36,0,0,0-2.87-.37,2.94,2.94,0,0,0-.84.88L57.25,8.8l-1.34,1.95-.22.32a2.32,2.32,0,0,0,.79,3.17,1.51,1.51,0,0,0,2.06-.54A1.54,1.54,0,0,0,58,11.65Z"/><rect class="cls-1" x="66.07" y="7.43" width="8.88" height="1.63" rx="0.62" transform="translate(23.67 61.59) rotate(-55.38)"/><path class="cls-1" d="M68.9,10.71l-.16-.11-.1-.07c-.15-.09.19.15.17.14.17.17.37.88.17,1,.08,0,.16-.23.21-.3l1-1.47,2.58-3.74.38-.55c.11-.15.32-.31,0,0a.86.86,0,0,1-.63.24s-.4-.06-.38-.09l.15.11c.14.1.24.24-.06-.06A.88.88,0,0,1,72,5.2c0-.06,0-.38.09-.39A1.21,1.21,0,0,0,71.9,5L69.61,8.35l-1.36,2-.42.6a1.1,1.1,0,0,0-.09.14,1,1,0,0,1,1.16-.35,1.5,1.5,0,1,0-1.51,2.59,2.17,2.17,0,0,0,2.92-.7l.24-.35,1.21-1.75,2.72-3.93.19-.29a2.08,2.08,0,0,0,.12-1.85,2.48,2.48,0,0,0-.94-1.09A2.18,2.18,0,0,0,71,3.5a5.22,5.22,0,0,0-.45.6L67.89,8,66.56,9.9a2.51,2.51,0,0,0-.4.76,2.08,2.08,0,0,0,.47,2.05,4,4,0,0,0,.76.59,1.51,1.51,0,0,0,2-.53A1.55,1.55,0,0,0,68.9,10.71Z"/><rect class="cls-1" x="67.86" y="9.23" width="8.88" height="1.63" rx="0.68" transform="matrix(0.57, -0.82, 0.82, 0.57, 22.97, 63.84)"/><path class="cls-1" d="M70.65,12.47a.91.91,0,0,1-.16-.11c-.16-.1.17.15.16.13a.9.9,0,0,1,.2.34c0,.09.06.58-.06.6l0,0a1.61,1.61,0,0,0,.23-.33l1-1.46L74.57,8l.37-.53L75,7.29c.1-.15-.27.28-.29.29a.79.79,0,0,1-.39.11s-.41-.05-.39-.08l.16.11c.1.06.08.13-.17-.13a.88.88,0,0,1-.19-.34c0-.07-.07-.58,0-.59,0,0-.14.19-.16.22l-2.27,3.29-1.35,2-.38.56-.1.13a.87.87,0,0,1,1.1-.35,1.5,1.5,0,1,0-1.52,2.59,2.23,2.23,0,0,0,3-.71l.22-.32,1.16-1.69,2.7-3.91.18-.26a2.2,2.2,0,0,0,.25-1.72,2.33,2.33,0,0,0-1-1.31,2.22,2.22,0,0,0-2.81.14,3.81,3.81,0,0,0-.5.64l-2.63,3.8L68.4,11.63a2.54,2.54,0,0,0-.32.55,2.2,2.2,0,0,0,.1,2,2.92,2.92,0,0,0,.95.9,1.51,1.51,0,0,0,2.05-.53A1.54,1.54,0,0,0,70.65,12.47Z"/><rect class="cls-1" x="63.72" y="5.17" width="10.4" height="1.63" rx="0.7" transform="translate(24.85 59.31) rotate(-55.38)"/><path class="cls-1" d="M66.82,9a1,1,0,0,0-.17-.12.84.84,0,0,1,.4.91c-.07.3-.08.16,0,.11a2.6,2.6,0,0,0,.29-.42l1.22-1.78,3-4.31L72,2.8c.11-.16.34-.35,0,0-.07.07-.93.36-.92.15l.17.12a.85.85,0,0,1-.4-.92s.07-.14,0-.14a2,2,0,0,0-.22.32L67.91,6.25,66.35,8.51l-.48.69-.11.16,0,0A.85.85,0,0,1,66.82,9a1.5,1.5,0,0,0-1.51,2.59,2.26,2.26,0,0,0,3-.72l.27-.39,1.39-2,3.2-4.63c.08-.12.17-.24.24-.36a2.24,2.24,0,0,0-.71-3,2.25,2.25,0,0,0-2.91.19,4.4,4.4,0,0,0-.47.64L66.28,5.75l-1.6,2.32c-.09.13-.19.26-.28.4a2.2,2.2,0,0,0-.08,2.14,2.67,2.67,0,0,0,1,1,1.5,1.5,0,0,0,2-.54A1.54,1.54,0,0,0,66.82,9Z"/><path class="cls-1" d="M70.51,36.51V51.39h7.95a7.82,7.82,0,0,0,4.3-3.15,8.11,8.11,0,0,0,1.15-4.81A7.2,7.2,0,0,0,82.65,39a6.74,6.74,0,0,0-4.19-2.48Z"/><path class="cls-1" d="M69,36.51V51.39a1.52,1.52,0,0,0,1.5,1.5h7.24a4.38,4.38,0,0,0,1.64-.23,9,9,0,0,0,6-7.48c.39-3.35-.45-6.8-3.33-8.82A7.35,7.35,0,0,0,77.88,35H70.51a1.5,1.5,0,0,0,0,3H76.4a7.37,7.37,0,0,1,3,.32,4.68,4.68,0,0,1,2.7,2.87,9.88,9.88,0,0,1,.27,3.47,5.72,5.72,0,0,1-1.71,3.75,6.28,6.28,0,0,1-1.32,1,6.66,6.66,0,0,1-1,.45c-.46.2.4.06,0,0H70.51l1.5,1.5V36.51A1.5,1.5,0,0,0,69,36.51Z"/><path class="cls-1" d="M76.84,44.5"/><path class="cls-1" d="M76.84,46a1.5,1.5,0,0,0,0-3,1.5,1.5,0,0,0,0,3Z"/><circle class="cls-1" cx="93.22" cy="43.76" r="8.13"/><path class="cls-1" d="M99.84,43.76a6.62,6.62,0,1,1-5.47-6.53,6.68,6.68,0,0,1,5.47,6.53c0,1.93,3,1.94,3,0a9.63,9.63,0,1,0-7.78,9.45,9.76,9.76,0,0,0,7.78-9.45C102.87,41.83,99.87,41.83,99.84,43.76Z"/><path class="cls-1" d="M74.81,40.84v5.77h2.85a2.81,2.81,0,0,0,1.54-1.22,3.32,3.32,0,0,0,.41-1.87,3,3,0,0,0-.45-1.72,2.37,2.37,0,0,0-1.5-1Z"/><path class="cls-1" d="M73.31,40.84v5.77a1.52,1.52,0,0,0,1.5,1.5h2.68a2.68,2.68,0,0,0,1.21-.31,4.42,4.42,0,0,0,2.4-3.68A6.69,6.69,0,0,0,81,42.28,3.87,3.87,0,0,0,79.43,40a3.37,3.37,0,0,0-1.88-.66c-.91,0-1.83,0-2.74,0a1.5,1.5,0,0,0,0,3h2.62c.37,0-.33-.11-.06,0l.2,0,.1,0c-.39-.07-.27-.12-.13,0a2.07,2.07,0,0,0,.32.19s-.28-.25-.12-.08a.68.68,0,0,1,.12.12,1.42,1.42,0,0,0,.12.13l-.12-.15.09.13a2.24,2.24,0,0,1,.11.22s-.12-.36,0,0c0,.11,0,.24.07.34-.1-.3,0-.29,0-.15s0,.12,0,.19,0,.41,0,.61,0,.48,0,.2,0,.16-.06.24a1.89,1.89,0,0,1-.06.18s.14-.3,0,0a1.59,1.59,0,0,1-.13.22l0,.08c-.09.13-.07.1.07-.09-.07,0-.16.18-.22.24a.58.58,0,0,0-.12.1c.2-.25.23-.17.1-.08l-.25.15-.1,0c-.23.13.12-.06.18-.07l-.16.06c-.14.07.51,0,.34,0H74.81l1.5,1.5V40.84a1.5,1.5,0,0,0-3,0Z"/><circle class="cls-1" cx="93.22" cy="43.76" r="3.69"/><path class="cls-1" d="M95.41,43.76c0,.11,0,.21,0,.31,0,.3,0-.1,0-.09a3.13,3.13,0,0,1-.11.48s-.09.28-.1.28.18-.35,0-.09-.19.33-.29.49.18-.16,0,0-.1.12-.16.17a1.85,1.85,0,0,1-.14.14c-.25.24,0,0,0,0a3.07,3.07,0,0,1-.4.26l-.17.09c-.25.15.31-.09,0,0l-.48.14c-.31.06.05,0,.06,0l-.26,0-.51,0c-.22,0,.38.08,0,0l-.29-.07-.28-.09c-.23-.08.1,0,.08,0a3.81,3.81,0,0,1-.42-.23l-.2-.13c-.18-.1.26.24,0,0a3,3,0,0,1-.4-.41s.18.27.06.07-.11-.16-.16-.24a1,1,0,0,1-.1-.17l0-.08q-.11-.23,0,.09a2.6,2.6,0,0,1-.15-.47,1.42,1.42,0,0,1,0-.2c-.07-.29,0,.35,0,0a3.53,3.53,0,0,1,0-.46c0-.17.11-.31,0,0,0,0,0-.13,0-.19a4.34,4.34,0,0,1,.14-.48c.1-.32-.17.29,0,0l.14-.25.13-.2c.16-.26,0,0,0,0s.31-.33.33-.35l.07-.06c.1-.08.1-.08,0,0l-.08.06.16-.11a3.89,3.89,0,0,1,.5-.28s-.36.12-.08,0l.28-.09.19,0,.1,0h.61c.33,0-.28-.07,0,0l.57.16c.3.1-.21-.13,0,0s.21.1.3.16l.16.1.16.11c-.17-.14-.2-.15-.08-.05l.34.34c.24.23-.17-.28,0,0,0,.08.11.16.15.24l.14.25c.15.26-.09-.3,0,0s.11.38.16.58,0-.11,0-.1a2.49,2.49,0,0,1,0,.4,1.5,1.5,0,0,0,3,0,5.29,5.29,0,0,0-3.47-4.89,5.18,5.18,0,0,0-5.65,1.51,5.19,5.19,0,1,0,9.12,3.38,1.5,1.5,0,1,0-3,0Z"/><rect class="cls-2" x="1.76" y="58.9" width="99.33" height="1.55"/><path class="cls-2" d="M4.7,71.9a4.28,4.28,0,0,0,2.13.6c1.21,0,1.92-.64,1.92-1.57S8.26,69.58,7,69.11c-1.5-.53-2.43-1.31-2.43-2.6s1.19-2.5,3-2.5a4.19,4.19,0,0,1,2,.45l-.33,1A3.68,3.68,0,0,0,7.52,65c-1.25,0-1.73.75-1.73,1.38,0,.86.56,1.28,1.83,1.77,1.55.6,2.34,1.35,2.34,2.7s-1.05,2.64-3.21,2.64a4.72,4.72,0,0,1-2.35-.59Z"/><path class="cls-2" d="M20.74,65.17H18v-1h6.79v1H21.93v8.17H20.74Z"/><path class="cls-2" d="M34.36,64.16V69.6c0,2.05.91,2.92,2.14,2.92s2.23-.89,2.23-2.92V64.16h1.2v5.36c0,2.81-1.48,4-3.47,4s-3.3-1.07-3.3-3.92V64.16Z"/><path class="cls-2" d="M49.4,64.29a16.82,16.82,0,0,1,2.52-.19,5.26,5.26,0,0,1,3.72,1.14,4.25,4.25,0,0,1,1.29,3.29,4.84,4.84,0,0,1-1.32,3.57,5.64,5.64,0,0,1-4.06,1.32,18.69,18.69,0,0,1-2.15-.11Zm1.19,8.11a6.78,6.78,0,0,0,1.19.07c2.54,0,3.91-1.42,3.91-3.89C55.71,66.41,54.48,65,52,65a6.44,6.44,0,0,0-1.39.13Z"/><path class="cls-2" d="M67.07,64.16v9.18H65.89V64.16Z"/><path class="cls-2" d="M84.39,68.66c0,3.16-1.91,4.83-4.26,4.83S76,71.61,76,68.83,77.82,64,80.27,64,84.39,65.93,84.39,68.66Zm-7.12.15c0,2,1.07,3.71,2.93,3.71s2.94-1.73,2.94-3.81c0-1.82-1-3.73-2.92-3.73S77.27,66.79,77.27,68.81Z"/><path class="cls-2" d="M93.19,71.9a4.24,4.24,0,0,0,2.12.6c1.21,0,1.92-.64,1.92-1.57s-.49-1.35-1.73-1.82c-1.5-.53-2.42-1.31-2.42-2.6s1.18-2.5,3-2.5a4.19,4.19,0,0,1,2,.45l-.33,1A3.68,3.68,0,0,0,96,65c-1.26,0-1.73.75-1.73,1.38,0,.86.56,1.28,1.82,1.77,1.55.6,2.34,1.35,2.34,2.7s-1,2.64-3.21,2.64a4.71,4.71,0,0,1-2.34-.59Z"/><path class="cls-2" d="M20,41.91l-3.44-7h-1L12,41.32,8.14,35H1.5L11.68,51.39l3.55-5.63h1.11l3.19,5.63L29.51,35H23.38Z"/><path class="cls-2" d="M69.05,35.94a19.5,19.5,0,1,0-37.48,7.55L32,44c.14-9.37,4.48-17.09,10.66-19.25a15.7,15.7,0,0,1,8.44-.29,14.24,14.24,0,0,1,7.07,4.65.32.32,0,0,1,0,.44l-14,13.64a1.46,1.46,0,0,1-2.22-1.85L51.07,33a1.67,1.67,0,0,0,.52-.89c.26-1.5-2.22-2.95-2.37-3-2.52-1.43-6.49-.69-9,1.41a10.4,10.4,0,0,0-1.86,13.4,9.91,9.91,0,0,0,5.78,3.78c4.42,1,8.1-1.54,9.44-2.45,3.05-2.08,3.55-3.92,7.75-9.08a81.9,81.9,0,0,1,5.62-6.24,39.92,39.92,0,0,0-3.6,5.47c-.49.91-.68,1.36-2.77,5.74C59.41,43.5,59.34,44,58.7,45a18.94,18.94,0,0,1-7.93,7.25,18.68,18.68,0,0,1-8.42,1.81c9.18,2.29,18.23-.42,23.1-6.81A19.79,19.79,0,0,0,69.05,35.94Z"/><rect class="cls-2" x="58.96" y="11.3" width="8.19" height="8.19" rx="1.48" transform="translate(19.91 -33.09) rotate(34.62)"/><rect class="cls-2" x="65.43" y="0.86" width="1.63" height="8.88" rx="0.78" transform="matrix(0.82, 0.57, -0.57, 0.82, 14.74, -36.69)"/><rect class="cls-2" x="58.92" y="4.83" width="1.63" height="8.88" rx="0.78" transform="translate(15.84 -32.29) rotate(34.62)"/><rect class="cls-2" x="69.69" y="3.81" width="1.63" height="8.88" rx="0.62" transform="translate(17.17 -38.59) rotate(34.62)"/><rect class="cls-2" x="71.49" y="5.6" width="1.63" height="8.88" rx="0.68" transform="translate(18.5 -39.3) rotate(34.62)"/><rect class="cls-2" x="68.11" y="0.78" width="1.63" height="10.4" rx="0.7" transform="translate(15.6 -38.1) rotate(34.62)"/><path class="cls-2" d="M70.51,36.51V51.39h7.95a7.82,7.82,0,0,0,4.3-3.15,8.11,8.11,0,0,0,1.15-4.81A7.2,7.2,0,0,0,82.65,39a6.74,6.74,0,0,0-4.19-2.48Z"/><circle class="cls-2" cx="93.22" cy="43.76" r="8.13"/><path class="cls-1" d="M74.81,40.84v5.77h2.85a2.81,2.81,0,0,0,1.54-1.22,3.32,3.32,0,0,0,.41-1.87,3,3,0,0,0-.45-1.72,2.37,2.37,0,0,0-1.5-1Z"/><circle class="cls-1" cx="93.22" cy="43.76" r="3.69"/></g></g></svg>