<svg xmlns="http://www.w3.org/2000/svg" viewBox="0 0 524.59 74.94"><defs><style>.cls-1{fill:#fff;}.cls-2{fill:#001722;}</style></defs><g id="Layer_2" data-name="Layer 2"><g id="svg4403"><path class="cls-1" d="M311.16,64.5a34.66,34.66,0,0,1-13.76-2.57A22.89,22.89,0,0,1,284.14,47.1a31.23,31.23,0,0,1-.05-18.82A23.13,23.13,0,0,1,299,12.56a34.51,34.51,0,0,1,25,.31c8.52,3.38,13.38,9.89,15,18.81a30.93,30.93,0,0,1-1,15.85c-2.94,8.56-8.95,13.85-17.73,15.88-3,.69-6.08.91-9.12,1.35Zm-21-26.14c.09,1.07.18,2.89.39,4.7a24.64,24.64,0,0,0,.71,3.6c1.56,5.77,4.59,10.45,10.13,13.13a22.62,22.62,0,0,0,13.15,1.87c6.84-.93,12.1-4.31,14.9-10.69a33,33,0,0,0,.26-26.18,17.27,17.27,0,0,0-11-10.28,23.54,23.54,0,0,0-11.17-.94c-6.62,1-11.57,4.31-14.58,10.37C290.83,28.25,290.26,32.88,290.17,38.36Z"/><path class="cls-1" d="M311.16,63c-6-.07-12.09-1.19-17.17-4.63a21.81,21.81,0,0,1-8.41-11.66c-3.28-10.49-.9-23.86,8.79-30.19s24.28-6.27,33.95.27c8.92,6,11.56,18.56,8.85,28.51a22.77,22.77,0,0,1-8.85,13.11c-5.27,3.58-11.38,4.05-17.52,4.9l1.84,1,0-.25c-.28-1.91-3.17-1.1-2.89.79l0,.26c.13.87,1.13,1.14,1.85,1,6.18-.86,12.29-1.41,17.69-4.84a24.89,24.89,0,0,0,9.57-11.74c4.41-10.75,2.65-25.35-6.34-33.34C322.75,7.6,307,6.84,295.59,12.39c-11.27,5.45-15.86,18.54-14,30.42,1,6.48,4,12.73,9.17,16.88,5.79,4.63,13.12,6.22,20.4,6.31C313.09,66,313.09,63,311.16,63Z"/><path class="cls-1" d="M288.67,38.36c.39,5.15,1,10.14,3.56,14.74A19.93,19.93,0,0,0,302.68,62c8.87,3.38,20.53,1.1,26.17-6.88,3.17-4.47,4.63-10.42,4.9-15.82a34.69,34.69,0,0,0-3.33-16.57c-4.63-9.51-16.42-12.65-26.09-10a19.79,19.79,0,0,0-11.57,8.55c-3.23,5.13-4,11.16-4.09,17.1,0,1.93,3,1.93,3,0,.09-4.66.5-9.43,2.6-13.66a17.12,17.12,0,0,1,8-8.06c7.69-3.64,18.83-2.16,24,5,2.76,3.79,4,9,4.4,13.57A31.25,31.25,0,0,1,328,50.54a16,16,0,0,1-7.63,7.92,22.24,22.24,0,0,1-13,1.67,17.44,17.44,0,0,1-11.9-7.5c-2.8-4.34-3.4-9.24-3.78-14.27C291.53,36.44,288.53,36.43,288.67,38.36Z"/><path class="cls-1" d="M190.89,11.52c1.73.09,3.52.26,5.31.25,2.9,0,5.8-.17,8.7-.24,4-.1,7.92,0,11.68,1.47,4.27,1.74,6.38,5.32,6.22,9.91-.21,6.15-3.82,9.51-9.1,11.62-1.1.44-2.24.75-3.38,1.13,1.63.28,3.24.45,4.79.83,6.89,1.71,9.87,6,9.5,13-.37,6.84-5.1,11.13-10.88,12.85a28.88,28.88,0,0,1-9,1.11c-2.34,0-4.67-.1-7-.12s-4.61,0-6.86,0c.13-8.56.37-17.18.37-25.81S191,20.28,190.89,11.52Zm7,49c3.42.2,6.63.71,9.85.16A11.11,11.11,0,0,0,216,54.87a13.37,13.37,0,0,0,1.54-7.62c-.38-4.68-2.44-7.26-6.93-8.61-4.25-1.29-8.63-1.08-13.21-1.06C197.58,45.26,197.73,52.86,197.88,60.54Zm-.46-25.86c3.83.08,7.43.21,10.91-.87,4.14-1.28,7.09-3.75,7.65-8.3.69-5.55-1.55-9.37-6.82-10.65a29.76,29.76,0,0,0-11.26-.16C197.74,21.33,197.58,28,197.42,34.68Z"/><path class="cls-1" d="M190.89,13c4.37.24,8.67.17,13,0,4.08-.12,8.39-.24,12.22,1.39a8.18,8.18,0,0,1,5.06,6.44,10.8,10.8,0,0,1-2,8.18c-2.31,2.88-5.87,4.05-9.26,5.15-1.28.42-1.56,2.64,0,2.9,3.58.59,7.57,1,10.36,3.55,2.23,2.07,2.9,5,2.86,8A12.2,12.2,0,0,1,219,57.93c-3,2.62-7.16,3.69-11.05,4-2.76.2-5.55,0-8.32,0s-5.82,0-8.73,0l1.5,1.5c.14-8.69.37-17.37.37-26s-.24-17.19-.37-25.79c0-1.93-3-1.93-3,0,.13,8.6.37,17.19.37,25.79s-.23,17.36-.37,26.05a1.52,1.52,0,0,0,1.5,1.5c2.91,0,5.82,0,8.73,0s5.56.23,8.32,0c4.54-.33,9.08-1.56,12.67-4.45,5.93-4.76,7.71-14.86,2.71-21-3.13-3.8-8-4.54-12.6-5.3v2.9c3.58-1.17,7.16-2.41,9.88-5.15a13.36,13.36,0,0,0,3.71-9.41,11.37,11.37,0,0,0-4-9.07c-3.45-2.78-8.15-3.41-12.44-3.48-2.76,0-5.53.12-8.29.2-2.91.09-5.78,0-8.69-.18C189,9.91,189,12.91,190.89,13Z"/><path class="cls-1" d="M197.88,62c4.21.26,8.63,1,12.69-.55a12.94,12.94,0,0,0,7.42-7.3,15.09,15.09,0,0,0,.29-10.79,10.07,10.07,0,0,0-6.2-5.85c-4.64-1.77-9.79-1.5-14.66-1.47a1.52,1.52,0,0,0-1.5,1.5q.24,11.47.46,23c0,1.93,3,1.94,3,0q-.23-11.48-.46-23l-1.5,1.5c3.79,0,7.65-.22,11.37.62,2.43.56,5,1.5,6.25,3.8a11.49,11.49,0,0,1,.59,8.41A10.14,10.14,0,0,1,210,58.49c-3.8,1.64-8.18.8-12.16.55C196,58.92,196,61.92,197.88,62Z"/><path class="cls-1" d="M197.42,36.18c6.59.14,15.74.09,19-6.94a13.21,13.21,0,0,0,.64-9.22,9.6,9.6,0,0,0-5.76-6c-4.33-1.75-9.31-1.35-13.83-.74a1.5,1.5,0,0,0-1.1,1.45l-.48,20c0,1.93,3,1.93,3,0l.48-20-1.1,1.44a27.38,27.38,0,0,1,10.86.27A7,7,0,0,1,214,20.32,10.2,10.2,0,0,1,214,27.5,8.34,8.34,0,0,1,209.09,32c-3.72,1.48-7.75,1.3-11.67,1.22C195.49,33.14,195.49,36.14,197.42,36.18Z"/><path class="cls-1" d="M245.24,38.68c.21,8.23.42,16.45.63,24.72h-7.3q1.23-25.87,0-51.89c2,.1,3.93.27,5.84.26,3.14,0,6.28-.16,9.42-.25a28.84,28.84,0,0,1,9.95,1.06c5.76,1.89,8.4,6.28,7.78,12.42-.4,3.88-2.5,6.72-5.5,9a22,22,0,0,1-9.12,3.79l-.85.21,20.35,25.37h-5.5a5.3,5.3,0,0,0-1.26,0c-1.43.38-2.14-.35-3-1.43-5.26-6.9-10.6-13.73-15.93-20.58a17.88,17.88,0,0,1-1.3-1.48C248.46,38.27,247,38.48,245.24,38.68Zm.53-24q-.26,10.41-.49,20.67A25.59,25.59,0,0,0,256.43,35c5.07-1.51,8-4.91,8.46-9.74.46-5.18-2.22-9.15-7.1-10.37C253.86,13.87,249.89,14.32,245.77,14.67Z"/><path class="cls-1" d="M243.74,38.68l.63,24.72,1.5-1.5h-7.3l1.5,1.5q1.22-25.93,0-51.89l-1.5,1.5c4.69.24,9.32.2,14,.05,4.2-.14,8.78-.28,12.63,1.73,5.91,3.09,6.42,11.36,2.09,16.06a16.76,16.76,0,0,1-5.21,3.77,35.85,35.85,0,0,1-6.41,1.93,1.52,1.52,0,0,0-.66,2.51l20.35,25.36,1.06-2.56c-1.91,0-3.81,0-5.72,0-.63,0-1.56.3-2.11,0A7.11,7.11,0,0,1,267.11,60q-3.62-4.73-7.28-9.44t-7.39-9.49c-.53-.68-1.13-1.29-1.67-2a5.48,5.48,0,0,0-1.45-1.47,6.28,6.28,0,0,0-4.08-.47c-1.89.22-1.91,3.22,0,3a7.37,7.37,0,0,1,2-.12c.66.13.84.54,1.25,1,1.18,1.48,2.43,2.91,3.6,4.41l7.39,9.5L263.33,60a26.18,26.18,0,0,0,3.21,4c1.25,1.09,2.44.88,4,.84,2-.06,4,0,5.93,0a1.53,1.53,0,0,0,1.06-2.57Q267.3,49.62,257.14,36.93l-.66,2.51a43.14,43.14,0,0,0,6.37-1.9,19.87,19.87,0,0,0,5.68-3.68,14.1,14.1,0,0,0,4.6-10.78,12.15,12.15,0,0,0-4-9.27c-3.46-2.92-8.14-3.72-12.54-3.81-3-.06-6,.14-8.94.22s-6-.06-9.06-.21a1.51,1.51,0,0,0-1.5,1.5q1.22,25.94,0,51.89a1.52,1.52,0,0,0,1.5,1.5h7.3a1.52,1.52,0,0,0,1.5-1.5l-.63-24.72C246.69,36.75,243.69,36.75,243.74,38.68Z"/><path class="cls-1" d="M244.27,14.67Q244,25,243.78,35.34a1.52,1.52,0,0,0,1.1,1.45c6.69,1.34,15.62.44,19.66-5.81,3.58-5.54,2.1-13.91-4.14-16.78-4.54-2.08-9.82-1.44-14.63-1-1.91.16-1.93,3.16,0,3,5.49-.47,14.73-1.87,17.15,4.82a10,10,0,0,1-.46,7.59,9.93,9.93,0,0,1-6,4.8,21.84,21.84,0,0,1-10.8.51l1.1,1.45q.24-10.34.49-20.67C247.31,12.74,244.31,12.74,244.27,14.67Z"/><path class="cls-1" d="M358,63.41h-5.33A470.2,470.2,0,0,0,354,10.6a1.59,1.59,0,0,1,1.84.55q14.61,15.78,29.26,31.5c2.51,2.7,5.09,5.32,7.64,8,.2.21.43.4.83.77,0-13.4,0-26.59-.59-39.69h5c-1.54,17.48-1.32,35.08-.94,52.64a1.3,1.3,0,0,1-1.67-.42c-12-13.84-24.61-27-37.13-40.37a1.88,1.88,0,0,0-.52-.49C357.17,36.54,357.46,49.94,358,63.41Z"/><path class="cls-1" d="M358,61.91h-5.33l1.5,1.5A472.4,472.4,0,0,0,355.5,10.6l-1.1,1.45c.55-.12,2,1.89,2.4,2.34.78.84,1.56,1.69,2.35,2.53l4.7,5.08,9.75,10.5q4.89,5.25,9.77,10.49c3,3.2,5.93,6.5,9.14,9.47a1.52,1.52,0,0,0,2.56-1.06c0-13.23,0-26.47-.59-39.69l-1.5,1.5h5l-1.5-1.5c-1.52,17.51-1.32,35.09-.94,52.64l1.11-1.44c0,.19-.12.18-.22,0l-.64-.74-1.27-1.46-2.25-2.56q-2.25-2.53-4.52-5.06-4.8-5.32-9.68-10.56t-9.62-10.27l-4.83-5.12A49.64,49.64,0,0,0,358.8,22a1.52,1.52,0,0,0-2.56,1.06c-.56,13.44-.27,26.9.28,40.34.07,1.92,3.07,1.93,3,0-.55-13.44-.84-26.9-.28-40.34l-2.56,1.06a26.93,26.93,0,0,1,2.51,2.61l2.67,2.83,5,5.3q5.23,5.57,10.44,11.17t10.14,11.11c1.67,1.87,3.34,3.75,5,5.64,1.39,1.59,2.62,3.73,5,3a1.53,1.53,0,0,0,1.1-1.45c-.38-17.55-.58-35.13.94-52.64a1.52,1.52,0,0,0-1.5-1.5h-5a1.52,1.52,0,0,0-1.5,1.5c.63,13.22.6,26.46.59,39.69l2.56-1.06c-3.45-3.19-6.61-6.76-9.82-10.19L374.38,28.93Q369.16,23.32,364,17.7l-5-5.43c-1.53-1.65-2.81-3.68-5.32-3.11a1.51,1.51,0,0,0-1.1,1.44,472.4,472.4,0,0,1-1.31,52.81,1.52,1.52,0,0,0,1.5,1.5H358A1.5,1.5,0,0,0,358,61.91Z"/><path class="cls-1" d="M123.55,15.19a257.24,257.24,0,0,0-29.47.94V11.6c13,.22,26.21.51,39.61,0a5.28,5.28,0,0,1-.46,1.65c-3.81,5.15-7.82,10.15-11.47,15.4-7,10-13.73,20.12-20.57,30.19-.21.31-.4.65-.72,1.16,11.13.53,22-.33,32.9-1.11v4.56H90.57a7.33,7.33,0,0,1,.61-1.59q15.73-22.68,31.51-45.33C123,16.12,123.2,15.72,123.55,15.19Z"/><path class="cls-1" d="M123.55,13.69a266,266,0,0,0-29.47.94l1.5,1.5V11.6l-1.5,1.5c13.21.22,26.41.5,39.61,0l-1.44-1.9a6.24,6.24,0,0,1-.32,1.29A9,9,0,0,1,130.78,14c-.76,1-1.54,2.05-2.31,3.07-1.46,1.91-2.92,3.81-4.35,5.74-2.92,3.91-5.67,7.94-8.43,12s-5.56,8.16-8.32,12.24-5.65,8-8.19,12.21a1.51,1.51,0,0,0,1.29,2.25c11,.51,22-.32,32.9-1.11l-1.5-1.5v4.56l1.5-1.5H90.57L92,63.82c.75-2.24,2.52-4.2,3.86-6.14l4.26-6.13,8.23-11.84,8.23-11.83c2.76-4,5.64-7.87,8.24-11.93,1-1.63-1.55-3.14-2.59-1.52-2.61,4.07-5.48,8-8.24,11.93l-8.52,12.25L97,50.86,92.72,57c-1.35,2-2.84,3.77-3.6,6a1.52,1.52,0,0,0,1.45,1.9h42.8a1.52,1.52,0,0,0,1.5-1.5V58.86a1.51,1.51,0,0,0-1.5-1.5c-11,.79-21.91,1.62-32.9,1.11l1.3,2.26c2.54-4.17,5.45-8.15,8.19-12.2q4.29-6.35,8.6-12.65c2.85-4.15,5.7-8.3,8.72-12.32,1.44-1.93,2.91-3.83,4.36-5.74.77-1,1.55-2,2.31-3.07A6.5,6.5,0,0,0,135.14,12a1.52,1.52,0,0,0-1.45-1.9c-13.2.53-26.4.25-39.61,0a1.52,1.52,0,0,0-1.5,1.5v4.53a1.52,1.52,0,0,0,1.5,1.5,266,266,0,0,1,29.47-.94C125.48,16.77,125.47,13.77,123.55,13.69Z"/><path class="cls-1" d="M520.85,13.84c-.72,2.32-1.38,4.41-2.05,6.54-.64.25-.89-.13-1.11-.71-1.13-2.91-3-5.16-6.11-6a9.6,9.6,0,0,0-9.8,2.47c-2.7,2.74-3.13,6.15-2.08,9.76a8,8,0,0,0,4,4.68,73.76,73.76,0,0,0,7.5,3.6c3.07,1.3,6.12,2.56,8.57,4.94a10.4,10.4,0,0,1,3.29,7c.35,5.28-1,10-5,13.68a16.86,16.86,0,0,1-10.7,4.52,41.9,41.9,0,0,1-6.72-.11,17,17,0,0,1-8-3.3c-.51-.35-.54-.66-.38-1.25.52-1.95.93-3.94,1.4-6,.54-.22.81.13,1.09.68a12.82,12.82,0,0,0,13.55,7c6.07-1,9.45-6.32,8.83-12.18a8.5,8.5,0,0,0-3.83-6.1,33.51,33.51,0,0,0-7.87-3.88,25.3,25.3,0,0,1-8.26-4.77c-3.2-3-4.12-6.69-3.81-10.84.55-7.54,6-11.6,12.14-12.7a19.94,19.94,0,0,1,12.4,1.21C518.93,12.61,519.92,13.29,520.85,13.84Z"/><path class="cls-1" d="M519.41,13.44c-.69,2.18-1.37,4.36-2.06,6.54l1-1c.33-.09.56.47.65.12,0-.16-.2-.48-.27-.64a10.4,10.4,0,0,0-.46-1,11.51,11.51,0,0,0-1.45-2.14A9.75,9.75,0,0,0,513,12.58a11.55,11.55,0,0,0-10,.7,10.86,10.86,0,0,0-5.32,8.51,10.5,10.5,0,0,0,4,9.29c3.19,2.39,7.22,3.71,10.83,5.32,3.3,1.46,6.82,3.38,8.33,6.85,1.34,3.07.89,7.16-.26,10.23a14.58,14.58,0,0,1-7,7.66c-4,2-8.85,2.07-13.17,1.54a14.82,14.82,0,0,1-6-2.39l-.53-.34c-.16-.18-.24-.15-.23.1l.12-.45c.16-.61.31-1.21.45-1.82.29-1.24.55-2.48.84-3.72l-1.05,1c-.47.1-.83-.81-.6,0a2.42,2.42,0,0,0,.27.5c.22.38.45.75.7,1.1a14.67,14.67,0,0,0,1.74,2.11,14,14,0,0,0,4,2.84,14.28,14.28,0,0,0,9.92.85,12.41,12.41,0,0,0,8.21-15.16c-2.36-7.88-12.56-8.55-18.39-12.63a11.21,11.21,0,0,1-5.08-9,12.69,12.69,0,0,1,2.83-9,14.38,14.38,0,0,1,8.47-4.38,20.59,20.59,0,0,1,7.26-.08,20.26,20.26,0,0,1,6.76,2.93,1.5,1.5,0,0,0,1.51-2.59,25.08,25.08,0,0,0-5.72-2.8,20.22,20.22,0,0,0-6.38-.8,22,22,0,0,0-10.1,2.49c-6,3.35-8.59,10.2-7.34,16.84a14.2,14.2,0,0,0,6.1,8.9c3.34,2.38,7.28,3.42,10.92,5.18,3.35,1.62,6.46,3.83,6.57,7.85a9.63,9.63,0,0,1-3.53,8,10.58,10.58,0,0,1-10.34,1,11.5,11.5,0,0,1-4.49-3.51c-1.16-1.48-1.73-3.93-4.08-3.41a1.49,1.49,0,0,0-1.05,1l-.78,3.49a16.31,16.31,0,0,0-.75,3.36c0,2,2.6,3.06,4.09,3.82,4.08,2.08,8.95,2.31,13.44,1.81,8.15-.92,15-6.72,16.19-15,.56-3.92.2-8-2.28-11.19-2.66-3.46-6.67-5.14-10.57-6.81-2.2-.94-4.37-1.93-6.47-3.08-1.74-1-3.29-2.14-3.9-4.12-1.2-3.92.12-8,3.88-9.92a8,8,0,0,1,10.63,3.23,10.27,10.27,0,0,0,1.3,2.48,2.18,2.18,0,0,0,2.61.37c1-.61,1.16-2.42,1.49-3.45l1.25-4C522.88,12.39,520,11.6,519.41,13.44Z"/><path class="cls-1" d="M175.22,11.68c0,.65-.13,1.36-.13,2.07s.1,1.43.15,2.2l-20-1.07V34.75L173.42,34v4.3l-18.21-.57v22.4c6.86,0,13.59.07,20.31-.9v4.17H148.25q1.22-25.9,0-51.74Z"/><path class="cls-1" d="M173.72,11.68a26.47,26.47,0,0,0,0,4.27l1.5-1.5-20-1.07a1.52,1.52,0,0,0-1.5,1.5V34.75a1.52,1.52,0,0,0,1.5,1.5l18.14-.73-1.5-1.5v4.3l1.5-1.5-18.21-.57a1.52,1.52,0,0,0-1.5,1.5v22.4a1.52,1.52,0,0,0,1.5,1.5,144.73,144.73,0,0,0,20.71-1L174,59.25v4.17l1.5-1.5H148.25l1.5,1.5q1.2-25.86,0-51.74l-1.5,1.5h27a1.5,1.5,0,0,0,0-3h-27a1.52,1.52,0,0,0-1.5,1.5q1.22,25.85,0,51.74a1.52,1.52,0,0,0,1.5,1.5h27.27a1.52,1.52,0,0,0,1.5-1.5V59.25a1.53,1.53,0,0,0-1.9-1.45,139.34,139.34,0,0,1-19.91.85l1.5,1.5V37.75l-1.5,1.5,18.21.57a1.52,1.52,0,0,0,1.5-1.5V34a1.52,1.52,0,0,0-1.5-1.5l-18.14.73,1.5,1.5V14.88l-1.5,1.5,20,1.07a1.5,1.5,0,0,0,1.5-1.5,26.47,26.47,0,0,1,0-4.27C176.88,9.75,173.87,9.76,173.72,11.68Z"/><path class="cls-1" d="M478.3,13.9c-.44,1.87-.84,3.61-1.27,5.34a3.51,3.51,0,0,1-.39.74,3.84,3.84,0,0,1-.63-.42c-3.37-3.33-7.3-5.75-12.08-6.13-9.85-.79-18.6,3.5-21.63,14.54a33.64,33.64,0,0,0,.93,21.92c3.11,7.73,9.17,11.42,17.33,12,6.19.41,11.37-2,16.13-5.68a2.7,2.7,0,0,1,.93-.48c-.12,1.66-.05,3.36-.79,4.82-.31.61-1.28,1-2,1.25-9.12,3.57-18.3,3.94-27.33-.1-7-3.14-11.14-8.84-13-16.15A30.74,30.74,0,0,1,435.75,26c3.21-7.71,9.14-12.37,17.14-14.36a38.9,38.9,0,0,1,25,2.08l.41.19C478.32,13.9,478.36,14,478.3,13.9Z"/><path class="cls-1" d="M476.85,13.5l-.69,2.94a9.79,9.79,0,0,1-.81,2.78l2-.54a16.25,16.25,0,0,1-2.06-1.76,25.91,25.91,0,0,0-2.46-1.85,19.44,19.44,0,0,0-5.12-2.44,23.37,23.37,0,0,0-10.19-.47A19.9,19.9,0,0,0,442.84,22.5c-3.95,7.51-4.44,17.29-1.94,25.32C443,54.54,447.31,60,454.14,62.19a22.92,22.92,0,0,0,18.27-1.48c.94-.49,1.85-1,2.73-1.6a16.15,16.15,0,0,1,2.88-2l-1.9-1.45a21.38,21.38,0,0,1-.23,2.89,1.92,1.92,0,0,1-1.48,1.74,41.91,41.91,0,0,1-6.29,1.93,31.76,31.76,0,0,1-12.88.29c-7.24-1.38-13.74-5.07-17.19-11.76a29.67,29.67,0,0,1-1.2-23.52,22.41,22.41,0,0,1,13.5-13.32,35.48,35.48,0,0,1,13.4-2,36,36,0,0,1,7.15,1c1.11.26,2.21.58,3.29.94a14.49,14.49,0,0,1,3.38,1.29l1.51-2.59,0,0c-1.63-1-3.14,1.57-1.51,2.59l0,0c1.64,1,3.11-1.53,1.51-2.59a13.79,13.79,0,0,0-3-1.22c-1.15-.41-2.32-.78-3.5-1.09a42,42,0,0,0-7-1.23,39.3,39.3,0,0,0-14.11,1.36,25.65,25.65,0,0,0-16.6,13.92,32.8,32.8,0,0,0,.1,26.83c3.48,7.66,10.56,12.28,18.62,14.06A35.66,35.66,0,0,0,469.6,65c1.36-.33,2.71-.74,4-1.2a15.58,15.58,0,0,0,3.4-1.42c2.11-1.39,1.94-4.46,2.08-6.68a1.52,1.52,0,0,0-1.9-1.45c-1.62.6-3,1.91-4.43,2.81a24,24,0,0,1-4.76,2.3,20,20,0,0,1-10,.7A17,17,0,0,1,445,50.13a32,32,0,0,1-.51-23.9,17,17,0,0,1,11.8-10.74,20.82,20.82,0,0,1,9.8-.21,16.37,16.37,0,0,1,5.17,2.27c1.67,1.09,3,2.73,4.68,3.72a1.52,1.52,0,0,0,2.05-.53c1.09-1.83,1.32-4.39,1.8-6.44C480.18,12.42,477.29,11.62,476.85,13.5Z"/><path class="cls-1" d="M413.14,11.7h7.4q-1.19,25.71,0,51.71h-7.4Q414.39,37.51,413.14,11.7Z"/><path class="cls-1" d="M413.14,13.2h7.4L419,11.7q-1.19,25.85,0,51.71l1.5-1.5h-7.4l1.5,1.5q1.23-25.84,0-51.71c-.09-1.92-3.09-1.93-3,0q1.23,25.83,0,51.71a1.52,1.52,0,0,0,1.5,1.5h7.4a1.52,1.52,0,0,0,1.5-1.5q-1.2-25.84,0-51.71a1.52,1.52,0,0,0-1.5-1.5h-7.4A1.5,1.5,0,0,0,413.14,13.2Z"/><path class="cls-1" d="M77.58,24.51a61.9,61.9,0,0,1,1.76,6.28c2.5,13.91-2.26,25.09-13,34a2.58,2.58,0,0,1-3.16.43,148,148,0,0,0-25.13-8.47,62.12,62.12,0,0,1-7.52-2.64,8.54,8.54,0,0,1-2.26-1.43,2.73,2.73,0,0,1-.4-4.31,13.47,13.47,0,0,1,3.49-2.91C35.66,43.18,40,41,44.34,38.88q10.17-5,20.41-9.91a48.36,48.36,0,0,1,5.14-1.85C72.37,26.26,74.86,25.43,77.58,24.51Z"/><path class="cls-1" d="M76.13,24.91A57.93,57.93,0,0,1,78,32a37.05,37.05,0,0,1,.47,5.86,31.37,31.37,0,0,1-1.89,10.8A32.18,32.18,0,0,1,71.09,58a44.47,44.47,0,0,1-4.15,4.31c-.57.51-1.39,1.55-2.16,1.72s-2.17-.72-2.94-1a145.56,145.56,0,0,0-13.69-5c-4.68-1.45-9.54-2.39-14.12-4.12a32.42,32.42,0,0,1-3.3-1.32c-.75-.39-2.26-1.24-2.19-2.25.05-.85,1.18-1.67,1.75-2.19a13.59,13.59,0,0,1,2.93-1.92c4.5-2.4,9.07-4.65,13.64-6.9C52,36.77,57.2,34.24,62.39,31.76a70.18,70.18,0,0,1,7.9-3.2L78,26c1.82-.61,1-3.51-.8-2.89-5,1.7-10.17,3.17-15,5.46q-7.78,3.72-15.53,7.53c-5.09,2.5-10.19,5-15.19,7.67-2,1.1-4.45,2.7-5.52,4.86s0,4.12,1.63,5.46c2.1,1.68,4.88,2.51,7.4,3.37s5.11,1.4,7.66,2.11A149.5,149.5,0,0,1,58.1,64.69c1.25.5,2.49,1,3.72,1.57a6.06,6.06,0,0,0,3.26.79c2.06-.28,3.82-2.38,5.23-3.76a39.14,39.14,0,0,0,7.53-10,33.85,33.85,0,0,0,3.58-13.07,37.79,37.79,0,0,0-.27-7.44A56.5,56.5,0,0,0,79,24.12C78.48,22.27,75.59,23.05,76.13,24.91Z"/><path class="cls-1" d="M72.71,16.51c-3.22,1.46-6.38,2.83-9.48,4.31C54.05,25.21,44.92,29.69,35.73,34a137.21,137.21,0,0,1-21.44,8.45c-3.8,1.08-7.61,2.11-11.42,3.15a1.58,1.58,0,0,1-.42,0c-.25-1.41-.57-2.84-.73-4.28A33.28,33.28,0,0,1,5.16,22.24a1.33,1.33,0,0,1,1.48-.85c5.09.05,10.2.25,15.27-.08,7-.44,14-1.2,21-2,9.13-1.07,18.19-2.65,27.18-4.56a1.3,1.3,0,0,1,1.6.53C72,15.69,72.34,16.06,72.71,16.51Z"/><path class="cls-1" d="M72,15.22c-9,4.07-17.87,8.35-26.77,12.64S27.65,36.52,18.4,39.65c-2.66.9-5.36,1.64-8.07,2.39-1.35.38-2.7.74-4,1.11a15.15,15.15,0,0,1-3.83,1l1.45,1.1c-1-5.66-1.28-11.08.35-16.67a34,34,0,0,1,1.24-3.51c.29-.68.74-1.38,1-2.08.09-.28.29-.2,0-.11a4.58,4.58,0,0,1,1.17,0c3,0,6.08.12,9.12.09,6.13-.06,12.26-.68,18.36-1.32s12-1.33,18-2.26c3.41-.52,6.8-1.12,10.19-1.76q2.42-.46,4.83-1c.61-.13,1.85-.67,2.41-.5l-.07-.12.32.42c.28.37.59.72.9,1.08,1.24,1.48,3.35-.65,2.12-2.12-.77-.91-1.37-2-2.63-2.23-1.49-.27-3.35.48-4.81.77-3.22.66-6.45,1.26-9.68,1.82-6.74,1.15-13.52,2-20.32,2.73A198.27,198.27,0,0,1,16.25,20c-3.28,0-6.65-.34-9.92-.1-2.69.21-3.52,3.7-4.29,5.82a34.68,34.68,0,0,0-2,9.71A44,44,0,0,0,1,46a1.52,1.52,0,0,0,1.45,1.11,10.47,10.47,0,0,0,3-.65l4.05-1.11c2.43-.66,4.86-1.31,7.27-2A125.89,125.89,0,0,0,30.5,38.08C39.78,34,48.86,29.4,58,25c5.12-2.47,10.28-4.84,15.46-7.18C75.22,17,73.7,14.43,72,15.22Z"/><path class="cls-1" d="M52.56,71.74a41.62,41.62,0,0,1-25.32-.45A38,38,0,0,1,8,57.14C23,61.41,37.65,67,52.56,71.74Z"/><path class="cls-1" d="M52.16,70.29a41.21,41.21,0,0,1-26-1A36.87,36.87,0,0,1,9.25,56.39l-1.69,2.2c15.05,4.28,29.69,9.85,44.6,14.6,1.84.58,2.63-2.31.8-2.9C38.05,65.55,23.41,60,8.35,55.7c-1.17-.33-2.48,1.11-1.69,2.2A40.38,40.38,0,0,0,25,72.06a44.1,44.1,0,0,0,28,1.13A1.51,1.51,0,0,0,52.16,70.29Z"/><path class="cls-1" d="M63.71,8.25c-15.43,1.26-30.83.88-46.12.28,2.71-2.94,13.38-6.6,20.68-7A41.68,41.68,0,0,1,63.71,8.25Z"/><path class="cls-1" d="M63.71,6.75C48.36,8,33,7.63,17.59,7l1.06,2.56c2-2.09,5.29-3.16,8-4.07a44.71,44.71,0,0,1,11-2.42A41,41,0,0,1,63,9.55c1.63,1,3.14-1.55,1.52-2.6a43.82,43.82,0,0,0-21-6.88A46.71,46.71,0,0,0,23.8,3.36c-2.52,1-5.36,2.12-7.27,4.11A1.52,1.52,0,0,0,17.59,10c15.37.6,30.77,1,46.12-.28C65.62,9.6,65.64,6.6,63.71,6.75Z"/><path class="cls-2" d="M311.16,64.5a34.66,34.66,0,0,1-13.76-2.57A22.89,22.89,0,0,1,284.14,47.1a31.23,31.23,0,0,1-.05-18.82A23.13,23.13,0,0,1,299,12.56a34.51,34.51,0,0,1,25,.31c8.52,3.38,13.38,9.89,15,18.81a30.93,30.93,0,0,1-1,15.85c-2.94,8.56-8.95,13.85-17.73,15.88-3,.69-6.08.91-9.12,1.35Zm-21-26.14c.09,1.07.18,2.89.39,4.7a24.64,24.64,0,0,0,.71,3.6c1.56,5.77,4.59,10.45,10.13,13.13a22.62,22.62,0,0,0,13.15,1.87c6.84-.93,12.1-4.31,14.9-10.69a33,33,0,0,0,.26-26.18,17.27,17.27,0,0,0-11-10.28,23.54,23.54,0,0,0-11.17-.94c-6.62,1-11.57,4.31-14.58,10.37C290.83,28.25,290.26,32.88,290.17,38.36Z"/><path class="cls-2" d="M190.89,11.52c1.73.09,3.52.26,5.31.25,2.9,0,5.8-.17,8.7-.24,4-.1,7.92,0,11.68,1.47,4.27,1.74,6.38,5.32,6.22,9.91-.21,6.15-3.82,9.51-9.1,11.62-1.1.44-2.24.75-3.38,1.13,1.63.28,3.24.45,4.79.83,6.89,1.71,9.87,6,9.5,13-.37,6.84-5.1,11.13-10.88,12.85a28.88,28.88,0,0,1-9,1.11c-2.34,0-4.67-.1-7-.12s-4.61,0-6.86,0c.13-8.56.37-17.18.37-25.81S191,20.28,190.89,11.52Zm7,49c3.42.2,6.63.71,9.85.16A11.11,11.11,0,0,0,216,54.87a13.37,13.37,0,0,0,1.54-7.62c-.38-4.68-2.44-7.26-6.93-8.61-4.25-1.29-8.63-1.08-13.21-1.06C197.58,45.26,197.73,52.86,197.88,60.54Zm-.46-25.86c3.83.08,7.43.21,10.91-.87,4.14-1.28,7.09-3.75,7.65-8.3.69-5.55-1.55-9.37-6.82-10.65a29.76,29.76,0,0,0-11.26-.16C197.74,21.33,197.58,28,197.42,34.68Z"/><path class="cls-2" d="M245.24,38.68c.21,8.23.42,16.45.63,24.72h-7.3q1.23-25.87,0-51.89c2,.1,3.93.27,5.84.26,3.14,0,6.28-.16,9.42-.25a28.84,28.84,0,0,1,9.95,1.06c5.76,1.89,8.4,6.28,7.78,12.42-.4,3.88-2.5,6.72-5.5,9a22,22,0,0,1-9.12,3.79l-.85.21,20.35,25.37h-5.5a5.3,5.3,0,0,0-1.26,0c-1.43.38-2.14-.35-3-1.43-5.26-6.9-10.6-13.73-15.93-20.58a17.88,17.88,0,0,1-1.3-1.48C248.46,38.27,247,38.48,245.24,38.68Zm.53-24q-.26,10.41-.49,20.67A25.59,25.59,0,0,0,256.43,35c5.07-1.51,8-4.91,8.46-9.74.46-5.18-2.22-9.15-7.1-10.37C253.86,13.87,249.89,14.32,245.77,14.67Z"/><path class="cls-2" d="M358,63.41h-5.33A470.2,470.2,0,0,0,354,10.6a1.59,1.59,0,0,1,1.84.55q14.61,15.78,29.26,31.5c2.51,2.7,5.09,5.32,7.64,8,.2.21.43.4.83.77,0-13.4,0-26.59-.59-39.69h5c-1.54,17.48-1.32,35.08-.94,52.64a1.3,1.3,0,0,1-1.67-.42c-12-13.84-24.61-27-37.13-40.37a1.88,1.88,0,0,0-.52-.49C357.17,36.54,357.46,49.94,358,63.41Z"/><path class="cls-2" d="M123.55,15.19a257.24,257.24,0,0,0-29.47.94V11.6c13,.22,26.21.51,39.61,0a5.28,5.28,0,0,1-.46,1.65c-3.81,5.15-7.82,10.15-11.47,15.4-7,10-13.73,20.12-20.57,30.19-.21.31-.4.65-.72,1.16,11.13.53,22-.33,32.9-1.11v4.56H90.57a7.33,7.33,0,0,1,.61-1.59q15.73-22.68,31.51-45.33C123,16.12,123.2,15.72,123.55,15.19Z"/><path class="cls-2" d="M520.85,13.84c-.72,2.32-1.38,4.41-2.05,6.54-.64.25-.89-.13-1.11-.71-1.13-2.91-3-5.16-6.11-6a9.6,9.6,0,0,0-9.8,2.47c-2.7,2.74-3.13,6.15-2.08,9.76a8,8,0,0,0,4,4.68,73.76,73.76,0,0,0,7.5,3.6c3.07,1.3,6.12,2.56,8.57,4.94a10.4,10.4,0,0,1,3.29,7c.35,5.28-1,10-5,13.68a16.86,16.86,0,0,1-10.7,4.52,41.9,41.9,0,0,1-6.72-.11,17,17,0,0,1-8-3.3c-.51-.35-.54-.66-.38-1.25.52-1.95.93-3.94,1.4-6,.54-.22.81.13,1.09.68a12.82,12.82,0,0,0,13.55,7c6.07-1,9.45-6.32,8.83-12.18a8.5,8.5,0,0,0-3.83-6.1,33.51,33.51,0,0,0-7.87-3.88,25.3,25.3,0,0,1-8.26-4.77c-3.2-3-4.12-6.69-3.81-10.84.55-7.54,6-11.6,12.14-12.7a19.94,19.94,0,0,1,12.4,1.21C518.93,12.61,519.92,13.29,520.85,13.84Z"/><path class="cls-2" d="M175.22,11.68c0,.65-.13,1.36-.13,2.07s.1,1.43.15,2.2l-20-1.07V34.75L173.42,34v4.3l-18.21-.57v22.4c6.86,0,13.59.07,20.31-.9v4.17H148.25q1.22-25.9,0-51.74Z"/><path class="cls-2" d="M478.3,13.9c-.44,1.87-.84,3.61-1.27,5.34a3.51,3.51,0,0,1-.39.74,3.84,3.84,0,0,1-.63-.42c-3.37-3.33-7.3-5.75-12.08-6.13-9.85-.79-18.6,3.5-21.63,14.54a33.64,33.64,0,0,0,.93,21.92c3.11,7.73,9.17,11.42,17.33,12,6.19.41,11.37-2,16.13-5.68a2.7,2.7,0,0,1,.93-.48c-.12,1.66-.05,3.36-.79,4.82-.31.61-1.28,1-2,1.25-9.12,3.57-18.3,3.94-27.33-.1-7-3.14-11.14-8.84-13-16.15A30.74,30.74,0,0,1,435.75,26c3.21-7.71,9.14-12.37,17.14-14.36a38.9,38.9,0,0,1,25,2.08l.41.19C478.32,13.9,478.36,14,478.3,13.9Z"/><path class="cls-2" d="M413.14,11.7h7.4q-1.19,25.71,0,51.71h-7.4Q414.39,37.51,413.14,11.7Z"/><path class="cls-2" d="M77.58,24.51a61.9,61.9,0,0,1,1.76,6.28c2.5,13.91-2.26,25.09-13,34a2.58,2.58,0,0,1-3.16.43,148,148,0,0,0-25.13-8.47,62.12,62.12,0,0,1-7.52-2.64,8.54,8.54,0,0,1-2.26-1.43,2.73,2.73,0,0,1-.4-4.31,13.47,13.47,0,0,1,3.49-2.91C35.66,43.18,40,41,44.34,38.88q10.17-5,20.41-9.91a48.36,48.36,0,0,1,5.14-1.85C72.37,26.26,74.86,25.43,77.58,24.51Z"/><path class="cls-2" d="M72.71,16.51c-3.22,1.46-6.38,2.83-9.48,4.31C54.05,25.21,44.92,29.69,35.73,34a137.21,137.21,0,0,1-21.44,8.45c-3.8,1.08-7.61,2.11-11.42,3.15a1.58,1.58,0,0,1-.42,0c-.25-1.41-.57-2.84-.73-4.28A33.28,33.28,0,0,1,5.16,22.24a1.33,1.33,0,0,1,1.48-.85c5.09.05,10.2.25,15.27-.08,7-.44,14-1.2,21-2,9.13-1.07,18.19-2.65,27.18-4.56a1.3,1.3,0,0,1,1.6.53C72,15.69,72.34,16.06,72.71,16.51Z"/><path class="cls-2" d="M52.56,71.74a41.62,41.62,0,0,1-25.32-.45A38,38,0,0,1,8,57.14C23,61.41,37.65,67,52.56,71.74Z"/><path class="cls-2" d="M63.71,8.25c-15.43,1.26-30.83.88-46.12.28,2.71-2.94,13.38-6.6,20.68-7A41.68,41.68,0,0,1,63.71,8.25Z"/></g></g></svg>