<svg xmlns="http://www.w3.org/2000/svg" viewBox="0 0 45 47"><defs><style>.cls-1{fill:#081a19;}.cls-2{fill:#fff;}</style></defs><g id="Layer_2" data-name="Layer 2"><g id="Layer_1-2" data-name="Layer 1"><rect class="cls-1" width="45" height="47" rx="2.6"/><path class="cls-2" d="M7.5,11.36H23.63a22.26,22.26,0,0,1,7,1,9.91,9.91,0,0,1,4.56,2.86,6.69,6.69,0,0,1,1.6,4.47A6.73,6.73,0,0,1,35,24.54a10.77,10.77,0,0,1-5.32,2.81l7.87,8.29H27.86l-8.39-8.81L16,23.22V35.64H7.5ZM23.63,23.15a5.08,5.08,0,0,0,3.07-.86,2.84,2.84,0,0,0,1.16-2.4,2.59,2.59,0,0,0-1.16-2.23,5.21,5.21,0,0,0-3.07-.82H16v6.31Z"/></g></g></svg>