<?xml version="1.0" encoding="utf-8"?>
<!-- Generator: Adobe Illustrator 24.3.0, SVG Export Plug-In . SVG Version: 6.00 Build 0)  -->
<svg version="1.1" id="Layer_1" xmlns="http://www.w3.org/2000/svg" xmlns:xlink="http://www.w3.org/1999/xlink" x="0px" y="0px"
	 viewBox="0 0 196.3 72" style="enable-background:new 0 0 196.3 72;" xml:space="preserve">
<style type="text/css">
	.st0{fill-rule:evenodd;clip-rule:evenodd;fill:#FCB130;}
	.st1{fill-rule:evenodd;clip-rule:evenodd;fill:#FFFFFF;}
	.st2{fill:#FFFFFF;}
</style>
<g id="Layer_2_1_">
	<g id="svg4403">
		<g id="g10">
			<g id="g12">
				<g id="g5458">
					<path id="path50" class="st0" d="M0,67.8h135.9l-2.7,4.2H0V67.8"/>
					<g id="g4758">
						<path id="path52" class="st0" d="M160.6,65.9h-5L165.7,50c0.9-2.2,0.7-4.7-0.5-6.8l-14.1-23.3c-0.7-1.3-0.7-2.9,0-4.2l4.2-6.2
							l16.5,27c0,0,4.2,5.6-0.4,12.6L160.6,65.9"/>
						<path id="path54" class="st0" d="M172.7,61l6.1-9.3c1.2-2.4,3.7-3.9,6.4-3.9h6.5l4.5,7.2c0,0-3.6-0.4-5.2,2.2l-6.7,10.1
							c-1.6,2.9-4.7,4.8-8,4.7h-31.5l12-18.4c0,0,1.7-2.2-0.7-5.7l-10.7-17.2c0,0-2.6-2.5,0.1-6.9l3.1-4.7l14.8,24
							c1.6,2.2,1.6,5.1,0,7.2l-11.1,17.4h23.5c0,0,2.6,0.5,4.9-2.9l5.8-9c0.9-1.9,2.4-3.4,4.3-4.2h-4.7c-1.8,0.3-3.4,1.4-4.4,3
							l-5.2,8c-1.3,2.1-3.6,3.4-6,3.4h-8.2l9.9-15.4c0,0,5.4-7.1,1.6-13.6L157.5,9.9c-0.7-1.4-0.6-3.1,0.2-4.5l3.6-5.4l18.7,30.1
							c0,0,2.7,4.5,2.7,8s-2.2,7.4-3.4,9.4l-8.2,12.8c0,0-0.9,1.2-0.3,1.7S172.1,61.7,172.7,61"/>
					</g>
					<g id="g5439">
						<path id="path16" class="st1" d="M68.4,48h2.9v11.5h7.1V62h-10L68.4,48"/>
						<path id="path18" class="st1" d="M80.6,61.9h2.9V48h-2.9V61.9z"/>
						<path id="path20" class="st1" d="M45.3,61.9h2.9V48h-2.9V61.9z"/>
						<path id="path24" class="st1" d="M104.1,48h10.9v2.3h-8v3.4h6.8v2.5H107v3.4h8v2.3h-10.9V48"/>
						<path id="path26" class="st1" d="M119.5,29.2h10.9v2.3h-8v3.4h6.9v2.5h-6.9v3.4h8v2.3h-10.9V29.2"/>
						<path id="path28" class="st1" d="M52.6,61.9V48h8.3c0,0,4,0.1,4,4.1c0.1,2-1.1,4-3,4.7l4.1,5.2h-3.5l-5.8-7.3h3
							c1.2,0,2.2-1,2.2-2.2c0,0,0,0,0-0.1c0.1-1.2-0.8-2.2-2-2.2c-0.1,0-0.2,0-0.3,0h-4.1v11.7H52.6"/>
						<path id="path30" class="st1" d="M103.6,43.1V29.2h8.3c0,0,4,0.1,4,4.1c0.1,2-1.1,3.9-3,4.6l4.2,5.2h-3.6l-5.8-7.2h3
							c1.2,0,2.2-1,2.2-2.2c0,0,0,0,0,0c0.1-1.1-0.6-2.1-1.7-2.2c-0.2,0-0.4,0-0.5,0h-4.1v11.7H103.6"/>
						<path id="path38" class="st1" d="M45.5,40.7h3.9v-6.4h2.8v8.8h-7.3c-1.1,0-6.4-1.2-6.4-6.8c-0.1-3.8,2.8-7,6.6-7.1h7.2v2.5
							h-6.5c-2.4,0-4.3,1.9-4.3,4.3c0,0.1,0,0.2,0,0.3C41.4,39.8,45,40.7,45.5,40.7"/>
						<path id="path40" class="st1" d="M87.3,48h2.9v2.2l1.8-2.2h3.5c2.5-0.2,4.6,1.7,4.7,4.2c0,0.2,0,0.4,0,0.7V62h-3v-9.6
							c0-1.1-1-2-2.1-1.9c0,0,0,0,0,0h-5v11.5h-2.9L87.3,48"/>
						<path id="path42" class="st1" d="M22.8,29.2h2.9v2.1l1.8-2.1H31c2.5-0.2,4.6,1.7,4.8,4.2c0,0.2,0,0.4,0,0.7v9.1h-3v-9.6
							c0-1.1-1-2-2.1-1.9c0,0,0,0,0,0h-5v11.5h-2.9L22.8,29.2"/>
						<path id="path44" class="st1" d="M16,43.1h2.9V29.2H16V43.1z"/>
						<path id="path46" class="st1" d="M118.2,61.9v-2.4h8.1c0,0,1.6,0.3,1.6-1.7s-1.2-1.7-1.7-1.7h-4.7c0,0-3.6,0.2-3.6-4
							s3.6-4.2,3.6-4.2h8.9v2.5h-7.8c0,0-1.7,0-1.7,1.6s1.1,1.9,2.2,1.9h4.2c0,0,3.5-0.4,3.5,3.8s-3.6,4.2-3.6,4.2L118.2,61.9"/>
						<path id="path48" class="st1" d="M0.3,43.1v-2.4h8.1c0,0,1.6,0.3,1.6-1.6s-1.2-1.8-1.6-1.8H3.7c0,0-3.6,0.3-3.6-4
							s3.6-4.2,3.6-4.2h8.9v2.5H4.7c0,0-1.7,0-1.7,1.6s1.2,1.9,2.2,1.9h4.2c0,0,3.5-0.4,3.5,3.8s-3.6,4.2-3.6,4.2L0.3,43.1"/>
						<path id="path4192" class="st2" d="M93.7,28.3c-4.2,0-7.6,3.4-7.6,7.6c0,4.2,3.4,7.6,7.6,7.6c4.2,0,7.6-3.4,7.6-7.6
							c0,0,0,0,0,0C101.3,31.7,97.9,28.3,93.7,28.3 M93.7,40.7c-2.7-0.1-4.7-2.4-4.6-5c0.1-2.5,2.1-4.5,4.6-4.6
							c2.7-0.1,4.9,1.9,5,4.6c0.1,2.7-1.9,4.9-4.6,5C94,40.7,93.8,40.7,93.7,40.7"/>
						<path id="path4194" class="st2" d="M63.8,29.2h-3.1L54,43.1h3.3l1.8-4h6.3l1.7,4h3.3 M59.9,37l2.3-5.7l2.3,5.7H59.9z"/>
						<path id="path4194-3" class="st2" d="M36.5,48h-3.1l-6.6,14h3.3l1.8-4h6.3l1.8,4h3.2 M32.7,55.9l2.3-5.8l2.3,5.7L32.7,55.9z"
							/>
						<path id="path4190" class="st2" d="M79.9,29.2h-7.7v13.9h3v-6.8l1.7,2.4H80c2.5,0,4.5-2.1,4.5-4.6c0-0.1,0-0.1,0-0.2
							c0.1-2.5-1.8-4.6-4.3-4.7C80.1,29.2,80,29.2,79.9,29.2 M79.9,36.1h-4.7v-4.4h4.7c1,0,1.8,1.1,1.8,2.2
							C81.7,35,80.9,36,79.9,36.1"/>
					</g>
				</g>
			</g>
		</g>
	</g>
</g>
</svg>
