<svg xmlns="http://www.w3.org/2000/svg" viewBox="0 0 132.71 72"><defs><style>.cls-1{fill:#009b46;}.cls-1,.cls-2,.cls-3,.cls-4{fill-rule:evenodd;}.cls-2{fill:#e2001c;}.cls-3{fill:#f59f00;}.cls-4{fill:#0068b1;}.cls-5{fill:#000002;}</style></defs><g id="Layer_2" data-name="Layer 2"><g id="Layer_1-2" data-name="Layer 1"><path class="cls-1" d="M107.56,42.4c.63-.08,9.56,0,10.47,0a6.25,6.25,0,0,1,4.17,1.11,4.48,4.48,0,0,1,1.66,3.59c0,3.67-2.65,4.68-5.83,4.68-.83,0-9.88.06-10.46,0V42.4Zm11.28-7.49a3.9,3.9,0,0,1-1.4.09h-7.1c-.86,0-1.94.07-2.77,0-.1-.36-.11-8.3,0-8.83.63-.08,7.32,0,8.55,0a12.26,12.26,0,0,1,2.7.1,4.66,4.66,0,0,1,3.06,1.26,4.48,4.48,0,0,1,1.2,3.11,4.23,4.23,0,0,1-4.24,4.31ZM98.92,23.65c0,.43.39.71.62,1a15.4,15.4,0,0,1,1.4,1.89,22.64,22.64,0,0,1-1.38,26.94c-.24.31-.61.5-.64,1v4.82c.95.09,14.24,0,15.58,0,2.48,0,5.32.13,7.76,0,12.17-.9,13.22-15.19,5.65-19.74a9.36,9.36,0,0,0-2.78-1.09c.23-.14,1.09-.36,1.4-.5a9.07,9.07,0,0,0,5.31-7.69,9.83,9.83,0,0,0-4.91-9.81c-3.72-2.13-8.4-1.62-13.23-1.62-1.17,0-14-.07-14.77,0Z"/><path class="cls-2" d="M36.41,59.24c.09-1.9,0-4,0-5.86,0-2.4.1-17-.08-17.28a8.58,8.58,0,0,0-.67-.79,23.27,23.27,0,0,1-4.9-11.06c-.44-3.09,0-3.76-.16-5.49H27.72V34.65H8.63V18.76H0v40.5l8.63,0v-17H27.72v17Z"/><path class="cls-3" d="M61.16,40.45c.11-.27,1.05-.58,1.32-.71a20.68,20.68,0,0,0,6.09-4.54l1.91-2.33.35-.59c-1-.59-6.73-3.1-7-3.48-.33.16-.4.34-.64.63a12.42,12.42,0,0,1-2,1.94,13.55,13.55,0,0,1-3.41,1.86,13.08,13.08,0,1,1,6.09-19.92,28.79,28.79,0,0,0,3.64-1.7c.63-.32,1.18-.58,1.76-.88A17.73,17.73,0,0,0,71,9.84a20.92,20.92,0,0,0-37.25,3.47,21.18,21.18,0,0,0-.75,13,20.64,20.64,0,0,0,9.87,12.84,20.86,20.86,0,0,0,12.28,2.68,19.91,19.91,0,0,0,5.76-1.36Z"/><path class="cls-4" d="M61.16,40.45A20.93,20.93,0,0,0,90.59,58.17,19.92,19.92,0,0,0,94,56.25a22.14,22.14,0,0,0,3.85-3.47,16.35,16.35,0,0,0,1.78-2.4c-.24-.23-4.48-2.2-5.36-2.63a10.46,10.46,0,0,0-1.84-.84,12.43,12.43,0,0,1-3.2,3,13.08,13.08,0,0,1-18.7-4.75,12.92,12.92,0,0,1-1-10.15c.25-.84.63-1.49.89-2.18L68.57,35.2a20.68,20.68,0,0,1-6.09,4.54C62.21,39.87,61.27,40.18,61.16,40.45Z"/><path class="cls-4" d="M63.8,28.8c.3.38,6,2.89,7,3.48a15.48,15.48,0,0,1,1.87-2.39,13.07,13.07,0,0,1,18-.67,12.72,12.72,0,0,1,2,2.21c.37-.08,3-1.44,3.61-1.72,1.1-.54,2.42-1.31,3.54-1.74a15.77,15.77,0,0,0-2.29-3.07c-.32-.31-.55-.58-.87-.89A20.71,20.71,0,0,0,81.4,18.09a20.28,20.28,0,0,0-10.75,3.38,19.72,19.72,0,0,0-5.46,5.15A12.24,12.24,0,0,0,63.8,28.8Z"/><path class="cls-5" d="M3.37,71.92H2.44V70H1v1.89H0V67.54H1v1.72H2.44V67.54h.93Z"/><path class="cls-5" d="M6.11,71.92h-2v-.53l.53-.24V68.31l-.53-.24v-.53h2v.53l-.53.24v2.84l.53.24Z"/><path class="cls-5" d="M10.56,71.92H9.38L7.66,68.61h0l0,.46c0,.13,0,.26,0,.4s0,.28,0,.39v2.06H6.86V67.54H8l1.72,3.28h0l0-.45v-.19a1.48,1.48,0,0,1,0-.21v-.19a1,1,0,0,1,0-.17V67.54h.84Z"/><path class="cls-5" d="M15.05,69.69a2.86,2.86,0,0,1-.15,1,1.86,1.86,0,0,1-.44.7,2,2,0,0,1-.7.42,3.06,3.06,0,0,1-.95.14H11.66V67.54h1.28a2.65,2.65,0,0,1,.87.14,1.72,1.72,0,0,1,1.09,1.08A2.67,2.67,0,0,1,15.05,69.69Zm-.94,0a2.35,2.35,0,0,0-.08-.63,1.2,1.2,0,0,0-.21-.44.78.78,0,0,0-.34-.25A1.11,1.11,0,0,0,13,68.3h-.43v2.85h.34a1.06,1.06,0,0,0,.88-.36A1.66,1.66,0,0,0,14.11,69.71Z"/><path class="cls-5" d="M19.27,67.54v2.83a1.91,1.91,0,0,1-.1.64,1.37,1.37,0,0,1-.32.51,1.62,1.62,0,0,1-.52.34,2.15,2.15,0,0,1-.75.12,1.92,1.92,0,0,1-.71-.12,1.31,1.31,0,0,1-.52-.32A1.52,1.52,0,0,1,16,71a2,2,0,0,1-.1-.67V67.54h.92v2.75a1.67,1.67,0,0,0,0,.42A.74.74,0,0,0,17,71a.51.51,0,0,0,.24.16,1,1,0,0,0,.32,0,.66.66,0,0,0,.57-.23,1.08,1.08,0,0,0,.18-.68V67.54Z"/><path class="cls-5" d="M22.74,70.7a1.25,1.25,0,0,1-.1.53,1,1,0,0,1-.29.4,1.43,1.43,0,0,1-.47.26,2.13,2.13,0,0,1-.65.09,2.48,2.48,0,0,1-.61-.07,2.15,2.15,0,0,1-.54-.19v-.87l.29.14.29.11a1.77,1.77,0,0,0,.31.08,1.53,1.53,0,0,0,.3,0,1,1,0,0,0,.26,0,.52.52,0,0,0,.18-.1.42.42,0,0,0,.09-.14.45.45,0,0,0,0-.41.73.73,0,0,0-.14-.18l-.23-.16-.3-.16-.31-.17a1.92,1.92,0,0,1-.32-.26,1.36,1.36,0,0,1-.25-.36,1.18,1.18,0,0,1-.1-.52,1.42,1.42,0,0,1,.09-.52,1,1,0,0,1,.28-.39,1.26,1.26,0,0,1,.44-.25,2,2,0,0,1,.57-.08l.31,0a1.59,1.59,0,0,1,.3.06l.3.1a1.94,1.94,0,0,1,.3.13l-.29.72-.26-.11L22,68.32l-.22,0-.21,0a.45.45,0,0,0-.36.13.42.42,0,0,0-.13.33.53.53,0,0,0,0,.19.61.61,0,0,0,.12.16l.21.16.32.17a3.18,3.18,0,0,1,.41.25,1.49,1.49,0,0,1,.33.27,1.2,1.2,0,0,1,.21.34A1.25,1.25,0,0,1,22.74,70.7Z"/><path class="cls-5" d="M25.15,71.92h-.92V68.31h-1.1v-.77h3.12v.77h-1.1Z"/><path class="cls-5" d="M29.05,71.92l-.3-1H27.24l-.3,1H26l1.43-4.4h1.13L30,71.92Zm-.51-1.82-.28-1A1.82,1.82,0,0,1,28.2,69c0-.08-.05-.17-.07-.27s-.06-.2-.08-.3a1.38,1.38,0,0,1-.05-.25s0,.1,0,.16,0,.12,0,.19,0,.13-.05.2l-.05.19c0,.06,0,.11-.05.16l0,.1-.28,1Z"/><path class="cls-5" d="M34.24,71.92H33.06l-1.72-3.31h0l0,.46c0,.13,0,.26,0,.4s0,.28,0,.39v2.06h-.83V67.54h1.17l1.72,3.28h0c0-.15,0-.3,0-.45a1.21,1.21,0,0,1,0-.19c0-.07,0-.14,0-.21V67.54h.83Z"/><path class="cls-5" d="M38.8,68.25a1.21,1.21,0,0,0-.48.1,1,1,0,0,0-.34.3,1.56,1.56,0,0,0-.21.47,2.4,2.4,0,0,0-.07.62,3,3,0,0,0,.06.63,1.16,1.16,0,0,0,.2.45.87.87,0,0,0,.34.29,1.24,1.24,0,0,0,.5.1,2.46,2.46,0,0,0,.53-.06,6,6,0,0,0,.58-.17v.77l-.28.11-.29.07L39,72h-.33a2.16,2.16,0,0,1-.88-.16,1.57,1.57,0,0,1-.61-.46,1.94,1.94,0,0,1-.36-.7,3.36,3.36,0,0,1-.12-.92,3,3,0,0,1,.14-.92,2.13,2.13,0,0,1,.39-.71,1.9,1.9,0,0,1,.64-.47,2.24,2.24,0,0,1,.89-.16,3,3,0,0,1,.65.08,3.38,3.38,0,0,1,.63.23l-.3.75a5.21,5.21,0,0,0-.5-.2A1.4,1.4,0,0,0,38.8,68.25Z"/><path class="cls-5" d="M44.57,69.72a3.83,3.83,0,0,1-.11.93,1.93,1.93,0,0,1-.37.71,1.57,1.57,0,0,1-.61.46,2.45,2.45,0,0,1-1.74,0,1.57,1.57,0,0,1-.61-.46,2.07,2.07,0,0,1-.36-.71,3.66,3.66,0,0,1,0-1.86,1.94,1.94,0,0,1,.36-.7,1.57,1.57,0,0,1,.61-.46,2.47,2.47,0,0,1,1.75,0,1.64,1.64,0,0,1,.61.46,1.9,1.9,0,0,1,.36.71A3.68,3.68,0,0,1,44.57,69.72Zm-3,0a2.9,2.9,0,0,0,.06.62,1.25,1.25,0,0,0,.19.47.86.86,0,0,0,.31.29.93.93,0,0,0,.45.1.84.84,0,0,0,.77-.39,1.44,1.44,0,0,0,.18-.47,2.9,2.9,0,0,0,.06-.62,2.8,2.8,0,0,0-.06-.61,1.44,1.44,0,0,0-.18-.47.78.78,0,0,0-.31-.29.93.93,0,0,0-.45-.1,1,1,0,0,0-.46.1.78.78,0,0,0-.31.29,1.25,1.25,0,0,0-.19.47A2.8,2.8,0,0,0,41.6,69.72Z"/><path class="cls-5" d="M47.34,68.25a1.12,1.12,0,0,0-.47.1.92.92,0,0,0-.35.3,1.56,1.56,0,0,0-.21.47,2.4,2.4,0,0,0-.07.62,3,3,0,0,0,.06.63,1.33,1.33,0,0,0,.2.45.87.87,0,0,0,.34.29,1.27,1.27,0,0,0,.5.1,2.39,2.39,0,0,0,.53-.06,6,6,0,0,0,.58-.17v.77l-.28.11-.29.07-.3,0h-.33a2.16,2.16,0,0,1-.88-.16,1.64,1.64,0,0,1-.61-.46,1.94,1.94,0,0,1-.36-.7,3.36,3.36,0,0,1-.12-.92,3,3,0,0,1,.14-.92,2.13,2.13,0,0,1,.39-.71,1.94,1.94,0,0,1,.65-.47,2.19,2.19,0,0,1,.88-.16,2.89,2.89,0,0,1,.65.08,3.38,3.38,0,0,1,.63.23l-.3.75a5,5,0,0,0-.49-.2A1.46,1.46,0,0,0,47.34,68.25Z"/><path class="cls-5" d="M51.88,71.92l-.3-1H50.07l-.3,1h-.94l1.43-4.4h1.13l1.43,4.4Zm-.51-1.82-.28-1A1.82,1.82,0,0,1,51,69c0-.08-.05-.17-.07-.27s-.06-.2-.08-.3,0-.18-.05-.25,0,.1,0,.16,0,.12,0,.19a1.94,1.94,0,0,1,0,.2l-.05.19a1.24,1.24,0,0,0,0,.16l0,.1-.28,1Z"/><path class="cls-5" d="M53,70.65V69.9h1.61v.75Z"/><path class="cls-5" d="M57.2,68.25a1.2,1.2,0,0,0-.47.1,1,1,0,0,0-.34.3,1.19,1.19,0,0,0-.21.47,2.39,2.39,0,0,0-.08.62,3,3,0,0,0,.07.63,1.16,1.16,0,0,0,.2.45.87.87,0,0,0,.34.29,1.22,1.22,0,0,0,.49.1,2.48,2.48,0,0,0,.54-.06,6,6,0,0,0,.58-.17v.77l-.28.11-.29.07-.3,0h-.33a2.16,2.16,0,0,1-.88-.16,1.57,1.57,0,0,1-.61-.46,1.67,1.67,0,0,1-.36-.7,3.36,3.36,0,0,1-.12-.92,3,3,0,0,1,.13-.92,2.15,2.15,0,0,1,.4-.71,1.9,1.9,0,0,1,.64-.47,2.23,2.23,0,0,1,.88-.16,3,3,0,0,1,.66.08,3.38,3.38,0,0,1,.63.23l-.3.75a5.21,5.21,0,0,0-.5-.2A1.41,1.41,0,0,0,57.2,68.25Z"/><path class="cls-5" d="M62.86,69.72a3.38,3.38,0,0,1-.12.93,2.07,2.07,0,0,1-.36.71,1.64,1.64,0,0,1-.61.46,2.47,2.47,0,0,1-1.75,0,1.64,1.64,0,0,1-.61-.46,2.07,2.07,0,0,1-.36-.71,3.66,3.66,0,0,1,0-1.86,1.94,1.94,0,0,1,.36-.7,1.68,1.68,0,0,1,.62-.46,2.45,2.45,0,0,1,1.74,0,1.57,1.57,0,0,1,.61.46,1.9,1.9,0,0,1,.36.71A3.26,3.26,0,0,1,62.86,69.72Zm-3,0a2.9,2.9,0,0,0,.06.62,1.44,1.44,0,0,0,.18.47,1,1,0,0,0,.32.29.88.88,0,0,0,.45.1.91.91,0,0,0,.45-.1.86.86,0,0,0,.31-.29,1.44,1.44,0,0,0,.18-.47,2.9,2.9,0,0,0,.06-.62,2.8,2.8,0,0,0-.06-.61,1.44,1.44,0,0,0-.18-.47.72.72,0,0,0-.31-.29.88.88,0,0,0-.45-.1.93.93,0,0,0-.45.1.8.8,0,0,0-.32.29,1.44,1.44,0,0,0-.18.47A2.8,2.8,0,0,0,59.89,69.72Z"/><path class="cls-5" d="M63.76,71.92V67.54h.93v3.61h1.6v.77Z"/><path class="cls-5" d="M69.54,71.92l-.3-1H67.73l-.3,1h-.94l1.43-4.4h1.13l1.43,4.4ZM69,70.1l-.28-1a1.82,1.82,0,0,1-.06-.18c0-.08,0-.17-.07-.27s-.06-.2-.08-.3,0-.18-.05-.25,0,.1,0,.16,0,.12,0,.19a1.94,1.94,0,0,1,0,.2l0,.19a1.24,1.24,0,0,0,0,.16l0,.1-.28,1Z"/><path class="cls-5" d="M72.62,67.54h1.29a3.88,3.88,0,0,1,.72.06,1.45,1.45,0,0,1,.52.19.87.87,0,0,1,.32.34,1.15,1.15,0,0,1,.1.52,1.34,1.34,0,0,1,0,.35,1.2,1.2,0,0,1-.13.28,1,1,0,0,1-.21.21.92.92,0,0,1-.29.11v0a1.12,1.12,0,0,1,.31.1,1.05,1.05,0,0,1,.25.18.86.86,0,0,1,.16.3,1.42,1.42,0,0,1,.06.44,1.25,1.25,0,0,1-.1.53,1.08,1.08,0,0,1-.3.4,1.37,1.37,0,0,1-.48.25,2,2,0,0,1-.63.09H72.62Zm.93,1.74H74a1.06,1.06,0,0,0,.29,0,.42.42,0,0,0,.19-.09.31.31,0,0,0,.11-.16.69.69,0,0,0,0-.22.39.39,0,0,0-.16-.36.9.9,0,0,0-.5-.11h-.44Zm0,.73v1.14h.55a.87.87,0,0,0,.3,0,.48.48,0,0,0,.2-.12.33.33,0,0,0,.11-.19.61.61,0,0,0,0-.24.56.56,0,0,0,0-.23.45.45,0,0,0-.11-.17.52.52,0,0,0-.21-.11,1,1,0,0,0-.32,0Z"/><path class="cls-5" d="M79.08,71.92H76.56V67.54h2.52v.76H77.49v1H79V70H77.49v1.13h1.59Z"/><path class="cls-5" d="M82.25,67.54h.93l-1.36,4.38h-1l-1.37-4.38h.94l.74,2.64s0,.09,0,.17,0,.16,0,.26a2.93,2.93,0,0,1,0,.29c0,.09,0,.17,0,.24s0-.15,0-.24l.06-.29c0-.09,0-.18,0-.26s0-.14,0-.17Z"/><path class="cls-5" d="M86.26,71.92H83.74V67.54h2.52v.76h-1.6v1h1.49V70H84.66v1.13h1.6Z"/><path class="cls-5" d="M88.1,70.24v1.68h-.93V67.54h1.2a1.93,1.93,0,0,1,1.24.33,1.17,1.17,0,0,1,.4,1,1.31,1.31,0,0,1-.06.41,1.26,1.26,0,0,1-.16.33,1.31,1.31,0,0,1-.23.24,2.11,2.11,0,0,1-.27.18l.59.95.22.35.19.31.14.22,0,.08h-1l-1-1.68Zm0-.76h.25a.8.8,0,0,0,.55-.15.55.55,0,0,0,.17-.45.53.53,0,0,0-.18-.45,1,1,0,0,0-.56-.13H88.1Z"/><path class="cls-5" d="M93.53,71.92l-.3-1H91.72l-.3,1h-.94l1.42-4.4H93l1.43,4.4ZM93,70.1l-.28-1s0-.09,0-.18-.05-.17-.08-.27,0-.2-.07-.3a1.38,1.38,0,0,1,0-.25s0,.1,0,.16a1.62,1.62,0,0,1,0,.19c0,.06,0,.13-.05.2l0,.19c0,.06,0,.11,0,.16l0,.1-.27,1Z"/><path class="cls-5" d="M96.62,69.46h1.74v2.27l-.35.1-.37.08-.4,0-.44,0a2.33,2.33,0,0,1-.87-.15,1.58,1.58,0,0,1-.64-.43,1.9,1.9,0,0,1-.39-.7,3.22,3.22,0,0,1-.14-1,2.75,2.75,0,0,1,.15-.93,1.94,1.94,0,0,1,.44-.7,1.91,1.91,0,0,1,.72-.45,2.72,2.72,0,0,1,1-.16,3.23,3.23,0,0,1,.69.07,3.63,3.63,0,0,1,.61.2l-.31.74a2.46,2.46,0,0,0-.46-.17,1.9,1.9,0,0,0-.54-.07,1.33,1.33,0,0,0-.54.11,1.08,1.08,0,0,0-.42.3,1.21,1.21,0,0,0-.27.47,2,2,0,0,0-.09.61,2.61,2.61,0,0,0,.06.59,1.35,1.35,0,0,0,.21.47.92.92,0,0,0,.35.3,1.17,1.17,0,0,0,.52.11l.33,0,.26,0v-.92h-.83Z"/><path class="cls-5" d="M101.92,71.92H99.4V67.54h2.52v.76h-1.59v1h1.48V70h-1.48v1.13h1.59Z"/><path class="cls-5" d="M105.23,70.7a1.25,1.25,0,0,1-.1.53,1.06,1.06,0,0,1-.29.4,1.38,1.38,0,0,1-.48.26,2.06,2.06,0,0,1-.64.09,2.48,2.48,0,0,1-.61-.07,2.38,2.38,0,0,1-.55-.19v-.87l.29.14.3.11a1.67,1.67,0,0,0,.3.08,1.63,1.63,0,0,0,.31,0,1,1,0,0,0,.26,0,.4.4,0,0,0,.17-.1.33.33,0,0,0,.1-.14.58.58,0,0,0,0-.19.4.4,0,0,0,0-.22.6.6,0,0,0-.15-.18l-.22-.16-.3-.16-.31-.17a1.92,1.92,0,0,1-.32-.26,1.16,1.16,0,0,1-.25-.36,1.17,1.17,0,0,1-.11-.52,1.42,1.42,0,0,1,.1-.52,1,1,0,0,1,.28-.39,1.22,1.22,0,0,1,.43-.25,2.08,2.08,0,0,1,.58-.08l.31,0a1.59,1.59,0,0,1,.3.06l.29.1a2,2,0,0,1,.31.13l-.3.72-.25-.11-.23-.08-.21,0-.22,0a.45.45,0,0,0-.35.13.42.42,0,0,0-.13.33.38.38,0,0,0,0,.19.36.36,0,0,0,.12.16,1.41,1.41,0,0,0,.21.16l.32.17a4.06,4.06,0,0,1,.41.25,1.76,1.76,0,0,1,.33.27,1.2,1.2,0,0,1,.21.34A1.25,1.25,0,0,1,105.23,70.7Z"/><path class="cls-5" d="M110.48,68.91a1.71,1.71,0,0,1-.09.55,1.1,1.1,0,0,1-.28.46,1.39,1.39,0,0,1-.53.32,2.29,2.29,0,0,1-.8.12h-.21v1.56h-.93V67.54h1.21a2.22,2.22,0,0,1,.73.1,1.24,1.24,0,0,1,.51.27,1,1,0,0,1,.29.42A1.5,1.5,0,0,1,110.48,68.91Zm-1.91.69h.18a1,1,0,0,0,.59-.15.63.63,0,0,0,.2-.51.59.59,0,0,0-.18-.48.8.8,0,0,0-.56-.16h-.23Z"/><path class="cls-5" d="M113.56,67.54h.94l-1.37,4.38h-1l-1.36-4.38h.93l.75,2.64s0,.09,0,.17,0,.16,0,.26l.06.29c0,.09,0,.17,0,.24s0-.15,0-.24l.06-.29c0-.09,0-.18,0-.26s0-.14,0-.17Z"/><path class="cls-5" d="M116.64,71.92h-.92V68.31h-1.1v-.77h3.12v.77h-1.1Z"/><path class="cls-5" d="M117.91,71.49a.61.61,0,0,1,0-.24.33.33,0,0,1,.11-.15.46.46,0,0,1,.17-.09.68.68,0,0,1,.4,0,.56.56,0,0,1,.17.09.42.42,0,0,1,.11.15.61.61,0,0,1,0,.24.53.53,0,0,1,0,.23.38.38,0,0,1-.11.16.56.56,0,0,1-.17.09.68.68,0,0,1-.4,0,.46.46,0,0,1-.17-.09.31.31,0,0,1-.11-.16A.53.53,0,0,1,117.91,71.49Z"/><path class="cls-5" d="M121.45,71.92V67.54h.93v3.61H124v.77Z"/><path class="cls-5" d="M126,71.92H125V68.31h-1.1v-.77h3.12v.77H126Z"/><path class="cls-5" d="M131.11,69.69a2.86,2.86,0,0,1-.15,1,1.84,1.84,0,0,1-.43.7,2.09,2.09,0,0,1-.71.42,3,3,0,0,1-.94.14h-1.15V67.54H129a2.65,2.65,0,0,1,.87.14A1.78,1.78,0,0,1,131,68.76,2.93,2.93,0,0,1,131.11,69.69Zm-.94,0a2.38,2.38,0,0,0-.07-.63,1.38,1.38,0,0,0-.21-.44.91.91,0,0,0-.34-.25,1.16,1.16,0,0,0-.47-.09h-.42v2.85H129a1.08,1.08,0,0,0,.88-.36A1.72,1.72,0,0,0,130.17,69.71Z"/><path class="cls-5" d="M131.64,71.49a.61.61,0,0,1,0-.24.33.33,0,0,1,.11-.15A.46.46,0,0,1,132,71a.68.68,0,0,1,.4,0,.46.46,0,0,1,.17.09.33.33,0,0,1,.11.15.6.6,0,0,1,.05.24.52.52,0,0,1-.05.23.31.31,0,0,1-.11.16.46.46,0,0,1-.17.09.68.68,0,0,1-.4,0,.46.46,0,0,1-.17-.09.31.31,0,0,1-.11-.16A.53.53,0,0,1,131.64,71.49Z"/></g></g></svg>