<?xml version="1.0" encoding="utf-8"?>
<!-- Generator: Adobe Illustrator 24.3.0, SVG Export Plug-In . SVG Version: 6.00 Build 0)  -->
<svg version="1.1" id="Layer_1" xmlns="http://www.w3.org/2000/svg" xmlns:xlink="http://www.w3.org/1999/xlink" x="0px" y="0px"
	 viewBox="0 0 190.7 72.5" style="enable-background:new 0 0 190.7 72.5;" xml:space="preserve">
<style type="text/css">
	.st0{fill:#78A816;}
	.st1{font-family:'PublicaSans-Bold';}
	.st2{font-size:60.92px;}
	.st3{fill:#FFFFFF;}
</style>
<g id="Layer_2_1_">
	<g id="Layer_1-2">
		<text transform="matrix(1 0 0 1 0 51.69)" class="st0 st1 st2">i</text>
		<text transform="matrix(1 0 0 1 13.1 51.69)" class="st0 st1 st2">n</text>
		<text transform="matrix(1 0 0 1 117.95 51.69)" class="st3 st1 st2">b</text>
		<text transform="matrix(1 0 0 1 154.12 51.69)" class="st3 st1 st2">e</text>
		<text transform="matrix(-1 0 0 -1 122.5098 20.8008)" class="st3 st1 st2">n</text>
		<path class="st3" d="M89.2,32.2c0-11.5-9.3-20.7-20.7-20.7s-20.7,9.3-20.8,20.7c0,11.5,9.3,20.7,20.7,20.7c0,0,0,0,0,0
			c2.5,0,5-0.5,7.4-1.4l5.5,7.1l7.1-5.5l-5.1-6.5C87.1,42.7,89.2,37.6,89.2,32.2z M68.5,42.9c-5.9,0-10.8-4.8-10.8-10.8
			s4.8-10.8,10.8-10.8s10.8,4.8,10.8,10.8S74.4,42.9,68.5,42.9L68.5,42.9z"/>
	</g>
</g>
</svg>
