<svg xmlns="http://www.w3.org/2000/svg" viewBox="0 0 69.01 72"><defs><style>.cls-1{fill:#062f62;}</style></defs><g id="Layer_2" data-name="Layer 2"><g id="svg4403"><g id="_062f62ff" data-name="#062f62ff"><path id="path6" class="cls-1" d="M10.91,40.61,34.11,0q-2.18,13.91-4.34,27.8c0,.1-.1.15-.16.23L0,59.72Q5.45,50.17,10.91,40.61Z"/><path id="path8" class="cls-1" d="M34.88,0,69,59.74,55.42,45.21,39.26,27.93a.82.82,0,0,1-.06-.26Z"/><path id="path10" class="cls-1" d="M18.32,42.41c.3-.32.57-.66.88-1H25q-5,9.16-10,18.3H2.9Z"/><path id="path12" class="cls-1" d="M26.88,41.43H37q.43,3,.89,6.09H34.52V59.73H24c.51-1.75,1-3.5,1.56-5.25.7-2.3,1.38-4.61,2.08-6.92H24.19C25.09,45.52,26,43.48,26.88,41.43Z"/><path id="path14" class="cls-1" d="M40.3,41.53a3.25,3.25,0,0,1,1.16-.1h8.37L54.75,47H47.93a.68.68,0,0,0-.58.95c.69,1.29,1.4,2.58,2.09,3.88a1.77,1.77,0,0,0,1.56,1h8.06c.3,0,.59,0,.89,0,2,2.3,4.08,4.61,6.13,6.91H45.69a5.41,5.41,0,0,1-.9,0,2.26,2.26,0,0,1-1.69-1.27,4.44,4.44,0,0,1-.29-1q-1.76-7-3.52-14.1A1.61,1.61,0,0,1,40.3,41.53Z"/><path id="path16" class="cls-1" d="M17.82,64.94a3.12,3.12,0,0,1,2.29-.78,2.77,2.77,0,0,1,1.42.57c.13.09.31.21.46.1s.13-.47.32-.64c.06,0,.14.06.13.15,0,.85,0,1.7,0,2.54a.82.82,0,0,1,0,.35c-.06,0-.14,0-.16-.1a10.82,10.82,0,0,0-.44-1.2,4.48,4.48,0,0,0-.6-1,1.84,1.84,0,0,0-1.13-.61,1.72,1.72,0,0,0-1.56.6,2.81,2.81,0,0,0-.44,1.19,15.72,15.72,0,0,0-.17,1.93,6.47,6.47,0,0,0,.29,2.4,1.92,1.92,0,0,0,.86,1,2.32,2.32,0,0,0,2.81-.87,3.24,3.24,0,0,0,.41-1.58.65.65,0,0,1,.31,0,.52.52,0,0,1,0,.18,4.61,4.61,0,0,1-.24,1.16,2.27,2.27,0,0,1-1.61,1.4,3.43,3.43,0,0,1-1.56.05A4.05,4.05,0,0,1,17.61,71a1.75,1.75,0,0,1-.42-.48,6.18,6.18,0,0,1-.53-1,3.92,3.92,0,0,1,0-2.88A4.73,4.73,0,0,1,17.82,64.94Z"/><path id="path18" class="cls-1" d="M64.37,64.23a2.58,2.58,0,0,1,.48,0,.21.21,0,0,1,.16.22c0,2.13,0,4.26,0,6.39,0,.22,0,.49.2.62a2,2,0,0,0,.84.11c0,.06.06.18,0,.19l-1.94.1c-.11,0-.27,0-.29-.16s0-.44,0-.65l-.06-.08a5.11,5.11,0,0,1-.45.48,1.94,1.94,0,0,1-1.64.39,2.26,2.26,0,0,1-1.45-1.11,3.11,3.11,0,0,1-.27-2.42,2.87,2.87,0,0,1,1.3-1.64,2,2,0,0,1,1.52-.2,1.88,1.88,0,0,1,1,.79c.07-.11,0-.23,0-.35,0-.6,0-1.21,0-1.81a.5.5,0,0,0-.31-.46,3.22,3.22,0,0,0-.82-.09c0-.06,0-.15.06-.18l1.68-.11m-2.23,2.41a1.18,1.18,0,0,0-.69.69,4.54,4.54,0,0,0-.29,1.75,6.63,6.63,0,0,0,.11,1.26,1.87,1.87,0,0,0,.42.9,1,1,0,0,0,1,.28,1.08,1.08,0,0,0,.56-.43,2.84,2.84,0,0,0,.46-1.38,4.94,4.94,0,0,0-.16-2,2,2,0,0,0-.62-.94A.94.94,0,0,0,62.14,66.64Z"/><path id="path20" class="cls-1" d="M34.87,64.3a.74.74,0,0,1,.92.6.73.73,0,0,1-.72.83.71.71,0,0,1-.73-.66A.74.74,0,0,1,34.87,64.3Z"/><path id="path22" class="cls-1" d="M49,64.3a.73.73,0,1,1-.54.61A.73.73,0,0,1,49,64.3Z"/><path id="path24" class="cls-1" d="M52.25,64.42c0-.14.25-.13.26,0v1.89a.15.15,0,0,0,.16.17H54a.14.14,0,0,1,.05.26H52.72a.22.22,0,0,0-.21.25v3.88a.64.64,0,0,0,.31.63.84.84,0,0,0,1-.21,1.83,1.83,0,0,0,.3-1.11.27.27,0,0,1,.06-.19c.06,0,.15,0,.19.06s0,.17,0,.26a2,2,0,0,1-.53,1.32,1.41,1.41,0,0,1-.93.35,2.2,2.2,0,0,1-1.15-.25,1.09,1.09,0,0,1-.55-.94V67.1c0-.11,0-.24-.1-.31a1.26,1.26,0,0,0-.39,0c-.15,0-.32,0-.45-.05s0-.22.14-.21a1.61,1.61,0,0,0,1.48-.9A4,4,0,0,0,52.25,64.42Z"/><path id="path26" class="cls-1" d="M8.5,64.42H15c0,1,0,2,0,2.94a.14.14,0,0,1-.25.08,5.79,5.79,0,0,0-.7-2.06,1.36,1.36,0,0,0-.74-.64,2.72,2.72,0,0,0-.75-.06.33.33,0,0,0-.11.3c0,2,0,4,0,6a.45.45,0,0,0,.25.42,6.48,6.48,0,0,0,1.17.18c0,.1,0,.22-.14.2h-4c-.07,0-.16,0-.2-.06v-.14a4,4,0,0,0,1.27-.29c.12-.06.26-.15.25-.3V64.9c0-.09,0-.21-.13-.21a1.69,1.69,0,0,0-.94.17,2.44,2.44,0,0,0-.76,1,6.42,6.42,0,0,0-.48,1.56c0,.1-.17.08-.24,0Z"/><path id="path28" class="cls-1" d="M2.93,64.65c0-.08,0-.2.1-.19H6.65c.11,0,.11.11.1.19a4.88,4.88,0,0,0-1,.2.36.36,0,0,0-.21.35v5.87a.39.39,0,0,0,.27.37,4.48,4.48,0,0,0,.89.15.12.12,0,0,1,.06.16c-.06.07-.15,0-.23.06H3.07a.13.13,0,0,1-.14-.18c.07-.07.18,0,.28-.06a3.47,3.47,0,0,0,.7-.14.38.38,0,0,0,.24-.36V65.2a.4.4,0,0,0-.26-.38A7.71,7.71,0,0,0,2.93,64.65Z"/><path id="path30" class="cls-1" d="M26.76,64.48c1.28,0,2.55,0,3.83,0,.12,0,.19.15.08.2a5.14,5.14,0,0,0-1.1.17.44.44,0,0,0-.27.45c0,1.91,0,3.82,0,5.74a.43.43,0,0,0,.32.44A3,3,0,0,0,32.08,71a3.35,3.35,0,0,0,.84-2c0-.1,0-.25.13-.28s.13.17.13.27v2.55a.14.14,0,0,1-.13.17l-5.91,0a1.59,1.59,0,0,1-.38,0,.11.11,0,0,1,0-.2,3.4,3.4,0,0,0,.89-.16.4.4,0,0,0,.25-.41V65.24a.42.42,0,0,0-.29-.42,4.86,4.86,0,0,0-.85-.14A.11.11,0,0,1,26.76,64.48Z"/><path id="path32" class="cls-1" d="M40.19,66.73a1.72,1.72,0,0,1,.93-.33,1.74,1.74,0,0,1,1.14.28,1.61,1.61,0,0,1,.56.8.65.65,0,0,0,.11.22c.13-.13.17-.31.29-.44a2.5,2.5,0,0,1,.85-.7,2,2,0,0,1,1.32-.1,1.41,1.41,0,0,1,1.12,1.29c0,.34,0,.69,0,1,0,.75,0,1.5-.06,2.25a.38.38,0,0,0,.2.42,3.32,3.32,0,0,0,.77.18.28.28,0,0,1,0,.18c-.59,0-1.18,0-1.77,0s-1,0-1.52,0a.28.28,0,0,1,0-.18,4.89,4.89,0,0,0,.76-.16.36.36,0,0,0,.23-.36c0-1,0-2.07,0-3.1a1.68,1.68,0,0,0-.1-.86.64.64,0,0,0-.55-.35,1.14,1.14,0,0,0-.87.42,2.88,2.88,0,0,0-.67,1.47,4.86,4.86,0,0,0,0,1.08c0,.45,0,.9,0,1.35a.37.37,0,0,0,.23.35,6,6,0,0,0,.71.16.1.1,0,0,1,0,.17,2.11,2.11,0,0,1-.25,0h-2.9c-.1,0-.19-.1-.11-.18a3.54,3.54,0,0,0,.85-.22c.18-.13.14-.38.15-.57,0-1,0-2.07,0-3.1a1.16,1.16,0,0,0-.29-.82.67.67,0,0,0-.64-.09,1.44,1.44,0,0,0-.74.59,2.57,2.57,0,0,0-.46,1.09,12.09,12.09,0,0,0-.11,2.33c0,.2,0,.46.17.58a2.4,2.4,0,0,0,.79.19.35.35,0,0,1,.05.08l0,.11c-.45,0-.9,0-1.34,0H37c-.11,0-.11-.13,0-.19a3.7,3.7,0,0,0,.82-.14.37.37,0,0,0,.27-.37V67.27a.38.38,0,0,0-.29-.36,3.94,3.94,0,0,0-.7-.12c-.14,0-.08-.25,0-.25.65,0,1.29-.06,1.94-.1a.3.3,0,0,1,.34.24c0,.29,0,.59,0,.89,0,.11.13,0,.16-.07A2,2,0,0,1,40.19,66.73Z"/><path id="path34" class="cls-1" d="M56.74,66.42a2.42,2.42,0,0,1,2,.6,2.35,2.35,0,0,1,.63,1.85.12.12,0,0,1-.14.13c-1.08,0-2.16,0-3.24,0-.11,0-.14.12-.14.21a3.43,3.43,0,0,0,.21,1.65,1.23,1.23,0,0,0,.84.73,1.78,1.78,0,0,0,1.66-.46,2.05,2.05,0,0,0,.5-1c0-.08.07-.17.16-.15s.11.2.1.31a2,2,0,0,1-1.15,1.41,2.66,2.66,0,0,1-2.29-.09,2.73,2.73,0,0,1-1.41-2.1,2.84,2.84,0,0,1,2.26-3.09m.14.23a.94.94,0,0,0-.57.38,3,3,0,0,0-.41,1.45c0,.12,0,.3.19.29.54,0,1.09,0,1.64,0,.15,0,.34,0,.39-.19a2.1,2.1,0,0,0,.05-.75,1.45,1.45,0,0,0-.34-1A1.08,1.08,0,0,0,56.88,66.65Z"/><path id="path36" class="cls-1" d="M34.91,66.52c.21,0,.43,0,.65,0a.23.23,0,0,1,.17.26c0,1.47,0,2.94,0,4.41a.32.32,0,0,0,.24.31,8.09,8.09,0,0,0,.83.16c.1,0,.06.19,0,.18H33.48c-.11,0-.11-.1-.09-.18l.78-.2a.39.39,0,0,0,.3-.4V67.31a.39.39,0,0,0-.26-.38,3.19,3.19,0,0,0-.76-.14c-.08,0-.06-.11-.07-.17a1.49,1.49,0,0,1,.36-.05C34.13,66.57,34.52,66.53,34.91,66.52Z"/><path id="path38" class="cls-1" d="M48.19,66.56c.46,0,.92,0,1.38-.07.12,0,.29,0,.28.18,0,1.48,0,3,0,4.44a.35.35,0,0,0,.22.35,6.54,6.54,0,0,0,.86.17c.11.05,0,.21-.07.19H47.63c-.1,0-.16-.12-.08-.17.26-.11.54-.13.81-.23a.39.39,0,0,0,.25-.38V67.31a.4.4,0,0,0-.28-.39,3.7,3.7,0,0,0-.74-.13c-.07,0-.06-.11-.06-.17A2.9,2.9,0,0,1,48.19,66.56Z"/></g></g></g></svg>