<svg xmlns="http://www.w3.org/2000/svg" viewBox="0 0 455.63 72"><defs><style>.cls-1{fill:#099;fill-rule:evenodd;}</style></defs><g id="Layer_2" data-name="Layer 2"><g id="svg4403"><g id="SIEMENS"><path class="cls-1" d="M1.41,69.48V55.77a69.9,69.9,0,0,0,20.7,3.68q12.44,0,12.44-6.57a5.36,5.36,0,0,0-1.82-4.11Q30.89,47,23.24,43.86,9.55,38.24,5.38,34.26A17.7,17.7,0,0,1,0,21Q0,10.73,7.84,5.34T28.05,0Q34.9,0,47.9,2.53V15.71A48.68,48.68,0,0,0,30,11.85q-11.67,0-11.67,6.42a4.52,4.52,0,0,0,2.35,3.92q2,1.23,10.78,5.2Q44.12,33,48.32,37.2a17.19,17.19,0,0,1,5,12.79q0,11.28-9.81,17.21Q35.58,72,22.93,72A94.74,94.74,0,0,1,1.41,69.48Z"/><polygon class="cls-1" points="64.27 1.21 64.27 1.21 83.66 1.21 83.66 70.6 64.27 70.6 64.27 1.21"/><polygon class="cls-1" points="101.43 70.6 101.43 1.21 151.14 1.21 151.14 13.76 120.11 13.76 120.11 29.43 147.12 29.43 147.12 40.87 120.11 40.87 120.11 57.34 151.94 57.34 151.94 70.6 101.43 70.6"/><polygon class="cls-1" points="164.6 70.6 164.6 1.21 189.73 1.21 207.19 45.55 225.08 1.21 248.95 1.21 248.95 70.6 230.58 70.6 230.58 21.47 210.22 71.3 198.21 71.3 178.25 21.47 178.25 70.6 164.6 70.6"/><polygon class="cls-1" points="266.73 70.6 266.73 1.21 316.44 1.21 316.44 13.76 285.42 13.76 285.42 29.43 312.43 29.43 312.43 40.87 285.42 40.87 285.42 57.34 317.25 57.34 317.25 70.6 266.73 70.6"/><polygon class="cls-1" points="330 70.6 330 1.21 352.47 1.21 376.3 47.66 376.3 1.21 389.95 1.21 389.95 70.6 368.13 70.6 343.66 23.52 343.66 70.6 330 70.6"/><path class="cls-1" d="M403.71,69.48V55.77a69.27,69.27,0,0,0,20.71,3.68q12.43,0,12.43-6.57a5.47,5.47,0,0,0-1.75-4.11q-1.87-1.77-9.55-4.91-13.65-5.58-17.86-9.6A17.66,17.66,0,0,1,402.31,21q0-10.24,7.84-15.64T430.36,0A96.22,96.22,0,0,1,448.5,2.23l1.71.3V15.71a48.8,48.8,0,0,0-18-3.86q-11.62,0-11.62,6.42a4.52,4.52,0,0,0,2.35,3.92q1.86,1.18,10.83,5.2,12.6,5.64,16.86,9.81a17.18,17.18,0,0,1,5,12.79q0,11.28-9.75,17.21-8,4.8-20.64,4.8a94.76,94.76,0,0,1-21.53-2.52Z"/></g></g></g></svg>