<?xml version="1.0" encoding="utf-8"?>
<!-- Generator: Adobe Illustrator 24.3.0, SVG Export Plug-In . SVG Version: 6.00 Build 0)  -->
<svg version="1.1" id="Layer_1" xmlns:xodm="http://www.corel.com/coreldraw/odm/2003"
	 xmlns="http://www.w3.org/2000/svg" xmlns:xlink="http://www.w3.org/1999/xlink" x="0px" y="0px" viewBox="0 0 198 121.2"
	 style="enable-background:new 0 0 198 121.2;" xml:space="preserve">
<style type="text/css">
	.st0{fill:#E31E25;}
	.st1{fill:url(#SVGID_1_);}
	.st2{fill:#FEFEFE;}
	.st3{fill:#FFFFFF;}
</style>
<g id="Layer_x0020_1">
	<g id="_2306472163792">
		<path class="st0" d="M158.1,86.9L158.1,86.9C158.1,86.9,158.1,86.9,158.1,86.9L158.1,86.9z"/>
		<path class="st0" d="M158.9,86.8l-0.3,0C158.7,87,158.8,86.9,158.9,86.8z"/>
		<path class="st0" d="M158.4,86.9C158.4,86.9,158.3,86.9,158.4,86.9l-0.1,0C158.3,86.9,158.3,86.9,158.4,86.9z"/>
		<path class="st0" d="M3.3,82.8c0,0,0,0.1,0.1,0.1C3.3,82.8,3.3,82.8,3.3,82.8z"/>
		<path class="st0" d="M158.1,86.9L158.1,86.9C158.1,86.9,158.1,86.9,158.1,86.9z"/>
		<path class="st0" d="M158.1,86.9L158.1,86.9C158.2,86.9,158.2,86.9,158.1,86.9C158.2,86.9,158.2,86.9,158.1,86.9z"/>
		<path class="st0" d="M158.1,86.8c0.1,0,0.1,0,0.1,0.1l0.3,0c0,0,0,0,0,0c0,0.1-0.1,0-0.3,0C158.2,86.8,158.2,86.8,158.1,86.8
			L158.1,86.8z"/>
		<path class="st0" d="M57.3,28.2C57.3,28.2,57.3,28.2,57.3,28.2C57.3,28.2,57.3,28.2,57.3,28.2z"/>
		<path class="st0" d="M170.6,2.2C170.6,2.2,170.6,2.2,170.6,2.2C170.6,2.2,170.6,2.2,170.6,2.2z"/>
		
			<linearGradient id="SVGID_1_" gradientUnits="userSpaceOnUse" x1="1396.9961" y1="-898.1942" x2="2147.356" y2="-638.9341" gradientTransform="matrix(0.299 0 0 -0.299 -434.6218 -171.8234)">
			<stop  offset="0" style="stop-color:#E31E24"/>
			<stop  offset="0.4" style="stop-color:#E31E24"/>
			<stop  offset="0.6" style="stop-color:#C02757"/>
			<stop  offset="0.7098" style="stop-color:#972983"/>
			<stop  offset="1" style="stop-color:#972983"/>
		</linearGradient>
		<path class="st1" d="M190.3,30.7c-0.2-0.7-0.4-0.6-0.5-0.8c0.4,0.6,0,0.4,0.1,0.7c-0.4-0.5-0.3-0.2-0.3-0.2
			c-0.2-0.2-0.6-1.2-0.6-0.7c-0.4-0.9-0.7-0.6-0.6,0.1c0-0.1-0.1,0-0.1,0.2c-0.4-0.3-0.3-0.8-0.6-1.2l-0.2,0.2c0-0.1,0,0.3-0.2-0.1
			c-0.2-0.5-0.3-0.3-0.3-0.3c-0.3-0.5-1-0.8-1-0.8s-0.8-1.7-0.9-1c-0.3-1.1-1.9-0.9-2-0.6c-0.4-0.4-0.3-0.5-0.8-0.8
			c-0.1,0.2-1.8-0.5-1.6-0.9c0,0.1,0.1-0.5,0.6-1.3c0.9-0.4,2-0.9,2.6-2c0.6-0.1,1.6-1.3,2-1.7c0.7-0.8,1.4-1.5,1.8-2.4
			c-0.2,0-0.3-0.2-0.4-0.4c0.1-0.3,0-0.2-0.2-0.5c-0.2,0.6-0.8,0-0.8,0.6c-0.1,0.2-0.3-0.3-0.5-0.3c-0.4,0.2-0.7,0.3-1.1,0.4
			c0.3-0.5,0.4-0.5,0.8-1.3c-1.4,0.5-3.3,1.1-4.7,2.5c-0.1,0.1-0.3,0.1-0.5-0.1c0,0.1,0.1,0.3,0.1,0.4c-0.2,0-0.3,0.2-0.5,0.3
			c-0.4-0.6-0.9,0.7-1.1,1.2c-0.2-0.2,0-0.5,0.1-0.8c-0.1,0.1-0.4,0-0.5-0.3c0.2-0.4,0.3-0.1,0.4-0.6c-0.2-0.2-0.2,0.6-0.4,0.2
			c-0.2,0.2,0,0.3-0.2,0.5c-0.1,0-0.1,0.1-0.2,0c0-0.3,0.2-0.6,0.1-0.8c0.1-0.1,0.1,0,0.2-0.1c0,0.5,0.4,0,0.6-0.1
			c0.1,0.1,0.1,0.3,0.2,0.4c0.5-0.4,0.4-1.2,0.9-1.4c0.1,0.3-0.3,0.6-0.4,1c0.2,0,0.6-0.3,0.4-0.6c0.6,0.1,1.1-0.7,1.6-1.2
			c-0.4-0.2-0.7,0.5-1,0.8c0.1-0.8,0.7-1.2,1.2-0.9c0.4-0.5,0.8-1,1.3-0.8c1.2-1.4,2.7-1.4,3.9-2.6c-0.4-0.3-0.7,0-1.1-0.5
			c-0.3,0.2-0.7,0.3-1.1-0.1c-0.1,0.1,0,0.2-0.1,0.3c-0.3-0.5-0.5,0.1-0.8-0.1c-0.2-0.2,0-0.4,0.1-0.6c-0.4-0.2-0.6,0.2-1,0.2
			c-0.3-0.1,0.1-0.4-0.2-0.5c-0.5-0.1-0.6,0.5-1.2,0.8c-0.2-0.4,0.3-0.9,0.5-1.1c-0.1,0-0.2-0.1-0.3-0.2c0,0.1,0.1,0.2,0.1,0.2
			c-0.2,0.2-0.4-0.1-0.4,0.4c-0.1-0.1-0.1-0.3-0.2-0.4c-0.3,0.4-0.8,0.4-1.2,0.4c-0.1,0.2-0.1,0.4,0.1,0.6c-0.1,0.2-0.6-0.2-0.7-0.5
			c0.5-0.2,2.1-1,2.1-1.6c0.7-0.3,0.4-0.7,1.2-0.6c-0.1-0.3,0.1-0.2,0.3-0.3c0,0,0.1-0.1,0.2-0.1c0.1-0.1,0.1-0.2,0.2-0.2
			c0,0.1,0,0.1,0,0.1c0.2-0.1,0.3-0.4,0.5-0.4c0.3,0.2-0.1,0.4,0.2,0.4c0-0.6,0.8-0.7,1.2-0.7c0.3-0.6,0.7-0.4,1.2-0.8
			c-0.1-0.5-0.5,0-0.6,0c0.3-0.4,1.9-0.9,2.8-0.6c0.4-0.8,1.5-0.8,1.4-2.2c0.5,0.1,0.5-0.6,0.9-0.5c0.1,0.3-0.2,0.2-0.1,0.6
			c0.9-0.8,1.6-1.8,1.5-2.9c-0.3-0.2-0.7-0.3-0.7-0.8c-0.6-0.2-1.4,0-1.7-0.9c-0.1,0.5-0.6,0.4-0.6,0.9c0.1,0.1,0.1-0.1,0.2-0.2
			c0.2,0.3,0,0.2-0.1,0.4c-0.2-0.3-0.4-0.3-0.5-0.2c-0.2-0.2-0.2-0.3,0-0.6c-0.2,0-0.3,0.1-0.3,0.3c-0.5-0.5-1.2,0.2-1.7,0.6
			c-0.8-0.6-1.3,0.6-1.9,1.3l-0.1-0.1c0.1-0.9,0.8-1.1,1-1.7c-0.2-0.2-0.2,0-0.4-0.2c-0.8,1.1-1.5,0.9-2.4,1.7c0-0.1,0-0.1-0.1-0.2
			c-0.3,0.1-0.8,0.2-0.6,0.7c-0.1,0.3-0.2-0.5-0.3-0.2c-0.1-0.1,0.2-0.2,0-0.5c-0.3,0-0.3,0.6-0.2,0.8c-0.1,0.1-0.2-0.4-0.4-0.5
			c-0.3,0.3,0,0.5-0.2,0.8c-0.1,0.2-0.3-0.2-0.2-0.3c-0.3-0.1-0.1,0.4-0.2,0.5c-0.1,0-0.3-0.2-0.4-0.3c0,0.1-0.1,0.1-0.1,0.2
			c-0.4,0.2-0.8,0.3-0.9,1c-0.3-0.2,0-0.4-0.2-0.6c0.2-0.2-0.7-1-0.8-1.1c0,0,0,0,0,0c0,0,0,0,0-0.1c0,0-0.4-0.1-0.6,0.1
			c-0.2-0.3-0.1-0.6-0.3-0.9c-0.1,0.4-0.1,0.2-0.3,0.5c-0.3-0.1-0.2-0.3-0.4-0.5c-0.1,0.2-0.1,0.3-0.1,0.4c-0.2-0.1-0.1-0.3-0.3-0.4
			c-0.3,0.3-0.7,0.3-1,0.3c-0.2-0.3-0.4-0.3-0.3-0.2c-0.9-0.1-1.7,0.8-2.6,0.8c0,0.1,0.1,0.2,0.2,0.3c-0.1,0.2-0.2,0.4-0.4,0.5
			c-0.5-1.2-1.1,0.6-1.6,0.4c-0.1-1.2,0.6-1,1-1.6c-0.3-0.2-1,0.4-1,0.4c-0.2-0.1-0.2-0.2-0.2-0.3c-0.1,0.1-0.7,0.5-0.8,0.9
			c-0.3-0.2-0.2-0.4-0.1-0.6c-0.3-0.4-0.4,0-0.6-0.1c0.1,0.2,0.1,0.4-0.1,0.7c0.1,0.1,0.2-0.2,0.4,0.1c-0.2,0.2-0.4,0.3-0.6,0.1
			l-0.4,0.8c-0.2-0.4,0-0.4-0.4-0.3c-0.3-0.2,0.1-0.4-0.2-0.6c0,0.8-0.3,0.6-0.6,1.3c-0.4-0.1-0.7,0-1.1-0.1c-0.1,0.8-0.5,1-0.8,1.5
			c-0.3-0.2,0.1-0.4,0-0.6c-0.4,0.1-0.7,0.9-0.9,1.5l-0.3,0c0-0.2,0-0.3,0-0.5c-0.1,0.4-0.3,0.2-0.4,0.6c-0.7-0.7-0.7,0.6-1.3,0
			c-0.5,0.5-0.3,0.3-0.8,0.7c0.2,0.1,0,0.3,0.1,0.4c-0.1,0.1-0.3,0.1-0.4,0.4c-0.3-0.2,0-0.5,0.2-0.5c-0.1-0.3-0.7,0.2-0.6,0.6
			c-0.2,0-0.4,0.4-0.7,0c-0.3,0-0.6,0.9-0.9,0.7c-0.3-0.4,0-0.9,0.1-1.4c-0.4,0.1-0.5,0.8-1.1,0.8c-0.3-0.3-0.2-0.4-0.4-0.3
			c-0.1,0.3,0.4,0,0.2,0.4c0.2,0,0.4,0,0.5-0.2c0.2,0.4,0.1,0.4,0.4,0.3c0.1,0.1,0,0.2-0.1,0.3c-0.1,0.2-0.4-0.4-0.5-0.2
			c0,0.1-0.1,0.3,0,0.4c-0.1,0.1-0.3,0.1-0.4,0.1c-0.1-0.1-0.2-0.2-0.2-0.2c0,0,0,0,0,0.1c0-0.1,0-0.2,0.1-0.2
			c0.1-0.1,0.1,0.1,0.2,0.2c0-0.2,0-0.5-0.2-0.7c-0.3,0.8-0.8,1.2-1.2,1.5c-0.1,0-0.2,0-0.3,0c-0.3,0-0.6,0.3-0.8,0.5c0,0,0,0,0-0.1
			c0,0,0,0.1-0.1,0.1c-0.1,0.1-0.2,0.2-0.2,0.3c-0.1-0.1-0.2-0.2-0.2-0.3c0,0.2-0.2,0.4-0.5,0.7c0-0.3,0.5-0.6,0.4-0.8
			c0.2,0.3,0.3,0.1,0.1-0.1c-0.1,0.1-0.2,0.2-0.3,0.2c0,0-0.1-0.1-0.1-0.1c-0.4,0.4-0.8,0.6-1.2,0.8c-0.3-0.5,0.6-0.5,0.5-1
			c-0.2,0.1-0.3-0.1-0.4,0.3c-0.8-0.2-1.9,1-2.6,1.5c-0.1,0-0.1,0-0.2,0.1c-0.1-0.2,0.4-0.5,0-0.6c0,0.4-0.3,0.6-0.5,0.8
			c-0.2-0.2,0.4-0.5,0-0.6c0,0.5-0.3,0.7-0.5,0.8c0,0,0.1,0,0.1,0c-0.4,0.1-0.8,0.3-1.2,0.4c0,0,0-0.1,0-0.1c-0.2-0.1-0.2,0.3-0.4,0
			c0,0,0,0.1,0,0.1c-0.1,0-0.2,0.3-0.4,0c-0.1,0.1,0,0.2,0,0.3c-0.2,0-0.5,0.1-0.7,0.2c-0.6,0.1-1.1,0.3-1.7,0.6
			c-0.1-0.1-0.1-0.3,0.1-0.4c-0.2,0-0.3,0.1-0.5,0.2c0,0,0,0,0,0c-0.2,0-0.3,0.2-0.5,0.2c-0.2,0.2,0,0.3,0,0.4
			c-0.1,0-0.1,0.1-0.2,0.1c-0.1-0.1-0.2,0-0.4,0.1c0-0.1-0.1-0.1-0.2-0.2c0,0.1,0,0.2,0,0.3c-0.1,0-0.2,0-0.2,0.1
			c0-0.1,0-0.2-0.2-0.3c0,0.1,0,0.2,0,0.3c-0.1,0-0.1,0-0.2,0.1c0,0-0.1,0-0.1,0c0,0-0.1,0-0.1,0c0-0.1-0.1-0.1-0.2-0.2
			c0,0.1,0,0.2,0,0.2c-0.1,0-0.2,0.1-0.3,0.1c0-0.1-0.1-0.1-0.2-0.2c0,0.1,0,0.2,0,0.2c-0.1,0-0.1,0-0.2,0.1
			c-0.3-0.1-0.6-0.3-0.6-0.6c-0.4,0.3,0.2,0.4,0.3,0.7c0,0-0.1,0-0.1,0c-0.3-0.1-0.6-0.3-0.6-0.6c-0.3,0.3,0,0.3,0.2,0.5
			c-0.1,0.1-0.2,0.1-0.2,0.2c0,0-0.1-0.1-0.2-0.1c-0.2,0.3-0.4,0.2-0.6,0.4c-0.1,0-0.2,0-0.3,0.1c0,0-0.1-0.1-0.1-0.2l-0.1,0.2
			c-0.1,0-0.1,0-0.2,0.1c0,0-0.1-0.1-0.1-0.2l-0.1,0.2c-0.3,0.1-0.5,0.1-0.8,0.2c-0.1,0-0.1,0-0.2,0c-0.1,0-0.1,0-0.2,0.1
			c-0.1,0-0.1,0-0.2,0.1c-0.5,0.1-1.1,0.3-1.6,0.4c0-0.2,0.1-0.3,0-0.5c-0.1,0.2-0.3,0.4-0.4,0.5c0-0.1,0.1-0.3,0-0.4
			c-0.1,0.2-0.3,0.4-0.4,0.6c-0.1,0-0.2,0-0.3,0.1c0,0-0.1-0.1-0.2-0.2c0.1-0.3,0.4,0,0.5-0.3c-0.1-0.2-0.3,0-0.5,0c0,0-0.1,0-0.1,0
			c0,0-0.1-0.1-0.1-0.2c-0.1,0.2-0.2,0.2-0.3,0.3c0,0-0.1-0.1-0.1-0.2c-0.1,0.2-0.2,0.2-0.3,0.3c-0.1-0.3-0.3,0.2-0.7-0.1
			c-0.1,0.1-0.1,0.1-0.2,0.2c-0.1,0-0.1,0-0.2-0.1c-0.2,0.4-0.5,0.5-0.8,0.6c-0.1-0.1-0.2-0.2-0.3-0.5c0.1,0.4-0.1,0.4-0.2,0.5
			c-0.1-0.1-0.1-0.2-0.2-0.4c0.1,0.6-0.2,0.4-0.4,0.6c0,0,0,0,0-0.1c-0.3-0.2,0,0.5-0.3,0.1c0,0.1,0,0.1,0.1,0.2
			c-0.1-0.1-0.2,0-0.2-0.2c-0.3-0.2,0,0.5-0.3,0.1c0,0.1,0.1,0.2,0.1,0.3c-0.1,0-0.2,0-0.3,0.1c0,0,0,0,0,0c0,0,0,0,0,0
			c0-0.2,0.1-0.3-0.1-0.5c0,0.2-0.1,0.3,0,0.5c-0.1,0-0.2,0-0.3,0.1c0-0.2,0-0.3-0.1-0.5c0,0.2-0.1,0.3-0.1,0.5
			c-0.1,0-0.2,0.1-0.4,0.1c0-0.1-0.1-0.2-0.2-0.3c-0.1,0.1-0.2,0.2-0.3,0.2c0,0-0.1-0.1-0.1-0.1c0,0.1-0.1,0.1-0.1,0.1
			c-0.1,0-0.2,0-0.3,0c0,0.1,0,0.1-0.1,0.1c-0.1,0-0.2,0-0.3,0c0,0.1,0,0.2-0.1,0.3c-0.1,0-0.3,0.1-0.4,0.1c0-0.1,0.3-0.3,0-0.4
			c-0.1,0.2-0.2,0.3-0.3,0.4c0.1-0.1,0.1-0.2-0.1-0.3c-0.1,0.2-0.1,0.2-0.2,0.3c-0.1,0-0.2,0-0.3,0.1c0,0,0,0,0,0
			c-0.1,0-0.2,0-0.3,0c0,0-0.1-0.1-0.1-0.1c-0.1,0-0.2,0.1-0.2,0.3c0,0,0,0,0,0c0-0.1-0.1-0.1-0.2-0.2c0,0-0.1,0-0.1,0.1
			c-0.2-0.1-0.3,0-0.5,0.1c-0.2,0-0.4,0.1-0.7,0.3c-0.4,0.1-0.8,0.1-1.2,0.2c-0.1,0-0.2,0-0.2,0c-0.1,0-0.1,0-0.2,0c0,0-0.1,0-0.1,0
			c-0.2,0-0.3,0.1-0.5,0.1c0-0.1-0.1-0.1-0.1-0.2c-0.1,0.1-0.3,0.1-0.3,0.1c0,0,0,0,0,0c-0.1,0.1-0.2,0.1-0.3,0.1l-0.1-0.1
			c0,0,0,0.1,0,0.1c0,0-0.1,0.1-0.1,0.2c0,0-0.1,0-0.1,0l-0.2-0.2c0,0.1,0,0.2,0,0.2c-0.1,0-0.2,0-0.2,0c-0.1,0-0.1-0.1-0.2-0.2
			c0,0.1,0,0.2-0.1,0.2c-0.1,0-0.1,0-0.2,0c0,0-0.1-0.1-0.1-0.1c0,0.1,0,0.1,0,0.2c-0.2,0-0.4,0.1-0.6,0.1c0-0.1,0.1-0.1,0.1-0.2
			c-0.3,0-0.6,0.3-0.7,0.4c-0.2-0.1-0.4-0.5-0.7-0.4c0,0.2,0.2,0.3,0.3,0.5c-0.1,0-0.3,0.1-0.4,0.1c0,0-0.1-0.1-0.1-0.1
			c0,0.1,0,0.1,0,0.1c-0.1,0-0.2,0-0.3,0c0,0,0-0.1-0.1-0.1c0,0,0,0.1,0,0.1c-0.1,0-0.3,0-0.4,0.1c-0.1-0.2,0.2-0.4-0.1-0.6
			c-0.1,0.3-0.1,0.3,0,0.6c-0.1,0-0.1,0-0.2,0c0,0-0.1,0-0.1,0c0,0,0,0,0,0c0,0,0,0,0,0c0-0.1,0,0,0,0c-0.1,0-0.1,0-0.2,0
			c-0.1-0.1-0.1-0.1-0.2-0.2c-0.1-0.2,0.5-0.1,0.3-0.6c-0.3,0.3-1.6,1.2-1.5,0.3c-0.2,0-0.3,0.4-0.5,0.2c-0.1,0.6-0.6,0.5-0.9,0.8
			c-0.2,0-0.3,0.1-0.5,0.1c-0.1-0.1-0.3,0-0.2-0.3c-0.2-0.1-0.1,0.2-0.2,0.4c-0.1,0-0.2,0-0.1-0.3c-0.2-0.1-0.1,0.2-0.2,0.4
			c-0.2,0-0.3,0.1-0.5,0.1c-0.3,0.1-0.6,0.1-0.8,0.2c0,0-0.1,0-0.1,0c-0.1,0-0.3,0-0.4,0.1c-0.1,0-0.2,0-0.4-0.1
			c0,0.1,0.1,0.1,0.1,0.2c0,0-0.1,0-0.1,0c-0.1,0-0.2,0-0.3-0.1c0,0.1,0,0.1,0.1,0.1c0,0,0,0-0.1,0c0,0,0,0,0,0
			c-0.1,0-0.1,0-0.2,0.1c-0.1,0-0.1,0-0.2,0c-0.1,0-0.1,0-0.1,0c0,0,0,0-0.1,0c0,0,0,0-0.1-0.1c0,0,0,0,0,0.1c0,0-0.1,0-0.1,0
			c-0.1,0-0.2,0-0.3,0l0,0l0,0c0,0-0.1,0-0.1,0.1c0,0,0,0,0,0c-0.1,0-0.2,0-0.2,0c-0.1,0-0.1,0-0.2,0c-0.1,0-0.1-0.1-0.2-0.1
			c0,0.1-0.1,0.1-0.1,0.2c0,0-0.1,0-0.1,0c0,0-0.1,0-0.1-0.1c0,0,0,0.1-0.1,0.1c-0.7,0.1-1.4,0.3-2.1,0.4c-0.3,0-0.6,0.1-0.9,0.2
			c-0.1,0-0.1,0-0.2,0.1c-0.3,0.1-0.6,0.1-0.9,0c-0.1-0.1,0.1-0.3,0.1-0.5c-0.4-0.1-0.6,0.7-1,0.1c0,0.1,0,0.3,0.1,0.4
			c-0.1,0.3-0.2,0.1-0.3,0.4c-0.2-0.1-0.1-0.3,0-0.4c-0.2-0.2-0.4,0.1-0.6,0c0,0,0,0,0,0.1c-0.1,0-0.2,0.1-0.3,0c0,0,0,0,0,0.1
			l-0.2,0.3c0-0.1,0-0.2-0.1-0.2l0,0c0-0.1,0-0.2-0.2-0.2c-0.1,0-0.2,0.1-0.3,0.1c0,0,0,0,0,0c-0.2,0.1-0.4,0.2-0.7,0.2
			c-0.2,0.1-0.5,0.1-0.8,0.1l0,0c-0.1,0-0.2,0-0.3,0.1c0,0,0,0,0-0.1c-0.3-0.1-0.9,0.3-1,0.5c0,0,0,0-0.1,0
			c-0.1-0.3-0.3-0.3-0.5-0.1c0.1,0,0.1,0.1,0.1,0.1c0,0.1,0,0.1-0.1,0.3c-0.6,0.1-1.3,0.2-1.9,0.3c0-0.1,0-0.2-0.1-0.3
			c0.2-0.1,0.5,0,0.4-0.4c-0.2,0.1-0.2,0-0.4-0.3c0,0.4-0.2,0.3-0.2,0.6c-0.2,0.2-0.4-0.1-0.6,0.2c-0.3-0.5-0.7-0.2-1.1,0.1
			c0,0-0.1,0-0.1,0c-0.1-0.3-0.2-0.3-0.4-0.1c-0.1,0-0.1,0-0.2,0c0-0.1,0-0.2,0.1-0.2c-0.2-0.1-0.3,0-0.5,0.1
			c-0.2,0-0.4,0.2-0.6,0.3c0,0-0.1,0-0.1,0c0,0,0,0,0,0.1c-0.1,0-0.2,0-0.3,0c-0.1,0.1,0,0.2,0.1,0.3c0,0-0.1,0-0.1,0.1
			c-0.1-0.1-0.1-0.3-0.1-0.4c-0.2,0,0.1,0.4-0.3,0.3l0,0c0-0.1,0-0.1,0-0.2c-0.1,0-0.1,0-0.1,0.1c-0.1-0.1-0.2-0.2-0.1-0.4
			c-0.1,0.1-0.2,0.1-0.3,0.1c0,0,0,0,0,0c0,0,0,0,0,0c-0.2,0-0.4,0-0.5,0.1c-0.1,0-0.2,0-0.2,0.1c0-0.1,0-0.2-0.2-0.3
			c0,0.2,0,0.3-0.1,0.2c0-0.1-0.1-0.1-0.1-0.2c0,0,0,0,0,0.1c0,0,0,0,0,0c-0.1,0-0.1,0.1-0.2,0.1c0,0-0.1,0-0.1,0
			c-0.2,0.1-0.3,0.2-0.4,0.4c-0.1,0-0.2,0-0.3-0.1c0,0.5-0.5,0.3-0.8,0.4c0-0.1,0-0.3-0.1-0.4c-0.1,0.5-0.5,0.1-0.7,0.6
			c0,0.1,0,0.1,0,0.2c-0.1,0-0.1,0-0.2,0.1c-0.3,0-0.6,0.1-0.9,0.1c0.1-0.3,0.3-0.7,0.5-0.9c-0.2,0-0.4-0.2-0.6-0.2
			c-0.1,0.2,0,0.5-0.3,0.3c0,0.1,0,0.3,0,0.4c-0.2,0.2-0.2-0.2-0.5-0.3c0.1,0.7-0.9,0.9-1.1,0.2c0.1,0.4-0.3,0-0.4,0.4
			c0.2,0.3,0.4-0.2,0.6,0.1c0,0.3-0.5,0.1-0.7,0.1c0,0.1,0,0.2-0.1,0.4c-0.1,0-0.1,0-0.2,0c0-0.1,0-0.2,0.1-0.2
			c-0.1,0-0.2,0.1-0.1,0.2c0,0,0,0-0.1,0c0-0.2,0-0.3-0.2-0.3c0.1,0.3,0,0.3-0.2,0.4c0,0-0.1,0-0.1,0c-0.1-0.3-0.5,0.1-0.6,0.1
			c-0.2-0.3-2.1,0.5-2.4-0.1c-0.1-0.1-2.9,0.8-4.4,1c-0.1,0-0.1,0-0.1,0c-0.7,0.1-1.3,0.2-2,0.2c0-0.1,0-0.2-0.2-0.3
			c-0.2,0.2-0.4,0.1-0.6,0.4c-0.1,0-0.1,0-0.2,0c0-0.1,0-0.2-0.1-0.3c-0.1,0.2-0.1,0.3-0.2,0.4c-0.6,0.1-1.3,0.2-1.9,0.2
			c0-0.1,0.1-0.2-0.1-0.3c-0.2,0.3-0.5,0.1-0.4,0.4c-0.2,0-0.4,0-0.6,0.1c-0.1-0.2,0-0.5,0.2-0.3c-0.1-0.5-0.7,0.5-0.9-0.2l-0.3,0.5
			c0.1,0,0.1,0.1,0.1,0.1c-0.1,0-0.2,0-0.2,0c0,0,0,0,0,0c0,0,0,0,0,0.1c-0.3,0-0.5,0.1-0.8,0.1c-0.2-0.1-0.3-0.2-0.6-0.2
			c-0.3,0.5-1.2-0.1-1.7,0.3c0,0.1,0,0.1,0.1,0.2c-0.1,0-0.2,0-0.3,0c0,0,0,0,0,0c-0.2-0.2-0.4-0.2-0.4-0.4
			c-0.1,0.1-0.2,0.3-0.3,0.5c-0.2,0-0.3,0-0.5,0.1c0,0-0.1,0-0.1,0c0,0-0.1-0.1-0.1-0.1c-0.2,0-0.5,0.5-0.5,0
			c-0.4,0.5-0.9,0.4-1.4,0.4c-0.3-0.2,0.2-0.5-0.1-0.7c-0.3,0.3,0.2,0.5-0.1,0.7c-0.2,0.3-0.3-0.4-0.6-0.6c-0.1,0.2-0.3,0-0.5,0.1
			c0-0.2-0.1-0.4-0.3-0.6c0,0.1,0,0.3-0.2,0.3c-0.1,0.2,0.2,0,0.3,0.3c-0.1,0.3-0.3,0.1-0.5,0.1c-0.1,0.2,0.3,0.3,0.3,0.2
			c0,0.2,0,0.4,0,0.6c-0.2,0-0.3-0.2-0.3,0.2c-0.3-0.3,0-0.3,0-0.6c-0.3-0.2-0.2,0.2-0.3,0.4c-0.3,0.2-0.6,0-0.8,0.1
			c-0.1-0.2,0.1-0.5,0.1-0.7c-0.3-0.1-0.6-0.7-0.9-0.4c-0.2-0.3-0.3,0.2-0.4,0.3c0.1,0.2,0.1,0.3,0,0.5c-0.2,0.1-0.2-0.4-0.4,0.1
			c-0.3-0.1,0.1-0.3-0.2-0.5c0.1,0.5-0.2,0.5-0.5,0.3C56.1,29,56.4,29,56.5,29c-0.1,0.2-0.2,0.1-0.3,0.3c-0.1-0.2-0.5-0.3-0.4-0.5
			c-0.1,0-0.5,0.5-0.4,0c-0.2-0.1-0.2,0.7-0.5,0.5c-0.1-0.1,0.1-0.3,0.1-0.4c-0.3,0-0.9-0.4-1,0.1c-0.1,0.1-0.5,0-0.3-0.3
			c-0.1,0-0.2,0.3-0.2,0.3c0.3,0.4-0.1,0.4-0.1,0.8c-0.2-0.3-0.2,0.1-0.3,0.2c-0.1-0.1-0.1-0.2-0.1-0.3c0.1,0.2-1.4,0.1-1.6,0.1
			c-0.3,0-0.6,0.2-0.9,0.2c-0.7,0.1-1.5,0.1-2.2,0.4c-0.1-0.1,0-0.2,0.1-0.3c-0.2-0.1-0.3-0.1-0.5,0.2c-0.2-0.5-0.3,0-0.5-0.3
			c-0.2-0.2,0.4-0.4,0-0.6c-0.1,0.5-0.3,0.2-0.8,0.2c-0.1,0.4-0.3,0.7-0.7,0.2c-0.2,0.4-0.4,0.1-0.5,0.5c-0.8-1-1.8-0.1-3-0.5
			c0.1,0.3-0.2,0.7-0.3,0.2c-0.2,0.2-0.1,0.4-0.1,0.6c-0.1,0-0.1,0.1-0.2,0c0-0.2-0.1-0.5,0.1-0.7c-0.4-0.3,0,0.7-0.5,0.2
			c0,0.6-0.2,0.4-0.5,0.4c-0.1-0.2,0-0.4,0.1-0.6c-0.6,0.5-1.5,0.5-2.2,0.4c-0.3-0.1-0.4-0.1-0.6-0.3c-0.1-0.1-0.3-0.2-0.5-0.2
			c-0.2,0-0.3,0-0.5,0.1c-0.1,0-0.5,0.4-0.4,0.5c-0.2-0.2,0.2-0.4-0.1-0.6c-0.2,0.5-0.8,0-1.2,0.1c-0.1,0.1,0,0.3-0.1,0.4
			c0-0.1,0-0.3-0.1-0.4c-0.2,0-0.1,0.1-0.2,0.3c-0.1-0.1,0.1-0.2,0-0.3c-0.3-0.3-0.5,0-0.4,0.4c-0.1-0.1-0.1-0.1-0.2-0.1
			c-0.1-0.1,0-0.2,0.1-0.3c-0.6,0-1.5-0.5-1.8,0.2c-0.6-0.4-0.4,0.2-0.7-0.1c0,0.1-0.1,0.3-0.2,0.4c-0.1,0.1-0.1,0.2-0.2,0.2
			c0,0-0.1,0.1-0.1,0.1c0,0,0,0-0.1,0c0,0,0,0,0,0c0,0,0,0,0,0c0,0,0,0-0.1,0c0,0-0.1,0-0.1,0c0,0-0.1,0-0.1,0.1c0,0,0-0.2,0-0.2
			c0-0.1,0,0.1-0.1,0.3c0,0,0,0,0,0c0,0,0,0,0,0c0-0.2-0.1,0.2-0.1-0.2c0,0.1-0.1,0.1-0.1,0.2c0,0-0.2-0.1-0.3-0.1
			c-0.1,0-0.2-0.1-0.3-0.1c-0.1,0-0.1,0-0.2,0c0,0-0.1,0-0.1,0c-0.1-0.1,0-0.2,0.1-0.3c-0.2,0-0.3-0.1-0.5,0.1
			c-0.1,0.1-0.1-0.2-0.3,0.1c0-0.1,0.1-0.2,0.1-0.3c0,0-0.1,0.1-0.1,0c0-0.1,0-0.1,0.1-0.2c-0.1,0-0.1,0.1-0.1,0.2
			c0,0.1,0,0.1-0.1,0.2c0,0.1,0,0.1-0.1,0.1c0,0-0.1,0-0.1,0c0,0-0.1-0.1-0.1-0.1c-0.1,0-0.1,0.1-0.1,0.2c0-0.1,0,0-0.1,0
			c-0.1,0-0.1-0.1-0.2-0.1l0,0.1c0,0,0,0,0,0c-0.1,0-0.1,0-0.2,0c0,0,0,0-0.1,0c0,0,0,0,0,0c0,0,0,0,0-0.1l0,0.1c0,0,0,0,0,0
			c0-0.1,0-0.2-0.2,0c0,0,0,0,0,0c0-0.2,0-0.6,0-0.6c0,0,0-0.1,0-0.1c0,0,0-0.1,0-0.1c0,0,0,0-0.1,0c0,0,0-0.1,0-0.1c0,0,0,0,0,0
			c0,0-0.1,0.1-0.1,0.1c0,0-0.1,0.1-0.1,0.1c0,0-0.1-0.1-0.1-0.1c0,0.1,0,0.3-0.1,0.3c-0.1,0-0.1-0.5-0.2-0.1c0,0,0-0.1,0-0.1
			c-0.1,0.1-0.2,0.1-0.3,0.4c0.1-0.8-0.4,0.3-0.3-0.4l-0.2,0l0-0.1c-0.1-0.1-0.2,0.1-0.2,0.3c0-0.1,0-0.1,0-0.2
			c-0.1-0.2-0.1-0.1-0.3,0.2l0-0.2c-0.1,0.1-0.2-0.4-0.3-0.1c0,0,0-0.1,0-0.1c-0.2,0.3-0.3-0.7-0.5,0.2l-0.1,0.2c0,0,0.1,0.1,0,0.1
			c-0.1,0,0-0.1-0.1-0.1c0,0,0,0-0.1,0c0,0,0,0,0-0.1c0,0,0-0.1,0-0.1c-0.2,0-0.3-0.1-0.4-0.1c-0.1,0-0.1-0.1-0.2-0.1
			c-0.1,0-0.1-0.1-0.2,0c0,0-0.1,0.1-0.1,0.1c0,0-0.1,0-0.1-0.1c0,0,0,0,0,0c0,0,0,0,0,0c0,0-0.1,0-0.1,0c0,0,0,0,0,0c0,0,0,0,0,0
			c0,0-0.1,0-0.1,0l0,0.3c-0.1,0.1-0.1,0-0.1,0.3c-0.1-0.5-0.4-0.2-0.5-0.3C23.4,30,23.3,30,23.2,30c0,0.1,0,0.4,0,0.3
			c0-0.7-0.1-0.3-0.2-0.7c0.1,0.3-0.2,0.1-0.1,0.5c-0.1,0,0-0.2-0.1-0.4c-0.1,0.3-0.3-0.1-0.5,0c0,0.1,0.1,0.2,0,0.3l-0.2-0.4
			c0,0,0,0.5-0.1,0.2c0,0.1,0,0.2,0,0.2c-0.2-0.2-0.4-0.1-0.6,0c-0.2,0.1-0.4,0.1-0.7-0.2c0.1,0.1,0.1,0.2,0,0.2c0,0,0,0,0,0.1
			c0,0,0,0,0,0.1c0,0,0,0,0,0c0,0,0,0,0,0c-0.1,0-0.1,0-0.1-0.1c0,0-0.1,0-0.1-0.1c0,0.2,0,0.1-0.1,0.2c-0.1,0.1-0.1,0.3-0.2,0.4
			c-0.1,0.2-0.3,0.1-0.4,0c-0.3,0.2-0.7,0.1-0.9,0.4c-0.5-0.5-0.4,0.1-1,0.7c0.2-0.1,0.4-0.2,0.6-0.2c0.2,0,0.4,0,0.6,0.1
			c0.2,0,0.4,0.1,0.6,0.2c0.1,0,0.1,0.1,0.2,0.1c0,0,0.1-0.1,0.1-0.1c0.2,0.5,0.9,0.4,1.3,0.1c0.2,0.2,0.1,0.4,0.3,0.1
			c0.7,0.5,1.3,0.5,1.9,0.2c0.1,0.5,0.7,0.1,0.5,0.6c0-0.2,0.3-0.2,0.4-0.1c0.2,0.3-0.4,0.3-0.6,0.4c-0.3,0.1-0.7,0.2-1,0.3
			c-0.6,0.2-1.2,0.6-1.8,0.9c-0.2-0.1-0.3-0.2-0.5-0.3c0.3-0.3,0.3-0.5,0.5-0.7c-0.6,0.1-1.1,0.7-1.5,0.2c0.1,0.7-0.3,1-0.1,1.8
			c-0.3-0.1-0.6-0.2-0.9-0.3c0,0.2,0.3,0.3,0.2,0.5c-0.1,0.3-0.3,0-0.4-0.1c0.1,0.4-0.1,0.5-0.3,0.7c-0.2-0.3-0.6-0.7-0.6-0.2
			c-0.2-0.2-0.2-0.5-0.4-0.4c-0.1-0.3,0-0.2,0.1-0.4c0,0-0.5,0-0.6,0c-0.2,0.1-0.4,0.2-0.5,0.3c-0.1,0.1-0.3,0.1-0.4,0.3
			c-0.1,0.1-0.1,0.3-0.1,0.4c-0.1,0.2-0.2-0.1-0.3-0.2c-0.1,0-0.1,0-0.2,0.1c0,0-0.2-0.1-0.2-0.1c0,0.3-0.4,0.2-0.3-0.1
			c-0.3,0.6-0.9,0.4-1.5-0.1c0.1,0.1-0.2,0.6-0.2,0.6c0,0-0.1,0.1-0.1,0.1c-0.1,0-0.2,0.1-0.3,0.1c0,0-0.1,0-0.1,0
			c-0.1,0-0.2,0-0.3-0.1c-0.1,0.1-0.3,0.1-0.5,0.1c0,0-0.5-0.2-0.4-0.3c-0.3,0.3-0.4-0.2-0.7,0.1c-0.2-0.3,0.2-0.1,0.2-0.3
			c-0.4-0.3-0.7,0.1-1-0.1c-0.1,0.3-0.1,0.3-0.1,0.7c-0.2-0.1-0.6,0.1-0.6,0.5c-0.3-0.1,0.1-0.3-0.2-0.5c-0.1-0.1-0.3,0.1-0.4,0.1
			c0,0-0.1,0-0.1,0c0,0-0.1,0-0.1,0c-0.1,0-0.1-0.1-0.1-0.2c0,0,0.1-0.1,0.1-0.1c0,0,0-0.1,0-0.1c-0.1,0-0.3-0.1-0.4,0
			C7.8,36,8,35.9,7.8,35.7c-0.3,0.3-0.9,0.7-1,0.3c-0.1-0.1-0.1,0.1,0,0.2c-0.2,0.1-0.4,0.2-0.7-0.2c-0.1,0.3-0.3,0.1-0.4,0.4
			c0.2-0.3,0.6,0.5,0.8,0c0.2,0.4,0,0.6,0.4,0.8c-0.3,0.6-0.5,0-0.6,0c-0.2,0.4,0.3,0.3,0.3,0.6c0.1-0.3,0.2-0.3,0.4,0
			c0,0,0.1-0.2,0.1-0.2c0.1,0,0.1-0.1,0.2-0.1c0,0,0.1,0,0.1,0c0,0,0.1,0,0.1,0.1c0,0,0,0,0,0c0,0,0,0,0.1,0c-0.2-0.5,0.3,0,0.5,0
			c0,0.1,0,0.4-0.1,0.4c0.2,0.1,0.6,0.4,0.8,0.2c0.3,0.7,0.6,0.2,0.9,0.8c0.1-0.1,0.2-0.1,0.2-0.2c0-0.1,0.1-0.2,0.2-0.1
			c0.1,0,0.1,0.1,0,0.2c0,0.1-0.1,0.1,0,0.1c0,0.1,0.1,0.1,0.2,0.2c0.1,0,0.1,0,0.2,0c0.1,0,0.1,0,0.2,0c0,0,0.1,0,0.1,0
			c0.1,0,0,0,0.1,0c0,0,0,0,0.1,0c0.5,0.1,1,0.2,1.4,0.3c0.1,0.1,0.3,0.1,0.4,0.1c0.1,0,0.3,0,0.4,0.1c0.1,0,0.2,0,0.2-0.1
			c0,0,0.5,0,0.6,0c0.2,0,0.4,0.1,0.6,0.1c0-0.1,0-0.1,0.1-0.1c0.1-0.1,0.1,0,0.2,0.1c0.1,0,0.2,0.1,0.3,0.2l0.2-0.3
			c0.1,0,0.2,0,0.3,0.1c0.1,0.2,0,0.4-0.1,0.6c0.5,0.1,0.2-0.8,0.7-0.5c0,0,0-0.1,0-0.1c0,0,0,0,0-0.1c0,0,0.1,0,0.1,0
			c0,0,0.1,0,0.1,0c0,0,0,0,0.1,0c0.1,0,0.2,0.2,0.2,0.2c0.1,0.1,0.2,0.1,0.3,0.2c0.2,0.1,0.4,0.2,0.6,0.3c-0.3,0.2-1.3-0.2-1.2,0.4
			c-0.4,0-0.8-0.2-1.1-0.1c0,0.1,0,0.2-0.1,0.2c0,0-0.1,0-0.1,0c-0.1,0-0.1-0.1-0.2-0.2c0,0-0.1,0.1-0.1,0.2c0,0-0.1,0.1-0.1,0.1
			c0,0-0.1,0.1-0.1,0.1c0,0,0,0,0,0c0,0,0,0,0,0c0,0.1-0.1,0.1-0.2,0.2c-0.1,0.1-0.1,0.1-0.1,0.2c-0.2-0.1-0.1-0.3-0.3-0.5
			c-0.2,0.4-0.2,0-0.4,0c0,0-0.1,0.1-0.2,0.1c-0.1,0-0.1,0.1-0.2,0.1c-0.1,0-0.3-0.1-0.4-0.2c-0.2-0.1,0-0.3,0.1-0.3
			c0-0.1,0-0.2-0.1-0.2c-0.2,0.4-0.3,0.4-0.5,0.1c0,0-0.1,0.2-0.1,0.3c0,0.1,0,0.2-0.1,0.2c0,0-0.1,0-0.1,0c0,0-0.1,0-0.1,0
			c-0.1,0,0-0.1-0.1-0.1c-0.2-0.4-0.3,0-0.5-0.3c-0.1,0.1,0,0.2,0,0.3c0,0-0.1,0-0.1,0c0,0,0,0-0.1,0c-0.1,0-0.3-0.1-0.4-0.1
			c-0.1,0-0.1,0-0.2,0c-0.1,0-0.1,0-0.2,0c0,0-0.1,0-0.1,0c-0.1,0-0.1,0.1-0.2,0.2c-0.1,0.1-0.4,0-0.4-0.1c0,0,0,0,0,0c0,0,0,0,0,0
			c-0.2,0.1-0.3-0.1-0.5-0.1c0,0,0,0,0,0c0,0,0,0,0,0c-0.1,0.1-0.2,0.1-0.4,0.1c-0.1,0-0.2-0.1-0.3-0.2c0,0,0,0,0,0
			c-0.1,0-0.2,0.3-0.3,0.3c0,0-0.2,0-0.2,0c0,0.4,0.1,0.5-0.1,0.7C8,41.8,8.1,41.9,8.2,42c0.1,0.1,0.2,0.2,0.2,0.3c0,0,0-0.1,0-0.1
			c0,0,0.1,0,0.1,0c0.1,0,0.3,0.1,0.4,0.1c0,0,0.1,0.1,0.1,0.1c0.1,0,0.1,0,0.1-0.1c0,0,0,0,0.1,0c0.2,0.1,0.5-0.1,0.5,0.3
			c0,0,0.3,0,0.3,0c0.1,0,0.2-0.1,0.3,0c0.1,0,0.1,0.1,0.2,0.1c0,0,0,0,0.1,0c0,0,0.1,0,0.1,0c0.1,0-0.1,0.1-0.2,0.1
			c0,0-0.1,0-0.1,0.1c0,0-0.1,0.1-0.1,0.1c0.1,0,0.2,0,0.3,0c0.1,0,0.1,0.1,0.3,0.1c0,0,0,0,0,0c0,0,0,0,0,0c0.1,0,0.1,0,0.2,0
			c0.1,0,0.2-0.1,0.4-0.1c0.1,0,0.2,0,0.3,0.1c0.2,0.1,0.5,0.2,0.7,0.1c0,0,0,0,0,0c0,0,0.1,0,0.1,0c0,0,0-0.1,0-0.1c0,0,0,0,0,0
			c0,0,0.1,0,0.1,0c0,0,0,0,0,0.1s0,0,0.1,0c0.1,0,0.1,0,0.2,0c0.1,0,0.3,0,0.4,0c0.1,0,0.3,0,0.4,0c0,0,0.4,0,0.4,0
			c0,0.1,0.1,0.4,0,0c0.4,0,1,0,1.4,0c-0.1,0.1,0.1-0.3,0.2,0l0.1,0.1c0,0,0,0,0.1,0c0,0,0.1,0,0.1,0c0.1,0,0.1,0,0.1,0.1
			c0,0,0,0,0.1,0.1c0,0,0.1,0.1,0.1,0.1c0,0,0,0,0,0c0,0,0,0,0,0c0,0-0.1,0.1-0.1,0.1c-0.1,0-0.2,0-0.2,0c0,0-0.1,0-0.1-0.1
			c-0.1,0-0.1,0-0.2,0c-0.1,0-0.1,0.1-0.1,0.1c0-0.1,0-0.1,0-0.2c0,0-0.1,0.1-0.1,0c0-0.1,0-0.1,0.1-0.1c-0.1,0-0.2,0.3-0.2,0.6
			c-0.1-0.1,0-0.4-0.1-0.2c0-0.1,0,0,0,0c-0.1,0-0.2-0.1-0.3,0.1c0-0.1-0.1,0-0.1,0c-0.1,0-0.1,0-0.2,0l0,0
			c-0.1,0.3-0.1,0.1-0.2,0.1l0,0c-0.2-0.2-0.1,0.1-0.3-0.2c0-0.1,0-0.1,0-0.2c0,0.1-0.1,0.2-0.1,0.3c0-0.1-0.1-0.1-0.1-0.1l0,0.1
			c-0.1,0.1-0.1-0.5-0.2-0.6c0,0,0,0,0,0c0,0.1-0.1,0.2-0.1,0.2c0-0.1,0-0.2,0-0.2c0-0.1-0.2,0.3-0.3,0c0,0.1,0,0.2,0,0.3
			c-0.1,0-0.2-0.4-0.3-0.1c0,0,0-0.1,0-0.1c-0.1,0.1-0.2,0.1-0.3,0.3c0-0.3-0.1-0.3-0.2-0.2c0-0.1-0.1-0.1-0.1-0.2
			c0,0.1-0.1,0.1-0.3,0.1c0,0-0.1,0-0.1-0.1c-0.1,0-0.1,0.1-0.1,0.2c0,0,0-0.1,0-0.1c-0.2-0.1-0.2-0.1-0.4,0.2c0-0.1,0-0.2-0.1-0.2
			c0,0-0.1,0-0.1,0c0,0,0,0-0.1,0c0,0-0.1,0-0.1,0c-0.1,0-0.1,0-0.2-0.1c0,0-0.1-0.1-0.1-0.1c0,0-0.1-0.1-0.1-0.1
			c-0.1-0.1-0.2,0.2-0.2,0.3c0,0-0.1,0.1-0.1,0.1c0,0,0.1,0,0.1,0.1c0,0,0,0-0.1,0c0,0,0-0.1-0.1-0.1c0,0,0,0-0.1,0c0,0,0,0-0.1,0
			c0,0,0-0.1,0-0.1c-0.2,0-0.3-0.1-0.5-0.1c-0.1,0-0.1-0.1-0.2-0.1c-0.1,0-0.1-0.1-0.2-0.1c0,0-0.1,0-0.1,0c0,0,0,0,0,0
			c0,0,0,0-0.1,0c0,0,0,0,0,0c0,0,0,0-0.1,0c0,0,0,0-0.1,0c0,0,0,0,0-0.1c0,0-0.1,0-0.1,0c0,0,0,0,0,0c0,0,0,0,0,0c0,0,0,0,0,0
			c0,0,0,0,0,0l-0.1,0c0,0.1,0,0.1-0.1,0.2c0,0-0.1,0-0.1,0c0,0,0,0-0.1,0c0,0,0,0,0,0c0,0-0.1,0-0.1,0c0,0-0.2,0-0.2-0.1
			c0,0.1-0.1,0.1-0.1,0.1c-0.1,0-0.1,0-0.1,0c0,0,0,0.1,0,0.1c0,0-0.1-0.1-0.1-0.1c0,0,0,0,0-0.1c0,0,0,0-0.1-0.1
			c-0.1-0.1-0.1-0.1-0.1-0.2c0,0.2-0.3,0-0.2,0.4c-0.1,0,0-0.2,0-0.3C7.5,43.3,7.3,43,7.1,43c0,0.1,0,0.2,0,0.3L6.9,43
			c0,0-0.1,0.4-0.1,0.1c0,0.1,0,0.1,0,0.2c-0.4-0.4-0.9,0.2-1.3-0.5c0,0.1,0,0.1,0,0.1c0,0,0,0.2,0,0.3l-0.2-0.3
			c-0.1,0.2-0.2,0-0.2,0.2l0.1,0c-0.1,0.3,0,0.6,0,1c0.1-0.3,0.2,0.5,0.4,0.1c0,0.1,0,0.1,0,0.2c0.1-0.1,0.1-0.2,0.2-0.1l0,0
			c0,0,0.1,0,0.1,0c0,0,0.1,0,0.1,0.1c0.1,0.1,0.2,0.2,0.3,0.2c0,0,0-0.1,0.1-0.1c0,0,0.1,0,0.1,0c0.1,0,0.1,0,0.2,0.1
			c0,0,0,0,0,0.1c0,0,0,0.1,0,0.1c0,0,0,0,0,0c0,0,0.1,0,0.1,0c0,0,0.1,0,0.1,0.1c0,0,0,0,0,0c0,0,0,0,0,0c0.1,0,0.2,0,0.3,0
			c0,0,0.1,0,0.1,0c0,0,0.1,0,0.1,0c0.1,0,0.3,0,0.4-0.1l0-0.1c0.2-0.1,0.1,0.1,0.3,0.1l0,0c0-0.1,0.1-0.1,0.1-0.1
			c-0.1,0.1,0.1,0.2,0,0.3c0-0.1,0.1-0.1,0.1-0.1c0,0,0-0.1,0-0.1c0,0,0.1,0,0.1,0c0.1,0,0.1,0.1,0,0.2c0.2,0.3,0.3-0.3,0.4,0.2
			c0-0.2,0.3-0.2,0.3,0c0,0,0,0,0,0c0,0.1,0.2-0.1,0.2,0c0.2-0.4,0.5-0.2,0,0c0,0.1,0.4,0.1,0.4,0.1c0,0,0,0.1,0,0.1
			c0.1-0.2,0.4,0.4,0.2-0.1c0.3,0.1,0.7,0.1,0.9,0.4c-0.1,0.1,0.1,0.4,0.2,0.1l0.2,0.1c0-0.1,0-0.1,0-0.2l0.1,0c0,0.1,0.1,0,0,0.1
			c0,0,0,0,0,0c0,0.2,0,0.3-0.1,0.4c0,0-0.1-0.1-0.1-0.1c0,0.1,0,0.2,0,0.3C11,46,10.9,46,10.8,46c-0.1,0-0.1,0-0.2,0c0,0,0,0-0.1,0
			c0,0,0,0-0.1,0c-0.1,0-0.1,0-0.2-0.1c0,0-0.1,0-0.1,0c0,0,0-0.1,0-0.1c-0.1,0-0.2,0-0.3-0.1c0,0,0,0-0.1,0c0,0,0,0,0,0
			c0,0-0.1,0.1-0.1,0.1c0,0,0,0,0,0c0,0,0,0,0,0c-0.1,0-0.7-0.3-0.6,0L9,45.7c0,0.2-0.1,0-0.1,0.2l0,0c0,0.1,0,0.1,0,0.2
			c-0.1,0-0.3-0.1-0.4-0.2c-0.1,0.2-0.2,0.4-0.1,0.7l0.2-0.1c0.1,0.2,0,0.3,0,0.5c0,0,0,0,0,0c0,0,0,0,0,0.1c0,0,0,0.1,0,0.1l0-0.2
			c0,0,0,0.4-0.1,0.1c0,0.1,0,0.1,0,0.2c-0.2-0.3-0.5,0.2-0.6-0.4c0,0.1,0,0.1,0,0.1c0,0,0,0.2,0,0.2l-0.1-0.2c0,0.2-0.1,0-0.1,0.2
			l0,0c0,0,0,0.1,0,0.1c-0.1,0-0.1,0.1-0.1,0.3l0.1,0.2c0,0.1,0,0.2,0,0.3c0-0.2,0.1,0,0.1,0.1c-0.2,0.4-0.4,0.9-0.6,0.8
			c0,0.1,0,0.2,0.2,0.2c0.1,0,0.1,0,0.2,0c0.1,0,0.1,0,0.2,0C7.5,49,7.6,49,7.6,49c0.1,0,0.2,0.2,0.3,0.2c0.1,0.1,0.3,0.3,0.3,0.4
			c0-0.2-0.1-0.4,0.1-0.3c0-0.1,0-0.1,0-0.2l0,0l0,0c0,0,0,0,0,0c-0.1-0.1-0.1-0.2-0.1-0.3c0-0.1,0-0.2,0.1-0.2c0,0,0.1-0.1,0.1,0
			l0-0.1c0,0,0,0,0,0c0.1-0.1,0.4,0,0.5,0.1c0,0,0.1,0.1,0.1,0.1c0.1,0.1,0.2,0.1,0.2,0.3c0,0.1,0,0.2-0.1,0.3l0.3,0
			c0.2,0.3,0.4,0.4,0.5,0.1c0.1,0.1,0.3-0.6,0.2-0.2c0,0,0.2-0.1,0.2-0.2c0.1-0.1,0.2-0.1,0.4-0.1c0.1,0,0.2,0.1,0.3,0.1
			c0.1,0,0.1,0,0.2,0c0.2,0,0.5,0,0.7,0c0.1,0,0.2,0,0.4,0.1c0.1,0,0.2,0.1,0.3,0.1c0.2,0,0.2,0.1,0.4,0.1c0.1,0.1,0.2,0,0.2-0.1
			c0.1,0.3,0.2,0.5,0.3,0.5c-0.1,0.1-0.1,0.4-0.3,0.2c0.1,0.4,0,0.4-0.2,0.7c-0.2-0.2,0-0.3-0.4-0.1c0,0.1-0.1,0.1-0.2,0.1
			c-0.1,0-0.2,0.1-0.2,0.1c-0.1,0-0.1,0-0.2,0c-0.1,0-0.3,0-0.4,0.1c-0.1,0-0.2,0-0.3,0.1c-0.1,0-0.1,0-0.2,0c0,0-0.1,0-0.1,0
			c0,0-0.1,0.1-0.1,0.1c0,0,0,0-0.1,0c-0.1,0-0.2,0-0.3,0c0,0,0,0-0.1,0.1c0,0,0,0.1,0,0.1c0,0,0,0.1,0,0.1c0,0,0,0.1,0,0.1
			c-0.1,0.1-0.2-0.2-0.2-0.3c0-0.1,0-0.1-0.1,0c-0.1,0.1,0,0.2-0.2,0.3c-0.1,0-0.1,0-0.2,0c0,0-0.1,0-0.1,0c-0.1,0-0.2-0.1-0.3-0.1
			c-0.2,0-0.3,0-0.4,0c-0.1,0-0.1,0-0.2,0c-0.1,0-0.1,0.1-0.2,0.1c-0.1,0-0.1,0-0.2,0c-0.1,0-0.3,0-0.4,0.1c0,0-0.1,0-0.1,0.1
			c-0.1,0-0.2,0-0.2-0.1c0,0,0,0-0.1,0c0,0-0.1,0-0.1,0c-0.1,0-0.4,0.1-0.5-0.1c0,0-0.1-0.2-0.1-0.2c0,0.3-0.1,0,0,0.3
			c0-0.1-0.1,0.1-0.1,0.1c0,0.1,0,0.1,0,0.2c0,0,0,0.1,0,0.1c0,0,0,0-0.1,0c-0.3,0.1-0.4-0.3-0.4-0.5c0,0-0.1,0.3-0.1,0.2
			c0.4,0.2-0.2,1.1-0.4,1.2c-0.2-0.9,0.6-0.6-0.2-1c0,0,0,0.2,0,0.2c0,0,0,0.1,0,0.1c0,0,0,0.1,0,0.1c0,0,0,0-0.1,0.1
			c0,0-0.1,0-0.1,0c0,0-0.1,0-0.1,0c0,0,0,0,0,0c0,0,0,0,0,0c0,0,0,0.1,0,0.1c0,0.5-0.2,1.1,0,0.5c0.2,1.1,0.2-0.4,0.4-0.2
			c0.1,1.3,0.3-0.1,1.1,0.6c0.1,0.1,0,0.2,0.1,0.3c0.1,0,0.1,0,0.2-0.1c0.1-0.1,0.1-0.2,0.1-0.2c0.1-0.1,0.2-0.1,0.3-0.1
			c0,0,0.1,0,0.1,0c0.1,0,0.1,0,0.2,0C7.7,53.1,7.8,53,8,52.9c0.1-0.1,0.3-0.2,0.4-0.1c0.1,0,0.3,0.1,0.4,0.1c0.1,0,0.1,0,0.2,0.1
			c0.1,0,0.2,0,0.3,0c0,0,0.1,0,0.1,0c0,0,0,0.1,0,0.1c0.1,0.1,0.1,0,0.2-0.1c0,0.1,0,0.3,0,0.3c0.1-0.1,0-0.3,0.2-0.4
			c0.1,0,0.1,0,0.2-0.1c0.1,0,0.2-0.1,0.3-0.1c0.4-0.1,0.8,0.3,1.2,0.2c0.1,0,0.2-0.1,0.3-0.1c0.1,0,0.2,0,0.2,0
			c0.1,0,0.2,0,0.3-0.1c0.1,0,0.1,0,0.2,0c0.1,0,0.2-0.2,0.2-0.3c0.2,0.7,1.2,0.6,0.8-0.6c0.4,0.3,0.1,1.6,0.7,1
			c0.1,0.5-0.6,0.9-0.9,0.4c-0.4,0-0.7,1.1-1.2,0.6l-0.2,0.3c-0.2-0.1,0-0.3,0-0.5c-0.3-0.1-0.4,0.5-0.7,0.2
			c-0.2-0.3,0.2-0.2,0.3-0.4c-0.7,0.3-1.3,0.6-1.8,0.1c-0.2,0-0.4,0-0.6,0.4c0.2,0.1,0.2,0.2,0.1,0.4c-0.3-0.4-0.9,0.2-1.4-0.2
			c0.1-0.2,0.2-0.4,0.4-0.3C8,53.5,7.3,53.6,7,53.5c-0.2,0.4,0.2,0,0.3,0.4c-0.2,0.3-0.4,0-0.6,0.4c0.1,0.1,0.1,0.3,0,0.4
			C6.9,54.9,7,54.7,7,55c-0.1,0-0.2,0.1-0.2,0.2c-0.4-0.6-0.4-0.4-0.9-0.6c0.2-0.4,0.4,0.2,0.6-0.2c-0.2-0.3-0.3-0.1-0.5-0.4
			c0.2,0.3-0.4,0.6-0.6,0.6c-0.1-0.1,0-0.2,0.1-0.3c-0.2-0.4-0.3,0-0.5-0.3c-0.1,0.2,0.2,0.3,0.2,0.5c-0.4,0.3-0.9-0.1-1.3,0.2
			c0,0.4,0.3-0.1,0.5,0.1c0,0.1,0,0.2,0.1,0.2c-0.3-0.1-0.4,0.2-0.7,0.4c0.1,0.4,0.3,0.3,0.4-0.1c0.3,0.2-0.2,0.5,0.2,0.5
			c-0.1,0.1,0,0.3-0.1,0.4c0.1,0,0.1,0,0.2,0.1c0.2-0.2,0.1-0.4,0.2-0.6c0.4,0,0.7,0.1,1.1-0.2c0.5,0.8,0.9,0,1.4,0.2
			c0,0.6-0.7,0.3-0.6,0.8c0.6-0.3,1.1,0.2,1.8-0.5c0,0,0.2,0.3,0.3,0.3c0.1,0.1,0.2,0,0.4,0c0.1,0,0.3,0,0.4,0c0.1,0,0.2,0,0.3-0.1
			C9.8,56.1,10,56,10.3,56c-0.5,0.4-0.8,0.8-1,0.8c0.2,0.6,0.9-0.3,1.2-0.5c0.1,0.4,0.5,0.3,0.7,0.2c0-0.1-0.1-0.2,0-0.3
			c0.1,0,0.1,0,0.2-0.1c0,0.1-0.1,0.3,0.1,0.4c0.5,0,1-0.4,1.5-0.5c0,0.1,0,0.2,0.1,0.2c0.1,0,0.1-0.1,0.2-0.2c0,0,0.1,0,0.1-0.1
			c0,0,0.1,0,0.1,0c-0.3,0.3,0.4,0.2,0.2,0.6c0.2,0.1,0.3-0.4,0.5-0.4c0.2,0.3-0.2,0.5-0.4,0.6c-0.1,0.2,0.2,0.4,0.1,0.6
			c0.2,0.2,0.4-0.2,0.7,0c0,0.4-0.2,0.3-0.3,0.7c0.1,0.2,0.2,0.2,0.4,0.1c0.1,0,0.1-0.1,0.2,0c0,0,0.1,0.1,0.1,0.1c0,0,0.1,0,0.2,0
			c0.2,0,0.3,0.1,0.2,0.3c0,0.2-0.1,0.4-0.1,0.5c-0.1,0.2-0.1,0.5-0.2,0.7c0,0.1-0.1,0.2-0.1,0.3c0,0-0.1,0.1-0.1,0.1
			c-0.1,0-0.1,0-0.1,0.1c0,0-0.1,0.1-0.2,0.1c0,0,0,0-0.1,0c0,0-0.1,0-0.1,0c-0.1,0-0.1,0-0.2,0.1c0,0.1-0.1,0.1-0.1,0.1
			c-0.1,0-0.2-0.1-0.2-0.1c-0.1-0.1-0.1-0.1-0.2-0.1c-0.1,0-0.1,0-0.2,0c0,0-0.1,0-0.1,0c0,0-0.1,0-0.1-0.1c0,0,0,0-0.1,0
			c0,0,0,0,0,0C13.1,60,13,60,12.9,60c-0.1,0-0.1,0-0.2,0.1c-0.2,0.1-0.3,0.1-0.5,0.1c-0.1,0-0.2,0-0.3-0.1
			c-0.1-0.1-0.1-0.2-0.2-0.3c0,0,0,0,0,0c0,0,0-0.1,0-0.1c0-0.1,0-0.1,0.1-0.2c0,0,0-0.1,0-0.1c0,0-0.1,0-0.1,0c0,0,0,0.1,0,0.1
			c0,0,0,0.1,0,0.1c0,0-0.1,0-0.2,0c0,0,0-0.1,0-0.1c0,0,0-0.1-0.1-0.1c0,0-0.1,0-0.1,0c-0.1,0-0.1,0.2-0.1,0.3
			c-0.1,0.1-0.2,0.1-0.3,0.1c-0.2,0-0.4,0.3-0.5,0.5c0-0.1,0-0.2,0-0.3c-0.1-0.1-0.2-0.1-0.3-0.1c-0.1,0-0.1,0.1-0.1,0.2
			c-0.1,0.1-0.3,0.1-0.4,0.1c-0.1,0-0.1-0.1-0.1-0.1c0-0.1,0-0.1,0.1-0.2c0,0,0.2-0.1,0.2,0c0-0.2-0.3-0.2-0.4-0.4
			c0,0.1-0.2,0.3-0.2,0.4c-0.1,0.1-0.2,0.4-0.4,0.4c0,0-0.1,0-0.1,0c0,0-0.1,0.1-0.1,0.1c0,0,0,0.1,0,0.1c0,0.2,0.1,0.3,0.3,0.3
			C8.7,60.8,8.8,61,9,60.9c0,0,0.2-0.1,0.2-0.1c0,0.2,0.4-0.2,0.4,0.2c0.2-0.1,0.2,0.1,0.1,0.2c0.1,0,0.1,0.2,0.2,0.1
			c-0.1,0.5,0.2,0.2,0.3,0.3c0.1-0.3,0.4-0.5,0.7-0.4c0,0,0.1,0,0.1,0.1c0.1,0,0.2,0.1,0.4,0.1c0.1,0,0.1,0,0.2,0s0.1,0,0.2,0
			c0.1,0,0.1,0,0.2,0.1c0,0,0,0,0,0.1c0.1,0,0.1,0.1,0,0.1c-0.1,0.1-0.3,0.1-0.4,0.2c-0.1,0-0.2,0.1-0.2,0.2c0,0,0,0.1,0,0.1
			c0,0,0.2,0.1,0.2,0.1c0.4-0.3,0.3-0.2,0.9,0.2c0-0.2,0-0.5,0.2-0.5c0.2,0,0.4,0,0.5,0.2c0.1,0.1,0.1,0.2,0.2,0.2
			c0.1,0.1,0.3,0.1,0.4,0.2c0.1,0.1,0.1,0.2,0.1,0.3c0,0.1,0.1,0.9,0,0.9c-0.5,0.1-2,0-1.1-1.1c-0.5,0.1-0.9,0.7-1.2,0.2
			c0,0.3,0,0.6,0,0.9c0,0.3,0,0.5,0,0.8c0,0.2-0.1,0.3-0.1,0.5c0,0.1,0,0.1,0,0.1c0,0.1-0.1,0.1-0.2,0.1c-0.2,0-0.2-0.1-0.3-0.3
			c0-0.1-0.1-0.3-0.2-0.2c-0.1,0,0,0.2-0.1,0.2c-0.1,0.1-0.4,0-0.5,0C10,65,9.8,65,9.7,65c-0.1-0.1-0.2-0.2-0.1-0.3
			c0,0,0.2-0.2,0.2-0.2c-0.2,0-0.4-0.1-0.6,0.1c-0.2-0.2,0.1-0.5-0.1-0.8c-0.1,0.1,0,0.8-0.3,0.4c0,0.2-0.1,0.4,0.1,0.5
			c-0.1-0.1-0.3,0.3-0.3,0.4c-0.1,0.2,0,0.4-0.2,0.5c-0.1,0-0.1,0-0.2,0.1c0,0-0.1,0.1-0.1,0.1c-0.1,0.3-0.5,0.2-0.8,0.2
			c-0.2,0-0.3,0-0.5,0c-0.6,0-1.1-0.4-1.6-0.4c-0.1,0-0.3,0-0.4-0.1c-0.3-0.1-0.2-0.4-0.5-0.5c-0.2,0-0.4,0.1-0.6,0
			c-0.1,0.3-0.1,0.3,0,0.7c-0.2-0.1-0.3,0.2-0.5,0.1c-0.1,0-0.1,0-0.2-0.1c-0.1,0-0.3,0-0.4-0.1c0,0-0.1,0-0.1-0.1
			c-0.1-0.1,0-0.2,0-0.3c-0.1,0-0.1,0-0.2,0c0,0-0.2,0-0.1,0C2,65.4,2.1,65.2,2,65.1c-0.2,0.3-0.7,0.7-0.8,0.3
			c-0.1-0.1-0.1,0.1,0,0.2c-0.2,0.1-0.3,0.2-0.6-0.2c-0.1,0.3-0.2,0.1-0.3,0.4c0.2-0.3,0.5,0.5,0.6,0c0.2,0.4,0,0.6,0.4,0.8
			c-0.2,0.6-0.4,0-0.4,0c-0.1,0.4,0.2,0.3,0.3,0.6c0-0.1,0.1-0.2,0.2-0.2c0.1,0,0.1,0.1,0.2,0.1c0.1,0,0.2,0,0.3,0
			c0.1,0.1,0.2,0.1,0.3,0.2c0.1,0,0.1,0.1,0.2,0.1c0.1,0.1,0.3,0.1,0.4,0.2c0.1,0,0.2,0.1,0.3,0c0.1,0.2,0.2,0.3,0.4,0.4
			c0.1,0,0.1,0,0.2,0.1c0,0,0.2,0.3,0.2,0.3c0.2-0.2,0.1-0.5,0.4-0.5c0.1,0.1,0,0.3-0.1,0.4c0,0.1,0.2,0.2,0.2,0.2
			c0.1,0,0.1,0,0.2,0c0.3,0,0.5,0,0.8,0c0.3,0.1,0.5,0.2,0.8,0.2c0.1,0,0.2,0,0.3,0c0.6,0.2,1.3,0.2,2,0.4c0-0.1,0.1-0.3,0.2-0.3
			c0.1,0,0.2,0.1,0.3,0.2c0,0.1-0.1,0.3-0.1,0.4c0,0,0.1-0.1,0.2-0.1c0.1-0.1,0-0.1,0.1-0.2c0-0.1,0-0.2,0.2-0.2
			c0.1,0,0.4,0.1,0.5,0.2c0.1,0.1,0.6,0.3,0.3,0.4c-0.1,0.1-0.2,0-0.3,0.1c-0.2,0.2-0.1,0.3-0.4,0.3c-0.2,0-0.5,0-0.8,0.1
			c-0.1,0-0.3,0.1-0.4,0.1c-0.3,0.1-0.6,0.3-0.9,0.2c0,0-0.1,0-0.1,0c-0.1,0-0.2,0-0.3,0c-0.1,0-0.2,0-0.3,0c-0.1,0-0.1-0.1-0.1-0.2
			c0,0,0.2-0.3,0.2-0.3c0-0.1-0.1-0.1-0.1-0.2c0,0.1,0,0.2-0.1,0.3s-0.2,0-0.3-0.1c0,0.1,0,0.2,0,0.3c0,0.1,0,0.2-0.2,0.2
			c-0.3,0.1-0.1-0.2-0.3-0.3c0,0-0.4,0-0.3-0.1c-0.1,0.1,0,0.2,0,0.3c-0.3,0.2-0.7-0.5-0.9,0.2c-0.6-0.2-0.9,0.2-1.4-0.3
			c-0.1,0.4-0.3,0.1-0.5,0.2c0,0.4,0.1,0.5,0,0.7c0.3,0.3,0.3,0.2,0.5,0.6C3,71.3,2.9,71.4,3,71c0.1-0.1,0.3-0.1,0.4,0
			c0,0,0.1,0.1,0.1,0.1c0.1,0.1-0.1,0.3-0.1,0.5C3.6,71.8,4,71.5,4,71.9C4.3,72,4.6,71.4,5,72c-0.2,0.3-0.4,0.1-0.5,0.4
			c0.1,0.1,0.3,0,0.4,0.3c0-0.3,0.1-0.3,0.2,0c0.3-0.6,0.8,0.2,1.1,0c0.2,0.1,0,0.3,0,0.5c0.2,0.3,0.3,0,0.4,0.1
			c-0.1-0.3,0.3-0.7,0.5-0.4c1.5,0.2,2.4-0.1,4,0.3c0.3-1.3,1,1.1,0.6-0.9c0,0,0.5,0.2,0.6,0.2c0.2,0.1,0.3,0.2,0.4,0.3
			c0.2,0.1,0.9,0.4,0.8,0.7c0,0.1-0.1,0.1-0.1,0.1c-0.1,0-0.1,0-0.2,0c-0.1,0-0.2,0-0.3,0c-0.1,0-0.2,0.1-0.3,0.1
			c-0.2,0-0.3-0.1-0.4-0.4c-0.1,0.7,0,0.1-0.6,0.1c-0.1,0-0.2,0.2-0.2,0.1c0,0.2-0.4,0.2-0.5,0.2c-0.2,0-0.5,0.1-0.7,0.3
			c-0.2,0.2,0,0.7,0.1,0.9c0.1,0.2,0.3,0.3,0.5,0.4c0.1,0,0.4,0.1,0.4,0.1c-0.3-0.8,0.9,0.9,0.9,0.5c0-0.2,0.4,0,0.4,0
			c0.2,0.1,0.4,0.1,0.6,0.1c0.3,0,0.6,0.1,0.8,0.2c0.3,0.1,0.5,0.2,0.8,0.3c0.1,0.1,0.2,0.1,0.4,0.2c0,0,0.1,0,0.1,0.1
			c0,0,0,0.1,0,0.1c0,0.1,0,0.2,0,0.3c0,0.1-0.1,0.1-0.2,0.1c0,0,0-0.1,0-0.1c-0.2,0-0.4,0-0.6-0.1c-0.2,0-0.3-0.1-0.5-0.2
			c-0.3-0.1-0.3,0-0.2,0.3c-0.1-0.3-0.7-0.2-0.9-0.1c-0.3,0.1-0.7,0.2-1,0.2c-0.1,0-0.1,0-0.2,0.1c0,0-0.1,0-0.1,0
			c-0.2,0,0-0.2,0.1-0.3c-0.3,0-0.3,0.2-0.5,0.5c0-0.1-0.1-0.2-0.1-0.3c-0.1,0.3,0.1,0.2,0.1,0.5c-0.1,0.2-0.3-0.1-0.4,0.3
			c0.8,0.3,1.5,0.3,2.3,0.2c0.2,0.1-0.1,0.3,0.2,0.5c0.2,0,0.1-0.2,0.2-0.4c0.2,0.3,0,0.6-0.2,1c-0.4-0.1-0.8-0.2-1.3-0.3
			c-0.2,0-0.4,0-0.5,0.1c-0.2,0.1-0.2,0.2-0.5,0.2c-0.3,0-0.6,0-0.8-0.1c0,0-0.1,0-0.1,0c0,0-0.1,0-0.1,0c-0.2,0-0.4,0.1-0.6,0.2
			c-0.1,0-0.2,0.1-0.3,0.1c-0.3,0-0.5-0.2-0.7-0.4c0.1,0.4-0.8,0.3-0.3-0.1c-0.9,0-0.6,0.4-0.9,1.1c0,0,0.6,0.1,0.7,0.1
			c0.1,0,0.1,0.1,0.2,0.1c0.1,0.1,0,0.2,0.1,0.3c0.1-0.1,0.1-0.1,0.2-0.1c0.1,0,0.2,0.1,0.3,0.1c0.2,0,0.2-0.2,0.5-0.2
			c0.2,0.1,0.4,0.2,0.3,0.5c0,0,0,0.1-0.1,0.1c0,0,0,0-0.1,0c-0.2,0.1-0.3,0-0.6-0.1c-0.7-0.2-0.6,0.2-0.6,1c0-0.5-0.9-1.1-1.3-0.9
			c0,0-0.1,0.1-0.1,0.1c-0.1,0-0.1,0-0.2,0c-0.2,0-0.4,0.1-0.6,0.1c-0.1,0-0.2,0-0.3,0c-0.2,0-0.3,0.2-0.4,0.5
			c0-0.7-0.4-0.9-0.4-0.2c0-0.4-0.3-0.4-0.7-0.4C4,81.4,3.9,81,3.8,80.8C3.9,81.5,2.5,81,2.2,81c-0.4,0.5-0.4,0-0.1,1.6
			c0.1-0.4,0.3,0.6,0.4,0c0,0.1,0,0.1,0,0.3c0-0.4,0.4,0,0.8,0.1c0-0.1,0-0.3,0-0.2c-0.1-0.3,0.2-0.1,0.4,0.2c0.1,0,0-0.5,0.1-0.1
			c0.2-0.5-0.1,0.6,0.4,0c-0.1,0.6-0.2,0.8-1.1,0.4c0.5-0.6,0-0.4-0.6-0.5c0.7,0.8-0.6,0.4,0.1,1.4c-0.3,0.3-0.5-0.4-0.9-0.5
			C1.7,83.4,2,84,2.1,83.6c-0.2-0.8-0.9,0.9-0.8-0.1C0.6,83,1.4,84,0,83.9c0.1,0.4,0.4-0.2,0.5,0.3c-0.6-0.3-0.5,1.3-0.2,0.3
			c0.2,0.6,0.2,1.4,0.4,0.4c1,0.1,2.6-0.5,1.5,0.8c0.6-0.1,1.3-0.4,1.9-0.2c0.3,0.1,0.7,0.3,1,0.3c0.3,0,0.6,0,0.9,0
			c0.8,0,1.5,0.5,2.2,0.7c0.5,0.1,1.1,0.1,1.6,0.3c0.2,0.1,0.5,0.2,0.7,0.3c0,0.1,0,0.3-0.1,0.4l-0.2-0.3c-0.1,0.1-0.1,0.4-0.3,0.1
			c0,0.1,0,0.2,0,0.3c-0.4-0.2-0.9,0-1.3,0.1c-0.5,0.1-0.9,0.1-1.3,0.1c0.1,0,0,0.1-0.1,0.1c0.1,0,0,0.1,0,0.1c-0.1,0-0.2,0-0.4,0
			c-0.1,0.1-0.4,0.1-0.5,0.1l0.1,0c-0.1,0,0,0,0,0.1c0.1,0,0.1,0.1,0.1,0.1c0.1,0,0.2,0,0.3,0.1c0.1,0.1,0.3,0.2,0.4,0.1
			c0.1,0.1-0.1,0.1,0,0.1c0.1-0.1,0.2-0.1,0.3,0l0,0c0.4,0.1,0.6,0.3,1.1,0.7l0-0.2c0.1,0.1,0.1,0.1,0.2,0.2
			c0.2-0.3-0.3-0.1-0.2-0.5c0.1,0.2,0.2,0.3,0.4,0.4c0.2,0.1,0.4,0.1,0.4,0.5c0.2,0.1,0-0.3,0.1-0.3l0,0.2l0.1-0.2
			c0.1,0.1,0.1,0.3,0.1,0.5c0,0-0.1,0-0.1,0c0.1,0.3,0.4,0.1,0.4,0.2l-0.1-0.2c0.5,0,1,0.5,1.5,0.1l0-0.2c0.4-0.3,0.3,0.3,0.6,0.2
			l0,0c0.1-0.2,0.2-0.3,0.3-0.2c-0.1,0.2,0.2,0.5,0.5-0.3l0,0.4c0.1-0.3,0.1-0.5,0.3-0.6c-0.2,0.3,0.3,0.9,0.4,0.6
			c-0.1-0.4,0.2-0.8,0.3-0.7c0.1,0,0.1,0.9,0.3,1.3c-0.5,0-1,0-1.4,0c-0.8-0.1-1.8-0.3-2.2,0.5c0-0.4-0.2-0.3-0.1-0.1
			c-0.2,0.7-0.6-0.3-0.8,0.2c-0.3-0.3-0.2-0.3-0.2,0c-0.1,0.3-0.2-0.3-0.3-0.1c-0.1-0.1,0-0.3,0.1-0.4c-0.2-0.1-0.4,0.2-0.3,0.4
			c-0.4-0.5-0.3,0-0.7-0.6c-0.3,0.3-0.3,0.2-0.7,0.1c0,0.2,0.2,0.4,0,0.6c0.1,0.1,0.2,0.2,0.3,0.4c0.2,0,0-0.4,0.3,0
			c0.1-0.1,0-0.2,0-0.3c0.2,0,0.4-0.1,0.6-0.1c0.2,0,0.4,0.2,0.6,0.3c0.5,0.2,0.9,0.5,1.4,0.7c0.1,0.1,0.3,0.1,0.4,0.1
			c0.2,0,0.3-0.1,0.4-0.1c0.4-0.1,0.8,0.1,1.1,0.4c0.3,0.3,0.6,0.6,0.9,0.8c0.3,0.2,0.7,0.3,1.1,0.5s0.7,0.4,0.8,0.8
			c0,0.2,0.1,0.3,0.2,0.4c0,0,0.3,0.3,0.2,0.4c0.2-0.1,0.2-0.5,0.4-0.4c0.1,0.3-0.2,0.4,0,0.7c0.1,0.2,0.4,0.3,0.6,0.3
			c0.2,0,0.5,0,0.7,0.1c0.2,0.1,0.4,0.3,0.6,0.4c0.3,0.2,0.7,0.2,1.1,0.3c0.1,0,0.3,0.1,0.5,0.1c0.2,0,0.2-0.2,0.4-0.1
			c0.1,0.1,0.2,0.2,0.1,0.3c0,0,0,0.1,0,0.1c0,0,0,0,0,0c0.1,0,0.2,0,0.3,0c0.1,0,0.2-0.1,0.3-0.2c0.1,0,0.2,0,0.3,0
			c0,0,0.1,0.1,0.1,0.1c0.1,0.1,0.2,0.1,0.3,0.2c0,0,0,0,0,0c0,0,0,0,0,0c-0.1,0.1-0.3,0-0.5,0c-0.1,0-0.1,0-0.2,0.1
			c0,0-0.1,0.2,0,0.2c-0.3-0.1-0.7,0-1,0c-1,0-2,0.1-2.9-0.3c-0.1-0.1-0.3-0.1-0.4-0.1c-0.2,0-0.3,0.1-0.4,0.2
			c-0.1,0-0.3-0.1-0.4-0.1c-0.1,0-0.8-0.2-0.7-0.4c-0.1,0.4-0.3,0.1-0.4,0.1c-0.1,0.4,0,0.5-0.2,0.7c0.2,0.4,0.2,0.3,0.3,0.7
			c0.1-0.4,0-0.3,0.2-0.6c0.2-0.1,0.4,0.2,0.6-0.2c0.1,0.3-0.2,0.6-0.2,0.8c0.1,0.2,0.5,0,0.4,0.4c0.3,0.2,0.6-0.4,0.9,0.2
			c-0.2,0.2-0.4,0.1-0.6,0.3c0.1,0.1,0.2,0,0.4,0.3c0-0.3,0.1-0.3,0.2,0c0.3-0.5,0.7,0.4,1.1,0.2c0.2,0.2,0.2,0.1-0.1-0.2
			c0-0.1,0-0.3,0-0.4c0.1,0,0.2,0.1,0.3,0.1c0.1,0.2-0.1,0.3,0.1,0.5c0.1-0.1,0.1-0.3,0.1-0.4c0.1-0.1,0.1,0.1,0.2,0
			c0.1,0.3-0.1,0.2-0.1,0.5c-0.1,0.2-0.3-0.3-0.4,0.1c1.5,0.4,2.9,0.4,4.5,0.9c-0.1,0,0.1-0.1,0.1-0.1c0,0,0.3,0.2,0.4,0.2
			c0.4,0.1,0.8,0,1.2,0.1c0.2,0.1,0.4,0.1,0.6,0.1c0.2,0,0.3,0,0.5,0c0.5,0,1.1,0.4,1.6,0.3c0.2,0,0.4-0.1,0.6-0.1
			c0.9-0.2,1.8,0,2.6,0.2c0.7,0.2,1.3,0.6,2,0.5c0.2,0,0.4-0.1,0.6-0.1c0.2,0,0.5,0,0.7,0c0.4,0,0.7,0.1,1.1,0.1c0.1,0,0.1,0,0.2,0
			c0.1,0,0.1-0.1,0.2-0.2c0.2-0.1,0.5-0.3,0.7-0.2c0.1,0,0.1,0.1,0.2,0.1c0.1,0.1,0.2,0.1,0.4,0.2c0,0,0.1,0,0.1,0.1
			c0,0,0,0.1,0,0.1c0,0.2,0,0.4,0.1,0.5c0,0.1,0,0.1,0,0.2c0,0.1-0.1,0.1-0.1,0.2c-0.1,0.1-0.3,0.3-0.5,0.3c-0.1,0-0.2,0.1-0.3,0
			c0,0-0.2-0.1-0.2-0.1c-0.1,0.3-0.4,0.6-0.6,1c-0.1-0.7-0.8,0.1-1.1,0.2c-1.1,0.2-2.2,0.1-3.3,0.3c-0.4,0.1-0.9,0.2-1.3,0.2
			c-0.3,0-0.6-0.1-0.9-0.1c-0.4,0-0.8,0-1.2,0.1c-0.2,0-0.4,0-0.6,0c-0.2,0-0.4,0-0.6,0c-0.1,0-0.2,0-0.3,0c-0.1,0-0.2,0.1-0.4,0.1
			c-0.2,0-0.3-0.2-0.5-0.2c-0.2,0-0.4,0-0.5,0.1c-0.2,0-0.3,0.1-0.5,0.1c-0.2,0-0.4-0.1-0.5-0.1c0,0-0.1,0-0.1-0.1
			c-0.3-0.1-0.5,0.3-0.7,0.5c0-0.1,0-0.2-0.1-0.3c-0.1,0.3,0.1,0.2,0.1,0.6c-0.1,0.1-0.3-0.1-0.4,0.2c0.8,0.4,1.6,0.4,2.4,0.4
			c0.2,0.2-0.1,0.3,0.1,0.5c0.2,0,0.1-0.2,0.2-0.4c0.2,0.3-0.1,0.6-0.2,1c-0.4,0-0.6-0.4-1-0.4c-0.3,0-0.6,0.2-0.9,0.3
			c-0.2,0.1-0.4,0.1-0.6,0.1c-0.5,0-1-0.2-1.5-0.3c-0.5,0-0.8-0.3-1.1-0.6c0,0-0.1-0.1-0.1-0.1c0,0,0,0-0.1,0
			c-0.2,0.1-0.5,0.1-0.6-0.1c-0.1,0.1-0.2,0.5-0.3,0.3c0.1,0.3,0,0.4-0.2,0.7c0.3,0,0.5,0.3,0.7,0.5c0.2,0.2,0.5,0.3,0.7,0.4
			c0.3,0.1,0.6,0.1,0.8,0.2c0.2,0.1,0.5,0.2,0.7,0.2c0.8,0.1,1.5,0.2,2.3,0.3c0.3-0.5,0.6,0.2,0.9-0.2c-0.1,0.1,0.4,0.3,0.4,0.3
			c0.1,0,0.3,0,0.4-0.1c0.1,0,0.3-0.1,0.4-0.1c0.2,0,0.3,0.2,0.4,0.3c0.1,0.1,0.3,0.2,0.3,0.3c0,0.1-0.1,0.2-0.2,0.2
			c-0.1,0-0.2,0-0.3,0c0,0-0.1,0-0.1,0c0,0-0.1,0.1-0.1,0.1c-0.2,0.2-0.5,0.2-0.8,0.2c-0.1,0-0.2-0.1-0.3,0c-0.1,0-0.1,0-0.1,0.1
			c-0.1,0.1-0.2,0.2-0.4,0.2c-0.1,0-0.2,0-0.2,0c-0.2,0-0.4,0.1-0.6,0.2c-0.3,0.2-0.8,0.2-1.2,0.2c-0.4,0-0.9-0.1-1.3-0.1
			c-0.4,0-0.8,0.1-1.3,0.1c-0.3,0-0.7-0.2-1-0.2c-0.2,0-0.4-0.1-0.6,0c-0.2,0-0.3,0.2-0.5,0.2c-0.2,0-0.3,0-0.5-0.1
			c-0.1,0-0.1,0-0.2,0c-0.1-0.1-0.2-0.2-0.3-0.2c-0.1,0-0.2,0-0.3,0c-0.2,0-0.4,0-0.6-0.1c-0.2-0.1-0.4-0.1-0.6-0.2
			c-0.4,0-0.8-0.2-1.2-0.2c-0.1,0-0.3,0-0.4,0c-0.2,0-0.3,0.1-0.4,0.2c-0.1,0-0.2,0-0.3,0.1c-0.1,0.1-0.2,0.2-0.4,0.2
			c-0.1,0-0.1-0.1-0.2-0.1c-0.2-0.1-0.4-0.2-0.6-0.1c0,0-0.1,0-0.1,0c-0.2,0,0.1-0.3,0.1-0.3c-0.1-0.4-0.3-0.1-0.4-0.4
			c-0.1,0.1,0.1,0.3,0.1,0.5c-0.4,0.2-0.7-0.3-1.1-0.2c0,0.4,0.3,0,0.4,0.3c0,0.1,0,0.1,0,0.2c-0.3-0.2-0.4,0.1-0.7,0.2
			c0,0.4,0.3,0.4,0.4,0c0.2,0.3-0.3,0.4,0.1,0.5c-0.1,0.1-0.1,0.2-0.2,0.3c0,0,0.1,0.1,0.1,0.1c0.2-0.1,0.2-0.3,0.3-0.5
			c0.3,0.1,0.6,0.3,1,0.1c0.3,0.9,0.8,0.2,1.2,0.5c-0.1,0.6-0.6,0.1-0.7,0.7c0.6-0.1,1,0.5,1.7,0c0,0.1,0.1,0.2,0.2,0.3
			c0,0,0.1,0.1,0.1,0.1c0.1,0,0.1,0,0.2,0c0,0,0.1,0,0.1,0c0.2,0.1,0.5,0.2,0.7,0.1c0.2-0.1,0.4-0.2,0.6-0.1c-0.5,0.3-0.9,0.6-1,0.6
			c0.1,0.6,0.8-0.1,1.2-0.2c0,0.2,0,0.3,0.3,0.4c0.2,0.1,0.4,0.1,0.6,0.1c0.1,0,0.1,0,0.2,0.1c0,0,0.1,0.1,0.1,0.1
			c0.1,0.2,0.3,0.3,0.5,0.3c0.1,0,0.3,0,0.4,0c0.1,0,0.3-0.1,0.4,0c0.1,0,0.1,0.1,0.2,0.1c0.1,0.1,0.2,0.1,0.2,0.1
			c0.1,0,0.1,0.2,0.1,0.2c0,0.1,0,0.1,0,0.1c0,0,0.1,0,0.1,0c0.1,0,0.2-0.1,0.2-0.1c0.1,0,0.2,0,0.4,0c0,0,0.1,0,0.1,0
			c0,0,0,0,0.1,0c0.1,0,0.1,0,0.2,0s0.1,0,0.2-0.1c0.2-0.1,0.3-0.1,0.5-0.1c0.2,0,0.3,0.1,0.5,0.1c0.2,0.1,0.3,0.2,0.4,0.3
			c0.1,0.1,0.2,0.2,0.2,0.3c0.1,0.2,0.2,0.5,0.4,0.6c0.1,0.1,0.2,0.1,0.3,0.1c0.1,0,0.1,0.1,0.2,0.1c0,0,0.1,0.1,0.1,0.1
			c0.1,0,0.1,0,0.2-0.1c0.1,0,0.2,0,0.3,0c0.1,0,0.2,0.1,0.2,0.2c0-0.4,0.2-0.3,0.1-0.8c0.2,0.3,0.4-0.2,0.7,0.1
			c-0.2-0.6,0.4-0.3,0.4-0.6c0.4,0.2-0.2,0.5,0.1,0.7c0.1-0.3,0.3-0.3,0.5-0.2c0,0,0,0.2,0,0.2c0,0.1,0,0.1,0,0.2
			c0,0.1,0.1,0.1,0.1,0.2c0,0,0.1,0.1,0.1,0.1c0,0,0.1,0,0.1,0.1c0.1,0,0.1,0.1,0.2,0.2c0.1,0,0.2,0,0.3,0.1c0.1,0,0.3,0,0.4,0.1
			c0.1,0,0.2,0.1,0.4,0.1c0.2,0,0.4,0,0.6,0c0.4,0,0.8-0.1,1.1,0.2c0,0,0.1,0.1,0.1,0.2c0.2,0,0.5,0,0.7,0.1
			c0.1-0.6,0.5-0.2,0.7-0.4c0,0.1,0,0.3,0.1,0.4c0-0.4,0.4-0.5,0.4-0.1c0.5-0.5,1.2,0.1,1.8-0.3c-0.2-0.2,0.1-0.4,0.2-0.5
			c0.1,0.2-0.2,0.4-0.1,0.6c0.6,0.3,1-0.2,1.5-0.3c0.1,0.6,0.7,0.5,0.7,0.1c0.1,0.3,0.2,0.1,0.4,0.3c0.1-0.9,1.4,0.2,1.9-0.7
			c0.6,0.8,1.2-0.8,1.7,0.1c-0.2-0.1-0.3,0.1-0.5,0.2c0.2,0.4,0.6-0.3,1.1-0.2c0.2,0.1,0.8,0.4,0.8,0c0.1-0.2,0.2,0.2,0.4,0.3
			c0.3-0.4,0.7-0.1,1-0.6c0.5,0.2,1.4,0,2-0.1c5.3-0.3,10.6-0.8,15.8-1.5c0.1,0.1,0.2,0.2,0.3,0.2c0,0-0.1,0-0.1,0.1
			c-0.1-0.1-0.4,0.3-0.6,0.2c-0.2,0.1-0.4,0.2-0.6,0.3c-0.1,0-0.2,0-0.3,0c-0.2,0.1-0.4,0.1-0.7,0.1c-0.1-0.2-0.3-0.2-0.3,0.1
			c0,0-0.1,0-0.1,0c-0.7-0.3-1.2,0.5-1.9,0c0,0.2-0.1,0.3-0.2,0.3c0,0,0,0-0.1,0c-0.2,0.1-0.4-0.1-0.7-0.3c-0.1,0.1,0,0.2,0.1,0.3
			c-0.6-0.2-1.2,0.1-1.8,0c0,0.1,0.1,0.3,0,0.4c-0.9-0.1-1.9,0.6-2.7,0c0,0.1,0,0.2,0.1,0.2c-0.9,0-1.8,0.4-2.8,0.1
			c-0.6,0.5-1.7,0.3-2.5,0.4c-0.2,0.2,0.1,0.4-0.1,0.6c-0.1,0-0.1,0.1-0.2,0c0-0.9-0.7-0.3-1-0.5c0,0.4,0.2,0,0.4,0.3
			c0.1,0.3-0.2,0.3-0.3,0.4c-0.4-0.7-0.8-0.4-1.4-0.4c-0.8,0-1.4,0.2-2.1,0.6c-0.7,0.4-1.4,0.8-2.2,0.9c-0.4,0-1.3-0.3-1.5,0.3
			c-0.4-0.6-0.7,0.2-0.9-0.4c-0.1,1-1.1-0.4-1.4,0.4c-0.5-0.2-0.9,0.1-1.4-0.1c-0.2-0.2,0.3-0.1,0-0.3c-0.3,0.4-0.8,0.4-1.3,0.4
			c-1,0.1-2,0.7-3,0.7c-0.4,0-0.8-0.2-1.2-0.2c-1-0.1-2.1,0.4-3.1,0c-0.2-0.1-0.3-0.3-0.1-0.5c-0.3-0.1-0.3,0.1-0.3,0.4
			c-0.1,0-0.2,0-0.3-0.2c0,0.1-0.1,0.1,0,0.2c-0.4,0-0.8-0.1-1.2,0c-0.1,0-0.3,0.1-0.4,0.1c-0.2,0-0.4,0-0.6-0.1
			c-0.5-0.1-0.9-0.2-1.4-0.2c-0.4,0-0.7-0.2-1.1-0.3c-0.1,0-0.3,0-0.4,0s-0.2,0.2-0.1,0.3c0,0.1,0.1,0.1,0.2,0.1
			c0,0,0.1-0.1,0.1-0.1c0.2-0.1,0.3,0,0.5,0.1c0.4,0.3,1,0.4,1.5,0.5c0.5,0.1,1,0.3,1.4,0.6c0.3,0.2,0.7,0.1,1,0.4
			c0-0.1,0-0.3,0-0.4c0.1-0.1,0.3,0.1,0.4-0.1c0,0.1,0,0.3,0,0.4c0.4-0.2,0.8-0.1,1.2,0c0.4,0.1,0.8,0.1,1.2,0.1
			c0.4,0,0.8,0.1,1.2,0.1c0.2,0,0.8,0.1,0.8,0.2c0.2-0.2,0.7-0.1,0.9,0c0.4,0,0.7,0.1,1.1,0.1c0.7,0,1.4-0.2,2.1-0.1
			c0.3,0.1,0.6,0.2,1,0.2c0.3,0,0.6-0.1,0.9-0.1c0.5-0.1,1-0.1,1.5,0c0.2,0.1,0.5,0.1,0.7,0.2c0.3,0,0.6,0,0.8,0
			c0.2,0,0.5,0.1,0.7,0.1c0.2,0,0.2-0.2,0.4-0.3c0.1,0,0.4,0.2,0.4,0.2c0.1-0.2-0.1-0.3,0-0.5c0.5,0.5,1.3-0.5,1.5,0.2
			c0.7-0.2,1.6,0.1,2.1-0.4c0.4,0.4,0.7-0.1,1.1,0.4c0.1-0.5,0.4-0.1,0.6-0.6c0.2,0.1,0.1,0.3,0.3,0.4c1.2-0.2,2.4-0.6,3.6-0.3
			c0-0.2,0.1-0.3,0-0.4c1,0.1,2,0.2,2.9-0.3c0.2-0.2,0.5,0.3,0.8,0.2c0-0.1-0.1-0.2-0.1-0.3c0.3,0.1,0.8,0.2,1.1-0.2l0.4,0.4
			c1-0.6,2-0.5,3.1-0.4c0-0.1,0-0.2,0-0.2c1.9,0.1,3.6-0.6,5.4-0.7c0-0.1,0.1-0.1,0.2-0.2l0,0.4c0.2-0.5,1.5-0.3,2.3-0.4
			c0.4-0.1,0.7-0.4,1.1-0.1l0.2-0.3c0.3,0.5,0.6-0.3,1.1,0.1c0.8-0.7,2.1-0.2,3-0.9l0.1,0.1c0,0,0,0,0,0l0.2,0.2
			c1.2-0.8,2.6-0.3,3.8-1.2c0.7,0.4,1.1-0.5,1.8-0.1c0.3-0.5,0.7,0,1-0.5c1,0.1,1.9-0.2,2.8-0.6c2.1-0.2,4.1-1.2,6.2-1.5l0.1-0.3
			c0.1-0.1,0.1,0.1,0.1,0.2c1-0.5,1.9-0.6,2.9-1.1l0.1,0.1c0,0,0,0,0,0l0.2,0.2c0.1,0,0.1-0.2,0.1-0.3c0.1,0,0.1-0.1,0.2-0.1
			c0,0,0,0,0.1,0c0.1,0.1-0.1,0.1-0.1,0.3c0.2,0.1,0.4,0,0.3-0.3c8.2-1.7,15.9-5,24-7.4l0.1-0.3c1.1,0,2.3-0.6,3.5-0.4
			c0.2-0.1,0.3-0.7,0.4-0.2c0.1-0.3,0.5-0.5,0.9-0.3l0.2-0.3c0.4-0.1,0.8,0,1.1-0.4c0,0,0.1,0,0.1,0c1.9-0.1,3.6-1.5,5.6-1.1
			l0.1-0.3c0.4,0.3,0.9,0.1,1-0.3c0.1,0.1,0.1,0.3,0.2,0.4c0-0.6,0.3-0.3,0.4-0.2c0.4-0.6,3-1.4,3.3-1.5c0.2,0.4,0.9-0.3,1.5-0.7
			l0.3,0.3c0,0.4,0.1-0.2-0.2-0.3c0.2-0.4,0.5-0.4,0.8-0.8c0.1,0.3,1.2-0.1,1.5-0.6c0.1,0.1,0,0.2,0,0.3c0.1,0.1,0.2-0.2,0.3,0.1
			c-0.2-0.4,0.1-0.2,0.3-0.6c1,0.4,1.7-1.4,2.6-0.7c0-0.7,0.6-0.7,0.9-0.9c0.1,0.5,2,0.1,2.6-0.6c0.8-0.2,1.6-0.3,2.2-1.3
			c0.5,0,1.1-0.5,1.3-1.1c0,0,0,0,0,0c0.3,0,0.7-0.2,1.1-0.5c0.8-0.4,1.9,0,2.7-0.4c0.1,0,0.2,0.1,0.3,0.1c-0.1-0.1-0.1-0.2-0.1-0.2
			c0.5-0.2,1.1-0.5,1.6-0.7l0.7-0.2l1.7-0.7c0,0.1,0.1,0.1,0.1,0.2c0.1,0.1,0.2-0.1,0.3-0.3l1.8-0.8l0.1,0.2c0-0.1,0-0.1,0-0.2
			l0.5-0.2c0,0.2,0.1,0.1,0.1,0l0.1,0l0.1-0.4c0.1,0,0.1-0.1,0.2-0.1l0,0c0,0.8,0.4,0.3,0.5-0.1c0.7-0.2,1.4-0.8,2.1-1l0.1,0.1
			c0,0,0-0.1-0.1-0.1c0,0,0.1,0,0.1,0l0.4,0.2c0-0.1-0.1-0.1-0.1-0.1c0.1,0,0.2,0.1,0.4,0.2c0,0-0.1-0.1-0.2-0.2
			c0.2,0.1,0.3,0,0.6,0.3c-0.1-0.1-0.4-0.4-0.6-0.7c0,0,0,0,0.1,0c0.4-0.2,0.3-0.2-0.1-0.1c0,0-0.1-0.1-0.1-0.1c0,0,0-0.1,0-0.1
			l-0.1-0.1c0.2,0,0.6,0.1,0.8,0.1c0,0,0-0.1,0.1-0.1c-0.2-0.1-0.6-0.3-0.7-0.3c0.1,0,0.6,0.2,0.9,0.2c0.3-0.1,0.9,0,0.9-0.3
			c0.3,0,0.2,0.2,0.5-0.2c0.3,0.1,0.4-0.1,0.5-0.4c0.1,0,0.2-0.1,0.3-0.1c0,0.1,0,0.2,0.1,0.3l0-0.3c0.1,0,0.3-0.1,0.4-0.1
			c1.6-0.1,2.6-2.1,4.3-2.4c0.3,0.1,1.7-0.9,2.4-1.6c0.1,0,0.2,0,0.3-0.2c0.2-0.2,0.3-0.3,0.3-0.3l0,0c0,0,0.1,0.1,0.1,0.1
			c0,0-0.1-0.1-0.1-0.1c0.1,0,0.1-0.1,0.2-0.1c0,0.1,0,0.1,0,0.1l0-0.2c0.1-0.1,0.2-0.1,0.3-0.2c0.1,0.1,0.2,0.2,0.2,0.3
			c-0.2-0.2,0.3-0.1,0.4-0.3l-0.3-0.2c0.1,0,0.1-0.1,0.2-0.1c0.2,0.4,0.4,0.3,0.5,0.2c0,0.1,0,0.2,0.3,0.7c0.4,0.1-0.3-0.7,0.2-0.5
			c-0.1-0.3-0.3-0.2-0.4-0.4c0-0.1,0.1-0.2,0.1-0.3c0.1,0,0.1-0.1,0.2-0.1c0.1,0.1,0.1,0.2,0.3,0.4l-0.2-0.5c0,0,0.1,0,0.1-0.1
			c0,0,0,0,0,0c0,0.1,0,0.1,0,0.2c0.1,0.1,0.2,0.2,0.2,0.2c0,0.1,0.1,0.2,0,0.2l0.1-0.1c0,0,0.1,0,0.1,0c0.2,0.3,0.1,0.6,0,0.6
			c0,0,0.8-1,0.5-1.6l-0.3,1.1c-0.1-0.1-0.1-0.3-0.2-0.5l0,0c0,0,0,0,0,0c0-0.1-0.1-0.2-0.1-0.3c0,0,0,0,0,0
			c0.1-0.1,0.3-0.2,0.5-0.3c0.1,0.1,0.2,0.2,0.3,0.3c0,0,0,0,0,0c0,0,0,0,0,0l0,0c0,0.1,0,0.1,0.1,0.1c0-0.1,0-0.1,0-0.2
			c0.1-0.1,0.1-0.2,0.2-0.4c0,0,0.1,0,0.1,0l0,0.5c0.4,0.2-0.1-1.1,0.5-0.6c0.1,0,0.7,0.8,0.5,0.4c-0.1-0.2-0.3-0.4-0.4-0.7
			c0,0,0.1,0,0.1-0.1c0,0,0,0,0.1-0.1c0.1,0.2,0.2,0.5,0.4,0.6l-0.3-0.5c0.1-0.2,0.2-0.1,0.5,0.3l-0.2-0.3c0,0,0.1,0.1,0.2,0.1
			c-0.1,0-0.2-0.1-0.2-0.2l0-0.1c0,0,0,0,0,0c0.1,0,0.1-0.1,0.2-0.1c0,0.1,0.1,0.1,0.2,0c0-0.1,0-0.1,0-0.1c0,0,0,0,0,0
			c0.1-0.1,0.4-0.4,0.6-0.7c0.2,0.2,0.5,0.6,0.5,0.6l0.4-0.2c0-0.3-0.7-1.5-0.3-1.2l0.3,0.3c-0.1,0-0.1-0.3-0.1-0.4l0.3,0.3
			c-0.1-0.4,0-0.5,0.1-0.5c0,0.1,0.1,0.1,0.1,0.2c0,0,0-0.1,0-0.2c0.1,0,0.1,0.1,0.2,0.1c0,0.1,0,0.2,0.2,0.4c0-0.1-0.1-0.2-0.1-0.3
			c0.2,0.2,0.4,0.3,0.4,0c0,0.1-0.2,0.1-0.3-0.3c0-0.2,0.1-0.1,0.3,0.1l-0.1-0.1l0.2,0.2c0,0.2,0,0.3,0.2,0.2c0,0,0,0,0-0.1l0.5,0.3
			c-0.2-0.3-0.4-0.4-0.5-0.6c0-0.1,0-0.1-0.1-0.2c0-0.1,0-0.1,0-0.2c-0.2-0.7,0.3-0.1,0.4-0.1c0.1,0.4,0.1,0.8,0.4,0.9
			c-0.1-0.2,0-0.6-0.2-0.9c0.4,0.3,0.7-0.2,0.9-0.4l-0.7-0.7c0-0.1,0-0.2,0-0.3c0.3-0.1,0.6-0.2,0.9-0.1c0-0.2,0-0.3,0-0.5
			c0.4,0.1,0.9,0.4,1.1,0.3c0,0.4,0.3,0.3-0.3-0.6c0,0,0,0,0,0l0,0c-0.4-0.6-0.1-0.7,0-0.8c0.1,0.1,0.1,0.2,0.2,0.3l0.1,0.2l0.1,0
			c0.5,0.6,0.9,0.7,1.1,0.1l-0.1-0.7c0,0,0.1,0,0.1,0.1c0,0,0,0,0,0c0.5,0.7,0.8,1,0.8,1c0-0.3,0-0.4,0.1-0.4
			c-0.3-0.3-0.7-0.7-1-1.1c0,0,0-0.1-0.1-0.1c0.5,0.1,1.1,0.4,0.9,0.1c0.3-0.5,1.4,0.8,1.8,0.8c-0.1-0.6-0.4-0.2-0.7-1
			c0.3,0.2,1-0.1,0.2-0.9c0.1-0.1,1.8,0,2.5,0.2c-0.2-0.3-0.3-0.6-0.3-0.8c-0.2,0.1-0.7-0.1-1.1-0.7c-0.1-0.6,0.6,0,0.6,0
			c0.7,0.5,0.8,1.1,1.1,0.6c0.1-0.7,0,0.1-0.3-0.7c0.2,0.3,0.2-0.7,0.7,0.1c0,0,0.5,0.3,0.2-0.1c-0.3-0.7,0-0.8-0.5-1.1
			c-0.4,0.1-0.7,0.2-0.6,0c0,0-0.6,0-0.8,0.2c0-0.2-0.1-0.5-0.2-0.6c-0.2,0.5-0.5,0.6-0.8,0.8l0,0c-0.2,0.1-0.4,0.2-0.6,0.4
			c0-0.1,0-0.1,0,0c0,0,0,0,0,0l-0.3-0.1c-0.1,0.3-1.5-0.1-1.5-0.1c0-0.1-0.1-0.2-0.1-0.3c0,0.1-0.1,0.1-0.1,0.2c0-0.1,0-0.3,0-0.4
			l0,0c0-0.3-0.7-1.5-0.3-1.2l0.3,0.3c-0.1,0-0.1-0.3-0.1-0.4l0.3,0.3c0.5,0.2-0.1-0.9-0.2-1.5c-0.2-0.7,0.3-0.1,0.4-0.1
			c0.1,0.4,0.2,0.1,0.1,0c0.2,0.2,0.6,0,0.5,0.3c0.4-0.3,0-1.2,0.1-1.4l-0.7-0.7c-0.1-1.9,2.4-0.7,3-0.9c0.1,0,0.9-0.1,1.1-0.8
			l0-0.4c0.5,0.6,0.9,1.6,1.2,1.3l-0.3-0.5c0-0.3,0-0.4,0.1-0.4c-0.3-0.4-0.7-0.8-1-1.2c-0.3-1.3,2.3,0.8,2.7,0.8
			c-0.1-0.6-0.4-0.2-0.7-1c0.3,0.2,1-0.1,0.2-0.9c0.5-0.7,1.8-0.7,1.4-1.4c-0.1-0.6,0.2,0.1,0-0.4c0-0.7,0.4,0.1,0.6,0.2l0,0.3
			c0.7,0.5,1.1,0.7,0.8-0.1c0.2,0.3,0.2-0.7,0.7,0.1c0,0-0.7-1.9-0.9-1.2l0.2,0.2c0,0.8-0.7-0.2-1-0.1c0-0.2-0.6,0-0.9,0.1l-0.6-0.4
			c0-0.4-0.2-1.1,0-1.4c0.1,0.1,0.3,0.3,0.4,0.5l0.5-0.6L189,57c-0.1-0.6-1.5-2-0.3-1.5c-1-1-0.1-0.9-0.6-1.4
			c0.1,0.1,0.3,0.3,0.5,0.4c0.3-0.4,0.8-1.2,0.5-1.9c0,0-0.8-0.3-1.7-0.8c-0.9-0.5-0.9-0.3-1.5-0.8c0.6,0-2.2-0.7-2.2-0.7
			c-0.4-0.1,1.5-0.2,1.4-0.2c0,0,1.5-0.5,0.7-1c0.8-0.1,0.8-1.3,0.8-1.7l-0.6-0.7c0.6-0.7,1.3,0,1.6-0.9l0,0.2
			c0.2,0.2-0.6-1.8,1.4,0.1l0,0.1c0,0-0.3-0.4-0.3-0.4c0-0.3-0.1-0.7,0.1-0.8c0.1,0.1,0.1,0.2,0.2,0.4l0.3-0.3c0,0-0.2-1,0.3-0.4
			c-0.4-0.8-0.1-0.5-0.3-0.9c0.1,0.1,0.1,0.2,0.2,0.4c0.1-0.2,0.4-0.5,0.3-1c0,0-1.3-1.4-1.9-2.2c0.3,0.1,0.6-0.2,0.4-0.4
			c0,0-0.2-0.1-0.2-0.1c0,0-0.1,0-0.2,0l0-0.1c0,0.1-0.2,0.1-0.2,0l-0.2-0.1c-0.6,0-1.1-1.2-1.3-1.2c-0.4-0.5-0.3,0.3-0.5,0.1
			c0,0,0,0,0,0c-0.1-0.2-0.2-0.2-0.1-0.1c-0.2-0.2-0.3-0.5-0.5-0.8c0,0,0,0,0,0c-0.6-1.2,0.1-0.6-0.4-1.8c0.1-0.2,1.1-0.3,1-0.9
			c-0.2-0.7-1.7-1.9-2-2.4l0.1-0.2c0-0.3,0.5,0.5,0.7,0.5c-0.1,0.1,1.5,0.7,0.8-0.2c-0.1-0.3,0-0.5,0.3,0c0.3,0.9,0.6,1.2,0.5,0.7
			c0.1-0.1,0.6,0.6,0.6,0.2c0.2,0.2,0.1-0.3,0.3-0.6l-0.1-0.7c0,0,0.1,0,0.2-0.1c0.2,0.3,0.3,0.4,0.6,0.8c0.2-0.2-0.1-0.7-0.3-1
			c0.1-0.1,0.2,0.1,0.6,0.7c0.2,0,0.7,0,0.4-0.7c1.3,1.7,1.1,0.3,1.4-0.2c-1-1.5,0.3-0.3,0.3-0.3c0.6,0.8,1.1,0.4,0.8-0.5
			c0.2-0.3,0.5,0.4,0.1-0.4c0.9,1.2,0.5-0.1,0.3-0.7C190.3,29.4,190.8,31,190.3,30.7L190.3,30.7z M15.1,90.5L15.1,90.5
			c0-0.1,0-0.1,0-0.2C15.2,90.3,15.2,90.3,15.1,90.5z M27.5,89L27.5,89c0-0.2,0-0.3,0-0.4C27.5,88.6,27.5,88.8,27.5,89L27.5,89
			L27.5,89L27.5,89c-0.1-0.4-0.2-0.7-0.2-0.8l0.1-0.2c0.1,0,0.1,0,0.2,0c0,0.2,0,0.4,0,0.6c0-0.1,0-0.2,0-0.2
			c0.1,0.2,0.1,0.4,0.1,0.7C27.6,88.9,27.5,88.9,27.5,89L27.5,89z M25.4,87.8L25.4,87.8c0,0.2-0.1,0.2-0.1,0
			C25.3,87.8,25.3,87.8,25.4,87.8z M84.9,25.6L84.9,25.6L84.9,25.6C84.9,25.6,84.9,25.6,84.9,25.6C84.9,25.6,84.9,25.6,84.9,25.6z
			 M88.7,25L88.7,25c-0.1,0-0.2,0.1-0.3,0.1c-0.2,0-0.3,0-0.5,0.1c0-0.1-0.1-0.2-0.1-0.3C88.1,25,88.6,24.7,88.7,25
			C88.8,25,88.7,25,88.7,25L88.7,25z M99.2,23.5L99.2,23.5C99.2,23.4,99.2,23.4,99.2,23.5C99.2,23.4,99.2,23.4,99.2,23.5
			C99.2,23.4,99.2,23.4,99.2,23.5C99.2,23.4,99.2,23.4,99.2,23.5L99.2,23.5z M99.5,23.2L99.5,23.2c-0.1-0.1-0.1-0.2,0-0.3l0.2,0.2
			C99.6,23.1,99.6,23.2,99.5,23.2L99.5,23.2z M102.1,22.8L102.1,22.8c0,0,0-0.1,0-0.1C102.1,22.7,102.1,22.7,102.1,22.8
			C102.1,22.8,102.1,22.8,102.1,22.8z M102.4,22.6L102.4,22.6C102.4,22.6,102.4,22.6,102.4,22.6C102.4,22.6,102.4,22.6,102.4,22.6
			C102.4,22.6,102.4,22.6,102.4,22.6L102.4,22.6z M167.5,5.4L167.5,5.4c0.4-0.1,0.4-0.6,0-1c0.1-0.2,0.2-0.3,0.3-0.3
			c0.4,0.3-0.1,0.8,0.4,1.1C167.9,5.3,167.8,5.7,167.5,5.4L167.5,5.4z M169.7,80.4L169.7,80.4C169.7,80.4,169.7,80.4,169.7,80.4
			C169.7,80.4,169.7,80.4,169.7,80.4C169.7,80.4,169.7,80.4,169.7,80.4z"/>
		<path class="st0" d="M9.9,89.9C9.9,89.9,9.9,89.9,9.9,89.9C9.9,89.9,9.9,89.9,9.9,89.9z"/>
		<path class="st0" d="M7.3,87.8c0,0-0.1,0-0.1,0C7.2,87.8,7.2,87.8,7.3,87.8z"/>
		<path class="st0" d="M6.5,87.9C6.5,87.9,6.6,87.9,6.5,87.9l0.1,0C6.6,87.9,6.6,87.9,6.5,87.9z"/>
		<path class="st0" d="M6.3,88c0,0,0.1,0,0.1,0C6.4,88,6.4,88,6.3,88C6.3,88,6.3,88,6.3,88z"/>
		<path class="st2" d="M154.2,31.9c-4.3-3-9-4.2-14.1-2.7c-4.9,1.4-9.2,3.9-13.1,7c-1,0.8-1,1.5-0.1,2.4c1,0.9,2.3,1.8,3.4,2.7
			c-1.7,7.9-6,21-8.1,29c-0.7,2.6-1.6,5.9-2,8.3c-0.3,1.7,0.2,3.2,1.7,4.1c0.9,0.6,1.7,1.2,2.7,1.7c1.2,0.6,1.7,0.3,2-1
			c0.9-4.1,2.3-9.2,3.5-13.3c0.5-1.9,2.8-8.9,3.2-10.5c0.2,0.2,0.3,0.3,0.4,0.3c2,1.7,4.2,1.8,6.5,0.7c3.1-1.5,5.6-3.6,7.8-6.1
			c4-4.5,7.3-9.5,8.6-15.5C157.2,36.2,156.7,33.7,154.2,31.9L154.2,31.9z M148.8,36.3L148.8,36.3c-0.5,2-1.1,3.9-2,5.7
			c-2.4,4.9-5.6,9.2-9.8,12.7c-0.6,0.5-1.2,0.9-1.8,1.3c-0.2,0.1-0.5,0.2-1,0.5c0.7-2.6,1.3-4.9,2.1-7.2c1.2-3.7,2.4-7.4,3.7-11
			c0.1-0.4,0.5-0.8,0.8-1.1c1.8-1.3,3.8-2.3,6-2.8C148.4,34,149.2,34.6,148.8,36.3L148.8,36.3z"/>
		<path class="st2" d="M178.1,26.3c-2-0.9-4-1.7-6.1-2.5c-1.3-0.5-2.2,0-3,1.2c-0.3,0.5-0.6,1-1,1.5c-6,10.1-12.1,21.8-17.1,32.4
			c-1.3,2.7-2.4,5.5-3.5,8.3c-0.4,1-0.4,2.2,0.3,3c0.9,1.1,1.9,2,2.9,2.9c0.5,0.4,1,0.3,1.4-0.3c0.2-0.3,0.4-0.7,0.6-1.1
			c0.8-1.8,1.7-3.7,2.5-5.5c0.2-0.3,0.5-0.7,0.8-0.8c4.4-1.7,8.8-3.3,13.4-5c0.1,1.2,0.1,2,0.2,2.8c0.3,3,1.1,3.9,4.1,4.7
			c0.2,0.1,0.4,0.1,0.6,0.2c1.6,0.4,1.9,0.1,2-1.6c0.2-5.8,0.2-11.7,0.7-17.5c0.5-6.2,2.1-13.6,2.8-19.7
			C179.7,27.9,179.4,26.8,178.1,26.3L178.1,26.3z M170.3,39.1L170.3,39.1c-0.3,4.7-0.7,9.5-0.9,14.2c0,0.8-0.3,1.1-1,1.3
			c-2.9,0.8-5.8,1.7-8.7,2.5c-0.1,0-0.1-0.1-0.2-0.1c3.6-6.8,7.2-13.6,10.8-20.3c0.1,0,0.2,0.1,0.2,0.1
			C170.5,37.5,170.4,38.3,170.3,39.1L170.3,39.1z"/>
		<path class="st2" d="M22.1,90.1c2.5,1.7,5.2,2.8,8.2,3.1c2.6,0.3,5.1,0,7.3-1.7c3.3-2.7,5.6-6.1,7-10.1c0.5-1.5,0.3-2.9-0.5-4.3
			c-1.3-2.1-2-2.1-3.3-0.1c-1.8,2.8-3.8,5.4-6.2,7.6c-1.3,1.2-2.8,2.2-4.3,3.1c-1.7,0.9-2.8,0.3-3.1-1.6c-0.2-1.3-0.3-2.7-0.2-4.1
			c0.3-4.4,1.7-8.6,3.4-12.7c2.1-5,4.6-9.8,8.1-14c0.6-0.8,1.4-1.5,2.2-2.1c0.2-0.2,0.7-0.4,1-0.2c0.2,0.1,0.3,0.6,0.3,0.9
			c0,0.6-0.1,1.1-0.2,1.7c-0.6,2.1-1.2,4.2-1.7,6.3c-0.4,1.3-0.4,2.7,0.5,3.8c0.7,0.9,1.8,1.6,2.7,2.3c1.3,0.9,1.9,0.7,2.6-0.7
			c0.6-1.1,1.1-2.3,1.6-3.4c1.2-3,2.2-6.1,2.4-9.4c0.1-2.2-0.6-4-2.7-5.1c-1.7-0.8-3.3-1.7-5.1-2.3c-1.9-0.7-3.7-0.5-5.5,0.4
			c-2.5,1.4-4.5,3.3-6.2,5.5c-5.4,6.8-9,14.6-11.3,23c-0.7,2.6-1.2,5.3-0.8,7.7C18.6,86.6,19.9,88.6,22.1,90.1L22.1,90.1z"/>
		<path class="st2" d="M76.3,45.9c-1.7-0.8-3.4-1.5-5.1-2.1c-2.2-0.8-2.9-0.4-4.1,1.5c-4.7,7.6-8.9,15.5-12.8,23.6
			c-2.5,5-4.4,8.5-6.7,13.6c-1.5,3.2-1,4.7,1.8,6.9c0.1,0.1,0.1,0.1,0.2,0.2c1.3,1,1.8,0.9,2.5-0.6c0.9-1.9,1.3-2.2,2.2-4.1
			c0.2-0.4,0.7-0.8,1.1-1c1.5-0.7,3-1.3,4.5-1.8c2.8-1,5.6-1.9,8.6-2.9c0.1,1.4,0.2,2.7,0.3,3.9c0.1,1,0.5,2,1.5,2.4
			c1.2,0.5,2.4,1,3.6,1.3c1,0.3,1.4-0.2,1.4-1.2c0-1.1,0-2.2,0-3.3c0-7.4,0.6-14.8,1.4-22.1C77,56.4,77.5,52.7,78,49
			C78.2,47.4,77.8,46.6,76.3,45.9L76.3,45.9z M68.3,72.9L68.3,72.9l-3.4-2.7l-6.4,5.6c3.8-7,7.4-13.9,11.1-20.8
			C69.2,61.1,68.8,67,68.3,72.9L68.3,72.9z"/>
		<path class="st3" d="M191.9,19.4v1h-1.7v4.7H189v-4.7h-1.7v-1H191.9z M193.7,25.1L193.7,25.1h-1.1v-5.7h1.7l1,4.5l1-4.5h1.7v5.7
			h-1.1v-3.8c0-0.1,0-0.3,0-0.5c0-0.2,0-0.4,0-0.5l-1.1,4.8h-1.2l-1.1-4.8c0,0.1,0,0.3,0,0.5c0,0.2,0,0.4,0,0.5L193.7,25.1
			L193.7,25.1z"/>
		<path class="st2" d="M99.5,65.8c1-2.4,1.9-4.8,2.9-7.1c3.4-7.8,7.2-15.4,11.7-22.6c1.4-2.2,1.9-2.4,4.2-1.1
			c1.5,0.8,2.9,1.8,4.3,2.8c1.7,1.2,2,2.8,1.4,4.8c-1.4,4-7.9,33-9.8,40.8c-0.6,2.4-0.9,2.6-3.1,1.5c-0.6-0.3-1.2-0.6-1.8-0.9
			c-1.1-0.5-1.7-1.4-1.5-2.5c0.3-2.5,4.6-23.9,5.4-29.2c-0.3,0.7-0.7,1.3-1,1.9c-3.7,8-7,15.7-10.2,24.3c-0.5,1.6-1,1.8-2.6,1.4
			c-1.2-0.3-2.4-0.7-3.6-1.1c-1.5-0.5-2.4-1.6-2.5-3.1c-0.3-2.5-0.6-5.1-0.7-7.6c-0.2-3-0.3-5.9-0.5-8.9c-0.4,1.3-0.8,2.6-1.1,4
			c-1.8,7.5-3.6,15-5.4,22.5c-0.3,1.4-0.9,1.8-2.3,1.1c-0.8-0.4-1.5-0.8-2.3-1.3c-1.5-0.9-2-2.3-1.7-3.9c1.1-5.3,2-10.7,3.3-16
			c1.8-7.5,3.4-15.1,6.2-22.3c1.1-2.8,1.6-3.1,4.4-2.1c1.5,0.5,2.9,1.2,4.3,1.8c1.2,0.6,1.7,1.7,1.7,3c-0.2,5.3,0.3,10.8,0.1,16.1
			c0,1.3,0,2.5,0,3.8C99.4,65.8,99.5,65.8,99.5,65.8L99.5,65.8z"/>
	</g>
</g>
</svg>
