<?xml version="1.0" encoding="utf-8"?>
<!-- Generator: Adobe Illustrator 24.3.0, SVG Export Plug-In . SVG Version: 6.00 Build 0)  -->
<svg version="1.1" id="Layer_1" xmlns:xodm="http://www.corel.com/coreldraw/odm/2003"
	 xmlns="http://www.w3.org/2000/svg" xmlns:xlink="http://www.w3.org/1999/xlink" x="0px" y="0px" viewBox="0 0 226.8 209.3"
	 style="enable-background:new 0 0 226.8 209.3;" xml:space="preserve">
<style type="text/css">
	.st0{fill:#E31E24;}
	.st1{fill-rule:evenodd;clip-rule:evenodd;fill:url(#SVGID_1_);}
	.st2{fill:#FEFEFE;}
	.st3{fill:#FFFFFF;}
	.st4{fill:#2F2C2D;}
</style>
<g id="Layer_x0020_1">
	<g id="_2345155731088">
		<g>
			<polygon class="st0" points="156.7,71.4 156.7,71.4 156.7,71.4 			"/>
			<path class="st0" d="M157.4,71.3l-0.3,0C157.3,71.5,157.3,71.4,157.4,71.3z"/>
			<path class="st0" d="M157,71.4C157,71.4,156.9,71.4,157,71.4l-0.1,0C156.9,71.4,156.9,71.4,157,71.4L157,71.4z"/>
			<path class="st0" d="M29.8,68C29.9,68.1,29.9,68.1,29.8,68C29.9,68.1,29.9,68.1,29.8,68z"/>
			<path class="st0" d="M156.8,71.4L156.8,71.4C156.7,71.4,156.8,71.4,156.8,71.4z"/>
			<path class="st0" d="M156.8,71.4L156.8,71.4C156.8,71.4,156.8,71.4,156.8,71.4C156.8,71.4,156.8,71.4,156.8,71.4L156.8,71.4z"/>
			<path class="st0" d="M156.8,71.3c0,0,0.1,0,0.1,0l0.3,0c0,0,0,0,0,0C157.1,71.4,157,71.4,156.8,71.3
				C156.8,71.3,156.8,71.3,156.8,71.3L156.8,71.3z"/>
			<path class="st0" d="M74.2,23.2C74.2,23.2,74.2,23.1,74.2,23.2C74.1,23.2,74.2,23.2,74.2,23.2z"/>
			<path class="st0" d="M167,1.8C167,1.8,167,1.8,167,1.8C167,1.8,167,1.8,167,1.8z"/>
			
				<linearGradient id="SVGID_1_" gradientUnits="userSpaceOnUse" x1="8237.0264" y1="-4239.002" x2="10357.9473" y2="-3075.2512" gradientTransform="matrix(7.212829e-02 0 0 -7.212829e-02 -562.29 -220.3882)">
				<stop  offset="0" style="stop-color:#E31E24"/>
				<stop  offset="0.4" style="stop-color:#E31E24"/>
				<stop  offset="0.7098" style="stop-color:#962983"/>
				<stop  offset="1" style="stop-color:#962983"/>
			</linearGradient>
			<path class="st1" d="M166.2,66.1C166.2,66.1,166.3,66,166.2,66.1C166.3,66.1,166.3,66.1,166.2,66.1
				C166.3,66.1,166.2,66.1,166.2,66.1z M164.4,4.4c0.3,0,0.3-0.5,0-0.8c0.1-0.1,0.1-0.2,0.2-0.2c0.3,0.3-0.1,0.6,0.3,0.9
				C164.8,4.4,164.7,4.7,164.4,4.4z M111.1,18.6C111.1,18.6,111.1,18.6,111.1,18.6C111.1,18.6,111.1,18.6,111.1,18.6
				C111.1,18.6,111.1,18.6,111.1,18.6z M110.9,18.7c0,0,0-0.1,0-0.1C110.9,18.6,110.9,18.7,110.9,18.7
				C110.9,18.7,110.9,18.7,110.9,18.7z M108.7,19.1c-0.1-0.1-0.1-0.2,0-0.3l0.2,0.2C108.8,19,108.8,19.1,108.7,19.1L108.7,19.1z
				 M108.5,19.3C108.5,19.3,108.5,19.3,108.5,19.3C108.5,19.3,108.5,19.3,108.5,19.3C108.5,19.3,108.5,19.3,108.5,19.3
				C108.5,19.3,108.5,19.3,108.5,19.3z M99.9,20.6c-0.1,0-0.1,0-0.2,0.1c-0.1,0-0.3,0-0.4,0.1c0-0.1,0-0.2-0.1-0.2
				C99.4,20.6,99.8,20.3,99.9,20.6C99.9,20.5,99.9,20.5,99.9,20.6z M96.8,21C96.8,21,96.8,21,96.8,21C96.8,21,96.8,21,96.8,21
				C96.8,21,96.8,21,96.8,21z M48,72.1c0,0.2-0.1,0.1-0.1,0C47.9,72.1,47.9,72.1,48,72.1z M49.7,73.1c0-0.1,0-0.3,0-0.4
				C49.7,72.9,49.7,73,49.7,73.1C49.7,73.1,49.7,73.1,49.7,73.1C49.7,73.1,49.7,73.1,49.7,73.1L49.7,73.1c-0.1-0.3-0.1-0.6-0.2-0.7
				l0.1-0.2c0,0,0.1,0,0.1,0c0,0.1,0,0.3,0,0.5c0-0.1,0-0.1,0-0.2c0,0.1,0.1,0.3,0.1,0.5C49.8,73.1,49.7,73.1,49.7,73.1z M39.6,74.4
				c0-0.1,0-0.1,0-0.2C39.6,74.2,39.6,74.2,39.6,74.4z M183.1,25.2c-0.2-0.5-0.3-0.5-0.4-0.7c0.4,0.5,0,0.3,0.1,0.6
				c-0.3-0.4-0.2-0.1-0.2-0.1c-0.2-0.2-0.5-1-0.5-0.6c-0.3-0.7-0.6-0.5-0.5,0c0-0.1-0.1,0-0.1,0.1c-0.3-0.2-0.2-0.6-0.5-1l-0.2,0.2
				c0,0,0,0.3-0.2,0c-0.2-0.4-0.3-0.2-0.3-0.2c-0.2-0.4-0.9-0.7-0.9-0.7s-0.7-1.4-0.7-0.8c-0.2-0.9-1.6-0.7-1.6-0.5
				c-0.3-0.3-0.3-0.4-0.7-0.7c-0.1,0.1-1.5-0.5-1.3-0.7c0,0.1,0-0.4,0.5-1.1c0.7-0.3,1.7-0.7,2.1-1.6c0.5-0.1,1.3-1,1.6-1.4
				c0.6-0.7,1.1-1.2,1.5-2c-0.2,0-0.2-0.2-0.4-0.3c0.1-0.2,0-0.1-0.2-0.4c-0.2,0.5-0.7,0-0.7,0.5c-0.1,0.2-0.3-0.2-0.4-0.3
				c-0.3,0.2-0.6,0.3-0.9,0.4c0.2-0.4,0.4-0.4,0.6-1c-1.1,0.4-2.7,0.9-3.9,2.1c-0.1,0.1-0.3,0-0.4-0.1c0,0.1,0,0.2,0.1,0.3
				c-0.1,0-0.3,0.2-0.4,0.3c-0.3-0.5-0.7,0.5-0.9,1c-0.2-0.2,0-0.4,0.1-0.7c-0.1,0.1-0.4,0-0.4-0.3c0.2-0.3,0.3-0.1,0.4-0.5
				c-0.1-0.2-0.2,0.5-0.3,0.1c-0.2,0.2,0,0.3-0.1,0.4c-0.1,0-0.1,0.1-0.2,0c0-0.2,0.1-0.5,0.1-0.7c0,0,0.1,0,0.1-0.1
				c0,0.4,0.3,0,0.5-0.1c0.1,0.1,0.1,0.2,0.2,0.3c0.4-0.3,0.4-1,0.7-1.2c0.1,0.2-0.2,0.5-0.3,0.8c0.2,0,0.5-0.2,0.4-0.5
				c0.5,0.1,0.9-0.5,1.3-1c-0.3-0.1-0.5,0.4-0.8,0.7c0.1-0.7,0.6-1,1-0.7c0.3-0.4,0.6-0.8,1.1-0.6c1-1.1,2.2-1.1,3.2-2.1
				c-0.3-0.3-0.5,0-0.9-0.4c-0.3,0.2-0.5,0.2-0.9,0c-0.1,0.1,0,0.2-0.1,0.3c-0.3-0.4-0.4,0.1-0.7-0.1c-0.1-0.1,0-0.3,0.1-0.5
				c-0.3-0.2-0.5,0.2-0.8,0.1c-0.2-0.1,0-0.3-0.1-0.4c-0.4-0.1-0.5,0.4-1,0.6c-0.2-0.3,0.3-0.7,0.4-0.9c-0.1,0-0.2,0-0.3-0.1
				c0,0.1,0,0.1,0.1,0.2c-0.2,0.2-0.3,0-0.3,0.3c-0.1-0.1-0.1-0.2-0.2-0.3c-0.3,0.3-0.6,0.3-1,0.3c-0.1,0.2-0.1,0.4,0.1,0.5
				c-0.1,0.2-0.5-0.2-0.6-0.4c0.4-0.2,1.7-0.8,1.7-1.3c0.6-0.3,0.3-0.6,0.9-0.5c-0.1-0.2,0.1-0.2,0.2-0.2c0,0,0.1-0.1,0.1-0.1
				c0-0.1,0.1-0.1,0.2-0.2c0,0,0,0.1,0,0.1c0.1-0.1,0.3-0.3,0.4-0.4c0.2,0.1-0.1,0.3,0.2,0.3c0-0.5,0.6-0.6,1-0.6
				c0.2-0.5,0.6-0.4,0.9-0.6c0-0.4-0.4,0-0.5,0c0.3-0.3,1.6-0.8,2.3-0.5c0.3-0.6,1.2-0.6,1.1-1.8c0.4,0.1,0.4-0.5,0.7-0.4
				c0,0.2-0.2,0.2-0.1,0.5c0.7-0.6,1.3-1.5,1.2-2.3c-0.2-0.2-0.6-0.3-0.6-0.6c-0.5-0.2-1.1,0-1.4-0.8c-0.1,0.4-0.5,0.3-0.5,0.8
				c0.1,0.1,0.1-0.1,0.2-0.2c0.1,0.2,0,0.2-0.1,0.3c-0.2-0.2-0.3-0.3-0.4-0.2c-0.2-0.1-0.1-0.3,0-0.5c-0.1,0-0.2,0.1-0.2,0.2
				c-0.4-0.4-1,0.2-1.4,0.5c-0.6-0.5-1.1,0.5-1.5,1.1L178.7,2c0.1-0.7,0.6-0.9,0.8-1.4c-0.1-0.2-0.2,0-0.3-0.2
				c-0.7,0.9-1.3,0.8-2,1.4c0-0.1,0-0.1-0.1-0.2c-0.3,0.1-0.6,0.2-0.5,0.5c-0.1,0.2-0.1-0.4-0.3-0.1c-0.1-0.1,0.2-0.2,0-0.4
				c-0.2,0-0.3,0.5-0.2,0.7c-0.1,0.1-0.2-0.3-0.3-0.4c-0.2,0.2,0,0.4-0.1,0.6c-0.1,0.2-0.2-0.2-0.1-0.2c-0.2-0.1-0.1,0.3-0.1,0.4
				c-0.1,0-0.2-0.1-0.3-0.3c0,0.1-0.1,0.1-0.1,0.1c-0.3,0.1-0.6,0.2-0.8,0.8c-0.3-0.1,0-0.3-0.2-0.5c0.2-0.1-0.6-0.8-0.7-0.9
				c0,0,0,0,0,0c0,0,0,0,0,0c0,0-0.3-0.1-0.5,0.1c-0.1-0.2-0.1-0.5-0.2-0.8c-0.1,0.3-0.1,0.2-0.2,0.4c-0.2-0.1-0.2-0.3-0.3-0.4
				c-0.1,0.1-0.1,0.2-0.1,0.3c-0.2-0.1-0.1-0.3-0.3-0.4c-0.3,0.2-0.6,0.2-0.9,0.3c-0.2-0.3-0.3-0.3-0.3-0.2
				c-0.8-0.1-1.4,0.7-2.1,0.6c0,0.1,0.1,0.2,0.1,0.2c-0.1,0.2-0.2,0.4-0.3,0.4c-0.4-1-0.9,0.5-1.4,0.4c0-0.9,0.5-0.8,0.8-1.3
				c-0.2-0.2-0.8,0.3-0.8,0.3C167,2,167,1.9,167,1.8c-0.1,0.1-0.6,0.4-0.7,0.8c-0.2-0.1-0.2-0.3-0.1-0.5c-0.2-0.3-0.3,0-0.5,0
				c0.1,0.2,0,0.3-0.1,0.6c0.1,0.1,0.2-0.2,0.3,0.1c-0.1,0.2-0.3,0.2-0.5,0.1l-0.3,0.7c-0.1-0.4,0-0.3-0.3-0.3
				c-0.3-0.1,0-0.4-0.2-0.5c0,0.6-0.3,0.5-0.5,1.1c-0.3,0-0.6,0-0.9-0.1c-0.1,0.7-0.4,0.8-0.7,1.2c-0.3-0.1,0.1-0.4,0-0.5
				c-0.3,0.1-0.6,0.7-0.7,1.2l-0.2,0c0-0.1,0-0.3,0-0.4c-0.1,0.3-0.2,0.2-0.3,0.5c-0.6-0.6-0.5,0.5-1.1,0c-0.4,0.4-0.3,0.3-0.7,0.6
				c0.2,0.1,0,0.2,0.1,0.3c-0.1,0.1-0.3,0.1-0.4,0.3c-0.3-0.2,0-0.4,0.1-0.4c-0.1-0.3-0.6,0.2-0.5,0.5c-0.2,0-0.4,0.3-0.6,0
				c-0.3,0-0.5,0.7-0.8,0.6c-0.2-0.3,0-0.7,0.1-1.1c-0.3,0.1-0.4,0.7-0.9,0.7c-0.2-0.2-0.1-0.3-0.3-0.2c-0.1,0.3,0.3,0,0.2,0.3
				c0.1,0,0.3,0,0.4-0.1c0.1,0.3,0.1,0.3,0.3,0.2c0.1,0.1,0,0.2-0.1,0.3c-0.1,0.1-0.3-0.3-0.4-0.2c0,0.1-0.1,0.2,0,0.3
				c-0.1,0.1-0.2,0.1-0.3,0.1c-0.1-0.1-0.2-0.1-0.2-0.1c0,0,0,0,0,0c0-0.1,0-0.1,0.1-0.2c0.1-0.1,0.1,0.1,0.2,0.2
				c0-0.2,0-0.4-0.1-0.6c-0.3,0.7-0.6,1-1,1.2c-0.1,0-0.2,0-0.2,0c-0.3,0-0.5,0.2-0.6,0.4c0,0,0,0,0-0.1c0,0,0,0.1-0.1,0.1
				c-0.1,0.1-0.1,0.2-0.2,0.2c-0.1-0.1-0.2-0.1-0.1-0.2c0,0.1-0.2,0.4-0.4,0.6c0-0.3,0.4-0.5,0.3-0.6c0.2,0.3,0.3,0.1,0-0.1
				c-0.1,0.1-0.2,0.1-0.3,0.2c0,0-0.1-0.1-0.1-0.1c-0.4,0.3-0.7,0.5-1,0.6c-0.2-0.4,0.5-0.4,0.4-0.8c-0.2,0.1-0.3-0.1-0.3,0.2
				c-0.6-0.2-1.5,0.8-2.2,1.2c-0.1,0-0.1,0-0.2,0.1c-0.1-0.2,0.3-0.4,0-0.5c0,0.3-0.2,0.5-0.4,0.6c-0.2-0.2,0.3-0.4,0-0.5
				c0,0.4-0.3,0.5-0.4,0.7c0,0,0.1,0,0.1,0c-0.3,0.1-0.6,0.2-1,0.3c0,0,0-0.1,0-0.1c-0.1-0.1-0.2,0.2-0.4,0c0,0,0,0.1,0,0.1
				c-0.1,0-0.2,0.2-0.3,0c-0.1,0.1,0,0.2,0,0.2c-0.2,0-0.4,0.1-0.6,0.1c-0.5,0.1-0.9,0.3-1.4,0.5c-0.1-0.1,0-0.2,0-0.4
				c-0.1,0-0.2,0.1-0.4,0.1c0,0,0,0,0,0c-0.2,0-0.3,0.2-0.4,0.1c-0.1,0.1,0,0.2,0,0.4c-0.1,0-0.1,0-0.2,0.1c-0.1,0-0.2,0-0.3,0
				c0-0.1,0-0.1-0.1-0.2c0,0.1,0,0.2,0,0.3c-0.1,0-0.1,0-0.2,0.1c0-0.1,0-0.2-0.2-0.2c0,0.1,0,0.2,0,0.3c-0.1,0-0.1,0-0.2,0.1
				c0,0-0.1,0-0.1,0c0,0-0.1,0-0.1,0c0-0.1,0-0.1-0.1-0.2c0,0.1,0,0.1,0,0.2c-0.1,0-0.2,0-0.2,0.1c0-0.1,0-0.1-0.1-0.2
				c0,0.1,0,0.1,0,0.2c-0.1,0-0.1,0-0.2,0c-0.2-0.1-0.5-0.3-0.5-0.5c-0.4,0.3,0.2,0.3,0.2,0.6c0,0-0.1,0-0.1,0
				c-0.2-0.1-0.5-0.3-0.5-0.5c-0.3,0.2,0,0.3,0.1,0.4c-0.1,0.1-0.1,0.1-0.2,0.1c0,0-0.1-0.1-0.1-0.1c-0.1,0.2-0.4,0.2-0.5,0.3
				c-0.1,0-0.1,0-0.2,0.1c0,0-0.1-0.1-0.1-0.1l-0.1,0.2c-0.1,0-0.1,0-0.2,0c0,0,0-0.1-0.1-0.1l-0.1,0.2c-0.2,0.1-0.4,0.1-0.6,0.2
				c-0.1,0-0.1,0-0.2,0c-0.1,0-0.1,0-0.2,0c-0.1,0-0.1,0-0.2,0c-0.4,0.1-0.9,0.2-1.3,0.3c0-0.1,0.1-0.3,0-0.4
				c-0.1,0.2-0.2,0.3-0.3,0.4c0-0.1,0.1-0.3,0-0.4c-0.1,0.2-0.2,0.3-0.3,0.4c-0.1,0-0.2,0-0.2,0.1c0,0,0-0.1-0.1-0.2
				c0.1-0.3,0.3,0,0.4-0.3c-0.1-0.2-0.3,0-0.4,0c0,0-0.1,0-0.1,0c0,0,0-0.1-0.1-0.1c-0.1,0.1-0.2,0.2-0.3,0.2c0,0-0.1-0.1-0.1-0.2
				c-0.1,0.1-0.1,0.2-0.2,0.2c-0.1-0.2-0.3,0.2-0.6-0.1c0,0.1-0.1,0.1-0.1,0.2c-0.1,0-0.1,0-0.2-0.1c-0.2,0.3-0.4,0.4-0.6,0.5
				c-0.1-0.1-0.2-0.2-0.2-0.4c0,0.3,0,0.4-0.2,0.4c-0.1-0.1-0.1-0.1-0.2-0.3c0.1,0.5-0.1,0.3-0.3,0.5c0,0,0,0,0-0.1
				c-0.2-0.2,0,0.4-0.2,0.1c0,0,0,0.1,0.1,0.1c-0.1-0.1-0.2,0-0.1-0.1c-0.2-0.2,0,0.4-0.2,0.1c0,0.1,0.1,0.2,0.1,0.3
				c-0.1,0-0.2,0-0.2,0c0,0,0,0,0,0c0,0,0,0,0,0c0-0.1,0-0.3-0.1-0.4c0,0.1,0,0.3,0,0.4c-0.1,0-0.1,0-0.2,0c0-0.1,0-0.3-0.1-0.4
				c0,0.1-0.1,0.3,0,0.4c-0.1,0-0.2,0-0.3,0.1c0-0.1-0.1-0.2-0.1-0.2c-0.1,0.1-0.2,0.2-0.2,0.2c0,0,0-0.1-0.1-0.1
				c0,0.1-0.1,0.1-0.1,0.1c-0.1,0-0.2,0-0.2,0c0,0.1,0,0.1,0,0.1c-0.1,0-0.2,0-0.3,0c0,0.1,0,0.2-0.1,0.2c-0.1,0-0.2,0-0.3,0.1
				c0-0.1,0.2-0.3,0-0.3c-0.1,0.2-0.2,0.3-0.3,0.3c0-0.1,0.1-0.2-0.1-0.2c0,0.1-0.1,0.2-0.2,0.2c-0.1,0-0.2,0-0.3,0c0,0,0,0,0,0
				c-0.1,0-0.2,0-0.2,0c0,0-0.1-0.1-0.1-0.1c-0.1,0-0.1,0.1-0.1,0.2c0,0,0,0,0,0c0-0.1-0.1-0.1-0.1-0.1c0,0,0,0-0.1,0
				c-0.1-0.1-0.3,0-0.4,0.1c-0.2,0-0.4,0.1-0.5,0.3c-0.3,0.1-0.7,0.1-1,0.2c-0.1,0-0.1,0-0.2,0c-0.1,0-0.1,0-0.2,0c0,0,0,0-0.1,0
				c-0.1,0-0.3,0-0.4,0.1c0-0.1-0.1-0.1-0.1-0.2c-0.1,0.1-0.2,0-0.3,0.1c0,0,0,0,0,0c-0.1,0.1-0.2,0.1-0.2,0.1l-0.1-0.1
				c0,0,0,0.1,0,0.1c0,0-0.1,0.1-0.1,0.1c0,0-0.1,0-0.1,0l-0.2-0.2c0,0.1,0,0.1,0,0.2c-0.1,0-0.1,0-0.2,0c-0.1,0-0.1-0.1-0.1-0.1
				c0,0.1,0,0.1,0,0.2c0,0-0.1,0-0.1,0c0,0-0.1-0.1-0.1-0.1c0,0.1,0,0.1,0,0.1c-0.2,0-0.3,0.1-0.5,0.1c0-0.1,0-0.1,0.1-0.2
				c-0.2,0-0.5,0.3-0.6,0.3c-0.2-0.1-0.4-0.4-0.6-0.3c0,0.1,0.1,0.3,0.3,0.4c-0.1,0-0.2,0-0.4,0.1c0,0-0.1-0.1-0.1-0.1
				c0,0,0,0.1,0,0.1c-0.1,0-0.1,0-0.2,0c0,0,0,0-0.1-0.1c0,0,0,0.1,0,0.1c-0.1,0-0.2,0-0.3,0.1c0-0.1,0.1-0.3-0.1-0.5
				c0,0.2-0.1,0.2,0,0.5c-0.1,0-0.1,0-0.2,0c0,0-0.1,0-0.1,0c0,0,0,0,0,0c0,0,0,0,0,0c0-0.1,0,0,0,0c0,0-0.1,0-0.2,0
				c-0.1,0-0.1-0.1-0.2-0.1c0-0.2,0.4-0.1,0.3-0.5c-0.2,0.3-1.3,1-1.2,0.2c-0.1,0-0.3,0.3-0.4,0.1c-0.1,0.5-0.5,0.4-0.8,0.6
				c-0.1,0-0.3,0.1-0.4,0.1c-0.1-0.1-0.2,0-0.2-0.3c-0.1-0.1-0.1,0.1-0.2,0.3c-0.1,0-0.1,0-0.1-0.2c-0.1-0.1-0.1,0.2-0.2,0.3
				c-0.1,0-0.3,0.1-0.4,0.1c-0.2,0-0.5,0.1-0.7,0.1c0,0-0.1,0-0.1,0c-0.1,0-0.2,0-0.3,0.1c-0.1,0-0.2,0-0.3-0.1c0,0.1,0,0.1,0.1,0.1
				c0,0-0.1,0-0.1,0c-0.1,0-0.1,0-0.2-0.1c0,0,0,0.1,0.1,0.1c0,0,0,0,0,0c0,0,0,0,0,0c-0.1,0-0.1,0-0.1,0.1c0,0-0.1,0-0.1,0
				c0,0-0.1,0-0.1,0c0,0,0,0-0.1,0c0,0,0,0-0.1,0c0,0,0,0,0,0.1c0,0,0,0-0.1,0c-0.1,0-0.1,0-0.2,0l0,0c0,0,0,0,0,0
				c0,0-0.1,0-0.1,0.1c0,0,0,0,0,0c-0.1,0-0.1,0-0.2,0c-0.1,0-0.1,0-0.2,0c0,0-0.1,0-0.1-0.1c0,0,0,0.1-0.1,0.1c0,0-0.1,0-0.1,0
				c0,0-0.1,0-0.1-0.1c0,0,0,0.1-0.1,0.1c-0.6,0.1-1.1,0.2-1.7,0.4c-0.2,0-0.5,0.1-0.7,0.2c-0.1,0-0.1,0-0.2,0
				c-0.3,0.1-0.5,0.1-0.7,0c-0.1-0.1,0.1-0.3,0-0.4c-0.3-0.1-0.5,0.5-0.8,0c0,0.1,0,0.2,0.1,0.3c-0.1,0.2-0.2,0.1-0.3,0.3
				c-0.1-0.1-0.1-0.2,0-0.3c-0.2-0.1-0.3,0.1-0.4,0c0,0,0,0,0,0c-0.1,0-0.2,0.1-0.2,0c0,0,0,0,0,0l-0.2,0.3c0-0.1,0-0.1-0.1-0.2l0,0
				c0-0.1,0-0.1-0.1-0.2c-0.1,0-0.2,0.1-0.2,0.1c0,0,0,0,0,0c-0.2,0.1-0.4,0.1-0.5,0.2c-0.2,0.1-0.4,0.1-0.6,0.1l0,0
				c-0.1,0-0.2,0-0.2,0c0,0,0,0,0,0c-0.3-0.1-0.7,0.2-0.9,0.4c0,0,0,0-0.1,0c-0.1-0.2-0.2-0.3-0.4,0c0,0,0.1,0.1,0.1,0.1
				c0,0,0,0.1-0.1,0.2c-0.5,0.1-1,0.2-1.6,0.3c0-0.1,0-0.2-0.1-0.3c0.1-0.1,0.4,0,0.4-0.3c-0.2,0.1-0.2,0-0.3-0.2
				c0,0.3-0.2,0.3-0.2,0.5c-0.2,0.1-0.3-0.1-0.5,0.2c-0.2-0.4-0.6-0.2-0.9,0.1c0,0-0.1,0-0.1,0c-0.1-0.3-0.2-0.3-0.3-0.1
				c0,0-0.1,0-0.2,0c0-0.1,0-0.1,0-0.2c-0.1-0.1-0.3,0-0.4,0c-0.2,0-0.3,0.1-0.5,0.2c0,0-0.1,0-0.1,0c0,0,0,0,0,0.1
				c-0.1,0-0.1,0-0.2,0c0,0.1,0,0.2,0.1,0.2c0,0-0.1,0-0.1,0.1c-0.1-0.1-0.1-0.2-0.1-0.3c-0.2,0,0.1,0.4-0.2,0.2l0,0
				c0,0,0-0.1,0-0.2c-0.1,0-0.1,0-0.1,0.1c-0.1-0.1-0.1-0.2-0.1-0.3c-0.1,0.1-0.1,0.1-0.2,0.1c0,0,0,0,0,0c0,0,0,0,0,0
				c-0.2,0-0.3,0-0.4,0.1c-0.1,0-0.1,0-0.2,0c0-0.1,0-0.2-0.2-0.2c0,0.2,0,0.2-0.1,0.2c0,0,0-0.1-0.1-0.1c0,0,0,0,0,0.1c0,0,0,0,0,0
				c-0.1,0-0.1,0.1-0.2,0.1c0,0,0,0,0,0c-0.2,0-0.2,0.2-0.3,0.3c-0.1,0-0.2,0-0.3-0.1c0,0.4-0.4,0.3-0.7,0.3c0-0.1,0-0.2-0.1-0.3
				c-0.1,0.4-0.4,0.1-0.6,0.5c0,0.1,0,0.1,0,0.2c-0.1,0-0.1,0-0.2,0.1c-0.2,0-0.5,0.1-0.7,0.1c0.1-0.3,0.2-0.6,0.4-0.8
				c-0.2,0-0.3-0.1-0.5-0.2c-0.1,0.1,0,0.4-0.2,0.2c0,0.1,0,0.2,0,0.3c-0.2,0.2-0.1-0.1-0.4-0.3c0.1,0.5-0.7,0.7-0.9,0.2
				c0,0.3-0.2,0-0.3,0.4c0.2,0.2,0.3-0.1,0.5,0.1c0,0.2-0.4,0.1-0.6,0.1c0,0.1,0,0.2-0.1,0.3c-0.1,0-0.1,0-0.2,0
				c0-0.1,0-0.1,0.1-0.2c-0.1,0-0.1,0.1-0.1,0.2c0,0,0,0,0,0c0-0.1,0-0.3-0.2-0.3c0.1,0.3,0,0.2-0.1,0.3c0,0-0.1,0-0.1,0
				c-0.1-0.2-0.4,0.1-0.5,0.1c-0.1-0.3-1.8,0.4-1.9-0.1c-0.1-0.1-2.4,0.6-3.6,0.8c-0.1,0-0.1,0-0.1,0c-0.5,0.1-1.1,0.1-1.6,0.2
				c0-0.1,0-0.2-0.2-0.3c-0.2,0.2-0.3,0-0.5,0.3c-0.1,0-0.1,0-0.2,0c0-0.1,0-0.2-0.1-0.3c0,0.1-0.1,0.2-0.2,0.3
				c-0.5,0.1-1,0.1-1.6,0.2c0-0.1,0.1-0.2-0.1-0.3c-0.1,0.2-0.4,0.1-0.3,0.3c-0.2,0-0.3,0-0.5,0.1c0-0.2,0-0.4,0.2-0.2
				c-0.1-0.4-0.6,0.4-0.7-0.2l-0.2,0.4c0,0,0.1,0.1,0.1,0.1c-0.1,0-0.1,0-0.2,0c0,0,0,0,0,0c0,0,0,0,0,0c-0.2,0-0.5,0.1-0.7,0.1
				c-0.1-0.1-0.3-0.1-0.5-0.2c-0.2,0.4-1-0.1-1.4,0.3c0,0.1,0,0.1,0,0.1c-0.1,0-0.1,0-0.2,0c0,0,0,0,0,0C80.2,23,80,22.9,80,22.8
				c-0.1,0.1-0.1,0.3-0.2,0.4c-0.1,0-0.3,0-0.4,0c0,0-0.1,0-0.1,0c0,0-0.1-0.1-0.1-0.1c-0.1,0-0.4,0.4-0.5,0
				c-0.3,0.4-0.7,0.3-1.1,0.3c-0.2-0.2,0.1-0.4-0.1-0.6c-0.3,0.2,0.1,0.4-0.1,0.6c-0.2,0.2-0.3-0.3-0.5-0.5c-0.1,0.2-0.3,0-0.4,0
				c0-0.2,0-0.3-0.3-0.5c0,0.1,0,0.3-0.1,0.2c-0.1,0.2,0.2,0,0.2,0.2c-0.1,0.2-0.3,0-0.4,0c-0.1,0.2,0.2,0.2,0.3,0.2
				c0,0.2,0,0.3,0,0.5c-0.2,0-0.2-0.2-0.3,0.2c-0.3-0.3,0-0.2,0-0.5c-0.2-0.2-0.2,0.2-0.2,0.3c-0.2,0.1-0.5,0-0.7,0.1
				c0-0.2,0.1-0.4,0.1-0.6c-0.2-0.1-0.5-0.6-0.7-0.3c-0.2-0.3-0.3,0.2-0.3,0.3c0,0.1,0.1,0.3,0,0.4c-0.2,0.1-0.2-0.4-0.3,0.1
				c-0.2-0.1,0.1-0.3-0.1-0.4c0.1,0.4-0.2,0.4-0.4,0.2c-0.1,0.3,0.1,0.3,0.2,0.2c-0.1,0.1-0.2,0.1-0.2,0.2c-0.1-0.1-0.4-0.3-0.3-0.4
				c-0.1,0-0.4,0.4-0.3,0c-0.2-0.1-0.2,0.6-0.5,0.4c-0.1-0.1,0.1-0.2,0.1-0.3c-0.3,0-0.7-0.3-0.8,0.1c-0.1,0.1-0.4,0-0.2-0.2
				c-0.1,0-0.1,0.2-0.1,0.2c0.3,0.3-0.1,0.3-0.1,0.7c-0.1-0.3-0.2,0-0.3,0.2c-0.1-0.1-0.1-0.1-0.1-0.2c0,0.2-1.2,0.1-1.3,0.1
				c-0.3,0-0.5,0.2-0.8,0.2c-0.6,0.1-1.2,0.1-1.8,0.3c-0.1-0.1,0-0.2,0.1-0.3c-0.1-0.1-0.3-0.1-0.4,0.2c-0.1-0.4-0.2,0-0.4-0.2
				c-0.2-0.1,0.3-0.3,0-0.5c-0.1,0.4-0.3,0.2-0.6,0.1c-0.1,0.3-0.3,0.6-0.6,0.2c-0.1,0.3-0.3,0.1-0.4,0.4c-0.6-0.8-1.5-0.1-2.4-0.4
				c0.1,0.3-0.1,0.5-0.3,0.2c-0.2,0.2-0.1,0.3-0.1,0.5c-0.1,0-0.1,0.1-0.2,0c0-0.2-0.1-0.4,0.1-0.6c-0.3-0.2,0,0.5-0.4,0.2
				c0,0.5-0.1,0.3-0.4,0.4c-0.1-0.1,0-0.3,0.1-0.5c-0.5,0.5-1.2,0.4-1.8,0.3c-0.2,0-0.3-0.1-0.5-0.3c-0.1-0.1-0.2-0.2-0.4-0.2
				c-0.1,0-0.3,0-0.4,0.1c0,0-0.4,0.3-0.3,0.4c-0.2-0.2,0.2-0.4-0.1-0.5c-0.1,0.4-0.7,0-1,0.1c-0.1,0.1,0,0.2-0.1,0.3
				c0-0.1,0-0.2-0.1-0.3c-0.2,0,0,0.1-0.2,0.3c-0.1-0.1,0-0.2,0-0.3c-0.2-0.2-0.4,0-0.4,0.3c-0.1-0.1-0.1-0.1-0.2-0.1
				c-0.1-0.1,0-0.2,0.1-0.3c-0.5,0-1.2-0.4-1.5,0.1c-0.5-0.3-0.3,0.1-0.6-0.1c0,0.1-0.1,0.2-0.1,0.3c0,0.1-0.1,0.1-0.2,0.2
				c0,0-0.1,0-0.1,0.1c0,0,0,0-0.1,0c0,0,0,0,0,0c0,0,0,0,0,0c0,0,0,0,0,0c0,0-0.1,0-0.1,0c0,0,0,0-0.1,0c0,0,0-0.2,0-0.2
				c0-0.1,0,0.1-0.1,0.2c0,0,0,0,0,0c0,0,0,0,0,0c0-0.1-0.1,0.1-0.1-0.2c0,0.1-0.1,0.1-0.1,0.1c0,0-0.2-0.1-0.2-0.1
				c-0.1,0-0.1-0.1-0.2-0.1c0,0-0.1,0-0.1,0c0,0-0.1,0-0.1,0c-0.1-0.1,0-0.2,0.1-0.3c-0.1,0-0.3-0.1-0.4,0c-0.1,0.1-0.1-0.2-0.2,0.1
				c0-0.1,0.1-0.2,0.1-0.2c0,0,0,0.1,0,0c0-0.1,0-0.1,0.1-0.1c-0.1,0-0.1,0.1-0.1,0.2c0,0.1,0,0.1,0,0.2c0,0,0,0.1-0.1,0.1
				c0,0-0.1,0-0.1,0c0,0-0.1-0.1-0.1,0c-0.1,0-0.1,0.1-0.1,0.1c0-0.1,0,0-0.1,0c-0.1,0-0.1-0.1-0.1,0l0,0c0,0,0,0,0,0
				c0,0-0.1,0-0.1,0c0,0,0,0,0,0c0,0,0,0,0,0c0,0,0,0,0-0.1l0,0.1c0,0,0,0,0,0c0-0.1,0-0.2-0.2,0c0,0,0,0,0,0c0-0.2,0-0.5,0-0.5
				c0,0,0-0.1,0-0.1c0,0,0-0.1,0-0.1c0,0,0,0-0.1,0c0,0,0,0,0,0c0,0,0,0,0,0c0,0-0.1,0.1-0.1,0.1c0,0,0,0.1-0.1,0.1c0,0,0,0,0-0.1
				c0,0.1,0,0.2-0.1,0.3c-0.1,0-0.1-0.4-0.2-0.1c0,0,0-0.1,0-0.1c-0.1,0.1-0.2,0.1-0.2,0.3c0.1-0.7-0.3,0.3-0.2-0.3l-0.1,0l0-0.1
				c-0.1-0.1-0.1,0.1-0.2,0.2c0,0,0-0.1,0-0.1c-0.1-0.1-0.1-0.1-0.3,0.2l0-0.2c0,0.1-0.1-0.3-0.3-0.1c0,0,0-0.1,0-0.1
				c-0.2,0.2-0.3-0.6-0.4,0.1L48,24.8c0,0,0.1,0.1,0,0.1c-0.1,0,0-0.1-0.1-0.1c0,0,0,0,0,0c0,0,0,0,0,0c0,0,0-0.1,0-0.1
				c-0.1,0-0.2-0.1-0.3-0.1c-0.1,0-0.1-0.1-0.2-0.1c-0.1,0-0.1,0-0.1,0c0,0,0,0-0.1,0c0,0-0.1,0-0.1,0c0,0,0,0,0,0c0,0,0,0,0,0
				c0,0-0.1,0-0.1,0c0,0,0,0,0,0c0,0,0,0,0,0l-0.1,0l0,0.2c0,0.1-0.1,0,0,0.2c-0.1-0.4-0.3-0.1-0.4-0.3c-0.1,0.2-0.1,0.2-0.2,0.1
				c0,0,0,0.3,0,0.3c0-0.5-0.1-0.2-0.2-0.6c0.1,0.3-0.2,0.1-0.1,0.4c-0.1,0,0-0.2-0.1-0.3c-0.1,0.2-0.3-0.1-0.4,0c0,0.1,0,0.2,0,0.3
				l-0.1-0.3c0,0,0,0.4-0.1,0.2c0,0.1,0,0.1,0,0.2c-0.2-0.1-0.3-0.1-0.5,0c-0.2,0-0.3,0.1-0.5-0.2c0.1,0.1,0.1,0.1,0,0.2
				c0,0,0,0,0,0c0,0,0,0,0,0c0,0,0,0,0,0c0,0,0,0,0,0c0,0-0.1,0-0.1,0c0,0,0,0,0-0.1c0,0.1,0,0.1-0.1,0.2C44,25,44,25.1,43.9,25.2
				c-0.1,0.1-0.2,0.1-0.3,0c-0.2,0.2-0.6,0.1-0.8,0.3c-0.4-0.4-0.3,0.1-0.8,0.6c0.2,0,0.3-0.2,0.5-0.2c0.2,0,0.3,0,0.5,0
				c0.2,0,0.3,0.1,0.5,0.2c0,0,0.1,0.1,0.1,0.1c0,0,0.1,0,0.1-0.1c0.2,0.4,0.8,0.3,1.1,0.1c0.1,0.2,0.1,0.3,0.3,0
				c0.6,0.4,1.1,0.4,1.6,0.2c0.1,0.4,0.5,0.1,0.4,0.5c0-0.1,0.3-0.2,0.3-0.1c0.2,0.2-0.3,0.3-0.5,0.3c-0.3,0.1-0.5,0.2-0.8,0.3
				c-0.5,0.2-1,0.5-1.5,0.7c-0.1-0.1-0.3-0.2-0.4-0.3c0.2-0.2,0.2-0.4,0.4-0.6c-0.5,0.1-0.9,0.6-1.2,0.2c0.1,0.5-0.2,0.8,0,1.4
				c-0.3,0-0.5-0.2-0.8-0.3c0,0.2,0.2,0.3,0.2,0.5c-0.1,0.2-0.2,0-0.3,0c0.1,0.3-0.1,0.4-0.3,0.6c-0.2-0.2-0.5-0.5-0.5-0.2
				c-0.2-0.2-0.1-0.4-0.3-0.4c-0.1-0.2,0-0.2,0.1-0.3c0,0-0.4,0-0.5,0c-0.1,0-0.3,0.1-0.4,0.2c-0.1,0.1-0.2,0.1-0.3,0.2
				c-0.1,0.1,0,0.2-0.1,0.3c-0.1,0.2-0.2-0.1-0.2-0.1c-0.1,0-0.1,0-0.1,0c0,0-0.2-0.1-0.2-0.1c0,0.3-0.3,0.2-0.3,0
				c-0.2,0.5-0.8,0.3-1.3-0.1c0.1,0.1-0.1,0.5-0.2,0.5c0,0-0.1,0-0.1,0.1c-0.1,0-0.2,0.1-0.3,0.1c0,0-0.1,0-0.1,0
				c-0.1,0-0.2,0-0.2-0.1C37.2,30,37,30,36.9,30c0,0-0.4-0.2-0.3-0.3c-0.3,0.3-0.3-0.1-0.6,0.1c-0.1-0.2,0.1-0.1,0.2-0.3
				c-0.3-0.3-0.6,0.1-0.9-0.1c-0.1,0.2-0.1,0.3-0.1,0.6c-0.2-0.1-0.5,0.1-0.5,0.4c-0.2-0.1,0.1-0.3-0.1-0.4
				c-0.1-0.1-0.2,0.1-0.3,0.1c0,0,0,0-0.1,0c0,0-0.1,0-0.1,0C34,30,34,30,34,29.9c0,0,0-0.1,0.1-0.1c0,0,0-0.1,0-0.1
				c-0.1,0-0.2-0.1-0.3,0c-0.2-0.1-0.1-0.3-0.2-0.4c-0.2,0.2-0.7,0.5-0.8,0.3c-0.1-0.1-0.1,0.1,0,0.2c-0.2,0.1-0.3,0.2-0.6-0.2
				c-0.1,0.3-0.2,0.1-0.3,0.3c0.2-0.2,0.5,0.4,0.6,0c0.2,0.3,0,0.5,0.4,0.6c-0.2,0.5-0.4,0-0.5,0c-0.2,0.3,0.2,0.2,0.3,0.5
				c0.1-0.2,0.2-0.2,0.3,0c0,0,0.1-0.1,0.1-0.2c0,0,0.1-0.1,0.1-0.1c0,0,0,0,0.1,0c0,0,0.1,0,0.1,0.1c0,0,0,0,0,0c0,0,0,0,0.1,0
				c-0.2-0.4,0.2,0,0.4,0c0,0.1,0,0.3,0,0.3c0.2,0.1,0.5,0.3,0.6,0.2c0.2,0.5,0.5,0.1,0.7,0.6c0.1,0,0.1-0.1,0.2-0.2
				c0-0.1,0.1-0.2,0.2-0.1c0,0,0.1,0.1,0,0.1c0,0-0.1,0.1,0,0.1c0,0.1,0.1,0.1,0.2,0.2c0.1,0,0.1,0,0.2,0c0.1,0,0.1,0,0.2,0
				c0,0,0.1,0,0.1,0c0.1,0,0,0,0.1,0c0,0,0,0,0.1,0c0.4,0.1,0.8,0.1,1.2,0.3c0.1,0,0.2,0.1,0.4,0.1c0.1,0,0.3,0,0.3,0.1
				c0,0,0.1,0,0.2-0.1c0,0,0.4,0,0.5,0c0.2,0,0.3,0,0.5,0.1c0-0.1,0-0.1,0.1-0.1c0.1,0,0.1,0,0.2,0.1c0.1,0,0.2,0.1,0.2,0.1l0.2-0.3
				c0.1,0,0.2,0,0.3,0c0.1,0.1,0,0.3-0.1,0.5c0.4,0.1,0.1-0.6,0.5-0.4c0,0,0-0.1,0-0.1c0,0,0,0,0-0.1c0,0,0,0,0.1,0c0,0,0.1,0,0.1,0
				c0,0,0,0,0.1,0c0.1,0,0.1,0.1,0.2,0.2c0.1,0.1,0.2,0.1,0.3,0.1c0.2,0.1,0.3,0.1,0.5,0.2c-0.3,0.2-1-0.2-1,0.3
				c-0.3,0-0.6-0.2-0.9-0.1c0,0.1,0,0.2-0.1,0.2c0,0,0,0-0.1,0c-0.1,0-0.1-0.1-0.1-0.1c0,0-0.1,0.1-0.1,0.1c0,0,0,0.1-0.1,0.1
				c0,0-0.1,0-0.1,0.1c0,0,0,0,0,0c0,0,0,0,0,0c0,0.1-0.1,0.1-0.2,0.2C39,33.9,39,34,39,34c-0.2-0.1-0.1-0.3-0.2-0.4
				c-0.2,0.3-0.1,0-0.4,0c0,0-0.1,0.1-0.1,0.1c0,0-0.1,0-0.2,0c-0.1,0-0.3-0.1-0.4-0.2c-0.1-0.1,0-0.3,0.1-0.3c0-0.1,0-0.1-0.1-0.2
				c-0.2,0.3-0.2,0.3-0.4,0.1c0,0-0.1,0.2-0.1,0.2c0,0.1,0,0.2,0,0.2c0,0-0.1,0-0.1,0c0,0-0.1,0-0.1,0c-0.1,0,0-0.1-0.1-0.1
				c-0.2-0.3-0.3,0-0.4-0.2c-0.1,0.1,0,0.2,0,0.3c0,0,0,0-0.1,0c0,0,0,0-0.1,0c-0.1,0-0.2-0.1-0.3-0.1c0,0-0.1,0-0.2,0
				c0,0-0.1,0-0.1,0c0,0-0.1,0-0.1,0c-0.1,0-0.1,0.1-0.2,0.1c-0.1,0-0.3,0-0.3-0.1c0,0,0,0,0,0c0,0,0,0,0,0c-0.1,0.1-0.3,0-0.4-0.1
				c0,0,0,0,0,0c0,0,0,0,0,0c-0.1,0.1-0.2,0.1-0.3,0.1c-0.1,0-0.2-0.1-0.2-0.2c0,0,0,0,0,0c-0.1,0-0.1,0.2-0.2,0.3c0,0-0.2,0-0.2,0
				c0,0.3,0.1,0.4-0.1,0.6c0.1,0.1,0.2,0.2,0.2,0.2c0.1,0.1,0.1,0.2,0.2,0.3c0,0,0-0.1,0-0.1c0,0,0,0,0.1,0c0.1,0,0.2,0,0.3,0.1
				c0,0,0.1,0,0.1,0c0.1,0,0.1,0,0.1-0.1c0,0,0,0,0,0c0.2,0.1,0.4-0.1,0.4,0.3c0,0,0.2,0,0.3,0c0.1,0,0.2,0,0.3,0
				c0,0,0.1,0.1,0.1,0.1c0,0,0,0,0.1,0c0,0,0,0,0.1,0c0.1,0-0.1,0.1-0.1,0.1c0,0-0.1,0-0.1,0c0,0-0.1,0.1-0.1,0.1c0.1,0,0.1,0,0.2,0
				c0.1,0,0.1,0.1,0.2,0.1c0,0,0,0,0,0c0,0,0,0,0,0c0.1,0,0.1,0,0.1,0c0.1,0,0.2-0.1,0.3-0.1c0.1,0,0.2,0,0.3,0.1
				c0.2,0.1,0.4,0.2,0.6,0.1c0,0,0,0,0,0c0,0,0.1,0,0.1,0c0,0,0,0,0,0c0,0,0,0,0,0c0,0,0.1,0,0.1,0c0,0,0,0,0,0.1c0,0,0,0,0,0
				c0.1,0,0.1,0,0.2,0c0.1,0,0.2,0,0.4,0c0.1,0,0.2,0,0.4,0c0,0,0.3,0,0.4,0c0,0.1,0.1,0.3,0,0c0.4,0,0.8,0,1.2,0
				c-0.1,0.1,0.1-0.2,0.1,0l0.1,0c0,0,0,0,0.1,0c0,0,0,0,0.1,0c0,0,0.1,0,0.1,0.1c0,0,0,0,0,0.1c0,0,0.1,0.1,0.1,0.1c0,0,0,0,0,0
				c0,0,0,0,0,0c0,0-0.1,0.1-0.1,0.1c-0.1,0-0.1,0-0.2,0c0,0-0.1,0-0.1,0c-0.1,0-0.1,0-0.1,0c-0.1,0-0.1,0-0.1,0.1
				c0-0.1,0-0.1,0-0.2c0,0,0,0.1,0,0c0-0.1,0-0.1,0-0.1c-0.1,0-0.1,0.3-0.2,0.5c0-0.1,0-0.3-0.1-0.1c0,0,0,0,0,0
				c-0.1,0-0.2-0.1-0.2,0.1c0,0-0.1,0-0.1,0c-0.1,0-0.1,0-0.2,0l0,0c-0.1,0.2-0.1,0-0.1,0.1l0,0c-0.1-0.2-0.1,0.1-0.2-0.1
				c0-0.1,0-0.1,0-0.2c0,0.1-0.1,0.2-0.1,0.3c0-0.1-0.1-0.1-0.1-0.1l0,0.1c-0.1,0.1-0.1-0.4-0.1-0.5c0,0,0,0,0,0
				c0,0.1-0.1,0.2-0.1,0.2c0-0.1,0-0.2,0-0.2c0-0.1-0.2,0.2-0.3,0c0,0.1,0,0.2,0,0.2c-0.1,0-0.2-0.3-0.2-0.1c0,0,0,0,0-0.1
				C38,36,37.9,36,37.9,36.2c0-0.2-0.1-0.2-0.1-0.2c0-0.1-0.1-0.1-0.1-0.2c0,0.1-0.1,0.1-0.2,0.1c0,0-0.1,0-0.1,0
				c0,0-0.1,0.1-0.1,0.2c0,0,0-0.1,0-0.1c-0.1-0.1-0.2-0.1-0.3,0.1c0-0.1,0-0.1,0-0.2c0,0,0,0-0.1,0c0,0,0,0-0.1,0c0,0-0.1,0-0.1,0
				c-0.1,0-0.1,0-0.2,0c0,0,0-0.1-0.1-0.1c0,0-0.1-0.1-0.1-0.1c-0.1-0.1-0.2,0.1-0.2,0.2c0,0-0.1,0.1-0.1,0.1c0,0,0,0,0,0
				c0,0,0,0,0,0c0,0,0,0-0.1-0.1c0,0,0,0-0.1,0c0,0,0,0-0.1,0c0,0,0-0.1,0-0.1c-0.1,0-0.3-0.1-0.4-0.1c-0.1,0-0.1,0-0.2-0.1
				c-0.1,0-0.1,0-0.2,0c0,0,0,0-0.1,0c0,0,0,0,0,0c0,0,0,0,0,0c0,0,0,0,0,0c0,0,0,0,0,0c0,0,0,0,0,0c0,0,0,0,0,0c0,0,0,0-0.1,0
				c0,0,0,0,0,0c0,0,0,0,0,0l0,0c0,0,0,0,0,0l-0.1,0c0,0.1,0,0.1-0.1,0.2c0,0-0.1,0-0.1,0c0,0,0,0-0.1,0c0,0,0,0,0,0
				c0,0-0.1,0-0.1,0c0,0-0.2,0-0.2,0c0,0-0.1,0.1-0.1,0.1c0,0-0.1,0-0.1,0c0,0,0,0.1,0,0.1c0,0,0,0,0-0.1c0,0,0,0,0,0c0,0,0,0,0-0.1
				c-0.1-0.1-0.1-0.1-0.1-0.2c0,0.2-0.2,0-0.2,0.3c-0.1,0,0-0.2,0-0.3c-0.2,0.1-0.3-0.1-0.5-0.1c0,0.1,0,0.1,0,0.2l-0.1-0.3
				c0,0-0.1,0.3-0.1,0.1c0,0,0,0.1,0,0.1c-0.3-0.3-0.7,0.1-1.1-0.4c0,0.1,0,0.1,0,0.1c0,0,0,0.1,0,0.2l-0.1-0.2c0,0.2-0.2,0-0.2,0.2
				l0,0c-0.1,0.2,0,0.5,0,0.8c0.1-0.3,0.2,0.4,0.3,0c0,0.1,0,0.1,0,0.2c0-0.1,0.1-0.1,0.1-0.1l0,0c0,0,0.1,0,0.1,0
				c0,0,0.1,0,0.1,0.1c0.1,0.1,0.2,0.1,0.2,0.2c0,0,0-0.1,0.1-0.1c0,0,0.1,0,0.1,0c0.1,0,0.1,0,0.2,0.1c0,0,0,0,0,0c0,0,0,0.1,0,0.1
				c0,0,0,0,0,0c0,0,0,0,0.1,0c0,0,0,0,0,0c0,0,0,0,0,0c0,0,0,0,0,0c0.1,0,0.1,0,0.2,0c0,0,0,0,0.1,0c0,0,0.1,0,0.1,0
				c0.1,0,0.2,0,0.3-0.1l0-0.1c0.2-0.1,0.1,0.1,0.3,0l0,0c0-0.1,0.1-0.1,0.1-0.1c0,0.1,0.1,0.2,0,0.2c0,0,0.1-0.1,0.1-0.1
				c0,0,0-0.1,0-0.1c0,0,0.1,0,0.1,0c0.1,0,0.1,0.1,0,0.1c0.1,0.3,0.3-0.2,0.3,0.1c0-0.2,0.2-0.2,0.2,0c0,0,0,0,0,0
				c0,0.1,0.1-0.1,0.1,0c0.1-0.4,0.4-0.1,0,0c0,0.1,0.3,0,0.3,0c0,0,0,0.1,0,0.1c0.1-0.1,0.3,0.3,0.2-0.1c0.2,0.1,0.6,0.1,0.7,0.3
				c-0.1,0.1,0.1,0.3,0.2,0.1l0.2,0.1c0,0,0-0.1,0-0.1l0.1,0c0,0.1,0,0,0,0.1c0,0,0,0,0,0c0,0.1,0,0.2-0.1,0.4c0,0-0.1,0-0.1-0.1
				c0,0.1,0,0.1,0,0.2c-0.1-0.1-0.2-0.1-0.3-0.1c0,0-0.1,0-0.2,0c0,0,0,0-0.1,0c0,0,0,0-0.1,0c-0.1,0-0.1,0-0.1-0.1c0,0-0.1,0-0.1,0
				c0,0,0-0.1,0-0.1c-0.1,0-0.2,0-0.2-0.1c0,0,0,0,0,0c0,0,0,0,0,0c0,0-0.1,0.1-0.1,0.1c0,0,0,0,0,0c0,0,0,0,0,0
				c-0.1,0-0.6-0.3-0.5,0l-0.1-0.2c0,0.2-0.1,0-0.1,0.2l0,0c0,0.1,0,0.1,0,0.2c-0.1,0-0.2-0.1-0.3-0.1C34,37.9,33.9,38,34,38.2
				l0.1-0.1c0.1,0.2,0,0.3,0,0.4c0,0,0,0,0,0c0,0,0,0,0,0.1c0,0,0,0,0,0.1l0-0.2c0,0,0,0.3-0.1,0.1c0,0,0,0.1,0,0.1
				c-0.2-0.3-0.4,0.2-0.5-0.3c0,0.1,0,0.1,0,0.1c0,0,0,0.1,0,0.2l-0.1-0.2c0,0.2-0.1,0-0.1,0.2l0,0c0,0,0,0.1,0,0.1
				c0,0-0.1,0.1-0.1,0.3l0.1,0.1c0,0.1,0,0.2,0,0.2c0-0.2,0.1,0,0.1,0.1c-0.1,0.3-0.3,0.8-0.5,0.6c0,0.1,0,0.2,0.1,0.2
				c0.1,0,0.1,0,0.2,0c0,0,0.1,0,0.1,0c0.1,0,0.1-0.1,0.2-0.1c0.1,0,0.2,0.1,0.2,0.2c0.1,0.1,0.2,0.2,0.2,0.4c0-0.2-0.1-0.3,0.1-0.3
				c0-0.1,0-0.1,0-0.2l0,0l0,0c0,0,0,0,0,0c0-0.1-0.1-0.2-0.1-0.3c0-0.1,0-0.1,0-0.2c0,0,0.1,0,0.1,0l0,0c0,0,0,0,0,0
				c0.1,0,0.3,0,0.4,0c0,0,0.1,0,0.1,0.1c0.1,0.1,0.2,0.1,0.2,0.2c0,0.1,0,0.2-0.1,0.3l0.2,0c0.1,0.2,0.3,0.3,0.4,0.1
				c0.1,0.1,0.2-0.5,0.2-0.1c0,0,0.1-0.1,0.2-0.1c0.1-0.1,0.2-0.1,0.3-0.1c0.1,0,0.2,0.1,0.2,0.1c0.1,0,0.1,0,0.2,0
				c0.2,0,0.4,0,0.6,0c0.1,0,0.2,0,0.3,0.1c0.1,0,0.2,0.1,0.2,0.1c0.1,0,0.2,0,0.3,0.1c0.1,0,0.2,0,0.2-0.1c0.1,0.2,0.1,0.4,0.2,0.4
				c-0.1,0.1-0.1,0.3-0.2,0.2c0.1,0.3,0,0.3-0.2,0.5c-0.2-0.2,0-0.3-0.3,0c0,0.1-0.1,0.1-0.2,0.1c-0.1,0-0.1,0.1-0.2,0.1
				c0,0-0.1,0-0.1,0c-0.1,0-0.2,0-0.3,0c-0.1,0-0.2,0-0.3,0.1c0,0-0.1,0-0.1,0c0,0-0.1,0-0.1,0c0,0-0.1,0-0.1,0c0,0,0,0,0,0
				c-0.1,0-0.2,0-0.3,0c0,0,0,0,0,0.1c0,0,0,0.1,0,0.1c0,0,0,0,0,0.1c0,0,0,0.1,0,0.1c-0.1,0.1-0.1-0.2-0.2-0.2c0,0,0,0-0.1,0
				c-0.1,0.1,0,0.2-0.2,0.2c-0.1,0-0.1,0-0.2,0c0,0-0.1,0-0.1,0c-0.1,0-0.1,0-0.2-0.1c-0.1,0-0.2,0-0.4,0c-0.1,0-0.1,0-0.2,0
				c-0.1,0-0.1,0-0.2,0c-0.1,0-0.1,0-0.2,0c-0.1,0-0.2,0-0.3,0.1c0,0-0.1,0-0.1,0c-0.1,0-0.1,0-0.2-0.1c0,0,0,0,0,0c0,0,0,0-0.1,0
				c-0.1,0-0.3,0.1-0.4-0.1c0,0-0.1-0.2-0.1-0.2c0,0.3-0.1,0,0,0.2c0-0.1-0.1,0.1-0.1,0.1c0,0,0,0.1,0,0.1c0,0,0,0.1,0,0.1
				c0,0,0,0-0.1,0c-0.3,0-0.3-0.2-0.3-0.4c0,0-0.1,0.2-0.1,0.2c0.3,0.2-0.1,0.9-0.3,1c-0.2-0.8,0.5-0.5-0.2-0.8c0,0,0,0.2,0,0.2
				c0,0,0,0.1,0,0.1c0,0,0,0.1,0,0.1c0,0,0,0,0,0c0,0,0,0-0.1,0c0,0,0,0-0.1,0c0,0,0,0,0,0c0,0,0,0,0,0c0,0,0,0.1,0,0.1
				c0,0.4-0.2,0.9,0,0.4c0.2,0.9,0.2-0.3,0.3-0.1c0.1,1.1,0.2-0.1,0.9,0.5c0,0,0,0.2,0.1,0.2c0.1,0,0.1,0,0.1-0.1
				c0.1-0.1,0.1-0.1,0.1-0.2c0.1-0.1,0.2-0.1,0.3-0.1c0,0,0.1,0,0.1,0c0,0,0.1,0,0.1,0c0.1-0.1,0.3-0.1,0.4-0.2
				c0.1,0,0.2-0.1,0.3-0.1c0.1,0,0.2,0.1,0.3,0.1c0,0,0.1,0,0.1,0c0.1,0,0.2,0,0.2,0c0,0,0.1,0,0.1,0c0,0,0,0,0,0.1
				c0.1,0.1,0.1,0,0.2-0.1c0,0.1,0,0.2,0,0.3c0.1-0.1,0-0.3,0.1-0.3c0,0,0.1,0,0.2-0.1c0.1,0,0.1-0.1,0.2-0.1c0.4-0.1,0.6,0.3,1,0.2
				c0.1,0,0.2-0.1,0.3-0.1c0.1,0,0.1,0,0.2,0c0.1,0,0.1,0,0.2-0.1c0,0,0.1,0,0.2,0c0.1,0,0.2-0.2,0.2-0.3c0.2,0.6,0.9,0.5,0.6-0.5
				c0.3,0.3,0.1,1.3,0.6,0.8c0.1,0.4-0.5,0.8-0.8,0.3c-0.3,0-0.6,0.9-1,0.5l-0.2,0.3c-0.2-0.1,0-0.3,0-0.4c-0.2-0.1-0.4,0.4-0.6,0.2
				c-0.1-0.2,0.2-0.2,0.2-0.3c-0.5,0.2-1,0.5-1.4,0c-0.2,0-0.3,0-0.5,0.3c0.1,0.1,0.2,0.2,0.1,0.3c-0.2-0.3-0.7,0.2-1.1-0.2
				c0.1-0.2,0.2-0.3,0.3-0.2C33.7,44,33.2,44,32.9,44c-0.2,0.3,0.2,0,0.3,0.3c-0.1,0.2-0.3,0-0.5,0.3c0,0.1,0.1,0.2,0,0.3
				c0.1,0.2,0.2,0,0.2,0.2c-0.1,0-0.1,0-0.2,0.1c-0.3-0.5-0.4-0.3-0.7-0.5c0.1-0.3,0.4,0.2,0.5-0.2c-0.1-0.2-0.2-0.1-0.4-0.3
				c0.1,0.3-0.3,0.5-0.5,0.5c-0.1-0.1,0-0.2,0.1-0.3c-0.2-0.3-0.3,0-0.4-0.2c-0.1,0.1,0.2,0.3,0.1,0.4c-0.3,0.3-0.7-0.1-1,0.1
				c0,0.3,0.2-0.1,0.4,0.1c0,0.1,0,0.1,0.1,0.2c-0.3-0.1-0.3,0.2-0.6,0.3c0,0.4,0.3,0.2,0.3-0.1c0.3,0.2-0.2,0.4,0.1,0.4
				c-0.1,0.1,0,0.2-0.1,0.3c0,0,0.1,0,0.1,0.1c0.2-0.2,0.1-0.3,0.2-0.5c0.3,0,0.6,0.1,0.9-0.2c0.4,0.6,0.7,0,1.1,0.2
				c0,0.5-0.5,0.2-0.5,0.7c0.5-0.3,0.9,0.2,1.5-0.4c0,0,0.2,0.3,0.2,0.3c0.1,0.1,0.2,0,0.3,0c0.1,0,0.2,0,0.3,0c0.1,0,0.2,0,0.3-0.1
				c0.2-0.1,0.3-0.2,0.5-0.2c-0.4,0.3-0.7,0.6-0.8,0.6c0.2,0.5,0.7-0.3,1-0.4c0.1,0.3,0.4,0.2,0.6,0.1c0-0.1-0.1-0.2,0-0.3
				c0,0,0.1,0,0.1-0.1c0,0.1,0,0.2,0.1,0.3c0.4,0,0.8-0.3,1.2-0.4c0,0,0,0.2,0.1,0.1c0.1,0,0.1-0.1,0.2-0.1c0,0,0.1,0,0.1,0
				c0,0,0.1,0,0.1,0c-0.2,0.2,0.3,0.2,0.2,0.5c0.1,0.1,0.2-0.4,0.4-0.3c0.2,0.2-0.2,0.4-0.3,0.5c-0.1,0.2,0.2,0.3,0.1,0.5
				c0.2,0.1,0.4-0.2,0.6,0c0,0.3-0.2,0.2-0.2,0.5c0.1,0.1,0.2,0.1,0.3,0.1c0,0,0.1,0,0.1,0c0,0,0.1,0.1,0.1,0.1c0,0,0.1,0,0.1,0
				c0.1,0,0.2,0.1,0.2,0.2c0,0.1-0.1,0.3-0.1,0.4c0,0.2-0.1,0.4-0.2,0.6c0,0.1,0,0.2-0.1,0.3c0,0,0,0.1-0.1,0.1c0,0-0.1,0-0.1,0.1
				c0,0-0.1,0.1-0.1,0.1c0,0,0,0-0.1,0c0,0,0,0-0.1,0c-0.1,0-0.1,0-0.1,0.1c0,0-0.1,0.1-0.1,0.1c-0.1,0-0.1,0-0.2-0.1
				c0-0.1-0.1-0.1-0.2-0.1c0,0-0.1,0-0.1,0c0,0-0.1,0-0.1,0c0,0-0.1,0-0.1,0c0,0,0,0,0,0c0,0,0,0,0,0c-0.1-0.1-0.1-0.1-0.2-0.1
				c-0.1,0-0.1,0-0.2,0.1c-0.1,0.1-0.3,0.1-0.4,0.1c-0.1,0-0.2,0-0.3-0.1c-0.1-0.1-0.1-0.2-0.2-0.2c0,0,0,0,0,0c0,0,0-0.1,0-0.1
				c0,0,0-0.1,0-0.1c0,0,0-0.1,0-0.1c0,0-0.1,0-0.1,0c0,0,0,0.1,0,0.1c0,0,0,0.1,0,0.1c0,0-0.1,0-0.1,0c0,0,0-0.1,0-0.1
				c0,0,0-0.1-0.1-0.1c0,0-0.1,0-0.1,0c-0.1,0-0.1,0.2-0.1,0.2c-0.1,0.1-0.2,0.1-0.3,0.1c-0.2,0-0.3,0.2-0.4,0.4c0-0.1,0-0.2,0-0.3
				c-0.1-0.1-0.2-0.1-0.2-0.1c-0.1,0-0.1,0.1-0.1,0.1c-0.1,0.1-0.2,0.1-0.3,0.1c0,0-0.1,0-0.1-0.1c0-0.1,0-0.1,0.1-0.1
				c0,0,0.1,0,0.1,0c0-0.2-0.2-0.1-0.3-0.3c0,0.1-0.1,0.3-0.2,0.3c-0.1,0.1-0.2,0.3-0.3,0.3c0,0-0.1,0-0.1,0c0,0-0.1,0-0.1,0.1
				c0,0,0,0.1,0,0.1c0,0.1,0.1,0.2,0.2,0.3c0.1,0.1,0.2,0.2,0.3,0.1c0,0,0.1-0.1,0.1-0.1c0,0.2,0.3-0.2,0.3,0.2
				c0.2-0.1,0.2,0,0.1,0.1c0.1,0,0.1,0.2,0.2,0.1c-0.1,0.4,0.2,0.2,0.2,0.3c0.1-0.2,0.3-0.4,0.6-0.3c0,0,0.1,0,0.1,0
				c0.1,0,0.2,0.1,0.3,0.1c0.1,0,0.1,0,0.2,0c0.1,0,0.1,0,0.2,0c0.1,0,0.1,0,0.2,0c0,0,0,0,0,0c0.1,0,0.1,0.1,0,0.1
				c-0.1,0.1-0.2,0.1-0.4,0.2c-0.1,0-0.2,0.1-0.2,0.2c0,0,0,0.1,0,0.1c0,0,0.1,0.1,0.2,0.1c0.4-0.3,0.3-0.1,0.8,0.1
				c0-0.1,0-0.4,0.2-0.4c0.1,0,0.3,0,0.4,0.2c0,0.1,0.1,0.2,0.1,0.2c0.1,0.1,0.2,0.1,0.3,0.2c0.1,0.1,0.1,0.1,0.1,0.2
				c0,0.1,0,0.8,0,0.8c-0.4,0.1-1.6,0-0.9-0.9c-0.4,0.1-0.7,0.6-1,0.2c0,0.2,0,0.5,0,0.7c0,0.2,0,0.4,0,0.7c0,0.1-0.1,0.3-0.1,0.4
				c0,0,0,0.1,0,0.1c0,0.1-0.1,0.1-0.2,0.1c-0.2,0-0.2-0.1-0.2-0.2c0-0.1-0.1-0.2-0.2-0.2c0,0,0,0.2,0,0.2c-0.1,0.1-0.3,0-0.4,0
				c-0.1,0-0.2,0-0.3-0.1c-0.1,0-0.1-0.1-0.1-0.2c0,0,0.1-0.2,0.1-0.2c-0.2,0-0.4-0.1-0.5,0.1c-0.2-0.2,0.1-0.4-0.1-0.7
				c-0.1,0.1,0,0.6-0.2,0.4c0,0.2-0.1,0.3,0.1,0.4c-0.1-0.1-0.2,0.3-0.2,0.3c0,0.1,0,0.4-0.2,0.4c0,0-0.1,0-0.1,0c0,0,0,0.1-0.1,0.1
				c-0.1,0.3-0.4,0.2-0.6,0.1c-0.1,0-0.3,0-0.4,0c-0.5,0-0.9-0.3-1.3-0.4c-0.1,0-0.2,0-0.3,0c-0.2-0.1-0.1-0.4-0.4-0.4
				c-0.2,0-0.3,0.1-0.5,0c-0.1,0.2-0.1,0.3,0,0.6C30,54,30,54.3,29.8,54.2c0,0-0.1,0-0.1,0c-0.1,0-0.2,0-0.3-0.1c0,0-0.1,0-0.1,0
				c0-0.1,0-0.2,0-0.2c0,0-0.1,0-0.1,0c0,0-0.1,0-0.1,0c-0.2-0.1-0.1-0.3-0.2-0.4c-0.2,0.2-0.5,0.5-0.6,0.3c-0.1-0.1-0.1,0.1,0,0.2
				c-0.1,0.1-0.3,0.2-0.5-0.2c-0.1,0.3-0.2,0.1-0.2,0.4c0.1-0.2,0.4,0.4,0.5,0c0.2,0.3,0,0.5,0.3,0.6c-0.2,0.5-0.3,0-0.4,0
				c-0.1,0.3,0.2,0.2,0.2,0.5c0-0.1,0.1-0.2,0.1-0.2c0.1,0,0.1,0.1,0.2,0.1c0.1,0,0.1,0,0.2,0c0.1,0,0.2,0.1,0.2,0.1
				c0,0,0.1,0.1,0.1,0.1c0.1,0.1,0.2,0.1,0.3,0.1c0.1,0,0.1,0,0.2,0c0.1,0.2,0.2,0.3,0.3,0.3c0.1,0,0.1,0,0.1,0.1
				c0,0,0.2,0.2,0.1,0.2c0.2-0.1,0.1-0.4,0.3-0.4c0.1,0.1,0,0.2-0.1,0.3c0,0,0.1,0.2,0.2,0.2c0.1,0,0.1,0,0.2,0c0.2,0,0.4,0,0.7,0
				c0.2,0.1,0.4,0.2,0.7,0.2c0.1,0,0.2,0,0.2,0c0.5,0.2,1.1,0.2,1.6,0.3c0-0.1,0.1-0.2,0.2-0.2c0.1,0,0.2,0.1,0.2,0.2
				c0,0.1-0.1,0.2-0.1,0.3c0,0,0.1,0,0.1-0.1c0-0.1,0-0.1,0-0.2c0-0.1,0-0.2,0.1-0.2c0.1,0,0.3,0.1,0.4,0.1c0.1,0.1,0.5,0.2,0.2,0.4
				c-0.1,0-0.2,0-0.2,0.1c-0.2,0.1-0.1,0.2-0.3,0.2c-0.2,0-0.4,0-0.6,0.1c-0.1,0-0.2,0.1-0.3,0.1c-0.2,0.1-0.5,0.2-0.7,0.2
				c0,0-0.1,0-0.1,0c-0.1,0-0.1,0-0.2,0c-0.1,0-0.1,0-0.2,0c-0.1,0-0.1-0.1-0.1-0.2c0,0,0.1-0.2,0.1-0.2c0-0.1-0.1-0.1-0.1-0.2
				c0,0.1,0,0.2-0.1,0.2c-0.1,0-0.2,0-0.2-0.1c0,0.1,0,0.2,0,0.2c0,0.1,0,0.1-0.1,0.2c-0.2,0.1-0.1-0.2-0.2-0.2c0,0-0.3,0-0.2-0.1
				c-0.1,0.1,0,0.2,0,0.3c-0.2,0.2-0.5-0.4-0.7,0.2c-0.5-0.2-0.8,0.1-1.2-0.3c-0.1,0.3-0.3,0.1-0.4,0.2c0,0.3,0.1,0.4,0,0.6
				c0.2,0.3,0.2,0.2,0.4,0.5c0-0.3,0-0.2,0.1-0.5c0.1-0.1,0.3-0.1,0.3,0c0,0,0.1,0.1,0.1,0.1c0.1,0.1-0.1,0.3-0.1,0.4
				c0.1,0.2,0.4-0.1,0.4,0.3c0.3,0.1,0.5-0.4,0.8,0c-0.1,0.2-0.3,0.1-0.4,0.3c0.1,0,0.2,0,0.4,0.2c0-0.3,0-0.3,0.2,0
				c0.2-0.5,0.6,0.2,0.9,0c0.2,0.1,0,0.3,0,0.4c0.1,0.2,0.2,0,0.3,0.1c-0.1-0.2,0.3-0.6,0.4-0.3c1.3,0.2,2-0.1,3.3,0.2
				c0.2-1,0.8,0.9,0.5-0.8c0,0,0.4,0.2,0.5,0.2c0.1,0.1,0.2,0.1,0.4,0.2c0.2,0.1,0.7,0.4,0.7,0.6c0,0.1-0.1,0.1-0.1,0.1
				c-0.1,0-0.1,0-0.2,0c-0.1,0-0.1,0-0.2,0c-0.1,0-0.2,0.1-0.3,0.1c-0.2,0-0.3-0.1-0.3-0.3c-0.1,0.6,0,0.1-0.5,0.1
				c-0.1,0-0.1,0.1-0.1,0.1c0,0.2-0.3,0.1-0.4,0.2c-0.2,0-0.4,0.1-0.6,0.2c-0.1,0.2,0,0.5,0.1,0.7c0.1,0.2,0.2,0.3,0.4,0.3
				c0,0,0.4,0.1,0.4,0.1c-0.2-0.6,0.7,0.7,0.7,0.4c0-0.1,0.3,0,0.3,0c0.2,0.1,0.3,0.1,0.5,0c0.2,0,0.5,0.1,0.7,0.1
				c0.2,0.1,0.4,0.2,0.7,0.3c0.1,0,0.2,0.1,0.3,0.1c0,0,0.1,0,0.1,0c0,0,0,0.1,0,0.1c0,0.1,0,0.1,0,0.2c0,0.1-0.1,0.1-0.2,0.1
				c0,0,0-0.1,0-0.1c-0.2,0-0.3,0-0.5-0.1c-0.1,0-0.3-0.1-0.4-0.1c-0.2-0.1-0.3,0-0.2,0.2c-0.1-0.3-0.5-0.2-0.7-0.1
				c-0.3,0.1-0.6,0.2-0.8,0.2c-0.1,0-0.1,0-0.2,0c0,0-0.1,0-0.1,0c-0.1,0,0-0.2,0.1-0.2c-0.2,0-0.2,0.2-0.4,0.4c0-0.1,0-0.2-0.1-0.3
				c-0.1,0.2,0.1,0.2,0.1,0.4c-0.1,0.1-0.3-0.1-0.3,0.2c0.6,0.2,1.3,0.2,1.9,0.2c0.2,0.1-0.1,0.3,0.1,0.4c0.2,0,0.1-0.2,0.2-0.3
				c0.2,0.2,0,0.5-0.1,0.8c-0.3-0.1-0.7-0.2-1.1-0.2c-0.1,0-0.3,0-0.4,0.1c-0.1,0.1-0.2,0.2-0.4,0.2c-0.2,0-0.5,0-0.7-0.1
				c0,0-0.1,0-0.1,0c0,0,0,0-0.1,0c-0.2,0-0.3,0.1-0.5,0.1c-0.1,0-0.2,0.1-0.2,0.1c-0.2,0-0.4-0.1-0.6-0.3c0.1,0.3-0.6,0.3-0.3-0.1
				c-0.8,0-0.5,0.3-0.8,0.9c0,0,0.5,0,0.6,0.1c0.1,0,0.1,0,0.2,0.1c0.1,0.1,0,0.2,0.1,0.2c0.1,0,0.1-0.1,0.2,0c0.1,0,0.2,0.1,0.3,0
				c0.2,0,0.2-0.2,0.4-0.1c0.2,0.1,0.3,0.2,0.3,0.4c0,0,0,0.1-0.1,0.1c0,0,0,0-0.1,0c-0.2,0-0.3,0-0.5-0.1c-0.6-0.2-0.5,0.2-0.5,0.8
				c0-0.4-0.7-0.9-1.1-0.7c0,0-0.1,0.1-0.1,0.1c0,0-0.1,0-0.1,0c-0.2,0-0.3,0.1-0.5,0.1c-0.1,0-0.2,0-0.2,0c-0.2,0-0.3,0.2-0.3,0.4
				c0-0.6-0.4-0.7-0.3-0.2c0-0.3-0.3-0.3-0.6-0.4c0.1,0.5,0,0.2-0.1-0.1c0.1,0.6-1.1,0.2-1.3,0.2c-0.4,0.4-0.4,0-0.1,1.3
				c0.1-0.3,0.2,0.5,0.3,0c0,0.1,0,0.1,0,0.2c0-0.3,0.4,0,0.6,0.1c0-0.1,0-0.2,0-0.2c-0.1-0.3,0.2-0.1,0.3,0.2c0.1,0,0-0.4,0.1-0.1
				c0.2-0.4-0.1,0.5,0.3,0c-0.1,0.5-0.2,0.6-0.9,0.4c0.4-0.5,0-0.4-0.5-0.4c0.5,0.6-0.5,0.3,0.1,1.2c-0.3,0.2-0.4-0.4-0.7-0.4
				c0.1-0.3,0.3,0.2,0.4-0.2c-0.2-0.6-0.7,0.7-0.7-0.1c-0.5-0.5,0.1,0.4-1,0.3c0.1,0.3,0.4-0.2,0.4,0.3c-0.5-0.2-0.4,1.1-0.2,0.2
				c0.1,0.5,0.1,1.1,0.3,0.3c0.8,0,2.1-0.4,1.2,0.7c0.5-0.1,1.1-0.3,1.6-0.2c0.3,0.1,0.5,0.2,0.8,0.3c0.2,0,0.5,0,0.7,0
				c0.6,0,1.2,0.4,1.8,0.6c0.4,0.1,0.9,0.1,1.4,0.2c0.2,0.1,0.4,0.1,0.6,0.2c0,0.1,0,0.2-0.1,0.4l-0.2-0.3c-0.1,0.1-0.1,0.3-0.2,0.1
				c0,0.1,0,0.2,0,0.2c-0.3-0.2-0.7,0-1.1,0.1c-0.4,0.1-0.7,0.1-1.1,0.1c0.1,0,0,0.1,0,0.1c0,0,0,0.1,0,0.1c-0.1,0-0.2,0-0.3,0
				c-0.1,0.1-0.3,0.1-0.4,0.1l0.1,0c-0.1,0,0,0,0,0.1c0.1,0,0.1,0.1,0.1,0.1c0.1,0,0.2,0,0.3,0.1c0.1,0.1,0.2,0.2,0.3,0.1
				c0,0.1,0,0,0,0.1c0.1-0.1,0.1-0.1,0.3,0l0,0c0.4,0.1,0.5,0.3,0.9,0.5l0-0.2c0.1,0.1,0.1,0.1,0.1,0.2c0.1-0.3-0.2-0.1-0.1-0.4
				c0,0.2,0.2,0.3,0.3,0.3c0.2,0.1,0.3,0.1,0.3,0.4c0.1,0.1,0-0.3,0.1-0.2l0,0.2l0-0.2c0.1,0.1,0.1,0.3,0.1,0.4c0,0-0.1,0-0.1,0
				c0.1,0.2,0.3,0.1,0.4,0.1l-0.1-0.2c0.4,0,0.8,0.4,1.2,0.1l0-0.2c0.3-0.2,0.2,0.2,0.5,0.2l0,0c0.1-0.2,0.2-0.2,0.2-0.2
				c-0.1,0.2,0.2,0.4,0.4-0.2l0,0.3c0.1-0.3,0.1-0.4,0.3-0.5c-0.1,0.2,0.3,0.7,0.4,0.5c-0.1-0.3,0.2-0.6,0.3-0.5
				c0.1,0,0.1,0.7,0.2,1.1c-0.4,0-0.8,0-1.2,0c-0.6-0.1-1.4-0.2-1.8,0.4c0-0.4-0.2-0.2,0-0.1c-0.1,0.6-0.5-0.3-0.6,0.2
				c-0.3-0.2-0.1-0.2-0.2,0c-0.1,0.3-0.2-0.2-0.3-0.1c-0.1-0.1,0-0.2,0.1-0.3c-0.2-0.1-0.3,0.1-0.2,0.4c-0.3-0.4-0.3,0-0.5-0.5
				c-0.2,0.3-0.3,0.2-0.6,0.1c0,0.2,0.2,0.3,0,0.5c0.1,0.1,0.2,0.2,0.2,0.3c0.2,0,0-0.3,0.2,0c0.1-0.1,0-0.2,0-0.3
				c0.1,0,0.3-0.1,0.5,0c0.2,0,0.3,0.1,0.5,0.2c0.4,0.2,0.7,0.4,1.1,0.6c0.1,0.1,0.2,0.1,0.3,0.1c0.1,0,0.2-0.1,0.4-0.1
				c0.3-0.1,0.7,0.1,0.9,0.3c0.3,0.2,0.5,0.5,0.8,0.7c0.3,0.2,0.6,0.2,0.9,0.4c0.3,0.1,0.6,0.4,0.6,0.7c0,0.2,0.1,0.2,0.2,0.3
				c0,0,0.2,0.3,0.1,0.3c0.2-0.1,0.2-0.4,0.4-0.4c0.1,0.2-0.2,0.3,0,0.6c0.1,0.2,0.3,0.2,0.5,0.3c0.2,0,0.4,0,0.6,0.1
				c0.2,0.1,0.3,0.2,0.5,0.3c0.3,0.2,0.6,0.2,0.9,0.2c0.1,0,0.3,0.1,0.4,0.1c0.1,0,0.2-0.2,0.4-0.1c0.1,0.1,0.1,0.2,0.1,0.3
				c0,0,0,0,0,0.1c0,0,0,0,0,0c0.1,0,0.2,0,0.2,0c0.1,0,0.1-0.1,0.2-0.1c0.1,0,0.2,0,0.2,0c0,0,0,0,0.1,0.1c0.1,0.1,0.2,0.1,0.2,0.1
				c0,0,0,0,0,0c0,0,0,0,0,0c-0.1,0.1-0.3,0-0.4,0c-0.1,0-0.1,0-0.2,0.1c0,0-0.1,0.2,0,0.2c-0.3,0-0.6,0-0.8,0
				c-0.8,0-1.7,0.1-2.4-0.2c-0.1-0.1-0.2-0.1-0.4-0.1c-0.2,0-0.2,0.1-0.3,0.1c-0.1,0-0.3-0.1-0.4-0.1c-0.1,0-0.7-0.2-0.6-0.3
				c-0.1,0.3-0.2,0-0.4,0.1c-0.1,0.3,0,0.4-0.1,0.6c0.2,0.3,0.2,0.2,0.3,0.6c0.1-0.3,0-0.2,0.2-0.5c0.2-0.1,0.3,0.2,0.5-0.1
				c0.1,0.2-0.2,0.5-0.2,0.7c0.1,0.2,0.4,0,0.3,0.4c0.2,0.1,0.5-0.3,0.7,0.2c-0.1,0.2-0.3,0.1-0.5,0.2c0.1,0.1,0.2,0,0.3,0.3
				c0-0.3,0.1-0.3,0.2,0c0.3-0.4,0.6,0.3,0.9,0.1c0.2,0.1,0.2,0.1,0-0.2c0-0.1,0-0.2,0-0.3c0.1,0,0.2,0.1,0.3,0.1
				c0,0.1-0.1,0.3,0.1,0.4c0.1-0.1,0.1-0.2,0.1-0.3c0,0,0.1,0.1,0.2,0c0.1,0.3-0.1,0.2-0.1,0.4c-0.1,0.2-0.2-0.2-0.3,0
				c1.2,0.4,2.4,0.4,3.7,0.8c-0.1,0,0.1-0.1,0.1-0.1c0,0,0.2,0.1,0.3,0.1c0.3,0.1,0.6,0,1,0.1c0.2,0,0.3,0.1,0.5,0.1
				c0.1,0,0.3,0,0.4,0c0.4,0,0.9,0.3,1.3,0.3c0.2,0,0.3-0.1,0.5-0.1c0.7-0.2,1.5,0,2.2,0.2c0.5,0.2,1,0.5,1.6,0.4
				c0.2,0,0.3-0.1,0.5-0.1c0.2,0,0.4,0,0.6,0c0.3,0,0.6,0,0.9,0.1c0,0,0.1,0,0.1,0c0.1,0,0.1-0.1,0.2-0.1c0.1-0.1,0.4-0.2,0.6-0.2
				c0.1,0,0.1,0.1,0.2,0.1c0.1,0.1,0.2,0.1,0.3,0.2c0,0,0.1,0,0.1,0.1c0,0,0,0.1,0,0.1c0,0.1,0,0.3,0,0.4c0,0,0,0.1,0,0.1
				c0,0.1,0,0.1-0.1,0.2c-0.1,0.1-0.2,0.2-0.4,0.3c-0.1,0-0.1,0-0.2,0c0,0-0.1-0.1-0.1-0.1c0,0.3-0.3,0.5-0.5,0.8
				c-0.1-0.5-0.6,0.1-0.9,0.1c-0.9,0.2-1.8,0.1-2.7,0.3c-0.4,0.1-0.7,0.2-1.1,0.2c-0.3,0-0.5-0.1-0.8-0.1c-0.3,0-0.6,0-0.9,0
				c-0.2,0-0.3,0-0.5,0c-0.2,0-0.3,0-0.5,0c-0.1,0-0.2,0-0.3,0c-0.1,0-0.2,0.1-0.3,0.1c-0.2,0-0.2-0.2-0.4-0.2c-0.1,0-0.3,0-0.4,0
				s-0.3,0.1-0.4,0.1c-0.1,0-0.3-0.1-0.4-0.1c0,0-0.1,0-0.1,0c-0.2-0.1-0.4,0.3-0.5,0.4c0-0.1,0-0.2-0.1-0.3
				c-0.1,0.2,0.1,0.2,0.1,0.5c-0.1,0.1-0.3-0.1-0.4,0.2c0.7,0.3,1.3,0.3,2,0.3c0.2,0.1-0.1,0.3,0.1,0.4c0.2,0,0.1-0.2,0.2-0.3
				c0.2,0.3-0.1,0.5-0.2,0.8c-0.3,0-0.5-0.3-0.8-0.3c-0.2,0-0.5,0.2-0.7,0.2c-0.2,0-0.3,0.1-0.5,0.1c-0.4,0-0.8-0.2-1.3-0.2
				c-0.4,0-0.7-0.2-0.9-0.5c0,0-0.1-0.1-0.1-0.1c0,0,0,0,0,0c-0.2,0-0.4,0-0.5-0.1c-0.1,0.1-0.2,0.4-0.2,0.3c0.1,0.3,0,0.3-0.2,0.6
				c0.3,0,0.4,0.2,0.6,0.4c0.1,0.2,0.4,0.3,0.6,0.3c0.2,0.1,0.5,0.1,0.7,0.2c0.2,0.1,0.4,0.2,0.6,0.2c0.6,0.1,1.3,0.1,1.9,0.3
				c0.2-0.4,0.5,0.1,0.8-0.2c0,0.1,0.3,0.2,0.3,0.2c0.1,0,0.2,0,0.3-0.1c0.1,0,0.2-0.1,0.3-0.1c0.2,0,0.2,0.1,0.3,0.2
				c0.1,0.1,0.2,0.2,0.2,0.3c0,0.1-0.1,0.1-0.2,0.1s-0.2,0-0.2,0c0,0-0.1,0-0.1,0c0,0-0.1,0-0.1,0.1c-0.1,0.2-0.4,0.2-0.6,0.1
				c-0.1,0-0.1-0.1-0.2,0c0,0-0.1,0-0.1,0c-0.1,0-0.2,0.1-0.3,0.2c-0.1,0-0.1,0-0.2,0c-0.2,0-0.3,0.1-0.5,0.2
				c-0.3,0.2-0.6,0.2-1,0.1c-0.4,0-0.7-0.1-1.1-0.1c-0.3,0-0.7,0.1-1,0.1c-0.3,0-0.5-0.1-0.8-0.2c-0.2,0-0.3,0-0.5,0
				c-0.2,0-0.2,0.2-0.4,0.1c-0.1,0-0.3,0-0.4,0c-0.1,0-0.1,0-0.2,0c-0.1,0-0.1-0.2-0.2-0.2c-0.1,0-0.2,0-0.3,0c-0.2,0-0.3,0-0.5-0.1
				c-0.1-0.1-0.3-0.1-0.5-0.1c-0.3,0-0.7-0.1-1-0.2c-0.1,0-0.2,0-0.3,0c-0.1,0-0.2,0.1-0.4,0.1c-0.1,0-0.2,0-0.2,0.1
				c0,0.1-0.2,0.2-0.3,0.1c-0.1,0-0.1-0.1-0.2-0.1c-0.1-0.1-0.3-0.1-0.5-0.1c0,0-0.1,0-0.1,0c-0.2,0,0-0.2,0.1-0.3
				c-0.1-0.3-0.2-0.1-0.3-0.3c-0.1,0.1,0.1,0.3,0,0.4c-0.3,0.2-0.6-0.2-0.9-0.2c0,0.3,0.2,0,0.3,0.2c0,0.1,0,0.1,0,0.2
				c-0.2-0.2-0.3,0.1-0.6,0.1c0,0.4,0.2,0.3,0.3,0c0.2,0.2-0.2,0.3,0,0.4c-0.1,0.1-0.1,0.2-0.2,0.3c0,0,0.1,0.1,0.1,0.1
				c0.2-0.1,0.2-0.3,0.3-0.4c0.3,0.1,0.5,0.2,0.8,0c0.3,0.7,0.6,0.2,1,0.4c-0.1,0.5-0.5,0.1-0.6,0.5c0.5-0.1,0.8,0.4,1.4,0
				c0,0.1,0.1,0.2,0.1,0.3c0,0,0,0.1,0.1,0.1c0,0,0.1,0,0.1,0c0,0,0,0,0.1,0c0.2,0.1,0.4,0.1,0.6,0.1c0.2,0,0.3-0.1,0.5-0.1
				c-0.4,0.2-0.7,0.5-0.8,0.5c0.1,0.5,0.7-0.1,1-0.2c0,0.2,0,0.3,0.2,0.3C40,93,40.2,93,40.3,93c0,0,0.1,0,0.1,0c0,0,0,0,0.1,0.1
				c0.1,0.1,0.3,0.2,0.4,0.3c0.1,0,0.2,0,0.3,0c0.1,0,0.2-0.1,0.3,0c0.1,0,0.1,0.1,0.1,0.1c0.1,0,0.1,0.1,0.2,0.1
				c0.1,0,0.1,0.1,0.1,0.2c0,0.1,0,0.1,0,0.1c0,0,0.1,0,0.1,0c0.1,0,0.1,0,0.2,0c0.1,0,0.2,0,0.3,0c0,0,0,0,0.1,0c0,0,0,0,0,0
				c0,0,0.1,0,0.2,0c0.1,0,0.1,0,0.2,0c0.1,0,0.2-0.1,0.4-0.1c0.1,0,0.3,0,0.4,0.1c0.1,0.1,0.2,0.1,0.3,0.2c0.1,0.1,0.1,0.1,0.2,0.2
				c0.1,0.2,0.2,0.4,0.3,0.5c0.1,0,0.2,0.1,0.3,0.1c0.1,0,0.1,0.1,0.2,0.1c0,0,0.1,0,0.1,0.1c0.1,0,0.1,0,0.2,0c0.1,0,0.2,0,0.3,0
				c0,0,0.2,0.1,0.2,0.1c0-0.3,0.2-0.3,0.1-0.6c0.2,0.3,0.3-0.1,0.6,0.1c-0.2-0.5,0.4-0.2,0.3-0.5c0.3,0.2-0.2,0.4,0.1,0.6
				c0.1-0.3,0.3-0.3,0.4-0.2c0,0,0,0.2,0,0.2c0,0.1,0,0.1,0,0.2c0,0.1,0,0.1,0.1,0.1c0,0,0.1,0.1,0.1,0.1c0,0,0.1,0,0.1,0
				c0.1,0,0.1,0.1,0.2,0.1c0.1,0,0.2,0,0.2,0c0.1,0,0.2,0,0.3,0c0.1,0,0.2,0.1,0.3,0.1c0.2,0,0.3,0,0.5,0c0.3,0,0.7-0.1,0.9,0.2
				c0,0,0.1,0.1,0.1,0.1c0.2,0,0.4,0,0.6,0.1c0-0.5,0.4-0.2,0.6-0.3c0,0.1,0,0.2,0.1,0.3c0-0.3,0.3-0.4,0.3-0.1
				c0.4-0.4,1,0.1,1.5-0.2c-0.2-0.2,0.1-0.3,0.1-0.4c0.1,0.1-0.1,0.3-0.1,0.5c0.5,0.3,0.8-0.2,1.2-0.3c0.1,0.5,0.6,0.4,0.6,0.1
				c0.1,0.2,0.2,0,0.3,0.2c0.1-0.7,1.2,0.2,1.6-0.5c0.5,0.7,1-0.6,1.4,0.1c-0.1-0.1-0.3,0.1-0.4,0.1c0.2,0.3,0.5-0.2,0.9-0.1
				c0.1,0,0.7,0.4,0.6,0c0.1-0.2,0.2,0.2,0.3,0.2c0.3-0.3,0.6-0.1,0.8-0.5c0.4,0.2,1.1,0,1.7-0.1c4.4-0.2,8.7-0.7,12.9-1.2
				c0.1,0.1,0.1,0.1,0.2,0.2c0,0,0,0-0.1,0.1c-0.1-0.1-0.4,0.3-0.5,0.2c-0.2,0.1-0.3,0.1-0.5,0.2c-0.1,0-0.2,0-0.3,0
				c-0.2,0-0.4,0.1-0.5,0.1c-0.1-0.1-0.3-0.1-0.3,0.1c0,0,0,0-0.1,0c-0.6-0.3-1,0.4-1.5,0c0,0.1-0.1,0.2-0.1,0.3c0,0,0,0-0.1,0
				c-0.1,0-0.4-0.1-0.5-0.3c-0.1,0.1,0,0.2,0,0.3c-0.5-0.1-0.9,0.1-1.5,0c0,0.1,0,0.2,0,0.3c-0.7-0.1-1.6,0.5-2.2,0
				c0,0.1,0,0.1,0.1,0.2c-0.8,0-1.5,0.4-2.3,0.1c-0.5,0.4-1.4,0.3-2.1,0.3c-0.1,0.2,0.1,0.3,0,0.5c-0.1,0-0.1,0.1-0.2,0
				c0-0.7-0.6-0.2-0.8-0.4c0,0.4,0.2,0,0.3,0.2c0.1,0.3-0.2,0.2-0.2,0.3c-0.3-0.6-0.7-0.4-1.2-0.3c-0.6,0-1.1,0.1-1.7,0.5
				c-0.6,0.3-1.1,0.7-1.8,0.7c-0.3,0-1.1-0.2-1.2,0.2c-0.3-0.5-0.6,0.2-0.8-0.3c-0.1,0.8-0.9-0.3-1.2,0.3c-0.4-0.1-0.8,0.1-1.2-0.1
				c-0.1-0.2,0.2,0,0-0.3c-0.3,0.3-0.7,0.3-1.1,0.3c-0.9,0-1.6,0.6-2.5,0.5c-0.3,0-0.6-0.1-1-0.2c-0.9-0.1-1.8,0.3-2.6,0
				c-0.2-0.1-0.2-0.3-0.1-0.4c-0.2-0.1-0.2,0.1-0.2,0.3c-0.1,0-0.2,0-0.3-0.2c0,0,0,0.1,0,0.2c-0.3,0-0.6-0.1-1,0
				c-0.1,0-0.2,0.1-0.3,0.1c-0.2,0-0.3,0-0.5-0.1c-0.4-0.1-0.7-0.1-1.1-0.1c-0.3,0-0.6-0.2-0.9-0.2c-0.1,0-0.2,0-0.3,0
				c-0.1,0.1-0.2,0.2-0.1,0.3c0,0,0.1,0.1,0.1,0.1c0,0,0.1,0,0.1-0.1c0.1-0.1,0.3,0,0.4,0.1c0.4,0.2,0.8,0.3,1.2,0.4
				c0.4,0.1,0.8,0.3,1.2,0.5c0.3,0.1,0.6,0.1,0.8,0.3c0-0.1,0-0.2,0-0.3c0.1-0.1,0.2,0,0.3-0.1c0,0.1,0,0.2,0,0.3
				c0.3-0.2,0.7-0.1,1,0c0.3,0.1,0.7,0.1,1,0.1c0.3,0,0.7,0.1,1,0.1c0.1,0,0.6,0,0.7,0.2c0.1-0.1,0.6,0,0.8,0c0.3,0,0.6,0.1,0.9,0.1
				c0.6,0,1.2-0.2,1.8-0.1c0.3,0.1,0.5,0.2,0.8,0.2c0.2,0,0.5-0.1,0.7-0.1c0.4-0.1,0.8-0.1,1.2,0c0.2,0,0.4,0.1,0.6,0.1
				c0.2,0,0.5,0,0.7,0c0.2,0,0.4,0.1,0.6,0.1c0.2,0,0.2-0.2,0.3-0.2c0,0,0.3,0.1,0.3,0.2c0.1-0.1-0.1-0.2,0-0.4
				c0.4,0.4,1.1-0.4,1.2,0.1c0.5-0.2,1.3,0.1,1.7-0.3c0.3,0.3,0.5-0.1,0.9,0.3c0.1-0.4,0.4-0.1,0.5-0.5c0.2,0.1,0.1,0.3,0.2,0.4
				c1-0.1,1.9-0.5,3-0.2c0-0.1,0-0.3,0-0.3c0.8,0.1,1.6,0.1,2.4-0.3c0.2-0.2,0.4,0.3,0.6,0.2c0-0.1-0.1-0.2,0-0.3
				c0.3,0.1,0.6,0.2,0.9-0.1l0.3,0.3c0.8-0.5,1.7-0.4,2.6-0.3c0-0.1,0-0.1,0-0.2c1.5,0,2.9-0.5,4.4-0.6c0-0.1,0.1-0.1,0.1-0.2l0,0.3
				c0.2-0.4,1.2-0.2,1.9-0.4c0.3-0.1,0.6-0.4,0.9-0.1l0.1-0.3c0.3,0.4,0.5-0.3,0.9,0.1c0.6-0.6,1.7-0.2,2.5-0.7l0.1,0.1c0,0,0,0,0,0
				l0.2,0.2c1-0.6,2.2-0.3,3.1-1c0.5,0.3,0.9-0.4,1.4-0.1c0.2-0.4,0.6,0,0.8-0.4c0.8,0.1,1.6-0.2,2.3-0.5c1.7-0.2,3.4-1,5.1-1.2
				L96,93c0.1-0.1,0.1,0.1,0.1,0.2c0.9-0.4,1.5-0.5,2.4-0.9l0.1,0.1c0,0,0,0,0,0l0.2,0.2c0.1,0,0.1-0.1,0.1-0.2c0.1,0,0.1,0,0.1-0.1
				c0,0,0,0,0.1,0c0.1,0.1-0.1,0.1-0.1,0.2c0.1,0.1,0.3,0,0.3-0.2c6.7-1.4,13-4.1,19.6-6.1l0.1-0.2c0.9,0,1.9-0.5,2.9-0.3
				c0.1-0.1,0.2-0.6,0.3-0.2c0.1-0.2,0.4-0.4,0.7-0.2l0.1-0.3c0.3-0.1,0.6,0,0.9-0.3c0,0,0,0,0.1,0c1.6,0,2.9-1.2,4.6-0.9l0.1-0.3
				c0.3,0.2,0.7,0.1,0.8-0.3c0.1,0.1,0.1,0.2,0.2,0.3c0-0.5,0.2-0.2,0.4-0.1c0.3-0.5,2.5-1.2,2.7-1.2c0.2,0.3,0.7-0.2,1.2-0.6
				l0.3,0.3c0,0.3,0.1-0.2-0.1-0.2c0.2-0.4,0.4-0.3,0.7-0.6c0.1,0.3,1-0.1,1.2-0.5c0.1,0.1,0,0.2,0,0.3c0.1,0.1,0.1-0.2,0.3,0.1
				c-0.1-0.3,0.1-0.2,0.2-0.5c0.8,0.3,1.4-1.2,2.1-0.6c0-0.6,0.5-0.6,0.7-0.8c0.1,0.4,1.7,0.1,2.1-0.5c0.6-0.1,1.3-0.3,1.8-1.1
				c0.4,0,0.9-0.4,1.1-0.9c0,0,0,0,0,0c0.3,0,0.6-0.2,0.9-0.4c0.7-0.3,1.5,0,2.2-0.3c0.1,0,0.2,0.1,0.3,0.1c0-0.1-0.1-0.1-0.1-0.2
				c0.4-0.2,0.9-0.4,1.3-0.6l0.6-0.2l1.4-0.6c0,0,0.1,0.1,0.1,0.1c0.1,0,0.2-0.1,0.2-0.3l1.5-0.6l0.1,0.1c0-0.1,0-0.1,0-0.2l0.4-0.2
				c0,0.1,0.1,0.1,0.1,0l0.1,0l0.1-0.3c0.1,0,0.1-0.1,0.2-0.1l0,0c0,0.7,0.3,0.2,0.4-0.1c0.6-0.1,1.1-0.6,1.7-0.8l0.1,0
				c0,0,0,0,0-0.1c0,0,0.1,0,0.1,0l0.3,0.2c0,0-0.1-0.1-0.1-0.1c0.1,0,0.2,0.1,0.3,0.2c0,0-0.1-0.1-0.1-0.1c0.2,0.1,0.3,0,0.5,0.2
				c-0.1-0.1-0.3-0.3-0.5-0.6c0,0,0,0,0.1,0c0.3-0.2,0.3-0.2-0.1-0.1c0,0-0.1-0.1-0.1-0.1c0,0,0-0.1,0-0.1l-0.1-0.1
				c0.2,0,0.5,0.1,0.7,0.1c0,0,0,0,0.1-0.1c-0.2-0.1-0.5-0.2-0.6-0.2c0.1,0,0.5,0.1,0.7,0.2c0.3-0.1,0.7,0,0.7-0.2
				c0.2,0,0.1,0.1,0.4-0.1c0.2,0.1,0.3-0.1,0.4-0.3c0.1,0,0.2-0.1,0.3-0.1c0,0.1,0,0.2,0.1,0.3l0-0.3c0.1,0,0.2-0.1,0.3-0.1
				c1.3-0.1,2.1-1.7,3.5-2c0.3,0.1,1.4-0.7,2-1.3c0.1,0,0.2,0,0.2-0.2c0.1-0.1,0.2-0.2,0.3-0.3h0c0,0,0.1,0,0.1,0.1c0,0,0,0-0.1-0.1
				c0,0,0.1-0.1,0.1-0.1c0,0.1,0,0.1,0,0.1l0-0.1c0.1-0.1,0.2-0.1,0.3-0.2c0.1,0.1,0.1,0.2,0.2,0.3c-0.1-0.2,0.3-0.1,0.3-0.3
				l-0.2-0.1c0.1,0,0.1,0,0.2-0.1c0.2,0.3,0.3,0.3,0.4,0.2c0,0.1,0,0.2,0.2,0.5c0.3,0.1-0.2-0.6,0.1-0.4c0-0.2-0.2-0.2-0.3-0.3
				c0-0.1,0-0.1,0.1-0.2c0.1,0,0.1-0.1,0.2-0.1c0.1,0,0.1,0.2,0.2,0.4l-0.1-0.4c0,0,0,0,0.1,0c0,0,0,0,0,0c0,0.1,0,0.1,0,0.2
				c0.1,0.1,0.2,0.1,0.2,0.2c0,0.1,0,0.1,0,0.2l0.1-0.1c0,0,0.1,0,0.1,0c0.2,0.2,0.1,0.5,0,0.5c0,0,0.6-0.8,0.4-1.3l-0.2,0.9
				c-0.1-0.1-0.1-0.3-0.2-0.4l0,0c0,0,0,0,0,0c0-0.1,0-0.2-0.1-0.3c0,0,0,0,0,0c0.1-0.1,0.2-0.2,0.4-0.2c0.1,0.1,0.2,0.2,0.2,0.2
				c0,0,0,0,0,0c0,0,0,0,0,0l0,0c0,0,0,0.1,0,0.1c0,0,0-0.1,0-0.1c0.1,0,0.1-0.2,0.2-0.3c0,0,0,0,0.1,0l0,0.4
				c0.3,0.1-0.1-0.9,0.4-0.5c0.1,0,0.6,0.7,0.4,0.3c-0.1-0.1-0.2-0.3-0.3-0.5c0,0,0.1,0,0.1-0.1c0,0,0,0,0.1,0
				c0.1,0.2,0.2,0.4,0.3,0.5l-0.3-0.4c0.1-0.1,0.2-0.1,0.4,0.2l-0.1-0.2c0,0,0.1,0.1,0.1,0.1c-0.1,0-0.1-0.1-0.2-0.2l0,0
				c0,0,0,0,0,0c0,0,0.1-0.1,0.1-0.1c0,0.1,0.1,0.1,0.1,0c0,0,0-0.1,0-0.1c0,0,0,0,0,0c0.1-0.1,0.3-0.3,0.5-0.6
				c0.2,0.2,0.5,0.5,0.5,0.5l0.3-0.2c0-0.2-0.6-1.2-0.2-1l0.3,0.3c0,0-0.1-0.2-0.1-0.3l0.3,0.3c-0.1-0.4,0-0.4,0.1-0.4
				c0,0,0,0.1,0.1,0.2c0,0,0-0.1,0-0.1c0,0,0.1,0.1,0.2,0.1c0,0.1,0,0.2,0.2,0.3c0-0.1-0.1-0.2-0.1-0.3c0.2,0.2,0.3,0.3,0.3,0
				c0,0.1-0.2,0.1-0.3-0.3c0-0.2,0.1-0.1,0.2,0.1l-0.1-0.1l0.2,0.1c0,0.1,0,0.2,0.2,0.1c0,0,0,0,0,0l0.4,0.3
				c-0.1-0.3-0.3-0.3-0.4-0.5c0-0.1,0-0.1-0.1-0.1c0,0,0-0.1,0-0.2c-0.1-0.5,0.2-0.1,0.3-0.1c0.1,0.3,0.1,0.6,0.3,0.7
				c0-0.2,0-0.5-0.2-0.7c0.3,0.2,0.6-0.2,0.7-0.4l-0.6-0.6c0-0.1,0-0.2,0-0.2c0.2-0.1,0.5-0.2,0.7-0.1c0-0.1,0-0.3,0-0.4
				c0.3,0.1,0.7,0.3,0.9,0.2c0,0.4,0.2,0.3-0.3-0.5c0,0,0,0,0,0l0,0c-0.3-0.5-0.1-0.6,0-0.6c0.1,0.1,0.1,0.2,0.2,0.2l0,0.2l0.1,0
				c0.4,0.5,0.8,0.6,0.9,0.1l-0.1-0.6c0,0,0.1,0,0.1,0.1c0,0,0,0,0,0c0.4,0.6,0.7,0.9,0.7,0.9c0-0.2,0-0.3,0-0.3
				c-0.3-0.3-0.6-0.6-0.8-0.9c0,0,0-0.1,0-0.1c0.4,0.1,0.9,0.3,0.7,0.1c0.3-0.4,1.2,0.6,1.5,0.7c-0.1-0.5-0.4-0.2-0.6-0.9
				c0.3,0.2,0.8-0.1,0.2-0.8c0-0.1,1.5,0,2.1,0.2c-0.1-0.2-0.2-0.5-0.3-0.6c-0.2,0.1-0.6,0-0.9-0.6c-0.1-0.5,0.5,0,0.5,0
				c0.6,0.4,0.6,0.9,0.9,0.5c0.1-0.5,0,0.1-0.3-0.5c0.2,0.2,0.2-0.6,0.6,0c0,0,0.4,0.3,0.2-0.1c-0.2-0.6,0-0.7-0.4-0.9
				c-0.3,0.1-0.6,0.1-0.5,0c0,0-0.5,0-0.7,0.1c0-0.2-0.1-0.4-0.2-0.5c-0.1,0.4-0.4,0.5-0.6,0.6l0,0c-0.2,0.1-0.4,0.2-0.5,0.3
				c0-0.1,0,0,0,0c0,0,0,0,0,0l-0.2-0.1c-0.1,0.2-1.2-0.1-1.2-0.1c0-0.1-0.1-0.1-0.1-0.2c0,0.1-0.1,0.1-0.1,0.1c0-0.1,0-0.2,0-0.3
				l0,0c0-0.2-0.6-1.2-0.2-1l0.3,0.3c0,0-0.1-0.2-0.1-0.3l0.3,0.3c0.4,0.1-0.1-0.8-0.1-1.3c-0.1-0.6,0.2-0.1,0.3-0.1
				c0.1,0.3,0.2,0.1,0.1,0c0.2,0.2,0.5,0,0.4,0.2c0.3-0.3,0-1,0.1-1.2l-0.6-0.6c-0.1-1.6,2-0.6,2.5-0.7c0,0,0.8-0.1,0.9-0.6l0-0.3
				c0.4,0.5,0.8,1.3,1,1l-0.3-0.4c0-0.2,0-0.3,0-0.3c-0.3-0.3-0.6-0.6-0.8-1c-0.2-1.1,1.9,0.7,2.2,0.7c-0.1-0.5-0.4-0.2-0.6-0.9
				c0.3,0.2,0.8-0.1,0.2-0.8c0.4-0.6,1.5-0.6,1.1-1.2c-0.1-0.5,0.2,0.1,0-0.4c0-0.5,0.3,0.1,0.5,0.1l0,0.2c0.6,0.4,0.9,0.6,0.6,0
				c0.2,0.2,0.2-0.6,0.6,0c0,0-0.5-1.6-0.7-1l0.2,0.2c0,0.6-0.6-0.1-0.8,0c0-0.2-0.5,0-0.7,0.1l-0.5-0.3c0-0.4-0.1-0.9,0-1.1
				c0.1,0.1,0.3,0.3,0.4,0.4l0.4-0.5l0.6,0.6c-0.1-0.5-1.3-1.6-0.2-1.2c-0.8-0.8-0.1-0.7-0.5-1.2c0.1,0.1,0.3,0.2,0.4,0.4
				c0.2-0.3,0.6-1,0.4-1.5c0,0-0.7-0.3-1.4-0.6c-0.8-0.4-0.8-0.3-1.2-0.7c0.5,0-1.8-0.6-1.8-0.6c-0.4-0.1,1.2-0.1,1.1-0.1
				c0,0,1.3-0.4,0.6-0.9c0.7-0.1,0.6-1.1,0.7-1.4l-0.5-0.6c0.5-0.6,1,0,1.3-0.8l0,0.2c0.1,0.1-0.5-1.4,1.2,0.1l0,0.1
				c0,0-0.2-0.4-0.2-0.4c0-0.2,0-0.6,0.1-0.7c0.1,0.1,0.1,0.2,0.2,0.3l0.2-0.2c0,0-0.2-0.8,0.3-0.4c-0.4-0.6,0-0.4-0.2-0.8
				c0,0.1,0.1,0.2,0.2,0.3c0.1-0.1,0.3-0.4,0.2-0.8c0,0-1.1-1.2-1.5-1.8c0.3,0.1,0.5-0.2,0.3-0.4c0,0-0.2-0.1-0.2,0c0,0-0.1,0-0.1,0
				l0,0c0,0.1-0.1,0.1-0.2,0l-0.2-0.1c-0.5,0-0.9-1-1.1-1c-0.3-0.4-0.2,0.2-0.5,0.1c0,0,0,0,0,0c-0.1-0.1-0.2-0.2-0.1-0.1
				c-0.2-0.1-0.2-0.4-0.4-0.6c0,0,0,0,0,0c-0.5-1,0.1-0.5-0.4-1.5c0.1-0.1,0.9-0.2,0.8-0.8c-0.2-0.6-1.4-1.5-1.6-1.9L178,27
				c0-0.2,0.4,0.4,0.6,0.4c-0.1,0.1,1.2,0.6,0.6-0.2c-0.1-0.3,0-0.4,0.2,0c0.2,0.7,0.5,1,0.4,0.6c0.1-0.1,0.5,0.5,0.5,0.2
				c0.1,0.2,0.1-0.2,0.3-0.5l-0.1-0.6c0,0,0.1,0,0.2,0c0.2,0.3,0.3,0.3,0.5,0.7c0.1-0.1-0.1-0.6-0.2-0.8c0.1-0.1,0.2,0,0.5,0.6
				c0.2,0,0.6,0,0.3-0.6c1,1.4,0.9,0.2,1.1-0.1c-0.9-1.3,0.3-0.3,0.3-0.3c0.5,0.7,0.9,0.3,0.7-0.4c0.2-0.3,0.4,0.3,0.1-0.3
				c0.7,1,0.4-0.1,0.2-0.6C183.1,24.2,183.6,25.5,183.1,25.2L183.1,25.2z"/>
			<path class="st0" d="M35.3,73.9C35.3,73.9,35.3,73.9,35.3,73.9C35.3,73.9,35.3,73.9,35.3,73.9z"/>
			<path class="st0" d="M33.1,72.1c0,0,0,0-0.1,0C33.1,72.2,33.1,72.2,33.1,72.1z"/>
			<path class="st0" d="M32.5,72.3C32.5,72.3,32.6,72.3,32.5,72.3l0.1,0C32.6,72.2,32.5,72.3,32.5,72.3z"/>
			<path class="st0" d="M32.3,72.4C32.3,72.3,32.4,72.3,32.3,72.4C32.4,72.3,32.4,72.3,32.3,72.4C32.4,72.3,32.3,72.4,32.3,72.4z"/>
			<path class="st2" d="M149.1,29.8c-0.4,1.6-0.9,3.2-1.7,4.7c-2,4-4.6,7.6-8.1,10.5c-0.5,0.4-1,0.7-1.5,1.1
				c-0.2,0.1-0.4,0.2-0.8,0.4c0.6-2.1,1.1-4,1.7-5.9c1-3,2-6,3-9.1c0.1-0.3,0.4-0.7,0.7-0.9c1.5-1,3.1-1.9,4.9-2.3
				C148.8,28,149.5,28.4,149.1,29.8L149.1,29.8z M153.6,26.3c-3.5-2.5-7.4-3.4-11.6-2.3c-4,1.1-7.5,3.2-10.8,5.8
				c-0.8,0.6-0.8,1.3-0.1,2c0.8,0.8,1.9,1.5,2.8,2.2c-1.4,6.5-4.9,17.3-6.6,23.9c-0.6,2.1-1.3,4.8-1.7,6.8c-0.2,1.4,0.2,2.6,1.4,3.4
				c0.8,0.5,1.4,1,2.2,1.4c1,0.5,1.4,0.3,1.7-0.9c0.8-3.4,1.9-7.6,2.9-10.9c0.4-1.5,2.3-7.3,2.6-8.7c0.2,0.1,0.2,0.2,0.3,0.3
				c1.6,1.4,3.4,1.5,5.3,0.5c2.5-1.2,4.6-3,6.4-5c3.3-3.7,6-7.8,7-12.8C156,29.8,155.6,27.7,153.6,26.3L153.6,26.3z"/>
			<path class="st2" d="M166.8,32.1c-0.3,3.9-0.5,7.8-0.8,11.7c0,0.6-0.2,0.9-0.9,1.1c-2.4,0.6-4.7,1.4-7.1,2.1
				c-0.1,0-0.1-0.1-0.2-0.1c3-5.6,5.9-11.1,8.9-16.7c0.1,0,0.1,0,0.2,0.1C166.9,30.8,166.8,31.5,166.8,32.1L166.8,32.1z M173.1,21.6
				c-1.6-0.7-3.3-1.4-5-2c-1.1-0.4-1.8,0-2.5,1c-0.3,0.4-0.5,0.8-0.8,1.3c-4.9,8.3-9.9,17.9-14,26.6c-1,2.2-2,4.5-2.9,6.8
				c-0.3,0.8-0.3,1.8,0.2,2.5c0.7,0.9,1.6,1.6,2.4,2.4c0.4,0.3,0.8,0.2,1.1-0.2c0.2-0.3,0.3-0.6,0.5-0.9c0.7-1.5,1.4-3,2.1-4.5
				c0.1-0.3,0.4-0.6,0.6-0.7c3.6-1.4,7.2-2.7,11-4.1c0.1,1,0.1,1.6,0.2,2.3c0.3,2.5,0.9,3.2,3.3,3.9c0.2,0,0.3,0.1,0.5,0.1
				c1.3,0.3,1.6,0.1,1.6-1.3c0.1-4.8,0.2-9.6,0.5-14.4c0.4-5.1,1.7-11.1,2.3-16.2C174.5,22.9,174.2,22,173.1,21.6L173.1,21.6z"/>
			<path class="st2" d="M45.3,74c2,1.4,4.3,2.3,6.7,2.6c2.1,0.3,4.2,0,6-1.4c2.7-2.2,4.6-5,5.7-8.3c0.4-1.2,0.3-2.4-0.4-3.5
				c-1-1.7-1.6-1.7-2.7-0.1c-1.5,2.3-3.1,4.4-5.1,6.2c-1.1,1-2.3,1.8-3.5,2.5c-1.4,0.7-2.3,0.2-2.6-1.3c-0.2-1.1-0.3-2.3-0.2-3.4
				c0.3-3.7,1.4-7.1,2.8-10.4c1.8-4.1,3.8-8,6.6-11.5c0.5-0.6,1.2-1.2,1.8-1.7c0.2-0.2,0.6-0.3,0.8-0.2c0.2,0.1,0.3,0.5,0.3,0.8
				c0,0.5,0,0.9-0.2,1.4c-0.5,1.7-1,3.5-1.4,5.2c-0.3,1.1-0.3,2.2,0.4,3.1c0.6,0.8,1.4,1.3,2.2,1.9c1,0.7,1.6,0.6,2.2-0.6
				c0.5-0.9,0.9-1.9,1.3-2.8c1-2.5,1.8-5,1.9-7.7c0.1-1.8-0.5-3.3-2.2-4.2c-1.4-0.7-2.7-1.4-4.2-1.9c-1.5-0.6-3-0.4-4.5,0.4
				c-2,1.1-3.7,2.7-5.1,4.5c-4.4,5.6-7.4,12-9.2,18.9c-0.6,2.2-0.9,4.4-0.7,6.3C42.4,71.2,43.5,72.8,45.3,74L45.3,74z"/>
			<path class="st2" d="M83.2,59.9l-2.8-2.2l-5.2,4.6c3.1-5.8,6.1-11.4,9.1-17.1C83.9,50.2,83.5,55,83.2,59.9L83.2,59.9z M89.7,37.8
				c-1.4-0.6-2.7-1.2-4.2-1.7c-1.8-0.6-2.4-0.4-3.4,1.2c-3.8,6.3-7.3,12.8-10.5,19.4c-2,4.1-3.6,7-5.5,11.1
				c-1.2,2.6-0.8,3.9,1.5,5.7c0.1,0,0.1,0.1,0.2,0.1c1,0.8,1.5,0.7,2-0.5c0.7-1.6,1.1-1.8,1.8-3.4c0.2-0.4,0.6-0.7,0.9-0.9
				c1.2-0.5,2.5-1,3.7-1.5c2.3-0.8,4.6-1.6,7-2.4c0.1,1.2,0.2,2.2,0.3,3.2c0.1,0.8,0.4,1.6,1.2,2c1,0.4,2,0.8,3,1.1
				c0.8,0.2,1.1-0.1,1.2-1c0-0.9,0-1.8,0-2.7c0-6.1,0.5-12.2,1.1-18.2c0.3-3,0.8-6.1,1.1-9.1C91.2,39,90.9,38.3,89.7,37.8L89.7,37.8
				z"/>
			<path class="st3" d="M185.9,20.6H185V16h1.4l0.8,3.7l0.8-3.7h1.4v4.7h-0.9v-3.2c0-0.1,0-0.2,0-0.4c0-0.2,0-0.3,0-0.4l-0.9,3.9
				h-0.9l-0.9-3.9c0,0.1,0,0.2,0,0.4c0,0.2,0,0.3,0,0.4C185.9,17.5,185.9,20.6,185.9,20.6z M184.4,16v0.8H183v3.8h-1v-3.8h-1.4V16
				L184.4,16L184.4,16z"/>
			<path class="st2" d="M108.7,54.1c0.8-2,1.6-3.9,2.4-5.9c2.8-6.4,5.9-12.7,9.6-18.6c1.1-1.8,1.6-2,3.5-0.9
				c1.2,0.7,2.4,1.5,3.5,2.3c1.4,1,1.6,2.3,1.2,3.9c-1.2,3.3-6.5,27.2-8,33.6c-0.5,2-0.7,2.1-2.6,1.2c-0.5-0.3-1-0.5-1.5-0.7
				c-0.9-0.4-1.4-1.1-1.3-2.1c0.2-2.1,3.8-19.6,4.4-24c-0.3,0.6-0.5,1.1-0.8,1.6c-3.1,6.5-5.7,12.9-8.3,20c-0.4,1.3-0.8,1.5-2.2,1.2
				c-1-0.3-2-0.6-3-0.9c-1.2-0.4-1.9-1.3-2.1-2.6c-0.2-2.1-0.5-4.2-0.6-6.2c-0.2-2.4-0.2-4.9-0.4-7.3c-0.3,1.1-0.7,2.2-0.9,3.3
				c-1.5,6.1-3,12.3-4.5,18.5c-0.3,1.2-0.8,1.4-1.9,0.9c-0.6-0.3-1.2-0.7-1.9-1.1c-1.2-0.7-1.6-1.9-1.4-3.2
				c0.9-4.4,1.7-8.8,2.7-13.2c1.5-6.2,2.8-12.4,5-18.3c0.9-2.3,1.3-2.5,3.6-1.7c1.2,0.4,2.4,0.9,3.5,1.5c1,0.5,1.4,1.4,1.4,2.5
				c-0.1,4.4,0.2,8.9,0.1,13.2c0,1,0,2.1,0,3.1C108.6,54.1,108.7,54.1,108.7,54.1L108.7,54.1z"/>
		</g>
		<g>
			<path class="st2" d="M0,154.6l4.9-14.5c1.4,0.6,2.8,0.8,4.1,0.6c2.2-0.3,3.3-1.8,3.2-4.1l-1.6-40.5l18.6-2.7l1.6,42.4
				c0.4,11.2-5.8,18.8-17.1,20.4C9.5,156.7,4.3,156.3,0,154.6L0,154.6z"/>
			<polygon class="st2" points="54.3,106 54.5,111.3 72.8,108.6 73.4,124.1 55.1,126.9 55.3,132.5 74.5,129.6 75.1,145.9 
				38.8,151.3 36.6,92.2 72.8,86.8 73.5,103.1 			"/>
			<polygon class="st2" points="97.8,99.5 98,104.9 116.3,102.2 116.9,117.7 98.6,120.4 98.8,126 118,123.2 118.7,139.4 82.4,144.8 
				80.1,85.8 116.4,80.4 117,96.7 			"/>
			<path class="st2" d="M143.7,92.3l-2,0.3l0.4,11l2-0.3c3.3-0.5,5.1-2.8,5-6.2C149,93.8,147,91.9,143.7,92.3L143.7,92.3z
				 M153.5,134.3l-10.8-15.8l0.7,17.4l-17.4,2.6l-2.3-59l20.3-3c13.5-2,22.5,4.5,23,16.6c0.3,7.4-2.7,13.7-8.1,17.9l14.6,20.5
				L153.5,134.3L153.5,134.3z"/>
			<path class="st2" d="M198.2,107.9l-5.1-12l-4.1,13.3L198.2,107.9z M204,121.5l-19.7,2.9l-1.7,5.6l-18.4,2.7l20.5-62.4L200,68
				l25,55.7l-18.8,2.8L204,121.5L204,121.5z"/>
			<path class="st2" d="M71.4,190.8l-1.5-38.5l18.6-2.7l1.4,36c0.2,4.8,2.5,7.1,6.4,6.5c3.9-0.6,6.1-3.6,5.9-8.3l-1.4-36l18.6-2.7
				l1.5,38.5c0.5,13.1-8.9,23.2-23.8,25.4C82.1,211.1,71.9,203.9,71.4,190.8L71.4,190.8z"/>
			<path class="st2" d="M153.3,162c-0.1-3.7-2.2-5.6-5.6-5.1l-2.1,0.3L146,169l2.1-0.3C151.5,168.2,153.4,165.7,153.3,162L153.3,162
				z M172,159.1c0.5,13.3-8.2,23.2-22,25.3l-3.3,0.5l0.6,15.4l-18.2,2.7l-2.3-59l22.2-3.3C162.4,138.7,171.5,145.9,172,159.1
				L172,159.1z"/>
			<path class="st4" d="M1.9,152.6l4.9-14.5c1.4,0.6,2.8,0.8,4.1,0.6c2.2-0.3,3.3-1.8,3.2-4.1l-1.6-40.5L31,91.4l1.6,42.4
				c0.4,11.2-5.8,18.8-17.1,20.4C11.4,154.8,6.2,154.4,1.9,152.6L1.9,152.6z"/>
			<polygon class="st4" points="56.2,104 56.4,109.4 74.7,106.7 75.3,122.2 57,124.9 57.2,130.5 76.4,127.7 77,144 40.7,149.3 
				38.5,90.3 74.8,84.9 75.4,101.2 			"/>
			<polygon class="st4" points="99.7,97.6 99.9,103 118.2,100.3 118.8,115.8 100.5,118.5 100.7,124.1 120,121.2 120.6,137.5 
				84.3,142.9 82,83.8 118.3,78.5 118.9,94.8 			"/>
			<path class="st4" d="M145.6,90.4l-2,0.3l0.4,11l2-0.3c3.3-0.5,5.1-2.7,5-6.2C150.9,91.8,148.9,89.9,145.6,90.4L145.6,90.4z
				 M155.4,132.4l-10.8-15.9l0.7,17.4l-17.4,2.6l-2.3-59l20.3-3c13.5-2,22.5,4.5,23,16.6c0.3,7.4-2.7,13.7-8.1,17.9l14.6,20.5
				L155.4,132.4L155.4,132.4z"/>
			<path class="st4" d="M200.1,106l-5.1-12l-4.1,13.3L200.1,106z M205.9,119.6l-19.7,2.9l-1.7,5.6l-18.4,2.7l20.5-62.4l15.2-2.2
				l25,55.7l-18.8,2.8L205.9,119.6L205.9,119.6z"/>
			<path class="st3" d="M1.6,152.7l4.9-14.5c1.4,0.6,2.8,0.8,4.1,0.6c2.2-0.3,3.3-1.8,3.2-4.1l-1.6-40.5l18.6-2.7l1.6,42.4
				c0.4,11.2-5.8,18.8-17.1,20.4C11.2,154.8,5.9,154.4,1.6,152.7L1.6,152.7z"/>
			<polygon class="st3" points="55.9,104.1 56.1,109.4 74.4,106.7 75,122.2 56.7,125 56.9,130.6 76.1,127.7 76.8,144 40.5,149.4 
				38.2,90.3 74.5,84.9 75.1,101.2 			"/>
			<polygon class="st3" points="99.4,97.6 99.7,103 118,100.3 118.6,115.8 100.3,118.5 100.5,124.1 119.7,121.3 120.3,137.6 
				84,142.9 81.8,83.9 118,78.5 118.7,94.8 			"/>
			<path class="st3" d="M145.4,90.5l-2,0.3l0.4,11l2-0.3c3.3-0.5,5.1-2.8,5-6.2C150.6,91.9,148.6,90,145.4,90.5L145.4,90.5z
				 M155.2,132.4l-10.8-15.9l0.7,17.4l-17.4,2.6l-2.3-59l20.3-3c13.5-2,22.5,4.5,23,16.6c0.3,7.4-2.7,13.7-8.1,17.9l14.6,20.5
				L155.2,132.4L155.2,132.4z"/>
			<path class="st3" d="M199.8,106l-5.1-12l-4.1,13.3L199.8,106L199.8,106z M205.6,119.6l-19.7,2.9l-1.7,5.6l-18.4,2.7l20.5-62.4
				l15.2-2.2l25,55.7l-18.8,2.8L205.6,119.6L205.6,119.6z"/>
			<path class="st3" d="M73.3,188.9l-1.5-38.5l18.6-2.7l1.4,36c0.2,4.8,2.5,7.1,6.4,6.5c3.9-0.6,6.1-3.6,5.9-8.3l-1.4-36l18.6-2.7
				l1.5,38.5c0.5,13.1-8.9,23.2-23.8,25.4C84,209.2,73.8,202,73.3,188.9L73.3,188.9z"/>
			<path class="st3" d="M155.2,160c-0.1-3.7-2.2-5.6-5.6-5.1l-2.1,0.3l0.5,11.8l2.1-0.3C153.4,166.2,155.3,163.7,155.2,160z
				 M173.9,157.2c0.5,13.3-8.2,23.2-22,25.3l-3.3,0.5l0.6,15.4l-18.2,2.7l-2.3-59l22.2-3.3C164.3,136.8,173.4,144,173.9,157.2
				L173.9,157.2z"/>
		</g>
	</g>
</g>
</svg>
