<?xml version="1.0" encoding="utf-8"?>
<!-- Generator: Adobe Illustrator 24.3.0, SVG Export Plug-In . SVG Version: 6.00 Build 0)  -->
<svg version="1.1" id="Layer_1" xmlns="http://www.w3.org/2000/svg" xmlns:xlink="http://www.w3.org/1999/xlink" x="0px" y="0px"
	 viewBox="0 0 115.4 64.7" style="enable-background:new 0 0 115.4 64.7;" xml:space="preserve">
<style type="text/css">
	.st0{fill-rule:evenodd;clip-rule:evenodd;fill:#00321E;}
</style>
<g>
	<path class="st0" d="M41.2,27.3l0,0.2l0,0.2l0,0.2l0,0.2l0,0.2l0,0.1l0,0.2L41,28.6l-0.1,0.1l-0.1,0.1L40.8,29l-0.1,0.1l-0.1,0.1
		l-0.1,0.1l-0.1,0.1l-0.1,0.1l-0.1,0.1l-0.1,0.1L40,29.8l-0.1,0.1L39.7,30l-0.1,0.1l-0.1,0.1l-0.1,0.1l-0.1,0.1l-0.1,0l-0.2,0
		l-0.2,0l-0.2,0l-0.2,0l-0.2,0l-0.2,0H38l-0.1,0l-0.1,0l-0.1,0l-0.1,0l-0.1,0l-0.1,0l-0.1,0l-0.1-0.1l-0.1-0.1l-0.1-0.1L37.1,30
		L37,29.9l-0.1-0.1l-0.1-0.1l-0.1-0.1l0-0.1l0-0.1l0-0.1l0-0.1l0-0.1v-0.2l0-0.1l0-0.1l0-0.1l0-0.1l0-0.1l0-0.1l0-0.1l0.1-0.1L37,28
		l0-0.1l0-0.1l0-0.1l0-0.1l0-0.1l0-0.1l0-0.1l0-0.1l0-0.1l0-0.1l0-0.1l0,0l-0.1,0l-0.1,0l-0.1,0l-0.1,0l-0.1,0l-0.1,0l-0.1,0l-0.1,0
		l-0.1,0l-0.1,0L36,27l-0.1,0l-0.1,0l-0.1,0.1l-0.1,0.1l-0.1,0.1l-0.1,0.1l-0.1,0.1l-0.1,0.1l0,0.1l0,0.1l0,0.1l0,0.1l0,0.1v8l0,0.1
		l0,0l0,0l0,0l0,0l0,0l0,0l0,0l0.8,0.2l0,0l0,0l0,0l0,0l0,0l0,0l0,0.1l0,0v0.7l0,0l0,0l0,0l0,0l0,0l0,0H31l-0.1,0l0,0l0,0l0,0l0,0
		l0,0l0-0.1v-3.6l-0.3,0.3l-0.3,0.3l-0.3,0.3l-0.4,0.4l-0.4,0.3l-0.4,0.4l-0.4,0.4l-0.4,0.3l-0.2,0.2L27.5,37l-0.2,0.2l-0.2,0.1
		l-0.2,0.1l-0.2,0.1l-0.2,0.1l-0.2,0.1l-0.2,0.1L25.9,38L25.7,38l-0.2,0.1l-0.2,0l-0.2,0l-0.2,0l-0.2,0l-0.2,0l-0.1,0l-0.1,0l-0.1,0
		l-0.1,0l-0.1,0L24,38l-0.1-0.1l-0.1-0.1l-0.1-0.1l-0.1-0.1l-0.1-0.1l-0.1-0.2l-0.1-0.2l-0.1-0.2L23.1,37l-0.1-0.1L23,36.8l-0.1-0.1
		l-0.1-0.1l-0.1-0.1l-0.1-0.1l-0.1,0l-0.1,0l-0.1,0l-0.1,0l-0.1,0l-0.1,0l-0.1,0l-0.1,0l-0.1,0l-0.1,0l-0.1,0l-0.1,0l-0.1,0.1
		l-0.1,0.1L21.1,37l-0.4,0.3l-0.1,0.1l-0.1,0.1l-0.1,0.1l-0.1,0.1l-0.1,0.1L20,37.8l-0.2,0.1l-0.2,0.1L19.5,38l-0.2,0.1l-0.2,0
		l-0.2,0l-0.2,0l-0.2,0l-0.3,0l-0.3,0l-0.3,0l-0.3,0l-0.3,0l-0.3-0.1L16.3,38l-0.3-0.1l-0.3-0.1l-0.3-0.1l-0.3-0.1L15,37.4l-0.2-0.2
		L14.5,37l-0.2-0.2L14,36.6l-0.2-0.2l-0.2-0.2L13.4,36l-0.2-0.3L13,35.4l-0.2-0.3l-0.2-0.3l-0.2-0.3l-0.1-0.3L12.3,34l-0.1-0.3
		l-0.1-0.3L12,33l-0.1-0.3l0-0.3l0-0.4l0-0.4l0-0.4l0-0.4l0-0.4l0-0.3l0-0.3l0.1-0.3l0.1-0.3l0.1-0.3l0.1-0.3l0.1-0.3l0.1-0.3
		l0.2-0.3l0.2-0.3l0.2-0.3l0.2-0.3l0.2-0.2l0.2-0.2l0.2-0.2l0.2-0.2l0.2-0.2l0.2-0.2l0.2-0.2l0.2-0.2l0.3-0.2l0.3-0.1l0.3-0.1
		l0.3-0.1l0.3-0.1l0.3-0.1l0.3-0.1l0.3,0l0.3,0l0.3,0l0.2,0l0.2,0l0.2,0l0.2,0l0.2,0l0.2,0l0.2,0l0.2,0l0.2,0.1l0.2,0.1l0.2,0.1
		l0.1,0.1l0.1,0.1l0.1,0.1l0.1,0.1l0.1,0.1l0.4,0.3l0.3,0.2l0.1,0.1l0.1,0.1l0.1,0l0.1,0l0.1,0l0.1,0h0.1l0.1,0l0.1,0l0.1,0l0.1,0
		l0,0l0,0l0-0.1l0,0l0-0.1l0-0.1l0-0.1l0-0.2l0-0.2l0-0.1l0,0l0,0l0,0l0,0l0.1,0l0.1,0l0.1,0h4.3l0,0l0,0l0,0l0,0l0,0l0,0l0,0v0.8
		l0,0l0,0l0,0l0,0l0,0l0,0l0,0l-0.8,0.2l0,0l0,0l0,0l0,0l0,0l0,0l0,0l0,0v7.1l0,0.1l0,0.1l0,0.1l0,0.1l0,0.1l0,0.1l0.1,0.1l0.1,0.1
		l0.1,0.1l0.1,0l0.1,0l0.1,0l0.1,0l0.1,0l0.1,0h0.2l0.1,0l0.1,0l0.1,0l0.1,0l0.1,0l0.1,0l0.1-0.1l0.2-0.1l0.3-0.1l0.2-0.2l0.3-0.2
		l0.3-0.2l0.3-0.2l0.3-0.2l0.3-0.2l0.5-0.4l0.4-0.4v-5.1l0-0.1l0,0l0,0l0,0l0,0l0,0l0,0l0,0l0,0l0,0l0,0l0,0l0,0h-0.1l0,0l-0.1,0
		l0,0l0,0l0,0l-0.1,0L30,26.5l-0.1,0l-0.1,0.1l0,0l-0.1,0l-0.1,0h-0.1l-0.1,0l-0.1,0l-0.1,0l-0.1,0l0,0l-0.1,0l0,0l0,0l0,0l0-0.1
		l0,0l0-0.1l0-0.1l0-0.1l0-0.1l0,0l0-0.1l0-0.1l0-0.1l0-0.1l0-0.1l0-0.1l0-0.1l0-0.1l0-0.1l0.1-0.1l0.1-0.1l0.1-0.1l0.1-0.1l0.1-0.1
		l0.1-0.1l0.1-0.1l0.1-0.1l0.1-0.1l0.1-0.1l0.1-0.1l0.1,0l0.1-0.1l0.1,0l0.1,0l0.1,0l0.1,0l0.1,0l0.1,0l0.1,0l0.1,0l0.1,0l0.2,0
		l0.2,0l0.2,0l0.2,0l0.2,0l0.2,0.1l0.2,0.1l0.1,0.1l0.1,0.1l0.1,0.1l0.1,0.1l0.1,0.1l0.1,0.1l0.1,0.1l0.1,0.1l0.1,0.1l0.2,0.4
		l0.2,0.3l0,0.1l0.1,0.1l0.1,0.1l0.1,0l0.1,0l0.1,0l0.1,0l0.1,0l0.1,0l0.1,0l0.1,0l0.1,0l0.1,0l0.1-0.1l0.1-0.1l0.1-0.1l0.3-0.3
		l0.3-0.4l0.1-0.1l0.1-0.1l0.1-0.1l0.1-0.1l0.1-0.1l0.1-0.1l0.1-0.1l0.1-0.1l0.1-0.1l0.2-0.1l0.2-0.1l0.2,0l0.2,0l0.2,0l0.2,0l0.2,0
		l0.2,0l0.2,0l0.2,0l0.2,0l0.2,0l0.2,0l0.1,0l0.1,0.1l0.1,0.1l0.1,0.1l0.1,0.1l0.1,0.1l0.1,0.1l0.1,0.1l0.1,0.1l0.1,0.1l0.1,0.1
		l0.1,0.1l0.1,0.1l0.1,0.1l0.1,0.1l0.1,0.1l0.1,0.1l0.1,0.1l0.1,0.1l0.1,0.1l0,0.2l0,0.2l0,0.2l0,0.2l0,0.2V27.3z M21.8,29.1
		L21.8,29.1l0-0.2l0-0.1l0-0.1l0-0.1l0-0.1l0-0.1l0-0.1l0-0.1l-0.1-0.1l-0.1-0.1l-0.1-0.1l-0.1-0.1L21.2,28L21.1,28L21,27.9
		l-0.1-0.1l-0.1-0.1l-0.1-0.1l-0.1-0.1l-0.1,0l-0.1,0l-0.1,0l-0.1,0l-0.1,0l-0.1,0l-0.1,0l-0.1,0l-0.1,0l-0.1,0l-0.1,0h-0.3l-0.2,0
		l-0.2,0l-0.2,0l-0.2,0l-0.2,0l-0.2,0.1L18,27.6l-0.2,0.1l-0.1,0.1l-0.1,0.1L17.4,28l-0.1,0.1l-0.1,0.1l-0.1,0.1L17,28.4l-0.1,0.1
		l-0.1,0.1l-0.1,0.1L16.6,29l-0.1,0.2l-0.1,0.2l-0.1,0.2l-0.1,0.2l0,0.2l0,0.2l0,0.2l0,0.2l0,0.2l0,0.2l0,0.2v0.4l0,0.2l0,0.2l0,0.2
		l0,0.2l0,0.2l0,0.2l0,0.2l0.1,0.2l0.1,0.2l0.1,0.2l0.1,0.2l0.1,0.2l0.1,0.1l0.1,0.1l0.1,0.1l0.1,0.1l0.1,0.1l0.1,0.1l0.1,0.1
		l0.1,0.1l0.1,0.1l0.1,0.1l0.2,0.1l0.2,0.1l0.2,0.1l0.2,0l0.2,0l0.2,0l0.2,0l0.2,0h0.3l0.1,0l0.1,0l0.1,0l0.1,0l0.1,0l0.1,0l0.1,0
		l0.1,0l0.1,0l0.1,0l0.1,0l0.1-0.1l0.1-0.1l0.1-0.1l0.1-0.1l0.1-0.1l0.1-0.1l0.1-0.1l0.1-0.1l0.1-0.1l0.1-0.1l0.1-0.1l0-0.1l0-0.1
		l0-0.1l0-0.1l0-0.1l0-0.1l0-0.1l0-0.1l0-0.1L21.8,29.1z M42.6,33.4l0,0.3l0,0.3l0,0.3l0.1,0.3l0.1,0.3l0.1,0.2l0.1,0.2l0.1,0.2
		l0.1,0.2l0.1,0.2l0.1,0.2l0.1,0.2l0.1,0.2l0.1,0.2l0.2,0.1l0.2,0.1l0.2,0.1l0.2,0.1l0.2,0.1l0.2,0.1l0.2,0.1l0.2,0.1l0.2,0.1
		l0.2,0.1l0.2,0l0.2,0l0.2,0l0.2,0l0.2,0l0.2,0l0.2,0h9.3l0.2,0l0.2,0l0.2,0l0.2,0l0.2,0l0.2,0l0.2-0.1l0.2-0.1l0.2-0.1l0.2-0.1
		l0.2-0.1l0.2-0.1l0.2-0.1l0.2-0.1l0.1-0.1l0.1-0.1l0.1-0.1l0.1-0.1l0.1-0.2l0.1-0.2l0.1-0.2l0.1-0.2l0.1-0.2l0.1-0.2l0.1-0.2
		l0.1-0.2l0-0.2l0-0.2l0-0.2l0-0.2l0-0.2l0-0.3l0-0.3l-0.1-0.3l-0.1-0.3l-0.1-0.2l-0.1-0.2l-0.2-0.2L59,31.9l-0.2-0.2l-0.2-0.2
		l-0.2-0.2l-0.2-0.2l-0.2-0.1L57.6,31l-0.3-0.1l-0.3-0.1l-0.5-0.2l-0.5-0.2l-0.2-0.1l-0.2-0.1L55.4,30l-0.2-0.1L55,29.7l-0.2-0.1
		l-0.2-0.1l-0.1-0.1l-0.1-0.2L54.4,29l0-0.2l0-0.2l0-0.1v-0.1l0-0.1l0-0.1l0-0.1l0-0.1l0-0.1l0-0.1l0-0.1l0,0l0,0l0,0l0,0l0.1,0
		l0.1,0l0.1,0l0.1-0.1l0.1-0.1l0.2,0l0.2,0l0.2,0l0.2,0l0.2,0l0.2,0l0.2,0l0.2,0l0.2,0l0.2,0l0.2,0l0.2,0l0.2,0l0.2,0.1l0.2,0.1
		l0.2,0.1l0.2,0.1L58,28l0.1,0.1l0.1,0.1l0.1,0.1l0.1,0.1l0,0l0,0l0,0l0,0l0,0l0,0l0,0l0,0l0.1,0l0,0l0,0l0,0l1.4-3.1l0-0.1l0-0.1
		l0-0.1l0-0.1l0,0l0,0l0,0l0,0l0,0l0,0l0,0h-6.5l-0.2,0l-0.2,0l-0.2,0l-0.2,0l-0.2,0l-0.2,0l-0.2,0.1l-0.2,0.1L52.2,25l-0.1,0.1
		L52,25.2l-0.1,0.1l-0.1,0.1l-0.1,0.1l-0.1,0.1l-0.1,0.1l-0.1,0.1l-0.1,0.1L51,26l-0.1,0.1l-0.1,0.1l-0.1,0.1l-0.1,0.2l-0.1,0.1
		l-0.1,0.2l0,0.2l-0.1,0.2l0,0.2l0,0.2l0,0.2l0,0.2l0,0.2l0,0.3l0,0.3l0.1,0.3l0.1,0.3l0.1,0.2l0.1,0.2l0.2,0.2l0.2,0.2l0.2,0.2
		l0.2,0.2l0.2,0.2l0.2,0.1l0.2,0.1l0.2,0.1l0.2,0.1l0.2,0.1l0.5,0.2l0.4,0.2l0.2,0.1l0.2,0.1l0.2,0.1l0.2,0.1l0.2,0.1l0.1,0.1
		l0.1,0.2l0.1,0.2l0.1,0.2l0.1,0.2l0,0.2l0,0.2v0.1l0,0.1l0,0.1l0,0.1l0,0.1l0,0.1l0,0.1l0,0.1l0,0.1l0,0.1l0,0.1l0,0.1l0,0.1
		l-0.1,0.1l-0.1,0.1l-0.1,0.1l-0.1,0.1L54.5,35l-0.1,0l-0.1,0l-0.1,0l-0.1,0l-0.1,0l-0.1,0l-0.1,0l-0.1,0l-0.1,0l-0.1,0l-0.1,0
		l-0.1,0l-0.1,0h-0.3l-0.2,0l-0.2,0l-0.2,0l-0.2,0l-0.2,0l-0.2,0l-0.2,0l-0.1-0.1l-0.1-0.1L51.5,35l-0.1-0.1l-0.1-0.1l-0.1-0.1
		l-0.1-0.1L51,34.6l-0.1-0.1l-0.1-0.1l-0.1-0.1l-0.1-0.1l-0.1-0.1l-0.1-0.1L50.5,34l0-0.1l0-0.1l0-0.1l0-0.1l0-0.1l0-0.1l0-0.1
		l0-0.1l0-0.1l0,0l0,0l0,0l0,0l0,0L50,33L50,33l-0.1,0h-0.1l-0.1,0l-0.9,0.4l0,0l0,0l0,0l0,0l0,0.1l0,0.1l0,0.1l0,0.1l0,0.1l0,0
		l0.1,0.1l0,0.1l0,0.1l0,0.1l0,0.1l0,0.1l0,0.1v0.2l0,0.1l0,0.1l0,0.1l0,0.1L48.9,35L48.8,35l-0.1,0.1l-0.1,0.1l-0.1,0.1l-0.1,0
		l-0.1,0l-0.1,0l-0.1,0l-0.1,0h-0.2l-0.1,0l-0.1,0l-0.1,0l-0.1,0l-0.1,0l-0.1-0.1l-0.1-0.1L47.2,35l-0.1-0.1l0-0.1l0-0.1l0-0.1
		l0-0.1l0-0.1l0-0.1V16l0,0l0-0.1l0,0l0,0l0,0l0,0l0,0l-0.1,0h-5.1l-0.1,0l0,0l0,0l0,0l0,0l0,0l0,0.1l0,0v0.6l0,0.1l0,0l0,0l0,0l0,0
		l0,0l0,0l0,0l0.8,0.2l0,0l0,0l0,0l0,0l0,0l0,0l0,0l0,0L42.6,33.4z M114.9,24.9v0.7l0,0l0,0l0,0l0,0l0,0l0,0l0,0l-0.1,0l-0.8,0.2
		l0,0l0,0l0,0l0,0l0,0l0,0l0,0l0,0.1v13.5l0,0.3l0,0.3l0,0.3l0,0.3l-0.1,0.3l-0.1,0.3l-0.1,0.3l-0.1,0.3l-0.1,0.3l-0.1,0.3l-0.1,0.2
		l-0.2,0.2l-0.2,0.2l-0.2,0.2l-0.2,0.2l-0.2,0.2l-0.2,0.2l-0.2,0.2l-0.2,0.2l-0.2,0.2l-0.2,0.2l-0.3,0.1l-0.3,0.1l-0.3,0.1l-0.3,0.1
		l-0.3,0.1l-0.3,0.1l-0.3,0.1l-0.3,0l-0.3,0l-0.3,0l-0.3,0h-0.2l-0.2,0l-0.2,0l-0.2,0l-0.2,0l-0.2,0l-0.2,0l-0.2,0l-0.2,0l-0.2,0
		l-0.2-0.1l-0.2-0.1l-0.2-0.1l-0.2-0.1l-0.2-0.1l-0.2-0.1l-0.2-0.1l-0.2-0.1l-0.2-0.1l-0.2-0.1l-0.2-0.1l-0.2-0.1l-0.1-0.1l-0.1-0.1
		l-0.1-0.1l-0.1-0.1l-0.1-0.1l-0.1-0.1l-0.1-0.1l-0.1-0.2l-0.1-0.2l-0.1-0.2l-0.1,0.2l-0.2,0.2l-0.2,0.3l-0.2,0.3l-0.2,0.3l-0.2,0.3
		l-0.3,0.3l-0.3,0.3l-0.3,0.3l-0.3,0.3l-0.4,0.3l-0.4,0.3l-0.4,0.3l-0.5,0.3l-0.5,0.3l-0.5,0.3L96.7,48l-0.6,0.3l-0.6,0.3l-0.7,0.3
		l-0.7,0.3l-0.7,0.2l-0.8,0.2l-0.8,0.2L91,50l-0.9,0.2l-0.9,0.1l-1,0.1l-1,0.1L86,50.6l-1.1,0l-1.2,0l-0.7,0l-0.7,0l-0.7,0l-0.7-0.1
		l-0.8-0.1l-0.8-0.1l-0.8-0.1l-0.8-0.1l-0.8-0.1L76,49.8l-0.9-0.1l-0.9-0.2l-1.7-0.3l-1.7-0.3l-1.7-0.3l-1.7-0.3l-0.8-0.2L65.7,48
		l-0.8-0.1l-0.8-0.1l-0.8-0.1l-0.8-0.1l-0.7-0.1l-0.7-0.1l-0.7-0.1l-0.7-0.1l-0.6,0l-0.6,0l-0.8,0l-0.8,0l-0.8,0l-0.7,0.1l-0.7,0.1
		L54,47.4l-0.7,0.1l-0.7,0.1l-0.7,0.1l-0.7,0.1L50.6,48l-0.6,0.2l-0.6,0.2l-0.6,0.2l-0.6,0.2L47.5,49l-0.6,0.2l-0.6,0.3l-0.6,0.3
		l-0.6,0.3l-0.6,0.3L44,50.8l-0.6,0.4l-0.6,0.4L42.3,52l-0.6,0.4l-0.6,0.4l-0.5,0.5l-0.5,0.5l-0.6,0.5L39,54.8l-0.5,0.5l0,0l0,0l0,0
		l0,0l0,0l-0.1,0l-0.1,0l-0.1,0l-10.9-5.9l0,0l0,0l0-0.1l0-0.1l0,0v-0.1l0,0l0,0l0,0l0,0l0,0l0.7-0.6l0.7-0.5l0.7-0.5l0.7-0.5
		l0.8-0.5l0.8-0.5l0.8-0.5L33,45l0.8-0.4l0.8-0.4l0.8-0.4l0.8-0.4l0.8-0.4l0.8-0.3l0.8-0.3l0.8-0.3l0.8-0.3l0.8-0.3l0.8-0.2l0.8-0.2
		l0.8-0.2l0.8-0.2l0.8-0.2l0.8-0.2l0.8-0.1l0.8-0.1l0.8-0.1l0.8-0.1l0.7-0.1l0.7,0l0.7,0l0.7,0l1.3,0l1.3,0.1l1.3,0.1l1.3,0.1
		l1.3,0.2l1.2,0.2l1.2,0.2l1.2,0.2l1.2,0.3l1.2,0.3l1.1,0.3l1.1,0.3l1.1,0.3l1.1,0.3l1.1,0.3l1.1,0.3l2.2,0.7l2.1,0.6l1.1,0.3
		l1.1,0.3l1.1,0.3l1.1,0.3L81,46l1.1,0.2l1.1,0.2l1.1,0.2l1.1,0.1l1.1,0.1l1.1,0.1l1.1,0l0.9,0l0.9,0l0.8-0.1l0.8-0.1l0.8-0.1
		l0.7-0.1l0.7-0.2l0.7-0.2l0.6-0.2l0.6-0.2l0.5-0.2l0.5-0.2l0.5-0.2l0.4-0.3l0.4-0.3l0.4-0.3l0.4-0.3l0.3-0.3l0.3-0.3l0.3-0.3
		l0.2-0.3l0.2-0.3l0.2-0.3l0.2-0.3l0.2-0.3l0.1-0.2l0.1-0.2l0.1-0.2l0.1-0.2l0-0.2l0-0.2l0-0.2l0-0.1l0-0.1l0,0l0,0l0,0l0,0l0,0l0,0
		h1l0,0l0,0l0.1,0l0,0l0,0l0,0l0,0.1l0,0.1v0.2l0,0.2l0,0.2l0,0.2l0,0.1l0,0.1l0,0.1l0.1,0.1l0.1,0.1l0.1,0.1l0.1,0.1l0.1,0.1
		l0.1,0.1l0.1,0.1l0.1,0.1l0.1,0.1l0.1,0.1l0.1,0.1l0.1,0.1l0.1,0.1l0.1,0.1l0.1,0.1l0.1,0.1L105,43l0.1,0.1l0.1,0l0.2,0l0.2,0
		l0.2,0l0.2,0l0.2,0h0.3l0.2,0l0.2,0l0.2,0l0.2,0l0.2,0l0.1-0.1l0.1,0l0.1-0.1l0.1-0.1l0.1-0.1l0.1-0.1l0.1-0.1l0.1-0.1l0.1-0.1
		l0.1-0.1l0.1-0.1l0.1-0.1l0.1-0.1l0.1-0.1l0.1-0.1l0.1-0.1l0.1-0.1l0.1-0.1l0.1-0.2l0-0.1l0-0.2l0-0.2l0-0.2l0-0.2l0-0.2l0-0.2
		v-2.6l0-0.1v-0.1l0,0l0,0l0,0l0,0l0,0l0,0l0,0l0,0l0,0l0,0l0,0l-0.1,0l0,0h-0.1l0,0l0,0l0,0l-0.1,0.1l-0.1,0.1l-0.1,0.1l-0.1,0.1
		l-0.1,0.1l-0.2,0.1l-0.1,0.1l-0.1,0.1l-0.1,0.1l-0.1,0.1l-0.1,0.1l-0.1,0l-0.1,0l-0.2,0l-0.2,0l-0.2,0l-0.2,0l-0.2,0l-0.2,0l-0.2,0
		l-0.2,0h-0.2l-0.3,0l-0.3,0l-0.3,0l-0.3-0.1l-0.3-0.1l-0.3-0.1l-0.3-0.1l-0.3-0.1l-0.3-0.1l-0.3-0.2l-0.2-0.2l-0.2-0.2l-0.2-0.2
		l-0.2-0.2l-0.2-0.2l-0.2-0.2l-0.2-0.2l-0.2-0.3l-0.2-0.3l-0.2-0.3l-0.2-0.3l-0.2-0.3l-0.1-0.3L99.8,34l-0.1-0.3l-0.1-0.3L99.5,33
		l-0.1-0.3l0-0.3l0-0.4l0-0.4l0-0.4l0-0.4l0-0.4l0-0.4l0-0.3l0.1-0.3l0.1-0.3l0.1-0.3l0.1-0.3l0.1-0.3l0.1-0.3l0.2-0.3l0.2-0.3
		l0.2-0.3l0.2-0.3l0.2-0.3l0.2-0.2l0.2-0.2l0.2-0.2l0.2-0.2l0.2-0.2l0.2-0.2l0.3-0.2l0.3-0.2l0.3-0.1l0.3-0.1l0.3-0.1l0.3-0.1
		l0.3-0.1l0.3-0.1l0.3,0l0.3,0l0.3,0l0.3,0l0.2,0l0.2,0l0.2,0l0.2,0l0.2,0l0.2,0l0.2,0l0.2,0.1l0.2,0.1l0.2,0.1l0.1,0.1l0.1,0.1
		l0.1,0.1l0.1,0.1l0.1,0.1l0.4,0.3l0.3,0.2l0.1,0.1l0.1,0.1l0.1,0l0.1,0l0.1,0l0.1,0h0.1l0.1,0l0.1,0l0.1,0l0.1,0l0,0l0,0l0,0l0,0
		l0-0.1l0-0.1l0-0.1l0-0.2l0-0.2l0,0l0,0l0,0l0,0l0,0l0.1,0l0.1,0l0.1,0h4.3l0.1,0l0,0l0,0l0,0l0,0l0,0L114.9,24.9L114.9,24.9z
		 M109.2,29.1L109.2,29.1l0-0.2l0-0.1l0-0.1l0-0.1l0-0.1l0-0.1l0-0.1l0-0.1l-0.1-0.1l-0.1-0.1l-0.1-0.1l-0.1-0.1l-0.1-0.1l-0.1-0.1
		l-0.1-0.1l-0.1-0.1l-0.1-0.1l-0.1-0.1l-0.1-0.1l-0.1,0l-0.1,0l-0.1,0l-0.1,0l-0.1,0l-0.1,0l-0.1,0l-0.1,0l-0.1,0l-0.1,0l-0.1,0
		h-0.3l-0.2,0l-0.2,0l-0.2,0l-0.2,0l-0.2,0l-0.2,0.1l-0.2,0.1l-0.2,0.1l-0.1,0.1l-0.1,0.1l-0.1,0.1l-0.1,0.1l-0.1,0.1l-0.1,0.1
		l-0.1,0.1l-0.1,0.1l-0.1,0.1l-0.1,0.1L104,29l-0.1,0.2l-0.1,0.2l-0.1,0.2l-0.1,0.2l0,0.2l-0.1,0.2l0,0.2l0,0.2l0,0.2l0,0.2l0,0.2
		l0,0.2l0,0.2l0,0.2l0,0.2l0,0.2l0,0.2l0,0.2l0.1,0.2l0,0.2l0.1,0.2l0.1,0.2l0.1,0.2l0.1,0.2l0.1,0.2l0.1,0.1l0.1,0.1l0.1,0.1
		l0.1,0.1l0.1,0.1l0.1,0.1l0.1,0.1l0.1,0.1l0.1,0.1l0.1,0.1l0.2,0.1l0.2,0.1l0.2,0.1l0.2,0l0.2,0l0.2,0l0.2,0l0.2,0h0.3l0.1,0l0.1,0
		l0.1,0l0.1,0l0.1,0l0.1,0l0.1,0l0.1,0l0.1,0l0.1,0l0.1,0l0.1-0.1l0.1-0.1l0.1-0.1l0.1-0.1l0.1-0.1l0.1-0.1l0.1-0.1l0.1-0.1l0.1-0.1
		l0.1-0.1l0.1-0.1l0-0.1l0-0.1l0-0.1l0-0.1l0-0.1l0-0.1l0-0.1l0-0.1l0-0.1V29.1z M100.5,24l0,0.2l0,0.2l0,0.2l0,0.2l0,0.2l0,0.2
		l-0.1,0.2l-0.1,0.2l-0.1,0.2l-0.1,0.2l-0.1,0.2l-0.1,0.2l-0.1,0.2l-0.1,0.2l-0.1,0.1l-0.1,0.1l-0.1,0.1l-0.1,0.1l-0.1,0.1l-0.1,0.1
		l-0.1,0.1l-0.1,0.1l-0.1,0.1l-0.1,0.1l-0.1,0.1l-0.1,0L98,28l-0.1,0l-0.1,0l-0.1,0l-0.1,0l-0.1,0h-0.2l-0.1,0l-0.1,0l-0.1,0l-0.1,0
		l-0.1,0l-0.1,0l-0.1,0l-0.1,0l-0.1,0l-0.1,0l-0.1,0L96,27.6l-0.1-0.1l-0.1-0.1l-0.1-0.1l-0.1-0.1l-0.1-0.1l-0.1,0l-0.1,0l-0.1,0
		l-0.1,0l-0.1,0L95,27l-0.1,0l-0.1,0l-0.1,0l-0.1,0l-0.1,0l-0.1,0l-0.1,0l-0.1,0.1L94,27.2l-0.1,0.1l-0.1,0.1l-0.1,0.1l-0.1,0.1
		l0,0.1l0,0.1l0,0.1l0,0.1l0,0.1v8l0,0.1l0,0l0,0l0,0l0,0l0,0l0,0l0,0l0.8,0.2l0,0l0,0l0,0l0,0l0,0l0,0l0,0l0,0v0.6l0,0.1l0,0.1l0,0
		l0,0l0,0l0,0l0,0h-5.2l-0.1,0l0,0l0,0l0,0l0,0l0-0.1v-9.4l0-0.1l0-0.1l0-0.1l0-0.1l0-0.1L89,27.6l-0.1-0.1l-0.1-0.1l-0.1-0.1
		l-0.1,0l-0.1,0l-0.1,0l-0.1,0l-0.1,0l-0.1,0l-0.1,0l-0.1,0l-0.1,0l-0.1,0l-0.1,0l-0.1,0l-0.1,0l-0.1,0.1l-0.1,0.1l-0.3,0.2
		l-0.3,0.2L86.3,28L86,28.2l0,0.3l0,0.3l0,0.3l-0.1,0.3l-0.1,0.2l-0.1,0.2L85.6,30l-0.1,0.2l-0.1,0.2l-0.1,0.2L85,30.9l-0.2,0.2
		l-0.2,0.2l-0.2,0.2l-0.2,0.2l-0.2,0.2L83.9,32l-0.2,0.2l-0.2,0.2l-0.3,0.1l-0.3,0.1l-0.3,0.1l-0.3,0.1L82,32.9L81.7,33L81.4,33
		L81,33.1l-0.3,0.1l-0.4,0l-0.4,0l-0.4,0l-0.4,0l0,0.1l0,0.1l0,0.1l0,0.1l0,0.1l0,0.1l0,0.1l0.1,0.1l0.1,0.1l0.1,0.1l0.1,0.1
		l0.1,0.1l0.1,0.1l0.1,0.1l0.1,0.1l0.1,0.1l0.1,0.1l0.1,0.1l0.1,0.1l0.1,0.1l0.2,0.1l0.2,0.1l0.2,0.1l0.2,0.1l0.2,0.1l0.2,0.1l0.2,0
		l0.2,0.1l0.2,0l0.2,0l0.2,0h0.5l0.3,0l0.3,0l0.2,0l0.2-0.1l0.2-0.1l0.2-0.1l0.2-0.1l0.2-0.1l0.2-0.1l0.2-0.1l0.2-0.1l0.2-0.2
		l0.2-0.2l0.2-0.2l0.1-0.2l0,0l0,0l0,0l0,0l0,0l0,0l0,0l0,0l0,0l0,0h0.1l0,0l0,0l0,0l0,0l0,0l0,0l0,0l0,0l0,0l0,0l0,0l0,0.1l0,0.1
		v0.1l0,0.1l0,0.1l0,0.1l0,0.1l0,0.1l0,0.1l-0.1,0.1L87,35.3L87,35.4l-0.1,0.1l-0.1,0.1l-0.1,0.1l-0.1,0.1L86.5,36l-0.1,0.1
		l-0.1,0.1l-0.1,0.1L86,36.5l-0.2,0.1l-0.2,0.1l-0.2,0.1l-0.2,0.1l-0.2,0.1l-0.2,0.1l-0.2,0.1l-0.2,0.1l-0.2,0.1L84,37.8l-0.2,0.1
		l-0.3,0.1L83.3,38L83,38.1l-0.3,0.1l-0.3,0l-0.3,0l-0.3,0l-0.3,0l-0.3,0l-0.3,0l-0.3,0l-0.3,0l-0.3-0.1L79.6,38l-0.3-0.1l-0.3-0.1
		l-0.3-0.1l-0.3-0.1l-0.3-0.1L78,37.3l-0.3-0.2L77.5,37l-0.2-0.2L77,36.7l-0.2-0.2l-0.2-0.2l-0.2-0.2l-0.2-0.2L76,35.7l-0.2-0.2
		l-0.2-0.2l-0.2-0.2l-0.2-0.2l-0.1-0.3l-0.1-0.3l-0.1-0.3l-0.1-0.3l-0.1-0.3l-0.1-0.3l-0.1-0.3l-0.3-0.1L74,32.6l-0.3-0.1l-0.3-0.1
		l-0.3-0.1L72.9,32l-0.3-0.1l-0.2-0.1v2.6l0,0.2l0,0.2l0,0.2l0,0.2l0,0.2l0,0.2l-0.1,0.2L72,35.8L72,36l-0.1,0.2l-0.1,0.2l-0.1,0.1
		l-0.1,0.1l-0.1,0.1l-0.1,0.1l-0.1,0.1L71.1,37L71,37.1l-0.1,0.1l-0.2,0.1l-0.2,0.1l-0.2,0.1l-0.2,0.1L70,37.6l-0.2,0.1l-0.2,0
		l-0.2,0l-0.2,0l-0.2,0l-0.2,0h-2.6l-0.3,0l-0.3,0l-0.3,0l-0.3,0l-0.3-0.1l-0.2-0.1l-0.2-0.1l-0.2-0.1L64,37.4l-0.2-0.1l-0.2-0.1
		L63.4,37l-0.2-0.1L63,36.8l-0.2-0.1l-0.2-0.1l-0.2-0.2l-0.1-0.2L62.2,36l-0.1-0.2L62,35.6l-0.1-0.2l-0.1-0.2L61.7,35l-0.1-0.2
		l-0.1-0.2l0-0.2l0-0.2l0-0.2l0-0.2l0-0.2v-16l0,0l0,0l0,0l0,0l0,0l0,0l0,0l0,0l-0.8-0.2l0,0l0,0l0,0l0,0l0,0l0,0l0,0l0,0V16l0-0.1
		l0,0l0-0.1l0,0l0,0l0,0l0,0l0.1,0h5.1l0.1,0l0.1,0l0,0l0,0l0,0l0,0l0,0l0,0v17.9l0,0.1l0,0.1l0,0.1l0,0.1l0,0.1l0,0.1l0,0.1
		l0.1,0.1l0.1,0.1l0.1,0.1l0.1,0.1l0.1,0.1l0.1,0.1l0.1,0.1l0.1,0.1l0.1,0l0.1,0.1l0.1,0l0.1,0l0.1,0l0.1,0l0.1,0l0.1,0l0.2,0l0.2,0
		l0.2,0l0.2,0l0.2,0l0.2,0l0.2,0l0.2,0l0.1,0l0.1,0l0.1,0l0.1,0l0.1,0l0.1,0l0.1,0l0.1,0l0.1,0l0.1-0.1l0.1-0.1l0.1-0.1l0.1-0.1
		l0.1-0.1l0-0.1l0-0.1l0.1-0.1l0-0.1l0-0.1l0-0.1l0-0.1l0-0.1l0-0.1v-3.6l-1.8-1.1l-0.1-0.1l-0.1-0.1l-0.1-0.1L68.1,29l0,0l0,0l0,0
		l0-0.1l0,0l0-0.1v-0.1l0-0.1v-3.7l0-0.1l0,0l0,0l0,0l0,0l0,0l0.1,0l0,0h3.8l0,0l0.1,0l0,0l0,0l0,0l0,0l0,0v5l0.2,0.1l0.2,0.1
		l0.3,0.1l0.3,0.1l0.3,0.1l0.3,0.1l0.3,0.1l0.3,0.1l0-0.3l0-0.3l0-0.3l0.1-0.3l0.1-0.3l0.1-0.3l0.1-0.3l0.1-0.3l0.1-0.3l0.2-0.3
		l0.2-0.3l0.2-0.3l0.2-0.3l0.2-0.3l0.2-0.2l0.2-0.2l0.2-0.2l0.2-0.2l0.3-0.2l0.3-0.2l0.3-0.2l0.3-0.2l0.3-0.1l0.3-0.1l0.3-0.1
		l0.3-0.1l0.3-0.1l0.3-0.1l0.3-0.1l0.3,0l0.4,0l0.4,0l0.2,0l0.2,0l0.2,0l0.2,0l0.2,0l0.2,0l0.2,0l0.2,0l0.2,0l0.2,0l0.2,0.1l0.2,0.1
		l0.1,0.1l0.1,0.1l0.1,0.1l0.1,0.1l0.1,0.1l0.1,0.1l0.1,0.1l0.1,0.1l0.1,0.1l0.1,0.1l0.1,0.1l0.1,0.1l0.1,0.1l0.1,0.1l0.1,0.1
		l0.1,0.1l0.1,0.1l0.1,0.1l0.1,0.1l0.1,0.1l0.2-0.2l0.3-0.2l0.3-0.2l0.3-0.2l0.3-0.2l0.3-0.2l0.3-0.2l0.3-0.2l0.3-0.2l0.3-0.1
		l0.2-0.1l0.2-0.1l0.2-0.1l0.2,0l0.2-0.1l0.2,0l0.2,0l0.2,0l0.2,0l0.2,0l0.2,0l0.2,0l0.2,0l0.2,0l0.1,0l0.1,0l0.1,0l0.1,0l0.1,0
		l0.1,0l0.1,0.1l0.1,0.1l0.1,0.1l0.1,0.1l0.1,0.1L92,25l0.1,0.1l0.1,0.1l0.1,0.1l0.1,0.1l0.1,0.1l0.1,0l0.1,0l0.1,0l0.1,0l0.1,0
		l0.1,0H93l0.1,0l0,0l0,0l0.1,0l0,0l0,0l0,0l0,0l0,0l0,0l0,0l0-0.1l0-0.1l0,0v-0.1l0-0.1l0-0.1l0-0.1l0-0.1l0-0.1l0-0.1l0-0.1l0-0.1
		l0-0.1v-0.1l0-0.1l0-0.1l0-0.1l0-0.1l0.1-0.1l0.1-0.1l0.1-0.1l0.1-0.1l0.1-0.1l0.1-0.1l0.1-0.1l0.1-0.1l0.1,0l0.1,0l0.1,0l0.1,0
		h0.1l0.1,0l0.1,0l0.1,0l0.1,0l0.1,0l0.1,0l0.1,0l0.2,0.1l0.2,0.1l0.2,0.1l0.2,0.1l0.2,0.1l0.2,0.1l0.2,0.1l0.2,0.1l0.1,0l0.1,0
		l0.1,0l0.1,0l0.1,0l0.1,0l0.1,0h0.2l0.1,0l0.1,0l0.1,0l0.1,0l0.1-0.1l0.1-0.1l0.1-0.1l0.1-0.1l0.1-0.1l0.1-0.1l0.1-0.1l0-0.1l0-0.1
		l0-0.1l0-0.1V23l0-0.1l0-0.1l0-0.1l0-0.1l-0.1-0.2l-0.1-0.2l-0.1-0.2l-0.1-0.2l-0.1-0.2l-0.1-0.2l-0.1-0.2L98,21.4l-0.1-0.2
		l-0.1-0.1L97.6,21l-0.1-0.1l-0.1-0.1l0,0l0,0l0,0l0,0l0,0l0,0l0,0v0l0,0l0,0l0,0l0,0l0,0l0,0l0,0l0,0l0,0l0,0l0,0l0,0l0,0l0,0
		l0.1,0l0,0l0,0l0.1,0l0.1,0l0.1,0l0.1,0l0.1,0l0.1,0l0.1,0l0.2,0.1l0.1,0.1l0.1,0.1l0.1,0.1l0.1,0.1l0.1,0.1l0.1,0.1l0.1,0.1
		l0.1,0.1l0.1,0.1l0.1,0.1l0.1,0.1l0.1,0.1l0.1,0.1l0.1,0.1l0.1,0.1l0.1,0.1l0.1,0.1l0.1,0.1l0.1,0.1l0.1,0.1l0.1,0.1l0,0.1l0,0.1
		l0,0.1l0,0.1l0,0.2l0,0.2l0,0.1l0,0.2l0,0.2L100.5,24z M83.4,28.2L83.4,28.2l0-0.2l0-0.1l0-0.1l0-0.1l0-0.1l0-0.1l-0.1-0.1l0,0l0,0
		l0-0.1l-0.1,0l0,0l-0.1,0l-0.1,0l-0.1,0l-0.1,0l-0.1,0l-0.1,0l-0.1,0l-0.1,0l-0.1,0l-0.1,0l-0.1,0l-0.1,0l-0.1,0l-0.1,0l-0.1,0
		l-0.1,0l-0.1,0.1l-0.1,0.1L81,27.2l-0.1,0.1l-0.1,0.1l-0.1,0.1l-0.1,0.1l-0.1,0.1l-0.1,0.1L80.1,28L80,28.1l-0.1,0.2l-0.1,0.2
		l-0.1,0.2l-0.1,0.2L79.5,29l-0.1,0.2l-0.1,0.2l-0.1,0.2l-0.1,0.2l0,0.2l-0.1,0.2l0,0.2l0,0.3l0,0.3l0,0.3l0,0.3l0.3,0l0.3,0l0.2,0
		l0.2,0l0.2-0.1l0.2-0.1l0.2-0.1l0.2-0.1l0.2-0.1l0.2-0.1l0.2-0.1l0.2-0.1l0.2-0.1l0.2-0.1l0.2-0.1l0.1-0.1l0.1-0.1l0.1-0.1l0.1-0.1
		l0.1-0.1l0.1-0.1l0.1-0.1l0.1-0.1l0.1-0.1l0.1-0.1l0.1-0.1l0.1-0.1l0-0.1l0-0.1l0-0.1l0-0.1L83.4,28.2z M94.5,11.9L94.5,11.9
		l-0.1,0l-0.1,0l-0.1,0l0,0l0,0l-0.1,0l0,0l0,0l0,0l0,0l0-0.1l0-0.1l0-0.1l0-0.1v-1.3l0-0.1l0-0.1l0-0.1l0-0.1l0-0.1l0-0.1l0-0.1
		l0-0.1l-0.1,0l-0.1-0.1l-0.1,0l-0.1,0l-0.1,0l-0.1,0l-0.1,0l-0.1,0l-0.1,0l-0.1,0l-0.1,0l-0.1,0l-0.1,0l-0.1,0l0,0l-0.1,0l-0.1,0.1
		l-0.1,0.1l-0.1,0.1l-0.1,0.1l-0.1,0l-0.1,0l-0.1,0l-0.1,0l-0.1,0l-0.1,0h-0.1l-0.1,0l-0.1,0l-0.1,0l-0.1,0l-0.1,0l-0.1,0l-0.1,0
		l-0.1,0l-0.1,0l-0.1,0l-0.1,0l-0.1,0l-0.1,0l-0.1,0l-0.1,0l-0.1,0.1L89.5,10L89.5,10l-0.1,0.1l-0.1,0.1l-0.1,0.1l0,0.1l0,0.1l0,0.1
		l0,0.1l0,0.1v0.1l0,0.1l0,0.1l0,0.1l0,0.1l0,0.1l0,0.1l0.1,0.1l0.1,0.1l0.1,0.1l0.1,0.1l0.1,0.1l0.1,0.1l0.1,0.1l0.1,0.1l0.1,0.1
		l0.1,0.1l0,0.1l0,0.1l0,0.1l0,0.1l0,0.1l0,0.1l0,0.1v0.1l0,0.1l0,0.1l0,0.1l0,0.1l0,0.1l0,0.1l0,0.1l0,0.1l0,0.1l0,0.1l0,0.1
		l0.1,0.1l0.1,0.1l0.1,0.1l0.1,0l0.1,0l0.1,0l0.1,0l0.1,0l0.1,0l0.1,0l0.1,0l0.1,0l0.1,0l0.1,0l0.1,0l1.1-0.6l0.1,0l0.1,0l0.1,0
		l0.1,0l0.1,0h0.1l0.1,0l0.1,0l0.1,0l0,0l0.1,0l0,0l0,0l0,0l0,0l0,0.1l0,0.1l0,0.1l0,0.1l0,0.1v0.1l0,0.1l0,0.1l0,0.1l0,0l0,0l0,0
		l0,0l0,0l-0.1,0l0,0L92,15.4l-0.1,0l-0.1,0l-0.1,0.1l0,0.1l0,0.1l0,0.1l0,0.1l0,0.1l0,0.1l0,0.1l0,0.1l0,0.1l0,0.1l0,0.1l0,0.1
		l0,0.1l0,0.1l0,0.1l0,0l0,0l0,0l0.1,0l0.1,0l0.1,0l0.1,0.1l0.1,0.1l0.1,0.1l0.1,0.1l0.1,0.1l0.1,0.1l0.1,0.1l0.1,0.1l0.1,0.1
		l0.1,0.1l0.1,0.1l0.1,0.1l0,0.1l0,0.1l0,0.1l0,0.1l0,0.1l0,0.1l0,0.1l0,0.1l0.1,0.1l0.1,0.1l0.1,0.1l0.1,0.1l0.1,0.1l0.1,0.1
		l0.1,0.1l0.1,0l0.1,0l0.1,0l0.1,0h0.2l0.1,0l0.1,0l0.1,0l0.1,0l0.1-0.1l0.1-0.1l0.1-0.1l0.1-0.1l0.1-0.1l0.1-0.1l0.1-0.1l0.1-0.1
		l0-0.1l0-0.1l0-0.1l0-0.1l0-0.1l0-0.1l0-0.1l0-0.1l0.1-0.1l0.1-0.1l0.1-0.1l0.1-0.1l0.1-0.1l0.1-0.1l0.1-0.1l0.1-0.1l0.1-0.1
		l0.1-0.1l0.1-0.1l0.1,0l0.1,0l0.1,0l0.1,0l0,0l0,0l0-0.1l0-0.1l0-0.1l0-0.1l0-0.1l0-0.1l0-0.1v-0.1l0-0.1l0-0.1l0-0.1l0-0.1l0-0.1
		l0-0.1l-0.1-0.1l-0.1-0.1l-0.1,0l-0.1,0l-1.1-0.6l0,0l0,0l0,0l0,0l0,0l0,0l0,0l0-0.1l0-0.1l0-0.1v-0.1l0-0.1l0-0.1l0-0.1l0-0.1
		l0-0.1l0-0.1l0,0l0,0l0,0l0,0l0.1,0l0.1,0l0,0l0.1,0l0.1,0h0.1l0.1,0l0.1,0l0.1,0l0.1,0l0.1,0l1.1,0.6l0.1,0l0.1,0l0.1,0l0.1,0
		l0.1,0l0.1,0l0.1,0l0.1,0l0.1,0l0.1,0l0.1,0l0.1,0l0.1-0.1l0.1-0.1l0-0.1l0-0.1l0-0.1l0-0.1l0-0.1l0-0.1l0-0.1v-0.1l0-0.1l0-0.1
		l0-0.1v-0.1l0-0.1l0-0.1l0-0.1l0-0.1l0-0.1l0.1-0.1l0-0.1l0.1-0.1l0.1-0.1l0.1-0.1l0.1-0.1l0.1-0.1l0.1-0.1l0.1-0.1l0.1-0.1
		l0.1-0.1l0.1-0.1l0-0.1l0-0.1l0-0.1l0-0.1l0-0.1l0-0.1v-0.1l0-0.1l0-0.1l0-0.1l0-0.1l-0.1-0.1l-0.1-0.1l-0.1-0.1L99.6,10L99.5,10
		l-0.1-0.1l-0.1-0.1l-0.1,0l-0.1,0l-0.1,0l-0.1,0l-0.1,0l-0.1,0l-0.1,0l-0.1,0l-0.1,0l-0.1,0l-0.1,0l-0.1,0l-0.1,0l-0.1,0l-0.1,0
		h-0.1l-0.1,0l-0.1,0l-0.1,0l-0.1,0l-0.1,0l-0.1,0l-0.1-0.1l-0.1-0.1l-0.1-0.1l-0.1-0.1l0,0l-0.1,0l-0.1,0l-0.1,0l-0.1,0l-0.1,0
		l-0.1,0l-0.1,0l-0.1,0l-0.1,0l-0.1,0l-0.1,0l-0.1,0l-0.1,0l-0.1,0.1l-0.1,0l-0.1,0.1l0,0.1l0,0.1l0,0.1l0,0.1l0,0.1l0,0.1v1.3
		l0,0.1l0,0.1l0,0.1l0,0.1l0,0.1l0,0l0,0l0,0l0,0l0,0l-0.1,0l-0.1,0l0,0l-0.1,0L94.5,11.9L94.5,11.9z M30.6,39.5l-0.2,0.2l-0.2,0.2
		l-0.2,0.2l-0.2,0.2l-0.3,0.2l-0.3,0.2l-0.3,0.2L28.6,41l-0.3,0.2l-0.3,0.2l-0.3,0.2l-0.3,0.1l-0.3,0.1l-0.3,0.1L26.6,42l-0.3,0.1
		L26,42.3l-0.3,0.1l-0.3,0.1l-0.3,0.1l-0.3,0.1l-0.3,0.1l-0.3,0.1l-0.3,0.1l-0.3,0.1l-0.3,0l-0.3,0l-0.3,0l-0.3,0l-0.3,0l-0.3,0
		h-0.3l-0.7,0L19.8,43L19.1,43l-0.7-0.1l-0.7-0.2l-0.6-0.2l-0.6-0.2L15.9,42l-0.6-0.3l-0.6-0.3l-0.6-0.3l-0.6-0.4l-0.5-0.4L12.5,40
		L12,39.6l-0.5-0.4l-0.5-0.5l-0.4-0.5l-0.4-0.5l-0.4-0.5l-0.4-0.5L9.2,36l-0.3-0.6l-0.3-0.6l-0.2-0.6l-0.2-0.6L7.9,33l-0.2-0.7
		l-0.1-0.7L7.6,31l0-0.7l0-0.7l0-0.6l0-0.6l0.1-0.6l0.1-0.6l0.1-0.6L8,26.2l0.2-0.5l0.2-0.5l0.2-0.5l0.2-0.5l0.3-0.5l0.3-0.5
		l0.3-0.5l0.3-0.5l0.3-0.5l0.4-0.4l0.4-0.4l0.4-0.4l0.4-0.4l0.4-0.4l0.5-0.3l0.5-0.3l0.5-0.3l0.5-0.3l0.5-0.2l0.5-0.2l0.5-0.2
		l0.5-0.2l0.6-0.1l0.6-0.1l0.6,0l0.6,0h0.2l0.2,0l0.2,0l0.2,0l0.2,0l0.2,0l0.2,0l0.2,0l0.2,0l0.2,0l0.2,0.1l0.2,0.1l0.2,0.1l0.2,0.1
		l0.2,0.1L22,18l0.2,0.1l0.2,0.1l0.2,0.1l0.2,0.1l0.2,0.1l0.2,0.1l0.2,0.1l0.2,0.1l0.2,0.1l0.2,0.1l0.2,0.1l0.2,0.1l0.2,0.1l0.2,0.1
		l0.1,0.1l0.1,0.1l0,0l0,0l0.1,0h0.1l0.1,0l0,0l0,0l0,0l0,0l0,0l7.6-9.9l0,0l0,0l0,0l0,0l0,0l0,0l0,0l0,0l0,0l0,0l0,0l0,0l0,0l0,0
		l0,0l0,0H9.8l-0.1,0l-0.1,0l-0.1,0l-0.1,0l-0.1,0l-0.1,0l-0.1,0l-0.1,0L8.7,10l-0.5,0.5l-0.5,0.5l-0.5,0.5l-0.4,0.5l-0.4,0.5
		L6,12.8l-0.4,0.5l-0.4,0.5l-0.4,0.5l-0.4,0.5l-0.3,0.5l-0.3,0.5l-0.3,0.5L3.2,17l-0.3,0.6l-0.3,0.6l-0.3,0.6l-0.2,0.6l-0.2,0.6
		l-0.2,0.6l-0.2,0.6l-0.2,0.6l-0.2,0.6L1,22.9l-0.1,0.6l-0.1,0.6l-0.1,0.6l-0.1,0.6l0,0.6l0,0.7l0,0.7l0,1l0.1,1l0.1,0.9l0.2,0.9
		l0.2,0.9L1.3,33l0.3,0.9L2,34.7l0.4,0.8l0.4,0.8l0.4,0.8l0.5,0.7l0.5,0.7l0.5,0.7l0.6,0.7l0.6,0.6l0.6,0.6l0.7,0.6l0.7,0.5l0.7,0.5
		l0.7,0.5l0.8,0.4l0.8,0.4l0.8,0.4l0.8,0.3l0.8,0.3l0.9,0.2l0.9,0.2l0.9,0.2l0.9,0.1l0.9,0.1l0.9,0l0.5,0l0.5,0l0.5,0l0.5,0l0.5-0.1
		l0.4-0.1l0.4-0.1l0.4-0.1l0.4-0.1l0.4-0.1l0.4-0.1l0.4-0.1l0.4-0.1l0.4-0.2l0.4-0.2l0.4-0.2l0.4-0.2l0.4-0.2l0.4-0.2l0.4-0.2
		l0.4-0.2l0.4-0.2l0.4-0.2l0.4-0.2l0.4-0.2l0.4-0.3l0.3-0.3l0.3-0.3l0.3-0.3l0.3-0.3l0.3-0.3l0.3-0.3l0.1-0.1l0.1-0.1l0-0.1l0-0.1
		l0-0.1l0-0.1l0-0.1l0-0.1v-0.1l0-0.1l0-0.1l0-0.1l0,0l0-0.1l0-0.1l0,0l0,0l0,0l-0.1,0l-0.1,0l-0.1,0l-0.1,0l-0.1,0l-0.1,0l-0.1,0
		l-0.1,0l-0.1,0l-0.1,0l-0.1,0l-0.1,0L30.6,39.5L30.6,39.5z"/>
</g>
</svg>
