<?xml version="1.0" encoding="utf-8"?>
<!-- Generator: Adobe Illustrator 24.3.0, SVG Export Plug-In . SVG Version: 6.00 Build 0)  -->
<svg version="1.1" id="Layer_1" xmlns="http://www.w3.org/2000/svg" xmlns:xlink="http://www.w3.org/1999/xlink" x="0px" y="0px"
	 viewBox="0 0 719.1 116.1" style="enable-background:new 0 0 719.1 116.1;" xml:space="preserve">
<style type="text/css">
	.st0{fill:#FFFFFF;}
	.st1{font-family:'Montserrat-SemiBold';}
	.st2{font-size:48.75px;}
	.st3{fill:#FF0000;}
</style>
<g id="Layer_2_1_">
	<g id="Isolation_Mode">
		<text transform="matrix(1 0 0 1 366.8 44.72)" class="st0 st1 st2">Bo</text>
		<text transform="matrix(1 0 0 1 435.34 44.72)" class="st0 st1 st2">t</text>
		<text transform="matrix(1 0 0 1 455.37 44.72)" class="st0 st1 st2">tle</text>
		<text transform="matrix(1 0 0 1 520.45 44.72)" class="st0 st1 st2">r</text>
		<text transform="matrix(1 0 0 1 540.77 44.72)" class="st0 st1 st2">s</text>
		<text transform="matrix(1 0 0 1 366.8 103.22)" class="st0 st1 st2">Ne</text>
		<text transform="matrix(1 0 0 1 436.6 103.22)" class="st0 st1 st2">p</text>
		<text transform="matrix(1 0 0 1 469.7 103.22)" class="st0 st1 st2">al Limi</text>
		<text transform="matrix(1 0 0 1 635.53 103.22)" class="st0 st1 st2">t</text>
		<text transform="matrix(1 0 0 1 655.3199 103.22)" class="st0 st1 st2">ed</text>
		<path class="st3" d="M75.5,0c0.7,0.2,1.3,0.4,2,0.6c4.5,1.4,7.1,5.9,6.2,10.5c-0.8,4-2.9,7.7-6,10.4c-0.9,0.8-2,1.3-3.1,1.7
			c-1.6,0.5-3.3-0.4-3.9-2c-0.1-0.3-0.1-0.6-0.1-0.9c-0.3-4.3,2.6-8.1,6.8-9c1.1-0.2,2.3-0.1,2.3-1.8s-0.5-3-2-3.4
			c-1.4-0.4-2.8-0.4-4.2-0.2c-5,1.1-9.6,3.4-13.4,6.7C40.3,28.6,25.5,48,17.9,72.5C16,78,15.5,83.9,16.5,89.7
			c1.6,8.7,7.3,14.1,16.1,15.4c7,1.1,14,0.2,20.9-1.3c11.8-2.6,23.6-5.6,35.4-8.2c8.5-2,17.3-2.9,26-2.8c10.2,0.1,20.2,3.3,28.5,9.2
			c4,2.9,7.9,6,11.7,9c1,0.9,1.9,1.9,2.4,3.1l-2.3-1.4c-7.6-4.5-16.3-6.7-25.1-6.6c-6.4,0.1-10,2-15.1,7.6c-3.5-5.9-9.4-9.9-16.1-11
			c-4.3-0.8-8.6-1.1-13-1c-9.9,0.2-19.5,2.8-29.1,5c-8,1.8-16.1,3.5-24.2,4.9c-5.1,0.8-10.3,0.4-15.2-1.4C7.5,106.8,2,99.7,0.4,89.5
			c-0.1-0.5-0.3-1.1-0.4-1.6v-8.3c0.1-0.3,0.2-0.5,0.3-0.8C1.1,71.3,3,64,6.2,57.2c6.3-14.1,15.7-26,27-36.3
			c8.2-7.5,17-14.1,27.4-18C64.1,1.6,67.8,1,71.3,0C71.3,0,75.5,0,75.5,0z"/>
		<path class="st3" d="M262.1,65.9c0-3.7-1.5-5.5-4.2-5.2c-3.6,0.5-7.8,4.8-8.1,8.3c-0.3,3.7,2.3,7.5,6.2,8.8c0.5,0.2,1.5,0,1.7-0.3
			C259.9,73.8,261.8,70,262.1,65.9L262.1,65.9z M245.4,73.7c-4.6,6.2-9.1,12.5-11.1,20.1c-0.3,1.4-0.4,2.8-0.3,4.2
			c0,1.7,1.4,3,3.1,2.9c0.4,0,0.8-0.1,1.1-0.3c1.5-0.6,2.9-1.4,4.2-2.4c5.3-4.3,9.1-9.9,12.5-15.8c0.1-0.2,0.1-0.3,0.1-0.5
			c-1.8-1.1-3.5-2.3-5.2-3.6C248.3,76.9,246.8,75.3,245.4,73.7L245.4,73.7z M297.6,97.7c0,3.1,1.7,4.2,3.7,3
			c1.8-1.1,3.4-2.5,4.7-4.2c3.5-4.7,6.8-9.6,10-14.5c3.7-5.8,7.1-11.8,10.6-17.7c0.3-0.6,0.5-1.6,0.2-2c-0.6-0.5-1.3-0.8-2.1-0.8
			c-0.9,0.1-1.8,0.4-2.6,0.9c-1.3,0.8-2.5,1.7-3.6,2.7c-8.2,8-14.7,17.4-19.4,27.8C298.5,94.4,298,96,297.6,97.7L297.6,97.7z
			 M285.2,69.4c5-4.3,10.1-8.5,15-13c7.8-7.2,15-15,21.4-23.3c1.3-1.6,3-0.9,5-1.3c-1.1,1.5-1.9,2.7-2.8,3.8
			c-12.4,15.4-26,29.4-42.5,40.5c-0.5,0.3-1,0.8-1.2,1.3c-2.2,5.9-4.5,11.9-6.6,17.9c-0.3,1.2-0.4,2.5-0.2,3.7c0.2,2.5,1.9,3.4,4,2
			c1.3-0.8,2.5-1.9,3.5-3.1c4.2-5.7,8.3-11.4,12.4-17.2c5.1-7.3,10.5-14.3,17.5-20c3-2.7,6.7-4.4,10.7-5.2c3.5-0.6,6.1,0.8,8,3.7
			c0.2-0.1,0.4-0.1,0.4-0.2c0.9-2.2,2.6-2.6,4.8-2.4c2.7,0.2,5.4,0,8.4,0c-0.5,0.9-0.9,1.6-1.3,2.2c-7.2,12.3-14.5,24.7-21.7,37
			c-0.6,0.9-1,1.9-1.4,2.9c-0.1,0.7-0.1,1.4,0,2.1c0.7,0,1.4,0,2.1-0.2c1.5-0.7,2.8-1.7,3.9-2.8c3.6-4,7.1-8,10.3-12.3
			c1.6-2.1,3.1-2.7,5.5-2.1c0,0.1,0.1,0.3,0.1,0.3c-6,9.1-12.6,17.8-21.4,24.4c-2.1,1.5-4.3,2.7-6.8,3.6c-4.7,1.6-7.8-0.8-7.9-5.7
			c0-0.8,0-1.5,0-2.4c-1.3,1.2-2.6,2.4-4,3.4c-2.7,1.7-5.3,3.6-8.2,4.7c-4.8,1.7-8.8-1.5-9-6.6c0-1.2,0-2.3,0-3.4
			c-1.3,1.2-2.5,2.4-3.9,3.6c-2.2,2-4.6,3.8-7.1,5.4c-6.2,3.6-12,0.1-12.1-7.1c-0.1-6.1,2-11.8,3.9-17.5c0.4-1.3,0.9-2.6,1.4-4.1
			c-2.1,0.2-4,0.4-5.8,0.8c-0.5,0.1-0.9,0.8-1.1,1.3c-4.7,8.4-10.4,16-18.2,21.9c-2.5,2-5.2,3.7-8.1,5c-7.3,3.2-12.8-1.1-12.2-9
			c0.5-5.6,2.2-11,4.8-15.8c5.8-10.8,13.4-20.1,23.7-26.9c2.6-1.7,5.5-2.9,8.5-3.6c5.7-1.3,9.5,2.4,9,8.3c-0.6,4.6-1.9,9-4,13.2
			c-0.3,0.6-0.5,1.1-0.8,1.7c3.7,0.4,6-0.7,7.5-3.8c10.3-21,23.4-40.1,40.4-56.4C314.6,13,320.3,7.6,327.3,4c2.4-1.2,4.9-2,7.6-2.4
			c3.7-0.4,5.6,1.9,4.8,5.5c-0.7,2.9-1.6,5.6-2.7,8.3c-0.8,1.9-2.9,1.4-4.7,2.1c1.2-2.8,2.4-5.3,3.3-7.9c0.2-1.1,0.3-2.3,0.2-3.4
			c-1.2,0.3-2.6,0.2-3.4,0.9c-4.7,4-9.6,7.9-13.8,12.4c-13.6,14.3-24.2,30.8-33.4,48.2c-0.2,0.4-0.3,0.8-0.5,1.1L285.2,69.4
			L285.2,69.4z"/>
		<path class="st3" d="M81.2,38.6c0.1-5.2-2.7-6.8-6.7-4.5c-2.3,1.2-4.1,3.2-5.1,5.6c-1.1,2.5-0.7,5,1.3,6.7
			c1.7,1.2,3.5,2.1,5.4,2.8c0.6,0.1,1.3-0.1,1.7-0.6C79.6,45.2,81,41.8,81.2,38.6z M75.3,53c-4.3-1.6-8.3-3.4-10.6-7.7
			c-2.1,3.1-4,5.8-5.8,8.6c-2.7,3.9-4.6,8.2-5.7,12.8c-0.4,2.1-0.8,4.3,1.3,5.8s4.1,0.2,5.8-1C66.9,66.8,71,60,75.3,53z M125.8,69.9
			c-0.1,3.2,1.5,4.4,3.5,3.2c1.8-1,3.4-2.3,4.7-3.9c8.6-10.3,14.6-22.2,21.4-33.6c0.4-0.6,0.3-1.4-0.2-1.9c-0.3-0.2-0.7-0.3-1.1-0.2
			c-1.6,0.2-3.1,0.7-4.4,1.7c-2.4,2-4.5,4.3-6.5,6.7c-5.9,7.3-11.8,14.6-15.6,23.3C126.7,66.9,126.2,68.8,125.8,69.9L125.8,69.9z
			 M82.4,49.1c1.6-0.5,3.2-1.3,4.6-2.1c3.7-2.9,7.2-6,10.9-8.9s7.1-5.7,10.9-8.2c2.6-1.7,5.7-2.4,8.8-2.1c4.8,0.4,7.7,4,7.1,8.7
			c-0.6,3.9-2.5,7.6-5.4,10.3c-0.8,0.7-1.7,1.3-2.7,1.6c-1.7,0.6-3.5-0.3-4.1-2c-0.2-0.5-0.2-1.1-0.1-1.7c0.6-3.7,3.4-6.6,7.1-7.3
			l1.6-0.3c-0.3-1.1-0.3-2.5-0.9-3c-1-0.6-2.2-0.8-3.3-0.5c-2.1,0.9-4,2.1-5.7,3.6C102.2,45.1,95.5,55.4,92,67
			c-0.5,1.6-0.6,3.3-0.4,5c0.4,3.2,3.2,5,6.2,3.9c2.6-1,5-2.3,7.1-4c6.1-4.8,10.9-10.8,15.6-17c5.4-7.2,10.8-14.3,17.7-20.1
			c2.4-2,5-3.8,7.7-5.3c4.3-2.2,7.8-3.2,12.4,1.3c0.7-2,2.3-1.9,3.9-1.9c2.9,0.1,5.7,0,8.9,0c-0.5,1-0.9,1.7-1.3,2.3
			c-7.3,12.2-14.6,24.3-21.9,36.4c-0.6,0.8-1,1.7-1.3,2.7c-0.1,0.8-0.2,1.7-0.1,2.5c0.9-0.1,1.9,0,2.6-0.4c1.9-1.3,3.7-2.8,5.4-4.4
			c3-3,5.8-6.2,8.4-9.6c1.6-2.1,3.3-2.3,5.8-1.8c-1.8,2.4-3.5,4.7-5.2,6.8c-4.8,6.1-9.9,12-16.1,16.7c-1.8,1.4-3.7,2.5-5.8,3.4
			c-5.6,2.3-9.1,0-9.2-6c0-0.3,0-0.6-0.1-1.1c-1.3,1.1-2.3,2.2-3.5,3.1c-2.8,2.3-5.8,4.3-9.6,4.8c-5.2,0.7-8.2-2.1-7.8-7.4
			c0.2-2,0.6-4.1,0.9-6.3c-2.4,2.1-4.6,4.2-7,6.1c-4.1,3.3-8.4,6.3-13.7,7.6c-7.7,1.8-13.9-3.1-13.9-11c0-6.2,2.4-11.5,5.2-16.8
			c0.7-1.3,1.3-2.5,2.1-4c-3,0.5-5.6,0.8-7.3,4C72.9,64.8,67,72.6,59.1,78.5c-2.8,2.1-5.8,3.9-9,5.2c-6.1,2.4-11.5-1.4-11.9-8
			c-0.2-5,1-10,3.3-14.5c5.6-11.8,14.1-22,24.8-29.5c3-2.3,6.6-3.6,10.3-4c5.2-0.4,8.5,2.6,8.6,7.9c-0.1,3.9-0.9,7.7-2.5,11.2
			c-0.2,0.6-0.5,1.3-0.8,1.9L82.4,49.1L82.4,49.1z"/>
		<path class="st3" d="M255.7,9c-0.9,0.5-1.5,0.8-2.1,1.1c-9,5.4-16.3,13.2-21.1,22.5c-0.8,1.7-1.4,3.6-1.8,5.5
			c-0.6,3,1.5,4.8,4.4,3.8c1.6-0.6,3.2-1.4,4.6-2.5c5.8-4.5,10.4-10.4,13.3-17.1C254.8,18.1,256.2,13.9,255.7,9L255.7,9z M191.4,90
			c0.7-2.9,1.2-5.8,2.1-8.6c2.5-7.9,6-15.2,12.8-20.5c3.5-2.7,7.2-4.8,11.6-5.4c4.8-0.6,8.3,2.1,8.9,6.9c0.4,3.6,0.1,7.2-1.1,10.5
			c-5.1,15.5-14.2,27.8-28.8,35.7c-4.3,2.5-9.3,3.5-14.3,3.1c-7.7-0.8-13.1-6.1-14.7-14.1c-1.6-7.8-0.1-15.2,2.4-22.5
			c4.5-13,11.9-24.3,20.3-35.1c10.6-13.6,22.9-25.1,38.2-33.3c5.8-3.1,11.8-5.8,18.5-6.1c3.3-0.3,6.5,0.5,9.3,2.3
			c0.7,0.3,1.5,0.4,2.2,0.1c7.1-2.4,14.4-3.3,21.8-1.5c3.1,0.8,6.1,2,8.9,3.5c6.3,3.4,12.4,7,18.8,10.7l-9.6,8.7
			c-2.6-1.6-5.8-3.5-9-5.5c-5.6-3.7-11.2-7.6-17.5-10.1c-4-1.6-8.1-2.4-12.2-1.1c-0.1,14.6-7.2,25.5-17.6,34.5
			c-2.5,2.3-5.8,3.6-9.2,3.6c-3.1,0.2-5.7-2.2-5.8-5.3c0-0.2,0-0.3,0-0.5c-0.2-4.3,1.5-8.1,3.5-11.7c4.8-9,12.3-15.5,20.6-21.2
			c0.6-0.4,1.1-0.8,1.7-1.2c0-0.2-0.1-0.4-0.1-0.6c-1.8,0.2-3.7-0.1-5.3,0.6c-4,1.6-7.8,3.5-11.5,5.8c-15.2,10.4-27,24-37.1,39.3
			c-6.9,10.5-12.6,21.6-15,34.1c-0.6,2.9-0.8,5.9-0.5,8.9c0.6,6.9,6.4,10.6,13.1,8.5c4.1-1.2,7.3-3.8,10.3-6.7
			c7.7-7.4,13.8-15.9,16.1-26.5c0.4-1.8,0.5-3.6,0.3-5.4c-0.2-2.3-1.9-3.5-4-2.6c-2,0.8-3.9,2-5.4,3.5c-3.4,3.6-5.2,8.1-6.4,12.8
			c-0.2,1-0.9,1.9-1.9,2.3c-4.5,2.2-8.5,5.1-11.9,8.7c-0.5,0.6-0.8,1.2-1.1,1.9L191.4,90L191.4,90z"/>
		<path class="st3" d="M364.6,1C355.2,18.8,333,34.2,313,29.5c2.8-3.2,5.6-6.2,8.3-9.2c0.3-0.2,0.6-0.3,1-0.3
			c12.5,0.6,23-4.3,32.8-11.3C358.4,6.3,361.4,3.6,364.6,1L364.6,1z"/>
		<path class="st3" d="M190.3,29c-2.1,3.4-4,6.5-5.9,9.5c-0.3,0.4-0.7,0.6-1.2,0.7c-3.3,0-6.6,0-10.2,0c2.1-3.4,4-6.5,5.9-9.6
			c0.3-0.3,0.7-0.5,1.1-0.5C183.3,29,186.6,29,190.3,29L190.3,29z"/>
	</g>
</g>
</svg>
