<?xml version="1.0" encoding="utf-8"?>
<!-- Generator: Adobe Illustrator 24.3.0, SVG Export Plug-In . SVG Version: 6.00 Build 0)  -->
<svg version="1.1" id="Layer_1" xmlns:xodm="http://www.corel.com/coreldraw/odm/2003"
	 xmlns="http://www.w3.org/2000/svg" xmlns:xlink="http://www.w3.org/1999/xlink" x="0px" y="0px" viewBox="0 0 252 117.6"
	 style="enable-background:new 0 0 252 117.6;" xml:space="preserve">
<style type="text/css">
	.st0{fill:#FFFFFF;}
</style>
<g id="Layer_x0020_1">
	<g id="_2343527531888">
		<path class="st0" d="M63.5,0c0.4,0.1,0.7,0.2,1.1,0.3c2.5,0.8,4.1,3.3,3.5,6c-0.5,2.3-1.6,4.3-3.4,5.9c-0.5,0.4-1.1,0.8-1.8,0.9
			c-1.2,0.3-2.1-0.4-2.3-1.6c-0.3-2.3,1.5-4.8,3.8-5.1c0.6-0.1,1.3-0.1,1.3-1c0-0.9-0.3-1.7-1.2-1.9c-0.8-0.2-1.6-0.2-2.4-0.1
			c-2.9,0.6-5.4,2-7.6,3.9c-11.2,9.1-19.6,20.1-23.9,34c-1,3.2-1.4,6.5-0.8,9.8c0.9,4.9,4.2,8,9.2,8.8c4,0.6,8,0.1,11.9-0.8
			c6.7-1.5,13.4-3.2,20.2-4.7C76,53.3,81,52.7,86,52.8c5.9,0.1,11.4,1.8,16.2,5.2c2.3,1.6,4.5,3.4,6.7,5.1c0.6,0.5,1,1.1,1.4,1.8
			c-0.4-0.3-0.9-0.5-1.3-0.8c-4.4-2.6-9.2-3.8-14.3-3.7c-3.6,0.1-5.7,1.1-8.6,4.3c-2.1-3.5-5.2-5.5-9.1-6.3
			c-2.4-0.5-4.9-0.6-7.4-0.6c-5.7,0.1-11.1,1.6-16.6,2.8c-4.6,1-9.2,2-13.8,2.8c-2.9,0.5-5.8,0.2-8.6-0.8c-5.6-2-8.7-6-9.6-11.8
			c0-0.3-0.1-0.6-0.2-0.9v-4.7c0.1-0.2,0.2-0.3,0.2-0.5c0.4-4.3,1.6-8.4,3.3-12.3c3.6-8,8.9-14.8,15.4-20.7c4.6-4.2,9.6-8,15.6-10.2
			c2-0.7,4.1-1.1,6.1-1.6L63.5,0L63.5,0z"/>
		<path class="st0" d="M169.7,37.5c0-2.1-0.9-3.2-2.4-3c-2.1,0.3-4.4,2.7-4.6,4.7c-0.2,2.1,1.3,4.3,3.5,5c0.3,0.1,0.9,0,1-0.2
			C168.5,42,169.6,39.8,169.7,37.5L169.7,37.5z M160.2,41.9c-2.6,3.5-5.2,7.1-6.3,11.5c-0.2,0.8-0.3,1.6-0.2,2.4
			c0.1,1.3,1.2,1.9,2.4,1.5c0.9-0.3,1.7-0.8,2.4-1.3c3-2.5,5.2-5.6,7.1-9c0.1-0.1,0-0.3,0-0.3c-1-0.7-2.1-1.3-2.9-2
			C161.8,43.8,161.1,42.9,160.2,41.9L160.2,41.9z M189.9,55.5c0,1.8,1,2.4,2.1,1.7c1-0.6,2-1.4,2.7-2.4c2-2.7,3.9-5.4,5.7-8.3
			c2.1-3.3,4-6.7,6-10.1c0.2-0.3,0.3-0.9,0.1-1.1c-0.2-0.3-0.8-0.5-1.2-0.4c-0.5,0-1,0.2-1.5,0.5c-0.7,0.5-1.4,1-2,1.6
			c-4.7,4.6-8.4,9.9-11.1,15.8C190.3,53.9,190.1,54.9,189.9,55.5L189.9,55.5z M182.9,39.5c2.8-2.5,5.8-4.8,8.5-7.4
			c4.4-4.1,8.5-8.5,12.2-13.3c0.7-0.9,1.7-0.5,2.9-0.7c-0.6,0.9-1.1,1.5-1.6,2.1c-7,8.8-14.8,16.7-24.2,23.1
			c-0.3,0.2-0.6,0.5-0.7,0.8c-1.3,3.4-2.5,6.8-3.7,10.2c-0.2,0.6-0.2,1.4-0.1,2.1c0.1,1.4,1.1,1.9,2.3,1.1c0.7-0.5,1.5-1.1,2-1.7
			c2.4-3.2,4.7-6.5,7-9.8c2.9-4.1,6-8.1,10-11.3c1.8-1.4,3.7-2.6,6.1-3c2-0.3,3.5,0.5,4.5,2.1c0.1-0.1,0.2-0.1,0.2-0.1
			c0.5-1.2,1.5-1.5,2.7-1.4c1.5,0.1,3.1,0,4.8,0c-0.3,0.5-0.5,0.9-0.7,1.3c-4.1,7-8.3,14-12.4,21c-0.3,0.5-0.6,1.1-0.8,1.6
			c-0.1,0.4,0,0.8,0,1.2c0.4,0,0.9,0,1.2-0.1c0.8-0.5,1.6-0.9,2.2-1.6c2-2.3,4.1-4.6,5.9-7c0.9-1.2,1.8-1.6,3.1-1.2
			c0,0.1,0.1,0.1,0,0.2c-3.4,5.2-7.2,10.1-12.2,13.9c-1.1,0.9-2.5,1.6-3.8,2c-2.7,0.9-4.4-0.5-4.5-3.2c0-0.4,0-0.8,0-1.4
			c-0.8,0.7-1.5,1.4-2.3,1.9c-1.5,1-3,2.1-4.7,2.6c-2.7,1-5-0.8-5.1-3.7c0-0.7,0-1.3,0-2c-0.7,0.7-1.4,1.4-2.2,2
			c-1.3,1.1-2.6,2.3-4.1,3.1c-3.6,2-6.8,0.1-6.9-4c-0.1-3.5,1.1-6.7,2.2-9.9c0.2-0.7,0.5-1.5,0.8-2.3c-1.2,0.1-2.3,0.2-3.3,0.4
			c-0.3,0.1-0.5,0.5-0.7,0.8c-2.7,4.8-5.9,9.1-10.4,12.5c-1.4,1.1-3,2.1-4.6,2.8c-4.1,1.8-7.3-0.6-6.9-5.1c0.3-3.2,1.3-6.2,2.8-9
			c3.3-6.2,7.6-11.4,13.5-15.3c1.4-1,3.2-1.7,4.9-2.1c3.2-0.7,5.4,1.4,5.1,4.7c-0.2,2.7-1.1,5.1-2.2,7.5c-0.1,0.3-0.3,0.6-0.4,1
			c2.1,0.3,3.4-0.4,4.3-2.2c5.9-12,13.4-22.8,23-32.1c3.2-3.1,6.4-6.2,10.4-8.3c1.3-0.7,2.8-1.2,4.3-1.3c2.1-0.2,3.2,1.1,2.7,3.1
			c-0.4,1.6-0.9,3.2-1.6,4.7c-0.5,1.1-1.7,0.8-2.7,1.2c0.7-1.6,1.4-3,1.9-4.5c0.2-0.6,0.1-1.3,0.1-1.9c-0.7,0.2-1.5,0.1-1.9,0.5
			c-2.7,2.3-5.4,4.5-7.9,7c-7.8,8.2-13.8,17.6-19,27.5c-0.1,0.2-0.2,0.4-0.3,0.6C182.7,39.3,182.8,39.4,182.9,39.5L182.9,39.5z"/>
		<path class="st0" d="M66.8,22c0-2.9-1.5-3.9-3.8-2.6c-1.3,0.7-2.3,1.8-2.9,3.2c-0.6,1.4-0.4,2.8,0.8,3.8c0.9,0.7,2,1.1,3.1,1.6
			c0.2,0.1,0.8-0.1,0.9-0.4C65.9,25.7,66.7,23.8,66.8,22z M63.4,30.2c-2.5-0.9-4.7-1.9-6.1-4.4c-1.2,1.7-2.3,3.3-3.3,4.9
			c-1.4,2.3-2.7,4.6-3.2,7.3c-0.2,1.2-0.4,2.5,0.7,3.3c1.2,0.9,2.3,0.1,3.3-0.6C58.7,38,61,34.1,63.4,30.2L63.4,30.2z M92.2,39.8
			c0,1.8,0.8,2.5,2,1.8c1-0.6,1.9-1.4,2.7-2.2c4.9-5.9,8.3-12.6,12.2-19.1c0.4-0.6,0-1.3-0.8-1.2c-0.9,0.1-1.9,0.4-2.5,0.9
			c-1.3,1.1-2.6,2.4-3.7,3.8c-3.4,4.1-6.7,8.3-8.9,13.2C92.7,38.1,92.4,39.2,92.2,39.8L92.2,39.8z M67.5,28c0.9-0.4,1.9-0.7,2.6-1.2
			c2.1-1.6,4.1-3.4,6.2-5c2-1.6,4.1-3.2,6.2-4.7c1.5-1,3.2-1.3,5-1.2c2.7,0.2,4.4,2.3,4,5c-0.3,2.3-1.4,4.2-3,5.9
			c-0.4,0.4-1,0.7-1.5,0.9c-1.4,0.4-2.6-0.7-2.4-2.1c0.3-2.1,2-3.8,4-4.2c0.2,0,0.4-0.1,0.9-0.2c-0.2-0.6-0.2-1.4-0.5-1.7
			c-0.5-0.3-1.4-0.5-1.9-0.3c-1.1,0.5-2.3,1.2-3.2,2c-5.3,4.6-8.9,10.3-11,17C72.6,39,72.6,40,72.7,41c0.2,1.8,1.8,2.8,3.5,2.2
			c1.4-0.5,2.8-1.3,4.1-2.3c3.5-2.7,6.2-6.1,8.9-9.6c3.1-4.1,6.1-8.1,10.1-11.4c1.3-1.1,2.8-2.2,4.4-3c2.4-1.3,4.4-1.8,7,0.7
			c0.4-1.1,1.3-1.1,2.2-1.1c1.6,0,3.2,0,5,0c-0.3,0.6-0.5,0.9-0.7,1.3c-4.1,6.9-8.3,13.8-12.4,20.7c-0.3,0.5-0.6,1-0.8,1.5
			c-0.1,0.4,0,0.9,0,1.4c0.5-0.1,1.1,0,1.5-0.2c1.1-0.8,2.1-1.5,3-2.5c1.7-1.8,3.3-3.5,4.8-5.5c0.9-1.2,1.9-1.3,3.3-1
			c-1,1.4-2,2.6-3,3.9c-2.8,3.5-5.6,6.8-9.2,9.5c-1,0.8-2.1,1.4-3.3,1.9c-3.2,1.3-5.2,0-5.2-3.4c0-0.2,0-0.3,0-0.6
			c-0.7,0.7-1.3,1.2-2,1.8c-1.6,1.3-3.3,2.4-5.5,2.7c-3,0.4-4.7-1.2-4.4-4.2c0.1-1.2,0.3-2.3,0.5-3.6c-1.4,1.2-2.6,2.4-4,3.5
			c-2.3,1.9-4.8,3.6-7.8,4.3c-4.4,1-7.9-1.7-7.9-6.3c0-3.5,1.4-6.6,2.9-9.6c0.4-0.7,0.8-1.4,1.2-2.3c-1.7,0.3-3.2,0.5-4.2,2.3
			c-2.7,4.8-6,9.3-10.5,12.6c-1.6,1.2-3.3,2.3-5.1,3c-3.5,1.4-6.6-0.8-6.7-4.6c-0.2-2.9,0.6-5.7,1.9-8.2c3.3-6.8,7.9-12.5,14.1-16.8
			c1.8-1.2,3.7-2.1,5.9-2.3c3-0.2,4.8,1.5,4.9,4.5c0,2.3-0.6,4.3-1.4,6.4c-0.1,0.4-0.3,0.7-0.4,1.1C67.4,27.8,67.4,27.9,67.5,28
			L67.5,28z"/>
		<path class="st0" d="M166.1,5.1c-0.5,0.3-0.8,0.4-1.2,0.6c-5.2,3.1-9.2,7.4-12,12.8c-0.5,1-0.8,2.1-1,3.1
			c-0.3,1.7,0.9,2.7,2.5,2.2c0.9-0.3,1.8-0.8,2.6-1.4c3.3-2.6,5.9-5.8,7.6-9.7C165.5,10.3,166.4,7.9,166.1,5.1L166.1,5.1z
			 M129.5,51.2c0.4-1.6,0.7-3.3,1.2-4.9c1.4-4.5,3.4-8.7,7.3-11.7c2-1.5,4.1-2.7,6.6-3c2.8-0.4,4.7,1.2,5.1,3.9c0.3,2.1,0,4.1-0.6,6
			c-2.9,8.8-8.1,15.8-16.4,20.3c-2.5,1.4-5.3,2-8.1,1.7c-4.4-0.4-7.4-3.5-8.4-8c-0.9-4.4-0.1-8.6,1.4-12.8c2.6-7.4,6.8-13.8,11.5-20
			c6-7.7,13-14.3,21.7-19c3.3-1.8,6.7-3.3,10.5-3.5c1.9-0.1,3.7,0.2,5.3,1.3c0.3,0.2,0.9,0.2,1.2,0.1c4.1-1.4,8.2-1.9,12.4-0.8
			c1.7,0.4,3.5,1.1,5,2c3.6,1.9,7.1,4,10.7,6.1c-1.8,1.6-3.6,3.2-5.5,4.9c-1.5-0.9-3.3-2-5.1-3.1c-3.2-2.1-6.4-4.3-10-5.8
			c-2.3-0.9-4.6-1.4-7-0.6c-0.1,8.3-4.1,14.5-10,19.7c-1.5,1.3-3.2,2.1-5.3,2.1c-2,0-3.2-1.3-3.3-3.3c-0.1-2.4,0.9-4.6,2-6.7
			c2.7-5.1,7-8.8,11.7-12.1c0.3-0.2,0.6-0.4,0.9-0.7c0-0.1,0-0.2-0.1-0.4c-1,0.1-2.1,0-3,0.3c-2.2,1-4.5,1.9-6.5,3.3
			c-8.7,5.9-15.4,13.7-21.1,22.4c-3.9,6-7.2,12.3-8.6,19.4c-0.3,1.7-0.5,3.4-0.3,5.1c0.4,3.9,3.6,6,7.4,4.9c2.3-0.7,4.2-2.2,5.9-3.8
			c4.4-4.2,7.8-9,9.2-15.1c0.2-1,0.3-2.1,0.2-3.1c-0.1-1.3-1.1-2-2.3-1.5c-1.1,0.5-2.2,1.1-3.1,2c-1.9,2-2.9,4.6-3.6,7.3
			c-0.2,0.6-0.4,1-1.1,1.3c-2.6,1.2-4.8,2.9-6.8,4.9c-0.3,0.3-0.4,0.7-0.7,1.1C129.8,51.5,129.7,51.3,129.5,51.2L129.5,51.2z"/>
		<path class="st0" d="M228,0.6c-5.3,10.2-18,18.9-29.3,16.2c1.6-1.8,3.2-3.5,4.7-5.3c0.1-0.1,0.4-0.2,0.6-0.2
			c7.1,0.4,13.1-2.4,18.7-6.4C224.5,3.6,226.2,2,228,0.6L228,0.6z"/>
		<path class="st0" d="M128.9,16.5c-1.2,1.9-2.3,3.7-3.3,5.4c-0.1,0.2-0.4,0.4-0.7,0.4c-1.9,0-3.8,0-5.8,0c1.2-1.9,2.3-3.7,3.4-5.5
			c0.1-0.2,0.4-0.3,0.6-0.3C124.9,16.5,126.7,16.5,128.9,16.5L128.9,16.5z"/>
		<polygon class="st0" points="15.1,73.2 15.1,89.9 12.8,89.9 12.8,82 2.3,82 2.3,89.9 0,89.9 0,73.2 2.3,73.2 2.3,79.9 12.8,79.9 
			12.8,73.2 		"/>
		<path class="st0" d="M21.5,77.3v12.7h-2.2V77.3H21.5z M19.3,75c-0.3-0.3-0.4-0.6-0.4-1c0-0.4,0.1-0.7,0.4-1c0.3-0.3,0.6-0.4,1-0.4
			c0.4,0,0.8,0.1,1,0.4c0.3,0.3,0.4,0.6,0.4,1c0,0.4-0.1,0.7-0.4,1c-0.3,0.3-0.6,0.4-1,0.4C20,75.4,19.6,75.2,19.3,75z"/>
		<path class="st0" d="M35.6,78.3c0.9,0.9,1.4,2.1,1.4,3.5v8.1h-2.2v-7.7c0-1-0.3-1.8-0.9-2.3c-0.6-0.6-1.4-0.8-2.5-0.8
			c-0.8,0-1.5,0.1-2.1,0.4c-0.6,0.3-1.1,0.7-1.4,1.2c-0.3,0.5-0.5,1.1-0.5,1.7v7.6h-2.2V77.3h2.1V79c0.5-0.7,1.2-1.2,2-1.6
			c0.8-0.3,1.6-0.5,2.5-0.5C33.4,77,34.7,77.4,35.6,78.3L35.6,78.3z"/>
		<path class="st0" d="M48.7,87.6c0.7-0.4,1.3-0.9,1.7-1.6c0.4-0.7,0.6-1.5,0.6-2.4c0-0.9-0.2-1.7-0.6-2.4c-0.4-0.7-1-1.2-1.7-1.6
			C48,79.2,47.3,79,46.4,79c-0.9,0-1.6,0.2-2.3,0.6c-0.7,0.4-1.2,0.9-1.6,1.6c-0.4,0.7-0.6,1.5-0.6,2.4c0,0.9,0.2,1.7,0.6,2.4
			c0.4,0.7,0.9,1.2,1.6,1.6c0.7,0.4,1.4,0.6,2.3,0.6C47.3,88.2,48,88,48.7,87.6z M53.2,72.5v17.5h-2.1v-2.1
			c-0.5,0.8-1.2,1.4-2.1,1.8c-0.8,0.4-1.8,0.6-2.8,0.6c-1.2,0-2.3-0.3-3.3-0.9c-1-0.6-1.7-1.4-2.3-2.4c-0.6-1-0.8-2.1-0.8-3.4
			c0-1.2,0.3-2.4,0.8-3.4c0.6-1,1.3-1.8,2.3-2.4c1-0.6,2.1-0.9,3.3-0.9c1,0,1.9,0.2,2.7,0.6c0.8,0.4,1.5,0.9,2,1.7v-6.8H53.2
			L53.2,72.5z"/>
		<path class="st0" d="M68.5,77.3v12.7h-2.1v-1.7c-0.5,0.7-1.2,1.3-2,1.6c-0.8,0.3-1.6,0.5-2.5,0.5c-1,0-1.9-0.2-2.7-0.6
			c-0.8-0.4-1.4-1-1.8-1.7c-0.4-0.7-0.7-1.6-0.7-2.6v-8.1H59V85c0,1,0.3,1.8,0.9,2.3c0.6,0.6,1.4,0.8,2.5,0.8c0.8,0,1.5-0.1,2-0.4
			c0.6-0.3,1.1-0.7,1.4-1.2c0.3-0.5,0.5-1.1,0.5-1.7v-7.6L68.5,77.3L68.5,77.3z"/>
		<path class="st0" d="M74.7,87.7c0.9,0.3,1.8,0.5,2.7,0.5c1,0,1.8-0.2,2.3-0.5c0.6-0.3,0.9-0.8,0.9-1.4c0-0.4-0.2-0.7-0.5-1
			c-0.3-0.2-0.8-0.4-1.4-0.5l-3.4-0.6c-1.2-0.2-2.2-0.6-2.8-1.2c-0.6-0.6-0.9-1.3-0.9-2.2c0-0.8,0.2-1.4,0.7-2
			c0.4-0.6,1.1-1,1.9-1.4c0.8-0.3,1.8-0.5,2.9-0.5c1,0,1.9,0.1,2.8,0.4c0.9,0.3,1.8,0.7,2.6,1.3l-1.2,1.7c-0.5-0.4-1.2-0.8-2-1
			c-0.8-0.3-1.6-0.4-2.4-0.4c-0.9,0-1.6,0.2-2.2,0.5c-0.6,0.3-0.9,0.8-0.9,1.3c0,0.4,0.2,0.7,0.5,0.9c0.3,0.2,0.9,0.4,1.6,0.5
			l3.1,0.6c1.2,0.2,2.2,0.6,2.8,1.2c0.6,0.6,0.9,1.3,0.9,2.2c0,0.8-0.2,1.5-0.7,2.1c-0.5,0.6-1.1,1.1-1.9,1.4
			c-0.8,0.3-1.8,0.5-2.9,0.5c-1.1,0-2.2-0.2-3.4-0.5c-1.1-0.3-2.1-0.8-2.8-1.4l1.2-1.7C73.1,87,73.8,87.4,74.7,87.7L74.7,87.7z"/>
		<path class="st0" d="M93.3,87.7v2c-0.6,0.3-1.3,0.5-2.3,0.5c-1.5,0-2.6-0.4-3.3-1.1c-0.8-0.7-1.2-1.8-1.2-3.1v-6.8h-2.2v-1.9h2.2
			v-3l2.2-1v4h4.5v1.9h-4.5v6.5c0,0.8,0.2,1.4,0.7,1.8s1.1,0.6,1.8,0.6C91.9,88.1,92.6,88,93.3,87.7z"/>
		<path class="st0" d="M103.1,87.3c0.9-0.7,1.4-1.7,1.5-3.2h-3.3c-2.9,0-4.3,0.7-4.3,2.2c0,0.6,0.3,1.1,0.8,1.5
			c0.5,0.4,1.2,0.5,2.1,0.5C101.1,88.3,102.2,88,103.1,87.3L103.1,87.3z M108.5,88v1.9c-0.3,0.1-0.6,0.2-1.1,0.2
			c-0.7,0-1.3-0.2-1.8-0.5c-0.5-0.4-0.8-0.9-0.9-1.6c-0.5,0.7-1.2,1.3-2.1,1.7c-0.9,0.4-1.8,0.6-2.9,0.6c-1.4,0-2.6-0.3-3.5-1
			c-1-0.7-1.4-1.6-1.4-2.9c0-1.3,0.5-2.3,1.6-3c1.1-0.7,2.7-1.1,4.9-1.1h3.3v-0.2c0-1-0.3-1.7-1-2.3c-0.7-0.5-1.5-0.8-2.7-0.8
			c-0.7,0-1.4,0.1-2.1,0.3c-0.7,0.2-1.3,0.6-1.9,1l-1.2-1.6c0.7-0.6,1.5-1,2.4-1.3c0.9-0.3,1.9-0.4,2.9-0.4c1.8,0,3.2,0.4,4.2,1.3
			c1,0.9,1.5,2.1,1.5,3.7v5.1c0,0.7,0.3,1,1,1C108.1,88.1,108.3,88.1,108.5,88L108.5,88z"/>
		<path class="st0" d="M121.1,78.3c0.9,0.9,1.4,2.1,1.4,3.5v8.1h-2.2v-7.7c0-1-0.3-1.8-0.9-2.3c-0.6-0.6-1.4-0.8-2.5-0.8
			c-0.8,0-1.5,0.1-2.1,0.4c-0.6,0.3-1.1,0.7-1.4,1.2c-0.3,0.5-0.5,1.1-0.5,1.7v7.6h-2.2V77.3h2.1V79c0.5-0.7,1.2-1.2,2-1.6
			c0.8-0.3,1.6-0.5,2.5-0.5C118.9,77,120.2,77.4,121.1,78.3L121.1,78.3z"/>
		<path class="st0" d="M137.1,89.1c-1.4-0.8-2.5-1.8-3.3-3.1c-0.8-1.3-1.2-2.8-1.2-4.4c0-1.6,0.4-3.1,1.2-4.4
			c0.8-1.3,1.9-2.4,3.3-3.1c1.4-0.8,3-1.1,4.7-1.1c1.3,0,2.5,0.2,3.6,0.6c1.1,0.4,2,1,2.7,1.8l-1.5,1.6c-0.6-0.6-1.4-1.1-2.2-1.4
			c-0.8-0.3-1.7-0.5-2.6-0.5c-1.2,0-2.4,0.3-3.4,0.9c-1,0.6-1.8,1.4-2.5,2.4c-0.6,1-0.9,2.1-0.9,3.3c0,1.2,0.3,2.4,0.9,3.4
			c0.6,1,1.4,1.8,2.5,2.4c1,0.6,2.2,0.8,3.5,0.8c0.9,0,1.8-0.2,2.6-0.5c0.8-0.3,1.6-0.8,2.2-1.4l1.5,1.6c-0.7,0.8-1.7,1.4-2.8,1.8
			c-1.1,0.4-2.3,0.6-3.6,0.6C140.1,90.2,138.5,89.9,137.1,89.1L137.1,89.1z"/>
		<path class="st0" d="M158.8,87.6c0.7-0.4,1.2-0.9,1.6-1.7c0.4-0.7,0.6-1.5,0.6-2.4c0-0.9-0.2-1.7-0.6-2.3
			c-0.4-0.7-0.9-1.2-1.6-1.6c-0.7-0.4-1.5-0.6-2.3-0.6c-0.8,0-1.6,0.2-2.3,0.6c-0.7,0.4-1.2,0.9-1.6,1.6c-0.4,0.7-0.6,1.5-0.6,2.3
			c0,0.9,0.2,1.7,0.6,2.4c0.4,0.7,0.9,1.3,1.6,1.7c0.7,0.4,1.5,0.6,2.3,0.6C157.3,88.2,158.1,88,158.8,87.6z M152.9,89.4
			c-1-0.6-1.8-1.4-2.4-2.4c-0.6-1-0.9-2.1-0.9-3.4c0-1.2,0.3-2.4,0.9-3.4c0.6-1,1.4-1.8,2.4-2.4c1-0.6,2.2-0.9,3.5-0.9
			c1.3,0,2.5,0.3,3.5,0.9c1,0.6,1.8,1.4,2.4,2.4c0.6,1,0.9,2.1,0.9,3.4c0,1.2-0.3,2.4-0.9,3.4c-0.6,1-1.4,1.8-2.4,2.4
			c-1,0.6-2.2,0.9-3.5,0.9C155.1,90.2,154,90,152.9,89.4z"/>
		<path class="st0" d="M168.6,89.4c-1.1-0.6-1.9-1.4-2.5-2.4c-0.6-1-0.9-2.1-0.9-3.4c0-1.3,0.3-2.4,0.9-3.4c0.6-1,1.5-1.8,2.5-2.4
			c1.1-0.6,2.3-0.9,3.7-0.9c2,0,3.6,0.6,4.8,1.8l-1.3,1.6c-0.5-0.4-1-0.8-1.6-1c-0.6-0.2-1.2-0.4-1.9-0.4c-0.9,0-1.7,0.2-2.4,0.6
			c-0.7,0.4-1.3,0.9-1.7,1.6c-0.4,0.7-0.7,1.5-0.7,2.4c0,0.9,0.2,1.7,0.7,2.4c0.4,0.7,1,1.2,1.8,1.6c0.7,0.4,1.5,0.6,2.4,0.6
			c0.7,0,1.4-0.1,2-0.4c0.6-0.2,1.2-0.6,1.6-1l1.3,1.6c-0.5,0.6-1.2,1-2.1,1.3c-0.8,0.3-1.8,0.5-2.8,0.5
			C170.9,90.2,169.7,90,168.6,89.4L168.6,89.4z"/>
		<path class="st0" d="M186.9,87.3c0.9-0.7,1.4-1.7,1.5-3.2h-3.3c-2.9,0-4.3,0.7-4.3,2.2c0,0.6,0.3,1.1,0.8,1.5
			c0.5,0.4,1.2,0.5,2.1,0.5C184.9,88.3,186,88,186.9,87.3L186.9,87.3z M192.3,88v1.9c-0.3,0.1-0.6,0.2-1.1,0.2
			c-0.7,0-1.3-0.2-1.8-0.5c-0.5-0.4-0.8-0.9-0.9-1.6c-0.5,0.7-1.2,1.3-2.1,1.7c-0.9,0.4-1.8,0.6-2.9,0.6c-1.4,0-2.6-0.3-3.5-1
			c-1-0.7-1.4-1.6-1.4-2.9c0-1.3,0.5-2.3,1.6-3c1.1-0.7,2.7-1.1,4.9-1.1h3.3v-0.2c0-1-0.3-1.7-1-2.3s-1.5-0.8-2.7-0.8
			c-0.7,0-1.4,0.1-2.1,0.3c-0.7,0.2-1.3,0.6-1.9,1l-1.2-1.6c0.7-0.6,1.5-1,2.4-1.3c0.9-0.3,1.9-0.4,2.9-0.4c1.8,0,3.2,0.4,4.2,1.3
			c1,0.9,1.5,2.1,1.5,3.7v5.1c0,0.7,0.3,1,1,1C191.9,88.1,192.2,88.1,192.3,88L192.3,88z"/>
		<polygon class="st0" points="196.9,81 196.3,83.1 192.2,83.1 192.9,81 		"/>
		<path class="st0" d="M203.2,89.1c-1.4-0.8-2.5-1.8-3.3-3.1c-0.8-1.3-1.2-2.8-1.2-4.4c0-1.6,0.4-3.1,1.2-4.4
			c0.8-1.3,1.9-2.4,3.3-3.1c1.4-0.8,3-1.1,4.7-1.1c1.3,0,2.5,0.2,3.6,0.6c1.1,0.4,2,1,2.7,1.8l-1.5,1.6c-0.6-0.6-1.4-1.1-2.2-1.4
			c-0.8-0.3-1.7-0.5-2.6-0.5c-1.2,0-2.4,0.3-3.4,0.9c-1,0.6-1.8,1.4-2.5,2.4c-0.6,1-0.9,2.1-0.9,3.3c0,1.2,0.3,2.4,0.9,3.4
			c0.6,1,1.4,1.8,2.5,2.4c1,0.6,2.2,0.8,3.5,0.8c0.9,0,1.8-0.2,2.6-0.5c0.8-0.3,1.6-0.8,2.2-1.4l1.5,1.6c-0.7,0.8-1.7,1.4-2.8,1.8
			c-1.1,0.4-2.3,0.6-3.6,0.6C206.2,90.2,204.6,89.9,203.2,89.1L203.2,89.1z"/>
		<path class="st0" d="M224.9,87.6c0.7-0.4,1.2-0.9,1.6-1.7s0.6-1.5,0.6-2.4c0-0.9-0.2-1.7-0.6-2.3c-0.4-0.7-0.9-1.2-1.6-1.6
			c-0.7-0.4-1.5-0.6-2.3-0.6c-0.8,0-1.6,0.2-2.3,0.6c-0.7,0.4-1.2,0.9-1.6,1.6c-0.4,0.7-0.6,1.5-0.6,2.3c0,0.9,0.2,1.7,0.6,2.4
			c0.4,0.7,0.9,1.3,1.6,1.7c0.7,0.4,1.5,0.6,2.3,0.6C223.4,88.2,224.2,88,224.9,87.6z M219.1,89.4c-1-0.6-1.8-1.4-2.4-2.4
			c-0.6-1-0.9-2.1-0.9-3.4c0-1.2,0.3-2.4,0.9-3.4c0.6-1,1.4-1.8,2.4-2.4c1-0.6,2.2-0.9,3.5-0.9c1.3,0,2.5,0.3,3.5,0.9
			c1,0.6,1.8,1.4,2.4,2.4c0.6,1,0.9,2.1,0.9,3.4c0,1.2-0.3,2.4-0.9,3.4c-0.6,1-1.4,1.8-2.4,2.4c-1,0.6-2.2,0.9-3.5,0.9
			C221.3,90.2,220.1,90,219.1,89.4z"/>
		<path class="st0" d="M234.5,72.5v14.4c0,0.4,0.1,0.7,0.3,0.9c0.2,0.2,0.5,0.3,0.9,0.3c0.3,0,0.7-0.1,1-0.2v2
			c-0.4,0.2-0.9,0.3-1.4,0.3c-0.9,0-1.7-0.3-2.2-0.8c-0.6-0.5-0.8-1.2-0.8-2.1V72.5L234.5,72.5L234.5,72.5z"/>
		<path class="st0" d="M246.6,87.3c0.9-0.7,1.4-1.7,1.5-3.2h-3.3c-2.9,0-4.3,0.7-4.3,2.2c0,0.6,0.3,1.1,0.8,1.5
			c0.5,0.4,1.2,0.5,2.1,0.5C244.6,88.3,245.7,88,246.6,87.3L246.6,87.3z M252,88v1.9c-0.3,0.1-0.6,0.2-1.1,0.2
			c-0.7,0-1.3-0.2-1.8-0.5c-0.5-0.4-0.8-0.9-0.9-1.6c-0.5,0.7-1.2,1.3-2.1,1.7c-0.9,0.4-1.8,0.6-2.9,0.6c-1.4,0-2.6-0.3-3.5-1
			c-1-0.7-1.4-1.6-1.4-2.9c0-1.3,0.5-2.3,1.6-3c1.1-0.7,2.7-1.1,4.9-1.1h3.3v-0.2c0-1-0.3-1.7-1-2.3c-0.7-0.5-1.5-0.8-2.7-0.8
			c-0.7,0-1.4,0.1-2.1,0.3c-0.7,0.2-1.3,0.6-1.9,1l-1.2-1.6c0.7-0.6,1.5-1,2.4-1.3c0.9-0.3,1.9-0.4,2.9-0.4c1.8,0,3.2,0.4,4.2,1.3
			c1,0.9,1.5,2.1,1.5,3.7v5.1c0,0.7,0.3,1,1,1C251.6,88.1,251.8,88.1,252,88L252,88z"/>
		<path class="st0" d="M73.7,110.5c0.6-0.5,0.9-1.2,0.9-2.1c0-0.8-0.3-1.5-0.9-2c-0.6-0.5-1.4-0.7-2.4-0.7h-6.5v5.6h6.3
			C72.3,111.2,73.1,111,73.7,110.5L73.7,110.5z M64.9,98.5v5.2h5.6c1,0,1.7-0.3,2.2-0.8c0.5-0.5,0.7-1.1,0.7-1.9
			c0-0.8-0.3-1.4-0.8-1.9c-0.5-0.5-1.3-0.7-2.2-0.7C70.4,98.5,64.9,98.5,64.9,98.5z M76.2,105.9c0.6,0.8,0.8,1.6,0.8,2.7
			c0,0.9-0.2,1.7-0.7,2.4c-0.4,0.7-1.1,1.3-1.9,1.7c-0.9,0.4-1.9,0.6-3,0.6h-8.8V96.5h8.1c1.1,0,2,0.2,2.7,0.6
			c0.8,0.4,1.3,0.9,1.7,1.6c0.4,0.7,0.6,1.4,0.6,2.2c0,0.7-0.2,1.4-0.5,2c-0.3,0.6-0.9,1.1-1.6,1.5
			C74.8,104.6,75.6,105.1,76.2,105.9L76.2,105.9z"/>
		<path class="st0" d="M82.8,103.2c-0.8,0.7-1.3,1.5-1.5,2.7h8.6c-0.2-1.1-0.6-1.9-1.4-2.6c-0.8-0.7-1.7-1-2.9-1
			C84.5,102.2,83.6,102.6,82.8,103.2z M92.1,107.7H81.3c0.2,1.2,0.7,2.1,1.5,2.8c0.9,0.7,1.9,1,3.2,1c1.6,0,2.9-0.5,4-1.5l1.3,1.5
			c-0.5,0.6-1.2,1.1-2.2,1.4c-0.9,0.4-2,0.5-3.2,0.5c-1.4,0-2.7-0.3-3.7-0.9c-1.1-0.6-1.9-1.4-2.5-2.4c-0.6-1-0.9-2.1-0.9-3.4
			c0-1.2,0.3-2.3,0.8-3.4c0.6-1,1.3-1.8,2.3-2.4c1-0.6,2.1-0.9,3.4-0.9c1.3,0,2.5,0.3,3.5,0.9c1,0.6,1.8,1.4,2.3,2.4
			c0.5,1,0.8,2.1,0.8,3.4C92.2,107.2,92.2,107.4,92.1,107.7L92.1,107.7z"/>
		<polygon class="st0" points="106.6,100.5 101.1,113.2 98.4,113.2 92.9,100.5 95.4,100.5 99.8,111.1 104.2,100.5 		"/>
		<path class="st0" d="M111.1,103.2c-0.8,0.7-1.3,1.5-1.5,2.7h8.6c-0.2-1.1-0.6-1.9-1.4-2.6c-0.8-0.7-1.7-1-2.9-1
			C112.8,102.2,111.9,102.6,111.1,103.2z M120.4,107.7h-10.8c0.2,1.2,0.7,2.1,1.5,2.8c0.9,0.7,1.9,1,3.2,1c1.6,0,2.9-0.5,4-1.5
			l1.3,1.5c-0.5,0.6-1.2,1.1-2.2,1.4c-0.9,0.4-2,0.5-3.2,0.5c-1.4,0-2.7-0.3-3.7-0.9c-1.1-0.6-1.9-1.4-2.5-2.4
			c-0.6-1-0.9-2.1-0.9-3.4c0-1.2,0.3-2.3,0.8-3.4c0.6-1,1.3-1.8,2.3-2.4c1-0.6,2.1-0.9,3.4-0.9c1.3,0,2.5,0.3,3.5,0.9
			c1,0.6,1.8,1.4,2.3,2.4c0.5,1,0.8,2.1,0.8,3.4C120.5,107.2,120.5,107.4,120.4,107.7L120.4,107.7z"/>
		<path class="st0" d="M130.8,100.5v2.1c-0.4-0.1-0.9-0.1-1.3-0.1c-1.2,0-2.2,0.3-3,1c-0.8,0.7-1.2,1.6-1.2,2.8v7h-2.2v-12.7h2.1v2
			c0.5-0.7,1.1-1.3,1.9-1.6c0.8-0.3,1.6-0.5,2.4-0.5C130,100.3,130.5,100.4,130.8,100.5L130.8,100.5z"/>
		<path class="st0" d="M139.9,110.6c0.9-0.7,1.4-1.7,1.5-3.2h-3.3c-2.9,0-4.3,0.7-4.3,2.2c0,0.6,0.3,1.1,0.8,1.5
			c0.5,0.4,1.2,0.5,2.1,0.5C137.9,111.6,139,111.2,139.9,110.6L139.9,110.6z M145.3,111.3v1.9c-0.3,0.1-0.6,0.2-1.1,0.2
			c-0.7,0-1.3-0.2-1.8-0.5c-0.5-0.4-0.8-0.9-0.9-1.6c-0.5,0.7-1.2,1.3-2.1,1.7c-0.9,0.4-1.8,0.6-2.9,0.6c-1.4,0-2.6-0.3-3.5-1
			c-1-0.7-1.4-1.6-1.4-2.9c0-1.3,0.5-2.3,1.6-3c1.1-0.7,2.7-1.1,4.9-1.1h3.3v-0.2c0-1-0.3-1.7-1-2.3c-0.7-0.5-1.5-0.8-2.7-0.8
			c-0.7,0-1.4,0.1-2.1,0.3c-0.7,0.2-1.3,0.6-1.9,1l-1.2-1.6c0.7-0.6,1.5-1,2.4-1.3c0.9-0.3,1.9-0.4,2.9-0.4c1.8,0,3.2,0.4,4.2,1.3
			c1,0.9,1.5,2.1,1.5,3.7v5.1c0,0.7,0.3,1,1,1C144.9,111.4,145.1,111.3,145.3,111.3L145.3,111.3z"/>
		<path class="st0" d="M155.3,110.1c0.7-0.3,1.2-0.8,1.6-1.4c0.4-0.6,0.6-1.4,0.6-2.2c0-0.8-0.2-1.6-0.6-2.2
			c-0.4-0.6-0.9-1.1-1.6-1.5c-0.7-0.3-1.4-0.5-2.3-0.5c-0.8,0-1.6,0.2-2.2,0.5c-0.7,0.4-1.2,0.9-1.5,1.5c-0.4,0.6-0.6,1.4-0.6,2.2
			c0,0.8,0.2,1.5,0.6,2.2c0.4,0.6,0.9,1.1,1.5,1.5c0.7,0.3,1.4,0.5,2.2,0.5C153.9,110.6,154.7,110.5,155.3,110.1L155.3,110.1z
			 M159.8,100.5V112c0,1.1-0.3,2.1-0.8,3s-1.4,1.5-2.4,2c-1,0.5-2.2,0.7-3.5,0.7c-2,0-3.8-0.4-5.4-1.2l0.8-1.9
			c1.4,0.7,2.9,1.1,4.5,1.1c1.3,0,2.4-0.3,3.3-1c0.8-0.7,1.2-1.6,1.2-2.7v-1.4c-0.5,0.7-1.2,1.2-2,1.6c-0.8,0.4-1.7,0.6-2.7,0.6
			c-1.2,0-2.3-0.3-3.3-0.8c-1-0.5-1.7-1.3-2.3-2.2c-0.5-0.9-0.8-2-0.8-3.2c0-1.2,0.3-2.2,0.8-3.2c0.5-1,1.3-1.7,2.3-2.2
			c1-0.5,2.1-0.8,3.3-0.8c1,0,2,0.2,2.8,0.6c0.8,0.4,1.5,1,2,1.7v-2L159.8,100.5L159.8,100.5z"/>
		<path class="st0" d="M166.3,103.2c-0.8,0.7-1.3,1.5-1.5,2.7h8.6c-0.2-1.1-0.6-1.9-1.4-2.6c-0.8-0.7-1.7-1-2.9-1
			C168,102.2,167,102.6,166.3,103.2z M175.6,107.7h-10.8c0.2,1.2,0.7,2.1,1.5,2.8c0.9,0.7,1.9,1,3.2,1c1.6,0,2.9-0.5,4-1.5l1.3,1.5
			c-0.5,0.6-1.2,1.1-2.2,1.4c-0.9,0.4-2,0.5-3.2,0.5c-1.4,0-2.7-0.3-3.7-0.9c-1.1-0.6-1.9-1.4-2.5-2.4c-0.6-1-0.9-2.1-0.9-3.4
			c0-1.2,0.3-2.3,0.8-3.4c0.6-1,1.3-1.8,2.3-2.4c1-0.6,2.1-0.9,3.4-0.9c1.3,0,2.5,0.3,3.5,0.9c1,0.6,1.8,1.4,2.3,2.4
			c0.5,1,0.8,2.1,0.8,3.4C175.7,107.2,175.6,107.4,175.6,107.7L175.6,107.7z"/>
		<path class="st0" d="M180.5,111c0.9,0.3,1.8,0.5,2.7,0.5c1,0,1.8-0.2,2.3-0.5c0.6-0.3,0.9-0.8,0.9-1.4c0-0.4-0.2-0.7-0.5-1
			c-0.3-0.2-0.8-0.4-1.4-0.5l-3.4-0.6c-1.2-0.2-2.2-0.6-2.8-1.2c-0.6-0.6-0.9-1.3-0.9-2.2c0-0.8,0.2-1.4,0.7-2
			c0.4-0.6,1.1-1,1.9-1.4c0.8-0.3,1.8-0.5,2.9-0.5c1,0,1.9,0.1,2.9,0.4c0.9,0.3,1.8,0.7,2.6,1.3l-1.2,1.7c-0.5-0.4-1.2-0.8-2-1
			c-0.8-0.3-1.6-0.4-2.4-0.4c-0.9,0-1.6,0.2-2.2,0.5c-0.6,0.3-0.9,0.8-0.9,1.3c0,0.4,0.2,0.7,0.5,0.9s0.9,0.4,1.6,0.5l3.1,0.6
			c1.2,0.2,2.2,0.6,2.8,1.2c0.6,0.6,0.9,1.3,0.9,2.2c0,0.8-0.2,1.5-0.7,2.1c-0.5,0.6-1.1,1.1-1.9,1.4c-0.8,0.3-1.8,0.5-2.9,0.5
			c-1.1,0-2.2-0.2-3.4-0.5c-1.1-0.3-2.1-0.8-2.8-1.4l1.2-1.7C178.9,110.3,179.7,110.7,180.5,111L180.5,111z"/>
	</g>
</g>
</svg>
