<?xml version="1.0" encoding="utf-8"?>
<!-- Generator: Adobe Illustrator 24.3.0, SVG Export Plug-In . SVG Version: 6.00 Build 0)  -->
<svg version="1.1" id="Layer_1" xmlns="http://www.w3.org/2000/svg" xmlns:xlink="http://www.w3.org/1999/xlink" x="0px" y="0px"
	 viewBox="0 0 151.3 72" style="enable-background:new 0 0 151.3 72;" xml:space="preserve">
<style type="text/css">
	.st0{fill-rule:evenodd;clip-rule:evenodd;fill:#93824D;}
	.st1{fill-rule:evenodd;clip-rule:evenodd;fill:#FFFFFF;}
	.st2{fill:#FFFFFF;}
	.st3{font-family:'Montserrat-Bold';}
	.st4{font-size:11.04px;}
	.st5{letter-spacing:1;}
</style>
<g id="Layer_2_1_">
	<g id="svg4403">
		<g id="Isolation_Mode">
			<path class="st0" d="M6.7,50.5l0.2-6.4L8.7,45v10.7H6.9L6.7,50.5z M106.4,39l-1.3-0.7c0,0,3.3-14,4.9-17.3l0.4,3.8L106.4,39z"/>
			<path class="st0" d="M100.9,37l1.6,1.8l5.3,2.2c0.2,0-1.1-2.2-1.1-2.2L100.9,37z M32.2,18.1l-1.3,2v23.6l0.7,0.2l1.6,0.7
				c-0.6,0.4-1.3,0.8-2,1.1c-2.9,1.3-5.6,2.9-8.2,4.7l-1.8-0.9c0,0,3.8-2.4,5.1-3.1c1.1-0.7,5.3-2.4,5.3-2.4l-2.7-1V19.7
				c0.5-0.9,1.1-1.7,1.8-2.4C31.2,17.5,31.7,17.8,32.2,18.1z M19.1,14.3l0.2,30.9c-0.1,2.4-0.8,4.8-2,6.9c-2.4,4-5.3,6.7-10,9.5
				c-2,0.7-3.6,0.9-5.1-0.2c-1.1-0.8-1.7-2-1.8-3.3c0,0,0,2,3.3,2.5c1.8,0.2,6.7-3.3,7.8-4.5c0,0,6-5.5,6-10.7V13.7l1.8-2.9l1.1,1.6
				C20.4,12.3,19.1,14.3,19.1,14.3z M39.6,40.3l2,0.7c0,0-4,1.8-6.9,2.9c-0.5-0.2-1.1-0.5-1.6-0.9L39.6,40.3l-2.2-0.7V23.2l2.2,4.9
				V40.3z M44.2,26.1l-4.9-11.8l2,0.4l3.8,8.2L44.2,26.1L44.2,26.1z M55.8,12.8v22.4l2,1.1c-1.7,0.3-3.3,0.6-4.9,1.1L48,38.8
				l-1.5-0.9c0,0,3.1-1.1,4.9-1.6c1.6-0.4,4.7-1.1,4.7-1.1l-2.7-0.9V11.9l2.5-1.8l1.5,1.1C57.3,11.2,55.8,12.8,55.8,12.8z M48,28.1
				L45.1,37l-1.6-0.7L48,22.1V28.1L48,28.1z M84,21.2c-0.7-4.2-2.9-4.9-5.1-6c1.2-0.5,2.3-1.2,3.3-2c1.7-2.4,2.1-5.5,0.9-8.2
				c-1.1-2.2-4.7-4-4.7-4s2.7,0.9,3.3,5.3c0.4,3.4-1.6,6.7-4.9,7.8l2,1.3c0,0,3.3,2.9,3.6,6c0,4.2-0.2,6-2.4,9.6
				c-1.9,1.8-4.5,2.8-7.1,2.9l-11.3,0.7l1.6,1.1c0,0,8.2-0.2,12.2-0.5c1.7-0.1,3.4-0.7,4.9-1.5C84,31,85.1,26.3,84,21.2z M75.3,5.2
				c0.2-4-5.6-2.7-5.6-2.7v10.2h2V4.3C71.8,4.3,74.4,4.1,75.3,5.2z"/>
			<path class="st0" d="M69.8,15.4v16c0,0,0.7,0.4,2.2-0.2V16.8c0,0,1.8,0.2,3.1,0.4C75.1,17.2,74.9,15.2,69.8,15.4z M100.9,12.5
				v6.7l-1.8-1.3v-6.4L100.9,12.5z M96,25.4v-7.6l1.6,1.1v7.6L96,25.4z M92,22.3h1.6l2.2,2.9l-2-1.8v9.8L92,33V22.3z M91.8,12.1
				l4.4,0.7l1.1,1.8l-3.8-0.7v6.7l-1.8-0.4C91.8,20.1,91.8,12.1,91.8,12.1z"/>
			<path class="st0" d="M99.1,36.5l0.2-7.5l1.8,1.6v7.8c-4.9-1.3-9.9-2.3-14.9-3.1L83.5,34C83.5,33.9,94.2,34.6,99.1,36.5L99.1,36.5
				z M115.3,44.1c1.3,0.7,6.7,4,6.7,4l-0.9-2.2c-1.3-8.4-3.3-26.9-3.3-26.9l-2.2-2.2l3.1,26.2l2.4,2.9c0,0-4.7-2.7-5.8-3.1
				c-0.7-0.2-5.1-2.2-5.1-2.2l1.8,2.2L115.3,44.1z M136,36.8v5.5l-2.9,7.3l-1.8-1.3l4.4-11.5H136z M127.1,32.8l1.3,5.1v12.2l1.1,3.1
				l-6.7-4.7c-0.2-0.8-0.4-1.5-0.7-2.2l6,3.8l-1.3-2.7V33L127.1,32.8z M133.6,32.1l-0.9,2l-3.3-11.8l2.2,1.8L133.6,32.1z
				 M143.1,61.2V32.8l2.4,0.2c-0.3-0.3-0.5-0.6-0.7-0.9l-0.9-0.7H141v26l2,3.6c0,0-3.6-3.8-3.3-3.6c0,0-3.6-2.4-3.3-2.2l-2.7-1.6
				l1.8,2.9c0.6,0.6,1.3,1.1,2,1.6c0,0,3.3,2.7,3.1,2.4l3.3,2.9L143.1,61.2z"/>
			<path class="st1" d="M141.3,31.4h2.9c-0.2-0.1-0.5-0.3-0.7-0.5l-6.4-4.2c-0.3-0.2-0.6-0.5-0.9-0.7l-3.6,8l-3.3-11.8l-5.8-2.7
				l-0.9-0.2l1.8,2.4v24l-2.2,0.5c1,0.6,2,1.3,2.9,2l3.3,2l-1.6-2.9V32.5l4.4,15.8l4.4-11.6v16.7l-2,0.2c1.4,0.9,2.7,1.8,4,2.9
				l3.3,2.7l2.2,2l-2-3.8L141.3,31.4L141.3,31.4z M115.6,16.8l-1.8-0.7c-2.9-1.1-7.3-2.4-7.3-2.4l2,1.8c-2.2,6.7-6,21.1-6,21.1
				l-1.6,0.4l5.6,2.5c0.2,0,0.5,0.1,0.7,0.2l-1.6-2.2l0.7-3.1l5.6,2l0.4,3.8l-2,0.5c0.1,0.1,0.3,0.2,0.4,0.2
				c2.4,0.9,4.8,2.1,7.1,3.3c1.3,0.7,3.1,1.8,3.1,1.8l-1.6-2.7C118,34.8,115.5,16.8,115.6,16.8z M107.1,31.7c0,0,1.8-7.1,2.7-10.4
				l1.6,12C111.3,33.2,107.1,31.7,107.1,31.7z M92.2,32.8V22.3h1.3l2.4,3.1v-7.6l-2.2,2.4L92,20.1v-7.8l4.2,0.7l2.9,4.9l0.2-6.4
				c0,0-9.8-1.8-15.1-2.2l2,1.8v22L83.3,34h1.1l12.9,2.4l2,0.4V29c-1,1.6-2,3.2-3.1,4.7C94.9,33.4,93.5,33.2,92.2,32.8L92.2,32.8z
				 M77.1,14.1c1.2-0.5,2.4-1.3,3.3-2.2c1.7-2.3,2.1-5.3,1.1-8c-1.3-2.2-2.4-3.1-5.6-3.8c-4.7-0.2-14.7,0-14.7,0l2.9,1.3v31.1
				l-2.7,2c0,0,8.2-0.4,12.2-0.7c2,0,3.1-0.7,4.9-1.3c4-2.9,4.4-8,3.8-12.7C81.3,15.9,79.3,15.4,77.1,14.1z M70.2,2.5
				c0.4,0.1,0.8,0.1,1.1,0c1.6,0.2,3.1,0,3.8,1.6c0.7,2,0.9,5.3-0.7,7.3c-1.1,1.3-4.2,1.1-4.2,1.1S70.2,2.5,70.2,2.5z M74.9,29
				c-0.5,1.1-1.5,1.8-2.7,2l-2,0.5V15.7c0,0,4-0.2,4.9,1.5C76.7,20.1,76.4,26.5,74.9,29z M53.3,11.9l2.5-1.8c-2.5,0.4-7.6,2-7.6,2
				L44,25.4l-4.7-11.1l-6.7,2.2l2.2,0.7v23.3c0,0-2.2,2.5-1.8,2.5l6.4-2.7l-2-0.9V23.7l6,12.7L48,22.6v13.3l-1.5,2l4.9-1.6
				c0.7-0.2,4.7-1.1,4.7-1.1l-2.7-0.9V11.9H53.3z M29.1,19.2l1.6-2c0,0-4.7,2-5.1,2c-0.2,0-4.4,2.2-4.4,2.2l2,0.2v24.9
				c-0.7,0.9-1.4,1.9-2,2.9c2.9-1.3,5.6-3.3,8.4-4.7c0.5-0.2,2-0.9,2-0.9L29.1,43V19.2z M19.3,10.8L8.4,16.5h2.7v27.1
				c-0.2,2.9,0.2,6-0.7,8.7C10,53.5,9.1,54.5,8,55.2c-0.2,0.2-1.1,0.4-1.1-0.2V44.1c0,0-4.9,3.8-6.7,5.3L0,56.1
				c-0.1,1.3,0.3,2.6,1.1,3.6c1.6,1.1,3.1,1.1,5.1,0.2c4.2-2.2,7.7-5.5,10.2-9.6c1.1-2.1,1.6-4.3,1.6-6.7V13.4L19.3,10.8z"/>
			<path class="st2" d="M151.3,57.4c0.1,3.5-5.4,3.5-5.4,0S151.3,53.9,151.3,57.4"/>
			<path class="st2" d="M150.6,57.4c0.1-2.7-4.2-2.7-4.1,0S150.7,60.1,150.6,57.4"/>
			<path class="st2" d="M149.2,57.6l0.6,1.2h-0.7l-0.5-1.1h-0.3v1.1h-0.6v-2.9h1.2c0.5,0,0.9,0.3,0.9,0.8
				C149.7,57.1,149.5,57.4,149.2,57.6"/>
			<path class="st2" d="M149.1,56.8c0-0.4-0.6-0.4-0.8-0.4v0.8C148.5,57.2,149.1,57.2,149.1,56.8"/>
			<text transform="matrix(1 0 0 1 49.26 57.7)" class="st2 st3 st4 st5">SINCE</text>
			<text transform="matrix(1 0 0 1 55.75 69.06)" class="st2 st3 st4 st5">1795</text>
		</g>
	</g>
</g>
</svg>
