<?xml version="1.0" encoding="utf-8"?>
<!-- Generator: Adobe Illustrator 24.3.0, SVG Export Plug-In . SVG Version: 6.00 Build 0)  -->
<svg version="1.1" id="Layer_1" xmlns="http://www.w3.org/2000/svg" xmlns:xlink="http://www.w3.org/1999/xlink" x="0px" y="0px"
	 viewBox="0 0 96.9 72" style="enable-background:new 0 0 96.9 72;" xml:space="preserve">
<style type="text/css">
	.st0{fill:#FFFFFF;}
	.st1{font-family:'TimesNewRomanPS-BoldMT';}
	.st2{font-size:9.32px;}
</style>
<g id="Layer_2_1_">
	<g id="svg4403">
		<path class="st0" d="M28.7,16.2l0.2-0.1l0.9-0.4c0.5-0.2,0.8-0.8,0.7-1.4c-0.1-0.5-0.3-1-0.5-1.6c-0.2-0.6-0.3-1.2-0.2-1.8
			c0-0.3,0.1-0.5,0.2-0.8c0,0,0-0.1,0.1-0.1c0.2-0.4,0-0.8-0.3-1c-0.2-0.1-0.3-0.2-0.5-0.4c-0.1-0.1-0.2-0.2-0.3-0.3
			c-0.3-0.4-0.2-0.8,0.1-1.1c0.2-0.1,0.3-0.2,0.5-0.3c1-0.4,1.6-1.3,1.8-2.4c0.1-0.6,0.1-1.2,0.2-1.8c0-0.1,0-0.2,0.1-0.4
			c0-0.3,0.3-0.5,0.6-0.4c0.2,0,0.5,0,0.7,0l0.4-0.1c0.2-0.1,0.4-0.1,0.6-0.1c0.4-0.1,0.9,0.2,1,0.6C35,2.7,35,3,35,3.2
			c0,0.3,0,0.5,0,0.8c0,0.1,0,0.1,0,0.2h0.2c0.1-0.4,0.2-0.8,0.1-1.2c0-1.1,0.8-2.1,1.9-2.4c0.9-0.3,1.8-0.2,2.6,0.2
			c0.3,0.1,0.5,0.3,0.7,0.6c0.3,0.4,0.4,0.8,0.2,1.3c-0.1,0.6-0.3,1.1-0.5,1.7c-0.1,0.2-0.1,0.4-0.2,0.6c-0.1,0.3,0,0.5,0.3,0.7
			C40.7,5.8,41,6,41.2,6.1c0.5,0.2,1,0.6,1.3,1.1c0.8,1.2,2.2,1.9,3.6,1.8c0.3,0,0.6-0.1,0.9-0.1c0.1,0.4,0.2,0.8,0.2,1.2
			c0,0.3,0,0.6,0,0.8c0,0.3-0.2,0.6-0.4,0.9c-0.4,0.6-0.7,1.2-0.9,1.9l-0.5,1.4c0,0.1,0,0.1,0,0.2c0.2,0.2,0.4,0.4,0.4,0.7
			c0,0.4-0.2,0.7-0.5,0.8c-0.1,0-0.2,0-0.3,0c-0.3-0.1-0.5-0.2-0.8-0.3c-0.1,0-0.1,0-0.1,0c-0.7,1-1.7,1.7-2.9,2
			c-0.2,0-0.4,0.2-0.5,0.4c-0.3,0.5-0.5,0.9-0.8,1.4c0,0.1,0,0.1,0,0.2c0.2,0.4,0.4,0.8,0.5,1.2c0.3,1.1-0.1,2.2-1,2.9
			c-1.3,1.2-3.3,1.4-4.8,0.4c-0.4-0.2-0.7-0.6-0.9-0.9c-0.4-0.6-0.5-1.3-0.2-1.9l0.2-0.4c0-0.2,0.2-0.3,0.3-0.3
			c0.3-0.1,0.5-0.2,0.8-0.3c0,0,0.1,0,0.1,0c0.2,0.2,0.2,0.2,0.1,0.4l-0.4,0.7l0.9,0.6c0.5,0.4,1,0.7,1.5,1.1c0.3,0.2,0.7,0.3,1,0.1
			c0.4-0.2,0.7-0.5,0.9-0.9l-0.6-0.1c-0.3-0.1-0.6-0.1-0.9-0.2c-0.1,0-0.2-0.1-0.3-0.2c-0.2-0.1-0.3-0.4-0.1-0.6c0,0,0-0.1,0.1-0.1
			C37,22,37,22,37,21.9c0.3-0.3,0.6-0.6,0.8-1l0.3-0.4l-1-0.4c-1.2-0.4-2.4-1-3.5-1.6c-0.9-0.5-1.7-1.1-2.5-1.7
			c-0.4-0.4-1-0.5-1.5-0.3c-0.2,0-0.3,0-0.5,0c-0.2,0-0.4,0-0.5,0c0,0-0.1,0-0.1-0.1C28.7,16.3,28.7,16.3,28.7,16.2L28.7,16.2z
			 M36.2,11.9c0.3,0.7,0.6,1.5,0.9,2.2c0.2,0.5,0.5,1.1,0.9,1.5c0.3,0.4,0.7,0.7,1.2,0.7c0.6,0,1.1,0,1.7-0.3
			c0.8-0.3,0.8-1.1,0.3-1.8l-0.4,0.3c-0.1,0.1-0.2,0.1-0.3,0.2c-0.2,0.1-0.4,0.1-0.5,0c-0.4-0.3-0.5-0.8-0.2-1.2
			c0-0.1,0.1-0.1,0.2-0.2c0.7-0.5,1.7-0.4,2.2,0.2c0.6,0.7,0.8,1.8,0.3,2.6c-0.2,0.3-0.3,0.6-0.5,0.9l0.3,0.2l3.9-5.1L45.8,12
			c-0.9-0.8-1.7-1.6-2.6-2.4C43,9.4,42.7,9.2,42.5,9c-0.2-0.2-0.4-0.2-0.6-0.1C41.6,9,41.4,9,41.3,9.2c-0.3,0.2-0.6,0.5-1,0.8
			c-0.8,0.7-1.8,1.2-2.8,1.6C37.1,11.7,36.6,11.8,36.2,11.9z M37,5.4L37,5.4l-0.3-0.6c-0.1-0.2-0.4-0.3-0.7-0.3l-0.3,0.1
			c-0.3,0.1-0.6,0.1-0.8,0.1c-0.2,0-0.3,0.1-0.4,0.2c-0.4,0.4-0.8,0.9-1.2,1.2c-0.3,0.3-0.6,0.6-0.9,0.9c-0.6,0.7-1,1.5-1.4,2.3l0,0
			h3.6l0.1-1.6l0.1,0.1c0.1,0.3,0.2,0.6,0.4,0.9c0.3,0.6,0.5,1.2,0.8,1.8c0.2,0.5,0.8,0.8,1.3,0.6c0.1,0,0.1,0,0.2-0.1
			c0.7-0.3,1.4-0.6,2-1.1c0.7-0.5,1.4-1,2.2-1.4c0.2-0.1,0.3-0.2,0.5-0.3c0.2-0.1,0.3-0.4,0.2-0.7c0-0.1-0.1-0.1-0.1-0.1
			c-0.2-0.3-0.5-0.5-0.8-0.8l-0.1,0.1l-0.9,1.5c-0.1,0.2-0.2,0.3-0.4,0.4l-2.3,0.8c0,0-0.1,0-0.1,0l-0.7-0.9c-0.2-0.3-0.3-0.6-0.3-1
			c0.1-0.8-0.3-1.5-1-1.8l-0.2-0.1L37,5.4z M39.8,14l0.2,0.2c0.1,0,0.1,0,0.2-0.1l0.6-0.3c0.2-0.1,0.5-0.1,0.7,0.2c0,0,0,0,0,0
			c0.6,0.7,0.5,1.8-0.2,2.4c-0.1,0.1-0.2,0.1-0.3,0.2c-0.7,0.4-1.6,0.4-2.4,0.1c-0.6-0.2-1-0.6-1.3-1.1c-0.1-0.2-0.2-0.4-0.3-0.5
			c-0.5-1-0.9-2.1-1.3-3.2c-0.2-0.4-0.3-0.7-0.5-1c-0.1-0.2-0.2-0.3-0.4-0.3c-0.5-0.1-0.9-0.2-1.3-0.3c-0.9-0.1-1.8,0.1-2.5,0.7
			c-0.2,0.2-0.4,0.4-0.5,0.7c-0.1,0.1-0.1,0.3,0,0.4c0.1,0.2,0.2,0.4,0.4,0.6c0.1,0.2,0.3,0.4,0.6,0.4c1.6,0.3,3,1.1,4.1,2.3
			c0.7,0.8,1.7,1.3,2.7,1.6c0.7,0.2,1.4,0.3,2.1,0.2c1.1-0.1,1.8-1.1,1.7-2.2c0-0.4-0.1-0.7-0.4-1c-0.2-0.2-0.5-0.3-0.7-0.5
			c-0.1-0.1-0.3-0.1-0.4,0L39.8,14z M36.9,3.9L37,3.7C37.1,3.3,37.5,3,37.9,3c0.2,0,0.3,0,0.5,0c0.2,0,0.5,0,0.7,0
			c0.5,0.1,0.9-0.2,1-0.7c0-0.1,0-0.1,0-0.2c0-0.1,0.1-0.3,0.2-0.3l0,0C39.7,1.3,39,1,38.2,1c-1.1,0-2.1,0.7-2.4,1.8
			c-0.1,0.3,0.1,0.6,0.3,0.8C36.4,3.8,36.7,3.9,36.9,3.9z M39.5,22c0.1,0.5,0,1-0.3,1.4c-0.3,0.6-0.8,1.1-1.5,1.3
			c-0.3,0.1-0.6,0-0.9-0.1c-0.3-0.2-0.7-0.4-1-0.6c-0.3-0.2-0.6-0.4-0.8-0.7c0-0.1-0.1-0.1-0.2-0.1c-0.4,0-0.8-0.2-0.9-0.6
			c0-0.1-0.1-0.2-0.1-0.4l0,0c0,0.3,0,0.5,0,0.8c0.1,0.5,0.4,1,0.8,1.4c1.4,1.1,3.4,1,4.7-0.2c0.6-0.6,0.9-1.4,0.8-2.2
			c-0.1-0.8-0.5-1.6-1.3-2c-0.3-0.2-0.6-0.2-0.9-0.1l1.1,0.5l-0.9,1.1c0.1,0.1,0.1,0.1,0.2,0s0.3-0.2,0.5-0.3l0.1,0.1l-0.6,1.1l0,0
			L39.5,22z M37.6,8.8L39,8.4c0.6-0.2,1.1-0.7,1.2-1.3c0-0.1,0-0.2,0-0.3c-0.1-0.3-0.4-0.5-0.7-0.6c-0.6-0.2-1.2-0.3-1.8-0.4
			c-0.2,0-0.4,0-0.5,0.2C37.1,6.2,37,6.3,37,6.4c0,0,0,0.1,0,0.2C37.2,7.3,37.4,8.1,37.6,8.8z M40.1,19.2l-6-3.9
			c0,0.3-0.1,0.6-0.1,0.8c0,0,0,0.1,0.1,0.1l0.7,0.2c0.3,0.1,0.6,0.2,0.8,0.5c0.5,0.4,0.9,0.9,1.4,1.3c0.5,0.5,1.2,0.7,1.8,0.8
			c0.3,0,0.5,0,0.8,0c0.2,0,0.2,0,0.2,0.2l-0.1,0.3c0,0.2,0,0.2,0.2,0.2L40.1,19.2z M40,3.3l-0.2,0.1L37.6,4c0,0-0.1,0-0.1,0.1
			c-0.1,0.4,0,0.8,0.2,1.2c0.4,0.5,1.1,0.5,1.5,0.1c0.1-0.1,0.2-0.3,0.3-0.4V4.8L40,3.3z M42.7,8.6l2.8,2.7l0.4-1.6l-0.2-0.1
			l-2.8-1.1C42.8,8.4,42.7,8.4,42.7,8.6z M40.3,18L40.3,18c0.3,0,0.5,0,0.8,0c0.6,0,1.2-0.2,1.6-0.6c0.2-0.2,0.5-0.5,0.7-0.8
			l2.6-3.7c0,0,0-0.1,0-0.1L46,12.9l-0.7,0.6c-0.5,0.4-0.9,1-1.2,1.6c-0.4,1.1-1.3,2-2.3,2.5C41.3,17.8,40.8,17.9,40.3,18z M34.9,17
			L34.9,17l-2.8-0.4c-0.3,0-0.3,0-0.4,0.2l0,0l2.3,1.6l0.3-0.4l-1.4-0.8l0.1-0.2l1.8,0.2C34.9,17.1,34.9,17.1,34.9,17
			C34.9,17.1,34.9,17,34.9,17z M32.8,5.6c0.4-0.2,0.6-0.5,0.7-0.9c0-0.5-0.2-1.1-0.5-1.5l-1.1,0.9c0,0.1,0.1,0.2,0.3,0.2h0.2h0.5
			L32.8,5.6z M33.9,14.5L33.9,14.5l-2.2-0.8c0.2,0.4,0.4,0.8,0.7,1.2c0.1,0.2,0.5,0.3,0.7,0.2c0,0,0,0,0,0
			C33.4,14.9,33.6,14.7,33.9,14.5z M46.6,11.4c0.1-0.1,0.2-0.2,0.3-0.3c0.1-0.1,0.2-0.3,0.2-0.4c0-0.3-0.1-0.6-0.1-0.8
			s0-0.3-0.4-0.3c-0.1,0.3-0.2,0.7-0.3,1c-0.1,0.1-0.1,0.3,0,0.4L46.6,11.4z M30.4,8.9L30.4,8.9l-0.5-0.9l0.7-0.4l-0.2-0.4l-1.1,0.7
			c0,0,0,0.1,0,0.1c0,0.1,0,0.1,0,0.2c0,0,0,0.1,0.1,0.1C29.7,8.4,30,8.6,30.4,8.9z M36.7,18.7l-2-0.2l0,0l0.6,0.4
			c0.2,0.1,0.3,0.2,0.5,0.3C36.3,19.3,36.6,19.2,36.7,18.7L36.7,18.7z M33.1,16l-1.8-1.1C31.4,15.7,32.6,16.3,33.1,16z"/>
		<path class="st0" d="M68.2,16.3c0,0.2-0.1,0.2-0.3,0.2c-0.3,0.1-0.6,0.1-0.9,0c-0.5-0.1-0.9,0-1.3,0.2c-0.3,0.2-0.6,0.5-0.9,0.7
			c-1.1,0.9-2.2,1.6-3.5,2c-0.8,0.3-1.6,0.6-2.4,0.9l-0.2,0.1l1.4,1.9c-0.3,0.2-0.5,0.4-0.9,0.6c-0.4,0.1-0.7,0.1-1.1,0.1
			c0.2,0.4,0.4,0.7,0.8,0.9c0.2,0.1,0.4,0.1,0.6,0c0.3-0.1,0.5-0.2,0.7-0.4c0.4-0.3,0.8-0.5,1.2-0.7l1.1-0.5l-0.5-0.9
			c0.4-0.3,1.1-0.3,1.4,0.2c0,0,0,0.1,0.1,0.1c0.3,0.4,0.3,0.9,0.2,1.4c-0.2,1-1,1.9-2,2.2c-1.3,0.5-2.8,0.3-4-0.6
			c-1-0.7-1.5-2-1.1-3.2c0.1-0.4,0.2-0.7,0.4-1.1c0-0.1,0-0.2,0-0.2c-0.2-0.4-0.5-0.8-0.7-1.2c-0.1-0.2-0.3-0.3-0.5-0.4
			c-0.3-0.1-0.7-0.3-1-0.4c-0.8-0.3-1.5-0.8-2-1.4l-0.4-0.4l-0.2,0.3c-0.1,0.1-0.2,0.2-0.3,0.3c-0.1,0.1-0.2,0.1-0.3,0
			c-0.2-0.1-0.3-0.2-0.5-0.3C51,16.5,51,16.4,51,16.3c0-0.4,0.1-0.8,0.2-1.2c0.1-0.2,0-0.4-0.1-0.6c-0.5-0.9-0.9-1.9-1.4-2.8
			c-0.3-0.6-0.4-1.4-0.2-2.1c0-0.3,0.1-0.6,0.1-0.9l0.7,0.1c1.5,0.2,3-0.5,3.9-1.7c0.3-0.4,0.8-0.8,1.3-1C55.7,6.1,56,6,56.2,5.9
			c0.5-0.2,0.7-0.7,0.5-1.2c0,0,0,0,0-0.1c-0.1-0.3-0.2-0.6-0.3-0.9c-0.2-0.5-0.3-1.1-0.3-1.6c0-0.3,0.1-0.6,0.3-0.8
			c0.4-0.5,1-0.8,1.6-0.9c0.7-0.2,1.4-0.1,2.1,0.3c0.8,0.5,1.3,1.3,1.3,2.3c0,0.2,0,0.3,0,0.5s0.1,0.3,0.1,0.5h0.3V3.6
			c0-0.3,0.1-0.7,0.1-1c0,0,0-0.1,0-0.1c0.1-0.5,0.5-0.8,1-0.7c0,0,0,0,0.1,0c0.2,0,0.4,0.1,0.5,0.1s0.4,0,0.6,0.1
			c0.2,0.1,0.4,0,0.6,0.1c0.2,0,0.4,0.2,0.4,0.4c0.1,0.4,0.1,0.7,0.1,1.1c0.1,0.5,0.1,1,0.2,1.5c0.2,0.8,0.8,1.5,1.6,1.9
			c0.2,0.1,0.4,0.2,0.6,0.3c0.4,0.3,0.5,0.8,0.2,1.2c0,0,0,0,0,0c-0.2,0.2-0.3,0.4-0.5,0.5c-0.1,0.1-0.2,0.1-0.3,0.2
			c-0.3,0.2-0.4,0.5-0.2,0.9c0.1,0.3,0.2,0.6,0.2,0.9c0.1,0.7,0,1.4-0.3,2c-0.2,0.5-0.4,1.1-0.4,1.6c-0.1,0.5,0.2,0.9,0.7,1.1
			c0.4,0.2,0.8,0.3,1.1,0.5L68.2,16.3z M61.2,5.6L61.2,5.6c0,0.1-0.1,0.1-0.1,0.2c-0.2,0.2-0.4,0.5-0.5,0.7
			c-0.1,0.1-0.1,0.2-0.1,0.3c0.1,0.3,0,0.7-0.1,1c-0.1,0.3-0.3,0.5-0.4,0.7s-0.3,0.6-0.4,0.8c0,0.1-0.1,0.2-0.1,0.4l-0.3-0.2
			c-0.3-0.2-0.5-0.3-0.8-0.4c-0.3-0.1-0.6-0.2-0.9-0.3c-0.7-0.3-1.2-0.9-1.5-1.6c-0.1-0.2-0.2-0.4-0.4-0.5c-0.2,0.2-0.5,0.4-0.7,0.7
			S54.6,8,54.9,8.2H55l3.4,2.2c0.4,0.3,0.8,0.5,1.3,0.6c0.5,0.2,1,0.1,1.4-0.4c0.1-0.1,0.2-0.3,0.3-0.4c0.3-0.5,0.5-1.1,0.7-1.7
			L62.2,8h0.2v1.4h3.7l0,0c0,0-0.1-0.3-0.2-0.4c-0.4-0.8-0.9-1.6-1.5-2.2c-0.3-0.3-0.6-0.5-0.9-0.8s-0.7-0.8-1.1-1.2
			c-0.1,0-0.1,0-0.2,0c-0.3,0.1-0.6,0.1-0.9,0c-0.2-0.1-0.4-0.1-0.6-0.1c-0.1,0-0.3,0-0.4,0.1l-0.5,0.7c0.3,0.1,0.5,0.2,0.7,0.2
			C60.8,5.6,61,5.6,61.2,5.6L61.2,5.6z M60.7,12l-0.9-0.3c-1-0.3-1.9-0.8-2.7-1.4c-0.5-0.4-1.1-0.8-1.7-1.2
			c-0.4-0.3-0.9-0.2-1.2,0.1L54,9.3l-2.4,2.2c-0.2,0.2-0.5,0.4-0.7,0.7c0.2,0.2,0.4,0.4,0.6,0.7c0.6,0.6,1.2,1.4,1.6,2.1
			c0.2,0.3,0.3,0.6,0.5,0.8c0.3,0.5,0.7,0.9,1.2,1.2l0.3,0.1c0-0.1-0.1-0.1-0.1-0.2c-0.8-0.8-0.9-2-0.4-3c0.3-0.6,0.9-1,1.6-0.9
			c0.3,0,0.6,0.1,0.8,0.4c0.1,0.4,0.2,0.7,0.3,1.1h-0.5c-0.4,0.1-0.7,0-1-0.2l0,0c-0.2,0.4-0.3,0.8-0.2,1.2c0,0.3,0.2,0.6,0.5,0.7
			c0.3,0.1,0.5,0.2,0.8,0.2c0.9,0.1,1.8-0.3,2.3-1.1c0.3-0.6,0.6-1.2,0.9-1.9C60.2,12.9,60.5,12.5,60.7,12z M57,14
			c-0.2-0.2-0.3-0.3-0.5-0.4c-0.1-0.1-0.2-0.1-0.3-0.1c-0.5,0-1.1,0.3-1.3,0.8c-0.3,0.6-0.2,1.4,0.2,2c0.2,0.3,0.5,0.6,0.8,0.7
			c0.9,0.3,1.9,0.4,2.8,0.1c0.7-0.2,1.3-0.5,1.8-1c0.7-0.6,1.5-1.2,2.2-1.7c0.8-0.6,1.7-1,2.7-1.3c0.2,0,0.4-0.1,0.5-0.1
			c0.4-0.2,0.6-0.5,0.6-0.9c0-0.2,0-0.4-0.2-0.6c-0.5-0.6-1.2-1.1-2-1.2c-0.5-0.1-1-0.1-1.5,0c-0.9,0-1.6,0.7-1.8,1.6
			c-0.3,1.2-0.8,2.4-1.4,3.4c-0.2,0.3-0.3,0.6-0.5,0.8c-0.8,0.8-2.1,1-3.2,0.5c-0.7-0.3-1.1-1-1-1.7c0-0.4,0.2-0.8,0.5-1
			c0.2-0.2,0.5-0.2,0.7,0c0,0,0,0,0,0c0.1,0.1,0.3,0.3,0.4,0.4l0.1,0.1L57,14z M60,4.1l0.7-0.6C60.9,3.4,61,3.1,61,2.9
			c0-0.5-0.3-0.9-0.6-1.2c-0.5-0.5-1.2-0.8-1.9-0.7C58,1.1,57.5,1.3,57,1.6c-0.2,0.1-0.3,0.3-0.2,0.6c0.1,0.5,0.4,0.9,0.9,0.9
			c0.3,0.1,0.7,0.1,1,0c0.4-0.1,0.8,0.1,1,0.5C59.8,3.8,59.9,3.9,60,4.1C59.9,4.1,60,4.1,60,4.1L60,4.1z M59.1,19.8L59.1,19.8
			L59.1,19.8c-0.8,0-1.4,0.4-1.8,1c-0.7,1.1-0.5,2.6,0.5,3.5c0.7,0.6,1.6,0.9,2.6,0.8c0.6,0,1.1-0.2,1.6-0.4c0.6-0.3,1-0.9,1.1-1.5
			c0-0.2,0-0.4,0-0.6L63,22.5l-1.1,1c-0.3,0.3-0.6,0.5-1,0.6l0,0c-0.3,0.1-0.6,0.3-0.9,0.6c-0.1,0.1-0.2,0.1-0.3,0l-0.5-0.2
			c-0.5-0.2-1-0.5-1.4-0.8c-0.5-0.4-0.6-1.1-0.3-1.7l1.1,0.5l0,0l-0.6-1.1c0.2-0.1,0.2-0.1,0.3,0l0.5,0.4l0.1-0.1l-1.1-1.2l0.6-0.3
			L59.1,19.8z M57.9,6.2c-0.3,0-0.6,0-0.8,0.1c-0.4,0.2-0.6,0.7-0.4,1.1c0,0.1,0.1,0.1,0.1,0.2c0.1,0.1,0.2,0.2,0.3,0.2
			c0.5,0.4,1,0.7,1.6,0.8c0.2,0.1,0.4,0,0.5-0.2c0.2-0.2,0.3-0.5,0.4-0.7C59.9,7.4,60,7,60,6.5c0-0.3-0.2-0.6-0.5-0.6
			c-0.1,0-0.2,0-0.3,0.1h0C58.7,6.1,58.3,6.2,57.9,6.2z M62.8,15.3l-5.5,3.6c0.4,0.1,0.8,0.1,1.2,0c0.8-0.1,1.5-0.5,2-1.1
			c0.4-0.5,1-0.9,1.5-1.2c0.3-0.1,0.5-0.3,0.8-0.5c0.4-0.3,0.1-0.1,0.1-0.1C62.8,15.7,62.8,15.5,62.8,15.3z M56.9,3.4
			c0.2,0.5,0.3,1,0.4,1.4c0.1,0.1,0.1,0.3,0.2,0.4c0.2,0.3,0.5,0.4,0.8,0.4c0.2,0,0.4-0.1,0.6-0.2c0.6-0.3,0.5-0.9,0.2-1.4
			c0,0-0.1,0-0.1-0.1C58.4,3.6,57.6,3.4,56.9,3.4z M51.8,11.3l2.4-2.9l0,0L51,9.6c0.1,0.4,0.2,0.9,0.3,1.3c0,0,0,0.1,0,0.1
			L51.8,11.3z M62,17.2l1.8-0.2c0.1,0.1,0,0.2-0.1,0.3l-0.5,0.3l-0.7,0.4l0.3,0.4l2.4-1.6c-0.1-0.2-0.1-0.2-0.3-0.2l-1.5,0.2
			L61.9,17L62,17.2z M51,13L51,13c0,0,0,0.1,0,0.1c0.2,0.4,0.4,0.8,0.6,1.2c0.5,1,1.2,1.9,2,2.6c0.5,0.5,1.2,0.8,1.8,1
			c0.3,0.1,0.7,0.1,1,0l0,0h-0.1c-1.4-0.2-2.6-0.9-3.3-2.1c-0.5-0.7-0.9-1.4-1.4-2L51,13z M63.8,3.2c-0.2,0.4-0.3,0.9-0.4,1.3
			c-0.1,0.5,0.2,1,0.7,1.1l-0.1-1.5c0.3,0,0.6,0.1,0.8,0.1H65c0,0,0.1-0.2,0-0.2L63.8,3.2z M65.3,13.7l-2.2,0.8
			c0.3,0.2,0.6,0.4,0.9,0.5c0.3,0.1,0.6,0,0.8-0.2C65,14.5,65.2,14.1,65.3,13.7L65.3,13.7z M50.3,11.4c0.1-0.1,0.2-0.3,0.3-0.4
			c0-0.1,0-0.2,0-0.3c-0.1-0.4-0.2-0.7-0.3-1.1c0-0.1-0.1,0-0.2,0s-0.1,0-0.1,0.1c-0.1,0.4-0.1,0.8-0.2,1.1c0,0.1,0,0.2,0.1,0.2
			C50,11.2,50.1,11.3,50.3,11.4L50.3,11.4z M67.9,8l-1.5-0.8l-0.1,0.4l0.5,0.2C67,7.9,67,7.9,66.9,8.1c-0.1,0.2-0.2,0.3-0.3,0.5
			s-0.1,0.1,0,0.3L67.9,8z M60,18.7L60,18.7l0.3,0.3c0.2,0.2,0.5,0.3,0.8,0.1c0.3-0.2,0.5-0.4,0.8-0.5l0.1-0.1l0,0L60,18.7z
			 M63.6,16c0.7,0.4,1.8-0.3,2-1.2C65,15.4,64.4,15.8,63.6,16z M57.3,19.5l-0.2-0.6l-0.4,0.2l0.4,0.5L57.3,19.5z"/>
		<path class="st0" d="M55,33.9l-0.7,0c-1.3-0.1-2.6-0.5-3.7-1.3l-0.1-0.1c3,1.1,6.3,1.1,9.3,0.1l-0.1,0.1c-0.9,0.6-1.9,1-3,1.2
			c-0.5,0.1-0.9,0.1-1.4,0.1h-0.1L55,33.9z"/>
		<path class="st0" d="M46.9,20.6c0.2,1,0,2.1-0.5,3c-0.4,0.6-1,1-1.7,1.2c-0.4,0.1-0.9,0.1-1.3,0c-0.7-0.2-1.2-0.9-1-1.6
			c0,0,0-0.1,0-0.1c0.2-0.8,0.6-1.5,1.3-2c0.8-0.7,1.8-1.2,2.8-1.5c1.2-0.5,2.6-0.6,3.9-0.5l0.7,0.1c0.4,0.1,0.7,0.1,1.1,0
			c0.1,0,0.3,0,0.3,0.1c0.2,0.3,0.4,0.5,0.6,0.8c0.1,0.2,0.3,0.4,0.4,0.6c0.2,0.4,0.2,0.9-0.1,1.2c-0.3,0.4-0.8,0.8-1.2,1.2l-1.3,1
			l-0.1,0.1c0.1,0.2,0.2,0.4,0.3,0.6c0.1,0.4,0.1,0.9,0,1.4c-0.1,0.5-0.2,1-0.3,1.5c0,0.1,0,0.2,0.1,0.2c0,0,0,0,0,0l0.1,0.1
			l3.4-3.6l0.2,0.1c-0.3,0.3-0.5,0.6-0.8,0.9c-0.7,0.9-1.5,1.7-2.2,2.5c-0.3,0.3-0.7,0.6-1.1,0.6c-0.7,0.1-1.3-0.3-1.4-1
			c0-0.1,0-0.3,0-0.4c0.1-0.5,0.3-1.1,0.6-1.6c0.2-0.4,0.4-0.8,0.5-1.2l-1.1-1c-0.3,0.6-0.5,1.1-0.8,1.7s-0.5,1-0.8,1.5
			c-0.4,0.8-1.1,1.4-2,1.7c-0.9,0.4-1.8,0.5-2.8,0.4c-0.6-0.1-1.1-0.4-1.4-0.8c-0.4-0.6-0.3-1.4,0.1-1.9c0.3-0.4,1-0.5,1.4-0.1
			c0.1,0.1,0.2,0.2,0.2,0.3c0.1,0.1,0.1,0.3,0,0.4c-0.1,0.4-0.4,0.6-0.8,0.7l-0.6,0.1c0.1,0.4,0.4,0.7,0.7,0.9
			c0.7,0.3,1.5,0.2,2-0.3c0.6-0.6,1.1-1.3,1.5-2c0.4-0.7,0.7-1.5,1.1-2.2c0.5-1.1,1.2-2.1,2.1-3c0.5-0.5,1-0.8,1.5-1.2
			c0.1,0,0.1-0.2,0.1-0.3c0,0,0,0,0,0c0,0,0-0.1-0.1-0.1c-1.7-0.2-3.5,0.1-5.1,0.8c-1.1,0.5-2,1.4-2.5,2.4c-0.1,0.2-0.2,0.5-0.3,0.8
			c-0.1,0.5,0.3,1,0.9,1.1c0.1,0,0.3,0,0.4,0c0.5-0.1,1-0.4,1.3-0.9c0.4-0.5,0.7-1.1,1-1.7c0.2-0.4,0.3-0.7,0.5-1.1L46.9,20.6z
			 M49.1,23.4l0.5,0.1c0.8,0.2,1.7-0.2,2.1-1c0.3-0.5,0.5-1,0.5-1.6c0.1-0.2,0.1-0.5,0-0.7c-0.1-0.3-0.5-0.5-0.8-0.4
			c-0.5,0.1-0.9,0.5-1.1,0.9C49.8,21.6,49.4,22.5,49.1,23.4z"/>
		<path class="st0" d="M49.3,8.6c-0.1-0.3-0.3-0.7-0.4-1c-0.1-0.2,0-0.4,0.2-0.5c0,0,0,0,0,0c0.2-0.1,0.4-0.2,0.5-0.2
			c0.5-0.1,1-0.5,1.2-1C51,5.7,51,5.5,51.1,5.3c0-0.1,0-0.3-0.1-0.4c-0.1-0.2-0.2-0.3-0.2-0.5c-0.1-0.2,0-0.4,0.2-0.5c0,0,0,0,0,0
			c0.2-0.1,0.4-0.1,0.5-0.1c0-0.4-0.1-0.7-0.2-1.1c-0.1-0.3-0.4-0.5-0.8-0.5h-0.7c0-0.2,0-0.4,0-0.6c0-0.1,0-0.2-0.1-0.2
			c-0.2-0.2-0.5-0.4-0.7-0.5S48.9,0.7,49,0.5c0.1-0.2,0.3-0.4,0.5-0.4C50.3-0.1,51,0,51.7,0.2c0.4,0.1,0.7,0.2,1,0.4
			c0.1,0.1,0.1,0.1,0.1,0.3c-0.2,0.3-0.3,0.7-0.4,1c-0.1,0.2-0.1,0.4-0.1,0.6c0,0.9,0,1.8,0.1,2.7c0,0.2,0,0.3,0.1,0.5
			c0,0,0,0.1,0,0.1L50.5,8c-0.2,0.2-0.4,0.3-0.6,0.4L49.3,8.6z M52.1,3.4c-0.1,0.3-0.2,0.6-0.2,1c-0.2,0.8-0.5,1.5-1,2.1
			c-0.3,0.4-0.7,0.7-1.2,0.8c-0.2,0-0.4,0.1-0.5,0.1c0.1,0.2,0.2,0.4,0.3,0.6c0,0.1,0.1,0.1,0.2,0.1c0.2,0,0.3-0.1,0.4-0.2
			c0.4-0.5,0.9-1,1.3-1.5c0.5-0.6,0.7-1.3,0.8-2C52.1,4,52.1,3.7,52.1,3.4z"/>
		<path class="st0" d="M38.9,26.6c-0.3-0.1-0.6-0.2-0.9-0.3c-0.5-0.1-1-0.1-1.5,0c-1.1,0.4-1.7,1.7-1.3,2.8c0.1,0.4,0.4,0.7,0.7,0.9
			c0.3,0.2,0.6,0.4,0.9,0.6c0.7,0.4,1.5,0.6,2.2,0.7c0.9,0.2,1.9,0.3,2.9,0.3c1.9,0,3.8-0.4,5.5-1.2h0.1l0.3,0.3
			c-0.3,0-0.6,0.1-0.8,0.3c-1.2,0.7-2.6,1.1-3.9,1.3c-1.4,0.2-2.9,0.1-4.2-0.2c-0.8-0.2-1.6-0.5-2.2-0.9c-0.5-0.3-0.9-0.7-1.3-1.2
			c-0.6-0.7-0.8-1.7-0.4-2.6c0.3-0.9,1.1-1.5,2-1.6C37.5,25.8,38.3,26.1,38.9,26.6z"/>
		<path class="st0" d="M49.4,30.6c0.5,0.2,1.1,0.4,1.7,0.6c1.6,0.5,3.2,0.7,4.8,0.5c1.2-0.1,2.3-0.3,3.5-0.6
			c0.7-0.2,1.4-0.6,1.9-1.2c0.3-0.3,0.5-0.7,0.6-1c0.2-1.2-0.6-2.3-1.8-2.6c-0.2,0-0.5,0-0.7,0c-0.4,0-0.8,0.2-1.1,0.3L58,26.7
			l0-0.1c1-1,2.6-0.9,3.5,0.1c0.3,0.3,0.5,0.7,0.6,1.2c0.2,0.8,0,1.7-0.6,2.4C61,31.1,60,31.7,59,32c-1.4,0.4-2.9,0.6-4.3,0.5
			c-1.5-0.1-2.9-0.5-4.2-1.2C50.1,31.1,49.8,30.8,49.4,30.6L49.4,30.6z"/>
		<path class="st0" d="M38.9,30.8c0.3-0.4,0.8-0.7,1.3-0.8c0.6-0.1,1.1-0.1,1.7,0.1c0.8,0.2,1.6,0.3,2.4,0.4l2,0.1h0.1l0,0
			c-0.3,0.1-0.6,0.3-0.9,0.4c-1,0.4-2.1,0.4-3.1,0c-0.3-0.1-0.7-0.2-1-0.3c-0.6-0.2-1.2-0.2-1.8,0L38.9,30.8z"/>
		<path class="st0" d="M37,32.6c3,1,6.3,1,9.3-0.2v0.1c-0.2,0.2-0.3,0.3-0.5,0.4c-0.6,0.4-1.3,0.7-2.1,0.8c-2,0.4-4,0.1-5.9-0.7
			C37.6,32.9,37.3,32.7,37,32.6L37,32.6z"/>
		<path class="st0" d="M57.9,30.8c-0.9-0.4-2-0.5-2.9-0.1c-0.5,0.2-0.9,0.3-1.4,0.4c-1,0.1-2.1-0.1-2.9-0.7l-0.2-0.1l0,0h0.1
			c0.9,0.3,1.8,0.4,2.7,0.1c0.6-0.1,1.2-0.3,1.8-0.5c0.6-0.2,1.2-0.1,1.8,0.1C57.2,30.2,57.6,30.5,57.9,30.8z"/>
		<path class="st0" d="M61.2,5.6L61.2,5.6l0.3,0l0,0L61.2,5.6L61.2,5.6z"/>
		<path class="st0" d="M47.5,8.6c0.1-0.3,0.3-0.7,0.4-1c0.1-0.2,0-0.4-0.2-0.5c0,0,0,0,0,0c-0.2-0.1-0.4-0.2-0.5-0.2
			c-0.5-0.1-1-0.5-1.2-1c-0.1-0.2-0.2-0.4-0.2-0.6c0-0.1,0-0.3,0.1-0.4c0.1-0.2,0.2-0.3,0.2-0.5c0.1-0.2,0-0.4-0.2-0.5c0,0,0,0,0,0
			c-0.2-0.1-0.4-0.1-0.5-0.1c0-0.4,0.1-0.7,0.2-1.1c0.1-0.3,0.4-0.5,0.8-0.5c0.2,0,0.5,0,0.7,0c0-0.2,0-0.4,0-0.6
			c0-0.1,0.1-0.1,0.1-0.2c0.3-0.2,0.5-0.3,0.7-0.5c0.2-0.1,0.2-0.2,0.1-0.4c-0.1-0.2-0.3-0.4-0.5-0.4c-0.7-0.1-1.4-0.1-2.1,0.2
			c-0.4,0.1-0.7,0.2-1,0.4C44,0.7,44,0.8,44,0.9c0.2,0.3,0.3,0.7,0.4,1c0.1,0.2,0.1,0.4,0.1,0.6c0,0.9,0,1.8-0.1,2.7
			c0,0.2-0.1,0.3-0.1,0.5c0,0,0,0.1,0,0.1L46.2,8c0.2,0.2,0.4,0.3,0.6,0.4L47.5,8.6z M44.7,3.4c0.1,0.3,0.2,0.6,0.2,1
			c0.2,0.8,0.5,1.5,1,2.1c0.3,0.4,0.7,0.7,1.2,0.8c0.2,0,0.4,0.1,0.5,0.1c-0.1,0.2-0.2,0.4-0.3,0.6c0,0.1-0.1,0.1-0.2,0.1
			c-0.2,0-0.3,0-0.4-0.2c-0.4-0.5-0.9-1-1.3-1.5c-0.5-0.6-0.7-1.3-0.8-2C44.6,4.1,44.6,3.7,44.7,3.4z"/>
		<path class="st0" d="M42.3,52.1c-0.2,0-0.3-0.1-0.5-0.2c-0.5-0.2-0.8-0.7-0.7-1.3c0-0.3,0.1-0.6,0.1-0.9l-1.1,1
			c-0.4,0.4-0.9,0.8-1.4,1c-0.9,0.4-2,0-2.4-1c-0.1-0.2-0.1-0.4-0.1-0.5c0-0.7,0-1.3,0.2-1.9c0-0.1,0-0.1,0-0.2l-0.2,0.2
			c-0.8,1.1-1.8,2.2-2.8,3.1c-0.3,0.3-0.7,0.5-1.2,0.5c-1,0.1-1.8-0.7-1.9-1.7c0-0.2,0-0.4,0.1-0.6c0.3-1.3,0.8-2.5,1.3-3.7
			c0.2-0.4,0.3-0.8,0.5-1.2c0-0.1,0.1-0.2,0.1-0.4c0.1-0.5-0.1-0.8-0.6-0.8c-0.3,0-0.6-0.2-0.8-0.4c0.3-0.2,0.7-0.3,1-0.2
			c0.5,0.2,1.1,0.1,1.5-0.3c1.5-1.1,2.4-2.9,2.4-4.7c0-0.2,0-0.4-0.1-0.5c-0.2-0.4-0.4-0.8-0.6-1.3c-0.3,0.1-0.6,0.2-0.9,0.4
			c-0.2,0.1-0.4,0.3-0.6,0.5c-1.1,1.5-2,3.2-2.7,5c-0.7,1.7-1.4,3.3-2.1,5c-0.7,1.7-2,3.1-3.6,3.9c-1.7,0.9-3.7,1.1-5.5,0.5
			c-1.5-0.5-2.2-2.1-1.7-3.6c0.1-0.3,0.3-0.6,0.5-0.9c0.5-0.6,1.3-0.8,2-0.5c0.4,0.1,0.7,0.4,0.8,0.8c0.1,0.3,0.1,0.6,0,0.9
			c-0.2,0.5-0.6,0.8-1.1,0.8c-0.2,0-0.4,0-0.5,0.1c-0.3,0-0.6,0.3-0.6,0.6c0,0,0,0,0,0.1c-0.1,0.5,0.2,0.9,0.6,1.1
			c1.2,0.9,2.9,0.7,3.9-0.5c1.1-1.3,2.1-2.7,3-4.3c0.6-1.1,1-2.2,1.6-3.4c0.8-1.7,1.9-3.2,3.1-4.6c0.9-0.9,1.9-1.7,3-2.3l0.3-0.2
			c-0.3-0.1-0.6-0.2-0.9-0.2c-1.4-0.3-2.9-0.2-4.4,0.2c-1.7,0.4-3.3,1-4.7,2c-1.5,1-2.6,2.4-3.2,4c-0.2,0.4-0.2,0.8-0.1,1.2
			c0,0.7,0.6,1.2,1.4,1.2c0.4,0,0.8-0.1,1.1-0.3c1.3-0.8,2.3-1.9,2.8-3.3l1.2-2.7c0-0.1,0.1-0.2,0.1-0.3c0.2,0.4,0.3,0.9,0.3,1.3
			c0.1,2.4-1.2,4.6-3.2,5.8c-0.8,0.5-1.7,0.6-2.5,0.4c-0.9-0.2-1.6-1-1.7-2c-0.1-1.2,0.3-2.4,1-3.3c0.7-1,1.7-1.9,2.8-2.5
			c1.5-1,3.3-1.7,5.1-2.1c1.8-0.3,3.6-0.3,5.4,0.2c0.2,0,0.4,0,0.6,0c0.5,0,0.9-0.1,1.4-0.2v0.3l-0.8,0.3c0.1,0.1,0.2,0.2,0.3,0.3
			c1.6,0.8,2.3,2.7,1.5,4.3c-0.2,0.4-0.5,0.8-0.9,1.1c-0.7,0.6-1.6,1.1-2.4,1.6L33,43.9c0.3,0.4,0.6,0.8,0.7,1.3
			c0.2,0.8,0.2,1.6-0.1,2.4c-0.2,0.9-0.5,1.7-0.7,2.6c0,0.1,0,0.3-0.1,0.4s0,0.2,0.1,0.2s0.2,0,0.2,0c0.7-0.6,1.4-1.3,2-2.1
			c0.9-1.1,1.9-2.2,3-3.1c0.9-0.8,1.8-1.4,2.8-2c0.4-0.3,1-0.4,1.5-0.3c0.5,0.1,0.9,0.3,1.2,0.7l0.4,0.5l0.1-0.2
			c0.2-0.4,0.5-0.7,1-0.8c0.5-0.1,1.1-0.1,1.7-0.1L42.9,51l0.3,0.2c0.5-0.3,1-0.8,1.4-1.2c0.9-1,1.8-2,2.8-3c1.1-1.2,2.4-2.2,3.8-3
			c0.3-0.2,0.5-0.3,0.8-0.4c0.8-0.3,1.6-0.1,2.1,0.6c0.1,0.2,0.2,0.3,0.4,0.5l0,0c1-1.6,1.9-3.2,2.9-4.9c0.2-0.3,0.3-0.6,0.4-0.9
			c0.3-0.8,1.1-1.4,2-1.4c0.3,0,0.7,0,1.1-0.1l-0.1,0.2c-1.4,2.4-2.8,4.9-4.1,7.3c-1.1,2-2.2,4-3.2,6.1c0,0.1-0.2,0.2,0,0.3
			s0.2,0.2,0.4,0.1c0.7-0.4,1.3-1,1.8-1.7c1.4-1.6,2.9-3.3,4.2-5c0.1-0.2,0.3-0.4,0.5-0.5c0.4-0.4,1.1-0.7,1.7-0.6c0.3,0,0.7,0,1,0
			h0.2l-4.2,7.5l0.2,0.2c0.5-0.2,1-0.6,1.3-1c1.1-1.3,2.2-2.5,3.4-3.6c1.1-1.1,2.3-2,3.6-2.8c0.4-0.2,0.9-0.3,1.4-0.3h0.5
			c0.8,0.1,1.3,0.8,1.2,1.6c0,0.2-0.1,0.4-0.2,0.6c-0.1,0.1-0.1,0.2-0.2,0.3c-0.3,0.4-0.8,0.5-1.2,0.2c0,0,0,0,0,0
			c-0.4-0.3-0.6-0.8-0.3-1.3c0,0,0,0,0,0c0.1-0.2,0.3-0.4,0.4-0.5l0.2-0.3v-0.1c-0.3,0.1-0.5,0.3-0.7,0.5c-1.5,1.6-2.5,3.5-3.1,5.5
			c0,0.3,0,0.5,0,0.8c0,0.2,0.2,0.4,0.4,0.4c0.4,0.1,0.7,0,1-0.2c1.3-1,2.4-2.1,3.5-3.3c0.8-0.9,1.7-1.9,2.6-2.8
			c0.8-0.8,1.9-1.4,3-1.6c0.3,0,0.7,0,1,0c0.6,0.1,1.1,0.5,1.2,1.1c0.3,1,0.2,2.1-0.2,3c-0.3,0.7-0.7,1.3-1.2,1.9
			c0,0.1-0.1,0.1-0.2,0.2l0.2,0.2l2.2-2.7c-0.4,1.3-0.9,2.5-2.3,3.2c-0.2,0.1-0.4,0.2-0.6,0.2c-0.4,0.1-0.7,0.2-1,0.5
			c-0.4,0.3-0.9,0.6-1.4,0.8c-1.2,0.4-2.5-0.3-2.9-1.5c0-0.1-0.1-0.3-0.1-0.5c0-0.4,0-0.8,0.1-1.2c0-0.1,0-0.2,0-0.3l-0.6,0.6
			c-0.7,0.7-1.4,1.3-2.2,2c-0.6,0.6-1.4,1-2.2,1.2h-0.3h-0.1c-0.4,0-0.7-0.2-1-0.5c-0.5-0.5-0.8-1.1-0.9-1.8
			c-0.1-0.4-0.1-0.8-0.1-1.2c0,0-0.1,0.1-0.1,0.1c-0.8,0.7-1.6,1.5-2.4,2.2c-0.4,0.5-1,0.8-1.5,1c-0.6,0.2-1.3-0.1-1.6-0.7
			c0-0.1-0.1-0.2-0.1-0.3c-0.1-0.4-0.1-0.9,0-1.3c0.1-0.4,0.3-0.8,0.5-1.3c0.1-0.3,0.2-0.5,0.3-0.8h0l-0.7,0.8
			c-0.8,0.9-1.7,1.9-2.5,2.8c-0.5,0.6-1.3,0.8-2,0.7c-0.6-0.1-0.9-0.3-1-0.8s-0.2-0.9-0.2-1.3c-0.2,0.2-0.5,0.5-0.8,0.7
			c-0.6,0.5-1.1,0.9-1.7,1.2c-0.9,0.5-2,0.2-2.5-0.6c-0.1-0.1-0.1-0.2-0.1-0.3c-0.2-0.5-0.2-1-0.1-1.5l0.1-0.7
			c-0.6,0.6-1.2,1.2-1.8,1.8c-0.6,0.7-1.3,1.3-2.2,1.6H42.3z M73.1,51.3l1-0.3c0.2-0.1,0.4-0.3,0.5-0.5c0.1-0.3,0.3-0.6,0.4-0.9
			c0.1-0.1,0.2-0.2,0.3-0.3c0.7-0.3,1.2-0.9,1.5-1.6c0.3-0.8,0.5-1.5,0.8-2.3c0,0,0-0.1,0-0.1c-0.1-0.2-0.2-0.5-0.3-0.7
			c-0.1-0.2-0.2-0.2-0.4-0.2c-0.4,0-0.7,0.1-1,0.4c-1.5,1.5-2.5,3.3-3.1,5.2c0,0.2,0,0.4,0,0.7C73,50.8,73,51.1,73.1,51.3z
			 M43.5,45.1c0-0.6-0.3-0.9-0.7-0.8c-0.5,0-0.9,0.2-1.2,0.6c-1,1.5-2,3-3.1,4.4c-0.4,0.6-0.7,1.2-0.8,1.9c0,0.1,0.2,0.3,0.3,0.3
			c0.4-0.1,0.8-0.3,1.1-0.5c1.7-1.4,3.1-3.2,4.1-5.2C43.3,45.6,43.4,45.3,43.5,45.1z M53.6,44.4l-0.9,0.2c-0.2,0.1-0.4,0.2-0.6,0.4
			c-1.1,1.7-2.3,3.3-3.4,5c-0.2,0.4-0.4,0.8-0.4,1.2c0,0.1,0.2,0.3,0.3,0.3c0.4-0.2,0.8-0.4,1.2-0.6c1.7-1.3,3-3,3.9-4.9
			c0.1-0.2,0.1-0.5,0.1-0.7C53.7,45,53.7,44.7,53.6,44.4z"/>
		<path class="st0" d="M65.2,39.5c-0.1,0.7-0.5,1.2-1.2,1.5c-0.2,0.1-0.5,0-0.6-0.1c-0.2-0.2-0.4-0.3-0.6-0.5c0,0-0.1-0.1-0.1-0.2
			c0-0.7,0.4-1.3,0.9-1.7c0.3-0.3,0.8-0.2,1.1,0.1C65,38.9,65.2,39.2,65.2,39.5z"/>
		<text transform="matrix(1 0 0 1 0 68.94)" class="st0 st1 st2">Radico Khaitan Limited</text>
		<rect y="58.1" class="st0" width="96.9" height="0.7"/>
	</g>
</g>
</svg>
