<?xml version="1.0" encoding="UTF-8"?>
<!DOCTYPE svg PUBLIC "-//W3C//DTD SVG 1.1//EN" "http://www.w3.org/Graphics/SVG/1.1/DTD/svg11.dtd">
<!-- Creator: CorelDRAW 2021 (64-Bit) -->
<svg xmlns="http://www.w3.org/2000/svg" xml:space="preserve" width="2.21026in" height="2.11726in" version="1.1" style="shape-rendering:geometricPrecision; text-rendering:geometricPrecision; image-rendering:optimizeQuality; fill-rule:evenodd; clip-rule:evenodd"
viewBox="0 0 2204.66 2111.9"
 xmlns:xlink="http://www.w3.org/1999/xlink"
 xmlns:xodm="http://www.corel.com/coreldraw/odm/2003">
 <defs>
  <style type="text/css">
   <![CDATA[
    .fil2 {fill:#FEFEFE;fill-rule:nonzero}
    .fil3 {fill:#FEFEFE;fill-rule:nonzero}
    .fil1 {fill:#2B2A29;fill-rule:nonzero}
    .fil0 {fill:#00773C;fill-rule:nonzero}
   ]]>
  </style>
 </defs>
 <g id="Layer_x0020_1">
  <metadata id="CorelCorpID_0Corel-Layer"/>
  <g id="_2343005604768">
   <path class="fil0" d="M1837.25 1014.81c40.1,-60.16 83.44,-102.87 139.06,-131.94 35.23,-18.4 72.96,-30.52 113.44,-29.48 43.39,1.12 75.02,22.43 96.45,59.91 18.58,32.43 22.86,66.74 14.05,102.76 -9.23,37.67 -33.04,64.22 -67.44,80.05 -18.78,8.71 -39.4,14.07 -59.66,18.89 -62.08,14.76 -120.23,38.32 -171.93,76.31 -29.26,21.55 -53.72,48.09 -74.73,77.76 -1.6,2.25 -3.01,4.58 -4.58,6.83 -4.42,6.64 -10.54,13.32 -18.31,10.28 -5.38,-2.06 -9.94,-9.26 -12.44,-15.19 -9.04,-21.49 -9.1,-44.58 -8.62,-67.29 1.17,-48.09 10.36,-94.73 29.92,-138.94 8.85,-19.91 19.37,-39.11 24.79,-49.95z"/>
   <path class="fil0" d="M2111.81 1055.92c0,20.01 -0.27,39.73 -0.79,59.68 -0.59,17.48 -1.43,34.95 -2.5,52.43l0 0.27c-1.99,34.68 -5.01,69.08 -9.19,103.24 -3.92,34.11 -9.15,67.9 -15.84,101.23 -2.73,14.72 -5.79,29.1 -9.14,43.27 -16.35,71.88 -38.83,141 -68.78,205.29 -11.69,25.85 -24.94,50.8 -39.16,75.19 -11.92,21.12 -24.94,41.36 -39.06,60.79 -4.75,6.36 -9.76,12.99 -14.47,19.41 -4.98,6.35 -9.94,12.46 -14.94,18.83 -15.02,18.6 -31.09,36.64 -48.29,53.88 -6.12,6.08 -12.2,12.16 -18.86,18 -6.12,6.13 -12.81,11.63 -19.44,17.47l-0.27 0c-13.02,11.12 -26.37,21.92 -39.91,32.48l-0.29 0c-27.48,20.52 -56.35,39.4 -86.29,56.31 -7.52,4.16 -15.25,8.32 -23.04,12.2 -22.76,12.19 -46.31,23.31 -70.49,33.27 -7.99,3.37 -16.33,6.68 -24.67,9.73 -16.12,6.4 -32.76,12.24 -49.4,17.75 -142.87,46.91 -300.99,65.24 -460.77,65.24 -159.82,0 -318.23,-18.33 -461.43,-65.24 -16.62,-5.51 -32.98,-11.35 -49.34,-17.75 -8.33,-3.05 -16.63,-6.36 -24.71,-9.73 -24.1,-9.96 -47.74,-21.08 -70.45,-33.27 -7.79,-3.88 -15.57,-8.04 -22.99,-12.2 -29.98,-17.19 -58.86,-35.79 -86.34,-56.31l-0.28 0c-13.6,-10.56 -26.9,-21.36 -39.96,-32.48l-0.23 0c-6.68,-5.84 -13.09,-11.91 -19.45,-17.47 -6.65,-5.84 -12.78,-11.92 -18.85,-18 -17.2,-17.25 -33.32,-35.28 -48.3,-53.88 -5,-6.36 -10,-12.48 -14.98,-18.83 -4.71,-6.41 -9.67,-13.05 -14.37,-19.41 -14.18,-19.43 -27.25,-39.67 -39.16,-60.79 -14.13,-24.39 -27.2,-49.34 -39.11,-75.19 -3.62,-8.03 -7.2,-16.07 -10.85,-24.39 -6.92,-16.36 -13.6,-32.99 -19.62,-49.95 -3.13,-8.33 -5.89,-16.93 -8.93,-25.52 -8.62,-25.8 -16.33,-51.87 -23.04,-78.51 -2.2,-8.88 -4.14,-18.04 -6.41,-26.92 -3.29,-14.16 -6.35,-28.55 -9.13,-43.27 -6.63,-33.33 -11.91,-67.11 -15.84,-101.23 -4.14,-34.16 -7.19,-68.56 -9.14,-103.24l0 -0.27c-1.07,-17.48 -1.91,-34.95 -2.49,-52.43 -0.52,-19.96 -0.79,-39.67 -0.79,-59.68 0,-61.83 2.73,-123.69 8.85,-185.29 0,0 0,-97.96 38.28,-228.62 0,-0.52 0,-1.08 0.27,-1.35 0.32,-0.89 0.32,-1.97 0.6,-2.76 2.21,-12.24 5,-24.17 10.21,-32.81 20.56,-61.54 49.72,-128.71 90.99,-195.34 0,-0.23 0.33,-0.23 0.33,-0.52 0.54,-1.12 0.82,-2.23 1.1,-2.79 0.27,-0.29 0.27,-0.52 0.27,-0.52 31.62,-51.93 68.52,-100.2 111.81,-143.47 19.7,-19.67 40.48,-38.27 62.43,-55.22 0.8,-1.08 1.61,-1.65 2.78,-2.49 34.06,-27.76 71.86,-54.08 113.47,-77.93 1.64,-0.86 3.02,-1.94 4.7,-2.8 6.38,-3.86 11.93,-6.95 16.36,-8.89 26.33,-13.88 57.98,-22.73 85.98,-33.58 3.34,-1.4 6.94,-2.47 10.32,-3.59 13.86,-5 27.69,-10.01 42.13,-14.43l0.28 0c14.15,-4.71 28.56,-8.89 43.3,-13.01 3.02,-0.86 5.8,-1.68 8.81,-2.52 14.75,-3.88 29.72,-7.48 44.44,-11.07 9.19,-1.97 17.99,-3.93 27.17,-5.84 7.27,-1.37 14.47,-2.8 21.92,-4.43 55.78,-10.28 112.65,-17.48 170.37,-21.64 14.43,-1.12 28.55,-1.96 42.99,-2.76 7.19,-0.3 14.39,-0.59 21.66,-0.86 6.31,-0.26 12.74,-0.56 19.14,-0.56 8.85,-0.25 18.04,-0.53 26.85,-0.53 9.46,-0.27 18.95,-0.27 28.36,-0.27 9.14,0 18.59,0 27.71,0.27 8.91,0 18.03,0.29 26.9,0.53 6.4,0 12.77,0.3 19.17,0.56 7.22,0.28 14.42,0.56 21.61,0.86 14.46,0.81 28.56,1.64 43.06,2.76 52.38,3.87 104.53,9.97 156.13,19.13 4.72,0.82 9.44,1.67 14.14,2.51 7.54,1.63 14.74,3.06 21.95,4.43 9.15,1.66 18.05,3.6 27.18,5.84 14.73,3.6 29.66,7.19 44.4,11.07 3.06,0.57 5.8,1.37 8.9,2.52 14.65,4.12 29.06,8.3 43.26,13.01l0.22 0c14.49,4.42 28.37,9.42 42.22,14.43 3.3,1.12 6.95,2.19 10.23,3.59 28.04,10.85 59.7,19.7 86.03,33.58 4.42,1.94 9.99,5.02 16.36,8.89 1.64,0.86 3.06,1.93 4.69,2.8 41.62,23.86 79.4,50.18 113.47,77.93 0.84,0.84 1.93,1.65 2.83,2.49 21.87,16.95 42.69,35.55 62.43,55.22 43.2,43.27 80.1,91.55 111.76,143.47 0,0 0,0.22 0.27,0.52 0.28,0.56 0.52,1.67 1.15,2.79 0.28,0.29 0.28,0.52 0.28,0.52 41.31,66.63 70.43,133.8 90.97,195.34 5.23,8.64 8.05,20.56 10.28,32.81 0.27,0.79 0.27,1.87 0.56,2.76 0.23,0.28 0.23,0.84 0.23,1.35 38.28,130.66 35.45,170.76 38.28,228.62 3.11,61.82 8.9,123.46 8.9,185.29z"/>
   <path class="fil1" d="M1429.44 702.58c12.99,8.41 44.63,21.39 94.74,38.97 33.89,11.64 52.35,26.87 55.67,45.75 3.76,21.83 -3.27,40.01 -20.99,54.73 -15.11,12.94 -34.86,21.3 -59.37,25.05 -7.37,1.07 -18.13,2.19 -32.46,3.13 -14.27,0.98 -25.11,2.05 -32.39,3.17 -11,1.68 -15.9,5.89 -14.68,12.61 0.91,5.66 4.53,15.58 10.66,29.54 7.26,15.33 11.63,25.71 13.2,31.07 2.92,10.2 6.64,28.37 11.13,54.54 0.97,5.47 1.94,8.64 3.01,9.72 1.03,1.03 4.14,1.59 9.37,1.59 17.9,-0.09 36.85,-1.68 56.87,-4.76 83.96,-12.81 148.9,-38.56 194.88,-77.26 54.24,-45.8 74.99,-105.39 62.34,-178.75 -6.53,-38.08 -29.72,-68.28 -69.43,-90.66 -8.96,-5.05 -44.82,-19.35 -107.59,-42.99 -38.67,-14.64 -59.66,-31.22 -62.86,-49.87 -5.33,-30.89 11.78,-49.31 51.22,-55.38 24.51,-3.74 64.85,5.56 121.02,27.86l5.3 0.37c5.05,-0.79 7.78,-3.98 8.3,-9.67 1.01,-20.9 1.66,-36.55 1.84,-46.97 0.24,-2.15 2.93,-13.36 8.12,-33.49 4.22,-17.23 6.17,-27.07 5.79,-29.64 -0.47,-2.37 -3.34,-4.99 -8.77,-7.88 -56.64,-31.27 -123.6,-40.97 -201.11,-29.14 -54.33,8.37 -98.28,33.42 -131.88,75.24 -33.56,41.83 -46.03,87.53 -37.5,137.03 8.2,47.43 30.11,82.81 65.59,106.08z"/>
   <path class="fil1" d="M1167.08 757.49c-1.99,4.43 -12.48,6.67 -31.15,6.67 -20.44,0 -34.91,-0.31 -43.77,-0.83 -16.96,-0.56 -25.58,-3.36 -25.58,-8.6 0,-7.52 7.52,-33.83 23.04,-78.23 7.24,-21.4 13.34,-38.83 18.6,-52.71 4.16,-11.13 19.7,-10.84 23.9,0.28 4.42,12.99 9.93,29.39 16.06,49.34 13.02,42.77 19.69,68.55 19.69,77.95 0,2.53 -0.27,4.48 -0.79,6.13zm-614.83 -75.47c-19.11,0 -37.46,-1.36 -54.7,-3.88 -9.14,-1.4 -13.85,-3.04 -13.85,-4.45 0,-6.08 0,-15.79 -0.28,-28.55 -0.28,-12.76 -0.52,-22.48 -0.52,-29.12 0,-46.41 0.8,-74.11 2.51,-83.83 1.94,-8.32 16.36,-12.48 43.24,-12.48 37.77,0 65.51,5 82.98,15.56 23.04,13.28 34.39,37.43 34.39,72.12 0,49.67 -31.38,74.64 -93.77,74.64zm769.32 26.06c-67.73,-175.33 -108.47,-277.98 -122.32,-307.96 -4.69,-9.42 -9.7,-14.17 -15.03,-14.17 -7.5,0 -18.55,0.57 -33.54,1.41 -14.98,1.1 -26.38,1.63 -34.12,1.63 -7.99,0 -20.02,-0.79 -36.07,-2.19 -16.07,-1.41 -28.04,-2.22 -35.78,-2.22 -4.41,0 -8.62,5.58 -11.92,16.38 -6.11,18.86 -44.09,122.63 -113.74,311.85 -43.81,118.47 -74.91,198.1 -90.43,239.74 -2.83,6.07 -6.12,8.31 -8.91,8.31 -3.33,0 -6.12,-2.8 -7.19,-5.28 -8.63,-20.01 -21.69,-47.43 -39.12,-83.23 -34.68,-71.6 -52.2,-107.35 -52.2,-107.35 0,-4.15 3.39,-8.37 9.97,-12.8 32.18,-23.61 54.42,-47.72 66.34,-72.39 11.94,-24.96 18.01,-58 18.01,-99.87 0,-62.42 -23.26,-110.19 -69.88,-143.18 -41.08,-29.43 -94.05,-44.12 -159.26,-44.12 -31.37,0 -73.26,0.53 -126.23,1.64 -77.65,1.67 -121.22,3.36 -130.66,5.31 -9.14,1.65 -13.61,4.97 -13.32,9.7l0.27 6.06c5.24,67.48 8.02,161.8 8.02,282.5 0,31.64 -1.38,79.08 -4.39,142.31 -3.11,63.55 -4.42,110.71 -4.42,142.06 0,7.19 4.09,11.64 12.43,13.32 8.34,1.64 32.76,2.47 73.56,2.47 35.47,0 61.85,-0.51 78.76,-1.64 3.93,-0.27 8.02,-0.6 11.94,-0.84 2.48,-0.84 3.91,-3.6 3.91,-8.6 0,-19.44 -1.72,-48.28 -5.33,-86.88 -3.57,-38.55 -5.51,-67.38 -5.51,-86.83 0,-14.39 2.21,-21.63 6.63,-21.63 30.49,0 45.82,-0.29 46.05,-0.84 17.2,1.68 28.6,7.53 33.29,18.37 23.91,55.47 41.06,97.62 52.46,126.22 7.99,21.86 14.42,38.5 18.84,49.63 2.21,4.72 4.19,7.48 5.84,8.32 0.79,0.85 4.44,1.41 10.79,2.25 13.34,1.64 38.89,2.47 76.02,2.47 30.23,0 52.48,-0.27 66.9,-1.12 5.23,-0.29 10.83,-0.29 16.36,-0.29 22.2,0 45.24,1.13 45.24,1.13 5.79,0.27 11.91,0.27 18.83,0.27 55.52,0 92.97,-0.51 102.39,-2.76 7.78,-1.96 14.43,-14.72 19.98,-38.55 5.79,-25.84 11.4,-41.08 16.12,-45.8 3.31,-2.47 28.8,-3.87 77.37,-3.87 71.85,0 110.15,1.12 114.88,3.04 5.23,2.8 12.73,25 22.48,66.03 2.77,10.84 8.89,17.2 18.55,19.16 11.7,2.25 38.05,3.61 78.83,3.61 44.35,0 71.02,-1.35 79.59,-3.61 6.92,-1.96 10.56,-5.56 10.56,-10.56 0,-7.75 -33.89,-99.86 -101.83,-276.61z"/>
   <path class="fil1" d="M1593.17 1347.87c45,66.31 118.37,148.38 160.78,199.68 -33.55,53.84 -80.5,97.4 -114.89,124.82 -27.14,-36.03 -189.04,-246 -195.39,-252.36 -30.82,11.08 -46.32,19.12 -46.32,24.12 0,21.41 0.79,53.56 2.5,96.83 1.58,43.29 2.48,24.12 2.48,45.75 0,8.88 -3.62,13.88 -11.41,15.01 -14.98,2.19 -41.59,3.31 -80.43,3.31 -37.18,0 -61.61,-1.12 -73.55,-3.31 -8.27,-1.64 -12.44,-6.13 -12.44,-13.32 0,-30.79 1.31,-25.75 4.45,-87.91 3.01,-62.19 4.41,-108.79 4.41,-139.87 0,-32.99 -1.4,-82.94 -4.14,-149.22 -3.11,-66.35 -4.48,-115.99 -4.48,-149.03 0,-6.36 3.06,-9.4 9.18,-9.4 8.58,0 22.16,0.23 39.91,1.08 17.77,1.12 31.09,1.41 39.96,1.41 9.16,0 22.75,-0.29 40.82,-1.41 18.04,-0.85 31.38,-1.08 40.19,-1.08 4.69,0 7.24,2.49 7.24,7.76 0,21.08 -1.12,52.95 -3.34,95.43 -1.99,42.72 -3.06,74.59 -3.06,95.71 0,24.67 7.22,40.81 19.97,36.91 130.44,-41.36 145.65,-171.18 166.42,-225.29 3.39,-6.92 9.77,-10.52 19.47,-10.52 7.22,0 18.62,0.23 33.55,1.08 15.02,1.12 26.09,1.41 33.6,1.41 7.76,0 19.11,-0.29 34.39,-0.85 15.22,-0.56 26.62,-0.8 34.17,-0.8 6.59,0 10.21,3.28 10.21,9.68 0,9.44 -6.13,32.48 -18.04,69.12 -35.5,107.62 -76.01,175.02 -122.09,201.94 -9.42,5.27 -14.14,9.72 -14.14,13.32z"/>
   <path class="fil1" d="M1117.27 1060.31c0,-5.75 -4.18,-8.54 -12.53,-8.54 -8.95,0 -22.11,0.37 -39.49,1.11 -17.38,0.8 -30.51,1.17 -39.48,1.17 -8.85,0 -22.27,-0.37 -40.29,-1.17 -17.94,-0.74 -31.38,-1.11 -40.33,-1.11 -6.59,0 -9.89,2.8 -9.89,8.54 0,27.86 1.02,69.59 3.02,125.21 2.01,55.71 2.97,97.44 2.97,125.24 0,33.05 -2.54,102.26 -7.73,207.59 -2.27,43.97 -3.58,67.01 -3.77,68.98 0.09,6.26 4.19,10.23 12.39,11.78 11.54,2.1 38.25,3.13 80.24,3.13 31.33,0 56.36,-1.02 75.08,-3.13 6.87,-0.8 10.58,-1.32 11.21,-1.6 2.53,-1.26 3.82,-4.53 3.82,-9.72 0,-30.71 -0.82,-76.83 -2.55,-138.47 -1.65,-61.69 -2.6,-107.86 -2.6,-138.57 0,-27.8 1.65,-69.53 4.95,-125.24 3.3,-55.62 4.98,-97.34 4.98,-125.21z"/>
   <path class="fil1" d="M1963.67 1559.24c-109.82,210.07 -283.97,325.87 -483.66,358.21 -321.92,52.15 -482.48,-24.73 -613.67,-103.19 -60.47,-36.07 -105.97,-83.79 -154.58,-140.38 -46.3,-53.56 -116.77,-180.91 -160.33,-263.06l-20.26 9.77c-29.96,10.8 -44.95,18.55 -44.95,23.55 0,21.4 0.86,53.56 2.54,96.83 1.61,43.28 2.75,75.75 2.75,97.39 0,8.89 -3.86,13.88 -11.64,14.96 -14.98,2.24 -41.59,3.37 -80.48,3.37 -37.13,0 -61.6,-1.12 -73.51,-3.37 -8.33,-1.64 -12.48,-6.08 -12.48,-13.32 0,-30.75 1.36,-77.34 4.46,-139.5 3.04,-62.19 4.45,-108.79 4.45,-139.87 0,-32.99 -1.41,-82.94 -4.22,-149.21 -2.7,-66.36 -4.14,-115.99 -4.14,-149.03 0,-6.36 2.79,-9.4 8.91,-9.4 8.85,0 22.15,0.23 39.9,1.08 17.77,1.12 31.38,1.4 39.97,1.4 9.13,0 22.76,-0.29 40.78,-1.4 18.07,-0.84 31.34,-1.08 40.2,-1.08 4.71,0 7.22,2.48 7.22,7.76 0,21.07 -1.08,52.95 -3.06,95.43 -2.23,42.71 -3.3,74.58 -3.3,95.7 0,24.68 7.2,40.81 19.94,36.92 130.48,-41.36 145.69,-171.18 166.47,-225.3 3.38,-6.91 9.77,-10.51 19.46,-10.51 7.5,0 18.62,0.23 33.56,1.08 15.01,1.12 26.1,1.4 33.57,1.4 7.74,0 19.14,-0.29 34.39,-0.85 15.24,-0.55 26.64,-0.79 34.12,-0.79 6.66,0 10.28,3.28 10.28,9.67 0,9.45 -6.11,32.48 -18.04,69.12 -35.21,107.63 -76.01,175.02 -122.09,201.94 -9.13,5.28 -13.57,9.43 -13.85,13.04l0 0.28c50.24,102.96 117.09,200.91 152.86,243.9 84.1,100.99 348.49,326.05 739.06,154.68 99.85,-43.83 196.49,-123.38 241.98,-245.72 4.16,-11.07 4.87,-8.7 11.67,-34.91 6.73,-26.26 232.57,-141.79 135.73,93.42z"/>
   <path class="fil2" d="M1372.57 682.99c12.99,8.37 44.68,21.4 94.79,38.93 33.89,11.63 52.37,26.86 55.66,45.8 3.72,21.78 -3.24,40 -20.98,54.72 -15.12,12.9 -34.91,21.26 -59.42,25 -7.34,1.08 -18.14,2.19 -32.41,3.18 -14.28,0.94 -25.13,2.01 -32.42,3.13 -11.03,1.68 -15.89,5.89 -14.7,12.61 0.94,5.7 4.55,15.57 10.68,29.54 7.28,15.32 11.64,25.69 13.16,31.07 2.92,10.19 6.69,28.37 11.16,54.58 0.99,5.42 1.9,8.6 2.97,9.68 1.04,1.03 4.19,1.59 9.37,1.59 17.97,-0.09 36.85,-1.69 56.92,-4.73 83.93,-12.85 148.9,-38.59 194.84,-77.28 54.23,-45.81 75.03,-105.35 62.38,-178.67 -6.53,-38.14 -29.72,-68.37 -69.44,-90.75 -8.96,-5.01 -44.82,-19.36 -107.59,-43.01 -38.67,-14.57 -59.65,-31.21 -62.85,-49.86 -5.33,-30.89 11.73,-49.3 51.22,-55.37 24.47,-3.7 64.84,5.56 121.02,27.84l5.25 0.38c5.05,-0.75 7.83,-3.97 8.29,-9.64 1.05,-20.94 1.71,-36.58 1.85,-46.97 0.29,-2.14 2.93,-13.38 8.15,-33.57 4.19,-17.15 6.17,-27.03 5.8,-29.6 -0.52,-2.36 -3.34,-4.96 -8.77,-7.88 -56.64,-31.26 -123.62,-40.96 -201.11,-29.11 -54.38,8.34 -98.28,33.39 -131.89,75.25 -33.55,41.79 -46.07,87.49 -37.49,136.98 8.2,47.43 30.07,82.81 65.54,106.13z"/>
   <path class="fil2" d="M1110.21 737.91c-1.94,4.39 -12.43,6.64 -31.1,6.64 -20.49,0 -34.96,-0.29 -43.77,-0.84 -16.96,-0.57 -25.58,-3.32 -25.58,-8.61 0,-7.47 7.54,-33.83 23.04,-78.22 7.27,-21.36 13.34,-38.84 18.55,-52.71 4.21,-11.08 19.74,-10.85 23.91,0.27 4.46,13.04 9.97,29.44 16.09,49.39 13.02,42.71 19.66,68.51 19.66,77.96 0,2.47 -0.23,4.43 -0.79,6.11zm-614.79 -75.48c-19.14,0 -37.41,-1.4 -54.65,-3.88 -9.17,-1.4 -13.87,-3.08 -13.87,-4.43 0,-6.13 0,-15.85 -0.3,-28.6 -0.29,-12.76 -0.56,-22.48 -0.56,-29.12 0,-46.35 0.86,-74.12 2.5,-83.79 1.98,-8.31 16.35,-12.48 43.3,-12.48 37.71,0 65.44,4.96 82.97,15.52 23.02,13.32 34.43,37.47 34.43,72.16 0,49.67 -31.4,74.63 -93.82,74.63zm769.34 26.08c-67.76,-175.39 -108.47,-278.03 -122.37,-308.02 -4.69,-9.41 -9.71,-14.11 -14.98,-14.11 -7.5,0 -18.61,0.55 -33.56,1.35 -15.02,1.12 -26.39,1.67 -34.16,1.67 -8,0 -19.97,-0.84 -36.08,-2.21 -16.02,-1.39 -27.99,-2.23 -35.76,-2.23 -4.42,0 -8.58,5.57 -11.92,16.36 -6.08,18.88 -44.1,122.67 -113.71,311.9 -43.85,118.41 -74.95,198.04 -90.47,239.69 -2.83,6.12 -6.13,8.36 -8.86,8.36 -3.39,0 -6.12,-2.8 -7.19,-5.33 -8.62,-19.95 -21.69,-47.43 -39.17,-83.23 -34.66,-71.55 -52.15,-107.35 -52.15,-107.35 0,-4.16 3.34,-8.31 9.97,-12.75 32.2,-23.61 54.38,-47.72 66.3,-72.44 11.93,-24.96 18.06,-57.99 18.06,-99.86 0,-62.44 -23.28,-110.16 -69.89,-143.19 -41.08,-29.4 -94.1,-44.1 -159.25,-44.1 -31.38,0 -73.28,0.55 -126.3,1.66 -77.65,1.67 -121.18,3.33 -130.59,5.26 -9.2,1.67 -13.62,5.01 -13.35,9.7l0.24 6.14c5.27,67.42 8.06,161.77 8.06,282.43 0,31.64 -1.38,79.07 -4.4,142.35 -3.09,63.5 -4.45,110.67 -4.45,142.02 0,7.24 4.12,11.64 12.48,13.36 8.33,1.64 32.71,2.48 73.51,2.48 35.5,0 61.91,-0.56 78.76,-1.68 3.93,-0.29 8.07,-0.56 11.95,-0.8 2.47,-0.84 3.89,-3.64 3.89,-8.65 0,-19.44 -1.66,-48.27 -5.33,-86.82 -3.53,-38.55 -5.51,-67.44 -5.51,-86.83 0,-14.44 2.21,-21.63 6.7,-21.63 30.47,0 45.75,-0.29 46.03,-0.84 17.21,1.69 28.55,7.48 33.25,18.32 23.9,55.47 41.1,97.67 52.46,126.23 8.03,21.91 14.41,38.55 18.87,49.63 2.23,4.71 4.16,7.52 5.85,8.36 0.81,0.85 4.44,1.4 10.8,2.24 13.34,1.64 38.83,2.48 76.02,2.48 30.23,0 52.43,-0.29 66.84,-1.11 5.28,-0.29 10.85,-0.29 16.41,-0.29 22.19,0 45.24,1.11 45.24,1.11 5.79,0.29 11.91,0.29 18.83,0.29 55.52,0 92.93,-0.56 102.35,-2.8 7.83,-1.92 14.42,-14.73 20.02,-38.56 5.79,-25.8 11.36,-41.08 16.07,-45.81 3.3,-2.47 28.84,-3.87 77.36,-3.87 71.86,0 110.18,1.12 114.88,3.09 5.27,2.75 12.78,24.95 22.52,66.03 2.73,10.79 8.85,17.2 18.57,19.12 11.63,2.23 37.97,3.59 78.78,3.59 44.39,0 71.04,-1.35 79.62,-3.59 6.94,-1.92 10.56,-5.57 10.56,-10.52 0,-7.8 -33.87,-99.86 -101.82,-276.61z"/>
   <path class="fil2" d="M1536.34 1328.23c44.95,66.37 104.57,133.74 147.07,185.07 -33.61,53.83 -80.48,97.39 -114.87,124.87 -27.2,-36.08 -175.39,-231.38 -181.7,-237.73 -30.82,11.07 -46.32,19.06 -46.32,24.12 0,21.36 0.79,53.55 2.5,96.77 1.59,43.32 2.42,24.17 2.42,45.8 0,8.89 -3.61,13.87 -11.35,15 -15.03,2.19 -41.6,3.33 -80.48,3.33 -37.18,0 -61.57,-1.13 -73.51,-3.33 -8.27,-1.68 -12.48,-6.11 -12.48,-13.32 0,-30.81 1.38,-25.79 4.44,-87.95 3.06,-62.16 4.46,-108.75 4.46,-139.82 0,-33.05 -1.41,-82.96 -4.19,-149.26 -3.06,-66.33 -4.45,-116 -4.45,-148.99 0,-6.41 3.02,-9.44 9.16,-9.44 8.61,0 22.18,0.27 39.97,1.12 17.76,1.11 31.08,1.35 39.89,1.35 9.2,0 22.75,-0.24 40.82,-1.35 18.03,-0.85 31.38,-1.12 40.24,-1.12 4.72,0 7.24,2.48 7.24,7.76 0,21.08 -1.11,52.99 -3.38,95.43 -1.94,42.71 -3.01,74.64 -3.01,95.76 0,24.63 7.21,40.75 19.93,36.87 130.42,-41.35 145.64,-171.18 166.48,-225.25 3.35,-6.96 9.75,-10.56 19.44,-10.56 7.22,0 18.58,0.27 33.56,1.12 14.97,1.11 26.1,1.35 33.6,1.35 7.71,0 19.12,-0.24 34.39,-0.8 15.22,-0.56 26.62,-0.84 34.11,-0.84 6.64,0 10.26,3.31 10.26,9.72 0,9.4 -6.11,32.43 -18.03,69.08 -35.47,107.61 -76.05,175.05 -122.09,201.97 -9.42,5.28 -14.14,9.67 -14.14,13.27z"/>
   <path class="fil2" d="M1060.41 1040.69c0,-5.7 -4.16,-8.56 -12.5,-8.56 -8.95,0 -22.16,0.38 -39.54,1.13 -17.38,0.79 -30.47,1.21 -39.44,1.21 -8.85,0 -22.31,-0.42 -40.29,-1.21 -17.93,-0.75 -31.37,-1.13 -40.33,-1.13 -6.59,0 -9.92,2.86 -9.92,8.56 0,27.85 1.03,69.59 3.06,125.25 1.97,55.69 2.97,97.44 2.97,125.24 0,33.04 -2.56,102.2 -7.73,207.59 -2.32,43.97 -3.58,66.96 -3.81,68.93 0.09,6.35 4.23,10.28 12.43,11.78 11.49,2.1 38.22,3.12 80.23,3.12 31.29,0 56.37,-1.02 75.03,-3.12 6.87,-0.75 10.63,-1.26 11.22,-1.54 2.57,-1.31 3.86,-4.58 3.86,-9.72 0,-30.71 -0.8,-76.88 -2.54,-138.52 -1.71,-61.68 -2.59,-107.82 -2.59,-138.52 0,-27.8 1.6,-69.54 4.95,-125.24 3.29,-55.66 4.94,-97.39 4.94,-125.25z"/>
   <path class="fil2" d="M1973.85 1396.09c-4.68,-45.61 -26.45,-92.2 -96.88,-76.88 -81.1,18.84 -116.19,160.16 -141.26,213.62 -50.78,93.43 -133.29,156.68 -218.31,193.99 -390.56,171.42 -654.95,-53.65 -739,-154.69 -35.78,-42.99 -102.67,-140.94 -152.91,-243.89l0 -0.24c0.29,-3.6 4.72,-7.76 13.9,-13.04 46.04,-26.92 86.87,-94.35 122.1,-201.98 11.91,-36.65 18.03,-59.68 18.03,-69.07 0,-6.41 -3.62,-9.73 -10.33,-9.73 -7.43,0 -18.83,0.28 -34.04,0.84 -15.28,0.57 -26.7,0.81 -34.43,0.81 -7.48,0 -18.6,-0.24 -33.57,-1.36 -14.98,-0.84 -26.1,-1.12 -33.56,-1.12 -9.69,0 -16.12,3.6 -19.45,10.57 -20.82,54.06 -36.04,183.89 -166.46,225.25 -12.74,3.88 -19.94,-12.24 -19.94,-36.87 0,-21.13 1.08,-53.05 3.29,-95.76 1.94,-42.44 3.01,-74.35 3.01,-95.42 0,-5.28 -2.45,-7.76 -7.14,-7.76 -8.86,0 -22.2,0.29 -40.27,1.12 -18.03,1.12 -31.62,1.36 -40.8,1.36 -8.53,0 -22.14,-0.24 -39.91,-1.36 -17.75,-0.84 -31.06,-1.12 -39.96,-1.12 -6.12,0 -8.86,3.05 -8.86,9.45 0,32.99 1.39,82.67 4.16,148.98 2.78,66.32 4.19,116.23 4.19,149.28 0,31.07 -1.41,77.66 -4.49,139.82 -3.06,62.15 -4.41,108.75 -4.41,139.54 0,7.19 4.08,11.64 12.48,13.28 11.93,2.24 36.33,3.37 73.51,3.37 38.87,0 65.44,-1.12 80.47,-3.37 7.74,-1.07 11.63,-6.08 11.63,-14.96 0,-21.59 -1.12,-54.06 -2.78,-97.39 -1.62,-43.23 -2.52,-75.43 -2.52,-96.78 0,-5.05 15.02,-12.81 44.98,-23.61l20.26 -9.66c43.5,82.11 114.02,209.45 160.34,262.95 48.55,56.6 94.07,104.32 154.57,140.39 131.22,78.51 291.85,155.9 613.62,103.24 65.62,-10.67 122.13,-28.18 172.13,-51.81l-0.33 0.44c307.59,-129.78 385.19,-389.01 378.92,-450.42z"/>
   <path class="fil2" d="M2140.08 975.96c0.79,10.79 -0.23,22.15 -3.01,33.69 -6.46,26.17 -22.71,45.47 -48.53,57.33 -15.38,7.11 -33.38,11.64 -48.95,15.38 -62.54,14.91 -114.55,38.04 -159,70.7 -13.95,10.23 -27.01,21.82 -39.35,34.96 -6.54,6.97 -12.93,14.4 -19.15,22.24 -3.69,4.73 -13.67,2.67 -14.26,-4.53 -0.6,-8.4 -0.51,-16.82 -0.27,-25.18 0.9,-41.5 9.26,-80.19 24.65,-115.06 5.56,-12.52 11.92,-24.67 16.73,-33.97l4.75 -9.3c33.36,-49.77 70.03,-84.64 114.17,-107.72 32.1,-16.73 61.68,-24.52 90.42,-23.78 30.03,0.79 52.41,14.82 68.42,42.85 7.81,13.61 12.29,27.85 13.38,42.39z"/>
   <polygon class="fil3" points="1996.93,352.21 1996.93,241.93 1962.28,241.93 1962.28,219.49 2055.1,219.49 2055.1,241.93 2020.5,241.93 2020.5,352.21 "/>
   <polygon class="fil3" points="2069.98,352.21 2069.98,219.49 2105.29,219.49 2126.47,310.03 2147.45,219.49 2182.81,219.49 2182.81,352.21 2160.89,352.21 2160.89,247.72 2137.71,352.21 2115.01,352.21 2091.89,247.72 2091.89,352.21 "/>
  </g>
 </g>
</svg>
