<?xml version="1.0" encoding="utf-8"?>
<!-- Generator: Adobe Illustrator 24.3.0, SVG Export Plug-In . SVG Version: 6.00 Build 0)  -->
<svg version="1.1" id="Layer_1" xmlns="http://www.w3.org/2000/svg" xmlns:xlink="http://www.w3.org/1999/xlink" x="0px" y="0px"
	 viewBox="0 0 195.8 72" style="enable-background:new 0 0 195.8 72;" xml:space="preserve">
<style type="text/css">
	.st0{fill-rule:evenodd;clip-rule:evenodd;fill:#FFFFFF;}
</style>
<g id="Layer_2_1_">
	<g id="svg4403">
		<path class="st0" d="M28.5,0.1c1.8,2.5,3.4,4.9,4.9,7.4c-4-1-8.2-1.5-12.4-1.5l-0.2,0.2l-0.3,52.1c0.2,2,1,3.6,1.5,5.4
			c-3.5,0-6.4,0.2-10.2,0.1c1.3-2.3,0.9-5.3,1.2-8L13.1,6.2L13,6.1C8.4,6.2,4.3,7.3,0,8.3l0.1-0.3c1.8-2.5,3.3-5.2,5.1-7.7
			C12.6,0.7,20.1,0.6,27.5,0L28.5,0.1L28.5,0.1z M176.5,8.3c0.6,2.4-0.6,4.9-2.2,6.8c-0.4,0.5-1,0.8-1.6,1c0.4-1.4,0.2-2.9-0.7-4
			c-1-0.6-1.6-1.6-1.5-2.8c0-0.8,0.3-1.5,0.8-2.1c0.9-0.9,2.3-1.1,3.5-0.7C175.7,6.9,176.2,7.5,176.5,8.3L176.5,8.3z"/>
		<path class="st0" d="M34.3,8.9l0.8,1.4c-3.8-1.1-7.7-1.7-11.6-1.9l-0.1,0.3l-0.7,29.8l0.1,17.7c0,2.1,0.2,4.2,0.6,6.3
			c-1.4-1.3-1.6-3.5-1.8-5.5l-0.1-8.3c-0.2-0.2,0.1-0.6,0.1-0.8l0.1-16.7l0.2-24.4C26.1,6.9,30.3,7.6,34.3,8.9L34.3,8.9z M12.1,7.3
			c-0.1,0.4,0.2,1.1-0.2,1.2c-3.5,0.3-7,0.9-10.5,1.9c-0.3-0.4-0.7-0.8-0.6-1.3c3.6-1.3,7.4-2,11.2-2.1L12.1,7.3L12.1,7.3z
			 M176.8,14.8c-0.6,1.4-1.6,2.5-2.8,3.4c-1.8-1.5,1.4-1.9,1.7-3.2c1-1.3,1.6-2.9,1.8-4.6C177.8,11.9,177.5,13.5,176.8,14.8z
			 M191.3,17.9l0.2,0.3l-0.1,7.8c-2-2.1-3.9-5.4-7.3-5.2c-1.1,0.1-2,0.7-2.4,1.7c-0.5,1.6-0.2,3.4,0.8,4.8
			c4.4,6.5,12,11.8,11.1,20.4c-0.4,3.3-2.4,6.1-5.4,7.5c-3.5,1.7-8.3,0.7-11.5-1.3v-7c2.3,2.4,5,5.3,8.4,4c1.3-0.7,2.2-2.1,2.1-3.5
			c-0.6-8-9.9-11.6-11.2-19.2c-0.7-3.5,0-7.2,2.8-9.5c3-2.9,8.2-2.3,11.7-0.8C190.8,17.8,191,18.1,191.3,17.9L191.3,17.9z
			 M93.9,20.5v8.3c-1.7-2.4-2.6-6.7-6.4-6.6c-2.1,0.3-3.5,2.5-4,4.4c-1.4,6.3-1.5,12.8-0.3,19.1c0.6,2.4,1.8,5,4.4,5.3
			c3-0.2,5.1-3,6.7-5.3c0.2,2.5,0.1,5.2,0.2,7.8c-2.3,3-6.2,3.7-9.8,3c-8.6-3.6-8.8-13.6-8.6-22c0.2-4.3,1.2-8.4,3-12.3
			c2-3.3,5.6-5.5,9.6-4.7C90.7,17.8,92.5,18.9,93.9,20.5L93.9,20.5z M107.1,17.5c-0.1,1-0.7,1.9-0.7,3l0.1,12c2.3,0.3,4.4,0,6.5,0.1
			l0.1-0.3V19.4l-0.5-1.9c2.4-0.1,4.9-0.1,7.4,0l-0.3,1.6l0.1,34.1c0.2,0.7,0.5,1.4,0.8,2.1c-2.6,0-5.3,0.2-8,0
			c0.4-1.3,0.7-2.7,0.7-4.1l-0.2-13.7c-2.2-0.3-3.9,0-6.4-0.1l-0.1,0.8l0.2,15c0.2,0.7,0.5,1.4,0.8,2l-8.2,0.1
			c0-1.2,0.7-2.3,0.8-3.5l-0.2-32c-0.1-0.8-0.3-1.6-0.4-2.4C102.5,17.5,104.8,17.3,107.1,17.5L107.1,17.5z M142.4,17.4
			c1,1.4,1.7,3,2,4.7c-3-0.7-6.1-0.9-9.2-0.7l-0.2,0.3v10.6l0.3,0.2c2.3-0.1,4.8,0.1,6.9-0.6c0.1,2.4,0,4.2,0,6.2
			c-2.3-0.7-4.6-0.9-6.9-0.8l-0.2,0.3v13.2l0.2,0.2c3.2,0.1,6.8,0.3,9.6-0.9c-0.2,1.8-0.8,3.5-1.6,5.1l-0.2,0.2h-16
			c1.9-3.6,1.3-8.4,1.5-12.1c0.1-7.4,0.1-16.1-0.3-23.5c-0.2-0.7-0.4-1.4-0.8-2.1l0.2-0.2L142.4,17.4z"/>
		<path class="st0" d="M44.8,17.6c1,1.4,1.7,3,1.9,4.7c-3-0.7-6.1-0.9-9.1-0.7c-0.2,3.5-0.2,7.6-0.1,10.9c1.4,0.2,2.9,0.2,4.3,0.1
			l2.7-0.6c0.1,2,0.1,4,0.1,6.3l-0.1,0.1c-2.1-0.9-4.6-0.9-7-0.9c-0.2,5.5-0.1,8.1-0.1,13.5l0.5,0.2c3.2,0.1,6.4,0.2,9.1-1
			c0,1.8-1,3.5-1.6,5.2c-5.2,0.2-10.8,0.2-16.1,0.1c1.8-3,1.2-7.1,1.6-10.7l-0.1-22.4c0-1.6-0.2-3.2-0.8-4.7
			C34.9,17.5,39.9,17.6,44.8,17.6L44.8,17.6z M121.6,20.2v35.2c-0.8-0.6-0.8-1.8-0.8-2.8c-0.2-4.3,0-6.8-0.2-10.5V19.8
			c0.1-0.5,0.4-1,0.8-1.3C122.4,18.7,121.4,19.6,121.6,20.2z M108.8,18.7c-0.7,4.5,0,7.9-0.3,12.7c-0.3,0.2-0.7,0.2-1,0.1l0.1-11.6
			C107.6,19.3,108.1,18.7,108.8,18.7z M193.3,29.2c-0.3-0.1-0.5-0.5-0.8-0.6v-9.3l0.8,0.9V29.2z M68.7,26l4.8,25
			c0.2,1.1,0.4,2.2,0.6,3.4c-0.8-0.6-1.4-1.5-1.5-2.5l-2.7-13.2L66.3,20l0.2-0.2C68.5,21.1,68,23.9,68.7,26z M169.4,52.3l-4.9-15.5
			v-0.6c1.2-0.7,2.3-1.6,3.2-2.6c3-3.5,2.5-9.5,0.7-13.2c-1.2-2-3.4-2.8-5.6-3c-4.6-0.1-9.1-0.1-13.6,0c0.6,1.6,1,3.3,1.2,5v26
			c0.2,2.4-0.6,4.6-1.1,6.8c2.8,0,5.4,0.1,8-0.1c-0.3-0.7-0.5-1.4-0.6-2.2c-0.1-5.1-0.1-10.1,0-15.2c0.6-0.1,1.3-0.2,1.7,0.1l4,13.2
			c0.2,1.3,1,2.7,0.4,4l0.1,0.2c2.8-0.1,5.8,0.1,8.4-0.2C170.3,54.2,169.7,53.3,169.4,52.3L169.4,52.3z M161.3,31.7
			c-1.3,0.9-3,0.5-4.5,0.6l-0.2-0.2V21.5l0.3-0.2c2.1,0,4.4-0.4,5.4,1.8C163.6,25.8,163.4,29.6,161.3,31.7z"/>
		<path class="st0" d="M171.5,30.8c-0.8,2.6-2.4,4.9-4.6,6.5l0.7,2.6l4.6,14.2c-1-0.6-1.5-2-2.1-3.1c-1.7-4.6-3.3-9.3-4.7-14.1
			l0.2-0.3c3.9-2.1,5.4-6.6,5.2-11c0.1-1.4-0.6-2.6-0.6-4C171.9,24.3,172.4,27.6,171.5,30.8L171.5,30.8z M185.5,22
			c-0.6,0.3-1.8,0.9-2.1,1.8c-0.4,0.9-0.4,2,0,2.9c-0.6,0-0.7-0.9-0.9-1.4c-0.3-0.9-0.1-2,0.4-2.8C183.6,21.9,184.6,21.6,185.5,22
			L185.5,22z M95.9,23c0.1,2.9,0.1,6.2,0,9L95,31.3v-9L95.9,23z M143.5,23.7c-1.9-0.3-3.9-0.4-5.8-0.2l-0.2,0.3l0.1,7.6
			c-0.4,0.1-0.8,0.1-1.3,0.1l-0.2-0.3l0.1-8.9c2.5-0.1,5.2-0.2,7.2,1.2V23.7z M161,23c-0.6,0.2-1.5-0.2-2,0.4l-0.1,7.8h-1
			c-0.2-3-0.1-5.6-0.1-8.8C158.8,22.4,160.5,21.8,161,23z M45.7,23.7l-0.1,0.2c-1.9-0.3-3.9-0.3-5.8-0.1c-0.2,2.4,0.2,5,0,7.8h-1.3
			c-0.2-3-0.2-6.1-0.2-9.1c2.4,0,4.7-0.3,6.9,0.8L45.7,23.7z M88.7,23.4c-2.4,0.9-3,3.7-3.5,5.9c-1,6.7-1.2,14.5,1.7,20.4
			c-1.4-0.3-1.9-1.9-2.4-3.1c-1.7-6.8-1.8-15,0.6-21.5c0.5-0.9,1.3-1.5,2.3-1.8C87.7,23.1,88.2,23.2,88.7,23.4L88.7,23.4z
			 M71.6,52.1l-5.9-31.1l-0.8-3.3c-3.2-0.2-5.9,0.2-8.7,0c0.3,1,0.5,2.1,0.4,3.2l-6.1,31.6l-1,3l0.1,0.1c2.2,0.1,4.4,0.1,6.6-0.1
			c-0.3-0.7-0.6-1.4-0.7-2.1c0.2-2.7,0.6-5.3,1.2-7.9h6.4l0.5,0.2l1.1,6.8c0.2,1,0,2.1-0.5,3c2.9,0.1,5.9,0.1,8.8-0.1
			C72.3,54.4,71.8,53.2,71.6,52.1L71.6,52.1z M57.5,40.6c0.8-4.5,1.7-8.9,2.7-13.2C61,31.7,62,36,62.7,40.5L57.5,40.6z"/>
		<path class="st0" d="M59.7,39.2c-0.2,0.3-0.7,0.2-0.9,0.1l-0.1-0.1c0.3-2.4,0.7-4.8,1.2-7.2C61.2,34.3,60,36.7,59.7,39.2z
			 M144.3,33.7V41c-0.4,0.1-0.8-0.2-1-0.6V33C143.8,32.8,144.1,33.3,144.3,33.7L144.3,33.7z M46.5,33.8c0.1,2.8,0.1,4.9,0.1,7.4
			c-0.4,0.1-0.8-0.2-1-0.5v-7.6C46,33,46.5,33.4,46.5,33.8z M140.3,39.2c-0.9,0.2-2.2-0.1-2.8,0.8V50c-0.4,0.1-0.9,0.1-1.3,0
			l-0.1-11.6C137.5,38.2,139.4,37.9,140.3,39.2z M111.5,39.3l-2.7,0.1c-0.3,5.3-0.2,10.6,0.2,15.9c-0.5-0.2-0.7-0.9-1-1.4l-0.3-2.3
			V38.4c1.3-0.1,2.5-0.1,3.8,0L111.5,39.3L111.5,39.3z M44.2,39.8c-1.5-0.1-3.3-0.8-4.4,0.3v10c-0.4,0-1.1,0.2-1.3-0.2V38.8
			c0.2-0.4,0.9-0.2,1.3-0.3C41.3,38.5,43.2,38.4,44.2,39.8z M158.6,43.8v11c-0.7-0.1-0.7-1.1-0.9-1.7c-0.3-4.2-0.3-8.4-0.1-12.7
			C158.4,41.3,158.4,42.7,158.6,43.8L158.6,43.8z M193.8,53.5c-2.2,3.3-6,5.2-10,4.9c-1.9-0.2-4-0.3-5.1-2.1c1.9,0.7,3.9,1,5.9,0.9
			c4-0.1,8-3.3,9.4-7.1c0.8-2.1,0.6-4.7,0.4-7C195.9,46.5,195.6,50.4,193.8,53.5L193.8,53.5z M62.2,46.3c0.3,0.3,0.5,0.8,0.3,1.2
			l-3.8,0.2l-0.3,0.2l-1.1,6.9c-1-0.8-0.8-2.6-0.8-3.9c0.2-1.6,0.5-3.1,1-4.6L62.2,46.3z M96.5,47.4l-0.1,7.1c-2.7,3.3-7,4.8-11.2,4
			c-1.3-0.5-2.4-1.3-3.3-2.3c3.1,2,7.8,1.8,10.9,0c1.1-0.7,2-1.6,2.7-2.6v-7.1C95.9,46.6,96.4,46.9,96.5,47.4z M146.2,51.6
			c-0.4,2-0.9,3.9-1.6,5.8l-0.2,0.2h-16.2c-0.2-0.3-0.5-0.7-0.4-1.1l15.9-0.1c0.8-1.7,1.6-3.4,2.2-5.2
			C146.1,51.1,146.1,51.3,146.2,51.6L146.2,51.6z M173.8,57.2l-0.3,0.3H164c-0.3-0.2-0.4-0.6-0.2-1l0.2-0.1h9.4
			C173.6,56.6,173.9,56.8,173.8,57.2z M160.1,56.4c0.3,0.2,0.7,0.4,0.7,0.8s-0.3,0.6-0.7,0.4h-9.2c-0.3-0.2-0.2-0.7-0.2-1.1
			C153.7,56.2,157,56.4,160.1,56.4z M110.1,56.5c0.3,0.2,0.6,0.6,0.4,0.9l-0.5,0.3h-9.4c-0.6-0.2-0.2-0.7-0.2-1.1
			c0-0.1,0.1-0.2,0.2-0.2L110.1,56.5z M123.1,56.5c0.3,0.2,0.8,0.5,0.5,0.9l-0.3,0.2h-9.6c-0.3-0.1-0.5-0.5-0.3-0.8
			c0-0.1,0.1-0.2,0.2-0.2l0.1-0.2L123.1,56.5z M75,56.6c0.5,0.2,0.8,0.6,0.9,1.1c-3.5,0.1-7.2,0-10.9,0.1c-0.3-0.3-0.6-0.7-0.7-1.1
			C68,56.7,71.5,56.4,75,56.6z M57.8,56.6c0.5,0.2,0.9,0.6,1.1,1.2h-8.5c-0.4-0.2-0.7-0.6-0.8-1.1C52.4,56.6,55.1,56.5,57.8,56.6
			L57.8,56.6z M46,56.6c0.4,0.1,0.2,0.5,0.1,0.8l-0.5,0.3H30.9c-0.3-0.3-0.6-0.6-0.8-1C35.3,56.6,40.7,56.6,46,56.6z M23.7,64.9
			c0.2,0.4,0.4,0.8,0.6,1.3H13.6c-0.3-0.3-0.5-0.7-0.3-1.1c1.8-0.2,3.7,0,5.4-0.2H23.7z M191.7,71.3c0.9,0,1.8-0.3,2.4-1
			c0.7-0.6,1-1.5,1-2.4c0-0.9-0.3-1.9-1-2.5c-1.3-1.3-3.5-1.3-4.9,0c0,0,0,0,0,0c-0.7,0.7-1,1.6-1,2.5c0,0.9,0.3,1.8,1,2.4
			C189.9,71,190.8,71.3,191.7,71.3L191.7,71.3z M194.6,70.7c-0.8,0.8-1.8,1.3-2.9,1.3c-1.1,0-2.1-0.5-2.8-1.3
			c-0.8-0.7-1.3-1.8-1.3-2.9c0-1.1,0.4-2.2,1.3-3c0.7-0.8,1.8-1.3,2.8-1.3c1.1,0,2.2,0.5,2.9,1.3c0.8,0.8,1.2,1.9,1.2,3
			C195.7,68.9,195.3,70,194.6,70.7L194.6,70.7z"/>
		<path class="st0" d="M190,69.8v-4.2h1.8c0.3,0,0.7,0,1,0.1c0.2,0.1,0.4,0.2,0.5,0.4c0.1,0.2,0.2,0.4,0.2,0.7
			c0,0.3-0.1,0.5-0.2,0.8c-0.2,0.2-0.5,0.4-0.8,0.4c0.2,0.1,0.3,0.2,0.4,0.3c0.2,0.2,0.4,0.4,0.5,0.7l0.5,0.8h-1l-0.6-0.9
			c-0.2-0.2-0.3-0.4-0.5-0.6c0-0.1-0.1-0.2-0.2-0.2S191.2,68,191,68h-0.2v1.8L190,69.8z M190.8,67.4h0.7c0.4,0,0.7,0,0.8-0.1
			s0.2-0.1,0.2-0.2s0.1-0.2,0.1-0.3c0-0.1-0.1-0.2-0.2-0.3c-0.1-0.1-0.2-0.1-0.2-0.2h-1.3C190.8,66.3,190.8,67.4,190.8,67.4z"/>
	</g>
</g>
</svg>
