<?xml version="1.0" encoding="utf-8"?>
<!-- Generator: Adobe Illustrator 24.3.0, SVG Export Plug-In . SVG Version: 6.00 Build 0)  -->
<svg version="1.1" id="Layer_1" xmlns="http://www.w3.org/2000/svg" xmlns:xlink="http://www.w3.org/1999/xlink" x="0px" y="0px"
	 viewBox="0 0 800 800" style="enable-background:new 0 0 800 800;" xml:space="preserve">
<style type="text/css">
	.st0{fill:#FFFFFF;}
</style>
<path class="st0" d="M0,175.5l67.4,153l67.4-153L0,175.5z M67.4,428.8c23.3,0,42.2-18.9,42.2-42c0-23.3-18.9-42.1-42.2-42.1
	c-23.3,0-42.2,18.8-42.2,42.1C25.2,410,44.1,428.9,67.4,428.8L67.4,428.8z M30.9,540.9c0,31.9,28.7,83.6,110.5,83.6
	c81.8,0,110.5-39.6,110.5-83.6V175.5h-73l0,378.1c0,20.7-16.8,38-37.5,38c-20.8,0-37.6-16.8-37.6-37.5l-0.1-77H30.9L30.9,540.9z
	 M307.2,617.9V175.5H453c28.1,0,72.9,23.1,72.9,72.1v75.4c0,22-19.3,61.1-48,61.1c28.7,0,48,24.7,48,43.5v132.6
	c0,22.6-18.2,57.8-72.9,57.8L307.2,617.9z M419.9,366c26.5,0,33.1-4.5,33.1-73.8c0-69.3-6.6-74.9-33.1-74.9h-39.8v148.6L419.9,366z
	 M453,493c0-69.4,0-89.7-28.8-89.7h-44.2v178.3l44.2,0.1C453,581.7,453,562.3,453,493L453,493z M579,617.9h221V477.1h-73l0.1,77
	c0,20.7-16.8,37.5-37.6,37.5c-20.7,0-37.6-16.8-37.6-37.5V175.5H579L579,617.9z"/>
</svg>
