<svg xmlns="http://www.w3.org/2000/svg" viewBox="0 0 172.95 49.03"><defs><style>.cls-1,.cls-2,.cls-3{fill:#be1532;}.cls-2{font-size:8.47px;font-family:MyriadPro-Regular, Myriad Pro;}.cls-3{font-size:11.93px;font-family:MyriadPro-Semibold, Myriad Pro;font-weight:600;letter-spacing:0em;}.cls-4{letter-spacing:0em;}</style></defs><g id="Layer_2" data-name="Layer 2"><g id="Layer_1-2" data-name="Layer 1"><path class="cls-1" d="M91.33,31.44V1.9c4.94.25,9.81.23,14.6.83,3.54.44,5.45,3.3,5.64,7.67s.19,8.65,0,13c-.21,4.82-2.89,7.46-7.73,7.77-3.62.24-7.27.22-10.91.31Zm7.57-5.59c3.73.5,5-.32,5.2-3.76.2-3.75.18-7.52,0-11.27C104,8,102,6.89,98.9,7.69Z"/><path class="cls-1" d="M136.72,31.35h-4.93c-.19-.41-.41-.91-.63-1.4a1,1,0,0,0-.36.06c-6.61,4.45-13.85,1.08-14.54-7.08a98.06,98.06,0,0,1,.27-14.23c.21-3.34,2.28-5.53,5.43-6.6A14.7,14.7,0,0,1,131.07,2c3.88,1.17,5.85,4.87,5.28,9.87h-7c-.13-1.06-.18-2-.38-3a2.4,2.4,0,0,0-2.56-2.19,2.28,2.28,0,0,0-2.46,2.28q-.12,7.86,0,15.71a2.16,2.16,0,0,0,2.16,2.16c1.37.12,2.56-.34,2.93-1.71a33.39,33.39,0,0,0,.62-4.39l-3.06-.29v-4.8h10.14Z"/><path class="cls-1" d="M78.17,2.21h7.2c.13.18.25.28.25.37,0,7.11.16,14.23,0,21.33-.13,4.54-2.56,7.05-7,7.69a22.58,22.58,0,0,1-6.09.06c-4.24-.57-6.64-2.52-6.86-6.74-.39-7.5-.11-15-.11-22.68h7.2V4.15c0,5.57,0,11.14,0,16.7,0,1.23.18,2.46.31,3.69a2.45,2.45,0,0,0,4.84-.08,49.14,49.14,0,0,0,.31-5C78.19,13.79,78.17,8.1,78.17,2.21Z"/><path class="cls-1" d="M149.59,18.91V25.5h10.2v5.84H142.2V2.25h17.53V7.66H149.65v5.56h9.28v5.69Z"/><path class="cls-1" d="M41.57,21.5h6.72c.08,1.1.2,2.13.24,3.16s.38,2.16,1.74,2.15,1.59-1.17,1.62-2.25c0-1.91,0-3.83,0-5.74V2.24h7.38c.05.51.13.93.13,1.34,0,7.05,0,14.09-.1,21.13,0,4-1.87,6.29-5.85,6.84a23.23,23.23,0,0,1-7-.21c-3-.51-4.48-2.72-4.9-5.58A29.9,29.9,0,0,1,41.57,21.5Z"/><path class="cls-1" d="M22,7.64c2-.24,4-.52,6-.69a1.38,1.38,0,0,1,1,.71c.87,2,1.66,4.09,2.58,6.37l-2.73.54v6.11L25.76,21l2,6.4L22,29.51Zm4,19.14c-.55-1.81-1-3.39-1.53-5-.1-.27-.47-.46-.72-.69-.21.25-.6.49-.6.74-.06,1.87,0,3.74,0,5.83Z"/><path class="cls-1" d="M20.19,32,7.53,28.34c-1.83-.53-3.65-1.11-5.48-1.62-1-.29-2.39-.61-2-1.89a6.15,6.15,0,0,1,2.34-2.51c.37-.27,1.2-.07,1.78.1,4.91,1.39,9.8,2.85,14.71,4.23.91.26,1.36.65,1.29,1.65S20.19,30.59,20.19,32Z"/><path class="cls-1" d="M20.19,25.39c-5.45-1.59-10.53-3-15.58-4.56-1.45-.44-1.5-1.55-.84-2.67.92-1.57,2.38-1.82,4-1.35C11.52,17.89,15.23,19,19,20.05a1.4,1.4,0,0,1,1.24,1.67C20.12,22.82,20.19,23.92,20.19,25.39Z"/><path class="cls-1" d="M20.18,18.77C15.9,17.52,11.94,16.39,8,15.19a1.72,1.72,0,0,1-.76-2.83,3,3,0,0,1,3.38-1.31c2.85.79,5.7,1.58,8.52,2.46a1.78,1.78,0,0,1,1,1.24A37.38,37.38,0,0,1,20.18,18.77Z"/><path class="cls-1" d="M28.18,4.78c-5.12,2.19-9.75.49-14.4-.91-.32-.1-.54-.52-.81-.8.34-.29.67-.8,1-.83,4-.27,8-.55,12-.64C28.15,1.56,27.8,3.5,28.18,4.78Z"/><path class="cls-1" d="M20,12.08c-3-.87-5.91-1.64-8.75-2.57-1.34-.44-1.22-1.64-.67-2.6a2.88,2.88,0,0,1,3.25-1.56c.89.19,1.77.5,2.65.76C20.58,7.32,20.58,7.32,20,12.08Z"/><path class="cls-1" d="M167.47,0a5.41,5.41,0,0,1,5.47,5.38v0A5.48,5.48,0,1,1,167.42,0ZM163,5.43a4.54,4.54,0,0,0,4.5,4.59h.05a4.89,4.89,0,0,0,4.59-4.55A4.49,4.49,0,0,0,167.66.93h-.14A4.45,4.45,0,0,0,163,5.28Z"/><text class="cls-2" transform="translate(165.1 8.26)">R</text><text class="cls-3" transform="translate(83.21 46.05)">Sin<tspan class="cls-4" x="16.25" y="0">c</tspan><tspan x="21.57" y="0">e 1896, UK</tspan></text></g></g></svg>