<?xml version="1.0" encoding="utf-8"?>
<!-- Generator: Adobe Illustrator 24.3.0, SVG Export Plug-In . SVG Version: 6.00 Build 0)  -->
<svg version="1.1" id="Layer_1" xmlns="http://www.w3.org/2000/svg" xmlns:xlink="http://www.w3.org/1999/xlink" x="0px" y="0px"
	 viewBox="0 0 690.8 251" style="enable-background:new 0 0 690.8 251;" xml:space="preserve">
<style type="text/css">
	.st0{fill:#4C4C4C;}
	.st1{fill:#C00808;}
	.st2{fill:#FFFFFF;}
	.st3{font-family:'DroidSans-Bold';}
	.st4{font-size:16.04px;}
	.st5{fill:url(#SVGID_1_);}
	.st6{fill:url(#SVGID_2_);}
	.st7{fill:url(#SVGID_3_);}
	.st8{fill:url(#SVGID_4_);}
</style>
<g id="Layer_2_1_">
	<g id="Layer_1-2">
		<polygon class="st0" points="251.5,2.4 303.1,109.6 227.7,207.1 341.9,116.5 		"/>
		<polygon class="st0" points="277.4,27.2 344.8,114.6 431,47 347.5,87.2 		"/>
		<polygon class="st0" points="348.1,117.6 385.9,86.5 364.8,118.8 376.6,152.8 		"/>
		<polygon class="st0" points="307.5,149.5 342.7,120.4 412.5,206.5 341.1,137.6 		"/>
		<path class="st1" d="M530.1,250.7c-9,0-17.3,0.1-25.6-0.1c-0.9,0-1.9-1.4-2.5-2.4c-4.1-6.1-8-12.3-12.1-18.5c-0.7-1-1.4-2-2.2-3.2
			l-26.4,17.4h28.9c-0.9,6-1.7,6.8-6.9,6.8c-19.5,0-38.9,0-58.4,0.1c-2.4,0-3.9-0.6-5.1-2.8c-2.7-4.5-5.5-8.9-8.5-13.2
			c-1.5-2.1-1.9-4.2-0.2-6c1-1,2.8-1.4,4.3-1.8c2.9-0.6,6-0.5,8.7-1.4c1.3-0.4,2-2.5,3-3.8c-1.4-0.8-2.8-2.1-4.2-2.2
			c-10.6-0.8-10.6-0.7-15,9c-2.8,6.4-5.8,12.7-8.5,19.1c-0.9,2.1-2,3.1-4.4,3c-6-0.2-12-0.1-18.5-0.1c1.2-3,2.3-5.6,3.5-8.1
			c3.9-8.8,7.9-17.5,11.7-26.2c1-2.3,2.2-3.2,4.7-3.2c14.5,0.1,29,0,43.4,0.1c3.7,0,7.5,0.1,9.3,4.1c1.4,3.1-0.4,8-4.3,10.8
			c-3.3,2.3-7.1,3.9-11.2,6.1l10.7,15.6c9.2-6,18.2-11.8,27.1-17.7c8.8-5.7,17.5-11.4,26.3-17.2c5.1-3.4,8.9-2.6,12,2.5
			c6.1,9.8,12.2,19.7,18.3,29.5C528.7,247.9,529.2,249,530.1,250.7z"/>
		<path class="st1" d="M140.9,250.7c-4.5,0-9,0-13.5,0c-9.2-0.1-13.4-5.1-11.4-14c2.5-10.7,13-24,28.6-23.6c8.5,0.2,17,0,25.4,0.1
			c10.6,0.1,14.6,6,11.2,16c-3.8,11.2-15.3,22.8-29.9,21.6C147.9,250.5,144.4,250.7,140.9,250.7z M143.6,244.1
			c2.9,0.4,6.4-0.1,8.1-3.2c3.1-5.5,5.8-11.2,8.2-17c0.4-0.9-0.6-3.3-1.6-3.8c-4.9-2.4-12-0.1-14.6,4.7c-2.1,4-3.9,8-5.5,12.2
			C136,242.7,137.1,244.1,143.6,244.1L143.6,244.1z"/>
		<path class="st1" d="M27.1,244.1c-4.4-4-8-7.3-11.6-10.7c-1.4-1.2-2.7-2.6-3.9-4c-2.9-3.8-2.5-8.2,1.4-10.8
			c3.5-2.1,7.2-3.8,11.1-4.9c2.1-0.7,4.5-0.5,6.7-0.5c10.7-0.1,21.4,0,32.2,0c-1.1,6.1-1.5,6.4-7.2,6.4c-5.2,0-10.5,0-15.7,0
			c-1.2,0-2.4,0.1-4.5,0.2l12.6,11.9c0.6,0.6,1.3,1.2,1.9,1.8c6.1,6.4,4.7,12.2-3.6,14.9c-3.3,1.2-6.7,1.8-10.2,2
			c-12.1,0.2-24.2,0.1-36.3,0.1c0.8-5.7,1.5-6.4,7.2-6.4L27.1,244.1z"/>
		<path class="st1" d="M320.2,213.2c-1.5,6.3-1.6,6.4-7.2,6.4c-6.6,0-13.2,0.1-19.8,0c-4.1-0.1-7.4,1.4-9.2,5.2
			c-2.2,4.4-4.4,8.9-6.1,13.6c-1.5,4.1-0.1,5.8,4.3,5.8c8.1,0,16.1,0,24.3,0c-1.4,6.4-1.6,6.6-7.5,6.6c-10.6,0-21.2,0-31.8,0
			c-9.8,0-13.9-5.4-11.3-14.8c3.5-13.5,15.7-22.9,29.7-22.7c10.1,0,20.2,0,30.3,0L320.2,213.2z"/>
		<path class="st1" d="M183.5,213.2c9.1,0,17.3-0.1,25.5,0.1c1.1,0,2.4,1.5,3.2,2.7c4.7,7,9.2,14.1,14,21.4
			c11.7-7.6,23.1-15.2,34.7-22.5c2.2-1.4,5.3-1.5,8-2.2l0.4,1.3c-0.8,0.6-1.6,1.4-2.5,1.9c-16.9,11-33.8,22.1-50.7,33.1
			c-5.1,3.3-8.8,2.5-11.9-2.6C197.5,235.6,190.8,224.9,183.5,213.2z"/>
		<path class="st1" d="M123.2,213.2c-1,6.1-1.4,6.4-6.6,6.4c-4.1,0.1-9-1.1-12,0.9c-2.8,1.8-3.6,6.8-5.3,10.4
			c-2.6,5.7-5.1,11.3-7.6,17c-0.8,1.9-1.8,2.9-4.1,2.9c-6-0.2-12-0.1-18.8-0.1c4.6-10.4,9-20.4,13.7-30.9H66.9
			c1.4-6.5,1.5-6.6,7.3-6.6L123.2,213.2L123.2,213.2z"/>
		<path class="st1" d="M606.7,250.7l13.7-31H605c0.9-6.1,1.4-6.5,6.7-6.5H661c-0.9,5.8-1.5,6.4-6.5,6.4c-3.2-0.1-6.5-0.1-9.7,0.1
			c-1.6,0.3-2.9,1.2-3.8,2.5c-3.9,8.3-7.7,16.7-11.3,25.2c-1.1,2.6-2.5,3.5-5.3,3.4C618.8,250.6,613.2,250.7,606.7,250.7z"/>
		<path class="st1" d="M603,213.3c-1.6,6.3-1.6,6.3-7.2,6.3c-6.5,0-13,0.1-19.5-0.1c-5-0.1-8.3,2.1-10.3,6.5
			c-3.3,7.2-6.6,14.5-9.8,21.8c-0.9,2.1-2.1,3-4.5,2.9c-6.3-0.1-12.7-0.1-19.8-0.1c5.6-10.2,7.6-21.7,16.1-29.7
			c4.8-4.5,10.2-7.7,16.9-7.7C577.5,213.2,590.1,213.3,603,213.3z"/>
		<path class="st1" d="M345.3,213.2c-0.5,1.6-0.8,2.6-1.3,3.6c-4.6,10.3-9.3,20.6-13.7,31c-0.9,2.2-2,3-4.4,2.9
			c-6-0.1-11.9-0.1-18.4-0.1c1.2-2.9,2.2-5.4,3.3-7.8c3.9-8.8,7.9-17.4,11.7-26.3c1.1-2.5,2.4-3.6,5.2-3.5
			C333.4,213.3,339.1,213.2,345.3,213.2z"/>
		<path class="st1" d="M387.2,214.2l-27.5,12.7l16,23.8c-8.1,0-15.3,0.1-22.4-0.1c-0.8,0-1.7-1.3-2.3-2.1c-3-4.6-6-9.2-9-13.8
			c-2-3.1-1.1-6.9,2.1-8.4c9.3-4.3,18.4-8.9,28-12.3c4.5-1.6,9.8-0.8,14.7-1L387.2,214.2z"/>
		<path class="st1" d="M284,233.5c1.7-6.4,1.7-6.4,7.7-6.4h22.4c-1.6,6.4-1.6,6.4-7.3,6.4H284z"/>
		<path class="st1" d="M567,233.5c1-6,1.5-6.4,6.8-6.4h22.7c-0.5,5.6-1.4,6.4-6.5,6.4H567z"/>
		<path class="st2" d="M690.8,201.2c0.1,5.8-4.6,10.5-10.4,10.6c-0.1,0-0.2,0-0.3,0c-5.9,0-10.7-4.8-10.7-10.7
			c0-5.9,4.8-10.7,10.7-10.7s10.7,4.8,10.7,10.7C690.8,201.1,690.8,201.1,690.8,201.2z M685.9,207.6c4-3.5,4.4-8.6,1-12.4
			c-3.2-3.7-8.9-4.1-12.6-0.9c0,0-0.1,0.1-0.1,0.1c-3.7,3.2-4.1,8.8-0.8,12.5c0.1,0.1,0.1,0.1,0.2,0.2c3.4,3.8,8.7,3.9,12.5,0.4
			L685.9,207.6z"/>
		<text transform="matrix(1 0 0 1 674.75 207.07)" class="st2 st3 st4">R</text>
		
			<radialGradient id="SVGID_1_" cx="285.055" cy="150.78" r="81.7782" gradientTransform="matrix(1 0 0 -1 0 252)" gradientUnits="userSpaceOnUse">
			<stop  offset="0" style="stop-color:#FFFFFF"/>
			<stop  offset="1" style="stop-color:#C4C5C5"/>
		</radialGradient>
		<polygon class="st5" points="252.9,0 304.5,107.2 229.1,202.4 341,114.3 		"/>
		
			<linearGradient id="SVGID_2_" gradientUnits="userSpaceOnUse" x1="277.89" y1="184.565" x2="431.54" y2="184.565" gradientTransform="matrix(1 0 0 -1 0 252)">
			<stop  offset="0" style="stop-color:#C8C9C9"/>
			<stop  offset="0.73" style="stop-color:#FFFFFF"/>
			<stop  offset="1" style="stop-color:#C4C5C5"/>
		</linearGradient>
		<polygon class="st6" points="277.9,23.7 345.3,111.1 431.5,43.6 348.1,83.7 		"/>
		
			<radialGradient id="SVGID_3_" cx="366.85" cy="134.22" r="26.8485" gradientTransform="matrix(1 0 0 -1 0 252)" gradientUnits="userSpaceOnUse">
			<stop  offset="0" style="stop-color:#FFFFFF"/>
			<stop  offset="1" style="stop-color:#C4C5C5"/>
		</radialGradient>
		<polygon class="st7" points="348.1,114.8 385.6,84.8 364.1,116.9 377.5,150.8 		"/>
		
			<radialGradient id="SVGID_4_" cx="360.01" cy="91.89" r="47.6814" gradientTransform="matrix(1 0 0 -1 0 252)" gradientUnits="userSpaceOnUse">
			<stop  offset="0" style="stop-color:#FFFFFF"/>
			<stop  offset="1" style="stop-color:#C4C5C5"/>
		</radialGradient>
		<polygon class="st8" points="307.5,146.4 343.9,117.8 412.5,202.4 342.3,133.8 		"/>
	</g>
</g>
</svg>
