<svg xmlns="http://www.w3.org/2000/svg" viewBox="0 0 311.17 399.19"><defs><style>.cls-1{fill:#fff;}.cls-1,.cls-2{fill-rule:evenodd;}.cls-2{fill:#000003;}</style></defs><g id="Layer_2" data-name="Layer 2"><g id="Layer_1-2" data-name="Layer 1"><path class="cls-1" d="M154.82,126.28c.27-.09.39-.14.06-.13,0,0,0,0-.06.13Zm0-3.87c1.52,0,2.39,1.41,2.44,4.66h0c0,3.51,0,12.12,0,23.08,0,31.46,0,82.37.91,87.31h0c.46,2.52,1,13.16,1.6,26,.85,19.92,1.66,45.14,1.89,53.47H158c-.23-8.33-1-33.53-1.88-53.31-.55-12.73-1.11-23.21-1.54-25.5v0c-.91-5.2-.94-56.35-.95-88,0-7.73,0-14.29,0-18.71-1.88,8.21-5.35,24.23-7.74,35.25-1.12,5.19-2,9.31-2.48,11.17-1,4.06-1.52,17.4-1.78,31.37-.26,13.69-.26,28.63-.26,35.3,0,2.69.09,6.35.19,10.83.42,17.57,1.11,47.23-1.7,61.58H136c2.86-13,2.14-43.62,1.72-61.49-.12-4.83-.21-8.76-.21-10.92,0-6.45,0-20.87.27-35.36.26-14.22.8-27.87,1.89-32.22.44-1.75,1.33-5.87,2.45-11.05C145.74,149.41,151.57,122.46,154.83,122.41Z"/><path class="cls-1" d="M90.75,392.44H220.5v-72H90.75v72Zm133.12,6.75H84v-85.5H227.25v85.5Z"/><path class="cls-1" d="M101.63,380.07h108V332.82h-108v47.25ZM213,386.82H94.87V326.07H216.38v60.75Z"/><path class="cls-1" d="M206,335.89v41.25h-35v-10h-7.2v10H144V355.92h-7.43v21.22H104.78V335.89Zm-96.9,5.85v29.1h22.73v-20h10.8v-9.08H125v21.08l-8.1.15V341.74Zm48.08,0h-7.88v29.1h7.88v-29.1Zm13.8,0h-7.2v20.4H171v-20.4Zm13,0h-7.06V373H184V341.74Zm12.67,0h-7.58v20.4h7.58Z"/><path class="cls-1" d="M197.93,370.92c0-1.86-2.3-3.38-5.1-3.38s-5.1,1.52-5.1,3.38,2.29,3.37,5.1,3.37S197.93,372.78,197.93,370.92Z"/><path class="cls-1" d="M68.55,251.44v11.93H43.05v13.57H68.62v39.23H56.7v-25.5H43.05v25.42H3.75V304.17h25.5V290.74H4V251.52H15.9V277H29.25v-25.5h39.3v-.08Zm3.75-3.75H25.5v25.5H19.65v-25.5H.22v46.73H25.5v5.92H0v19.43H46.72V294.34h6.16v25.5h19.5V273.12H46.72V267h25.5V247.69Z"/><path class="cls-1" d="M307.42,251.44v11.93h-25.5v13.57h25.65v39.23H295.65v-25.5H282v25.42H242.62V304.17h25.5V290.74H242.85V251.52h11.92V277h13.35v-25.5h39.3v-.08Zm3.75-3.75h-46.8v25.5h-5.84v-25.5H239.1v46.73h25.27v5.92H238.88v19.43H285.6V294.34h6.15v25.5h19.42V273.12H285.52V267H311V247.69Z"/><path class="cls-1" d="M138.12,35.33c0,13.73,8.28,25.46,11.63,29.65,3.35-4.19,11.62-15.92,11.62-29.65S153.1,9.86,149.75,5.68c-3.35,4.18-11.63,15.91-11.63,29.65Zm10.25,33.8s-14-15.15-14-33.8,14-33.77,14-33.81L149.75,0l1.38,1.52s14,15.15,14,33.81-14,33.76-14,33.8l-1.38,1.52Z"/><path class="cls-1" d="M151,32.33c-1.27,4-4.27,25.35-1.27,35.55Z"/><path class="cls-1" d="M151,32.33a1.35,1.35,0,0,1-.07.37c0,.3-.15.68-.15,1.12a33.2,33.2,0,0,0-.53,4.06c-.22,1.65-.37,3.6-.45,5.7-.07,1-.07,2.1-.15,3.22s-.07,2.18-.07,3.3v3.3c.07,1.12.07,2.17.15,3.23s.15,2,.22,2.92c.08.45.08.9.15,1.35s.15.82.23,1.28a6.15,6.15,0,0,1,.15,1.12c.07.38.15.68.22,1,.15.6.23,1.19.38,1.65.22.9.37,1.34.37,1.34l-3.6,1.06s-.15-.6-.3-1.65c-.07-.46-.07-1.05-.22-1.8-.08-.38-.08-.75-.15-1.13s-.08-.82-.08-1.27-.07-.9-.07-1.35V59.7c0-1,0-2,.07-3.07s.15-2.18.23-3.3.22-2.26.3-3.38.22-2.25.37-3.37.3-2.18.45-3.23c.38-2,.75-4,1.13-5.62a36.48,36.48,0,0,1,.9-4c.15-.45.22-.82.3-1.12l.15-.3Z"/><path class="cls-1" d="M54.07,217.47c8.77,7.13,21.5,6.8,26.3,6.37-.57-4.78-2.85-17.3-11.64-24.43s-21.5-6.8-26.3-6.37c.56,4.77,2.85,17.29,11.64,24.43Zm28.07,9.6s-18.49,3-30.43-6.7S38.9,192,38.9,192l-.1-1.86,1.86-.29c.05,0,18.49-3,30.43,6.71s12.8,28.36,12.81,28.41l.1,1.87Z"/><path class="cls-1" d="M60.28,205.89c1.74,3.05,13.52,16.48,21.94,19.45Z"/><path class="cls-1" d="M60.28,205.89a1,1,0,0,1,.2.25c.19.16.33.47.62.7a23.08,23.08,0,0,0,2.26,2.51,37.87,37.87,0,0,0,3.36,3.31c.63.61,1.3,1.15,2,1.8s1.35,1.18,2.07,1.77,1.43,1.17,2.11,1.71S74.3,219,75,219.5s1.39.94,2,1.34c.33.18.62.41.95.59s.63.31,1,.49a3.49,3.49,0,0,1,.82.47l.76.33c.48.19.91.45,1.29.56a11.66,11.66,0,0,0,1.1.41L81.33,227a11.7,11.7,0,0,1-1.25-.62c-.33-.18-.72-.49-1.29-.76-.29-.14-.53-.33-.82-.47s-.57-.37-.86-.6-.62-.41-.91-.65l-.91-.74c-.62-.5-1.3-1.05-1.92-1.65s-1.3-1.25-2-1.89-1.3-1.34-2-2-1.3-1.34-1.92-2-1.2-1.36-1.78-2c-1.06-1.35-2.07-2.65-2.89-3.8a26.11,26.11,0,0,1-2-2.76,7.42,7.42,0,0,0-.53-.82l-.09-.27Z"/><path class="cls-1" d="M23.57,168.47c8.77,7.13,21.5,6.8,26.3,6.37-.57-4.78-2.85-17.3-11.64-24.43s-21.5-6.8-26.3-6.37c.56,4.77,2.85,17.3,11.64,24.43Zm28.07,9.6s-18.49,3-30.43-6.7S8.4,143,8.4,143l-.1-1.86,1.86-.29c.05,0,18.49-3,30.43,6.71s12.8,28.36,12.81,28.41l.1,1.87Z"/><path class="cls-1" d="M29.78,156.89c1.74,3.05,13.52,16.48,21.94,19.45Z"/><path class="cls-1" d="M29.78,156.89a1,1,0,0,1,.2.25c.19.16.33.47.62.7a23.08,23.08,0,0,0,2.26,2.51,37.87,37.87,0,0,0,3.36,3.31c.63.61,1.3,1.15,2,1.8s1.35,1.18,2.07,1.77,1.43,1.17,2.11,1.71,1.43,1.07,2.15,1.56,1.39.94,2,1.34c.33.18.62.41,1,.59l1,.49a3.49,3.49,0,0,1,.82.47l.76.33c.48.19.91.45,1.29.56a11.66,11.66,0,0,0,1.1.41L50.83,178a11.7,11.7,0,0,1-1.25-.62c-.33-.18-.72-.49-1.29-.76-.29-.14-.53-.33-.82-.47s-.57-.37-.86-.6-.62-.41-.91-.65l-.91-.74c-.62-.5-1.3-1.05-1.92-1.65s-1.3-1.25-2-1.89-1.3-1.34-2-2-1.3-1.34-1.92-2-1.2-1.36-1.78-2c-1.06-1.35-2.07-2.65-2.89-3.8a26.11,26.11,0,0,1-2-2.76,7.42,7.42,0,0,0-.53-.82c0-.14-.09-.27-.09-.27Z"/><path class="cls-1" d="M82.56,182.06c6,9.56,18.19,13.33,22.88,14.46,1-4.71,2.83-17.3-3.2-26.87S84,156.32,79.36,155.19c-1,4.7-2.84,17.3,3.2,26.87Zm23.52,18.09s-18.48-3.1-26.68-16.1-3.05-31-3-31l.51-1.8,1.84.33c.06,0,18.48,3.09,26.68,16.09s3.06,31,3,31l-.51,1.8Z"/><path class="cls-1" d="M92.16,173.08c.67,3.45,7.53,19.95,14.55,25.46Z"/><path class="cls-1" d="M92.16,173.08a1.2,1.2,0,0,1,.1.3c.13.21.17.55.37.87a22,22,0,0,0,1.33,3.1,40.75,40.75,0,0,0,2.13,4.21c.4.77.86,1.51,1.29,2.33s.89,1.55,1.39,2.34l1.45,2.3c.56.74,1,1.47,1.54,2.17s1,1.33,1.48,1.91c.26.28.46.59.72.87l.75.76a4.1,4.1,0,0,1,.62.71c.23.22.43.39.62.56.39.34.72.71,1,1,.59.5.92.74.92.74l-2.59,2.65a13.25,13.25,0,0,1-1-1c-.26-.27-.52-.69-1-1.13-.23-.23-.39-.49-.62-.71s-.43-.53-.62-.85-.46-.58-.66-.9l-.63-1c-.43-.68-.89-1.41-1.29-2.18s-.83-1.6-1.26-2.42-.8-1.69-1.23-2.52-.8-1.68-1.16-2.55-.71-1.67-1-2.48c-.57-1.62-1.12-3.18-1.52-4.53a23.8,23.8,0,0,1-1-3.25,9,9,0,0,0-.24-.94v-.29Z"/><path class="cls-1" d="M7.31,101.77c5.67,9.79,17.69,14,22.32,15.31,1.17-4.67,3.48-17.18-2.19-27S9.75,76.1,5.12,74.79C4,79.46,1.63,92,7.31,101.77Zm22.83,19c-.06,0-18.36-3.79-26.07-17.09S2.2,72.58,2.22,72.53l.57-1.77,1.82.38S23,74.93,30.67,88.24s1.88,31.05,1.86,31.1L32,121.12Z"/><path class="cls-1" d="M17.24,93.16c.54,3.47,6.77,20.22,13.58,26Z"/><path class="cls-1" d="M17.24,93.16a1,1,0,0,1,.09.3c.12.22.15.56.33.88a23.75,23.75,0,0,0,1.22,3.15,38.88,38.88,0,0,0,2,4.29c.36.79.8,1.54,1.2,2.38s.83,1.59,1.3,2.39l1.36,2.35c.53.76,1,1.51,1.46,2.22s1,1.37,1.4,2c.25.28.44.6.69.88s.47.52.72.8a4.16,4.16,0,0,1,.6.73c.22.23.4.4.59.58.38.35.69.74,1,1,.57.53.88.77.88.77l-2.68,2.56a13.31,13.31,0,0,1-.94-1c-.25-.28-.5-.71-.94-1.17-.22-.23-.37-.5-.59-.73s-.41-.55-.6-.87-.43-.6-.62-.92l-.59-1c-.4-.7-.83-1.44-1.2-2.23s-.77-1.63-1.17-2.47-.73-1.71-1.13-2.55-.74-1.72-1.07-2.6-.64-1.7-1-2.52c-.51-1.63-1-3.21-1.35-4.58a27.13,27.13,0,0,1-.86-3.28,7.63,7.63,0,0,0-.2-1V93.2Z"/><path class="cls-1" d="M37.61,76.19C40.42,87.14,50.84,94.45,55,97c2.38-4.18,8-15.6,5.18-26.56S46.9,52.14,42.79,49.63c-2.39,4.17-8,15.6-5.18,26.56Zm16.85,24.42c-.05,0-16.64-8.6-20.47-23.49S40.57,46.7,40.6,46.66l1-1.56,1.66.87c.05,0,16.64,8.61,20.47,23.5s-6.58,30.41-6.61,30.46l-1,1.56Z"/><path class="cls-1" d="M49.49,70.58c-.42,3.49,1.06,21.3,6.06,28.69Z"/><path class="cls-1" d="M49.49,70.58a1,1,0,0,1,0,.32c.06.24,0,.58.08.94a22.43,22.43,0,0,0,.33,3.36,39.77,39.77,0,0,0,.73,4.66c.14.86.36,1.69.51,2.61s.38,1.75.61,2.65.46,1.8.68,2.64.51,1.71.8,2.53.56,1.58.82,2.28c.17.34.26.7.42,1s.32.62.48,1a4.1,4.1,0,0,1,.38.86c.15.28.28.51.42.73.26.44.46.9.7,1.22.4.66.64,1,.64,1l-3.27,1.74a12.11,12.11,0,0,1-.63-1.24c-.17-.35-.29-.82-.59-1.39-.15-.28-.23-.58-.38-.86s-.24-.64-.33-1-.26-.7-.35-1.06l-.29-1.14c-.2-.78-.42-1.62-.56-2.47s-.3-1.78-.46-2.69-.24-1.85-.4-2.77-.24-1.85-.33-2.79-.16-1.81-.23-2.68c-.05-1.71-.08-3.36-.06-4.77a25.4,25.4,0,0,1,.06-3.4c0-.4,0-.71.06-1l.08-.28Z"/><path class="cls-1" d="M94.32,144.33c7.42,8.54,20,10.41,24.81,10.82.27-4.8.18-17.53-7.24-26.08s-20-10.41-24.81-10.82c-.26,4.81-.18,17.53,7.24,26.08Zm26,14.31c-.06,0-18.74-.25-28.82-11.86s-7.71-30.15-7.7-30.2l.22-1.86,1.88,0s18.73.26,28.81,11.87,7.71,30.14,7.71,30.2l-.23,1.85Z"/><path class="cls-1" d="M102.45,134c1.18,3.31,10.47,18.58,18.24,22.95Z"/><path class="cls-1" d="M102.45,134a.82.82,0,0,1,.14.28c.17.19.26.52.5.8a23.45,23.45,0,0,0,1.79,2.86,39.31,39.31,0,0,0,2.74,3.85c.51.7,1.08,1.35,1.63,2.1s1.12,1.4,1.73,2.1l1.78,2.06c.66.65,1.23,1.3,1.85,1.9s1.21,1.17,1.76,1.68c.29.23.54.51.84.74l.86.64a3.87,3.87,0,0,1,.72.61l.69.46c.44.27.82.59,1.18.78.66.41,1,.59,1,.59l-2.15,3a11.17,11.17,0,0,1-1.12-.83c-.3-.23-.62-.6-1.14-1-.26-.18-.46-.42-.72-.6s-.5-.46-.75-.74-.54-.52-.78-.79l-.77-.89c-.53-.61-1.1-1.26-1.61-2s-1.06-1.46-1.61-2.2-1-1.55-1.6-2.3-1-1.55-1.54-2.35-.95-1.55-1.4-2.3c-.81-1.5-1.58-3-2.19-4.24a25,25,0,0,1-1.47-3.06,8.74,8.74,0,0,0-.38-.9c0-.14,0-.28,0-.28Z"/><path class="cls-1" d="M95.44,97.79c6.38,9.34,18.67,12.66,23.39,13.62.82-4.74,2.2-17.4-4.18-26.74S96,72,91.27,71c-.83,4.75-2.21,17.41,4.17,26.75ZM119.61,115S101,112.58,92.36,99.89,88.18,69.07,88.19,69l.44-1.82,1.85.26c.06,0,18.59,2.42,27.26,15.11s4.17,30.83,4.16,30.88l-.44,1.82Z"/><path class="cls-1" d="M104.71,88.47c.79,3.42,8.25,19.66,15.46,24.91Z"/><path class="cls-1" d="M104.71,88.47a.85.85,0,0,1,.11.3c.14.2.19.54.4.85a21.82,21.82,0,0,0,1.45,3,40.31,40.31,0,0,0,2.27,4.13c.43.76.92,1.47,1.38,2.28s1,1.52,1.47,2.29l1.53,2.24c.59.73,1.07,1.44,1.62,2.11s1.07,1.3,1.55,1.87c.27.26.48.57.75.83l.78.74a4.17,4.17,0,0,1,.65.68c.23.22.43.38.63.54.41.32.75.69,1.08.91.61.49.94.71.94.71l-2.49,2.74a12.14,12.14,0,0,1-1-.95c-.27-.27-.55-.67-1-1.1-.24-.21-.41-.47-.65-.68s-.45-.52-.65-.83-.48-.57-.69-.87l-.67-1c-.45-.67-.94-1.38-1.36-2.14s-.89-1.56-1.35-2.37-.86-1.66-1.32-2.47-.86-1.65-1.26-2.5-.76-1.65-1.13-2.45c-.63-1.59-1.22-3.13-1.68-4.46a26.66,26.66,0,0,1-1.11-3.22,7.93,7.93,0,0,0-.27-.93l0-.29Z"/><path class="cls-1" d="M104.85,60.33C109.57,70.62,121.12,76,125.61,77.7c1.61-4.53,5.11-16.77.39-27.06S109.73,35,105.24,33.27c-1.6,4.53-5.1,16.77-.39,27.06Zm20.92,21s-17.91-5.52-24.31-19.49,1.08-31.1,1.1-31.15L103.3,29l1.78.56S123,35.11,129.4,49.08s-1.09,31.1-1.11,31.15l-.74,1.71Z"/><path class="cls-1" d="M115.56,52.71c.2,3.51,4.81,20.77,11,27.16Z"/><path class="cls-1" d="M115.56,52.71a.93.93,0,0,1,.06.31c.1.22.09.57.25.9a23.19,23.19,0,0,0,.91,3.26,38,38,0,0,0,1.55,4.45c.29.82.65,1.61,1,2.48s.68,1.66,1.06,2.51.77,1.68,1.13,2.47.82,1.6,1.25,2.35.83,1.46,1.21,2.1c.22.3.37.64.6.95s.42.55.64.86a3.93,3.93,0,0,1,.52.78c.2.25.37.44.54.64.34.38.62.8.91,1.08.51.58.8.85.8.85L125.05,81s-.34-.39-.84-1.11c-.22-.31-.43-.76-.82-1.26-.2-.25-.33-.53-.52-.78s-.36-.59-.51-.92-.38-.65-.53-1-.34-.73-.49-1.07c-.34-.73-.7-1.52-1-2.34s-.61-1.69-.93-2.56-.56-1.78-.88-2.65-.57-1.78-.82-2.69-.47-1.75-.7-2.6c-.35-1.68-.68-3.29-.91-4.68a26.07,26.07,0,0,1-.54-3.36,8,8,0,0,0-.12-1l0-.29Z"/><path class="cls-1" d="M265.39,168.17c-16.46,4.37-33.36-5.58-33.41-5.6l-1.69-1,1-1.69s9.78-17.06,26.24-21.43,33.36,5.57,33.41,5.6l1.69,1-1,1.69s-9.78,17.06-26.24,21.43Zm-30.1-7.91c4.55,2.26,17,7.51,29.14,4.3s20.34-14,23.18-18.19c-4.56-2.26-17-7.51-29.15-4.3S238.12,156,235.29,160.26Z"/><path class="cls-1" d="M263.77,151.38c-3.18,2.16-21.27,10.07-31,9.55Z"/><path class="cls-1" d="M224.2,209.07c-11.94,9.69-30.38,6.72-30.43,6.71l-1.86-.29.1-1.86c0-.06.88-18.73,12.81-28.42s30.38-6.71,30.43-6.7l1.86.29-.1,1.86c0,.05-.88,18.72-12.81,28.41Zm-28.66,3.48c4.8.42,17.52.75,26.3-6.38s11.07-19.65,11.64-24.43c-4.8-.43-17.52-.75-26.3,6.37S196.11,207.77,195.54,212.55Z"/><path class="cls-1" d="M215.63,194.6c-1.74,3.05-13.53,16.48-21.94,19.45Z"/><path class="cls-1" d="M215.63,194.6a.78.78,0,0,0-.2.25c-.19.16-.33.47-.62.7a23.08,23.08,0,0,1-2.26,2.51,42.48,42.48,0,0,1-3.36,3.31c-.63.6-1.3,1.15-2,1.79s-1.35,1.19-2.07,1.77L203,206.65c-.76.52-1.44,1.07-2.16,1.56l-2,1.34c-.33.18-.62.41-1,.59l-.95.48a4.38,4.38,0,0,0-.82.47c-.29.14-.52.24-.76.33-.48.2-.91.45-1.3.57-.71.29-1.1.41-1.1.41l1.6,3.34s.48-.2,1.25-.62c.33-.18.72-.49,1.29-.76.29-.14.53-.34.81-.47s.58-.37.87-.61.62-.41.91-.64l.91-.74c.62-.51,1.3-1.05,1.92-1.65s1.3-1.25,2-1.89,1.3-1.35,2-2,1.3-1.34,1.92-2,1.2-1.37,1.78-2c1.06-1.34,2.07-2.64,2.89-3.79a24.41,24.41,0,0,0,2-2.77,8.66,8.66,0,0,1,.54-.81l.09-.28Z"/><path class="cls-1" d="M236.69,136.9c-9.45,12.13-28.09,13.38-28.15,13.39l-1.85.14-.33-1.85c0-.05-3.37-18.44,6.07-30.56s28.1-13.39,28.15-13.39l1.85-.14.33,1.84c0,.06,3.37,18.44-6.07,30.57Zm-27.14,9.84c4.76-.66,17.24-3.2,24.19-12.14s6.36-21.64,5.84-26.43c-4.77.67-17.24,3.21-24.2,12.14S209,142,209.55,146.74Z"/><path class="cls-1" d="M225.07,124.72c-1,3.37-9.46,19.11-17,23.9Z"/><path class="cls-1" d="M225.07,124.72a1.15,1.15,0,0,0-.13.29c-.15.2-.22.53-.45.83a23.15,23.15,0,0,1-1.63,2.95,42.49,42.49,0,0,1-2.53,4c-.48.72-1,1.41-1.52,2.18s-1,1.46-1.61,2.2l-1.67,2.14c-.63.69-1.16,1.37-1.75,2s-1.14,1.22-1.66,1.76c-.29.25-.51.54-.8.79s-.54.44-.82.69a3.5,3.5,0,0,0-.69.64l-.67.49c-.42.3-.79.64-1.13.84-.64.45-1,.65-1,.65l2.31,2.9a13.23,13.23,0,0,0,1.07-.89,15,15,0,0,1,1.09-1c.25-.2.44-.45.68-.64s.48-.49.71-.79.51-.54.74-.83.5-.63.72-.93c.5-.63,1-1.31,1.5-2s1-1.51,1.49-2.28,1-1.61,1.48-2.38,1-1.6,1.41-2.43.86-1.6,1.28-2.37c.72-1.55,1.42-3.05,2-4.35a26.38,26.38,0,0,0,1.31-3.14c.11-.38.24-.67.33-.91l0-.29Z"/><path class="cls-1" d="M199.33,179.17c-11.08,10.66-29.71,9.23-29.76,9.23l-1.86-.13-.06-1.87c0-.05-.7-18.73,10.38-29.38s29.71-9.23,29.77-9.23l1.86.14.06,1.86c0,.05.69,18.73-10.39,29.38ZM171.07,185c4.81,0,17.52-.71,25.67-8.55s9.39-20.51,9.55-25.32c-4.81,0-17.51.71-25.67,8.55S171.23,180.23,171.07,185Z"/><path class="cls-1" d="M189.58,165.46c-1.48,3.19-12.09,17.56-20.23,21.23Z"/><path class="cls-1" d="M189.58,165.46a1,1,0,0,0-.17.27c-.18.17-.3.5-.56.75a23.84,23.84,0,0,1-2,2.69,37.49,37.49,0,0,1-3.07,3.58c-.57.66-1.19,1.26-1.81,1.95s-1.24,1.3-1.91,1.94l-2,1.89c-.72.59-1.34,1.19-2,1.73s-1.3,1.05-1.89,1.51c-.32.2-.59.46-.91.66l-.91.57a4.2,4.2,0,0,0-.77.53l-.74.4c-.46.23-.87.52-1.24.67-.69.35-1.06.5-1.06.5l1.87,3.19a12.11,12.11,0,0,0,1.19-.72c.32-.2.68-.55,1.23-.87.27-.16.49-.37.77-.53s.54-.42.81-.68.58-.46.85-.71l.85-.82c.58-.55,1.2-1.15,1.77-1.81s1.19-1.35,1.81-2,1.18-1.45,1.79-2.15,1.18-1.44,1.75-2.19l1.6-2.17c.94-1.43,1.84-2.81,2.56-4a26.4,26.4,0,0,0,1.74-2.92,7.08,7.08,0,0,1,.46-.86c0-.14.07-.28.07-.28Z"/><path class="cls-1" d="M285,122.93c-13.38,7.57-31.08,1.56-31.13,1.55l-1.77-.59.41-1.82c0-.06,4-18.32,17.36-25.89s31.08-1.56,31.13-1.54l1.76.58-.4,1.83s-4,18.31-17.36,25.88Zm-28.83-1.34c4.65,1.22,17.14,3.66,27-1.91s14.19-17.54,15.54-22.15c-4.65-1.22-17.14-3.67-27,1.9S257.51,117,256.16,121.59Z"/><path class="cls-1" d="M279,107.23c-2.23,2.72-16.08,14-24.87,15.53Z"/><path class="cls-1" d="M279,107.23a.82.82,0,0,0-.23.22c-.22.12-.41.4-.74.58a22.4,22.4,0,0,1-2.64,2.1,40.62,40.62,0,0,1-3.87,2.71c-.72.49-1.47.92-2.24,1.44s-1.52.94-2.33,1.4L264.53,117c-.84.39-1.59.82-2.38,1.18l-2.21,1c-.36.12-.68.3-1,.42l-1,.32a3.86,3.86,0,0,0-.88.32c-.3.09-.56.15-.81.2-.5.12-1,.29-1.37.35-.75.17-1.15.22-1.15.22l1,3.56s.5-.12,1.33-.41c.36-.12.79-.36,1.4-.54.31-.08.58-.24.88-.32s.63-.27.95-.45.69-.3,1-.49l1-.57c.7-.4,1.45-.83,2.17-1.32s1.49-1,2.26-1.53,1.5-1.11,2.27-1.63,1.5-1.11,2.24-1.7,1.41-1.14,2.09-1.7c1.26-1.15,2.48-2.26,3.48-3.26a25.53,25.53,0,0,0,2.4-2.4c.25-.31.49-.53.66-.71l.14-.25Z"/><path class="cls-1" d="M264,76.8c-4.67,14.64-21.74,22.26-21.79,22.28l-1.7.77-.94-1.61s-9.52-16.14-4.85-30.78h0c4.67-14.64,21.74-22.26,21.79-22.28l1.7-.77.94,1.61c0,.05,9.53,16.14,4.86,30.79ZM241.93,95.41c4.24-2.27,15.07-9,18.51-19.75s-1.51-22.51-3.66-26.81c-4.24,2.26-15.06,9-18.5,19.74h0C234.84,79.37,239.79,91.1,241.93,95.41Z"/><path class="cls-1" d="M248.89,69.38c.22,3.51-2.27,21.2-7.68,28.3Z"/><path class="cls-1" d="M248.89,69.38a1.2,1.2,0,0,0,0,.32,8.85,8.85,0,0,1-.14.93,23.43,23.43,0,0,1-.51,3.34,41.43,41.43,0,0,1-1,4.61c-.19.85-.45,1.67-.66,2.58s-.48,1.73-.76,2.61-.56,1.77-.83,2.59-.61,1.68-.95,2.49-.65,1.54-.94,2.22c-.19.33-.3.69-.48,1l-.54.93a3.88,3.88,0,0,0-.42.84c-.17.27-.31.48-.46.69-.29.43-.52.88-.77,1.19-.44.63-.7.94-.7.94l3.17,1.92s.29-.43.7-1.2c.18-.33.33-.81.66-1.35.17-.27.26-.56.43-.84s.28-.62.39-1,.3-.69.41-1,.24-.77.36-1.12c.24-.77.5-1.59.69-2.44s.41-1.75.62-2.66.35-1.83.56-2.74.35-1.83.48-2.76.26-1.8.38-2.67c.15-1.7.28-3.35.34-4.76a25.54,25.54,0,0,0,.14-3.39c0-.4,0-.71,0-1l-.06-.28Z"/><path class="cls-1" d="M198.79,130.59C188.71,142.2,170,142.46,170,142.46l-1.87,0-.23-1.86s-2.37-18.59,7.71-30.2,28.76-11.86,28.81-11.86l1.88,0,.22,1.85s2.38,18.6-7.7,30.2ZM171.16,139c4.8-.41,17.39-2.29,24.81-10.83s7.5-21.27,7.24-26.07c-4.81.4-17.4,2.28-24.81,10.82S170.89,134.16,171.16,139Z"/><path class="cls-1" d="M187.84,117.81c-1.18,3.31-10.47,18.58-18.24,23Z"/><path class="cls-1" d="M187.84,117.81a1.12,1.12,0,0,0-.15.29c-.16.18-.25.51-.49.79a23.45,23.45,0,0,1-1.79,2.87,40.5,40.5,0,0,1-2.74,3.84c-.51.7-1.08,1.36-1.63,2.11s-1.12,1.4-1.73,2.1l-1.78,2.05c-.66.65-1.23,1.31-1.86,1.91s-1.2,1.16-1.75,1.67c-.3.23-.54.51-.84.74l-.86.65a3.83,3.83,0,0,0-.72.6l-.7.46c-.43.27-.81.6-1.17.78-.66.41-1,.59-1,.59l2.15,3a13.64,13.64,0,0,0,1.12-.83c.3-.23.62-.61,1.14-1,.26-.19.46-.42.72-.61s.5-.46.75-.74.54-.51.78-.79l.77-.89c.53-.6,1.1-1.26,1.61-2s1.06-1.45,1.61-2.2,1-1.55,1.6-2.3,1-1.54,1.54-2.34,1-1.55,1.4-2.3c.81-1.51,1.58-3,2.19-4.24a26.6,26.6,0,0,0,1.47-3.07,8.45,8.45,0,0,1,.38-.89l.05-.29Z"/><path class="cls-1" d="M199.85,92.16c-9.62,12-28.28,13-28.33,13l-1.87.11-.3-1.85c0-.06-3.1-18.48,6.51-30.48s28.28-13,28.33-13l1.87-.11.3,1.85c0,.06,3.1,18.48-6.51,30.48Zm-27.28,9.45c4.78-.59,17.28-3,24.36-11.79s6.66-21.55,6.21-26.34c-4.78.59-17.29,3-24.36,11.79S172.12,96.82,172.57,101.61Z"/><path class="cls-1" d="M188.41,79.82c-1.06,3.35-9.73,19-17.33,23.66Z"/><path class="cls-1" d="M188.41,79.82a1,1,0,0,0-.14.29c-.15.19-.23.52-.46.81a24.53,24.53,0,0,1-1.68,2.94,37.64,37.64,0,0,1-2.59,3.94c-.48.73-1,1.4-1.54,2.17s-1.06,1.45-1.64,2.17l-1.7,2.12c-.64.68-1.18,1.35-1.78,2L175.2,98c-.29.24-.53.53-.82.78l-.83.67a4.69,4.69,0,0,0-.7.63c-.25.2-.46.34-.67.49-.43.29-.8.63-1.15.83-.64.43-1,.63-1,.63l2.27,2.93a13.9,13.9,0,0,0,1.09-.88c.29-.24.6-.62,1.1-1,.25-.2.44-.44.7-.63s.48-.49.71-.78.52-.53.76-.82l.73-.91c.5-.63,1-1.31,1.53-2s1-1.49,1.52-2.26,1-1.59,1.51-2.36,1-1.58,1.44-2.4.89-1.59,1.31-2.36c.75-1.53,1.47-3,2-4.32a25.28,25.28,0,0,0,1.35-3.12c.12-.38.25-.67.35-.91s0-.28,0-.28Z"/><path class="cls-1" d="M199.7,52.52c-8.82,12.59-27.38,14.79-27.43,14.8l-1.86.23L170,65.73s-4.3-18.24,4.51-30.84,27.38-14.79,27.43-14.8l1.86-.23.41,1.82c0,.05,4.3,18.24-4.51,30.84Zm-26.61,11.2c4.73-.9,17.06-4.08,23.54-13.35s5.25-21.94,4.49-26.69c-4.73.91-17.06,4.08-23.55,13.35S172.32,59,173.09,63.72Z"/><path class="cls-1" d="M187.48,41c-.84,3.41-8.48,19.56-15.76,24.73Z"/><path class="cls-1" d="M187.48,41a1,1,0,0,0-.12.29,8.94,8.94,0,0,1-.41.85,22,22,0,0,1-1.48,3,38.63,38.63,0,0,1-2.33,4.11c-.43.75-.93,1.46-1.4,2.26s-1,1.52-1.49,2.27-1.07,1.52-1.56,2.23-1.09,1.43-1.65,2.09-1.08,1.28-1.57,1.85c-.27.26-.48.56-.76.82s-.51.48-.78.74a4.18,4.18,0,0,0-.66.67c-.24.21-.44.37-.64.53-.41.32-.75.68-1.09.9a11.61,11.61,0,0,1-.95.69l2.46,2.78s.4-.32,1-.94c.28-.27.56-.67,1-1.09.24-.21.41-.46.65-.67s.45-.52.67-.82.48-.57.7-.87l.67-1c.46-.66,1-1.37,1.39-2.12s.91-1.56,1.38-2.36.87-1.65,1.34-2.45.88-1.65,1.29-2.49.78-1.64,1.16-2.44c.65-1.58,1.26-3.11,1.73-4.44a24.26,24.26,0,0,0,1.14-3.2,8.9,8.9,0,0,1,.29-.93l0-.29Z"/><path class="cls-1" d="M170.48,66c-8.71,7.65-14.18,19.65-17.33,30.6a77.76,77.76,0,0,0-2.78,17.55c-.22,4.58-.52,12.15,3.3,15.45a1.57,1.57,0,0,0,2-.07,1.5,1.5,0,0,0,.53-1.35h0c-.45-1.88-1.5-3.53-2-5.4a34.29,34.29,0,0,1-.45-9.6,74.59,74.59,0,0,1,2.7-16.73c3.07-11,9.15-19.72,15.45-29A1,1,0,0,0,170.48,66Z"/><path class="cls-1" d="M154.35,106.47,153,92.07c-.45-4.8-.83-9.68-1.2-14.48-.23-2.77,2.1-9.67-.75-11.17l-1.58-.6c-2.25,1.57-1.12,7.12-1,9.45.3,4.87.67,9.67,1.05,14.47s.82,9.6,1.27,14.4.15,15.08,1.43,19.58c.45,1.5,2.77,1.57,2.85-.15C155.25,119.74,154.72,110.37,154.35,106.47Z"/><path class="cls-1" d="M155.77,124.24c-.82-2.17-2.17-4.2-3.07-6.45-1-2.62-1.8-5.32-2.78-7.87a84,84,0,0,0-6.6-14,54.16,54.16,0,0,0-8.92-11.4c-1.88-1.8-5.32-5.63-8.25-4.58a.87.87,0,0,0,.08,1.58c1.72.75,3.52,2.92,5,4.2a51.5,51.5,0,0,1,4.72,5.17,58.23,58.23,0,0,1,7.2,11.7A101.33,101.33,0,0,1,148,114.79c1.27,3.83,2.32,8.7,5.7,11.25C155,126.94,156.22,125.52,155.77,124.24Z"/><path class="cls-1" d="M148.42,149.89A46.69,46.69,0,0,0,137.25,128c-2.63-3-6.15-5.1-8.63-8.17-1.2-1.58-3.22-.53-4.35-2.63-.82-1.57-2.32-1.8-3.37-3.15-.82-1.05-2.33.08-1.88,1.2.6,1.35,1.88,1.88,2.55,3.23a6.17,6.17,0,0,0,1.8,2.55c1.2.82,2.48.82,3.6,2.1,1.5,1.72,3.53,3.07,5.18,4.65a43.18,43.18,0,0,1,12.67,22.87C145.42,152.74,148.88,152.14,148.42,149.89Z"/><path class="cls-1" d="M143,174c-4-3.38-7.95-6.83-12-10.13-3.45-2.92-6.9-6.45-11-8.4-.68-.3-1.51.6-1.05,1.2,2.25,3.53,5.92,6.23,9.07,9,4.28,3.75,8.63,7.5,13,11.25C142.65,178.32,144.67,175.39,143,174Z"/><path class="cls-1" d="M140.92,225.72c-1.42-3-1.87-3.45-4.64-5.1-3.83-2.33-7.43-4.88-11-7.43-3.23-2.32-6.38-4.87-9.38-7.42s-10.19-12.23-10.19-6.83c.82,3.38,3.74,5.48,6.22,7.65,2.62,2.48,5.4,4.73,8.25,7,3.15,2.47,6.37,4.8,9.67,7.05,3.53,2.4,7.43,4,9.3,7.95C140,230.59,141.9,227.74,140.92,225.72Z"/><path class="cls-1" d="M139.35,250.69c-9.67-3-19.13-6.15-28.27-10.5a229.57,229.57,0,0,1-28-16.27c-.38-.23,1.12-.08.75.15a1.86,1.86,0,0,0-.6.37c0,.15-.08.23-.08.38-.23.6-2.1.9-1.57,1.27,15.29,13.2,37.12,23,56.77,27.83C140.25,254.44,141.45,251.37,139.35,250.69Z"/><path class="cls-1" d="M193.73,212c-17,5.1-26.48,17-38.1,29.48-1.43,1.5.67,4.05,2.1,2.47,5.77-6.22,9.22-11.32,15.3-17.25s13.87-8.85,21.6-12C196.05,214.09,195.22,211.54,193.73,212Z"/><path class="cls-1" d="M235.65,160c-1.2-2-3.52-1.88-5.63-2.18-3.74-.6-7.57-1.05-11.4-1.35-1.72-.15-14.7-.9-11,4.13a1.47,1.47,0,0,0,1.5.52c.9-.15,3.75-1.42,4.05-2.1,1.72,0,4.13.53,5.25.53,2.4.15,4.8.37,7.12.52,2.93.23,6,3.9,10.13,0C235.65,160.09,235.72,160.09,235.65,160Z"/><path class="cls-1" d="M254.1,118.62c-2.62,1.8-5.32,3.52-8.1,5.1a58.42,58.42,0,0,0-7,4.12c-1,.83-.22,2.78,1.13,2.4,5.63-1.72,11-6.15,15.75-9.6C257.32,119.59,255.6,117.64,254.1,118.62Z"/><path class="cls-1" d="M167.32,185.52c-5.47,2.25-10,7.27-13,12.22a1.57,1.57,0,0,0,.07,1.88,1.32,1.32,0,0,0,1.05.52,1.37,1.37,0,0,0,1.36-.67c3-5.18,7-8.55,11.7-12.08C169.65,186.57,168.45,185.07,167.32,185.52Z"/><path class="cls-1" d="M169.58,138.64c-2.7.08-7.35,2.93-9.15,5a49.49,49.49,0,0,0-6.08,9.15,1.41,1.41,0,0,0,2.33,1.58c3.3-4.13,8.32-11.85,14.25-12.75C172.35,141.34,171.07,138.64,169.58,138.64Z"/><path class="cls-1" d="M170.1,102.27c-14,1.57-15.6,14.92-17.25,21.07-.45,1.8,2.25,2.78,2.7,1,.75-2.78,3-13.13,5.1-15.08,2.4-2.25,8.63-3.45,11.63-4.27C173.4,104.59,171.38,102.12,170.1,102.27Z"/><path class="cls-1" d="M236.77,98.82c-3.45,1.57-8.55,6.82-10.87,9.75-1.28,1.57,3.45,1,4.65-.6a67.12,67.12,0,0,1,7.35-7.35A1.07,1.07,0,0,0,236.77,98.82Z"/><path class="cls-1" d="M240.3,97.09A3.67,3.67,0,0,0,238,98c-.83.53-1.66,1.05-2.41,1.58-1,.82.08,2.25,1.2,1.8.83-.3,1.58-.68,2.4-1.05a4.41,4.41,0,0,0,2-1.43A1.19,1.19,0,0,0,240.3,97.09Z"/><path class="cls-1" d="M82.65,152.29c-2.47-3.3-6.3-5.7-8.92-9a46.21,46.21,0,0,1-7.13-12.75c-1.5-4-1.95-7.95-4.72-11.32-2-2.4-2.78-5.48-3.9-8.33a23.6,23.6,0,0,1-1.13-10.5c.23-1.5-3.15-2-3.6-.52-1.42,4.65,1.2,10.87,2.78,15.22,1.12,3.15,2.7,5.18,4.42,8,1.43,2.25,1.73,5.32,2.55,7.87a53.77,53.77,0,0,0,7.2,13.73c2.63,3.52,6.53,8.4,10.73,10A1.55,1.55,0,0,0,82.65,152.29Z"/><path class="cls-1" d="M76.5,157.39c-.82-4.35-6.07-4.27-9.22-6.07-4.58-2.63-7.5-7.88-11.41-11.4a46.6,46.6,0,0,0-13.57-8.48A18.09,18.09,0,0,1,35,126.19c-1.57-1.8-1.5-6.22-3.6-7.5a.93.93,0,0,0-1.42,1c1,3.67,3.22,9.52,6,12.07,1.72,1.58,4.12,2.4,6.22,3.38a46.31,46.31,0,0,1,7.88,4.72c4.42,3.15,7.5,7.5,11.25,11.4a19.06,19.06,0,0,0,5.17,4c2,1,8,3.67,8.93,5.92C76.28,162.79,76.8,159.27,76.5,157.39Z"/><path class="cls-1" d="M93.9,192.27a96.37,96.37,0,0,1-24-5A95.12,95.12,0,0,1,59,182.67c-1.87-.9-3.6-3.15-5.1-4.58a11.33,11.33,0,0,0-2.4-1.8.74.74,0,0,0-1.05.23,7.92,7.92,0,0,1-.75,1c0,.08,0,.08.08.08h.37c-.6,5.55,11.48,9.82,15,11.4a89.08,89.08,0,0,0,28.58,6.9C95.93,195.94,96.15,192.42,93.9,192.27Z"/><path class="cls-1" d="M118.42,260.82c0-9.68-1.43-18.41-3.74-24.68-2.07-5.61-4.66-9.07-7.28-9.07s-5.21,3.46-7.28,9.07c-2.31,6.27-3.74,15-3.74,24.68s1.43,18.4,3.74,24.68c2.07,5.6,4.66,9.07,7.28,9.07s5.21-3.47,7.28-9.07c2.31-6.28,3.74-15,3.74-24.68Zm.48-26.23c2.48,6.75,4,16,4,26.23s-1.54,19.48-4,26.23c-2.74,7.42-6.79,12-11.5,12s-8.76-4.6-11.5-12c-2.49-6.75-4-16-4-26.23s1.54-19.48,4-26.23c2.74-7.43,6.79-12,11.5-12S116.16,227.16,118.9,234.59Z"/><path class="cls-1" d="M189.75,247.69c0-9.68-1.43-18.4-3.75-24.68-2.06-5.6-4.65-9.07-7.28-9.07s-5.21,3.47-7.27,9.07c-2.32,6.28-3.75,15-3.75,24.68s1.43,18.41,3.75,24.69c2.06,5.6,4.65,9.06,7.27,9.06s5.22-3.46,7.28-9.06c2.32-6.28,3.75-15,3.75-24.69Zm.47-26.23c2.49,6.75,4,16,4,26.23s-1.54,19.48-4,26.23c-2.74,7.43-6.79,12-11.5,12s-8.75-4.59-11.49-12c-2.49-6.75-4-16-4-26.23s1.54-19.48,4-26.23c2.74-7.42,6.79-12,11.49-12S187.48,214,190.22,221.46Z"/><path class="cls-1" d="M98.48,243a4.17,4.17,0,0,0-3-1.5,4.36,4.36,0,0,0-4.66,4.05,4.49,4.49,0,0,0,1.05,3.15,4.21,4.21,0,0,0,3,1.5,4.38,4.38,0,0,0,4.66-4A4.89,4.89,0,0,0,98.48,243Z"/><path class="cls-1" d="M99.3,255.19a5.41,5.41,0,0,0-3.3-3.9,4.49,4.49,0,0,0-2.62-.15,4.8,4.8,0,0,0-3.08,2,4.38,4.38,0,0,0-.82,2.33,4.09,4.09,0,0,0,.45,2.32,4.57,4.57,0,0,0,1.57,1.8.38.38,0,0,0,.3.15,5.12,5.12,0,0,0,3.75.9A4.5,4.5,0,0,0,99.3,255.19Z"/><path class="cls-2" d="M94.28,266.22c-3.31,0-3.68,5.1-.38,5.1S97.58,266.22,94.28,266.22Z"/><path class="cls-1" d="M95.85,276.87a3.76,3.76,0,0,0-2.47.82,3.51,3.51,0,0,0-1.2,2.4,3.39,3.39,0,0,0,3.15,3.68,3.79,3.79,0,0,0,2.47-.83,3.49,3.49,0,0,0,1.2-2.4A3.38,3.38,0,0,0,95.85,276.87Z"/><path class="cls-1" d="M97.27,267.72a4.68,4.68,0,0,0-3.3-1.65,5.33,5.33,0,0,0-3.45,1.12,4.76,4.76,0,0,0-1.65,3.3A4.91,4.91,0,0,0,90,273.94a4.7,4.7,0,0,0,3.3,1.65,5.33,5.33,0,0,0,3.45-1.12,4.72,4.72,0,0,0,1.65-3.3A4.65,4.65,0,0,0,97.27,267.72Z"/><path class="cls-1" d="M102.82,288.42c-3.75,0-4.2,5.77-.37,5.77C106.12,294.19,106.58,288.42,102.82,288.42Z"/><path class="cls-1" d="M111.82,290.74c-.07,0-.15-.07-.22-.07a4.5,4.5,0,0,0-5.93,3.82,4.56,4.56,0,0,0,1.88,4,4,4,0,0,0,2.25.75,4.15,4.15,0,0,0,2.25-.45c.08,0,.15-.08.23-.08a4.36,4.36,0,0,0,2.47-3.6A4.48,4.48,0,0,0,111.82,290.74Z"/><path class="cls-1" d="M118.72,285a3.63,3.63,0,0,0-2.55-1.28,4.06,4.06,0,0,0-2.62.83,3.72,3.72,0,0,0-.45,5.17,3.63,3.63,0,0,0,2.55,1.28,4.06,4.06,0,0,0,2.62-.83,3.72,3.72,0,0,0,.45-5.17Z"/><path class="cls-1" d="M121.88,275a3.69,3.69,0,0,0-2.48-1.27,3.85,3.85,0,0,0-2.55.82,3.57,3.57,0,0,0-.45,5,3.64,3.64,0,0,0,2.47,1.27,3.85,3.85,0,0,0,2.55-.82,3.56,3.56,0,0,0,.46-5Z"/><path class="cls-1" d="M120.9,260c-5.55,0-6.15,8.63-.6,8.63S126.52,260,120.9,260Z"/><path class="cls-2" d="M121.27,252.12a1.74,1.74,0,0,0-1.8,1.57,1.69,1.69,0,0,0,1.58,1.8,1.69,1.69,0,1,0,.22-3.37Z"/><path class="cls-1" d="M122.25,237.87c-.23-.38-.45-.68-.67-1a4,4,0,0,0-1.88-1.27,4.54,4.54,0,0,0-3.3.15,4.39,4.39,0,0,0-1.72,1.42,4,4,0,0,0-.68,3.3,5.91,5.91,0,0,0,1,2.1,2.32,2.32,0,0,0,.9.83,4.43,4.43,0,0,0,3.22.67,4.32,4.32,0,0,0,2.7-1.72,4.59,4.59,0,0,0,.45-4.5Z"/><path class="cls-1" d="M110.85,221.59a3.64,3.64,0,0,0-2.47-1.27H108a3.85,3.85,0,0,0-2.55.82,3.55,3.55,0,0,0-.45,5,3.64,3.64,0,0,0,2.47,1.27h.38a3.85,3.85,0,0,0,2.55-.82,3.52,3.52,0,0,0,1.28-2.48A3.63,3.63,0,0,0,110.85,221.59Z"/><path class="cls-1" d="M101.77,233a3.77,3.77,0,0,0-.37-1.2,4.06,4.06,0,0,0-2.33-2.1,4,4,0,0,0-4.65,1.5,4.07,4.07,0,0,0,.23,4.95,3.93,3.93,0,0,0,1.72,1.2,4,4,0,0,0,3.08-.15,3.85,3.85,0,0,0,1.57-1.35A3.32,3.32,0,0,0,101.77,233Z"/><path class="cls-1" d="M122.7,251.07l-.08-.08a3.37,3.37,0,0,0-3.45-.3c-.07.08-.22.08-.3.15a3.42,3.42,0,0,0-1.87,2.7,3,3,0,0,0,.3,1.65,3.35,3.35,0,0,0,1.87,1.65c.08.08.23.08.3.15a3.45,3.45,0,0,0,3.38-.6l.07-.07a3.5,3.5,0,0,0,1.2-2.33A3.27,3.27,0,0,0,122.7,251.07Z"/><path class="cls-1" d="M170.33,241.24a4.21,4.21,0,0,0-3-1.5,4.38,4.38,0,0,0-4.66,4,4.48,4.48,0,0,0,1.05,3.15,4.17,4.17,0,0,0,3,1.5,4.38,4.38,0,0,0,4.66-4.05A4.54,4.54,0,0,0,170.33,241.24Z"/><path class="cls-2" d="M166.12,260c-.37,0-.45.6-.07.6S166.5,260,166.12,260Z"/><path class="cls-1" d="M171.82,259.24a4.65,4.65,0,0,0-4.72-.37,4.7,4.7,0,0,0-2.63,3.9,4.59,4.59,0,0,0,1.28,3.52l.45.45.08.08.22.22a4.56,4.56,0,0,0,4.58.38,4.78,4.78,0,0,0,.74-8.18Z"/><path class="cls-2" d="M169.65,273.27c-.07,0-.07.07,0,0Z"/><path class="cls-1" d="M174.15,271.62a4.05,4.05,0,0,0-2.78-1.43,4.31,4.31,0,0,0-2.92,1,4,4,0,0,0-1.43,2.77,4.22,4.22,0,0,0,1,2.93,4,4,0,0,0,2.77,1.42,4.32,4.32,0,0,0,2.93-1,4,4,0,0,0,1.42-2.78A4.53,4.53,0,0,0,174.15,271.62Z"/><path class="cls-2" d="M175.57,282H175a.81.81,0,0,0-.6.68.74.74,0,0,0,.68.75,1.73,1.73,0,0,0,.6,0,.72.72,0,0,0-.08-1.43Z"/><path class="cls-1" d="M181.05,279.87a4.3,4.3,0,0,0-3.15-1.58,4.47,4.47,0,0,0-4.8,4.2,4.52,4.52,0,0,0,1.05,3.23,4.29,4.29,0,0,0,3.15,1.57,4.5,4.5,0,0,0,3.22-1.05,4.56,4.56,0,0,0,1.58-3.15A4.5,4.5,0,0,0,181.05,279.87Z"/><path class="cls-2" d="M184.35,275.52c-.08,0-.08,0-.15-.08a2.13,2.13,0,0,0-2.1.38,2.17,2.17,0,0,0-.52,2.55c0,.07,0,.07.07.15a2.2,2.2,0,1,0,2.7-3Z"/><path class="cls-2" d="M189.82,263.07a3.21,3.21,0,0,0-2.32.75,3.12,3.12,0,0,0-1.13,2.25,3.25,3.25,0,0,0,5.33,2.7,3.13,3.13,0,0,0,1.12-2.25A3.2,3.2,0,0,0,189.82,263.07Z"/><path class="cls-2" d="M190.87,255.42c-.07,0-.15.07-.22.07a1.2,1.2,0,0,0-1,1.73,1.92,1.92,0,0,0,.9.82,1.42,1.42,0,0,0,1.65-.52A1.36,1.36,0,0,0,190.87,255.42Z"/><path class="cls-2" d="M191.18,248.22c-.76,0-.83,1.12-.08,1.12S191.85,248.22,191.18,248.22Z"/><path class="cls-2" d="M190.13,235.54a.22.22,0,1,0,0,.45A.22.22,0,0,0,190.13,235.54Z"/><path class="cls-1" d="M193.73,246.19a4,4,0,0,0-2.78-1.42,4.32,4.32,0,0,0-2.93,1,4,4,0,0,0-1.42,2.78,4.13,4.13,0,0,0,1,2.92,4,4,0,0,0,2.77,1.43,4.33,4.33,0,0,0,2.93-1,4,4,0,0,0,1.42-2.77A4.63,4.63,0,0,0,193.73,246.19Z"/><path class="cls-1" d="M192.83,236.14a4.79,4.79,0,0,0-3.38-1.72,5.21,5.21,0,0,0-3.45,1.12,5.1,5.1,0,0,0-1.72,3.38,4.84,4.84,0,0,0,4.5,5.17,5.21,5.21,0,0,0,3.45-1.12,5.14,5.14,0,0,0,1.72-3.38A5,5,0,0,0,192.83,236.14Z"/><path class="cls-1" d="M190.42,225.42a3.65,3.65,0,0,0-2.7-1.35,4.11,4.11,0,0,0-2.77.9,3.91,3.91,0,0,0-.45,5.47,3.65,3.65,0,0,0,2.7,1.35,4.07,4.07,0,0,0,2.77-.9,3.73,3.73,0,0,0,1.35-2.7A3.62,3.62,0,0,0,190.42,225.42Z"/><path class="cls-1" d="M183.9,213.72c-5.25,0-5.85,8.17-.6,8.17S189.23,213.72,183.9,213.72Z"/><path class="cls-1" d="M179.25,210.12a3.83,3.83,0,0,0-4.65.22,3.77,3.77,0,0,0-1.42,2.78,3.87,3.87,0,0,0,.82,2.55,5.17,5.17,0,0,0,.67.6,3.66,3.66,0,0,0,2.1.82,3.8,3.8,0,0,0,3.9-2.55A4,4,0,0,0,179.25,210.12Z"/><path class="cls-1" d="M172.2,218.29a3,3,0,0,0-3.08-.22c-.07.07-.15.07-.22.15a2.94,2.94,0,0,0-1.65,2.4,2.73,2.73,0,0,0,1.2,2.55c.07.07.15.07.22.15a3.22,3.22,0,0,0,3.08.22,3,3,0,0,0,1.72-2.55A3,3,0,0,0,172.2,218.29Z"/><path class="cls-1" d="M169.87,225.79a3.22,3.22,0,0,0-3-1h-.3a3.18,3.18,0,0,0-2.55,2.85,3,3,0,0,0,.75,2.25A3.39,3.39,0,0,0,167,231a.46.46,0,0,1,.3.07,3.16,3.16,0,0,0,3.37-2.92A3.09,3.09,0,0,0,169.87,225.79Z"/><path class="cls-1" d="M168.45,232.92a3.17,3.17,0,0,0-1.2-.3,3.34,3.34,0,0,0-2.47.9,3.06,3.06,0,0,0,.22,4.8,3.18,3.18,0,0,0,1.8.67,3.51,3.51,0,0,0,1.95-.45,3,3,0,0,0,1.73-2.47A3.2,3.2,0,0,0,168.45,232.92Z"/><path class="cls-1" d="M167.4,250c-4.88,0-5.48,7.57-.52,7.57S172.35,250,167.4,250Z"/><path class="cls-1" d="M184.88,273a3.79,3.79,0,0,0-3.23,1.5,3.84,3.84,0,0,0-.3,3.6.07.07,0,0,0,.08.07,3.53,3.53,0,0,0,6.52-.3.07.07,0,0,1,.08-.07A3.66,3.66,0,0,0,184.88,273Z"/><path class="cls-1" d="M191.93,262.77a3.81,3.81,0,0,0-4.65-1,4.06,4.06,0,0,0-1.5,1.28,4.1,4.1,0,0,0-.61,3v.07a3.68,3.68,0,0,0,2.48,2.85h.07a4,4,0,0,0,4.5-1.42A4.19,4.19,0,0,0,191.93,262.77Z"/><path class="cls-1" d="M194,255.34A4.09,4.09,0,0,0,191.4,254a3.91,3.91,0,0,0-4.05,4.58,4.32,4.32,0,0,0,1.65,2.7,4,4,0,0,0,1.88.67,3.59,3.59,0,0,0,2.62-.9,3.74,3.74,0,0,0,1.2-1.65,6,6,0,0,0,.22-1.27A3.36,3.36,0,0,0,194,255.34Z"/><path class="cls-2" d="M115.27,229.77c-.07,0-.15.07-.22.07a1.6,1.6,0,0,0-.9,1.35,1.48,1.48,0,0,0,1,1.58c.07,0,.15.07.22.07a1.67,1.67,0,1,0-.15-3.07Z"/><path class="cls-1" d="M116.55,227.82a2.92,2.92,0,0,0-2,.67,2.61,2.61,0,0,0-1,1.95,2.91,2.91,0,0,0,2.62,3.08,2.88,2.88,0,0,0,2-.68,2.59,2.59,0,0,0,1-2A2.81,2.81,0,0,0,116.55,227.82Z"/><path class="cls-1" d="M101.7,285.19a4,4,0,0,0-7,2.33,3.86,3.86,0,0,0,1,2.85,3.92,3.92,0,0,0,5.62.45,4.05,4.05,0,0,0,1.43-2.78A4.64,4.64,0,0,0,101.7,285.19Z"/><path class="cls-1" d="M100.8,293.29a2.45,2.45,0,1,0,2.25,2.63A2.39,2.39,0,0,0,100.8,293.29Z"/></g></g></svg>