<?xml version="1.0" encoding="UTF-8"?>
<!DOCTYPE svg PUBLIC "-//W3C//DTD SVG 1.1//EN" "http://www.w3.org/Graphics/SVG/1.1/DTD/svg11.dtd">
<!-- Creator: CorelDRAW 2021 (64-Bit) -->
<svg xmlns="http://www.w3.org/2000/svg" xml:space="preserve" width="25.4908in" height="26in" version="1.1" style="shape-rendering:geometricPrecision; text-rendering:geometricPrecision; image-rendering:optimizeQuality; fill-rule:evenodd; clip-rule:evenodd"
viewBox="0 0 25490.78 26000"
 xmlns:xlink="http://www.w3.org/1999/xlink"
 xmlns:xodm="http://www.corel.com/coreldraw/odm/2003">
 <defs>
  <style type="text/css">
   <![CDATA[
    .fil0 {fill:#FEFEFE}
    .fil1 {fill:#DF2F2D}
    .fil2 {fill:#FBEA04}
    .fil4 {fill:#2B2A29;fill-rule:nonzero}
    .fil3 {fill:#DF2F2D;fill-rule:nonzero}
   ]]>
  </style>
 </defs>
 <g id="Layer_x0020_1">
  <metadata id="CorelCorpID_0Corel-Layer"/>
  <g id="_2344022809952">
   <path class="fil0" d="M25158.74 10681.01c216.69,911.94 332.04,1861.91 332.04,2838.42 0,6892.84 -5706.31,12480.57 -12745.36,12480.57 -7039.14,0 -12745.42,-5587.74 -12745.42,-12480.57 0,-964.33 112.5,-1902.83 323.97,-2804.31l2940.2 421.15c-363.36,2008.71 -198.15,4101.57 718.57,6138.74 2965.85,6658.27 12387.49,7718.36 16699.27,1512.72 1678.27,-2425.53 2059.71,-5072.6 1419.45,-7668.83l3057.28 -437.88z"/>
   <path class="fil1" d="M5728.59 5487.25c-2404.14,3403.68 -3582,7707.42 -1745.85,11787.77 2965.85,6658.26 12387.47,7718.35 16699.26,1512.7 2110.44,-3050.13 2170.7,-6450.66 726.57,-9659.84 -1214.93,-2644.25 -3215.98,-3537.58 -3751.98,-4121.22 -1058.89,-1128.57 -98.15,-3730.76 1619.9,-3823.44 -316.95,201.69 -679.59,692.52 -821.86,1048.17 -552.11,1735.2 820.13,3118.09 2466.95,2938.71 969.14,-105.57 1785.19,-850.43 1778.98,-2169.26 -5.72,-1213.19 -718.72,-1906.07 -1709.48,-2372.81 -1529.33,-720.46 -4026.03,-686.87 -5747.27,-548.82 -4000.74,320.88 -7032.35,1892.89 -9515.23,5408.05zm14826.74 -3418.74c523.85,0 948.52,424.67 948.52,948.52 0,523.86 -424.67,948.53 -948.52,948.53 -523.86,0 -948.52,-424.67 -948.52,-948.53 0,-523.85 424.67,-948.52 948.52,-948.52z"/>
   <path class="fil2" d="M12745.4 5264.15c4441.97,0 8042.9,3600.93 8042.9,8042.9 0,4441.97 -3600.93,8042.9 -8042.9,8042.9 -4441.97,0 -8042.9,-3600.93 -8042.9,-8042.9 0,-4441.98 3600.93,-8042.9 8042.9,-8042.9z"/>
   <path class="fil3" d="M6835.92 9677.57l811.15 -122.53c114.47,-17.47 198.91,-40.79 253.31,-69.96 38.84,-21.22 68.78,-50.5 89.79,-87.04l32.41 18.63 -377.26 656.11 -32.41 -18.63c20.12,-43.81 28.8,-74.34 26.52,-91.71 -2.59,-17.56 -10.56,-30.17 -24.54,-38.21 -26.37,-15.17 -92.2,-15.39 -197.84,-0.03l-529.73 80.13 10.91 69.26 345.69 198.76c66.41,38.18 109.91,58.12 130.31,60.13 20.59,1.69 42.79,-4.57 66.47,-19.28 24,-14.53 49.26,-45.24 76.12,-91.94l32.41 18.63 -366.11 636.72 -32.41 -18.63 23.93 -41.62c21.01,-36.54 31.33,-69.93 31.09,-99.65 0.43,-21.33 -7.39,-42.3 -23.74,-63.12 -11.1,-15.26 -48.48,-41.41 -112.35,-78.13l-833.09 -479.01c-65.13,-37.45 -107.81,-57.34 -127.85,-59.98 -20.22,-2.33 -42.37,3.11 -66.32,16.82 -24.27,13.53 -46.38,38.02 -66.84,73.6l-23.93 41.62 -32.41 -18.63 360.63 -627.19 32.41 18.63c-24.48,42.57 -36.94,78.95 -37.34,108.32 -0.43,21.31 6.88,42.43 22.24,63.52 11.37,16.26 49.21,43.09 113.7,80.18l394.31 226.72 -107.91 -687.33c-16.24,-96 -40.82,-153.26 -72.91,-171.71 -24.15,-13.88 -50.56,-11.31 -79.89,7.33 -14.85,9.64 -38.66,40.76 -71.62,93.68l-32.41 -18.63 282.62 -491.53 32.41 18.64c-22.21,45.99 -34.18,85.19 -35.59,117.78 -1.72,32.41 8.87,115.44 31.15,248.74l84.93 540.52zm1585.68 -1157.3l-368.98 351.8 52.24 146.67c18.29,48.4 38.44,83.87 59.93,106.42 28.58,29.98 61.5,40.61 98.78,32.42 21.9,-5.18 62.46,-31.69 121.41,-79.79l25.8 27.05 -350.41 334.09 -25.79 -27.06c32.1,-41.75 48.23,-87.51 47.83,-136.25 -0.38,-49.26 -21.23,-131.68 -63.07,-246.74l-424.79 -1199.75 14.85 -14.17 1203.85 501.55c115.24,48.11 194.78,72.04 238.61,71.27 33.45,-0.5 66.98,-14.74 101.87,-42.93l25.8 27.06 -509.83 486.09 -25.8 -27.06 20.95 -19.98c40.85,-38.94 64.2,-72.35 69.52,-99.7 3.56,-19.09 -2.5,-36.61 -17.42,-52.26 -9.11,-9.55 -19.79,-18.1 -32.58,-25.14 -5.36,-3.5 -32.02,-16.06 -79.74,-36.9l-183 -76.69zm-79.56 -33.52l-499.99 -209.46 181.68 512.94 318.31 -303.48zm1078.59 -1002.06l187.45 366c35.75,69.81 62.71,112 80.71,125.44 17.84,13.93 40.52,20.43 67.56,20.16 27.37,-0.43 70.66,-15.59 130.03,-46l17.04 33.28 -663.52 339.82 -17.04 -33.28c60.02,-30.74 97.96,-57.17 113.48,-79.12 15.85,-22.11 23.34,-44.48 22.8,-66.44 -0.38,-22.45 -18.7,-68.67 -54.45,-138.48l-434.05 -847.5c-35.92,-70.13 -62.71,-112 -80.71,-125.43 -17.83,-13.93 -40.52,-20.43 -67.56,-20.17 -27.37,0.43 -70.66,15.6 -130.03,46.01l-17.04 -33.28 602.84 -308.74c156.91,-80.36 276.93,-128.24 360.86,-143.64 83.77,-15.72 163.69,-6.01 239.76,29.15 75.9,34.83 133.82,91.65 174.08,170.26 48.96,95.59 54.97,192.56 18.22,290.45 -23.66,62.35 -70.1,123.62 -139.36,183.78l535.93 280.19c70,35.38 117.41,55.57 141.88,60.75 36.12,6.21 72.3,1.27 107.88,-14.48l18.04 35.23 -408.41 209.17 -721.26 -376.74 -85.14 43.61zm-324.78 -634.17l289.7 565.66 54.48 -27.9c88.73,-45.45 151.1,-87.68 186.96,-126.22 35.68,-38.87 55.22,-85.93 58.79,-140.88 3.57,-54.94 -11.94,-116.59 -46.7,-184.44 -50.45,-98.51 -110.87,-159.4 -181.25,-182.65 -70.38,-23.25 -156.79,-8.65 -259.55,43.98l-102.43 52.45zm1727.8 -788.53l902.69 718.47 -140.78 -609.96c-19.87,-86.06 -45.37,-141.11 -77.01,-165.78 -43.06,-33.33 -104.01,-39.94 -182.6,-20.3l-8.41 -36.43 469.26 -108.31 8.41 36.43c-58.19,21.71 -96.23,41.02 -114.14,57.94 -17.46,17.2 -28.93,40.91 -34.28,71.48 -5,30.48 0.33,79.66 15.91,147.16l273 1182.77 -35.35 8.16 -1232.18 -962.89 209.03 905.65c18.96,82.14 50.39,133.56 94.56,153.83 44.17,20.27 90.68,24.58 138.89,13.45l33.57 -7.74 8.41 36.43 -505.68 116.71 -8.41 -36.43c78.39,-18.85 128.97,-47.44 152.7,-86.4 23.38,-38.87 26.37,-95.98 8.81,-172.05l-231.87 -1004.57 -38.13 -29.94c-38.9,-31.65 -71.17,-50.9 -97.19,-57.69 -25.66,-6.87 -60.44,-5.98 -103.98,2.56l-8.41 -36.43 503.18 -116.14zm2274.46 804l-509.65 -12.89 -66.98 140.56c-21.36,47.12 -32.25,86.44 -33.04,117.58 -1.05,41.41 14.67,72.23 46.78,92.84 19.13,11.85 66.54,21.85 142.23,29.63l-0.94 37.37 -484 -12.24 0.94 -37.37c52.23,-6.75 96.02,-27.63 130.26,-62.33 34.61,-35.05 78.26,-108 130.19,-218.88l549.64 -1147.93 20.52 0.52 494.85 1206.61c47.31,115.58 86.51,188.8 118,219.29 23.98,23.34 57.73,37.02 102.33,41.82l-0.94 37.37 -704.2 -17.81 0.94 -37.37 28.94 0.73c56.42,1.43 96.57,-5.62 119.68,-21.17 16.05,-10.96 24.17,-27.62 24.72,-49.24 0.33,-13.19 -1.15,-26.79 -5.2,-40.82 -1.31,-6.27 -11.24,-34.02 -30.18,-82.52l-74.91 -183.74zm-32.44 -80.01l-204.71 -501.95 -234.95 490.83 439.67 11.12zm2215.71 -582.22l-88.52 383.54 -36.43 -8.41c-2.06,-93.76 -12.03,-163.01 -30.27,-207.85 -18.15,-45.19 -48.57,-84.56 -90.78,-118.37 -23.55,-18.6 -68.48,-35.74 -134.91,-51.07l-107.13 -24.73 -253.22 1097.07c-16.9,73.2 -23.52,119.82 -19.87,139.85 3.65,20.03 15.65,39.72 35.38,58.57 20,19.29 49.86,33.33 89.85,42.56l46.43 10.72 -8.41 36.43 -739.24 -170.62 8.41 -36.43 46.78 10.8c40.71,9.39 75.3,9.48 103.68,0.6 20.16,-5.87 38.32,-19.37 54.2,-40.9 11.37,-15.06 25.52,-58.43 42.09,-130.21l253.22 -1097.07 -102.85 -23.74c-95,-21.93 -168.62,-17.48 -221.15,12.9 -73.37,42.5 -129.77,114.11 -169.99,215.04l-40.71 -9.4 88.52 -383.54 1274.91 294.26zm594.94 1460.82l-453.76 -232.4 -121.26 97.67c-39.66,33.22 -66.51,63.94 -80.71,91.67 -18.88,36.86 -18.07,71.45 1.94,103.94 12.11,18.97 50.51,48.52 115.36,88.32l-17.04 33.27 -430.92 -220.7 17.04 -33.28c50,16.55 98.52,16.69 144.41,0.25 46.39,-16.6 117.32,-63.44 212.16,-140.88l992.67 -796.52 18.27 9.36 -76.7 1301.89c-7.43,124.66 -3.81,207.64 11.36,248.76 11.5,31.42 35.99,58.38 74.11,82.02l-17.04 33.27 -626.98 -321.11 17.04 -33.27 25.77 13.2c50.24,25.73 89.48,36.76 117.05,32.76 19.21,-2.93 33.74,-14.42 43.6,-33.67 6.01,-11.74 10.56,-24.65 13,-39.05 1.54,-6.21 4.61,-35.53 8.55,-87.45l12.09 -198.05zm5.42 -86.17l32.94 -541.09 -424.4 340.6 391.46 200.49zm1694.8 758.13l-73.58 817.05c-10.21,115.34 -7.61,202.9 7.81,262.67 11.39,42.76 32.73,78.81 63.23,107.89l-25.79 27.06 -547.77 -522.26 25.79 -27.06c37.79,29.94 65.38,45.61 82.79,47.54 17.67,1.65 31.81,-3.09 42.94,-14.76 21,-22.02 36.84,-85.91 47.01,-192.18l47.94 -533.61 -69.87 -5.85 -275.17 288.61c-52.86,55.44 -82.55,92.96 -89.35,112.3 -6.53,19.6 -5.72,42.65 2.94,69.14 8.42,26.76 32.24,58.6 71.24,95.78l-25.79 27.06 -531.59 -506.83 25.8 -27.06 34.75 33.13c30.5,29.08 60.49,47.04 89.42,53.86 20.61,5.47 42.84,2.87 66.95,-8.07 17.46,-7.16 51.74,-37.27 102.57,-90.59l663.12 -695.52c51.85,-54.38 81.3,-91.12 88.63,-109.96 7.07,-19.09 7.03,-41.9 -0.59,-68.42 -7.38,-26.78 -25.92,-54.08 -55.63,-82.41l-34.75 -33.13 25.8 -27.06 523.63 499.24 -25.8 27.06c-35.55,-33.89 -67.93,-54.63 -96.35,-62 -20.61,-5.47 -42.86,-3.38 -66.99,6.53 -18.49,7.19 -53.54,37.57 -104.88,91.42l-313.86 329.19 693.29 58.38c97.12,7.02 158.57,-3.26 184.11,-30.05 19.22,-20.16 23,-46.44 11.85,-79.35 -5.84,-16.71 -30.42,-47.23 -74,-91.82l25.8 -27.05 410.36 391.25 -25.79 27.06c-39.41,-32.5 -74.64,-53.43 -105.96,-62.54 -31.07,-9.37 -114.25,-18.79 -249.03,-28.8l-545.22 -45.85zm779.41 1790.23l-254.12 -441.96 -154.89 15.91c-51.35,6.28 -90.6,17.43 -117.6,32.96 -35.91,20.65 -54.06,50.11 -54.96,88.25 -0.16,22.5 15.96,68.19 48.69,136.89l-32.41 18.63 -241.33 -419.72 32.41 -18.63c32.93,41.1 73.55,67.63 121,78.81 47.94,11.33 132.95,10.65 254.66,-2.68l1266.3 -127.77 10.23 17.79 -773.05 1050.33c-74.1,100.52 -116.23,172.1 -125.89,214.86 -7.46,32.62 -1.59,68.56 17.52,109.15l-32.41 18.63 -351.13 -610.67 32.41 -18.63 14.43 25.1c28.14,48.93 55.04,79.54 80.35,91.2 17.71,8 36.16,6.27 54.91,-4.51 11.44,-6.58 22.27,-14.92 32.16,-25.69 4.67,-4.37 23.2,-27.29 54.78,-68.7l117.95 -159.56zm51.46 -69.33l322.18 -435.95 -541.42 54.68 219.23 381.27z"/>
   <polygon class="fil1" points="15139.38,17715.84 14425.36,18038.61 15175.79,18681.45 14180.83,18527.66 14689.45,19398.18 13897.18,18977.59 13985.21,19877.45 13369.01,19202.56 13033.03,20033.94 12697.05,19202.56 12080.84,19877.45 12168.87,18977.59 11376.61,19398.18 11885.23,18527.66 10890.27,18681.45 11640.7,18038.61 10926.68,17715.84 "/>
   <g>
    <path class="fil4" d="M1066.14 11563.78l31.07 2.38 -3.07 39.89c-2.69,35.02 0.71,62.55 10.56,81.98 9.54,19.43 23.69,34.6 42.19,44.9 12.09,6.13 49.64,11.77 112.68,16.61l798.47 61.27c62.43,4.79 101.66,4.43 117.69,-0.78 16.05,-5.5 30.75,-17.55 43.84,-36.46 13.4,-18.88 21.24,-45.24 23.86,-79.34l3.06 -39.89 31.06 2.38 -41.55 541.45c-11.1,144.65 -39.82,259.46 -85.86,344.45 -56.37,103.8 -135.71,179.81 -237.44,228.06 -102.03,48.23 -214.7,67.45 -338.04,57.99 -84.96,-6.52 -162.48,-26.25 -232.24,-59.18 -69.46,-32.9 -126.13,-72.78 -169.71,-119.62 -43.25,-47.13 -76.85,-100.24 -100.82,-159.06 -23.95,-59.12 -40.55,-130.24 -49.8,-213.35 -4.22,-36.78 -3.48,-94.3 2.5,-172.26l41.55 -541.45zm1108.47 548.22l-944.94 -72.52c-49.94,-3.83 -80.89,-3.76 -92.53,0.25 -11.62,3.7 -20.77,11.27 -27.73,22.07 -10.07,15.47 -16.42,38.26 -18.75,68.71 -7.65,99.58 20.31,178.31 84.21,235.9 86.17,78.59 225.93,125.47 418.7,140.26 155.61,11.94 281.42,-2.91 378.07,-44.81 75.75,-33.09 128.91,-79.24 159.78,-138.14 21.87,-41.51 36.17,-112.09 43.2,-211.72zm-67.98 1211.04l-494.55 15.17 0.74 24.12c2.37,77.24 28.2,132.36 77.5,165.68 49.29,33.02 121.11,53.12 215.43,59.7l1.07 34.8 -635.59 19.49 -1.07 -34.8c69.09,-9.14 125.4,-26.15 168.66,-50.4 43.56,-24.56 72.35,-52.02 86.68,-83.02 14.33,-31 20.6,-75.5 18.82,-133.5l-341.3 10.46c-66.85,2.05 -107.37,6.05 -122.15,12.3 -14.79,5.95 -26.67,17.02 -35.66,32.87 -8.99,15.87 -13.11,41.04 -12.05,75.54l2.23 72.66c3.47,113.25 32.51,203.42 86.81,270.2 54.3,66.78 135.48,113.49 243.85,139.81l1.02 33.28 -387.25 -42.82 -32.13 -1048.02 31.14 -0.95 1.22 39.99c1.07,35.11 8.36,63.3 21.53,84.29 9.03,15.3 23.74,26.76 44.44,34.39 14.55,5.97 52.5,8.17 113.86,6.28l800.45 -24.54c55.25,-1.7 89.09,-4.26 101.82,-7.71 20.88,-6.44 36.72,-17.93 47.52,-34.46 16.1,-23.11 23.7,-54.2 22.49,-93.58l-1.23 -39.99 31.14 -0.96 31.11 1014.75 -359.01 11.01 -1.07 -34.8c87.4,-19.79 149.54,-46.14 186.74,-78.45 37.2,-32.31 63.94,-77.13 80.2,-134.77 9.67,-33.6 13.25,-96.04 10.44,-187.63l-3.88 -126.39zm-528.24 1184.27l-334.68 41.07c-65.78,8.07 -106.52,17.07 -122.5,27.34 -16.01,9.96 -27.9,25.89 -35.68,47.76 -7.52,21.54 -8.06,59.77 -1.36,114.33l-30.92 3.8 -75.21 -612.97 30.93 -3.8c6.85,55.79 16.65,93.05 29.67,111.45 12.76,18.74 28.12,31.02 45.76,36.85 17.68,6.14 59.39,5.02 125.17,-3.05l783.94 -96.18c65.78,-8.07 106.53,-17.07 122.5,-27.34 16.01,-9.97 27.94,-25.59 35.76,-47.16 7.52,-21.54 8.05,-59.76 1.28,-114.94l30.93 -3.79 64.49 525.66c21.24,173.1 5.56,301.18 -46.75,383.91 -52.58,83.07 -124.97,130.11 -217.43,141.46 -78.52,9.63 -148.48,-6.4 -210.26,-48.37 -61.73,-41.66 -107.84,-104 -138.64,-187 -21.28,-55.54 -40.19,-152 -57,-289.03zm591.14 -72.52l-522.02 64.05c1.2,19.85 2.42,34.78 3.65,44.78 8.89,72.45 37.29,125.9 85.14,159.72 47.84,33.83 116.96,45.35 207.3,34.26 89.73,-11.01 152.8,-38.75 189.53,-82.95 36.73,-44.2 50.43,-105.58 40.91,-183.18l-4.5 -36.68zm-595.93 1292.59l-96.26 -413.8 -127.4 -24.61c-42.48,-7.36 -76.47,-7.92 -101.76,-2.04 -33.61,7.82 -55.2,26.95 -65.1,57.16 -5.56,17.91 -3.7,58.25 5.87,120.94l-30.34 7.06 -91.41 -392.97 30.34 -7.06c16.37,40.72 42.39,71.67 77.54,92.03 35.52,20.58 103.5,40.52 203.8,59.21l1040.98 203.13 3.87 16.66 -869.73 651.66c-83.33,62.35 -134.19,109.3 -152.19,141.08 -13.81,24.22 -17.78,54.31 -12.32,91.29l-30.34 7.06 -133 -571.75 30.34 -7.06 5.47 23.5c10.65,45.81 24.75,76.72 42.13,92.11 12.2,10.65 27.34,13.71 44.89,9.63 10.71,-2.49 21.37,-6.54 31.84,-12.74 4.78,-2.36 25.08,-16.19 60.25,-41.61l132.54 -98.87zm57.75 -42.91l362.05 -270.17 -445.09 -86.81 83.04 356.98zm394.36 957.29l-324.09 111.35c-61.81,21.24 -99.8,38.49 -113.01,51.75 -13.59,13.07 -21.64,31.01 -24.62,53.35 -2.89,22.63 4.52,60.13 22.58,112.7l-29.46 10.12 -201.86 -587.52 29.46 -10.13c18.26,53.15 35.57,87.57 51.85,102.97 16.37,15.69 33.93,24.51 52.11,26.66 18.57,2.34 58.85,-7.31 120.67,-28.54l750.43 -257.83c62.1,-21.33 99.8,-38.49 113.01,-51.75 13.6,-13.07 21.65,-31 24.63,-53.35 2.88,-22.63 -4.52,-60.13 -22.58,-112.7l29.46 -10.12 183.4 533.79c47.74,138.94 73.04,243.6 75.82,314.66 3.07,70.96 -14.4,135.74 -52.4,194.34 -37.71,58.49 -91.43,99.55 -161.04,123.47 -84.63,29.07 -165.34,22.58 -241.74,-19.32 -48.63,-26.89 -93.68,-72.44 -135.13,-136.68l-294.5 408.95c-37.47,53.57 -59.74,90.28 -66.89,109.85 -9.39,29.06 -9.59,59.49 -0.81,90.7l-31.2 10.72 -124.25 -361.63 396.07 -550.43 -25.9 -75.39zm561.52 -192.93l-500.86 172.09 16.57 48.24c27,78.57 54.46,135.01 82.01,169.14 27.84,34.03 64.36,55.72 109.26,65.16 44.91,9.44 97.59,3.93 157.67,-16.71 87.23,-29.97 144.6,-72.61 172.1,-127.92 27.5,-55.31 25.67,-128.31 -5.59,-219.3l-31.16 -90.7zm746.82 1652.83l-298.46 136.09 -12.93 -28.35c60.94,-48.93 101.67,-90.66 122.05,-125.46 20.66,-34.93 31.26,-75.01 32.19,-120.07 0.35,-25 -11.11,-63.41 -34.69,-115.09l-38.02 -83.37 -853.7 389.26c-56.96,25.98 -91.14,45.26 -102.52,57.83 -11.39,12.57 -18.32,30.51 -20.77,53.11 -2.6,23 3.28,49.87 17.46,80.99l16.48 36.13 -28.35 12.93 -262.29 -575.24 28.34 -12.93 16.61 36.4c14.44,31.69 31.93,54.59 52.2,68.84 14.11,10.35 32.24,15.51 54.54,15.08 15.73,-0.12 51.57,-12.77 107.43,-38.24l853.7 -389.26 -36.49 -80.04c-33.7,-73.91 -74,-120.33 -120.73,-139.64 -65.32,-26.94 -141.28,-27.89 -228.41,-3.27l-14.44 -31.68 298.46 -136.09 452.35 992.09zm-237.43 1170.44l852.94 -155.88 266.56 412.85 -26.17 16.9 -21.37 -33.1c-19.22,-29.77 -40.18,-50.41 -62.56,-61.41 -15.3,-7.93 -33.57,-10.32 -55.31,-6.83 -15.8,2.57 -49.43,20.29 -101.01,53.59l-672.78 434.37c-52.6,33.96 -83.62,57.98 -93.23,71.82 -9.44,14.09 -13.87,32.58 -12.52,56.07 0.93,23.39 10.63,49.12 29.02,77.6l21.37 33.1 -26.17 16.9 -342.92 -531.13 26.17 -16.9 21.37 33.1c19.22,29.76 40.18,50.41 62.3,61.57 15.3,7.93 33.82,10.16 55.81,6.5 15.54,-2.4 49.18,-20.12 100.75,-53.41l755.39 -487.72 -1182.5 207.97 -11.6 -17.96 666.08 -993.18 -717.94 463.53c-50.55,32.64 -80.77,53.97 -90.66,63.99 -20.84,22.91 -32.25,50.27 -34.08,82.35 -1.83,32.08 12.41,71.6 42.57,118.3l-26.17 16.9 -225.64 -349.48 26.18 -16.89 6.96 10.78c14.07,22.91 31.24,41.63 51.79,56 20.71,14.62 40.67,22.46 60.22,24.02 19.71,1.81 43.15,-2.41 70.5,-12.44 6.31,-2.61 32.3,-18.67 78.48,-48.49l645.07 -416.48c52.6,-33.96 83.79,-57.73 92.97,-71.66 9.6,-13.84 13.87,-32.58 12.77,-56.24 -1.09,-23.65 -10.96,-49.63 -29.35,-78.11l-21.04 -32.59 26.18 -16.9 268.7 416.19 -487.16 722.43zm1340.58 620.09l-389.63 304.96 14.87 19c47.62,60.85 101.07,89.99 160.54,87.67 59.27,-2.57 129.05,-28.87 208.97,-79.4l21.46 27.42 -500.75 391.94 -21.46 -27.42c50.27,-48.27 85.59,-95.3 106.11,-140.45 20.57,-45.57 27.52,-84.76 20.72,-118.22 -6.8,-33.46 -28.08,-73.04 -63.85,-118.74l-268.89 210.46c-52.67,41.23 -82.96,68.43 -91.17,82.22 -8.4,13.56 -11.43,29.5 -9.29,47.6 2.15,18.11 13.74,40.83 35,68.02l44.81 57.24c69.84,89.22 146.62,144.71 229.91,166.39 83.3,21.69 176.38,11.28 279.3,-31.66l20.52 26.22 -337.46 194.7 -646.26 -825.67 24.53 -19.2 24.67 31.51c21.65,27.65 44.2,46.07 67.25,55.19 16.33,7 34.98,7.52 56.17,1.41 15.26,-3.8 47.15,-24.5 95.49,-62.33l630.62 -493.59c43.53,-34.07 69.29,-56.17 77.51,-66.48 13.02,-17.56 18.99,-36.19 17.91,-55.9 -0.7,-28.15 -12.98,-57.71 -37.26,-88.74l-24.66 -31.51 24.53 -19.2 625.73 799.46 -282.84 221.38 -21.46 -27.42c58.73,-67.69 93.22,-125.7 104.07,-173.77 10.86,-48.06 5.88,-100.01 -15.13,-156.1 -12.1,-32.8 -46.17,-85.25 -102.65,-157.41l-77.93 -99.57zm714.99 709.61l-84.96 957.66 359.46 -378.05c50.72,-53.34 77.28,-96.35 79.91,-129.69 3.4,-45.24 -20,-90.67 -69.76,-136.29l21.46 -22.58 290.84 276.54 -21.47 22.58c-41.82,-30.48 -72.72,-48.07 -92.72,-52.75 -19.98,-4.26 -41.72,-1.33 -65.44,9 -23.5,10.53 -55.24,36.81 -95.02,78.65l-697.03 733.07 -21.91 -20.83 103.58 -1299.04 -533.72 561.32c-48.4,50.91 -69.72,96.37 -63.53,136.41 6.19,40.03 24.56,74.34 54.43,102.75l20.81 19.79 -21.46 22.58 -313.42 -298.01 21.46 -22.57c49.11,45.85 92.23,67.89 130.22,66.5 37.76,-1.6 78.85,-25.75 123.68,-72.9l592.02 -622.63 3.31 -40.27c4.13,-41.58 2.7,-72.87 -4.54,-94.08 -7.01,-20.99 -23.6,-44.77 -49.54,-71.12l21.47 -22.58 311.87 296.54zm1446.61 1239.1l-201.93 258.5 -24.55 -19.18c31.47,-71.54 48.33,-127.35 50.34,-167.63 2.2,-40.53 -6.9,-80.97 -26.87,-121.38 -11.23,-22.34 -39.14,-51.11 -83.91,-86.08l-72.2 -56.41 -577.6 739.39c-38.54,49.34 -59.96,82.22 -64.26,98.63 -4.29,16.42 -2.16,35.52 6.1,56.7 8.31,21.61 25.92,42.73 52.87,63.78l31.29 24.44 -19.18 24.55 -498.22 -389.2 19.18 -24.55 31.53 24.63c27.44,21.44 53.53,33.68 78.08,36.97 17.3,2.66 35.77,-1.13 55.34,-11.8 13.89,-7.36 39.85,-35.14 77.65,-83.52l577.6 -739.39 -69.32 -54.15c-64.02,-50.01 -121.2,-72.57 -171.56,-68.13 -70.38,6.26 -138.2,40.48 -204.13,102.54l-27.43 -21.44 201.93 -258.5 859.26 671.23zm863.76 522.45c172.29,88 282.31,213.68 329.66,377.14 47.2,163.73 27.15,323.89 -60.59,481.29 -74.8,134.19 -180.16,230.35 -315.82,288.66 -179.7,77.11 -364.74,62.78 -555.21,-43.4 -191.01,-106.48 -302.54,-253.28 -334.87,-440.54 -25.48,-148.13 0.54,-292.02 78.61,-432.08 87.74,-157.4 214.38,-258.49 380.07,-303.55 165.84,-45.33 324.98,-20.95 478.16,72.48zm-18.32 54.83c-97.37,-54.28 -198.78,-46.12 -304.91,24.45 -86.56,58.05 -172.09,163.17 -256.85,315.23 -100.68,180.61 -143.18,332.11 -127.6,454.08 10.94,85.13 56.3,149.92 136.32,194.54 53.89,30.04 106.26,42.1 156.7,36.3 64.47,-7.76 130.22,-41.05 196.58,-99.87 66.36,-58.82 132.41,-147.19 197.84,-264.56 78.07,-140.05 123.45,-252.18 135.97,-336.12 12.67,-84.2 6.69,-151.87 -17.95,-203.03 -24.63,-51.15 -63.29,-91.57 -116.11,-121.02zm986.35 531.04l-208.35 454.83 31.65 14.5c48.87,22.38 91.89,33.36 129.73,32.89 37.56,-0.6 74.98,-13.35 112.13,-37.99 37.28,-24.91 72.94,-65.36 106.43,-121.58l28.32 12.97 -253.38 553.13 -28.31 -12.97c37.55,-109.11 41.05,-190.82 10.5,-245.13 -30.55,-54.31 -74.84,-94.76 -132.88,-121.35l-31.65 -14.5 -154.93 338.21c-26.07,56.92 -39.3,93.87 -39.68,110.82 -0.1,17.09 6.11,35.05 19.33,53.87 13.09,19.09 35.11,35.56 65.65,49.56l36.38 16.67 -12.98 28.32 -574.79 -263.3 12.98 -28.32 36.37 16.67c31.93,14.63 60.43,20.63 85.08,18.14 17.72,-1.29 34.54,-9.38 50.55,-24.55 11.81,-10.38 30.63,-43.41 56.2,-99.22l333.52 -728.07c26.07,-56.93 39.31,-93.87 39.96,-110.7 0.38,-16.96 -5.83,-34.92 -19.05,-53.74 -13.09,-19.09 -35.11,-35.56 -66.2,-49.81l-36.38 -16.67 12.97 -28.32 929.66 425.86 -145 316.55 -33.32 -15.26c26.59,-77.85 32.34,-141.74 17.37,-191.93 -14.69,-50.06 -48.38,-96.06 -100.78,-137.88 -29.08,-23.06 -87.43,-54.83 -175.45,-95.15l-101.63 -46.56zm1091.82 996.63l-101.17 363.7c-16.78,60.32 -24.02,98.89 -21.72,115.69 2.59,16.89 11.56,33.65 27.58,50.16 15.93,16.79 40.27,29.59 72.64,38.59l38.54 10.72 -8.35 30.02 -609.09 -169.44 8.35 -30.02 38.55 10.72c33.83,9.41 62.92,10.85 86.88,4.52 17.3,-4.07 32.61,-14.71 46.05,-32.21 10.03,-12.11 23.41,-47.7 39.87,-106.84l214.63 -771.52c16.78,-60.32 24.02,-98.89 22.01,-115.61 -2.29,-16.81 -11.26,-33.57 -27.28,-50.07 -15.93,-16.8 -40.28,-29.59 -73.23,-38.76l-38.55 -10.72 8.35 -30.02 609.09 169.44 -8.35 30.01 -38.54 -10.72c-33.54,-9.33 -62.33,-10.68 -86.29,-4.35 -17,4.15 -32.62,14.7 -46.64,32.04 -10.02,12.11 -23.41,47.7 -39.87,106.84l-92.33 331.92 414.89 115.42 92.33 -331.92c16.78,-60.32 24.03,-98.89 22.02,-115.61 -2.3,-16.81 -11.27,-33.57 -27.87,-50.24 -16.23,-16.88 -40.57,-29.67 -73.23,-38.76l-37.96 -10.56 8.35 -30.02 609.1 169.44 -8.35 30.01 -37.96 -10.56c-34.13,-9.49 -63.21,-10.93 -86.58,-4.43 -17.3,4.07 -32.91,14.61 -46.93,31.96 -10.03,12.11 -23.41,47.7 -39.87,106.84l-214.63 771.52c-16.78,60.32 -24.02,98.89 -22.02,115.61 2.3,16.81 11.27,33.57 27.87,50.24 16.23,16.87 40.57,29.67 73.23,38.76l37.96 10.56 -8.35 30.02 -609.09 -169.44 8.35 -30.02 37.95 10.56c34.14,9.5 63.22,10.93 86.59,4.43 17.3,-4.06 32.91,-14.62 46.93,-31.96 10.03,-12.11 23.41,-47.7 39.86,-106.84l101.18 -363.69 -414.89 -115.42zm1544.26 585.57l-419.1 -69.64 -71.55 108.25c-23.08,36.41 -36.62,67.6 -40.87,93.21 -5.66,34.04 3.75,61.31 27.86,82.03 14.42,12 52.38,25.73 113.95,40.91l-5.11 30.74 -398 -66.13 5.1 -30.73c43.89,0.48 82.44,-11.69 114.72,-36.36 32.62,-24.92 77.08,-80.07 132.78,-165.56l586.48 -883.7 16.87 2.8 268.7 1053.04c25.66,100.87 49.54,165.83 72,194.64 17.08,22.03 43.35,37.23 79.61,46.35l-5.11 30.73 -579.08 -96.22 5.11 -30.73 23.8 3.95c46.4,7.71 80.34,6.54 101.22,-3.62 14.51,-7.19 23.14,-19.99 26.09,-37.77 1.8,-10.85 2.15,-22.24 0.43,-34.3 -0.35,-5.32 -5.33,-29.37 -15.35,-71.59l-40.55 -160.31zm-17.5 -69.78l-110.83 -437.94 -250.72 377.87 361.56 60.07zm1010.2 -694.36l575.13 770.43 15.88 -521.42c2.24,-73.57 -6.63,-123.34 -26.9,-149.93 -27.63,-35.98 -75.35,-54.24 -142.86,-55.07l0.94 -31.14 401.14 12.22 -0.95 31.14c-51.49,5.16 -86.25,12.65 -104.27,22.49 -17.73,10.15 -31.98,26.83 -42.78,50.34 -10.49,23.52 -16.63,64.27 -18.39,121.97l-30.79 1011.09 -30.22 -0.92 -788.85 -1037.28 -23.58 774.19c-2.14,70.21 12.29,118.32 43.59,144.02 31.3,25.71 67.87,39.04 109.08,40.3l28.7 0.87 -0.95 31.14 -432.28 -13.17 0.94 -31.14c67.18,1.44 114,-10.89 141.39,-37.26 27.08,-26.37 41.6,-71.76 43.58,-136.78l26.15 -858.76 -24.38 -32.22c-24.64,-33.75 -46.57,-56.11 -66.1,-67.1 -19.22,-10.98 -47.43,-17.63 -84.34,-19.98l0.95 -31.14 430.14 13.1zm855.47 1251.07l-2.35 -31.06 39.89 -3.02c35.02,-2.65 61.72,-10.17 79.44,-22.85 17.76,-12.37 30.62,-28.65 37.99,-48.51 4.24,-12.88 4.13,-50.85 -0.64,-113.89l-60.31 -798.54c-4.72,-62.43 -11.02,-101.16 -18.58,-116.2 -7.87,-15.03 -22.01,-27.74 -42.68,-37.83 -20.69,-10.38 -47.93,-14.14 -82.04,-11.57l-39.9 3.02 -2.35 -31.06 541.5 -40.9c144.66,-10.93 262.5,0.08 353.48,32.72 111.14,40 198.28,106.93 261.38,200.17 63.12,93.55 99.18,202.02 108.5,325.36 6.42,84.97 -1.35,164.58 -23.33,238.52 -22.01,73.64 -52.84,135.7 -92.55,185.87 -40.03,49.89 -87.46,91.14 -141.96,123.74 -54.81,32.63 -122.59,59.8 -203.35,81.52 -35.71,9.74 -92.69,17.72 -170.66,23.61l-541.5 40.9zm374.08 -1178.69l71.38 945.04c3.78,49.94 8.53,80.52 14.26,91.42 5.41,10.92 14.28,18.83 26.01,24.07 16.81,7.61 40.31,10.43 70.76,8.13 99.59,-7.52 173.18,-47.07 220.43,-118.95 64.64,-97.08 89.81,-242.33 75.25,-435.11 -11.75,-155.62 -45.48,-277.74 -101.53,-366.93 -44.18,-69.87 -97.85,-115.43 -160.74,-137.02 -44.34,-15.33 -116.28,-18.78 -215.82,-10.65zm1986.5 462.62l31.39 426.45 -1058.16 193.46 -5.6 -30.64 39.36 -7.2c34.55,-6.32 61.33,-17.73 80.11,-33.9 13.78,-11.22 22.92,-27.48 27.35,-49.09 3.73,-15.27 0.22,-53.13 -10.82,-113.52l-144.03 -787.76c-11.26,-61.59 -21.59,-99.44 -30.7,-113.61 -9.41,-14.12 -24.8,-25.28 -46.42,-33.12 -21.67,-8.14 -49.16,-9.02 -82.8,-2.87l-39.36 7.2 -5.6 -30.65 636.33 -116.34 5.61 30.64 -52.28 9.56c-34.54,6.32 -61.33,17.74 -80.41,33.95 -13.79,11.22 -23.22,27.53 -28.56,49.31 -3.73,15.28 -0.22,53.13 10.82,113.52l139.41 762.52c11.15,60.99 21.9,99.39 31.89,114.95 9.99,15.57 26.06,25.35 48.03,30.03 15.65,2.42 51.59,-1.36 107.48,-11.58l99.15 -18.12c63.09,-11.54 113.64,-32.26 151.63,-62.19 38,-29.92 68.22,-71.78 90.08,-125.45 21.85,-53.67 38.04,-129.91 48.24,-228.64l37.86 -6.92zm481.54 -965.83c183.9,-60.06 350.59,-49.41 499.87,32.31 149.36,82.03 248.75,209.21 298.44,382.42 42.37,147.67 36.22,290.19 -18.13,427.48 -72.09,181.78 -212.75,302.84 -422.37,362.97 -210.2,60.3 -392.94,35.83 -548.49,-73.34 -122.97,-86.41 -206.63,-206.35 -250.85,-360.48 -49.69,-173.21 -32.03,-334.29 52.89,-483.52 84.84,-149.53 214.37,-245.15 388.63,-287.83zm25.94 51.66c-107.16,30.74 -172.9,108.38 -197.73,233.39 -19.9,102.3 -5.7,237.08 42.3,404.42 57.01,198.76 134.44,335.73 231.89,410.72 68.06,52.28 145.98,65.84 234.06,40.57 59.3,-17.02 104.79,-45.63 136.25,-85.48 39.97,-51.18 62.76,-121.27 67.87,-209.8 5.11,-88.52 -10.94,-197.67 -48,-326.85 -44.21,-154.12 -91.7,-265.38 -142.37,-333.45 -50.75,-68.37 -102.94,-111.87 -156.57,-130.48 -53.64,-18.61 -109.56,-19.73 -167.69,-3.06zm1162.01 -480.99c174.46,-83.61 341.11,-94.88 499.8,-33.38 158.81,61.77 273.99,174.85 345.93,340.07 61.32,140.86 73.89,282.95 37.97,426.17 -47.68,189.65 -171.29,328.07 -371.23,415.13 -200.51,87.3 -384.87,86.94 -553.37,-0.92 -133.22,-69.59 -231.86,-177.54 -295.87,-324.56 -71.93,-165.22 -75.51,-327.22 -10.84,-486.28 64.54,-159.35 180.43,-271.1 347.62,-336.22zm32.48 47.82c-102.21,44.5 -157.23,130.07 -165.48,257.26 -6.34,104.03 25.37,235.79 94.86,395.41 82.54,189.58 177.22,315.25 283.66,376.84 74.31,42.93 153.34,46.17 237.35,9.59 56.57,-24.63 97.92,-58.95 123.9,-102.58 32.93,-55.97 46.34,-128.44 39.82,-216.87 -6.52,-88.43 -36.72,-194.54 -90.37,-317.75 -64,-147.02 -125.64,-251.1 -184.78,-311.95 -59.27,-61.14 -116.7,-97.43 -172.31,-108.86 -55.61,-11.43 -111.2,-5.22 -166.65,18.92zm1667.75 -3.49l-113.14 -859.66 425.64 -245.63 15.57 26.98 -34.13 19.69c-30.69,17.71 -52.35,37.61 -64.45,59.41 -8.69,14.89 -11.98,33 -9.58,54.89 1.78,15.91 17.8,50.38 48.48,103.56l400.27 693.61c31.29,54.22 53.74,86.41 67.08,96.69 13.61,10.13 31.85,15.47 55.38,15.3 23.41,0.24 49.59,-8.16 78.96,-25.11l34.13 -19.7 15.57 26.98 -547.59 316 -15.57 -26.98 34.12 -19.69c30.68,-17.7 52.35,-37.61 64.6,-59.14 8.69,-14.89 11.83,-33.28 9.28,-55.43 -1.63,-15.64 -17.64,-50.12 -48.33,-103.3l-449.42 -778.78 148.71 1191.4 -18.52 10.69 -958.72 -714.8 427.14 740.17c30.07,52.11 49.87,83.35 59.38,93.73 21.83,21.96 48.6,34.72 80.55,38.15 31.95,3.43 72.13,-8.83 120.28,-36.61l15.57 26.98 -360.3 207.92 -15.57 -26.98 11.11 -6.41c23.59,-12.91 43.14,-29.13 58.52,-48.93 15.63,-19.96 24.45,-39.5 26.99,-58.94 2.8,-19.6 -0.26,-43.22 -8.9,-71.04 -2.3,-6.43 -17.04,-33.19 -44.52,-80.8l-383.78 -665.04c-31.3,-54.22 -53.47,-86.56 -66.93,-96.43 -13.34,-10.28 -31.85,-15.48 -55.53,-15.56 -23.68,-0.09 -50.13,8.47 -79.48,25.41l-33.6 19.39 -15.57 -26.98 429.08 -247.61 697.22 522.59zm852.09 -1613.15l254.41 315.25 -29.04 22.36c-75.67,-69.7 -159.07,-108.4 -250.43,-115.9 -91.61,-7.31 -168.5,12.98 -230.93,61.07 -48.39,37.28 -76.74,79.55 -84.87,127.06 -8.55,47.46 0.34,88.03 26.06,121.42 16.41,21.29 36.02,36.25 58.8,45.31 30.51,11.58 69.49,16.64 116.75,14.93 34.19,-1.66 106.92,-13.35 217.81,-35.55 155.25,-31.69 271.48,-37.95 348.52,-19.03 76.79,19.11 139.39,60.34 188.22,123.73 61.88,80.33 83.54,173.52 65.42,279.62 -18.12,106.1 -75.36,196.46 -171.9,270.82 -30.24,23.3 -61.46,42.34 -92.98,56.98 -31.76,14.82 -74.58,29.31 -128.46,43.44 -30.02,8.08 -52.19,17.83 -66.94,29.21 -12.34,9.5 -21.44,24.22 -27.96,44.28 -6.33,20.3 -6.28,43.39 0.34,69.52l-24.68 19.01 -279.58 -362.94 24.69 -19.01c99.27,85.83 199.45,132.81 299.93,140.62 100.71,7.62 185.28,-14.73 254,-67.66 52.99,-40.82 84.15,-87.96 93.42,-140.98 9.28,-53.02 -0.72,-98.53 -30.35,-137 -17.33,-22.5 -40.35,-39.86 -68.85,-51.83 -28.5,-11.98 -62.12,-18.07 -101.71,-18.42 -39.4,-0.1 -102.15,8.52 -188.25,25.88 -120.57,24.65 -211.81,36.33 -273.34,35.53 -61.28,-0.98 -116.66,-12.3 -165.93,-33.72 -49.46,-21.66 -91.31,-54.97 -125.78,-99.73 -59.08,-76.7 -81.34,-163.65 -66.53,-261.03 14.57,-97.2 64.78,-178.67 150.43,-244.65 31.21,-24.05 64.25,-43.72 99.31,-58.76 26.73,-11.34 61.84,-21.81 105.52,-31.17 43.68,-9.35 71.72,-19 84.54,-28.88 12.34,-9.51 19.22,-20.59 20.46,-33.5 1.24,-12.9 -5.96,-36.27 -21.91,-69.48l21.78 -16.78zm1429.91 -659.14l256.35 -272.1 25.34 23.88c-24.24,34.64 -37.97,67.02 -40.74,97.57 -2.55,30.32 7.89,83.38 31.94,158.5 23.85,75.35 42.8,167.47 57.29,276.37 81.68,-6.97 143.61,-17.02 185.35,-30.15 29.53,-9.53 52.88,-23.62 70.47,-42.29 30.58,-32.46 36.9,-81.47 19.59,-147.29l38.1 -11.94c36.52,101.54 50.28,186.26 41.72,254.57 -7.1,51.64 -29.29,97.45 -66.36,136.8 -32.04,34.01 -69.74,59.34 -113.32,76.19 -43.35,17.07 -105.88,28.65 -187.38,34.53 -14.42,88.8 -36.14,164.85 -64.72,228.15 -28.8,63.08 -67.28,120.41 -116.07,172.2 -77.7,82.47 -161.94,126.9 -252.49,133.48 -90.78,6.38 -166.06,-18.81 -226.53,-75.78 -65.13,-61.36 -100.05,-138.32 -104.52,-230.23 -4.47,-91.91 17.63,-198.65 65.85,-320.65 -38.7,-15.48 -74.43,-32.78 -106.57,-52.57 -32.14,-19.78 -60.87,-41.4 -86.21,-65.28 -69.36,-65.35 -104.34,-144.46 -104.5,-236.93 -0.17,-92.47 35.57,-176.72 107.2,-252.75 57.59,-61.13 118.8,-95.36 182.98,-102.46 64.4,-6.89 117.15,8.82 157.83,47.15 49.13,46.28 73.75,103.89 74.31,173.65 0.56,69.34 -21.88,157.3 -67.55,263.67 132.77,32.77 294,48.7 483.26,48.25 -12.33,-130.78 -43.96,-220.59 -95.31,-268.96 -18.45,-17.39 -39.87,-25.82 -64.71,-25.3 -24.61,0.73 -49.77,11.85 -75.27,33.57l-25.34 -23.87zm-282.87 223.2c26.25,-61.72 36.94,-109.13 32.47,-143.14 -4.68,-33.78 -20.7,-63.55 -48.04,-89.31 -48.46,-45.66 -101.74,-71.51 -159.38,-77.14 -37.92,-3.84 -68.73,6.59 -92.18,31.48 -19.48,20.68 -28.02,45.78 -25.63,75.31 2.19,29.75 17.06,57.61 44.4,83.37 21.12,19.89 47.37,37.91 78.3,53.63 30.72,15.94 87.76,37.79 170.06,65.8zm-38.28 259.76c-18,48.5 -25.25,87.82 -22.2,117.55 4.96,43.28 22.45,79.06 52.46,107.33 40.91,38.54 92.69,65.09 155.33,79.21 62.66,14.55 120.81,15.63 174.46,3.22 53.63,-12.83 96.16,-35.7 127.58,-69.05 15.5,-16.45 29.53,-38.48 41.89,-65.85 11.94,-27.37 22.42,-59.87 30.8,-97.71 -205.59,3.54 -392.36,-21.37 -560.32,-74.7zm1127.73 -2310.79l267.7 189.56 -18 25.43c-72.93,-28.07 -129.48,-42.29 -169.82,-42.41 -40.58,-0.29 -80.55,10.7 -119.97,32.55 -21.79,12.27 -49.22,41.5 -82.05,87.86l-52.95 74.78 765.73 542.21c51.09,36.18 84.94,56.03 101.54,59.55 16.59,3.52 35.58,0.49 56.35,-8.75 21.19,-9.32 41.46,-27.91 61.22,-55.82l22.95 -32.41 25.43 18 -365.35 515.97 -25.43 -18 23.13 -32.65c20.12,-28.41 31.12,-55.06 33.26,-79.74 1.84,-17.41 -2.81,-35.67 -14.39,-54.73 -8.01,-13.53 -36.97,-38.16 -87.07,-73.63l-765.73 -542.2 -50.83 71.78c-46.95,66.3 -66.81,124.47 -60,174.57 9.56,70.01 46.93,136.15 112.02,199.08l-20.12 28.42 -267.7 -189.56 630.1 -889.86zm272.63 -354.66l430.51 243.87 11.89 -21c38.08,-67.23 44.64,-127.75 19.81,-181.83 -24.98,-53.82 -75.91,-108.29 -153.09,-162.9l17.16 -30.3 553.29 313.42 -17.16 30.3c-63.79,-28.07 -120.74,-42.78 -170.3,-44.52 -49.98,-1.63 -88.85,6.89 -117.19,25.94 -28.34,19.04 -56.81,53.81 -85.42,104.31l297.11 168.3c58.2,32.97 94.9,50.6 110.78,52.93 15.73,2.59 31.63,-0.69 47.55,-9.57 15.91,-8.89 32.51,-28.27 49.52,-58.3l35.83 -63.25c55.85,-98.59 77.86,-190.73 66.13,-276 -11.72,-85.27 -56.85,-167.35 -135.79,-246.11l16.41 -28.97 308.69 237.7 -516.79 912.31 -27.11 -15.35 19.72 -34.82c17.31,-30.56 25.73,-58.43 25.37,-83.21 0.24,-17.77 -6.38,-35.2 -20.12,-52.47 -9.33,-12.66 -40.63,-34.24 -94.04,-64.5l-696.79 -394.71c-48.09,-27.24 -78.35,-42.63 -91.02,-46.29 -21.2,-5.33 -40.7,-3.75 -58.51,4.76 -25.76,11.39 -48.4,34.01 -67.82,68.29l-19.72 34.82 -27.11 -15.36 500.39 -883.34 312.52 177.03 -17.16 30.3c-84.97,-28.48 -151.75,-38.23 -200.33,-29.94 -48.57,8.29 -94.69,32.71 -138.52,73.53 -25.71,23.69 -61.2,75.19 -106.36,154.92l-62.33 110.02zm996.62 -1047.59l586.14 -123.78c98.69,-20.11 160.73,-37.56 186.35,-52.92 25.51,-15.06 45.82,-36.83 61.34,-65.48l28.89 11.65 -221.96 550.04 -28.89 -11.65c14.32,-45.28 18.84,-76.06 14.07,-92.8 -5.05,-16.86 -14.71,-28.01 -29.45,-33.95 -9.91,-4 -19.66,-5.96 -28.91,-5.08 -20.08,0.79 -59.12,7.76 -117.74,20l-307.37 66.33 138.91 255.65c43.49,77.5 76.82,120.59 99.76,129.84 16.15,6.52 33.78,6.06 53.32,-1.54 19.25,-7.71 37.33,-23.14 53.8,-46.8 8.09,-10.24 19.39,-33.35 33.9,-69.32l28.89 11.66 -174.41 432.21 -28.89 -11.66c12.52,-52.25 14.76,-96.14 6.64,-132.35 -10.8,-47.5 -43.41,-120.94 -98.52,-220.24l-180.87 -332.85 -538.13 115.82c-88.93,18.79 -138.88,29.92 -149.16,33.35 -24.74,7.47 -43.72,16.94 -57.48,28.19 -13.36,11.08 -27.43,28.79 -41.67,52.67l-28.89 -11.66 225.27 -558.24 28.89 11.65 -11.43 28.33c-12.92,32 -16.96,56.71 -11.51,73.41 5.05,16.86 15.45,28.63 31.31,35.03 12.18,4.92 23.74,7.28 34.13,6.86l110.32 -22.02 265.72 -56.13 -94.53 -173.84c-50.77,-91.3 -91.1,-143.15 -121.13,-155.26 -15.3,-6.17 -31,-7.24 -47.17,-3.89 -16.18,3.35 -31.4,11.7 -45.16,24.59 -13.59,13.28 -27.34,36.72 -40.94,70.43l-28.89 -11.65 167.1 -414.09 28.89 11.66c-12.58,32.8 -19.24,60.74 -19.71,83.93 -0.35,22.91 5.24,49.87 16.77,80.87 7.48,19.81 34.89,72.7 81.64,158.43l170.78 314.61zm29.42 -1688.94l314.92 91.78 -8.71 29.91c-78.11,-2.72 -136.19,2.3 -174.36,15.35 -38.46,12.98 -72.65,36.41 -102.78,69.94 -16.59,18.71 -32.97,55.29 -48.87,109.83l-25.64 87.97 900.79 262.52c60.11,17.52 98.58,25.23 115.41,23.13 16.84,-2.09 33.8,-11.15 50.41,-26.67 16.99,-15.72 30.08,-39.91 39.65,-72.75l11.11 -38.12 29.91 8.72 -176.89 606.97 -29.91 -8.72 11.2 -38.42c9.74,-33.43 11.44,-62.2 5.4,-86.22 -3.94,-17.06 -14.3,-32.8 -31.47,-47.03 -11.99,-10.17 -47.41,-23.99 -106.34,-41.17l-900.79 -262.51 -24.61 84.45c-22.73,77.99 -22.5,139.46 0.28,184.59 31.89,63.06 88.81,113.37 170.88,151.6l-9.74 33.43 -314.93 -91.78 305.07 -1046.81z"/>
    <path class="fil4" d="M24327.56 15375.32l30.34 7.06 -143.24 615.78 -30.34 -7.06 9.07 -38.98c7.96,-34.2 8.15,-63.32 0.79,-86.98 -4.8,-17.11 -16.09,-31.96 -34.15,-44.63 -12.53,-9.5 -48.66,-21.35 -108.45,-35.26l-780 -181.44c-60.98,-14.19 -99.82,-19.77 -116.44,-17.06 -16.69,3.02 -33.06,12.69 -48.86,29.4 -16.1,16.64 -27.84,41.5 -35.59,74.81l-9.07 38.97 -30.34 -7.06 143.24 -615.78 30.34 7.06 -9.07 38.97c-7.89,33.91 -8,62.73 -0.65,86.4 4.87,16.81 16.08,31.96 34,45.22 12.53,9.5 48.65,21.35 108.45,35.26l779.99 181.44c60.98,14.19 99.82,19.77 116.52,16.75 16.76,-3.31 33.12,-12.98 48.93,-29.69 16.1,-16.64 27.84,-41.5 35.45,-74.22l9.07 -38.96zm-235.89 -1241.8l415.49 101.08 -140.84 1066.44 -30.89 -4.08 5.24 -39.67c4.6,-34.81 1.96,-63.81 -7.66,-86.65 -6.44,-16.56 -19.11,-30.25 -38.31,-41.11 -13.39,-8.24 -50.5,-16.52 -111.36,-24.56l-793.93 -104.85c-62.07,-8.2 -101.27,-9.99 -117.55,-5.67 -16.33,4.62 -31.67,15.84 -45.78,34 -14.4,18.13 -23.68,44.01 -28.15,77.92l-5.24 39.67 -30.89 -4.07 84.7 -641.32 30.89 4.08 -6.96 52.69c-4.6,34.82 -1.96,63.82 7.62,86.96 6.44,16.56 19.07,30.56 38.16,42.32 13.39,8.23 50.5,16.53 111.36,24.56l768.49 101.49c61.46,8.12 101.31,9.69 119.19,4.96 17.88,-4.72 32.13,-17.02 43.33,-36.49 7.11,-14.15 14.55,-49.52 21.98,-105.84l13.2 -99.92c8.4,-63.59 4.19,-118.06 -12.62,-163.41 -16.81,-45.35 -47.35,-86.97 -91.72,-124.25 -44.37,-37.29 -111.95,-76.09 -202.78,-116.12l5.04 -38.15zm-713.33 -534l494.65 11.3 0.55 -24.13c1.76,-77.25 -21.08,-133.68 -68.53,-169.58 -47.46,-35.61 -118.09,-59.53 -211.92,-71.14l0.79 -34.81 635.72 14.52 -0.79 34.81c-69.48,5.44 -126.61,19.41 -171.11,41.31 -44.8,22.19 -75.03,48.08 -90.99,78.27 -15.96,30.18 -24.61,74.28 -25.93,132.3l341.37 7.8c66.87,1.53 107.54,-0.3 122.63,-5.75 15.09,-5.16 27.55,-15.57 37.37,-30.92 9.82,-15.36 15.28,-40.29 16.06,-74.8l1.66 -72.67c2.59,-113.28 -21.59,-204.87 -72.25,-274.46 -50.65,-69.59 -129.22,-120.57 -236.02,-152.64l0.76 -33.28 384.4 63.46 -23.93 1048.24 -31.15 -0.71 0.91 -40c0.8,-35.11 -4.96,-63.66 -16.99,-85.32 -8.19,-15.77 -22.28,-28 -42.54,-36.72 -14.2,-6.74 -51.99,-10.96 -113.36,-12.36l-800.61 -18.28c-55.26,-1.26 -89.19,-0.51 -102.09,2.25 -21.2,5.32 -37.63,15.94 -49.3,31.87 -17.31,22.21 -26.57,52.85 -27.46,92.24l-0.92 40 -31.15 -0.71 23.18 -1014.96 359.08 8.2 -0.8 34.81c-88.33,15.09 -151.79,38.09 -190.67,68.36 -38.88,30.27 -67.97,73.6 -87.29,130.29 -11.44,33.04 -18.36,95.2 -20.46,186.8l-2.89 126.41zm-150.89 -1461.76l403.1 -40.13 2.8 36.55c-99.77,25.11 -177.83,73.69 -234.15,146.01 -56.31,72.63 -81.45,148.07 -75.42,226.64 4.67,60.91 24.5,107.78 59.8,140.61 35.02,33.15 73.83,47.94 115.85,44.71 26.8,-2.05 50.06,-10.27 70.11,-24.37 26.41,-19.18 51.99,-49.02 76.45,-89.49 17.34,-29.51 47.41,-96.76 89.59,-201.7 58.54,-147.24 116.98,-247.91 175.01,-301.98 58.06,-53.77 126.84,-83.56 206.63,-89.68 101.1,-7.76 190.93,25.17 269.76,98.46 78.83,73.29 123.07,170.67 132.39,292.18 2.92,38.06 1.74,74.61 -3.28,108.99 -5,34.7 -16.34,78.45 -34.03,131.27 -9.68,29.54 -13.67,53.43 -12.24,72.01 1.19,15.53 8.52,31.2 21.72,47.65 13.52,16.42 32.86,29.03 58.35,37.79l2.39 31.06 -456.8 35.06 -2.38 -31.06c126.19,-36.03 220.37,-94.1 281.94,-173.88 61.55,-80.07 89.19,-163.07 82.55,-249.56 -5.12,-66.69 -27.48,-118.58 -66.75,-155.39 -39.28,-36.81 -82.82,-53.38 -131.24,-49.67 -28.33,2.17 -55.45,11.92 -81.08,29.2 -25.63,17.28 -49.15,42.07 -71.14,75 -21.67,32.9 -48.83,90.12 -81.48,171.67 -45.44,114.37 -85.65,197.1 -120.03,248.14 -34.39,50.73 -74.2,90.85 -119.11,120.33 -45.22,29.51 -96,46.28 -152.34,50.59 -96.53,7.41 -181.46,-21.6 -254.81,-87.35 -73.33,-65.44 -113.98,-152.07 -122.26,-259.88 -3.01,-39.28 -1.37,-77.7 5.25,-115.27 5.16,-28.58 15.63,-63.69 31.73,-105.36 16.11,-41.67 23.4,-70.41 22.16,-86.55 -1.19,-15.53 -6.7,-27.36 -16.81,-35.46 -10.11,-8.11 -33.61,-14.89 -70.13,-19.74l-2.1 -27.41z"/>
   </g>
   <path class="fil1" d="M10166.88 11214.45l1009.2 -232.81 0 1658.33 1435.69 0c100.09,0 200.17,0 300.26,0l0 1.03c758.59,29.93 1436.78,510.64 1506.66,1559.63l0 2607.23 -1008.28 0 0 -2230.98c0,-543.13 -79.41,-917.86 -501.78,-1015.31l-1732.54 0 0 3246.29 -1009.2 0 0 -3246.29 -1504.33 0c-1372.73,0 -1920.27,1913.4 -206.65,2327.64l621.3 69.65 0 917.41c-711.93,-61.74 -1222.05,-21.77 -1825.87,-472.72 -1524.57,-1138.62 -721.76,-3763.58 1198.24,-3763.58l1717.31 0 0 -1425.52z"/>
   <path class="fil1" d="M16701.81 11214.45l923.94 -232.81 0 1696.33 1647.32 0 -361.1 923.94 -1286.22 0 0 2638.39c-10.78,263.49 130.81,458.41 463.03,625.45l-1161.88 0c-177,-101.99 -253.88,-279.08 -225.09,-535.41l0 -2728.43 -1715.01 0 -328.95 -923.94 2043.96 0 0 -1463.52z"/>
  </g>
 </g>
</svg>
