<?xml version="1.0" encoding="utf-8"?>
<!-- Generator: Adobe Illustrator 24.3.0, SVG Export Plug-In . SVG Version: 6.00 Build 0)  -->
<svg version="1.1" id="Layer_1" xmlns="http://www.w3.org/2000/svg" xmlns:xlink="http://www.w3.org/1999/xlink" x="0px" y="0px"
	 viewBox="0 0 259.1 72" style="enable-background:new 0 0 259.1 72;" xml:space="preserve">
<style type="text/css">
	.st0{fill:url(#SVGID_1_);}
	.st1{fill:#ED8334;}
	.st2{fill:#F8E441;}
	.st3{fill:#F7E040;}
	.st4{fill:#FACB2B;}
	.st5{fill:#F9D735;}
	.st6{fill:#EE8633;}
	.st7{fill:#FAD82E;}
	.st8{fill:#FBC123;}
	.st9{fill:#FFFFFF;}
	.st10{font-family:'Montserrat-SemiBold';}
	.st11{font-size:21.36px;}
</style>
<g id="Layer_2_1_">
	<g id="svg4403">
		
			<radialGradient id="SVGID_1_" cx="35.9832" cy="38.0001" r="27.9239" gradientTransform="matrix(1 0 0 -1 0 74)" gradientUnits="userSpaceOnUse">
			<stop  offset="0" style="stop-color:#FCC039"/>
			<stop  offset="0.47" style="stop-color:#FCC039"/>
			<stop  offset="0.63" style="stop-color:#FAD13C"/>
			<stop  offset="0.83" style="stop-color:#F9DE3E"/>
			<stop  offset="1" style="stop-color:#F8E33F"/>
		</radialGradient>
		<path class="st0" d="M63.9,38.6c-0.1,5.3-2.9,12.2-8.7,17.6c-5.4,5.3-12.8,8.1-20.4,7.7c-7.2-0.2-13.9-3.2-18.8-8.4
			c-5.5-5.5-8.3-13-7.9-20.7c0.2-6.9,3.1-13.5,8-18.4c5.5-5.7,13.2-8.8,21.1-8.3C51.5,8.6,63.9,20.5,63.9,38.6z"/>
		<path class="st1" d="M72,36.2c-0.6,0.3-1.2,0.7-1.8,1c-0.4,0.2-0.4,0.4-0.1,0.7c0.2,0.3,0.4,0.7,0.5,1c0.1,0.3,0,0.5-0.3,0.5l0,0
			c-0.3,0-0.8-0.1-0.9,0.1s0,0.6,0.1,1c0,0.1,0,0.2,0,0.3s0.1,0.4-0.2,0.5s-0.3,0-0.5-0.1s-0.2-0.2-0.4-0.1s-0.1,0.2-0.1,0.4
			c0,0.7-0.1,1.4-0.4,2c0,0.1-0.1,0.2-0.1,0.3s0.2,0.1,0.3,0s0.4-0.2,0.6,0.1s0,0.4-0.1,0.6c-0.1,0.2-0.2,0.4-0.3,0.6
			c-0.3,0.5-0.3,0.5,0.2,0.8c0.1,0,0.2,0.1,0.3,0.2c0.3,0.2,0.3,0.4,0.1,0.6c-0.3,0.3-0.6,0.6-0.9,0.8c-0.2,0.1-0.3,0.3-0.1,0.5
			c0.4,0.5,0.7,1,1.1,1.5s0.2,0.5-0.2,0.6c-0.6,0.1-1.2,0.2-1.8,0.2c-0.3,0-0.4,0.2-0.3,0.5c0.1,0.4,0.1,0.8,0.1,1.2
			c0,0.3-0.2,0.5-0.5,0.3S66,52.1,65.8,52s-0.4,0-0.4,0.3c-0.1,0.4-0.2,0.7-0.3,1.1c0,0.2-0.1,0.3-0.3,0.3c-0.2,0-0.3-0.1-0.4-0.2
			c-0.1-0.2-0.3-0.3-0.5-0.4c-0.3,0.9-0.9,1.7-1.6,2.3c0.2,0.2,0.4,0.2,0.5,0.2c0.4,0.1,0.4,0.4,0.2,0.6c-0.3,0.3-0.6,0.5-0.9,0.7
			c-0.3,0.2-0.3,0.3-0.1,0.5c0.1,0.1,0.2,0.2,0.3,0.4c0.3,0.4,0.3,0.6-0.2,0.7c-0.3,0.1-0.7,0.2-1,0.3c-0.3,0.1-0.4,0.2-0.3,0.5
			c0.2,0.5,0.2,1.1,0.4,1.7c0.1,0.2,0.2,0.4,0,0.5s-0.3,0.1-0.5,0c-0.5-0.2-1.1-0.3-1.7-0.4c-0.3-0.1-0.5,0-0.5,0.3
			c-0.1,0.3-0.2,0.7-0.3,1c-0.2,0.4-0.4,0.5-0.7,0.2S57.4,62,57.1,62s-0.3,0.4-0.5,0.6s-0.3,0.3-0.4,0.5s-0.5,0.2-0.6-0.2
			c0-0.1-0.1-0.3-0.1-0.4s-0.1-0.2-0.2-0.1c-0.6,0.7-1.4,1.2-2.2,1.5c0.1,0.2,0.3,0.3,0.4,0.4c0.1,0.1,0.2,0.2,0.2,0.4
			c0,0.2-0.2,0.3-0.3,0.3c-0.4,0.1-0.7,0.2-1.1,0.3c-0.2,0-0.3,0.1-0.2,0.3s0.2,0.4,0.3,0.7s0,0.5-0.4,0.5c-0.4,0-0.8,0-1.2-0.1
			c-0.3-0.1-0.4,0.1-0.4,0.3c-0.1,0.6-0.2,1.2-0.3,1.8s-0.3,0.5-0.6,0.2s-1-0.7-1.5-1.1c-0.2-0.2-0.3-0.1-0.4,0.1
			c-0.2,0.4-0.5,0.7-0.8,1c-0.2,0.2-0.5,0.2-0.6-0.1s-0.2-0.7-0.4-0.8s-0.5,0.3-0.8,0.4s-0.3,0.2-0.5,0.3c-0.4,0.2-0.6,0-0.5-0.4
			c0-0.1,0-0.2,0.1-0.3c0-0.2,0-0.4-0.3-0.2c-0.7,0.3-1.5,0.5-2.3,0.5c-0.2,0-0.3,0.1-0.2,0.3s0.1,0.2,0.2,0.3
			c0.2,0.3,0,0.6-0.3,0.5c-0.4,0-0.7-0.1-1.1-0.2c-0.3-0.1-0.4,0-0.4,0.4c0,1.1,0,1.1-1.1,0.7l0,0c-0.3-0.1-0.5-0.5-0.8-0.3
			s-0.4,0.5-0.5,0.8s-0.3,0.6-0.5,0.9S36.2,72,36,72s-0.3-0.2-0.4-0.4c-0.3-0.5-0.6-1-0.9-1.5c-0.1-0.2-0.2-0.2-0.4-0.1
			c-0.3,0.2-0.7,0.4-1.1,0.6c-0.4,0.2-0.5,0.1-0.6-0.3s0.1-0.8-0.1-0.9s-0.6,0.1-0.9,0.1h-0.3c-0.2,0-0.4,0.1-0.6-0.1s0-0.4,0.1-0.6
			s0.2-0.4-0.2-0.4c-0.7,0-1.5-0.1-2.2-0.4c-0.1,0-0.2-0.1-0.3-0.1s-0.1,0.2,0,0.3s0.1,0.4,0,0.6s-0.4,0-0.6-0.1
			c-0.3-0.1-0.6-0.3-0.9-0.5c-0.2-0.2-0.3-0.1-0.4,0.1c-0.1,0.2-0.2,0.4-0.3,0.6c-0.2,0.4-0.4,0.4-0.7,0.1c-0.3-0.3-0.6-0.6-0.8-0.9
			c-0.1-0.2-0.2-0.2-0.5-0.1c-0.5,0.4-1,0.7-1.5,1.1s-0.6,0.2-0.6-0.2s-0.2-1.2-0.2-1.7c0-0.3-0.1-0.4-0.5-0.3
			c-0.4,0.1-0.8,0.1-1.2,0.1c-0.4,0-0.5-0.2-0.4-0.6s0.4-0.6,0.3-0.8s-0.5-0.1-0.8-0.2s-0.4-0.1-0.6-0.2c-0.4-0.1-0.4-0.4-0.1-0.6
			c0.1-0.1,0.3-0.2,0.4-0.4c-0.9-0.3-1.7-0.9-2.3-1.6c-0.2,0.2-0.2,0.4-0.2,0.5c-0.1,0.4-0.4,0.4-0.6,0.2c-0.3-0.3-0.5-0.6-0.7-0.9
			c-0.1-0.3-0.3-0.3-0.4,0s-0.3,0.2-0.4,0.4c-0.4,0.3-0.6,0.3-0.7-0.2c-0.1-0.3-0.2-0.7-0.3-1c-0.1-0.3-0.2-0.4-0.5-0.3L11,61.5
			c-0.2,0-0.4,0.1-0.5,0s-0.1-0.3,0-0.5c0.2-0.6,0.3-1.1,0.4-1.7c0.1-0.3,0-0.4-0.3-0.5c-0.4-0.1-0.8-0.2-1.1-0.3
			c-0.4-0.1-0.4-0.4-0.1-0.7s0.5-0.4,0.6-0.7s-0.4-0.3-0.6-0.5S9,56.4,8.8,56.2S8.6,55.7,9,55.6c0.2,0,0.4,0,0.6-0.2
			C8.9,54.7,8.3,53.9,8,53c-0.2,0.1-0.3,0.3-0.4,0.4c-0.1,0.1-0.2,0.2-0.4,0.2c-0.2,0-0.3-0.2-0.3-0.3c-0.1-0.4-0.2-0.7-0.3-1.1
			c0-0.2-0.1-0.3-0.3-0.2l-0.7,0.3c-0.3,0.1-0.5,0-0.5-0.4c0-0.4,0-0.8,0.1-1.2c0.1-0.3-0.1-0.4-0.3-0.4c-0.6-0.1-1.1-0.2-1.7-0.2
			c-0.2,0-0.4,0-0.5-0.3s0.1-0.3,0.2-0.5c0.4-0.5,0.7-1,1.1-1.4c0.2-0.2,0.1-0.3-0.1-0.4c-0.4-0.2-0.7-0.5-1-0.8
			C2.7,46.3,2.7,46.1,3,46s0.7-0.2,0.8-0.4s-0.3-0.5-0.4-0.8s-0.2-0.4-0.3-0.6s0-0.5,0.4-0.5c0.1,0,0.2,0,0.2,0.1
			c0.3,0.1,0.4,0,0.3-0.3c-0.3-0.7-0.5-1.4-0.5-2.2c0-0.3-0.1-0.3-0.3-0.2l-0.2,0.1c-0.1,0.1-0.3,0.2-0.5,0.1
			c-0.1-0.1-0.2-0.3-0.1-0.4c0-0.4,0.1-0.8,0.2-1.2s0-0.3-0.3-0.3c-0.2,0-0.4,0-0.6,0c-0.5,0-0.6-0.2-0.4-0.6c0.1-0.4,0.3-0.7,0.5-1
			c0.2-0.2,0.1-0.3-0.1-0.5c-0.5-0.3-1-0.7-1.5-0.9C0.2,36.3,0,36.2,0,36s0.2-0.3,0.3-0.4c0.5-0.3,1-0.6,1.5-0.9
			c0.3-0.2,0.4-0.3,0.1-0.6c-0.2-0.3-0.4-0.6-0.5-1c-0.1-0.3,0-0.5,0.3-0.5c0.2,0,0.5,0,0.7,0c0.3,0,0.3-0.1,0.3-0.4
			s-0.1-0.7-0.2-1.1c0-0.2,0-0.3,0.1-0.5c0.2-0.1,0.3,0,0.5,0.1s0.3,0.3,0.4,0.2s0.1-0.3,0.1-0.4c0-0.7,0.2-1.4,0.4-2
			c0-0.1,0.2-0.2,0.1-0.3s-0.2-0.1-0.3,0s-0.4,0.1-0.6-0.1s0-0.4,0.1-0.6c0.1-0.3,0.3-0.6,0.5-0.9c0.2-0.2,0.1-0.3-0.1-0.4
			S3.2,26.1,3,26s-0.3-0.4-0.1-0.6c0.3-0.3,0.6-0.6,0.9-0.8c0.3-0.1,0.3-0.3,0.1-0.5c-0.4-0.5-0.7-1-1.1-1.4S2.6,22.1,3.1,22
			s1.2-0.2,1.7-0.2c0.3,0,0.4-0.2,0.4-0.5c-0.1-0.4-0.1-0.8-0.1-1.2c0-0.4,0.2-0.5,0.5-0.4s0.6,0.4,0.9,0.3s0.1-0.6,0.2-0.8
			s0-0.8,0.5-0.8S7.6,18.9,8,19c0.3-0.9,0.9-1.7,1.6-2.3c-0.2-0.1-0.3-0.2-0.5-0.2c-0.1,0-0.3-0.1-0.3-0.3c0-0.2,0.1-0.3,0.2-0.4
			c0.3-0.3,0.6-0.5,0.9-0.7C10,15,10,14.9,9.9,14.7c-0.2-0.2-0.3-0.3-0.5-0.5c-0.2-0.2-0.2-0.5,0.1-0.6c0.4-0.2,0.8-0.3,1.2-0.4
			c0.3,0,0.4-0.2,0.3-0.5c-0.1-0.6-0.3-1.2-0.5-1.7c-0.1-0.2-0.1-0.4,0.1-0.5c0.1-0.1,0.3-0.1,0.4,0c0.6,0.2,1.1,0.3,1.7,0.5
			c0.3,0.1,0.4,0,0.5-0.3c0.1-0.4,0.2-0.7,0.3-1.1c0.1-0.4,0.4-0.5,0.7-0.2s0.4,0.5,0.6,0.5s0.3-0.4,0.5-0.6s0.3-0.3,0.4-0.5
			s0.5-0.2,0.6,0.2c0,0.2,0.1,0.4,0.2,0.5C17.3,8.9,18.1,8.3,19,8c-0.1-0.2-0.3-0.3-0.4-0.4s-0.3-0.5,0.1-0.6
			c0.4-0.1,0.7-0.2,1.1-0.3c0.3,0,0.4-0.2,0.2-0.4s-0.1-0.4-0.2-0.5c-0.1-0.4,0-0.6,0.4-0.6c0.4,0,0.7,0,1.1,0.1
			c0.4,0.1,0.5,0,0.5-0.4c0-0.6,0.1-1.1,0.2-1.7c0-0.2,0-0.4,0.2-0.4s0.3,0.1,0.5,0.2c0.5,0.4,1,0.7,1.4,1.1
			c0.2,0.2,0.3,0.1,0.5-0.1c0.2-0.3,0.5-0.6,0.7-0.9c0.2-0.2,0.5-0.3,0.6,0.1s0.2,0.7,0.4,0.8s0.5-0.3,0.8-0.4l0.1,0
			c0.2-0.1,0.5-0.4,0.7-0.2s0.1,0.5,0.1,0.7s0,0.3,0.3,0.2c0.7-0.3,1.5-0.5,2.3-0.5c0.3,0,0.3-0.1,0.2-0.3c0-0.1-0.1-0.1-0.1-0.2
			c-0.1-0.1-0.1-0.3-0.1-0.4c0.1-0.1,0.2-0.2,0.4-0.2c0.4,0,0.8,0.1,1.1,0.2c0.4,0.1,0.4,0,0.3-0.3c0-0.2,0-0.5,0-0.7
			c0-0.3,0.2-0.4,0.5-0.3c0.4,0.1,0.7,0.3,1,0.5c0.3,0.3,0.5,0.2,0.7-0.2c0.3-0.6,0.7-1.1,1-1.7h0.4c0.3,0.6,0.7,1.2,1,1.8
			c0.2,0.3,0.3,0.3,0.6,0.1c0.3-0.2,0.6-0.4,1-0.5c0.3-0.1,0.5,0,0.5,0.3c0,0.2,0,0.5,0,0.7c0,0.3,0.1,0.3,0.3,0.3s0.8-0.1,1.2-0.2
			c0.2,0,0.3,0,0.4,0.2c0.1,0.1,0,0.3-0.1,0.4c0,0.1-0.1,0.1-0.1,0.2c-0.1,0.2-0.1,0.3,0.2,0.3c0.8,0,1.6,0.2,2.3,0.5
			c0.2,0.1,0.3,0,0.3-0.2s-0.2-0.5,0.1-0.7s0.5,0.1,0.7,0.2l0.1,0c0.3,0.2,0.6,0.5,0.8,0.5s0.3-0.5,0.5-0.8s0.4-0.3,0.6-0.1
			c0.3,0.3,0.6,0.6,0.8,0.9c0.1,0.3,0.3,0.3,0.5,0.1c0.5-0.4,1-0.7,1.4-1.1s0.6-0.2,0.7,0.3s0.2,1.1,0.2,1.7c0,0.3,0.2,0.4,0.5,0.4
			c0.4-0.1,0.8-0.1,1.2-0.1c0.4,0,0.5,0.2,0.4,0.5C52,5.9,52,6.1,51.9,6.2c-0.1,0.3-0.1,0.4,0.3,0.5C52.6,6.8,53,6.9,53.4,7
			c0.3,0.1,0.4,0.4,0.1,0.6S53.1,7.8,53,8c0.9,0.3,1.7,0.9,2.3,1.6c0.1-0.1,0.2-0.3,0.2-0.5c0-0.2,0.1-0.3,0.3-0.4
			c0.2,0,0.3,0.1,0.4,0.2c0.1,0.1,0.2,0.3,0.3,0.4c0.2,0.2,0.3,0.7,0.5,0.6s0.4-0.4,0.7-0.6s0.5-0.2,0.7,0.2
			c0.1,0.4,0.3,0.8,0.3,1.2c0.1,0.2,0.2,0.3,0.4,0.2c0.6-0.1,1.2-0.3,1.8-0.5c0.2-0.1,0.3-0.1,0.5,0.1c0.1,0.1,0.1,0.3,0,0.4
			c-0.2,0.6-0.3,1.2-0.5,1.7c-0.1,0.3,0,0.4,0.3,0.5c0.4,0.1,0.8,0.2,1.1,0.3c0.4,0.1,0.4,0.4,0.2,0.6s-0.3,0.4-0.5,0.5
			s-0.1,0.2,0,0.3c0.3,0.2,0.7,0.4,0.9,0.7c0.1,0.1,0.3,0.2,0.2,0.4s-0.2,0.2-0.4,0.2c-0.2,0-0.3,0.1-0.5,0.2
			c0.7,0.7,1.3,1.5,1.6,2.4c0,0,0.1,0,0.1-0.1c0.8-0.8,0.8-0.7,1.1,0.3c0.1,0.3,0,0.7,0.2,0.8s0.6-0.1,0.9-0.2s0.5,0,0.5,0.4
			c0,0.3,0,0.7-0.1,1c-0.1,0.4,0,0.6,0.4,0.6c0.6,0,1.1,0.1,1.7,0.2c0.4,0.1,0.5,0.3,0.2,0.6s-0.8,1-1.1,1.5
			c-0.1,0.2-0.1,0.3,0.1,0.4c0.2,0.1,0.4,0.3,0.6,0.5c0.7,0.7,0.7,0.7-0.2,1.1c-0.4,0.2-0.5,0.3-0.2,0.7c0.1,0.2,0.3,0.4,0.4,0.7
			c0.1,0.2,0.3,0.4,0.1,0.6s-0.4,0.1-0.6,0.1c-0.1,0-0.2,0-0.3,0c-0.1,0.1,0,0.2,0,0.3c0.3,0.7,0.4,1.4,0.4,2.1
			c0,0.1-0.1,0.3,0.1,0.4s0.2-0.1,0.3-0.1s0.3-0.2,0.5-0.1s0.2,0.3,0.2,0.5s0,0.2,0,0.4c0,0.3-0.2,0.7-0.1,0.9s0.6,0.1,0.9,0.1l0,0
			c0.3,0,0.4,0.2,0.3,0.5c-0.1,0.4-0.3,0.7-0.5,1c-0.2,0.2-0.2,0.4,0.1,0.6c0.6,0.4,1.2,0.7,1.8,1.1L72,36.2z M60.9,52.3
			c-0.3-0.4-0.5-0.8-0.6-1.3l-1.1,1.7v0.1c0.5-0.2,0.9,0,1.3,0.1c0.7,0.6,1.6,1,2.5,1.2C62.5,53.4,61.8,52.7,60.9,52.3z M11,52.3
			c-0.8,0.4-1.5,1-2,1.7c0.2,0,0.3,0,0.5-0.1c0.6-0.3,1.2-0.6,1.8-1c0.4-0.2,0.8-0.3,1.2-0.2c0.2,0,0.3,0,0.1-0.2
			c-0.3-0.5-0.7-1-1.1-1.6C11.5,51.4,11.3,51.9,11,52.3z M52.9,11.3c0.5-0.7,0.9-1.5,1.1-2.4c-0.7,0.6-1.3,1.3-1.8,2.1
			c-0.4,0.3-0.8,0.5-1.3,0.6l1.5,1c0.1,0,0.1,0.1,0.2,0.1s0.1-0.1,0.1-0.2C52.6,12.1,52.7,11.7,52.9,11.3z M52.3,61
			c0.4,0.8,1,1.5,1.7,2c0-0.2-0.1-0.4-0.1-0.6c-0.3-0.6-0.6-1.2-1-1.7c-0.2-0.4-0.3-0.8-0.2-1.2c0-0.2,0-0.3-0.2-0.1l-1.6,1
			C51.4,60.5,51.9,60.7,52.3,61z M19.7,11.1c-0.6-0.7-0.9-1.6-1.8-2.1v0.2c0.3,0.8,0.7,1.5,1.1,2.2c0.2,0.4,0.3,0.8,0.2,1.2
			c0,0.2,0,0.3,0.2,0.1l1.6-1.1C20.5,11.6,20.1,11.2,19.7,11.1z M60.7,19.1c-0.4,0.2-0.8,0.3-1.2,0.2c-0.2,0-0.3,0-0.1,0.2l1,1.6
			c0.1-0.5,0.3-0.9,0.6-1.3c0.8-0.4,1.6-1.1,2.1-1.8l-0.2,0.1C62,18.2,61.3,18.6,60.7,19.1L60.7,19.1z M19.1,60.7
			c-0.5,0.7-0.9,1.5-1.2,2.4c0.7-0.6,1.3-1.3,1.8-2.1c0.4-0.3,0.8-0.5,1.3-0.6l-1.5-1c-0.1,0-0.1-0.1-0.2-0.1s-0.1,0.1-0.1,0.2
			C19.3,59.9,19.3,60.3,19.1,60.7z M30.5,6.7c-0.1-0.9-0.4-1.7-0.9-2.5c-0.1,0.4-0.2,0.8-0.1,1.2c0.1,0.5,0.2,1,0.2,1.5
			c0,0.5-0.1,0.9-0.4,1.3l2.1-0.4C31.1,7.5,30.7,7.1,30.5,6.7L30.5,6.7z M42.2,6.8c0-0.4,0.1-0.8,0.2-1.2c0.2-0.5,0.2-1,0-1.4
			C42.2,4.4,42,4.6,42,4.9c-0.2,0.6-0.3,1.2-0.5,1.8c-0.2,0.5-0.6,0.9-1,1.1l2.1,0.4C42.4,7.8,42.2,7.3,42.2,6.8L42.2,6.8z
			 M65.3,41.5c-0.5-0.2-0.9-0.6-1.1-1l-0.4,2.2c0.4-0.3,0.9-0.4,1.3-0.4c0.4,0,0.8,0.1,1.2,0.2c0.5,0.2,1,0.2,1.4,0
			c-0.2-0.2-0.4-0.3-0.7-0.4L65.3,41.5z M10.9,19.6c0.4,0.4,0.6,0.9,0.8,1.4l1-1.5c0.1-0.2,0-0.3-0.1-0.2c-0.4,0.1-0.8,0-1.2-0.2
			c-0.2,0-0.3-0.1-0.5-0.2c-0.6-0.5-1.3-0.8-2-0.9C9.4,18.6,10.1,19.2,10.9,19.6z M6.7,42.2c0.5,0,1,0.1,1.4,0.4l-0.4-2.2
			c-0.2,0.4-0.6,0.8-1.1,1c-0.8,0.3-1.8,0.2-2.5,0.8c0.4,0.1,0.8,0.2,1.2,0.1C5.8,42.3,6.3,42.2,6.7,42.2z M6.7,30.5
			c0.5,0.2,0.9,0.6,1.1,1l0.4-2.1c-0.4,0.3-0.9,0.4-1.4,0.4c-0.4,0-0.8-0.1-1.1-0.2c-0.5-0.2-1-0.2-1.4,0C4.3,29.8,4.6,30,4.8,30
			C5.4,30.2,6,30.4,6.7,30.5z M65.3,30.5c0.9-0.1,1.7-0.4,2.5-0.9c-0.4-0.1-0.8-0.2-1.2-0.1c-0.5,0.1-0.9,0.2-1.4,0.2
			c-0.5,0-1-0.1-1.4-0.4l0.4,2.1C64.5,31.1,64.9,30.7,65.3,30.5z M42.2,65.3c0-0.5,0.1-1,0.4-1.4l-2.1,0.4c0.4,0.3,0.8,0.6,1,1.1
			c0.3,0.8,0.2,1.8,0.8,2.5c0.1-0.4,0.2-0.8,0.1-1.2C42.3,66.2,42.2,65.7,42.2,65.3z M29.8,65.3c0,0.4-0.1,0.7-0.1,1.1
			c-0.2,0.5-0.2,1,0,1.5c0.2-0.2,0.3-0.4,0.4-0.7c0.2-0.6,0.3-1.2,0.5-1.8c0.2-0.5,0.6-0.9,1-1.1l-2.2-0.4
			C29.6,64.2,29.8,64.7,29.8,65.3z M63.5,27.2L63.5,27.2L63.5,27.2L63.5,27.2c0,0.1,0,0.2,0.1,0.2c0.5,0.5,1.2,0.7,1.8,0.6
			c0.8-0.2,1.6-0.3,2.4-0.4c0.1,0,0.2,0,0.2-0.1c-0.1-0.3-0.4-0.6-0.7-0.5c0,0-0.1,0-0.1,0C66,27.6,64.6,27.7,63.5,27.2z M8.5,27.2
			c-0.8,0.4-1.7,0.5-2.5,0.2c-0.4-0.1-0.8-0.3-1.2-0.5c-0.1-0.1-0.2-0.2-0.4,0S4,27.2,4.1,27.5s0.3,0.1,0.5,0.1l0.3,0
			C5.6,27.9,6.5,28,7.3,28C7.9,28,8.3,27.7,8.5,27.2L8.5,27.2L8.5,27.2L8.5,27.2z M44.8,63.5c-0.1,0-0.2,0-0.2,0.1
			C44,64,43.8,64.7,44,65.4c0.2,0.8,0.3,1.6,0.4,2.4c0,0.1,0,0.2,0.2,0.2c0.3-0.1,0.6-0.4,0.5-0.7c0,0,0-0.1,0-0.1
			C44.4,66,44.3,64.6,44.8,63.5L44.8,63.5L44.8,63.5L44.8,63.5z M27.2,63.5L27.2,63.5L27.2,63.5L27.2,63.5c0.2,0.4,0.3,0.9,0.4,1.4
			c0,0.8-0.3,1.6-0.6,2.3c-0.1,0.1-0.2,0.3-0.1,0.4s0.4,0.4,0.6,0.4s0-0.3,0.1-0.5c0-0.1,0-0.1,0-0.2c0.2-0.8,0.4-1.7,0.4-2.6
			C28,64.1,27.7,63.6,27.2,63.5z M63.5,44.8c0.4-0.2,0.9-0.3,1.4-0.4c0.8,0.1,1.6,0.3,2.3,0.7c0.1,0.1,0.3,0.2,0.4,0.1
			s0.4-0.4,0.4-0.6s-0.3,0-0.5-0.1l-0.2,0c-0.8-0.2-1.7-0.4-2.6-0.4C64.1,44,63.6,44.3,63.5,44.8L63.5,44.8
			C63.5,44.8,63.5,44.8,63.5,44.8z M8.5,44.8L8.5,44.8L8.5,44.8L8.5,44.8C8.4,44.3,7.9,44,7.4,44c-1.1-0.1-2.1,0.4-3.2,0.5
			c-0.1,0-0.1,0.1-0.1,0.2c0.1,0.3,0.4,0.5,0.7,0.5c0.1,0,0.1,0,0.2-0.1C6.1,44.4,7.4,44.3,8.5,44.8z M44.8,8.6L44.8,8.6L44.8,8.6
			L44.8,8.6c-0.4-0.8-0.5-1.7-0.2-2.6c0.2-0.4,0.3-0.8,0.5-1.2c0.1-0.1,0.2-0.2,0-0.4S44.8,4,44.5,4.1s-0.1,0.3-0.1,0.5s0,0.2,0,0.3
			C44.1,5.6,44,6.5,44,7.4C44,7.9,44.3,8.4,44.8,8.6z M27.2,8.6C27.7,8.4,28,7.9,28,7.4c0.1-1.1-0.4-2.1-0.5-3.2
			c0-0.1-0.1-0.1-0.2-0.1c-0.3,0.1-0.5,0.4-0.5,0.7c0,0.1,0,0.1,0.1,0.2C27.6,6.1,27.7,7.4,27.2,8.6L27.2,8.6L27.2,8.6L27.2,8.6z
			 M37.5,65.1L37.5,65.1L37.5,65.1c0.8,1.2,0.9,2.7,0.4,4.1c-0.1,0.2-0.1,0.3,0.1,0.3c0.2,0.2,0.5,0.3,0.7,0.4
			c0.1,0,0.1-0.1,0.1-0.2c0-0.9,0.2-1.8,0.1-2.6C38.9,66.2,38.3,65.4,37.5,65.1z M65.1,34.6c1.2-0.8,2.7-1,4-0.5
			c0.2,0.1,0.3,0.1,0.3-0.1c0.2-0.2,0.3-0.5,0.4-0.7c0-0.1-0.1-0.1-0.2-0.1c-0.9,0-1.8-0.2-2.6-0.1C66.1,33.2,65.4,33.7,65.1,34.6
			L65.1,34.6L65.1,34.6z M34.5,65.1c-0.7,0.2-1.2,0.8-1.3,1.5c-0.1,1-0.1,2.1,0,3.1c0,0.1,0,0.2,0.1,0.2c0.3-0.1,0.5-0.2,0.7-0.4
			c0.2-0.1,0.1-0.2,0.1-0.4c-0.1-0.4-0.2-0.8-0.3-1.2C33.8,66.8,34,65.9,34.5,65.1L34.5,65.1L34.5,65.1z M37.5,7
			c0.7-0.2,1.2-0.8,1.3-1.5c0.1-1,0.1-2.1,0-3.1c0-0.1,0-0.2-0.1-0.2c-0.3,0.1-0.5,0.2-0.7,0.4c-0.2,0.1-0.1,0.2-0.1,0.4
			c0.1,0.4,0.2,0.8,0.3,1.2C38.2,5.2,38,6.2,37.5,7L37.5,7L37.5,7z M34.5,7L34.5,7L34.5,7c-0.8-1.2-0.9-2.7-0.4-4.1
			c0.1-0.2,0.1-0.3-0.1-0.3c-0.2-0.2-0.5-0.3-0.7-0.4c-0.1,0-0.1,0.1-0.1,0.2c0,0.9-0.2,1.8-0.1,2.6C33.2,5.9,33.7,6.7,34.5,7
			L34.5,7z M65.1,37.5L65.1,37.5L65.1,37.5c0.1,0.7,0.7,1.3,1.4,1.4c1,0.1,2.1,0.1,3.1,0c0.1,0,0.2,0,0.2-0.1
			c-0.1-0.3-0.2-0.5-0.4-0.7c-0.1-0.2-0.2-0.1-0.4-0.1c-0.4,0.1-0.8,0.2-1.2,0.3C66.8,38.3,65.9,38,65.1,37.5L65.1,37.5z M6.9,34.6
			L6.9,34.6L6.9,34.6c-0.1-0.7-0.7-1.3-1.4-1.4c-1-0.1-2.1-0.1-3.1,0c-0.1,0-0.2,0-0.2,0.1c0.1,0.3,0.2,0.5,0.4,0.7
			c0.1,0.2,0.2,0.1,0.4,0.1c0.4-0.1,0.8-0.2,1.2-0.3C5.2,33.8,6.1,34,6.9,34.6z M6.9,37.4c-1.2,0.8-2.7,1-4,0.4
			c-0.2-0.1-0.3-0.1-0.3,0.1c-0.2,0.2-0.3,0.5-0.4,0.7c0,0.1,0.1,0.1,0.2,0.1c0.9,0,1.8,0.2,2.6,0.1C5.9,38.9,6.6,38.3,6.9,37.4
			L6.9,37.4L6.9,37.4z M63.9,38.6c0-18.1-12.4-29.9-26.7-30.5c-7.9-0.4-15.6,2.6-21.1,8.3c-4.9,4.9-7.8,11.4-8,18.4
			C7.7,42.5,10.5,50,16,55.5c4.9,5.2,11.7,8.2,18.8,8.4c7.6,0.4,15-2.4,20.4-7.7C61,50.7,63.8,43.9,63.9,38.6L63.9,38.6z M36,71
			c0.5-0.7,0.9-1.4,1.3-2.1c0.6-1.3,0.3-2.9-0.9-3.9c-0.2-0.2-0.5-0.3-0.7-0.1c0,0-0.1,0.1-0.1,0.1c-1,0.8-1.4,2.1-1.1,3.3
			C34.9,69.3,35.4,70.2,36,71z M71,36c-0.7-0.4-1.3-0.9-2-1.2c-1.4-0.7-3-0.3-4,0.8c-0.2,0.2-0.3,0.5-0.1,0.7c0,0,0,0.1,0.1,0.1
			c0.8,1,2.1,1.4,3.3,1C69.3,37.1,70.2,36.6,71,36z M1,36c0.7,0.4,1.3,0.9,2,1.2c1.4,0.7,3.1,0.3,4.1-1c0.1-0.1,0.1-0.4,0-0.5
			c-0.8-1-2.1-1.5-3.4-1.2C2.7,34.9,1.8,35.4,1,36z M36,1c-0.5,0.7-0.9,1.4-1.3,2.1c-0.7,1.4-0.2,3.1,1,4c0.2,0.2,0.4,0.2,0.5,0
			c1-0.8,1.5-2.1,1.2-3.4C37.1,2.8,36.6,1.8,36,1z M3.7,22.6c0.4,0.6,0.8,1.1,1.1,1.6c1,1.4,2.9,1.8,4.3,1c0.2-0.1,0.3-0.2,0.3-0.4
			c-0.4-1.6-1.9-2.6-3.5-2.5L3.7,22.6z M22.6,3.7c-0.2,1-0.3,1.9-0.3,2.9c0.1,1.3,1.1,2.4,2.4,2.8c0.2,0.1,0.4,0,0.5-0.2
			c0,0,0,0,0-0.1c0.8-1.3,0.5-2.9-0.6-3.9C24,4.6,23.3,4.1,22.6,3.7z M49.4,3.7c-0.6,0.4-1.1,0.8-1.6,1.1c-1.4,1-1.8,2.9-1,4.4
			c0.1,0.2,0.2,0.3,0.4,0.2c1.6-0.4,2.7-1.9,2.6-3.6C49.6,5.2,49.5,4.5,49.4,3.7L49.4,3.7z M3.7,49.4c1,0.2,2,0.3,3,0.3
			c1.3-0.2,2.4-1.1,2.8-2.4c0-0.2,0.1-0.3-0.1-0.4c-1.2-0.8-2.8-0.6-3.9,0.3C4.8,47.8,4.2,48.6,3.7,49.4z M68.3,49.4
			c-0.4-0.6-0.8-1.1-1.2-1.6c-1-1.4-2.8-1.8-4.3-1c-0.2,0.1-0.3,0.2-0.3,0.4c0.4,1.6,1.9,2.6,3.5,2.5L68.3,49.4z M22.6,68.3
			c0.6-0.4,1.1-0.8,1.6-1.2c1.4-1,1.8-2.8,1-4.3c-0.1-0.2-0.2-0.3-0.4-0.3c-1.6,0.4-2.6,1.9-2.5,3.5C22.4,66.8,22.5,67.5,22.6,68.3z
			 M68.3,22.6c-1-0.2-2-0.3-3-0.3c-1.3,0.2-2.4,1.1-2.8,2.4c-0.1,0.2,0,0.4,0.2,0.5c1.2,0.7,2.8,0.6,3.9-0.4
			C67.3,24.1,67.8,23.4,68.3,22.6z M49.4,68.3c0.2-1,0.3-2,0.3-3c-0.2-1.3-1.2-2.4-2.5-2.8c-0.2,0-0.3,0-0.4,0.2
			c-0.8,1.2-0.6,2.8,0.3,3.9C47.8,67.3,48.6,67.8,49.4,68.3z M60.7,60.7c-0.1-0.6-0.2-1.1-0.3-1.5c-0.4-1.8-1.6-3.2-3.8-2.9
			c-0.2,0-0.3,0-0.3,0.2c-0.3,1.6,0.7,3.2,2.2,3.7C59.2,60.4,60,60.5,60.7,60.7z M60.7,11.3c-0.6,0.1-1.1,0.2-1.5,0.3
			c-1.8,0.4-3.2,1.6-3,3.8c0,0.2,0,0.3,0.3,0.3c1.6,0.3,3.2-0.7,3.7-2.2C60.4,12.8,60.5,12.1,60.7,11.3L60.7,11.3z M11.2,60.7
			c0.6-0.1,1.1-0.2,1.6-0.3c1.8-0.4,3.1-1.6,2.9-3.8c0-0.2,0-0.3-0.2-0.3C14.1,56,12.6,56.7,12,58C11.7,58.9,11.4,59.8,11.2,60.7z
			 M11.2,11.2c0.2,0.6,0.3,1.1,0.4,1.6c0.4,1.8,1.6,3.2,3.8,2.9c0.2,0,0.3,0,0.4-0.2c0.3-1.6-0.6-3.1-2.1-3.7
			C12.9,11.6,12.1,11.5,11.2,11.2L11.2,11.2z M16.5,14.6c0.4-0.9,0.3-1.9-0.5-2.6c-0.6-0.6-1.2-1.2-1.8-1.7
			c-0.1-0.1-0.1-0.1-0.2-0.1c-0.3,0.3-0.2,0.8,0.1,1.1C15.4,12,16.3,13.2,16.5,14.6L16.5,14.6z M14.7,16.4c-0.4,0-0.8,0-1.1-0.2
			c-1-0.4-1.8-1.2-2.2-2.1c-0.1-0.1-0.1-0.3-0.3-0.3c-0.3,0-0.6,0.1-0.8,0.2c-0.1,0,0,0.1,0,0.2c0.5,0.7,1.1,1.3,1.8,1.9
			C12.7,16.8,13.8,16.9,14.7,16.4L14.7,16.4z M14.7,55.6c-0.6-0.4-1.4-0.4-2-0.1c-0.9,0.6-1.8,1.4-2.4,2.3c0,0.1,0,0.1,0,0.2
			c0.2,0.1,0.5,0.2,0.8,0.2c0.2,0.1,0.3-0.1,0.4-0.2C12,56.6,13.2,55.7,14.7,55.6L14.7,55.6z M16.5,57.4c0,0.4-0.1,0.8-0.3,1.1
			c-0.4,1-1.2,1.7-2.2,2.2c-0.1,0.1-0.3,0.1-0.3,0.3c0,0.3,0.1,0.5,0.2,0.8c0,0.1,0.1,0,0.2-0.1c0.8-0.6,1.5-1.3,2.1-2
			C16.8,59.1,16.9,58.1,16.5,57.4L16.5,57.4z M26.1,8.8c0.5-0.4,0.8-1,0.8-1.7c-0.2-1.1-0.6-2.2-1.2-3.2c0-0.1-0.1-0.1-0.3,0
			c-0.3,0.2-0.5,0.6-0.3,0.9c0,0.1,0.1,0.1,0.1,0.2c0.1,0.1,0.2,0.2,0.2,0.3C26.3,6.3,26.5,7.6,26.1,8.8z M8.8,26.1
			c-0.2-0.1-0.3,0-0.5,0.1c-1.2,0.2-2.4-0.1-3.3-0.9c-0.5-0.4-0.7-0.4-1.1,0.1c-0.1,0.2-0.1,0.3,0,0.4c0.8,0.5,1.7,0.9,2.7,1.1
			C7.4,27.1,8.2,26.8,8.8,26.1z M57.4,55.6c1.3,0.1,2.5,0.9,3.2,2.1c0.3,0.6,0.5,0.7,1.1,0.4c0.2-0.1,0.2-0.2,0.1-0.3
			c-0.5-0.5-0.9-1.1-1.4-1.6C59.6,55.3,58.4,55,57.4,55.6z M55.5,14.6c0.1-1.3,0.9-2.5,2.2-3.2c0.6-0.3,0.6-0.5,0.4-1.1
			c-0.1-0.2-0.2-0.2-0.3-0.1c-0.6,0.6-1.2,1.1-1.8,1.7C55.2,12.7,55.1,13.7,55.5,14.6z M57.4,16.5c0.7,0.4,1.7,0.4,2.3-0.2
			c0.7-0.6,1.4-1.3,2-2.1c0.1-0.1,0.1-0.1,0-0.2c-0.3-0.3-0.8-0.2-1.1,0.1c0,0,0,0.1-0.1,0.1C60,15.4,58.8,16.3,57.4,16.5z
			 M45.8,8.8C45.8,8.8,45.8,8.7,45.8,8.8c0-0.1-0.1-0.3-0.1-0.5c-0.3-1.2,0.1-2.4,0.9-3.3c0.4-0.5,0.5-0.5,0-1.1
			c-0.2-0.2-0.3-0.3-0.5,0c-0.3,0.6-0.6,1.2-0.9,1.9C44.8,6.8,45,8.1,45.8,8.8z M8.8,45.9c-0.5-0.7-1.5-1-2.3-0.8
			c-0.9,0.3-1.7,0.6-2.5,1.1c-0.1,0-0.2,0.1-0.2,0.2c0.1,0.3,0.4,0.4,0.7,0.5s0.3,0,0.4-0.2c0.4-0.4,0.9-0.7,1.5-0.9
			C7.2,45.7,8,45.7,8.8,45.9z M45.8,63.3c-0.6,0.5-0.9,1.3-0.7,2.1c0.2,0.8,0.5,1.5,0.9,2.2c0.1,0.2,0.1,0.6,0.4,0.6
			s0.3-0.3,0.5-0.5c0.1-0.1,0.2-0.3,0.1-0.4c0,0,0,0-0.1-0.1c-0.2-0.1-0.3-0.3-0.4-0.5C45.8,65.7,45.5,64.5,45.8,63.3L45.8,63.3z
			 M63.3,45.8c0.1,0.1,0.2,0,0.3,0c1.2-0.3,2.5,0,3.4,0.9c0.5,0.4,0.7,0.4,1.1-0.1c0.1-0.1,0.1-0.2,0-0.3c-0.8-0.5-1.7-0.9-2.7-1.1
			C64.6,44.9,63.8,45.2,63.3,45.8z M55.5,57.4c-0.4,0.7-0.4,1.6,0.1,2.3c0.6,0.7,1.3,1.4,2.1,2c0.1,0.1,0.1,0.1,0.2,0
			c0.3-0.3,0.2-0.8-0.1-1.1c0,0-0.1,0-0.1-0.1C56.6,60,55.7,58.8,55.5,57.4z M63.3,26.2c0.5,0.6,1.3,0.9,2.1,0.7
			c0.8-0.2,1.5-0.5,2.2-0.9c0.2-0.1,0.5-0.1,0.6-0.4s-0.3-0.3-0.5-0.5s-0.4-0.1-0.5,0.1c-0.1,0.2-0.3,0.3-0.5,0.4
			C65.7,26.2,64.5,26.5,63.3,26.2z M26.1,63.2c0.4,1.4,0,3-1.1,4c-0.1,0.1-0.1,0.2,0,0.3s0.3,0.5,0.5,0.6c0.1,0,0.1,0,0.2-0.1
			c0.5-0.9,0.9-1.8,1.2-2.8C27,64.5,26.7,63.7,26.1,63.2z M9.7,48.3c-0.7,1.3-2.1,2.1-3.6,2.1c-0.2,0-0.3,0-0.3,0.2l-0.1,0.6
			c0,0.2,0.1,0.3,0.3,0.2c0.8-0.3,1.6-0.6,2.4-0.9C9.3,50.1,9.8,49.2,9.7,48.3z M23.8,9.8c-0.6-0.3-1.1-0.8-1.5-1.3
			c-0.4-0.7-0.7-1.4-0.7-2.2c0-0.2,0-0.3-0.2-0.4l-0.6-0.1c-0.2,0-0.3,0.1-0.2,0.3c0.3,0.8,0.5,1.5,0.8,2.3
			C21.8,9.3,22.8,9.9,23.8,9.8z M48.3,9.8c0.8,0.1,1.7-0.3,2.1-1.1c0.4-0.9,0.8-1.8,1-2.7c0-0.1,0.1-0.2,0-0.2
			c-0.3-0.1-0.5,0.1-0.8,0.1s-0.2,0.2-0.2,0.3c0,0.4-0.1,0.8-0.2,1.1C49.9,8.4,49.2,9.2,48.3,9.8L48.3,9.8z M23.8,62.2
			c-0.9-0.1-1.8,0.4-2.2,1.2c-0.4,0.8-0.7,1.7-1,2.6c0,0.1-0.1,0.2,0,0.2c0.3,0,0.6,0,0.8-0.1c0.2,0,0.1-0.2,0.2-0.4
			c0-0.9,0.3-1.7,0.9-2.4C22.8,62.9,23.3,62.5,23.8,62.2z M48.3,62.2c0.4,0.2,0.7,0.5,1,0.8c0.6,0.8,1,1.7,1,2.7
			c0,0.2,0.1,0.4,0.3,0.4s0.3,0.1,0.4,0.1s0.3,0,0.2-0.3c-0.3-0.9-0.6-1.7-1-2.5C49.9,62.7,49.1,62.2,48.3,62.2L48.3,62.2z
			 M62.2,23.8c0.3-0.5,0.6-0.9,1-1.2c0.7-0.6,1.6-0.9,2.6-0.9c0.2,0,0.3,0,0.3-0.2s0.1-0.4,0.1-0.6s-0.1-0.2-0.3-0.2
			c-0.8,0.3-1.5,0.5-2.3,0.8C62.7,21.8,62.1,22.8,62.2,23.8z M9.8,23.8c0.1-0.9-0.4-1.8-1.2-2.2c-0.8-0.4-1.7-0.7-2.6-1
			c-0.1,0-0.2-0.1-0.2,0c0,0.3,0,0.6,0.1,0.8c0,0.2,0.2,0.1,0.4,0.2c0.8,0,1.5,0.3,2.2,0.7C9,22.7,9.5,23.2,9.8,23.8L9.8,23.8z
			 M62.2,48.2c-0.1,0.9,0.4,1.8,1.2,2.2c0.8,0.4,1.7,0.7,2.6,1c0.1,0,0.2,0.1,0.2,0c0.1-0.3-0.1-0.6-0.1-0.8s-0.2-0.2-0.4-0.2
			c-0.9,0-1.7-0.3-2.5-0.9C62.8,49.2,62.5,48.7,62.2,48.2z M38.1,7.4c0.8,0,1.5-0.6,1.7-1.4c0.1-0.9,0.3-1.7,0.6-2.5
			c0.1-0.2,0-0.2-0.2-0.2c-0.5,0-0.7,0.2-0.7,0.7C39.7,5.3,39.2,6.6,38.1,7.4z M64.6,38.1c0,0.8,0.6,1.5,1.4,1.6
			c0.9,0.1,1.7,0.3,2.5,0.6c0.2,0.1,0.2,0,0.2-0.2c0-0.5-0.2-0.7-0.7-0.7C66.7,39.8,65.4,39.2,64.6,38.1z M7.4,38.1
			c-0.5,0.7-1.2,1.1-2,1.3c-0.6,0-1.1,0-1.7,0c-0.2,0-0.3,0-0.3,0.2s-0.2,0.4-0.1,0.6s0.3-0.1,0.4-0.1l0.4-0.1
			c0.7-0.1,1.4-0.2,2.1-0.4C6.9,39.4,7.3,38.8,7.4,38.1L7.4,38.1z M38.3,64.7c0.6,0.5,1.1,1.2,1.2,2c0,0.6,0,1.1,0,1.7
			c0,0.2,0,0.3,0.2,0.3s0.4,0.2,0.6,0.1s-0.1-0.3-0.1-0.4s-0.1-0.3-0.1-0.4c-0.1-0.7-0.2-1.4-0.4-2.1C39.5,65.2,38.9,64.7,38.3,64.7
			z M14.2,17.3c-0.8,0.2-1.6,0-2.2-0.5c-0.4-0.3-0.8-0.7-1.2-1.1c-0.2-0.2-0.4-0.3-0.6-0.1S9.8,15.8,9.7,16c0.8,0.4,1.6,0.9,2.3,1.5
			C12.7,17.9,13.6,17.8,14.2,17.3z M14.3,54.7c-0.6-0.5-1.5-0.6-2.2-0.2c-0.7,0.5-1.5,1-2.3,1.5c0.7,0.6,0.8,0.6,1.3,0
			C11.7,55,13,54.5,14.3,54.7z M16,9.8c-0.6,0.6-0.6,0.7,0,1.2l0.1,0.1c0.7,0.5,1.2,1.3,1.3,2.2c0,0.3,0,0.6,0,0.9
			c0.5-0.6,0.5-1.5,0-2.2C16.9,11.3,16.4,10.5,16,9.8z M54.7,14.2c0-0.3-0.1-0.6-0.1-0.9c0.1-0.9,0.6-1.7,1.4-2.2
			c0.7-0.6,0.7-0.8,0.1-1.4c-0.4,0.8-0.9,1.6-1.5,2.3C54.1,12.7,54.2,13.6,54.7,14.2z M54.7,57.8c-0.5,0.6-0.6,1.5-0.1,2.2
			c0.5,0.7,1,1.5,1.5,2.3c0.6-0.6,0.6-0.7,0-1.3l0,0C55,60.3,54.5,59,54.7,57.8L54.7,57.8z M17.2,57.8c0.1,0.3,0.1,0.6,0.1,0.9
			c-0.1,0.9-0.6,1.7-1.3,2.3c-0.7,0.5-0.7,0.8-0.1,1.3c0.4-0.8,0.9-1.5,1.5-2.2C17.9,59.3,17.8,58.4,17.2,57.8L17.2,57.8z M62.3,16
			c-0.7-0.6-0.8-0.6-1.3,0c-0.1,0.1-0.1,0.1-0.2,0.2c-0.5,0.6-1.2,1-1.9,1.1c-0.4,0-0.7,0-1.1,0c0.6,0.5,1.5,0.6,2.2,0.1
			C60.7,16.9,61.5,16.4,62.3,16z M33.7,7.3c-0.7-0.5-1.1-1.3-1.2-2.1c0-0.5,0-1,0-1.4c0-0.3-0.2-0.6-0.5-0.6c0,0-0.1,0-0.1,0
			c-0.1,0-0.2,0.1-0.1,0.2C32,4.4,32,5.4,32.4,6.3C32.6,6.9,33.1,7.3,33.7,7.3z M33.8,64.7c-0.7,0-1.4,0.5-1.6,1.2
			c-0.2,0.9-0.3,1.8-0.6,2.6c-0.1,0.2,0,0.3,0.2,0.2c0.4-0.1,0.6-0.2,0.6-0.7C32.2,66.8,32.7,65.4,33.8,64.7z M7.3,33.8
			c0-0.7-0.5-1.3-1.2-1.5C5.3,32,4.4,32,3.5,31.7c-0.2-0.1-0.3,0.1-0.2,0.2c0,0.4,0.2,0.6,0.7,0.6C5.2,32.2,6.6,32.8,7.3,33.8z
			 M64.6,33.8c0.5-0.7,1.3-1.2,2.2-1.3c0.5,0,1,0,1.4,0c0.3,0,0.6-0.2,0.6-0.5c0,0,0-0.1,0-0.1c0-0.1-0.1-0.2-0.2-0.2c0,0,0,0-0.1,0
			c-0.9,0.3-1.9,0.3-2.9,0.7C65,32.6,64.6,33.2,64.6,33.8L64.6,33.8z M57.8,54.7c0.9-0.2,1.8,0,2.5,0.6c0.3,0.3,0.6,0.5,0.8,0.9
			c0.1,0.3,0.5,0.4,0.8,0.2c0.1,0,0.1-0.1,0.2-0.2c0.1-0.1,0.2-0.1,0.2-0.2c-0.8-0.4-1.5-0.9-2.2-1.5C59.3,54.1,58.4,54.2,57.8,54.7
			z M61.6,23c0.6-1.3,0.7-1.5,1.5-2c0.4-0.2,0.8-0.4,1.2-0.5c0.6-0.2,0.6-0.5,0.2-1.1c-0.5,0.5-1.1,1-1.8,1.3
			C61.9,21.1,61.4,22.1,61.6,23z M48.9,10.4c0.7,0.2,1.5-0.1,2-0.6c0.5-0.8,1.1-1.6,1.7-2.3c-0.8-0.3-0.9-0.3-1.2,0.4
			C51.1,9.1,50.2,10.1,48.9,10.4z M64.6,52.7c0.3-0.8,0.3-1-0.4-1.2c-1.3-0.3-2.3-1.3-2.6-2.5c-0.2,0.8,0.1,1.7,0.8,2.2
			C63.2,51.5,63.9,52,64.6,52.7z M7.4,52.7C8.1,52,8.8,51.5,9.6,51c0.7-0.4,1-1.2,0.7-2c-0.2,0.9-0.8,1.6-1.6,2
			c-0.4,0.2-0.9,0.4-1.3,0.5c-0.1,0-0.3,0.1-0.3,0.2S7.2,52.4,7.4,52.7L7.4,52.7z M52.6,64.6c-0.5-0.5-1-1.1-1.3-1.8
			c-0.4-0.9-1.3-1.3-2.2-1.1c0.1,0.1,0.2,0.1,0.3,0.2c0.6,0.2,1.2,0.6,1.5,1.2c0.3,0.5,0.5,1,0.7,1.6c0,0.1,0.1,0.3,0.2,0.2
			S52.3,64.8,52.6,64.6z M10.4,23.1c0.2-0.8-0.1-1.7-0.9-2.2c-0.8-0.4-1.5-0.9-2.1-1.5c-0.4,0.7-0.3,0.9,0.3,1.1
			C9.1,20.8,10.1,21.8,10.4,23.1z M19.4,64.6c0.8,0.3,0.9,0.3,1.2-0.4c0-0.1,0.1-0.3,0.1-0.4c0.3-1,1.1-1.7,2.1-2
			c0.1,0,0.2-0.1,0.2-0.1c-0.8-0.2-1.7,0.1-2.1,0.8C20.5,63.3,20,64,19.4,64.6L19.4,64.6z M23,10.4c-0.9-0.2-1.6-0.8-2-1.6
			c-0.2-0.4-0.4-0.9-0.5-1.3c0-0.1-0.1-0.3-0.2-0.3s-0.5,0-0.8,0.2c0.5,0.5,1,1.1,1.3,1.8C21.1,10.1,22.1,10.6,23,10.4z M7.2,39.9
			c-0.7,0.4-1.6,0.7-2.4,0.8c-0.6,0.1-0.6,0.2-0.5,0.8c0.6-0.2,1.2-0.4,1.9-0.5C6.7,40.9,7.2,40.5,7.2,39.9z M64.8,39.8
			c0.1,0.6,0.6,1.1,1.2,1.2c0.5,0.1,1.1,0.2,1.6,0.4c0.1,0,0.2,0.1,0.2-0.1c0.1-0.2,0-0.5-0.2-0.6c0,0-0.1,0-0.1,0
			C66.5,40.6,65.6,40.3,64.8,39.8z M32.2,7.3c-0.4-0.6-0.7-1.2-0.7-1.9c0-0.2-0.1-0.5-0.1-0.8s-0.4-0.4-0.6-0.3s0,0.3,0,0.4
			c0.1,0.4,0.2,0.8,0.3,1.3C31,6.6,31.5,7.1,32.2,7.3z M39.8,7.3c0.7,0,1.1-0.7,1.2-1.3c0.1-0.5,0.2-1,0.4-1.5
			c0-0.1,0.1-0.2-0.1-0.2c-0.3-0.1-0.6,0.1-0.7,0.4c0,0,0,0,0,0C40.6,5.6,40.3,6.5,39.8,7.3z M64.8,32.2c0.6-0.4,1.2-0.6,1.9-0.7
			l0.8-0.1c0.3-0.1,0.4-0.3,0.4-0.6c0,0,0,0,0-0.1c-0.1-0.3-0.3,0-0.4,0c-0.4,0.1-0.8,0.2-1.2,0.3C65.4,31,64.9,31.5,64.8,32.2z
			 M7.2,32.2C7.1,31.5,6.6,31,6,31c-0.5-0.1-1.1-0.2-1.6-0.4c-0.1,0-0.2-0.1-0.2,0c-0.1,0.3,0.1,0.6,0.3,0.7
			C5.5,31.3,6.4,31.6,7.2,32.2L7.2,32.2z M39.8,64.7c0.4,0.6,0.7,1.2,0.7,1.9c0,0.3,0.1,0.5,0.1,0.8c0.1,0.3,0.4,0.4,0.7,0.3
			c0.2-0.1,0-0.3,0-0.4c-0.1-0.4-0.2-0.8-0.3-1.3C41,65.4,40.5,64.8,39.8,64.7z M32.1,64.7c-0.2,0-0.4,0-0.6,0.2
			c-0.3,0.2-0.5,0.6-0.6,1c-0.1,0.5-0.2,1-0.4,1.6c0,0.1-0.1,0.2,0.1,0.2c0.3,0.1,0.6-0.1,0.6-0.4c0,0,0,0,0,0
			C31.4,66.4,31.7,65.5,32.1,64.7L32.1,64.7z M28.5,64c0.1,0.3,0.1,0.6,0.1,0.9c0,0.7-0.1,1.4-0.3,2c-0.1,0.3,0.2,0.3,0.3,0.4
			s0.2-0.1,0.3-0.2c0.1-0.7,0.2-1.4,0.2-2.1C29.2,64.6,28.9,64.2,28.5,64z M64,28.6c0.2,0.4,0.6,0.6,1,0.6c0.7,0,1.3-0.1,2-0.2
			c0.2,0,0.4,0,0.3-0.3s-0.1-0.4-0.5-0.3C65.9,28.6,65,28.7,64,28.6z M8,28.5c-0.3,0.1-0.6,0.1-0.9,0.1c-0.7,0-1.3-0.1-1.9-0.3
			c-0.3-0.1-0.4,0.1-0.5,0.3s0.1,0.3,0.3,0.3c0.5,0.1,1,0.2,1.5,0.2C7,29.3,7.7,29.1,8,28.5z M8,43.5c-0.2-0.4-0.6-0.6-1-0.6
			c-0.7,0-1.3,0.1-2,0.2c-0.2,0-0.4,0-0.3,0.3s0.2,0.4,0.5,0.3C6.1,43.4,7.1,43.3,8,43.5z M64,43.5c0.3-0.1,0.6-0.1,0.9-0.1
			c0.7,0,1.4,0.1,2,0.3c0.3,0.1,0.3-0.2,0.4-0.3s-0.1-0.2-0.2-0.3c-0.7-0.1-1.4-0.2-2.1-0.2C64.5,42.8,64.2,43.1,64,43.5L64,43.5z
			 M28.5,8.1c0.4-0.2,0.6-0.6,0.6-1c0-0.7-0.1-1.3-0.2-2c0-0.2,0-0.4-0.3-0.3s-0.4,0.2-0.3,0.5C28.6,6.1,28.7,7.1,28.5,8.1z
			 M43.5,8.1c-0.1-0.3-0.1-0.6-0.1-0.9c0-0.7,0.1-1.4,0.3-2c0.1-0.3-0.1-0.4-0.3-0.4S43.1,4.8,43.1,5c-0.1,0.5-0.2,1-0.2,1.4
			C42.7,7,42.9,7.7,43.5,8.1L43.5,8.1z M43.5,64c-0.4,0.2-0.6,0.6-0.6,1c0,0.7,0.1,1.4,0.3,2.1c0,0.2,0.2,0.3,0.3,0.2
			s0.3-0.2,0.2-0.5C43.4,65.9,43.3,64.9,43.5,64L43.5,64z M50.5,61.1c0.6,0.3,1.1,0.8,1.5,1.4l0.5,0.8c0.2,0.3,0.4,0.2,0.6,0
			s0-0.3-0.1-0.4l-0.8-1.1C51.8,61.2,51.1,60.9,50.5,61.1L50.5,61.1z M21.7,61.1c-0.5-0.1-1.1,0-1.5,0.5c-0.4,0.5-0.7,1-1.1,1.4
			c-0.1,0.1-0.3,0.2-0.1,0.4s0.4,0.2,0.5,0s0.3-0.5,0.5-0.7C20.4,62,20.9,61.4,21.7,61.1L21.7,61.1z M21.7,11
			c-0.6-0.3-1.1-0.8-1.5-1.4C20,9.3,19.9,9,19.7,8.7s-0.4-0.1-0.6,0s0,0.3,0.1,0.4l0.8,1.1C20.3,10.8,21,11.1,21.7,11L21.7,11z
			 M50.5,11c0.7,0.2,1.3-0.1,1.7-0.7L53,9.1c0.1-0.1,0.3-0.2,0.1-0.4s-0.4-0.3-0.6,0c-0.2,0.2-0.3,0.4-0.4,0.6
			C51.7,10.1,51.1,10.6,50.5,11L50.5,11z M61.1,21.6c0.3-0.7,0.9-1.3,1.5-1.6c0.2-0.1,0.5-0.3,0.7-0.5s0.1-0.4,0-0.5s-0.2-0.1-0.3,0
			c-0.4,0.4-0.9,0.6-1.3,1C61.2,20.3,60.9,21,61.1,21.6z M10.9,21.6c0.2-0.6,0-1.2-0.5-1.5L9,19c-0.1-0.1-0.2-0.1-0.3,0
			s-0.2,0.4,0.1,0.6C9.6,20.2,10.5,20.6,10.9,21.6z M61.1,50.4c-0.1,0.5,0,1.1,0.4,1.4c0.5,0.4,1,0.7,1.5,1.1
			c0.3,0.2,0.4,0.2,0.5-0.2s-0.1-0.3-0.2-0.4C62.4,51.8,61.5,51.4,61.1,50.4z M10.9,50.4c-0.3,0.6-0.8,1.1-1.4,1.5
			C9.3,52,9,52.2,8.7,52.4s-0.1,0.4,0,0.6s0.3,0,0.4-0.1l1.1-0.8C10.8,51.7,11.1,51.1,10.9,50.4L10.9,50.4z M53.6,58.8
			c-0.4,0.5-0.4,1.3,0,1.8c0.3,0.5,0.7,1.1,1,1.6c0.5-0.4,0.5-0.4,0.1-0.9C54.1,60.6,53.7,59.8,53.6,58.8L53.6,58.8z M17.4,9.8
			c-0.5,0.4-0.5,0.4-0.2,0.9c0.6,0.7,1,1.5,1.1,2.5c0.4-0.5,0.4-1.2,0-1.8C18.1,10.8,17.7,10.3,17.4,9.8z M54.6,9.8
			c-0.3,0.6-0.6,1.1-1,1.6c-0.4,0.5-0.4,1.2,0,1.8c0.1-0.9,0.5-1.8,1.1-2.4C55.1,10.2,55.1,10.2,54.6,9.8z M17.4,62.2
			c0.3-0.5,0.6-1,0.9-1.6c0.4-0.6,0.4-1.3,0-1.8c-0.1,0.9-0.5,1.8-1.1,2.5C16.9,61.8,16.9,61.8,17.4,62.2z M9.7,54.6
			c0.4,0.5,0.4,0.5,0.9,0.2c0.7-0.6,1.5-1,2.5-1.1c-0.5-0.3-1.2-0.3-1.7,0C10.8,53.9,10.3,54.3,9.7,54.6z M13.1,18.4
			c-0.8-0.1-1.6-0.4-2.2-0.9c-0.2-0.1-0.4-0.3-0.6-0.4c-0.3-0.1-0.4,0.1-0.6,0.3s0,0.2,0.1,0.2c0.5,0.2,1,0.5,1.4,0.8
			C11.9,18.7,12.6,18.7,13.1,18.4z M62.3,17.5c-0.4-0.5-0.4-0.5-1-0.2c-0.6,0.6-1.4,1-2.3,1.1C60.4,19.1,61.2,17.8,62.3,17.5z
			 M58.8,53.6c0.9,0.1,1.8,0.5,2.5,1.1c0.5,0.3,0.5,0.3,0.9-0.2c-0.5-0.2-1-0.6-1.5-0.9C60.2,53.3,59.4,53.3,58.8,53.6z"/>
		<path class="st2" d="M36,71c-0.6-0.8-1.1-1.7-1.5-2.7c-0.3-1.2,0.1-2.5,1.1-3.3c0.2-0.2,0.5-0.3,0.7-0.1c0,0,0.1,0.1,0.1,0.1
			c1.1,1,1.5,2.5,0.8,3.9C36.9,69.6,36.5,70.3,36,71z"/>
		<path class="st2" d="M71,36c-0.8,0.6-1.7,1.1-2.7,1.4c-1.2,0.3-2.5-0.1-3.3-1c-0.2-0.2-0.3-0.5-0.1-0.7c0,0,0-0.1,0.1-0.1
			c1-1.2,2.6-1.5,4-0.8C69.6,35.1,70.2,35.6,71,36z"/>
		<path class="st2" d="M1,36c0.8-0.6,1.8-1.1,2.7-1.5c1.3-0.3,2.6,0.2,3.4,1.2c0.1,0.1,0.1,0.4,0,0.5c-0.9,1.3-2.6,1.7-4.1,1
			C2.4,36.9,1.8,36.4,1,36z"/>
		<path class="st2" d="M36,1c0.6,0.8,1.1,1.7,1.4,2.7c0.3,1.3-0.1,2.6-1.2,3.4c-0.2,0.2-0.4,0.2-0.5,0c-1.2-0.9-1.6-2.6-1-4
			C35.1,2.4,35.5,1.7,36,1z"/>
		<path class="st2" d="M3.7,22.6l2.2-0.4c1.6-0.1,3.1,0.9,3.5,2.5c0.1,0.2-0.1,0.3-0.3,0.4c-1.5,0.8-3.4,0.4-4.3-1
			C4.4,23.7,4.1,23.2,3.7,22.6z"/>
		<path class="st2" d="M22.6,3.7c0.7,0.4,1.4,0.9,2,1.5c1.1,1,1.4,2.7,0.6,4c-0.1,0.2-0.3,0.3-0.5,0.3c0,0,0,0-0.1,0
			c-1.3-0.4-2.2-1.5-2.3-2.9C22.3,5.6,22.4,4.7,22.6,3.7z"/>
		<path class="st2" d="M49.4,3.7c0.1,0.8,0.2,1.5,0.4,2.2c0.1,1.6-0.9,3.1-2.5,3.5c-0.2,0-0.3-0.1-0.4-0.2c-0.8-1.5-0.4-3.4,1-4.4
			C48.3,4.4,48.8,4.1,49.4,3.7z"/>
		<path class="st2" d="M3.7,49.4c0.5-0.8,1.1-1.6,1.7-2.2c1.1-1,2.7-1.1,3.9-0.3c0.2,0.1,0.2,0.2,0.1,0.4c-0.3,1.3-1.4,2.2-2.8,2.4
			C5.7,49.7,4.7,49.6,3.7,49.4z"/>
		<path class="st2" d="M68.3,49.4l-2.2,0.4c-1.6,0.1-3.1-0.9-3.5-2.5c0-0.2,0.1-0.3,0.3-0.4c1.5-0.8,3.3-0.4,4.3,1
			C67.5,48.3,67.9,48.8,68.3,49.4z"/>
		<path class="st2" d="M22.6,68.3c-0.1-0.8-0.2-1.5-0.4-2.2c-0.1-1.6,0.9-3.1,2.5-3.5c0.2,0,0.3,0.1,0.4,0.3c0.8,1.5,0.4,3.4-1,4.3
			C23.7,67.6,23.2,67.9,22.6,68.3z"/>
		<path class="st2" d="M68.3,22.6c-0.5,0.8-1,1.5-1.7,2.2c-1.1,1-2.7,1.2-3.9,0.4c-0.2-0.1-0.2-0.3-0.2-0.5c0.4-1.3,1.4-2.2,2.8-2.4
			C66.3,22.3,67.3,22.4,68.3,22.6z"/>
		<path class="st2" d="M49.4,68.3c-0.8-0.5-1.6-1-2.2-1.7c-1-1.1-1.1-2.6-0.3-3.9c0.1-0.2,0.2-0.2,0.4-0.2c1.3,0.4,2.2,1.4,2.5,2.8
			C49.7,66.3,49.6,67.3,49.4,68.3z"/>
		<path class="st2" d="M60.7,60.8c-0.8-0.2-1.5-0.3-2.2-0.6c-1.5-0.5-2.5-2.1-2.2-3.7c0-0.2,0.2-0.2,0.3-0.2
			c2.2-0.2,3.4,1.1,3.8,2.9C60.5,59.7,60.6,60.2,60.7,60.8z"/>
		<path class="st2" d="M60.7,11.3c-0.2,0.8-0.3,1.5-0.6,2.2c-0.5,1.6-2.1,2.5-3.7,2.2c-0.2,0-0.2-0.2-0.3-0.3
			c-0.2-2.2,1.1-3.4,3-3.8C59.7,11.5,60.2,11.4,60.7,11.3z"/>
		<path class="st2" d="M11.2,60.7c0.2-0.9,0.4-1.8,0.8-2.7c0.6-1.3,2-2,3.5-1.8c0.2,0,0.2,0.2,0.2,0.3c0.2,2.2-1.1,3.3-2.9,3.8
			C12.3,60.5,11.8,60.6,11.2,60.7z"/>
		<path class="st2" d="M11.2,11.2c0.8,0.3,1.6,0.3,2.4,0.6c1.5,0.5,2.4,2.1,2.1,3.7c0,0.3-0.2,0.2-0.4,0.2c-2.2,0.2-3.4-1.2-3.8-2.9
			C11.5,12.3,11.4,11.8,11.2,11.2z"/>
		<path class="st3" d="M16.4,14.6c-0.1-1.4-1-2.7-2.4-3.2c-0.3-0.3-0.4-0.8-0.1-1.1c0.1-0.1,0.2,0,0.2,0.1c0.6,0.5,1.2,1.1,1.8,1.7
			C16.7,12.7,16.9,13.7,16.4,14.6z"/>
		<path class="st3" d="M14.7,16.4c-0.8,0.5-2,0.4-2.7-0.3c-0.6-0.6-1.2-1.2-1.8-1.9c0,0-0.1-0.1,0-0.2c0.3-0.1,0.5-0.2,0.8-0.2
			c0.2,0,0.2,0.1,0.3,0.3c0.4,1,1.2,1.7,2.2,2.1C13.9,16.3,14.3,16.4,14.7,16.4z"/>
		<path class="st3" d="M14.6,55.6c-1.5,0.1-2.7,1.1-3.3,2.4c-0.1,0.2-0.1,0.3-0.4,0.2c-0.3,0-0.5-0.1-0.8-0.2c0-0.1,0-0.1,0-0.2
			c0.6-0.9,1.5-1.7,2.4-2.3C13.3,55.2,14,55.2,14.6,55.6z"/>
		<path class="st3" d="M6.9,37.5c-0.3,0.8-1.1,1.4-1.9,1.4c-0.9,0.1-1.8-0.1-2.6-0.1c-0.1,0-0.2,0-0.2-0.1c0.1-0.3,0.2-0.5,0.4-0.7
			c0.1-0.1,0.2-0.1,0.3-0.1C4.3,38.4,5.8,38.2,6.9,37.5L6.9,37.5z"/>
		<path class="st3" d="M16.4,57.4c0.4,0.7,0.4,1.6-0.1,2.3c-0.6,0.7-1.3,1.4-2.1,2c-0.1,0-0.1,0.1-0.2,0.1c-0.1-0.2-0.2-0.5-0.2-0.8
			c0-0.2,0.1-0.3,0.3-0.3c1-0.4,1.7-1.2,2.1-2.2C16.3,58.2,16.4,57.8,16.4,57.4z"/>
		<path class="st3" d="M6.9,34.6c-0.8-0.5-1.8-0.8-2.7-0.7c-0.4,0-0.8,0.1-1.2,0.3c-0.2,0-0.3,0.1-0.4-0.1c-0.2-0.2-0.3-0.5-0.4-0.7
			c0-0.1,0.1-0.1,0.2-0.1c1-0.1,2.1-0.1,3.1,0C6.2,33.3,6.8,33.9,6.9,34.6L6.9,34.6z"/>
		<path class="st3" d="M65.1,37.4c0.8,0.5,1.8,0.8,2.7,0.7c0.4,0,0.8-0.1,1.2-0.3c0.2,0,0.3-0.1,0.4,0.1c0.2,0.2,0.3,0.5,0.4,0.7
			c0,0.1-0.1,0.1-0.2,0.1c-1,0.1-2.1,0.1-3.1,0C65.8,38.7,65.2,38.1,65.1,37.4L65.1,37.4z"/>
		<path class="st3" d="M34.5,7c-0.9-0.3-1.4-1.1-1.4-2c-0.1-0.9,0.1-1.8,0.1-2.6c0-0.1,0-0.2,0.1-0.2c0.3,0.1,0.5,0.2,0.7,0.4
			c0.1,0.1,0.1,0.2,0.1,0.3C33.6,4.3,33.8,5.8,34.5,7L34.5,7z"/>
		<path class="st3" d="M37.4,6.9c0.5-0.8,0.8-1.8,0.7-2.7c0-0.4-0.1-0.8-0.3-1.2c0-0.2-0.1-0.3,0.1-0.4c0.2-0.2,0.5-0.3,0.7-0.4
			c0.1,0,0.1,0.1,0.1,0.2c0.1,1,0.1,2.1,0,3.1C38.7,6.2,38.1,6.8,37.4,6.9L37.4,6.9z"/>
		<path class="st3" d="M34.6,65.1c-0.5,0.8-0.8,1.8-0.7,2.7c0,0.4,0.1,0.8,0.3,1.2c0,0.2,0.1,0.3-0.1,0.4c-0.2,0.2-0.5,0.3-0.7,0.4
			c-0.1,0-0.1-0.1-0.1-0.2c-0.1-1-0.1-2.1,0-3.1C33.3,65.8,33.9,65.2,34.6,65.1L34.6,65.1z"/>
		<path class="st3" d="M65.1,34.5c0.3-0.8,1.1-1.4,1.9-1.4c0.9-0.1,1.8,0.1,2.6,0.1c0.1,0,0.2,0,0.2,0.1c-0.1,0.3-0.2,0.5-0.4,0.7
			c-0.1,0.1-0.2,0.1-0.3,0.1C67.7,33.6,66.2,33.8,65.1,34.5L65.1,34.5z"/>
		<path class="st3" d="M37.5,65.1c0.8,0.3,1.4,1.1,1.4,1.9c0.1,0.9-0.1,1.8-0.1,2.6c0,0.1,0,0.2-0.1,0.2c-0.3-0.1-0.5-0.2-0.7-0.4
			c-0.1-0.1-0.1-0.2-0.1-0.3C38.4,67.7,38.2,66.2,37.5,65.1L37.5,65.1z"/>
		<path class="st3" d="M26.1,8.8c0.3-1.2,0.1-2.4-0.6-3.4c-0.1-0.1-0.2-0.2-0.2-0.3C25,4.8,25,4.3,25.2,4c0.1-0.1,0.1-0.1,0.2-0.2
			c0.1-0.1,0.2-0.1,0.3,0c0.6,1,1,2.1,1.2,3.2C26.9,7.7,26.6,8.4,26.1,8.8z"/>
		<path class="st3" d="M8.8,26.1c-0.5,0.6-1.4,0.9-2.2,0.7c-0.9-0.3-1.8-0.7-2.7-1.1c-0.2-0.1-0.2-0.2,0-0.4
			c0.4-0.5,0.7-0.5,1.1-0.1c0.9,0.8,2.1,1.1,3.3,0.9C8.4,26.2,8.6,26.1,8.8,26.1z"/>
		<path class="st3" d="M57.4,55.6c1-0.5,2.2-0.3,2.9,0.6c0.5,0.5,1,1.1,1.4,1.6c0.1,0.1,0.2,0.2-0.1,0.3c-0.6,0.3-0.8,0.2-1.1-0.4
			C59.9,56.5,58.7,55.7,57.4,55.6z"/>
		<path class="st3" d="M55.5,14.6c-0.5-0.9-0.3-2,0.5-2.6c0.6-0.6,1.2-1.1,1.8-1.7c0.1-0.1,0.2-0.1,0.3,0.1c0.3,0.6,0.2,0.8-0.4,1.1
			C56.5,12.1,55.7,13.3,55.5,14.6z"/>
		<path class="st3" d="M57.4,16.5c1.4-0.1,2.6-1,3.2-2.3c0.2-0.4,0.7-0.5,1.1-0.3c0,0,0.1,0,0.1,0.1c0.1,0.1,0,0.2,0,0.2
			c-0.6,0.8-1.3,1.5-2,2.1C59.1,16.8,58.1,16.9,57.4,16.5z"/>
		<path class="st3" d="M45.8,8.8c-0.8-0.7-1-1.9-0.5-2.9c0.3-0.6,0.6-1.2,0.9-1.9c0.1-0.3,0.3-0.3,0.5,0c0.4,0.5,0.4,0.5,0,1.1
			c-0.8,0.9-1.1,2.1-0.9,3.3C45.8,8.5,45.9,8.6,45.8,8.8C45.9,8.9,45.9,8.7,45.8,8.8z"/>
		<path class="st3" d="M8.8,45.9c-0.8-0.3-1.6-0.3-2.4,0c-0.6,0.2-1.1,0.5-1.5,0.9C4.7,47,4.6,47.2,4.4,47s-0.5-0.3-0.7-0.5
			c0-0.1,0.1-0.2,0.2-0.2c0.8-0.4,1.6-0.8,2.5-1.1C7.3,45,8.2,45.3,8.8,45.9z"/>
		<path class="st3" d="M45.8,63.3c-0.3,1.2-0.1,2.4,0.6,3.4c0.1,0.2,0.3,0.4,0.4,0.5c0.1,0.1,0.2,0.3,0.1,0.4c0,0,0,0-0.1,0.1
			c-0.2,0.2-0.2,0.5-0.5,0.5s-0.3-0.3-0.4-0.6c-0.4-0.7-0.7-1.4-0.9-2.2C44.9,64.6,45.2,63.8,45.8,63.3z"/>
		<path class="st3" d="M63.3,45.8c0.5-0.6,1.3-0.8,2.1-0.7c0.9,0.3,1.8,0.6,2.7,1.1c0.2,0.1,0.2,0.2,0,0.3c-0.4,0.5-0.7,0.5-1.1,0.1
			c-0.9-0.8-2.2-1.2-3.4-0.9C63.5,45.8,63.4,45.9,63.3,45.8z"/>
		<path class="st3" d="M55.5,57.4c0.1,1.4,1,2.6,2.3,3.2c0.4,0.2,0.5,0.7,0.3,1c0,0,0,0.1-0.1,0.1c-0.1,0.1-0.2,0-0.2,0
			c-0.8-0.6-1.5-1.3-2.1-2C55.1,59.1,55.1,58.1,55.5,57.4z"/>
		<path class="st3" d="M63.3,26.2c1.2,0.3,2.4,0.1,3.4-0.6c0.2-0.1,0.3-0.3,0.5-0.4c0.2-0.2,0.3-0.2,0.5-0.1s0.5,0.2,0.5,0.5
			s-0.3,0.3-0.6,0.4c-0.7,0.4-1.5,0.7-2.2,0.9C64.6,27,63.8,26.8,63.3,26.2z"/>
		<path class="st3" d="M26.1,63.2c0.6,0.5,0.9,1.3,0.8,2c-0.3,1-0.6,1.9-1.2,2.8c0,0.1-0.1,0.2-0.2,0.1c-0.3-0.1-0.4-0.4-0.5-0.6
			s0-0.2,0-0.3C26.1,66.2,26.6,64.7,26.1,63.2z"/>
		<path class="st3" d="M9.7,48.3c0.1,0.9-0.4,1.8-1.3,2.2c-0.8,0.4-1.6,0.7-2.5,0.9c-0.2,0.1-0.3,0-0.3-0.2l0.1-0.6
			c0-0.2,0.2-0.2,0.3-0.2C7.6,50.4,9,49.6,9.7,48.3z"/>
		<path class="st3" d="M23.8,9.8c-1,0.1-2-0.5-2.4-1.5c-0.3-0.7-0.6-1.5-0.8-2.3c-0.1-0.2,0-0.3,0.2-0.3l0.6,0.1
			c0.2,0,0.2,0.2,0.2,0.4c0,0.8,0.3,1.6,0.7,2.2C22.7,9,23.2,9.5,23.8,9.8z"/>
		<path class="st3" d="M48.3,9.8c0.9-0.5,1.6-1.4,1.9-2.4c0.1-0.4,0.2-0.8,0.2-1.1c0-0.2,0-0.3,0.2-0.3s0.5-0.2,0.8-0.1
			c0.1,0,0,0.1,0,0.2c-0.2,0.9-0.6,1.8-1,2.7C50,9.4,49.2,9.9,48.3,9.8z"/>
		<path class="st3" d="M23.8,62.2c-0.5,0.3-1,0.7-1.3,1.1c-0.5,0.7-0.8,1.5-0.9,2.4c0,0.2,0,0.3-0.2,0.4c-0.3,0.1-0.5,0.1-0.8,0.1
			c-0.1,0,0-0.2,0-0.2c0.3-0.9,0.6-1.8,1-2.6C22,62.6,22.9,62.2,23.8,62.2z"/>
		<path class="st3" d="M48.3,62.3c0.9-0.1,1.7,0.4,2.1,1.2c0.4,0.8,0.7,1.7,1,2.5c0.1,0.3-0.1,0.3-0.2,0.3s-0.3-0.1-0.4-0.1
			s-0.3-0.1-0.3-0.4c0-1-0.4-1.9-1-2.7C49.1,62.8,48.7,62.5,48.3,62.3z"/>
		<path class="st3" d="M62.2,23.8c-0.1-1,0.5-2,1.5-2.4c0.7-0.3,1.5-0.6,2.3-0.8c0.2-0.1,0.3,0,0.3,0.2s-0.1,0.4-0.1,0.6
			s-0.2,0.2-0.3,0.2c-0.9,0-1.8,0.4-2.6,0.9C62.8,22.9,62.5,23.3,62.2,23.8z"/>
		<path class="st3" d="M9.8,23.8c-0.3-0.6-0.8-1.1-1.3-1.5c-0.7-0.4-1.4-0.7-2.2-0.7c-0.2,0-0.3,0-0.4-0.2c-0.1-0.3-0.1-0.5-0.1-0.8
			c0-0.1,0.2,0,0.2,0c0.9,0.3,1.8,0.6,2.6,1C9.4,22.1,9.8,22.9,9.8,23.8z"/>
		<path class="st3" d="M62.2,48.2c0.3,0.5,0.6,0.9,1.1,1.3c0.7,0.5,1.6,0.9,2.4,0.9c0.1,0,0.3,0,0.4,0.2s0.2,0.5,0.1,0.8
			c0,0.1-0.2,0-0.2,0c-0.9-0.3-1.7-0.6-2.5-1C62.6,50,62.1,49.1,62.2,48.2z"/>
		<path class="st3" d="M38.1,7.4c1.1-0.8,1.6-2.1,1.4-3.5c0-0.5,0.2-0.7,0.7-0.7c0.2,0,0.2,0,0.2,0.2c-0.2,0.8-0.4,1.7-0.6,2.5
			C39.6,6.8,38.9,7.4,38.1,7.4z"/>
		<path class="st3" d="M64.6,38.1c0.8,1.1,2.1,1.6,3.5,1.4c0.5,0,0.7,0.2,0.7,0.7c0,0.2-0.1,0.2-0.2,0.2c-0.8-0.2-1.7-0.4-2.5-0.6
			C65.2,39.6,64.6,38.9,64.6,38.1z"/>
		<path class="st3" d="M7.4,38.2c0,0.7-0.5,1.3-1.2,1.6c-0.7,0.2-1.4,0.3-2.1,0.4l-0.4,0.1c-0.2,0-0.3,0.2-0.4,0.1s0-0.4,0.1-0.6
			s0.2-0.2,0.3-0.2c0.6,0,1.1,0,1.7,0C6.2,39.3,6.9,38.8,7.4,38.2z"/>
		<path class="st3" d="M38.3,64.7c0.7,0,1.3,0.5,1.4,1.1c0.2,0.7,0.3,1.4,0.4,2.1c0,0.1,0.1,0.2,0.1,0.4s0.2,0.3,0.1,0.4
			s-0.4,0-0.6-0.1s-0.2-0.2-0.2-0.3c0-0.6,0-1.1,0-1.7C39.4,65.9,38.9,65.1,38.3,64.7z"/>
		<path class="st3" d="M14.2,17.3c-0.6,0.5-1.5,0.6-2.1,0.1c-0.7-0.5-1.5-1-2.3-1.4c0.1-0.2,0.3-0.2,0.4-0.4s0.4-0.2,0.6,0.1
			c0.3,0.4,0.7,0.8,1.2,1.1C12.6,17.3,13.4,17.5,14.2,17.3z"/>
		<path class="st3" d="M14.3,54.7C13,54.5,11.7,55,11,56c-0.5,0.6-0.6,0.6-1.3,0c0.8-0.4,1.6-0.9,2.3-1.5
			C12.7,54.1,13.6,54.2,14.3,54.7z"/>
		<path class="st3" d="M16,9.8c0.4,0.8,0.9,1.5,1.4,2.2c0.5,0.7,0.4,1.5-0.1,2.1c0-0.3,0.1-0.6,0-0.9c-0.2-0.8-0.6-1.6-1.3-2.1
			L15.9,11C15.3,10.5,15.3,10.4,16,9.8z"/>
		<path class="st3" d="M54.7,14.2c-0.5-0.6-0.6-1.5-0.1-2.1c0.5-0.7,1-1.5,1.4-2.3c0.6,0.6,0.6,0.8-0.1,1.4
			c-0.7,0.5-1.2,1.3-1.3,2.2C54.6,13.6,54.7,13.9,54.7,14.2z"/>
		<path class="st3" d="M54.7,57.8C54.5,59,55,60.2,56,60.9l0,0c0.6,0.5,0.6,0.7,0,1.3c-0.4-0.8-0.9-1.5-1.4-2.2
			C54.1,59.3,54.2,58.4,54.7,57.8z"/>
		<path class="st3" d="M17.3,57.8c0.6,0.6,0.6,1.5,0.1,2.2c-0.5,0.7-1,1.5-1.4,2.2c-0.6-0.5-0.6-0.8,0.1-1.3
			c0.7-0.5,1.2-1.3,1.3-2.2C17.4,58.4,17.3,58.1,17.3,57.8z"/>
		<path class="st3" d="M62.3,16c-0.8,0.4-1.5,0.9-2.3,1.4c-0.7,0.5-1.6,0.4-2.2-0.1c0.4,0,0.7,0,1.1,0c0.7-0.2,1.4-0.6,1.9-1.1
			c0.1-0.1,0.1-0.1,0.2-0.2C61.5,15.3,61.6,15.3,62.3,16z"/>
		<path class="st3" d="M33.7,7.3c-0.6,0-1.2-0.4-1.4-1c-0.3-1-0.3-2-0.6-2.9c0-0.1,0-0.2,0.1-0.2c0.3-0.1,0.6,0.1,0.6,0.4
			c0,0,0,0.1,0,0.1c0,0.5,0,1,0,1.4C32.6,6.1,33,6.8,33.7,7.3z"/>
		<path class="st3" d="M33.8,64.7c-1.1,0.8-1.6,2.1-1.3,3.4c0,0.5-0.2,0.6-0.6,0.7c-0.2,0-0.3,0-0.2-0.2c0.3-0.8,0.3-1.8,0.6-2.6
			C32.4,65.2,33.1,64.7,33.8,64.7z"/>
		<path class="st3" d="M7.3,33.8c-0.8-1.1-2.1-1.6-3.4-1.3c-0.5,0-0.6-0.2-0.7-0.6c0-0.2,0-0.3,0.2-0.2C4.4,32,5.3,32,6.2,32.3
			C6.9,32.5,7.3,33.1,7.3,33.8z"/>
		<path class="st3" d="M64.6,33.9c0-0.7,0.4-1.3,1.1-1.5c0.9-0.4,1.9-0.3,2.9-0.7c0.1,0,0.2,0,0.2,0.1c0,0,0,0,0,0.1
			c0.1,0.3-0.1,0.6-0.4,0.6c0,0-0.1,0-0.1,0c-0.5,0-1,0-1.4,0C65.9,32.6,65.1,33.1,64.6,33.9z"/>
		<path class="st3" d="M57.8,54.7c0.6-0.6,1.5-0.6,2.2-0.1c0.7,0.5,1.5,1,2.3,1.5c0,0.1-0.1,0.2-0.2,0.2c-0.2,0.2-0.5,0.3-0.8,0.1
			c-0.1,0-0.1-0.1-0.2-0.2c-0.2-0.3-0.5-0.6-0.8-0.9C59.6,54.8,58.7,54.5,57.8,54.7z"/>
		<path class="st3" d="M61.6,23c-0.2-0.9,0.3-1.9,1.2-2.3c0.7-0.3,1.3-0.8,1.8-1.3c0.4,0.6,0.3,0.9-0.2,1.1
			c-0.4,0.1-0.8,0.3-1.2,0.5C62.3,21.5,62.2,21.7,61.6,23z"/>
		<path class="st3" d="M48.9,10.4c1.3-0.3,2.3-1.3,2.6-2.6c0.2-0.7,0.3-0.7,1.2-0.4c-0.6,0.7-1.2,1.5-1.7,2.3
			C50.4,10.4,49.6,10.6,48.9,10.4z"/>
		<path class="st3" d="M64.6,52.7c-0.6-0.6-1.3-1.1-2.1-1.6c-0.7-0.5-1.1-1.3-0.8-2.2c0.3,1.3,1.3,2.2,2.6,2.5
			C64.9,51.7,64.9,51.8,64.6,52.7z"/>
		<path class="st3" d="M7.4,52.6c-0.2-0.3-0.2-0.5-0.2-0.8s0.2-0.2,0.3-0.2c0.4-0.2,0.9-0.3,1.3-0.5c0.8-0.4,1.4-1.1,1.6-2
			c0.2,0.8-0.1,1.6-0.7,2C8.8,51.5,8.1,52,7.4,52.6z"/>
		<path class="st3" d="M52.6,64.6c-0.3,0.2-0.6,0.2-0.8,0.2s-0.2-0.1-0.2-0.2c-0.2-0.6-0.4-1.1-0.7-1.6c-0.4-0.6-0.9-1-1.5-1.2
			c-0.1,0-0.2,0-0.3-0.2c0.9-0.2,1.9,0.3,2.2,1.1C51.6,63.4,52.1,64,52.6,64.6z"/>
		<path class="st3" d="M10.4,23.1c-0.3-1.3-1.3-2.3-2.6-2.5c-0.7-0.2-0.7-0.5-0.3-1.1c0.6,0.6,1.3,1.1,2.1,1.5
			C10.3,21.3,10.6,22.2,10.4,23.1z"/>
		<path class="st3" d="M19.3,64.6c0.6-0.6,1.2-1.3,1.6-2.1c0.4-0.7,1.3-1.1,2.1-0.9c-0.1,0-0.2,0.1-0.2,0.1c-1,0.3-1.7,1-2.1,2
			c0,0.1-0.1,0.3-0.1,0.4C20.3,64.9,20.2,64.9,19.3,64.6z"/>
		<path class="st3" d="M23,10.4c-1,0.3-1.9-0.2-2.3-1.1c-0.3-0.7-0.8-1.3-1.3-1.8c0.2-0.2,0.5-0.1,0.8-0.2s0.2,0.1,0.2,0.3
			c0.2,0.4,0.3,0.9,0.5,1.3C21.4,9.6,22.1,10.2,23,10.4z"/>
		<path class="st3" d="M27.2,8.6c0.5-1.1,0.4-2.5-0.2-3.6c-0.2-0.3-0.1-0.7,0.3-0.8c0.1,0,0.1,0,0.2-0.1c0.1,0,0.2,0,0.2,0.1
			c0,1.1,0.5,2.1,0.5,3.2C28,7.9,27.7,8.4,27.2,8.6z"/>
		<path class="st3" d="M44.8,8.6C44.3,8.4,44,7.9,44,7.4c0-0.9,0.2-1.7,0.4-2.6c0-0.1,0-0.2,0-0.3s-0.1-0.4,0.1-0.5s0.4,0.2,0.6,0.4
			s0,0.3,0,0.4C45,5.3,44.8,5.6,44.7,6C44.4,6.9,44.4,7.8,44.8,8.6L44.8,8.6z"/>
		<path class="st3" d="M8.5,44.8c-1.1-0.5-2.5-0.4-3.5,0.2c-0.3,0.2-0.7,0.1-0.8-0.3c0-0.1,0-0.1-0.1-0.2c0-0.1,0-0.2,0.1-0.2
			c1.1,0,2.1-0.5,3.2-0.5C7.9,44,8.4,44.3,8.5,44.8L8.5,44.8z"/>
		<path class="st3" d="M63.5,44.8c0.2-0.5,0.6-0.8,1.2-0.8c0.9,0,1.7,0.2,2.6,0.4l0.2,0c0.2,0,0.4-0.1,0.5,0.1s-0.2,0.4-0.4,0.6
			s-0.3,0-0.4-0.1c-0.7-0.4-1.5-0.6-2.3-0.7C64.3,44.5,63.9,44.6,63.5,44.8L63.5,44.8z"/>
		<path class="st3" d="M27.2,63.5c0.5,0.2,0.8,0.6,0.8,1.2c0,0.9-0.2,1.7-0.4,2.6c0,0.1,0,0.1,0,0.2c0,0.2,0.1,0.4-0.1,0.5
			s-0.4-0.2-0.6-0.4s0-0.3,0.1-0.4c0.4-0.7,0.6-1.5,0.6-2.3C27.5,64.4,27.4,63.9,27.2,63.5z"/>
		<path class="st3" d="M44.8,63.5c-0.5,1.2-0.4,2.5,0.3,3.6c0.1,0.3,0,0.7-0.3,0.8c0,0-0.1,0-0.1,0c-0.1,0-0.2,0-0.2-0.2
			c-0.1-0.8-0.3-1.6-0.5-2.4c-0.2-0.7,0-1.4,0.6-1.8C44.6,63.5,44.7,63.5,44.8,63.5L44.8,63.5z"/>
		<path class="st3" d="M8.5,27.2C8.4,27.7,7.9,28,7.4,28c-0.9,0-1.7-0.2-2.6-0.4l-0.3,0c-0.2,0-0.4,0.1-0.5-0.1s0.2-0.4,0.4-0.6
			s0.3,0,0.4,0C5.2,27,5.6,27.2,6,27.3C6.9,27.6,7.8,27.6,8.5,27.2L8.5,27.2z"/>
		<path class="st3" d="M63.5,27.2c1.2,0.5,2.5,0.4,3.6-0.3c0.3-0.1,0.7,0,0.8,0.3c0,0,0,0.1,0,0.1c0,0.1,0,0.1-0.2,0.1
			c-0.8,0.1-1.6,0.3-2.4,0.4c-0.7,0.2-1.4,0-1.8-0.6C63.5,27.4,63.4,27.3,63.5,27.2L63.5,27.2z"/>
		<path class="st3" d="M7.2,39.9c-0.1,0.5-0.5,0.9-1.1,1c-0.6,0.1-1.3,0.3-1.9,0.5c-0.1-0.7-0.1-0.7,0.5-0.8
			C5.7,40.6,6.5,40.3,7.2,39.9z"/>
		<path class="st3" d="M64.8,39.8c0.8,0.5,1.7,0.8,2.7,0.8c0.3,0.1,0.4,0.3,0.4,0.6c0,0,0,0.1,0,0.1c0,0.1-0.1,0.1-0.2,0.1
			c-0.5-0.2-1.1-0.3-1.6-0.4C65.3,40.9,64.8,40.5,64.8,39.8z"/>
		<path class="st3" d="M32.2,7.3C31.5,7.1,31,6.6,31,5.9c0-0.4-0.2-0.8-0.3-1.3c0-0.1-0.3-0.3,0-0.4s0.6,0,0.6,0.3s0.1,0.5,0.1,0.8
			C31.5,6,31.8,6.7,32.2,7.3z"/>
		<path class="st3" d="M39.8,7.3c0.5-0.8,0.8-1.7,0.9-2.6c0.1-0.3,0.3-0.5,0.6-0.4c0,0,0,0,0,0c0.2,0.1,0.1,0.2,0.1,0.2
			C41.2,5,41.1,5.5,41,6C40.9,6.5,40.5,7.3,39.8,7.3z"/>
		<path class="st3" d="M64.8,32.2c0.1-0.6,0.7-1.1,1.3-1.2c0.4-0.1,0.8-0.2,1.2-0.3c0.1,0,0.3-0.3,0.4,0c0.1,0.3,0,0.5-0.3,0.6
			c0,0,0,0-0.1,0l-0.8,0.1C66,31.6,65.3,31.8,64.8,32.2z"/>
		<path class="st3" d="M7.2,32.2c-0.8-0.5-1.7-0.8-2.7-0.8c-0.3-0.1-0.4-0.4-0.3-0.7c0.1-0.1,0.1-0.1,0.2,0C5,30.8,5.5,30.9,6,31
			C6.6,31,7.1,31.5,7.2,32.2z"/>
		<path class="st3" d="M39.8,64.7c0.7,0.1,1.1,0.7,1.2,1.3c0.1,0.4,0.2,0.8,0.3,1.3c0,0.1,0.3,0.3,0,0.4c-0.3,0.1-0.6,0-0.7-0.3
			c0-0.3-0.1-0.5-0.1-0.8C40.5,66,40.2,65.3,39.8,64.7z"/>
		<path class="st3" d="M32.1,64.8c-0.5,0.8-0.8,1.7-0.8,2.6c-0.1,0.3-0.4,0.5-0.6,0.4c0,0,0,0,0,0c-0.2,0-0.1-0.1-0.1-0.2
			c0.2-0.5,0.3-1,0.4-1.5c0.1-0.4,0.3-0.8,0.6-1C31.7,64.8,31.9,64.7,32.1,64.8z"/>
		<path class="st3" d="M28.5,64c0.4,0.2,0.6,0.6,0.6,1c0,0.7-0.1,1.4-0.2,2.1c0,0.2-0.1,0.3-0.3,0.2s-0.4-0.1-0.3-0.4
			c0.2-0.6,0.3-1.3,0.3-2C28.6,64.6,28.6,64.3,28.5,64z"/>
		<path class="st3" d="M64,28.6c1,0.1,1.9,0.1,2.9-0.2c0.3-0.1,0.4,0.1,0.5,0.3s-0.1,0.3-0.3,0.3c-0.7,0.1-1.3,0.2-2,0.2
			C64.6,29.2,64.2,28.9,64,28.6z"/>
		<path class="st3" d="M8,28.5c-0.3,0.5-1,0.8-1.6,0.6c-0.5,0-1-0.1-1.5-0.2c-0.2,0-0.4,0-0.3-0.3s0.2-0.4,0.5-0.3
			c0.6,0.2,1.3,0.3,1.9,0.3C7.4,28.6,7.7,28.6,8,28.5z"/>
		<path class="st3" d="M8,43.5c-0.9-0.2-1.9-0.1-2.8,0.2c-0.3,0.1-0.4-0.1-0.5-0.3s0.2-0.3,0.3-0.3c0.7-0.1,1.3-0.2,2-0.2
			C7.5,42.8,7.8,43.1,8,43.5z"/>
		<path class="st3" d="M64,43.5c0.2-0.4,0.6-0.6,1-0.6c0.7,0,1.4,0.1,2.1,0.2c0.2,0,0.3,0.1,0.2,0.3s-0.1,0.4-0.4,0.3
			c-0.6-0.2-1.3-0.3-2-0.3C64.6,43.4,64.3,43.4,64,43.5z"/>
		<path class="st3" d="M28.5,8.1c0.2-0.9,0.1-1.9-0.2-2.8c-0.1-0.3,0-0.4,0.3-0.5s0.3,0.2,0.3,0.3c0.1,0.7,0.2,1.3,0.2,2
			C29.1,7.5,28.9,7.9,28.5,8.1z"/>
		<path class="st3" d="M43.5,8.1c-0.5-0.3-0.8-1-0.6-1.6c0-0.5,0.2-1,0.2-1.5c0-0.2,0-0.4,0.3-0.3s0.4,0.1,0.3,0.4
			c-0.2,0.6-0.3,1.3-0.3,2C43.4,7.4,43.4,7.8,43.5,8.1z"/>
		<path class="st3" d="M43.5,64c-0.2,1-0.1,2,0.2,2.9c0.1,0.3,0,0.4-0.2,0.5s-0.3,0.1-0.3-0.2c-0.1-0.7-0.2-1.4-0.3-2.1
			C42.9,64.6,43.1,64.2,43.5,64z"/>
		<path class="st3" d="M50.4,61.1c0.7-0.2,1.3,0.1,1.7,0.7l0.8,1.1c0.1,0.1,0.3,0.2,0.1,0.4s-0.4,0.3-0.6,0l-0.5-0.8
			C51.5,61.9,51,61.4,50.4,61.1z"/>
		<path class="st3" d="M21.6,61.1c-0.7,0.3-1.3,0.9-1.6,1.6c-0.1,0.2-0.3,0.5-0.5,0.7s-0.4,0.1-0.5,0s0-0.3,0.1-0.4
			c0.4-0.5,0.7-1,1.1-1.4C20.5,61.1,21.1,60.9,21.6,61.1z"/>
		<path class="st3" d="M21.6,10.9c-0.7,0.2-1.3-0.1-1.7-0.7l-0.8-1.1C19,9,18.8,8.9,19,8.7s0.4-0.3,0.6,0s0.4,0.6,0.5,0.9
			C20.5,10.2,21,10.6,21.6,10.9z"/>
		<path class="st3" d="M50.4,10.9c0.7-0.4,1.3-0.9,1.6-1.6c0.1-0.2,0.3-0.4,0.4-0.6c0.2-0.2,0.4-0.1,0.6,0s0,0.2-0.1,0.4l-0.8,1.1
			C51.8,10.8,51.1,11.1,50.4,10.9z"/>
		<path class="st3" d="M61.1,21.6c-0.2-0.6,0.1-1.3,0.6-1.6c0.4-0.4,0.9-0.6,1.3-1c0.1-0.1,0.2-0.1,0.3,0s0.2,0.4,0,0.5
			s-0.5,0.3-0.7,0.5C61.9,20.3,61.4,20.9,61.1,21.6z"/>
		<path class="st3" d="M10.9,21.6c-0.4-1-1.4-1.4-2.1-1.9c-0.3-0.2-0.3-0.4-0.1-0.6s0.2-0.1,0.3,0l1.4,1.1
			C10.9,20.4,11.1,21,10.9,21.6z"/>
		<path class="st3" d="M61.1,50.4c0.4,1,1.3,1.4,2.1,1.9c0.2,0.1,0.3,0.2,0.2,0.4s-0.2,0.4-0.5,0.2c-0.5-0.4-1-0.7-1.5-1.1
			C61.1,51.5,60.9,50.9,61.1,50.4z"/>
		<path class="st3" d="M10.9,50.4c0.2,0.7-0.1,1.3-0.7,1.7l-1.1,0.8C9,53,8.9,53.2,8.7,53s-0.3-0.4,0-0.6s0.6-0.4,0.9-0.5
			C10.2,51.5,10.6,51,10.9,50.4z"/>
		<path class="st3" d="M53.6,58.8c0.1,0.9,0.5,1.8,1.1,2.5c0.4,0.5,0.4,0.5-0.1,0.9c-0.3-0.5-0.7-1-1-1.6
			C53.3,60.1,53.3,59.4,53.6,58.8z"/>
		<path class="st3" d="M17.4,9.8c0.3,0.6,0.6,1.1,1,1.6c0.4,0.5,0.4,1.2,0,1.8c-0.1-0.9-0.5-1.8-1.1-2.5
			C16.9,10.2,16.9,10.2,17.4,9.8z"/>
		<path class="st3" d="M54.6,9.8c0.5,0.4,0.5,0.4,0.2,0.9c-0.6,0.7-1,1.5-1.1,2.4c-0.4-0.5-0.4-1.2,0-1.8
			C53.9,10.8,54.3,10.3,54.6,9.8z"/>
		<path class="st3" d="M17.4,62.2c-0.5-0.4-0.5-0.4-0.2-0.9c0.6-0.7,1-1.5,1.1-2.5c0.4,0.6,0.4,1.3,0,1.8
			C18,61.2,17.7,61.7,17.4,62.2z"/>
		<path class="st3" d="M9.7,54.6c0.6-0.3,1.1-0.7,1.6-1c0.5-0.3,1.2-0.3,1.7,0c-0.9,0.1-1.8,0.5-2.5,1.1
			C10.2,55.1,10.1,55.1,9.7,54.6z"/>
		<path class="st3" d="M13.1,18.4c-0.6,0.4-1.3,0.4-1.8,0c-0.5-0.3-0.9-0.6-1.4-0.8c-0.1,0-0.2-0.1-0.1-0.2s0.3-0.4,0.6-0.3
			c0.2,0.1,0.4,0.2,0.6,0.4C11.5,18,12.3,18.3,13.1,18.4z"/>
		<path class="st3" d="M62.3,17.5c-1.1,0.4-1.9,1.7-3.3,1c0.9-0.1,1.7-0.5,2.4-1.1C61.8,16.9,61.8,16.9,62.3,17.5z"/>
		<path class="st3" d="M58.8,53.6c0.6-0.4,1.3-0.4,1.9,0c0.5,0.3,1,0.6,1.5,0.9c-0.4,0.5-0.4,0.5-0.9,0.2
			C60.6,54.1,59.8,53.7,58.8,53.6z"/>
		<path class="st4" d="M29.8,65.3c0-0.5-0.1-1-0.5-1.4l2.2,0.4c-0.4,0.3-0.8,0.6-1,1.1C30.3,65.3,30,65.3,29.8,65.3z"/>
		<path class="st4" d="M41.5,65.3c-0.2-0.5-0.6-0.9-1-1.1l2.1-0.4c-0.3,0.4-0.4,0.9-0.4,1.4C42,65.3,41.7,65.3,41.5,65.3z"/>
		<path class="st4" d="M65.3,30.5c-0.5,0.2-0.9,0.6-1.1,1l-0.4-2.1c0.4,0.3,0.9,0.4,1.4,0.4C65.2,30,65.3,30.3,65.3,30.5z"/>
		<path class="st4" d="M6.7,29.8c0.5,0,1-0.1,1.4-0.4l-0.4,2.1c-0.3-0.4-0.7-0.8-1.1-1C6.7,30.3,6.8,30,6.7,29.8z"/>
		<path class="st4" d="M6.7,41.5c0.5-0.2,0.9-0.6,1.1-1l0.4,2.2c-0.4-0.3-0.9-0.4-1.4-0.4C6.8,42,6.7,41.7,6.7,41.5z"/>
		<path class="st4" d="M11.3,19.1c0.4,0.2,0.8,0.3,1.2,0.2c0.2,0,0.3,0,0.1,0.2l-1,1.5c-0.1-0.5-0.4-1-0.8-1.4
			C11.2,19.6,11.3,19.4,11.3,19.1z"/>
		<path class="st4" d="M65.2,42.2c-0.5,0-1,0.2-1.3,0.4l0.4-2.2c0.3,0.4,0.6,0.8,1.1,1C65.2,41.7,65.2,42,65.2,42.2z"/>
		<path class="st4" d="M42.2,6.8c0,0.5,0.2,0.9,0.4,1.3l-2.1-0.4c0.4-0.3,0.8-0.7,1-1.1C41.7,6.8,41.9,6.8,42.2,6.8z"/>
		<path class="st4" d="M30.5,6.7c0.2,0.5,0.6,0.9,1,1.1l-2.1,0.4c0.2-0.4,0.3-0.9,0.4-1.3C30,6.9,30.3,6.8,30.5,6.7z"/>
		<path class="st4" d="M19.1,60.7c0.2-0.4,0.3-0.8,0.2-1.2c0-0.1,0-0.2,0.1-0.2s0.1,0,0.2,0.1l1.5,1c-0.5,0.1-0.9,0.3-1.3,0.6
			C19.5,61,19.4,60.6,19.1,60.7z"/>
		<path class="st4" d="M60.9,19.7c-0.3,0.4-0.5,0.8-0.6,1.3l-1-1.6c-0.1-0.2,0-0.3,0.1-0.2c0.4,0.1,0.8,0,1.2-0.2
			C60.6,19.4,60.9,19.5,60.9,19.7z"/>
		<path class="st4" d="M19.7,11.1c0.4,0.2,0.8,0.6,1.4,0.6l-1.6,1.1c-0.2,0.1-0.3,0-0.2-0.1c0.1-0.4,0-0.8-0.2-1.2
			C19.4,11.4,19.5,11.2,19.7,11.1z"/>
		<path class="st4" d="M52.3,61c-0.4-0.3-0.8-0.5-1.3-0.6l1.6-1c0.2-0.1,0.3,0,0.2,0.1c-0.1,0.4,0,0.8,0.2,1.2
			C52.6,60.6,52.5,60.8,52.3,61z"/>
		<path class="st4" d="M52.9,11.3c-0.2,0.4-0.3,0.8-0.2,1.2c0,0.1,0,0.2-0.1,0.2s-0.1,0-0.2-0.1l-1.5-1c0.5-0.1,0.9-0.3,1.3-0.6
			C52.5,11.2,52.6,11.4,52.9,11.3z"/>
		<path class="st4" d="M11.1,52.3c0.3-0.4,0.5-0.8,0.6-1.3c0.4,0.6,0.7,1.1,1.1,1.6c0.1,0.2,0,0.3-0.1,0.2c-0.4-0.1-0.8,0-1.2,0.2
			C11.4,52.7,11.2,52.5,11.1,52.3z"/>
		<path class="st4" d="M60.6,52.8c-0.4,0-0.8-0.3-1.3-0.1v-0.1l1.1-1.7c0.1,0.5,0.3,0.9,0.6,1.3L60.6,52.8z"/>
		<path class="st5" d="M60.6,52.8l0.4-0.6c0.8,0.4,1.5,1.1,2.1,1.8C62.1,53.8,61.3,53.4,60.6,52.8z"/>
		<path class="st5" d="M30.5,6.7c-0.2,0.1-0.5,0.2-0.7,0.2c0-0.5-0.1-1-0.2-1.5c-0.1-0.4-0.1-0.8,0.1-1.2
			C30.1,4.9,30.4,5.8,30.5,6.7z"/>
		<path class="st5" d="M11.1,52.3c0.1,0.2,0.3,0.4,0.3,0.6c-0.6,0.4-1.2,0.7-1.8,1C9.3,54,9.2,54,9,54C9.5,53.3,10.2,52.7,11.1,52.3
			z"/>
		<path class="st5" d="M52.3,61c0.2-0.1,0.4-0.3,0.6-0.3c0.4,0.6,0.7,1.1,1,1.7C54,62.6,54,62.8,54,63C53.3,62.5,52.7,61.8,52.3,61z
			"/>
		<path class="st5" d="M52.9,11.3c-0.3,0-0.4-0.2-0.6-0.3c0.4-0.8,1.1-1.5,1.8-2.1C53.8,9.8,53.4,10.6,52.9,11.3z"/>
		<path class="st5" d="M42.2,6.8c-0.2,0-0.5-0.1-0.7-0.2c0.2-0.6,0.3-1.2,0.5-1.8c0.1-0.3,0.2-0.5,0.4-0.7c0.2,0.5,0.2,1,0,1.4
			C42.2,6,42.2,6.4,42.2,6.8z"/>
		<path class="st5" d="M60.9,19.7c-0.1-0.2-0.3-0.4-0.3-0.6c0.7-0.4,1.4-0.8,2.2-1.1l0.2-0.1C62.5,18.7,61.8,19.3,60.9,19.7z"/>
		<path class="st5" d="M65.2,42.2c0-0.2,0.1-0.5,0.2-0.7l1.8,0.5c0.3,0.1,0.5,0.2,0.7,0.4c-0.5,0.2-1,0.2-1.4,0
			C66,42.3,65.6,42.2,65.2,42.2z"/>
		<path class="st5" d="M19.1,60.7c0.3-0.1,0.4,0.3,0.6,0.3c-0.4,0.8-1.1,1.6-1.8,2.1C18.2,62.2,18.5,61.4,19.1,60.7z"/>
		<path class="st5" d="M19.7,11.1c-0.2,0.1-0.4,0.3-0.6,0.3c-0.5-0.7-0.8-1.4-1.1-2.2V8.9C18.8,9.4,19.2,10.3,19.7,11.1z"/>
		<path class="st5" d="M6.7,29.8c0,0.2,0,0.5-0.1,0.7c-0.6-0.1-1.2-0.3-1.8-0.5c-0.3-0.1-0.5-0.2-0.7-0.4c0.5-0.2,1-0.2,1.4,0
			C6,29.8,6.4,29.8,6.7,29.8z"/>
		<path class="st5" d="M65.3,30.5c-0.1-0.2-0.1-0.5-0.1-0.7c0.5,0,0.9-0.1,1.4-0.2c0.4-0.1,0.8-0.1,1.2,0.1
			C67.1,30.1,66.2,30.4,65.3,30.5z"/>
		<path class="st5" d="M6.7,41.5c0.1,0.2,0.1,0.5,0.1,0.7c-0.5,0-0.9,0.1-1.4,0.2c-0.4,0.1-0.8,0.1-1.2-0.1
			C4.9,41.7,5.8,41.8,6.7,41.5z"/>
		<path class="st5" d="M11.3,19.1c-0.1,0.3-0.1,0.5-0.4,0.5c-0.8-0.4-1.4-1-2-1.7c0.7,0.1,1.4,0.4,2,0.9C11,19,11.2,19,11.3,19.1z"
			/>
		<path class="st5" d="M29.8,65.3c0.2,0.1,0.5,0.1,0.7,0.1c-0.1,0.6-0.3,1.2-0.5,1.8c-0.1,0.3-0.2,0.5-0.4,0.7c-0.2-0.5-0.2-1,0-1.5
			C29.7,66,29.7,65.6,29.8,65.3z"/>
		<path class="st5" d="M41.5,65.3c0.2,0,0.5,0,0.7-0.1c0,0.5,0.1,0.9,0.2,1.4c0.1,0.4,0.1,0.8-0.1,1.2
			C41.7,67.1,41.8,66.2,41.5,65.3z"/>
		<path class="st3" d="M8.5,27.2L8.5,27.2L8.5,27.2z"/>
		<path class="st3" d="M63.5,27.2L63.5,27.2L63.5,27.2L63.5,27.2z"/>
		<path class="st3" d="M65.1,37.5L65.1,37.5L65.1,37.5L65.1,37.5z"/>
		<path class="st3" d="M6.9,37.4L6.9,37.4L6.9,37.4L6.9,37.4z"/>
		<path class="st3" d="M65.1,34.6L65.1,34.6L65.1,34.6L65.1,34.6z"/>
		<path class="st3" d="M6.9,34.5L6.9,34.5L6.9,34.5L6.9,34.5z"/>
		<path class="st3" d="M8.5,44.8L8.5,44.8L8.5,44.8L8.5,44.8z"/>
		<path class="st3" d="M44.8,8.6L44.8,8.6L44.8,8.6L44.8,8.6z"/>
		<path class="st3" d="M27.2,8.6L27.2,8.6L27.2,8.6L27.2,8.6z"/>
		<path class="st3" d="M37.5,7L37.5,7L37.5,7L37.5,7z"/>
		<path class="st3" d="M44.8,63.5L44.8,63.5L44.8,63.5L44.8,63.5z"/>
		<path class="st3" d="M34.6,6.9L34.6,6.9L34.6,6.9L34.6,6.9z"/>
		<path class="st3" d="M27.2,63.5L27.2,63.5L27.2,63.5L27.2,63.5z"/>
		<path class="st3" d="M63.5,44.8L63.5,44.8L63.5,44.8z"/>
		<path class="st3" d="M34.5,65.1L34.5,65.1L34.5,65.1L34.5,65.1z"/>
		<path class="st3" d="M37.4,65.1L37.4,65.1L37.4,65.1L37.4,65.1z"/>
		<path class="st6" d="M17.4,52.6c-0.1,0.2-0.3,0.2-0.4,0.1c-0.4-0.4-0.5-0.1-0.5,0.3l-0.2,0.4c-0.1-0.1-0.1-0.1,0-0.2
			c0.2-0.6,0.2-0.6-0.5-0.8c-0.2-0.1-0.6,0-0.5-0.3s0.4,0,0.6,0c0.2,0,0.4,0.1,0.5,0.2c-0.1-0.3-0.2-0.5-0.2-0.7
			c0-0.3,0.1-0.5,0.3-0.7c0.3-0.2,0.6,0.2,0.7,0s0.1-0.5,0.3-0.7l0.1-0.1c0.3-0.2,0-0.3,0-0.5c0-0.1-0.2-0.2-0.3-0.2
			c0,0-0.1,0-0.1,0.1c-0.6,0.4-1.3,0.7-1.9,1.2c-0.4-0.1,0-0.3-0.1-0.4c0.4-0.2,0.8-0.5,1.1-0.7c1-0.6,1-0.6,0.3-1.5
			c-0.1-0.2-0.3-0.2-0.4-0.1c-0.2,0.2-0.6,0.3-0.9,0.2c-0.4-0.1-0.5,0.1-0.5,0.4c-0.1,0.4-0.1,0.8-0.1,1.2c-0.4-0.2,0-0.4-0.1-0.6
			c0-0.5,0.1-1.1,0.3-1.5c0.1-0.3,0.4-0.3,0.5,0s0.3,0.3,0.5,0.2s0.3-0.3,0.1-0.6c-0.2-0.2-0.3-0.4-0.4-0.7c0-0.1-0.1-0.2-0.2-0.1
			c-0.7,0.3-1.4,0.5-2.1,0.9c-0.4,0-0.2-0.2-0.2-0.3c0.1-0.1,0.3-0.2,0.4-0.2c0.5-0.2,1-0.4,1.6-0.7c0.1,0,0.3,0,0.2-0.2
			s-0.2-0.5-0.3-0.8s-0.1-0.1-0.3-0.1s-0.4,0.3-0.6,0.2s-0.2-0.4-0.3-0.6c-0.1-0.1-0.1-0.2-0.1-0.3c-0.1-0.2-0.2-0.4-0.5-0.3l0,0
			c0-0.2,0.2-0.4,0.4-0.4c0,0,0,0,0,0c0.2,0,0.3,0.2,0.4,0.4s0.1,0.4,0.2,0.5s0,0.4,0.4,0.3s0.2-0.3,0.1-0.5
			c-0.2-0.4-0.3-0.8-0.5-1.2c0.2-0.3,0.3-0.1,0.4,0.1c0.2,0.4,0.4,0.8,0.5,1.2c0.8,2,1.9,4,3.3,5.7c0.5,0.5,0.9,1,1.2,1.6
			c-0.1,0-0.2,0.1-0.2,0c-0.4-0.4-0.6-0.1-0.9,0.2c-0.2,0.3-0.7,0.3-0.9,0.1c0,0,0,0-0.1-0.1L17,51.2c-0.2-0.1-0.4-0.1-0.6,0
			c-0.2,0.2-0.1,0.4,0,0.5c0.2,0.2,0.4,0.4,0.7,0.5C17.2,52.3,17.4,52.3,17.4,52.6z M18.2,51.3L18.2,51.3c0.1,0.1,0.1,0.1,0.1,0
			c0.6-0.5,0.6-0.6-0.1-1.1v0.7c-0.2-0.2-0.1-0.4-0.1-0.6S18,50,17.9,50.2s-0.2,0.2-0.3,0.2c-0.2,0.1-0.3,0.4-0.2,0.7
			c0,0,0.1,0.1,0.1,0.1c0.3,0.3,0.4,0.2,0.6,0L18.2,51.3z"/>
		<path class="st6" d="M38.8,61.6v-0.2c0.4,0.2,0.8,0.3,1.2,0.2c0.2-0.1,0.4-0.1,0.4-0.3c0-0.2-0.2-0.3-0.4-0.2c0,0,0,0,0,0
			c-0.3,0-0.5,0-0.4-0.4c0-0.2,0-0.5-0.2-0.7c0-0.1,0.1-0.3-0.2-0.3s-0.7-0.1-0.7,0.3c-0.1,0.6-0.3,0.3-0.5,0.2
			c-0.2-0.1-0.3-0.2-0.4-0.4c0,0,0-0.1,0.1-0.2c0.6-0.2,0.2-0.6,0.2-0.9s-0.3-0.2-0.5-0.1s-0.2,0-0.2-0.1c0-0.1,0-0.2,0.1-0.2
			c0,0,0,0,0,0l0.4-0.1c1-0.1,2.1-0.3,3.1-0.5c1-0.3,2.1-0.6,3.1-0.9c0.1,0,0.3-0.2,0.3,0s-0.1,0.2-0.2,0.3s-0.4,0.2-0.2,0.5
			c0.1,0.4,0.2,0.8,0.4,1.2l0.2,0.7v0.3c-0.2-0.1-0.3-0.2-0.4-0.3c-0.2-0.7-0.4-1.3-0.5-1.9c0-0.2-0.2-0.2-0.3-0.2l-0.4,0.1
			c-0.3,0.1-0.5,0.2-0.3,0.6s0.1,0.4-0.2,0.4c-0.1,0-0.3,0.1-0.4,0.1c-0.6,0.2-0.7,0.4-0.5,1c-0.3-0.1-0.4-0.3-0.4-0.6
			c0-0.3,0.2-0.5,0.5-0.6l0.4-0.1c0.1,0,0.3-0.1,0.2-0.3s-0.2-0.2-0.4-0.1c-0.6,0.2-1.1,0.4-1.7,0.4c-0.2,0-0.4,0.1-0.3,0.3
			c0.2,0.6,0.2,1.3,0.3,1.9c0,0.2,0,0.4,0.3,0.5s0.4,0.4,0.3,0.8c-0.3,0.4-0.9,0.6-1.3,0.3L38.8,61.6z M38.9,58.1
			c-0.2,0.1-0.7,0-0.6,0.3s-0.2,0.8,0.3,0.8c0.2,0,0.7,0.1,0.7-0.3C39.3,58.7,39.5,58.2,38.9,58.1z"/>
		<path class="st6" d="M13.2,43.8c-0.1,0.3,0,0.5,0.1,0.7c0.3,0.4,0.3,0.7-0.1,1c0-0.2,0-0.4-0.1-0.6c-0.1-0.3-0.4-0.4-0.7-0.4
			c-0.3,0-0.4,0.3-0.5,0.6c-0.1,0.5-0.2,1.1-0.2,1.6c-0.1-0.6-0.1-1.2,0-1.8c0.1-0.4,0.2-0.8,0.7-0.8C12.8,44.1,13,44.1,13.2,43.8
			L13.2,43.8z"/>
		<path class="st6" d="M13.2,45.5c-0.1,0.2-0.3,0.2-0.4,0.3l-0.3-0.1c-0.1,0-0.2-0.2-0.2-0.3c0,0,0,0,0,0c0.1-0.2,0.2-0.1,0.3,0
			C12.8,45.5,13,45.5,13.2,45.5z"/>
		<path class="st6" d="M13.3,45.5L13.3,45.5L13.3,45.5z"/>
		<path class="st6" d="M51.5,53.6c0.2,0.3,0.4,0.6,0.6,0.8c0.1,0.1,0.2,0.2,0.1,0.3c-0.1,0.1-0.2,0.1-0.3,0
			c-0.1-0.1-0.3-0.3-0.4-0.4c-0.2-0.3-0.5-0.6-0.7-0.9c-0.5-0.6-0.7-0.6-1.2,0c-0.1,0.1-0.2,0.2,0,0.3c0.3,0.3,0.3,0.5-0.1,0.8
			C49,55,49,55.2,49.3,55.7l0,0c-0.5-0.1-0.7-0.5-0.4-0.9c0.1-0.2,0.3-0.3,0.4-0.4c0.1-0.1,0.3-0.2,0.2-0.4s-0.3-0.1-0.4,0
			c-0.4,0.4-0.9,0.7-1.5,1c-0.2,0-0.1,0.2-0.1,0.3l1,1.8c0,0.2,0.2,0.6-0.3,0.3l-0.3-0.5c-0.1-0.2-0.2-0.4-0.4-0.2s-0.6,0.1-0.4,0.6
			c0,0.1,0.1,0.2,0,0.3s-0.2,0-0.3-0.1l-0.3-0.1c-0.2-0.1-0.4-0.2-0.1-0.5s0.1-0.4-0.1-0.5c0.2-0.2-0.1-0.3-0.1-0.5
			c0.3,0.1,0.5,0.2,0.6,0.5c0.2,0.3,0.3,0.1,0.5,0s0.3-0.2,0.2-0.5c-0.1-0.1-0.2-0.3-0.2-0.4c-0.1-0.3-0.3-0.3-0.5-0.2
			s-0.4,0.2-0.6,0c0.7-0.4,1.3-0.7,1.9-1.2c0.6-0.4,1.2-0.9,1.8-1.4c0.4-0.4,1-0.7,1.3-1.2l0.4-0.3c0.2-0.2,0.4-0.3,0.5-0.5l0.5-0.5
			c0.1-0.1,0.2-0.2,0.4,0s0,0.2,0,0.3c-0.4,0.3-0.2,0.5,0.1,0.7c0.1,0.1,0.2,0.1,0.2,0.2c0.2,0.2,0.4,0.4,0.6,0.5
			c0.2,0.2,0.3,0.3,0.5,0.5s0.2,0.1,0.1,0.2s-0.2,0.1-0.3,0s-0.3-0.3-0.5-0.4c-0.2,0.6-0.8,0.7-1.4,0.8c-0.1,0-0.3,0-0.2-0.2
			c0.1-0.1,0.1-0.2,0.1-0.4c0-0.2-0.1-0.4-0.3-0.5c-0.1-0.1-0.2-0.1-0.3,0c-0.7,0.5-0.7,0.7-0.2,1.3C51.3,53.3,51.4,53.5,51.5,53.6z
			 M51.7,51.7c0.6,0.1,0.8,0.4,0.7,1c-0.1,0.2,0.1,0.2,0.2,0.2c0.4-0.1,0.6-0.5,0.5-0.9c0-0.1-0.1-0.2-0.1-0.3
			C52.2,51,52.2,51,51.7,51.7z"/>
		<path class="st6" d="M46.4,15.2c0.2-0.2,0.5-0.5,0-0.7c-0.1,0-0.1-0.1-0.1-0.2c0-0.1,0.1-0.1,0.2-0.1c0,0,0,0,0,0
			c0.7,0.3,0.4-0.2,0.4-0.5c0.5-0.5,1.3-0.4,1.8,0.1c0,0,0,0,0,0c0.1,0.1,0.3,0.2,0.4,0.4c0.2,0.3,0.4,0.6,0.9,0.4s0.8,0.4,0.8,0.9
			c-0.1,0-0.3-0.1-0.3-0.2c-0.1-0.2-0.2-0.3-0.4-0.3c-0.2,0-0.3,0.2-0.3,0.4c-0.1,0.3,0.1,0.6,0.4,0.7c0,0,0,0,0,0
			c0.1,0,0.2,0.1,0.2,0.2c0,0,0,0,0,0c-0.1,0.2-0.2,0.1-0.3,0c-0.5-0.4-0.6,0-0.7,0.4c-0.3,0.5-0.7,1-0.9,1.5
			c-0.1,0-0.1,0.2-0.2,0.1s-0.2-0.3-0.1-0.5s0.3-0.3,0.3-0.5c-0.9-0.1-1-0.2-1-1.2c0.1-0.2,0.3-0.4,0.5-0.4c0.5,0,0.9,0.1,1,0.7
			c0.4-0.5,0.4-0.5-0.1-0.9s-1-0.5-1.4-0.8c-0.2-0.1-0.3-0.1-0.4,0.1s-0.3,0.6-0.5,0.9c-0.2,0.2-0.3,0.5-0.5,0.8
			c-0.1,0.1-0.1,0.3-0.3,0.2s-0.2-0.2-0.2-0.4C45.9,16.3,46.2,15.7,46.4,15.2z M49.4,15.8C49.4,15.8,49.5,15.8,49.4,15.8
			c-0.1-0.1,0-0.4-0.1-0.6c-0.2-0.7-0.8-1.2-1.5-1.4c-0.3-0.1-0.6,0.1-0.6,0.4c-0.1,0.3,0,0.4,0.3,0.5c0.1,0.1,0.2,0.1,0.3,0.2
			L49.4,15.8z M48.1,17.1h0.2c0.2,0,0.3,0,0.4-0.2s-0.1-0.2-0.2-0.3c-0.1,0-0.1-0.1-0.2-0.1c-0.3,0-0.5-0.1-0.8,0.1
			c-0.1,0.1-0.1,0.2,0,0.3C47.6,17.2,47.9,17.1,48.1,17.1L48.1,17.1z"/>
		<path class="st6" d="M13.1,26.2c0.4-0.1,0.9-0.1,1-0.7c0-0.1,0.1-0.1,0.2-0.1s0.1,0.2,0.1,0.3c-0.1,0.3-0.2,0.5,0.2,0.6l1.6,0.6
			c0.1,0.1,0.3,0.1,0.4,0.3c-0.2,0.2-0.5,0.2-0.7,0.1l-0.8-0.3c-0.1,0-0.2-0.1-0.2,0c-0.1,0.3-0.4,0.6-0.2,1s0.4,0.3,0.7,0.3
			c0.3-0.1,0.6-0.1,0.9-0.2c-0.4,0.3-0.8,0.5-1.3,0.5c-0.7-0.1-0.9-0.4-0.6-1.1l0.1-0.3c0.1-0.2,0-0.3-0.2-0.4s-0.3,0-0.3,0.2
			c-0.2,0.5-0.4,1.1-0.7,1.7c-0.1,0.2-0.1,0.4,0.1,0.4c0.4,0.2,0.8,0.3,1.3,0.5c0.2,0.2,0.6,0.2,0.9,0.5c-0.2,0.2-0.5,0.2-0.7,0.1
			c-0.2-0.1-0.5-0.2-0.8-0.3l-0.7-0.3c-0.2-0.1-0.5-0.2-0.6,0.2c0,0.1-0.1,0.1-0.2,0.1c-0.1,0-0.1-0.1-0.1-0.2c0,0,0,0,0,0
			c0-0.1,0.1-0.2,0.1-0.4c-0.2,0-0.4,0.1-0.7,0c-0.6-0.7-0.4-1.8,0.3-2.3c0,0,0,0,0,0C12.6,26.5,12.9,26.3,13.1,26.2z M13.9,26.2
			c-0.4,0.1-0.7,0.3-1,0.5c-0.5,0.4-0.8,0.9-0.8,1.5c0,0.3,0.1,0.5,0.4,0.5c0.3,0.1,0.5,0,0.6-0.4C13.3,27.6,13.6,27,13.9,26.2z"/>
		<path class="st6" d="M39.3,11.7c0.2,0.3,0.5,0.3,0.8,0.4c0.1,0,0.2,0,0.2,0.1s-0.1,0.2-0.2,0.1c-0.4-0.1-0.5,0.1-0.5,0.5
			s-0.1,0.5-0.1,0.8s-0.1,0.8-0.1,1.2c0,0.1,0,0.2-0.1,0.2s-0.2-0.1-0.2-0.1c0-0.1-0.1-0.2-0.1-0.2c0-0.3-0.1-0.3-0.3-0.2
			s-0.7,0.3-1-0.1c1-0.1,1.3-0.3,1.5-1.4c0-0.1,0-0.1,0-0.2c0-0.2,0.1-0.5-0.3-0.5c-0.1,0-0.2-0.1-0.2-0.2c0,0,0,0,0,0
			c0.2-0.1,0.3,0.1,0.5-0.1c-0.2-0.2-0.5-0.5-0.8-0.7c-0.5-0.4-1.2-0.6-1.8-0.4c-0.2,0.1-0.4,0.3-0.3,0.5c0,0.2,0.2,0.4,0.4,0.4
			c0,0,0,0,0,0h0.3c0.1,0,0.2,0.1,0.2,0.2s-0.1,0.1-0.2,0.1c-0.6,0-0.6,0-0.6,0.5c0,0.2,0,0.4,0,0.6c-0.2,0.5,0,1-0.2,1.5
			c-0.4-0.2-0.3-0.5-0.3-0.9c0.2-0.4,0-0.9,0.2-1.4c0-0.2,0-0.5-0.3-0.5c-0.1,0-0.2-0.1-0.2-0.2c0,0,0,0,0,0c0-0.1,0.1-0.1,0.1-0.1
			c0.6,0,0.3-0.4,0.3-0.7c0.2-0.5,0.7-0.8,1.2-0.7c0.6,0.1,1.2,0.3,1.6,0.8c0.1-0.3,0.2-0.6,0.6-0.6c0.4,0,0.7,0.2,0.9,0.6
			c-0.3,0.1-0.6-0.5-1-0.1C39.1,11.3,39.1,11.5,39.3,11.7C39.3,11.7,39.3,11.7,39.3,11.7z"/>
		<path class="st6" d="M56.1,24.8l0.5-0.2c0.2-0.1,0.4-0.2,0.2-0.5c-0.1-0.1,0-0.2,0-0.2c0,0,0,0,0,0c0.1,0,0.2-0.1,0.2,0
			c0.2,0.5,0.3,0.2,0.5,0c0.4-0.2,0.9-0.1,1.1,0.3c0,0,0,0,0,0c0.4,0.5,0.5,1.2,0.3,1.9c-0.2,0.5-0.7,0.8-0.3,1.4
			c0.1,0.1,0,0.2-0.2,0.3c-0.1-0.1-0.2-0.2-0.2-0.3c-0.1-0.3-0.3-0.3-0.5-0.1s-0.4,0.1-0.5-0.1c-0.3-0.7-0.4-0.8-1-0.8
			c0.2-0.4,0.5-0.5,0.8-0.2c0.2,0.2,0.3,0.4,0.4,0.6c0.1,0.1,0.1,0.3,0.3,0.2s0.2-0.2,0.1-0.4c-0.2-0.5-0.5-1.1-0.7-1.6
			c-0.1-0.2-0.2-0.2-0.3-0.1l-1.5,0.7c-0.3,0-0.5,0.3-0.8,0.2c0-0.2,0.2-0.4,0.3-0.5L56.1,24.8z M58.4,26.8c0.4-0.7,0.4-1.5,0.1-2.3
			c-0.1-0.3-0.5-0.4-0.7-0.2c0,0,0,0,0,0c-0.3,0.1-0.3,0.4-0.2,0.6C57.8,25.5,58.1,26.1,58.4,26.8z"/>
		<path class="st6" d="M23,16.8c0.2-0.1,0.1-0.3,0-0.4s-0.2-0.1-0.4,0c-0.4,0.3-0.8,0.6-1.2,0.8l-0.2,0.2c-0.1,0.1-0.3,0.1-0.4,0
			S21,17.1,21,17l1.2-0.9c0.1-0.1,0.3-0.2,0.4-0.3c-0.6-0.2-1.2-0.4-1.7,0.1c-0.4-0.3-0.4-0.3,0-0.5s0.8,0,1.2,0.1
			c0.3,0.2,0.7,0.2,1-0.1c0.1-0.1,0.2-0.2,0.3-0.1s0,0.2-0.1,0.3c-0.4,0.2-0.3,0.5,0,0.7c0.2,0.4,0.5,0.8,0.8,1.2l0.4,0.6
			c-0.2,0.1-0.4,0.1-0.6-0.2c-0.1-0.2-0.2-0.3-0.3-0.4c-0.1-0.3-0.2-0.5-0.4-0.7c-0.2,0.2-0.1,0.5-0.2,0.7s0,0.2-0.1,0.2
			c-0.1,0-0.2,0-0.3-0.1c0-0.2-0.1-0.3-0.3-0.2s-0.4,0.1-0.4,0.3c-0.1,0.2,0,0.4,0.2,0.5c0.2,0.1,0.4,0.2,0.5,0.2
			c0.2,0,0.4,0.1,0.6,0.2l-1-0.1c-0.1-0.1-0.3-0.1-0.4-0.2s-0.4-0.3-0.4-0.6c0-0.3,0.3-0.5,0.5-0.4C22.7,17.4,22.8,17.1,23,16.8z"/>
		<path class="st6" d="M13.8,41.9c-0.5,0.1-1.1,0.2-1.6,0.4c-0.3,0.1-0.5,0.1-0.8,0.1c0-0.3,0.3-0.4,0.5-0.5
			c0.7-0.1,0.6-0.1,0.5-0.7c-0.1-0.4-0.4-0.2-0.6-0.3l0.1-0.3c0.1-0.2,0.2-0.3,0.3-0.4s0.2-0.3,0.4,0s0.5,0,0.8,0s0.3-0.3,0.2-0.5
			s-0.1-0.2,0.1-0.3c0.1,0,0.2,0,0.2,0.1c0,0,0,0,0,0.1l0.7,2.7c0,0.1,0,0.2-0.1,0.2c-0.1,0-0.2,0-0.2-0.1c0,0,0,0,0,0
			C14.1,42.3,14,42.1,14,42C14,41.9,13.9,41.8,13.8,41.9z M13.1,41.7c0.2-0.2,0.7,0,0.8-0.4c0-0.2,0.1-0.7-0.4-0.7
			c-0.3,0-0.7,0-0.8,0.3C12.6,41.3,12.7,41.6,13.1,41.7z"/>
		<path class="st6" d="M49.9,56.3c0.2-0.3,0.2-0.5-0.2-0.5c-0.1,0-0.3,0-0.4-0.2l0,0c0.2,0,0.4,0,0.6-0.1c0.1-0.1,0.2-0.1,0.2-0.3
			s-0.2-0.3,0-0.5c0.2-0.2,0.5-0.2,0.6,0c0,0.3,0.1,0.5,0.4,0.5c0.1,0,0.2,0,0.2,0.1c0,0.1-0.1,0.2-0.2,0.2c-0.2,0-0.4-0.2-0.6,0
			c-0.2,0.3-0.2,0.6-0.3,0.9C50.1,56.5,49.9,56.6,49.9,56.3z"/>
		<path class="st6" d="M41.4,59.4c0.2,0,0.3,0,0.5,0s0.2-0.1,0.2-0.2s0.1-0.4,0.4-0.4s0.5,0.1,0.4,0.4s0.1,0.3,0.2,0.4
			c0,0.1,0.2,0.1,0.2,0.2c-0.1,0.1-0.2,0.1-0.2,0c0,0,0,0,0,0c-0.5-0.5-0.7-0.1-1,0.3c-0.1,0.1-0.1,0.2-0.2,0.2
			c-0.1,0-0.1,0-0.2-0.1c-0.2-0.2,0.1-0.2,0.1-0.3c0.2-0.1,0.2-0.2,0-0.3S41.5,59.5,41.4,59.4z"/>
		<path class="st6" d="M26.3,13.7c-0.4,0-0.6-0.3-1-0.3l-0.6,0.1c-0.1,0-0.2,0-0.3-0.2s0.1-0.1,0.2-0.2c0.3-0.1,0.6-0.1,0.9,0.1
			l0.5,0.2C26.1,13.5,26.2,13.5,26.3,13.7z"/>
		<path class="st6" d="M17.2,19.5c0,0.3,0,0.6-0.4,0.5C16.7,19.7,16.8,19.5,17.2,19.5z"/>
		<path class="st6" d="M56.7,22.4c-0.1-0.1-0.2-0.2-0.2-0.4s0.2-0.1,0.4-0.1c0.1,0,0.1,0.1,0.1,0.2c0,0,0,0,0,0
			C57,22.3,56.9,22.4,56.7,22.4z"/>
		<path class="st6" d="M24.7,56.3c0.4-0.4,0.4-0.5-0.1-0.8c-0.2-0.1-0.6-0.1-0.5-0.4s0.4,0,0.6,0.1c0.5,0.2,1,0.4,1.5,0.7
			c1.3,0.7,2.8,1.2,4.2,1.5c1.3,0.4,2.6,0.5,3.9,0.6c0.6,0,1.2,0,1.8,0.1c0.2,0,0.4,0,0.4,0.2s-0.2,0.2-0.4,0.2
			c-0.3,0-0.4,0.1-0.4,0.4c0,0.3,0,0.6,0,0.8c0,0.5-0.1,0.9-0.1,1.4c-0.3-0.1-0.4-0.3-0.3-0.6c0-0.2,0-0.3-0.3-0.2
			c-0.3,0-0.6,0-0.8-0.2c0-0.1-0.1-0.2-0.1-0.3c0.6,0.3,1,0.2,1.2-0.2c0.1-0.3,0.1-0.7,0.1-1c0-0.3-0.3-0.2-0.5-0.2
			s-0.2,0.2-0.1,0.3c0.1,0.3,0,0.7-0.4,0.8c0,0,0,0,0,0c-0.1,0-0.2,0.1-0.2,0.2c-0.3,0-0.3-0.2-0.4-0.4l0.3-0.1
			c0.3-0.1,0.4-0.3,0.4-0.6c-0.1-0.3-0.3-0.3-0.6-0.3c-0.3,0-0.7,0-1-0.1c-0.1,0-0.2,0-0.3,0.1c0,0,0,0,0,0.1c-0.2,0.7,0,1,0.7,0.9
			c0.1,0,0.2-0.1,0.2,0.1c0,0.1-0.1,0.2-0.2,0.2c0,0,0,0,0,0c-0.2,0-0.4,0-0.7,0c-0.3-0.1-0.4,0-0.5,0.4v0.2l0,0
			c-0.3-0.2-0.5-0.4-0.5-0.8c-0.1-0.2,0-0.5,0.3-0.4s0.3-0.2,0.3-0.3s0-0.4-0.3-0.4c-0.2,0-0.5,0-0.6-0.2c-0.2,0.8-0.4,1.5-0.6,2.2
			c-0.1,0.3-0.2,0.3-0.4,0c0-0.1,0-0.2,0-0.3c0.2-0.4,0-0.5-0.3-0.5c-0.3,0-0.5-0.2-0.6-0.4c0.3,0,0.5,0.2,0.8,0.1
			c0.5-0.2,0.4-0.6,0.6-0.9s0-0.5-0.3-0.5c-0.1,0-0.2-0.1-0.4,0c0.1,0.7,0.1,0.7-0.5,1c-0.1,0.1-0.2,0.2-0.2,0.3l-0.3-0.2
			c-0.1-0.3-0.1-0.5,0.3-0.5c0.3,0,0.4-0.2,0.4-0.5c0-0.3-0.2-0.4-0.4-0.4c-0.5-0.1-1.1-0.3-1.6-0.4c-0.4-0.1-0.8-0.4-1-0.2
			s-0.4,0.7-0.5,1.1c0,0,0,0.1,0,0.1c-0.2,0.2-0.3,0.5-0.4,0.7c-0.1,0-0.1,0.3-0.2,0.2s-0.1-0.2-0.1-0.3s0.2-0.3,0.2-0.5
			c0.2-0.2,0.3-0.5,0.4-0.7c0.1-0.3,0.5-0.7,0.3-1s-0.6-0.3-0.9-0.5s-0.3,0-0.4,0.2c-0.1,0.3-0.2,0.5-0.5,0.6
			c-0.3,0.1-0.5,0.4-0.4,0.7c0,0,0,0.1,0,0.1c-0.2-0.3-0.4-0.7-0.4-1.1c-0.1-0.3,0.1-0.4,0.4-0.3C24.4,56.3,24.5,56.4,24.7,56.3z"/>
		<path class="st6" d="M19.6,51.5c0.4,0.2,0.8,0.5,1.1,0.8c0.9,0.7,1.7,1.4,2.6,2.1c0.1,0.1,0.3,0.2,0.1,0.4s-0.3,0-0.4-0.1
			s-0.3-0.3-0.4,0c-0.4,0.4-0.8,0.8-1.1,1.3c-0.1,0-0.1,0.1-0.2,0.2c-0.1,0.1-0.2,0.4-0.4,0.3S21,56.2,21,56c0.2,0,0.3-0.2,0.4-0.4
			c-0.4-0.1-0.7-0.4-0.8-0.8c-0.1-0.3-0.1-0.5-0.1-0.8l0.5,0.1c0.3,0.1,0.5-0.1,0.6-0.3s0-0.3-0.2-0.5l-0.8-0.7
			c-0.1-0.1-0.2-0.2-0.3-0.1s-0.5,0.4-0.5,0.7c0,0.3,0.3,0.5,0.5,0.5c0.2,0,0.1,0.2,0.1,0.3c-0.3,0-0.7-0.2-0.8-0.5
			c-0.1-0.2-0.2-0.2-0.4-0.2S19,53.5,19,53.8s0,0.5,0,0.7l0,0c0,0-0.1,0.1-0.1,0c0-0.3-0.1-0.6-0.1-0.9c0-0.3,0.1-0.6,0.2-0.9
			c0.1-0.2,0.2-0.3,0.4-0.1s0.4,0.1,0.5-0.1c0.1-0.1,0.1-0.3,0-0.5c0,0-0.1-0.1-0.1-0.1C19.7,51.9,19.5,51.8,19.6,51.5z M20.7,54.5
			c0.1,0.4,0.2,0.6,0.6,0.7c0.3,0.1,0.6-0.1,0.8-0.4c0.1-0.1,0.1-0.2,0.2-0.2c0.3-0.2,0.2-0.4-0.1-0.6s-0.2-0.2-0.4-0.2
			C21.7,54.5,21.5,54.6,20.7,54.5L20.7,54.5z"/>
		<path class="st6" d="M24.3,57.6h0.1c0,0.1,0.1,0.2,0,0.2S24.3,57.8,24.3,57.6L24.3,57.6z"/>
		<path class="st6" d="M38.6,61.3L38.6,61.3L38.6,61.3L38.6,61.3L38.6,61.3z"/>
		<path class="st6" d="M38.6,61.3c0.1,0,0.1,0,0.2,0.1l0,0C38.7,61.4,38.6,61.4,38.6,61.3L38.6,61.3z"/>
		<path class="st6" d="M32.1,60.1L32.1,60.1L32.1,60.1z"/>
		<path class="st6" d="M32.3,60.4L32.3,60.4L32.3,60.4z"/>
		<path class="st6" d="M32.3,60.4L32.3,60.4L32.3,60.4L32.3,60.4z"/>
		<path class="st4" d="M18.2,51.3h0.1C18.3,51.3,18.2,51.4,18.2,51.3L18.2,51.3z"/>
		<path class="st6" d="M58,44.8c0.2,0.2,0.4,0.2,0.6,0.3s0.2,0.1,0.2,0.2c-0.1,0.1-0.2,0.1-0.3,0.1c-0.3-0.1-0.6-0.2-0.9-0.3
			c-0.5-0.2-0.6-0.2-0.8,0.4c0.2,0,0.3,0,0.5,0c0.2,0.1,0.4,0.2,0.5,0.5c0,0.2-0.1,0.5-0.3,0.6c-0.4,0.2-0.9,0.3-1.4,0.2
			c0.1-0.2,0.3-0.2,0.4-0.1c0.3,0,0.5-0.1,0.7-0.2c0.1-0.1,0.2-0.2,0.2-0.4c0-0.2-0.2-0.3-0.4-0.2L56.3,46c0.1-0.3,0.2-0.7,0.4-1
			c0.1-0.2,0-0.3-0.2-0.4s-0.2,0-0.3,0.2c-0.3,0.7-0.6,1.3-0.9,1.9c-0.1,0.2,0.1,0.3,0.2,0.4l1.7,1c0.1,0,0.2,0.1,0.2,0.2
			c-0.2,0.2-0.5,0.2-0.7,0c-0.5-0.3-1-0.6-1.5-0.9c-0.2-0.2-0.4-0.2-0.6,0.1c0,0.1-0.1,0.1-0.1,0.2c-0.1,0.2-0.3,0.4-0.4,0.7
			s0.4,0.2,0.5,0.4s0.2,0.2,0.2,0.3c0.1,0.4,0.4,0.6,0.8,0.4c-0.2,0.2-0.5,0.2-0.8,0.3c-0.2,0-0.5,0-0.7-0.1c0-0.1,0-0.3,0.1-0.4
			c0.2-0.2,0.1-0.4-0.1-0.5S54,48.7,53.9,49s-0.2,0.3-0.2,0.4s-0.1,0.2-0.3,0.2s-0.1-0.2,0-0.3s0.2-0.2,0.2-0.4
			c0.1,0,0.1-0.1,0.1-0.2c0.1,0,0.2-0.2,0.2-0.3c1.1-1.5,1.9-3.2,2.5-4.9c0.3,0,0.4,0.2,0.2,0.5s-0.1,0.4,0.2,0.5
			c0.1,0.1,0.3,0.1,0.5,0.2C57.5,44.6,57.7,44.8,58,44.8z"/>
		<path class="st6" d="M58.7,28.2c0.2,0,0.3,0,0.4,0.2c0.3,1.2,0.6,2.5,0.9,3.7c0.1,0.3-0.1,0.4-0.3,0.3c0-0.6-0.1-0.6-0.7-0.5
			c-0.2,0-0.3,0.1-0.5,0.2c-0.3,0-0.7,0.1-1,0.2c-0.2,0-0.4,0.2-0.5,0S57,32,57.2,32l1.1-0.3c0.3,0,0.6-0.1,0.9-0.2
			c0.1,0,0.2,0,0.2-0.1c-0.1-0.3-0.1-0.6-0.2-0.9c0-0.1-0.1-0.1-0.2-0.1c0,0,0,0,0,0l-0.9,0.2c-0.4,0-0.7,0.1-1.1,0.3
			c-0.2,0-0.4,0.1-0.4-0.1s0.2-0.3,0.3-0.3c0.1,0,0.1-0.1,0.2-0.1c0.3,0,0.6,0,0.8-0.2c0.1,0,0.2,0,0.2-0.1c0.1-0.3-0.3-0.9-0.6-1
			L57,29.3l0,0c0.1-0.3,0.4-0.5,0.7-0.5c0.3,0,0.6,0.3,0.6,0.6c0,0.1,0.1,0.3,0.1,0.4c0,0.2,0.1,0.4,0.3,0.3S59,30,59,29.7
			C58.8,29.2,58.7,28.7,58.7,28.2z"/>
		<path class="st6" d="M58.3,40.2c0.4,0.1,0.7,0.2,1.1,0.2l0.6,0.2c0.1,0,0.2,0,0.2,0.1s-0.1,0.1-0.2,0.2s-0.4,0-0.6,0l-0.5-0.1
			c-0.1,0-0.3-0.2-0.4,0c-0.2,0.3-0.2,0.7-0.1,1c0.1,0.3,0.4,0.2,0.7,0.2c0.1,0,0.2-0.1,0.3-0.2l0.4-0.1C59.5,42,59.2,42,59,42.2
			c-0.3,0.1-0.7,0.1-1-0.1c-0.4-0.4-0.1-0.8,0-1.2s-0.1-0.3-0.2-0.3s-0.3,0-0.3,0.2c-0.1,0.4-0.2,0.7-0.2,1.1c0,0.3-0.2,0.4-0.5,0.4
			l0.3-1.6c0-0.1,0-0.3-0.2-0.3c0.2-0.2,0.4-0.5,0.4-0.8c0-0.1,0.1-0.2,0.2-0.2c0.3,0.1,0.2,0.3,0.2,0.5s0,0.3,0.2,0.3
			C58.1,40.2,58.2,40.2,58.3,40.2z"/>
		<path class="st1" d="M58.8,35.2c0.3-0.1,0.7-0.1,1,0c0.4,0.3,0.5,1,0.2,1.4c-0.1,0.1-0.1,0.1-0.2,0.2c-0.3,0.1-0.7,0.1-1.1,0
			C58.2,36.1,58.2,35.7,58.8,35.2z"/>
		<path class="st6" d="M56.5,49.3c-0.1,0.1-0.2,0.2-0.4,0.2C56.2,49.3,56.4,49.3,56.5,49.3z"/>
		<path class="st6" d="M59.9,41.7L59.9,41.7c-0.1-0.1,0-0.1,0-0.2c0,0,0.1,0,0.1,0L59.9,41.7z"/>
		<path class="st6" d="M56.5,49.3L56.5,49.3L56.5,49.3L56.5,49.3L56.5,49.3z"/>
		<path class="st6" d="M13.9,31c0.4,0.2,0.9,0.2,1.4,0.3c-0.1,0.3-0.4,0.4-0.7,0.3c-0.1-0.1-0.2-0.1-0.2,0s0.1,0.2,0.1,0.3
			c0,0.3,0.4,0.6,0.1,0.9c-0.4-0.1-0.3-0.5-0.5-0.8s-0.1-0.2-0.3-0.1l0,0c-0.1-0.2,0.2-0.4-0.1-0.5c-0.3-0.1-0.6-0.1-0.9-0.1
			c-0.4,0-0.2,0.4-0.3,0.6c-0.1,0.2,0.1,0.2,0.3,0.3c0.4,0.1,0.7,0,1-0.2l0,0c-0.1,0.4-0.4,0.6-0.7,0.6c-0.2,0-0.6-0.2-0.7,0.2
			c-0.1,0-0.1,0-0.2,0c-0.1,0-0.1-0.1-0.1-0.2c0.1-0.8,0.3-1.5,0.4-2.3c0-0.1,0.1-0.2,0.2-0.2s0.1,0.2,0.1,0.3
			c-0.1,0.3,0,0.5,0.3,0.5L13.9,31z"/>
		<path class="st1" d="M13,35.1c0.5,0,1,0.4,1,0.9c0,0.5-0.5,0.9-1,0.9c-0.6-0.1-0.8-0.4-0.8-0.9S12.4,35.2,13,35.1z"/>
		<path class="st6" d="M19.3,23.3c-0.1,0.3-0.3,0.2-0.4,0.1s-0.4-0.1-0.5,0.1s-0.2,0.2-0.3,0.2s-0.2-0.1,0-0.3
			c0.3-0.4,0.6-0.8,1-1.2s0.2-0.4-0.1-0.5c-0.1,0.3-0.1,0.6-0.5,0.7c0.1-0.3,0.1-0.7,0.1-1c0-0.1,0-0.3-0.2-0.2s-0.5,0.4-0.5,0.8
			s0.3,0.4,0.5,0.4c0,0-0.1,0.1-0.1,0.1c-0.5-0.2-1-0.1-1.4,0.2c0-0.3,0.3-0.5,0.4-0.7c0.2-0.3,0.4-0.6,0.6-0.8
			c0.1-0.1,0.2-0.2,0-0.3s-0.3,0-0.4,0.1c-0.4,0.4-0.7,0.9-1,1.3c-0.1,0.1-0.1,0.3-0.3,0.2s-0.1-0.3,0-0.4l1.7-2.3
			c0.1-0.1,0.1-0.2,0.2-0.1s0.1,0.2,0,0.4s-0.3,0.5,0.1,0.6c0.4,0.4,0.8,0.7,1.2,1l1.3,1c0,0,0,0.1-0.1,0.1c-0.5-0.1-0.9-0.1-1,0.5
			c0,0.1-0.2,0.1-0.3,0.1C19.5,23.4,19.4,23.3,19.3,23.3c0.4-0.3,0.5-0.6,0.2-1.2c-0.2,0.1-0.3,0.3-0.4,0.5
			C19,22.9,18.9,23.2,19.3,23.3z"/>
		<path class="st6" d="M20.4,18.5c0.2,0.1,0.2,0.3,0,0.5c-0.2,0.2-0.4,0.4-0.6,0.7c-0.1,0.3,0,0.5,0.2,0.6c0.2,0.1,0.4,0.1,0.6-0.1
			c0,0,0,0,0,0c0.1-0.1,0.1-0.1,0.1-0.2c-0.1-0.1-0.1-0.3,0-0.5c0,0,0.1-0.1,0.1-0.1c0.2-0.1,0.5-0.1,0.6,0.1c0,0,0,0,0,0
			c0,0.2,0,0.4,0.3,0.4c0.1,0,0.3,0,0.3,0.1s-0.2,0.1-0.3,0.1c-0.5-0.1-0.5,0.1-0.6,0.5c0,0.1,0,0.2-0.1,0.3s-0.1,0.2-0.2,0.2
			s-0.2-0.2-0.1-0.3c0.2-0.5-0.1-0.4-0.4-0.4c-0.7,0-0.9-0.2-0.9-0.8c0.2-0.2,0.4-0.4,0.6-0.6c0.1-0.1,0.1-0.2,0-0.3s-0.2-0.1-0.3,0
			c-0.3,0.3-0.6,0.5-0.9,0.8c-0.1,0.1-0.2,0.2-0.3,0.1s0-0.2,0.1-0.3l1.3-1.2c0.1-0.1,0.2-0.2,0.3-0.3c0.1-0.1,0.2-0.2,0.3,0
			s0,0.2-0.1,0.3C20.1,18.2,20.1,18.4,20.4,18.5z"/>
		<path class="st6" d="M17.3,24.8c-0.2-0.1-0.4-0.5-0.5,0.1c0,0.2-0.2,0.3-0.4,0.3c0.2-0.5,0.2-0.8-0.1-1C16.1,24,16,24,15.8,23.9
			s-0.3-0.1-0.4,0.1s-0.4,0.5-0.1,0.7c0.3,0.3,0.7,0.4,1,0.4c-0.4,0.5-0.8,0.2-1.2,0C15.1,25,15,24.9,14.8,25s-0.1,0.2-0.3,0.1
			s0-0.2,0-0.4c0.2-0.5,0.5-0.9,0.8-1.4c0.1-0.2,0.2-0.4,0.3-0.5s0.2-0.2,0.3-0.1s0.1,0.2,0,0.3s-0.2,0.4,0.1,0.5
			c0.5,0.3,1.1,0.6,1.6,0.9l0.3,0.2C17.8,25,17.5,24.9,17.3,24.8z"/>
		<path class="st6" d="M53.9,24l0.5-0.3c-0.6-0.4-0.8-0.8-0.7-1.3c0.1-0.3,0.3-0.4,0.6-0.4c0.5,0.1,0.8,0.5,0.8,1
			c0.6-0.2,0.6-0.3,0.2-0.8l-0.6-0.8c-0.1-0.1-0.2-0.2,0-0.3s0.3,0,0.3,0.1l0.6,0.8l0.8,1.1c0.1,0.1,0.1,0.2,0,0.3s-0.2,0-0.2,0
			c-0.4-0.4-0.4-0.4-0.9,0.1c-0.4,0.2-0.7,0.4-1,0.7l-0.2,0.1c-0.1,0.1-0.2,0.3-0.4,0.2S53.8,24.1,53.9,24z M54.6,23.3
			c0.3,0,0.5,0,0.4-0.3c-0.1-0.3-0.4-0.5-0.7-0.6c-0.1,0-0.3,0-0.4,0.2c-0.1,0.1,0,0.2,0.1,0.4C54.1,23.1,54.3,23.2,54.6,23.3
			L54.6,23.3z"/>
		<path class="st6" d="M50.3,19.8c0.1-0.6,0.1-0.7,0.7-0.8c0.2,0,0.2-0.1,0.1-0.3c0.4,0.3,0.7,0.7,0.7,1.2c0.3-0.2,0.6-0.5,0.8-0.8
			c0.1-0.1-0.1-0.2-0.2-0.3c-0.2-0.3-0.7-0.4-0.5-0.9l1.7,1.5c0.1,0.1,0.1,0.1,0,0.2c0,0,0,0,0,0c0,0.1-0.1,0.1-0.2,0c0,0,0,0,0,0
			c-0.4-0.4-0.6-0.2-0.8,0.2L51.5,21c-0.1,0-0.2,0.2-0.4,0.2s0-0.1,0-0.2s0.1-0.4-0.2-0.5C50.6,20.4,50.4,20.1,50.3,19.8z
			 M51.5,20.2c0.1,0,0.2,0,0.3-0.2s-0.5-0.7-0.9-0.7c-0.2,0-0.3,0.1-0.3,0.3c0,0,0,0,0,0C50.5,20,50.8,20.2,51.5,20.2z"/>
		<path class="st6" d="M51.1,18.6c-0.3-0.1-0.6-0.1-0.9-0.2c-0.1,0-0.3-0.1-0.3-0.2c0,0,0,0,0,0c0-0.2,0.2-0.2,0.4-0.1
			c0.5,0.2,0.3-0.1,0.3-0.4s0.2-0.5,0.5-0.4s0.5,0.2,0.4,0.5l-0.2-0.1c-0.1-0.1-0.3-0.1-0.4,0.1c0,0,0,0.1,0,0.1
			c-0.1,0.1,0,0.3,0.1,0.4c0,0,0,0,0,0c0.2,0.1,0.4,0,0.5-0.1c0.1-0.1,0.1-0.2,0.1-0.3c0.2,0.3,0,0.5-0.2,0.7
			C51.3,18.5,51.1,18.5,51.1,18.6z"/>
		<path class="st6" d="M27.3,15l0.5,1.1c0,0.1,0.1,0.2,0,0.3s-0.2,0-0.2,0s-0.2-0.2-0.3,0c-0.4,0.5-1.2,0.6-1.7,0.2v-0.1l0.4,0.1
			c0.5,0.1,1-0.1,1.2-0.6c0.1-0.1,0.1-0.3,0-0.4s-0.2,0.1-0.3,0.2c-0.3,0.3-0.5,0.4-0.8,0.1c0.4,0,0.7-0.2,0.8-0.5
			c0.1-0.1,0.1-0.2,0-0.3c-0.1-0.1-0.2-0.1-0.3,0c-0.4,0.1-0.7,0.3-0.7,0.8c-0.3-0.2-0.3-0.4-0.1-0.6c0.2-0.3,0.6-0.4,0.9-0.3l0,0
			l0,0c-0.2-0.6-0.2-0.6-0.7-0.4l-0.6,0.3c-0.1,0.1-0.3,0.1-0.2,0.2c0.2,0.5,0.3,1,0.4,1.5c-0.2,0-0.4-0.1-0.6-0.3
			c-0.1-0.2-0.5-0.4,0-0.6c0.2-0.1,0-0.2-0.1-0.3c0-0.4-0.2-0.4-0.5-0.3s-0.3,0.2-0.4-0.1s0.1-0.2,0.3-0.3c0.6-0.3,1.1-0.6,1.7-0.8
			c0.1-0.1,0.3-0.1,0.3-0.3c0.3,0,0.5,0,0.8-0.2c0.1-0.1,0.2-0.1,0.3,0.1c0.1,0.1,0,0.2,0,0.2c0,0,0,0-0.1,0
			c-0.6,0.1-0.4,0.4-0.2,0.8C27.1,14.7,27.1,14.9,27.3,15z"/>
		<path class="st6" d="M33,14c-0.5-0.6-0.5-0.7-0.1-1.1c0.6-0.2,0.7-0.2,1.2,0c0.1-0.6,0-0.6-0.5-0.6c-0.3,0-0.7,0-1,0.1
			c-0.1,0-0.3,0-0.3-0.1c0,0,0-0.1,0-0.1c0-0.2,0.2-0.1,0.2-0.1c0.5-0.1,1.1-0.1,1.6-0.2c0.3,0,0.5,0,0.8-0.1c0.1,0,0.3,0,0.3,0.1
			c0,0,0,0,0,0c0.1,0.2-0.2,0.2-0.2,0.2s-0.5,0-0.4,0.4s0.1,0.9,0.1,1.4c0,0.2,0.1,0.4,0.1,0.6s0.1,0.3-0.1,0.3
			c-0.2,0-0.3-0.1-0.3-0.3c0-0.2,0-0.4,0-0.7C33.9,14.2,33.4,14.2,33,14z M34.2,13.3c0-0.2-0.1-0.2-0.2-0.2c-0.4,0-0.8,0.2-1,0.5
			c-0.1,0.1,0,0.2,0.1,0.3s0.3,0,0.5-0.1S34.1,13.6,34.2,13.3L34.2,13.3z"/>
		<path class="st6" d="M30,13.3c0.1,0.5,0.2,0.9,0.4,1.4c0,0.2,0.1,0.4,0.1,0.6s0.1,0.1,0,0.2s-0.2,0-0.2-0.1
			C30,15.3,30.1,15,30,14.7c-0.4,0.2-0.7,0.6-1.2,0.2l0,0c0.5,0,0.7-0.4,1-0.7c0.1-0.1,0-0.2-0.1-0.3c-0.5-0.1-0.9,0.2-1,0.7
			c0,0.1,0,0.1,0,0.2l0,0c-0.2,0-0.2-0.2-0.4-0.3c0-0.5,0.4-0.9,0.8-0.9c0,0,0,0,0,0c0.2,0,0.3,0,0.5,0l0,0l0,0
			c0-0.6-0.1-0.6-0.6-0.4l-1,0.3c-0.1,0-0.3,0.1-0.3-0.1s0.1-0.2,0.2-0.3l2.1-0.6c0.1,0,0.4-0.1,0.4,0.1s-0.2,0.2-0.3,0.3
			S29.8,13.1,30,13.3z"/>
		<path class="st6" d="M44.5,17.4c0.1-0.3-0.1-0.5-0.3-0.6c0,0,0,0,0,0c-0.1,0-0.2-0.2-0.2-0.3c0,0,0,0,0-0.1
			c0.2-0.7,0.5-1.4,0.7-2.1c0.1-0.2,0.1-0.4-0.2-0.5s-0.3,0.1-0.4,0.3S44,14.5,44,14.8s-0.2,0.5-0.5,0.5c-0.3,0-0.5-0.2-0.5-0.4
			c0.4,0.2,0.7,0.1,0.8-0.4c0-0.2,0.1-0.4,0.2-0.6c0.1-0.2,0-0.3-0.2-0.3s-0.3-0.1-0.4,0.2c-0.1,0.4-0.3,0.8-0.3,1.1
			c-0.3-0.3-0.3-0.7-0.1-1c0.2-0.4,0.1-0.6-0.3-0.7c-0.2-0.1-0.5-0.2-0.7-0.3c0.1,0.4,0.2,0.8,0.4,1.2c0.1,0.2,0.3,0.5,0,0.7
			s-0.5,0-0.8-0.1c-0.2-0.2-0.4-0.4-0.5-0.7c0-0.3,0.1-0.5,0.2-0.7c0.1-0.2,0.2-0.4-0.1-0.6c-0.1-0.1-0.1-0.2,0.1-0.2
			c0.1,0,0.2,0,0.3,0.1l4.2,1.4c0.1,0,0.4,0,0.3,0.3s-0.2,0.1-0.4,0.1C45,14,45.2,14.5,45,14.7l-0.5,1.5c-0.2,0.2,0,0.3,0,0.5
			S44.9,17.2,44.5,17.4L44.5,17.4z M41.5,12.9c-0.1,0.4-0.2,0.7-0.3,1.1c-0.1,0.2,0.1,0.4,0.3,0.5c0.2,0.1,0.4,0.1,0.5,0
			c0.2-0.2,0-0.3,0-0.5C41.9,13.6,41.8,13.3,41.5,12.9L41.5,12.9z"/>
		<path class="st6" d="M41.3,59.3L41.3,59.3L41.3,59.3z"/>
		<path class="st6" d="M46.2,55.9c-0.2,0.1-0.6-0.2-0.6,0.2s0.4,0.3,0.7,0.3c-0.2,0.2-0.5,0.3-0.8,0.1c-0.2-0.2-0.4-0.4-0.2-0.6
			C45.5,55.7,45.9,55.6,46.2,55.9C46.1,55.9,46.2,55.9,46.2,55.9z"/>
		<path class="st6" d="M13.9,31.9L13.8,32l0,0L13.9,31.9L13.9,31.9z"/>
		<path class="st6" d="M27,58.2v-0.6c0.1,0.3,0.2,0.6,0.3,0.9c0.1,0.2,0.3,0.5,0.6,0.3s0.1-0.4,0.1-0.7s-0.1-0.2-0.2-0.4
			c0.4,0,0.7,0.1,1.1,0.2C29,58,29,58,29,58.1s-0.1,0.2-0.2,0.2c-0.7-0.3-0.3,0.3-0.4,0.6c-0.4,0.5-0.9,0.5-1.2-0.1
			C27.1,58.6,27.1,58.4,27,58.2z"/>
		<path class="st6" d="M56.1,26.6c0,0.3-0.1,0.6,0.5,0.6c0.2,0,0.3,0.2,0.3,0.4c0,0.2-0.2,0.4-0.4,0.4c0,0,0,0,0,0
			c-0.1,0-0.3-0.1-0.3,0.1l-0.3,0.4c-0.1,0-0.2-0.2-0.1-0.2c0.3-0.4,0.1-0.9,0.2-1.3C55.9,26.9,55.9,26.7,56.1,26.6z"/>
		<path class="st6" d="M44.2,17.6c-0.3,0-0.6-0.1-0.8-0.3c-0.3-0.3-0.5-0.7-0.5-1.2c0.2,0.7,0.9,1.2,1.6,1.1l0,0
			C44.5,17.5,44.3,17.6,44.2,17.6z"/>
		<path class="st6" d="M37.5,13.4l0.3-0.3l0,0c0.6,0,0.6,0,0.8,0.3c-1.1,0.2-1.1,0.2-1.1,0.9C37.3,14,37.5,13.7,37.5,13.4z"/>
		<path class="st6" d="M57,40.3l-0.1,0.2c-0.4,0.1-0.7,0.3-0.8,0.8c0,0.1-0.1,0.2-0.2,0.3c-0.1,0-0.2,0.1-0.3,0s0-0.2,0-0.2
			C55.9,40.8,56.4,40.4,57,40.3z"/>
		<path class="st6" d="M56.1,26.5L56.1,26.5c0.1,0.1,0.1,0.1,0,0.2L56.1,26.5z"/>
		<path class="st6" d="M56.7,29.4L56.7,29.4L56.7,29.4z"/>
		<path class="st6" d="M28.7,14.9L28.7,14.9L28.7,14.9L28.7,14.9L28.7,14.9z"/>
		<path class="st6" d="M37.6,14.3L37.6,14.3L37.6,14.3z"/>
		<path class="st5" d="M26.6,14.8L26.6,14.8L26.6,14.8z"/>
		<path class="st7" d="M29.6,13.7L29.6,13.7L29.6,13.7z"/>
		<path class="st6" d="M38.3,12.1c0.2,0.1,0.2,0.3,0.1,0.5c-0.1,0.2-0.2,0.3-0.4,0.3c-0.6,0-0.7,0-0.7-0.4c0-0.3,0.2-0.5,0.4-0.6
			C38,11.8,38.2,11.9,38.3,12.1C38.3,12.1,38.3,12.1,38.3,12.1c-0.2,0-0.4-0.1-0.5,0.1s-0.3,0.3-0.2,0.4s0.3,0,0.4,0
			S38.3,12.4,38.3,12.1z"/>
		<path class="st6" d="M37.9,13.1L37.9,13.1L37.9,13.1L37.9,13.1z"/>
		<path class="st6" d="M57,29.3L57,29.3L57,29.3z"/>
		<path class="st6" d="M56.2,26.5l0.1-0.1L56.2,26.5z"/>
		<path class="st1" d="M35,16.9c0.4-0.4,1.1-0.5,1.6-0.3c0.5,0.2,0.6,0.7,0.4,1.5c-0.1,0.3-0.2,0.6-0.3,0.9
			c-0.1,0.3-0.2,0.6-0.2,0.9c0,0.3,0.1,0.5,0.5,0.2c0.5-0.4,1.2-0.4,1.7,0.1c0,0,0,0,0,0c0.2,0.9,0,1.2-0.8,1.4
			c-0.2,0.1-0.6,0-0.5,0.2s0.4,0,0.6-0.1c0.5-0.2,1.1-0.2,1.5,0.2c0.3,0.3,0.4,0.8,0.2,1.2c-0.2,0.2-0.5,0.3-0.7,0.2
			c-0.4-0.1-0.5,0-0.4,0.4c0,0.3,0,0.7,0,1c-0.2,0.6-0.6,1.1-1.1,1.5c-0.6,0.4-0.6,0.4-0.2,1.1l0.1,0.2c0.3,0.7,0.7,1.4,0.2,2.1
			c-0.2,0.3-0.2,0.7,0.1,0.9c0.2,0.3,0.5,0.5,0.7,0.8c0.2,0.3,0.6,0.5,0.9,0.5c0.3,0,0.5,0,0.6-0.4c0.1-0.5,0.3-1,0.5-1.5
			c0.2-0.3,0.4-0.3,0.6,0c0.3,0.5,0.5,1,0.8,1.5c0.3,0.9,1.2,0.8,1.9,0.9c-0.5-0.6-0.7-1.3-0.7-2c0.2-0.8,0.4-1.6,0.5-2.4
			c0-0.2,0.1-0.4,0.4-0.2c0.5,0.4,0.8,0.8,1,1.4c0.3,1,0.3,2.1-0.1,3.1c0,0.1-0.3,0.3,0.1,0.4c0.7,0.2,1.4,0.5,2,0.8l0,0l0,0
			c0-0.1,0-0.2-0.1-0.3c-0.6-1.2-0.9-2.5-0.8-3.9c0-0.6,0.2-1.2,0.5-1.8c0.1-0.1,0.2-0.3,0.4-0.4s0.2-0.2,0.3-0.2
			c0.1,0.1,0.2,0.2,0.2,0.3c0.1,0.9,0.3,1.7,0.7,2.5c0.5,0.9,0.7,2,0.7,3c-0.1,0.4-0.2,0.8-0.3,1.1C48,34,47.8,34.2,48,34.5
			c0.1,0.1,0,0.2-0.1,0.3c-0.4,0.4-0.7,0.8-1,1.2c-0.6,0.9-1.4,1.5-2.4,1.9c-0.1,0-0.1,0-0.2,0c-2.1,0.4-4.1,1.5-5.5,3.1
			c-0.1,0.1-0.1,0.2,0,0.3c0.2,0.3,0.6,0.6,0.7,1c-0.1,0-0.2-0.1-0.3-0.2c-0.3-0.3-0.5-0.3-0.7,0.2h-0.1c0-0.1,0-0.3,0.1-0.4
			c0.1-0.1,0.1-0.2,0-0.3s-0.2-0.1-0.3,0c-1.4,0.5-2.9,0.5-4.3,0c-0.1,0-0.2,0-0.3,0.1c-0.1,0.1-0.1,0.2,0,0.3c0,0,0,0,0,0
			c0.1,0.1,0.1,0.3,0.1,0.5h-0.1c-0.2-0.4-0.3-0.5-0.7-0.2c-0.1,0.1-0.2,0.2-0.3,0.2c0-0.5,0.4-0.7,0.7-1c0.1-0.1,0.2-0.2,0-0.3
			c-0.3-0.3-0.5-0.6-0.8-0.9c-1.1-1-2.5-1.7-4-2.1c-1.3-0.2-2.5-1-3.3-2.1c-0.3-0.5-0.6-0.8-1.1-1.1c-0.1-0.1-0.3-0.3-0.2-0.4
			c0.3-0.3,0-0.6-0.1-0.9c-0.2-0.4-0.3-0.8-0.3-1.2c0-0.9,0.3-1.7,0.6-2.5c0.4-0.8,0.6-1.7,0.7-2.6c0-0.2,0-0.4,0.2-0.5
			c0.2,0,0.3,0.2,0.4,0.3c0.6,0.7,0.9,1.6,0.9,2.6c0,0.7-0.1,1.4-0.2,2.1c-0.2,0.5-0.4,1.1-0.6,1.7l0,0l0,0c0.6-0.3,1.3-0.6,2-0.8
			c0.2-0.1,0.2-0.2,0.2-0.4c-0.5-1.1-0.5-2.4,0-3.5l0,0c0.1-0.1,0.2-0.2,0.2-0.3l0.8-0.8c0.3,0,0.4,0.3,0.4,0.5
			c0,0.4,0.1,0.8,0.3,1.1c0,0.5,0.2,0.9,0.1,1.5c-0.1,0.6-0.4,1.1-0.8,1.6c0.4-0.1,0.7-0.2,1-0.2c0.3,0,0.6-0.2,0.7-0.5
			c0.3-0.6,0.7-1.2,1-1.8c0.2-0.4,0.3-0.4,0.5,0c0.2,0.4,0.4,0.9,0.6,1.3c0,0.2,0,0.5,0.2,0.6c0.3,0.1,0.7,0,1-0.2
			c0.4-0.4,0.7-0.7,1-1.2c0.2-0.3,0.2-0.6,0-0.9c-0.3-0.4-0.4-1-0.1-1.5c0.2-0.5,0.5-0.9,0.7-1.3c0.1-0.2,0.1-0.4-0.2-0.5
			c-0.6-0.3-1-0.8-1.3-1.4c-0.1-0.4-0.2-0.9-0.1-1.3c0.1-0.4,0-0.4-0.3-0.3c-0.6,0.1-0.9-0.1-0.9-0.6c0-0.2,0-0.4,0.1-0.5
			c0.4-0.6,1.2-0.7,1.8-0.3c0.1,0,0.2,0.1,0.2,0.1c0.1,0,0.2,0.1,0.3-0.1s-0.1-0.1-0.2-0.2l-0.2-0.1c-0.9-0.3-1.1-0.5-0.9-1.5
			c0.3-0.4,0.9-0.5,1.3-0.3c0.2,0.1,0.3,0.1,0.4,0.2c0.2,0.2,0.3,0.1,0.3-0.1c0.1-0.4,0-0.9-0.2-1.2l-0.4-1.2L35,16.9z M25.8,34.5
			c0.1,0.2,0.3,0.1,0.4,0.1c0.3,0.1,0.7,0,1,0.2c0.4,0.4,0.9,0.6,1.5,0.7c0.6,0.1,0.9,0.4,1,1c0,0.2,0.1,0.3,0.4,0.2
			c0.5-0.2,1-0.3,1.5-0.4c1.3-0.2,2.6-0.3,3.6,0.7c0.2,0.2,0.6,0.6,0.8,0.6s0.6-0.4,0.9-0.6s0.6-0.7,1.1-0.7s0.9-0.1,1.3-0.1
			c0.9,0,1.7,0.1,2.5,0.4c0.6,0.1,0.6,0.1,0.7-0.4c0-0.4,0.3-0.6,0.7-0.7c0.5-0.1,1-0.3,1.4-0.6c0.4-0.3,0.9-0.4,1.4-0.5
			c0.1,0,0.2,0,0.2-0.1c-0.1,0-0.2,0-0.2-0.1c-0.4-0.1-0.8,0-1.2-0.3c-0.6-0.4-1.2-0.7-1.9-0.8c-0.2,0-0.3,0-0.2,0.3
			c0.1,0.8-0.1,1.6-0.5,2.2c-0.2,0.5-0.3,0.5-0.6,0c-0.6-0.9-1.2-1.8-1.6-2.8c0-0.2-0.2-0.3-0.4-0.2c0,0,0,0,0,0
			c-0.2,0.1-0.1,0.2-0.1,0.4c0.2,1-0.4,1.9-1.4,2.1c-0.5,0.1-0.9,0.4-1,0.8c-0.2,0.5-0.5,1-1,1s-0.8-0.5-1-1c-0.1-0.5-0.5-0.8-1-0.8
			c-0.9-0.2-1.5-1.1-1.4-2c0-0.1,0.2-0.3,0-0.4s-0.4,0.1-0.5,0.3c-0.4,1-1,2-1.6,2.9c-0.2,0.3-0.3,0.3-0.5,0
			c-0.4-0.7-0.6-1.5-0.5-2.3c0-0.3-0.1-0.3-0.3-0.3s-0.6,0.2-0.9,0.3c-0.7,0.2-1.2,0.9-2,0.9C26.2,34.5,26,34.5,25.8,34.5z
			 M37.3,34.1v0.3c0,0.5,0,0.5,0.5,0.4c0.8-0.2,1.2-1,1.1-1.7c-0.1-0.2-0.2-0.4-0.3-0.6c-0.4-0.6-0.9-1.2-1.4-1.8
			c-0.4-0.4-0.4-1-0.1-1.4c0.2-0.3,0.2-0.6,0.1-1c-0.2-0.6-0.5-1.1-0.8-1.6c-0.1-0.3-0.9-0.2-1,0c-0.2,0.5-0.5,0.9-0.7,1.4
			c-0.2,0.3-0.2,0.7,0,1.1c0.5,0.7,0.3,1-0.1,1.5c-0.5,0.6-1,1.2-1.4,1.9c-0.4,0.7-0.2,1.6,0.5,2c0.2,0.1,0.3,0.2,0.5,0.2
			c0.3,0.1,0.4,0,0.4-0.3c0-0.5,0-0.9,0-1.4c0.2-1.2,0.8-2.2,1.1-3.4c0-0.1,0.1-0.2,0.2-0.2s0.2,0.2,0.3,0.3
			c0.2,0.7,0.4,1.4,0.7,2.1C37.2,32.6,37.4,33.4,37.3,34.1z M35.8,19.6c0,0.2,0,0.4-0.1,0.6c-0.2,0.6-0.5,0.7-0.9,0.3
			c-0.2-0.1-0.3-0.2-0.5-0.3c-0.3-0.1-0.6-0.1-0.7,0.3c-0.1,0.2,0,0.5,0.3,0.6c0,0,0.1,0,0.1,0c0.3,0,0.6,0.1,0.8,0.3
			c0.4,0.3,0.4,0.5,0,0.9c-0.2,0.2-0.5,0.2-0.7,0c0,0,0,0,0,0c-0.2-0.1-0.4-0.2-0.6-0.2c-0.3-0.1-0.6,0.1-0.8,0.4
			c-0.1,0.1-0.1,0.3,0,0.4c0.1,0.1,0.2,0.1,0.3,0.1c0.2,0,0.3-0.1,0.5-0.1c0.4,0,0.5,0.1,0.4,0.5c-0.1,0.4-0.2,0.7-0.1,1.1
			c0.1,1.2,1.1,2,2.3,1.9c1.2-0.1,2-1.1,1.9-2.3c0-0.2,0-0.3-0.1-0.5c-0.2-0.7-0.1-0.8,0.6-0.6c0.1,0,0.2,0,0.3,0
			c0.1,0,0.2,0,0.3-0.1c0.1-0.1,0.1-0.3,0-0.4c-0.1-0.3-0.4-0.4-0.7-0.3c-0.3,0-0.5,0.1-0.8,0.3c-0.4,0.3-0.7-0.1-0.9-0.3
			s0-0.4,0.2-0.6s0.6-0.2,0.9-0.3c0.2,0,0.4-0.3,0.4-0.5c0,0,0-0.1,0-0.1c-0.1-0.2-0.3-0.4-0.5-0.3c0,0-0.1,0-0.1,0
			c-0.2,0.1-0.5,0.2-0.7,0.4c-0.3,0.2-0.6,0.2-0.8-0.2c-0.1-0.2-0.1-0.3-0.1-0.5c0-0.7,0.2-1.4,0.5-2.1c0.2-0.5-0.1-0.8-0.6-0.8
			s-0.8,0.3-0.6,0.9C35.6,18.3,35.8,19,35.8,19.6z M36,30.6c-0.4,0.8-0.6,1.6-0.9,2.5c-0.3,1-0.1,2.2,0.4,3.1c0.3,0.4,0.5,0.4,0.8,0
			c0.4-0.6,0.6-1.3,0.6-2C36.9,32.9,36.5,31.8,36,30.6L36,30.6z M24.4,34c1.5-1.9,1.9-5,0.8-6.2c-0.3,1.2-0.8,2.3-1.1,3.5
			C23.8,32.1,23.9,33.2,24.4,34z M46.7,27.7c-1.1,1.4-0.6,4.3,0.8,6.3c0.5-0.7,0.7-1.7,0.4-2.6C47.6,30.2,47,29,46.7,27.7z
			 M29.9,33.9c0,0.4,0,0.8,0.2,1.2c0,0.1,0,0.2,0.2,0.2s0.2-0.1,0.2-0.2c0.3-0.5,0.6-1,0.9-1.5c0.5-0.8,0.6-1.9,0.3-2.8
			c0-0.1,0-0.3-0.2-0.3s-0.1,0.1-0.2,0.2l-0.6,1.1C30.1,32.5,29.9,33.2,29.9,33.9z M42.1,34c0-0.3,0-0.7-0.1-1
			c-0.3-0.8-0.9-1.5-1.3-2.4c-0.1-0.2-0.2-0.1-0.2,0c-0.2,0.5-0.3,1.2-0.3,1.8c0.3,1,0.8,2,1.4,2.9c0.2,0.2,0.2,0.1,0.3,0
			C42.1,34.9,42.1,34.4,42.1,34L42.1,34z M43.7,28.4c-0.1,0.6-0.2,1.1-0.4,1.5c-0.2,0.6-0.1,1.1,0.2,1.6c0.1,0.2,0.3,0.5,0.5,0.5
			s0.2-0.4,0.3-0.6c0-0.1,0.1-0.3,0.1-0.4C44.6,30.2,44.3,29.2,43.7,28.4z M28.3,28.4c-0.9,0.9-1.1,3-0.3,3.7
			c0.4-0.3,0.6-0.7,0.7-1.1C28.9,30.1,28.4,29.3,28.3,28.4L28.3,28.4z M29.6,32.6c-1.5,0.3-3,0.5-4.2,1.4c0.5,0.1,1.1,0,1.6-0.3
			c0.6-0.4,1.3-0.7,2-0.9C29.2,32.9,29.5,32.9,29.6,32.6L29.6,32.6z M42.3,32.6c0,0.1,0.2,0.3,0.3,0.3c0.9,0.2,1.7,0.5,2.4,1
			c0.5,0.2,1.1,0.3,1.6,0.3C45.3,33.3,43.9,32.8,42.3,32.6L42.3,32.6z M42.9,36.4c1.3-0.2,2.5-0.6,3.6-1.3c-0.5-0.1-1.1,0-1.6,0.3
			c-0.5,0.3-1.1,0.6-1.7,0.8C43.1,36.1,43,36.2,42.9,36.4L42.9,36.4z M25.5,35.1c1.1,0.7,2.4,1.2,3.7,1.3c-0.1-0.2-0.3-0.3-0.5-0.3
			c-0.5-0.1-1-0.3-1.4-0.6C26.7,35.1,26.1,35,25.5,35.1z M38.1,36.9c0.6,0.1,1.3,0.1,1.9-0.1C39.3,36.7,38.7,36.9,38.1,36.9z
			 M32.1,36.8c0.6,0.2,1.2,0.2,1.8,0.1C33.3,36.9,32.7,36.7,32.1,36.8z"/>
		<path class="st1" d="M27.5,53.2c-0.8-0.3-1.5-0.7-2.1-1.1c-0.2-0.2-0.4-0.4-0.6-0.7c-0.1-0.2-0.1-0.5-0.1-0.7
			c0-0.4,0.2-0.8,0.5-1.1c0.6-0.5,0.6-0.5-0.1-0.9c-0.9-0.4-1.4-1.3-1.3-2.2c0.3-0.5,0.7-1,1.1-1.3l2-0.9c0.1,0,0.2,0,0.3,0
			c1.4-0.4,2.8-0.7,4.2-0.9c0.2,0,0.6,0.1,0.7-0.3l0.2-0.2c0,0.4-0.3,0.8-0.3,1.2c0,0.7,0.1,0.8,0.7,0.7c-0.1,0.2-0.6,0.2-0.4,0.6
			c0.1,0.3,0.2,0.5,0.4,0.8c0.2,0.3,0.5,0.4,0.8,0.5c1,0.3,2.1,0.4,3.2,0.3c0.7,0,1.4-0.2,2-0.6c0.4-0.3,0.7-0.7,0.7-1.1
			c0.1-0.3-0.4-0.2-0.4-0.5l0,0c0.6,0.1,0.7,0,0.7-0.6c0-0.3-0.1-0.7-0.2-1c0.4,0.2,0.9,0.3,1.3,0.2l2.8,0.6
			c0.7,0.2,1.5,0.4,2.2,0.7c0.9,0.3,1.7,1,2.1,1.8c0.1,0.5,0,1-0.3,1.4c-0.5,0.5-1,0.9-1.6,1.2l0.9,0.8c0.6,1.2,0,1.9-1,2.5
			c-0.5,0.3-1.1,0.5-1.6,0.8C38.9,54.8,33,54.8,27.5,53.2z M36,53.9c0.8,0,1.6,0,2.4-0.1c1.5-0.1,3-0.3,4.5-0.7
			c1.3-0.2,2.5-0.8,3.6-1.6c0.4-0.3,0.5-0.9,0.2-1.3c-0.3-0.5-0.9-0.8-1.5-0.8c-2.5,0.8-5,1.2-7.6,1.3c-1.7,0.1-3.4,0-5.1-0.1
			c-1.8-0.1-3.7-0.5-5.4-1.1c-0.5-0.2-1.2-0.1-1.5,0.4c-0.5,0.4-0.5,1.1-0.2,1.5c0.1,0.1,0.1,0.2,0.2,0.2c0.6,0.5,1.2,0.8,1.9,1.1
			C30.3,53.6,33.1,54,36,53.9L36,53.9z M36.4,50.3c2.1,0,4.2-0.2,6.3-0.7c1.6-0.2,3.1-0.8,4.4-1.8c0.6-0.3,0.8-1.1,0.4-1.6
			c-0.1-0.2-0.2-0.3-0.4-0.4c-0.2-0.2-0.5-0.4-0.8-0.6c-2-0.9-4.1-1.5-6.2-1.7c-0.2,0-0.3,0.1-0.2,0.2c0.1,0.4,0.1,0.8,0,1.1
			c0,0.2,0.1,0.3,0.3,0.4c0.8,0.1,1.6,0.3,2.4,0.5c0.6,0.1,1.1,0.4,1.5,0.7c0.4,0.3,0.5,0.8,0.2,1.1c-0.1,0.1-0.1,0.1-0.2,0.2
			c-0.3,0.2-0.6,0.4-1,0.5c-1.9,0.6-3.9,1-5.9,1c-2.4,0.1-4.8,0-7.2-0.5c-0.8-0.1-1.5-0.4-2.1-0.8c-0.5-0.2-0.7-0.7-0.5-1.2
			c0.1-0.2,0.3-0.4,0.5-0.5c0.1-0.1,0.3-0.2,0.4-0.2c0.9-0.4,1.9-0.7,2.9-0.8c0.7-0.1,0.7-0.1,0.7-0.8c0-0.3,0-0.5,0.1-0.8
			c0.1-0.2,0-0.3-0.3-0.3c-1.7,0.2-3.4,0.6-5,1.1c-0.8,0.3-1.5,0.7-2.1,1.3c-0.4,0.4-0.5,1.1-0.1,1.5c0,0,0,0,0,0
			c0.2,0.2,0.3,0.4,0.5,0.5c1.2,0.7,2.4,1.2,3.8,1.5C31.4,50.2,33.9,50.4,36.4,50.3z M30.5,48.6c3.6,0.6,7.4,0.6,11,0
			c-0.7-0.7-1.4-1.2-2-1.8c-0.1-0.1-0.3-0.2-0.5-0.1c-1.9,0.9-4.1,0.9-5.9,0c-0.1-0.1-0.3-0.1-0.4,0L30.5,48.6z"/>
		<path class="st6" d="M25.8,15.8L25.8,15.8L25.8,15.8z"/>
		<path class="st2" d="M25.8,34.5c0.2,0,0.4-0.1,0.6-0.1c0.8,0,1.3-0.7,2-0.9c0.3-0.1,0.6-0.2,0.9-0.3s0.3,0,0.3,0.3
			c-0.1,0.8,0.1,1.6,0.5,2.3c0.2,0.3,0.3,0.4,0.5,0c0.6-0.9,1.2-1.9,1.6-2.9c0.1-0.2,0.2-0.4,0.5-0.3s0.1,0.3,0,0.4
			c-0.1,0.9,0.5,1.8,1.4,2c0.5,0.1,0.9,0.4,1,0.8c0.2,0.5,0.5,1,1,1s0.8-0.5,1-1c0.1-0.4,0.5-0.8,1-0.8c1-0.2,1.6-1.1,1.4-2.1
			c0-0.1-0.2-0.3,0.1-0.4c0.2-0.1,0.3,0,0.4,0.2c0,0,0,0,0,0c0.4,1,1,2,1.6,2.9c0.3,0.4,0.4,0.4,0.6,0c0.4-0.7,0.5-1.5,0.5-2.2
			c0-0.2,0-0.3,0.2-0.3c0.7,0.1,1.3,0.4,1.9,0.8c0.4,0.3,0.8,0.2,1.2,0.3c0.1,0,0.2,0,0.2,0.1c-0.1,0.2-0.2,0.1-0.2,0.1
			c-0.5,0-1,0.2-1.4,0.5c-0.4,0.3-0.9,0.5-1.4,0.6c-0.4,0-0.6,0.3-0.7,0.7c-0.1,0.6-0.1,0.5-0.7,0.4c-0.8-0.3-1.6-0.4-2.5-0.4
			c-0.4,0-0.9,0-1.3,0.1s-0.7,0.5-1.1,0.7s-0.6,0.6-0.9,0.6s-0.6-0.4-0.8-0.6c-1-1.1-2.3-0.9-3.6-0.7c-0.5,0.1-1,0.2-1.5,0.4
			c-0.3,0.1-0.4,0-0.4-0.2c0-0.6-0.4-0.9-1-1c-0.5-0.1-1-0.4-1.5-0.7c-0.3-0.2-0.7-0.2-1-0.2C26,34.6,25.9,34.7,25.8,34.5z"/>
		<path class="st2" d="M39.1,44.7c0,0.2,0.5,0.1,0.4,0.5c-0.1,0.5-0.3,0.9-0.7,1.1c-0.6,0.4-1.3,0.6-2,0.6c-1.1,0.1-2.2,0-3.2-0.3
			c-0.3-0.1-0.6-0.3-0.8-0.5c-0.2-0.2-0.3-0.5-0.4-0.8c-0.2-0.4,0.3-0.4,0.4-0.6l0,0c0.1,0,0.1-0.1,0.1-0.2l0,0l0.1-0.1l0,0l0.1-0.1
			l0,0c0.1,0,0.1-0.1,0.1-0.2l0,0c0.1,0,0.1-0.1,0.1-0.2l0,0l0.1-0.1l0,0c0.3-0.4,0.4-0.9,0.3-1.4c0-0.2,0-0.3-0.1-0.5
			c-0.1-0.1-0.1-0.2,0-0.3c0,0,0,0,0,0c0.1-0.1,0.2-0.1,0.3-0.1c1.4,0.5,2.9,0.5,4.3,0c0.1,0,0.2,0,0.3,0s0.1,0.2,0,0.3
			c-0.1,0.1-0.1,0.3-0.1,0.4c-0.1,0.4,0,0.9,0.2,1.3c-0.1-0.4-0.2-0.8-0.2-1.3c0.2-0.4,0.4-0.5,0.7-0.2c0.1,0.1,0.2,0.2,0.3,0.2l0,0
			c0,0.1,0,0.3,0.2,0.4l0,0c0,0.1,0,0.2,0.1,0.3l0,0c0.1,0.3,0.2,0.7,0.2,1C39.9,44.6,39.8,44.7,39.1,44.7c0-0.1,0-0.2,0-0.2
			L39,44.3l-0.1-0.1c0-0.1,0-0.1-0.1-0.2c0-0.1,0-0.1-0.1-0.2l0,0l0,0h0c0,0.1,0,0.2,0.1,0.2s0,0.1,0.1,0.2l0.1,0.1l0.1,0.1
			C39.1,44.5,39.1,44.6,39.1,44.7z M37.3,44c0-0.4-0.1-0.8-0.3-1.2c-0.3-0.6-0.9-0.8-1.5-0.5c-0.2,0.1-0.4,0.3-0.5,0.5
			c-0.4,0.7-0.4,1.6,0,2.3c0.3,0.5,0.9,0.8,1.4,0.5c0.2-0.1,0.4-0.3,0.5-0.5C37.2,44.8,37.3,44.4,37.3,44z"/>
		<path class="st2" d="M37.3,34.1c0-0.8-0.1-1.5-0.4-2.2c-0.3-0.7-0.5-1.4-0.7-2.1c0-0.1-0.1-0.3-0.3-0.3s-0.2,0.1-0.2,0.2
			c-0.3,1.2-0.8,2.2-1.1,3.4c0,0.5,0,0.9,0,1.4c0,0.3-0.1,0.4-0.4,0.3c-0.8-0.1-1.3-0.9-1.2-1.7c0-0.2,0.1-0.4,0.2-0.5
			c0.4-0.7,0.9-1.3,1.4-1.9c0.4-0.5,0.6-0.8,0.1-1.5c-0.2-0.3-0.2-0.7,0-1.1c0.2-0.5,0.5-0.9,0.7-1.4c0.1-0.3,0.9-0.3,1,0
			c0.3,0.5,0.6,1.1,0.8,1.6c0.1,0.3,0.1,0.7-0.1,1c-0.3,0.4-0.3,1,0.1,1.4c0.5,0.6,1,1.1,1.4,1.8c0.5,0.6,0.5,1.5-0.1,2
			c-0.2,0.1-0.4,0.3-0.6,0.3c-0.5,0.2-0.5,0.1-0.5-0.4L37.3,34.1z"/>
		<path class="st3" d="M35.8,19.6c-0.1-0.6-0.2-1.2-0.5-1.8c-0.2-0.6,0-0.9,0.6-0.9s0.8,0.3,0.6,0.8c-0.3,0.7-0.5,1.4-0.5,2.1
			c0,0.2,0.1,0.4,0.1,0.5c0.2,0.4,0.4,0.4,0.8,0.2c0.2-0.2,0.4-0.3,0.7-0.4c0.2-0.1,0.5,0,0.6,0.2c0,0,0,0.1,0,0.1
			c0.1,0.2,0,0.5-0.2,0.6c0,0-0.1,0-0.1,0c-0.3,0.1-0.7,0.1-0.9,0.3s-0.4,0.4-0.2,0.6s0.4,0.6,0.9,0.3c0.2-0.2,0.5-0.3,0.8-0.3
			c0.3-0.1,0.6,0.1,0.7,0.3c0.1,0.1,0.1,0.3,0,0.4c-0.1,0.1-0.2,0.1-0.3,0.1c-0.1,0-0.2,0-0.3,0c-0.7-0.1-0.8-0.1-0.6,0.6
			c0.3,1.1-0.4,2.3-1.5,2.6c-1.1,0.3-2.3-0.4-2.6-1.5c0-0.1,0-0.1,0-0.2c-0.1-0.4,0-0.8,0.1-1.1c0.1-0.4,0-0.6-0.4-0.5
			c-0.2,0-0.3,0.1-0.5,0.1c-0.1,0.1-0.2,0-0.3-0.1c-0.1-0.1-0.1-0.3,0-0.4c0.1-0.3,0.5-0.4,0.8-0.4c0.2,0,0.4,0.1,0.6,0.2
			c0.2,0.2,0.5,0.2,0.7,0c0,0,0,0,0,0c0.4-0.3,0.4-0.5,0-0.9c-0.2-0.2-0.5-0.3-0.8-0.3c-0.3,0-0.4-0.3-0.4-0.5c0,0,0-0.1,0-0.1
			c0.1-0.4,0.3-0.4,0.7-0.3c0.2,0.1,0.4,0.2,0.5,0.3c0.5,0.4,0.8,0.2,0.9-0.3C35.8,20,35.8,19.8,35.8,19.6z M36,25.8
			c0.9,0,1.7-0.8,1.7-1.7c0-0.9-0.8-1.7-1.7-1.7c-0.9,0-1.7,0.8-1.7,1.7C34.3,25,35,25.7,36,25.8C36,25.8,36,25.8,36,25.8z"/>
		<path class="st2" d="M36,30.6c0.5,1.1,0.9,2.3,1,3.5c0,0.7-0.1,1.5-0.6,2.1c-0.3,0.4-0.5,0.4-0.8,0c-0.6-0.9-0.7-2.1-0.4-3.1
			C35.4,32.3,35.7,31.5,36,30.6z"/>
		<path class="st2" d="M24.4,34c-0.5-0.8-0.7-1.9-0.3-2.8c0.4-1.1,0.9-2.2,1.1-3.5C26.3,29,25.9,32.1,24.4,34z"/>
		<path class="st2" d="M46.7,27.7c0.3,1.3,0.9,2.5,1.2,3.7c0.3,0.9,0.1,1.8-0.4,2.6C46.1,32,45.7,29.1,46.7,27.7z"/>
		<path class="st2" d="M29.9,33.9c0-0.7,0.3-1.4,0.7-2l0.6-1.1c0-0.1,0.1-0.2,0.2-0.2s0.1,0.2,0.2,0.3c0.4,0.9,0.3,2-0.3,2.8
			c-0.3,0.5-0.6,1-0.9,1.5c0,0.1-0.1,0.2-0.2,0.2s-0.1-0.2-0.2-0.2C29.9,34.8,29.8,34.4,29.9,33.9z"/>
		<path class="st2" d="M42.1,34c0,0.4,0,0.8-0.2,1.2c-0.1,0.2-0.1,0.3-0.3,0c-0.6-0.9-1.1-1.8-1.4-2.9c-0.1-0.6,0-1.2,0.3-1.8
			c0-0.1,0.2-0.2,0.2,0c0.4,0.8,1,1.5,1.3,2.4C42.1,33.3,42.2,33.6,42.1,34z"/>
		<path class="st8" d="M26.3,29.7c0.3,0,0.5-0.2,0.6-0.4s0.3-0.4,0.5-0.5c-0.5,1.1-0.5,2.4,0,3.5c0.1,0.2,0,0.3-0.2,0.4
			c-0.7,0.2-1.3,0.5-2,0.8l0,0c0.2-0.6,0.4-1.1,0.7-1.7C26.2,31.1,26.3,30.4,26.3,29.7z"/>
		<path class="st2" d="M43.7,28.4c0.6,0.7,0.9,1.7,0.7,2.7c0,0.1,0,0.3-0.1,0.4c-0.1,0.2-0.1,0.6-0.3,0.6s-0.4-0.3-0.5-0.5
			c-0.3-0.5-0.4-1.1-0.2-1.6C43.4,29.5,43.5,29,43.7,28.4z"/>
		<path class="st2" d="M28.3,28.5c0.1,0.9,0.6,1.6,0.4,2.5c-0.1,0.5-0.4,0.9-0.7,1.2C27.2,31.5,27.4,29.3,28.3,28.5z"/>
		<path class="st2" d="M32.8,44.7c-0.6,0.1-0.7,0-0.7-0.7c0-0.4,0.2-0.8,0.3-1.2l0,0c0.1-0.1,0.2-0.2,0.2-0.4l0,0
			c0.1,0,0.2-0.1,0.3-0.2c0.3-0.3,0.5-0.3,0.7,0.2c0,0.5-0.1,1-0.2,1.4l0,0l-0.1,0.1l0,0c-0.1,0-0.1,0.1-0.1,0.2l0,0
			c-0.1,0-0.1,0.1-0.1,0.2l0,0L33,44.3l0,0l-0.1,0.1l0,0C32.9,44.5,32.8,44.6,32.8,44.7L32.8,44.7z"/>
		<path class="st3" d="M29.6,32.7c-0.2,0.2-0.4,0.2-0.6,0.3c-0.7,0.2-1.4,0.5-2,0.9c-0.5,0.2-1,0.3-1.5,0.3
			C26.7,33.1,28.2,33,29.6,32.7z"/>
		<path class="st3" d="M42.3,32.6c1.5,0.2,3,0.7,4.4,1.5c-0.5,0.1-1.1,0-1.6-0.3c-0.7-0.5-1.6-0.8-2.4-1
			C42.5,32.8,42.4,32.7,42.3,32.6z"/>
		<path class="st3" d="M42.9,36.4c0.1-0.2,0.2-0.3,0.4-0.3c0.6-0.2,1.2-0.4,1.7-0.8c0.5-0.2,1-0.3,1.6-0.3
			C45.5,35.8,44.2,36.2,42.9,36.4z"/>
		<path class="st3" d="M25.5,35.1c0.6-0.1,1.3,0.1,1.8,0.4c0.4,0.3,0.9,0.5,1.4,0.6c0.2,0,0.4,0.1,0.5,0.3
			C27.8,36.2,26.6,35.8,25.5,35.1z"/>
		<path class="st8" d="M33.4,43.8c0.1-0.5,0.2-0.9,0.2-1.4h0.1C33.8,42.9,33.7,43.4,33.4,43.8z"/>
		<path class="st6" d="M38.4,42.4c0,0.4,0,0.9,0.2,1.3C38.3,43.3,38.2,42.8,38.4,42.4L38.4,42.4z"/>
		<path class="st6" d="M38.1,36.9c0.6,0,1.2-0.1,1.9-0.1C39.4,36.9,38.7,37,38.1,36.9z"/>
		<path class="st6" d="M32.1,36.8c0.6,0,1.2,0.1,1.8,0.1C33.3,36.9,32.7,36.9,32.1,36.8z"/>
		<path class="st8" d="M27.5,28.8c0-0.1,0-0.3,0.2-0.3C27.6,28.7,27.6,28.8,27.5,28.8z"/>
		<path class="st8" d="M46.6,33.5L46.6,33.5L46.6,33.5z"/>
		<path class="st8" d="M25.4,33.5L25.4,33.5L25.4,33.5z"/>
		<path class="st2" d="M36,53.9c-2.9,0.1-5.7-0.3-8.4-1.2c-0.7-0.2-1.3-0.6-1.9-1.1c-0.5-0.3-0.6-1-0.3-1.5c0.1-0.1,0.1-0.2,0.2-0.2
			c0.4-0.5,1-0.6,1.5-0.4c1.8,0.6,3.6,0.9,5.4,1.1c1.7,0.2,3.4,0.2,5.1,0.1c2.6-0.1,5.1-0.5,7.6-1.3c0.6,0,1.2,0.3,1.5,0.8
			c0.2,0.4,0.1,1-0.2,1.3c-1,0.8-2.3,1.4-3.6,1.6c-1.5,0.4-3,0.6-4.5,0.7C37.6,53.9,36.8,53.9,36,53.9z"/>
		<path class="st2" d="M36.4,50.3c-2.5,0.1-5.1-0.2-7.5-0.7c-1.3-0.2-2.6-0.7-3.8-1.5c-0.2-0.1-0.4-0.3-0.5-0.5
			c-0.4-0.4-0.4-1.1,0-1.5c0,0,0,0,0,0c0.6-0.6,1.3-1,2.1-1.3c1.6-0.6,3.3-0.9,5-1.1c0.2,0,0.3,0,0.3,0.3c-0.1,0.2-0.1,0.5-0.1,0.8
			c0,0.7,0,0.7-0.7,0.8c-1,0.1-2,0.4-2.9,0.8c-0.1,0.1-0.3,0.2-0.4,0.2c-0.5,0.2-0.7,0.7-0.5,1.2c0.1,0.2,0.3,0.4,0.5,0.5
			c0.7,0.4,1.4,0.7,2.1,0.8c2.4,0.5,4.8,0.7,7.2,0.5c2,0,4-0.4,5.9-1c0.4-0.1,0.7-0.3,1-0.5c0.4-0.3,0.5-0.8,0.2-1.1
			c-0.1-0.1-0.1-0.1-0.2-0.2c-0.4-0.4-1-0.6-1.5-0.7c-0.8-0.2-1.6-0.4-2.4-0.5c-0.2,0-0.3-0.1-0.3-0.4c0.1-0.4,0.1-0.7,0-1.1
			c0-0.2,0-0.3,0.2-0.2c2.2,0.2,4.3,0.8,6.2,1.7c0.3,0.2,0.6,0.4,0.8,0.6c0.5,0.4,0.7,1.1,0.3,1.6c-0.1,0.1-0.2,0.3-0.4,0.4
			c-1.3,0.9-2.8,1.5-4.4,1.8C40.7,50.2,38.6,50.4,36.4,50.3z"/>
		<path class="st2" d="M30.5,48.6l2.1-1.8c0.1-0.1,0.3-0.1,0.4,0c1.9,0.9,4.1,0.9,5.9,0c0.2-0.1,0.4-0.1,0.5,0.1
			c0.7,0.6,1.3,1.2,2,1.8C37.8,49.3,34.1,49.2,30.5,48.6z"/>
		<path class="st6" d="M37.3,44c0,0.4-0.1,0.8-0.3,1.1c-0.3,0.5-1,0.7-1.5,0.4c-0.2-0.1-0.4-0.3-0.5-0.5c-0.4-0.7-0.4-1.6,0-2.3
			c0.3-0.6,0.9-0.8,1.5-0.5c0.2,0.1,0.4,0.3,0.5,0.5C37.2,43.2,37.3,43.6,37.3,44z M36.9,43.9c0-0.3-0.1-0.6-0.2-0.8
			c-0.1-0.3-0.4-0.5-0.7-0.5c-0.3,0-0.6,0.2-0.7,0.5c-0.2,0.5-0.3,1-0.1,1.5c0.1,0.3,0.3,0.7,0.7,0.7s0.6-0.3,0.8-0.7
			C36.8,44.3,36.9,44.1,36.9,43.9L36.9,43.9z"/>
		<path class="st1" d="M39.4,42.4c0.2,0.1,0.2,0.2,0.2,0.4C39.5,42.7,39.4,42.5,39.4,42.4z"/>
		<path class="st1" d="M39.6,42.8c0.1,0.1,0.1,0.2,0.1,0.3C39.6,43,39.6,42.9,39.6,42.8z"/>
		<path class="st8" d="M33.1,44.3c0-0.1,0-0.1,0.1-0.2C33.2,44.2,33.2,44.3,33.1,44.3z"/>
		<path class="st6" d="M38.9,44.3c-0.1,0-0.1-0.1-0.1-0.2l0,0C38.9,44.1,38.9,44.2,38.9,44.3z"/>
		<path class="st8" d="M33.2,44.1c0-0.1,0-0.1,0.1-0.2C33.3,44,33.3,44.1,33.2,44.1z"/>
		<path class="st6" d="M38.7,43.9c0.1,0,0.1,0.1,0.1,0.2l0,0C38.7,44.1,38.7,44,38.7,43.9L38.7,43.9z"/>
		<path class="st1" d="M39.1,44.5c0.1,0,0.1,0.1,0.1,0.2l0,0C39.1,44.6,39.1,44.5,39.1,44.5L39.1,44.5z"/>
		<path class="st1" d="M32.8,44.7c0-0.1,0-0.2,0.1-0.2C33,44.5,32.9,44.6,32.8,44.7z"/>
		<path class="st6" d="M38.7,43.9L38.7,43.9L38.7,43.9L38.7,43.9L38.7,43.9z"/>
		<path class="st1" d="M33,44.4L33,44.4L33,44.4z"/>
		<path class="st8" d="M33.3,43.9L33.3,43.9L33.3,43.9z"/>
		<path class="st1" d="M39,44.4L39,44.4L39,44.4L39,44.4z"/>
		<path class="st1" d="M32.9,44.5L32.9,44.5L32.9,44.5z"/>
		<path class="st1" d="M39,44.4L39,44.4L39,44.4L39,44.4z"/>
		<path class="st6" d="M36,25.8c-0.9,0-1.7-0.8-1.6-1.7s0.8-1.7,1.7-1.6c0.9,0,1.6,0.8,1.6,1.7c0,0.9-0.7,1.7-1.6,1.7
			C36.1,25.8,36,25.8,36,25.8z M36,25.3c0.7,0,1.2-0.4,1.3-1.1c0,0,0-0.1,0-0.1c0.1-0.7-0.5-1.3-1.2-1.4c-0.7-0.1-1.3,0.5-1.4,1.2
			c0,0.1,0,0.2,0,0.2c0,0.7,0.5,1.2,1.1,1.2C35.9,25.3,36,25.3,36,25.3z"/>
		<path class="st1" d="M32.6,42.4c0,0.1,0,0.3-0.2,0.4C32.4,42.6,32.4,42.5,32.6,42.4z"/>
		<path class="st2" d="M36.9,43.9c0,0.2-0.1,0.4-0.1,0.6c-0.1,0.4-0.3,0.7-0.8,0.7s-0.6-0.3-0.7-0.7c-0.2-0.5-0.2-1,0.1-1.5
			c0.1-0.3,0.4-0.5,0.7-0.5c0.3,0,0.5,0.2,0.7,0.5C36.8,43.3,36.8,43.6,36.9,43.9z"/>
		<path class="st2" d="M36,25.3c-0.6,0-1.2-0.4-1.3-1.1c0,0,0-0.1,0-0.1c-0.1-0.7,0.5-1.3,1.2-1.4c0.7-0.1,1.3,0.5,1.4,1.2
			c0,0.1,0,0.2,0,0.2c0,0.7-0.5,1.2-1.2,1.2C36.1,25.3,36,25.3,36,25.3z"/>
		<text transform="matrix(1 0 0 1 98.53 29.43)" class="st9 st10 st11">MINI</text>
		<text transform="matrix(1 0 0 1 149.85 29.43)" class="st9 st10 st11">S</text>
		<text transform="matrix(1 0 0 1 163.06 29.43)" class="st9 st10 st11">T</text>
		<text transform="matrix(1 0 0 1 175.92 29.43)" class="st9 st10 st11">R</text>
		<text transform="matrix(1 0 0 1 191.32 29.43)" class="st9 st10 st11">Y OF</text>
		<text transform="matrix(1 0 0 1 82.48 55.06)" class="st9 st10 st11">MAHARASHTRA</text>
	</g>
</g>
</svg>
