<svg xmlns="http://www.w3.org/2000/svg" viewBox="0 0 512 512"><defs><style>.cls-1,.cls-5{fill:#ff1621;}.cls-2,.cls-3{fill:#fff;}.cls-2,.cls-5{fill-rule:evenodd;}.cls-4{fill:#273785;}</style></defs><g id="Layer_2" data-name="Layer 2"><g id="Layer_1-2" data-name="Layer 1"><circle class="cls-1" cx="256" cy="256" r="256" transform="translate(-106.04 256) rotate(-45)"/><polygon class="cls-2" points="191.96 76.72 197.47 83.68 205.7 80.78 200.86 88.47 206.36 95.44 197.78 93.17 192.94 100.86 192.63 91.39 184.05 89.11 192.26 86.2 191.96 76.72"/><polygon class="cls-2" points="134.42 109.67 141.98 114.33 148.72 108.78 146.79 117.67 154.35 122.33 145.51 123.14 143.59 132.02 140.06 123.22 131.22 124.03 137.94 118.48 134.42 109.67"/><polygon class="cls-2" points="91.76 160.51 100.46 162.3 104.89 154.79 106.12 163.79 114.82 165.59 106.78 169.37 108.02 178.38 101.69 171.31 93.66 175.1 98.08 167.58 91.76 160.51"/><polygon class="cls-2" points="69.2 222.76 77.98 221.47 79.58 212.89 83.82 220.93 92.6 219.65 86.35 225.94 90.59 233.99 82.23 229.51 75.97 235.82 77.56 227.24 69.2 222.76"/><polygon class="cls-2" points="69.1 288.83 76.91 284.61 75.48 276 82.21 282.11 90.03 277.89 86.3 285.95 93.04 292.06 83.65 290.72 79.93 298.78 78.49 290.18 69.1 288.83"/><polygon class="cls-2" points="91.52 351.12 97.43 344.49 93.13 336.88 101.55 340.32 107.45 333.69 106.71 342.54 115.13 345.97 105.85 347.92 105.11 356.76 100.81 349.18 91.52 351.12"/><polygon class="cls-2" points="191.56 435.11 191.82 426.24 183.65 423.17 192.3 420.39 192.56 411.52 197.68 418.77 206.34 415.99 200.48 423.45 205.6 430.7 197.43 427.65 191.56 435.11"/><polygon class="cls-2" points="256.66 446.56 253.86 438.13 245.13 438.04 252.32 432.47 249.53 424.05 256.81 429.11 264 423.54 261.04 432.55 268.33 437.62 259.62 437.54 256.66 446.56"/><polygon class="cls-2" points="321.77 435.28 316.26 428.32 308.03 431.22 312.88 423.53 307.37 416.57 315.95 418.84 320.79 411.14 321.1 420.62 329.69 422.88 321.47 425.8 321.77 435.28"/><polygon class="cls-2" points="379.31 402.33 371.75 397.67 365.02 403.22 366.94 394.33 359.38 389.67 368.22 388.87 370.14 379.98 373.67 388.78 382.51 387.98 375.79 393.52 379.31 402.33"/><polygon class="cls-2" points="421.98 351.49 413.28 349.7 408.84 357.21 407.61 348.2 398.92 346.42 406.95 342.63 405.71 333.62 412.04 340.69 420.07 336.91 415.65 344.42 421.98 351.49"/><path class="cls-2" d="M184.3,43.44a9.43,9.43,0,1,1-9.43,9.43A9.45,9.45,0,0,1,184.3,43.44Z"/><path class="cls-2" d="M133.38,66.16l19.08,24.65-10.28,1.86-9-11.41c-1.35,2.6-1.43,5.63-1.3,8.73l-7,0a10.51,10.51,0,0,1-.36-4c-11.75-.34-8.06,15.3,9.28,11.52l.73,5.31c-9.29.34-22.58,2-25-10.47Q108.88,84,117,80.86a16.33,16.33,0,0,1,8.68-.11,50.23,50.23,0,0,1,2.24-6.24l-2.48-3.18A218.46,218.46,0,0,0,94.07,96.71q13,3.56,9.94,14.86c6.15,1.36,10.36.27,15.95-1.76l3,3.23A61.2,61.2,0,0,1,104,119.39c-5.91.86-10.56,0-13.37-3.42-2.19-4,0-6.7,4.35-7.42.44-3.52-1.47-5.8-5.76-6.85q-4,4.23-7.52,8.62L73,108.94q4.92-6,10.24-11.68l-9.9,1a4.54,4.54,0,0,0-3.65,1.81l-3.48,5-7.68-3,5.26-7.54c1.37-2,3.14-3.21,5.8-2.87l19.17-.19a225.83,225.83,0,0,1,43.75-33.89l6.67,4.94q-3,1.76-5.82,3.54Z"/><path class="cls-2" d="M39.65,298.78q-1.5-5.88-2.65-11.65l9.78-1.71c1.1,3.63,2.4,7.23,3.79,10.78-25.93,11.28-4.82,40,3.72,23.05,1.14-4.13,1.21-8.94-2-12.4-.33-1.73.66-2.23,1.74-2.5.12.3.24.6.35.91.8,2.17,1.12,4.75,2.85,6.45,1.76,1.25,3.05,1,5.1-.29,2.31-2,6.11-10.27,3.72-17.07-.91-2-2.41-2.8-4.8-1.92L58,293.58l-2.73-9.64,7.55-1.31,3.2-9.95L35.32,277.8q-.51-3.27-.93-6.5l25.53-2.89,3.79-9.74-30.31,3.2q-.61-7.55-.68-14.92,5.87-3.34,9,1c-2.69,3.49-2.45,6.95,1.87,8.39,4.38.58,8.38-2,12.12-6.62a61,61,0,0,0,9.51-17.54l-4.37-.34c-2.7,5.29-5,9-10.46,12.16q-5.57-10.44-17.63-4A199.78,199.78,0,0,1,38,199.37l4.91.88L40,215.89c-1.18,9.23,5.21,11.54,14.18,7.48,5.48-2.54,9.1-6.85,12.76-11l-2.07-4.25a51.35,51.35,0,0,1-11.59,8.48c-4.2,1.43-6.44-1-6.17-3.74l3.12-11.28L63.54,204,70,195.72l-29.58-5.55q1.21-4.3,2.6-8.55l24.19,8.17,7.56-7.2-28.61-9.91q2.51-6.66,5.39-13.19,9.16-.18,4.89,9.78c-.62,1.14-.16,2,1.38,2.48C70,174,76.41,167.55,75.15,155.53l5.32,2.64,8.46-6.12L62,138.44q1.53-2.79,3.14-5.55l-9.26.35A236.18,236.18,0,0,0,38,170.74c-7.86,1.35-16.8,1.91-19.78,10.83-4.56,13-4.19,28.22,11.42,17.75-7.13,32.93-6.23,67.81,3.7,105.18Zm5.57,14.53c-.12-2.3.45-4.28,1.59-4.34s1.78,1.82,1.9,4.12-.35,4.2-1.48,4.25-1.9-1.72-2-4ZM35,179.54q-1.73,5.36-3.16,10.77L26,192.54c-1.54.49-2.21-.73-1.8-2.39l.88-5.92a4.64,4.64,0,0,1,4.07-3.59Zm19.85-27.22c.89-1.85,1.79-3.68,2.72-5.51l10.21,5.06c1.95,8.08.5,13.7-4.8,13.46Q67.25,154.21,54.83,152.32Z"/><polygon class="cls-2" points="422.21 160.88 416.31 167.52 420.6 175.11 412.18 171.68 406.28 178.31 407.02 169.47 398.6 166.03 407.89 164.09 408.63 155.24 412.92 162.82 422.21 160.88"/><polygon class="cls-2" points="379.64 109.95 376.37 118.2 383 123.87 373.91 123.53 370.64 131.78 368.31 123.21 359.22 122.86 367.28 117.86 364.95 109.29 371.58 114.95 379.64 109.95"/><polygon class="cls-2" points="257.08 65.44 259.88 73.87 268.6 73.96 261.42 79.52 264.21 87.96 256.92 82.89 249.74 88.47 252.69 79.45 245.4 74.38 254.11 74.46 257.08 65.44"/><rect class="cls-3" x="235.52" y="19.02" width="12.16" height="39.15" transform="translate(-2.1 16.94) rotate(-4)"/><path class="cls-2" d="M254.37,57.11l.69-39.25,11.36.2,12.95,22.43L278.59,30l.2-11.74,9.76.17-.69,39.25-10-.29c-1-1.8-2.5-4.34-4.49-7.61s-3.79-6.37-5.37-9.29c-1.25-2.23-2.73-5.14-4.41-8.76q.83,5,.81,5.79l-.34,19.74Z"/><path class="cls-2" d="M293,58.79l8.81-38.15,16.62,3.85A17.26,17.26,0,0,1,325,27.54a16.45,16.45,0,0,1,4.52,5.17,18.8,18.8,0,0,1,2.14,6.85,22.52,22.52,0,0,1-.46,7.93,22.87,22.87,0,0,1-4.17,9A16.47,16.47,0,0,1,319.12,62a20.6,20.6,0,0,1-11.32.2Zm13.74-6q5.19,1.68,8.2-.77A12.37,12.37,0,0,0,319,44.89a12.32,12.32,0,0,0-.75-8.54q-1.87-3.7-6.78-4.26Z"/><rect class="cls-3" x="322.55" y="46.85" width="39.15" height="12.15" transform="translate(170.11 353.36) rotate(-69)"/><path class="cls-2" d="M343,74.4,372.89,46l11,6.09-8.33,40.35-10.73-6,1.7-7.87-9.13-5.06-5.69,5.66Zm25.9-4.25L371.6,58.8l-8.24,8.28Z"/><path class="cls-2" d="M376.67,94.6l25.24-30.08,8.71,7.31-4.05,25.59,6-8.62,7.56-9,7.48,6.27-25.25,30.08-7.58-6.51q.54-3,1.31-8.74t1.67-10.59c.43-2.52,1.11-5.72,2.07-9.58-1.68,3-2.68,4.62-3,5l-12.69,15.13Z"/><path class="cls-2" d="M448,110.12l11.27,17.37a18.87,18.87,0,0,1,2.57,5.52,12.53,12.53,0,0,1,.36,5,10.57,10.57,0,0,1-1.59,4.3,12.18,12.18,0,0,1-9.64,5.48,9.66,9.66,0,0,1-6.43-2.19l-10.42,15.28-7.27-11.2,9.4-13.18-1.92-3-12.64,8.2-6.62-10.2Zm-.41,14.76L441.36,129l3.13,4.83a4.45,4.45,0,0,0,2.67,2.12,3.5,3.5,0,0,0,2.8-.5,3.56,3.56,0,0,0,1.59-2.42,4.63,4.63,0,0,0-.85-3.36Z"/><path class="cls-2" d="M434.86,160.78l41.1-3.25,4.7,11.64L448.8,195.28l-4.59-11.38,6.26-5.06-3.91-9.68-8,.83Zm22.8,13,9.24-7.12-11.62,1.24Z"/><rect class="cls-3" x="449.57" y="192.73" width="39.15" height="12.15" transform="translate(-34.14 119.3) rotate(-13.99)"/><polygon class="cls-2" points="452.5 215.05 491.26 209.6 492.95 221.58 463.67 225.7 465.82 240.95 456.33 242.28 452.5 215.05"/><polygon class="cls-2" points="456.52 248.72 496.3 241.15 495.52 252.26 472.3 256.24 494.76 263.19 494.09 272.65 470.98 276.8 493.31 283.86 492.67 293.09 454.35 279.87 455.04 269.91 477.23 265.97 455.78 259.32 456.52 248.72"/><path class="cls-2" d="M453.38,285.21l34.78,22.13-3.25,12.13-41.15,1.68,3.17-11.86,8-.26,2.71-10.09-6.87-4.14Zm10.39,24.11,11.66-.12-10-6Z"/><polygon class="cls-2" points="440.87 325.96 455.94 332.67 481.97 329.89 476.63 341.88 462.22 342.96 471.18 354.13 466.93 363.67 451.2 343.3 436.09 336.7 440.87 325.96"/><path class="cls-2" d="M439.77,354l-4.49,10.3a5.7,5.7,0,0,0-4.52.22,9.7,9.7,0,0,0-3.66,2.9,8.77,8.77,0,0,0-1.35,3.26,1.94,1.94,0,0,0,.61,2.07q1.78,1,6.93-3.58a33,33,0,0,1,9.54-6.34q4.38-1.74,9.93,3a9.35,9.35,0,0,1,3.31,5.46,15.79,15.79,0,0,1-.18,7.18,20.61,20.61,0,0,1-3.18,7,18.9,18.9,0,0,1-7.38,6.37,14.24,14.24,0,0,1-9.57.92l3.13-9.86a5,5,0,0,0,3.73-.23,7.59,7.59,0,0,0,3-2.58,6.5,6.5,0,0,0,1.24-2.9,1.9,1.9,0,0,0-.57-1.93q-1.35-1.15-3.86,1c-1.68,1.42-3.65,3.18-5.92,5.26a16.25,16.25,0,0,1-7.31,4q-3.93.92-8.51-2.08a10.82,10.82,0,0,1-4.51-6,14.88,14.88,0,0,1,0-7.84,23.81,23.81,0,0,1,3.63-7.87,22,22,0,0,1,9.3-7.81,12.41,12.41,0,0,1,10.68.07Z"/><polygon class="cls-2" points="444.54 289.24 435.75 290.53 434.15 299.11 429.91 291.06 421.13 292.36 427.38 286.06 423.14 278.02 431.5 282.49 437.76 276.19 436.17 284.76 444.54 289.24"/><polygon class="cls-2" points="444.64 223.18 436.82 227.39 438.26 236 431.52 229.89 423.71 234.11 427.43 226.05 420.69 219.94 430.08 221.29 433.81 213.23 435.25 221.82 444.64 223.18"/><polygon class="cls-2" points="322.17 76.89 321.92 85.77 330.08 88.83 321.43 91.61 321.18 100.48 316.05 93.23 307.4 96.01 313.26 88.55 308.14 81.29 316.31 84.35 322.17 76.89"/><circle class="cls-3" cx="256.87" cy="255.91" r="162.19"/><circle class="cls-4" cx="256.87" cy="255.91" r="144.86" transform="translate(-105.72 256.59) rotate(-45)"/><path class="cls-5" d="M256.87,104.73c83.26,0,151.18,67.92,151.18,151.18S340.13,407.09,256.87,407.09,105.69,339.18,105.69,255.91,173.6,104.73,256.87,104.73Z"/><path class="cls-2" d="M146.5,162.28H367.23A145.58,145.58,0,0,1,383.11,185H130.63a146.2,146.2,0,0,1,15.87-22.74Z"/><path class="cls-2" d="M177.48,134.86H336.25a146.35,146.35,0,0,1,26.83,22.74H150.65A146.69,146.69,0,0,1,177.48,134.86Z"/><path class="cls-2" d="M128.09,189.7H385.64a144.45,144.45,0,0,1,9.4,22.74H118.7a143.47,143.47,0,0,1,9.39-22.74Z"/><path class="cls-2" d="M117.31,217.12H396.42a142.6,142.6,0,0,1,4.4,22.74H112.91A143.72,143.72,0,0,1,117.31,217.12Z"/><path class="cls-2" d="M112.46,244.54H401.28q.44,5.64.44,11.37t-.44,11.37H112.46q-.45-5.62-.45-11.37t.45-11.37Z"/><path class="cls-2" d="M112.91,272H400.82a142.39,142.39,0,0,1-4.4,22.74H117.31a143.5,143.5,0,0,1-4.4-22.74Z"/><path class="cls-2" d="M118.7,299.39H395a144.34,144.34,0,0,1-9.4,22.73H128.09A143.36,143.36,0,0,1,118.7,299.39Z"/><path class="cls-2" d="M130.63,326.81H383.11a146.2,146.2,0,0,1-15.87,22.74H146.5a146.2,146.2,0,0,1-15.87-22.74Z"/><path class="cls-2" d="M150.65,354.23H363.08A146.35,146.35,0,0,1,336.25,377H177.48A146.35,146.35,0,0,1,150.65,354.23Z"/><path class="cls-2" d="M329.8,130.85H183.93a144.29,144.29,0,0,1,145.87,0Z"/><path class="cls-2" d="M183.93,381H329.8a144.29,144.29,0,0,1-145.87,0Z"/><polygon class="cls-5" points="245.24 186.93 186.97 212.74 186.17 382.3 255.49 426.38 266.24 426.34 334.08 377.97 334.16 271.33 245.24 186.93"/><path class="cls-2" d="M332.38,275.71c-.11,21-.21,37.29-.32,58.32-12.74.11-27,.12-41.83.07h-59c-15.27.13-30,0-43.09-.07-.11-20.37-.21-36.27-.31-56.36,0-.65-.17-2.6,0-2C193.71,300,209.51,317,230.47,327v-4h68c16.38-10.42,29.09-26.54,33.9-47.26Z"/><path class="cls-5" d="M108.54,229.12c19.36-23,184.13-183.54,167.29-58.39a28.39,28.39,0,0,0-27.34-.32c-.5-11-6.52-17.66-32.28-8.62-42.06,18.65-76.11,48.37-108.51,80.41l.84-13.08Z"/><path class="cls-5" d="M242.31,172.61c5.8,4.27,4,8.84,1.17,12.5,12.4.18,25.32.26,37.72.44-4.28-3.74-3.35-8.94.73-12.94C268.56,161.45,256.1,160.78,242.31,172.61Z"/><path class="cls-5" d="M261,183.65a75,75,0,1,1-75,75A75.14,75.14,0,0,1,261,183.65Z"/><path class="cls-2" d="M261,185.27a73.37,73.37,0,1,1-14.75,1.5A73.51,73.51,0,0,1,261,185.27Z"/><path class="cls-5" d="M261.37,188.22a70,70,0,0,1,60.46,105.4l-35-17.86H235.9l-35,17.86a70,70,0,0,1,60.45-105.4Z"/><rect class="cls-3" x="187.81" y="336.76" width="144.71" height="16.12"/><polygon class="cls-2" points="187.89 353.2 332.54 353.2 332.54 378.04 306.31 393.11 303.81 394.55 260.4 419.5 260.15 419.62 187.89 378.04 187.89 353.2"/><path class="cls-2" d="M249.29,172.89c8.87-2.95,17.31-3.26,26,0,.89.33,1.83.56,1.83,1.25v1.72c0,.69-1,1.63-1.83,1.25-8.87-4-17-3.8-26,0a1.47,1.47,0,0,1-1.84-1.25v-1.72C247.45,173.45,248.38,173.19,249.29,172.89Z"/><path class="cls-2" d="M189.12,215.68c5-2.3,9.94-4.43,15-6.73-7.47,8.52-11.49,18.58-15.2,26.2-.07-5.83.29-13.34.24-19.47Z"/><path class="cls-2" d="M206.82,267.87c2.14-.36,3.88,0,4.34.95s-.36,2.2-1.9,3.34a68.61,68.61,0,0,0,5,6.85c.73,3.54-.59,4.56-4,4.29a77.58,77.58,0,0,1-5.65-9c-2.59.66-4.83.41-5.35-.73s.78-2.8,3-4.08c-6-14.08-5.42-28.28,4.31-42-2-1.57-3-3.36-2.3-4.4s3.11-1,5.65.11a77.18,77.18,0,0,1,8.66-8.55c2.73-1.84,5.38.34,3.52,2.62a84.26,84.26,0,0,0-8.42,8.35c1.51,1.41,2.21,2.89,1.6,3.8s-2.6,1-4.82.22c-9.27,12.65-10.32,25.23-3.7,38.25Z"/><path class="cls-2" d="M315.93,267.87c-2.14-.36-3.88,0-4.34.95s.36,2.2,1.9,3.34a68.61,68.61,0,0,1-5,6.85c-.73,3.54.59,4.56,4,4.29a77.58,77.58,0,0,0,5.65-9c2.59.66,4.82.41,5.35-.73s-.78-2.8-3-4.08c6-14.08,5.42-28.28-4.31-42,2-1.57,3-3.36,2.29-4.4s-3.1-1-5.64.11a77.18,77.18,0,0,0-8.66-8.55c-2.73-1.84-5.38.34-3.51,2.62A85.19,85.19,0,0,1,309,225.6c-1.51,1.41-2.21,2.89-1.6,3.8s2.6,1,4.82.22c9.27,12.65,10.32,25.23,3.7,38.25Z"/><path class="cls-2" d="M261.37,216.66a41.62,41.62,0,1,1-41.62,41.62A41.71,41.71,0,0,1,261.37,216.66Z"/><path class="cls-2" d="M114.89,224.87c19.17-19.17,173.5-168.78,158.78-56.48-10.37-1.07-16.19-1.26-23.13-.1.4-10.24-10.78-17.93-33.88-8.72-40.4,16.94-70.7,42.94-101.82,72,.08-4-.08-2.78,0-6.74Z"/><ellipse class="cls-3" cx="261.89" cy="194.06" rx="15.86" ry="16.09"/><path class="cls-2" d="M255.72,206.48c4,4.26,6.9,5.22,12.41.12l1.09,12.91c-5.45-2.32-9.57-2.3-14.58-.53Z"/><path class="cls-5" d="M256.61,210.65c3.64,2.3,6.09,3.09,10.67-.26l.88,7.19a21.09,21.09,0,0,0-12.46-.38Z"/><path class="cls-5" d="M261.92,180.71a13.21,13.21,0,1,1-13.2,13.21A13.23,13.23,0,0,1,261.92,180.71Z"/><path class="cls-2" d="M252.84,184.35v19.13a13.68,13.68,0,0,1-2-2.33V186.69A13.37,13.37,0,0,1,252.84,184.35Z"/><path class="cls-2" d="M257.87,181.35v25.13a13.46,13.46,0,0,1-2-.81v-23.5a12.48,12.48,0,0,1,2-.82Z"/><path class="cls-2" d="M262.9,180.75v26.33c-.32,0-.65,0-1,0s-.65,0-1,0V180.75c.33,0,.65,0,1,0s.66,0,1,0Z"/><path class="cls-2" d="M267.93,182.17v23.5a13.46,13.46,0,0,1-2,.81V181.35a12.48,12.48,0,0,1,2,.82Z"/><path class="cls-2" d="M273,186.69v14.45a13,13,0,0,1-2,2.34V184.35A13.3,13.3,0,0,1,273,186.69Z"/><polygon class="cls-5" points="187.64 313.71 191.57 313.59 191.8 308.05 204.55 308.06 205.39 308.97 205.62 313.11 210.55 313.27 208 311.13 212.51 314.86 212.45 332.04 187.66 331.87 187.64 313.71"/><polygon class="cls-5" points="333.51 313.71 329.16 313.59 329.14 308.05 317.26 308.06 316.45 308.97 316.24 313.11 311.49 313.27 313.94 311.13 309.61 314.86 309.66 332.04 333.5 331.87 333.51 313.71"/><rect class="cls-1" x="186.93" y="346.69" width="147.17" height="2.55"/><rect class="cls-1" x="186.76" y="334.14" width="147.35" height="2.81"/><rect class="cls-1" x="186.58" y="352.21" width="146.98" height="1.52"/><path class="cls-5" d="M217.93,328.83a12.06,12.06,0,1,1-12.05,12.05A12.08,12.08,0,0,1,217.93,328.83Z"/><path class="cls-5" d="M303,328.83A12.06,12.06,0,1,1,291,340.88,12.08,12.08,0,0,1,303,328.83Z"/><rect class="cls-1" x="253.8" y="337.98" width="10.85" height="2.27"/><rect class="cls-1" x="251.74" y="337.98" width="2.26" height="6.3"/><rect class="cls-1" x="247.63" y="337.62" width="2.27" height="9.15"/><rect class="cls-1" x="264.59" y="337.98" width="2.26" height="8.72"/><rect class="cls-1" x="270.42" y="335.92" width="2.26" height="10.85"/><path class="cls-2" d="M217.93,330.94a9.95,9.95,0,1,1-10,9.94A10,10,0,0,1,217.93,330.94Z"/><path class="cls-2" d="M303,330.94a9.95,9.95,0,1,1-9.94,9.94A10,10,0,0,1,303,330.94Z"/><path class="cls-2" d="M200.38,316.18a5.91,5.91,0,1,1-5.41,5.88A5.67,5.67,0,0,1,200.38,316.18Z"/><path class="cls-2" d="M322.17,316.18a5.91,5.91,0,1,0,5.41,5.88A5.67,5.67,0,0,0,322.17,316.18Z"/><polygon class="cls-5" points="187.25 213.68 186.69 374.86 95.89 406.35 128 347.81 123.45 340.94 143.24 308.43 144.48 301.11 156.79 279.5 161.77 250.62 187.25 213.68"/><polygon class="cls-5" points="186.7 373.98 186.81 399.83 95.6 406.64 99.06 404.68 186.7 373.98"/><path class="cls-5" d="M95.76,406.77c0,1.19.15,2.9.11,4.08,3.91.67,8,2.56,11.9,3.22,3,2.54,5.87,3.06,8.54-.85,4.54,8.34,9.12,7.81,14-1.28,4.78,11.14,13.09,10.21,14.74-1.56,0-.19-.19-.24-.16-.43,3.32,18.55,17,17.57,21.57-2.7,4.94,22.29,21.41,10.82,20.46-7.54-29.71,2.94-61.44,4.13-91.15,7.06Z"/><polygon class="cls-2" points="186.68 220.53 185.59 373.25 100.12 402.73 131.39 347.28 126.97 340.1 146.62 307.93 147.19 302.26 159.75 280.59 164.83 252.2 186.68 220.53"/><polygon class="cls-2" points="185.64 386.56 185.6 398.74 98.69 405.41 185.64 386.56"/><polygon class="cls-2" points="185.66 376.15 185.59 383.26 102.95 404.13 185.66 376.15"/><path class="cls-2" d="M97.18,408.12c0,1.1-.24,1.66-.28,2.77,3.81.61,7.78,2.38,11.59,3,2.9,2.36,5.71,2.84,8.31-.8,4.42,7.77,8.88,7.29,13.61-1.19,4.66,10.39,12.75,9.52,14.36-1.46,0-.17-.19-.21-.16-.39,3.23,17.29,16.55,16.37,21-2.52,4.8,20.77,20.85,10.74,19.93-6.37-28.93,2.74-59.43,4.22-88.36,7Z"/><polygon class="cls-5" points="153.7 306.33 168.67 289.2 168.67 322.19 153.7 332.85 153.7 306.33"/><polygon class="cls-5" points="133.94 367.77 141.77 361.59 141.9 374.76 134.06 379.49 133.94 367.77"/><polygon class="cls-5" points="123.92 376.54 130.19 371.59 130.29 382.14 124.02 385.92 123.92 376.54"/><polygon class="cls-5" points="116.34 384.11 120.71 380.66 120.78 388.01 116.41 390.65 116.34 384.11"/><polygon class="cls-5" points="109.9 390.68 112.72 388.45 112.76 393.19 109.95 394.88 109.9 390.68"/><polygon class="cls-5" points="104.61 395.34 106.32 394 106.34 396.87 104.64 397.9 104.61 395.34"/><polygon class="cls-2" points="214.62 357.96 208.63 357.92 208.63 363.92 214.62 357.96"/><rect class="cls-1" x="189.99" y="356.32" width="7.42" height="7.42"/><rect class="cls-1" x="226.53" y="356.32" width="7.42" height="7.42"/><rect class="cls-1" x="263.07" y="356.32" width="7.42" height="7.42"/><rect class="cls-1" x="298.76" y="356.32" width="7.42" height="7.42"/><rect class="cls-1" x="206.87" y="371.95" width="7.42" height="7.42"/><rect class="cls-1" x="281.56" y="371.95" width="7.42" height="7.42"/><rect class="cls-1" x="318.9" y="371.95" width="7.42" height="7.42"/><rect class="cls-1" x="226.62" y="386.96" width="7.42" height="7.42"/><rect class="cls-1" x="263.07" y="386.96" width="7.42" height="7.42"/><polygon class="cls-5" points="280.58 402.64 288 402.64 288 406.3 280.62 410.56 280.58 402.64"/><rect class="cls-1" x="244.21" y="371.95" width="7.42" height="7.42"/><rect class="cls-1" x="244.64" y="402.64" width="7.42" height="7.42"/><polygon class="cls-5" points="298.76 386.96 306.18 386.96 306.18 393.01 303.64 394.39 298.76 394.39 298.76 386.96"/><path class="cls-5" d="M218.87,356.33h-12v12.11Zm-4.25,1.85-6,0v6Z"/><path class="cls-5" d="M256.21,356.33h-12v12.11ZM252,358.18l-6,0v6Z"/><path class="cls-5" d="M293.55,356.33h-12v12.11Zm-4.24,1.85-6,0v6Z"/><path class="cls-5" d="M330.9,356.33h-12v12.11Zm-4.25,1.85-6,0v6Z"/><path class="cls-5" d="M202.06,372h-12v12.1Zm-4.25,1.85-6,0v6Z"/><path class="cls-5" d="M238.52,372h-12v12.1Zm-4.24,1.85-6,0v6Z"/><path class="cls-5" d="M275.07,372h-12v12.1Zm-4.25,1.85-6,0v6Z"/><path class="cls-5" d="M310.75,372h-12v12.1Zm-4.25,1.85-6,0v6Z"/><path class="cls-5" d="M218.87,387h-12v2.12l1.82,1.05,3.19,2,1.48,1ZM214.62,389l-6-.05v1l3.31,2.06Z"/><path class="cls-5" d="M256,387H244v12.11Zm-4.24,1.85-6,0v6Z"/><path class="cls-5" d="M293.2,387h-12v12.11ZM289,388.82l-6,0v6Z"/><path class="cls-5" d="M238.52,402.65h-12V408l4.19,2.56Zm-4.24,1.85-6,0V409l1,.55Z"/><path class="cls-5" d="M275.07,402.86h-12V415Zm-4.25,1.85-6,0v6Z"/><path class="cls-5" d="M211.87,291.23a1.25,1.25,0,0,0-.57,1.68,54.24,54.24,0,0,1,6.19,4.93c1.86,4.08-.82,6.21-3.62,2.5-1.5-.18-2,1.44-.28,2.85a17.51,17.51,0,0,0,1.26,6.68,7.71,7.71,0,0,0,4.45,4.65c.74-.58.64-.73-.2-1.76-2.69-1.44-3.8-5-3.51-7.54.95-.27,7.5,3.55,7.72,4.14.17,2.28.12,4.86.27,7.14.39.57.86.68,1.38.17,0-1.55-.22-5-.13-7.92s.48-5.31,1.7-4.71c3.67,1.87,7.16,3.72,10.61,5.24,2.12,2,1.06,4.67-1.79,3.44-6.47-7.3-9.42.12-5.1,7,.88.22,1.16-.21,1.05-1.28-3.23-6.12-.72-8.83,3-5-1.41,5.78,5.37,11.85,8.43,6.41.09,1.38.1,4.14.19,5.52.53.34,1.11.55,1.51-.06V312.14a10.48,10.48,0,0,1,4.94.84,17.62,17.62,0,0,1,0,4.8c-3,.55-.37,7.7,2,3,1.36,0,2.72.14,4.09.15v6.5a.9.9,0,0,0,1.14,0c0-2.3.09-4.61.14-6.91l.15-6.92a64,64,0,0,1,8.52-.06c.15.31.31.5.47.81a31.55,31.55,0,0,1,0,6.07c-1.51,4-5.57,2.18-5.08-.5-.62-4.8,4.26-1.2,3.44-4.57-3.62-1.06-5.21,2.21-4.76,5.38.59,2.79,2.25,4.26,6.3,3,.15,1,0,2.34.15,3.34a.83.83,0,0,0,1.33,0c-.05-2.29,0-4.61,0-6.93s.08-4.65,0-6.94c1.07-.54,1.81-.5,2.18-.73s.2-.7.07-1.57a36.82,36.82,0,0,1-12.56.6,45.47,45.47,0,0,0-4.39-6.7c-.7-.12-.88-.07-1,.66a41.72,41.72,0,0,1,3.52,5.86,52.14,52.14,0,0,1-20.76-5.21,95.1,95.1,0,0,1-22.55-14.92Zm8.17,8.94c1.19.06,3.48,1.67,3.48,3.08s.25,3.2-1.11,3.08-3.25-1.29-3.3-2.76-.26-3.47.93-3.4Zm19.83,10.62a4.88,4.88,0,0,1,3.09.92c0,2.13-.11,5.12-.7,6.14-2.27,3.92-7.16.5-5.9-2.7C238.54,315.77,240,314.52,239.87,310.79Zm15.39,4.14c0,1,.24,3.33-.5,3.53a5.91,5.91,0,0,1-2.58,0c-.49-.08-1.17-.09-1.18-.61,0-2.85-.39-4.63.86-4.65C253.39,313.16,255.27,313.57,255.26,314.93Z"/><path class="cls-1" d="M256.1,327.81a1.38,1.38,0,0,1-.73-.23l-.1-.05V321.1c-.65,0-1.3,0-1.94-.07s-1.22-.06-1.83-.07c-.79,1.52-1.56,1.69-2.08,1.57-1-.25-1.59-1.7-1.55-2.91a2,2,0,0,1,1.38-2,17.9,17.9,0,0,0-.06-4.5,10.21,10.21,0,0,0-4.56-.79v13l0,.05c-.58.89-1.49.3-1.79.12l-.08-.06v-.1c0-.69-.07-1.75-.09-2.77,0-.74,0-1.5-.06-2.12a3.48,3.48,0,0,1-4.39,1.39,7.58,7.58,0,0,1-4.1-8.38c-1.41-1.41-2.74-2-3.48-1.42s-.94,2.86.87,6.29l0,.07c.08.7,0,1.13-.28,1.37a1.11,1.11,0,0,1-1,.12l-.08,0,0-.07c-2.67-4.26-2.56-8.54-.78-9.87,1.48-1.1,3.72-.15,6.17,2.6,1.07.45,2,.34,2.38-.29s.26-1.8-.82-2.82c-2.83-1.25-5.65-2.69-8.63-4.23l-2-1a.46.46,0,0,0-.47,0c-.37.23-.84,1.2-.94,4.55-.06,1.9,0,4,.07,5.73,0,.88.05,1.65.05,2.18v.09l-.05.06a1.11,1.11,0,0,1-.87.38,1.15,1.15,0,0,1-.81-.57l0-.05v-.05c-.08-1.12-.11-2.33-.13-3.49s-.06-2.46-.15-3.62c-.37-.59-6.16-3.92-7.34-4-.23,2.54,1,5.87,3.43,7.19l.06.05c.51.64.77.95.73,1.3s-.23.47-.57.73l-.09.07-.1,0a7.83,7.83,0,0,1-4.56-4.75,17.72,17.72,0,0,1-1.28-6.67c-1.09-.91-1.23-1.84-1-2.4a1.37,1.37,0,0,1,1.51-.74H214l.05.07c1.14,1.5,2.39,2.17,3.19,1.69s1.06-1.85.11-4a52.65,52.65,0,0,0-6.14-4.87l-.06,0,0-.06a1.65,1.65,0,0,1,0-1.31,1.19,1.19,0,0,1,.67-.62l.11,0,.08.07A95.37,95.37,0,0,0,234.5,306a52.07,52.07,0,0,0,20.38,5.19,28.08,28.08,0,0,0-2.34-4l-1-1.61,0-.05v-.07a1.09,1.09,0,0,1,.29-.77,1.18,1.18,0,0,1,.89-.07h.08l.05.06a46,46,0,0,1,4.35,6.64,35.86,35.86,0,0,0,12.39-.6l.21-.05,0,.21c.15.95.24,1.52-.15,1.76a2.18,2.18,0,0,1-.71.24,6,6,0,0,0-1.38.45c0,1.89,0,3.83,0,5.71l0,1.75c0,2.07-.06,4.21,0,6.28v.09l-.06.06a1.13,1.13,0,0,1-.79.38h0a1.19,1.19,0,0,1-.82-.42l0,0v-.06a9.59,9.59,0,0,1-.08-1.72c0-.48,0-1,0-1.39-1.92.55-3.37.51-4.43-.11a4.48,4.48,0,0,1-1.9-3.13,5.63,5.63,0,0,1,1.44-5,3.62,3.62,0,0,1,3.57-.58l.11,0,0,.11a1.75,1.75,0,0,1-.09,1.43c-.3.42-.86.48-1.46.54a2.17,2.17,0,0,0-1.59.58,2.72,2.72,0,0,0-.29,2.05V320a2.2,2.2,0,0,0,1.6,2.51c1,.28,2.34-.12,3.09-2.09a31.25,31.25,0,0,0,0-6l-.21-.36-.19-.32a44.85,44.85,0,0,0-6.56,0l-1.64.07-.29,13.72-.07.06A1,1,0,0,1,256.1,327.81Zm-.43-.51a.67.67,0,0,0,.74,0l.29-13.92h.19l1.82-.08a47.2,47.2,0,0,1,6.73,0h.1l0,.1a4.48,4.48,0,0,0,.23.39c.08.13.16.26.24.42l0,.07a31.89,31.89,0,0,1,0,6.11v.05c-.85,2.24-2.46,2.68-3.58,2.37a2.61,2.61,0,0,1-1.89-2.94,3.08,3.08,0,0,1,.38-2.32,2.55,2.55,0,0,1,1.86-.73c.52-.05,1-.1,1.17-.37a1.29,1.29,0,0,0,.06-1A3.22,3.22,0,0,0,261,316a5.24,5.24,0,0,0-1.3,4.66,4,4,0,0,0,1.7,2.85c1,.6,2.42.6,4.34,0l.22-.06,0,.22a11.33,11.33,0,0,1,.08,1.68,10.17,10.17,0,0,0,.06,1.59.71.71,0,0,0,.49.25h0a.7.7,0,0,0,.45-.2c0-2.06,0-4.17,0-6.22l0-1.75c0-1.91.06-3.9,0-5.81v-.13l.11-.05a6.5,6.5,0,0,1,1.58-.55,2.19,2.19,0,0,0,.59-.18c.15-.1.09-.59,0-1.15a36.87,36.87,0,0,1-12.41.55l-.11,0-.05-.09A45.52,45.52,0,0,0,252.5,305c-.25,0-.43,0-.5,0a.65.65,0,0,0-.13.42c.34.54.68,1.05,1,1.54a26.26,26.26,0,0,1,2.5,4.3l.11.28h-.3a52.27,52.27,0,0,1-20.85-5.23,95.91,95.91,0,0,1-22.49-14.86.82.82,0,0,0-.34.37,1.27,1.27,0,0,0,0,1,53.13,53.13,0,0,1,6.16,4.9l0,.06c1.08,2.37.65,4-.25,4.5s-2.14.25-3.65-1.72a.93.93,0,0,0-1,.5c-.18.43,0,1.21,1,2l.08.06v.09a17.16,17.16,0,0,0,1.25,6.6,7.62,7.62,0,0,0,4.22,4.5c.19-.16.33-.28.34-.4s-.24-.49-.63-1c-2.73-1.5-3.88-5.09-3.58-7.72l0-.13.13,0,.13,0c1.39,0,7.59,3.63,7.82,4.28l0,0c.08,1.18.11,2.45.14,3.68s.06,2.32.13,3.41a.69.69,0,0,0,.49.36.63.63,0,0,0,.49-.21c0-.53,0-1.25-.06-2.09,0-1.71-.13-3.83-.07-5.75.09-2.91.45-4.46,1.14-4.88a.84.84,0,0,1,.85,0l2,1c3,1.53,5.81,3,8.64,4.23l.06,0c1.13,1.06,1.5,2.44.9,3.36-.41.63-1.39,1.07-2.91.41l-.07,0c-2.31-2.6-4.37-3.54-5.66-2.58-1.59,1.2-1.64,5.29.83,9.28a.7.7,0,0,0,.58-.05c.15-.14.21-.47.15-1-1.68-3.2-2-5.85-.73-6.76.94-.68,2.46-.11,4.07,1.54l.08.08,0,.1a7.17,7.17,0,0,0,3.83,8c1.7.67,3.24,0,4.24-1.76l.33-.58,0,.67c0,.69.07,1.75.09,2.76s0,2,.09,2.65c.55.33.88.33,1.12,0V312l.19,0a10.88,10.88,0,0,1,5,.86l.11.05V313a18,18,0,0,1,.05,4.86l0,.14-.13,0a1.58,1.58,0,0,0-1.19,1.65c0,1.14.55,2.34,1.24,2.51s1.15-.38,1.69-1.47l.05-.11h.13c.66,0,1.33,0,2,.07s1.42.07,2.12.08h.2Zm-16.09-7.49a3.49,3.49,0,0,1-1.47-.35,3.57,3.57,0,0,1-1.94-4.39l.07-.17.17.06a2.33,2.33,0,0,0,2.14-.24c.79-.6,1.17-2,1.12-3.93v-.18l.18,0a5.09,5.09,0,0,1,3.21.94l.1.06v.12c0,3.31-.25,5.41-.73,6.23A3.27,3.27,0,0,1,239.58,319.81Zm-3.1-4.42a3.2,3.2,0,0,0,1.8,3.71,2.8,2.8,0,0,0,3.81-1.35c.43-.74.67-2.84.67-5.93a4.81,4.81,0,0,0-2.69-.85c0,2-.4,3.39-1.27,4.06A2.63,2.63,0,0,1,236.48,315.39Zm17.13,3.41a9,9,0,0,1-1.46-.14l-.2,0c-.48-.06-1.13-.15-1.15-.78s0-1.1,0-1.58c-.06-1.5-.09-2.5.37-3a1,1,0,0,1,.71-.29,4.75,4.75,0,0,1,3.16.86,1.44,1.44,0,0,1,.45,1.07c0,.17,0,.38,0,.62.05,1.58,0,2.91-.67,3.1A4.38,4.38,0,0,1,253.61,318.8ZM252,313.39h-.17a.59.59,0,0,0-.43.17c-.35.36-.31,1.34-.27,2.7,0,.48,0,1,0,1.58,0,.25.25.32.8.4l.21,0a5.77,5.77,0,0,0,2.5,0c.46-.13.4-1.87.37-2.71,0-.24,0-.46,0-.63h0a1,1,0,0,0-.33-.79A4.05,4.05,0,0,0,252,313.39Zm-29.5-6.85h-.14c-1.38-.12-3.42-1.33-3.48-2.95,0-.17,0-.33,0-.5,0-1.15-.09-2.33.44-2.85a.92.92,0,0,1,.72-.26c1.32.07,3.66,1.74,3.66,3.28,0,.19,0,.39,0,.59,0,1,.05,2-.45,2.43A1,1,0,0,1,222.53,306.54ZM220,300.37a.53.53,0,0,0-.37.14c-.4.4-.36,1.59-.32,2.55,0,.17,0,.34,0,.51.05,1.38,1.91,2.46,3.11,2.56A.69.69,0,0,0,223,306c.38-.35.36-1.26.34-2.13,0-.21,0-.41,0-.6,0-1.28-2.15-2.82-3.29-2.88H220Z"/><path class="cls-5" d="M273.64,309.92a1.11,1.11,0,0,0,.32,1.48,48,48,0,0,0,5.69-1.53,2.16,2.16,0,0,1,.47,2.65,10,10,0,0,1-5.31,1.93.88.88,0,0,0-.18,1.49c3.2.13,2.14,5.71-.29,5.46a5.63,5.63,0,0,1-3.84-2.84c-.57-.12-.83.32-.51,1.14a5.25,5.25,0,0,0,4.38,3.51c3.54-.56,3.65-3,3.47-7.11,1-1.29,1.94-1.33,2.74-.15.15,2.24.19,4.47.32,6.7.43.8.87.52,1.3.09-.06-2.24-.13-4.45-.19-6.65s-.12-4.4-.18-6.65c1.88-.77,4-1.78,5.87-2.57,2.32-.18,1.67,3.69-1.46,4.72-2.05.67.5,10.29,7.67,1.89,0,1.08,0,2.29.06,3.37.44.54,1,.55,1.35-.09,0-2.28,0-4.57,0-6.87V303a118.36,118.36,0,0,0,10.22-8.39,8.89,8.89,0,0,1,.14,3.83,10.33,10.33,0,0,0-7.42,7.09c-1.71,5.1,3.7,10.21,3.15,5.68-2-.92-1.94-4.19-.86-6.84s3.17-4.69,5.23-3.13c.08,2.31.11,4.36.1,6.73a.77.77,0,0,0,1.4-.34c0-2.39,0-4.69,0-7s0-4.59,0-7c.12-.36-.16-.5-.07-.71.3-.65,1-1,1.75-1.95a1.07,1.07,0,0,0-.57-1.37c-.41.28-1.28,1.33-1.7,1.6-1.29-.51-2.53-2.07-3.77-3.19-1,0-1.19.65-1.08,1.39,1,.95,2.57,2.58,3.56,3.51a58.42,58.42,0,0,1-14.71,10.84,68.57,68.57,0,0,1-17,6.13ZM290.26,306c1.49-1.19,2.28-1.88,2.81-1.59.95.52,1,5,.46,6.61-.91,2.87-5.84,5.71-5.22,1.42,1.41-1,3.46-2,1.95-6.44Z"/><path class="cls-1" d="M274.37,323.41h0a5.45,5.45,0,0,1-4.55-3.64,1.22,1.22,0,0,1,0-1.22.71.71,0,0,1,.72-.18h.08l0,.07a5.45,5.45,0,0,0,3.72,2.76,1.65,1.65,0,0,0,1.44-.81,3.57,3.57,0,0,0,.35-3.3,1.71,1.71,0,0,0-1.55-1h-.08l-.06-.06a1.21,1.21,0,0,1-.38-.92,1.23,1.23,0,0,1,.6-.87l.09,0a9.73,9.73,0,0,0,5.17-1.86,1.92,1.92,0,0,0-.37-2.29,48.45,48.45,0,0,1-5.59,1.49l-.1,0-.07-.07a1.27,1.27,0,0,1-.36-1.71l0-.08.09,0a68.94,68.94,0,0,0,17-6.11A58.85,58.85,0,0,0,305.09,293c-.49-.47-1.11-1.09-1.7-1.68s-1.23-1.24-1.72-1.7l-.05,0v-.07a1.51,1.51,0,0,1,.22-1.21,1.38,1.38,0,0,1,1.05-.41H303l.06,0c.36.33.73.7,1.09,1.05a9.73,9.73,0,0,0,2.53,2.07c.19-.16.47-.44.74-.72a6.68,6.68,0,0,1,.87-.82l.08-.05.08,0a1,1,0,0,1,.63.52,1.46,1.46,0,0,1,.08,1.11l0,.06a8.48,8.48,0,0,1-1,1,2.8,2.8,0,0,0-.72.86l0,.11a.78.78,0,0,1,.05.55c0,2.39,0,4.68,0,7s0,4.6,0,7a1,1,0,0,1-.81.86.89.89,0,0,1-.95-.41l0-.05V308c0-2.34,0-4.39-.09-6.63a2.11,2.11,0,0,0-1.82-.37c-1.14.32-2.28,1.61-3,3.48-1,2.54-1.13,5.72.75,6.58l.1.05v.11c.13,1,0,1.65-.46,1.89s-.81.06-1.31-.36a7.18,7.18,0,0,1-1.76-7.26,10.49,10.49,0,0,1,7.44-7.18,10.86,10.86,0,0,0,0-3.32,80.4,80.4,0,0,1-7.43,6.19c-.86.65-1.7,1.3-2.52,1.94,0,2.25,0,4.52,0,6.78s0,4.59,0,6.88l0,.08a1,1,0,0,1-.73.59,1.1,1.1,0,0,1-.95-.46l0-.05v-.07c0-.67,0-1.38,0-2.08l0-.78c-2.87,3.21-4.87,3.37-6.06,2.92a4.2,4.2,0,0,1-2.3-3.94c0-.84.32-1.42.82-1.58a3.58,3.58,0,0,0,2.68-3.54.93.93,0,0,0-1-.8h-.1c-.86.36-1.78.77-2.67,1.18s-2.07.92-3.05,1.33c0,1,.06,2,.08,3.05s.07,2.31.1,3.47.07,2.38.1,3.58l.09,3.07v.08l-.06.06c-.28.28-.56.53-.93.47s-.48-.23-.68-.61l0-.08c-.07-1.06-.11-2.14-.16-3.19s-.09-2.3-.16-3.45a1.4,1.4,0,0,0-1.06-.72h0a1.73,1.73,0,0,0-1.27.86c.17,4.11.06,6.65-3.65,7.25Zm-4.05-4.67-.2.07c-.09.1-.12.37.05.81a5.06,5.06,0,0,0,4.19,3.39c3.39-.55,3.46-2.87,3.29-6.9V316l0-.06a2.16,2.16,0,0,1,1.64-1.08h0a1.77,1.77,0,0,1,1.4.94l0,0v.06c.08,1.17.12,2.36.17,3.52s.09,2.09.15,3.13c.09.17.23.35.37.37s.36-.14.53-.3c0-1-.06-2-.08-3,0-1.2-.07-2.39-.11-3.58l-.09-3.46c0-1.06-.06-2.12-.09-3.2v-.13l.12-.06c1-.41,2.11-.9,3.17-1.38.9-.4,1.83-.82,2.7-1.19h.07a1.36,1.36,0,0,1,1.56,1.11c.27,1.35-.88,3.32-2.95,4-.33.11-.53.56-.55,1.21a3.83,3.83,0,0,0,2.06,3.56c1.11.42,3,.21,5.95-3.2l.34-.39,0,1.82c0,.67,0,1.35,0,2a.67.67,0,0,0,.55.27.58.58,0,0,0,.41-.33q0-3.41,0-6.83v-7l.08-.06c.84-.66,1.71-1.33,2.6-2a78.81,78.81,0,0,0,7.6-6.36l.19-.18.13.22c.42.73.32,3.17.16,4l0,.12-.12,0a10.14,10.14,0,0,0-7.29,7,6.74,6.74,0,0,0,1.64,6.82c.36.3.69.42.87.32s.38-.33.27-1.39c-2-1-2-4.31-.85-7,.8-2,2-3.36,3.29-3.71a2.48,2.48,0,0,1,2.24.49l.08.06v.09c.07,2.27.11,4.33.1,6.67a.49.49,0,0,0,.51.2.64.64,0,0,0,.5-.5c0-2.36,0-4.7,0-7s0-4.59,0-7v-.06l0-.3a.54.54,0,0,1,0-.44,3.4,3.4,0,0,1,.82-1,8,8,0,0,0,.93-1,1.06,1.06,0,0,0-.07-.77l-.28-.28a9,9,0,0,0-.74.71,6.82,6.82,0,0,1-.89.83l-.08.06-.1,0a9.27,9.27,0,0,1-2.76-2.19c-.34-.34-.68-.68-1-1a.92.92,0,0,0-.68.27,1.05,1.05,0,0,0-.14.82c.48.46,1.08,1.07,1.67,1.66s1.33,1.33,1.84,1.81l.14.13-.14.15A59.12,59.12,0,0,1,290.75,304a69.18,69.18,0,0,1-17,6.12.86.86,0,0,0,.24,1.09,48.9,48.9,0,0,0,5.57-1.5l.12,0,.08.1a2.35,2.35,0,0,1,.51,2.87l-.06.07a10,10,0,0,1-5.35,2,.82.82,0,0,0-.39.56.73.73,0,0,0,.22.55,2.05,2.05,0,0,1,1.8,1.17,3.94,3.94,0,0,1-.38,3.71,2,2,0,0,1-1.82,1,5.73,5.73,0,0,1-3.94-2.86Zm19.08-3.88-.34,0c-.46-.11-1.21-.56-.95-2.39l0-.08.32-.22c1.4-.93,3-2,1.62-6l0-.13.45-.36c1.34-1.08,2.08-1.68,2.68-1.35,1.1.6,1.08,5.23.56,6.85C293.13,313,290.88,314.86,289.4,314.86Zm-.91-2.27c-.09.77-.05,1.69.66,1.85,1.17.29,3.57-1.51,4.19-3.45.55-1.72.42-5.95-.37-6.38-.37-.21-1.12.4-2.24,1.31l-.24.18c1.4,4.25-.46,5.48-1.82,6.37Z"/><path class="cls-5" d="M260.08,222.61c1.45.75,2.17,0,2.89,0,1.44,0,2.89,0,3.61.75s.72,1.5,1.44,2.25c0,.74-.72,2.24.72,3,0,.75,0,.75.72,1.5.72-.75,2.89-.75,3.61-2.25.72-.75,1.44-.75,2.89,0,.72,0,1.44.75,2.16,1.5,0,.75,0,1.5.72,1.5,1.45,0,2.89,0,2.89,1.49-.72,2.25,3.61,3.75,1.44,6-1.44.74-2.16,2.24-2.88,3-1.45,0-.73,2.25-2.17,1.5-.72,0-.72-2.25-1.44-1.5,0,.75.72,1.5.72,2.25.72.74,0,2.24.72,3-.72.75,1.44,2.25,0,3.75.72,1.49-1.44,2.24-.72,3.74-1.44.75-.72,1.5-1.44,2.24-.73,1.5-1.45,1.5-1.45,3-.72.75,0,2.25,0,3,0,3-2.16,5.25,0,8.24a2.83,2.83,0,0,0,.72,2.25c.73,0,2.17-.75,2.89.75,0,.74,1.44,1.49.72,2.24-.72,1.5.72,1.5.72,2.25,2.17.75.73,3,2.89,4.49.72,1.5-2.16,1.5-1.44,3.75,0,.74-.72,1.49-.72,2.24-1.45,1.5-2.17,2.25-3.61,2.25-.72.75,0,1.49-.72,2.24a8.86,8.86,0,0,1-4.33.75H250c-.72.75-.72-.75-1.44-.75s0-1.49-.72-2.24h-2.89a8.27,8.27,0,0,1-2.16-5.24c-.72-.75-.72-.75-.72-1.5s.72-.75.72-1.5c0-1.5,0-3,.72-3.74s.72-1.5,1.44-1.5V275c.72-.75.72-3,2.89-2.24-.72-.75.72-.75.72-.75,0-2.25,1.44-4.49,0-6.74,0-2.25-.72-4.49,0-6l-1.44-1.5c.72-.75-1.45-1.5-.72-2.24-1.45-.75-1.45-2.25-2.17-3.75-.72-.75,0-3-.72-3.74.72-.75,0-2.25,1.44-3-.72-1.49.72-1.49.72-3h-.72s0,1.5-.72,1.5c-1.44,0-1.44-1.5-2.16-1.5-.72-.75-.72-2.25-2.17-2.25,0-1.49-1.44-1.49-.72-3,0-1.5,1.44-2.25,1.44-3.75.73-1.49,2.89-1.49,3.61-3.74.72-1.5,2.17-.75,2.89-1.5,1.44-.75,2.16,2.25,4.33,1.5h1.44c0-.75.72-.75.72-1.5,0-1.5-.72-2.24,0-3.74.72-.75,2.16,0,2.16-.75.73.75,1.45-.75,2.17,0,.72-.75,1.44,0,2.16-.75Zm1.45.75a1.44,1.44,0,0,1,0,2.25c1.44.74,3.6.74,4.33,2.24,0,1.5,1.44,2.25,0,3-.73,0,0,1.49-.73.75a.73.73,0,0,1-.72-.75l1.45-1.5c-.73,0-1.45,0-1.45.75-.72,0-.72-.75-1.44-.75.72-.75.72-.75,1.44-.75,0,0,.72.75.72,0-.72,0-.72-1.5-1.44-.75s-.72,1.5-1.44,1.5a2.65,2.65,0,0,1,.72-1.5c1.44-.75,1.44,0,2.16.75.73-.75-.72-1.5-.72-1.5-1.44-.75-2.16.75-2.88,1.5s.72,1.5,0,2.25h-1.45c0-.75.73-1.5,0-2.25a1.58,1.58,0,0,0-1.44-1.5c-1.44,0-2.16.75-2.16,1.5l.72-.75a1,1,0,0,1,1.44,0c0,.75.72.75.72,1.5-.72-.75-1.44-2.25-2.16-1.5,0,.75-1.45.75-.72,1.5.72,0,.72-.75,1.44-.75l.72.75c0,.75-1.44.75-1.44.75-.72-.75-.72-.75-1.45-.75.73.75,1.45.75,2.17,1.5-.72,0-.72.75-1.44,1.49a2.83,2.83,0,0,0,.72,2.25h.72c0-.75-.72,0-.72-.75.72.75,2.16,0,2.88-.75s-.72.75-1.44,0c0,.75-.72.75-.72,0-.72,0-1.44,0-.72-.75,0,.75,1.44.75,2.16.75-.72,0-1.44-.75-2.16-1.49h.72c0,.74.72,1.49,1.44.74,0,0,0,.75.72,0a2.6,2.6,0,0,1-2.16-.74.71.71,0,0,1,.72-.75c0,.75,0,.75.72,1.49.72,0,1.45.75,2.17,0h0a2.58,2.58,0,0,0,2.16.75c.72,0,.72-.75,1.44-.75a.71.71,0,0,1-.72.75c-1.44.75-2.16,0-2.88-.75v.75c0,.75.72.75,1.44.75s2.16,0,2.16-.75a.73.73,0,0,1,.73-.75v1.5c-.73.75,0,1.5-.73,2.25,0-.75,0,0-.72,0l.72-.75c0-.75.73-1.5.73-2.25-.73.75-1.45,1.5-2.17,1.5a3.7,3.7,0,0,1-2.88-1.5c-.73.75-2.17,2.25-3.61,1.5a2.49,2.49,0,0,0-1.45-.75c.73,0,0,1.5.73,2.25.72,0,1.44,0,1.44.75v.75c-.72,0-.72-1.5-2.17-1.5,0-.75.73-1.5,0-2.25,0-.75.73-.75.73-1.5,0-1.49-2.17-1.49-.73-3v-1.5a6.45,6.45,0,0,1,5.06-2.24h.72c0-.75-.72-2.25,0-2.25Zm2.16,0a2.83,2.83,0,0,0-.72,2.25c-.72-.75-.72-1.5,0-1.5,0-.75,0-.75.72-.75Zm-4.33.75v1.5a2.83,2.83,0,0,1-.72-2.25.73.73,0,0,1,.72.75Zm6.5,0c.72.75-1.45.75-.73,2.24.73-.74.73,0,1.45,0-.72-.74-.72-.74-.72-1.49h.72c0,1.49,1.44,2.24,0,3,.72.75.72,1.5,1.44,2.25,0,.75-.72.75,0,1.5v3.74l-.72-.75v1.5a.71.71,0,0,1-.72-.75,1.07,1.07,0,0,1,0-1.5v-1.5c.72,0,.72-1.49.72-2.24l-1.44-1.5a1.44,1.44,0,0,0,0-2.25c-.73,0-1.45,0-1.45-.74v-.75h.72v-.75h-1.44a.71.71,0,0,0,.72-.75c.72,0,1.45,0,1.45.75Zm-7.94,0v1.5c0-.75-.72-.75-.72-1.5Zm-.72,1.5a2.49,2.49,0,0,0-1.45-.75.72.72,0,0,0,.73.75l-.73-.75c0,.75,0,.75-.72.75a.72.72,0,0,1,.72.74v.75c0,.75-.72,1.5-.72,2.25-1.44,1.5,1.45,4.49-.72,4.49h-.72c.72-.75,0-1.5,0-2.24h.72v.75H255c0-.75-.72-1.5-1.44-2.25a2.83,2.83,0,0,1,.72-2.25c.72,0,.72,2.25.72.75,0-.75-.72-1.5,0-2.25h-.72c0-.74,0-1.49.72-1.49.72-.75.72,0,.72-.75a1.58,1.58,0,0,1,1.45,1.5ZM276,229.35a.73.73,0,0,0,.72.75h.72a2.37,2.37,0,0,1-.72,1.5c-.72,0-.72-.75-1.45,0,0,.74,1.45,2.24,0,2.24a.73.73,0,0,0-.72.75c-.72.75,0,.75,0,1.5a.73.73,0,0,1-.72-.75c-.72-2.25,2.17-1.5,1.44-3v-.74c0,1.49-2.88.74-2.16,3h-.72c0-1.5.72-2.25.72-3s0,0-.72,0v-.75c0-1.5.72-2.25,1.44-2.25S276,228.6,276,229.35Zm-26.7,2.25c0,.74-.72.74,0,1.49-.72.75,0,1.5-.72,2.25s-.72,0-.72-.75c0,.75.72.75.72,1.5v.75c-.72,0-.72-.75-1.44-.75s-.72,0-.72-.75l.72.75c0-.75.72-.75,0-.75a.71.71,0,0,0-.72-.75,1.58,1.58,0,0,0,1.44-1.5,2.81,2.81,0,0,0-.72-2.24h-.72a2.81,2.81,0,0,1,.72,2.24l-.72.75c0-.75.72-.75,0-1.5,0-.74-2.17,0-2.17-2.24.72-.75,2.17.75,1.44-.75h.73a2.49,2.49,0,0,1,1.44-.75C249.26,228.6,249.26,230.1,249.26,231.6Zm2.17-1.5c-.73-.75-.73.75-1.45,0v-.75A2.49,2.49,0,0,0,251.43,230.1Zm1.44.75c-.72,0-.72,0-1.44-.75C252.15,230.1,252.87,230.1,252.87,230.85Zm18.76-.75c0,.75.72,2.24-.72,3-1.45-.75-1.45,2.25-2.17,0a5.75,5.75,0,0,1,1.44-3C270.91,230.85,270.91,230.1,271.63,230.1ZM263,231.6h-.72a.73.73,0,0,0,.72-.75C263.69,230.85,263.69,231.6,263,231.6Zm7.94,0a2.5,2.5,0,0,0-1.45.74c.72,0,.72-1.49,1.45-1.49h.72C271.63,231.6,271.63,231.6,270.91,231.6Zm-18,0c-.72,1.49.72,1.49,0,2.24,0,.75.72,1.5,0,1.5a2.65,2.65,0,0,1-.72-1.5c.72,0,.72-.75.72-1.5-.72-.74-.72-1.49-1.44-.74.72.74.72.74.72,1.49v.75a1.58,1.58,0,0,0-1.45-1.5.71.71,0,0,1-.72-.74v-.75c.72,0,2.17,0,2.89.75Zm11.54.74h-2.16a2.2,2.2,0,0,0,1.44-.74l.72-.75Zm16.6,0h-.72a3.92,3.92,0,0,0-1.45,3h1.45v1.5c-1.45-.75-2.89-.75-3.61,0v-2.25c.72-.75,1.44,0,2.16,0v-.75c-.72-1.5-2.88.75-2.16-1.5.72,0,.72-1.49,2.16-.74A2.62,2.62,0,0,1,281,232.34Zm-35.36,0v.75c0,.75-1.44,0-1.44.75.72.75,1.44.75,1.44,1.5.73.75-.72,2.25,0,3v2.24c-1.44.75-1.44,1.5-2.16,2.25-.72-.75,0-1.5-.72-1.5,0-.75.72,0,1.44,0a2.83,2.83,0,0,0,.72-2.25c-.72-.74-1.44-1.49-1.44-2.24.72,0,.72.75,1.44,0v-.75s-.72.75-.72,0h-2.16c0-.75,0-1.5,1.44-1.5a2.65,2.65,0,0,0-.72-1.5c-.72-.75-1.44,0-1.44.75-.73,0,0,.75,0,1.5l.72-.75c0,1.5-2.17,1.5-1.45,3-.72,0-.72.75-.72,0-1.44-.75.72-1.5.72-3-.72-2.24,2.17-1.5,2.89-3,.72,0,1.44.75,2.16.75Zm5.78,1.5c0,.75.72,1.5.72,2.25h-.72c0-.75,0-1.5-.73-1.5a2.19,2.19,0,0,1-1.44-.75v-1.5c.72.75,1.44.75,2.17,1.5Zm16.59-1.5a.73.73,0,0,0-.72.75H268c-.72,0,0,.75-.72,0,.72.75-.72-.75,0-.75Zm11.54.75h-.72a.73.73,0,0,0,.72-.75Zm-7.93,1.5c-1.45-.75-2.17,2.25-2.17.75a2.65,2.65,0,0,1,.72-1.5c.73,0,1.45,0,1.45-.75Zm11.54,2.25h-.72a2.49,2.49,0,0,0-1.44-.75.73.73,0,0,0-.72-.75H281a1.07,1.07,0,0,0,0-1.5C281,235.34,283.17,235.34,283.17,236.84Zm-2.88-3c.72,0,0,.75,0,.75h-.73A.72.72,0,0,1,280.29,233.84Zm-11.55,3c.72,1.5-.72,2.24,0,3v-.75l.72-.74a2.82,2.82,0,0,1-.72,2.24v.75c.72,0,.72,0,1.44-.75,0,1.5-1.44,2.25-.72,3l.72-.75c.73.75-.72,1.49,0,2.24a2.64,2.64,0,0,0,.73-1.49c.72,1.49,0,1.49-.73,2.24,0,1.5,0,2.25.73,3s.72.75.72,1.5-.72.74-.72,1.49v.75a.72.72,0,0,1-.73-.75c0-.75.73-1.49.73-2.24a.73.73,0,0,0-.73.75c0-.75.73-2.25,0-3,0-.75,0-2.25-.72-3,0-.74-1.44-1.49-.72-3a2.83,2.83,0,0,1-.72-2.25c0-1.49.72-3,.72-4.49Zm-13-.75v.75a.73.73,0,0,1-.72.75c0-1.5-1.44-1.5-1.44-2.25a2.19,2.19,0,0,1,1.44-.75c.72,0,0,.75.72,1.5Zm20.21-1.5c-.73.75,0,2.25-1.45,2.25-.72,0-.72.75-1.44.75s0-.75,0-1.5c.72,0,1.44.75,2.16,0C275.23,235.34,275.23,234.59,276,234.59Zm-13.71.75a.73.73,0,0,0-.72.75h-.72l.72.75a2.65,2.65,0,0,0,.72-1.5c.72.75,0,.75,0,.75a1.33,1.33,0,0,1-2.17,0c-.72,0-.72,0-.72-.75h1.45C260.81,234.59,261.53,235.34,262.25,235.34Zm8.66,1.5a.73.73,0,0,1-.73-.75c0-.75.73-.75,1.45-.75C271.63,235.34,272.35,236.84,270.91,236.84Zm-18.76,0a.73.73,0,1,1-1.45,0h-1.44l.72-1.5C250.7,235.34,250.7,237.59,252.15,236.84Zm9.38.75c.72-.75,1.44-1.5,2.16-1.5,0,.75.72,1.5,0,2.25h-1.44c-.72-.75-1.44,0-2.17,0s-1.44.74-2.16-.75l.72-2.25C259.36,236.09,260.08,237.59,261.53,237.59Zm-7.94-.75c-.72.75,0,.75-.72,1.5,0-.75-.72-1.5-.72-2.25C252.87,236.09,252.87,236.84,253.59,236.84Zm7.22-.75c0,.75-.73,0-.73,0Zm-18.76,1.5a.73.73,0,0,1-.72.75h-1.45c.72-.75,1.45-.75,2.17-1.5h.72Zm20.92,0,.72-.75A.73.73,0,0,1,263,237.59Zm4.33,0c.72,1.49-1.44,1.49-1.44,2.24h-.73c.73-.75-.72-.75,0-1.49a.72.72,0,0,1,.73-.75c.72.75,0,.75.72,1.49,0-.74.72-.74,0-.74v-1.5A.71.71,0,0,1,267.3,237.59Zm15.15,0v.75c-.72-.75-.72-1.5-1.44-1.5C281.73,236.84,281.73,236.84,282.45,237.59Zm-34.63,0c0,.75,1.44,1.49,0,3,.72-.75,0-1.5,0-2.24a2.49,2.49,0,0,1-1.44-.75v-.75a2.49,2.49,0,0,0,1.44.75Zm28.86,1.49a2.37,2.37,0,0,0,.72,1.5l1.44-.75c-.72.75.72,2.25,0,2.25-1.44,0-1.44-2.25-2.16-1.5-.72-.75,0-2.24,0-3a.71.71,0,0,0,.72-.75c.72.75,0,1.5-.72,2.24Zm-25.25,0c0-.74.72,0,.72,0a.73.73,0,1,1-1.45,0,2.49,2.49,0,0,1-1.44-.74v.74c0,.75,1.44.75,2.17,1.5v.75a.73.73,0,0,1-.73.75c0-1.5-2.16-.75-1.44-3l-.72-.74.72-1.5c.72,1.5,1.44,1.5,2.17,2.24Zm26.69-.74c0-.75,0-.75.72-1.5C278.84,237.59,278.84,237.59,278.12,238.34Zm-29.58-.75h0Zm7.21.75h.73c0,.74,0,0,.72,0a.71.71,0,0,1-.72.74l-.73,1.5c-.72-.75,0-2.24-1.44-2.24v-.75l.72.75a.73.73,0,0,0,.72-.75Zm15.88,0c-.72,0-.72.74-1.45,1.49-.72-.75.73-1.49.73-2.24h.72Zm3.6.74c-.72.75-2.16.75-1.44,1.5-.72,0-.72-.75,0-.75,0-.75.72-.75.72-1.49l.72-.75Zm5.78-.74-.72-.75H281Zm-36.8.74h-.72c.72,0-.72-.74,0-1.49C243.49,238.34,244.21,238.34,244.21,239.08Zm-2.88-.74h-.73v-.75C241.33,237.59,241.33,237.59,241.33,238.34Zm1.44,0h-.72l.72-.75Zm10.1.74c.72,0,.72,0,.72-.74v.74c-.72.75.72,1.5-.72,2.25.72,1.5-.72,1.5-.72,3-.72.75,0,1.5-.72,2.25.72,1.5-.73,2.25,0,3v.75c0-.75-.73-2.25-.73-3v-.75s.73.75.73,0-.73-1.5,0-2.25v.75c.72-.75,0-1.49,0-2.24v-.75a.73.73,0,0,1,.72.75v-2.25c0-.75,0,.75.72.75.72-.75-.72-1.5-.72-3a.72.72,0,0,1,.72.74Zm28.14,0h-.72l.72-.74Zm-38.24-.74v0Zm35.35.74h.72c0,.75.72,0,.72.75s.73.75,0,.75a.73.73,0,0,0-.72-.75c-.72,0-1.44,0-1.44-.75Zm-29.58,2.25c0,.75,0,1.5-.72,1.5.72-1.5-1.44-2.25-1.44-3.75C247.82,239.83,247.1,241.33,248.54,241.33Zm15.87,0-.72.75v-1.5l.72-1.5C265.13,239.83,264.41,240.58,264.41,241.33Zm7.94-2.25c.72,1.5-1.44.75-1.44,2.25,0-.75.72-.75.72-1.5Zm-30.3.75h.72v.75s-.72-.75-.72,0c0-.75-.72-.75,0-1.5Zm15.15,0c.72,0,.72,0,1.44.75v-.75c0,.75-.72,1.5,0,2.25a2.49,2.49,0,0,1-1.44-.75c0-.75-1.45-.75-.72-1.5Zm5.77.75v.75c-.72.75-.72.75-1.44.75v-1.5c0-.75,0,0,.72-.75C262.25,240.58,262.25,240.58,263,240.58Zm-2.89,0h.73c-.73,0-.73,0-.73.75a.72.72,0,0,1,.73.75c-.73,0-1.45,0-1.45-.75,0,0-.72-.75,0-.75Zm-5,.75v0Zm20.2,1.5H276c.72,0,0,.75,0,1.49h.72c-.72,0-.72,0-1.45-.74.73,0,.73-.75,0-.75-.72.75-.72,0-.72,0,0-.75,0-2.25.72-2.25C276,241.33,273.79,242.83,275.23,242.83Zm-24.53.75s-.72.74-.72,0v-.75c-.72-.75-1.44-1.5-1.44-2.25h.72a4,4,0,0,1,1.44,3Zm16.6-1.5v-.75S268,241.33,267.3,242.08Zm5.77,0c-.72,0-1.44,0-1.44.75a2.58,2.58,0,0,0,2.16-.75c.72,1.5-1.44,1.5-1.44,3h.72c0-.75.72-.75,1.44-1.49,0,.74.72.74,0,.74,0,.75-.72,1.5-.72,2.25h.72c.72,0,0-1.5,1.45-1.5,0,1.5-2.17,1.5-.73,3a.73.73,0,0,0,.73-.75l.72-1.5c.72.75-1.45,2.25,0,3l.72-1.5c.72,1.5-1.44,2.25,0,3-.72,0-.72-.75-1.44-1.5l-2.17-2.25c0-.75-1.44-.75-1.44-2.25,0-.74-1.44-1.49-.72-2.24,0-.75,1.44-1.5,1.44,0Zm-26,0a.71.71,0,0,0-.72.75c0,.75,2.88,1.49.72,2.24-.72.75.72.75.72,2.25h-1.44c0-.75.72-.75,0-1.5a2.64,2.64,0,0,1-.73-1.5c.73,0,.73.75,1.45.75v-.75c-.72-.74-1.45-1.49-.72-2.24C245.65,241.33,247.1,242.08,247.1,242.08Zm18.76.75s-.73-.75,0-.75C265.86,242.08,266.58,242.83,265.86,242.83Zm-10.11.75H255c-.72-.75.72-.75.72-1.5C256.48,242.08,256.48,242.83,255.75,243.58Zm-.72-1.5-.72.75v-.75Zm-1.44,0v0Zm14.43,1.5s.72.74,0,.74c0-.74-.72-.74-.72-1.49C268,242.83,268,242.83,268,243.58Zm-9.38-.75c-.72.75-1.44,1.49-1.44,2.24a.73.73,0,0,1-.72-.75c.72-.74.72-2.24,1.44-1.49Zm7.22,1.49v.75c0-1.49-2.17-.75-2.17-2.24C264.41,242.83,264.41,244.32,265.86,244.32Zm-2.17.75c.72,0,.72.75,0,.75,0-1.5-2.16-1.5-2.16-3,0,.75.72,0,.72,0C263,243.58,263.69,244.32,263.69,245.07ZM250,244.32c.72.75.72.75.72,1.5-.72,0-1.44,0-1.44.75a2.65,2.65,0,0,1,.72,1.5h-1.44c.72.75.72.75.72,1.5a.71.71,0,0,1-.72.75c0,.74.72.74.72,1.49l-.72.75v-1.5c-.72,0-1.44,0-1.44-.74v-.75l1.44.75a1.07,1.07,0,0,0,0-1.5.71.71,0,0,1-.72-.75v-.75c.72,0,.72.75,1.44,0,0-.75-.72-.75-1.44-1.5.72,0,0-.75.72-.75a.73.73,0,0,0,.72.75c.72-.75-2.16-2.24,0-3C249.26,243.58,249.26,244.32,250,244.32Zm10.1-1.49a1,1,0,0,1,0,1.49,2.19,2.19,0,0,1-1.44.75h-.72C258.64,244.32,259.36,242.83,260.08,242.83Zm7.22,1.49a.73.73,0,0,1-.72.75c.72-.75-1.45-1.49,0-2.24Zm-13,0c.72.75-.72.75-.72.75,0-.75,0-.75.72-1.49Zm-1.44,0c.72,0,0,.75,0,.75C252.15,245.07,252.87,244.32,252.87,244.32Zm10.82,3c0,.75,0,.75-.72.75a2.65,2.65,0,0,0-.72-1.5,1.58,1.58,0,0,1-1.44-1.5.71.71,0,0,0,.72-.75,10.32,10.32,0,0,1,2.16,3Zm-7.94-2.25c0,.75-.72,1.5-.72,2.25v-1.5c0-.75.72-.75.72-1.5Zm13,0s0,1.5-.72,1.5c0-.75.72-.75.72-1.5-.72,0-.72.75-1.44.75,0,0,.72.75,0,.75,0,0-1.44-.75-.72-1.5l.72.75C267.3,245.07,268,244.32,268.74,245.07Zm-2.16,2.25h-.72c0-.75-1.45-.75-.73-2.25C265.13,245.82,266.58,246.57,266.58,247.32Zm-5.77-1.5c0,1.5-2.17,1.5-1.45,3h-1.44v-1.5c1.44,0,.72-2.25,2.16-1.5Zm10.82,2.25.72-1.5c1.44,1.5-.72,3,.72,3.75,0-.75.72-1.5.72-2.25,1.44,1.5-1.44,2.25,0,3.74-.72,0-.72-1.49-1.44-1.49-.72-1.5,0-2.25-1.44-2.25v-1.5l.72-.75C272.35,246.57,270.91,247.32,271.63,248.07Zm-25.25.75c.72,0,0,.75,0,.75,0-1.5-2.17-2.25-1.45-3.75C246.38,246.57,245.65,248.07,246.38,248.82Zm6.49-2.25s0,.75-.72,0a.71.71,0,0,0,.72-.75Zm4.33-.75c0,.75-.72,1.5,0,2.25-.72,0-.72,0-.72-.75v-1.5Zm-2.89,1.5-.72.75c-.72-.75,0-1.5.72-2.25Zm11.55,2.25c-.73,0,0-.75-.73-1.5-.72,0,0-.75-.72-1.5h.72C264.41,248.07,266.58,248.07,265.86,249.57Zm-3.61-1.5c.72.75,2.88,1.5.72,2.25,0-.75,0-1.5-.72-1.5a2.49,2.49,0,0,0-1.44-.75v-.75C261.53,247.32,262.25,247.32,262.25,248.07Zm7.21-.75a.71.71,0,0,1-.72.75v-.75C268.74,246.57,269.46,246.57,269.46,247.32Zm-16.59,1.5c-.72-.75-.72-.75,0-1.5Zm2.88-1.5c0,1.5-.72,1.5,0,2.25H255C255,248.82,255.75,248.07,255.75,247.32Zm5.78,2.25c.72,0,1.44,0,1.44.75a.71.71,0,0,0,.72.74c.72.75,0,.75,0,1.5H263c.72-.75,0-1.5-.72-1.5-1.44-.74-1.44-1.49-2.17-2.24,0,1.5-1.44,1.5-.72,2.24-.72.75-.72,0-.72,0-.72-1.49,1.44-1.49.72-3,.72,0,.72,0,1.45-.75C260.08,248.07,260.81,248.82,261.53,249.57Zm6.49-.75v.75c0-.75-2.16-1.5-.72-1.5Zm-10.1.75c-.72.75-1.44.75-1.44,1.49h0v-1.49l.72-1.5A2.65,2.65,0,0,1,257.92,249.57Zm-12.27.75v.74c0-1.49-1.44-1.49-.72-3C245.65,248.07,245.65,249.57,245.65,250.32Zm7.94,0c-.72-.75,0-1.5.72-1.5A2.65,2.65,0,0,0,253.59,250.32Zm15.87-1.5v.75c-.72,0-1.44-.75-.72-.75C269.46,248.07,269.46,248.82,269.46,248.82Zm-18.76,1.5v.74c.73-1.49-.72-1.49,0-2.24,0,.75.73.75,0,1.5Zm15.16,1.49-.73.75a.73.73,0,0,1,.73.75v.75a2.64,2.64,0,0,0-.73-1.5c-.72,0,0-1.5-.72-1.5a.73.73,0,0,1,.72.75h.73c0-1.49-1.45-1.49-1.45-3C265.13,249.57,266.58,250.32,265.86,251.81Zm-13-2.24h-.72S252.15,248.82,252.87,249.57Zm22.36,3c.73-.75.73-1.5,1.45-2.24v1.49c-.72,0-.72.75-.72,1.5h.72c-.72.75-1.45,0-2.17-.75,0,0-.72-1.5,0-2.24l.72-.75c.73.75-.72,2.24,0,3Zm-7.21-.75c0-.75-2.16-1.49-1.44-2.24C267.3,250.32,268,251.06,268,251.81Zm-18-.75h-.72v-.74C250,250.32,250,250.32,250,251.06Zm4.33-.74c.72.74,0,.74,0,1.49a.73.73,0,0,1-.72.75,2.8,2.8,0,0,1,.72-2.24Zm1.44,0c0,.74-.72,1.49,0,2.24H255C255,251.81,255.75,251.06,255.75,250.32Zm-10.82.74c.72,0,.72.75.72,1.5-.72,0,0-.75-.72-.75,0-.75-.72-.75,0-1.49Zm7.94,1.5a2.82,2.82,0,0,1-.72-2.24A2.8,2.8,0,0,1,252.87,252.56Zm15.87-1.5v0Zm1.44,3c0,1.5-1.44,1.5-1.44,3,1.44,0,1.44,1.5,2.17,1.5,1.44,3,.72,6.74.72,9.74a.72.72,0,0,0,.72.74c0-3,.72-6,0-9.73a.73.73,0,0,1,.72.75c.72,3-.72,6,0,8.24.72,1.49,0,3,.72,3.74v-.75c-.72.75,0,1.5.72,1.5-1.44,0-1.44-2.25-2.16-3,0,1.5,0,3,1.44,3.75.72,0,0,.74.72.74,0,.75,1.45.75.72,1.5v0h-.72c0-.75,0-1.5-.72-1.5,0,.75,0,1.5-.72,1.5l-1.44-1.5c-.72-2.24-.72-3.74-1.45-5.24-3.6-3,0-8.23-1.44-12v-2.24c1.44,0,.72-1.5,1.44-2.25,0-.75-.72-1.5,0-1.5C269.46,251.81,270.91,253.31,270.18,254.06Zm-12.26-1.5s-1.44.75-1.44,1.5v-1.5c.72-.75.72-1.5,1.44-1.5Zm-6.49-1.5v1.5a1.06,1.06,0,0,1,0-1.5Zm20.92,1.5a1.07,1.07,0,0,0,0,1.5.73.73,0,0,1-.72-.75,2.83,2.83,0,0,1,.72-2.25C273.07,251.06,273.07,251.81,272.35,252.56Zm-9.38.75s1.44,0,.72.75v.75c0-.75-1.44-1.5-2.16-2.25a2.37,2.37,0,0,0-.72-1.5C261.53,251.81,263,251.81,263,253.31Zm-2.16-2.25c.72,1.5-2.17,1.5-1.45,3l-.72-.75a.73.73,0,0,1,.72-.75l.72-.75A.73.73,0,0,1,260.81,251.06Zm-12.27,2.25a.71.71,0,0,1-.72.75c-.72,0,0-.75,0-.75-.72-.75-1.44-.75-.72-1.5Zm2.89-.75c-.73,0,0,.75-.73.75,0-.75,0-1.5-.72-1.5C250.7,251.81,251.43,251.81,251.43,252.56Zm16.59,0c-.72.75,0,.75-.72.75,0,0-1.44-.75-.72-1.5C267.3,252.56,267.3,252.56,268,252.56Zm5.77.75c0,.75-1.44,1.5-.72,2.25a2.37,2.37,0,0,1-.72-1.5c.72-.75.72-2.25,1.44-.75Zm-18,1.5c-.72-.75,0-1.5,0-2.25Zm13-1.5v0Zm-16.59.75c-.72,0-.72-.75-.72-1.5C251.43,253.31,252.15,253.31,252.15,254.06Zm2.88-.75-.72.75v-1.5A.73.73,0,0,1,255,253.31Zm-2.16,1.5v-1.5A1.07,1.07,0,0,1,252.87,254.81Zm10.1-.75v1.5h.72c0,.74,0,1.49-.72,1.49,0-.75,0-1.49-.72-1.49-.72-.75,0-1.5-.72-2.25-.72.75-2.17,1.5-1.45,3h0c-.72-.74-.72-.74-.72-1.49.72-.75.72-1.5,1.45-1.5s1.44.75,2.16.75Zm-12.27.75-.72.75c.72-1.5-1.44-1.5-.72-2.25.72.75,1.44.75,1.44,1.5Zm7.22-1.5c.72.75-1.44,1.5-.72,2.25.72,0,.72-.75,1.44-.75.72,1.49-1.44,1.49-.72,3v-.75l.72.75H257.2c-.72,0,0-.75,0-1.5s-1.45-.74-.72-1.49.72-1.5,1.44-1.5Zm7.21.75c-.72.75,1.45,1.5,0,2.24,0-.74-.72-1.49-.72-2.24s-.72-.75,0-.75A.71.71,0,0,1,265.13,254.06Zm10.1,0a2.82,2.82,0,0,0-.72,2.24c-1.44-.74,0-2.24,0-3A.73.73,0,0,1,275.23,254.06Zm-27.41,1.5c-.72,0-.72.74-.72,0-.72,0,0,0,0-.75-.72-.75-1.45-.75-.72-1.5,0,.75,1.44.75,1.44,2.25Zm23.09-1.5v2.24a.72.72,0,0,0-.73-.74,2.8,2.8,0,0,0,.73-2.25s.72.75,0,.75Zm-3.61,1.5a.71.71,0,0,0-.72.74c-.72-.74-.72-.74-.72-1.49l.72.75c.72,0-.72-.75,0-1.5.72,0,.72.75.72,1.5Zm-15.87.74h-.73a2.64,2.64,0,0,1,.73-1.49Zm16.59-.74v.74a1.06,1.06,0,0,1,0-1.49s.72.75,0,.75Zm-12.27-.75v0Zm-.72,0c0,.75,0,.75-.72,1.49v-1.49Zm-5.77,1.49v.75c-.72,0,0-.75-.72-.75.72,0,0-.74,0-1.49C249.26,255.56,250,255.56,249.26,256.3Zm3.61,0c1.44,1.5,0,3,.72,3.75.72-.75,0-2.25.72-2.25.72,1.5,0,3,0,4.5,0-.75,0-2.25-.72-1.5,0,2.24,1.44,5.24,0,7.49,0,.74-.72.74-.72,1.49V269c-.72,1.5-.72,3.75-2.17,5.24,0,.75,0,.75.73.75,0,.75-1.45,0-2.17.75l-.72.75v-3c.72,0,2.16.74,2.16,0a2.35,2.35,0,0,0,.73-1.5.73.73,0,0,0-.73.75v-1.5c-.72.75-.72.75-.72,1.5h-.72a2.83,2.83,0,0,0,.72-2.25h-.72c.72-3,1.44-6.74.72-9.73a11.52,11.52,0,0,1-.72,4.49c0-2.25-.72-4.49,0-6a2.37,2.37,0,0,0,.72,1.5c0-.75-.72-3,.72-2.25,0-1.5,1.45-1.5,1.45-3v-.75c.72.75,0,1.49.72,1.49Zm9.38.75a.73.73,0,0,0,.72.75c-.72,0-1.44,0-1.44-.75v-1.49c-.72.74-1.45,1.49-1.45,2.24-.72.75-.72,0-.72,0v-1.5c1.45.75.72-.74,1.45-.74.72.74,2.16.74,1.44,1.49Zm-7.94-.75c-.72,0-.72,0-.72-.74S253.59,256.3,254.31,256.3Zm18,.75h1.44s-1.44,1.5,0,1.5c-.72.75-.72,0-1.44-.75h-.72a1.07,1.07,0,0,1,0-1.5l.72-.74C272.35,256.3,270.91,257.05,272.35,257.05Zm-2.17-.75h-.72v-.74C270.18,255.56,270.18,255.56,270.18,256.3Zm-19.48.75a.71.71,0,0,0-.72.75c-.72-.75,0-.75,0-1.5C250.7,256.3,250,257.05,250.7,257.05Zm-2.16,0v.75h-.72v-1.5A.73.73,0,0,1,248.54,257.05Zm18,0c1.44,4.5-2.17,9,.72,13.48a2.83,2.83,0,0,1-.72,2.25c.72.75,1.44,0,1.44.75V275c-.72-.75-.72-2.24-1.44-2.24a10.75,10.75,0,0,0-1.45-4.49V269c0,1.5.73,3,0,4.5,0,.74.73,1.49,0,2.24,0,0,0-1.5-.72-1.5v1.5c-.72-.75,0-1.5,0-2.24h.72c-.72-3,0-5.24,0-7.49-.72,0,0,.75-.72,1.5-.72,1.49,0,3.74-.72,6V272c-.72-2.25.72-4.49.72-6.74v-6.74C265.86,258.55,265.86,255.56,266.58,257.05Zm4.33,0v.75l-.73-.75C270.18,256.3,270.91,256.3,270.91,257.05Zm-5.78,0a.71.71,0,0,0-.72.75v-.75Zm-4.32,2.25a1.06,1.06,0,0,1,0-1.5C261.53,257.8,261.53,258.55,260.81,259.3Zm-3.61-.75c.72,1.5,0,3.74,0,5.24.72,1.5.72,3,1.44,3.75v.75h-.72c0,.74.72,2.24,0,3v-1.5c-.72.75,0,1.5-.72,1.5a.73.73,0,0,0-.72-.75c0,.75,0,2.25-.73,3v0c0-.75.73-.75.73-1.5v-1.5a2.35,2.35,0,0,0-.73,1.5h0v-6.74a26.47,26.47,0,0,1-.72-7.49,2.6,2.6,0,0,1,2.17.75Zm10.82,1.5a21.56,21.56,0,0,1-.72,6.74c-.72-3,.72-6,.72-9,.72.75,0,1.5,0,2.25Zm4.33-1.5h-.72S272.35,257.8,272.35,258.55Zm-13,.75v.75c0,2.24,0,5.24-.72,6.74,0-2.25-.72-4.5-.72-6.74,0-.75,0-1.5.72-1.5Zm3.61-.75h0Zm.72.75c0,1.5.72,4.49,0,6a13.2,13.2,0,0,1-.72-5.24c-.72-.75,0-.75.72-.75Zm-1.44,2.25c-1.44,3.74,2.16,7.48,0,11.23,0,1.49.72,1.49.72,3-.72,0-2.16,0-2.89-.75s0-1.49-.72-2.24c.72-2.25,0-4.49.72-6.74v-4.49c-.72-.75.73-.75.73-.75C261.53,260.8,262.25,260.8,262.25,261.55Zm-10.1,8.23c0-2.24.72-3.74.72-6v-3C253.59,263.79,252.87,266.79,252.15,269.78ZM255,266c-.72,2.25,1.45,6-.72,6.74-.72-.75,0-1.5,0-2.25,0-1.5.72-3,.72-5.24Zm13.71,3v3.75c-1.44,0-.72-1.5-.72-3-.72-.75,0-1.49,0-2.24C268.74,267.54,268,268.29,268.74,269Zm-15.15,1.5c-.72,0,0-.75,0-1.5Zm16.59,1.5a.73.73,0,0,1-.72-.75v-1.5c.72.75,0,1.5.72,2.25Zm-10.82-2.25v1.5a2.65,2.65,0,0,1-.72-1.5Zm-.72,3.75v.74a.71.71,0,0,1,.72.75v0h-1.44v-.75a.72.72,0,0,0-.72-.74l-.72.74.72.75s0-.75-.72,0c-.73,0,0,.75,0,.75a1.42,1.42,0,0,1,0-2.24v-.75c.72,0,.72.75.72,0l.72-.75c.72,0-.72,1.5.72,1.5Zm9.38-.75h-.72V272A.73.73,0,0,1,268,272.78ZM252.87,272c.72.75,0,.75,0,.75Zm17.31.75v.75l-.72-.75Zm-15.15,0c0,.75-.72,1.49-.72,2.24-.72,0-.72-.75-.72,0-.72,0,0,0-.72.75V275c.72-.75,1.44-.75,1.44-2.24ZM270.18,275v0c-.72,0,0,1.5-.72.75,0-1.5-.72-1.5-.72-3C269.46,273.53,269.46,275,270.18,275Zm7.22-1.49c-.72.74,0,.74.72,1.49a.71.71,0,0,1,.72.75.73.73,0,0,1-.72-.75l-.72.75c-.72-.75-.72-2.24-1.44-3C276.68,272.78,276.68,273.53,277.4,273.53Zm-30.3-.75c0,1.49-.72,2.24-.72,3-.73,0-.73,0-.73-.75.73,0,.73-.75.73-2.24Zm6.49.75c.72.74-.72.74-.72.74h0Zm13,0s-.72.74,0,.74a.71.71,0,0,1,.72.75v.75c-.72-.75,0-.75-.72-1.5v1.5c-.72,0-.72-.75-.72-1.5A.72.72,0,0,1,266.58,273.53Zm-18.76,0c.72.74-.72,1.49,0,3h-.72v-.75h-.72V275h.72C247.82,275,247.1,273.53,247.82,273.53Zm28.14,0c.72.74,0,1.49.72,1.49-.72,0-2.17-.75-2.17-1.49ZM271.63,275a.73.73,0,0,1-.72.75v-1.5Zm-2.89,0H268l.72-.75ZM255,274.27c-.72.75.72,2.25-.72,1.5C254.31,275,254.31,274.27,255,274.27Zm-6.49.75c0,.75-.72.75,0,.75h-.72V275Zm-2.16,1.5h-.73v-.75Zm30.3,0H276v-.75h.72Zm.72-.75v0Zm-10.1,3.75c1.44,1.49,1.44,3.74,1.44,5.24a7.26,7.26,0,0,1-5.05,5.24,6.74,6.74,0,0,1-7.21-3,23.61,23.61,0,0,1-.73-6.73c1.45-2.25,2.89-3.75,5.06-3.75A5.26,5.26,0,0,1,267.3,279.52Zm-11.55-3-.72.75h-.72C254.31,276.52,255,276.52,255.75,276.52Zm.73,0a.73.73,0,0,0-.73.75C255.75,276.52,255.75,276.52,256.48,276.52Zm1.44,0c-.72,0-.72,1.5-1.44.75l.72-.75Zm10.1.75a.73.73,0,0,1-.72-.75A.71.71,0,0,1,268,277.27Zm1.44,0c-.72.75-.72-.75-1.44-.75C268.74,276.52,269.46,276.52,269.46,277.27Zm-15.87-.75s.72.75,0,.75c0,.75-.72,0-.72,0Zm13.71.75c-.72.75-.72-.75-1.44-.75C266.58,276.52,266.58,276.52,267.3,277.27Zm2.88,0,.73-.75v.75h-.73l-.72-.75C270.18,276.52,270.18,276.52,270.18,277.27Zm2.17,0c-.72.75-.72-.75-1.44-.75C271.63,276.52,272.35,276.52,272.35,277.27Zm.72,0c-.72.75,0-.75-.72-.75A.71.71,0,0,1,273.07,277.27Zm-20.92-.75c.72,0,0,.75,0,.75,0,.75,0,0-.72.75v-.75Zm22.36.75c0,.75,0,0-.72,0v-.75Zm1.45,0c-.73.75-.73,0-1.45-.75h.72A.72.72,0,0,0,276,277.27Zm-26-.75c0,.75,0,.75-.72,1.5C249.26,277.27,249.26,276.52,250,276.52Zm1.45,0c0,.75-.73.75-.73,1.5C250,277.27,250.7,276.52,251.43,276.52Zm-2.89,0c.72.75,0,.75,0,1.5C247.82,277.27,248.54,277.27,248.54,276.52Zm28.14.75V278l-.72-1.5a.73.73,0,0,1,.72.75Zm-9.38,3c1.44,1.49.72,4.49,0,6-1.44,2.24-4.33,3-6.49,3-.73,0-1.45-.75-2.89-1.5-1.44-1.49-2.17-3.74-1.44-6.74,0-1.49,2.16-3,3.6-3.74,2.89-.75,5.78,0,7.22,3Zm10.1-3v0Zm-31,.75v0Zm32.46-.75V278a.73.73,0,0,1-.72-.75Zm-15.87,0-.72,4.49v-4.49C262.25,278,263,277.27,263,277.27Zm-17.32.75v0Zm15.88,3.74c0-1.49-.72-3-.72-4.49h.72Zm2.88-3.74c-.72,1.5-1.44,2.25-1.44,3.74a9.85,9.85,0,0,1,.72-4.49A.71.71,0,0,0,264.41,278Zm-4.33,0c.73.75.73,2.25,1.45,3.74a16.65,16.65,0,0,0-2.17-3.74Zm10.83,1.5a.73.73,0,0,0,.72-.75V278c.72,0,0,.75.72.75.72.75,0,.75.72,1.5l-1.44,1.49c-.72,0,0,.75-.72.75,0,0-.73.75-.73,0a.72.72,0,0,0,.73-.75c-.73,0-.73.75-1.45,0h.72c0-.75-.72-1.49,0-2.24s-.72-1.5,0-1.5,0,.75.73,1.5Zm-1.45-1.5c.72.75,0,1.5,0,3-.72,0-.72-1.49-1.44-2.24l-.72-.75Zm-20.2.75a1.07,1.07,0,0,0,0,1.5c.72.74.72,1.49.72,3,.72.75,2.17-.75,2.89,0,.72,0,1.44.75,1.44,0a6.47,6.47,0,0,1,1.44-4.49c0,.75-.72.75,0,1.5-.72.74,0,2.24-.72,3,0,.75-1.44,0-2.16.75a2.83,2.83,0,0,1,.72,2.25c.72,0,0,0,0,.74a5.41,5.41,0,0,1-2.89-1.49c0,1.49-1.44,0-2.16,0v-.75a2.8,2.8,0,0,1-.72,2.24c-.72,0-1.44,0-1.44.75-.73.75.72.75,1.44,1.5a1,1,0,0,1-1.44,0,2.8,2.8,0,0,1-.73-2.25c.73-.74,2.17-.74,1.45-1.49s.72-1.5,0-2.25v-3h-.72c.72,0,0,1.49,0,1.49-.73,0-.73-.75,0-.75,0-1.49,0-3,1.44-3C248.54,278,248.54,278.77,249.26,278.77Zm6.49-.75c0,.75-.72,1.5-1.44,2.25s0,1.49-.72,3c-.72-1.5-2.89.75-2.89-1.5-.72-1.49-1.44-2.24-1.44-3.74Zm5.06,3.74c-.73-.75-1.45-2.24-2.89-3a.73.73,0,0,0,.72-.75c.72,1.5,1.44,2.25,2.17,3.74Zm5.05-3a5.74,5.74,0,0,0-2.89,3c.72-1.49,1.44-2.24,2.16-3.74A.72.72,0,0,0,265.86,278.77Zm5.77-.75a.73.73,0,0,1-.72.75V278Zm3.6.75H276c0,.75,0,0-.73.75H276a5.81,5.81,0,0,1,.72,3h-1.45v-.75a.73.73,0,0,0-.72-.75c0-.74-1.44,0-1.44-1.49,0-.75-.72-.75,0-.75l-.72-.75C273.79,278,275.23,278,275.23,278.77Zm5.06,3a16.86,16.86,0,0,1-.73,6v.75a44.32,44.32,0,0,0-.72-9.73V278c.72,1.5.72,3,1.45,3.74Zm-2.17,0c.72-1.49,0-2.24,0-3.74,1.44,3,1.44,7.49.72,10.48v-3c-.72.75-.72,2.24-.72,3,0-1.5.72-3.74-1.44-5.24v-3.74h.72v2.24c.72-1.49,0-2.24,0-3.74C278.12,278.77,278.12,280.27,278.12,281.76Zm-18,0a3.69,3.69,0,0,0-2.88-1.49l.72-1.5Zm6.5-2.24v.75c-1.45,0-2.17.74-3.61,1.49l2.89-3C266.58,278.77,265.86,279.52,266.58,279.52Zm-23.09,0c1.44,2.24,1.44,6,.72,9A37.83,37.83,0,0,0,243.49,279.52Zm2.16.75v0Zm-.72,2.24.72-.75-.72-2.24a.73.73,0,0,0,.72.75v2.24a.71.71,0,0,1,.72.75v1.5c-2.16,0-.72,3-1.44,4.49a41.06,41.06,0,0,0-.72-9.73C244.93,280.27,244.93,281.76,244.93,282.51Zm26.7-3c0,.75,0,.75-.72.75S270.91,279.52,271.63,279.52ZM281,284v2.25l-.72-6c.72.74.72,2.24.72,3.74Zm-20.93-1.5c-.72,0-2.16-.75-3.6-.75,0-.75.72-.75.72-1.49.72.74,2.16,1.49,2.88,2.24Zm7.22-.75c-1.44,0-2.89,0-3.61.75.72-.75,2.17-1.5,2.89-2.24Zm4.33-1.49V281h0Zm2.88.74c0,.75-.72,1.5-.72,2.25.72,1.5-.72,2.25-.72,4.49-.72.75.72,2.25-1.44,1.5a.73.73,0,0,0,.72-.75v-.75l-.72-1.49a2.83,2.83,0,0,0,.72-2.25,2.83,2.83,0,0,0-.72,2.25c-.72-.75,0-.75,0-1.5l-.72.75c-.73-.75.72-.75.72-1.5a.73.73,0,0,1,.72-.75c-.72,0,0-.75-.72-.75,0-.75,1.44-.75,2.16-1.5Zm-14.43,2.25c-1.44-.75-2.88,0-3.6,0v-1.5C257.92,282.51,258.64,282.51,260.08,283.26Zm7.22-1.5v.75a7.59,7.59,0,0,0-3.61.75H268l-.72.75c-.72,0-2.17-.75-3.61-.75v-.75C265.13,282.51,266.58,282.51,267.3,281.76Zm-4.33.75c.72.75,0,1.5-.72,2.25a2.49,2.49,0,0,1-1.44-.75v-1.5l.72-.75C262.25,281.76,263,281.76,263,282.51Zm-19.48,3.75v-4.5C243.49,283.26,244.21,284.76,243.49,286.26Zm19.48-3-.72.75c-.72,0-.72,0-.72-.75-.72,0,0-.75,0-.75C262.25,281.76,262.25,282.51,263,283.26Zm18.76,0v0Zm-12.27,0v0Zm7.94,1.5c0,1.5-1.44,2.24-2.17,4.49h-.72c0-1.5,2.17-2.25,1.45-3.74a2.61,2.61,0,0,1-2.17.75c0-.75.72-1.5.72-2.25a2.6,2.6,0,0,1,2.17-.75C276.68,284,277.4,284,277.4,284.76Zm-6.49-1.5h0Zm-28.14,1.5c-.72,0,0-.75,0-1.5Zm17.31-1.5a2.58,2.58,0,0,1-2.16.75l-1.44.75v-1.5C257.92,284,259.36,283.26,260.08,283.26Zm9.38.75c0,1.5,2.17,2.25.72,3.74,0,.75-.72.75-.72,1.5-.72.75-2.16,0-2.88.75,0-.75,0-1.5.72-1.5a1.58,1.58,0,0,1,1.44-1.5c0-1.49.72-2.24.72-3.74C270.18,284,269.46,284,269.46,284Zm1.45.75h-.73l1.45-1.5C271.63,284,270.91,284,270.91,284.76Zm.72,0,.72-1.5Zm-5.77,0V284l.72.75c0-.75.72,0,.72,0s-.72.75,0,.75c-1.44-.75-2.17-1.5-3.61-1.5A2.61,2.61,0,0,1,265.86,284.76Zm5.05-.75h0Zm-10.83,0c-.72.75-2.16,1.5-2.88,2.25,0-.75,0-1.5-.72-1.5.72,0,2.16,0,2.88-.75Zm6.5,2.25V287l-2.89-3C264.41,284.76,265.86,285.51,266.58,286.26ZM255,284v.75h.72a.71.71,0,0,0-.72.75.73.73,0,0,1,.72.75h0c-.72-.75-.72,0-.72,0l-.72-.75v-.75A.71.71,0,0,1,255,284Zm5.78.75a10.08,10.08,0,0,0-2.89,2.24.71.71,0,0,1-.72-.74,15.51,15.51,0,0,1,3.61-2.25Zm2.88.75c.72,0,1.44,1.49,2.17,1.49.72.75-.73,0-.73.75-.72-.75-1.44-2.24-2.16-3V284C263.69,284.76,263.69,284.76,263.69,285.51Zm-2.88-.75c-.73.75-.73,2.24-1.45,3.74a.71.71,0,0,0-.72-.75,10.21,10.21,0,0,1,2.17-3Zm2.88,1.5c.72.74.72,1.49,1.44,1.49l-.72.75h-.72a7,7,0,0,0-.72-3.74c.72,0,0,1.5.72,1.5Zm-2.88,2.24v.75c-.73-.75-.73-.75-1.45-.75.72-1.5,1.45-2.24,2.17-3.74C261.53,286.26,260.81,287,260.81,288.5Zm1.44.75c-.72,0-.72-.75-1.44-.75.72-.75.72-2.24.72-3.74C261.53,286.26,262.25,287.75,262.25,289.25Zm.72-3h-.72c.72.74.72,1.49,1.44,2.24a2.19,2.19,0,0,0-1.44.75c0-1.5.72-3,0-4.49A2.37,2.37,0,0,0,263,286.26Zm-16.6-1.5c0,.75,0,.75-.72.75S245.65,284.76,246.37,284.76Zm-.72,1.5v3c-.72-.75,0-1.5,0-2.25C244.93,286.26,245.65,286.26,245.65,286.26Zm5,.74h.73a2.49,2.49,0,0,0,1.44.75c.72,0,.72,0,1.44.75,0,1.5-2.16.75-2.88,1.5h-2.89c-.72-.75-1.44-1.5-1.44-2.25.72,0,1.44-2.24,2.16-.75Zm26.7-.74c.72.74,0,.74,0,1.49Zm-21.65,1.49v1.5h0c0-.75-.72-1.5-1.44-2.25,0-.74.72,0,.72,0A.73.73,0,0,1,255.75,287.75Zm15.88-.75c0,.75-.72,1.5-.72,2.25a.72.72,0,0,0-.73.75v-.75c0-.75.73-1.5.73-2.25C270.91,287,270.91,286.26,271.63,287Zm2.88,1.5c-.72,0,0,.75-.72.75v-.75s-.72,0,0-.75V287h1.44Zm-18-.75c-.73,0,0,.75-.73.75V287A.73.73,0,0,0,256.48,287.75Zm20.92,1.5h-.72c.72-.75-.72-1.5.72-2.25ZM255,288.5v.75h-.72c.72-.75,0-1.5-.72-2.25.72.75,1.44.75,1.44,1.5Zm20.93.75v-1.5C276.68,288.5,276,288.5,276,289.25Zm-18.76,0h-.72v-.75h.72Zm20.92,0v0Zm-.72.75v0Zm-30.3,0v.75a.73.73,0,0,1-.73-.75S247.1,289.25,247.1,290Zm9.38,0a.73.73,0,0,1-.73.75C255.75,290,255.75,290,256.48,290Zm-8.66.75c-.72-.75,0-.75,0-.75Zm.72-.75c.72,0,0,.75,0,.75Zm.72,0v0Zm1.44,0v.75H250C250,290,250,290,250.7,290Zm.73,0c.72,0,0,.75,0,.75Zm1.44.75h-.72V290h.72Zm.72-.75v.75h-.72C252.87,290,252.87,290,253.59,290Zm.72,0c.72,0,0,.75,0,.75Zm2.89.75h-.72l.72-.75C257.92,290,257.2,290.75,257.2,290.75Zm15.15,0s-1.44-.75-.72-.75A.71.71,0,0,1,272.35,290.75Zm1.44,0h-.72l-.72-.75C273.07,290,273.07,290,273.79,290.75Zm1.44,0a.73.73,0,0,1-.72-.75A.71.71,0,0,1,275.23,290.75Zm0-.75v0Zm-19.48,0a.73.73,0,0,1-.72.75A.73.73,0,0,1,255.75,290Zm2.89,0v.75h-.72A.71.71,0,0,1,258.64,290Zm11.54.75c0,.75-.72,0-.72-.75A.73.73,0,0,1,270.18,290.75Zm1.45,0c-.72.75-.72,0-1.45-.75C270.91,290,270.91,290,271.63,290.75Zm2.88,0a.73.73,0,0,1-.72-.75Zm-8.65,0c-.73.75-.73,0-.73-.75A.72.72,0,0,1,265.86,290.75Zm2.16,0s-.72.75-.72,0V290A.73.73,0,0,1,268,290.75Zm1.44,0c-.72.75-.72,0-1.44-.75C268.74,290,268.74,290,269.46,290.75Zm-10.1,0Zm7.22,0v0Zm-1.45,0h-.72V290Zm-4.32,0s-.73.75-.73,0Zm3.6,0c-.72,0-.72.75-.72,0C264.41,290,263.69,290.75,264.41,290.75Zm-1.44,0s0,.75-.72,0Zm-.72,0c-.72,0,0,.75-.72,0Zm-8.66.75c0-.75.72,0,.72,0,0,.75-.72,0-1.44,0h.72Zm18.76,0h0Zm1.44,0h0Zm-21.64,0h0Zm3.6,0a.73.73,0,0,1-.72.75v-.75Zm0,0c.73,0,0,.75,0,.75Zm1.45.75h-.72v-.75h.72Zm1.44,0h-.72c-.72-.75,0-.75,0-.75A.71.71,0,0,1,258.64,292.25Zm11.54-.75v.75a.73.73,0,0,0-.72-.75Zm1.45,0h0Zm-12.27,0v.75h-.72v-.75Zm1.45,0c0,.75,0,.75-.73.75v-.75Zm.72.75h-.72C260.81,291.5,261.53,291.5,261.53,292.25Zm1.44-.75a.71.71,0,0,1-.72.75A.71.71,0,0,1,263,291.5Zm1.44,0a.71.71,0,0,1-.72.75H263v-.75Zm.72,0v.75h-.72A.71.71,0,0,1,265.13,291.5Zm1.45,0c.72.75,0,.75-.72.75v-.75Zm1.44,0c0,.75,0,.75-.72.75v-.75Zm1.44,0v.75h-.72v-.75Zm1.45.75V293h-.73C270.18,292.25,270.18,292.25,270.91,292.25ZM255,293h-.72v-.74C255,292.25,254.31,293,255,293Zm15.15-.74a.71.71,0,0,1-.72.74C268.74,292.25,270.18,292.25,270.18,292.25Zm2.89,0c0,.74,0,.74-.72.74v-.74Zm1.44.74h-.72v-.74C274.51,292.25,274.51,292.25,274.51,293Zm-22.36.75c-.72-.75-.72-.75-.72-1.49h.72Zm1.44-.75h-.72v-.74A.72.72,0,0,1,253.59,293Zm2.16,0s-.72-.74,0-.74Zm.73,0c-.73.75-.73,0-.73,0C255.75,292.25,256.48,292.25,256.48,293Zm1.44-.74V293c-.72.75-.72,0-.72,0v-.74Zm10.82.74H268v-.74h.72Zm-9.38,0h-.72v-.74A.71.71,0,0,1,259.36,293Zm1.45-.74c0,.74,0,.74-.73.74C259.36,292.25,260.08,292.25,260.81,292.25Zm.72.74c-.72,0-.72,0-.72-.74C261.53,292.25,261.53,292.25,261.53,293Zm1.44,0h-.72C262.25,292.25,262.25,292.25,263,293Zm.72,0H263v-.74C263.69,292.25,263.69,292.25,263.69,293Zm1.44,0h-.72C264.41,292.25,265.13,292.25,265.13,293Zm.73,0v0Zm1.44,0h-.72v-.74C267.3,292.25,267.3,292.25,267.3,293Zm-16.6,0c-.72,0-.72,0-.72-.74A.72.72,0,0,1,250.7,293Z"/></g></g></svg>