<svg xmlns="http://www.w3.org/2000/svg" xmlns:xlink="http://www.w3.org/1999/xlink" viewBox="0 0 259.06 72"><defs><style>.cls-1{fill:url(#radial-gradient);}.cls-2{fill:#ed8334;}.cls-3{fill:#f8e441;}.cls-4{fill:#f7e040;}.cls-5{fill:#facb2b;}.cls-6{fill:#f9d735;}.cls-7{fill:#ee8633;}.cls-8{fill:#fad82e;}.cls-9{fill:#fbc123;}.cls-10{font-size:21.36px;font-family:Montserrat-SemiBold, Montserrat;font-weight:600;}.cls-11{letter-spacing:-0.01em;}</style><radialGradient id="radial-gradient" cx="35.99" cy="36" r="27.91" gradientUnits="userSpaceOnUse"><stop offset="0" stop-color="#fcc039"/><stop offset="0.47" stop-color="#fcc039"/><stop offset="0.63" stop-color="#fad13c"/><stop offset="0.83" stop-color="#f9de3e"/><stop offset="1" stop-color="#f8e33f"/></radialGradient></defs><g id="Layer_2" data-name="Layer 2"><g id="svg4403"><path class="cls-1" d="M63.9,38.57c-.12,5.35-2.9,12.15-8.65,17.63a27,27,0,0,1-20.4,7.69A26.91,26.91,0,0,1,16,55.47,27.07,27.07,0,0,1,8.11,34.79a26.87,26.87,0,0,1,8-18.35A27.19,27.19,0,0,1,37.23,8.11C51.5,8.64,63.92,20.47,63.9,38.57Z"/><path class="cls-2" d="M72,36.19c-.6.3-1.17.66-1.75,1-.37.22-.36.4-.14.73a6.14,6.14,0,0,1,.48,1c.14.3,0,.45-.3.5h0c-.32,0-.77-.13-.92.13s0,.63.09.95c0,.11,0,.21,0,.31s.06.41-.16.53-.34,0-.49-.13-.22-.2-.36-.13-.07.24-.08.37A6.07,6.07,0,0,1,68,43.48c0,.1-.14.2-.07.29s.22.07.33,0,.45-.16.61.08,0,.4-.12.58a4.87,4.87,0,0,1-.31.6c-.32.51-.33.51.23.78.11,0,.22.09.33.15.31.15.34.36.1.6a3.81,3.81,0,0,1-.92.78c-.25.14-.31.26-.11.51.39.48.7,1,1.11,1.47s.2.54-.23.62c-.59.1-1.18.19-1.78.25-.3,0-.42.15-.34.46a4.49,4.49,0,0,1,.09,1.21c0,.34-.19.46-.51.35s-.42-.15-.63-.25-.38,0-.39.26a5.71,5.71,0,0,1-.28,1.08.36.36,0,0,1-.29.31.35.35,0,0,1-.37-.2A1,1,0,0,0,64,53a6.4,6.4,0,0,1-1.57,2.34c.16.19.37.16.54.22.36.11.43.36.15.62a4,4,0,0,1-.88.69c-.33.15-.29.3-.06.51a3.82,3.82,0,0,1,.34.36c.34.36.3.57-.19.74a8.07,8.07,0,0,1-1,.29c-.29.06-.4.17-.32.48.15.55.24,1.12.44,1.65.07.19.15.38,0,.54s-.33.09-.5,0c-.54-.19-1.1-.29-1.65-.44-.33-.09-.45,0-.52.33a7.17,7.17,0,0,1-.3,1c-.15.4-.38.45-.68.18s-.43-.53-.67-.56-.31.43-.51.63-.28.34-.44.5-.49.19-.6-.15c0-.13-.06-.26-.1-.39s-.12-.19-.24-.06A6.18,6.18,0,0,1,53,64c.09.21.26.28.41.38a.39.39,0,0,1,.21.37c0,.19-.16.27-.33.31a5.66,5.66,0,0,1-1.13.28c-.22,0-.3.11-.21.32s.18.45.26.67,0,.52-.37.53a4.4,4.4,0,0,1-1.2-.1c-.3-.07-.4.06-.43.33-.08.6-.16,1.19-.26,1.78s-.29.54-.63.24-1-.74-1.51-1.13c-.19-.15-.3-.14-.41.07a4.7,4.7,0,0,1-.8,1c-.25.25-.47.25-.64-.09s-.2-.71-.42-.81-.49.32-.79.42-.34.18-.52.26c-.36.15-.56,0-.5-.39a2,2,0,0,1,.07-.26c0-.21,0-.38-.28-.25a5.58,5.58,0,0,1-2.28.47c-.25,0-.29.1-.18.3s.13.17.18.26c.16.32,0,.55-.32.53a5.93,5.93,0,0,1-1.11-.15c-.35-.08-.43,0-.44.36,0,1.14,0,1.14-1.11.66l0,0c-.29-.09-.52-.51-.81-.35s-.37.49-.53.76-.35.59-.52.89-.16.38-.4.37-.29-.22-.38-.39c-.3-.51-.61-1-.91-1.5-.11-.21-.23-.24-.42-.09a4.78,4.78,0,0,1-1.08.55c-.37.16-.53.07-.58-.32s.14-.76-.14-.92-.6.06-.91.1l-.26,0c-.21,0-.44.09-.59-.12s0-.39.14-.56.2-.4-.19-.4A5.7,5.7,0,0,1,28.51,68c-.09,0-.21-.13-.29-.06s-.07.23,0,.34.15.42-.05.58-.4,0-.58-.08a3.77,3.77,0,0,1-.89-.52c-.19-.18-.3-.12-.38.1a6,6,0,0,1-.26.58c-.18.39-.36.43-.67.13a3.82,3.82,0,0,1-.77-.93c-.13-.23-.24-.24-.45-.08-.48.38-1,.7-1.48,1.11s-.57.23-.65-.25-.18-1.15-.24-1.73c0-.3-.15-.43-.46-.35a4.51,4.51,0,0,1-1.16.09c-.4,0-.52-.18-.38-.55s.36-.59.26-.83-.54-.13-.81-.25-.41-.11-.6-.19c-.35-.14-.38-.4-.08-.64.14-.11.32-.18.43-.4a6.45,6.45,0,0,1-2.33-1.57c-.19.16-.16.37-.21.54-.12.36-.37.43-.62.15a3.58,3.58,0,0,1-.72-.92c-.13-.27-.27-.26-.45,0s-.27.24-.4.37c-.36.35-.57.3-.74-.19a6.63,6.63,0,0,1-.29-1c-.06-.34-.23-.39-.52-.3L11,61.49c-.18,0-.35.12-.5,0s-.08-.33,0-.5c.16-.57.29-1.14.45-1.7.08-.28,0-.39-.3-.45a11.1,11.1,0,0,1-1.12-.34c-.36-.14-.39-.36-.13-.66s.54-.43.55-.67-.44-.32-.64-.54-.33-.26-.48-.41-.18-.49.15-.6c.17,0,.38,0,.55-.21A7,7,0,0,1,8,53c-.21.09-.28.26-.38.41a.39.39,0,0,1-.37.21c-.19,0-.27-.16-.31-.33a5.66,5.66,0,0,1-.28-1.13c0-.22-.11-.3-.32-.21l-.67.26c-.35.12-.52,0-.53-.37a4.4,4.4,0,0,1,.1-1.2c.07-.31-.06-.4-.33-.43-.57-.07-1.13-.15-1.69-.24-.2,0-.41,0-.48-.27s.11-.32.21-.46c.36-.48.71-1,1.08-1.44.16-.21.09-.31-.1-.41a4.64,4.64,0,0,1-1-.81c-.26-.25-.22-.47.12-.62s.65-.21.76-.43-.28-.47-.38-.75-.19-.37-.27-.57,0-.53.37-.49a2.33,2.33,0,0,1,.25.07c.3.06.39,0,.26-.33a5.3,5.3,0,0,1-.45-2.19c0-.31-.13-.32-.35-.18l-.15.1c-.14.11-.29.18-.45.07a.36.36,0,0,1-.14-.4c0-.38.1-.77.17-1.15s0-.34-.26-.33a5.62,5.62,0,0,1-.58,0c-.49,0-.6-.18-.41-.62a4.07,4.07,0,0,1,.52-1c.16-.21.15-.35-.1-.5-.51-.3-1-.66-1.54-.91C.16,36.3,0,36.22,0,36s.16-.3.32-.38a16.69,16.69,0,0,0,1.47-.87c.29-.16.36-.31.14-.58a4.64,4.64,0,0,1-.53-1c-.14-.33,0-.49.32-.52a3.87,3.87,0,0,1,.68,0c.31,0,.33-.12.28-.38s-.11-.71-.16-1.06a.43.43,0,0,1,.14-.45c.16-.1.31,0,.46.08s.27.26.43.16.06-.28.06-.43a5.57,5.57,0,0,1,.43-2c0-.1.15-.23.06-.33s-.23-.06-.34,0-.42.14-.58-.06,0-.4.1-.58a3.42,3.42,0,0,1,.49-.85c.17-.19.13-.31-.1-.4S3.23,26.11,3,26s-.32-.35-.1-.57a4.06,4.06,0,0,1,.92-.79c.27-.14.33-.27.12-.54-.38-.46-.69-1-1.09-1.43s-.21-.56.24-.64,1.16-.19,1.74-.25c.32,0,.45-.16.36-.49a4.11,4.11,0,0,1-.09-1.16c0-.36.19-.48.53-.36s.61.38.87.26.1-.56.24-.83,0-.76.48-.83.39.5.75.6a6.3,6.3,0,0,1,1.56-2.33,1,1,0,0,0-.53-.2c-.14,0-.29-.07-.32-.26a.41.41,0,0,1,.18-.39,6.43,6.43,0,0,1,.92-.71c.22-.11.26-.22.07-.39a6.14,6.14,0,0,1-.5-.52c-.21-.25-.18-.48.14-.6a5,5,0,0,1,1.16-.36c.28,0,.36-.18.29-.46-.15-.58-.26-1.17-.46-1.73a.36.36,0,0,1,.5-.51c.56.2,1.15.31,1.74.46.26.06.4,0,.46-.29a8.2,8.2,0,0,1,.32-1.07c.15-.43.37-.47.7-.17s.41.51.64.53.31-.41.51-.6.29-.34.44-.51.51-.2.62.17a1.06,1.06,0,0,0,.2.54A6.2,6.2,0,0,1,19,8c-.09-.23-.29-.3-.44-.42s-.26-.51.1-.63a4.37,4.37,0,0,1,1.13-.29c.3,0,.35-.15.23-.41s-.14-.36-.21-.54c-.15-.4,0-.57.38-.58a4.26,4.26,0,0,1,1.07.08c.35.1.52,0,.55-.39,0-.55.14-1.1.22-1.65,0-.17,0-.38.24-.44s.33.09.47.2c.48.36,1,.7,1.44,1.08.23.18.33.1.45-.11A4.29,4.29,0,0,1,25.37,3c.24-.24.46-.26.64.09s.19.7.44.79.5-.33.8-.42l.12-.05c.25-.08.46-.38.74-.2s.09.46.06.7,0,.32.27.21a5.78,5.78,0,0,1,2.28-.47c.3,0,.29-.13.17-.33a2.14,2.14,0,0,0-.13-.19.38.38,0,0,1-.07-.42.37.37,0,0,1,.4-.15c.38.05.77.09,1.15.16s.36,0,.35-.27a4.22,4.22,0,0,1,0-.71c0-.3.2-.44.5-.3a3.82,3.82,0,0,1,1,.48c.35.29.53.18.74-.18.34-.57.68-1.13,1-1.71h.36c.31.63.69,1.22,1,1.82.19.3.34.32.59.11a4.89,4.89,0,0,1,1-.52c.29-.14.46,0,.5.29a4.34,4.34,0,0,1,0,.72c0,.28.1.32.35.27s.77-.11,1.15-.16a.34.34,0,0,1,.39.16.35.35,0,0,1-.06.41,2.14,2.14,0,0,0-.13.19c-.12.2-.13.33.17.33a5.78,5.78,0,0,1,2.28.47c.23.11.3,0,.27-.21s-.23-.51.06-.7.49.12.74.2l.12.05c.26.16.57.5.79.45s.3-.54.45-.82.39-.34.64-.09a4.29,4.29,0,0,1,.77.93c.14.26.26.26.48.08.47-.37,1-.68,1.44-1.08s.59-.24.67.27.18,1.13.24,1.69c0,.33.17.45.49.36a4.11,4.11,0,0,1,1.16-.09c.37,0,.48.19.36.53a5.25,5.25,0,0,1-.22.55c-.13.28-.1.42.26.46A6,6,0,0,1,53.36,7c.35.12.39.4.1.64s-.35.18-.44.4a6.3,6.3,0,0,1,2.34,1.58,1,1,0,0,0,.19-.49c0-.16.06-.33.27-.37a.44.44,0,0,1,.42.21,2.8,2.8,0,0,0,.35.41c.21.2.27.66.54.64s.44-.36.67-.56.52-.21.65.16a8.67,8.67,0,0,1,.35,1.16c.06.24.17.3.41.24A15.49,15.49,0,0,0,61,10.51c.16-.06.32-.1.46.05a.39.39,0,0,1,0,.45A17.9,17.9,0,0,0,61,12.75c-.06.27,0,.42.29.46a5,5,0,0,1,1.12.34c.36.14.41.36.15.65s-.32.35-.49.52-.14.24,0,.34a5.34,5.34,0,0,1,.94.7c.14.12.26.25.2.45s-.24.21-.39.25a.72.72,0,0,0-.45.19A6.8,6.8,0,0,1,64,19a.49.49,0,0,0,.13-.08c.75-.76.78-.74,1.09.29.09.28,0,.7.23.83s.57-.15.87-.25.53,0,.54.39a3.56,3.56,0,0,1-.08,1c-.1.38,0,.57.43.6a16,16,0,0,1,1.69.24c.42.08.5.31.22.63s-.75,1-1.14,1.5c-.14.19-.14.3.07.42a3.39,3.39,0,0,1,.64.49c.72.69.73.72-.17,1.13-.37.17-.54.31-.19.68a2.86,2.86,0,0,1,.36.67c.09.18.27.36.12.58s-.4.12-.62.07a.35.35,0,0,0-.3,0c-.11.09,0,.22,0,.32a6.07,6.07,0,0,1,.43,2.06c0,.12-.06.29.09.36s.25-.06.35-.14.31-.22.5-.11.17.3.15.48,0,.24,0,.36c0,.32-.22.73-.09.95s.6.08.92.12h0c.29,0,.43.2.29.51a5.06,5.06,0,0,1-.52,1c-.2.25-.19.41.11.59.6.36,1.19.74,1.82,1.06ZM60.94,52.28A3.12,3.12,0,0,1,60.36,51l-1.13,1.71,0,.11c.46-.23.87,0,1.3.06a7.46,7.46,0,0,0,2.49,1.24A6.41,6.41,0,0,0,60.94,52.28Zm-49.89,0A5.8,5.8,0,0,0,9,54a1.78,1.78,0,0,0,.48-.09,14.78,14.78,0,0,0,1.83-1,1.94,1.94,0,0,1,1.21-.19c.17.05.26,0,.13-.22-.34-.49-.67-1-1.05-1.56A2.93,2.93,0,0,1,11.05,52.28ZM52.91,11.34a6.84,6.84,0,0,0,1.14-2.4,7,7,0,0,0-1.78,2.12,3.27,3.27,0,0,1-1.31.59l1.51,1c.06,0,.13.09.19.08s.08-.12.06-.18A1.87,1.87,0,0,1,52.91,11.34ZM52.27,61A5.8,5.8,0,0,0,54,63a2.06,2.06,0,0,0-.12-.57,20,20,0,0,0-1-1.74,1.94,1.94,0,0,1-.19-1.21c.05-.17,0-.26-.22-.13l-1.56,1.05A2.93,2.93,0,0,1,52.27,61ZM19.72,11.06c-.56-.72-.91-1.62-1.82-2.13l0,.24a10.45,10.45,0,0,0,1.14,2.17,1.94,1.94,0,0,1,.19,1.21c-.05.17,0,.26.22.13l1.59-1.07C20.47,11.62,20.14,11.25,19.72,11.06Zm40.94,8a1.94,1.94,0,0,1-1.21.19c-.17-.05-.26,0-.13.22l1,1.56a2.83,2.83,0,0,1,.57-1.33,6.29,6.29,0,0,0,2.14-1.83l-.25.06A10.41,10.41,0,0,0,60.66,19.09ZM19.08,60.67a7.29,7.29,0,0,0-1.16,2.41A6.74,6.74,0,0,0,19.72,61,3.19,3.19,0,0,1,21,60.37l-1.51-1c-.06,0-.13-.09-.19-.08s-.08.12-.06.18A1.87,1.87,0,0,1,19.08,60.67Zm11.43-54a6.29,6.29,0,0,0-.85-2.51,2.13,2.13,0,0,0-.08,1.19,6.88,6.88,0,0,1,.22,1.5,3.27,3.27,0,0,1-.36,1.33l2.11-.41A2.29,2.29,0,0,1,30.51,6.66Zm11.68.18a7.28,7.28,0,0,1,.17-1.23,2,2,0,0,0,0-1.44,1.45,1.45,0,0,0-.38.68c-.16.6-.3,1.2-.45,1.81a2.6,2.6,0,0,1-1,1.12l2.1.39A2.79,2.79,0,0,1,42.19,6.84ZM65.34,41.49a2.44,2.44,0,0,1-1.11-1l-.42,2.16a2.33,2.33,0,0,1,1.35-.44,7.14,7.14,0,0,1,1.23.17,2,2,0,0,0,1.43,0,1.23,1.23,0,0,0-.66-.39ZM10.88,19.62A2.65,2.65,0,0,1,11.63,21l1-1.54c.13-.19,0-.27-.13-.22a1.94,1.94,0,0,1-1.21-.19,1.13,1.13,0,0,1-.47-.25,4.23,4.23,0,0,0-2-.91A7,7,0,0,0,10.88,19.62ZM6.74,42.21a2.56,2.56,0,0,1,1.43.39l-.42-2.15a2.29,2.29,0,0,1-1.1,1c-.82.28-1.76.21-2.51.85a2.13,2.13,0,0,0,1.19.08A6.67,6.67,0,0,1,6.74,42.21ZM6.65,30.52a2.64,2.64,0,0,1,1.12,1l.4-2.12a2.38,2.38,0,0,1-1.43.41,6.26,6.26,0,0,1-1.14-.16,2,2,0,0,0-1.43,0,1.22,1.22,0,0,0,.67.39C5.44,30.23,6,30.37,6.65,30.52Zm58.69,0a6.29,6.29,0,0,0,2.51-.85,2.23,2.23,0,0,0-1.19-.08,6.67,6.67,0,0,1-1.41.21,2.47,2.47,0,0,1-1.44-.41l.42,2.14A2.44,2.44,0,0,1,65.34,30.52ZM42.2,65.26a2.47,2.47,0,0,1,.41-1.44l-2.14.42a2.44,2.44,0,0,1,1,1.11c.28.82.21,1.77.85,2.52a2.17,2.17,0,0,0,.08-1.2A6.67,6.67,0,0,1,42.2,65.26Zm-12.41,0c-.05.37-.09.74-.15,1.1a2.18,2.18,0,0,0,0,1.47,1.22,1.22,0,0,0,.39-.67c.16-.6.3-1.2.45-1.81a2.44,2.44,0,0,1,1-1.11l-2.18-.42A2.14,2.14,0,0,1,29.79,65.26ZM63.45,27.18l0,0h0l0,0c0,.1,0,.16.1.23a1.78,1.78,0,0,0,1.84.56,23.55,23.55,0,0,1,2.37-.44c.1,0,.17,0,.15-.15a.63.63,0,0,0-.86-.47A3.7,3.7,0,0,1,63.45,27.18Zm-54.91,0A3.1,3.1,0,0,1,6,27.36c-.4-.15-.79-.29-1.17-.47-.11-.06-.24-.23-.38,0s-.42.35-.39.58.3.07.46.12l.26.05a11.1,11.1,0,0,0,2.56.4,1.27,1.27,0,0,0,1.17-.82h0s0,0,0,0ZM44.82,63.46a.28.28,0,0,0-.24.1A1.78,1.78,0,0,0,44,65.4a21,21,0,0,1,.44,2.37c0,.1,0,.17.15.15a.63.63,0,0,0,.47-.86,3.7,3.7,0,0,1-.26-3.6l0,0v0Zm-17.64,0s0,0,0,0h0l0,0a4,4,0,0,1,.37,1.37,5.45,5.45,0,0,1-.65,2.27c-.06.13-.25.29-.06.43s.36.44.63.37,0-.32.08-.49a1.42,1.42,0,0,0,.05-.22,11,11,0,0,0,.4-2.56A1.28,1.28,0,0,0,27.18,63.46ZM63.45,44.83a4,4,0,0,1,1.37-.37,5.65,5.65,0,0,1,2.27.65c.13.06.29.25.43.06s.44-.36.37-.63-.32,0-.49-.08l-.22-.05a11.1,11.1,0,0,0-2.56-.4,1.28,1.28,0,0,0-1.17.82h0v0Zm-54.91,0,0,0h0l0,0A1.27,1.27,0,0,0,7.37,44c-1.09-.08-2.1.44-3.18.46-.12,0-.13.08-.1.19a.62.62,0,0,0,.9.41A3.68,3.68,0,0,1,8.54,44.83ZM44.82,8.55a.06.06,0,0,0,0,0h0l0,0A3.1,3.1,0,0,1,44.64,6c.15-.4.29-.79.47-1.17.06-.11.23-.24,0-.38s-.34-.42-.58-.39-.07.3-.12.46,0,.18-.05.26A11.19,11.19,0,0,0,44,7.38,1.27,1.27,0,0,0,44.82,8.55Zm-17.65,0A1.27,1.27,0,0,0,28,7.38c.08-1.09-.44-2.1-.46-3.18,0-.12-.08-.13-.19-.1a.62.62,0,0,0-.41.9,3.68,3.68,0,0,1,.24,3.55l0,0v0ZM37.45,65.07l-.06,0,0,.06a4.25,4.25,0,0,1,.45,4c-.06.15-.06.26.08.35a2,2,0,0,0,.74.4c.08,0,.09-.11.09-.18,0-.88.17-1.76.09-2.64A2.08,2.08,0,0,0,37.45,65.07ZM65.08,34.58a4.25,4.25,0,0,1,4-.45c.15.06.26.06.35-.08a2,2,0,0,0,.4-.74c0-.08-.11-.09-.18-.09-.88,0-1.76-.17-2.64-.09a2.08,2.08,0,0,0-1.92,1.42l0,.06ZM34.54,65.07a1.88,1.88,0,0,0-1.33,1.48,13.22,13.22,0,0,0,0,3.08c0,.07,0,.19.09.18a2.13,2.13,0,0,0,.74-.4c.18-.1.12-.24.07-.39a4.61,4.61,0,0,1-.28-1.22,4.48,4.48,0,0,1,.74-2.71l0-.06ZM37.45,7a1.91,1.91,0,0,0,1.33-1.49,13.22,13.22,0,0,0,0-3.08c0-.07,0-.19-.09-.18a2.13,2.13,0,0,0-.74.4c-.18.11-.12.24-.07.39a4.61,4.61,0,0,1,.28,1.22,4.48,4.48,0,0,1-.74,2.71l0,.06Zm-2.91,0,.06,0,0-.06a4.23,4.23,0,0,1-.45-4c.06-.15.06-.26-.08-.35a2,2,0,0,0-.74-.4c-.08,0-.09.11-.09.18,0,.88-.17,1.76-.09,2.64A2.08,2.08,0,0,0,34.54,6.94Zm30.54,30.5-.06,0,0,.06a1.88,1.88,0,0,0,1.48,1.33,13.22,13.22,0,0,0,3.08,0c.07,0,.19,0,.18-.09a2.13,2.13,0,0,0-.4-.74c-.11-.18-.24-.12-.39-.07a5,5,0,0,1-1.22.29A4.63,4.63,0,0,1,65.08,37.44ZM6.91,34.58l.06,0,0-.06a1.88,1.88,0,0,0-1.48-1.33,13.22,13.22,0,0,0-3.08,0c-.07,0-.19,0-.18.09a2.13,2.13,0,0,0,.4.74c.1.18.24.12.39.07a4.61,4.61,0,0,1,1.22-.28A4.48,4.48,0,0,1,6.91,34.58Zm0,2.86a4.25,4.25,0,0,1-4,.44c-.15-.06-.26-.06-.35.08a2,2,0,0,0-.4.74c0,.08.11.09.18.09.88,0,1.76.17,2.64.09a2.08,2.08,0,0,0,1.92-1.42l0-.06Zm57,1.13c0-18.1-12.4-29.93-26.67-30.46A27.19,27.19,0,0,0,16.1,16.44a26.87,26.87,0,0,0-8,18.35A27.07,27.07,0,0,0,16,55.47a26.91,26.91,0,0,0,18.85,8.42,27,27,0,0,0,20.4-7.69C61,50.72,63.78,43.92,63.9,38.57ZM36,71a22.86,22.86,0,0,0,1.26-2.1A3.27,3.27,0,0,0,36.4,65a.5.5,0,0,0-.79,0,3.19,3.19,0,0,0-1.07,3.28A10.71,10.71,0,0,0,36,71ZM71,36c-.73-.44-1.35-.9-2-1.23a3.28,3.28,0,0,0-4,.83.51.51,0,0,0,0,.79,3.16,3.16,0,0,0,3.28,1.05A10.45,10.45,0,0,0,71,36ZM1,36c.73.43,1.34.89,2,1.22a3.25,3.25,0,0,0,4.06-1,.36.36,0,0,0,0-.5,3.24,3.24,0,0,0-3.38-1.21A12.8,12.8,0,0,0,1,36ZM36,1a19.25,19.25,0,0,0-1.27,2.13,3.26,3.26,0,0,0,1,4,.39.39,0,0,0,.55,0,3.25,3.25,0,0,0,1.17-3.4A12.22,12.22,0,0,0,36,1ZM3.68,22.62c.41.57.75,1.09,1.14,1.59a3.32,3.32,0,0,0,4.34,1c.19-.11.32-.19.27-.44a3.4,3.4,0,0,0-3.52-2.52ZM22.59,3.7a15.36,15.36,0,0,0-.3,2.9,3.25,3.25,0,0,0,2.36,2.81.4.4,0,0,0,.56-.25,3.19,3.19,0,0,0-.6-3.95A13.28,13.28,0,0,0,22.59,3.7Zm26.79,0c-.57.41-1.1.76-1.61,1.15a3.32,3.32,0,0,0-1,4.36c.09.17.18.28.41.25A3.41,3.41,0,0,0,49.74,5.9C49.62,5.19,49.51,4.48,49.38,3.69ZM3.69,49.4a14.51,14.51,0,0,0,3,.31,3.34,3.34,0,0,0,2.75-2.43c0-.17.06-.31-.14-.42a3.18,3.18,0,0,0-3.87.33A10.61,10.61,0,0,0,3.69,49.4Zm64.62,0c-.41-.58-.77-1.12-1.17-1.62a3.29,3.29,0,0,0-4.31-1c-.19.11-.32.2-.28.44a3.43,3.43,0,0,0,3.53,2.52ZM22.61,68.32c.58-.41,1.12-.77,1.62-1.16a3.3,3.3,0,0,0,1-4.32c-.11-.19-.19-.32-.44-.28a3.43,3.43,0,0,0-2.52,3.53C22.36,66.81,22.48,67.53,22.61,68.32Zm45.7-45.71a14.58,14.58,0,0,0-3-.31,3.35,3.35,0,0,0-2.76,2.43.36.36,0,0,0,.17.45,3.26,3.26,0,0,0,3.9-.41A14.21,14.21,0,0,0,68.31,22.61ZM49.4,68.31a15.47,15.47,0,0,0,.3-3,3.39,3.39,0,0,0-2.45-2.75c-.17,0-.31,0-.41.16a3.2,3.2,0,0,0,.35,3.87A10.84,10.84,0,0,0,49.4,68.31Zm11.32-7.56c-.12-.56-.22-1.06-.34-1.55-.41-1.82-1.64-3.18-3.8-2.94-.18,0-.3,0-.34.25a3.28,3.28,0,0,0,2.23,3.66C59.19,60.42,60,60.51,60.72,60.75Zm0-49.47c-.56.12-1.06.22-1.55.34-1.81.41-3.18,1.63-2.95,3.8,0,.17,0,.31.26.34a3.26,3.26,0,0,0,3.66-2.23C60.42,12.82,60.5,12.05,60.74,11.28ZM11.25,60.72c.56-.12,1.07-.21,1.58-.33,1.79-.43,3.14-1.62,2.91-3.78,0-.16,0-.33-.23-.35A3.16,3.16,0,0,0,12,58,14.66,14.66,0,0,0,11.25,60.72Zm0-49.47c.17.56.26,1.07.37,1.57.41,1.78,1.6,3.16,3.77,2.93.16,0,.33,0,.36-.22a3.23,3.23,0,0,0-2.11-3.65C12.89,11.57,12.07,11.52,11.24,11.25Zm5.2,3.37A2.24,2.24,0,0,0,16,12,24,24,0,0,0,14.2,10.3c-.06-.05-.12-.14-.22-.06a.84.84,0,0,0,.11,1.13A4,4,0,0,1,16.44,14.62Zm-1.76,1.77a2.26,2.26,0,0,1-1.15-.21,4.13,4.13,0,0,1-2.2-2.13c-.05-.13-.1-.3-.3-.27a2.27,2.27,0,0,0-.81.22c-.07,0,0,.14,0,.19A17.81,17.81,0,0,0,12,16.11,2.16,2.16,0,0,0,14.68,16.39Zm0,39.17a2.08,2.08,0,0,0-2-.07,8.87,8.87,0,0,0-2.42,2.35.24.24,0,0,0,0,.16,2.23,2.23,0,0,0,.76.23c.22.06.29-.1.36-.25A4,4,0,0,1,14.63,55.56Zm1.79,1.86a2.62,2.62,0,0,1-.27,1.1A4.09,4.09,0,0,1,14,60.67c-.15.07-.31.14-.26.35a2.29,2.29,0,0,0,.23.77c0,.06.13,0,.19-.07a12.82,12.82,0,0,0,2.09-2A2,2,0,0,0,16.42,57.42ZM26.13,8.75A2,2,0,0,0,26.9,7.1a8.47,8.47,0,0,0-1.21-3.21c-.05-.11-.15-.12-.26,0A.69.69,0,0,0,25.3,5a2.42,2.42,0,0,1,.25.31A4,4,0,0,1,26.13,8.75ZM8.78,26.15c-.19-.08-.33,0-.47.06A3.79,3.79,0,0,1,5,25.32c-.46-.39-.7-.4-1.12.07-.14.16-.13.26,0,.35a12.42,12.42,0,0,0,2.68,1.14A2.25,2.25,0,0,0,8.78,26.15Zm48.6,29.42a4,4,0,0,1,3.15,2.14c.31.59.49.65,1.11.37.21-.09.16-.17.06-.29-.48-.53-.93-1.09-1.44-1.6A2.23,2.23,0,0,0,57.38,55.57ZM55.55,14.63a4,4,0,0,1,2.15-3.16c.59-.31.64-.48.37-1.11-.09-.2-.16-.17-.28-.06-.61.55-1.25,1.08-1.82,1.66A2.21,2.21,0,0,0,55.55,14.63Zm1.81,1.82a2.11,2.11,0,0,0,2.35-.16,13.32,13.32,0,0,0,2-2.1c.06-.06.12-.13,0-.22a.77.77,0,0,0-1.14.2A4,4,0,0,1,57.36,16.45ZM45.85,8.77s0-.06,0-.07-.06-.26-.08-.39a3.71,3.71,0,0,1,.86-3.26c.44-.53.46-.54,0-1.06-.2-.25-.33-.26-.47,0-.29.63-.62,1.24-.88,1.87A2.36,2.36,0,0,0,45.85,8.77ZM8.8,45.94a2.21,2.21,0,0,0-2.31-.77A13.61,13.61,0,0,0,4,46.26c-.09,0-.24.1-.19.21.13.27.42.38.65.53s.3,0,.41-.16a3.5,3.5,0,0,1,1.52-.92A3.68,3.68,0,0,1,8.8,45.94Zm37,17.38a2.13,2.13,0,0,0-.69,2.1,9.23,9.23,0,0,0,.93,2.22c.11.21.13.55.39.55s.32-.32.47-.5a.31.31,0,0,0,0-.5,2.11,2.11,0,0,1-.44-.5A4.07,4.07,0,0,1,45.82,63.32ZM63.28,45.81c.11.12.19,0,.27,0a3.82,3.82,0,0,1,3.43.87c.47.39.69.4,1.12-.07.14-.14.14-.25,0-.34a11.68,11.68,0,0,0-2.68-1.14A2.16,2.16,0,0,0,63.28,45.81ZM55.55,57.38a2.07,2.07,0,0,0,.14,2.3,12.86,12.86,0,0,0,2.12,2c.07.06.13.12.22,0a.76.76,0,0,0-.2-1.14A4,4,0,0,1,55.55,57.38Zm7.76-31.2a2.12,2.12,0,0,0,2.09.69,9.48,9.48,0,0,0,2.23-.93c.2-.1.54-.13.55-.38s-.32-.32-.5-.48-.36-.12-.52.07a2.61,2.61,0,0,1-.47.41A4.14,4.14,0,0,1,63.31,26.18ZM26.13,63.24a4,4,0,0,1-1.08,4c-.1.1-.14.2-.05.31s.26.52.54.64c.08,0,.14,0,.17-.12a10.72,10.72,0,0,0,1.17-2.8A2.15,2.15,0,0,0,26.13,63.24ZM9.74,48.32A4.07,4.07,0,0,1,6.18,50.4c-.16,0-.3,0-.33.23l-.09.57c0,.25.07.29.28.21a21.07,21.07,0,0,0,2.44-.92A2.18,2.18,0,0,0,9.74,48.32ZM23.79,9.79a4.35,4.35,0,0,1-1.47-1.3,4.43,4.43,0,0,1-.72-2.23c0-.16,0-.35-.21-.39l-.61-.1c-.21,0-.27.05-.2.26.27.76.51,1.53.84,2.27A2.35,2.35,0,0,0,23.79,9.79Zm24.51,0a2.12,2.12,0,0,0,2.07-1.07,14.3,14.3,0,0,0,1-2.68c0-.06.08-.16,0-.2-.28-.11-.55.08-.83.08s-.18.17-.18.32a4,4,0,0,1-.18,1.14A3.93,3.93,0,0,1,48.3,9.75ZM23.8,62.22a2.32,2.32,0,0,0-2.22,1.18,15.9,15.9,0,0,0-1,2.59c0,.08-.1.2,0,.23a2.13,2.13,0,0,0,.83-.1c.19,0,.15-.23.16-.38a4.33,4.33,0,0,1,.86-2.41A4.52,4.52,0,0,1,23.8,62.22Zm24.5,0a4.42,4.42,0,0,1,1,.83,4.25,4.25,0,0,1,1,2.7c0,.25.09.36.34.37s.29.06.44.08.33,0,.24-.26a17.89,17.89,0,0,0-1-2.55A2.16,2.16,0,0,0,48.3,62.26ZM62.21,23.8a5,5,0,0,1,1-1.25,4.33,4.33,0,0,1,2.57-.94c.16,0,.31,0,.34-.21s.07-.41.1-.62-.06-.25-.26-.18c-.76.26-1.54.5-2.28.83A2.35,2.35,0,0,0,62.21,23.8Zm-52.43,0a2.34,2.34,0,0,0-1.17-2.22,16.36,16.36,0,0,0-2.6-1c-.08,0-.2-.1-.23,0a2.15,2.15,0,0,0,.1.83c0,.19.23.15.38.16a4.53,4.53,0,0,1,2.19.7A4.34,4.34,0,0,1,9.78,23.81ZM62.21,48.2a2.3,2.3,0,0,0,1.21,2.24,17.84,17.84,0,0,0,2.55,1c.08,0,.2.11.24,0,.08-.29-.07-.56-.1-.84s-.23-.15-.37-.16a4.32,4.32,0,0,1-2.45-.89A4.62,4.62,0,0,1,62.21,48.2ZM38.12,7.38A1.74,1.74,0,0,0,39.77,6a19.33,19.33,0,0,1,.57-2.53c.07-.17,0-.21-.16-.22-.49,0-.7.17-.67.68A3.5,3.5,0,0,1,38.12,7.38Zm26.5,30.75A1.74,1.74,0,0,0,66,39.78a19.7,19.7,0,0,1,2.53.57c.17.07.21,0,.22-.16,0-.49-.17-.7-.68-.67A3.49,3.49,0,0,1,64.62,38.13Zm-57.22,0a3.29,3.29,0,0,1-2,1.31,16.28,16.28,0,0,1-1.71,0c-.16,0-.31,0-.34.2s-.2.43-.07.61.28-.06.43-.08l.39-.09a16.3,16.3,0,0,0,2.1-.44A1.77,1.77,0,0,0,7.4,38.15ZM38.26,64.66a3.23,3.23,0,0,1,1.19,2,15.42,15.42,0,0,1,0,1.66c0,.16,0,.31.21.34s.42.21.6.07-.06-.28-.08-.43-.07-.26-.09-.39a16.82,16.82,0,0,0-.44-2.11A1.58,1.58,0,0,0,38.26,64.66ZM14.17,17.29a2.82,2.82,0,0,1-2.23-.46,6.77,6.77,0,0,1-1.18-1.15c-.2-.23-.38-.26-.61-.07s-.31.17-.41.35a19.65,19.65,0,0,1,2.31,1.47A1.69,1.69,0,0,0,14.17,17.29Zm.09,37.45a1.83,1.83,0,0,0-2.21-.16,21.32,21.32,0,0,1-2.32,1.49c.68.61.76.61,1.3,0A3.16,3.16,0,0,1,14.26,54.74ZM16,9.75c-.62.61-.62.72,0,1.25l.1.09a3.47,3.47,0,0,1,1.32,2.16c.05.3,0,.6,0,.93A1.74,1.74,0,0,0,17.41,12,19,19,0,0,1,16,9.75ZM54.7,14.17a8.48,8.48,0,0,1-.06-.86A3.42,3.42,0,0,1,56,11.11c.69-.57.7-.8.06-1.35a17.18,17.18,0,0,1-1.46,2.3A1.69,1.69,0,0,0,54.7,14.17Zm0,43.61a1.78,1.78,0,0,0-.13,2.2,20.06,20.06,0,0,1,1.46,2.28c.61-.63.61-.74,0-1.29l0,0A3.11,3.11,0,0,1,54.72,57.78Zm-37.45,0a3.29,3.29,0,0,1,.07.87A3.37,3.37,0,0,1,16,60.91c-.7.55-.71.8-.06,1.33A20.18,20.18,0,0,1,17.42,60,1.68,1.68,0,0,0,17.27,57.83ZM62.26,16c-.66-.61-.75-.61-1.3,0-.06.07-.1.15-.16.21a3.67,3.67,0,0,1-1.88,1.14,7,7,0,0,1-1.12,0,1.77,1.77,0,0,0,2.17.1A19,19,0,0,1,62.26,16ZM33.74,7.35a3.06,3.06,0,0,1-1.22-2.12,13.59,13.59,0,0,1,0-1.43.54.54,0,0,0-.66-.55c-.15,0-.18.11-.15.22.31.92.3,1.92.64,2.83A1.57,1.57,0,0,0,33.74,7.35Zm.07,57.31a1.67,1.67,0,0,0-1.56,1.24c-.25.86-.27,1.76-.56,2.61-.07.21,0,.27.24.25.38-.06.61-.19.57-.66A3.39,3.39,0,0,1,33.81,64.66ZM7.34,33.83a1.66,1.66,0,0,0-1.16-1.54C5.3,32,4.36,32,3.48,31.7c-.21-.07-.26.06-.23.25,0,.38.19.6.65.56A3.4,3.4,0,0,1,7.34,33.83Zm57.26,0a3,3,0,0,1,2.16-1.34c.48-.05,1,0,1.44,0a.54.54,0,0,0,.55-.66.16.16,0,0,0-.22-.15c-.93.32-1.94.3-2.86.66A1.72,1.72,0,0,0,64.6,33.87ZM57.81,54.72a2.9,2.9,0,0,1,2.45.62,4.82,4.82,0,0,1,.83.86.56.56,0,0,0,.94.08c.07-.06.19-.09.2-.23A21,21,0,0,1,60,54.59,1.71,1.71,0,0,0,57.81,54.72ZM61.6,23c.58-1.29.73-1.49,1.54-2a7.79,7.79,0,0,1,1.15-.49c.56-.23.63-.55.23-1.11a6.24,6.24,0,0,1-1.77,1.29A2,2,0,0,0,61.6,23ZM48.9,10.4a2,2,0,0,0,2-.62,16.27,16.27,0,0,1,1.69-2.35c-.81-.33-.93-.31-1.16.39A3.46,3.46,0,0,1,48.9,10.4ZM64.57,52.66c.33-.84.31-1-.39-1.19a3.43,3.43,0,0,1-2.57-2.54,1.94,1.94,0,0,0,.83,2.17A8.83,8.83,0,0,1,64.57,52.66Zm-57.13,0A11.89,11.89,0,0,1,9.64,51a1.73,1.73,0,0,0,.73-2,2.93,2.93,0,0,1-1.6,2c-.42.2-.86.36-1.28.54-.12,0-.32.07-.27.24S7.21,52.37,7.44,52.63ZM52.63,64.56a6.36,6.36,0,0,1-1.33-1.82,2,2,0,0,0-2.25-1.14c.07.11.2.11.3.15a2.85,2.85,0,0,1,1.52,1.19,9.41,9.41,0,0,1,.71,1.59c.05.12.08.3.25.25S52.35,64.78,52.63,64.56ZM10.38,23.08a1.94,1.94,0,0,0-.87-2.2,8.44,8.44,0,0,1-2.06-1.5c-.38.7-.33.92.32,1.15A3.46,3.46,0,0,1,10.38,23.08Zm9,41.49c.84.35.93.31,1.22-.41.05-.14.09-.28.14-.42a3.18,3.18,0,0,1,2.06-2,1.21,1.21,0,0,0,.23-.1,1.91,1.91,0,0,0-2.09.85A8.52,8.52,0,0,1,19.34,64.57ZM23,10.39A3.09,3.09,0,0,1,21,8.82c-.23-.43-.36-.89-.55-1.33-.05-.12-.07-.31-.24-.26s-.55,0-.8.22a6.65,6.65,0,0,1,1.31,1.81A2,2,0,0,0,23,10.39ZM7.23,39.92a5.89,5.89,0,0,1-2.43.75c-.59.12-.62.15-.52.8A13.85,13.85,0,0,1,6.17,41,1.27,1.27,0,0,0,7.23,39.92Zm57.52-.07A1.33,1.33,0,0,0,65.94,41a9,9,0,0,1,1.6.41c.08,0,.16.08.21-.06a.48.48,0,0,0-.33-.66A5.64,5.64,0,0,1,64.75,39.85ZM32.16,7.26a4.14,4.14,0,0,1-.73-1.92c-.05-.25-.08-.5-.12-.75s-.37-.39-.63-.33,0,.28,0,.41c.09.42.23.83.28,1.26A1.44,1.44,0,0,0,32.16,7.26Zm7.66,0c.67,0,1.11-.74,1.2-1.26a7.11,7.11,0,0,1,.38-1.51c0-.09.11-.19-.06-.25a.53.53,0,0,0-.66.41A5.39,5.39,0,0,1,39.82,7.26ZM64.76,32.15a4.09,4.09,0,0,1,1.87-.71l.75-.12a.49.49,0,0,0,.37-.64c-.12-.31-.29,0-.43,0-.41.07-.81.21-1.22.27A1.44,1.44,0,0,0,64.76,32.15Zm-57.52,0A1.36,1.36,0,0,0,6,31a8.28,8.28,0,0,1-1.56-.39c-.08,0-.16-.09-.22,0a.54.54,0,0,0,.33.68A5.52,5.52,0,0,1,7.24,32.16ZM39.82,64.74a3.91,3.91,0,0,1,.74,1.92c0,.27.08.53.13.79a.51.51,0,0,0,.65.31c.25-.13,0-.28,0-.4-.1-.42-.23-.84-.29-1.27A1.47,1.47,0,0,0,39.82,64.74Zm-7.68,0a.59.59,0,0,0-.56.19,1.66,1.66,0,0,0-.6,1,8.18,8.18,0,0,1-.39,1.55c0,.1-.1.19.07.24a.53.53,0,0,0,.65-.38A5.61,5.61,0,0,1,32.14,64.76ZM28.54,64a3.55,3.55,0,0,1,.08.89,6.57,6.57,0,0,1-.33,2c-.08.31.16.35.34.41s.25-.07.27-.24A10.77,10.77,0,0,0,29.15,65,1.06,1.06,0,0,0,28.54,64ZM64,28.56a1.17,1.17,0,0,0,1,.61,12.64,12.64,0,0,0,2-.24c.17,0,.4,0,.31-.3s-.14-.41-.47-.31A6.11,6.11,0,0,1,64,28.56ZM8,28.53a3.34,3.34,0,0,1-.94.1,6,6,0,0,1-1.93-.31c-.33-.09-.41.08-.48.3s.13.28.3.31c.48.07,1,.18,1.45.22A1.44,1.44,0,0,0,8,28.53ZM8,43.45A1,1,0,0,0,7,42.84a11.6,11.6,0,0,0-2,.24c-.15,0-.41,0-.32.29s.16.42.5.31A5.81,5.81,0,0,1,8,43.45Zm56,0a2.78,2.78,0,0,1,.91-.11,6.57,6.57,0,0,1,2,.33c.31.08.35-.16.41-.34s-.07-.25-.24-.27a11.58,11.58,0,0,0-2.12-.25A1.08,1.08,0,0,0,64,43.49ZM28.53,8.06a1.24,1.24,0,0,0,.63-1,11,11,0,0,0-.24-2c0-.16,0-.44-.31-.35s-.38.19-.29.52A5.71,5.71,0,0,1,28.53,8.06Zm14.94,0a3.24,3.24,0,0,1-.1-.93,6.36,6.36,0,0,1,.32-2c.08-.3-.1-.36-.3-.44s-.28.11-.31.29c-.08.49-.19,1-.23,1.45A1.44,1.44,0,0,0,43.47,8.05Zm0,55.9a1.24,1.24,0,0,0-.62,1,15,15,0,0,0,.26,2.12c0,.25.15.26.34.19s.33-.18.25-.46A6,6,0,0,1,43.45,64Zm7-2.88a3.27,3.27,0,0,1,1.45,1.37l.52.84c.18.31.41.17.61,0s0-.27-.09-.39l-.81-1.12A1.52,1.52,0,0,0,50.41,61.07Zm-28.8,0a1.45,1.45,0,0,0-1.46.45c-.4.45-.69,1-1.07,1.44-.1.11-.31.22-.06.38s.38.25.55,0,.31-.48.46-.72A3.37,3.37,0,0,1,21.61,61.06Zm0-50.12a3.27,3.27,0,0,1-1.45-1.37c-.18-.29-.35-.59-.54-.87s-.41-.13-.59,0,0,.27.09.39l.81,1.12A1.52,1.52,0,0,0,21.58,10.94Zm28.83,0a1.52,1.52,0,0,0,1.68-.74l.84-1.15c.08-.11.27-.22.06-.36s-.37-.26-.56,0a5.31,5.31,0,0,0-.42.63A3.5,3.5,0,0,1,50.41,10.94ZM61.07,21.6A3.29,3.29,0,0,1,62.61,20c.24-.15.49-.29.72-.46s.08-.37,0-.55-.18-.14-.29,0c-.4.39-.89.64-1.32,1A1.44,1.44,0,0,0,61.07,21.6Zm-50.15,0a1.39,1.39,0,0,0-.54-1.54L9,19c-.12-.1-.21-.09-.29,0s-.19.44.12.64C9.57,20.18,10.49,20.56,10.92,21.6ZM61.06,50.4a1.38,1.38,0,0,0,.4,1.41c.46.42,1,.71,1.47,1.11.27.22.42.17.5-.17s-.09-.31-.24-.41C62.41,51.81,61.49,51.44,61.06,50.4Zm-50.13,0a3.27,3.27,0,0,1-1.37,1.45c-.29.18-.59.35-.87.54s-.13.41,0,.59.27,0,.39-.09l1.12-.81A1.52,1.52,0,0,0,10.93,50.42Zm42.69,8.43a1.67,1.67,0,0,0,0,1.8c.3.54.65,1.06,1,1.59.5-.4.49-.4.13-.91A4.4,4.4,0,0,1,53.62,58.85ZM17.43,9.75c-.53.41-.54.43-.19.92a4.58,4.58,0,0,1,1.15,2.47,1.64,1.64,0,0,0,0-1.78C18.07,10.82,17.69,10.32,17.43,9.75Zm37.13,0c-.26.57-.64,1.07-1,1.61a1.62,1.62,0,0,0,0,1.78,4.41,4.41,0,0,1,1.11-2.44C55.1,10.18,55.1,10.16,54.56,9.75ZM17.42,62.25c.28-.54.63-1,.94-1.57a1.64,1.64,0,0,0,0-1.82,4.46,4.46,0,0,1-1.13,2.47C16.89,61.84,16.89,61.85,17.42,62.25ZM9.74,54.57c.41.54.43.54.92.18a4.68,4.68,0,0,1,2.46-1.14,1.63,1.63,0,0,0-1.74,0C10.83,53.91,10.32,54.3,9.74,54.57Zm3.4-36.19a3.77,3.77,0,0,1-2.22-.94,5,5,0,0,0-.55-.39c-.29-.15-.41.13-.57.29s0,.16.08.19a12.54,12.54,0,0,1,1.42.83A1.66,1.66,0,0,0,13.14,18.38Zm49.12-.93c-.43-.55-.43-.54-.95-.18A4.56,4.56,0,0,1,59,18.42C60.37,19.13,61.16,17.81,62.26,17.45ZM58.83,53.64a4.21,4.21,0,0,1,2.5,1.11c.5.35.53.35.91-.18-.53-.25-1-.59-1.51-.89A1.68,1.68,0,0,0,58.83,53.64Z"/><path class="cls-3" d="M36,71a10.71,10.71,0,0,1-1.45-2.72A3.19,3.19,0,0,1,35.61,65a.5.5,0,0,1,.79,0,3.27,3.27,0,0,1,.85,3.88A22.86,22.86,0,0,1,36,71Z"/><path class="cls-3" d="M71,36a10.45,10.45,0,0,1-2.71,1.44A3.16,3.16,0,0,1,65,36.4a.51.51,0,0,1,0-.79,3.28,3.28,0,0,1,4-.83C69.62,35.11,70.24,35.57,71,36Z"/><path class="cls-3" d="M1,36a12.8,12.8,0,0,1,2.72-1.45,3.24,3.24,0,0,1,3.38,1.21.36.36,0,0,1,0,.5,3.25,3.25,0,0,1-4.06,1C2.36,36.89,1.75,36.43,1,36Z"/><path class="cls-3" d="M36,1a12.22,12.22,0,0,1,1.44,2.68,3.25,3.25,0,0,1-1.17,3.4.39.39,0,0,1-.55,0,3.26,3.26,0,0,1-1-3.95A19.25,19.25,0,0,1,36,1Z"/><path class="cls-3" d="M3.68,22.62l2.23-.36a3.4,3.4,0,0,1,3.52,2.52c.05.25-.08.33-.27.44a3.32,3.32,0,0,1-4.34-1C4.43,23.71,4.09,23.19,3.68,22.62Z"/><path class="cls-3" d="M22.59,3.7a13.28,13.28,0,0,1,2,1.51,3.19,3.19,0,0,1,.6,4,.4.4,0,0,1-.56.25A3.25,3.25,0,0,1,22.29,6.6,15.36,15.36,0,0,1,22.59,3.7Z"/><path class="cls-3" d="M49.38,3.69c.13.79.24,1.5.36,2.21a3.41,3.41,0,0,1-2.53,3.55c-.23,0-.32-.08-.41-.25a3.32,3.32,0,0,1,1-4.36C48.28,4.45,48.81,4.1,49.38,3.69Z"/><path class="cls-3" d="M3.69,49.4a10.61,10.61,0,0,1,1.72-2.21,3.18,3.18,0,0,1,3.87-.33c.2.11.18.25.14.42a3.34,3.34,0,0,1-2.75,2.43A14.51,14.51,0,0,1,3.69,49.4Z"/><path class="cls-3" d="M68.31,49.39l-2.23.36a3.43,3.43,0,0,1-3.53-2.52c0-.24.09-.33.28-.44a3.29,3.29,0,0,1,4.31,1C67.54,48.27,67.9,48.81,68.31,49.39Z"/><path class="cls-3" d="M22.61,68.32c-.13-.79-.25-1.51-.36-2.23a3.43,3.43,0,0,1,2.52-3.53c.25,0,.33.09.44.28a3.3,3.3,0,0,1-1,4.32C23.73,67.55,23.19,67.91,22.61,68.32Z"/><path class="cls-3" d="M68.31,22.61a14.21,14.21,0,0,1-1.67,2.16,3.26,3.26,0,0,1-3.9.41.36.36,0,0,1-.17-.45,3.35,3.35,0,0,1,2.76-2.43A14.58,14.58,0,0,1,68.31,22.61Z"/><path class="cls-3" d="M49.4,68.31a10.84,10.84,0,0,1-2.21-1.71,3.2,3.2,0,0,1-.35-3.87c.1-.19.24-.19.41-.16a3.39,3.39,0,0,1,2.45,2.75A15.47,15.47,0,0,1,49.4,68.31Z"/><path class="cls-3" d="M60.72,60.75c-.77-.24-1.53-.33-2.25-.58a3.28,3.28,0,0,1-2.23-3.66c0-.24.16-.24.34-.25,2.16-.24,3.39,1.12,3.8,2.94C60.5,59.69,60.6,60.19,60.72,60.75Z"/><path class="cls-3" d="M60.74,11.28c-.24.77-.32,1.54-.58,2.25a3.26,3.26,0,0,1-3.66,2.23c-.24,0-.24-.17-.26-.34-.23-2.17,1.14-3.39,2.95-3.8C59.68,11.5,60.18,11.4,60.74,11.28Z"/><path class="cls-3" d="M11.25,60.72A14.66,14.66,0,0,1,12,58a3.16,3.16,0,0,1,3.47-1.75c.25,0,.22.19.23.35.23,2.16-1.12,3.35-2.91,3.78C12.32,60.51,11.81,60.6,11.25,60.72Z"/><path class="cls-3" d="M11.24,11.25c.83.27,1.65.32,2.39.63a3.23,3.23,0,0,1,2.11,3.65c0,.26-.2.21-.36.22C13.21,16,12,14.6,11.61,12.82,11.5,12.32,11.41,11.81,11.24,11.25Z"/><path class="cls-4" d="M16.44,14.62a4,4,0,0,0-2.35-3.25A.84.84,0,0,1,14,10.24c.1-.08.16,0,.22.06A24,24,0,0,1,16,12,2.24,2.24,0,0,1,16.44,14.62Z"/><path class="cls-4" d="M14.68,16.39A2.16,2.16,0,0,1,12,16.11a17.81,17.81,0,0,1-1.76-1.92s-.12-.15,0-.19a2.27,2.27,0,0,1,.81-.22c.2,0,.25.14.3.27a4.13,4.13,0,0,0,2.2,2.13A2.26,2.26,0,0,0,14.68,16.39Z"/><path class="cls-4" d="M14.63,55.56A4,4,0,0,0,11.33,58c-.07.15-.14.31-.36.25a2.23,2.23,0,0,1-.76-.23.24.24,0,0,1,0-.16,8.87,8.87,0,0,1,2.42-2.35A2.08,2.08,0,0,1,14.63,55.56Z"/><path class="cls-4" d="M6.93,37.46A2.08,2.08,0,0,1,5,38.88c-.88.08-1.76-.09-2.64-.09-.07,0-.19,0-.18-.09a2,2,0,0,1,.4-.74c.09-.14.2-.14.35-.08a4.25,4.25,0,0,0,4-.44Z"/><path class="cls-4" d="M16.42,57.42a2,2,0,0,1-.14,2.29,12.82,12.82,0,0,1-2.09,2c-.06.05-.15.13-.19.07a2.29,2.29,0,0,1-.23-.77c0-.21.11-.28.26-.35a4.09,4.09,0,0,0,2.12-2.15A2.62,2.62,0,0,0,16.42,57.42Z"/><path class="cls-4" d="M6.91,34.58a4.48,4.48,0,0,0-2.71-.74A4.61,4.61,0,0,0,3,34.12c-.15.05-.29.11-.39-.07a2.13,2.13,0,0,1-.4-.74c0-.08.11-.09.18-.09a13.22,13.22,0,0,1,3.08,0,1.88,1.88,0,0,1,1.48,1.33Z"/><path class="cls-4" d="M65.08,37.44a4.63,4.63,0,0,0,2.71.74A5,5,0,0,0,69,37.89c.15,0,.28-.11.39.07a2.13,2.13,0,0,1,.4.74c0,.08-.11.09-.18.09a13.22,13.22,0,0,1-3.08,0,1.88,1.88,0,0,1-1.48-1.33Z"/><path class="cls-4" d="M34.54,7A2.1,2.1,0,0,1,33.12,5c-.08-.88.09-1.76.09-2.64,0-.07,0-.19.09-.18a2,2,0,0,1,.74.4c.14.09.14.2.08.35a4.23,4.23,0,0,0,.45,4Z"/><path class="cls-4" d="M37.42,6.92a4.48,4.48,0,0,0,.74-2.71A4.61,4.61,0,0,0,37.88,3c-.05-.15-.11-.28.07-.39a2.13,2.13,0,0,1,.74-.4c.08,0,.09.11.09.18a13.22,13.22,0,0,1,0,3.08A1.91,1.91,0,0,1,37.45,7Z"/><path class="cls-4" d="M34.57,65.09a4.48,4.48,0,0,0-.74,2.71A4.61,4.61,0,0,0,34.11,69c0,.15.11.29-.07.39a2.13,2.13,0,0,1-.74.4c-.08,0-.09-.11-.09-.18a13.22,13.22,0,0,1,0-3.08,1.88,1.88,0,0,1,1.33-1.48Z"/><path class="cls-4" d="M65.06,34.55A2.08,2.08,0,0,1,67,33.13c.88-.08,1.76.1,2.64.09.07,0,.19,0,.18.09a2,2,0,0,1-.4.74c-.09.14-.2.14-.35.08a4.25,4.25,0,0,0-4,.45Z"/><path class="cls-4" d="M37.45,65.07A2.08,2.08,0,0,1,38.87,67c.08.88-.1,1.76-.09,2.64,0,.07,0,.19-.09.18a2,2,0,0,1-.74-.4c-.14-.09-.14-.2-.08-.35a4.25,4.25,0,0,0-.45-4Z"/><path class="cls-4" d="M26.13,8.75a4,4,0,0,0-.58-3.44A2.42,2.42,0,0,0,25.3,5a.69.69,0,0,1,.13-1.15c.11-.08.21-.07.26,0A8.47,8.47,0,0,1,26.9,7.1,2,2,0,0,1,26.13,8.75Z"/><path class="cls-4" d="M8.78,26.15a2.25,2.25,0,0,1-2.16.73,12.42,12.42,0,0,1-2.68-1.14c-.18-.09-.19-.19,0-.35.42-.47.66-.46,1.12-.07a3.79,3.79,0,0,0,3.3.89C8.45,26.18,8.59,26.07,8.78,26.15Z"/><path class="cls-4" d="M57.38,55.57a2.23,2.23,0,0,1,2.88.62c.51.51,1,1.07,1.44,1.6.1.12.15.2-.06.29-.62.28-.8.22-1.11-.37A4,4,0,0,0,57.38,55.57Z"/><path class="cls-4" d="M55.55,14.63A2.21,2.21,0,0,1,56,12c.57-.58,1.21-1.11,1.82-1.66.12-.11.19-.14.28.06.27.63.22.8-.37,1.11A4,4,0,0,0,55.55,14.63Z"/><path class="cls-4" d="M57.36,16.45a4,4,0,0,0,3.24-2.28.77.77,0,0,1,1.14-.2c.1.09,0,.16,0,.22a13.32,13.32,0,0,1-2,2.1A2.11,2.11,0,0,1,57.36,16.45Z"/><path class="cls-4" d="M45.85,8.77a2.36,2.36,0,0,1-.51-2.86c.26-.63.59-1.24.88-1.87.14-.31.27-.3.47,0,.43.52.41.53,0,1.06a3.71,3.71,0,0,0-.86,3.26c0,.13.06.26.08.39S45.87,8.73,45.85,8.77Z"/><path class="cls-4" d="M8.8,45.94a3.68,3.68,0,0,0-2.43,0,3.5,3.5,0,0,0-1.52.92c-.11.11-.21.3-.41.16s-.52-.26-.65-.53c0-.11.1-.17.19-.21a13.61,13.61,0,0,1,2.51-1.09A2.21,2.21,0,0,1,8.8,45.94Z"/><path class="cls-4" d="M45.82,63.32a4.07,4.07,0,0,0,.62,3.37,2.11,2.11,0,0,0,.44.5.31.31,0,0,1,0,.5c-.15.18-.23.51-.47.5s-.28-.34-.39-.55a9.23,9.23,0,0,1-.93-2.22A2.13,2.13,0,0,1,45.82,63.32Z"/><path class="cls-4" d="M63.28,45.81a2.16,2.16,0,0,1,2.1-.67,11.68,11.68,0,0,1,2.68,1.14c.18.09.18.2,0,.34-.43.47-.65.46-1.12.07a3.82,3.82,0,0,0-3.43-.87C63.47,45.84,63.39,45.93,63.28,45.81Z"/><path class="cls-4" d="M55.55,57.38a4,4,0,0,0,2.28,3.23.76.76,0,0,1,.2,1.14c-.09.1-.15,0-.22,0a12.86,12.86,0,0,1-2.12-2A2.07,2.07,0,0,1,55.55,57.38Z"/><path class="cls-4" d="M63.31,26.18a4.14,4.14,0,0,0,3.38-.62,2.61,2.61,0,0,0,.47-.41c.16-.19.32-.24.52-.07s.51.23.5.48-.35.28-.55.38a9.48,9.48,0,0,1-2.23.93A2.12,2.12,0,0,1,63.31,26.18Z"/><path class="cls-4" d="M26.13,63.24a2.15,2.15,0,0,1,.75,2.05,10.72,10.72,0,0,1-1.17,2.8c0,.07-.09.15-.17.12-.28-.12-.37-.41-.54-.64s-.05-.21.05-.31A4,4,0,0,0,26.13,63.24Z"/><path class="cls-4" d="M9.74,48.32a2.18,2.18,0,0,1-1.26,2.17A21.07,21.07,0,0,1,6,51.41c-.21.08-.31,0-.28-.21l.09-.57c0-.19.17-.22.33-.23A4.07,4.07,0,0,0,9.74,48.32Z"/><path class="cls-4" d="M23.79,9.79A2.35,2.35,0,0,1,21.42,8.3c-.33-.74-.57-1.51-.84-2.27-.07-.21,0-.29.2-.26l.61.1c.22,0,.2.23.21.39a4.43,4.43,0,0,0,.72,2.23A4.35,4.35,0,0,0,23.79,9.79Z"/><path class="cls-4" d="M48.3,9.75a3.93,3.93,0,0,0,1.91-2.41,4,4,0,0,0,.18-1.14c0-.15,0-.31.18-.32s.55-.19.83-.08c.09,0,0,.14,0,.2a14.3,14.3,0,0,1-1,2.68A2.12,2.12,0,0,1,48.3,9.75Z"/><path class="cls-4" d="M23.8,62.22a4.52,4.52,0,0,0-1.34,1.11,4.33,4.33,0,0,0-.86,2.41c0,.15,0,.35-.16.38a2.13,2.13,0,0,1-.83.1c-.12,0-.05-.15,0-.23a15.9,15.9,0,0,1,1-2.59A2.32,2.32,0,0,1,23.8,62.22Z"/><path class="cls-4" d="M48.3,62.26a2.16,2.16,0,0,1,2.13,1.17,17.89,17.89,0,0,1,1,2.55c.09.28-.06.28-.24.26s-.29-.07-.44-.08-.34-.12-.34-.37a4.25,4.25,0,0,0-1-2.7A4.42,4.42,0,0,0,48.3,62.26Z"/><path class="cls-4" d="M62.21,23.8a2.35,2.35,0,0,1,1.48-2.37c.74-.33,1.52-.57,2.28-.83.2-.07.29,0,.26.18s-.06.42-.1.62-.18.21-.34.21a4.33,4.33,0,0,0-2.57.94A5,5,0,0,0,62.21,23.8Z"/><path class="cls-4" d="M9.78,23.81a4.34,4.34,0,0,0-1.33-1.5,4.53,4.53,0,0,0-2.19-.7c-.15,0-.35,0-.38-.16a2.15,2.15,0,0,1-.1-.83c0-.12.15-.05.23,0a16.36,16.36,0,0,1,2.6,1A2.34,2.34,0,0,1,9.78,23.81Z"/><path class="cls-4" d="M62.21,48.2a4.62,4.62,0,0,0,1.08,1.31,4.32,4.32,0,0,0,2.45.89c.14,0,.35,0,.37.16s.18.55.1.84c0,.12-.16,0-.24,0a17.84,17.84,0,0,1-2.55-1A2.3,2.3,0,0,1,62.21,48.2Z"/><path class="cls-4" d="M38.12,7.38a3.5,3.5,0,0,0,1.39-3.46c0-.51.18-.7.67-.68.15,0,.23,0,.16.22A19.33,19.33,0,0,0,39.77,6,1.74,1.74,0,0,1,38.12,7.38Z"/><path class="cls-4" d="M64.62,38.13a3.49,3.49,0,0,0,3.46,1.39c.51,0,.7.18.68.67,0,.16-.05.23-.22.16A19.7,19.7,0,0,0,66,39.78,1.74,1.74,0,0,1,64.62,38.13Z"/><path class="cls-4" d="M7.4,38.15a1.77,1.77,0,0,1-1.21,1.56,16.3,16.3,0,0,1-2.1.44l-.39.09c-.15,0-.31.25-.43.08s0-.4.07-.61.18-.2.34-.2a16.28,16.28,0,0,0,1.71,0A3.29,3.29,0,0,0,7.4,38.15Z"/><path class="cls-4" d="M38.26,64.66A1.58,1.58,0,0,1,39.7,65.8a16.82,16.82,0,0,1,.44,2.11c0,.13.07.25.09.39s.25.31.08.43-.4,0-.6-.07-.21-.18-.21-.34a15.42,15.42,0,0,0,0-1.66A3.23,3.23,0,0,0,38.26,64.66Z"/><path class="cls-4" d="M14.17,17.29a1.69,1.69,0,0,1-2.12.14A19.65,19.65,0,0,0,9.74,16c.1-.18.27-.24.41-.35s.41-.16.61.07a6.77,6.77,0,0,0,1.18,1.15A2.82,2.82,0,0,0,14.17,17.29Z"/><path class="cls-4" d="M14.26,54.74A3.16,3.16,0,0,0,11,56.05c-.54.63-.62.63-1.3,0a21.32,21.32,0,0,0,2.32-1.49A1.83,1.83,0,0,1,14.26,54.74Z"/><path class="cls-4" d="M16,9.75A19,19,0,0,0,17.41,12a1.74,1.74,0,0,1-.11,2.14c0-.33.08-.63,0-.93A3.47,3.47,0,0,0,16,11.09l-.1-.09C15.33,10.47,15.33,10.36,16,9.75Z"/><path class="cls-4" d="M54.7,14.17a1.69,1.69,0,0,1-.13-2.11A17.18,17.18,0,0,0,56,9.76c.64.55.63.78-.06,1.35a3.42,3.42,0,0,0-1.33,2.2A8.48,8.48,0,0,0,54.7,14.17Z"/><path class="cls-4" d="M54.72,57.78A3.11,3.11,0,0,0,56,60.94l0,0c.61.55.61.66,0,1.29A20.06,20.06,0,0,0,54.59,60,1.78,1.78,0,0,1,54.72,57.78Z"/><path class="cls-4" d="M17.27,57.83A1.68,1.68,0,0,1,17.42,60,20.18,20.18,0,0,0,16,62.24c-.65-.53-.64-.78.06-1.33a3.37,3.37,0,0,0,1.32-2.21A3.29,3.29,0,0,0,17.27,57.83Z"/><path class="cls-4" d="M62.26,16A19,19,0,0,0,60,17.41a1.77,1.77,0,0,1-2.17-.1,7,7,0,0,0,1.12,0,3.67,3.67,0,0,0,1.88-1.14c.06-.06.1-.14.16-.21C61.51,15.34,61.6,15.34,62.26,16Z"/><path class="cls-4" d="M33.74,7.35a1.57,1.57,0,0,1-1.42-1C32,5.39,32,4.39,31.68,3.47c0-.11,0-.2.15-.22a.54.54,0,0,1,.66.55,13.59,13.59,0,0,0,0,1.43A3.06,3.06,0,0,0,33.74,7.35Z"/><path class="cls-4" d="M33.81,64.66A3.39,3.39,0,0,0,32.5,68.1c0,.47-.19.6-.57.66-.19,0-.31,0-.24-.25.29-.85.31-1.75.56-2.61A1.67,1.67,0,0,1,33.81,64.66Z"/><path class="cls-4" d="M7.34,33.83A3.4,3.4,0,0,0,3.9,32.51c-.46,0-.6-.18-.65-.56,0-.19,0-.32.23-.25.88.3,1.82.31,2.7.59A1.66,1.66,0,0,1,7.34,33.83Z"/><path class="cls-4" d="M64.6,33.87a1.72,1.72,0,0,1,1.07-1.52c.92-.36,1.93-.34,2.86-.66a.16.16,0,0,1,.22.15.54.54,0,0,1-.55.66c-.48,0-1,0-1.44,0A3,3,0,0,0,64.6,33.87Z"/><path class="cls-4" d="M57.81,54.72A1.71,1.71,0,0,1,60,54.59a21,21,0,0,0,2.28,1.46c0,.14-.13.17-.2.23a.56.56,0,0,1-.94-.08,4.82,4.82,0,0,0-.83-.86A2.9,2.9,0,0,0,57.81,54.72Z"/><path class="cls-4" d="M61.6,23a2,2,0,0,1,1.15-2.27,6.24,6.24,0,0,0,1.77-1.29c.4.56.33.88-.23,1.11a7.79,7.79,0,0,0-1.15.49C62.33,21.47,62.18,21.67,61.6,23Z"/><path class="cls-4" d="M48.9,10.4a3.46,3.46,0,0,0,2.56-2.58c.23-.7.35-.72,1.16-.39a16.27,16.27,0,0,0-1.69,2.35A2,2,0,0,1,48.9,10.4Z"/><path class="cls-4" d="M64.57,52.66a8.83,8.83,0,0,0-2.13-1.56,1.94,1.94,0,0,1-.83-2.17,3.43,3.43,0,0,0,2.57,2.54C64.88,51.7,64.9,51.82,64.57,52.66Z"/><path class="cls-4" d="M7.44,52.63c-.23-.26-.15-.55-.22-.8s.15-.2.27-.24c.42-.18.86-.34,1.28-.54a2.93,2.93,0,0,0,1.6-2,1.73,1.73,0,0,1-.73,2A11.89,11.89,0,0,0,7.44,52.63Z"/><path class="cls-4" d="M52.63,64.56c-.28.22-.56.15-.8.22s-.2-.13-.25-.25a9.41,9.41,0,0,0-.71-1.59,2.85,2.85,0,0,0-1.52-1.19c-.1,0-.23,0-.3-.15a2,2,0,0,1,2.25,1.14A6.36,6.36,0,0,0,52.63,64.56Z"/><path class="cls-4" d="M10.38,23.08a3.46,3.46,0,0,0-2.61-2.55c-.65-.23-.7-.45-.32-1.15a8.44,8.44,0,0,0,2.06,1.5A1.94,1.94,0,0,1,10.38,23.08Z"/><path class="cls-4" d="M19.34,64.57a8.52,8.52,0,0,0,1.56-2.12A1.91,1.91,0,0,1,23,61.6a1.21,1.21,0,0,1-.23.1,3.18,3.18,0,0,0-2.06,2c-.05.14-.09.28-.14.42C20.27,64.88,20.18,64.92,19.34,64.57Z"/><path class="cls-4" d="M23,10.39a2,2,0,0,1-2.34-1.13,6.65,6.65,0,0,0-1.31-1.81c.25-.23.55-.14.8-.22s.19.14.24.26c.19.44.32.9.55,1.33A3.09,3.09,0,0,0,23,10.39Z"/><path class="cls-4" d="M27.17,8.55A3.68,3.68,0,0,0,26.93,5a.62.62,0,0,1,.41-.9c.11,0,.18,0,.19.1,0,1.08.54,2.09.46,3.18a1.27,1.27,0,0,1-.82,1.17Z"/><path class="cls-4" d="M44.82,8.55A1.27,1.27,0,0,1,44,7.38a11.19,11.19,0,0,1,.4-2.56c0-.08,0-.17.05-.26s-.1-.43.12-.46.39.25.58.39,0,.27,0,.38c-.18.38-.32.77-.47,1.17a3.1,3.1,0,0,0,.18,2.51Z"/><path class="cls-4" d="M8.54,44.83A3.68,3.68,0,0,0,5,45.07a.62.62,0,0,1-.9-.41c0-.11,0-.18.1-.19,1.08,0,2.09-.54,3.18-.46a1.27,1.27,0,0,1,1.17.82Z"/><path class="cls-4" d="M63.45,44.83A1.28,1.28,0,0,1,64.62,44a11.1,11.1,0,0,1,2.56.4l.22.05c.17,0,.44-.09.49.08s-.22.44-.37.63-.3,0-.43-.06a5.65,5.65,0,0,0-2.27-.65,4,4,0,0,0-1.37.37Z"/><path class="cls-4" d="M27.18,63.46A1.28,1.28,0,0,1,28,64.63a11,11,0,0,1-.4,2.56,1.42,1.42,0,0,1-.05.22c0,.17.09.44-.08.49s-.44-.22-.63-.37,0-.3.06-.43a5.45,5.45,0,0,0,.65-2.27,4,4,0,0,0-.37-1.37Z"/><path class="cls-4" d="M44.82,63.46a3.7,3.7,0,0,0,.26,3.6.63.63,0,0,1-.47.86c-.13,0-.15,0-.15-.15A21,21,0,0,0,44,65.4a1.78,1.78,0,0,1,.56-1.84.28.28,0,0,1,.24-.1Z"/><path class="cls-4" d="M8.54,27.18A1.27,1.27,0,0,1,7.37,28a11.1,11.1,0,0,1-2.56-.4l-.26-.05c-.16-.05-.43.1-.46-.12s.24-.39.39-.58.27,0,.38,0c.38.18.77.32,1.17.47a3.1,3.1,0,0,0,2.51-.18Z"/><path class="cls-4" d="M63.45,27.18a3.7,3.7,0,0,0,3.6-.26.63.63,0,0,1,.86.47c0,.13,0,.15-.15.15a23.55,23.55,0,0,0-2.37.44,1.78,1.78,0,0,1-1.84-.56c-.06-.07-.12-.13-.1-.23Z"/><path class="cls-4" d="M7.23,39.92a1.27,1.27,0,0,1-1.06,1,13.85,13.85,0,0,0-1.89.5c-.1-.65-.07-.68.52-.8A5.89,5.89,0,0,0,7.23,39.92Z"/><path class="cls-4" d="M64.75,39.85a5.64,5.64,0,0,0,2.67.85.48.48,0,0,1,.33.66c0,.14-.13.09-.21.06a9,9,0,0,0-1.6-.41A1.33,1.33,0,0,1,64.75,39.85Z"/><path class="cls-4" d="M32.16,7.26A1.44,1.44,0,0,1,31,5.93c-.05-.43-.19-.84-.28-1.26,0-.13-.34-.34,0-.41s.56,0,.63.33.07.5.12.75A4.14,4.14,0,0,0,32.16,7.26Z"/><path class="cls-4" d="M39.82,7.26a5.39,5.39,0,0,0,.86-2.61.53.53,0,0,1,.66-.41c.17.06.09.16.06.25A7.11,7.11,0,0,0,41,6C40.93,6.52,40.49,7.27,39.82,7.26Z"/><path class="cls-4" d="M64.76,32.15A1.44,1.44,0,0,1,66.1,31c.41-.06.81-.2,1.22-.27.14,0,.31-.32.43,0a.49.49,0,0,1-.37.64l-.75.12A4.09,4.09,0,0,0,64.76,32.15Z"/><path class="cls-4" d="M7.24,32.16a5.52,5.52,0,0,0-2.67-.84.54.54,0,0,1-.33-.68c.06-.13.14-.07.22,0A8.28,8.28,0,0,0,6,31,1.36,1.36,0,0,1,7.24,32.16Z"/><path class="cls-4" d="M39.82,64.74A1.47,1.47,0,0,1,41,66.09c.06.43.19.85.29,1.27,0,.12.27.27,0,.4a.51.51,0,0,1-.65-.31c0-.26-.09-.52-.13-.79A3.91,3.91,0,0,0,39.82,64.74Z"/><path class="cls-4" d="M32.14,64.76a5.61,5.61,0,0,0-.83,2.63.53.53,0,0,1-.65.38c-.17,0-.11-.14-.07-.24A8.18,8.18,0,0,0,31,66a1.66,1.66,0,0,1,.6-1A.59.59,0,0,1,32.14,64.76Z"/><path class="cls-4" d="M28.54,64a1.06,1.06,0,0,1,.61,1,10.77,10.77,0,0,1-.25,2.12c0,.17-.06.31-.27.24s-.42-.1-.34-.41a6.57,6.57,0,0,0,.33-2A3.55,3.55,0,0,0,28.54,64Z"/><path class="cls-4" d="M64,28.56a6.11,6.11,0,0,0,2.87-.24c.33-.1.4.09.47.31s-.14.28-.31.3a12.64,12.64,0,0,1-2,.24A1.17,1.17,0,0,1,64,28.56Z"/><path class="cls-4" d="M8,28.53a1.44,1.44,0,0,1-1.6.62c-.48,0-1-.15-1.45-.22-.17,0-.39,0-.3-.31s.15-.39.48-.3a6,6,0,0,0,1.93.31A3.34,3.34,0,0,0,8,28.53Z"/><path class="cls-4" d="M8,43.45a5.81,5.81,0,0,0-2.78.23c-.34.11-.43-.06-.5-.31s.17-.27.32-.29a11.6,11.6,0,0,1,2-.24A1,1,0,0,1,8,43.45Z"/><path class="cls-4" d="M64,43.49a1.08,1.08,0,0,1,1-.64,11.58,11.58,0,0,1,2.12.25c.17,0,.31.06.24.27s-.1.42-.41.34a6.57,6.57,0,0,0-2-.33A2.78,2.78,0,0,0,64,43.49Z"/><path class="cls-4" d="M28.53,8.06a5.71,5.71,0,0,0-.21-2.84c-.09-.33,0-.45.29-.52s.29.19.31.35a11,11,0,0,1,.24,2A1.24,1.24,0,0,1,28.53,8.06Z"/><path class="cls-4" d="M43.47,8.05a1.44,1.44,0,0,1-.62-1.61c0-.48.15-1,.23-1.45,0-.18,0-.38.31-.29s.38.14.3.44a6.36,6.36,0,0,0-.32,2A3.24,3.24,0,0,0,43.47,8.05Z"/><path class="cls-4" d="M43.45,64a6,6,0,0,0,.23,2.88c.08.28,0,.38-.25.46s-.31.06-.34-.19A15,15,0,0,1,42.83,65,1.24,1.24,0,0,1,43.45,64Z"/><path class="cls-4" d="M50.41,61.07a1.52,1.52,0,0,1,1.68.74l.81,1.12c.08.12.33.22.09.39s-.43.27-.61,0l-.52-.84A3.27,3.27,0,0,0,50.41,61.07Z"/><path class="cls-4" d="M21.61,61.06A3.37,3.37,0,0,0,20,62.62c-.15.24-.29.49-.46.72s-.38.1-.55,0,0-.27.06-.38c.38-.46.67-1,1.07-1.44A1.45,1.45,0,0,1,21.61,61.06Z"/><path class="cls-4" d="M21.58,10.94a1.52,1.52,0,0,1-1.68-.74l-.81-1.12C19,9,18.76,8.86,19,8.69s.4-.27.59,0,.36.58.54.87A3.27,3.27,0,0,0,21.58,10.94Z"/><path class="cls-4" d="M50.41,10.94A3.5,3.5,0,0,0,52,9.29a5.31,5.31,0,0,1,.42-.63c.19-.23.39-.07.56,0s0,.25-.06.36l-.84,1.15A1.52,1.52,0,0,1,50.41,10.94Z"/><path class="cls-4" d="M61.07,21.6A1.44,1.44,0,0,1,61.71,20c.43-.35.92-.6,1.32-1,.11-.1.22-.1.29,0s.25.38,0,.55-.48.31-.72.46A3.29,3.29,0,0,0,61.07,21.6Z"/><path class="cls-4" d="M10.92,21.6c-.43-1-1.35-1.42-2.14-1.93-.31-.2-.26-.39-.12-.64s.17-.14.29,0l1.43,1.07A1.39,1.39,0,0,1,10.92,21.6Z"/><path class="cls-4" d="M61.06,50.4c.43,1,1.35,1.41,2.13,1.94.15.1.3.18.24.41s-.23.39-.5.17c-.47-.4-1-.69-1.47-1.11A1.38,1.38,0,0,1,61.06,50.4Z"/><path class="cls-4" d="M10.93,50.42a1.52,1.52,0,0,1-.74,1.68l-1.12.81c-.12.08-.22.33-.39.09s-.27-.4,0-.59.58-.36.87-.54A3.27,3.27,0,0,0,10.93,50.42Z"/><path class="cls-4" d="M53.62,58.85a4.4,4.4,0,0,0,1.11,2.48c.36.51.37.51-.13.91-.34-.53-.69-1.05-1-1.59A1.67,1.67,0,0,1,53.62,58.85Z"/><path class="cls-4" d="M17.43,9.75c.26.57.64,1.07.95,1.61a1.64,1.64,0,0,1,0,1.78,4.58,4.58,0,0,0-1.15-2.47C16.89,10.18,16.9,10.16,17.43,9.75Z"/><path class="cls-4" d="M54.56,9.75c.54.41.54.43.16.95a4.41,4.41,0,0,0-1.11,2.44,1.62,1.62,0,0,1,0-1.78C53.92,10.82,54.3,10.32,54.56,9.75Z"/><path class="cls-4" d="M17.42,62.25c-.53-.4-.53-.41-.17-.92a4.46,4.46,0,0,0,1.13-2.47,1.64,1.64,0,0,1,0,1.82C18.05,61.21,17.7,61.71,17.42,62.25Z"/><path class="cls-4" d="M9.74,54.57c.58-.27,1.09-.66,1.64-1a1.63,1.63,0,0,1,1.74,0,4.68,4.68,0,0,0-2.46,1.14C10.17,55.11,10.15,55.11,9.74,54.57Z"/><path class="cls-4" d="M13.14,18.38a1.66,1.66,0,0,1-1.84,0,12.54,12.54,0,0,0-1.42-.83c-.08,0-.19-.09-.08-.19s.28-.44.57-.29a5,5,0,0,1,.55.39A3.77,3.77,0,0,0,13.14,18.38Z"/><path class="cls-4" d="M62.26,17.45c-1.1.36-1.89,1.68-3.31,1a4.56,4.56,0,0,0,2.36-1.15C61.83,16.91,61.83,16.9,62.26,17.45Z"/><path class="cls-4" d="M58.83,53.64a1.68,1.68,0,0,1,1.9,0c.5.3,1,.64,1.51.89-.38.53-.41.53-.91.18A4.21,4.21,0,0,0,58.83,53.64Z"/><path class="cls-5" d="M29.79,65.26a2.14,2.14,0,0,0-.45-1.44l2.18.42a2.44,2.44,0,0,0-1,1.11A3.55,3.55,0,0,1,29.79,65.26Z"/><path class="cls-5" d="M41.48,65.35a2.44,2.44,0,0,0-1-1.11l2.14-.42a2.47,2.47,0,0,0-.41,1.44A3.55,3.55,0,0,1,41.48,65.35Z"/><path class="cls-5" d="M65.34,30.52a2.44,2.44,0,0,0-1.11,1l-.42-2.14a2.47,2.47,0,0,0,1.44.41A1.74,1.74,0,0,0,65.34,30.52Z"/><path class="cls-5" d="M6.74,29.8a2.38,2.38,0,0,0,1.43-.41l-.4,2.12a2.64,2.64,0,0,0-1.12-1A1.74,1.74,0,0,0,6.74,29.8Z"/><path class="cls-5" d="M6.65,41.49a2.29,2.29,0,0,0,1.1-1l.42,2.15a2.56,2.56,0,0,0-1.43-.39A1.74,1.74,0,0,0,6.65,41.49Z"/><path class="cls-5" d="M11.33,19.09a1.94,1.94,0,0,0,1.21.19c.17-.05.26,0,.13.22l-1,1.54a2.65,2.65,0,0,0-.75-1.42C11.18,19.58,11.27,19.35,11.33,19.09Z"/><path class="cls-5" d="M65.16,42.2a2.33,2.33,0,0,0-1.35.44l.42-2.16a2.44,2.44,0,0,0,1.11,1A2.18,2.18,0,0,0,65.16,42.2Z"/><path class="cls-5" d="M42.19,6.84a2.79,2.79,0,0,0,.39,1.33l-2.1-.39a2.6,2.6,0,0,0,1-1.12A1.59,1.59,0,0,0,42.19,6.84Z"/><path class="cls-5" d="M30.51,6.66a2.29,2.29,0,0,0,1,1.1l-2.11.41a3.27,3.27,0,0,0,.36-1.33A1.06,1.06,0,0,0,30.51,6.66Z"/><path class="cls-5" d="M19.08,60.67a1.87,1.87,0,0,0,.19-1.21c0-.06,0-.17.06-.18s.13,0,.19.08l1.51,1a3.19,3.19,0,0,0-1.31.58C19.47,61,19.36,60.61,19.08,60.67Z"/><path class="cls-5" d="M60.94,19.73a2.83,2.83,0,0,0-.57,1.33l-1-1.56c-.13-.19,0-.27.13-.22a1.94,1.94,0,0,0,1.21-.19C60.63,19.36,60.88,19.51,60.94,19.73Z"/><path class="cls-5" d="M19.72,11.06c.42.19.75.56,1.36.55l-1.59,1.07c-.19.13-.27,0-.22-.13a1.94,1.94,0,0,0-.19-1.21C19.35,11.37,19.52,11.17,19.72,11.06Z"/><path class="cls-5" d="M52.27,61a2.93,2.93,0,0,0-1.33-.57l1.56-1.05c.19-.13.27,0,.22.13a1.94,1.94,0,0,0,.19,1.21C52.64,60.64,52.47,60.84,52.27,61Z"/><path class="cls-5" d="M52.91,11.34a1.87,1.87,0,0,0-.19,1.21c0,.06,0,.17-.06.18s-.13,0-.19-.08l-1.51-1a3.27,3.27,0,0,0,1.31-.59C52.47,11.17,52.64,11.37,52.91,11.34Z"/><path class="cls-5" d="M11.05,52.28A2.93,2.93,0,0,0,11.62,51c.38.56.71,1.07,1.05,1.56.13.19,0,.27-.13.22a1.94,1.94,0,0,0-1.21.19C11.36,52.65,11.16,52.48,11.05,52.28Z"/><path class="cls-5" d="M60.56,52.84c-.43-.05-.84-.29-1.3-.06l0-.11L60.36,51a3.12,3.12,0,0,0,.58,1.32Z"/><path class="cls-6" d="M60.56,52.84l.38-.56a6.41,6.41,0,0,1,2.11,1.8A7.46,7.46,0,0,1,60.56,52.84Z"/><path class="cls-6" d="M30.51,6.66a1.06,1.06,0,0,1-.71.18,6.88,6.88,0,0,0-.22-1.5,2.13,2.13,0,0,1,.08-1.19A6.29,6.29,0,0,1,30.51,6.66Z"/><path class="cls-6" d="M11.05,52.28c.11.2.31.37.28.64a14.78,14.78,0,0,1-1.83,1A1.78,1.78,0,0,1,9,54,5.8,5.8,0,0,1,11.05,52.28Z"/><path class="cls-6" d="M52.27,61c.2-.11.37-.31.64-.28a20,20,0,0,1,1,1.74A2.06,2.06,0,0,1,54,63,5.8,5.8,0,0,1,52.27,61Z"/><path class="cls-6" d="M52.91,11.34c-.27,0-.44-.17-.64-.28a7,7,0,0,1,1.78-2.12A6.84,6.84,0,0,1,52.91,11.34Z"/><path class="cls-6" d="M42.19,6.84a1.59,1.59,0,0,1-.71-.18c.15-.61.29-1.21.45-1.81a1.45,1.45,0,0,1,.38-.68,2,2,0,0,1,0,1.44A7.28,7.28,0,0,0,42.19,6.84Z"/><path class="cls-6" d="M60.94,19.73c-.06-.22-.31-.37-.28-.64A10.41,10.41,0,0,1,62.83,18l.25-.06A6.29,6.29,0,0,1,60.94,19.73Z"/><path class="cls-6" d="M65.16,42.2a2.18,2.18,0,0,1,.18-.71l1.82.45a1.23,1.23,0,0,1,.66.39,2,2,0,0,1-1.43,0A7.14,7.14,0,0,0,65.16,42.2Z"/><path class="cls-6" d="M19.08,60.67c.28-.06.39.29.64.28a6.74,6.74,0,0,1-1.8,2.13A7.29,7.29,0,0,1,19.08,60.67Z"/><path class="cls-6" d="M19.72,11.06c-.2.11-.37.31-.64.28a10.45,10.45,0,0,1-1.14-2.17l0-.24C18.81,9.44,19.16,10.34,19.72,11.06Z"/><path class="cls-6" d="M6.74,29.8a1.74,1.74,0,0,1-.09.72c-.61-.15-1.21-.29-1.81-.45a1.22,1.22,0,0,1-.67-.39,2,2,0,0,1,1.43,0A6.26,6.26,0,0,0,6.74,29.8Z"/><path class="cls-6" d="M65.34,30.52a1.74,1.74,0,0,1-.09-.72,6.67,6.67,0,0,0,1.41-.21,2.23,2.23,0,0,1,1.19.08A6.29,6.29,0,0,1,65.34,30.52Z"/><path class="cls-6" d="M6.65,41.49a1.74,1.74,0,0,1,.09.72,6.67,6.67,0,0,0-1.41.21,2.13,2.13,0,0,1-1.19-.08C4.89,41.7,5.83,41.77,6.65,41.49Z"/><path class="cls-6" d="M11.33,19.09c-.06.26-.15.49-.45.53a7,7,0,0,1-2-1.69,4.23,4.23,0,0,1,2,.91A1.13,1.13,0,0,0,11.33,19.09Z"/><path class="cls-6" d="M29.79,65.26a3.55,3.55,0,0,0,.72.09c-.15.61-.29,1.21-.45,1.81a1.22,1.22,0,0,1-.39.67,2.18,2.18,0,0,1,0-1.47C29.7,66,29.74,65.63,29.79,65.26Z"/><path class="cls-6" d="M41.48,65.35a3.55,3.55,0,0,0,.72-.09,6.67,6.67,0,0,0,.21,1.41,2.17,2.17,0,0,1-.08,1.2C41.69,67.12,41.76,66.17,41.48,65.35Z"/><path class="cls-4" d="M8.54,27.18l0,0s0,0,0,0Z"/><path class="cls-4" d="M63.45,27.19l0,0h0l0,0Z"/><path class="cls-4" d="M65.06,37.46l0-.06.06,0Z"/><path class="cls-4" d="M6.91,37.44l.06,0,0,.06Z"/><path class="cls-4" d="M65.08,34.58l-.06,0,0-.06Z"/><path class="cls-4" d="M6.93,34.55l0,.06-.06,0Z"/><path class="cls-4" d="M8.54,44.83l0,0h0l0,0Z"/><path class="cls-4" d="M44.82,8.55l0,0h0a.06.06,0,0,1,0,0Z"/><path class="cls-4" d="M27.17,8.55l0,0v0l0,0Z"/><path class="cls-4" d="M37.45,7l-.06,0,0-.06Z"/><path class="cls-4" d="M44.82,63.46l0,0v0l0,0Z"/><path class="cls-4" d="M34.57,6.92l0,.06-.06,0Z"/><path class="cls-4" d="M27.17,63.46l0,0h0s0,0,0,0Z"/><path class="cls-4" d="M63.45,44.83l0,0v0Z"/><path class="cls-4" d="M34.54,65.07l.06,0,0,.06Z"/><path class="cls-4" d="M37.42,65.09l0-.06.06,0Z"/><path class="cls-7" d="M17.44,52.56c-.11.24-.32.17-.44.07-.44-.37-.51-.09-.54.29l-.2.39c-.1-.06-.07-.14-.05-.2.17-.63.17-.62-.47-.8-.2-.06-.6,0-.49-.34s.37,0,.57,0a4.07,4.07,0,0,1,.53.16c-.1-.26-.17-.46-.24-.66a.89.89,0,0,1,.32-.7c.26-.21.59.15.73-.05s.07-.53.3-.72l.11-.07c.26-.17.05-.33,0-.5a.27.27,0,0,0-.43-.16c-.64.41-1.33.74-1.93,1.21-.36-.09,0-.3-.08-.44.39-.23.77-.48,1.15-.71,1-.59,1-.58.32-1.52-.14-.2-.26-.23-.43-.08a1.09,1.09,0,0,1-.88.24c-.37-.06-.48.13-.51.44a6.51,6.51,0,0,0-.11,1.16c-.38-.15,0-.41-.09-.61a3.58,3.58,0,0,1,.34-1.55c.15-.33.36-.35.54,0s.28.31.5.16.33-.32.12-.58a2.29,2.29,0,0,1-.44-.67c0-.1-.09-.18-.23-.12-.69.3-1.42.54-2.08.9-.38,0-.19-.19-.17-.34a1.27,1.27,0,0,1,.43-.23c.53-.2,1-.43,1.57-.65.1,0,.27,0,.19-.23s-.19-.5-.29-.75-.15-.11-.26-.06-.42.33-.59.22-.23-.41-.32-.63a2.26,2.26,0,0,1-.13-.33c-.09-.25-.24-.38-.51-.32h0a.37.37,0,0,1,.39-.35c.21,0,.29.19.37.36s.14.36.22.53,0,.41.37.29.21-.31.11-.52c-.17-.4-.32-.8-.48-1.2.2-.3.31-.14.4.07.18.41.35.83.51,1.24a20.93,20.93,0,0,0,3.3,5.65,7,7,0,0,1,1.21,1.6c-.07,0-.19.08-.21.05-.37-.4-.61-.07-.87.15a.67.67,0,0,1-1,0L17,51.15a.42.42,0,0,0-.57,0c-.18.18-.09.37,0,.53a1.61,1.61,0,0,0,.66.52C17.2,52.32,17.43,52.32,17.44,52.56Zm.72-1.25v.06c.06,0,.09,0,.12-.06.65-.46.64-.6-.1-1.13v.67c-.17-.17-.06-.4-.09-.6s-.09-.21-.22-.1-.18.17-.27.25a.48.48,0,0,0-.07.77c.26.34.44.16.65,0Z"/><path class="cls-7" d="M38.79,61.56v-.18a1.73,1.73,0,0,0,1.24.2c.19-.07.37-.12.36-.34A.32.32,0,0,0,40,61c-.34,0-.47,0-.41-.39a1.43,1.43,0,0,0-.16-.72c0-.11.07-.34-.21-.28s-.65-.08-.68.26c-.06.63-.29.28-.51.15a1.31,1.31,0,0,1-.42-.39c0-.05,0-.13.09-.15.6-.2.18-.62.17-.93s-.29-.16-.46-.12-.22,0-.24-.12a.18.18,0,0,1,.17-.22l.39-.08a29.3,29.3,0,0,0,3.09-.52c1-.29,2.06-.62,3.09-.93.11,0,.26-.17.35,0s-.1.24-.24.29-.39.23-.2.5a3.88,3.88,0,0,0,.36,1.17l.19.72,0,.3a.84.84,0,0,1-.43-.3c-.18-.65-.37-1.29-.55-1.93,0-.19-.15-.24-.32-.16l-.39.12c-.34.06-.45.23-.28.56s.06.36-.2.42a2.72,2.72,0,0,0-.38.11c-.59.21-.67.36-.49,1a.61.61,0,0,1-.42-.62.63.63,0,0,1,.5-.56l.38-.13c.14,0,.31-.08.22-.3s-.18-.2-.36-.14a6.8,6.8,0,0,1-1.72.44c-.16,0-.36.06-.31.29.15.64.15,1.3.34,1.92,0,.23,0,.42.3.51s.36.43.33.75a1,1,0,0,1-1.35.3Zm.1-3.43c-.22.09-.67,0-.6.32s-.24.82.34.84c.22,0,.71.13.67-.33C39.28,58.69,39.46,58.2,38.89,58.13Z"/><path class="cls-7" d="M13.23,43.75a.73.73,0,0,0,.14.73c.3.43.27.7-.06,1a1,1,0,0,0-.12-.64.83.83,0,0,0-.74-.43c-.33,0-.43.32-.53.59a6.94,6.94,0,0,0-.19,1.64,6.31,6.31,0,0,1,0-1.79c.13-.37.24-.76.72-.84.31.11.57.09.72-.25Z"/><path class="cls-7" d="M13.22,45.55c-.05.25-.28.2-.45.26l-.29-.11a.22.22,0,0,1-.13-.32c.07-.16.19-.07.29,0A1.33,1.33,0,0,0,13.22,45.55Z"/><path class="cls-7" d="M13.31,45.46l-.09.09Z"/><path class="cls-7" d="M51.55,53.56a4.4,4.4,0,0,0,.64.85c.06.08.23.15.11.28a.27.27,0,0,1-.33,0,3.85,3.85,0,0,1-.41-.4c-.23-.29-.47-.57-.69-.87-.46-.6-.66-.61-1.16,0-.1.12-.15.22,0,.34.34.29.27.49-.07.77-.62.49-.63.64-.31,1.13v0c-.52-.14-.69-.5-.43-.93a1.46,1.46,0,0,1,.42-.4c.12-.08.27-.18.15-.36s-.27-.1-.41,0a7,7,0,0,1-1.46,1c-.16.05-.14.16-.07.28l1,1.81c0,.21.25.56-.27.35l-.31-.54c-.09-.16-.19-.37-.4-.2s-.59.14-.42.56c0,.11.1.24,0,.33s-.23,0-.34-.07l-.32-.14c-.19-.12-.44-.21-.08-.45s.14-.36-.1-.47c.19-.22-.13-.35-.09-.54a.85.85,0,0,1,.59.5c.19.32.35.08.52,0s.31-.22.18-.45a2.16,2.16,0,0,1-.22-.39c-.11-.29-.27-.29-.51-.15s-.4.21-.61,0c.65-.39,1.31-.74,1.92-1.17a19.24,19.24,0,0,0,1.8-1.44c.44-.39,1-.65,1.28-1.22l.36-.35c.19-.16.41-.28.46-.55l.53-.53c.12-.06.24-.16.37,0s0,.21-.05.27c-.41.28-.25.51.06.72.09.06.16.14.25.2a1.89,1.89,0,0,0,.62.54c.16.18.32.35.49.52s.16.12.1.22-.18.07-.28,0-.31-.3-.55-.38c-.24.64-.78.74-1.37.76-.12,0-.32,0-.21-.21a.74.74,0,0,0,.12-.38.54.54,0,0,0-.31-.51.27.27,0,0,0-.33,0c-.66.49-.69.7-.15,1.33A2.34,2.34,0,0,0,51.55,53.56Zm.12-1.9c.58.11.81.44.7,1-.06.25.07.22.21.19a.69.69,0,0,0,.34-1.11C52.24,51,52.24,51,51.67,51.66Z"/><path class="cls-7" d="M46.44,15.21c.16-.23.45-.46,0-.69a.17.17,0,0,1-.07-.2.13.13,0,0,1,.17-.09c.65.33.38-.22.44-.46a1.24,1.24,0,0,1,1.76.11,2.81,2.81,0,0,1,.39.38c.22.29.37.59.87.44s.76.38.83.9a.33.33,0,0,1-.34-.21c-.1-.16-.21-.31-.43-.26a.38.38,0,0,0-.29.44.55.55,0,0,0,.38.7.2.2,0,0,1,.14.28c-.08.16-.21.09-.3,0-.47-.35-.57,0-.68.35a9,9,0,0,0-.9,1.53c-.08,0-.1.2-.2.13s-.16-.3-.14-.48.29-.29.28-.52c-.89-.09-1-.24-1-1.2a.5.5,0,0,1,.52-.35c.45,0,.89.14,1,.7.43-.54.42-.53-.08-.85s-1-.49-1.42-.83c-.18-.14-.32-.1-.43.12s-.33.63-.51.94a2.54,2.54,0,0,0-.45.8c-.11.06-.11.29-.27.24s-.18-.24-.17-.4A9.12,9.12,0,0,0,46.44,15.21Zm3,.63c0-.06.06-.07,0-.09s0-.32-.07-.48a2.21,2.21,0,0,0-1.5-1.41.53.53,0,0,0-.62.39c-.12.3,0,.44.29.54a3.21,3.21,0,0,1,.31.19Zm-1.31,1.27h.25c.15,0,.33,0,.38-.16s-.13-.25-.24-.34a.75.75,0,0,0-.2-.1c-.26,0-.53-.12-.76.08a.22.22,0,0,0,0,.28C47.62,17.2,47.91,17.08,48.11,17.11Z"/><path class="cls-7" d="M13.13,26.19c.43-.09.9-.12,1-.69,0-.11.12-.12.21-.08s.11.19.06.3c-.11.28-.18.53.25.56l1.62.63c.14.1.33.12.44.29a.64.64,0,0,1-.7.06l-.84-.32c-.07,0-.19-.12-.23,0-.14.31-.36.62-.24,1s.45.31.73.26a6.5,6.5,0,0,0,.86-.25,2.1,2.1,0,0,1-1.28.47c-.71-.08-.88-.38-.6-1.07l.12-.34c.08-.2,0-.29-.19-.36s-.26,0-.33.19c-.21.55-.45,1.1-.67,1.66-.06.17-.13.36.13.44a9.58,9.58,0,0,0,1.27.45c.24.25.65.17.89.45a.54.54,0,0,1-.68.09,3.22,3.22,0,0,0-.75-.28l-.66-.28c-.25-.11-.49-.25-.6.17,0,.1-.12.13-.22.08a.17.17,0,0,1-.12-.21c0-.11.07-.22.12-.36-.24,0-.45.11-.67,0a1.65,1.65,0,0,1,.32-2.32A3,3,0,0,1,13.13,26.19Zm.73,0a2.27,2.27,0,0,0-1,.51,2.18,2.18,0,0,0-.83,1.45.49.49,0,0,0,.41.55c.3.08.47-.05.58-.35C13.29,27.65,13.57,27,13.86,26.19Z"/><path class="cls-7" d="M39.32,11.71c.15.34.49.34.79.43.08,0,.19,0,.19.14s-.14.16-.23.14c-.38-.06-.49.09-.5.46s-.08.53-.06.8-.07.8-.1,1.2c0,.07,0,.16-.07.19s-.16-.07-.19-.14a.63.63,0,0,1-.09-.25c0-.29-.11-.27-.32-.17s-.73.31-1-.11c1-.08,1.34-.34,1.45-1.35,0-.07,0-.14.05-.22,0-.23.12-.48-.26-.53a.22.22,0,0,1-.2-.27c.15-.12.3.1.48-.08a8.27,8.27,0,0,0-.77-.69,1.91,1.91,0,0,0-1.77-.37.49.49,0,0,0-.32.53.4.4,0,0,0,.38.42l.31,0c.12,0,.2.06.19.19s-.1.15-.22.14c-.57,0-.57,0-.57.53,0,.19,0,.39,0,.58-.15.48,0,1-.19,1.49-.43-.19-.33-.54-.33-.85.16-.44,0-.92.15-1.36,0-.25,0-.49-.33-.46a.16.16,0,0,1-.16-.17c0-.05.06-.14.09-.14.6,0,.31-.4.32-.67a1.06,1.06,0,0,1,1.23-.7,2.79,2.79,0,0,1,1.59.76c.09-.3.24-.58.57-.57a1,1,0,0,1,.89.58c-.35.08-.62-.49-1-.1A.43.43,0,0,0,39.32,11.71Z"/><path class="cls-7" d="M56.07,24.75l.45-.18c.21-.09.43-.17.22-.47a.16.16,0,0,1,.08-.25c.08,0,.18-.1.22,0,.17.54.32.19.47,0a.83.83,0,0,1,1.14.3A2.16,2.16,0,0,1,58.94,26c-.22.45-.65.84-.29,1.41.09.15,0,.25-.15.32a.42.42,0,0,1-.22-.27c-.09-.26-.26-.33-.47-.15s-.42.1-.55-.14c-.28-.72-.38-.8-1-.79.19-.42.5-.5.83-.22a1.81,1.81,0,0,1,.4.59c.07.13.11.3.32.2s.15-.22.09-.37q-.37-.79-.72-1.59c-.07-.18-.17-.23-.34-.15l-1.49.72c-.26,0-.46.28-.78.24a.88.88,0,0,1,.34-.51Zm2.31,2a2.47,2.47,0,0,0,.07-2.27.55.55,0,0,0-.77-.21c-.34.12-.28.36-.17.62A16.06,16.06,0,0,0,58.38,26.75Z"/><path class="cls-7" d="M23,16.75c.24-.13.15-.29,0-.44s-.24-.11-.38,0c-.39.29-.78.56-1.17.83l-.22.16c-.12.08-.26.14-.36,0s.08-.2.16-.27l1.22-.9c.14-.1.26-.2.42-.33-.62-.22-1.18-.4-1.69.14-.4-.27-.39-.26,0-.51s.83,0,1.24.06a.77.77,0,0,0,1-.1c.08-.08.2-.23.34-.06s0,.24-.11.31c-.4.22-.32.45,0,.68a7.77,7.77,0,0,0,.81,1.16l.36.59c-.25.07-.43.07-.56-.17a.74.74,0,0,0-.32-.36,1.7,1.7,0,0,0-.44-.67c-.18.23-.12.48-.2.7s0,.2-.09.23a.22.22,0,0,1-.26-.14c0-.16-.07-.31-.28-.25s-.35.11-.37.33a.44.44,0,0,0,.17.48,1,1,0,0,0,.55.16,1.13,1.13,0,0,1,.61.24l-1-.06c-.11-.14-.3-.08-.44-.17s-.43-.34-.36-.65a.49.49,0,0,1,.55-.42C22.7,17.36,22.84,17.1,23,16.75Z"/><path class="cls-7" d="M13.76,41.93a14.67,14.67,0,0,0-1.62.38,4,4,0,0,1-.78.14c0-.32.27-.41.51-.5.66-.11.63-.1.47-.74-.11-.44-.43-.17-.65-.26l.08-.26c.11-.15.2-.3.31-.44s.22-.27.39,0,.5,0,.75,0,.28-.27.21-.5-.06-.24.1-.29a.17.17,0,0,1,.23.15l.69,2.67c0,.1,0,.19-.1.21a.16.16,0,0,1-.22-.09A1.33,1.33,0,0,1,14,42C14,41.86,13.91,41.81,13.76,41.93Zm-.71-.21c.21-.25.73,0,.77-.43,0-.22.06-.7-.38-.68-.28,0-.72,0-.78.33A.64.64,0,0,0,13.05,41.72Z"/><path class="cls-7" d="M49.94,56.26c.15-.27.17-.48-.24-.46a.48.48,0,0,1-.39-.16v0a1,1,0,0,0,.6-.07c.1-.06.25-.13.15-.26s-.15-.34,0-.5a.46.46,0,0,1,.63,0c0,.28.07.47.39.47.07,0,.2,0,.19.14a.18.18,0,0,1-.19.15c-.2,0-.44-.22-.57,0a2,2,0,0,0-.26.89C50.11,56.53,49.91,56.61,49.94,56.26Z"/><path class="cls-7" d="M41.39,59.41c.15,0,.3,0,.45,0s.25-.06.21-.25.12-.4.38-.39.46.14.36.43.06.31.23.39c0,.11.25.1.17.25a.17.17,0,0,1-.27,0c-.49-.54-.7-.06-1,.27-.06.08-.08.2-.2.21a.28.28,0,0,1-.2-.08c-.15-.16.09-.22.1-.34.17-.11.24-.23,0-.35S41.46,59.52,41.39,59.41Z"/><path class="cls-7" d="M26.28,13.68c-.37,0-.62-.34-1-.27l-.6.1c-.13,0-.25,0-.27-.18s.11-.15.21-.19a1.11,1.11,0,0,1,.89.08l.49.2C26.07,13.53,26.24,13.54,26.28,13.68Z"/><path class="cls-7" d="M17.17,19.54c0,.34,0,.59-.43.52C16.69,19.73,16.75,19.49,17.17,19.54Z"/><path class="cls-7" d="M56.7,22.41c-.11-.1-.21-.19-.16-.35s.25-.15.41-.09a.13.13,0,0,1,.09.17C57,22.32,56.91,22.44,56.7,22.41Z"/><path class="cls-7" d="M24.66,56.28c.37-.42.35-.49-.11-.76-.18-.1-.61-.1-.49-.38s.44,0,.64.09a10.72,10.72,0,0,1,1.45.7,17.64,17.64,0,0,0,4.23,1.51,15.48,15.48,0,0,0,3.88.56c.58,0,1.17,0,1.75.07.16,0,.39,0,.4.19s-.25.17-.38.16c-.32,0-.42.1-.4.41a8,8,0,0,1,0,.85c0,.45-.07.91-.1,1.38a.5.5,0,0,1-.35-.61c0-.21,0-.29-.27-.23a1.14,1.14,0,0,1-.8-.19c0-.08-.07-.17-.11-.26.59.28,1,.21,1.19-.22a1.7,1.7,0,0,0,.06-1c0-.29-.35-.16-.54-.16s-.15.16-.11.3a.62.62,0,0,1-.37.81c-.11,0-.23.08-.22.24-.26,0-.31-.23-.4-.41l.33-.1a.55.55,0,0,0,.39-.62c-.06-.31-.31-.31-.56-.32a3.48,3.48,0,0,1-1-.06.19.19,0,0,0-.27.15c-.2.69,0,1,.74.89.1,0,.22-.11.23.07a.19.19,0,0,1-.19.21,1.88,1.88,0,0,1-.67,0c-.33-.07-.41,0-.49.4l0,.18h0a1.17,1.17,0,0,1-.52-.75c-.06-.21,0-.46.3-.39s.29-.17.31-.35,0-.4-.29-.4a.78.78,0,0,1-.65-.19c-.2.77-.4,1.49-.58,2.21-.09.35-.21.27-.36.05a.74.74,0,0,1,0-.26c.16-.36,0-.47-.34-.47a.54.54,0,0,1-.58-.44c.27,0,.5.25.82.14.47-.16.42-.59.56-.94s0-.5-.33-.54c-.12,0-.25-.12-.38,0,.13.68.11.74-.49,1a.29.29,0,0,0-.17.32l-.26-.2c-.12-.29-.09-.45.29-.47a.47.47,0,0,0,.42-.5c0-.32-.2-.37-.41-.42-.54-.14-1.07-.3-1.61-.41-.35-.07-.76-.42-1-.23s-.38.7-.55,1.06a.15.15,0,0,0,0,.09,2.07,2.07,0,0,0-.36.71c-.11,0-.1.27-.24.22s-.1-.23-.12-.35.19-.3.19-.49a2.17,2.17,0,0,0,.36-.71c.1-.33.53-.65.34-.95s-.62-.32-.93-.49-.31,0-.37.17a.88.88,0,0,1-.45.59.61.61,0,0,0-.4.85,2.42,2.42,0,0,1-.41-1.06c-.07-.31.14-.44.43-.31C24.43,56.3,24.53,56.42,24.66,56.28Z"/><path class="cls-7" d="M19.62,51.5a3.46,3.46,0,0,1,1.1.8c.88.69,1.73,1.42,2.59,2.14.11.09.33.19.15.38s-.27,0-.37-.1-.28-.27-.42,0A10,10,0,0,0,21.59,56a1.14,1.14,0,0,0-.16.15c-.09.14-.19.37-.35.33S21,56.16,21,56c.21,0,.26-.25.44-.41a1,1,0,0,1-.79-.78c-.06-.26-.07-.53-.11-.79l.52.13c.29.07.45-.12.59-.32s0-.34-.18-.47l-.81-.7c-.1-.07-.25-.24-.34-.11s-.47.4-.46.67a.58.58,0,0,0,.55.52c.24,0,.14.16.13.28a.9.9,0,0,1-.84-.47c-.11-.15-.19-.24-.39-.16s-.31.14-.3.37,0,.47,0,.71a.06.06,0,0,1,0,0s-.07.07-.08,0c0-.29-.07-.58-.11-.87a2.37,2.37,0,0,1,.18-.87c.08-.19.23-.31.41-.13s.39.08.54-.09a.32.32,0,0,0-.06-.52C19.69,51.9,19.47,51.77,19.62,51.5Zm1.09,3c.08.36.21.62.58.69a.66.66,0,0,0,.77-.38.81.81,0,0,1,.21-.24c.3-.23.19-.42-.06-.58s-.21-.22-.38-.19C21.68,54.46,21.49,54.59,20.71,54.48Z"/><path class="cls-7" d="M24.29,57.61h.1c0,.07.12.17,0,.22s-.1-.07-.12-.13Z"/><path class="cls-7" d="M38.6,61.3l-.07-.1,0,0,0,.11Z"/><path class="cls-7" d="M38.61,61.29a.18.18,0,0,1,.18.09v0a.17.17,0,0,1-.18-.1Z"/><path class="cls-7" d="M32.13,60.13l0,0,0,0Z"/><path class="cls-7" d="M32.3,60.4l0,0,0,0Z"/><path class="cls-7" d="M32.31,60.4l0,0-.05,0Z"/><path class="cls-5" d="M18.16,51.31h.11s-.06.09-.12.06Z"/><path class="cls-7" d="M58,44.83c.16.17.41.17.6.3s.23.06.17.21a.24.24,0,0,1-.27.11,3.12,3.12,0,0,1-.88-.33c-.55-.25-.56-.24-.75.38a1.58,1.58,0,0,1,.48,0,.62.62,0,0,1,.47.49.56.56,0,0,1-.32.6,2.25,2.25,0,0,1-1.41.21c.1-.2.28-.15.43-.14a1.33,1.33,0,0,0,.72-.22.35.35,0,0,0,.19-.37.34.34,0,0,0-.39-.24l-.72.15A3.43,3.43,0,0,1,56.7,45c.12-.25,0-.3-.19-.39s-.24,0-.31.17a20.5,20.5,0,0,1-.88,1.91c-.14.21.09.28.22.36l1.72,1.05c.08,0,.17.07.2.19a.5.5,0,0,1-.65,0c-.49-.29-1-.59-1.45-.89-.24-.16-.43-.22-.56.11a.76.76,0,0,1-.12.19c-.13.22-.34.44-.36.67s.37.23.52.4.21.2.24.32c.14.41.36.62.84.41-.22.25-.53.19-.76.34a1.23,1.23,0,0,1-.71-.07.58.58,0,0,1,.1-.42c.16-.22.08-.38-.14-.5s-.39-.11-.52.14-.17.28-.25.42-.14.22-.27.15-.08-.23,0-.35.23-.25.22-.43a.16.16,0,0,0,.09-.17.29.29,0,0,0,.18-.28,18.89,18.89,0,0,0,2.52-4.94c.32,0,.44.18.25.47s-.14.39.18.46a1.77,1.77,0,0,0,.46.15A2.17,2.17,0,0,0,58,44.83Z"/><path class="cls-7" d="M58.68,28.18c.2,0,.32,0,.38.25.27,1.24.57,2.48.87,3.72.06.3-.08.38-.35.33,0-.63-.07-.65-.67-.5-.17,0-.33.1-.5.15a6.43,6.43,0,0,0-1,.2c-.17.05-.41.17-.49,0S57,32,57.24,32l1.08-.26a4.11,4.11,0,0,0,.86-.18c.09,0,.21,0,.18-.14-.06-.3-.14-.6-.22-.9a.15.15,0,0,0-.21-.11l-.88.24a4,4,0,0,0-1.1.26c-.15,0-.37.12-.41-.11s.15-.29.34-.32a.66.66,0,0,0,.19-.09,1.78,1.78,0,0,0,.82-.17c.08,0,.19,0,.23-.1.12-.29-.28-.93-.61-1l-.54.19h0a.73.73,0,0,1,.72-.54.65.65,0,0,1,.64.62,3.29,3.29,0,0,0,.09.43c0,.18.09.35.35.26s.27-.13.22-.37A9.63,9.63,0,0,1,58.68,28.18Z"/><path class="cls-7" d="M58.32,40.23a6.43,6.43,0,0,0,1.08.2l.59.16c.07,0,.17,0,.18.1s-.1.14-.16.19-.41-.05-.61,0l-.52-.11c-.14,0-.32-.16-.42,0a1.2,1.2,0,0,0-.12,1c.1.31.42.23.66.2a1,1,0,0,0,.31-.15l.38-.1c-.19.28-.46.31-.65.45a1.12,1.12,0,0,1-1-.08c-.38-.37-.13-.79,0-1.17s-.07-.26-.23-.33-.26,0-.3.19a10,10,0,0,0-.23,1.09c0,.31-.16.42-.45.38l.34-1.61c0-.14,0-.27-.17-.27a.89.89,0,0,0,.38-.76.24.24,0,0,1,.16-.24c.3.09.19.34.16.51s0,.3.22.31A3,3,0,0,1,58.32,40.23Z"/><path class="cls-2" d="M58.77,35.19a1.33,1.33,0,0,1,1,0,1,1,0,0,1,0,1.59,1.52,1.52,0,0,1-1.07,0C58.15,36.14,58.17,35.69,58.77,35.19Z"/><path class="cls-7" d="M56.52,49.33a.41.41,0,0,1-.4.15c.09-.2.26-.14.4-.15Z"/><path class="cls-7" d="M59.88,41.66l-.09-.07s.05-.07.09-.08a.28.28,0,0,1,.09.05Z"/><path class="cls-7" d="M56.52,49.33l.08-.07,0,0-.11,0Z"/><path class="cls-7" d="M13.94,31c.45.18.94.16,1.41.31a.59.59,0,0,1-.69.3c-.08-.08-.19-.12-.25,0s.05.22.14.29c0,.29.36.55.1.88-.4-.1-.33-.51-.49-.76s-.14-.23-.31-.13h0c-.08-.17.19-.43-.08-.51a2.88,2.88,0,0,0-.92-.12c-.4,0-.22.43-.32.65s.13.25.27.3a1.05,1.05,0,0,0,1-.24l0,0a.79.79,0,0,1-.74.63c-.25,0-.59-.25-.73.2a.2.2,0,0,1-.16,0c-.11,0-.11-.14-.09-.22.13-.77.28-1.55.42-2.32,0-.13.07-.24.23-.21s.15.16.1.28c-.12.33,0,.47.34.51Z"/><path class="cls-2" d="M13,35.1a1,1,0,0,1,1,.91,1,1,0,0,1-1,.91c-.57-.13-.82-.41-.81-.94S12.4,35.22,13,35.1Z"/><path class="cls-7" d="M19.34,23.31c-.07.31-.29.2-.41.1s-.38-.13-.52.08-.17.21-.33.18-.18-.12,0-.28c.34-.38.61-.81.95-1.18s.2-.43-.13-.53c-.15.27-.11.64-.5.74a2.22,2.22,0,0,0,.08-1c0-.09-.05-.28-.17-.16s-.48.42-.45.78.26.4.54.39c-.05,0-.11.09-.14.08a1.45,1.45,0,0,0-1.38.19c0-.34.26-.49.41-.71a9.91,9.91,0,0,1,.63-.82c.07-.1.17-.19,0-.3s-.28,0-.37.11c-.35.43-.69.86-1,1.3-.08.09-.11.29-.29.18s-.09-.26,0-.38L18,19.77c.07-.1.14-.17.25-.07s.07.25,0,.35-.31.46.1.58a10.06,10.06,0,0,0,1.18,1l1.32,1.05c0,.05-.05.09-.06.09-.46-.09-.86-.09-1,.51a.2.2,0,0,1-.36,0c.35-.3.38-.58.09-1.15a1.43,1.43,0,0,0-.4.52C19.05,22.93,18.94,23.22,19.34,23.31Z"/><path class="cls-7" d="M20.42,18.53c.21.14.22.29,0,.47a3.41,3.41,0,0,0-.6.66c-.15.27,0,.46.19.61a.41.41,0,0,0,.59-.1c.06-.06.14-.12.06-.22a.32.32,0,0,1,.09-.53.43.43,0,0,1,.63.11c0,.23,0,.39.29.37.12,0,.29,0,.29.15s-.19.13-.28.1c-.47-.14-.55.13-.58.49,0,.1-.05.2-.07.3s-.08.23-.24.2-.16-.18-.11-.29c.2-.45-.09-.43-.39-.41-.67,0-.89-.23-.89-.81A3.37,3.37,0,0,1,20,19c.12-.08.15-.17,0-.29s-.17-.15-.31-.05a9.71,9.71,0,0,0-.89.81c-.09.08-.17.23-.32.07s0-.23.1-.31L19.85,18a1.86,1.86,0,0,1,.31-.26c.09-.07.21-.17.31,0s0,.23-.1.3C20.11,18.21,20.13,18.38,20.42,18.53Z"/><path class="cls-7" d="M17.27,24.75c-.18-.12-.38-.48-.51.06a.4.4,0,0,1-.39.31c.24-.48.21-.79-.1-1-.13-.09-.3-.14-.43-.24s-.34-.1-.42.1-.42.47-.1.7a1.33,1.33,0,0,0,1.05.42c-.39.46-.78.2-1.16,0-.11-.09-.21-.23-.38-.1s-.12.24-.28.11,0-.25,0-.37c.25-.45.52-.9.78-1.35.1-.19.2-.37.31-.55s.18-.22.32-.15.06.23,0,.33-.24.44.12.55a17.19,17.19,0,0,0,1.62.91l.34.25C17.79,25,17.53,24.87,17.27,24.75Z"/><path class="cls-7" d="M53.91,24l.49-.32c-.64-.43-.82-.79-.66-1.31a.53.53,0,0,1,.62-.38,1.1,1.1,0,0,1,.84,1c.6-.24.62-.3.23-.8l-.59-.79c-.07-.09-.19-.19-.05-.3s.26,0,.35.1l.59.84.81,1.13c.06.09.09.19,0,.27s-.16,0-.23-.05c-.43-.37-.43-.37-.94.1a3.82,3.82,0,0,0-1,.71l-.16.06c-.14.07-.24.33-.4.17S53.82,24.1,53.91,24Zm.68-.74c.32,0,.48,0,.36-.29a1.13,1.13,0,0,0-.69-.59.32.32,0,0,0-.38.16c-.1.14,0,.25.06.35A1.37,1.37,0,0,0,54.59,23.22Z"/><path class="cls-7" d="M50.3,19.8c.06-.64.1-.71.71-.8.22,0,.19-.13.12-.26a1.62,1.62,0,0,1,.74,1.2,5.19,5.19,0,0,0,.79-.84c.13-.15-.13-.23-.2-.34-.19-.28-.67-.37-.49-.9l1.67,1.55a.15.15,0,0,1,0,.23.15.15,0,0,1-.24,0c-.38-.4-.63-.2-.85.17L51.48,21c-.14.05-.2.22-.36.24s0-.15,0-.22.07-.37-.21-.46A1,1,0,0,1,50.3,19.8Zm1.16.42c.08,0,.23,0,.26-.18s-.53-.66-.88-.67a.32.32,0,0,0-.35.32C50.47,20,50.83,20.18,51.46,20.22Z"/><path class="cls-7" d="M51.11,18.62a4.79,4.79,0,0,0-.87-.18.26.26,0,0,1-.28-.28c0-.24.24-.18.36-.13.51.21.35-.14.33-.39s.16-.48.48-.44.49.2.44.53l-.19-.12a.32.32,0,0,0-.49.15.27.27,0,0,0,.12.38.37.37,0,0,0,.48-.11.46.46,0,0,0,.08-.3c.22.32,0,.51-.21.69C51.28,18.48,51.12,18.46,51.11,18.62Z"/><path class="cls-7" d="M27.26,15l.47,1.11c0,.09.13.2,0,.27s-.17,0-.25,0-.17-.22-.33,0a1.37,1.37,0,0,1-1.71.23v-.1l.39.09A1,1,0,0,0,27,16c.06-.12.15-.27,0-.36s-.2.09-.27.17c-.27.26-.54.37-.84.05a.83.83,0,0,0,.84-.54.24.24,0,0,0,0-.29c-.08-.1-.19-.06-.29,0-.38.12-.68.31-.66.77-.32-.16-.29-.4-.11-.65a1,1,0,0,1,.92-.34l0,0,0,0c-.19-.61-.19-.61-.73-.35l-.65.29c-.1.05-.27.08-.18.24a8.21,8.21,0,0,1,.4,1.53.65.65,0,0,1-.58-.27c-.12-.17-.49-.39,0-.57.16-.06,0-.18-.07-.26,0-.36-.16-.41-.45-.26s-.31.18-.4-.06.15-.21.26-.26c.57-.29,1.15-.56,1.73-.82.15-.06.29-.1.28-.29a1.12,1.12,0,0,0,.76-.2c.13-.07.23-.06.29.08a.17.17,0,0,1-.1.26c-.58.12-.36.44-.2.75C27.1,14.72,27.11,14.92,27.26,15Z"/><path class="cls-7" d="M33,14c-.48-.56-.49-.67-.1-1.14.64-.22.68-.22,1.19,0,.08-.56,0-.64-.52-.58a7,7,0,0,0-1,.1.24.24,0,0,1-.33-.21c0-.2.15-.14.25-.15.53-.06,1.06-.12,1.59-.16a4.26,4.26,0,0,0,.8-.08.24.24,0,0,1,.32.16c.06.23-.15.21-.25.23s-.5,0-.41.4.07.9.1,1.35c0,.19.06.38.07.57s.07.29-.1.3a.31.31,0,0,1-.32-.26,6.53,6.53,0,0,1,0-.67A1.1,1.1,0,0,1,33,14Zm1.15-.74c0-.16-.12-.21-.25-.24a1.17,1.17,0,0,0-1,.47c-.06.15,0,.25.14.34s.34,0,.49-.07S34.1,13.56,34.19,13.29Z"/><path class="cls-7" d="M30,13.32a6.49,6.49,0,0,0,.42,1.36c.05.22.09.44.14.65s.07.15,0,.21-.16,0-.24-.06c-.28-.17-.2-.51-.36-.75-.38.2-.72.64-1.22.21h0c.51,0,.74-.41,1-.73.13-.13,0-.23-.14-.26a.86.86,0,0,0-1,.9h0c-.19,0-.23-.19-.35-.28a.87.87,0,0,1,.85-.9c.16,0,.33,0,.49,0l0,0,0,0c-.05-.57-.08-.59-.62-.45l-1,.28c-.12,0-.27.12-.33-.07s.11-.25.25-.29l2.15-.6c.15,0,.36-.14.42.09s-.16.22-.3.26S29.78,13.05,30,13.32Z"/><path class="cls-7" d="M44.54,17.36a.5.5,0,0,0-.35-.63.25.25,0,0,1-.16-.36c.24-.71.47-1.43.71-2.14.08-.22.12-.38-.18-.48s-.33.09-.38.28-.14.49-.23.72-.24.47-.54.46a.51.51,0,0,1-.49-.45c.41.18.66.07.75-.38a3.78,3.78,0,0,1,.17-.6c.08-.18,0-.29-.15-.34s-.35-.09-.42.17a6.86,6.86,0,0,0-.34,1.15.78.78,0,0,1-.12-1c.18-.35.12-.58-.3-.68-.23-.06-.45-.16-.72-.26A5.84,5.84,0,0,0,42.17,14c.08.25.27.53,0,.73s-.54,0-.79-.12a1.2,1.2,0,0,1-.45-.71,2.78,2.78,0,0,1,.15-.74c.07-.2.25-.42-.07-.62-.14-.09-.06-.25.13-.25a.84.84,0,0,1,.26.07l4.24,1.42c.14,0,.39,0,.31.28s-.24.08-.38.05c-.55-.14-.4.38-.56.6l-.47,1.52c-.16.18,0,.32.05.48s.27.49,0,.71Zm-3-4.49c-.14.44-.25.74-.33,1.05a.43.43,0,0,0,.26.51.48.48,0,0,0,.55,0c.18-.16,0-.34,0-.49C41.89,13.61,41.75,13.31,41.56,12.87Z"/><path class="cls-7" d="M41.3,59.32l.1.09Z"/><path class="cls-7" d="M46.17,55.9c-.22.06-.61-.16-.6.23s.42.27.69.31a.68.68,0,0,1-.81.1c-.25-.16-.41-.4-.19-.63A.6.6,0,0,1,46.17,55.9Z"/><path class="cls-7" d="M13.85,31.86l-.07.11,0,0,.09-.08Z"/><path class="cls-7" d="M27,58.24V57.6a7.44,7.44,0,0,0,.34.88c.11.23.28.5.58.35s.15-.44.06-.68-.12-.24-.19-.4a6.12,6.12,0,0,1,1.1.22c.1,0,.16.07.14.18s-.09.19-.19.16c-.74-.26-.34.32-.41.56-.42.52-.91.48-1.21-.11A4.77,4.77,0,0,1,27,58.24Z"/><path class="cls-7" d="M56.07,26.64c0,.32-.06.65.47.56.23,0,.32.21.31.4a.38.38,0,0,1-.41.38c-.12,0-.26-.13-.29.1l-.27.4c-.11,0-.16-.18-.14-.2.35-.39.13-.85.15-1.27C55.89,26.86,55.9,26.71,56.07,26.64Z"/><path class="cls-7" d="M44.19,17.64a1.42,1.42,0,0,1-.8-.27,1.5,1.5,0,0,1-.49-1.16,1.61,1.61,0,0,0,1.64,1.15v0C44.48,17.54,44.32,17.57,44.19,17.64Z"/><path class="cls-7" d="M37.54,13.42l.34-.28h0c.6,0,.6,0,.82.31-1.1.16-1.1.16-1.09.86C37.27,14,37.47,13.72,37.54,13.42Z"/><path class="cls-7" d="M57,40.32l-.12.17c-.41.12-.73.32-.79.79a.39.39,0,0,1-.17.3c-.09.05-.18.13-.29,0s0-.16,0-.25A1.59,1.59,0,0,1,57,40.32Z"/><path class="cls-7" d="M56.06,26.46h.1a.2.2,0,0,1-.09.19Z"/><path class="cls-7" d="M56.71,29.37a.05.05,0,0,1,0,0l0,0Z"/><path class="cls-7" d="M28.7,14.94l-.09-.08h0l.08.09Z"/><path class="cls-7" d="M37.61,14.31l.1.09Z"/><path class="cls-6" d="M26.63,14.76l0,0,0,0Z"/><path class="cls-8" d="M29.61,13.68l0,0,0,0Z"/><path class="cls-7" d="M38.33,12.15c.21.11.21.27.14.46a.41.41,0,0,1-.41.27c-.59,0-.74,0-.71-.41a.61.61,0,0,1,.44-.56.41.41,0,0,1,.55.24c-.18,0-.37-.05-.51.1s-.26.28-.18.42.3,0,.43,0S38.35,12.37,38.33,12.15Z"/><path class="cls-7" d="M37.88,13.14h0a0,0,0,0,1,0,0l0,0Z"/><path class="cls-7" d="M57,29.26l0,0,0,0Z"/><path class="cls-7" d="M56.16,26.47l.09-.1Z"/><path class="cls-2" d="M35,16.92a1.59,1.59,0,0,1,1.6-.28c.46.23.58.66.39,1.45a3.54,3.54,0,0,0-.28.89,1.61,1.61,0,0,0-.16.86c0,.27.09.5.46.23a1.18,1.18,0,0,1,1.67.1c.18.86,0,1.24-.75,1.43-.2.06-.61,0-.53.24s.4,0,.59-.07a1.27,1.27,0,0,1,1.45.19,1,1,0,0,1,.15,1.17.68.68,0,0,1-.72.19c-.37-.13-.47,0-.37.37a4.49,4.49,0,0,1,0,1,3.1,3.1,0,0,1-1.1,1.52c-.61.42-.59.44-.19,1.09l.13.18c.35.7.71,1.4.17,2.15a.69.69,0,0,0,.08.92c.21.29.5.53.69.82a1.21,1.21,0,0,0,.93.51c.34,0,.53,0,.56-.42A4,4,0,0,1,40.29,30c.17-.34.39-.32.57,0a12.8,12.8,0,0,1,.76,1.47c.35.91,1.16.78,1.86.92a3.27,3.27,0,0,1-.73-2A12,12,0,0,0,43.22,28c0-.17.14-.38.4-.19a3,3,0,0,1,1,1.37,4.33,4.33,0,0,1-.14,3.09c-.05.13-.3.3.07.39a9.06,9.06,0,0,1,2,.81l0,0,0,0a.68.68,0,0,0-.08-.34,8.06,8.06,0,0,1-.83-3.89,4.12,4.12,0,0,1,.55-1.78c.13-.15.25-.3.38-.44s.17-.24.33-.18a.34.34,0,0,1,.18.34,7.29,7.29,0,0,0,.65,2.46,6.74,6.74,0,0,1,.71,3,4.59,4.59,0,0,1-.33,1.11c-.12.22-.31.44-.06.72.09.1,0,.24-.14.33A6.7,6.7,0,0,0,46.89,36a4.65,4.65,0,0,1-2.44,1.88,1.64,1.64,0,0,0-.22,0A9.3,9.3,0,0,0,38.76,41c-.11.14-.09.2,0,.33.24.34.6.6.65,1-.14,0-.2-.09-.29-.17-.35-.3-.49-.27-.71.17h-.08a.53.53,0,0,1,.1-.42c.09-.1.12-.2,0-.31s-.17-.08-.28,0a6.86,6.86,0,0,1-4.34,0,.24.24,0,0,0-.28.06.19.19,0,0,0,0,.28.76.76,0,0,1,.14.46h-.11c-.2-.44-.35-.48-.7-.17-.09.08-.15.19-.29.17.05-.45.42-.71.65-1,.07-.1.15-.17,0-.3-.28-.29-.52-.61-.82-.89a9.14,9.14,0,0,0-4-2.08A4.82,4.82,0,0,1,25.12,36,2.52,2.52,0,0,0,24,34.92c-.08-.13-.28-.26-.18-.39.29-.35,0-.6-.11-.88a3.61,3.61,0,0,1-.27-1.21,6.79,6.79,0,0,1,.63-2.55,8.79,8.79,0,0,0,.72-2.62c0-.17,0-.36.18-.45a.63.63,0,0,1,.42.31,4,4,0,0,1,.85,2.57A8,8,0,0,1,26,31.81a15.09,15.09,0,0,0-.59,1.67l0,0,0,0a10,10,0,0,1,1.95-.79c.22-.06.25-.18.17-.37a4.48,4.48,0,0,1,0-3.52h0a.32.32,0,0,0,.18-.27l.81-.81c.32,0,.36.26.35.52a2,2,0,0,0,.27,1.11c0,.49.24.94.14,1.46a3.86,3.86,0,0,1-.76,1.6c.4-.07.72-.15,1-.19a.86.86,0,0,0,.69-.48c.34-.58.67-1.17,1-1.77.17-.35.33-.35.52,0a5.12,5.12,0,0,1,.55,1.32c0,.21-.05.52.24.56a1.18,1.18,0,0,0,1-.19,10,10,0,0,0,1-1.16.67.67,0,0,0,0-.89,1.47,1.47,0,0,1-.14-1.45c.18-.47.47-.87.68-1.32.1-.23.14-.41-.18-.46a2.91,2.91,0,0,1-1.26-1.44,2.66,2.66,0,0,1-.07-1.28c.09-.41,0-.42-.35-.33-.56.14-.88-.08-.91-.64a2.36,2.36,0,0,1,.09-.52,1.33,1.33,0,0,1,1.77-.34,1.28,1.28,0,0,0,.24.11c.1,0,.22.08.26-.06s-.07-.14-.15-.17l-.22-.07c-.93-.26-1.11-.54-.92-1.46a1,1,0,0,1,1.3-.3,2.5,2.5,0,0,1,.43.23c.23.18.29.08.35-.14a1.77,1.77,0,0,0-.19-1.24l-.39-1.17ZM25.76,34.53c.13.17.28.09.4.13.34.09.73,0,1,.25a3.32,3.32,0,0,0,1.47.72c.57.13.92.37,1,1,0,.23.14.31.41.23a8.33,8.33,0,0,1,1.47-.37c1.29-.16,2.59-.35,3.64.72.25.25.56.61.84.62s.58-.42.88-.63.61-.65,1.06-.72.87-.06,1.3-.1a7.15,7.15,0,0,1,2.5.43c.56.13.58.14.7-.42a.76.76,0,0,1,.67-.67,3.16,3.16,0,0,0,1.43-.61,2.38,2.38,0,0,1,1.36-.45c.09,0,.19,0,.25-.12a1.4,1.4,0,0,1-.24-.06c-.39-.12-.83,0-1.19-.33a4.43,4.43,0,0,0-1.91-.83c-.2-.05-.28,0-.25.26a3.75,3.75,0,0,1-.46,2.25c-.25.46-.34.48-.62,0A15.63,15.63,0,0,1,39.88,33a.32.32,0,0,0-.42-.23c-.23.06-.11.23-.08.37A1.8,1.8,0,0,1,38,35.25a1.2,1.2,0,0,0-1,.82c-.18.47-.53,1-1,1s-.81-.49-1-1a1.23,1.23,0,0,0-1-.85,1.82,1.82,0,0,1-1.37-2c0-.14.18-.33-.05-.42s-.37.06-.46.3a16.67,16.67,0,0,1-1.59,2.86c-.22.33-.34.32-.53,0a3.72,3.72,0,0,1-.51-2.32c0-.3-.07-.33-.28-.27s-.57.19-.86.26c-.71.18-1.18.88-2,.87A2.44,2.44,0,0,0,25.76,34.53Zm11.59-.4v.34c0,.51,0,.54.54.38a1.44,1.44,0,0,0,.75-2.34c-.42-.62-.92-1.18-1.38-1.77a1,1,0,0,1-.07-1.38,1.07,1.07,0,0,0,.09-.95,10.4,10.4,0,0,0-.78-1.61c-.13-.26-.88-.25-1,0-.25.46-.49.93-.71,1.4a1.09,1.09,0,0,0,0,1.08c.47.7.3,1-.1,1.53a17.48,17.48,0,0,0-1.43,1.9,1.45,1.45,0,0,0,1,2.18c.28.07.41,0,.41-.32a7.2,7.2,0,0,1,0-1.39c.22-1.18.79-2.25,1.06-3.42,0-.12.08-.24.23-.24s.23.16.28.3c.22.69.42,1.4.68,2.09A5.51,5.51,0,0,1,37.35,34.13ZM35.84,19.62a3.8,3.8,0,0,1-.06.58c-.15.56-.45.66-.92.31a2,2,0,0,0-.51-.28c-.32-.12-.58-.06-.67.29a.47.47,0,0,0,.4.63,1.75,1.75,0,0,1,.79.28c.39.31.36.55,0,.86a.5.5,0,0,1-.71,0,1.76,1.76,0,0,0-.62-.25.69.69,0,0,0-.79.37.31.31,0,0,0,0,.38.26.26,0,0,0,.32.07,3.18,3.18,0,0,1,.52-.1c.4-.05.54.12.43.51a2.4,2.4,0,0,0-.12,1.1A2.11,2.11,0,1,0,38,23.5c-.21-.71-.13-.8.59-.65a1.26,1.26,0,0,1,.27,0c.14,0,.25.05.35-.08a.33.33,0,0,0,0-.42.68.68,0,0,0-.73-.32,1.49,1.49,0,0,0-.75.3c-.43.33-.65-.11-.86-.29s0-.43.18-.6.6-.25.91-.34a.45.45,0,0,0,.33-.63.44.44,0,0,0-.61-.3,2.38,2.38,0,0,0-.66.37c-.34.24-.57.17-.75-.2a1.58,1.58,0,0,1-.12-.52,5.22,5.22,0,0,1,.47-2.09c.16-.54-.06-.84-.63-.84s-.8.3-.63.87A5.68,5.68,0,0,1,35.84,19.62Zm.16,11a16.57,16.57,0,0,0-.86,2.48,3.89,3.89,0,0,0,.44,3.1c.29.44.51.42.83,0A3.34,3.34,0,0,0,37,34.16,10.56,10.56,0,0,0,36,30.65ZM24.42,34c1.45-1.87,1.91-5,.82-6.24-.28,1.2-.76,2.31-1.13,3.45A3.12,3.12,0,0,0,24.42,34ZM46.74,27.7c-1.07,1.42-.6,4.35.82,6.28A2.89,2.89,0,0,0,48,31.42C47.6,30.19,47.05,29,46.74,27.7ZM29.88,33.93a2.88,2.88,0,0,0,.18,1.24c0,.1.05.23.17.25s.16-.13.21-.21c.31-.51.62-1,.91-1.55a3.06,3.06,0,0,0,.26-2.83c-.05-.11,0-.27-.19-.28s-.14.14-.19.23l-.65,1.12A3.27,3.27,0,0,0,29.88,33.93Zm12.23.1A2.22,2.22,0,0,0,42,33c-.34-.84-.91-1.55-1.3-2.36-.09-.17-.2-.11-.25,0a3.28,3.28,0,0,0-.26,1.75,9.35,9.35,0,0,0,1.43,2.88c.15.23.23.12.29,0A2.72,2.72,0,0,0,42.11,34Zm1.57-5.59c-.14.57-.25,1.07-.4,1.55a2.09,2.09,0,0,0,.23,1.64c.11.22.31.51.52.51s.22-.37.3-.59a2.15,2.15,0,0,0,.09-.44A3.14,3.14,0,0,0,43.68,28.44Zm-15.34,0c-.93.87-1.1,3-.34,3.69A2,2,0,0,0,28.73,31C28.94,30.07,28.42,29.33,28.34,28.46Zm1.3,4.19c-1.46.3-3,.45-4.19,1.43A2.93,2.93,0,0,0,27,33.8a6.92,6.92,0,0,1,2-.87C29.23,32.87,29.48,32.89,29.64,32.65Zm12.67-.06a.37.37,0,0,0,.33.26,7.78,7.78,0,0,1,2.43,1,2.94,2.94,0,0,0,1.6.27A10.94,10.94,0,0,0,42.31,32.59Zm.59,3.8a8.49,8.49,0,0,0,3.64-1.33,2.88,2.88,0,0,0-1.59.27,5.74,5.74,0,0,1-1.65.76A.49.49,0,0,0,42.9,36.39ZM25.45,35.06a8.47,8.47,0,0,0,3.66,1.32.65.65,0,0,0-.47-.3,4,4,0,0,1-1.38-.6A2.91,2.91,0,0,0,25.45,35.06Zm12.62,1.8A4.58,4.58,0,0,0,40,36.73C39.26,36.72,38.67,36.89,38.07,36.86Zm-5.93-.11a4.11,4.11,0,0,0,1.78.1C33.32,36.88,32.74,36.74,32.14,36.75Z"/><path class="cls-2" d="M27.53,53.19a8.83,8.83,0,0,1-2.12-1.13,4,4,0,0,1-.57-.66,1.84,1.84,0,0,1-.12-.73,1.61,1.61,0,0,1,.48-1.07c.65-.52.64-.52-.07-.93a2.12,2.12,0,0,1-1.27-2.22A4,4,0,0,1,25,45.11l2-.9c.1,0,.21,0,.31,0a25.15,25.15,0,0,1,4.22-.9c.23,0,.62.09.69-.33l.18-.18c0,.42-.29.77-.28,1.21,0,.67.09.77.73.68-.07.25-.59.18-.42.62a3.16,3.16,0,0,0,.4.75,1.67,1.67,0,0,0,.82.53,7.52,7.52,0,0,0,3.19.32,4.38,4.38,0,0,0,2-.59,1.63,1.63,0,0,0,.72-1.14c.07-.35-.38-.24-.43-.49l0,0c.58.12.69,0,.72-.6a8,8,0,0,0-.2-1A2.28,2.28,0,0,0,41,43.3l2.8.62a16.58,16.58,0,0,1,2.16.72,4,4,0,0,1,2.14,1.82,1.91,1.91,0,0,1-.33,1.43,5.77,5.77,0,0,1-1.62,1.18l.87.8c.59,1.24,0,1.94-1,2.55a13.22,13.22,0,0,1-1.61.77A30.1,30.1,0,0,1,27.53,53.19Zm8.43.74c.84,0,1.63,0,2.42-.08a25.3,25.3,0,0,0,4.51-.67,8.1,8.1,0,0,0,3.57-1.61,1.09,1.09,0,0,0,.24-1.34,1.55,1.55,0,0,0-1.45-.8,26.25,26.25,0,0,1-7.6,1.31,34.9,34.9,0,0,1-5.11-.13,23.14,23.14,0,0,1-5.43-1.08,1.32,1.32,0,0,0-1.55.37,1.08,1.08,0,0,0,.06,1.73,5.65,5.65,0,0,0,1.91,1.07A25.27,25.27,0,0,0,36,53.93Zm.47-3.6a27.67,27.67,0,0,0,6.32-.66,10.19,10.19,0,0,0,4.41-1.78,1.18,1.18,0,0,0,.06-2,4.93,4.93,0,0,0-.8-.58,18.55,18.55,0,0,0-6.24-1.69c-.18,0-.26.08-.21.24A3.25,3.25,0,0,1,40,45c0,.25.09.32.33.36a17.12,17.12,0,0,1,2.36.52,3.6,3.6,0,0,1,1.52.74.82.82,0,0,1,0,1.33,2.83,2.83,0,0,1-1,.53,18.75,18.75,0,0,1-5.89,1A28.74,28.74,0,0,1,30.13,49a6.6,6.6,0,0,1-2.14-.8.89.89,0,0,1,0-1.64,3.14,3.14,0,0,1,.39-.24,10.23,10.23,0,0,1,2.92-.81c.69-.12.69-.1.7-.77a2.38,2.38,0,0,1,.06-.75c.07-.22,0-.29-.27-.26a23.32,23.32,0,0,0-5,1.14,5.32,5.32,0,0,0-2.1,1.26,1.08,1.08,0,0,0-.05,1.53,2.27,2.27,0,0,0,.55.52,10.51,10.51,0,0,0,3.78,1.46A30.89,30.89,0,0,0,36.43,50.33Zm-5.94-1.72a32.5,32.5,0,0,0,11,0c-.74-.65-1.4-1.23-2.05-1.82a.38.38,0,0,0-.48-.06,7.2,7.2,0,0,1-5.94,0,.35.35,0,0,0-.44,0Z"/><path class="cls-7" d="M25.82,15.75l.09.09Z"/><path class="cls-3" d="M25.76,34.53a2.44,2.44,0,0,1,.57-.08c.8,0,1.27-.69,2-.87.29-.07.57-.18.86-.26s.32,0,.28.27A3.72,3.72,0,0,0,30,35.91c.19.35.31.36.53,0a16.67,16.67,0,0,0,1.59-2.86c.09-.24.22-.38.46-.3s.08.28.05.42a1.82,1.82,0,0,0,1.37,2,1.23,1.23,0,0,1,1,.85c.16.47.52,1,1,1s.83-.5,1-1a1.2,1.2,0,0,1,1-.82,1.8,1.8,0,0,0,1.38-2.1c0-.14-.15-.31.08-.37a.32.32,0,0,1,.42.23,15.63,15.63,0,0,0,1.58,2.86c.28.43.37.41.62,0a3.75,3.75,0,0,0,.46-2.25c0-.25.05-.31.25-.26a4.43,4.43,0,0,1,1.91.83c.36.32.8.21,1.19.33a1.4,1.4,0,0,0,.24.06c-.06.15-.16.11-.25.12a2.38,2.38,0,0,0-1.36.45,3.16,3.16,0,0,1-1.43.61.76.76,0,0,0-.67.67c-.12.56-.14.55-.7.42a7.15,7.15,0,0,0-2.5-.43c-.43,0-.87,0-1.3.1s-.71.47-1.06.72-.56.64-.88.63-.59-.37-.84-.62c-1-1.07-2.35-.88-3.64-.72a8.33,8.33,0,0,0-1.47.37c-.27.08-.4,0-.41-.23,0-.62-.39-.86-1-1a3.32,3.32,0,0,1-1.47-.72c-.3-.25-.69-.16-1-.25C26,34.62,25.89,34.7,25.76,34.53Z"/><path class="cls-3" d="M39.14,44.65c0,.25.5.14.43.49a1.63,1.63,0,0,1-.72,1.14,4.38,4.38,0,0,1-2,.59,7.52,7.52,0,0,1-3.19-.32,1.67,1.67,0,0,1-.82-.53,3.16,3.16,0,0,1-.4-.75c-.17-.44.35-.37.42-.62h0a.16.16,0,0,0,.1-.19h0l.1-.1h0l.1-.1h0a.14.14,0,0,0,.08-.17h0a.14.14,0,0,0,.08-.17h0l.08-.08h0a1.75,1.75,0,0,0,.29-1.42.76.76,0,0,0-.14-.46.19.19,0,0,1,0-.28.24.24,0,0,1,.28-.06,6.86,6.86,0,0,0,4.34,0c.11,0,.2,0,.28,0s.08.21,0,.31a.53.53,0,0,0-.1.42,1.46,1.46,0,0,0,.24,1.28,3.44,3.44,0,0,1-.16-1.27c.22-.44.36-.47.71-.17.09.08.15.19.29.17h0a.32.32,0,0,0,.18.36h0a.28.28,0,0,0,.1.27h0a8,8,0,0,1,.2,1c0,.62-.14.72-.72.6a.18.18,0,0,0-.1-.16l-.1-.09-.09-.09a.17.17,0,0,0-.09-.18.19.19,0,0,0-.09-.18.06.06,0,0,0,0,0h0l.05,0c0,.08,0,.15.09.19s0,.14.09.18l.09.09.09.09A.15.15,0,0,0,39.14,44.65ZM37.26,44A2.09,2.09,0,0,0,37,42.8a1.11,1.11,0,0,0-2,0,2.27,2.27,0,0,0,0,2.27,1.09,1.09,0,0,0,1.94.08A1.72,1.72,0,0,0,37.26,44Z"/><path class="cls-3" d="M37.35,34.13a5.51,5.51,0,0,0-.41-2.21c-.26-.69-.46-1.4-.68-2.09,0-.14-.07-.31-.28-.3s-.2.12-.23.24c-.27,1.17-.84,2.24-1.06,3.42a7.2,7.2,0,0,0,0,1.39c0,.33-.13.39-.41.32a1.45,1.45,0,0,1-1-2.18,17.48,17.48,0,0,1,1.43-1.9c.4-.55.57-.83.1-1.53a1.09,1.09,0,0,1,0-1.08c.22-.47.46-.94.71-1.4.14-.26.89-.27,1,0a10.4,10.4,0,0,1,.78,1.61,1.07,1.07,0,0,1-.09.95,1,1,0,0,0,.07,1.38c.46.59,1,1.15,1.38,1.77a1.44,1.44,0,0,1-.75,2.34c-.5.16-.54.13-.54-.38Z"/><path class="cls-4" d="M35.84,19.62a5.68,5.68,0,0,0-.47-1.82c-.17-.57.05-.88.63-.87s.79.3.63.84a5.22,5.22,0,0,0-.47,2.09,1.58,1.58,0,0,0,.12.52c.18.37.41.44.75.2a2.38,2.38,0,0,1,.66-.37.44.44,0,0,1,.61.3.45.45,0,0,1-.33.63c-.31.09-.66.08-.91.34s-.4.43-.18.6.43.62.86.29a1.49,1.49,0,0,1,.75-.3.68.68,0,0,1,.73.32.33.33,0,0,1,0,.42c-.1.13-.21.12-.35.08a1.26,1.26,0,0,0-.27,0c-.72-.15-.8-.06-.59.65a2.11,2.11,0,1,1-4.12.9A2.4,2.4,0,0,1,34,23.3c.11-.39,0-.56-.43-.51a3.18,3.18,0,0,0-.52.1.26.26,0,0,1-.32-.07.31.31,0,0,1,0-.38.69.69,0,0,1,.79-.37,1.76,1.76,0,0,1,.62.25.5.5,0,0,0,.71,0c.37-.31.4-.55,0-.86a1.75,1.75,0,0,0-.79-.28.47.47,0,0,1-.4-.63c.09-.35.35-.41.67-.29a2,2,0,0,1,.51.28c.47.35.77.25.92-.31A3.8,3.8,0,0,0,35.84,19.62ZM36,25.75a1.68,1.68,0,1,0-1.7-1.69A1.66,1.66,0,0,0,36,25.75Z"/><path class="cls-3" d="M36,30.65a10.56,10.56,0,0,1,1,3.51,3.34,3.34,0,0,1-.56,2.08c-.32.41-.54.43-.83,0a3.89,3.89,0,0,1-.44-3.1A16.57,16.57,0,0,1,36,30.65Z"/><path class="cls-3" d="M24.42,34a3.12,3.12,0,0,1-.31-2.79c.37-1.14.85-2.25,1.13-3.45C26.33,29,25.87,32.11,24.42,34Z"/><path class="cls-3" d="M46.74,27.7c.31,1.32.86,2.49,1.21,3.72A2.89,2.89,0,0,1,47.56,34C46.14,32.05,45.67,29.12,46.74,27.7Z"/><path class="cls-3" d="M29.88,33.93a3.27,3.27,0,0,1,.7-2l.65-1.12c.05-.09.07-.24.19-.23s.14.17.19.28a3.06,3.06,0,0,1-.26,2.83c-.29.52-.6,1-.91,1.55-.05.08-.09.22-.21.21s-.14-.15-.17-.25A2.88,2.88,0,0,1,29.88,33.93Z"/><path class="cls-3" d="M42.11,34a2.72,2.72,0,0,1-.21,1.22c-.06.17-.14.28-.29,0a9.35,9.35,0,0,1-1.43-2.88,3.28,3.28,0,0,1,.26-1.75c.05-.14.16-.2.25,0,.39.81,1,1.52,1.3,2.36A2.22,2.22,0,0,1,42.11,34Z"/><path class="cls-9" d="M26.28,29.7c.32,0,.45-.23.62-.43s.27-.42.55-.46a4.48,4.48,0,0,0,0,3.52c.08.19.05.31-.17.37a10,10,0,0,0-1.95.79h0A15.09,15.09,0,0,1,26,31.81,8,8,0,0,0,26.28,29.7Z"/><path class="cls-3" d="M43.68,28.44a3.14,3.14,0,0,1,.74,2.67,2.15,2.15,0,0,1-.09.44c-.08.22-.09.58-.3.59s-.41-.29-.52-.51A2.09,2.09,0,0,1,43.28,30C43.43,29.51,43.54,29,43.68,28.44Z"/><path class="cls-3" d="M28.34,28.46c.08.87.6,1.61.39,2.5A2,2,0,0,1,28,32.15C27.24,31.48,27.41,29.33,28.34,28.46Z"/><path class="cls-3" d="M32.85,44.65c-.64.09-.72,0-.73-.68,0-.44.25-.79.28-1.21h0a.32.32,0,0,0,.18-.36h0c.14,0,.2-.09.29-.17.35-.31.5-.27.7.17a6.29,6.29,0,0,1-.18,1.43h0l-.08.08h0a.15.15,0,0,0-.08.17h0a.15.15,0,0,0-.08.17h0l-.1.1h0l-.1.1h0a.17.17,0,0,0-.1.19Z"/><path class="cls-4" d="M29.64,32.65c-.16.24-.41.22-.63.28a6.92,6.92,0,0,0-2,.87,2.93,2.93,0,0,1-1.55.28C26.67,33.1,28.18,33,29.64,32.65Z"/><path class="cls-4" d="M42.31,32.59a10.94,10.94,0,0,1,4.36,1.52,2.94,2.94,0,0,1-1.6-.27,7.78,7.78,0,0,0-2.43-1A.37.37,0,0,1,42.31,32.59Z"/><path class="cls-4" d="M42.9,36.39a.49.49,0,0,1,.4-.3A5.74,5.74,0,0,0,45,35.33a2.88,2.88,0,0,1,1.59-.27A8.49,8.49,0,0,1,42.9,36.39Z"/><path class="cls-4" d="M25.45,35.06a2.91,2.91,0,0,1,1.81.42,4,4,0,0,0,1.38.6.65.65,0,0,1,.47.3A8.47,8.47,0,0,1,25.45,35.06Z"/><path class="cls-9" d="M33.39,43.83a6.29,6.29,0,0,0,.18-1.43h.11A1.75,1.75,0,0,1,33.39,43.83Z"/><path class="cls-7" d="M38.41,42.4a3.44,3.44,0,0,0,.16,1.27,1.46,1.46,0,0,1-.24-1.28Z"/><path class="cls-7" d="M38.07,36.86c.6,0,1.19-.14,1.92-.13A4.58,4.58,0,0,1,38.07,36.86Z"/><path class="cls-7" d="M32.14,36.75c.6,0,1.18.13,1.78.1A4.11,4.11,0,0,1,32.14,36.75Z"/><path class="cls-9" d="M27.45,28.81c0-.14,0-.27.18-.27A.32.32,0,0,1,27.45,28.81Z"/><path class="cls-9" d="M46.62,33.48l0,0,0,0Z"/><path class="cls-9" d="M25.37,33.49l0,0,0,0Z"/><path class="cls-3" d="M36,53.93a25.27,25.27,0,0,1-8.43-1.23,5.65,5.65,0,0,1-1.91-1.07,1.08,1.08,0,0,1-.06-1.73,1.32,1.32,0,0,1,1.55-.37,23.14,23.14,0,0,0,5.43,1.08,34.9,34.9,0,0,0,5.11.13,26.25,26.25,0,0,0,7.6-1.31,1.55,1.55,0,0,1,1.45.8,1.09,1.09,0,0,1-.24,1.34,8.1,8.1,0,0,1-3.57,1.61,25.3,25.3,0,0,1-4.51.67C37.59,53.9,36.8,53.89,36,53.93Z"/><path class="cls-3" d="M36.43,50.33a30.89,30.89,0,0,1-7.52-.74,10.51,10.51,0,0,1-3.78-1.46,2.27,2.27,0,0,1-.55-.52,1.08,1.08,0,0,1,.05-1.53,5.32,5.32,0,0,1,2.1-1.26,23.32,23.32,0,0,1,5-1.14c.23,0,.34,0,.27.26a2.38,2.38,0,0,0-.06.75c0,.67,0,.65-.7.77a10.23,10.23,0,0,0-2.92.81,3.14,3.14,0,0,0-.39.24.89.89,0,0,0,0,1.64,6.6,6.6,0,0,0,2.14.8,28.74,28.74,0,0,0,7.23.54,18.75,18.75,0,0,0,5.89-1,2.83,2.83,0,0,0,1-.53.82.82,0,0,0,0-1.33,3.6,3.6,0,0,0-1.52-.74,17.12,17.12,0,0,0-2.36-.52c-.24,0-.33-.11-.33-.36A3.25,3.25,0,0,0,40,43.91c0-.16,0-.27.21-.24a18.55,18.55,0,0,1,6.24,1.69,4.93,4.93,0,0,1,.8.58,1.18,1.18,0,0,1-.06,2,10.19,10.19,0,0,1-4.41,1.78A27.67,27.67,0,0,1,36.43,50.33Z"/><path class="cls-3" d="M30.49,48.61l2.09-1.85a.35.35,0,0,1,.44,0,7.2,7.2,0,0,0,5.94,0,.38.38,0,0,1,.48.06c.65.59,1.31,1.17,2.05,1.82A32.5,32.5,0,0,1,30.49,48.61Z"/><path class="cls-7" d="M37.26,44a1.72,1.72,0,0,1-.32,1.14A1.09,1.09,0,0,1,35,45.07a2.27,2.27,0,0,1,0-2.27,1.11,1.11,0,0,1,2,0A2.09,2.09,0,0,1,37.26,44Zm-.37-.1a4,4,0,0,0-.23-.83.8.8,0,0,0-.65-.49.75.75,0,0,0-.68.51,1.76,1.76,0,0,0-.09,1.47c.13.35.33.68.74.69s.64-.34.77-.71A3.58,3.58,0,0,0,36.89,43.91Z"/><path class="cls-2" d="M39.41,42.4c.17.06.19.2.18.36A.32.32,0,0,1,39.41,42.4Z"/><path class="cls-2" d="M39.59,42.76c.11.06.09.17.1.27A.28.28,0,0,1,39.59,42.76Z"/><path class="cls-9" d="M33.12,44.28a.15.15,0,0,1,.08-.17A.14.14,0,0,1,33.12,44.28Z"/><path class="cls-7" d="M38.88,44.29c-.09,0-.09-.11-.09-.18h0a.17.17,0,0,1,.09.18Z"/><path class="cls-9" d="M33.21,44.1a.15.15,0,0,1,.08-.17A.14.14,0,0,1,33.21,44.1Z"/><path class="cls-7" d="M38.69,43.93a.19.19,0,0,1,.09.18h0c-.09,0-.09-.11-.09-.19Z"/><path class="cls-2" d="M39.06,44.47a.18.18,0,0,1,.1.16l0,0a.15.15,0,0,1-.08-.18Z"/><path class="cls-2" d="M32.84,44.65a.17.17,0,0,1,.1-.19A.16.16,0,0,1,32.84,44.65Z"/><path class="cls-7" d="M38.7,43.92l-.05,0h0a.06.06,0,0,1,0,0Z"/><path class="cls-2" d="M33,44.38l.1-.1Z"/><path class="cls-9" d="M33.3,43.92l.08-.08Z"/><path class="cls-2" d="M39,44.38l.1.09h0L39,44.38Z"/><path class="cls-2" d="M32.93,44.47l.1-.1Z"/><path class="cls-2" d="M39,44.38l-.09-.09h0l.09.09Z"/><path class="cls-7" d="M36,25.75a1.68,1.68,0,1,1,1.71-1.69A1.65,1.65,0,0,1,36,25.75Zm0-.45a1.18,1.18,0,0,0,1.26-1.22,1.27,1.27,0,1,0-2.53,0A1.18,1.18,0,0,0,36,25.3Z"/><path class="cls-2" d="M32.58,42.4a.32.32,0,0,1-.18.36C32.39,42.6,32.41,42.46,32.58,42.4Z"/><path class="cls-3" d="M36.89,43.91a3.58,3.58,0,0,1-.14.64c-.13.37-.33.72-.77.71s-.61-.34-.74-.69a1.76,1.76,0,0,1,.09-1.47.75.75,0,0,1,.68-.51.8.8,0,0,1,.65.49A4,4,0,0,1,36.89,43.91Z"/><path class="cls-3" d="M36,25.3a1.18,1.18,0,0,1-1.27-1.2,1.27,1.27,0,1,1,2.53,0A1.18,1.18,0,0,1,36,25.3Z"/><text class="cls-10" transform="translate(98.53 29.43)">MINI<tspan class="cls-11" x="51.32" y="0">S</tspan><tspan x="64.53" y="0">T</tspan><tspan class="cls-11" x="77.39" y="0">R</tspan><tspan x="92.79" y="0">Y OF</tspan><tspan x="-16.05" y="25.63">MAHARASHTRA</tspan></text></g></g></svg>