<svg xmlns="http://www.w3.org/2000/svg" viewBox="0 0 155.84 72"><defs><style>.cls-1,.cls-11{fill:#231f20;}.cls-1,.cls-10,.cls-2,.cls-5,.cls-6,.cls-7,.cls-8,.cls-9{fill-rule:evenodd;}.cls-2,.cls-3{fill:#ed1c24;}.cls-4,.cls-7{fill:#fff;}.cls-5{fill:#fff200;}.cls-6{fill:#f5821f;}.cls-8{fill:#ffdf69;}.cls-9{fill:#39b54a;}.cls-10{fill:#ffe3a5;}</style></defs><g id="Layer_2" data-name="Layer 2"><g id="svg4403"><path class="cls-1" d="M4,20.21l10.39.05a8.15,8.15,0,0,1,4.06.86,2.87,2.87,0,0,1,1.32,2.59,3.78,3.78,0,0,1-1.12,2.78,5.06,5.06,0,0,1-3,1.33,4.4,4.4,0,0,1,2.76,1,3.14,3.14,0,0,1,.88,2.42,4.57,4.57,0,0,1-.57,2.28A5.07,5.07,0,0,1,17,35.3a5.85,5.85,0,0,1-2,1,13.46,13.46,0,0,1-3.32.28h-.21l-10.23,0a5.19,5.19,0,0,0,3.32-4l1.51-8.34,0-.26c.13-1.45-.76-2.57-2.19-3.71m5.51,8.57-.78,4.1,0,.24a1.72,1.72,0,0,0-.06.46.76.76,0,0,0,.39.73,2.62,2.62,0,0,0,1.3.24,5.39,5.39,0,0,0,3.4-1A3.18,3.18,0,0,0,15,30.91a1.73,1.73,0,0,0-.8-1.66,7.5,7.5,0,0,0-3.15-.5Zm.31-2h1.64c.8,0,1.4,0,1.76,0a4.75,4.75,0,0,0,.91-.21,2.75,2.75,0,0,0,1.22-1,2.2,2.2,0,0,0,.47-1.38A1.58,1.58,0,0,0,15,22.78a4.85,4.85,0,0,0-2.41-.49,3.55,3.55,0,0,0-1.72.26c-.28.18-.46.62-.59,1.35Z"/><path class="cls-1" d="M40.23,34.1a3,3,0,0,0,.94.55,2.41,2.41,0,0,0,1,.18,2.63,2.63,0,0,0,1.51-.44A3.62,3.62,0,0,0,44.75,33a10.37,10.37,0,0,0,.76-1.89,7.34,7.34,0,0,0,.26-1.9,2.66,2.66,0,0,0-.42-1.66A1.6,1.6,0,0,0,44,27a2.61,2.61,0,0,0-2.32,1.59,19.64,19.64,0,0,0-1.48,5.5M38.44,23.77c.24-1.15-.1-1.61-1.43-1.67.52-2.49,3.61-2.44,6.11-2.44L41.87,26a3.56,3.56,0,0,1,1.45-1,5.06,5.06,0,0,1,2-.34A4.24,4.24,0,0,1,48.57,26a5,5,0,0,1,1.2,3.56,8,8,0,0,1-.5,2.68,8.23,8.23,0,0,1-1.4,2.36,6.78,6.78,0,0,1-5.2,2.37A6.53,6.53,0,0,1,41,36.75a4.26,4.26,0,0,1-1.22-.54l-.34.52-3.63,0Z"/><path class="cls-1" d="M32.73,32.05c-.29,1.43-.18,2.63,2,1.59.76,2.8-4.93,4.78-5.87,1.32A6.44,6.44,0,0,1,27,36.36a4.46,4.46,0,0,1-2.13.45,4.15,4.15,0,0,1-3.24-1.33A5,5,0,0,1,20.42,32a8.1,8.1,0,0,1,.49-2.7,7.86,7.86,0,0,1,1.4-2.33,6.75,6.75,0,0,1,5.33-2.39,6.55,6.55,0,0,1,1.53.18,4,4,0,0,1,1.25.57,3.66,3.66,0,0,1,3.68-.57l-1.37,7.32M30,27.38a3.59,3.59,0,0,0-.93-.57,2.53,2.53,0,0,0-1-.19,2.68,2.68,0,0,0-1.51.45,3.92,3.92,0,0,0-1.14,1.4,9.92,9.92,0,0,0-.75,1.89,6.63,6.63,0,0,0-.26,1.87,2.65,2.65,0,0,0,.44,1.67,1.58,1.58,0,0,0,1.32.57,2.68,2.68,0,0,0,2.34-1.61A18.47,18.47,0,0,0,30,27.38"/><path class="cls-1" d="M63,32.18c-.29,1.43-.21,2.63,2,1.59.75,2.8-4.94,4.78-5.87,1.32a5.62,5.62,0,0,1-1.87,1.4,4.71,4.71,0,0,1-2.13.45,4.21,4.21,0,0,1-3.25-1.33,5,5,0,0,1-1.22-3.51,7.41,7.41,0,0,1,.49-2.7,7.89,7.89,0,0,1,1.41-2.33,7,7,0,0,1,2.38-1.8,6.64,6.64,0,0,1,2.94-.59,5.73,5.73,0,0,1,1.53.18,4.18,4.18,0,0,1,1.25.57,3.67,3.67,0,0,1,3.69-.57L63,32.18m-2.73-4.65A3.59,3.59,0,0,0,59.3,27a2.51,2.51,0,0,0-1-.18,2.71,2.71,0,0,0-1.51.44,4,4,0,0,0-1.14,1.4,10.76,10.76,0,0,0-.76,1.9,7.17,7.17,0,0,0-.26,1.9,2.46,2.46,0,0,0,.45,1.66,1.58,1.58,0,0,0,1.32.57A2.68,2.68,0,0,0,58.78,33a20.91,20.91,0,0,0,1.45-5.51"/><path class="cls-1" d="M112.39,27.53h.08c.46,0,.8,0,1,0a5.86,5.86,0,0,0,3.27-.77,2.53,2.53,0,0,0,1.17-2.21,1.72,1.72,0,0,0-.7-1.51,3.63,3.63,0,0,0-2.13-.49,2.62,2.62,0,0,0-1.53.31,1.82,1.82,0,0,0-.57,1.22l-.6,3.4M104.67,37c1.25-1.17,2-1.67,2.5-4.05.54-2.89,1.09-5.82,1.56-8.68.23-1.48-1.33-2.93-2.73-3.79l10,.05a9.18,9.18,0,0,1,4.75,1,3.23,3.23,0,0,1,1.48,3,4.63,4.63,0,0,1-1.11,3.07A5.64,5.64,0,0,1,118,29.25l1.92,4a8.71,8.71,0,0,0,3.82,3.79c-4,0-6.08.7-7.77-2.91l-2-4.39h-2l-.57,3.33a4.91,4.91,0,0,0,1.06,4Z"/><path class="cls-1" d="M135.69,32.44c-.29,1.43-.21,2.65,2.05,1.61.78,2.83-5,4.86-6,1.35a6,6,0,0,1-1.89,1.43,5,5,0,0,1-2.16.47,4.23,4.23,0,0,1-3.3-1.35,4.86,4.86,0,0,1-1.22-3.56,7.81,7.81,0,0,1,2-5.09,6.75,6.75,0,0,1,2.41-1.82,7.28,7.28,0,0,1,4.55-.44,4,4,0,0,1,1.25.57,3.71,3.71,0,0,1,3.71-.6l-1.4,7.43m-2.78-4.73a3.73,3.73,0,0,0-1-.57,2.56,2.56,0,0,0-1-.18,2.83,2.83,0,0,0-1.53.44,3.92,3.92,0,0,0-1.17,1.43,10.19,10.19,0,0,0-.75,1.92,7,7,0,0,0-.26,1.93,2.68,2.68,0,0,0,.44,1.68,1.56,1.56,0,0,0,1.32.58,2.67,2.67,0,0,0,2.37-1.64,18.42,18.42,0,0,0,1.53-5.59"/><path class="cls-1" d="M143.19,32.44a20.87,20.87,0,0,1-1.11,4.86c-1.22,2.86-2.76,3.77-6.63,3.79,2.89-2.31,3.35-3.84,3.9-7.53.31-2.18.65-4.34,1-6.52h-2.08c.21-1.14.18-2,2.39-2,.08-.24.16-.47.21-.68a6.46,6.46,0,0,1,2.42-3.27,6.88,6.88,0,0,1,4-1.17,4.59,4.59,0,0,1,2.26.49,1.53,1.53,0,0,1,.8,1.38,1.48,1.48,0,0,1-.54,1.17,2,2,0,0,1-1.33.46,1.92,1.92,0,0,1-1.22-.57l-.13-.13-.23-.18a1.48,1.48,0,0,0-.91-.47,1.34,1.34,0,0,0-1.09.47,3.86,3.86,0,0,0-.63,1.66c0,.29-.1.55-.15.84.75,0,2.41.07,3.79.1-.34,2.08-1.2,2-4,1.87l-.73,5.4"/><path class="cls-1" d="M153.92,19.17a1.9,1.9,0,0,1,1.38.54,1.87,1.87,0,0,1,.54,1.38A2.64,2.64,0,0,1,155,23a2.6,2.6,0,0,1-1.87.83,1.88,1.88,0,0,1-1.95-1.92A2.6,2.6,0,0,1,152,20a2.56,2.56,0,0,1,1.9-.86m-.52,13.9c-.31,1.55.16,2.54,1.92,1.37-.67,3.48-6.18,4.26-6.18.63a30.72,30.72,0,0,1,1-5.69c.24-1.22-.1-1.72-1.45-1.82.55-1.82,3.53-3.07,6.21-2.49Z"/><path class="cls-2" d="M2.73,19.25l10.39.05a7.58,7.58,0,0,1,4.05.88,2.88,2.88,0,0,1,1.32,2.6,3.71,3.71,0,0,1-1.11,2.78,5,5,0,0,1-3,1.32,4.45,4.45,0,0,1,2.75,1A3,3,0,0,1,18,30.26a4.69,4.69,0,0,1-.57,2.29,5.14,5.14,0,0,1-1.61,1.81,5.94,5.94,0,0,1-2,1,14.46,14.46,0,0,1-3.32.29h-.24L0,35.56a5.19,5.19,0,0,0,3.32-4l1.51-8.34,0-.23c.13-1.48-.75-2.63-2.15-3.74m5.48,8.57-.78,4.1,0,.24a2.05,2.05,0,0,0-.05.46.83.83,0,0,0,.39.76,2.76,2.76,0,0,0,1.3.23,5.22,5.22,0,0,0,3.4-1A3.27,3.27,0,0,0,13.71,30a1.73,1.73,0,0,0-.8-1.66,7,7,0,0,0-3.14-.47Zm.31-1.95h1.64c.8,0,1.4,0,1.76-.05a4.75,4.75,0,0,0,.91-.21,3,3,0,0,0,1.25-1,2.24,2.24,0,0,0,.47-1.38,1.57,1.57,0,0,0-.81-1.45,4.77,4.77,0,0,0-2.39-.49,3.64,3.64,0,0,0-1.71.25c-.29.19-.47.63-.6,1.36Z"/><path class="cls-2" d="M39,33.14a4.66,4.66,0,0,0,.94.55,2.41,2.41,0,0,0,1,.18,2.44,2.44,0,0,0,1.5-.44,3.55,3.55,0,0,0,1.12-1.38,9.92,9.92,0,0,0,.75-1.89,6.93,6.93,0,0,0,.26-1.9,2.73,2.73,0,0,0-.41-1.66,1.58,1.58,0,0,0-1.33-.55,2.57,2.57,0,0,0-2.31,1.59A19.33,19.33,0,0,0,39,33.14M37.17,22.81c.23-1.15-.11-1.61-1.43-1.67.52-2.49,3.61-2.44,6.1-2.44L40.6,25a3.58,3.58,0,0,1,1.45-1,5.18,5.18,0,0,1,2-.34A4.3,4.3,0,0,1,47.32,25a4.89,4.89,0,0,1,1.2,3.56A7.93,7.93,0,0,1,48,31.22a7.52,7.52,0,0,1-1.41,2.36,7,7,0,0,1-2.36,1.77,6.9,6.9,0,0,1-2.83.6,6.45,6.45,0,0,1-1.66-.18,4,4,0,0,1-1.22-.55l-.34.49-3.64,0Z"/><path class="cls-2" d="M31.45,31.09c-.28,1.43-.18,2.62,2,1.59.75,2.8-4.93,4.77-5.87,1.32a6.06,6.06,0,0,1-1.87,1.4,4.45,4.45,0,0,1-2.13.44,4.21,4.21,0,0,1-3.25-1.32A5,5,0,0,1,19.14,31a7.87,7.87,0,0,1,.5-2.7A8.09,8.09,0,0,1,21,26a6.83,6.83,0,0,1,5.32-2.39,6.62,6.62,0,0,1,1.54.19,4.24,4.24,0,0,1,1.24.57,3.72,3.72,0,0,1,3.69-.6l-1.38,7.35m-2.72-4.67a3.69,3.69,0,0,0-.94-.58,2.51,2.51,0,0,0-1-.18,2.71,2.71,0,0,0-1.51.44,4,4,0,0,0-1.14,1.41,9.67,9.67,0,0,0-.75,1.89,7.17,7.17,0,0,0-.26,1.9A2.77,2.77,0,0,0,23.61,33a1.7,1.7,0,0,0,1.32.57A2.56,2.56,0,0,0,27.25,32a20.23,20.23,0,0,0,1.48-5.53"/><path class="cls-2" d="M61.69,31.22c-.29,1.43-.18,2.62,2,1.59.78,2.8-4.93,4.77-5.87,1.32A6,6,0,0,1,56,35.53a4.9,4.9,0,0,1-2.13.44,4.18,4.18,0,0,1-3.24-1.32,5,5,0,0,1-1.22-3.51,8.1,8.1,0,0,1,.49-2.7,8.31,8.31,0,0,1,1.4-2.34,7.19,7.19,0,0,1,2.39-1.79,6.79,6.79,0,0,1,2.94-.6,5.62,5.62,0,0,1,1.53.19,4,4,0,0,1,1.25.57,3.7,3.7,0,0,1,3.68-.6l-1.37,7.35M59,26.55A3.64,3.64,0,0,0,58,26a2.56,2.56,0,0,0-1-.18,2.65,2.65,0,0,0-1.5.44,3.77,3.77,0,0,0-1.14,1.41,7.63,7.63,0,0,0-.73,1.89,7.17,7.17,0,0,0-.26,1.9,2.61,2.61,0,0,0,.44,1.66,1.61,1.61,0,0,0,1.32.57,2.66,2.66,0,0,0,2.34-1.61A22,22,0,0,0,59,26.55"/><path class="cls-2" d="M111,26.49l.08,0c.46,0,.8.05,1,.05a5.86,5.86,0,0,0,3.27-.78,2.52,2.52,0,0,0,1.17-2.21,1.71,1.71,0,0,0-.67-1.48,3.68,3.68,0,0,0-2.11-.49,2.62,2.62,0,0,0-1.53.31,1.84,1.84,0,0,0-.57,1.22L111,26.49M103.32,36c1.25-1.17,2-1.66,2.5-4.05.54-2.89,1.09-5.82,1.56-8.68.26-1.48-1.33-2.91-2.73-3.77l10,.06a9.1,9.1,0,0,1,4.75,1,3.23,3.23,0,0,1,1.48,3,4.46,4.46,0,0,1-1.11,3.06,5.7,5.7,0,0,1-3.1,1.74l1.93,4.06a8.53,8.53,0,0,0,3.81,3.76c-4,0-6.07.7-7.76-2.91l-2.05-4.39h-1.95l-.57,3.33a4.79,4.79,0,0,0,1.06,4Z"/><path class="cls-2" d="M134.34,31.4c-.29,1.43-.21,2.65,2,1.61.78,2.83-5,4.86-5.95,1.35a5.94,5.94,0,0,1-1.9,1.43,4.91,4.91,0,0,1-2.15.47,4.23,4.23,0,0,1-3.3-1.35,5,5,0,0,1-1.22-3.56,7.6,7.6,0,0,1,.52-2.73,7.5,7.5,0,0,1,1.43-2.36,7,7,0,0,1,2.41-1.82,7.34,7.34,0,0,1,3-.62,7.43,7.43,0,0,1,1.56.18,3.81,3.81,0,0,1,1.24.57,3.73,3.73,0,0,1,3.72-.6l-1.4,7.43m-2.78-4.72a3.78,3.78,0,0,0-1-.58,2.76,2.76,0,0,0-2.52.29,3.92,3.92,0,0,0-1.17,1.43,11,11,0,0,0-.76,1.92,7.34,7.34,0,0,0-.25,1.92,2.69,2.69,0,0,0,.44,1.69,1.54,1.54,0,0,0,1.32.57A2.64,2.64,0,0,0,130,32.29a18.33,18.33,0,0,0,1.54-5.61"/><path class="cls-2" d="M141.84,31.4a20.16,20.16,0,0,1-1.11,4.83C139.51,39.09,138,40,134.1,40c2.89-2.32,3.35-3.85,3.9-7.54.31-2.18.65-4.36,1-6.52h-2.08c.21-1.14.18-2,2.39-2l.24-.67a6.43,6.43,0,0,1,2.41-3.28,6.9,6.9,0,0,1,4-1.17,4.26,4.26,0,0,1,2.26.5,1.54,1.54,0,0,1,.78,1.37,1.46,1.46,0,0,1-.55,1.17,2,2,0,0,1-1.32.47,2,2,0,0,1-1.22-.57l-.16-.13-.23-.18a1.48,1.48,0,0,0-.91-.47,1.34,1.34,0,0,0-1.09.47,3.5,3.5,0,0,0-.6,1.66c0,.28-.1.54-.15.83.75,0,2.41.1,3.79.1-.34,2.08-1.2,2-4,1.87l-.7,5.43"/><path class="cls-2" d="M152.57,18.16a1.9,1.9,0,0,1,1.38.54,1.87,1.87,0,0,1,.54,1.38,2.61,2.61,0,0,1-.83,1.89,2.57,2.57,0,0,1-1.87.84,1.91,1.91,0,0,1-1.4-.55,1.85,1.85,0,0,1-.55-1.38,2.7,2.7,0,0,1,.83-1.89,2.57,2.57,0,0,1,1.9-.83M152.05,32c-.31,1.55.16,2.54,1.92,1.37-.67,3.48-6.2,4.26-6.18.63a30.72,30.72,0,0,1,1-5.69c.24-1.22-.1-1.72-1.45-1.82.54-1.82,3.56-3.07,6.23-2.49Z"/><path class="cls-3" d="M121.48,64.83s-14.57.23-25.84-1.87c0,0-19.35-3.74-26.65-5.43,0,0-25.46-4.23-36.42-2.8,0,0-14.36.75-19.3,10.59,0,0-1.58,4.55,0,6.68,0,0-2.93-1.06.57-10.57,0,0,2.47-8-3.09-7.38a10.12,10.12,0,0,0-4,6.37s.78-8.47,12.6-13c0,0,12.15-5.8,45-1.2,0,0,31.48,6.94,39.29,7.59,0,0,15.48,2.36,27.54-.29,0,0,16.49-1.82,15.06-15.82,0,0,2.86,2.68-1,11,0,0-1.3,9.48,4.67,5.33a11.48,11.48,0,0,0,2.26-6.13,14.68,14.68,0,0,1-9.58,12.46s-4.1,2.81-18.26,4.29l-2.83.18"/><path class="cls-4" d="M35,48v-.24l0-.23,0-.23v-.06H35s-.15,0-.41.11c-.52.1-.89.18-1.07.23-.67.11-1.19.18-1.53.21H32s-.08.08-.11.26l-.05.31-.08.29-.07.21.05,0c.26,0,.6-.13,1-.26,0,.57,0,.94-.08,1.09s-.08.63-.13,1.12-.1.88-.13,1.12l.08.07A3.49,3.49,0,0,0,33,51.9l.57-.11.1,0,0-.08c0-.26,0-.62.08-1.12s0-.86.08-1.12.05-.57.13-1.11a7.43,7.43,0,0,0,1-.11l.07-.07V48"/><path class="cls-4" d="M38.21,48.36a.93.93,0,0,0-.68-.15,2.24,2.24,0,0,0-.49.15l-.36.24-.19.13,0,0a10.75,10.75,0,0,1,.13-1.12l0-.29,0-.26,0,0-.6.13-.29,0-.28.08,0,.08v.05a3.32,3.32,0,0,1,0,.47c0,.15,0,.31,0,.47,0,.44-.08,1-.13,1.68a6.1,6.1,0,0,1-.08.76c0,.34-.05.57-.08.75l.1.1a3.3,3.3,0,0,0,.39,0,2.31,2.31,0,0,0,.55-.08l.1-.16c0-.1,0-.25,0-.44a3,3,0,0,0,0-.46l.07-.78.21-.26.31-.13c.26,0,.37.07.34.33s0,.45-.08.81a7.53,7.53,0,0,1-.08.8l.11.13c.08,0,.26,0,.49,0l.47,0,.1-.13c.08-.73.13-1.46.21-2.16a.61.61,0,0,0-.23-.6"/><path class="cls-4" d="M41.51,48.31a1.24,1.24,0,0,0-1-.39,1.8,1.8,0,0,0-1.22.55,2,2,0,0,0-.54,1.22,1.28,1.28,0,0,0,.36,1.14,1.58,1.58,0,0,0,1.2.36,1.8,1.8,0,0,0,1.24-.46l0-.08a.76.76,0,0,0-.13-.36.66.66,0,0,0-.2-.32l-.26.16a1.38,1.38,0,0,1-.6.18,1.13,1.13,0,0,1-.42-.05L39.74,50c.49-.07.88-.13,1.12-.15.41,0,.65-.11.67-.11s.21-.15.24-.36a1.06,1.06,0,0,0-.26-1m-.89.94c-.33.07-.59.1-.72.13l-.08-.08.15-.36.34-.19.31.13.11.34-.11,0"/><path class="cls-4" d="M49.58,47.58c0-.33,0-.57.06-.75l-.06-.13H49a4.29,4.29,0,0,1-.57,0l-.08,0c0,.15,0,.41,0,.75s0,.6-.05.75a2.51,2.51,0,0,1-.26.58c-.16.28-.26.49-.34.59l-.08.08s0-.1-.1-.31a6.09,6.09,0,0,1-.23-1V48a4,4,0,0,1,.07-.65,6.37,6.37,0,0,0,.08-.64c0-.06-.18-.11-.6-.11h-.54l-.08,0,0,.08s0,.31-.06.72-.05.55-.07.73a6.74,6.74,0,0,1-.39,1,1.55,1.55,0,0,1-.16.31l0-.08c0-.1-.13-.31-.26-.62a2.73,2.73,0,0,1-.18-.6c0-.18,0-.42.1-.75s.08-.6.1-.76l-.07,0c-.13,0-.32,0-.55,0H44l-.08.1c0,.16-.05.42-.08.75a5.6,5.6,0,0,0-.08.76,20.42,20.42,0,0,0,1,2.7l.08.1s.21,0,.47,0h.42l.07,0,.06-.05a1.92,1.92,0,0,0,.2-.44c.16-.29.29-.6.45-.89.07.29.18.6.25.89s.13.41.13.44L47,51,47,51a1.75,1.75,0,0,0,.41,0h.45L48,51l0-.05c.08-.11.34-.58.81-1.43l.7-1.22a1.53,1.53,0,0,0,.1-.71"/><path class="cls-4" d="M52.57,48.65a1.69,1.69,0,0,0-1.12-.55,1.44,1.44,0,0,0-1.19.37,1.79,1.79,0,0,0-.55,1.14,1.51,1.51,0,0,0,.34,1.17,1.59,1.59,0,0,0,1.09.52,1.71,1.71,0,0,0,1.2-.34,1.64,1.64,0,0,0,.54-1.12,1.55,1.55,0,0,0-.31-1.19m-.91,1.53a.44.44,0,0,1-.41.16.45.45,0,0,1-.39-.24.54.54,0,0,1-.11-.44.71.71,0,0,1,.18-.41.47.47,0,0,1,.42-.16.46.46,0,0,1,.39.23.56.56,0,0,1,.1.45.51.51,0,0,1-.18.41"/><path class="cls-4" d="M55.4,49.45l0-.23,0-.26.05-.26-.15-.1a1,1,0,0,0-.6.1c-.21.11-.31.13-.26.13l-.05-.21,0-.2-.52,0h-.52l-.06.05v0a4.31,4.31,0,0,1,0,1.22c0,.18-.05.42-.08.76a7.18,7.18,0,0,1-.08.75l.11.1.47.08a3,3,0,0,0,.46,0l.11-.08v-.55c0-.07,0-.23,0-.41a2.34,2.34,0,0,0,0-.42c0-.15,0-.26.13-.31a.68.68,0,0,1,.36-.05l.16,0,.18,0,.16-.1,0-.19"/><path class="cls-4" d="M57.19,47.56v-.05l-.07-.08L56,47.27l-.08,0v.06a9.77,9.77,0,0,1,0,1.19c0-.08,0,.34-.11,1.2,0,.18,0,.46-.08.83s-.07.65-.07.83l0,.13.08.1a2.18,2.18,0,0,0,.47.08,2,2,0,0,0,.51,0l.08-.08v-.26l0-.26c0-.31,0-.75.1-1.33s.18-1.37.31-2.28"/><path class="cls-4" d="M60.93,47.87h-.57l-.54,0,0,.1c0,.16,0,.39-.06.73s0,.57-.05.73l0,.07-.06-.05a1,1,0,0,0-.7-.41,1.39,1.39,0,0,0-1.11.31,1.48,1.48,0,0,0-.47,1.09,1.69,1.69,0,0,0,.28,1.17,1.52,1.52,0,0,0,1,.62,1.14,1.14,0,0,0,.88-.21l.05,0,0,0v.23l.18.11a6.22,6.22,0,0,0,.83.1l0,0v-.08c0-.37,0-1,.11-1.87.05-.52.1-1,.15-1.4s.11-.65.13-.89.05-.26.05-.21l-.13-.1m-1.55,3.22a.57.57,0,0,1-.45.13.48.48,0,0,1-.39-.26.57.57,0,0,1-.1-.44.77.77,0,0,1,.18-.42A.52.52,0,0,1,59,50a.72.72,0,0,1,.41.26.56.56,0,0,1,.13.47.91.91,0,0,1-.2.39"/><path class="cls-4" d="M62.23,48,62.16,48l-.19.11-.2.15-.21.13-.18.16.2.29a.68.68,0,0,1,0,1L61.4,50l.16.19.18.2,0,.06.11-.06a2.21,2.21,0,0,0,.52-.57,1.73,1.73,0,0,0,.25-.72,1.52,1.52,0,0,0-.44-1"/><path class="cls-4" d="M64.73,50.16a1.18,1.18,0,0,0-.21-.39,1.43,1.43,0,0,0-.94.13.82.82,0,0,0-.54.72.85.85,0,0,0,.13.5s.1.15.26.39l.13.33c0,.13-.11.21-.31.24H62.8l0,0a1.31,1.31,0,0,0,.18.45c.13.26.21.39.26.39a2,2,0,0,0,.63,0,2.2,2.2,0,0,0,.57-.23l.21-.26.1-.34a1.08,1.08,0,0,0-.1-.55,2.52,2.52,0,0,0-.26-.39l-.13-.31.18-.23.31,0,.18,0,.05-.07c-.05,0-.1-.13-.2-.39"/><path class="cls-4" d="M70.47,52.42a.91.91,0,0,0-.31-.47l-.08-.08.13-.1.23-.26.16-.37A1.21,1.21,0,0,0,70.21,50a2.67,2.67,0,0,0-1.12-.5l-1.17-.26c-.41-.08-.65-.13-.73-.13l-.1,0v.06c0,.33,0,.59,0,.78,0,.67-.07,1.14-.07,1.37s-.08.57-.13,1a10,10,0,0,0-.13,1l.07.1,1.36.34.2.05.24,0a1.87,1.87,0,0,0,1.48-.13,1.16,1.16,0,0,0,.44-.88,1.42,1.42,0,0,0,0-.54m-1.82-1.28a1.55,1.55,0,0,1-.39-.1.62.62,0,0,1,0-.36l0-.19,0-.18s.13,0,.33,0a2.36,2.36,0,0,1,.5.15.39.39,0,0,1,.23.42c0,.23-.26.34-.7.23M69,53a1.25,1.25,0,0,1-.47-.05,2.55,2.55,0,0,1-.44-.13,1.29,1.29,0,0,1,0-.42,1.5,1.5,0,0,1,.08-.39s.18,0,.44,0a1.52,1.52,0,0,1,.47.16.48.48,0,0,1,.21.44A.35.35,0,0,1,69,53"/><path class="cls-4" d="M72.18,50.44a.57.57,0,0,0-.41-.23.63.63,0,0,0-.45,0,.52.52,0,0,0-.23.36.48.48,0,0,0,.16.45.75.75,0,0,0,.41.23c.42.08.63,0,.65-.42a.43.43,0,0,0-.13-.44m.08,1.35v0l-.08-.08-.26,0-.26,0-.26-.08-.26-.08-.1.05v.08c0,.37,0,.83-.05,1.43,0,.16,0,.36-.08.65s0,.49-.08.65v.1l.08.06.47.13a3.56,3.56,0,0,0,.46.07l.08,0c0-.15,0-.39,0-.67s0-.52.06-.68c.07-.54.15-1,.23-1.43"/><path class="cls-4" d="M75.71,54.29a2.33,2.33,0,0,0,0-.39,4,4,0,0,1,.08-.65,5.16,5.16,0,0,1,.08-.65l-.06-.11a3.27,3.27,0,0,1-.49-.18c-.31-.1-.49-.18-.52-.18s0,.08-.08.23l0,.11-.06-.08a1,1,0,0,0-.7-.49,1.07,1.07,0,0,0-1,.2,1.37,1.37,0,0,0-.45.91,1.88,1.88,0,0,0,.26,1.09,1.59,1.59,0,0,0,.94.65,1,1,0,0,0,.83-.13l0,.21a.35.35,0,0,1-.28.29l-.47,0a2.27,2.27,0,0,1-.86-.44l0,0-.08.07a2.73,2.73,0,0,0-.18.6q0,.15.54.39a4.62,4.62,0,0,0,.71.26,1.6,1.6,0,0,0,1.29-.1,1.55,1.55,0,0,0,.5-1.2c0-.1,0-.23,0-.41m-1.22-.37L74.1,54l-.36-.26-.1-.42.18-.36.39-.08.36.26.1.44-.18.34"/><path class="cls-4" d="M79.35,55.14a2.21,2.21,0,0,0,0-.39c0-.15.05-.36.07-.65s.06-.49.08-.65l0-.1a2.88,2.88,0,0,1-.49-.18c-.32-.1-.5-.18-.52-.18s-.06.08-.08.23l0,.1,0-.07a1,1,0,0,0-.67-.52,1.06,1.06,0,0,0-1,.18,1.32,1.32,0,0,0-.44.91,1.65,1.65,0,0,0,.28,1.09,1.45,1.45,0,0,0,.91.65,1,1,0,0,0,.83-.11l0,.21a.37.37,0,0,1-.29.29h-.44a2.13,2.13,0,0,1-.86-.44l0,0-.08.08a2.91,2.91,0,0,0-.18.6q0,.15.54.39a6.7,6.7,0,0,0,.7.26,1.57,1.57,0,0,0,1.3-.11,1.7,1.7,0,0,0,.5-1.19.49.49,0,0,1,0-.37m-1.22-.39-.39.08-.36-.26-.13-.44.18-.36.39-.08.36.26.11.44-.16.36"/><path class="cls-4" d="M82.44,54.29a1.52,1.52,0,0,0-1-.68,1.28,1.28,0,0,0-1.16.21,1.34,1.34,0,0,0-.52,1.09,1.73,1.73,0,0,0,.36,1.3,2,2,0,0,0,1.14.73,1.45,1.45,0,0,0,1.22-.13l.05-.06a1.08,1.08,0,0,0-.13-.41,1.19,1.19,0,0,0-.18-.37l-.26.11a1.37,1.37,0,0,1-.57,0L81,55.92l-.23-.36c.49.08.86.13,1.09.15l.65.08c.13,0,.21-.1.23-.31a1.63,1.63,0,0,0-.31-1.19m-.83.72a3.25,3.25,0,0,1-.73-.1l-.08-.1.16-.34.34-.11.31.24.1.39-.1,0"/><path class="cls-4" d="M84.86,54.68a1.18,1.18,0,0,0-.21-.39,1.46,1.46,0,0,0-.94.07.81.81,0,0,0-.54.68.88.88,0,0,0,.1.52s.11.15.26.41l.13.37c0,.13-.1.21-.31.23l-.44,0,0,0a1.6,1.6,0,0,0,.18.47c.13.26.21.39.26.41a1.12,1.12,0,0,0,.63,0,3.43,3.43,0,0,0,.57-.2l.21-.26.1-.31a1.06,1.06,0,0,0-.1-.55,4.6,4.6,0,0,0-.26-.42l-.13-.31.18-.23h.31l.16,0,.05-.08-.18-.46"/><path class="cls-4" d="M87.32,57.22h-.2l-.24,0a.39.39,0,0,1-.31-.2.87.87,0,0,1,0-.39l0-.24,0-.23.05-.13.23,0,.21.05.21.06.1-.06,0-.2,0-.24,0-.21,0-.2-.06-.06-.33,0-.34-.07-.08-.19c0-.07,0-.2,0-.39a2.15,2.15,0,0,0,0-.36l-.07-.08a3.31,3.31,0,0,0-.47-.15L86,53.79l-.24-.08c-.05,0-.08.11-.1.34,0,0,0,.13,0,.39a1,1,0,0,1,0,.37l-.13,0-.21,0v.21l0,.2,0,.16,0,.15.11.11h.08l.15.18a6.15,6.15,0,0,1-.08.62c0,.29,0,.5-.07.63-.06.46.23.75.83.91a2,2,0,0,0,.91,0l.1-.06,0-.1,0-.29,0-.28,0-.08"/><path class="cls-4" d="M92.6,58.08c-.34-.7-.5-1.07-.5-1.07l.11-.07c.36-.13.7-.58,1-1.3l.18-.47-.08-.08L93.09,55l-.26,0-.23-.05-.24-.06-.15.06c-.18.36-.31.64-.42.83a1.37,1.37,0,0,1-.36.49.8.8,0,0,1-.6.08c-.1,0-.13-.13-.13-.31s0-.39.08-.71a4.94,4.94,0,0,0,.08-.7l-.06-.07-.28-.06-.29-.05L90,54.36l-.29-.07-.08.05c0,.23,0,.62-.07,1.09s-.06.86-.08,1.09-.05.57-.13,1-.11.78-.13,1l.08.13.52.13a4.74,4.74,0,0,0,.59.1l.11-.1c0-.16,0-.39,0-.73s0-.57,0-.73.13-.08.36-.1a3.61,3.61,0,0,1,.39.85c.13.32.24.63.37.94l0,.1.1,0a2.73,2.73,0,0,0,.57.16,3.78,3.78,0,0,0,.5.08l.13-.16c0-.08-.11-.49-.44-1.19"/><path class="cls-4" d="M96.08,57.3a1.59,1.59,0,0,0-1-.65,1.28,1.28,0,0,0-1.19.26A1.51,1.51,0,0,0,93.38,58a1.6,1.6,0,0,0,.36,1.27,2.08,2.08,0,0,0,1.14.68,1.43,1.43,0,0,0,1.22-.18l.06-.06a1.14,1.14,0,0,0-.13-.39,1.42,1.42,0,0,0-.19-.36l-.26.11a1.58,1.58,0,0,1-.57,0l-.41-.18-.24-.37c.5,0,.86.11,1.12.13l.65,0c.13,0,.21-.1.23-.31a1.39,1.39,0,0,0-.28-1.14m-.86.75a2.94,2.94,0,0,1-.73-.08l-.08-.1.16-.34.34-.1.31.21.1.36-.1,0"/><path class="cls-4" d="M99.84,58.08a1.41,1.41,0,0,0-1-.65.84.84,0,0,0-.75.18l0,0,0-.11c0-.36,0-.65.08-.85a2.32,2.32,0,0,1,0-.32l.05-.31-.05-.13-.55-.08L97,55.79l-.11.05v0c0,.68-.05,1.45-.13,2.36a14.09,14.09,0,0,1-.23,1.9v0l.18.11.89.15.07-.13.08-.1,0,0a1.23,1.23,0,0,0,.73.42,1.26,1.26,0,0,0,1.09-.29,1.43,1.43,0,0,0,.47-1,1.8,1.8,0,0,0-.29-1.24m-1,1.37a.42.42,0,0,1-.44.11A.64.64,0,0,1,98,59.3a.68.68,0,0,1,.1-.88.48.48,0,0,1,.42-.11.5.5,0,0,1,.39.26A.74.74,0,0,1,99,59a.66.66,0,0,1-.19.41"/><path class="cls-4" d="M103.84,58.57l0,0-.05-.05a2.71,2.71,0,0,0-.44-.18,3.22,3.22,0,0,0-.45-.13l-.1.13-.08.15,0,0A1.08,1.08,0,0,0,102,58a1.31,1.31,0,0,0-1.14.28,1.63,1.63,0,0,0-.49,1.09,1.77,1.77,0,0,0,.28,1.15,1.48,1.48,0,0,0,1,.65,1.14,1.14,0,0,0,.78-.24l.08-.05,0,.18,0,.18c.34.06.62.08.88.11l.13-.13a4.61,4.61,0,0,0,0-.73c0-.31,0-.57,0-.73.08-.36.16-.75.26-1.14m-1.43,1.48a.54.54,0,0,1-.44.11.64.64,0,0,1-.41-.26.56.56,0,0,1-.13-.47.59.59,0,0,1,.21-.42.53.53,0,0,1,.44-.1.61.61,0,0,1,.41.23.69.69,0,0,1,.13.47.53.53,0,0,1-.21.44"/><path class="cls-4" d="M107.4,59.12a1.45,1.45,0,0,0-1-.6,1,1,0,0,0-.78.21l0,0,0-.1c0-.36.08-.65.1-.86,0,0,0-.15.06-.31l0-.31,0-.1a2.81,2.81,0,0,0-.55,0c-.31,0-.49,0-.55,0l-.1.06v0c0,.68,0,1.46-.13,2.34a15.77,15.77,0,0,1-.23,1.89v.06l.18.1c.57.08.86.1.91.1l.08-.13.07-.1,0,0a1.09,1.09,0,0,0,.73.36,1.29,1.29,0,0,0,1.09-.36,1.57,1.57,0,0,0,.47-1.07,1.74,1.74,0,0,0-.24-1.19m-1.06,1.45a.48.48,0,0,1-.44.13.57.57,0,0,1-.42-.23.58.58,0,0,1-.1-.47.65.65,0,0,1,.18-.44.48.48,0,0,1,.44-.13.5.5,0,0,1,.39.23.74.74,0,0,1,.13.47.81.81,0,0,1-.18.44"/><path class="cls-4" d="M113.06,61.14l-.23-.41,0,0-.16.11-.34.2a1.27,1.27,0,0,1-.51.11.91.91,0,0,1-.71-.39,1.3,1.3,0,0,1-.18-.81,1.36,1.36,0,0,1,.31-.78,1.1,1.1,0,0,1,.78-.31.85.85,0,0,1,.5.16l.31.26.15.13.06,0a1.73,1.73,0,0,0,.31-.41,2.64,2.64,0,0,0,.26-.45l0-.13a2,2,0,0,0-1.56-.7,2.07,2.07,0,0,0-1.61.6,2.41,2.41,0,0,0-.73,1.56,2.38,2.38,0,0,0,.44,1.69,2.1,2.1,0,0,0,1.53.78,2.07,2.07,0,0,0,1.61-.63l.08-.13s-.08-.15-.21-.39"/><path class="cls-4" d="M116.65,59.4a1,1,0,0,0-.65-.21,1.15,1.15,0,0,0-.49.11l-.37.18-.15.1,0,0c0-.28.05-.65.13-1.11l0-.29,0-.26,0-.08a4.84,4.84,0,0,0-.57.05h-.29l-.28,0,0,.05v0a3.32,3.32,0,0,1,0,.47c0,.16,0,.31,0,.47,0,.44-.08,1-.13,1.71a6.1,6.1,0,0,1-.08.76c0,.33,0,.57-.08.75l.1.13a1.24,1.24,0,0,0,.37,0h.54l.11-.13c0-.11,0-.26,0-.47a2.79,2.79,0,0,0,0-.44l.08-.78.2-.24.32-.1c.26,0,.36.13.33.36s0,.45-.07.81a5,5,0,0,0-.08.8l.08.13a1.91,1.91,0,0,0,.49,0h.47l.1-.13c.08-.73.13-1.45.21-2.16a.76.76,0,0,0-.26-.57"/><path class="cls-4" d="M120.75,59.43l0-.08,0-.05a2.74,2.74,0,0,0-.44-.08l-.44,0-.1.15-.08.16h0a.78.78,0,0,0-.75-.31,1.52,1.52,0,0,0-1.17.47,1.72,1.72,0,0,0-.49,1.17,1.47,1.47,0,0,0,.28,1.06,1.19,1.19,0,0,0,1,.47,1.22,1.22,0,0,0,.8-.37l.08,0,0,.18,0,.19a4.89,4.89,0,0,0,.91-.08l.13-.13c0-.16,0-.39,0-.73s0-.54,0-.73a3.67,3.67,0,0,1,.15-1.19m-1.45,1.74a.61.61,0,0,1-.44.18.48.48,0,0,1-.42-.18.53.53,0,0,1-.13-.44.66.66,0,0,1,.21-.44.63.63,0,0,1,.47-.19.68.68,0,0,1,.44.16.53.53,0,0,1,.13.44,1.43,1.43,0,0,1-.26.47"/><path class="cls-4" d="M122.47,57.92a.6.6,0,0,0-.42-.13.7.7,0,0,0-.44.18.55.55,0,0,0-.23.42c0,.18,0,.31.15.39a.57.57,0,0,0,.44.1.62.62,0,0,0,.68-.59.47.47,0,0,0-.18-.37m.07,1.3v0l-.07-.05-.29,0-.28,0h-.55l-.08.08v0a9.46,9.46,0,0,1,0,1.43,4.28,4.28,0,0,1-.08.65c0,.28,0,.52,0,.65v.1l.08,0h.49a3.23,3.23,0,0,0,.49-.06l.08-.07c0-.16,0-.39,0-.68s.06-.52.06-.67a10.75,10.75,0,0,1,.2-1.46"/><path class="cls-4" d="M126.05,61c0-.26,0-.46,0-.59,0-.34.05-.68.11-1a.56.56,0,0,0-.26-.57,1.11,1.11,0,0,0-.68-.1,2,2,0,0,0-.67.28,3.46,3.46,0,0,0-.37.26l-.08-.41a4.3,4.3,0,0,0-.57.15c-.23.06-.41.11-.54.13l-.05.08v.05a4.88,4.88,0,0,1,0,1.22,6.56,6.56,0,0,0-.08.76c0,.33,0,.57-.08.72l.1.11a4,4,0,0,0,.5,0l.47,0,.1-.13.15-1.69.21-.26.31-.13c.26,0,.37.11.34.39l0,.34,0,.34c0,.1,0,.26,0,.44a4.11,4.11,0,0,0,0,.44l.07.13a2.56,2.56,0,0,0,.5,0,2,2,0,0,0,.47-.08l.1-.1c0-.16,0-.37,0-.63"/><path class="cls-4" d="M128.15,56.68l-.25,0-.26.05-.26,0-.26,0L127,57c0,.11,0,.23,0,.42a3.6,3.6,0,0,0,0,.41,3.46,3.46,0,0,1-.06.39,2.2,2.2,0,0,1-.05.39,6.42,6.42,0,0,0,.21,1.09c0,.05.1.08.29.05l.26-.15c.1-.37.23-.7.33-1.07a4.89,4.89,0,0,0,.21-1.09c0-.46,0-.72,0-.72m-.41,3.48a.45.45,0,0,0-.42-.11.65.65,0,0,0-.44.26.66.66,0,0,0-.21.47.47.47,0,0,0,.13.41.46.46,0,0,0,.42.11.88.88,0,0,0,.47-.26.81.81,0,0,0,.21-.47.47.47,0,0,0-.16-.41"/><path class="cls-5" d="M103.25,22.29l-.47,8L99,36.13l-5.48,4.18L88.57,43,82,44.62l-8.67-.88-5-4.08s-1.38-5.74-1.38-6.72,3-7,3-7l4.91-4.6,4.78-3.06,5.61-2.21,4.62-.68h2.52l8.26,2.83,2.68,4.06"/><path class="cls-6" d="M78.6,20.68c8.31-4.86,18-4.5,21.5.83S99.74,35.17,91.43,40s-18,4.49-21.51-.86.37-13.64,8.68-18.49"/><path class="cls-1" d="M77.38,18.91c9.79-5.69,21.35-5.35,25.71.75S103,35.32,93.22,41s-21.35,5.35-25.71-.75,0-15.66,9.87-21.35m.7.6c-8.7,5.19-12.55,14.15-8.57,19.89s14.31,6.21,23,1,12.54-14.16,8.57-19.9-14.34-6.23-23-1"/><path class="cls-7" d="M73.14,31.12c2.91-1.17,9.3-5.95,16.73-13.22L92.39,14l2.75-2s3.2,1.67,3.12,2.39a26.59,26.59,0,0,0,.31,3.46,14.77,14.77,0,0,1,.83,2.83c0,.65.83,4.21.34,4.88a3.52,3.52,0,0,0-.6,1.28,27.66,27.66,0,0,0-2.88,1.74c-.55.46-2.68,2.88-3.51,3.71a48.15,48.15,0,0,1-9.61,6.47c-3.32,1.43-8.75,3.06-10.21,2s-3.24-1.94-2.85-4.44,3-5.17,3.06-5.19"/><path class="cls-8" d="M73.66,33.14c0,2.26-1.79,7.48,2.11,7.2a18.66,18.66,0,0,0,7.58-2.76,73.68,73.68,0,0,0,6.55-3.81c.31-.24,2.75-2.11,2.59-2.34-.88-1.2-4.59-1.17-5.09-2.44a25.85,25.85,0,0,1-.88-5c-3.43,2.49-7,5.55-10.75,7.94a11.18,11.18,0,0,1-1.74.78c-.21.11-.84.57-.37.39"/><path class="cls-2" d="M95.53,22.13l0,.47a7.39,7.39,0,0,0,.31.85l.23.39c.13.19.31.13.44,0l.39-.34c.18-.13.26-.49.37-.72a.68.68,0,0,0,0-.76l-.36-.41c-.24-.13-1.46.26-1.38.49"/><path class="cls-9" d="M94.16,14.31c.2-.31.83-1.58,1.29-1.32.78.46,2.39,1.63,2.68,2.54.15.5-.29,1.54-.08,2,.11.23.26,1.24.31,1.32-.41.31-1.09-1.48-1.11-1.53-.16-.36-.32-1.46-.68-1.72s-1.69-.25-2.18-.28c-.21,0-.26-.36-.34-.52s.08-.26.11-.47"/><path class="cls-6" d="M94,17.45c.31-.23.62-.57,1-.54l.57.73c.13.18.67-.13.86-.06s.36.16.52.34c.31.42-.13,1.41-.42,1.64l-.16.28a1.48,1.48,0,0,1-1,.45l-.8-.11a2.88,2.88,0,0,1-.6-1.53l0-.23V17.9l0-.34-.1-.11"/><path class="cls-10" d="M88.23,22c.57-.31,3.69-4.88,4-3.79.36,1.53,1.66,2.73,2,4.26A14,14,0,0,0,96.75,27a15.55,15.55,0,0,0-2.18,2.11c-.88.93-1.51,2.26-2.86,1.4S87.66,28,88,26.23a12.35,12.35,0,0,0,.18-2.78c0-.12,0-1.68.1-1.48"/><path class="cls-1" d="M74.47,31.51c-.24.13,13-10.34,15.09-13.82s4.1-6.16,5.09-6.39a2.31,2.31,0,0,1,2.39.93c.67.78,2,1.51,1.95,3.64s-.47,4.13.18,6.78,0,3.82-1.12,4.21c1.2-1.56-.26-5-.13-6.7.08-1.2.55-3.8.21-4.65a15.09,15.09,0,0,0-2.68-2.89s-1.79.86-1.68,2.11.67,5.32.8,6.41c.23,2.29,1.77,3.56,2.75,5.33-1.22-.21-3.53-2.29-3.58-4-.08-2.45-1.27-3.2-1.4-5.56,0-.6-3.8,4.57-6.81,6.75s-9,7.12-9.61,7.33a8.79,8.79,0,0,0-1.45.57"/><path class="cls-1" d="M73.38,31.58C70.62,35.82,70.6,42.49,78.49,40c12.94-4.18,11.48-7.56,18-12.34-4.46,6-6.85,10.13-18.1,13.46-3.61,1.06-7.85,1.27-7.69-4,.16-3.58,2.29-5.74,2.68-5.51"/><path class="cls-1" d="M95.77,15.22c-.37.21-1.07.6-1.43.86a.4.4,0,0,0-.16.52c.39.7,1-.11,1.48,0s.6.29.62.76c0,.28,0,.8.19,1,.72.63-.39,1-.76,1.48-.13.16-.13.45,0,.52.32.21.57.08.89,0A2,2,0,0,0,97.87,19c.08-.59-1-1.35-.88-1.94.31-1-.37-1.54-1.22-1.85"/><path class="cls-1" d="M95.74,21.27a2.61,2.61,0,0,1,1.58-.18l.73.31.18.21-.07.26a8.82,8.82,0,0,1-.89,1.61l-.18.26-.31,0-.13-.24.28-1.61c-.2-.39-1.27-.28-1.19-.57"/><path class="cls-1" d="M87.66,29c.6,2.26,1.51,4.31,2.5,4.34a14.9,14.9,0,0,1-1.9-5.22,36.1,36.1,0,0,1,.52-8.63L87.43,21A18.59,18.59,0,0,0,87.66,29"/><path class="cls-1" d="M87.38,25.3c.31.6,5.32,5.84,6.57,4.91-.68.49-.26,1.32-.91,1.06s-5.87-2.44-5.66-6"/><path class="cls-1" d="M90.8,20.13c.32.16.19.21.08.52s-.49,0-.39-.21l.08-.21.23-.1"/><path class="cls-1" d="M89.27,24.47c.37,0,.26.08.31.41s-.41.26-.46,0l0-.2.18-.21"/><path class="cls-1" d="M89.92,25.25c.24,0,.18.05.21.26s-.26.18-.29,0l0-.13.1-.13"/><path class="cls-1" d="M95.27,27.09c.24,0,.18.05.21.26s-.26.18-.29,0l0-.13.1-.13"/><path class="cls-1" d="M92.65,23.66c.26-.13.23,0,.39.24s-.24.33-.37.15l-.1-.15.08-.24"/><path class="cls-1" d="M92.7,27.56c.26-.13.23,0,.36.21s-.23.31-.33.13l-.11-.16.08-.18"/><path class="cls-9" d="M96.75,24.55a4.65,4.65,0,0,1,.73,1.22c0,.13,0,.44.08.59l0,.34a.46.46,0,0,0,.39-.39l.11-.23,0-.55c0-.15.05-.44.05-.65v-.41a2.57,2.57,0,0,0-.21-.78l-.1-.24-.26.06a1.7,1.7,0,0,0-.55.59l-.31.45"/><path class="cls-1" d="M69.14,6.91c-1.27,2.23.24,5.51,3.12,7.09,2.7,1.51,5.9,1.43,6.34,4.23.41,2.65-4.21,3.74-3.33,5.69.29.65,1.2,1.46,3.12,2.5C78,24.57,73.45,22.21,76,20c1.27-1.12,1.81-1.51,1.14-3.17-.55-1.27-8-4-8-9.87"/><path class="cls-1" d="M81.71,7.92c-.49,1.82-3.48,5.51-1.19,6.68,1.19.6,4-.16,4.8.62,1.07,1.07-2.67,3.22-1.94,4.52.44.75,1.48.55,1.48.62.13-.23-.94-1.11-1.15-1.27C81.82,17.58,86.65,16,85,14.49c-1-.91-4,0-5.25-1C76,10.44,81.66,8,81.22,4.7,80.88,2.23,77.82.44,74.91.31c4.86-1.74,7.71,4.21,6.8,7.61"/><path class="cls-11" d="M101.43,13.56V11.87h.78a1.47,1.47,0,0,1,.36.05l.21.16.08.26-.13.31a.71.71,0,0,1-.39.16l.15.07.18.24.32.46h-.29l-.23-.36-.19-.26-.12-.1-.11,0h-.41v.75h-.21m.23-1h.5l.25,0,.13-.1.06-.16-.08-.21-.29-.07h-.57Z"/><path class="cls-1" d="M102.1,11.33a1.42,1.42,0,0,1,1.46,1.4,1.4,1.4,0,0,1-1.46,1.37,1.39,1.39,0,1,1,0-2.77m0-.19a1.58,1.58,0,1,0,1.61,1.59,1.58,1.58,0,0,0-1.61-1.59"/></g></g></svg>