<svg xmlns="http://www.w3.org/2000/svg" viewBox="0 0 186.68 72"><defs><style>.cls-1{fill:#fff;}.cls-2{fill:#e2001a;}</style></defs><g id="Layer_2" data-name="Layer 2"><g id="svg4403"><path class="cls-1" d="M160.89,32.62s0-.08,0-.13l.13.06a.3.3,0,0,1-.1.07M185,25c-2.92-3.23-7.62-3.3-11.29-1.22a1.58,1.58,0,0,0,.05-.25c1.59-5.55-3.22-11-8.1-10.57-6.42-.18-11,7.65-6.86,12.87a5.27,5.27,0,0,0-.75,2.66c-.08-.06-.16-.08-.24-.13-2.69-8.19-14.88-2-19.56,1.58a5.89,5.89,0,0,0-8-3.94c-5.92-3.56-10.89,1.9-16.39,1.61-2.67-.33-6.16-2.1-8.86-1.49-1.8-1.45-4.54-1.4-6.83-.71,12.75-17.29,2.06-29.54-15.07-14C73.73.45,60.26,15.88,55,26.19A7.16,7.16,0,0,0,50.21,24c4.62-4,11-9.49,11.61-16.36-.46-8.8-10.38-9.83-15-3.95C45,5.76,41.87,9.57,40.1,11.57a4.73,4.73,0,0,0-4.54-3.83c-6.94.14-10.65,4.62-16.08,7.2-5.42,3-11,4.84-15.35,10C.51,28.94.75,35.56,5.81,37.86,3.21,40.69.14,44.55,0,48.79c-.24,7.24,9.12,10,14,5.6a31.74,31.74,0,0,0,4.19-4.26c.28,15.73,21,12.68,19.55,3.51,5.31,2.7,11.41,1.31,15.6-1.59C57.85,56.2,65,55,69.81,52.17c3.93,4.68,11.12,4.46,15.4.24,6.26,6.79,15.75,2.38,20.64-3.63A7.34,7.34,0,0,0,107,50.33c-6.15,3.22-14.29,10.39-10.25,18a6.33,6.33,0,0,0,5.44,3.23c10,.24,16-6,19.3-10.54-1.29,4.4.29,9.56,5.28,10.67,6.39,1.46,10.91-2.42,13.34-4.54,4.28-3.64,7.14-8.31,10.47-12.56a21.07,21.07,0,0,1,4.49-3.31c3.33,6.67,12.64,6.9,18.06,3,4.58-3.13,8-9,7.82-14.77,0-1.39-.07-2.77,0-4.11A6.14,6.14,0,0,0,185,25"/><path class="cls-2" d="M26.1,31.29c3,6.24-7.69,15.23-2.66,23.39,1.91,3.32,7.65,3.32,10,.78,1.78-1.89-1.71.48-2.32-2.8-1.28-6.76,5.33-13.91,2-21.77C39.62,26.36,59.32,15.5,57.53,6.08A3.61,3.61,0,0,0,53.35,4,7.19,7.19,0,0,0,49.8,6.3c-6.68,7.63-13,16.37-22.28,22.47L26.1,31.29m-.42-.6C21.24,35.86,15,55,6,52.14-3,44.91,22.39,32.35,23,23.81c.06-.24-.32-.54-.83-.38-5.49,1.16-9.38,15.37-16,9.87C3.12,26.53,14.77,22,19.36,19.47c5.7-2.33,10.21-7.59,16.24-7.79a1.08,1.08,0,0,1,.55,1.52c-3.65,6-7.34,11.33-10.47,17.49M165.41,16.92c2.22.14,3.32.34,4.35,2.94a4.34,4.34,0,0,1,.06,3c-.41,2.23-5.39,7.33-7.71,5.87-.46-.32.48-1.47,1-2.32a1.42,1.42,0,0,0-.06-1.66c-3.77-3.23-1.3-7.46,2.38-7.82"/><path class="cls-2" d="M134.11,61.42a21.56,21.56,0,0,0,5-6.06c.3-.49-.45.07-1.59.39S129,60.9,131.8,62.59a4.56,4.56,0,0,0,2.31-1.17m33.78-15.48c2.86-2.09,4.38-7.13,3.35-10.74-2,.76-5.58,3.76-8,6-2.84,2.75-.44.6,1,1s3.23,2.3,2.31,3.28c-.33.37.66.87,1.28.41m-15.15-17.6c1.37-.07,1.81,2.36.61,2.86-4,1.7-11.32,3.68-11.54,9.92a1.66,1.66,0,0,0,2.39,1c4.36-1.91,5.48-7.1,9.23-10.08,2.12-1.65,4.29.74,3.48,2.9a40.06,40.06,0,0,1-4.1,7.66c-.76,1.2.83.48,1.19.26,6.66-3.12,21.29-21.18,28.07-15.14a2.24,2.24,0,0,1,.41,2.48c-.66,1.44-2.4,1.15-3.86,1.42-3.12,1.51-.77,8.5-2.08,11.43-1.66,6.07-8.16,11.62-14.75,9.27a5.18,5.18,0,0,1-2.41-1.71c-4.09-4.88,2.5-7.82-1.22-5.67-3.06,1.75-8.74,4.74-10.69,7.16C142.1,58.47,137.17,69,127.63,67.8a3.35,3.35,0,0,1-2.57-3.07c-.3-9.94,13.08-12.26,18.54-16.92-.55-.27-3.2,1.73-5.48,1.62-1.13,0-2.88-.25-3.78-1.66-4.58-9.07,10-19.41,18.4-19.43M46,38.18a8.78,8.78,0,0,0,2-4.39c0-.86,0-1-.9-.95-1.35.12-5.5,4.95-5,7.8.08.47,1.7-.18,1.87-.3A11.47,11.47,0,0,0,46,38.18M68.15,27.49c1.33-2,6.55-7.93,3.92-8.08-4,.41-10.46,10.18-10.75,15,.66.5,5-4.45,6.83-6.95m18.28-.78c14.13-19-3.94-6.3-6.28,6.26,1.18-.42,4.49-3.82,6.28-6.26M48.68,28.06a3.69,3.69,0,0,1,4.59,4c-.49,5.57-3.32,8.9-8.58,12.83-.5.41.09.78.45.79,3.63.06,8.28-4,8.65-5.09.63-1.76,1.17-4.7,1.7-6.17C59,25.17,69.38,8.69,78.35,12.25c1.71.75,1.85,2.16,1.25,4.48C76.76,27.46,67.79,36.19,61.54,40.89c-4.1,3.1,5.29,2.69,7.82.66.67-.54,2.15-1.23,2.35-2.28,1.88-10.08,12.68-29.52,25.35-31,1.29-.16,2.48.48,2.68,2.49.49,5.24-2.33,8.2-4.8,12.39C90.55,30.55,84.88,35,79.41,40.67c-1,1-.75,3.73,2.17,4,1.24.13,2.43-.56,3.4-.64.18,7.29-11.45,11-13.12,3.28.08-2.62-.41-1.18-.73-.9-4.33,3.74-13,7.12-16.72.8-2.86.66-6.49,4.26-10.47,3.89-2.65-.26-5.27-.9-6.69-2.8-.51-.7-2.35.83-3.56.19-1.67-.89-1.18-1.83-.44-2.64s3.15-1,3.29-2.7c.64-6.89,5.28-13.45,12.14-15.14"/><path class="cls-2" d="M109,61.62c1.55-1.1,6.33-6.13,5.06-6s-6.29,3-7.81,5.17c-.51.73-.22,1.41.53,1.53a3.5,3.5,0,0,0,2.22-.72m19.5-30.71c-1.87.25-12.65,7.08-11.37,11.41a1.73,1.73,0,0,0,2.27.85c4.67-1.69,5.5-7.11,8.34-10.62.4-1,5-4.67,6.43-2.12,1.74,3-4.12,10.39-7.1,15.37-1,2.63,4.15-2.14,4.14-2.13,2.13,1.06-3.11,8.6-9.24,10.2-1.73.44-6.44,14-19.66,13.71-2.74-.06-3.24-3.7-2-6.08,3.42-6.33,12.5-9.78,16.88-11.11a7.71,7.71,0,0,0,1.83-2.11c.21-.7-.14-.42-.36-.33-11.83,5.32-12.62-7.08-4.33-12.74-2.35.24-4.2.15-5.81-.83-.47-.3-1.16,1.23-1.3,2.37-.9,7.28-8.73,17-16.6,14.67a6.21,6.21,0,0,1-4.1-5.26c-.83-8.35,5.91-15.87,14.13-17.2a2.58,2.58,0,0,1,3,1.79,16.22,16.22,0,0,0-8.22,8.32c-.61,1.39-1.75,5.35,1.28,4.74,4.69-.92,7-7.55,6.24-10.79l.06-1A29.6,29.6,0,0,1,106,30c1.75-.13,5.08,1.37,7.54,1.59,6.34.82,10.16-4.88,15.07-1.86.41.29.52,1.22.34,1.17l-.42,0"/><path class="cls-2" d="M183.62,50.76c.08-5.31-8.16-5.34-8.09,0-.09,5.34,8.12,5.3,8.09,0m-4.72-.41V49.3c.46.09,1.43-.2,1.47.5S179.38,50.29,178.9,50.35Zm0,.75h.43l1,1.82h1.09L180.33,51a1,1,0,0,0,1-1.11c.12-1.69-2.23-1.29-3.4-1.33v4.34h.93Zm3.54-.34a2.93,2.93,0,0,1-2.9,3.09h0c-3.79.07-3.77-6.22,0-6.17a2.92,2.92,0,0,1,2.88,3.09"/></g></g></svg>