<?xml version="1.0" encoding="UTF-8"?>
<!DOCTYPE svg PUBLIC "-//W3C//DTD SVG 1.1//EN" "http://www.w3.org/Graphics/SVG/1.1/DTD/svg11.dtd">
<!-- Creator: CorelDRAW 2021 (64-Bit) -->
<svg xmlns="http://www.w3.org/2000/svg" xml:space="preserve" width="2.82654in" height="0.819531in" version="1.1" style="shape-rendering:geometricPrecision; text-rendering:geometricPrecision; image-rendering:optimizeQuality; fill-rule:evenodd; clip-rule:evenodd"
viewBox="0 0 544.53 157.88"
 xmlns:xlink="http://www.w3.org/1999/xlink"
 xmlns:xodm="http://www.corel.com/coreldraw/odm/2003">
 <defs>
  <style type="text/css">
   <![CDATA[
    .str0 {stroke:#34302F;stroke-width:3.89;stroke-miterlimit:10}
    .fil1 {fill:none;fill-rule:nonzero}
    .fil2 {fill:#FEFEFE;fill-rule:nonzero}
    .fil4 {fill:#E2222F;fill-rule:nonzero}
    .fil3 {fill:#9C3638;fill-rule:nonzero}
    .fil0 {fill:#34302F;fill-rule:nonzero}
   ]]>
  </style>
 </defs>
 <g id="Layer_x0020_1">
  <metadata id="CorelCorpID_0Corel-Layer"/>
  <g id="_2343835278176">
   <path class="fil0" d="M167 41.61c0.24,-0.83 0.19,-1.4 -0.09,-1.73l-3.76 -4.87 -3.35 3.93 0.94 2.6c-3.31,1.91 -7.41,5.02 -11.12,8.63 -11.55,11.2 -23.6,28.01 -23.6,28.01 0,0 8.89,-25.19 11.97,-33.73 1.07,-2.89 1.12,-4.49 0.46,-5.11l-3.56 -4.7 -3.47 3.42 1.39 3.07c-1.42,0.92 -3,2.08 -4.71,3.42 -8.1,6.33 -19.03,21.27 -21.86,24.88 0.09,-0.19 0.65,-1.92 0.77,-2.13 0.98,-1.92 1.33,-4.13 1.43,-6.36 0.13,-3.02 -0.44,-7.41 -3.38,-11.14l-3.66 -4.85 -4.37 -0.72c-17.01,-6.16 -44.17,6.35 -36.61,22 6.86,14.12 21.84,9.63 27,7.16 1.38,-0.66 2.19,-1.16 2.19,-1.16l-2.28 -4.59c0,0 -1.65,0.54 -2.49,0.76 -6.44,1.73 -13.41,2 -14.79,-1.2 -1.43,-3.36 -0.57,-7.64 2.81,-11.55 6.11,-7.04 22.72,-11.01 22.63,6.75 -0.77,6.2 -2.51,14.08 -6.24,22.43 -2.29,5.06 -4.67,9.15 -6.81,12.34l-0.61 -0.53 -6.85 3.57 -3.88 1.41 3.65 4.75c2.46,-0.02 9.68,0.01 19.23,-8.71 9.11,-8.35 25.59,-34.33 25.59,-34.33 0,0 -6.9,20.91 -8.39,32.86l-3.19 2.78 3.72 4.91 0 -0.01c1.43,1.83 3.56,-0.9 13.08,-14.01 10.12,-13.99 20.74,-25.52 20.74,-25.52 0,0 -6.69,17.41 -7.26,26.46 -0.14,2.23 -0.11,4.37 0.19,6.28l-2 0.04 4.04 5.56c0.12,0.17 0.21,0.32 0.35,0.48l0.2 0.29 0.05 -0.01c4.2,4.56 12.16,2.53 13.57,2.14 1.69,-0.49 5.48,-3.1 7.96,-5.3l-0.04 0 -3.64 -4.76 -5.66 3.98c-0.56,-1.44 -0.44,-4.23 -0.44,-4.23 1.4,-18.08 12.86,-49.36 14.13,-53.68z"/>
   <path class="fil1 str0" d="M167 41.61c0.24,-0.83 0.19,-1.4 -0.09,-1.73l-3.76 -4.87 -3.35 3.93 0.94 2.6c-3.31,1.91 -7.41,5.02 -11.12,8.63 -11.55,11.2 -23.6,28.01 -23.6,28.01 0,0 8.89,-25.19 11.97,-33.73 1.07,-2.89 1.12,-4.49 0.46,-5.11l-3.56 -4.7 -3.47 3.42 1.39 3.07c-1.42,0.92 -3,2.08 -4.71,3.42 -8.1,6.33 -19.03,21.27 -21.86,24.88 0.09,-0.19 0.65,-1.92 0.77,-2.13 0.98,-1.92 1.33,-4.13 1.43,-6.36 0.13,-3.02 -0.44,-7.41 -3.38,-11.14l-3.66 -4.85 -4.37 -0.72c-17.01,-6.16 -44.17,6.35 -36.61,22 6.86,14.12 21.84,9.63 27,7.16 1.38,-0.66 2.19,-1.16 2.19,-1.16l-2.28 -4.59c0,0 -1.65,0.54 -2.49,0.76 -6.44,1.73 -13.41,2 -14.79,-1.2 -1.43,-3.36 -0.57,-7.64 2.81,-11.55 6.11,-7.04 22.72,-11.01 22.63,6.75 -0.77,6.2 -2.51,14.08 -6.24,22.43 -2.29,5.06 -4.67,9.15 -6.81,12.34l-0.61 -0.53 -6.85 3.57 -3.88 1.41 3.65 4.75c2.46,-0.02 9.68,0.01 19.23,-8.71 9.11,-8.35 25.59,-34.33 25.59,-34.33 0,0 -6.9,20.91 -8.39,32.86l-3.19 2.78 3.72 4.91 0 -0.01c1.43,1.83 3.56,-0.9 13.08,-14.01 10.12,-13.99 20.74,-25.52 20.74,-25.52 0,0 -6.69,17.41 -7.26,26.46 -0.14,2.23 -0.11,4.37 0.19,6.28l-2 0.04 4.04 5.56c0.12,0.17 0.21,0.32 0.35,0.48l0.2 0.29 0.05 -0.01c4.2,4.56 12.16,2.53 13.57,2.14 1.69,-0.49 5.48,-3.1 7.96,-5.3l-0.04 0 -3.64 -4.76 -5.66 3.98c-0.56,-1.44 -0.44,-4.23 -0.44,-4.23 1.4,-18.08 12.86,-49.36 14.13,-53.68z"/>
   <path class="fil0" d="M337.14 82.16c-0.56,2.79 -1.43,5.31 -2.58,7.6 -1.15,2.29 -2.64,4.47 -4.43,6.53 -1.64,1.91 -17.7,5.41 -17.7,2.61 0,-0.61 -0.09,-1.16 0.01,-1.71l0.14 -0.28 9.46 -19.6c0.02,-0.03 0.05,-0.04 0.07,-0.06l0.02 0c2.02,-1.01 5.03,-2.44 7.07,-2.86 1.12,-0.21 2.53,-0.42 3.53,-0.35 0.69,0.09 1.34,0.24 1.86,0.46 0.86,0.4 1.51,0.97 1.92,1.67 0.42,0.7 0.94,1.86 0.96,2.82 0.03,0.98 -0.1,2.04 -0.34,3.17zm-129.01 -4.39l-9.46 17.82c-1.34,0.93 -2.4,-2.51 -3.91,-1.86 -1.48,0.66 -4.26,2.4 -5.72,2.4 -1.45,0 -1.7,2.63 -2.57,2.25 -0.86,-0.42 -1.51,-0.98 -1.95,-1.71 -0.36,-0.64 -0.59,-1.48 -0.63,-2.47 -0.02,-0.99 0.08,-2.06 0.3,-3.2 0.54,-2.57 0.89,-3.73 2.15,-6.15 1.25,-2.42 2.73,-4.55 4.41,-6.38 1.76,-1.88 3.61,-3.37 5.57,-4.5 1.99,-1.12 3.99,-1.66 6.07,-1.69 1.36,-0.01 2.45,0.15 3.3,0.46 0.86,0.29 1.49,0.77 1.92,1.4 0.38,0.49 0.59,1.08 0.62,1.79 0.05,0.69 0.01,1.32 -0.1,1.83zm143.83 -6.09c-0.87,-0.9 -1.96,-1.55 -3.28,-1.97 -1.52,-0.7 -3.43,-1.18 -5.79,-1.16 -2.47,0 -4.67,0.25 -6.61,0.73 -0.82,0.2 -4.84,-1.58 -10.2,-0.18l2.44 -5.02 0.11 -0.21 5.98 -12.52 -3.63 -4.78 -6.06 4.78 -4.63 0 -20.64 37.11c-3.36,2.8 -17.34,10.64 -18.06,10.14 -0.71,-0.48 -1.39,-1.85 -1.1,-3.23 0.01,-0.08 0.05,-0.19 0.07,-0.29l13.3 -25 0.65 -1.3 -3.65 -4.74 -4.36 4.74 -6.54 0 -8.66 13.5c-3,5.84 -23.21,16.9 -23.91,16.42 -0.69,-0.45 -1.36,-1.67 -0.86,-2.89l22.9 -44.47 0 -0.02 -3.64 -4.76 -6.07 4.78 -4.83 0.04 -19 36.83c-0.49,0.72 -1.09,1.52 -1.84,2.39 -2.27,2.37 -3.41,0.56 -6.57,2.37 -1.89,1.01 -12.05,6.56 -12.53,4.42 -0.22,-0.49 -0.3,-1.14 -0.14,-1.95 0.07,-0.27 0.18,-0.63 0.34,-1.1l12.7 -24.73 0.45 -0.86 -3.68 -4.72 -5.58 4.74 -6.11 0.01 -1.35 2.62c-1.18,-0.82 -1.97,-1.44 -3.99,-1.92 -2.02,-0.49 -4.79,-3.14 -7.64,-3.12 -3.86,0.01 -9.46,1.42 -13.22,2.66 -3.76,1.24 -5.01,4.56 -8.06,6.67 -3.03,2.16 -5.59,4.63 -7.72,7.47 -2.13,2.84 -3.52,5.87 -4.19,9.08 -0.14,0.74 -0.24,1.5 -0.29,2.2l-2.15 1.86 3.79 4.86c0.03,0.02 0.04,0.04 0.06,0.07l0.32 0.4 0.01 0c0.14,0.17 0.25,0.33 0.4,0.48 2.27,2.4 6.17,3.59 11.64,3.57 1.78,0 3.42,-0.19 4.95,-0.55 1.54,-0.35 3.04,-0.78 4.46,-1.3 1.63,-0.6 2.99,-1.21 4.12,-1.79 1.06,-0.57 2.18,-1.16 3.36,-1.85l1.78 2.3 0.01 0c0.28,0.37 0.63,0.7 1.04,1.03 1.81,1.36 4.6,2.06 8.37,2.06l0.01 0 0.02 0c2.44,-0.02 5.24,-0.34 7.2,-0.75 6.75,-1.45 10.79,-3.55 13.79,-5.3 2.73,4.01 3.15,4.17 4.56,5.17 3.59,2.53 11.39,0.99 13.36,0.58 6.14,-1.3 11.69,-4.8 14.56,-6.31l2.78 3.57c0.08,0.13 0.17,0.25 0.26,0.36l0.14 0.2 0.04 0c0.24,0.25 0.51,0.53 0.85,0.79 1.79,1.37 4.58,2.05 8.36,2.03 2.45,-0.01 5.23,-0.32 7.21,-0.75 7.97,-1.67 11.67,-4.54 14.71,-6.46 1,1.22 2.9,2.54 4.28,3.36 1.78,1.09 3.72,1.91 5.87,2.47 1.68,0.48 3.65,0.8 5.86,0.98 2.25,0.16 3.92,0.25 5.09,0.24 4.82,-0.03 9.32,-0.64 13.49,-1.85 4.17,-1.19 7.9,-2.89 11.24,-5.09 3.12,-2.06 5.7,-4.55 7.73,-7.41 2.05,-2.93 3.4,-5.96 4.05,-9.14 0.86,-4.2 0.13,-8.21 -2.12,-10.59z"/>
   <path class="fil1 str0" d="M337.14 82.16c-0.56,2.79 -1.43,5.31 -2.58,7.6 -1.15,2.29 -2.64,4.47 -4.43,6.53 -1.64,1.91 -17.7,5.41 -17.7,2.61 0,-0.61 -0.09,-1.16 0.01,-1.71l0.14 -0.28 9.46 -19.6c0.02,-0.03 0.05,-0.04 0.07,-0.06l0.02 0c2.02,-1.01 5.03,-2.44 7.07,-2.86 1.12,-0.21 2.53,-0.42 3.53,-0.35 0.69,0.09 1.34,0.24 1.86,0.46 0.86,0.4 1.51,0.97 1.92,1.67 0.42,0.7 0.94,1.86 0.96,2.82 0.03,0.98 -0.1,2.04 -0.34,3.17zm-129.01 -4.39l-9.46 17.82c-1.34,0.93 -2.4,-2.51 -3.91,-1.86 -1.48,0.66 -4.26,2.4 -5.72,2.4 -1.45,0 -1.7,2.63 -2.57,2.25 -0.86,-0.42 -1.51,-0.98 -1.95,-1.71 -0.36,-0.64 -0.59,-1.48 -0.63,-2.47 -0.02,-0.99 0.08,-2.06 0.3,-3.2 0.54,-2.57 0.89,-3.73 2.15,-6.15 1.25,-2.42 2.73,-4.55 4.41,-6.38 1.76,-1.88 3.61,-3.37 5.57,-4.5 1.99,-1.12 3.99,-1.66 6.07,-1.69 1.36,-0.01 2.45,0.15 3.3,0.46 0.86,0.29 1.49,0.77 1.92,1.4 0.38,0.49 0.59,1.08 0.62,1.79 0.05,0.69 0.01,1.32 -0.1,1.83zm143.83 -6.09c-0.87,-0.9 -1.96,-1.55 -3.28,-1.97 -1.52,-0.7 -3.43,-1.18 -5.79,-1.16 -2.47,0 -4.67,0.25 -6.61,0.73 -0.82,0.2 -4.84,-1.58 -10.2,-0.18l2.44 -5.02 0.11 -0.21 5.98 -12.52 -3.63 -4.78 -6.06 4.78 -4.63 0 -20.64 37.11c-3.36,2.8 -17.34,10.64 -18.06,10.14 -0.71,-0.48 -1.39,-1.85 -1.1,-3.23 0.01,-0.08 0.05,-0.19 0.07,-0.29l13.3 -25 0.65 -1.3 -3.65 -4.74 -4.36 4.74 -6.54 0 -8.66 13.5c-3,5.84 -23.21,16.9 -23.91,16.42 -0.69,-0.45 -1.36,-1.67 -0.86,-2.89l22.9 -44.47 0 -0.02 -3.64 -4.76 -6.07 4.78 -4.83 0.04 -19 36.83c-0.49,0.72 -1.09,1.52 -1.84,2.39 -2.27,2.37 -3.41,0.56 -6.57,2.37 -1.89,1.01 -12.05,6.56 -12.53,4.42 -0.22,-0.49 -0.3,-1.14 -0.14,-1.95 0.07,-0.27 0.18,-0.63 0.34,-1.1l12.7 -24.73 0.45 -0.86 -3.68 -4.72 -5.58 4.74 -6.11 0.01 -1.35 2.62c-1.18,-0.82 -1.97,-1.44 -3.99,-1.92 -2.02,-0.49 -4.79,-3.14 -7.64,-3.12 -3.86,0.01 -9.46,1.42 -13.22,2.66 -3.76,1.24 -5.01,4.56 -8.06,6.67 -3.03,2.16 -5.59,4.63 -7.72,7.47 -2.13,2.84 -3.52,5.87 -4.19,9.08 -0.14,0.74 -0.24,1.5 -0.29,2.2l-2.15 1.86 3.79 4.86c0.03,0.02 0.04,0.04 0.06,0.07l0.32 0.4 0.01 0c0.14,0.17 0.25,0.33 0.4,0.48 2.27,2.4 6.17,3.59 11.64,3.57 1.78,0 3.42,-0.19 4.95,-0.55 1.54,-0.35 3.04,-0.78 4.46,-1.3 1.63,-0.6 2.99,-1.21 4.12,-1.79 1.06,-0.57 2.18,-1.16 3.36,-1.85l1.78 2.3 0.01 0c0.28,0.37 0.63,0.7 1.04,1.03 1.81,1.36 4.6,2.06 8.37,2.06l0.01 0 0.02 0c2.44,-0.02 5.24,-0.34 7.2,-0.75 6.75,-1.45 10.79,-3.55 13.79,-5.3 2.73,4.01 3.15,4.17 4.56,5.17 3.59,2.53 11.39,0.99 13.36,0.58 6.14,-1.3 11.69,-4.8 14.56,-6.31l2.78 3.57c0.08,0.13 0.17,0.25 0.26,0.36l0.14 0.2 0.04 0c0.24,0.25 0.51,0.53 0.85,0.79 1.79,1.37 4.58,2.05 8.36,2.03 2.45,-0.01 5.23,-0.32 7.21,-0.75 7.97,-1.67 11.67,-4.54 14.71,-6.46 1,1.22 2.9,2.54 4.28,3.36 1.78,1.09 3.72,1.91 5.87,2.47 1.68,0.48 3.65,0.8 5.86,0.98 2.25,0.16 3.92,0.25 5.09,0.24 4.82,-0.03 9.32,-0.64 13.49,-1.85 4.17,-1.19 7.9,-2.89 11.24,-5.09 3.12,-2.06 5.7,-4.55 7.73,-7.41 2.05,-2.93 3.4,-5.96 4.05,-9.14 0.86,-4.2 0.13,-8.21 -2.12,-10.59z"/>
   <path class="fil0" d="M205.69 72.75c-0.84,-0.31 -1.94,-0.47 -3.3,-0.47 -2.07,0.03 -4.07,0.56 -6.07,1.69 -1.96,1.13 -3.81,2.62 -5.57,4.5 -1.68,1.83 -3.16,3.96 -4.41,6.38 -1.26,2.42 -1.61,3.58 -2.15,6.15 -0.22,1.14 -0.32,2.21 -0.3,3.2 0.04,0.98 0.27,1.83 0.63,2.47 0.44,0.72 1.09,1.29 1.95,1.71 0.87,0.38 2.04,0.58 3.48,0.58 1.46,0 2.95,-0.35 4.45,-1 1.5,-0.65 2.94,-1.44 4.27,-2.38l9.46 -17.82c0.11,-0.52 0.15,-1.14 0.1,-1.83 -0.03,-0.71 -0.25,-1.3 -0.62,-1.79 -0.43,-0.62 -1.06,-1.1 -1.92,-1.4z"/>
   <path class="fil1 str0" d="M205.69 72.75c-0.84,-0.31 -1.94,-0.47 -3.3,-0.47 -2.07,0.03 -4.07,0.56 -6.07,1.69 -1.96,1.13 -3.81,2.62 -5.57,4.5 -1.68,1.83 -3.16,3.96 -4.41,6.38 -1.26,2.42 -1.61,3.58 -2.15,6.15 -0.22,1.14 -0.32,2.21 -0.3,3.2 0.04,0.98 0.27,1.83 0.63,2.47 0.44,0.72 1.09,1.29 1.95,1.71 0.87,0.38 2.04,0.58 3.48,0.58 1.46,0 2.95,-0.35 4.45,-1 1.5,-0.65 2.94,-1.44 4.27,-2.38l9.46 -17.82c0.11,-0.52 0.15,-1.14 0.1,-1.83 -0.03,-0.71 -0.25,-1.3 -0.62,-1.79 -0.43,-0.62 -1.06,-1.1 -1.92,-1.4z"/>
   <polygon class="fil0" points="323.43,74.49 323.14,75.17 328.51,64.08 "/>
   <polygon class="fil1 str0" points="323.43,74.49 323.14,75.17 328.51,64.08 "/>
   <path class="fil0" d="M322.05 77.31l-9.46 19.6 9.53 -19.66c-0.01,0.02 -0.05,0.03 -0.07,0.06z"/>
   <path class="fil1 str0" d="M322.05 77.31l-9.46 19.6 9.53 -19.66c-0.01,0.02 -0.05,0.03 -0.07,0.06z"/>
   <path class="fil0" d="M395.96 72.48c-0.84,-0.32 -1.93,-0.48 -3.31,-0.48 -2.06,0.01 -4.08,0.59 -6.06,1.7 -1.98,1.12 -3.83,2.61 -5.55,4.5 -1.71,1.83 -3.18,3.96 -4.4,6.39 -1.28,2.42 -1.65,3.59 -2.15,6.13 -0.24,1.16 -0.35,2.21 -0.34,3.2 0.06,1 0.27,1.81 0.66,2.5 0.41,0.7 1.05,1.28 1.94,1.67 0.87,0.4 2.03,0.61 3.49,0.61 1.47,-0.02 2.95,-0.34 4.45,-0.99 1.5,-0.66 2.9,-1.45 4.27,-2.38l9.46 -17.84c0.09,-0.49 0.13,-1.13 0.09,-1.81 -0.06,-0.7 -0.25,-1.3 -0.63,-1.78 -0.46,-0.61 -1.06,-1.1 -1.91,-1.41z"/>
   <path class="fil1 str0" d="M395.96 72.48c-0.84,-0.32 -1.93,-0.48 -3.31,-0.48 -2.06,0.01 -4.08,0.59 -6.06,1.7 -1.98,1.12 -3.83,2.61 -5.55,4.5 -1.71,1.83 -3.18,3.96 -4.4,6.39 -1.28,2.42 -1.65,3.59 -2.15,6.13 -0.24,1.16 -0.35,2.21 -0.34,3.2 0.06,1 0.27,1.81 0.66,2.5 0.41,0.7 1.05,1.28 1.94,1.67 0.87,0.4 2.03,0.61 3.49,0.61 1.47,-0.02 2.95,-0.34 4.45,-0.99 1.5,-0.66 2.9,-1.45 4.27,-2.38l9.46 -17.84c0.09,-0.49 0.13,-1.13 0.09,-1.81 -0.06,-0.7 -0.25,-1.3 -0.63,-1.78 -0.46,-0.61 -1.06,-1.1 -1.91,-1.41z"/>
   <path class="fil0" d="M299.33 53.69l0.01 0 -3.5 -4.54 -5.43 1.89c-1.84,0.27 -3.53,0.84 -5.11,1.81l-6.59 3.31 3.42 4.08c0.34,0.51 0.83,0.98 1.43,1.45 1.56,1.24 3.62,1.86 6.19,1.85 2.55,-0.02 4.73,-0.36 6.8,-1.61 2.06,-1.26 3.3,-2.77 3.66,-4.54 0.27,-1.4 0,-2.62 -0.88,-3.7z"/>
   <path class="fil1 str0" d="M299.33 53.69l0.01 0 -3.5 -4.54 -5.43 1.89c-1.84,0.27 -3.53,0.84 -5.11,1.81l-6.59 3.31 3.42 4.08c0.34,0.51 0.83,0.98 1.43,1.45 1.56,1.24 3.62,1.86 6.19,1.85 2.55,-0.02 4.73,-0.36 6.8,-1.61 2.06,-1.26 3.3,-2.77 3.66,-4.54 0.27,-1.4 0,-2.62 -0.88,-3.7z"/>
   <path class="fil0" d="M398.41 77.48l-4.55 9.96c-1.34,0.96 -16.25,10.29 -17.12,9.88 -0.88,-0.41 -1.52,-0.97 -1.94,-1.68 -0.39,-0.67 -0.6,-0.72 -0.66,-1.72 -0.01,-0.99 0.1,-2.05 0.34,-3.2 0.5,-2.54 0.87,-3.71 2.15,-6.13 1.22,-2.42 2.7,-4.56 4.4,-6.39 1.73,-1.88 3.57,-3.38 5.56,-4.5 1.98,-1.12 4,-1.69 6.06,-1.7 1.38,0 2.47,0.16 3.31,0.48 0.85,0.31 1.46,0.8 1.92,1.41 0.38,0.48 0.58,1.09 0.63,1.78 0.03,0.68 0,1.32 -0.09,1.81zm80.94 21.12c-0.05,0.02 -0.11,0.05 -0.17,0.05l-3.59 -4.7 -7.13 3.13c0.02,-0.29 0.06,-0.59 0.12,-0.95 0.14,-0.54 0.41,-1.33 0.88,-2.4 0.46,-1.08 0.95,-2.01 1.43,-2.84l5.68 -9.91c0.64,-1.13 1.11,-2.16 1.42,-3.17 0.32,-0.96 0.53,-1.73 0.62,-2.27 0.38,-1.8 -0.05,-3.36 -1.3,-4.67l-3.49 -4.6 -3.24 -0.27 -2.77 1.09 0.42 1.14c-4.58,0.12 -17.51,1.09 -17.51,1.09l0.22 -0.41 0.02 0 -0.02 -0.03 0.07 -0.1 -0.14 0 -3.53 -4.61 -5.96 4.65 -4.94 0.03 -8.94 17.19c-2.91,3.39 -8.4,7.76 -15.47,8.37 -0.48,0.04 -3.96,1.94 -4.4,1.94 -1.27,-0.01 -1.17,2.02 -1.7,1.65 -0.27,-0.16 -0.54,-0.48 -0.75,-0.87 -0.23,-0.5 -0.27,-1.16 -0.13,-1.95 0.05,-0.29 0.19,-0.67 0.35,-1.09l12.72 -24.74 0.26 -0.54 -0.05 0 0.03 0 -3.67 -4.74 -4.03 4.74 -7.65 0.03 -1.2 2.3c-1.19,-0.82 -1.96,-1.44 -3.98,-1.92 -2.03,-0.49 -4.46,-2.85 -7.3,-2.84 -3.89,0.02 -8.05,1.05 -11.8,2.3 -3.76,1.26 -6.8,4.66 -9.85,6.76 -3.01,2.15 -5.58,4.63 -7.71,7.48 -2.13,2.83 -3.5,5.84 -4.16,9.07 -0.26,1.18 -0.36,2.28 -0.35,3.33l-1.87 1.03 3.4 4.37c0.28,0.39 0.57,0.79 0.92,1.14 2.28,2.39 6.15,3.58 11.63,3.57 1.77,0 3.42,-0.19 4.96,-0.54 1.52,-0.34 3.03,-0.8 4.45,-1.3 1.63,-0.61 3.01,-1.21 4.12,-1.8 1.07,-0.56 2.19,-1.19 3.37,-1.83l1.51 1.9c0.33,0.52 0.76,0.98 1.34,1.4 1.78,1.38 4.56,2.07 8.35,2.06l0.01 0 0.02 0c2.46,-0.02 5.25,-0.34 7.22,-0.76 3.4,-0.71 6.51,-2.3 9.17,-3.99l2.79 3.6 14.68 0 13.19 -25.55c2.81,-1.71 5.27,-2.86 7.38,-3.51 2.15,-0.64 3.77,-0.98 4.85,-0.98 1.73,0 2.92,0.31 3.52,0.96 0.6,0.59 0.78,1.49 0.54,2.64 -0.09,0.51 -0.32,1.18 -0.65,2 -0.35,0.8 -0.81,1.71 -1.36,2.73l-5.35 9.41c-0.63,1.18 -1.06,2.16 -1.33,2.98l-0.35 -0.17 -3.2 1.89 3.59 4.68 0.02 0c0.33,0.48 0.76,0.92 1.27,1.34 1.81,1.39 4.57,2.09 8.32,2.07 2.45,-0.02 4.64,-0.27 6.59,-0.75 1.93,-0.49 6.41,-3.02 9.44,-5.19l0.03 -0.02c0.02,-0.04 0.08,-0.06 0.11,-0.11z"/>
   <path class="fil1 str0" d="M398.41 77.48l-4.55 9.96c-1.34,0.96 -16.25,10.29 -17.12,9.88 -0.88,-0.41 -1.52,-0.97 -1.94,-1.68 -0.39,-0.67 -0.6,-0.72 -0.66,-1.72 -0.01,-0.99 0.1,-2.05 0.34,-3.2 0.5,-2.54 0.87,-3.71 2.15,-6.13 1.22,-2.42 2.7,-4.56 4.4,-6.39 1.73,-1.88 3.57,-3.38 5.56,-4.5 1.98,-1.12 4,-1.69 6.06,-1.7 1.38,0 2.47,0.16 3.31,0.48 0.85,0.31 1.46,0.8 1.92,1.41 0.38,0.48 0.58,1.09 0.63,1.78 0.03,0.68 0,1.32 -0.09,1.81zm80.94 21.12c-0.05,0.02 -0.11,0.05 -0.17,0.05l-3.59 -4.7 -7.13 3.13c0.02,-0.29 0.06,-0.59 0.12,-0.95 0.14,-0.54 0.41,-1.33 0.88,-2.4 0.46,-1.08 0.95,-2.01 1.43,-2.84l5.68 -9.91c0.64,-1.13 1.11,-2.16 1.42,-3.17 0.32,-0.96 0.53,-1.73 0.62,-2.27 0.38,-1.8 -0.05,-3.36 -1.3,-4.67l-3.49 -4.6 -3.24 -0.27 -2.77 1.09 0.42 1.14c-4.58,0.12 -17.51,1.09 -17.51,1.09l0.22 -0.41 0.02 0 -0.02 -0.03 0.07 -0.1 -0.14 0 -3.53 -4.61 -5.96 4.65 -4.94 0.03 -8.94 17.19c-2.91,3.39 -8.4,7.76 -15.47,8.37 -0.48,0.04 -3.96,1.94 -4.4,1.94 -1.27,-0.01 -1.17,2.02 -1.7,1.65 -0.27,-0.16 -0.54,-0.48 -0.75,-0.87 -0.23,-0.5 -0.27,-1.16 -0.13,-1.95 0.05,-0.29 0.19,-0.67 0.35,-1.09l12.72 -24.74 0.26 -0.54 -0.05 0 0.03 0 -3.67 -4.74 -4.03 4.74 -7.65 0.03 -1.2 2.3c-1.19,-0.82 -1.96,-1.44 -3.98,-1.92 -2.03,-0.49 -4.46,-2.85 -7.3,-2.84 -3.89,0.02 -8.05,1.05 -11.8,2.3 -3.76,1.26 -6.8,4.66 -9.85,6.76 -3.01,2.15 -5.58,4.63 -7.71,7.48 -2.13,2.83 -3.5,5.84 -4.16,9.07 -0.26,1.18 -0.36,2.28 -0.35,3.33l-1.87 1.03 3.4 4.37c0.28,0.39 0.57,0.79 0.92,1.14 2.28,2.39 6.15,3.58 11.63,3.57 1.77,0 3.42,-0.19 4.96,-0.54 1.52,-0.34 3.03,-0.8 4.45,-1.3 1.63,-0.61 3.01,-1.21 4.12,-1.8 1.07,-0.56 2.19,-1.19 3.37,-1.83l1.51 1.9c0.33,0.52 0.76,0.98 1.34,1.4 1.78,1.38 4.56,2.07 8.35,2.06l0.01 0 0.02 0c2.46,-0.02 5.25,-0.34 7.22,-0.76 3.4,-0.71 6.51,-2.3 9.17,-3.99l2.79 3.6 14.68 0 13.19 -25.55c2.81,-1.71 5.27,-2.86 7.38,-3.51 2.15,-0.64 3.77,-0.98 4.85,-0.98 1.73,0 2.92,0.31 3.52,0.96 0.6,0.59 0.78,1.49 0.54,2.64 -0.09,0.51 -0.32,1.18 -0.65,2 -0.35,0.8 -0.81,1.71 -1.36,2.73l-5.35 9.41c-0.63,1.18 -1.06,2.16 -1.33,2.98l-0.35 -0.17 -3.2 1.89 3.59 4.68 0.02 0c0.33,0.48 0.76,0.92 1.27,1.34 1.81,1.39 4.57,2.09 8.32,2.07 2.45,-0.02 4.64,-0.27 6.59,-0.75 1.93,-0.49 6.41,-3.02 9.44,-5.19l0.03 -0.02c0.02,-0.04 0.08,-0.06 0.11,-0.11z"/>
   <path class="fil0" d="M202.03 67.99c-0.84,-0.32 -1.93,-0.46 -3.28,-0.45 -2.07,0 -4.09,0.55 -6.08,1.69 -1.96,1.1 -3.82,2.6 -5.56,4.47 -1.69,1.85 -3.17,3.99 -4.41,6.4 -1.26,2.43 -1.63,3.57 -2.15,6.13 -0.23,1.16 -0.34,2.22 -0.3,3.2 0.02,1 0.24,1.83 0.64,2.48 0.4,0.74 1.06,1.29 1.93,1.7 0.87,0.39 2.03,0.6 3.49,0.58 1.46,0 2.96,-0.33 4.44,-0.97 1.51,-0.66 2.92,-1.46 4.28,-2.4l9.46 -17.83c0.12,-0.51 0.14,-1.1 0.1,-1.81 -0.03,-0.72 -0.26,-1.3 -0.62,-1.8 -0.44,-0.6 -1.09,-1.08 -1.94,-1.4z"/>
   <path class="fil1 str0" d="M202.03 67.99c-0.84,-0.32 -1.93,-0.46 -3.28,-0.45 -2.07,0 -4.09,0.55 -6.08,1.69 -1.96,1.1 -3.82,2.6 -5.56,4.47 -1.69,1.85 -3.17,3.99 -4.41,6.4 -1.26,2.43 -1.63,3.57 -2.15,6.13 -0.23,1.16 -0.34,2.22 -0.3,3.2 0.02,1 0.24,1.83 0.64,2.48 0.4,0.74 1.06,1.29 1.93,1.7 0.87,0.39 2.03,0.6 3.49,0.58 1.46,0 2.96,-0.33 4.44,-0.97 1.51,-0.66 2.92,-1.46 4.28,-2.4l9.46 -17.83c0.12,-0.51 0.14,-1.1 0.1,-1.81 -0.03,-0.72 -0.26,-1.3 -0.62,-1.8 -0.44,-0.6 -1.09,-1.08 -1.94,-1.4z"/>
   <polygon class="fil0" points="319.79,69.74 319.48,70.42 324.87,59.33 "/>
   <polygon class="fil1 str0" points="319.79,69.74 319.48,70.42 324.87,59.33 "/>
   <path class="fil0" d="M318.4 72.54l-9.47 19.62 9.54 -19.65c-0.03,0 -0.06,0.03 -0.07,0.03z"/>
   <path class="fil1 str0" d="M318.4 72.54l-9.47 19.62 9.54 -19.65c-0.03,0 -0.06,0.03 -0.07,0.03z"/>
   <path class="fil0" d="M392.31 67.72c-0.84,-0.33 -1.94,-0.45 -3.29,-0.45 -2.09,0 -4.09,0.56 -6.08,1.69 -1.98,1.12 -3.83,2.61 -5.53,4.45 -1.73,1.85 -3.19,3.98 -4.43,6.41 -1.27,2.42 -1.63,3.58 -2.14,6.13 -0.23,1.15 -0.36,2.22 -0.33,3.2 0.04,1 0.23,1.83 0.65,2.49 0.42,0.72 1.05,1.28 1.94,1.69 0.85,0.39 2.02,0.58 3.47,0.58 1.47,0 2.97,-0.32 4.46,-0.98 1.5,-0.66 2.92,-1.45 4.28,-2.39l9.45 -17.83c0.11,-0.49 0.15,-1.11 0.11,-1.83 -0.06,-0.69 -0.27,-1.27 -0.63,-1.78 -0.46,-0.62 -1.09,-1.08 -1.92,-1.4z"/>
   <path class="fil1 str0" d="M392.31 67.72c-0.84,-0.33 -1.94,-0.45 -3.29,-0.45 -2.09,0 -4.09,0.56 -6.08,1.69 -1.98,1.12 -3.83,2.61 -5.53,4.45 -1.73,1.85 -3.19,3.98 -4.43,6.41 -1.27,2.42 -1.63,3.58 -2.14,6.13 -0.23,1.15 -0.36,2.22 -0.33,3.2 0.04,1 0.23,1.83 0.65,2.49 0.42,0.72 1.05,1.28 1.94,1.69 0.85,0.39 2.02,0.58 3.47,0.58 1.47,0 2.97,-0.32 4.46,-0.98 1.5,-0.66 2.92,-1.45 4.28,-2.39l9.45 -17.83c0.11,-0.49 0.15,-1.11 0.11,-1.83 -0.06,-0.69 -0.27,-1.27 -0.63,-1.78 -0.46,-0.62 -1.09,-1.08 -1.92,-1.4z"/>
   <path class="fil0" d="M279.78 57.24c1.57,1.24 3.63,1.85 6.19,1.85 2.55,-0.02 4.86,-0.65 6.91,-1.92 2.09,-1.25 3.31,-2.75 3.67,-4.54 0.36,-1.8 -0.22,-3.32 -1.79,-4.59 -1.54,-1.25 -3.59,-1.87 -6.15,-1.87 -2.55,0.02 -4.87,0.66 -6.96,1.93 -2.08,1.28 -3.32,2.81 -3.67,4.62 -0.4,1.77 0.23,3.28 1.8,4.53z"/>
   <path class="fil1 str0" d="M279.78 57.24c1.57,1.24 3.63,1.85 6.19,1.85 2.55,-0.02 4.86,-0.65 6.91,-1.92 2.09,-1.25 3.31,-2.75 3.67,-4.54 0.36,-1.8 -0.22,-3.32 -1.79,-4.59 -1.54,-1.25 -3.59,-1.87 -6.15,-1.87 -2.55,0.02 -4.87,0.66 -6.96,1.93 -2.08,1.28 -3.32,2.81 -3.67,4.62 -0.4,1.77 0.23,3.28 1.8,4.53z"/>
   <path class="fil0" d="M394.75 72.72l-9.45 17.83c-1.36,0.94 -2.78,1.73 -4.28,2.39 -1.48,0.66 -2.99,0.98 -4.46,0.98 -1.45,0 -2.62,-0.19 -3.47,-0.58 -0.9,-0.41 -1.52,-0.98 -1.94,-1.69 -0.42,-0.66 -0.61,-1.49 -0.65,-2.49 -0.03,-0.98 0.09,-2.05 0.33,-3.2 0.51,-2.55 0.87,-3.71 2.14,-6.13 1.23,-2.42 2.7,-4.56 4.43,-6.41 1.71,-1.85 3.55,-3.33 5.53,-4.45 1.98,-1.13 3.99,-1.69 6.08,-1.69 1.35,0 2.46,0.12 3.29,0.44 0.84,0.31 1.47,0.78 1.92,1.4 0.36,0.5 0.56,1.09 0.63,1.78 0.04,0.72 0,1.34 -0.11,1.82zm71.04 16.25c0.49,-1.09 0.95,-2.03 1.46,-2.83l5.65 -9.93c0.64,-1.11 1.12,-2.15 1.43,-3.12 0.31,-0.98 0.52,-1.74 0.64,-2.29 0.42,-2.05 -0.21,-3.79 -1.9,-5.22 -1.67,-1.43 -4.25,-2.14 -7.79,-2.12 -3.7,0 -7.34,0.62 -10.87,1.78 -3.22,1.06 -6.75,2.62 -10,4.5l2.64 -5.18 0.28 -0.53 -14.57 0.04 -8.93 17.23c-2.91,3.36 -10.35,11.89 -17.38,12.5 -0.52,0.03 -0.96,0.06 -1.42,0.05 -1.26,-0.03 -2.25,-0.26 -2.79,-0.64 -0.25,-0.17 -0.5,-0.46 -0.73,-0.84 -0.22,-0.51 -0.29,-1.15 -0.13,-1.94 0.07,-0.28 0.18,-0.64 0.35,-1.1l12.7 -24.73 0.28 -0.56 -15.35 0.03 -1.22 2.33c-1.17,-0.83 -1.96,-1.47 -3.97,-1.93 -2.03,-0.5 -4.45,-0.74 -7.3,-0.72 -3.86,0.02 -7.69,0.63 -11.45,1.9 -3.74,1.25 -7.14,2.93 -10.18,5.05 -3.03,2.14 -5.6,4.61 -7.72,7.46 -2.12,2.82 -3.52,5.85 -4.19,9.08 -0.86,4.19 -0.15,7.46 2.13,9.84 2.28,2.42 6.15,3.6 11.63,3.58 1.77,-0.02 3.43,-0.2 4.97,-0.56 1.54,-0.33 3.03,-0.77 4.45,-1.28 1.63,-0.6 3.02,-1.21 4.12,-1.8 1.11,-0.6 2.29,-1.24 3.53,-1.93l0.4 0c0.07,0.29 0.19,0.55 0.35,0.82 0,0.08 0.04,0.15 0.08,0.23 0,0 0.01,0.05 0.01,0.08 0.36,0.84 0.95,1.62 1.82,2.28 1.82,1.37 4.59,2.07 8.36,2.04l0.02 0 0.01 0c2.46,0 5.23,-0.31 7.22,-0.73 7.38,-1.56 11.73,-3.87 14.75,-5.73l-2.8 5.38 14.76 -0.05 13.13 -25.55c2.8,-1.69 5.26,-2.85 7.38,-3.49 2.14,-0.65 3.76,-0.98 4.83,-0.98 1.76,-0.02 2.94,0.32 3.54,0.94 0.61,0.63 0.77,1.51 0.56,2.65 -0.12,0.54 -0.33,1.19 -0.68,2.01 -0.33,0.82 -0.81,1.71 -1.36,2.73l-5.36 9.42c-0.68,1.32 -1.2,2.43 -1.46,3.3 -0.24,0.87 -0.45,1.6 -0.56,2.19 -0.42,2.06 0.25,3.81 2.02,5.23 1.79,1.37 4.59,2.07 8.31,2.06 2.45,-0.03 4.65,-0.26 6.61,-0.76 1.96,-0.49 6.58,-3.09 9.6,-5.3 -0.58,0.17 -1.48,0.4 -2.75,0.67 -1.25,0.28 -2.36,0.38 -3.3,0.39 -2.03,0.02 -3.39,-0.24 -4.11,-0.73 -0.68,-0.49 -0.91,-1.42 -0.63,-2.75 0.11,-0.59 0.41,-1.36 0.87,-2.44z"/>
   <path class="fil1 str0" d="M394.75 72.72l-9.45 17.83c-1.36,0.94 -2.78,1.73 -4.28,2.39 -1.48,0.66 -2.99,0.98 -4.46,0.98 -1.45,0 -2.62,-0.19 -3.47,-0.58 -0.9,-0.41 -1.52,-0.98 -1.94,-1.69 -0.42,-0.66 -0.61,-1.49 -0.65,-2.49 -0.03,-0.98 0.09,-2.05 0.33,-3.2 0.51,-2.55 0.87,-3.71 2.14,-6.13 1.23,-2.42 2.7,-4.56 4.43,-6.41 1.71,-1.85 3.55,-3.33 5.53,-4.45 1.98,-1.13 3.99,-1.69 6.08,-1.69 1.35,0 2.46,0.12 3.29,0.44 0.84,0.31 1.47,0.78 1.92,1.4 0.36,0.5 0.56,1.09 0.63,1.78 0.04,0.72 0,1.34 -0.11,1.82zm71.04 16.25c0.49,-1.09 0.95,-2.03 1.46,-2.83l5.65 -9.93c0.64,-1.11 1.12,-2.15 1.43,-3.12 0.31,-0.98 0.52,-1.74 0.64,-2.29 0.42,-2.05 -0.21,-3.79 -1.9,-5.22 -1.67,-1.43 -4.25,-2.14 -7.79,-2.12 -3.7,0 -7.34,0.62 -10.87,1.78 -3.22,1.06 -6.75,2.62 -10,4.5l2.64 -5.18 0.28 -0.53 -14.57 0.04 -8.93 17.23c-2.91,3.36 -10.35,11.89 -17.38,12.5 -0.52,0.03 -0.96,0.06 -1.42,0.05 -1.26,-0.03 -2.25,-0.26 -2.79,-0.64 -0.25,-0.17 -0.5,-0.46 -0.73,-0.84 -0.22,-0.51 -0.29,-1.15 -0.13,-1.94 0.07,-0.28 0.18,-0.64 0.35,-1.1l12.7 -24.73 0.28 -0.56 -15.35 0.03 -1.22 2.33c-1.17,-0.83 -1.96,-1.47 -3.97,-1.93 -2.03,-0.5 -4.45,-0.74 -7.3,-0.72 -3.86,0.02 -7.69,0.63 -11.45,1.9 -3.74,1.25 -7.14,2.93 -10.18,5.05 -3.03,2.14 -5.6,4.61 -7.72,7.46 -2.12,2.82 -3.52,5.85 -4.19,9.08 -0.86,4.19 -0.15,7.46 2.13,9.84 2.28,2.42 6.15,3.6 11.63,3.58 1.77,-0.02 3.43,-0.2 4.97,-0.56 1.54,-0.33 3.03,-0.77 4.45,-1.28 1.63,-0.6 3.02,-1.21 4.12,-1.8 1.11,-0.6 2.29,-1.24 3.53,-1.93l0.4 0c0.07,0.29 0.19,0.55 0.35,0.82 0,0.08 0.04,0.15 0.08,0.23 0,0 0.01,0.05 0.01,0.08 0.36,0.84 0.95,1.62 1.82,2.28 1.82,1.37 4.59,2.07 8.36,2.04l0.02 0 0.01 0c2.46,0 5.23,-0.31 7.22,-0.73 7.38,-1.56 11.73,-3.87 14.75,-5.73l-2.8 5.38 14.76 -0.05 13.13 -25.55c2.8,-1.69 5.26,-2.85 7.38,-3.49 2.14,-0.65 3.76,-0.98 4.83,-0.98 1.76,-0.02 2.94,0.32 3.54,0.94 0.61,0.63 0.77,1.51 0.56,2.65 -0.12,0.54 -0.33,1.19 -0.68,2.01 -0.33,0.82 -0.81,1.71 -1.36,2.73l-5.36 9.42c-0.68,1.32 -1.2,2.43 -1.46,3.3 -0.24,0.87 -0.45,1.6 -0.56,2.19 -0.42,2.06 0.25,3.81 2.02,5.23 1.79,1.37 4.59,2.07 8.31,2.06 2.45,-0.03 4.65,-0.26 6.61,-0.76 1.96,-0.49 6.58,-3.09 9.6,-5.3 -0.58,0.17 -1.48,0.4 -2.75,0.67 -1.25,0.28 -2.36,0.38 -3.3,0.39 -2.03,0.02 -3.39,-0.24 -4.11,-0.73 -0.68,-0.49 -0.91,-1.42 -0.63,-2.75 0.11,-0.59 0.41,-1.36 0.87,-2.44z"/>
   <path class="fil0" d="M204.49 73l-9.45 17.83c-1.36,0.94 -2.77,1.74 -4.28,2.4 -1.49,0.64 -2.98,0.97 -4.44,0.97 -1.46,0.02 -2.61,-0.19 -3.49,-0.58 -0.87,-0.41 -1.53,-0.96 -1.93,-1.7 -0.4,-0.65 -0.62,-1.47 -0.64,-2.48 -0.04,-0.97 0.08,-2.04 0.3,-3.2 0.52,-2.56 0.88,-3.7 2.15,-6.13 1.24,-2.41 2.72,-4.55 4.41,-6.4 1.75,-1.87 3.6,-3.37 5.56,-4.47 1.99,-1.14 4.01,-1.69 6.08,-1.69 1.35,-0.01 2.44,0.13 3.28,0.45 0.85,0.32 1.5,0.79 1.94,1.4 0.36,0.5 0.59,1.08 0.62,1.8 0.04,0.71 0.02,1.3 -0.1,1.81zm143.83 -6.09c-1.34,-1.31 -11.47,-8.35 -25.52,3.4 0.59,-0.18 1.5,-0.41 2.76,-0.65 1.11,-0.24 2.56,-0.43 3.52,-0.38 0.7,0.1 1.33,0.24 1.86,0.48 0.86,0.38 1.52,0.94 1.92,1.64 0.41,0.74 0.93,1.88 0.98,2.86 0.01,0.96 -0.1,2.02 -0.32,3.15 -0.59,2.79 -1.45,5.32 -2.61,7.62 -1.16,2.25 -2.62,4.44 -4.43,6.52 -1.63,1.91 -3.52,3.47 -5.61,4.68 -2.11,1.18 -4.25,1.78 -6.33,1.8 -1.43,0 -2.46,-0.17 -3.13,-0.53 -0.67,-0.37 -1.27,-0.87 -1.76,-1.52 -0.47,-0.62 -0.78,-1.23 -0.86,-1.82 -0.13,-0.58 -0.11,-1.16 0,-1.69l0.14 -0.29c0,0 9.51,-19.65 9.54,-19.65l12.5 -25.93 -14.36 0 -21.27 41.29c-3.35,2.82 -8.21,6.12 -13.22,6.56 -1.99,0.18 -3.45,-0.08 -4.19,-0.58 -0.72,-0.49 -1.4,-1.85 -1.11,-3.25 0.02,-0.08 0.07,-0.18 0.07,-0.29l13.29 -24.99 0.66 -1.28 -14.55 0 -10.48 19.69c-0.66,1.05 -9.65,10.1 -17.91,10.79 -1.99,0.16 -3.48,-0.07 -4.19,-0.56 -0.69,-0.46 -1.35,-1.69 -0.85,-2.91l22.91 -44.47 -14.55 0.02 -19 36.89c-0.49,0.71 -1.12,1.52 -1.84,2.38 -2.26,2.37 -5.2,4.34 -8.37,6.16 -1.89,1.03 -8.92,4.59 -10.73,0.63 -0.23,-0.49 -0.3,-1.14 -0.14,-1.93 0.08,-0.31 0.18,-0.67 0.35,-1.1l12.71 -24.75 0.43 -0.86 -15.37 0.04 -1.34 2.6c-1.18,-0.8 -1.96,-1.41 -3.98,-1.91 -2.01,-0.48 -4.44,-0.7 -7.29,-0.69 -3.88,0 -7.68,0.63 -11.45,1.88 -3.75,1.25 -7.15,2.93 -10.18,5.04 -3.04,2.15 -5.6,4.64 -7.73,7.47 -2.13,2.81 -3.52,5.85 -4.2,9.08 -0.85,4.16 -0.15,7.46 2.12,9.85 2.29,2.4 6.17,3.59 11.65,3.55 1.77,0 3.42,-0.17 4.95,-0.53 1.54,-0.37 3.03,-0.79 4.44,-1.3 1.66,-0.6 3.04,-1.21 4.14,-1.78 1.12,-0.6 2.29,-1.24 3.54,-1.94l0.38 0c0.09,0.28 0.21,0.54 0.36,0.82 0.02,0.07 0.05,0.13 0.07,0.23 0.02,0.01 0.03,0.04 0.04,0.05 0.32,0.87 0.93,1.63 1.81,2.3 1.81,1.39 4.6,2.09 8.37,2.07l0.01 0 0.01 0c2.45,-0 5.23,-0.34 7.22,-0.74 6.76,-1.44 12.72,-4.2 15.7,-5.94 0.11,1.41 1.2,4.24 3.2,5.73 3.49,2.63 10.83,1.05 12.8,0.64 9.08,-1.92 13.59,-4.97 16.65,-6.92 -0.03,0.08 -0.07,0.18 -0.08,0.27 -0.45,2.11 0.24,3.87 2.04,5.26 1.82,1.36 4.6,2.05 8.37,2.03 2.48,-0.02 5.26,-0.31 7.24,-0.75 7.95,-1.69 12.42,-4.23 15.44,-6.16 0.99,1.2 2.17,2.26 3.53,3.07 1.79,1.06 3.73,1.89 5.88,2.45 1.69,0.47 3.65,0.79 5.86,0.98 2.25,0.17 3.94,0.27 5.1,0.24 4.81,-0.01 9.31,-0.63 13.49,-1.82 4.16,-1.21 7.91,-2.91 11.22,-5.1 3.11,-2.08 5.7,-4.57 7.74,-7.45 2.05,-2.9 3.37,-5.91 4.04,-9.11 0.86,-4.17 0.22,-8.26 -2.1,-10.6z"/>
   <path class="fil1 str0" d="M204.49 73l-9.45 17.83c-1.36,0.94 -2.77,1.74 -4.28,2.4 -1.49,0.64 -2.98,0.97 -4.44,0.97 -1.46,0.02 -2.61,-0.19 -3.49,-0.58 -0.87,-0.41 -1.53,-0.96 -1.93,-1.7 -0.4,-0.65 -0.62,-1.47 -0.64,-2.48 -0.04,-0.97 0.08,-2.04 0.3,-3.2 0.52,-2.56 0.88,-3.7 2.15,-6.13 1.24,-2.41 2.72,-4.55 4.41,-6.4 1.75,-1.87 3.6,-3.37 5.56,-4.47 1.99,-1.14 4.01,-1.69 6.08,-1.69 1.35,-0.01 2.44,0.13 3.28,0.45 0.85,0.32 1.5,0.79 1.94,1.4 0.36,0.5 0.59,1.08 0.62,1.8 0.04,0.71 0.02,1.3 -0.1,1.81zm143.83 -6.09c-1.34,-1.31 -11.47,-8.35 -25.52,3.4 0.59,-0.18 1.5,-0.41 2.76,-0.65 1.11,-0.24 2.56,-0.43 3.52,-0.38 0.7,0.1 1.33,0.24 1.86,0.48 0.86,0.38 1.52,0.94 1.92,1.64 0.41,0.74 0.93,1.88 0.98,2.86 0.01,0.96 -0.1,2.02 -0.32,3.15 -0.59,2.79 -1.45,5.32 -2.61,7.62 -1.16,2.25 -2.62,4.44 -4.43,6.52 -1.63,1.91 -3.52,3.47 -5.61,4.68 -2.11,1.18 -4.25,1.78 -6.33,1.8 -1.43,0 -2.46,-0.17 -3.13,-0.53 -0.67,-0.37 -1.27,-0.87 -1.76,-1.52 -0.47,-0.62 -0.78,-1.23 -0.86,-1.82 -0.13,-0.58 -0.11,-1.16 0,-1.69l0.14 -0.29c0,0 9.51,-19.65 9.54,-19.65l12.5 -25.93 -14.36 0 -21.27 41.29c-3.35,2.82 -8.21,6.12 -13.22,6.56 -1.99,0.18 -3.45,-0.08 -4.19,-0.58 -0.72,-0.49 -1.4,-1.85 -1.11,-3.25 0.02,-0.08 0.07,-0.18 0.07,-0.29l13.29 -24.99 0.66 -1.28 -14.55 0 -10.48 19.69c-0.66,1.05 -9.65,10.1 -17.91,10.79 -1.99,0.16 -3.48,-0.07 -4.19,-0.56 -0.69,-0.46 -1.35,-1.69 -0.85,-2.91l22.91 -44.47 -14.55 0.02 -19 36.89c-0.49,0.71 -1.12,1.52 -1.84,2.38 -2.26,2.37 -5.2,4.34 -8.37,6.16 -1.89,1.03 -8.92,4.59 -10.73,0.63 -0.23,-0.49 -0.3,-1.14 -0.14,-1.93 0.08,-0.31 0.18,-0.67 0.35,-1.1l12.71 -24.75 0.43 -0.86 -15.37 0.04 -1.34 2.6c-1.18,-0.8 -1.96,-1.41 -3.98,-1.91 -2.01,-0.48 -4.44,-0.7 -7.29,-0.69 -3.88,0 -7.68,0.63 -11.45,1.88 -3.75,1.25 -7.15,2.93 -10.18,5.04 -3.04,2.15 -5.6,4.64 -7.73,7.47 -2.13,2.81 -3.52,5.85 -4.2,9.08 -0.85,4.16 -0.15,7.46 2.12,9.85 2.29,2.4 6.17,3.59 11.65,3.55 1.77,0 3.42,-0.17 4.95,-0.53 1.54,-0.37 3.03,-0.79 4.44,-1.3 1.66,-0.6 3.04,-1.21 4.14,-1.78 1.12,-0.6 2.29,-1.24 3.54,-1.94l0.38 0c0.09,0.28 0.21,0.54 0.36,0.82 0.02,0.07 0.05,0.13 0.07,0.23 0.02,0.01 0.03,0.04 0.04,0.05 0.32,0.87 0.93,1.63 1.81,2.3 1.81,1.39 4.6,2.09 8.37,2.07l0.01 0 0.01 0c2.45,-0 5.23,-0.34 7.22,-0.74 6.76,-1.44 12.72,-4.2 15.7,-5.94 0.11,1.41 1.2,4.24 3.2,5.73 3.49,2.63 10.83,1.05 12.8,0.64 9.08,-1.92 13.59,-4.97 16.65,-6.92 -0.03,0.08 -0.07,0.18 -0.08,0.27 -0.45,2.11 0.24,3.87 2.04,5.26 1.82,1.36 4.6,2.05 8.37,2.03 2.48,-0.02 5.26,-0.31 7.24,-0.75 7.95,-1.69 12.42,-4.23 15.44,-6.16 0.99,1.2 2.17,2.26 3.53,3.07 1.79,1.06 3.73,1.89 5.88,2.45 1.69,0.47 3.65,0.79 5.86,0.98 2.25,0.17 3.94,0.27 5.1,0.24 4.81,-0.01 9.31,-0.63 13.49,-1.82 4.16,-1.21 7.91,-2.91 11.22,-5.1 3.11,-2.08 5.7,-4.57 7.74,-7.45 2.05,-2.9 3.37,-5.91 4.04,-9.11 0.86,-4.17 0.22,-8.26 -2.1,-10.6z"/>
   <path class="fil0" d="M163.35 36.85c1.56,-5.29 -8.91,0.33 -17.37,8.54 -11.57,11.22 -23.59,28.06 -23.59,28.06 0,0 8.87,-25.19 11.95,-33.73 3.06,-8.47 -2.14,-5.96 -9.86,0.11 -8.12,6.32 -19.04,21.27 -21.88,24.87 0.09,-0.19 0.66,-1.94 0.76,-2.14 0.99,-1.91 1.34,-4.11 1.44,-6.36 0.2,-4.78 -1.3,-13.03 -11.17,-16.62 -14.72,-5.35 -41.32,8.77 -33.61,24.45 7.34,14.92 27.25,3.53 27.25,3.53 -18.35,4.59 -26.24,-7.18 -18.04,-16.64 6.1,-7.05 22.72,-11.03 22.63,6.74 -0.77,6.2 -2.5,14.07 -6.25,22.44 -6.77,15.08 -14.5,21.54 -14.5,21.54 2.47,-0.03 9.66,0.03 19.22,-8.72 9.13,-8.35 25.59,-34.31 25.59,-34.31 0,0 -11.42,34.67 -8.04,40.23 1.44,2.35 3.32,0 13.28,-13.73 10.12,-13.97 20.74,-25.53 20.74,-25.53 0,0 -6.7,17.41 -7.27,26.49 -0.23,3.64 0.11,6.85 1.08,9.35 3.04,8.31 13.68,5.88 15.34,5.42 1.68,-0.5 5.5,-3.1 7.94,-5.3 -0.4,0.15 -6.68,2.51 -9.02,-0.23 -0.89,-1.05 -0.74,-4.8 -0.74,-4.8 1.41,-18.05 12.85,-49.33 14.13,-53.66z"/>
   <path class="fil1 str0" d="M163.35 36.85c1.56,-5.29 -8.91,0.33 -17.37,8.54 -11.57,11.22 -23.59,28.06 -23.59,28.06 0,0 8.87,-25.19 11.95,-33.73 3.06,-8.47 -2.14,-5.96 -9.86,0.11 -8.12,6.32 -19.04,21.27 -21.88,24.87 0.09,-0.19 0.66,-1.94 0.76,-2.14 0.99,-1.91 1.34,-4.11 1.44,-6.36 0.2,-4.78 -1.3,-13.03 -11.17,-16.62 -14.72,-5.35 -41.32,8.77 -33.61,24.45 7.34,14.92 27.25,3.53 27.25,3.53 -18.35,4.59 -26.24,-7.18 -18.04,-16.64 6.1,-7.05 22.72,-11.03 22.63,6.74 -0.77,6.2 -2.5,14.07 -6.25,22.44 -6.77,15.08 -14.5,21.54 -14.5,21.54 2.47,-0.03 9.66,0.03 19.22,-8.72 9.13,-8.35 25.59,-34.31 25.59,-34.31 0,0 -11.42,34.67 -8.04,40.23 1.44,2.35 3.32,0 13.28,-13.73 10.12,-13.97 20.74,-25.53 20.74,-25.53 0,0 -6.7,17.41 -7.27,26.49 -0.23,3.64 0.11,6.85 1.08,9.35 3.04,8.31 13.68,5.88 15.34,5.42 1.68,-0.5 5.5,-3.1 7.94,-5.3 -0.4,0.15 -6.68,2.51 -9.02,-0.23 -0.89,-1.05 -0.74,-4.8 -0.74,-4.8 1.41,-18.05 12.85,-49.33 14.13,-53.66z"/>
   <path class="fil0" d="M503.55 44.07c-0.3,0.58 -1.05,1.15 -2.44,1.15l-2.16 0 1.16 -2.26 1.91 0c1.38,0 1.91,0.37 1.54,1.11zm0.19 -2.4l-5.05 0 -4.2 8.22 2.05 0 1.73 -3.35 0.38 0c0.91,0 1.22,0.05 1.46,0.39 0.24,0.33 0.51,1.03 0.56,1.62l0.14 1.35 2.55 0 -0.33 -1.66c-0.3,-1.46 -0.46,-1.69 -1.21,-1.92l0.02 -0.05c1.81,-0.17 3.29,-1.04 3.94,-2.31 0.66,-1.3 0.13,-2.29 -2.05,-2.29z"/>
   <path class="fil1 str0" d="M503.55 44.07c-0.3,0.58 -1.05,1.15 -2.44,1.15l-2.16 0 1.16 -2.26 1.91 0c1.38,0 1.91,0.37 1.54,1.11zm0.19 -2.4l-5.05 0 -4.2 8.22 2.05 0 1.73 -3.35 0.38 0c0.91,0 1.22,0.05 1.46,0.39 0.24,0.33 0.51,1.03 0.56,1.62l0.14 1.35 2.55 0 -0.33 -1.66c-0.3,-1.46 -0.46,-1.69 -1.21,-1.92l0.02 -0.05c1.81,-0.17 3.29,-1.04 3.94,-2.31 0.66,-1.3 0.13,-2.29 -2.05,-2.29z"/>
   <path class="fil0" d="M500.54 39.25c-4.55,0.89 -8.23,4.66 -8.23,8.41 0,3.73 3.71,6.04 8.23,5.13 4.55,-0.9 8.24,-4.67 8.24,-8.4 -0,-3.75 -3.71,-6.05 -8.24,-5.14zm7.34 0.14c1.53,1.25 2.36,3 2.36,5 0,4.39 -4.22,8.79 -9.41,9.81 -2.93,0.6 -5.71,0.04 -7.62,-1.54 -1.52,-1.24 -2.36,-3.02 -2.36,-5l0 -0.01c0,-4.4 4.22,-8.8 9.4,-9.82 2.93,-0.59 5.73,-0.02 7.63,1.56z"/>
   <path class="fil1 str0" d="M500.54 39.25c-4.55,0.89 -8.23,4.66 -8.23,8.41 0,3.73 3.71,6.04 8.23,5.13 4.55,-0.9 8.24,-4.67 8.24,-8.4 -0,-3.75 -3.71,-6.05 -8.24,-5.14zm7.34 0.14c1.53,1.25 2.36,3 2.36,5 0,4.39 -4.22,8.79 -9.41,9.81 -2.93,0.6 -5.71,0.04 -7.62,-1.54 -1.52,-1.24 -2.36,-3.02 -2.36,-5l0 -0.01c0,-4.4 4.22,-8.8 9.4,-9.82 2.93,-0.59 5.73,-0.02 7.63,1.56z"/>
   <path class="fil2" d="M23.86 157.88l216.74 -0.37c0,0 7.43,0.72 11.78,-3.62 4.33,-4.35 6.51,-7.6 6.51,-7.6 0,0 1.18,-1.73 3.25,-3.8 3.09,-3.06 11.31,-2.25 11.31,-2.25l199.66 0.28c0,0 4.71,-0.19 9.77,-0.73 9.09,-0.98 14.83,-12.48 14.83,-12.48l43.05 -86.68c0,0 2.94,-5.31 3.61,-9.04 0.75,-3.99 -1.81,-9.96 -1.81,-9.96l-2.88 -10.48c0,0 -1.82,-10.32 -7.78,-10.68 -3.1,-0.18 -5.07,-0.18 -5.07,-0.18l-217.67 -0.17c0,0 -10.31,-1.62 -15.36,8.14 -3.17,6.09 -8.7,6.51 -8.7,6.51l-207.71 0.37c0,0 -11.85,-0.26 -17.55,2.99 -6.78,3.88 -7.78,8.24 -7.78,8.24l-49.94 95.88c0,0 -4.16,6.52 -0.89,11.93 3.24,5.45 7.59,13.41 7.59,13.41 0,0 1.17,1.41 3.08,4.14 4.54,6.52 11.94,6.17 11.94,6.17z"/>
   <path class="fil3" d="M242 113.48c2.09,0.03 2.45,-0.05 2.45,-0.05l1.58 7.82c0,0 4.42,5.84 6.52,7.81 2.91,2.72 -0.15,2.66 2.29,3.24 1.74,0.45 179.36,-0.46 222.47,0.26 0.01,0 0.01,-0.02 0.04,-0.02 1.97,-0.12 4.25,-0.61 7.16,-2.22 3.46,-1.92 5.53,-5.02 5.55,-5.07l45.69 -88.44c0,0 2.78,-4.29 1.6,-8.78l-5.12 -18.39 -52.08 76.09 -238.17 27.75z"/>
   <path class="fil3" d="M8.09 130.67l8.42 12.94c0,0 2.19,5.64 7.41,5.64 3.98,0 10.18,0.22 12.7,0.22 0.89,0 158.59,-0.59 201.71,0.13l0.06 0c1.97,-0.13 9.66,1.12 15.15,-8.37 5.67,-9.8 8.04,-8.65 8.05,-8.72l38.48 -78.31c0,0 2.75,-4.31 1.58,-8.78l-5.11 -18.38 -52.08 76.08 -236.37 27.55z"/>
   <path class="fil4" d="M13.34 134.11c-1.79,-0.16 -3.54,-0.69 -4.76,-2.35 -1.44,-1.99 -0.27,-5.13 -0.27,-5.16l47.8 -93.65c0,0 2.46,-5.88 7.47,-8.84 3.88,-2.28 7.55,-1.99 7.55,-1.99l207.93 -0.07c28.36,-0.1 10.16,-14.94 34.76,-15.07l212.34 0c6.17,0 7.36,3.69 5.62,8.18l-47.12 92.56c0,0 -1.99,4.63 -7.25,8.19 -5.6,3.75 -8.18,3.14 -17.66,3.14l-199.14 0c-23.56,0 -5.97,15.07 -32.05,15.07l-215.17 0 -0.04 0z"/>
   <path class="fil3" d="M164.62 36.85c0.24,-0.82 0.2,-1.39 -0.09,-1.73l-3.76 -4.87 -3.36 3.93 0.95 2.6c-3.31,1.91 -7.42,5.02 -11.12,8.63 -11.55,11.21 -23.6,28 -23.6,28 0,0 8.89,-25.18 11.96,-33.71 1.06,-2.89 1.12,-4.48 0.47,-5.11l-3.57 -4.71 -3.47 3.43 1.38 3.06c-1.41,0.92 -2.98,2.09 -4.69,3.43 -8.11,6.33 -19.04,21.28 -21.87,24.87 0.08,-0.18 0.65,-1.92 0.78,-2.13 0.98,-1.91 1.33,-4.12 1.42,-6.35 0.13,-3.02 -0.44,-7.41 -3.38,-11.13l-3.66 -4.85 -4.36 -0.72c-17.01,-6.16 -44.18,6.35 -36.61,21.99 6.86,14.12 21.85,9.64 26.99,7.17 1.39,-0.67 2.2,-1.17 2.2,-1.17l-2.28 -4.58c0,0 -1.65,0.53 -2.49,0.76 -6.44,1.73 -13.41,1.99 -14.79,-1.21 -1.44,-3.35 -0.57,-7.62 2.8,-11.53 6.11,-7.05 22.72,-11.01 22.63,6.75 -0.76,6.2 -2.51,14.07 -6.23,22.43 -2.29,5.06 -4.66,9.15 -6.82,12.34l-0.61 -0.53 -6.85 3.57 -3.88 1.41 3.65 4.75c2.46,-0.02 9.67,0.02 19.23,-8.7 9.11,-8.35 25.59,-34.33 25.59,-34.33 0,0 -6.9,20.91 -8.4,32.85l-3.19 2.78 3.71 4.9 0.01 -0.01c1.43,1.83 3.56,-0.9 13.07,-14.01 10.13,-13.99 20.75,-25.52 20.75,-25.52 0,0 -6.7,17.41 -7.26,26.46 -0.15,2.22 -0.11,4.37 0.19,6.29l-1.99 0.04 4.04 5.55c0.11,0.17 0.2,0.32 0.34,0.47l0.2 0.3 0.05 -0.01c4.2,4.56 12.16,2.53 13.57,2.14 1.68,-0.5 5.48,-3.09 7.96,-5.3l-0.03 0 -3.66 -4.76 -5.65 3.97c-0.56,-1.43 -0.43,-4.23 -0.43,-4.23 1.39,-18.08 12.85,-49.36 14.13,-53.68z"/>
   <path class="fil3" d="M334.75 77.4c-0.55,2.79 -1.43,5.31 -2.57,7.59 -1.16,2.29 -2.64,4.47 -4.44,6.53 -1.64,1.91 -17.69,5.42 -17.69,2.62 0,-0.61 -0.09,-1.16 0.01,-1.71l0.14 -0.29 9.47 -19.6c0.02,-0.03 0.06,-0.04 0.06,-0.06l0.02 0c2.02,-1.01 5.03,-2.44 7.07,-2.85 1.12,-0.22 2.53,-0.43 3.53,-0.36 0.7,0.09 1.34,0.24 1.86,0.46 0.86,0.4 1.51,0.96 1.92,1.67 0.43,0.69 0.94,1.86 0.97,2.82 0.03,0.97 -0.1,2.04 -0.34,3.16zm-129.01 -4.39l-9.45 17.81c-1.34,0.94 -2.4,-2.52 -3.92,-1.85 -1.48,0.65 -4.26,2.4 -5.72,2.4 -1.46,0 -1.71,2.63 -2.57,2.25 -0.86,-0.42 -1.51,-0.98 -1.95,-1.7 -0.36,-0.65 -0.6,-1.49 -0.63,-2.47 -0.02,-0.99 0.08,-2.05 0.3,-3.19 0.55,-2.59 0.9,-3.74 2.16,-6.15 1.24,-2.42 2.72,-4.55 4.4,-6.39 1.77,-1.86 3.61,-3.38 5.58,-4.49 1.99,-1.12 3.99,-1.67 6.06,-1.69 1.37,0 2.46,0.15 3.3,0.47 0.85,0.3 1.49,0.79 1.92,1.39 0.38,0.5 0.59,1.09 0.62,1.8 0.06,0.7 0.02,1.31 -0.1,1.83zm143.83 -6.1c-0.88,-0.9 -1.96,-1.54 -3.29,-1.96 -1.51,-0.71 -3.42,-1.19 -5.78,-1.16 -2.47,0 -4.67,0.25 -6.62,0.74 -0.82,0.19 -4.84,-1.59 -10.2,-0.18l2.45 -5.02 0.11 -0.21 5.97 -12.53 -3.62 -4.78 -6.07 4.78 -4.64 0 -20.63 37.11c-3.36,2.81 -17.33,10.65 -18.07,10.15 -0.69,-0.47 -1.38,-1.85 -1.1,-3.23 0.02,-0.08 0.05,-0.19 0.07,-0.29l13.3 -24.99 0.65 -1.31 -3.65 -4.74 -4.36 4.74 -6.53 0 -8.66 13.51c-3.02,5.84 -23.21,16.91 -23.91,16.42 -0.69,-0.46 -1.36,-1.67 -0.86,-2.89l22.9 -44.47 0 -0.02 -3.64 -4.76 -6.07 4.78 -4.84 0.02 -18.99 36.85c-0.5,0.72 -1.1,1.51 -1.85,2.39 -2.26,2.37 -3.4,0.56 -6.56,2.37 -1.89,1.01 -12.06,6.57 -12.54,4.42 -0.22,-0.49 -0.29,-1.14 -0.14,-1.94 0.07,-0.28 0.18,-0.64 0.34,-1.1l12.69 -24.73 0.44 -0.86 -3.68 -4.73 -5.57 4.74 -6.09 0.02 -1.36 2.62c-1.19,-0.82 -1.97,-1.44 -3.99,-1.92 -2.02,-0.49 -4.8,-3.13 -7.64,-3.12 -3.86,0.01 -9.45,1.41 -13.21,2.67 -3.76,1.25 -5.02,4.56 -8.06,6.67 -3.03,2.16 -5.59,4.64 -7.72,7.47 -2.13,2.84 -3.53,5.88 -4.2,9.09 -0.14,0.74 -0.24,1.5 -0.29,2.19l-2.15 1.85 3.79 4.87c0.02,0.01 0.04,0.04 0.05,0.07l0.32 0.4 0.02 0c0.14,0.16 0.25,0.33 0.39,0.48 2.27,2.4 6.17,3.59 11.64,3.57 1.78,0 3.42,-0.19 4.96,-0.55 1.54,-0.35 3.04,-0.79 4.46,-1.3 1.64,-0.59 3,-1.21 4.12,-1.79 1.06,-0.58 2.18,-1.17 3.35,-1.86l1.77 2.31 0.01 0c0.29,0.36 0.64,0.7 1.04,1.02 1.81,1.37 4.61,2.07 8.37,2.07l0.01 0 0.02 0c2.45,-0.03 5.23,-0.34 7.2,-0.75 6.76,-1.44 10.79,-3.54 13.79,-5.3 2.73,4 3.15,4.17 4.56,5.17 3.59,2.52 11.4,0.99 13.35,0.58 6.14,-1.31 11.71,-4.81 14.59,-6.31l2.77 3.56c0.08,0.13 0.17,0.25 0.26,0.36l0.14 0.19 0.04 0c0.24,0.26 0.51,0.54 0.85,0.79 1.8,1.37 4.59,2.05 8.37,2.04 2.45,-0.02 5.23,-0.32 7.21,-0.75 7.97,-1.67 11.68,-4.55 14.72,-6.46 0.99,1.22 2.9,2.54 4.27,3.36 1.78,1.08 3.73,1.91 5.88,2.47 1.68,0.48 3.66,0.79 5.85,0.98 2.25,0.16 3.93,0.26 5.08,0.24 4.84,-0.02 9.32,-0.62 13.49,-1.85 4.19,-1.18 7.91,-2.88 11.25,-5.08 3.11,-2.07 5.7,-4.56 7.73,-7.42 2.05,-2.91 3.4,-5.96 4.05,-9.12 0.87,-4.2 0.13,-8.21 -2.11,-10.6z"/>
   <path class="fil3" d="M296.95 48.93l0.01 0 -3.51 -4.54 -5.43 1.9c-1.84,0.26 -3.52,0.84 -5.11,1.81l-6.59 3.31 3.42 4.07c0.34,0.5 0.83,0.97 1.43,1.45 1.56,1.24 3.62,1.85 6.18,1.85 2.55,-0.03 4.73,-0.36 6.8,-1.62 2.07,-1.26 3.31,-2.76 3.66,-4.54 0.28,-1.39 0,-2.61 -0.87,-3.7z"/>
   <path class="fil3" d="M396.04 72.72l-4.56 9.96c-1.34,0.95 -16.24,10.28 -17.12,9.88 -0.88,-0.4 -1.51,-0.97 -1.93,-1.68 -0.38,-0.67 -0.6,-0.73 -0.66,-1.72 -0.02,-1 0.09,-2.05 0.33,-3.21 0.5,-2.53 0.87,-3.7 2.14,-6.12 1.23,-2.42 2.71,-4.56 4.42,-6.4 1.72,-1.87 3.56,-3.37 5.54,-4.49 1.98,-1.11 4,-1.68 6.06,-1.69 1.37,0 2.46,0.16 3.31,0.47 0.85,0.31 1.46,0.79 1.92,1.4 0.38,0.48 0.58,1.1 0.63,1.78 0.04,0.69 0,1.33 -0.09,1.82zm80.94 21.12c-0.05,0.02 -0.12,0.05 -0.19,0.05l-3.59 -4.7 -7.13 3.13c0.02,-0.28 0.06,-0.58 0.11,-0.94 0.14,-0.55 0.41,-1.33 0.89,-2.4 0.47,-1.09 0.96,-2.02 1.44,-2.84l5.66 -9.92c0.64,-1.11 1.12,-2.15 1.43,-3.17 0.31,-0.95 0.52,-1.72 0.62,-2.26 0.38,-1.8 -0.05,-3.36 -1.31,-4.66l-3.49 -4.6 -3.24 -0.28 -2.76 1.09 0.41 1.13c-4.58,0.13 -17.51,1.11 -17.51,1.11l0.22 -0.42 0.02 0 -0.02 -0.02 0.08 -0.11 -0.14 0 -3.54 -4.61 -5.94 4.66 -4.94 0.04 -8.94 17.19c-2.9,3.39 -8.4,7.76 -15.46,8.37 -0.49,0.03 -3.96,1.94 -4.4,1.94 -1.27,-0.01 -1.17,2.01 -1.7,1.65 -0.28,-0.16 -0.53,-0.48 -0.76,-0.87 -0.23,-0.5 -0.27,-1.17 -0.13,-1.94 0.06,-0.29 0.19,-0.68 0.36,-1.1l12.72 -24.73 0.26 -0.54 -0.05 0 0.05 0 -3.67 -4.74 -4.03 4.74 -7.65 0.03 -1.2 2.29c-1.18,-0.81 -1.96,-1.44 -3.98,-1.91 -2.04,-0.49 -4.45,-2.86 -7.3,-2.84 -3.88,0.01 -8.04,1.05 -11.8,2.29 -3.76,1.25 -6.79,4.66 -9.84,6.77 -3.02,2.15 -5.58,4.63 -7.71,7.48 -2.12,2.83 -3.5,5.83 -4.17,9.06 -0.25,1.18 -0.36,2.29 -0.36,3.34l-1.86 1.02 3.4 4.37c0.28,0.39 0.58,0.79 0.92,1.14 2.27,2.39 6.15,3.58 11.63,3.57 1.76,0 3.42,-0.19 4.97,-0.55 1.52,-0.34 3.01,-0.79 4.44,-1.3 1.63,-0.61 3.01,-1.2 4.12,-1.81 1.07,-0.55 2.2,-1.18 3.37,-1.83l1.51 1.92c0.34,0.52 0.76,0.98 1.34,1.41 1.78,1.37 4.56,2.06 8.34,2.05l0.01 0 0.02 0c2.46,-0.02 5.25,-0.34 7.22,-0.75 3.4,-0.7 6.5,-2.29 9.17,-3.99l2.79 3.61 14.67 0 13.18 -25.55c2.82,-1.71 5.28,-2.86 7.4,-3.53 2.14,-0.63 3.76,-0.96 4.85,-0.96 1.74,0 2.91,0.31 3.51,0.96 0.61,0.6 0.79,1.49 0.55,2.65 -0.09,0.5 -0.32,1.18 -0.66,1.99 -0.33,0.81 -0.79,1.71 -1.35,2.73l-5.35 9.41c-0.63,1.18 -1.07,2.16 -1.34,2.98l-0.35 -0.17 -3.2 1.89 3.6 4.68 0.01 0c0.33,0.46 0.77,0.91 1.28,1.34 1.81,1.39 4.57,2.09 8.32,2.07 2.45,-0.03 4.64,-0.26 6.6,-0.76 1.94,-0.49 6.41,-3.01 9.44,-5.18l0.03 -0.01c0.02,-0.03 0.07,-0.06 0.12,-0.11z"/>
   <path class="fil2" d="M277.4 52.48c1.56,1.22 3.63,1.84 6.18,1.84 2.55,-0.01 4.86,-0.65 6.92,-1.91 2.08,-1.26 3.3,-2.76 3.66,-4.55 0.37,-1.79 -0.21,-3.32 -1.79,-4.59 -1.53,-1.25 -3.59,-1.86 -6.14,-1.86 -2.55,0.01 -4.86,0.65 -6.95,1.92 -2.09,1.29 -3.32,2.81 -3.67,4.62 -0.4,1.77 0.22,3.28 1.79,4.53z"/>
   <path class="fil2" d="M392.37 67.96l-9.45 17.83c-1.36,0.94 -2.79,1.74 -4.28,2.39 -1.48,0.66 -2.99,0.98 -4.46,0.98 -1.45,0 -2.61,-0.19 -3.48,-0.58 -0.89,-0.42 -1.52,-0.99 -1.94,-1.69 -0.41,-0.67 -0.61,-1.5 -0.65,-2.5 -0.03,-0.98 0.09,-2.04 0.32,-3.19 0.51,-2.56 0.87,-3.72 2.14,-6.14 1.24,-2.42 2.71,-4.55 4.42,-6.41 1.72,-1.85 3.56,-3.33 5.55,-4.47 1.98,-1.12 3.99,-1.69 6.08,-1.69 1.35,0 2.46,0.13 3.29,0.45 0.84,0.31 1.47,0.77 1.92,1.4 0.36,0.5 0.57,1.08 0.63,1.78 0.04,0.71 0,1.34 -0.1,1.82zm71.04 16.25c0.49,-1.09 0.96,-2.03 1.46,-2.83l5.65 -9.93c0.64,-1.12 1.11,-2.15 1.43,-3.14 0.31,-0.98 0.51,-1.73 0.63,-2.28 0.43,-2.06 -0.2,-3.8 -1.88,-5.22 -1.67,-1.42 -4.26,-2.14 -7.79,-2.13 -3.7,0.01 -7.34,0.63 -10.87,1.79 -3.21,1.06 -6.75,2.63 -9.99,4.5l2.65 -5.17 0.27 -0.54 -14.57 0.05 -8.93 17.22c-2.92,3.37 -10.35,11.9 -17.38,12.51 -0.53,0.03 -0.97,0.05 -1.42,0.04 -1.25,-0.02 -2.24,-0.24 -2.79,-0.62 -0.25,-0.17 -0.51,-0.47 -0.72,-0.84 -0.22,-0.52 -0.29,-1.16 -0.13,-1.95 0.07,-0.29 0.18,-0.65 0.35,-1.1l12.7 -24.74 0.28 -0.55 -15.35 0.04 -1.22 2.32c-1.17,-0.82 -1.97,-1.46 -3.96,-1.92 -2.03,-0.51 -4.46,-0.74 -7.3,-0.73 -3.86,0.03 -7.68,0.64 -11.45,1.9 -3.74,1.25 -7.14,2.93 -10.19,5.06 -3.03,2.14 -5.6,4.61 -7.73,7.46 -2.1,2.81 -3.51,5.85 -4.18,9.07 -0.86,4.19 -0.15,7.47 2.14,9.84 2.27,2.43 6.15,3.6 11.61,3.59 1.78,-0.02 3.43,-0.21 4.97,-0.55 1.54,-0.33 3.03,-0.79 4.46,-1.29 1.63,-0.62 3.02,-1.22 4.12,-1.81 1.11,-0.59 2.29,-1.25 3.53,-1.94l0.4 0c0.06,0.29 0.19,0.56 0.34,0.82 0.01,0.07 0.05,0.16 0.09,0.24 0,0 0.01,0.04 0.01,0.07 0.35,0.85 0.95,1.64 1.82,2.29 1.82,1.38 4.6,2.08 8.38,2.06l0.01 0 0.01 0c2.46,-0.01 5.24,-0.32 7.22,-0.74 7.37,-1.57 11.73,-3.87 14.75,-5.74l-2.79 5.38 14.76 -0.04 13.11 -25.55c2.8,-1.68 5.26,-2.85 7.39,-3.49 2.15,-0.64 3.76,-0.97 4.84,-0.97 1.74,-0.02 2.93,0.31 3.52,0.93 0.62,0.63 0.78,1.51 0.55,2.66 -0.11,0.54 -0.33,1.18 -0.67,2.01 -0.33,0.81 -0.8,1.71 -1.35,2.73l-5.35 9.42c-0.68,1.31 -1.2,2.42 -1.46,3.31 -0.25,0.89 -0.45,1.6 -0.56,2.18 -0.42,2.07 0.25,3.81 2.02,5.23 1.8,1.37 4.59,2.08 8.31,2.05 2.46,-0.03 4.65,-0.26 6.61,-0.76 1.97,-0.49 6.58,-3.09 9.61,-5.3 -0.58,0.17 -1.48,0.39 -2.76,0.66 -1.25,0.29 -2.36,0.38 -3.3,0.39 -2.04,0.01 -3.38,-0.24 -4.12,-0.73 -0.68,-0.48 -0.91,-1.42 -0.62,-2.77 0.11,-0.57 0.42,-1.34 0.88,-2.42z"/>
   <path class="fil2" d="M202.1 68.24l-9.45 17.83c-1.36,0.94 -2.77,1.75 -4.28,2.4 -1.48,0.64 -2.98,0.96 -4.44,0.96 -1.46,0.02 -2.62,-0.18 -3.48,-0.57 -0.87,-0.41 -1.53,-0.97 -1.93,-1.71 -0.4,-0.64 -0.63,-1.47 -0.64,-2.48 -0.04,-0.98 0.08,-2.03 0.3,-3.21 0.53,-2.55 0.88,-3.69 2.14,-6.12 1.24,-2.42 2.73,-4.56 4.42,-6.4 1.74,-1.87 3.59,-3.37 5.56,-4.47 1.97,-1.14 4,-1.69 6.08,-1.69 1.34,-0.01 2.43,0.13 3.28,0.45 0.85,0.32 1.49,0.79 1.93,1.4 0.36,0.49 0.59,1.08 0.62,1.79 0.05,0.71 0.03,1.31 -0.1,1.82zm143.83 -6.08c-1.33,-1.31 -11.47,-8.36 -25.51,3.39 0.58,-0.17 1.49,-0.4 2.75,-0.65 1.12,-0.25 2.56,-0.43 3.52,-0.37 0.7,0.1 1.33,0.24 1.86,0.47 0.86,0.38 1.54,0.94 1.93,1.64 0.4,0.73 0.93,1.88 0.97,2.86 0.01,0.95 -0.09,2.02 -0.32,3.15 -0.58,2.78 -1.46,5.32 -2.6,7.61 -1.17,2.26 -2.64,4.44 -4.44,6.53 -1.63,1.92 -3.52,3.47 -5.61,4.67 -2.11,1.2 -4.25,1.8 -6.33,1.81 -1.44,0 -2.45,-0.17 -3.13,-0.54 -0.67,-0.36 -1.27,-0.86 -1.76,-1.51 -0.49,-0.63 -0.78,-1.24 -0.86,-1.82 -0.13,-0.59 -0.12,-1.17 0,-1.7l0.13 -0.29c0,0 9.52,-19.66 9.55,-19.66l12.5 -25.93 -14.36 0 -21.29 41.29c-3.34,2.82 -8.21,6.13 -13.21,6.56 -1.99,0.18 -3.47,-0.07 -4.2,-0.57 -0.72,-0.49 -1.4,-1.84 -1.11,-3.25 0.02,-0.08 0.06,-0.17 0.07,-0.28l13.29 -24.99 0.65 -1.29 -14.55 0 -10.47 19.69c-0.66,1.04 -9.65,10.09 -17.91,10.79 -2,0.17 -3.48,-0.07 -4.19,-0.55 -0.69,-0.47 -1.36,-1.69 -0.85,-2.91l22.91 -44.47 -14.56 0.02 -19.01 36.89c-0.48,0.7 -1.11,1.51 -1.83,2.38 -2.27,2.37 -5.21,4.35 -8.37,6.16 -1.88,1.02 -8.92,4.58 -10.72,0.62 -0.23,-0.49 -0.3,-1.14 -0.14,-1.94 0.07,-0.29 0.17,-0.65 0.34,-1.08l12.7 -24.75 0.43 -0.86 -15.37 0.03 -1.35 2.61c-1.18,-0.81 -1.97,-1.41 -3.98,-1.91 -2.01,-0.48 -4.46,-0.71 -7.29,-0.7 -3.88,0 -7.68,0.64 -11.45,1.89 -3.75,1.25 -7.15,2.93 -10.18,5.04 -3.04,2.14 -5.6,4.63 -7.73,7.46 -2.13,2.82 -3.51,5.86 -4.2,9.09 -0.85,4.16 -0.15,7.46 2.13,9.86 2.28,2.4 6.17,3.57 11.64,3.55 1.77,0 3.42,-0.18 4.96,-0.53 1.53,-0.36 3.04,-0.79 4.44,-1.3 1.65,-0.61 3.03,-1.21 4.13,-1.79 1.12,-0.61 2.3,-1.24 3.53,-1.95l0.38 0c0.1,0.28 0.22,0.54 0.36,0.82 0.02,0.07 0.04,0.13 0.07,0.23 0.02,0.01 0.04,0.04 0.04,0.06 0.33,0.87 0.92,1.63 1.81,2.29 1.81,1.4 4.6,2.08 8.38,2.06l0.02 0c2.45,0 5.23,-0.35 7.21,-0.75 6.76,-1.43 12.72,-4.19 15.7,-5.93 0.1,1.4 1.2,4.24 3.2,5.73 3.49,2.64 10.83,1.05 12.81,0.63 9.07,-1.91 13.59,-4.96 16.65,-6.91 -0.03,0.09 -0.06,0.18 -0.07,0.27 -0.45,2.1 0.23,3.86 2.04,5.26 1.8,1.35 4.59,2.06 8.37,2.03 2.47,-0.01 5.26,-0.31 7.24,-0.74 7.96,-1.69 12.42,-4.24 15.44,-6.16 1,1.2 2.16,2.25 3.53,3.06 1.79,1.06 3.73,1.89 5.88,2.46 1.7,0.46 3.66,0.79 5.86,0.97 2.25,0.18 3.94,0.27 5.09,0.25 4.81,-0.01 9.32,-0.63 13.5,-1.82 4.16,-1.21 7.9,-2.91 11.21,-5.11 3.12,-2.07 5.7,-4.57 7.75,-7.44 2.05,-2.9 3.37,-5.93 4.03,-9.12 0.87,-4.16 0.23,-8.26 -2.09,-10.58z"/>
   <path class="fil2" d="M160.97 32.09c1.57,-5.28 -8.91,0.34 -17.37,8.54 -11.57,11.22 -23.6,28.05 -23.6,28.05 0,0 8.87,-25.18 11.96,-33.72 3.05,-8.46 -2.14,-5.96 -9.87,0.1 -8.12,6.33 -19.04,21.28 -21.88,24.89 0.09,-0.19 0.66,-1.94 0.76,-2.14 1,-1.91 1.34,-4.11 1.44,-6.36 0.19,-4.78 -1.31,-13.03 -11.18,-16.62 -14.71,-5.35 -41.31,8.78 -33.6,24.45 7.35,14.92 27.25,3.53 27.25,3.53 -18.36,4.6 -26.23,-7.17 -18.04,-16.63 6.1,-7.05 22.72,-11.03 22.63,6.74 -0.77,6.2 -2.5,14.08 -6.25,22.43 -6.77,15.08 -14.49,21.54 -14.49,21.54 2.46,-0.04 9.65,0.02 19.21,-8.73 9.14,-8.34 25.6,-34.3 25.6,-34.3 0,0 -11.43,34.68 -8.04,40.24 1.43,2.34 3.31,0 13.27,-13.74 10.12,-13.97 20.74,-25.52 20.74,-25.52 0,0 -6.69,17.41 -7.27,26.48 -0.22,3.65 0.1,6.85 1.07,9.36 3.04,8.3 13.69,5.87 15.34,5.41 1.69,-0.5 5.5,-3.1 7.94,-5.3 -0.4,0.16 -6.68,2.51 -9.02,-0.23 -0.89,-1.06 -0.74,-4.81 -0.74,-4.81 1.41,-18.05 12.86,-49.34 14.14,-53.66z"/>
   <path class="fil2" d="M501.17 39.31c-0.29,0.59 -1.05,1.15 -2.45,1.15l-2.16 0 1.17 -2.26 1.9 0c1.38,0 1.9,0.37 1.54,1.11zm0.19 -2.4l-5.04 0 -4.2 8.23 2.06 0 1.74 -3.38 0.38 0c0.9,0 1.22,0.07 1.46,0.4 0.24,0.33 0.5,1.04 0.56,1.62l0.14 1.36 2.55 0 -0.34 -1.67c-0.29,-1.46 -0.46,-1.68 -1.2,-1.91l0.02 -0.06c1.8,-0.17 3.29,-1.04 3.94,-2.3 0.65,-1.3 0.13,-2.29 -2.06,-2.29z"/>
   <path class="fil2" d="M498.16 34.48c-4.56,0.9 -8.22,4.66 -8.22,8.4 0,3.74 3.7,6.05 8.23,5.14 4.55,-0.9 8.23,-4.67 8.23,-8.4 -0.01,-3.75 -3.71,-6.04 -8.24,-5.14zm7.35 0.14c1.52,1.25 2.35,2.99 2.35,5 0,4.39 -4.22,8.8 -9.4,9.81 -2.93,0.6 -5.71,0.04 -7.61,-1.55 -1.52,-1.24 -2.36,-3.01 -2.36,-5.01l0 -0.01c0,-4.39 4.22,-8.79 9.4,-9.82 2.92,-0.58 5.73,-0.01 7.63,1.57z"/>
  </g>
 </g>
</svg>
