<?xml version="1.0" encoding="UTF-8"?>
<!DOCTYPE svg PUBLIC "-//W3C//DTD SVG 1.1//EN" "http://www.w3.org/Graphics/SVG/1.1/DTD/svg11.dtd">
<!-- Creator: CorelDRAW 2021 (64-Bit) -->
<svg xmlns="http://www.w3.org/2000/svg" xml:space="preserve" width="2.82613in" height="0.935283in" version="1.1" style="shape-rendering:geometricPrecision; text-rendering:geometricPrecision; image-rendering:optimizeQuality; fill-rule:evenodd; clip-rule:evenodd"
viewBox="0 0 4695.69 1554"
 xmlns:xlink="http://www.w3.org/1999/xlink"
 xmlns:xodm="http://www.corel.com/coreldraw/odm/2003">
 <defs>
  <style type="text/css">
   <![CDATA[
    .fil1 {fill:#FEFEFE;fill-rule:nonzero}
    .fil2 {fill:#C22E46;fill-rule:nonzero}
    .fil0 {fill:#BF1238;fill-rule:nonzero}
   ]]>
  </style>
 </defs>
 <g id="Layer_x0020_1">
  <metadata id="CorelCorpID_0Corel-Layer"/>
  <g id="_2345165912128">
   <path class="fil0" d="M4413.09 67.17l0 -67.17c-1469.58,89.86 -2943.51,89.86 -4413.09,0l0 67.17c1469.59,88.87 2943.49,88.87 4413.09,0z"/>
   <path class="fil0" d="M0.01 942.91l0 67.17c1469.57,-89.86 2943.51,-89.86 4413.09,0l0 -67.17c-1469.59,-88.88 -2943.49,-88.88 -4413.09,0z"/>
   <path class="fil1" d="M5.13 913.73c729.7,-44.03 1470.34,-66.36 2201.42,-66.36 731.08,0 1471.71,22.33 2201.41,66.36l0 56.89c-729.68,-44.5 -1470.34,-67.07 -2201.41,-67.07 -731.08,0 -1471.74,22.57 -2201.42,67.07l0 -56.89z"/>
   <path class="fil0" d="M2206.55 842.25c-735.88,0 -1471.75,22.22 -2206.55,66.66l0 67.17c734.79,-44.93 1470.67,-67.39 2206.55,-67.39 735.87,0 1471.76,22.46 2206.54,67.39l0 -67.17c-734.8,-44.44 -1470.67,-66.66 -2206.54,-66.66zm0 10.25c729.36,0 1468.24,22.23 2196.29,66.06l0 46.63c-728.05,-44.3 -1466.91,-66.76 -2196.29,-66.76 -729.39,0 -1468.24,22.46 -2196.29,66.76l0 -46.63c728.04,-43.83 1466.93,-66.06 2196.29,-66.06z"/>
   <path class="fil1" d="M2206.55 161.25c-731.08,0 -1471.72,-22.33 -2201.42,-66.36l0 -56.89c729.68,44.5 1470.35,67.07 2201.42,67.07 731.07,0 1471.73,-22.57 2201.41,-67.07l0 56.89c-729.7,44.03 -1470.34,66.36 -2201.41,66.36z"/>
   <path class="fil0" d="M4413.09 32.54c-734.79,44.93 -1470.66,67.4 -2206.54,67.4 -735.88,0 -1471.76,-22.47 -2206.54,-67.4l0 67.17c734.79,44.44 1470.67,66.65 2206.54,66.65 735.87,0 1471.75,-22.21 2206.54,-66.65l0 -67.17zm-10.25 10.9l0 46.62c-728.04,43.83 -1466.92,66.06 -2196.29,66.06 -729.37,0 -1468.25,-22.22 -2196.29,-66.06l0 -46.62c728.05,44.3 1466.9,66.76 2196.29,66.76 729.38,0 1468.24,-22.46 2196.29,-66.76z"/>
   <path class="fil1" d="M0.01 908.91l0 67.17c1469.57,-89.86 2943.51,-89.86 4413.09,0l0 -67.17c-1469.59,-88.87 -2943.49,-88.87 -4413.09,0z"/>
   <path class="fil1" d="M4413.09 99.72l0 -67.17c-1469.58,89.86 -2943.51,89.86 -4413.09,0l0 67.17c1469.59,88.87 2943.49,88.87 4413.09,0z"/>
   <path class="fil0" d="M0.01 99.72l0 809.19c1469.59,-88.87 2943.49,-88.87 4413.09,0l0 -809.19c-1469.59,88.87 -2943.49,88.87 -4413.09,0z"/>
   <path class="fil1" d="M133.68 234.01l-11.32 -0.65 0 51.99 10.17 0.52c44.06,2.23 88.11,4.4 132.18,6.48l0 466.62 11.28 -0.6c32.54,-1.74 65.08,-3.43 97.63,-5.08l10.17 -0.52 0 -454.95c43.96,1.94 87.94,3.83 131.91,5.63l11.15 0.45 0 -49.47 -10.22 -0.48c-127.32,-5.93 -256.17,-12.64 -382.94,-19.93zm749.77 266.13c0,45.31 -7.63,193.48 -106.03,197.54 -22.29,1.08 -40.59,-5.79 -56.05,-20.61 -31.19,-29.9 -49.08,-94.39 -49.07,-176.93 0,-82.56 17.89,-147.05 49.08,-176.95 14.5,-13.89 31.53,-20.68 51.99,-20.68 1.33,0 2.7,0.03 4.06,0.09 98.39,4.05 106.02,152.22 106.02,197.54zm-105.05 -245.76c-58.34,-2.94 -113.78,17.52 -155.76,57.48 -48.07,45.76 -75.65,114.38 -75.65,188.28 0,73.89 27.57,142.52 75.65,188.29 39.36,37.46 90.45,57.74 144.85,57.74 3.61,0 7.24,-0.09 10.89,-0.27 129.19,-6.19 230.39,-114.14 230.4,-245.76 -0.01,-131.61 -101.22,-239.56 -230.39,-245.76zm334.14 21.39l-11.03 -0.33 0 449.41 11.03 -0.33c32.58,-0.99 65.14,-1.94 97.72,-2.83l10.41 -0.29 0 -200.97 123.2 -0.14 0 -35.47 -0.46 -10.69 -122.74 -0.24 0 -148.45c68.63,1.65 137.29,3.11 205.92,4.41l10.9 0.2 0 -45.91 -10.49 -0.22c-104.36,-2.23 -210.18,-4.97 -314.47,-8.13zm413.19 9.83l-10.92 -0.2 0 429.49 10.92 -0.21c32.58,-0.62 65.14,-1.19 97.73,-1.71l10.54 -0.17 0 -192.77 123.23 -0.07 0 -45.32 -123.23 -0.12 0 -141.51c68.69,0.96 137.37,1.73 206.07,2.34l10.81 0.1 0 -45.18 -10.6 -0.11c-104.14,-1.03 -209.97,-2.56 -314.54,-4.55zm413.26 5.29l-10.79 -0.08 0 418.66 10.79 -0.09c104.87,-0.78 210.63,-1.09 314.56,-0.97l10.73 0.01 0 -44.99 -10.7 -0.01c-68.72,-0.09 -137.46,0.01 -206.21,0.28l0 -143.87 123.25 -0.02 -0.05 -44.99 -123.2 -0.03 0 -138.25c68.72,0.27 137.47,0.37 206.21,0.28l10.7 -0.01 0 -44.99 -10.73 0.02c-104.65,0.1 -210.47,-0.18 -314.56,-0.97zm421.35 0.71l-10.67 0.04 0 417 10.67 0.05c104.62,0.43 210.45,1.32 314.55,2.68l10.85 0.14 0 -45.35 -10.58 -0.12c-68.77,-0.79 -137.52,-1.41 -206.3,-1.84l0 -144.32 123.25 0.05 0 -45.23 -123.25 0.07 0 -138.68c68.78,-0.43 137.55,-1.05 206.3,-1.83l10.58 -0.13 0 -45.35 -10.85 0.14c-104.1,1.36 -209.93,2.26 -314.55,2.68zm803.98 -12.1l-6.82 0.18 -2.72 6.24c-38.42,88.08 -77.45,176.25 -119.03,268.84 -39.54,-85.63 -80.9,-174.05 -123.08,-263.16l-2.96 -6.26 -6.93 0.13c-40.38,0.78 -80.75,1.48 -121.12,2.11l-10.54 0.16 0 424.78 55.16 0.89 0 -330.74c54.4,114.85 104.65,222.43 153.03,327.65l2.81 6.1 35.79 0.78 2.92 -6.43c51.34,-112.84 99.59,-220.64 146.81,-328.03l0 338.13 10.41 0.28c32.58,0.88 65.15,1.8 97.72,2.77l11.03 0.33 0 -448.21 -11.03 0.32c-37.16,1.11 -74.3,2.16 -111.47,3.15zm429.67 270.23c-35.38,-0.37 -70.75,-0.72 -106.13,-1.06 17.71,-39.51 35.4,-79.36 53.1,-119.55 17.68,39.84 35.36,80.04 53.04,120.61zm4.87 -282.29l-2.94 -6.61 -37.4 1.45 -2.68 6.18c-63.02,145.47 -129.67,294.41 -198.07,442.65l-6.78 14.68 56.32 1.82 2.96 -6.51c18.78,-41.35 37.56,-83.04 56.34,-125.1 49.47,0.67 98.95,1.38 148.41,2.13 19.03,43.92 38.06,88.3 57.09,133.12l2.65 6.24 6.78 0.28c35.08,1.44 70.16,2.93 105.23,4.47l16.83 0.73 -6.47 -15.54c-63.52,-152.83 -130.21,-307.59 -198.26,-459.99zm631.56 -30.95l0 325.41c-77.18,-104.26 -157.9,-207.87 -240.28,-308.36l-3.41 -4.17 -5.4 0.27c-33.47,1.64 -66.91,3.24 -100.38,4.78l-10.22 0.47 0 490.49 55.12 2.57 0 -382.5c107.74,132.12 208.67,264.27 307.94,403.15l2.98 4.17 48.76 2.89 0 -542.3 -55.12 3.13z"/>
   <path class="fil0" d="M4503.19 34.18l-33.66 0 0 -18.05 89.23 0 0 18.05 -34 0 0 100.12 -21.57 0 0 -100.12zm169.17 51.91c-0.69,-15.25 -1.58,-33.49 -1.4,-49.62l-0.52 0c-3.87,14.38 -8.76,30.33 -14.03,45.24l-17.35 51.2 -16.5 0 -15.78 -50.49c-4.54,-15.09 -8.76,-31.22 -11.91,-45.95l-0.36 0c-0.52,15.43 -1.23,34.19 -2.1,50.33l-2.62 47.51 -20.16 0 7.89 -118.18 28.39 0 15.42 47.52c4.22,13.85 7.89,27.88 10.88,41.03l0.52 0c3.17,-12.8 7.2,-27.35 11.75,-41.21l16.29 -47.33 28.06 0 6.84 118.18 -21.04 0 -2.28 -48.22z"/>
   <path class="fil2" d="M892.11 1420.37l0 -279.03 -38.05 0 0 295.82 188.79 0 0 -16.79 -150.74 0zm221.36 -155.41l-36.34 0 0 172.2 36.34 0 0 -172.2zm5.65 -77.41c0,-12.15 -10.8,-22.63 -23.81,-22.63 -12.52,0 -23.33,10.48 -23.33,22.63 0,12.27 10.81,22.74 23.33,22.74 13.01,0 23.81,-10.48 23.81,-22.74zm157.28 94.2l0 -16.79 -56.22 0 0 -58.48 -36.46 0 0 58.48 -30.32 0 0 16.79 30.32 0 0 123.86c0,20.25 20.87,36.56 46.4,36.56 11.29,0 21.6,-3.34 29.46,-8.34l-8.71 -14.76c-3.92,2.5 -10.8,5.95 -15.95,5.95 -8.23,0 -14.73,-6.31 -14.73,-13.93l0 -129.34 56.22 0zm137.02 0l0 -16.79 -56.22 0 0 -58.48 -36.46 0 0 58.48 -30.31 0 0 16.79 30.31 0 0 123.86c0,20.25 20.87,36.56 46.4,36.56 11.29,0 21.6,-3.34 29.46,-8.34l-8.71 -14.76c-3.93,2.5 -10.8,5.95 -15.95,5.95 -8.22,0 -14.73,-6.31 -14.73,-13.93l0 -129.34 56.22 0zm72.09 -148.75l-36.34 0 0 304.16 36.34 0 0 -304.16zm127.94 309.17c31.67,0 59.41,-19.3 73.65,-47.4l-14.73 -8.81c-11.29,23.46 -33.75,39.42 -58.92,39.42 -41.98,0 -45.05,-35.73 -45.05,-76.46l0 -5.83 121.28 0c0,-52.17 -34.62,-87.42 -76.23,-87.42 -46.77,0 -84.82,41.56 -84.82,93.25 0,51.69 38.05,93.25 84.82,93.25zm0 -169.71c29.09,0 36.46,23.58 37.69,53.84l-81.88 0c1.72,-30.25 10.43,-53.84 44.19,-53.84zm302.27 -16.79c-22.09,0 -43.33,12.62 -58.06,32.39l0 -155.06 -36.34 0 0 304.16 36.34 0 0 -25.25c13.87,18.58 33.39,30.25 54.99,30.25 50.7,0 91.82,-41.56 91.82,-93.25 0,-51.68 -37.68,-93.25 -88.75,-93.25zm-3.07 169.71c-28.6,0 -54.99,-31.44 -54.99,-68 0,0 0,-18.58 0,-18.58 0,-34.41 26.88,-66.34 54.99,-66.34 45.42,0 51.93,35.73 51.93,76.46 0,40.73 -6.51,76.46 -51.93,76.46zm169.92 -160.42l-36.33 0 0 172.2 36.33 0 0 -172.2zm5.65 -77.41c0,-12.15 -10.8,-22.63 -23.81,-22.63 -12.52,0 -23.32,10.48 -23.32,22.63 0,12.27 10.8,22.74 23.32,22.74 13.01,0 23.81,-10.48 23.81,-22.74zm157.28 94.2l0 -16.79 -56.22 0 0 -58.48 -36.46 0 0 58.48 -30.32 0 0 16.79 30.32 0 0 123.86c0,20.25 20.87,36.56 46.4,36.56 11.29,0 21.61,-3.34 29.46,-8.34l-8.72 -14.76c-3.92,2.5 -10.8,5.95 -15.95,5.95 -8.22,0 -14.73,-6.31 -14.73,-13.93l0 -129.34 56.22 0zm94.6 160.42c31.67,0 59.41,-19.3 73.65,-47.4l-14.73 -8.81c-11.29,23.46 -33.75,39.42 -58.92,39.42 -41.98,0 -45.05,-35.73 -45.05,-76.46l0 -5.83 121.28 0c0,-52.17 -34.61,-87.42 -76.23,-87.42 -46.76,0 -84.82,41.56 -84.82,93.25 0,51.69 38.06,93.25 84.82,93.25zm0 -169.71c29.09,0 36.46,23.58 37.69,53.84l-81.87 0c1.71,-30.25 10.43,-53.84 44.19,-53.84zm127.08 26.44c0,-23.1 26.89,-26.44 35.47,-26.44 15.59,0 29.09,6.79 36.83,16.44l12.15 -11.79c-11.29,-12.98 -28.6,-21.44 -48.98,-21.44 -33.26,0 -60.64,23.58 -60.64,52.04 0,39.18 28.23,46.21 56.83,51.33 25.53,4.64 49.71,9.17 49.71,32.75 0,24.77 -30.69,33.58 -45.91,33.58 -18.17,0 -33.75,-7.98 -42.84,-19.77l-12.52 11.79c12.52,15.12 32.9,24.77 55.36,24.77 37.69,0 68,-25.96 68,-58.36 0,-44.54 -30.32,-53.35 -61.01,-58 -22.59,-3.34 -42.47,-7.15 -42.47,-26.92zm310.5 -43.23c-50.7,0 -91.82,41.56 -91.82,93.25 0,51.69 41.12,93.25 91.82,93.25 51.06,0 91.82,-41.56 91.82,-93.25 0,-51.68 -40.75,-93.25 -91.82,-93.25zm0 169.71c-45.05,0 -52.04,-35.73 -52.04,-76.46 0,-40.73 6.99,-76.46 52.04,-76.46 45.42,0 52.42,35.73 52.42,76.46 0,40.73 -7,76.46 -52.42,76.46zm207.48 -297.37c-41.12,0 -63.22,35.25 -63.22,78.96l0 58 -36.33 0 0 16.79 36.33 0 0 155.42 36.33 0 0 -155.42 50.33 0 0 -16.79 -50.33 0 0 -85.75c0,-15.12 10.43,-33.58 28.61,-33.58 10.8,0 20.87,7.14 25.16,11.67l13.02 -11.31c-11.3,-11.32 -25.16,-17.98 -39.9,-17.98zm205.67 59.55c0,-12.15 -10.8,-22.63 -23.81,-22.63 -12.52,0 -23.32,10.48 -23.32,22.63 0,12.27 10.8,22.74 23.32,22.74 13.01,0 23.81,-10.48 23.81,-22.74zm-41.98 77.41l0 226.87c0,24.77 -13.5,44.89 -29.95,44.89 -4.66,0 -10.8,-2.5 -13.74,-4.17l-9.21 14.29c7.86,4.64 16.94,7.14 26.51,7.14 34.62,0 62.73,-35.37 62.73,-78.6l0 -210.43 -36.33 0zm164.77 -9.3c-50.7,0 -91.82,41.56 -91.82,93.25 0,51.69 41.13,93.25 91.82,93.25 51.06,0 91.82,-41.56 91.82,-93.25 0,-51.68 -40.75,-93.25 -91.82,-93.25zm0 169.71c-45.05,0 -52.05,-35.73 -52.05,-76.46 0,-40.73 7,-76.46 52.05,-76.46 45.42,0 52.41,35.73 52.41,76.46 0,40.73 -6.99,76.46 -52.41,76.46zm262.47 -160.42l-58.06 126.35 -57.94 -126.35 -39.89 0 77.94 170.06 -47.13 103.37 19.4 0 125.2 -273.43 -19.52 0zm-2683.98 155.4l0 -278.97 -38.1 0 0 295.77 188.8 0 0 -16.8 -150.69 0zm221.71 -155.45l-36.37 0 0 172.26 36.37 0 0 -172.26zm5.63 -77.3c0,-12.19 -10.83,-22.69 -23.82,-22.69 -12.56,0 -23.39,10.5 -23.39,22.69 0,12.18 10.83,22.69 23.39,22.69 12.99,0 23.82,-10.51 23.82,-22.69zm157.62 94.11l0 -16.81 -56.29 0 0 -58.4 -36.38 0 0 58.4 -30.31 0 0 16.81 30.31 0 0 123.93c0,20.17 20.79,36.55 46.33,36.55 11.26,0 21.65,-3.36 29.45,-8.41l-8.66 -14.7c-3.9,2.52 -10.83,5.88 -16.03,5.88 -8.23,0 -14.72,-6.31 -14.72,-13.87l0 -129.4 56.29 0zm137.27 0l0 -16.81 -56.29 0 0 -58.4 -36.38 0 0 58.4 -30.32 0 0 16.81 30.32 0 0 123.93c0,20.17 20.78,36.55 46.33,36.55 11.26,0 21.65,-3.36 29.44,-8.41l-8.65 -14.7c-3.9,2.52 -10.83,5.88 -16.03,5.88 -8.23,0 -14.72,-6.31 -14.72,-13.87l0 -129.4 56.29 0zm72.31 -148.73l-36.37 0 0 304.17 36.37 0 0 -304.17zm128.18 309.21c31.61,0 59.32,-19.33 73.62,-47.48l-14.73 -8.82c-11.26,23.53 -33.77,39.5 -58.89,39.5 -42.01,0 -45.04,-35.72 -45.04,-76.46l0 -5.89 121.25 0c0,-52.09 -34.64,-87.39 -76.21,-87.39 -46.77,0 -84.88,41.6 -84.88,93.27 0,51.68 38.11,93.27 84.88,93.27zm0 -169.74c29.01,0 36.37,23.53 37.67,53.78l-81.85 0c1.73,-30.25 10.39,-53.78 44.17,-53.78zm302.68 -16.8c-22.08,0 -43.3,12.61 -58.03,32.35l0 -155.03 -36.37 0 0 304.17 36.37 0 0 -25.2c13.85,18.49 33.34,30.25 55,30.25 50.66,0 91.8,-41.6 91.8,-93.27 0,-51.68 -37.67,-93.27 -88.77,-93.27zm-3.03 169.73c-28.59,0 -55,-31.51 -55,-68.06l0 -18.49c0,-34.45 26.85,-66.38 55,-66.38 45.47,0 51.96,35.7 51.96,76.46 0,40.75 -6.49,76.46 -51.96,76.46zm170.18 -160.49l-36.37 0 0 172.26 36.37 0 0 -172.26zm5.63 -77.3c0,-12.19 -10.83,-22.69 -23.82,-22.69 -12.56,0 -23.39,10.5 -23.39,22.69 0,12.18 10.83,22.69 23.39,22.69 12.99,0 23.82,-10.51 23.82,-22.69zm157.62 94.11l0 -16.81 -56.29 0 0 -58.4 -36.38 0 0 58.4 -30.32 0 0 16.81 30.32 0 0 123.93c0,20.17 20.78,36.55 46.33,36.55 11.26,0 21.65,-3.36 29.44,-8.41l-8.66 -14.7c-3.89,2.52 -10.82,5.88 -16.02,5.88 -8.23,0 -14.72,-6.31 -14.72,-13.87l0 -129.4 56.29 0zm94.84 160.49c31.61,0 59.32,-19.33 73.61,-47.48l-14.72 -8.82c-11.26,23.53 -33.77,39.5 -58.89,39.5 -42.01,0 -45.04,-35.72 -45.04,-76.46l0 -5.89 121.25 0c0,-52.09 -34.64,-87.39 -76.21,-87.39 -46.77,0 -84.88,41.6 -84.88,93.27 0,51.68 38.11,93.27 84.88,93.27zm0 -169.74c29.01,0 36.37,23.53 37.67,53.78l-81.85 0c1.73,-30.25 10.39,-53.78 44.17,-53.78zm127.3 26.47c0,-23.1 26.85,-26.47 35.51,-26.47 15.59,0 29.01,6.72 36.81,16.38l12.13 -11.76c-11.26,-13.02 -28.59,-21.43 -48.94,-21.43 -33.35,0 -60.62,23.53 -60.62,52.1 0,39.07 28.14,46.22 56.72,51.26 25.56,4.62 49.8,9.24 49.8,32.77 0,24.79 -30.75,33.61 -45.9,33.61 -18.19,0 -33.77,-7.98 -42.87,-19.74l-12.56 11.76c12.56,15.12 32.92,24.79 55.43,24.79 37.67,0 67.99,-26.05 67.99,-58.4 0,-44.53 -30.32,-53.35 -61.06,-57.98 -22.52,-3.36 -42.44,-7.14 -42.44,-26.89zm310.91 -43.28c-50.66,0 -91.8,41.6 -91.8,93.27 0,51.67 41.14,93.27 91.8,93.27 51.1,0 91.8,-41.6 91.8,-93.27 0,-51.68 -40.71,-93.27 -91.8,-93.27zm0 169.73c-45.03,0 -51.97,-35.71 -51.97,-76.46 0,-40.76 6.93,-76.46 51.97,-76.46 45.47,0 52.4,35.7 52.4,76.46 0,40.75 -6.93,76.46 -52.4,76.46zm207.85 -297.45c-41.14,0 -63.22,35.29 -63.22,78.98l0 57.98 -36.38 0 0 16.8 36.38 0 0 155.45 36.38 0 0 -155.45 50.23 0 0 -16.8 -50.23 0 0 -85.71c0,-15.12 10.39,-33.61 28.58,-33.61 10.83,0 20.78,7.14 25.12,11.76l12.98 -11.34c-11.26,-11.34 -25.11,-18.06 -39.84,-18.06zm206.11 59.66c0,-12.19 -10.82,-22.69 -23.82,-22.69 -12.56,0 -23.39,10.5 -23.39,22.69 0,12.18 10.83,22.69 23.39,22.69 13,0 23.82,-10.51 23.82,-22.69zm-42 77.3l0 226.87c0,24.79 -13.43,44.95 -29.88,44.95 -4.76,0 -10.83,-2.52 -13.85,-4.2l-9.09 14.29c7.79,4.62 16.88,7.14 26.41,7.14 34.64,0 62.78,-35.29 62.78,-78.57l0 -210.48 -36.37 0zm164.98 -9.24c-50.67,0 -91.81,41.6 -91.81,93.27 0,51.67 41.14,93.27 91.81,93.27 51.1,0 91.8,-41.6 91.8,-93.27 0,-51.68 -40.71,-93.27 -91.8,-93.27zm0 169.73c-45.04,0 -51.97,-35.71 -51.97,-76.46 0,-40.76 6.93,-76.46 51.97,-76.46 45.46,0 52.39,35.7 52.39,76.46 0,40.75 -6.93,76.46 -52.39,76.46zm260.68 -160.49l-58.02 126.47 -58.03 -126.47 -39.84 0 77.95 170.16 -47.2 103.35 19.49 0 125.15 -273.51 -19.49 0z"/>
  </g>
 </g>
</svg>
