<svg xmlns="http://www.w3.org/2000/svg" viewBox="0 0 416.79 285.66"><defs><style>.cls-1,.cls-2,.cls-6{fill:#dd2229;}.cls-2{font-size:147.67px;font-family:AlternateGotNo2D;letter-spacing:-0.01em;}.cls-3{letter-spacing:0em;}.cls-4{letter-spacing:-0.03em;}.cls-5{letter-spacing:0em;}.cls-6{font-size:45.95px;font-family:PublicaSans-ExtraBold, Publica Sans;font-weight:800;letter-spacing:0.04em;}.cls-7{letter-spacing:0.01em;}.cls-8{letter-spacing:0.04em;}</style></defs><g id="Layer_2" data-name="Layer 2"><g id="Layer_1-2" data-name="Layer 1"><path class="cls-1" d="M243.46,65.21c-1.32,16-4.22,31.15-21.62,37.59-9.84,3.64-23.06.85-33.53-7,17.17-11,35.77-19.51,51.25-33-15.55,3.27-30.88,5.44-42.35-8.75-8.16-10.09-7.44-21.91-4.65-34.74L238.83,59l1.58-1c-9.1-15.31-15.95-30.83-2-46.6C245.64,3.14,255.67,1,267.15,0,259.42,19.34,250,37.06,245,56.73c11.61-12.58,23.83-23.4,42.4-16.25,10.78,4.15,16.65,13.17,20.89,24.46-20.6-1.32-40.35-5.1-60.62-3.54,15.82,7.09,29.89,15.65,28.56,35.67-.76,11.37-7.56,19.82-16.58,27.07-4.78-20.07-9.41-39.54-14-59Z"/><text class="cls-2" transform="translate(0 227.56) scale(0.99 1)">C<tspan class="cls-3" x="56.51" y="0">ARNI</tspan><tspan class="cls-4" x="260.79" y="0">V</tspan><tspan class="cls-5" x="312.04" y="0">AL</tspan></text><text class="cls-6" transform="translate(183.78 275.19)">CINEM<tspan class="cls-7" x="165.46" y="0">A</tspan><tspan class="cls-8" x="200.47" y="0">S</tspan></text></g></g></svg>