<svg xmlns="http://www.w3.org/2000/svg" viewBox="0 0 99.84 72"><defs><style>.cls-1{fill:#be212e;}.cls-2{fill:#fff;}</style></defs><g id="Layer_2" data-name="Layer 2"><g id="svg4403"><rect class="cls-1" x="0.26" y="57.41" width="99.33" height="1.55"/><path class="cls-1" d="M3.2,70.41a4.27,4.27,0,0,0,2.12.6c1.21,0,1.92-.64,1.92-1.57s-.49-1.35-1.73-1.82C4,67.09,3.09,66.31,3.09,65s1.18-2.5,3-2.5a4.19,4.19,0,0,1,2,.45l-.33,1A3.68,3.68,0,0,0,6,63.5c-1.26,0-1.73.75-1.73,1.38,0,.86.56,1.28,1.82,1.77,1.55.6,2.34,1.35,2.34,2.69S7.41,72,5.24,72A4.71,4.71,0,0,1,2.9,71.4Z"/><path class="cls-1" d="M19.23,63.68H16.44v-1h6.79v1h-2.8v8.17h-1.2Z"/><path class="cls-1" d="M32.86,62.67v5.44c0,2,.91,2.92,2.13,2.92s2.24-.89,2.24-2.92V62.67h1.19V68c0,2.82-1.48,4-3.47,4s-3.29-1.08-3.29-3.92V62.67Z"/><path class="cls-1" d="M47.9,62.8a16.82,16.82,0,0,1,2.52-.19,5.23,5.23,0,0,1,3.71,1.14A4.22,4.22,0,0,1,55.43,67a4.88,4.88,0,0,1-1.32,3.57,5.66,5.66,0,0,1-4.06,1.32,18.56,18.56,0,0,1-2.15-.11Zm1.18,8.11a6.91,6.91,0,0,0,1.2.07,3.53,3.53,0,0,0,3.91-3.89c0-2.17-1.21-3.55-3.72-3.55a6.51,6.51,0,0,0-1.39.13Z"/><path class="cls-1" d="M65.57,62.67v9.18H64.38V62.67Z"/><path class="cls-1" d="M82.89,67.17C82.89,70.32,81,72,78.63,72s-4.13-1.88-4.13-4.66,1.81-4.82,4.26-4.82S82.89,64.44,82.89,67.17Zm-7.12.15c0,2,1.06,3.71,2.93,3.71s2.94-1.73,2.94-3.81c0-1.82-1-3.73-2.93-3.73S75.77,65.3,75.77,67.32Z"/><path class="cls-1" d="M91.68,70.41a4.28,4.28,0,0,0,2.13.6c1.21,0,1.92-.64,1.92-1.57s-.49-1.35-1.73-1.82c-1.5-.53-2.43-1.31-2.43-2.6s1.19-2.5,3-2.5a4.19,4.19,0,0,1,2,.45l-.33,1a3.68,3.68,0,0,0-1.74-.44c-1.25,0-1.73.75-1.73,1.38,0,.86.56,1.28,1.83,1.77,1.55.6,2.34,1.35,2.34,2.69S95.89,72,93.73,72a4.72,4.72,0,0,1-2.35-.59Z"/><path class="cls-1" d="M18.47,40.42l-3.44-7h-1l-3.58,6.37L6.63,33.46H0L10.18,49.9l3.55-5.63h1.11L18,49.9,28,33.46H21.87Z"/><path class="cls-1" d="M67.55,34.45A19.5,19.5,0,1,0,30.07,42l.39.49C30.61,33.12,35,25.4,41.12,23.24A15.69,15.69,0,0,1,49.56,23a14.23,14.23,0,0,1,7.08,4.65.34.34,0,0,1,0,.44l-14,13.64a1.47,1.47,0,0,1-1.92,0,1.49,1.49,0,0,1-.3-1.85l9.18-8.3a1.6,1.6,0,0,0,.52-.88c.27-1.51-2.22-2.95-2.37-3-2.51-1.43-6.48-.69-9,1.41a10.4,10.4,0,0,0-1.85,13.4,9.81,9.81,0,0,0,5.77,3.77c4.42,1,8.11-1.53,9.45-2.44,3-2.08,3.55-3.93,7.74-9.08a81.61,81.61,0,0,1,5.63-6.24,39.6,39.6,0,0,0-3.6,5.46c-.5.92-.68,1.37-2.78,5.75C57.91,42,57.83,42.47,57.2,43.5a19,19,0,0,1-7.93,7.25,18.7,18.7,0,0,1-8.43,1.8c9.18,2.3,18.24-.41,23.1-6.8A19.77,19.77,0,0,0,67.55,34.45Z"/><rect class="cls-1" x="57.45" y="9.81" width="8.19" height="8.19" rx="1.48" transform="translate(18.79 -32.5) rotate(34.62)"/><rect class="cls-1" x="63.92" y="-0.63" width="1.63" height="8.88" rx="0.78" transform="translate(13.63 -36.1) rotate(34.62)"/><rect class="cls-1" x="57.41" y="3.34" width="1.63" height="8.88" rx="0.78" transform="translate(14.73 -31.7) rotate(34.62)"/><rect class="cls-1" x="68.19" y="2.32" width="1.63" height="8.88" rx="0.62" transform="translate(16.05 -38) rotate(34.62)"/><rect class="cls-1" x="69.98" y="4.11" width="1.63" height="8.88" rx="0.68" transform="matrix(0.82, 0.57, -0.57, 0.82, 17.39, -38.7)"/><rect class="cls-1" x="66.61" y="-0.71" width="1.63" height="10.4" rx="0.7" transform="translate(14.48 -37.5) rotate(34.62)"/><path class="cls-1" d="M69,35V49.9h8a7.77,7.77,0,0,0,4.29-3.15,8,8,0,0,0,1.15-4.81,7.14,7.14,0,0,0-1.26-4.44A6.8,6.8,0,0,0,77,35Z"/><circle class="cls-1" cx="91.71" cy="42.27" r="8.13"/><path class="cls-2" d="M73.31,39.35v5.77h2.85a2.8,2.8,0,0,0,1.53-1.22A3.32,3.32,0,0,0,78.1,42a2.9,2.9,0,0,0-.45-1.72,2.35,2.35,0,0,0-1.49-1Z"/><circle class="cls-2" cx="91.71" cy="42.27" r="3.69"/></g></g></svg>