<svg xmlns="http://www.w3.org/2000/svg" viewBox="0 0 353.14 72"><defs><style>.cls-1{fill:#da0112;}</style></defs><g id="Layer_2" data-name="Layer 2"><g id="svg4403"><path id="path2534" class="cls-1" d="M340.85,72a1.07,1.07,0,0,0,1.07-1.07V63.45a1.07,1.07,0,0,0-1.07-1.07h-9.91c-2.31,0-8.43-.12-11.81-1.77a6.62,6.62,0,0,1-2.47-1.89,4.08,4.08,0,0,1-.76-2.56V1.25A1.07,1.07,0,0,0,314.83.18h-22a1.06,1.06,0,0,0-1.06,1.07V54.41a13.14,13.14,0,0,0,1.86,7.22,17.1,17.1,0,0,0,6,5.39c8.17,4.44,23,5,28.61,4.93h12.63"/><path id="path2536" class="cls-1" d="M192.88.18c-5.62,0-20.44.48-28.61,4.93a17.1,17.1,0,0,0-6,5.39c-1.22,1.8-1.86,4.41-1.86,7.88V71.15a1.69,1.69,0,0,0,1.06.48h22a1.06,1.06,0,0,0,1.06-1.07V28.84h13.23a1.07,1.07,0,0,0,1.07-1.07V20.34a1.07,1.07,0,0,0-1.07-1.07H180.55V16a4.13,4.13,0,0,1,.77-2.57,6.71,6.71,0,0,1,2.47-1.88c3.38-1.65,9.5-1.77,11.81-1.77h9.91a1.07,1.07,0,0,0,1.07-1.07V1.25A1.07,1.07,0,0,0,205.51.18H192.88"/><path id="path2538" class="cls-1" d="M50.28,71.63a1.07,1.07,0,0,0,1.07-1.07V9.9H77.59a1.06,1.06,0,0,0,1.07-1.07V1.4A1.06,1.06,0,0,0,77.59.33H1.07A1.07,1.07,0,0,0,0,1.4V8.83A1.07,1.07,0,0,0,1.07,9.9H27.26V70.56a1.07,1.07,0,0,0,1.07,1.07h22"/><path id="path2540" class="cls-1" d="M145.2,71.63a1.07,1.07,0,0,0,1.07-1.07V63.13a1.07,1.07,0,0,0-1.07-1.07H102.93c-2.32,0-8.44-.12-11.81-1.77a6.83,6.83,0,0,1-2.48-1.88,4.21,4.21,0,0,1-.76-2.57V51.9h21.56c5.62,0,20.44-.29,28.61-4.29a16.23,16.23,0,0,0,6-4.56c2.81-3.75,3-11.25,0-15.31a16.19,16.19,0,0,0-6-4.55c-8.17-4-23-4.3-28.61-4.3h-9.25c-5.62,0-20.45.44-28.61,4.44a16.6,16.6,0,0,0-6,4.86,11,11,0,0,0-1.85,6.51V55.83a11,11,0,0,0,1.85,6.51,16.69,16.69,0,0,0,6,4.85c8.16,4,23,4.47,28.61,4.44ZM121.78,36.11a4.1,4.1,0,0,1-.77,2.56,6.6,6.6,0,0,1-2.47,1.88c-3.37,1.66-9.49,1.78-11.82,1.78H87.85V34a4.16,4.16,0,0,1,.76-2.56,6.73,6.73,0,0,1,2.48-1.88c3.37-1.66,9.5-1.78,11.82-1.78h3.81c2.33,0,8.45.12,11.82,1.78A6.6,6.6,0,0,1,121,31.48a4.1,4.1,0,0,1,.77,2.56v2.07"/><path id="path2542" class="cls-1" d="M277.59,28.57a16.56,16.56,0,0,0-6-4.86c-8.16-4-23-4.47-28.6-4.44H206.06A1.07,1.07,0,0,0,205,20.34v7.43a1.07,1.07,0,0,0,1.07,1.07h34.19c2.32,0,8.44.12,11.81,1.78a6.46,6.46,0,0,1,2.48,1.88,4.1,4.1,0,0,1,.76,2.56v3.57H233.75c-5.62,0-20.45.29-28.61,4.29a16.25,16.25,0,0,0-6,4.56c-3,4-3,11.67,0,15.67a16.17,16.17,0,0,0,6,4.56c8.16,4,23,4.29,28.6,4.29H243c5.62,0,20.44-.44,28.6-4.44a16.54,16.54,0,0,0,6-4.85,11,11,0,0,0,1.85-6.51V35.07A11,11,0,0,0,277.59,28.57ZM255.33,56.85a4.19,4.19,0,0,1-.76,2.57,6.73,6.73,0,0,1-2.48,1.88c-3.37,1.65-9.49,1.77-11.81,1.77h-3.82c-2.32,0-8.45-.12-11.82-1.77a6.6,6.6,0,0,1-2.47-1.88,4.13,4.13,0,0,1-.76-2.57V54.42a4.11,4.11,0,0,1,.76-2.57A6.6,6.6,0,0,1,224.64,50c3.37-1.65,9.5-1.77,11.82-1.77h18.87v8.65"/><path id="path2544" class="cls-1" d="M346.43,5.29V3.6h1.25c.6,0,1.18,0,1.18.78s-.52.91-1.27.91Zm0,.94h.8l1.58,2.5h1.26l-1.7-2.58A1.62,1.62,0,0,0,350,4.45,1.71,1.71,0,0,0,348,2.66h-2.67V8.73h1.09V6.23"/><path id="path2546" class="cls-1" d="M347.46,0a5.67,5.67,0,1,0,5.68,5.67A5.66,5.66,0,0,0,347.46,0Zm0,10.28a4.61,4.61,0,1,1,4.61-4.61,4.61,4.61,0,0,1-4.61,4.61"/></g></g></svg>