<?xml version="1.0" encoding="utf-8"?>
<!-- Generator: Adobe Illustrator 24.3.0, SVG Export Plug-In . SVG Version: 6.00 Build 0)  -->
<svg version="1.1" id="Layer_1" xmlns="http://www.w3.org/2000/svg" xmlns:xlink="http://www.w3.org/1999/xlink" x="0px" y="0px"
	 viewBox="0 0 216.1 72" style="enable-background:new 0 0 216.1 72;" xml:space="preserve">
<style type="text/css">
	.st0{fill:#FFFFFF;}
	.st1{fill:#EDAC09;}
</style>
<g id="Layer_2_1_">
	<g id="svg4403">
		<g id="g10">
			<g id="g12">
				<path id="path36" class="st0" d="M51,7.8L39.9,48.4h-6.5l-7.9-29.5l-8,29.5h-6.4L0,7.8h6.4l7.9,29.5l8-29.5h6.3l8,29.5l7.9-29.5
					H51"/>
				<path id="path38" class="st0" d="M53.9,7.9l6.4-0.5v10l-0.1,3.7h0.2c2.6-1.1,5.4-1.6,8.3-1.6c5.2,0,8.7,2.3,8.7,11.2v17.7H71
					V31.2c0-5.4-2.6-6.1-5.6-6.1c-1.7,0-3.4,0.3-5.1,0.9v22.4H54L53.9,7.9"/>
				<path id="path40" class="st0" d="M83,19.8h6.4v28.6H83V19.8z M86.2,8.3c3.3,0,3.8,1.9,3.8,4.1s-0.7,4.1-3.8,4.1s-3.8-2-3.8-4.1
					S83,8.3,86.2,8.3"/>
				<path id="path42" class="st0" d="M94.8,19.8h4.4l0.9,2.3h0.4c2.2-1.8,5-2.8,7.9-2.7c0.4,0,0.9,0,1.3,0v6.3
					c-1.2-0.2-2.4-0.3-3.6-0.4c-1.7,0-3.3,0.4-4.8,1.2v21.9h-6.4V19.8"/>
				<path id="path44" class="st0" d="M112.4,48.4V7.9l6.4-0.5v41L112.4,48.4"/>
				<path id="path46" class="st0" d="M170.3,34.3c0-5.4-0.9-9.8-6-9.8s-6.5,4.2-6.5,9.8c0,5.2,1,9.7,6.2,9.7S170.3,39.7,170.3,34.3z
					 M164.3,19.4c9.1,0,12.6,5.4,12.6,14.8c0,8.9-3.3,14.7-12.7,14.7s-12.8-5.8-12.8-14.7C151.4,24.8,155.2,19.4,164.3,19.4"/>
				<path id="path48" class="st0" d="M199,34.3c0-5.4-0.9-9.8-6-9.8s-6.5,4.2-6.5,9.8c0,5.2,1.1,9.7,6.2,9.7S199,39.7,199,34.3z
					 M193,19.4c9.1,0,12.6,5.4,12.6,14.8c0,8.9-3.3,14.7-12.7,14.7s-12.7-5.8-12.7-14.7C180.1,24.8,183.9,19.4,193,19.4"/>
				<path id="path50" class="st0" d="M209.7,48.4V7.9l6.4-0.5v41L209.7,48.4"/>
				<path id="path52" class="st0" d="M130.4,43.1c1.8,0.1,2.8,0.1,4.6,0.1c4,0,6.6-2.1,6.6-10.4c0-5.7-2.3-7.2-6.5-7.2
					c-1.6,0-3.2,0.3-4.7,0.8L130.4,43.1L130.4,43.1z M124,19.8h4.8l0.5,2.1c2.7-1.5,5.6-2.3,8.7-2.5c5.8,0,10.1,4.2,10.1,14.4
					c0,10-4.5,15-11.9,15c-1.9,0-3.9-0.2-5.8-0.6v13L124,62V19.8"/>
				<path id="path54" class="st1" d="M155.7,2.3c-4.8-5.6-20-0.7-36.9,11.1v3c14.9-10.7,28.1-15.6,31.9-11.2
					c4.7,5.5-7,23.3-26.2,39.8S86,70.5,81.3,65c-2.4-2.8-0.5-9,4.7-16.6h-3c-6.4,9.5-8.8,17.5-5.5,21.3c6,6.9,28.3-2.5,49.9-21.2
					S161.7,9.2,155.7,2.3"/>
			</g>
		</g>
	</g>
</g>
</svg>
