<?xml version="1.0" encoding="utf-8"?>
<!-- Generator: Adobe Illustrator 24.3.0, SVG Export Plug-In . SVG Version: 6.00 Build 0)  -->
<svg version="1.1" id="Layer_1" xmlns="http://www.w3.org/2000/svg" xmlns:xlink="http://www.w3.org/1999/xlink" x="0px" y="0px"
	 viewBox="0 0 521.6 72" style="enable-background:new 0 0 521.6 72;" xml:space="preserve">
<style type="text/css">
	.st0{fill:#FFFFFF;}
</style>
<g id="Layer_2_1_">
	<g id="svg4403">
		<path class="st0" d="M309.7,63c-4.7,0.1-9.4-0.8-13.8-2.6c-6.4-2.7-11.3-8.1-13.3-14.8c-1.9-6.1-1.9-12.7,0-18.8
			c2.1-7.4,7.7-13.3,14.9-15.7c8.1-3,17-2.9,25,0.3c8.5,3.4,13.4,9.9,15,18.8c1,5.3,0.7,10.7-1,15.9c-3,8.5-9,13.8-17.7,15.9
			c-3,0.7-6.1,0.9-9.1,1.3L309.7,63z M288.7,36.8c0.1,1.1,0.2,2.9,0.4,4.7c0.2,1.2,0.4,2.4,0.7,3.6c1.6,5.8,4.6,10.4,10.1,13.1
			c4.1,1.9,8.7,2.6,13.1,1.9c6.8-0.9,12.1-4.3,14.9-10.7c3.7-8.3,3.8-17.8,0.3-26.2c-1.9-4.9-6-8.7-11-10.3
			c-3.6-1.2-7.4-1.5-11.2-0.9c-6.6,1-11.6,4.3-14.6,10.4C289.3,26.8,288.8,31.4,288.7,36.8L288.7,36.8z"/>
		<path class="st0" d="M189.4,10c1.7,0.1,3.5,0.3,5.3,0.2c2.9,0,5.8-0.2,8.7-0.2c4-0.1,7.9,0,11.7,1.5c4.3,1.7,6.4,5.3,6.2,9.9
			c-0.2,6.1-3.8,9.5-9.1,11.6c-1.1,0.4-2.2,0.8-3.4,1.1c1.6,0.3,3.2,0.5,4.8,0.8c6.9,1.7,9.9,6,9.5,13c-0.4,6.8-5.1,11.1-10.9,12.8
			c-2.9,0.8-6,1.2-9,1.1c-2.3,0-4.7-0.1-7-0.1s-4.6,0-6.9,0c0.1-8.5,0.4-17.2,0.4-25.8S189.5,18.8,189.4,10z M196.4,59
			c3.4,0.2,6.6,0.7,9.9,0.2c3.5-0.5,6.6-2.7,8.3-5.8c1.3-2.3,1.8-5,1.5-7.6c-0.4-4.7-2.4-7.2-6.9-8.6c-4.2-1.3-8.6-1.1-13.2-1
			C196.1,43.8,196.2,51.4,196.4,59L196.4,59z M195.9,33.1c3.8,0.1,7.4,0.2,10.9-0.9c4.2-1.3,7.1-3.7,7.6-8.3
			c0.7-5.5-1.6-9.4-6.8-10.6c-3.7-0.8-7.5-0.8-11.3-0.2C196.2,19.8,196.1,26.5,195.9,33.1L195.9,33.1z"/>
		<path class="st0" d="M243.8,37.2c0.2,8.2,0.4,16.4,0.6,24.7h-7.3c0.8-17.3,0.8-34.6,0-51.9c2,0.1,3.9,0.3,5.8,0.3
			c3.1,0,6.3-0.2,9.4-0.2c3.4-0.2,6.7,0.1,10,1.1c5.8,1.9,8.4,6.3,7.8,12.4c-0.4,3.9-2.5,6.7-5.5,9c-2.7,1.9-5.8,3.2-9.1,3.8
			c-0.2,0-0.4,0.1-0.9,0.2L275,61.9h-5.5c-0.4-0.1-0.8-0.1-1.3,0c-1.4,0.4-2.1-0.3-3-1.4c-5.2-6.9-10.6-13.7-15.9-20.6
			c-0.4-0.5-1-0.9-1.3-1.5C247,36.8,245.5,37,243.8,37.2z M244.3,13.2c-0.2,6.9-0.3,13.8-0.5,20.7c3.7,0.7,7.5,0.6,11.1-0.4
			c5.1-1.5,8-4.9,8.5-9.7c0.5-5.2-2.2-9.1-7.1-10.4C252.4,12.4,248.4,12.8,244.3,13.2L244.3,13.2z"/>
		<path class="st0" d="M356.5,61.9h-5.3c1.4-17.6,1.9-35.2,1.3-52.8c0.7-0.3,1.4,0,1.8,0.6c9.8,10.5,19.5,21,29.3,31.5
			c2.5,2.7,5.1,5.3,7.6,8c0.2,0.2,0.4,0.4,0.8,0.8c0-13.4,0-26.6-0.6-39.7h5c-1.5,17.5-1.3,35.1-0.9,52.6c-0.6,0.3-1.3,0.1-1.7-0.4
			c-12-13.8-24.6-27-37.1-40.4c-0.1-0.2-0.3-0.4-0.5-0.5C355.7,35,356,48.4,356.5,61.9z"/>
		<path class="st0" d="M122.1,13.7c-9.8-0.2-19.7,0.1-29.5,0.9v-4.5c13,0.2,26.2,0.5,39.6,0c-0.1,0.6-0.2,1.1-0.5,1.6
			c-3.8,5.1-7.8,10.2-11.5,15.4c-7,10-13.7,20.1-20.6,30.2c-0.2,0.3-0.4,0.7-0.7,1.2c11.1,0.5,22-0.3,32.9-1.1v4.5H89.1
			c0.1-0.6,0.3-1.1,0.6-1.6L121.2,15C121.5,14.6,121.7,14.2,122.1,13.7z"/>
		<path class="st0" d="M519.4,12.4c-0.7,2.3-1.4,4.4-2,6.5c-0.6,0.2-0.9-0.1-1.1-0.7c-1.1-2.9-3-5.2-6.1-6c-3.5-1.1-7.3-0.2-9.8,2.5
			c-2.7,2.7-3.1,6.1-2.1,9.8c0.7,2,2.1,3.7,4,4.7c2.4,1.3,4.9,2.6,7.5,3.6c3.1,1.3,6.1,2.5,8.6,4.9c2,1.8,3.1,4.3,3.3,7
			c0.3,5.3-1,10-5,13.7c-2.9,2.7-6.7,4.3-10.7,4.5c-2.2,0.1-4.5,0.1-6.7-0.1c-2.9-0.4-5.7-1.5-8.1-3.3c-0.5-0.3-0.5-0.7-0.4-1.2
			c0.5-2,0.9-3.9,1.4-6c0.5-0.2,0.8,0.1,1.1,0.7c2.5,5.1,8,7.9,13.5,7c6.1-1,9.5-6.3,8.8-12.2c-0.3-2.5-1.7-4.7-3.8-6.1
			c-2.4-1.6-5.1-2.9-7.9-3.9c-3-1.1-5.8-2.7-8.3-4.8c-3.2-3-4.1-6.7-3.8-10.8c0.5-7.5,6-11.6,12.1-12.7c4.2-0.9,8.5-0.5,12.4,1.2
			C517.4,11.1,518.4,11.8,519.4,12.4z"/>
		<path class="st0" d="M173.7,10.2c0,0.6-0.1,1.4-0.1,2.1s0.1,1.4,0.1,2.2l-20-1.1v19.9l18.1-0.7v4.3l-18.2-0.6v22.4
			c6.9,0,13.6,0.1,20.3-0.9v4.2h-27.2c0.8-17.3,0.8-34.5,0-51.7L173.7,10.2z"/>
		<path class="st0" d="M476.8,12.4c-0.4,1.9-0.8,3.6-1.3,5.3c-0.1,0.3-0.2,0.5-0.4,0.7c-0.2-0.1-0.4-0.3-0.6-0.4
			c-3.4-3.3-7.3-5.8-12.1-6.1c-9.9-0.8-18.6,3.5-21.6,14.5c-2.1,7.2-1.8,14.9,0.9,21.9c3.1,7.7,9.2,11.4,17.3,12
			c6.2,0.4,11.4-2,16.1-5.7c0.3-0.2,0.6-0.4,0.9-0.5c-0.1,1.7,0,3.3-0.8,4.8c-0.3,0.6-1.3,1-2,1.2c-9.1,3.5-18.3,3.9-27.3-0.2
			c-7-3.2-11.1-8.8-13-16.2c-1.7-6.5-1.3-13.3,1.2-19.5c3.2-7.7,9.1-12.4,17.1-14.4c8.3-2.1,17.1-1.3,25,2.1
			C476.5,12.2,476.6,12.3,476.8,12.4C476.9,12.4,476.9,12.4,476.8,12.4z"/>
		<path class="st0" d="M411.6,10.2h7.4c-0.8,17.1-0.8,34.4,0,51.7h-7.4C412.5,44.6,412.5,27.4,411.6,10.2z"/>
		<path class="st0" d="M76.1,23c0.7,2.1,1.3,4.2,1.8,6.3c2.5,13.9-2.3,25.1-13,34c-0.8,0.9-2.1,1-3.2,0.4
			c-8.1-3.5-16.5-6.4-25.1-8.4c-2.6-0.7-5.1-1.6-7.5-2.6c-0.8-0.4-1.6-0.8-2.3-1.4c-1.3-0.8-1.7-2.5-0.9-3.8
			c0.1-0.2,0.3-0.4,0.5-0.5c1-1.2,2.2-2.1,3.5-2.9c4.3-2.3,8.6-4.5,12.9-6.6c6.8-3.3,13.6-6.6,20.4-9.9c1.7-0.7,3.4-1.3,5.1-1.9
			C70.9,24.8,73.4,23.9,76.1,23z"/>
		<path class="st0" d="M71.2,15c-3.2,1.5-6.4,2.8-9.5,4.3c-9.2,4.4-18.3,8.9-27.5,13.2c-6.9,3.4-14.1,6.2-21.4,8.5
			C9,42.1,5.2,43.1,1.4,44.2c-0.1,0-0.3,0-0.4,0c-0.3-1.4-0.6-2.8-0.7-4.3c-0.8-6.6,0.4-13.2,3.4-19.1c0.2-0.6,0.8-1,1.5-0.9
			c5.1,0.1,10.2,0.2,15.3-0.1c7-0.4,14-1.2,21-2c9.1-1.1,18.2-2.6,27.2-4.6c0.6-0.2,1.3,0,1.6,0.5C70.5,14.2,70.8,14.6,71.2,15z"/>
		<path class="st0" d="M51.1,70.2c-8.3,2.5-17.1,2.3-25.3-0.5C18,67.3,11.2,62.3,6.5,55.7C21.5,59.9,36.2,65.5,51.1,70.2z"/>
		<path class="st0" d="M62.2,6.8C46.8,8,31.4,7.6,16.1,7c2.7-2.9,13.4-6.6,20.7-6.9C45.8-0.5,54.7,1.8,62.2,6.8z"/>
	</g>
</g>
</svg>
