<?xml version="1.0" encoding="utf-8"?>
<!-- Generator: Adobe Illustrator 24.3.0, SVG Export Plug-In . SVG Version: 6.00 Build 0)  -->
<svg version="1.1" id="Layer_1" xmlns:xodm="http://www.corel.com/coreldraw/odm/2003"
	 xmlns="http://www.w3.org/2000/svg" xmlns:xlink="http://www.w3.org/1999/xlink" x="0px" y="0px" viewBox="0 0 187.1 55"
	 style="enable-background:new 0 0 187.1 55;" xml:space="preserve">
<style type="text/css">
	.st0{fill:#FFFFFF;}
	.st1{fill-rule:evenodd;clip-rule:evenodd;fill:#FFFFFF;}
</style>
<g id="Layer_x0020_1">
	<g id="_2343847292928">
		<path class="st0" d="M10.4,35.3v-6.5h9.9V55H7.5c-5,0-7.5-3-7.5-9V10.5c0-6.1,2.5-9.2,7.5-9.2H12c5.5,0,8.3,3.1,8.3,9.3v5.8h-6.5
			v-4.8c0-2.6-0.9-3.9-2.8-3.9H9.4c-1.9,0-2.9,1.3-2.9,3.9v32.9c0,2.6,1,3.9,2.9,3.9h4.4V35.3L10.4,35.3L10.4,35.3z"/>
		<path class="st0" d="M24.9,1.3h12.8c5,0,7.5,3.1,7.5,9.2v13.2c0,4.7-1.3,7.6-3.9,8.9L45.9,55h-6.2l-4.3-21.7h-3.9V55h-6.5
			L24.9,1.3L24.9,1.3z M31.5,27.2L31.5,27.2h4.3c1.9,0,2.9-1.3,2.9-3.9V11.7c0-2.6-1-3.9-2.9-3.9h-4.3L31.5,27.2L31.5,27.2z"/>
		<path class="st0" d="M56.1,55h-6.5V10.5c0-6.1,2.6-9.2,7.8-9.2h4.9c5.2,0,7.8,3.1,7.8,9.2V55h-6.5V35.3h-7.5L56.1,55L56.1,55z
			 M63.6,28.8L63.6,28.8V11c0-2.1-1-3.1-2.9-3.1H59c-1.9,0-2.9,1-2.9,3.1v17.9H63.6z"/>
		<path class="st0" d="M75.2,1.3h11.9c5.3,0,7.9,3.1,7.9,9.2v15.9c0,6.1-2.6,9.1-7.8,9.1h-5.4V55h-6.5V1.3L75.2,1.3z M81.7,29
			L81.7,29h4.1c1.7,0,2.6-1,2.6-3.1V11c0-2.1-1-3.1-2.9-3.1h-3.8V29z"/>
		<polygon class="st0" points="114,55 114,30.6 106,30.6 106,55 99.5,55 99.5,1.3 106,1.3 106,24.1 114,24.1 114,1.3 120.6,1.3 
			120.6,55 		"/>
		<polygon class="st0" points="126,1.3 132.5,1.3 132.5,55 126,55 		"/>
		<polygon class="st0" points="148.3,7.8 148.3,55 141.8,55 141.8,7.8 135.6,7.8 135.6,1.3 154.6,1.3 154.6,7.8 		"/>
		<polygon class="st0" points="157.7,55 157.7,1.3 173.8,1.3 173.8,7.8 164.2,7.8 164.2,24.1 173.8,24.1 173.8,30.6 164.2,30.6 
			164.2,48.5 173.8,48.5 173.8,55 		"/>
		<path class="st1" d="M182.5,0c-2.5,0-4.6,2.1-4.6,4.6c0,2.5,2.1,4.6,4.6,4.6c2.5,0,4.6-2.1,4.6-4.6S185,0,182.5,0z M182.5,7.9
			c-1.8,0-3.3-1.5-3.3-3.3s1.5-3.3,3.3-3.3c1.8,0,3.3,1.5,3.3,3.3S184.3,7.9,182.5,7.9z M184.2,4c0-0.9-0.7-1.5-1.7-1.5h-1.5v4.2
			h0.9V5.5h0.7c0,0,0.1,0,0.1,0l0.9,1.2h1.1l-1-1.4C183.9,5,184.2,4.5,184.2,4L184.2,4z M182.5,4.6h-0.7V3.4h0.7
			c0.8,0,0.8,0.5,0.8,0.6C183.3,4.1,183.3,4.6,182.5,4.6z"/>
	</g>
</g>
</svg>
