<?xml version="1.0" encoding="UTF-8"?>
<!DOCTYPE svg PUBLIC "-//W3C//DTD SVG 1.1//EN" "http://www.w3.org/Graphics/SVG/1.1/DTD/svg11.dtd">
<!-- Creator: CorelDRAW 2021 (64-Bit) -->
<svg xmlns="http://www.w3.org/2000/svg" xml:space="preserve" width="2.0488in" height="2.04883in" version="1.1" style="shape-rendering:geometricPrecision; text-rendering:geometricPrecision; image-rendering:optimizeQuality; fill-rule:evenodd; clip-rule:evenodd"
viewBox="0 0 556.21 556.21"
 xmlns:xlink="http://www.w3.org/1999/xlink"
 xmlns:xodm="http://www.corel.com/coreldraw/odm/2003">
 <defs>
  <style type="text/css">
   <![CDATA[
    .fil1 {fill:#FEFEFE;fill-rule:nonzero}
    .fil0 {fill:#0F1F7A;fill-rule:nonzero}
   ]]>
  </style>
 </defs>
 <g id="Layer_x0020_1">
  <metadata id="CorelCorpID_0Corel-Layer"/>
  <g id="_2343778238464">
   <path class="fil0" d="M278.1 556.21c-153.35,0 -278.1,-124.76 -278.1,-278.11 0,-153.35 124.75,-278.11 278.1,-278.11 153.35,0 278.1,124.76 278.1,278.11 0,153.35 -124.75,278.11 -278.1,278.11z"/>
   <path class="fil0" d="M540.47 278.11c0,144.9 -117.47,262.36 -262.37,262.36 -144.9,0 -262.36,-117.46 -262.36,-262.36 0,-144.9 117.47,-262.36 262.36,-262.36 144.9,0 262.37,117.46 262.37,262.36z"/>
   <polygon class="fil1" points="344.21,291.8 415.3,291.8 415.3,315.16 371.33,315.16 371.33,334.77 407.99,334.77 407.99,356.91 371.33,356.91 371.33,372.27 417.38,372.27 417.38,395.64 344.21,395.64 "/>
   <path class="fil1" d="M195.76 343.61c0,-15.95 -9.69,-28.31 -26.68,-28.31 -16.99,0 -26.67,12.37 -26.67,28.31 0,15.95 9.69,28.47 26.67,28.47 17,0 26.68,-12.52 26.68,-28.47zm-81.08 0c0,-30.55 25.19,-51.86 54.4,-51.86 29.21,0 54.4,21.31 54.4,51.86 0,30.55 -25.19,52.01 -54.4,52.01 -29.21,0 -54.4,-21.46 -54.4,-52.01z"/>
   <path class="fil1" d="M261.61 343.76l0 51.87 -25.49 0 0 -102.85c0,-0.89 0.45,-1.64 2.09,-0.3l63.63 51.28 0 -51.97 25.49 0 0 102.63c0,1.19 -0.45,1.64 -2.09,0.3l-63.64 -50.96z"/>
   <polygon class="fil1" points="403.69,174.64 475.29,174.64 475.29,198.21 431.01,198.21 431.01,217.99 467.94,217.99 467.94,240.33 431.01,240.33 431.01,255.82 477.39,255.82 477.39,279.39 403.69,279.39 "/>
   <polygon class="fil1" points="117.42,174.71 144.74,174.71 144.74,279.37 117.42,279.37 117.42,246.12 81.99,246.12 81.99,279.37 54.67,279.37 54.67,174.71 81.99,174.71 81.99,222.57 117.42,222.57 "/>
   <path class="fil1" d="M239.15 226.87c0,-16.07 -9.76,-28.53 -26.87,-28.53 -17.11,0 -26.87,12.46 -26.87,28.53 0,16.06 9.76,28.67 26.87,28.67 17.11,0 26.87,-12.61 26.87,-28.67zm-81.66 0c0,-30.78 25.37,-52.24 54.79,-52.24 29.42,0 54.79,21.46 54.79,52.24 0,30.77 -25.37,52.39 -54.79,52.39 -29.42,0 -54.79,-21.62 -54.79,-52.39z"/>
   <path class="fil1" d="M279.81 175.53c0,-0.92 0.61,-1.06 1.35,-0.3l52.4 49.73 51.79 -49.94c0.61,-0.61 1.35,-0.46 1.35,0.31l0 103.89 -27.32 0 0 -47.57 -25.66 25.69c-0.6,0.61 -0.75,0.61 -1.35,0l-25.22 -25.69 0 47.57 -27.33 0 0 -103.68z"/>
   <polygon class="fil1" points="478.93,163.11 475.32,163.11 475.32,160.58 485.57,160.58 485.57,163.11 481.94,163.11 481.94,173.92 478.93,173.92 "/>
   <path class="fil1" d="M498.39 168.81c-0.06,-1.6 -0.12,-3.52 -0.12,-5.48l-0.04 0c-0.44,1.7 -0.99,3.6 -1.51,5.16l-1.62 5.21 -2.36 0 -1.43 -5.16c-0.43,-1.56 -0.87,-3.44 -1.2,-5.21l-0.04 0c-0.06,1.8 -0.14,3.86 -0.22,5.52l-0.25 5.07 -2.79 0 0.84 -13.34 4.02 0 1.31 4.45c0.43,1.54 0.83,3.21 1.12,4.77l0.08 0c0.36,-1.54 0.81,-3.31 1.27,-4.79l1.4 -4.43 3.96 0 0.71 13.34 -2.94 0 -0.21 -5.11z"/>
  </g>
 </g>
</svg>
