<?xml version="1.0" encoding="utf-8"?>
<!-- Generator: Adobe Illustrator 24.3.0, SVG Export Plug-In . SVG Version: 6.00 Build 0)  -->
<svg version="1.1" id="Layer_1" xmlns="http://www.w3.org/2000/svg" xmlns:xlink="http://www.w3.org/1999/xlink" x="0px" y="0px"
	 viewBox="0 0 927.8 302.5" style="enable-background:new 0 0 927.8 302.5;" xml:space="preserve">
<style type="text/css">
	.st0{fill:#FFFFFF;}
</style>
<g id="Layer_2_1_">
	<g id="Layer_1-2">
		<path class="st0" d="M0.4,302.5c-0.1-2.4-0.3-4.2-0.3-6c0-96.7,0-193.3-0.1-290C0,1.7,1.8,0,6.5,0c139,0.1,278,0.1,417,0
			c6,0,6.6,0.7,6.6,6.6c0,12.8,0,25.7,0,38.5c0,5.9,1,6.7,6.8,6.1c16.1-1.7,29.9-7.9,37.8-22.5c3.7-6.8,5.5-14.9,6.8-22.6
			c0.8-4.8,2.4-6.1,6.9-6.1c28.8,0.2,57.7,0,86.5,0c114,0,228,0,342,0c10.5,0,10.5,0,10.5,10.3c0,26.5,0.7,53-0.3,79.5
			c-0.7,18.8-4.8,37.4-20.7,50c-6.6,5.2-14.9,8.3-22.7,12.6c0.8,0.8,1.8,1.4,2.9,1.9c20,5,38.3,24.5,39.2,45.3
			c1,22.6,1.2,45.2,1.6,67.8c0.2,10.2-0.1,20.3,0.1,30.5c0.1,3.5-1.2,4.9-4.7,4.7c-2.5-0.1-5,0-7.5,0h-426c-7.3,0-7.3,0-7.8-7
			c-1.8-24.6-21.6-43-46.4-43.2c-4.3,0-5.4,1.6-5.3,5.6c0.2,12.7,0.1,25.3,0.1,38c0,6.6,0,6.6-6.5,6.6c-37.2,0-74.3,0-111.5,0
			L0.4,302.5L0.4,302.5z"/>
		<g>
			<path d="M280.4,106.3c5.5,0,11,0.1,16.5,0c3.3-0.1,5,1.2,6.2,4.4c10.6,28.3,21.4,56.5,32.1,84.8c0.4,1.1,0.7,2.2,0.9,3.4
				c0.3,2.6,4.2,5.6-0.2,7.6c-4.7,2-10.8-0.4-12.3-4.4c-3.1-8-6.3-16.1-9.1-24.2c-1-3-2.6-4.3-5.8-4.3c-18.5,0.1-37,0.1-55.4,0.1
				c-3.3,0-4.9,1.3-6,4.6c-2.9,8.6-6.2,17.2-9.4,25.7c-1,2.7-11.4,4.2-13,1.8c-0.6-1.3-0.6-2.8-0.1-4.2
				c6.6-17.9,13.5-35.8,20.1-53.7c4.3-11.7,8.6-23.4,12.7-35.1c1.5-4.4,3.6-7.1,8.9-6.4C271.1,106.7,275.8,106.3,280.4,106.3z
				 M280.7,160.5v-0.1c7.1,0,14.3,0,21.4,0c3.9,0,5.5-0.9,3.7-5.3c-3.7-9.1-6.9-18.3-10.2-27.5c-3-8.6-2.9-8.6-12.2-8.6
				c-2.8,0-5.7,0.2-8.5,0c-4.5-0.4-6.5,1.9-7.9,5.8c-3.5,10-7.1,20-10.8,29.9c-2,5.4-1.8,5.9,4.1,5.9
				C267,160.5,273.9,160.5,280.7,160.5L280.7,160.5z"/>
			<path d="M381.9,155.8c0-14.8,0.1-29.7,0-44.5c0-3.6,1.1-5.1,4.9-5.1c21.8,0.3,43.7-0.4,65.4,1c17.9,1.2,29.1,11.3,28.8,29.2
				c-0.2,14.3-14.5,29-28.9,29.8c-17,0.8-34,0.9-50.9,1c-4.4,0-5.9,1.4-5.8,5.7c0.2,9.3-0.1,18.7,0.1,28c0.1,6-3.6,5.5-7.6,5.7
				c-4.4,0.2-5.9-1.4-5.9-5.8c0.1-15,0.1-30,0.1-45L381.9,155.8z M421,154.5c7.5,0.3,19.4,0.2,30.6-2.4c3.3-0.6,6.3-2.1,8.8-4.3
				c3.2-3.2,5-7.6,4.9-12.2c0.1-8.5-3.7-13.1-13-15.6c-2.6-0.8-5.2-1.2-7.9-1.3c-15.1-0.1-30.3,0-45.5-0.1c-2.7,0-3.8,0.9-3.8,3.8
				c0.2,9.5,0.2,19,0.1,28.5c0,2.9,0.8,3.8,3.7,3.7C406.4,154.4,413.7,154.5,421,154.5z"/>
			<path d="M781.8,106.2c5.3,0,10.7,0.1,16,0c3.1,0,5.1,0.8,6.3,4.2c10.1,27.2,20.4,54.4,30.7,81.5c1.3,3.4,2.7,6.8,4,10.2
				c1,2.6,0,4.1-2.8,4.5c-7.3,1-9.7-0.2-12.3-7.3c-2.7-7.3-5.1-14.8-8.2-22c-0.7-1.7-3.2-3.6-5-3.7c-18.8-0.3-37.6-0.3-56.5-0.1
				c-1.8,0-4.4,2.2-5.2,4c-3.4,8.1-6.2,16.4-9.2,24.7c-1.3,3.5-10.3,6.3-13.1,3.8c-0.9-0.8-1.2-3.2-0.7-4.4
				c6.4-17.6,13.1-35.1,19.7-52.7c4.5-12,9.1-23.9,13.2-35.9c1.6-4.7,3.6-7.4,9.1-6.8c4.6,0.5,9.3,0.1,14,0.1L781.8,106.2z
				 M808.8,159.8c-4.6-12.4-8.9-23.6-12.9-35c-1.6-4.6-4.2-6.3-8.9-5.9c-3.8,0.3-7.7,0.3-11.5,0c-4.5-0.4-6.1,2.1-7.3,5.8
				c-3.5,10-7,20-10.8,29.9c-1.9,5.1-1.7,5.8,3.7,5.8c14,0,28,0,42,0C804.6,160.4,806.2,160.1,808.8,159.8L808.8,159.8z"/>
			<path d="M96.3,162c2-1,4-2.1,5.8-3.3c22.3-16.6,44.5-33.1,66.7-49.8c6.5-4.8,13.5-2,20.3-2.5l0.7,1.8l-53.8,40.7
				c4.7,6.6,8.6,13.3,13.8,19.1c7.2,8.2,14.9,15.9,23.2,23c3.2,2.7,8.6,2.8,12.9,4.4c1.6,0.6,4.1,2.2,4.1,3.4c0,2.9,2.6,6.8-2.1,8.7
				c-6.5,2.6-12.5,0.8-18.3-1.9c-9.7-4.7-16.4-12.9-23-21c-7.2-8.8-14.1-18-21.5-27.4c-7.4,5.4-14,11-21.2,15.5
				c-5.9,3.7-8.7,8.1-7.7,15.1c0.6,4.3-0.1,8.7,0.1,13c0.3,5.7-3.2,5.8-7.4,5.9c-4.4,0.1-5.7-1.6-5.7-5.8c0.1-29.6,0.1-59.3,0-89
				c0-4,1.1-5.8,5.3-5.7c3.9,0.2,8-0.5,8,5.4c-0.1,14.2-0.1,28.3-0.1,42.5C96.3,156.3,96.3,158.6,96.3,162z"/>
			<path d="M582.5,107.6c9.1-3.5,13.2-1.6,16.3,6.7c5.7,15.3,11.6,30.4,17.3,45.7c3.7,9.8,7.4,19.5,10.8,29.4c1,2.9,2.6,4,5.4,4.1
				c0.2,0,0.3,0,0.5,0c18.7,1.2,18.7,1.2,25.1-16.2c8.1-21.8,16.1-43.6,24.2-65.4c1.9-5.2,8.6-8,13.3-5.3c1,0.6,1.3,3.5,0.8,5
				c-3.2,8.9-6.7,17.7-10,26.6c-7.8,21.2-15.6,42.4-23.4,63.6c-1.2,3.3-3.1,4.8-6.6,4.8c-10.7-0.1-21.3,0.1-32-0.3
				c-2.1-0.1-5.3-2-6-3.9C606.1,171,594.4,139.4,582.5,107.6z"/>
			<path d="M522.5,155.9c0-14.7,0.2-29.3-0.1-44c-0.1-5,2.2-5.8,6.3-5.8s7.2,0.3,7.2,5.7c-0.1,29.5,0,59,0,88.5
				c0,5.7-0.9,6.1-7.5,6.3c-4.8,0.2-5.9-1.9-5.9-6.2C522.6,185.5,522.5,170.7,522.5,155.9L522.5,155.9z"/>
		</g>
	</g>
</g>
</svg>
