<?xml version="1.0" encoding="utf-8"?>
<!-- Generator: Adobe Illustrator 24.3.0, SVG Export Plug-In . SVG Version: 6.00 Build 0)  -->
<svg version="1.1" id="Layer_1" xmlns="http://www.w3.org/2000/svg" xmlns:xlink="http://www.w3.org/1999/xlink" x="0px" y="0px"
	 viewBox="0 0 670 275.9" style="enable-background:new 0 0 670 275.9;" xml:space="preserve">
<style type="text/css">
	.st0{fill:#FFFFFF;}
	.st1{fill:#0E7540;}
</style>
<g id="Layer_2_1_">
	<g id="Layer_1-2">
		<path class="st0" d="M169.8,115.2c5.4,9.7,10.1,18.6,15.3,27.2c3,4.8,4.4,10.4,4.1,16.1c-0.4,9.6-0.2,19.3,0,29
			c0,2.8-0.8,3.6-3.6,3.7c-13.4,0.2-13.4,0.3-13.4-12.9c0-8.8,0-17.7-0.1-26.5c0-0.1-0.2-0.2-0.6-0.6c-5.2,6.4-10.3,12.8-16.8,17.9
			c-28.4,22.5-60.1,28.4-93.8,15.4S6.7,145.9,1.2,110C-6.9,57.3,28.2,9,80.6,1.5c39-5.6,70.7,8.8,92.4,41.6
			c18.7,28.3,35.3,57.9,50.8,88.1c25.7,50.2,92.7,57.8,129.1,14.5l4-4.7c0,8.6,0,16.1,0,23.7c0,2.6-2.4,3.4-4,4.8
			c-43.7,36.4-110.2,25.3-139.9-23.2c-17.7-28.8-33.9-58.4-50.2-87.9C137.6,12.5,78,3.2,40.4,39.3c-23.5,22.5-30.3,59-16.7,88.9
			c13.9,30.4,45.2,49.3,77.9,45.5c34-4,56.4-23.2,67.4-55.6C169.2,117.5,169.3,116.9,169.8,115.2z"/>
		<path class="st0" d="M651.8,121.9c0,8.8-0.1,17.6,0,26.5c0.2,3-0.8,5.9-2.8,8.2c-26.5,29.9-59.5,41.5-98,30.6
			s-61.6-37.4-67.9-76.9C473.1,48.4,522.2-1.9,585,4.8c49.7,5.3,86.7,47.8,84.9,97.3c-0.1,3.9-1,5.4-5.3,5.3
			c-29.7-0.2-59.3-0.2-89,0c-3.7,0-5.1-0.8-4.6-4.7s-1.6-9.1,0.8-11.5s7.6-0.7,11.6-0.8c21.3-0.1,42.6-0.1,64,0.1c4,0,5.2-0.9,4.5-5
			c-6-35.6-37.7-63.2-74.2-64.4c-36.5-1.4-68.9,23.3-77.3,58.9c-10.2,42.3,21.5,87.9,64.9,93.1c26.6,3.2,50.2-3.4,69.3-22.8
			C642.5,142.3,647.7,132.5,651.8,121.9z"/>
		<path class="st1" d="M217.4,75.3c-3.4-6-6.4-11.5-9.6-16.9c-1.2-2-0.1-3.5,0.7-5.1c15.2-29.4,38.9-47.5,71.7-52
			C316-3.6,346,8.9,367.9,37.7c9.3,12.2,15.7,26.6,23.4,40c3.5,6.4,7.4,12.6,11.7,18.6v-4.9c0-28.5,0.1-57,0-85.5
			c0-4.3,0.7-6.1,5.6-5.9c12.8,0.3,12.8,0.1,12.8,13.1v26.6c5.5-6.2,10.2-11.9,15.9-16.8c15.1-13,33.9-20.9,53.8-22.5
			c2.4-0.2,3.5,0.3,3.3,2.8c0,0.2,0,0.3,0,0.5c0,4,1.1,8.5-0.4,11.9c-1.7,3.8-7,2.3-10.7,3.1c-19,4.1-34.6,14.3-46.8,28.7
			C427,58.8,421,72.3,421.2,88.1c0.4,32.5,0.3,65,0.6,97.4c0,4.2-0.8,6.2-5.4,5.6c-4.2-0.5-9.8,1.7-12.5-0.9s-0.8-8.2-0.8-12.5
			c-0.1-13.5-0.1-27,0-40.5c0-2.6-0.7-5.2-2-7.5c-13.6-24.3-26.7-48.7-40.6-72.8c-16.2-28-41.1-41.7-73.1-39.3s-54.3,19.9-66.6,49.7
			c-1,2.3-1.8,4.7-2.7,7C217.9,74.7,217.6,75,217.4,75.3z"/>
		<path class="st0" d="M418.4,270.2c-4.3,5.1-9.6,7-16,4.7s-8.4-7.9-9.4-14.1c-0.7-4.1-0.6-8.3,0.1-12.4
			c2.5-13.3,13.9-17.8,25.9-9.3c0-6-0.1-11.3,0.1-16.6c0-1.2-1.5-3.7,1.5-3.6c2.7,0.1,1.9,2.3,1.9,3.8c0,15.8,0.1,31.6-0.1,47.4
			c0,1.6,1.6,4.6-1.4,4.9C418.4,275,420.2,271.7,418.4,270.2z M419,254.4c0-2.5-0.2-5,0-7.5c0.3-3.2-1.2-5.4-3.6-7.1
			c-4.9-3.8-12-2.9-15.8,2c-0.6,0.8-1.2,1.8-1.6,2.8c-3,7-2.9,14.9,0.2,21.8c1.8,4.7,6.8,7.4,11.7,6.3c5.2-1,9-5.5,9-10.8
			C419,259.4,419,256.9,419,254.4L419,254.4z"/>
		<path class="st0" d="M217.1,255.3c-0.1-3.5,0.5-7,1.7-10.3c2.8-7.1,8.1-10.8,15.3-10.5s12.5,4.1,14.6,11.4
			c1.9,6.1,1.8,12.6-0.3,18.6c-2.6,7.4-7.9,11.4-15.1,11.4c-7.1,0-12.5-4.3-14.9-11.8C217.5,261.2,217,258.3,217.1,255.3z
			 M246.1,255.1c0.1-2.8-0.2-5.6-1-8.4c-2.1-6.3-6.1-9.5-12-9.3c-5.5,0.2-9.5,3.5-11.3,9.6c-1.7,5.8-1.6,12,0.4,17.7
			c1.4,4.6,5.5,7.9,10.3,8.1c5.3,0.4,9-1.9,11.5-7C245.6,262.5,246.3,258.8,246.1,255.1L246.1,255.1z"/>
		<path class="st0" d="M474.6,269.9c-2.3,3.1-5.7,5.2-9.5,5.8c-7,1.2-12.7-2.3-14.1-8.7c-1.6-7.1,2-13.1,8.9-15
			c3.9-0.9,7.9-1.2,11.9-0.9c2.4,0.1,3.1-0.7,3.1-3.1c-0.1-8.2-3.7-11.4-11.9-10.3c-1.3,0.3-2.6,0.5-3.9,0.6c-1.7-0.1-4.1,3-4.9-0.3
			c-0.6-2.6,2.6-1.9,4-2.5c3-1.2,6.2-1.1,9.4-0.9c6.7,0.4,10.4,4.2,10.5,10.8c0.1,6.5,0,13,0,19.5c0,2.8-0.2,5.8,2.3,7.8
			c0.8,0.7,1,1.3,0.5,2.1c-0.8,1.2-1.8,0.4-2.6,0C476.3,274,475.8,271.8,474.6,269.9z M474.8,259.8c-1-1.5,2.1-5.2-2-5.6
			c-4.4-0.4-9-0.8-13.2,1.2c-4,1.9-6.2,6.4-5.2,10.7c1,4.5,4.3,6.9,9,6.8C470.4,272.6,474.8,267.8,474.8,259.8L474.8,259.8z"/>
		<path class="st0" d="M581,254.4c0.1-3.2,0.7-6.5,1.8-9.5c2.7-7,8-10.6,15.4-10.3c7.1,0.2,12,4,14.3,11.1c2.2,6.7,2,14-0.6,20.5
			c-2.3,6.1-8.3,10.1-14.8,9.8c-6.8-0.1-11.8-3.9-14.2-10.5C581.5,261.9,580.9,258.1,581,254.4z M610.1,255c0.1-3.3-0.5-6.6-1.6-9.8
			c-1.9-4.9-5.5-7.4-10.6-7.6s-9.2,2-11.1,6.8c-2.9,7.4-3,15,0.4,22.2c1.9,4.1,5.5,6.1,10,6.1c4.4,0.2,8.6-2.2,10.5-6.2
			C609.7,262.9,610.1,259,610.1,255L610.1,255z"/>
		<path class="st0" d="M171.9,249c0-7.5,0.2-15-0.1-22.4c-0.1-3.2,0.9-3.9,3.9-3.8c6,0.2,12,0,18,0c1.2,0,3-0.7,3.1,1.4
			c0.1,2.5-2,1.7-3.2,1.7c-4.8,0.1-9.6,0.2-14.5,0c-2.6-0.1-3.9,0.4-3.8,3.5c0.3,4.8,0.2,9.6,0,14.4c-0.1,2.8,1.1,3.4,3.5,3.3
			c4.1-0.1,8.3,0,12.5,0c1.3,0,2.5,0,2.4,1.7c-0.1,1.4-1.2,1.3-2.2,1.3c-3.7,0-7.3,0.2-11-0.1c-3.8-0.3-5.4,0.8-5.1,4.9
			c0.4,5.6,0.1,11.3,0.1,17c0,1.2,0.6,2.9-1.6,3c-2.6,0.2-1.9-1.8-1.9-3.1C172,264.3,172,256.6,171.9,249L171.9,249z"/>
		<path class="st0" d="M302.2,268.3c-4.5,5.8-9.3,8.5-15.7,7.3c-4.8-0.7-8.4-4.9-8.3-9.8c-0.2-9.3-0.1-18.6-0.1-27.9
			c0-1.2-0.1-2.5,1.5-2.6c1.9-0.1,2,1.2,2,2.7c0,8.1,0,16.3,0.1,24.4c0.1,7.4,2.5,10.4,8.3,10.5c6,0.1,12.1-5.6,12.1-11.5
			c0.1-7.6,0-15.3,0-22.9c0-1.2-0.5-3.1,1.4-3.2c2.4-0.1,1.8,1.9,1.8,3.3c0,11,0,21.9,0,32.9c0,1.2,1.2,3.5-1.4,3.4
			c-2.2,0-1.4-2.2-1.6-3.5C302.1,270.3,302.1,269.3,302.2,268.3z"/>
		<path class="st0" d="M340.5,240.6c3.4-2.5,6.4-5.6,11-6c7.6-0.7,12.3,3,12.5,10.6c0.2,9,0.1,18,0,27c0,1.1,0.6,2.9-1.6,2.8
			s-1.5-1.8-1.5-3c-0.1-8.1,0.1-16.3-0.2-24.5c-0.2-7.4-2.9-10.4-8.1-10.2c-6.3,0.2-12.6,5.9-12.7,11.7c-0.1,7.5,0,15-0.1,22.5
			c0,1.4,0.8,3.7-2,3.5c-2.4-0.2-1.5-2.2-1.5-3.5c-0.1-10.1-0.1-20.3,0-30.4c0-1.9-1.4-5.2,1.4-5.5
			C340.8,235.1,338.8,239,340.5,240.6z"/>
		<path class="st0" d="M646.2,241.1c3.8-3.9,8-7,13.8-6.6c6.3,0.4,9.8,3.7,9.9,10.1c0.2,9.1,0,18.3,0,27.5c0,1.2,0.5,2.9-1.6,2.8
			s-1.5-1.8-1.5-2.9c-0.1-8.2,0.1-16.3-0.2-24.5c-0.2-7.2-2.8-10.3-8.1-10.3c-5.8,0-12.6,5.9-12.7,11.2c-0.1,7.7,0,15.3,0,23
			c0,1.5,0.7,3.7-2.1,3.5c-2.4-0.2-1.5-2.2-1.5-3.5c-0.1-10.5-0.1-21,0-31.5c0-1.6-1.2-4.5,1.4-4.5c3-0.1,1.6,2.9,1.8,4.7
			C645.5,240.4,645.8,240.6,646.2,241.1z"/>
		<path class="st0" d="M509.2,253.5c0-3,0-6,0-9c0-3.3,1.1-7.5-4.9-6.3c-0.7,0.2-1.5-0.2-1.7-1c0-0.1,0-0.2,0-0.4
			c-0.1-0.8,0.4-1.6,1.2-1.7c0.2,0,0.5,0,0.7,0.1c4.8,0.9,5-1.8,4.8-5.4c-0.1-1.5-1.2-4.2,1.7-4.4c3-0.1,2.1,2.7,1.8,4.1
			c-0.9,5.2,1.5,6.2,6,5.7c1.4-0.2,4-1,4,1.5s-2.7,1.6-4,1.4c-5.4-1-6.3,1.6-6,6.3c0.4,7,0.1,14,0.1,21c0.1,6.2,2.9,8.2,9,6.8
			c1.3-0.3,3.5-2.3,4.1,0.4c0.5,2.3-2.1,2.1-3.5,2.5c-7.9,2.4-13-1.4-13.2-9.7C509.1,261.5,509.2,257.5,509.2,253.5z"/>
		<path class="st0" d="M552.9,255.5c0,5.5,0,10.9,0,16.4c0,1.5,0.2,3.2-2.1,3c-2.1-0.2-1.5-1.9-1.5-3c0-11.1,0-22.2,0-33.3
			c0-1.3-0.6-3.3,1.8-3.3s1.8,1.9,1.8,3.3C552.8,244.2,552.8,249.9,552.9,255.5L552.9,255.5z"/>
		<path class="st0" d="M551.4,218.4c1.3,0.1,2.3,1.1,2.3,2.4c0.2,1.2-0.6,2.3-1.8,2.6c-0.2,0-0.4,0-0.5,0c-1.8,0.1-3-0.7-2.9-2.6
			C548.5,219.4,549.5,218.5,551.4,218.4z"/>
	</g>
</g>
</svg>
