<?xml version="1.0" encoding="utf-8"?>
<!-- Generator: Adobe Illustrator 24.3.0, SVG Export Plug-In . SVG Version: 6.00 Build 0)  -->
<svg version="1.1" id="Layer_1" xmlns="http://www.w3.org/2000/svg" xmlns:xlink="http://www.w3.org/1999/xlink" x="0px" y="0px"
	 viewBox="0 0 332.4 77.6" style="enable-background:new 0 0 332.4 77.6;" xml:space="preserve">
<style type="text/css">
	.st0{fill:#FFFFFF;}
	.st1{font-family:'ManifaPro2-Bold';}
	.st2{font-size:38.44px;}
	.st3{letter-spacing:4;}
	.st4{fill:#FBE600;}
	.st5{fill:#3C9BD4;}
	.st6{fill:#EF7245;}
</style>
<g id="Layer_2_1_">
	<g id="Layer_1-2">
		<text transform="matrix(1 0 0 1 72.72 52.52)" class="st0 st1 st2 st3">Letsallhelp.org</text>
		<path class="st4" d="M35.4,49.7c0,1.4,0,2.8,0,4.3c0,0.5,0,1.1,0.6,1.2s0.8-0.5,0.9-0.9c0.8-2.4,1.6-4.7,2.4-7.1
			c0.3-0.9,0.7-1.8,1.3-2.6c0.2-0.4,0.6-0.8,1.2-0.7c0.5,0.2,0.8,0.6,0.8,1.2c0.1,1-0.1,2-0.3,3c-0.9,3.2-1.8,6.4-2.6,9.6
			c-0.4,1.5-0.3,3.1,0.1,4.7c0.3,1.2,1,1.3,1.8,0.5c0.5-0.6,0.9-1.3,1.2-2.1c0.4-1.1,1.1-1.9,2.1-2.5c0.9-0.5,1.9-0.4,2.8,0.1
			c0.5,0.2,0.4,0.6,0.1,0.9c-2,1.7-2.6,4.2-3.7,6.4c-1.3,2.8-3.4,5.1-6.1,6.6c-1.6,0.7-3.3,0.9-5,0.6c-1-0.2-2.1-0.2-3.1-0.2
			c-3.3,0.2-4.5-1.6-5.3-3.9c-0.7-2.1-1.1-4.3-1.2-6.6c-0.2-1.7-0.7-3.4-1.6-5c-1-2-1.8-4-2.6-6c-0.3-0.8-0.7-1.6,0.3-2.2
			c0.6-0.4,1.6,0.3,2.1,1.2c1,1.8,1.9,3.7,3,5.5c0.3,0.5,0.6,1.1,1.3,0.7s0.7-1,0.5-1.6c-0.8-3-1.5-6.1-2.3-9.1
			c-0.1-0.3-0.1-0.6-0.1-0.9c0.1-0.6,0.1-1.3,0.9-1.5s1.2,0.4,1.5,1c0.8,1.7,1.5,3.5,1.9,5.4c0.5,1.6,1,3.2,1.5,4.8
			c0.1,0.4,0.4,0.8,1,0.8c0.5,0,1-0.4,1-0.9c0.1-0.9,0.2-1.8,0.3-2.7c0.1-2.5,0-4.9,0.2-7.4c0.1-1,0.3-2.1,0.6-3.1
			c0.2-0.5,0.4-1.1,1.1-1.1c0.6,0.1,1.1,0.6,1.2,1.2c0.4,2.3,0.6,4.7,0.5,7C35.5,48.7,35.5,49.2,35.4,49.7L35.4,49.7z"/>
		<path class="st5" d="M35.9,41.6c-0.1-1-0.7-1.9-1.6-2.5c-0.4-0.2-0.3-0.7-0.3-1.1c0-2.4,0.2-4.9,0.6-7.3c0.1-1.2,0.1-2.4-0.2-3.6
			c-0.5-1.9-1.3-2.7-3.3-2.2c-1.2,0.2-1.3-0.4-1.2-1.2c0.4-4.5,0-9,0.3-13.5c0.2-2.4,0.6-4.7,1.2-7c0.2-0.6,0.5-1.3,0.8-1.8
			c0.4-0.7,1-1.5,1.9-1.4c0.9,0.1,1.7,0.7,2.1,1.6C37,3.3,37.4,5.2,37.5,7c0.4,5.9,0.3,11.7,0.2,17.6c0,1.8-0.1,3.6-0.2,5.4
			c0,1,0,2.2,1.1,2.5s1.6-0.8,2-1.6c0.6-1.5,1.2-3.1,1.6-4.8c1.6-4.5,2.7-9.1,4.6-13.5c0.5-1.6,1.4-3,2.7-4.1c1.3-1,2.6-0.8,3.3,0.7
			c0.7,1.6,0.7,3.5,0.2,5.2c-0.8,4.4-2.3,8.6-3.5,13c-1.1,4.1-2.6,8.1-3,12.4c-0.3,2.3-0.2,4.7,0.1,7c0.1,0.7,0.4,1.4,0.8,2.1
			c0.7,1.3,1.5,1.4,2.5,0.3c0.8-0.9,1.5-2,2-3.1c0.8-1.5,1.5-3.1,2.3-4.6c1.2-2.1,3.3-3.4,5.6-3.7c1.5-0.1,3.1,0.3,4.3,1.2
			c0.4,0.2,0.6,0.6,0.4,1c0,0.1-0.1,0.2-0.2,0.3C64,41,63.5,41.5,63,42c-1.9,1.3-2.7,3.4-3.6,5.4c-1.4,3.1-2.8,6.2-4.2,9.3
			c-0.9,1.8-2.1,3.5-3.4,5c-1.9,2.2-4,4.2-6.3,6c-0.2,0.2-0.4,0.3-0.7,0.4c-0.3,0.2-0.7,0.3-0.9,0.1s0.1-0.5,0.2-0.8
			c0.7-1.4,1.4-2.8,2-4.3c0.5-1.3,1.3-2.5,2.3-3.4c0.9-0.8,0.7-1.5-0.3-2.2c-1.9-1.1-4.2-0.4-5.3,1.5c-0.1,0.1-0.1,0.2-0.2,0.3
			c-0.4,0.9-0.9,1.7-1.4,2.5c-0.1,0.2-0.3,0.5-0.6,0.4s-0.2-0.4-0.3-0.7c-0.2-1.9-0.1-3.8,0.4-5.6c0.9-2.8,1.7-5.6,2.4-8.5
			c0.4-1.5,0.7-3.1-0.7-4.4c-0.3-0.3-0.1-0.7,0-1.1c0.5-1.9,1-3.9,1.3-5.9c0.1-0.4,0.1-0.8,0.1-1.2c0.2-0.9-0.2-1.8-1-2.2
			c-0.9-0.5-2-0.4-2.8,0.3c-0.9,0.8-1.5,1.8-1.8,2.9c-0.6,1.9-1.3,3.8-2,5.8L35.9,41.6z"/>
		<path class="st5" d="M26.9,43c-0.6-0.4-1.3-0.7-2-0.7c-0.5,0-0.6-0.5-0.7-1c-0.7-3.1-1.1-6.3-1.7-9.4c-0.5-2.9-1.1-5.9-2.9-8.2
			c-0.7-1.1-2-1.5-3.2-1c-0.4,0.1-0.6,0.1-0.7-0.4c-0.3-2.8-1.7-5.4-2-8.2c-0.2-1.4-0.8-2.8-0.6-4.3c0.2-1.2,0.2-2.5,1.7-2.9
			c1-0.3,2.8,0.8,3.5,2c1.3,2.3,2.3,4.9,2.9,7.5c0.7,3,1.7,5.8,2.6,8.7c0.6,1.9,1.1,3.8,1.8,5.6c0.4,1.1,0.7,2.2,2.1,2.5
			c0.8,0.1,0.5,0.8,0.5,1.3c-0.3,2.3-0.6,4.6-0.9,6.9C27,41.8,27,42.3,26.9,43z"/>
		<path class="st5" d="M4.3,18.9c1,0.2,1.9,0.7,2.6,1.5c1.2,1.6,2.2,3.3,3.1,5.1c1.4,2.4,2.4,5.1,4.1,7.3c2.1,2.6,2.4,5.6,3,8.6
			c0.3,1.3,0.5,2.6,0.8,4c0.1,0.4,0.4,0.9-0.2,1.1s-0.8-0.3-1-0.7c-1-1.8-1.9-3.7-2.9-5.5c-1.2-2.6-2.6-5.1-4.2-7.5
			c-1-1.4-2-2.6-3.9-2.7c-0.3,0-0.6-0.2-0.7-0.5c-1.2-2.5-2.2-5.1-2.9-7.8c-0.4-1.1,0.2-2.3,1.3-2.7C3.7,18.9,4,18.9,4.3,18.9z"/>
		<path class="st6" d="M25.4,54.8c-1.5-1.9-2.5-4.1-4-5.9c-0.6-0.8-1.6-1.1-2.5-0.7c-1,0.5-0.9,1.3-0.8,2.2c0.2,1.5,0.8,2.9,1.5,4.2
			c2,3.8,3.3,8.1,3.6,12.4c0.2,2.4,1.4,4.6,3.4,6c0.2,0.2,0.7,0.2,0.6,0.6s-0.4,0.4-0.8,0.6c-2.2,0.8-4.6,0.9-6.8,0.2
			c-2.9-0.7-5.1-2.5-7.4-4.3C9.3,68,7.7,65,5.8,62.2c-1.5-2.2-2.8-4.5-5.2-5.8c-0.8-0.4-0.7-0.9-0.1-1.5c1.4-1.4,4.3-1.4,6.1,0
			c1,0.9,1.9,1.9,2.6,3.1c0.6,0.9,1.3,1.7,2.1,2.5c0.5,0.4,0.9,0.9,1.7,0.7s0.8-0.9,0.9-1.5c0.2-1.6,0.1-3.3-0.3-4.9
			c-0.8-3.7-2.7-6.9-4.2-10.3C7.9,41.3,6.2,38.3,5,35c-0.2-0.6-0.4-1.3-0.4-2c-0.2-0.8,0.2-1.6,0.9-2c0.7-0.3,1.5-0.2,2,0.4
			c1.4,1.3,2.5,2.9,3.3,4.6c1.6,3,3.1,6,4.6,9c0.3,0.8,0.8,1.5,1.5,2c0.8,0.6,1.2,0.3,1.6-0.5c0.2-0.8,0.2-1.6-0.1-2.3
			c-1-4.8-1.8-9.6-2.5-14.5c-0.3-1.7-0.4-3.4-0.1-5.1c0-0.8,0.6-1.4,1.3-1.6c0.7-0.1,1.5,0.2,1.8,0.9c1.1,1.6,1.9,3.4,2.2,5.3
			c1,4.2,1.4,8.6,2.4,12.8c0.1,0.3,0.1,0.5,0,0.8c-0.8,1.9-0.2,3.7,0.2,5.5C24.3,50.5,24.8,52.7,25.4,54.8z"/>
		<path class="st6" d="M30.5,54.3c-0.6-2.5-1.4-5-2.3-7.5c-1.3-3-0.3-6,0.1-8.9c0.5-3.2,0.4-6.6,1.4-9.8c0.2-0.7,0.4-1.3,0.8-1.8
			c0.5-0.8,1.4-1,2.2-0.5c0.3,0.2,0.5,0.4,0.6,0.7c0.4,0.8,0.6,1.8,0.6,2.7c-0.2,3.1-0.4,6.2-0.7,9.4c0,0.2,0,0.4-0.2,0.6
			c-1.6,1.3-1.7,3.3-1.8,5.1c-0.2,2.7-0.2,5.4-0.2,8.1C31.1,53.1,30.9,53.8,30.5,54.3z"/>
		<path class="st6" d="M36.2,53.5c0-3.1,0-5.9,0-8.7c0.1-0.9,0.3-1.8,0.7-2.6c0.7-2,1.4-4.1,2.2-6.1c0.2-1,0.8-1.9,1.7-2.6
			c0.5-0.4,1.2-0.5,1.8-0.2c0.5,0.3,0.7,0.9,0.6,1.5c-0.2,2.6-0.7,5.1-1.5,7.6c0,0.2-0.1,0.4-0.3,0.4c-1.8,0.7-2.3,2.3-2.8,3.9
			C37.8,48.9,37.1,51.1,36.2,53.5z"/>
	</g>
</g>
</svg>
