<svg xmlns="http://www.w3.org/2000/svg" viewBox="0 0 670.04 275.93"><defs><style>.cls-1{fill:#262629;}.cls-2{fill:#0e7540;}</style></defs><g id="Layer_2" data-name="Layer 2"><g id="Layer_1-2" data-name="Layer 1"><path class="cls-1" d="M169.78,115.24c5.4,9.68,10.13,18.58,15.28,27.21a27.94,27.94,0,0,1,4.08,16.05c-.38,9.65-.21,19.33,0,29,0,2.83-.78,3.6-3.58,3.66-13.37.25-13.36.33-13.37-12.87q0-13.25-.09-26.49c0-.09-.21-.19-.63-.55-5.16,6.4-10.34,12.8-16.84,17.95-28.41,22.52-60.07,28.39-93.78,15.41S6.68,145.91,1.16,110c-8.1-52.7,27-101,79.41-108.53,39-5.58,70.73,8.84,92.41,41.63,18.69,28.28,35.34,57.93,50.8,88.14,25.66,50.16,92.7,57.82,129.14,14.51l4-4.74c0,8.62,0,16.15,0,23.68,0,2.57-2.4,3.45-4,4.76C309.22,205.81,242.75,194.74,213,146.29c-17.67-28.77-33.92-58.36-50.17-87.94C137.63,12.48,78,3.19,40.37,39.27c-23.46,22.47-30.32,59-16.67,88.91,13.89,30.41,45.24,49.34,77.89,45.52,34-4,56.39-23.2,67.41-55.61C169.19,117.53,169.32,116.94,169.78,115.24Z"/><path class="cls-1" d="M651.77,121.92c0,8.82-.08,17.64,0,26.46a11.26,11.26,0,0,1-2.84,8.19c-26.53,29.88-59.45,41.47-98,30.62s-61.59-37.45-67.92-76.9C473.15,48.38,522.22-1.9,585,4.83c49.73,5.34,86.69,47.78,84.91,97.33-.13,3.88-.95,5.37-5.29,5.34-29.65-.22-59.3-.18-89,0-3.67,0-5.11-.81-4.59-4.66s-1.64-9.06.81-11.51,7.61-.74,11.57-.76c21.32-.07,42.64-.12,64,.06,4,0,5.16-.91,4.47-5-6-35.63-37.73-63.22-74.25-64.43a76.5,76.5,0,0,0-77.32,58.87c-10.2,42.32,21.54,87.92,64.87,93.07,26.62,3.16,50.16-3.37,69.35-22.78C642.5,142.31,647.69,132.51,651.77,121.92Z"/><path class="cls-2" d="M217.35,75.34c-3.39-6-6.44-11.46-9.62-16.89-1.18-2-.09-3.53.73-5.11,15.16-29.38,38.93-47.55,71.68-52C316-3.57,346,8.91,367.85,37.69c9.28,12.21,15.71,26.6,23.43,40A182.78,182.78,0,0,0,403,96.3V91.42c0-28.49.1-57,0-85.47,0-4.28.69-6.07,5.57-5.94,12.83.32,12.83.06,12.82,13.1V39.7c5.51-6.19,10.22-11.94,15.91-16.77A94.24,94.24,0,0,1,491.1.43c2.42-.22,3.48.35,3.32,2.8,0,.16,0,.33,0,.5,0,4,1.08,8.52-.44,11.85-1.72,3.79-7,2.32-10.68,3.11-19,4.09-34.6,14.25-46.78,28.73C427,58.8,421,72.35,421.2,88.07c.43,32.48.29,65,.58,97.45,0,4.2-.78,6.22-5.41,5.63-4.25-.54-9.82,1.72-12.51-.92s-.79-8.22-.83-12.5q-.16-20.23,0-40.48a14.61,14.61,0,0,0-2-7.53C387.47,105.46,374.33,81,360.44,56.93c-16.16-28-41.11-41.74-73.09-39.31s-54.26,19.93-66.58,49.72c-1,2.3-1.77,4.66-2.66,7A10,10,0,0,1,217.35,75.34Z"/><path class="cls-1" d="M418.43,270.24c-4.27,5.09-9.65,7-16,4.71S394,267,393,260.86a36,36,0,0,1,.12-12.42c2.54-13.26,13.87-17.79,25.92-9.33,0-6-.11-11.29.08-16.61,0-1.22-1.54-3.69,1.54-3.65,2.73.05,1.87,2.29,1.87,3.75.05,15.79.09,31.59-.06,47.38,0,1.62,1.61,4.62-1.42,4.85C418.43,275,420.22,271.74,418.43,270.24Zm.61-15.86c0-2.49-.19-5,0-7.46.32-3.23-1.17-5.36-3.59-7.13a11.27,11.27,0,0,0-17.37,4.8,27.33,27.33,0,0,0,.19,21.77A10.18,10.18,0,0,0,410,272.65a11,11,0,0,0,9-10.8C419.05,259.36,419,256.87,419,254.38Z"/><path class="cls-1" d="M217.1,255.27A27.92,27.92,0,0,1,218.83,245c2.82-7.13,8.11-10.76,15.26-10.5s12.46,4.14,14.57,11.37a30.15,30.15,0,0,1-.29,18.64c-2.55,7.41-7.86,11.4-15.15,11.37-7.11,0-12.52-4.29-14.86-11.78A27.42,27.42,0,0,1,217.1,255.27Zm29-.13a27.31,27.31,0,0,0-1-8.37c-2.05-6.29-6.12-9.52-12-9.34-5.52.18-9.54,3.5-11.27,9.58a29,29,0,0,0,.38,17.67,11.29,11.29,0,0,0,10.32,8.09c5.27.44,9-1.92,11.51-7A22.19,22.19,0,0,0,246.14,255.14Z"/><path class="cls-1" d="M474.56,269.89a14.6,14.6,0,0,1-9.51,5.82c-7,1.17-12.69-2.32-14.1-8.66-1.56-7.07,2-13.12,8.92-15a37.71,37.71,0,0,1,11.89-.85c2.38.13,3.09-.71,3.08-3.13-.06-8.18-3.66-11.41-11.92-10.3a22.57,22.57,0,0,1-3.92.6c-1.68-.07-4.07,3-4.89-.29-.64-2.56,2.56-1.92,4-2.53,3-1.22,6.21-1.08,9.37-.9,6.67.37,10.39,4.17,10.5,10.82.11,6.49,0,13,0,19.48,0,2.79-.18,5.76,2.27,7.82.79.67,1,1.33.55,2.08-.77,1.22-1.8.38-2.59,0C476.34,274,475.84,271.83,474.56,269.89Zm.28-10.12c-1-1.52,2.07-5.21-2-5.6-4.39-.43-9-.75-13.21,1.16a9.47,9.47,0,0,0-5.21,10.7c1,4.46,4.27,6.92,9,6.8C470.44,272.65,474.82,267.77,474.84,259.77Z"/><path class="cls-1" d="M581,254.36a30.17,30.17,0,0,1,1.78-9.51c2.72-7,8-10.58,15.36-10.34,7.07.24,12,4,14.27,11.06a30.09,30.09,0,0,1-.61,20.52A15,15,0,0,1,597,275.88c-6.8-.15-11.8-3.86-14.23-10.49A30.34,30.34,0,0,1,581,254.36Zm29.1.61a28,28,0,0,0-1.59-9.77c-1.9-4.9-5.47-7.45-10.61-7.63s-9.2,2-11.11,6.83c-2.91,7.39-3,15,.38,22.25,1.92,4.11,5.46,6.1,10,6.14a11,11,0,0,0,10.52-6.24C609.65,262.93,610.11,259,610.1,255Z"/><path class="cls-1" d="M171.91,249c0-7.49.19-15-.09-22.45-.12-3.2.91-3.87,3.88-3.76,6,.22,12,0,18,0,1.18,0,3-.7,3.06,1.43.1,2.53-2,1.7-3.25,1.73-4.82.08-9.65.18-14.46,0-2.64-.09-3.92.4-3.76,3.46a139.29,139.29,0,0,1,0,14.45c-.15,2.84,1.06,3.38,3.48,3.31,4.15-.1,8.31,0,12.46,0,1.26,0,2.47,0,2.35,1.72-.09,1.37-1.23,1.32-2.23,1.32-3.66,0-7.34.25-11-.06-3.83-.33-5.36.77-5.09,4.87.36,5.63.15,11.3.11,17,0,1.19.56,2.88-1.56,3-2.57.18-1.85-1.77-1.86-3.09,0-7.65,0-15.3,0-22.94Z"/><path class="cls-1" d="M302.17,268.26c-4.47,5.84-9.32,8.53-15.7,7.32a9.69,9.69,0,0,1-8.31-9.78c-.24-9.3-.08-18.62-.1-27.92,0-1.2-.09-2.53,1.5-2.64,1.88-.14,2,1.25,2,2.69,0,8.14,0,16.29.07,24.43.08,7.42,2.52,10.43,8.28,10.49,6,.06,12.06-5.56,12.12-11.48.08-7.65,0-15.3,0-22.94,0-1.23-.54-3.06,1.39-3.17,2.36-.13,1.79,1.94,1.8,3.3,0,11,.05,21.94,0,32.91,0,1.19,1.17,3.46-1.38,3.42-2.22,0-1.43-2.18-1.65-3.52A25.33,25.33,0,0,1,302.17,268.26Z"/><path class="cls-1" d="M340.51,240.62c3.37-2.49,6.41-5.58,11-6,7.64-.7,12.34,3,12.5,10.59.19,9,.07,18,0,27,0,1.15.63,2.92-1.63,2.84s-1.52-1.83-1.53-3c-.1-8.15.07-16.31-.2-24.46-.25-7.35-2.86-10.38-8.09-10.24-6.34.16-12.6,5.88-12.66,11.7-.08,7.49,0,15-.11,22.47,0,1.43.84,3.73-2,3.5-2.43-.2-1.5-2.24-1.51-3.5-.08-10.15-.11-20.3,0-30.45,0-1.94-1.36-5.17,1.44-5.54C340.8,235.08,338.77,239,340.51,240.62Z"/><path class="cls-1" d="M646.22,241.15c3.77-3.92,8-7,13.79-6.58,6.32.45,9.78,3.67,9.92,10.14.21,9.15.05,18.32,0,27.47,0,1.23.53,2.86-1.64,2.84s-1.5-1.84-1.51-2.94c-.1-8.16.06-16.32-.15-24.47-.17-7.2-2.82-10.34-8.1-10.32-5.85,0-12.62,5.86-12.71,11.2-.13,7.66,0,15.32-.05,23,0,1.5.7,3.72-2.09,3.49-2.42-.2-1.49-2.23-1.5-3.51-.08-10.49-.12-21,0-31.47,0-1.58-1.16-4.47,1.44-4.52,3-.06,1.57,2.91,1.85,4.66C645.53,240.39,645.83,240.61,646.22,241.15Z"/><path class="cls-1" d="M509.19,253.52c0-3,0-6,0-9,0-3.33,1.08-7.53-4.89-6.32a1.36,1.36,0,0,1-1.71-1.34,1.49,1.49,0,0,1,1.92-1.66c4.76.92,5-1.8,4.76-5.4-.11-1.54-1.18-4.22,1.68-4.36,3-.14,2.08,2.67,1.83,4.1-.9,5.19,1.53,6.25,6,5.71,1.36-.17,4-1,4,1.46s-2.66,1.65-4,1.42c-5.41-1-6.27,1.61-6,6.28.36,7,.06,14,.13,21,.07,6.19,2.91,8.24,9,6.82,1.34-.31,3.46-2.31,4.09.42.52,2.3-2.11,2.12-3.51,2.55-7.88,2.4-13-1.35-13.23-9.67C509.11,261.51,509.19,257.52,509.19,253.52Z"/><path class="cls-1" d="M552.86,255.53c0,5.47,0,10.94,0,16.41,0,1.45.23,3.23-2.13,3-2.08-.17-1.51-1.88-1.51-3.05q-.06-16.67,0-33.33c0-1.31-.64-3.31,1.8-3.28s1.78,1.95,1.79,3.31c0,5.64,0,11.27,0,16.91Z"/><path class="cls-1" d="M551.38,218.43a2.42,2.42,0,0,1,2.3,2.41,2.21,2.21,0,0,1-2.33,2.59c-1.77.09-3-.69-2.92-2.55C548.49,219.42,549.47,218.5,551.38,218.43Z"/></g></g></svg>