<svg xmlns="http://www.w3.org/2000/svg" viewBox="0 0 332.41 77.57"><defs><style>.cls-1{font-size:38.44px;fill:#231f20;font-family:ManifaPro2-Bold, ManifaPro2;font-weight:700;letter-spacing:0.11em;}.cls-2{fill:#fbe600;}.cls-3{fill:#3c9bd4;}.cls-4{fill:#ef7245;}</style></defs><g id="Layer_2" data-name="Layer 2"><g id="Layer_1-2" data-name="Layer 1"><text class="cls-1" transform="translate(72.72 52.52)">Letsallhelp.org</text><path class="cls-2" d="M35.39,49.72c0,1.42,0,2.84,0,4.27,0,.48,0,1.08.59,1.16s.78-.45.94-.93c.8-2.37,1.62-4.73,2.39-7.12a11.65,11.65,0,0,1,1.26-2.61c.25-.4.64-.82,1.19-.66A1.21,1.21,0,0,1,42.6,45a9.12,9.12,0,0,1-.35,3c-.9,3.2-1.83,6.38-2.63,9.6a9.1,9.1,0,0,0,.09,4.66c.32,1.17,1,1.32,1.83.45a6.19,6.19,0,0,0,1.18-2.13,4.85,4.85,0,0,1,2.13-2.51,2.77,2.77,0,0,1,2.77.13c.46.21.44.6.07.9-2,1.68-2.63,4.2-3.69,6.43a14.5,14.5,0,0,1-6.08,6.64,7.76,7.76,0,0,1-5,.57,15.6,15.6,0,0,0-3.12-.17c-3.27.2-4.45-1.64-5.27-3.87a25.9,25.9,0,0,1-1.22-6.59,14.22,14.22,0,0,0-1.56-5,62.94,62.94,0,0,1-2.57-6c-.28-.76-.67-1.62.27-2.18.6-.37,1.58.34,2.08,1.22,1.05,1.8,1.86,3.74,3,5.46.32.45.58,1.07,1.3.69s.66-1,.48-1.64c-.79-3-1.54-6.07-2.3-9.11a2,2,0,0,1-.1-.88c.13-.59.07-1.33.9-1.5s1.19.4,1.54,1a22.79,22.79,0,0,1,1.86,5.37c.46,1.61,1,3.21,1.48,4.81.14.43.37.83.95.79a1,1,0,0,0,1-.94,21.74,21.74,0,0,0,.26-2.67c.11-2.46,0-4.92.2-7.39a15.07,15.07,0,0,1,.6-3.06c.16-.53.44-1.13,1.1-1.09a1.28,1.28,0,0,1,1.15,1.21,37.1,37.1,0,0,1,.5,7c0,.48,0,1,0,1.45Z"/><path class="cls-3" d="M35.94,41.63a3.43,3.43,0,0,0-1.56-2.48c-.44-.24-.31-.7-.32-1.11a63,63,0,0,1,.57-7.26,11.5,11.5,0,0,0-.17-3.56C34,25.29,33.11,24.56,31.17,25c-1.22.24-1.3-.36-1.24-1.16.35-4.51,0-9,.34-13.54a35.49,35.49,0,0,1,1.18-7,8.37,8.37,0,0,1,.83-1.83c.42-.73.95-1.5,1.88-1.38a2.78,2.78,0,0,1,2.13,1.57A13.58,13.58,0,0,1,37.45,7c.38,5.85.31,11.71.23,17.56,0,1.79-.14,3.58-.18,5.37,0,1,0,2.23,1.14,2.55s1.58-.83,2-1.62a34.21,34.21,0,0,0,1.59-4.77c1.61-4.46,2.7-9.1,4.58-13.47a9.57,9.57,0,0,1,2.65-4.08c1.3-1,2.56-.83,3.29.67A8,8,0,0,1,53,14.38c-.8,4.42-2.32,8.65-3.46,13-1.09,4.11-2.62,8.12-3,12.4a24.73,24.73,0,0,0,.14,7,6.42,6.42,0,0,0,.8,2.08c.73,1.27,1.45,1.37,2.45.33a12.65,12.65,0,0,0,2-3.08c.79-1.52,1.46-3.12,2.34-4.58a7.29,7.29,0,0,1,5.6-3.65,6.5,6.5,0,0,1,4.34,1.24.79.79,0,0,1,.21,1.31A8.22,8.22,0,0,1,63,42c-1.91,1.34-2.69,3.39-3.6,5.37-1.41,3.09-2.78,6.21-4.23,9.28a24.84,24.84,0,0,1-3.38,5,44.49,44.49,0,0,1-6.29,6,6.16,6.16,0,0,1-.65.44c-.29.19-.65.35-.92.07s.06-.54.17-.79c.66-1.43,1.37-2.83,2-4.27a9.54,9.54,0,0,1,2.27-3.41c.87-.79.74-1.53-.26-2.16a3.88,3.88,0,0,0-5.44,1.79c-.43.86-.89,1.7-1.36,2.54-.12.23-.34.48-.61.43s-.25-.42-.26-.65A16.24,16.24,0,0,1,40.85,56c.87-2.81,1.67-5.63,2.36-8.48.37-1.5.74-3.11-.65-4.41-.32-.29-.13-.7,0-1.06a54.58,54.58,0,0,0,1.28-5.91q.08-.61.12-1.23a2,2,0,0,0-1-2.18,2.47,2.47,0,0,0-2.83.29,6,6,0,0,0-1.83,2.88c-.63,1.94-1.32,3.85-2,5.78Z"/><path class="cls-3" d="M26.85,43a4.18,4.18,0,0,0-2-.73c-.54,0-.6-.55-.71-1C23.42,38.19,23,35,22.43,31.85,21.9,29,21.34,26,19.5,23.6a2.54,2.54,0,0,0-3.2-1c-.45.15-.63.06-.67-.37-.3-2.84-1.67-5.4-2-8.25-.16-1.42-.77-2.8-.56-4.28.16-1.17.24-2.47,1.69-2.87,1-.29,2.79.81,3.48,2a26.22,26.22,0,0,1,2.87,7.49c.68,2.95,1.72,5.8,2.58,8.69.56,1.89,1.13,3.76,1.76,5.62.36,1.09.68,2.23,2.12,2.46.75.12.52.83.46,1.3-.28,2.3-.61,4.59-.93,6.88C27,41.78,27,42.34,26.85,43Z"/><path class="cls-3" d="M4.29,18.92a4.22,4.22,0,0,1,2.57,1.55,27.8,27.8,0,0,1,3.08,5.06c1.35,2.44,2.4,5.12,4.12,7.27,2.08,2.59,2.37,5.58,3,8.57.26,1.31.51,2.63.75,4,.07.37.37.9-.16,1.08s-.81-.34-1-.72c-1-1.81-1.89-3.65-2.85-5.46a64.35,64.35,0,0,0-4.18-7.53c-1-1.36-2-2.64-3.88-2.66A.74.74,0,0,1,5,29.54a41.21,41.21,0,0,1-2.93-7.8A2.12,2.12,0,0,1,4.29,18.92Z"/><path class="cls-4" d="M25.39,54.85c-1.52-1.88-2.45-4.09-4-5.91a2.25,2.25,0,0,0-2.54-.74c-1.05.45-.93,1.34-.82,2.2a11.85,11.85,0,0,0,1.55,4.18A31.46,31.46,0,0,1,23.16,67a8.06,8.06,0,0,0,3.35,6c.22.16.67.21.58.57s-.43.45-.77.57a11.22,11.22,0,0,1-6.83.23c-2.87-.73-5.12-2.54-7.4-4.29-2.75-2.11-4.4-5.13-6.3-7.93C4.31,59.92,3,57.64.55,56.39c-.76-.39-.67-.91-.1-1.49,1.38-1.39,4.27-1.38,6.11,0A13.54,13.54,0,0,1,9.13,58a15.08,15.08,0,0,0,2.09,2.48c.47.44.95.93,1.67.68s.83-.93.92-1.55a12.84,12.84,0,0,0-.26-4.9c-.83-3.69-2.7-6.94-4.25-10.34C7.88,41.27,6.17,38.28,5,35a10.13,10.13,0,0,1-.45-2,1.85,1.85,0,0,1,.92-2,1.65,1.65,0,0,1,2,.44,16,16,0,0,1,3.27,4.65c1.57,3,3.08,6,4.61,9a5.54,5.54,0,0,0,1.46,2c.75.56,1.21.33,1.59-.52a3.44,3.44,0,0,0-.1-2.29c-1-4.8-1.79-9.62-2.48-14.46a15.76,15.76,0,0,1-.11-5.13A1.67,1.67,0,0,1,17,23.13a1.8,1.8,0,0,1,1.82.88,14.31,14.31,0,0,1,2.25,5.33c1,4.21,1.36,8.56,2.42,12.77a1.27,1.27,0,0,1,0,.77c-.77,1.86-.25,3.66.23,5.48C24.32,50.52,24.84,52.69,25.39,54.85Z"/><path class="cls-4" d="M30.53,54.32a73.54,73.54,0,0,0-2.28-7.48c-1.28-3.05-.33-6,.08-8.9.45-3.25.41-6.57,1.38-9.75a5.64,5.64,0,0,1,.8-1.83,1.59,1.59,0,0,1,2.82.18,4.84,4.84,0,0,1,.57,2.71c-.2,3.13-.44,6.25-.67,9.38,0,.21,0,.44-.2.61-1.62,1.35-1.69,3.27-1.79,5.12-.16,2.68-.16,5.38-.24,8.06A3.05,3.05,0,0,1,30.53,54.32Z"/><path class="cls-4" d="M36.16,53.49c0-3.1,0-5.9,0-8.69a7.63,7.63,0,0,1,.71-2.57q1-3.07,2.16-6.12a4.73,4.73,0,0,1,1.65-2.59,1.68,1.68,0,0,1,1.8-.16,1.46,1.46,0,0,1,.63,1.46,35.32,35.32,0,0,1-1.45,7.56c0,.18-.1.36-.3.44-1.79.69-2.32,2.33-2.85,3.91C37.78,48.88,37.13,51.06,36.16,53.49Z"/></g></g></svg>