<svg xmlns="http://www.w3.org/2000/svg" xmlns:xlink="http://www.w3.org/1999/xlink" width="70" zoomAndPan="magnify" viewBox="0 0 37.5 37.499999" height="70" preserveAspectRatio="xMidYMid meet" version="1.0"><defs><clipPath id="0b74217c1a"><path d="M 3.699219 3.699219 L 33.304688 3.699219 L 33.304688 33.304688 L 3.699219 33.304688 Z M 3.699219 3.699219 " clip-rule="nonzero"/></clipPath><clipPath id="d4ca63756f"><path d="M 3.699219 16 L 18 16 L 18 33 L 3.699219 33 Z M 3.699219 16 " clip-rule="nonzero"/></clipPath></defs><g clip-path="url(#0b74217c1a)"><path stroke-linecap="butt" transform="matrix(0.926322, 0, 0, 0.926322, 3.700658, 3.913712)" fill="none" stroke-linejoin="miter" d="M 28.888734 29.240673 L 28.888734 30.999139 C 28.319446 30.999139 27.809196 30.999139 27.298946 30.999139 C 27.21039 30.999139 27.088099 30.851546 27.050146 30.750339 C 26.90677 30.375031 26.780262 29.995506 26.679055 29.611764 C 26.611584 29.308144 26.459774 29.219588 26.151937 29.228022 L 21.15064 29.228022 C 16.03127 29.228022 10.920333 29.228022 5.809396 29.228022 C 5.421437 29.228022 5.219024 29.329229 5.130468 29.721405 C 5.041912 30.109364 4.96179 30.720821 4.670821 30.931668 C 4.379852 31.138298 3.738876 30.999139 3.258144 30.999139 L 2.941873 30.999139 L 2.941873 29.228022 C 2.731026 29.228022 2.549698 29.181636 2.359935 29.139466 C 1.849685 29.025609 1.42799 28.768375 1.086418 28.371982 C 0.744845 27.979807 0.5593 27.52016 0.521347 27.001475 C 0.521347 26.879184 0.521347 26.76111 0.521347 26.638818 C 0.521347 21.898972 0.521347 17.150693 0.521347 12.410847 C 0.496046 11.997586 0.571951 11.601194 0.753279 11.225886 C 0.930391 10.854794 1.183408 10.542741 1.520763 10.298158 C 1.997278 9.973453 2.524396 9.82586 3.0979 9.859595 L 24.608535 9.859595 L 24.608535 9.787907 C 24.498895 9.72887 24.410339 9.648748 24.300698 9.598145 C 22.500063 8.670417 20.619305 7.869198 18.911443 6.781226 C 17.199363 5.689037 15.550538 5.111316 13.998702 3.998042 C 13.189049 3.428755 12.299274 3.061881 11.481186 2.530546 C 11.299858 2.425122 11.118529 2.425122 10.941417 2.530546 C 10.679967 2.619102 10.308876 2.408254 9.942002 2.328132 L 10.642014 0.999795 C 10.869729 1.370886 11.460102 1.341367 11.388414 1.919089 C 11.388414 1.919089 11.53179 2.020295 11.611912 2.058248 C 12.328792 2.505244 13.083625 2.884769 13.867977 3.188389 C 15.609575 3.681772 17.039119 4.820347 18.700596 5.448671 C 21.698843 6.561945 24.351301 8.278241 27.21039 9.610796 C 27.530878 9.749955 27.864016 9.830077 28.209806 9.851162 C 28.648368 9.901765 29.108015 9.851162 29.538143 9.918633 C 29.824896 9.97767 30.086346 10.083094 30.330929 10.234904 C 30.575512 10.390931 30.786359 10.580693 30.959254 10.812625 C 31.136365 11.04034 31.262874 11.297574 31.347213 11.571675 C 31.427335 11.849993 31.46107 12.132529 31.439985 12.419281 C 31.439985 16.079589 31.439985 19.748331 31.439985 23.421289 L 31.439985 26.579781 C 31.469504 26.91292 31.431552 27.241841 31.326128 27.558112 C 31.220704 27.874383 31.056243 28.161135 30.832745 28.409935 C 30.609247 28.658735 30.34358 28.852714 30.03996 28.991873 C 29.73634 29.131033 29.415852 29.202721 29.078496 29.211154 Z M 28.888734 29.240673 " stroke="#ffffff" stroke-width="1" stroke-opacity="1" stroke-miterlimit="10"/></g><path stroke-linecap="butt" transform="matrix(0.926322, 0, 0, 0.926322, 3.700658, 3.913712)" fill="none" stroke-linejoin="miter" d="M 28.180287 17.509133 L 28.180287 12.668081 L 4.240692 12.668081 L 4.240692 17.479614 L 12.240236 17.479614 L 12.240236 15.088607 L 13.420981 15.088607 L 13.420981 17.509133 Z M 28.180287 17.509133 " stroke="#ffffff" stroke-width="0.5" stroke-opacity="1" stroke-miterlimit="10"/><g clip-path="url(#d4ca63756f)"><path stroke-linecap="butt" transform="matrix(0.926322, 0, 0, 0.926322, 3.700658, 3.913712)" fill="none" stroke-linejoin="miter" d="M 4.430455 22.598985 C 4.430455 22.797182 4.464191 22.986944 4.540096 23.17249 C 4.616001 23.353818 4.721424 23.514062 4.860583 23.657438 C 4.999742 23.796598 5.159986 23.906238 5.341315 23.982143 C 5.522644 24.058048 5.712406 24.100218 5.910603 24.100218 C 6.113016 24.104435 6.306995 24.070699 6.492541 23.994794 C 6.682303 23.923106 6.846764 23.813465 6.99014 23.674306 C 7.137733 23.535147 7.247374 23.370686 7.327496 23.185141 C 7.407618 22.999595 7.44557 22.809833 7.449787 22.607419 C 7.454004 22.405006 7.416052 22.211026 7.340147 22.025481 C 7.264242 21.839935 7.154601 21.671257 7.015442 21.527881 C 6.872066 21.384505 6.711822 21.274865 6.522059 21.19896 C 6.336514 21.118838 6.146751 21.080885 5.944338 21.080885 C 5.741925 21.080885 5.547945 21.118838 5.3624 21.194743 C 5.176854 21.270648 5.012393 21.380288 4.869017 21.523664 C 4.729858 21.667041 4.620217 21.831501 4.544312 22.017047 C 4.464191 22.206809 4.430455 22.396572 4.430455 22.598985 Z M 4.430455 22.598985 " stroke="#ffffff" stroke-width="0.5" stroke-opacity="1" stroke-miterlimit="10"/></g><path stroke-linecap="butt" transform="matrix(0.926322, 0, 0, 0.926322, 3.700658, 3.913712)" fill="none" stroke-linejoin="miter" d="M 11.919749 22.598985 C 11.919749 22.396572 11.881796 22.206809 11.805891 22.017047 C 11.729986 21.831501 11.620346 21.667041 11.481186 21.523664 C 11.33781 21.380288 11.173349 21.270648 10.987804 21.194743 C 10.802258 21.118838 10.608279 21.080885 10.405866 21.080885 C 10.203452 21.080885 10.009473 21.118838 9.823927 21.19896 C 9.638382 21.274865 9.478138 21.384505 9.334762 21.527881 C 9.195602 21.671257 9.085962 21.839935 9.010057 22.025481 C 8.934152 22.211026 8.896199 22.405006 8.900416 22.607419 C 8.900416 22.809833 8.942586 22.999595 9.022708 23.185141 C 9.10283 23.370686 9.21247 23.535147 9.360063 23.674306 C 9.503439 23.813465 9.6679 23.923106 9.857663 23.994794 C 10.043208 24.070699 10.237188 24.104435 10.439601 24.100218 C 10.637797 24.100218 10.82756 24.058048 11.008889 23.982143 C 11.190217 23.906238 11.350461 23.796598 11.48962 23.657438 C 11.628779 23.514062 11.734203 23.353818 11.810108 23.17249 C 11.886013 22.986944 11.919749 22.797182 11.919749 22.598985 Z M 11.919749 22.598985 " stroke="#ffffff" stroke-width="0.5" stroke-opacity="1" stroke-miterlimit="10"/><path stroke-linecap="butt" transform="matrix(0.926322, 0, 0, 0.926322, 3.700658, 3.913712)" fill="none" stroke-linejoin="miter" d="M 28.100165 21.679691 L 28.100165 20.878472 L 17.528285 20.878472 L 17.528285 21.679691 Z M 28.100165 21.679691 " stroke="#ffffff" stroke-width="0.25" stroke-opacity="1" stroke-miterlimit="10"/><path stroke-linecap="butt" transform="matrix(0.926322, 0, 0, 0.926322, 3.700658, 3.913712)" fill="none" stroke-linejoin="miter" d="M 28.100165 22.459826 L 17.540936 22.459826 L 17.540936 23.269479 L 28.100165 23.269479 Z M 28.100165 22.459826 " stroke="#ffffff" stroke-width="0.25" stroke-opacity="1" stroke-miterlimit="10"/><path stroke-linecap="butt" transform="matrix(0.926322, 0, 0, 0.926322, 3.700658, 3.913712)" fill="none" stroke-linejoin="miter" d="M 17.528285 24.850834 L 28.079081 24.850834 L 28.079081 23.999011 L 17.528285 23.999011 Z M 17.528285 24.850834 " stroke="#ffffff" stroke-width="0.25" stroke-opacity="1" stroke-miterlimit="10"/><path stroke-linecap="butt" transform="matrix(0.926322, 0, 0, 0.926322, 3.700658, 3.913712)" fill="none" stroke-linejoin="miter" d="M 17.621058 20.089903 L 27.998959 20.089903 C 27.910403 19.849537 27.754376 19.659775 27.539312 19.520616 C 27.324247 19.37724 27.088099 19.313985 26.830865 19.330853 C 24.148888 19.330853 21.479562 19.330853 18.831321 19.330853 C 18.565653 19.309768 18.325288 19.373023 18.10179 19.512182 C 17.878291 19.651341 17.718048 19.84532 17.621058 20.089903 Z M 17.621058 20.089903 " stroke="#ffffff" stroke-width="0.25" stroke-opacity="1" stroke-miterlimit="10"/><path stroke-linecap="butt" transform="matrix(0.926322, 0, 0, 0.926322, 3.700658, 3.913712)" fill="none" stroke-linejoin="miter" d="M 27.998959 25.630968 L 17.637926 25.630968 C 17.743349 25.867117 17.903593 26.052663 18.122874 26.187605 C 18.342155 26.322547 18.582521 26.377368 18.839755 26.3605 L 26.839299 26.3605 C 27.092316 26.377368 27.324247 26.31833 27.539312 26.183388 C 27.750159 26.048446 27.906186 25.8629 27.998959 25.630968 Z M 27.998959 25.630968 " stroke="#ffffff" stroke-width="0.25" stroke-opacity="1" stroke-miterlimit="10"/></svg>