<svg xmlns="http://www.w3.org/2000/svg" xmlns:xlink="http://www.w3.org/1999/xlink" width="70" zoomAndPan="magnify" viewBox="0 0 37.5 37.499999" height="70" preserveAspectRatio="xMidYMid meet" version="1.0"><defs><clipPath id="c64affef9b"><path d="M 4.292969 3 L 32 3 L 32 22 L 4.292969 22 Z M 4.292969 3 " clip-rule="nonzero"/></clipPath><clipPath id="79bdf53f91"><path d="M 7 16 L 33.15625 16 L 33.15625 34 L 7 34 Z M 7 16 " clip-rule="nonzero"/></clipPath><clipPath id="a4e095b836"><path d="M 34.785156 34.785156 L 37.007812 34.785156 L 37.007812 37.007812 L 34.785156 37.007812 Z M 34.785156 34.785156 " clip-rule="nonzero"/></clipPath></defs><g clip-path="url(#c64affef9b)"><path fill="#ffffff" d="M 4.292969 17.777344 L 5.996094 17.417969 C 6.378906 16.042969 6.855469 14.699219 7.417969 13.390625 C 7.878906 12.410156 8.457031 11.507812 9.15625 10.683594 C 9.855469 9.859375 10.652344 9.140625 11.539062 8.527344 C 12.429688 7.917969 13.382812 7.433594 14.402344 7.074219 C 15.421875 6.71875 16.46875 6.503906 17.542969 6.425781 C 18.070312 6.445312 18.578125 6.351562 19.0625 6.144531 C 19.546875 5.933594 19.964844 5.632812 20.316406 5.238281 C 21.207031 4.253906 22.308594 3.683594 23.621094 3.527344 C 23.742188 3.5 23.859375 3.457031 23.972656 3.40625 L 25.546875 3.40625 C 26.902344 3.636719 28.117188 4.191406 29.183594 5.066406 C 29.382812 5.246094 29.574219 5.433594 29.753906 5.632812 C 29.929688 5.835938 30.097656 6.042969 30.25 6.265625 C 30.40625 6.484375 30.542969 6.714844 30.671875 6.953125 C 30.796875 7.191406 30.910156 7.433594 31.003906 7.683594 C 31.101562 7.9375 31.183594 8.191406 31.25 8.453125 C 31.3125 8.714844 31.363281 8.976562 31.398438 9.246094 C 31.433594 9.511719 31.449219 9.777344 31.453125 10.046875 C 31.453125 10.316406 31.4375 10.585938 31.410156 10.851562 C 31.378906 11.121094 31.332031 11.386719 31.269531 11.648438 C 31.207031 11.910156 31.128906 12.164062 31.035156 12.417969 C 30.941406 12.667969 30.835938 12.914062 30.710938 13.15625 C 30.589844 13.394531 30.453125 13.625 30.300781 13.847656 C 30.148438 14.070312 29.988281 14.28125 29.808594 14.484375 C 29.632812 14.6875 29.445312 14.878906 29.246094 15.058594 C 29.046875 15.238281 28.835938 15.40625 28.617188 15.558594 C 28.398438 15.714844 28.171875 15.855469 27.933594 15.980469 C 27.699219 16.105469 27.457031 16.21875 27.207031 16.316406 C 26.957031 16.414062 26.699219 16.496094 26.441406 16.558594 C 26.179688 16.625 25.917969 16.675781 25.652344 16.710938 C 25.386719 16.746094 25.121094 16.761719 24.851562 16.765625 C 24.585938 16.765625 24.316406 16.75 24.050781 16.71875 C 23.785156 16.691406 23.523438 16.644531 23.261719 16.578125 C 23 16.515625 22.746094 16.4375 22.496094 16.34375 C 22.242188 16.25 22 16.140625 21.761719 16.019531 C 21.523438 15.894531 21.292969 15.757812 21.074219 15.605469 C 20.851562 15.453125 20.640625 15.289062 20.4375 15.113281 C 20.238281 14.9375 20.046875 14.746094 19.867188 14.546875 C 19.6875 14.347656 19.523438 14.136719 19.371094 13.914062 C 19.214844 13.695312 19.078125 13.464844 18.949219 13.226562 C 18.824219 12.992188 18.714844 12.746094 18.617188 12.496094 C 18.519531 12.242188 18.4375 11.988281 18.375 11.726562 C 18.308594 11.464844 18.257812 11.203125 18.222656 10.933594 C 18.179688 10.109375 18.179688 9.285156 18.222656 8.460938 C 13.90625 7.988281 8.148438 13.179688 8.300781 17.578125 C 8.683594 17.558594 9.066406 17.558594 9.449219 17.578125 C 9.667969 17.59375 9.84375 17.683594 9.980469 17.847656 C 10.050781 17.949219 9.980469 18.222656 9.839844 18.363281 C 9.089844 19.296875 8.300781 20.214844 7.597656 21.128906 C 7.265625 21.53125 6.96875 21.441406 6.6875 21.078125 L 4.292969 18.039062 Z M 30.683594 10.160156 C 30.691406 9.773438 30.660156 9.386719 30.59375 9.007812 C 30.523438 8.625 30.417969 8.253906 30.277344 7.894531 C 30.132812 7.535156 29.957031 7.191406 29.75 6.867188 C 29.539062 6.539062 29.300781 6.238281 29.03125 5.960938 C 28.761719 5.683594 28.46875 5.433594 28.148438 5.214844 C 27.832031 4.996094 27.492188 4.8125 27.140625 4.660156 C 26.785156 4.507812 26.417969 4.394531 26.039062 4.316406 C 25.664062 4.234375 25.28125 4.195312 24.894531 4.191406 C 24.507812 4.183594 24.125 4.214844 23.746094 4.28125 C 23.363281 4.351562 22.996094 4.453125 22.632812 4.59375 C 22.273438 4.738281 21.929688 4.910156 21.605469 5.121094 C 21.28125 5.328125 20.976562 5.566406 20.699219 5.835938 C 20.417969 6.105469 20.167969 6.398438 19.949219 6.714844 C 19.726562 7.035156 19.539062 7.371094 19.382812 7.726562 C 19.226562 8.082031 19.105469 8.449219 19.023438 8.828125 C 18.941406 9.207031 18.894531 9.589844 18.886719 9.980469 C 18.863281 10.378906 18.882812 10.773438 18.941406 11.167969 C 19 11.5625 19.097656 11.945312 19.230469 12.320312 C 19.367188 12.695312 19.539062 13.054688 19.746094 13.394531 C 19.953125 13.734375 20.191406 14.050781 20.464844 14.339844 C 20.734375 14.632812 21.03125 14.894531 21.355469 15.125 C 21.679688 15.355469 22.019531 15.554688 22.382812 15.714844 C 22.746094 15.875 23.121094 16 23.507812 16.085938 C 23.898438 16.171875 24.289062 16.21875 24.6875 16.222656 C 25.082031 16.230469 25.476562 16.195312 25.867188 16.121094 C 26.257812 16.046875 26.636719 15.9375 27.003906 15.785156 C 27.371094 15.636719 27.71875 15.449219 28.050781 15.226562 C 28.378906 15.007812 28.683594 14.753906 28.964844 14.472656 C 29.242188 14.1875 29.492188 13.878906 29.710938 13.546875 C 29.925781 13.214844 30.109375 12.863281 30.257812 12.492188 C 30.402344 12.121094 30.511719 11.738281 30.582031 11.347656 C 30.652344 10.953125 30.683594 10.558594 30.675781 10.160156 Z M 30.683594 10.160156 " fill-opacity="1" fill-rule="nonzero"/></g><g clip-path="url(#79bdf53f91)"><path fill="#ffffff" d="M 33.15625 20.515625 C 32.796875 20.605469 32.4375 20.726562 32.078125 20.796875 C 31.828125 20.816406 31.582031 20.816406 31.335938 20.796875 C 31.09375 21.796875 30.792969 22.777344 30.433594 23.738281 C 28.25 28.769531 24.355469 31.324219 18.945312 31.675781 C 18.574219 31.703125 18.242188 31.828125 17.945312 32.050781 C 16.894531 32.871094 15.714844 33.386719 14.398438 33.597656 L 12.957031 33.597656 C 11.785156 33.382812 10.710938 32.933594 9.730469 32.25 C 9.519531 32.085938 9.316406 31.910156 9.121094 31.71875 C 8.929688 31.53125 8.75 31.328125 8.582031 31.117188 C 8.414062 30.90625 8.261719 30.6875 8.121094 30.457031 C 7.980469 30.226562 7.851562 29.988281 7.738281 29.742188 C 7.628906 29.496094 7.53125 29.242188 7.449219 28.984375 C 7.367188 28.726562 7.300781 28.464844 7.25 28.199219 C 7.199219 27.933594 7.167969 27.667969 7.148438 27.398438 C 7.132812 27.128906 7.128906 26.859375 7.144531 26.585938 C 7.160156 26.316406 7.191406 26.050781 7.238281 25.785156 C 7.285156 25.515625 7.347656 25.253906 7.429688 24.996094 C 7.507812 24.738281 7.601562 24.484375 7.710938 24.238281 C 7.820312 23.992188 7.945312 23.75 8.082031 23.519531 C 8.222656 23.289062 8.375 23.066406 8.539062 22.851562 C 8.707031 22.640625 8.882812 22.4375 9.074219 22.246094 C 9.261719 22.054688 9.464844 21.875 9.675781 21.707031 C 9.886719 21.542969 10.109375 21.386719 10.339844 21.246094 C 10.570312 21.109375 10.808594 20.984375 11.054688 20.871094 C 11.296875 20.761719 11.550781 20.664062 11.808594 20.585938 C 12.0625 20.503906 12.324219 20.441406 12.589844 20.394531 C 12.855469 20.34375 13.121094 20.3125 13.390625 20.296875 C 13.660156 20.28125 13.925781 20.28125 14.195312 20.300781 C 14.464844 20.316406 14.730469 20.347656 14.996094 20.398438 C 15.261719 20.449219 15.519531 20.515625 15.777344 20.597656 C 16.035156 20.679688 16.285156 20.773438 16.53125 20.886719 C 16.773438 21 17.011719 21.125 17.242188 21.265625 C 17.472656 21.40625 17.691406 21.5625 17.902344 21.730469 C 18.113281 21.898438 18.3125 22.078125 18.5 22.273438 C 18.691406 22.464844 18.867188 22.667969 19.03125 22.882812 C 19.195312 23.097656 19.347656 23.320312 19.484375 23.550781 C 19.621094 23.785156 19.746094 24.023438 19.851562 24.273438 C 19.960938 24.519531 20.054688 24.773438 20.132812 25.03125 C 20.210938 25.289062 20.273438 25.554688 20.316406 25.820312 C 20.519531 27.089844 20.378906 28.320312 19.898438 29.511719 C 20.460938 29.460938 21.015625 29.367188 21.5625 29.226562 C 22.105469 29.082031 22.640625 28.898438 23.15625 28.667969 C 23.671875 28.4375 24.164062 28.164062 24.636719 27.851562 C 25.109375 27.542969 25.550781 27.191406 25.964844 26.808594 C 26.378906 26.421875 26.761719 26.003906 27.105469 25.558594 C 27.453125 25.109375 27.761719 24.636719 28.027344 24.136719 C 28.296875 23.636719 28.523438 23.121094 28.707031 22.582031 C 28.890625 22.046875 29.027344 21.5 29.121094 20.9375 C 28.679688 20.9375 28.25 20.9375 27.820312 20.9375 C 27.390625 20.9375 27.070312 20.585938 27.410156 20.125 C 28.148438 19.117188 28.910156 18.109375 29.671875 17.105469 C 30.023438 16.652344 30.324219 16.824219 30.675781 17.183594 C 31.523438 18.191406 32.386719 19.199219 33.238281 20.203125 Z M 13.707031 32.8125 C 14.09375 32.816406 14.476562 32.777344 14.851562 32.703125 C 15.230469 32.628906 15.597656 32.515625 15.957031 32.367188 C 16.3125 32.222656 16.652344 32.039062 16.972656 31.824219 C 17.292969 31.613281 17.589844 31.367188 17.863281 31.09375 C 18.136719 30.820312 18.382812 30.523438 18.597656 30.203125 C 18.8125 29.878906 18.992188 29.539062 19.140625 29.183594 C 19.289062 28.824219 19.402344 28.457031 19.480469 28.078125 C 19.554688 27.699219 19.59375 27.3125 19.597656 26.925781 C 19.597656 26.539062 19.5625 26.15625 19.488281 25.773438 C 19.414062 25.394531 19.304688 25.023438 19.15625 24.667969 C 19.011719 24.308594 18.832031 23.96875 18.617188 23.644531 C 18.40625 23.320312 18.164062 23.023438 17.890625 22.746094 C 17.621094 22.472656 17.324219 22.226562 17.003906 22.007812 C 16.6875 21.792969 16.347656 21.609375 15.992188 21.460938 C 15.636719 21.308594 15.269531 21.195312 14.890625 21.117188 C 14.515625 21.039062 14.132812 21 13.746094 21 C 13.363281 20.996094 12.980469 21.03125 12.601562 21.105469 C 12.222656 21.179688 11.855469 21.289062 11.496094 21.4375 C 11.140625 21.582031 10.800781 21.761719 10.480469 21.976562 C 10.15625 22.1875 9.859375 22.433594 9.585938 22.703125 C 9.3125 22.976562 9.066406 23.273438 8.847656 23.59375 C 8.632812 23.914062 8.449219 24.253906 8.300781 24.609375 C 8.148438 24.96875 8.035156 25.335938 7.957031 25.714844 C 7.882812 26.09375 7.839844 26.480469 7.839844 26.867188 C 7.835938 27.253906 7.871094 27.640625 7.945312 28.023438 C 8.019531 28.40625 8.128906 28.777344 8.277344 29.136719 C 8.421875 29.496094 8.601562 29.835938 8.816406 30.164062 C 9.03125 30.488281 9.273438 30.785156 9.546875 31.0625 C 9.816406 31.339844 10.113281 31.585938 10.4375 31.804688 C 10.757812 32.019531 11.097656 32.203125 11.453125 32.355469 C 11.808594 32.503906 12.179688 32.617188 12.558594 32.695312 C 12.9375 32.773438 13.320312 32.8125 13.707031 32.8125 Z M 13.707031 32.8125 " fill-opacity="1" fill-rule="nonzero"/></g><path fill="#ffffff" d="M 20.316406 12.382812 L 23.503906 11.558594 L 24.144531 13.472656 L 24.324219 13.472656 L 24.324219 12.464844 C 24.324219 12.335938 24.324219 12.09375 24.375 12.082031 C 24.648438 12.042969 24.921875 12.042969 25.195312 12.082031 C 25.253906 12.082031 25.324219 12.324219 25.324219 12.453125 C 25.324219 12.785156 25.253906 13.109375 25.226562 13.460938 L 25.457031 13.460938 L 26.246094 11.527344 L 29.25 12.324219 C 28.917969 13.105469 28.410156 13.75 27.730469 14.253906 C 27.050781 14.757812 26.289062 15.054688 25.445312 15.140625 C 24.929688 15.207031 24.414062 15.195312 23.902344 15.101562 C 23.386719 15.007812 22.902344 14.835938 22.441406 14.589844 C 21.984375 14.339844 21.570312 14.027344 21.210938 13.652344 C 20.847656 13.277344 20.550781 12.855469 20.316406 12.382812 Z M 20.316406 12.382812 " fill-opacity="1" fill-rule="nonzero"/><path fill="#ffffff" d="M 22.429688 7.492188 C 22.839844 7.132812 23.222656 6.738281 23.664062 6.417969 C 23.902344 6.222656 24.179688 6.109375 24.484375 6.074219 C 25.355469 6.132812 26.058594 6.503906 26.597656 7.191406 C 26.816406 7.441406 26.9375 7.730469 26.964844 8.0625 C 26.992188 8.394531 26.921875 8.699219 26.746094 8.984375 C 26.683594 9.085938 26.652344 9.203125 26.65625 9.324219 C 26.6875 9.59375 26.664062 9.855469 26.585938 10.117188 C 26.503906 10.375 26.375 10.605469 26.199219 10.808594 C 26.019531 11.011719 25.808594 11.167969 25.566406 11.28125 C 25.320312 11.394531 25.0625 11.453125 24.792969 11.457031 C 24.316406 11.425781 23.902344 11.246094 23.554688 10.914062 C 23.285156 10.691406 23.089844 10.414062 22.96875 10.085938 C 22.851562 9.757812 22.820312 9.417969 22.882812 9.074219 C 22.902344 8.574219 22.832031 8.085938 22.671875 7.613281 Z M 22.429688 7.492188 " fill-opacity="1" fill-rule="nonzero"/><path fill="#ffffff" d="M 15.160156 28.375 L 18.304688 29.210938 C 17.910156 30.015625 17.34375 30.667969 16.601562 31.167969 C 15.863281 31.667969 15.046875 31.945312 14.15625 32.007812 C 13.652344 32.054688 13.148438 32.023438 12.648438 31.921875 C 12.152344 31.816406 11.679688 31.640625 11.234375 31.394531 C 10.789062 31.144531 10.386719 30.839844 10.03125 30.472656 C 9.675781 30.105469 9.382812 29.695312 9.148438 29.242188 L 12.386719 28.386719 L 13.078125 30.398438 L 13.308594 30.398438 C 13.308594 30.054688 13.226562 29.714844 13.214844 29.390625 C 13.214844 29.261719 13.277344 29.011719 13.328125 29.011719 C 13.605469 28.96875 13.882812 28.96875 14.15625 29.011719 C 14.15625 29.011719 14.226562 29.273438 14.21875 29.414062 C 14.21875 29.714844 14.167969 30.015625 14.136719 30.328125 L 14.359375 30.328125 Z M 15.160156 28.375 " fill-opacity="1" fill-rule="nonzero"/><path fill="#ffffff" d="M 11.515625 24.1875 C 11.859375 23.835938 12.222656 23.5 12.605469 23.183594 C 12.742188 23.070312 12.894531 22.988281 13.0625 22.929688 C 13.226562 22.875 13.398438 22.851562 13.574219 22.855469 C 13.75 22.863281 13.921875 22.902344 14.082031 22.96875 C 14.246094 23.039062 14.390625 23.132812 14.519531 23.253906 C 14.640625 23.347656 14.769531 23.421875 14.910156 23.484375 C 15.265625 23.636719 15.53125 23.886719 15.703125 24.230469 C 15.878906 24.578125 15.921875 24.9375 15.832031 25.316406 C 15.699219 25.71875 15.640625 26.132812 15.652344 26.554688 C 15.75 27.371094 14.429688 28.375 13.585938 28.304688 C 12.988281 28.242188 12.53125 27.953125 12.226562 27.429688 C 11.875 26.953125 11.742188 26.417969 11.824219 25.828125 C 11.789062 25.269531 11.6875 24.722656 11.515625 24.1875 Z M 11.515625 24.1875 " fill-opacity="1" fill-rule="nonzero"/><g clip-path="url(#a4e095b836)"><path fill="#ffffff" d="M 34.785156 45.019531 L 34.785156 44.789062 C 34.878906 44.65625 34.96875 44.511719 35.074219 44.378906 C 35.339844 44.039062 35.613281 43.703125 35.886719 43.363281 C 35.679688 43.105469 35.472656 42.867188 35.273438 42.601562 C 35.078125 42.335938 34.949219 42.152344 34.78125 41.925781 L 34.78125 41.695312 C 34.824219 41.554688 34.910156 41.441406 35.035156 41.367188 C 35.160156 41.289062 35.296875 41.261719 35.441406 41.285156 C 35.773438 41.285156 36.109375 41.285156 36.429688 41.285156 L 36.59375 41.285156 C 36.59375 40.988281 36.636719 40.71875 36.652344 40.441406 C 36.644531 40.128906 36.734375 39.84375 36.910156 39.589844 C 37.089844 39.332031 37.324219 39.152344 37.617188 39.050781 C 37.804688 38.976562 37.984375 38.894531 38.171875 38.832031 C 38.554688 38.699219 38.867188 38.46875 39.113281 38.144531 C 39.265625 37.941406 39.429688 37.75 39.605469 37.5625 C 39.921875 37.207031 40.3125 37.070312 40.78125 37.15625 C 41.03125 37.199219 41.28125 37.253906 41.527344 37.324219 C 41.960938 37.457031 42.398438 37.457031 42.832031 37.324219 C 42.988281 37.273438 43.140625 37.242188 43.292969 37.203125 C 43.554688 37.117188 43.824219 37.105469 44.089844 37.179688 C 44.359375 37.25 44.585938 37.386719 44.773438 37.59375 L 44.832031 37.636719 C 45.023438 37.410156 45.230469 37.199219 45.394531 36.960938 C 45.820312 36.34375 46.347656 35.824219 46.96875 35.402344 C 47.40625 35.101562 47.882812 34.894531 48.40625 34.785156 L 48.808594 34.785156 L 48.886719 34.816406 C 49.070312 34.855469 49.21875 34.945312 49.332031 35.09375 C 49.449219 35.238281 49.503906 35.40625 49.5 35.589844 C 49.503906 35.890625 49.433594 36.171875 49.289062 36.433594 C 48.777344 37.433594 48.027344 38.199219 47.039062 38.734375 C 46.898438 38.8125 46.765625 38.90625 46.613281 39.003906 C 46.710938 39.042969 46.804688 39.089844 46.894531 39.144531 C 47.074219 39.265625 47.238281 39.402344 47.386719 39.558594 C 47.597656 39.832031 47.695312 40.140625 47.6875 40.484375 C 47.6875 40.757812 47.730469 41.027344 47.75 41.3125 C 48.148438 41.3125 48.527344 41.3125 48.90625 41.3125 C 49.054688 41.285156 49.191406 41.304688 49.320312 41.375 C 49.449219 41.449219 49.539062 41.554688 49.589844 41.695312 L 49.589844 41.925781 C 49.5 42.058594 49.421875 42.191406 49.324219 42.320312 C 49.050781 42.667969 48.769531 43.011719 48.488281 43.363281 C 48.558594 43.449219 48.632812 43.535156 48.695312 43.625 L 49.589844 44.789062 L 49.589844 45.019531 C 49.550781 45.164062 49.464844 45.277344 49.339844 45.355469 C 49.214844 45.4375 49.078125 45.46875 48.933594 45.445312 C 48.691406 45.445312 48.4375 45.445312 48.210938 45.445312 L 47.769531 45.445312 C 47.769531 45.730469 47.722656 45.996094 47.714844 46.261719 C 47.71875 46.582031 47.632812 46.871094 47.449219 47.132812 C 47.269531 47.394531 47.027344 47.578125 46.726562 47.683594 C 46.558594 47.75 46.394531 47.824219 46.234375 47.882812 C 45.824219 48.015625 45.496094 48.257812 45.246094 48.605469 C 45.203125 48.671875 45.144531 48.730469 45.09375 48.792969 C 44.832031 49.195312 44.46875 49.460938 44.007812 49.589844 L 43.574219 49.589844 C 43.234375 49.503906 42.886719 49.410156 42.542969 49.335938 C 42.378906 49.296875 42.214844 49.289062 42.050781 49.308594 C 41.636719 49.386719 41.230469 49.496094 40.820312 49.589844 L 40.386719 49.589844 C 39.9375 49.464844 39.585938 49.207031 39.324219 48.820312 C 39.269531 48.75 39.210938 48.6875 39.164062 48.617188 C 38.910156 48.269531 38.582031 48.019531 38.175781 47.875 C 37.929688 47.804688 37.691406 47.71875 37.457031 47.613281 C 37.070312 47.429688 36.835938 47.128906 36.761719 46.707031 C 36.722656 46.542969 36.699219 46.378906 36.691406 46.214844 C 36.667969 45.953125 36.652344 45.691406 36.632812 45.425781 C 36.226562 45.425781 35.847656 45.425781 35.46875 45.425781 C 35.320312 45.453125 35.179688 45.429688 35.050781 45.351562 C 34.917969 45.273438 34.832031 45.164062 34.785156 45.019531 Z M 45.789062 45.453125 L 44.449219 45.453125 C 44.390625 45.460938 44.332031 45.460938 44.273438 45.453125 C 44.160156 45.429688 44.105469 45.359375 44.117188 45.242188 C 44.109375 45.125 44.164062 45.058594 44.28125 45.039062 C 44.34375 45.03125 44.40625 45.03125 44.46875 45.039062 L 48.960938 45.039062 C 49.027344 45.03125 49.085938 45.011719 49.144531 44.984375 C 49.125 44.929688 49.097656 44.875 49.066406 44.824219 L 48.078125 43.605469 C 47.945312 43.4375 47.945312 43.367188 48.078125 43.199219 L 49.066406 41.980469 C 49.097656 41.925781 49.121094 41.867188 49.140625 41.808594 C 49.082031 41.789062 49.027344 41.773438 48.96875 41.769531 L 35.40625 41.769531 C 35.351562 41.777344 35.292969 41.789062 35.238281 41.8125 C 35.253906 41.871094 35.277344 41.925781 35.308594 41.976562 L 36.265625 43.175781 C 36.40625 43.347656 36.40625 43.417969 36.265625 43.589844 L 35.28125 44.8125 C 35.253906 44.855469 35.238281 44.902344 35.226562 44.949219 L 35.367188 44.996094 C 35.402344 45 35.4375 45 35.472656 44.996094 L 43.160156 44.996094 C 43.222656 44.988281 43.285156 44.988281 43.347656 44.996094 C 43.46875 45.011719 43.527344 45.082031 43.527344 45.203125 C 43.527344 45.324219 43.46875 45.394531 43.347656 45.414062 C 43.285156 45.421875 43.222656 45.421875 43.160156 45.414062 L 38.59375 45.414062 C 38.964844 46.0625 39.46875 46.570312 40.113281 46.945312 C 40.753906 47.316406 41.449219 47.503906 42.191406 47.503906 C 42.9375 47.503906 43.628906 47.316406 44.273438 46.945312 C 44.914062 46.570312 45.421875 46.0625 45.789062 45.414062 Z M 45.832031 41.28125 L 45.230469 40.484375 C 45.03125 40.625 44.816406 40.75 44.59375 40.855469 C 44.195312 41.007812 43.789062 41.039062 43.371094 40.949219 C 42.957031 40.859375 42.597656 40.664062 42.296875 40.363281 C 42.144531 40.257812 42.082031 40.113281 42.105469 39.929688 C 42.128906 39.75 42.230469 39.628906 42.40625 39.566406 C 42.542969 39.480469 42.675781 39.382812 42.800781 39.277344 L 42.738281 39.226562 L 42.679688 39.226562 C 41.742188 39.117188 40.871094 39.304688 40.0625 39.792969 L 39.972656 39.84375 C 39.914062 39.871094 39.851562 39.875 39.789062 39.851562 C 39.726562 39.824219 39.683594 39.78125 39.660156 39.71875 C 39.601562 39.613281 39.621094 39.527344 39.71875 39.453125 C 39.78125 39.410156 39.84375 39.375 39.90625 39.339844 C 40.886719 38.785156 41.925781 38.613281 43.03125 38.816406 C 43.101562 38.824219 43.164062 38.808594 43.222656 38.769531 C 43.488281 38.519531 43.800781 38.375 44.160156 38.328125 C 44.195312 38.324219 44.222656 38.308594 44.25 38.289062 C 44.34375 38.1875 44.433594 38.082031 44.527344 37.96875 C 44.3125 37.675781 44.027344 37.546875 43.667969 37.589844 C 43.484375 37.617188 43.308594 37.652344 43.128906 37.699219 C 42.734375 37.835938 42.324219 37.886719 41.90625 37.851562 C 41.59375 37.796875 41.289062 37.722656 40.980469 37.636719 C 40.761719 37.5625 40.539062 37.558594 40.320312 37.628906 C 40.097656 37.695312 39.921875 37.824219 39.785156 38.011719 C 39.675781 38.144531 39.558594 38.273438 39.453125 38.414062 C 39.15625 38.8125 38.773438 39.089844 38.304688 39.25 C 38.054688 39.339844 37.8125 39.445312 37.578125 39.566406 C 37.328125 39.683594 37.183594 39.875 37.148438 40.148438 C 37.101562 40.515625 37.070312 40.886719 37.03125 41.273438 L 37.917969 41.273438 C 38.011719 41.285156 38.074219 41.246094 38.113281 41.160156 C 38.308594 40.785156 38.554688 40.449219 38.851562 40.148438 C 38.96875 40.027344 39.109375 40.007812 39.203125 40.09375 C 39.296875 40.183594 39.296875 40.328125 39.167969 40.464844 C 39.070312 40.570312 38.976562 40.679688 38.886719 40.792969 C 38.773438 40.945312 38.667969 41.101562 38.546875 41.285156 Z M 37.0625 45.457031 C 37.0625 45.746094 37.09375 46 37.109375 46.261719 C 37.105469 46.492188 37.167969 46.699219 37.296875 46.886719 C 37.429688 47.074219 37.605469 47.207031 37.820312 47.28125 C 37.957031 47.328125 38.097656 47.398438 38.234375 47.441406 C 38.769531 47.613281 39.203125 47.929688 39.53125 48.386719 C 39.683594 48.574219 39.847656 48.75 40.027344 48.914062 C 40.207031 49.09375 40.421875 49.167969 40.671875 49.140625 C 40.808594 49.125 40.941406 49.101562 41.074219 49.070312 C 41.488281 48.925781 41.917969 48.855469 42.359375 48.867188 C 42.695312 48.917969 43.023438 48.988281 43.347656 49.085938 C 43.582031 49.171875 43.820312 49.175781 44.058594 49.101562 C 44.296875 49.027344 44.488281 48.886719 44.628906 48.679688 C 44.730469 48.546875 44.847656 48.425781 44.945312 48.285156 C 45.230469 47.917969 45.589844 47.65625 46.027344 47.496094 C 46.273438 47.40625 46.519531 47.300781 46.757812 47.1875 C 47.058594 47.050781 47.226562 46.820312 47.25 46.488281 C 47.292969 46.148438 47.3125 45.808594 47.34375 45.453125 C 47.042969 45.453125 46.757812 45.453125 46.46875 45.453125 C 46.359375 45.4375 46.285156 45.484375 46.25 45.585938 C 46 46.042969 45.683594 46.445312 45.296875 46.796875 C 44.910156 47.144531 44.480469 47.421875 44 47.625 C 43.523438 47.828125 43.023438 47.945312 42.503906 47.980469 C 41.984375 48.011719 41.476562 47.960938 40.972656 47.824219 C 40.367188 47.660156 39.820312 47.386719 39.328125 46.996094 C 38.835938 46.609375 38.441406 46.136719 38.140625 45.585938 C 38.140625 45.539062 38.0625 45.46875 38.019531 45.46875 C 37.691406 45.453125 37.382812 45.457031 37.0625 45.457031 Z M 46.886719 38.292969 C 47.742188 37.808594 48.398438 37.132812 48.859375 36.261719 C 48.941406 36.089844 49 35.90625 49.03125 35.71875 C 49.054688 35.65625 49.058594 35.59375 49.050781 35.53125 C 49.039062 35.464844 49.011719 35.40625 48.96875 35.355469 C 48.929688 35.304688 48.878906 35.269531 48.816406 35.246094 C 48.753906 35.222656 48.691406 35.214844 48.625 35.226562 C 48.449219 35.238281 48.277344 35.277344 48.109375 35.339844 C 47.324219 35.636719 46.667969 36.109375 46.136719 36.761719 C 46.027344 36.882812 45.925781 37.019531 45.828125 37.148438 Z M 42.582031 39.980469 C 42.835938 40.25 43.144531 40.421875 43.507812 40.492188 C 43.867188 40.566406 44.21875 40.53125 44.554688 40.382812 C 44.804688 40.273438 44.96875 40.089844 45.050781 39.832031 C 45.0625 39.765625 45.050781 39.703125 45.015625 39.644531 C 44.78125 39.378906 44.546875 39.125 44.308594 38.863281 C 44.261719 38.792969 44.199219 38.773438 44.121094 38.800781 C 43.78125 38.902344 43.5 39.09375 43.28125 39.375 C 43.09375 39.625 42.859375 39.828125 42.582031 39.980469 Z M 47.324219 41.28125 C 47.324219 40.96875 47.28125 40.671875 47.265625 40.382812 C 47.257812 40.164062 47.1875 39.964844 47.050781 39.792969 C 46.917969 39.617188 46.746094 39.5 46.535156 39.4375 C 46.511719 39.433594 46.488281 39.421875 46.46875 39.410156 C 46.390625 39.347656 46.296875 39.324219 46.195312 39.332031 C 46.09375 39.34375 46.011719 39.390625 45.949219 39.46875 C 45.886719 39.527344 45.820312 39.574219 45.746094 39.613281 C 45.582031 39.695312 45.496094 39.824219 45.480469 40.007812 C 45.472656 40.054688 45.484375 40.101562 45.511719 40.144531 C 45.808594 40.464844 46.0625 40.816406 46.269531 41.199219 C 46.292969 41.242188 46.324219 41.269531 46.371094 41.28125 C 46.683594 41.285156 47 41.28125 47.324219 41.28125 Z M 46.496094 38.53125 L 45.558594 37.488281 L 44.65625 38.546875 L 45.371094 39.339844 Z M 46.496094 38.53125 " fill-opacity="1" fill-rule="nonzero"/></g></svg>