<svg xmlns="http://www.w3.org/2000/svg" xmlns:xlink="http://www.w3.org/1999/xlink" width="70" zoomAndPan="magnify" viewBox="0 0 37.5 37.499999" height="70" preserveAspectRatio="xMidYMid meet" version="1.0"><defs><clipPath id="050957f034"><path d="M 3.699219 3.699219 L 33.304688 3.699219 L 33.304688 33.304688 L 3.699219 33.304688 Z M 3.699219 3.699219 " clip-rule="nonzero"/></clipPath></defs><g clip-path="url(#050957f034)"><path fill="#ffffff" d="M 3.699219 24.167969 L 3.699219 23.703125 C 3.886719 23.4375 4.066406 23.152344 4.273438 22.886719 C 4.804688 22.203125 5.359375 21.53125 5.902344 20.851562 C 5.488281 20.339844 5.074219 19.863281 4.675781 19.332031 C 4.28125 18.800781 4.027344 18.433594 3.691406 17.980469 L 3.691406 17.515625 C 3.777344 17.234375 3.949219 17.015625 4.199219 16.859375 C 4.449219 16.703125 4.722656 16.648438 5.011719 16.699219 C 5.675781 16.699219 6.34375 16.699219 6.988281 16.699219 L 7.3125 16.699219 C 7.3125 16.105469 7.402344 15.5625 7.429688 15.011719 C 7.425781 14.707031 7.46875 14.410156 7.554688 14.117188 C 7.644531 13.828125 7.777344 13.554688 7.949219 13.308594 C 8.121094 13.058594 8.332031 12.839844 8.574219 12.65625 C 8.8125 12.472656 9.078125 12.328125 9.363281 12.226562 C 9.738281 12.078125 10.09375 11.921875 10.46875 11.792969 C 11.234375 11.523438 11.863281 11.066406 12.355469 10.421875 C 12.660156 10.011719 12.988281 9.625 13.34375 9.257812 C 13.636719 8.925781 13.992188 8.683594 14.410156 8.539062 C 14.828125 8.394531 15.253906 8.359375 15.691406 8.4375 C 16.191406 8.523438 16.691406 8.636719 17.179688 8.773438 C 18.050781 9.039062 18.925781 9.039062 19.796875 8.773438 C 20.101562 8.675781 20.40625 8.613281 20.714844 8.535156 C 21.242188 8.359375 21.773438 8.34375 22.308594 8.484375 C 22.847656 8.625 23.300781 8.902344 23.675781 9.316406 L 23.792969 9.40625 C 24.175781 8.949219 24.59375 8.527344 24.917969 8.050781 C 25.769531 6.816406 26.820312 5.777344 28.066406 4.933594 C 28.9375 4.328125 29.894531 3.917969 30.9375 3.699219 L 31.746094 3.699219 L 31.90625 3.761719 C 32.269531 3.839844 32.566406 4.023438 32.796875 4.3125 C 33.027344 4.605469 33.136719 4.9375 33.128906 5.308594 C 33.136719 5.910156 32.996094 6.472656 32.703125 6.996094 C 31.679688 8.996094 30.179688 10.527344 28.203125 11.59375 C 27.925781 11.753906 27.660156 11.941406 27.355469 12.136719 C 27.550781 12.214844 27.738281 12.304688 27.917969 12.414062 C 28.273438 12.65625 28.601562 12.933594 28.90625 13.242188 C 29.320312 13.792969 29.523438 14.410156 29.507812 15.097656 C 29.507812 15.640625 29.585938 16.183594 29.625 16.757812 C 30.425781 16.757812 31.183594 16.757812 31.945312 16.757812 C 32.234375 16.695312 32.507812 16.734375 32.769531 16.878906 C 33.027344 17.023438 33.207031 17.238281 33.304688 17.515625 L 33.304688 17.980469 C 33.128906 18.246094 32.96875 18.511719 32.773438 18.769531 C 32.230469 19.460938 31.667969 20.152344 31.105469 20.851562 C 31.242188 21.03125 31.390625 21.199219 31.519531 21.375 L 33.304688 23.703125 L 33.304688 24.167969 C 33.226562 24.457031 33.0625 24.679688 32.8125 24.84375 C 32.5625 25.003906 32.289062 25.0625 31.992188 25.015625 C 31.511719 25.015625 31.007812 25.015625 30.550781 25.015625 L 29.664062 25.015625 C 29.664062 25.589844 29.574219 26.121094 29.554688 26.65625 C 29.5625 26.964844 29.519531 27.269531 29.429688 27.566406 C 29.339844 27.863281 29.203125 28.140625 29.027344 28.394531 C 28.851562 28.648438 28.636719 28.871094 28.390625 29.058594 C 28.144531 29.246094 27.875 29.394531 27.582031 29.496094 C 27.246094 29.625 26.921875 29.773438 26.59375 29.890625 C 25.78125 30.160156 25.121094 30.644531 24.621094 31.34375 C 24.53125 31.46875 24.414062 31.589844 24.316406 31.71875 C 23.789062 32.515625 23.066406 33.046875 22.144531 33.304688 L 21.277344 33.304688 C 20.59375 33.136719 19.90625 32.949219 19.214844 32.800781 C 18.886719 32.722656 18.558594 32.703125 18.226562 32.742188 C 17.398438 32.902344 16.589844 33.117188 15.769531 33.304688 L 14.902344 33.304688 C 14.003906 33.054688 13.296875 32.542969 12.78125 31.765625 C 12.671875 31.628906 12.550781 31.5 12.453125 31.363281 C 11.949219 30.664062 11.292969 30.171875 10.480469 29.882812 C 9.988281 29.742188 9.507812 29.566406 9.039062 29.359375 C 8.675781 29.1875 8.371094 28.9375 8.125 28.617188 C 7.878906 28.296875 7.71875 27.941406 7.648438 27.542969 C 7.574219 27.21875 7.53125 26.886719 7.511719 26.554688 C 7.460938 26.03125 7.429688 25.511719 7.390625 24.976562 C 6.582031 24.976562 5.824219 24.976562 5.0625 24.976562 C 4.765625 25.035156 4.488281 24.988281 4.226562 24.832031 C 3.964844 24.679688 3.789062 24.457031 3.699219 24.167969 Z M 25.707031 25.035156 L 23.023438 25.035156 C 22.90625 25.050781 22.792969 25.050781 22.675781 25.035156 C 22.578125 25.015625 22.5 24.964844 22.4375 24.882812 C 22.378906 24.804688 22.351562 24.710938 22.363281 24.613281 C 22.355469 24.511719 22.382812 24.425781 22.445312 24.347656 C 22.507812 24.269531 22.589844 24.222656 22.6875 24.207031 C 22.8125 24.191406 22.9375 24.191406 23.0625 24.207031 L 32.050781 24.207031 C 32.179688 24.1875 32.300781 24.152344 32.417969 24.097656 C 32.375 23.984375 32.324219 23.875 32.261719 23.773438 L 30.285156 21.335938 C 30.019531 21 30.019531 20.863281 30.285156 20.527344 L 32.261719 18.089844 C 32.324219 17.980469 32.371094 17.863281 32.40625 17.742188 C 32.296875 17.703125 32.179688 17.675781 32.0625 17.664062 L 4.945312 17.664062 C 4.828125 17.679688 4.714844 17.710938 4.609375 17.753906 C 4.636719 17.867188 4.683594 17.976562 4.746094 18.078125 L 6.660156 20.476562 C 6.9375 20.824219 6.9375 20.960938 6.660156 21.304688 L 4.6875 23.753906 C 4.636719 23.839844 4.601562 23.933594 4.578125 24.03125 L 4.863281 24.117188 C 4.933594 24.128906 5.003906 24.128906 5.074219 24.117188 L 20.449219 24.117188 C 20.574219 24.109375 20.699219 24.109375 20.824219 24.117188 C 20.925781 24.132812 21.011719 24.183594 21.078125 24.261719 C 21.148438 24.339844 21.183594 24.433594 21.183594 24.539062 C 21.183594 24.640625 21.148438 24.734375 21.078125 24.8125 C 21.011719 24.894531 20.925781 24.941406 20.824219 24.957031 C 20.699219 24.972656 20.574219 24.972656 20.449219 24.957031 L 11.320312 24.957031 C 11.679688 25.59375 12.117188 26.167969 12.632812 26.6875 C 13.148438 27.207031 13.722656 27.648438 14.351562 28.015625 C 14.984375 28.382812 15.652344 28.664062 16.359375 28.851562 C 17.0625 29.042969 17.78125 29.136719 18.511719 29.136719 C 19.242188 29.136719 19.960938 29.042969 20.667969 28.851562 C 21.375 28.664062 22.042969 28.382812 22.671875 28.015625 C 23.304688 27.648438 23.878906 27.207031 24.394531 26.6875 C 24.90625 26.167969 25.34375 25.59375 25.707031 24.957031 Z M 25.796875 16.6875 L 24.59375 15.097656 C 24.1875 15.382812 23.765625 15.628906 23.320312 15.839844 C 22.929688 15.988281 22.527344 16.078125 22.109375 16.109375 C 21.695312 16.140625 21.28125 16.113281 20.875 16.027344 C 20.464844 15.9375 20.078125 15.792969 19.710938 15.59375 C 19.34375 15.394531 19.015625 15.148438 18.71875 14.851562 C 18.417969 14.644531 18.289062 14.355469 18.339844 13.992188 C 18.390625 13.625 18.589844 13.382812 18.9375 13.261719 C 19.214844 13.089844 19.476562 12.894531 19.726562 12.679688 L 19.609375 12.582031 L 19.488281 12.582031 C 17.613281 12.359375 15.867188 12.738281 14.25 13.71875 L 14.074219 13.816406 C 13.953125 13.875 13.832031 13.878906 13.707031 13.828125 C 13.582031 13.78125 13.5 13.691406 13.449219 13.570312 C 13.402344 13.476562 13.386719 13.382812 13.410156 13.28125 C 13.433594 13.179688 13.484375 13.097656 13.570312 13.035156 C 13.6875 12.953125 13.8125 12.875 13.945312 12.808594 C 14.890625 12.273438 15.902344 11.914062 16.976562 11.734375 C 18.046875 11.554688 19.121094 11.5625 20.191406 11.761719 C 20.332031 11.777344 20.460938 11.742188 20.574219 11.664062 C 21.105469 11.171875 21.730469 10.878906 22.449219 10.785156 C 22.515625 10.773438 22.574219 10.746094 22.628906 10.707031 C 22.816406 10.5 22.992188 10.292969 23.179688 10.066406 C 22.984375 9.792969 22.734375 9.589844 22.425781 9.453125 C 22.117188 9.316406 21.796875 9.269531 21.464844 9.304688 C 21.097656 9.363281 20.742188 9.433594 20.386719 9.523438 C 19.59375 9.796875 18.777344 9.902344 17.941406 9.828125 C 17.320312 9.71875 16.707031 9.574219 16.085938 9.40625 C 15.648438 9.25 15.207031 9.246094 14.765625 9.382812 C 14.324219 9.523438 13.96875 9.777344 13.699219 10.15625 C 13.480469 10.421875 13.242188 10.675781 13.035156 10.953125 C 12.441406 11.75 11.675781 12.308594 10.738281 12.632812 C 10.238281 12.8125 9.757812 13.023438 9.285156 13.261719 C 8.785156 13.492188 8.5 13.878906 8.425781 14.425781 C 8.328125 15.15625 8.269531 15.898438 8.191406 16.675781 L 9.96875 16.675781 C 10.152344 16.695312 10.28125 16.621094 10.351562 16.449219 C 10.742188 15.699219 11.234375 15.027344 11.832031 14.425781 C 12.070312 14.179688 12.34375 14.140625 12.53125 14.320312 C 12.71875 14.496094 12.71875 14.78125 12.464844 15.058594 C 12.265625 15.265625 12.078125 15.484375 11.902344 15.710938 C 11.675781 16.015625 11.46875 16.332031 11.21875 16.699219 Z M 8.25 25.046875 C 8.25 25.617188 8.320312 26.132812 8.347656 26.65625 C 8.335938 27.113281 8.464844 27.527344 8.726562 27.90625 C 8.988281 28.28125 9.335938 28.539062 9.769531 28.6875 C 10.046875 28.785156 10.324219 28.925781 10.597656 29.011719 C 11.671875 29.355469 12.535156 29.984375 13.195312 30.898438 C 13.496094 31.273438 13.824219 31.628906 14.179688 31.953125 C 14.539062 32.3125 14.96875 32.464844 15.472656 32.40625 C 15.742188 32.382812 16.011719 32.335938 16.273438 32.269531 C 17.105469 31.976562 17.964844 31.839844 18.847656 31.863281 C 19.515625 31.960938 20.175781 32.105469 20.824219 32.300781 C 21.050781 32.382812 21.285156 32.429688 21.53125 32.433594 C 21.773438 32.441406 22.011719 32.40625 22.242188 32.332031 C 22.476562 32.257812 22.691406 32.152344 22.886719 32.007812 C 23.082031 31.863281 23.25 31.691406 23.386719 31.488281 C 23.585938 31.222656 23.824219 30.976562 24.019531 30.699219 C 24.585938 29.964844 25.308594 29.4375 26.179688 29.121094 C 26.675781 28.945312 27.167969 28.726562 27.640625 28.5 C 27.921875 28.378906 28.152344 28.191406 28.328125 27.941406 C 28.503906 27.691406 28.605469 27.414062 28.628906 27.109375 C 28.71875 26.425781 28.757812 25.746094 28.816406 25.035156 C 28.214844 25.035156 27.640625 25.035156 27.070312 25.035156 C 26.851562 25.007812 26.703125 25.09375 26.625 25.300781 C 26.378906 25.757812 26.09375 26.183594 25.773438 26.589844 C 25.457031 26.996094 25.105469 27.375 24.722656 27.71875 C 24.339844 28.066406 23.929688 28.378906 23.496094 28.65625 C 23.058594 28.933594 22.605469 29.175781 22.128906 29.375 C 21.652344 29.578125 21.164062 29.738281 20.664062 29.855469 C 20.160156 29.976562 19.652344 30.054688 19.136719 30.085938 C 18.621094 30.121094 18.105469 30.109375 17.59375 30.058594 C 17.078125 30.007812 16.574219 29.910156 16.074219 29.773438 C 14.863281 29.449219 13.765625 28.898438 12.78125 28.121094 C 11.796875 27.34375 11.007812 26.40625 10.410156 25.300781 C 10.410156 25.203125 10.253906 25.066406 10.164062 25.066406 C 9.511719 25.035156 8.890625 25.046875 8.25 25.046875 Z M 27.898438 10.71875 C 29.613281 9.746094 30.925781 8.390625 31.84375 6.652344 C 32.011719 6.304688 32.125 5.945312 32.191406 5.566406 C 32.234375 5.441406 32.246094 5.316406 32.226562 5.1875 C 32.203125 5.058594 32.152344 4.941406 32.070312 4.839844 C 31.984375 4.738281 31.882812 4.664062 31.761719 4.617188 C 31.636719 4.570312 31.511719 4.558594 31.382812 4.578125 C 31.023438 4.605469 30.679688 4.679688 30.34375 4.804688 C 28.777344 5.402344 27.460938 6.347656 26.398438 7.648438 C 26.179688 7.894531 25.984375 8.171875 25.785156 8.425781 Z M 19.292969 14.09375 C 19.539062 14.355469 19.820312 14.570312 20.136719 14.746094 C 20.453125 14.921875 20.785156 15.042969 21.140625 15.117188 C 21.492188 15.1875 21.847656 15.203125 22.207031 15.164062 C 22.566406 15.128906 22.910156 15.035156 23.238281 14.890625 C 23.734375 14.675781 24.066406 14.3125 24.226562 13.796875 C 24.253906 13.660156 24.230469 13.535156 24.15625 13.421875 C 23.695312 12.886719 23.21875 12.375 22.746094 11.851562 C 22.652344 11.71875 22.527344 11.679688 22.371094 11.734375 C 21.6875 11.933594 21.128906 12.3125 20.695312 12.878906 C 20.3125 13.382812 19.84375 13.785156 19.292969 14.09375 Z M 28.777344 16.6875 C 28.777344 16.066406 28.6875 15.472656 28.65625 14.890625 C 28.644531 14.453125 28.503906 14.058594 28.234375 13.710938 C 27.964844 13.367188 27.617188 13.128906 27.199219 13.007812 C 27.152344 12.996094 27.109375 12.976562 27.070312 12.949219 C 26.90625 12.824219 26.726562 12.773438 26.523438 12.796875 C 26.320312 12.820312 26.152344 12.910156 26.023438 13.066406 C 25.902344 13.179688 25.769531 13.277344 25.617188 13.351562 C 25.296875 13.515625 25.117188 13.78125 25.085938 14.140625 C 25.078125 14.242188 25.097656 14.332031 25.15625 14.417969 C 25.746094 15.058594 26.25 15.761719 26.664062 16.53125 C 26.710938 16.613281 26.78125 16.664062 26.871094 16.6875 C 27.492188 16.699219 28.125 16.6875 28.777344 16.6875 Z M 27.117188 11.191406 L 25.242188 9.109375 L 23.4375 11.21875 L 24.867188 12.808594 Z M 27.117188 11.191406 " fill-opacity="1" fill-rule="nonzero"/></g><path fill="#ffffff" d="M 10.699219 20.566406 C 10.925781 20.75 11.082031 20.980469 11.175781 21.257812 C 11.265625 21.535156 11.273438 21.8125 11.199219 22.09375 C 11.125 22.40625 10.964844 22.660156 10.71875 22.863281 C 10.46875 23.0625 10.1875 23.171875 9.867188 23.179688 C 9.425781 23.179688 8.980469 23.179688 8.535156 23.179688 C 8.394531 23.195312 8.273438 23.148438 8.175781 23.050781 C 8.074219 22.949219 8.03125 22.828125 8.042969 22.6875 L 8.042969 19.007812 C 8.023438 18.871094 8.058594 18.753906 8.148438 18.652344 C 8.238281 18.550781 8.351562 18.503906 8.488281 18.503906 C 8.90625 18.472656 9.328125 18.472656 9.75 18.503906 C 9.863281 18.515625 9.976562 18.539062 10.082031 18.578125 C 10.191406 18.621094 10.292969 18.671875 10.386719 18.738281 C 10.480469 18.804688 10.5625 18.882812 10.636719 18.972656 C 10.707031 19.0625 10.769531 19.15625 10.816406 19.261719 C 10.863281 19.367188 10.898438 19.476562 10.917969 19.589844 C 10.9375 19.703125 10.941406 19.816406 10.929688 19.929688 C 10.921875 20.042969 10.894531 20.15625 10.855469 20.261719 C 10.816406 20.371094 10.761719 20.472656 10.699219 20.566406 Z M 8.96875 22.3125 C 9.324219 22.3125 9.640625 22.3125 9.957031 22.253906 C 10.089844 22.226562 10.191406 22.160156 10.269531 22.050781 C 10.34375 21.941406 10.371094 21.824219 10.351562 21.691406 C 10.359375 21.5625 10.324219 21.449219 10.242188 21.351562 C 10.160156 21.253906 10.054688 21.199219 9.925781 21.1875 C 9.597656 21.164062 9.269531 21.164062 8.941406 21.1875 Z M 9.34375 20.28125 L 9.621094 20.28125 C 9.722656 20.265625 9.804688 20.21875 9.871094 20.140625 C 9.9375 20.0625 9.972656 19.972656 9.972656 19.871094 C 9.972656 19.769531 9.9375 19.679688 9.871094 19.601562 C 9.804688 19.523438 9.722656 19.476562 9.621094 19.460938 L 9.128906 19.460938 C 9.128906 19.460938 8.980469 19.460938 8.980469 19.519531 C 8.949219 19.746094 8.949219 19.972656 8.980469 20.199219 C 8.988281 20.21875 9.21875 20.238281 9.34375 20.28125 Z M 9.34375 20.28125 " fill-opacity="1" fill-rule="nonzero"/><path fill="#ffffff" d="M 21.800781 20.417969 L 21.800781 22.390625 C 21.800781 22.5 21.800781 22.597656 21.800781 22.707031 C 21.800781 22.835938 21.753906 22.941406 21.664062 23.03125 C 21.570312 23.121094 21.460938 23.164062 21.335938 23.160156 C 21.214844 23.15625 21.113281 23.109375 21.03125 23.015625 C 20.949219 22.925781 20.914062 22.820312 20.921875 22.699219 C 20.921875 21.988281 20.921875 21.277344 20.921875 20.566406 L 20.921875 19.046875 C 20.902344 18.9375 20.925781 18.835938 20.980469 18.742188 C 21.039062 18.648438 21.121094 18.585938 21.226562 18.550781 C 21.335938 18.523438 21.4375 18.527344 21.542969 18.574219 C 21.644531 18.617188 21.71875 18.691406 21.769531 18.789062 C 22.292969 19.558594 22.824219 20.320312 23.359375 21.089844 L 23.527344 21.316406 C 23.527344 21.175781 23.527344 21.097656 23.527344 21.019531 C 23.527344 20.359375 23.527344 19.6875 23.527344 19.046875 C 23.527344 18.925781 23.570312 18.824219 23.652344 18.738281 C 23.738281 18.652344 23.839844 18.609375 23.960938 18.609375 C 24.082031 18.609375 24.183594 18.652344 24.269531 18.738281 C 24.351562 18.824219 24.394531 18.925781 24.394531 19.046875 C 24.394531 20.199219 24.394531 21.355469 24.445312 22.511719 C 24.445312 22.796875 24.386719 23.042969 24.078125 23.140625 C 23.773438 23.238281 23.613281 23.0625 23.46875 22.835938 L 22.007812 20.714844 Z M 21.800781 20.417969 " fill-opacity="1" fill-rule="nonzero"/><path fill="#ffffff" d="M 14.09375 21.34375 L 14.824219 22.183594 C 14.902344 22.273438 14.980469 22.351562 15.050781 22.441406 C 15.132812 22.527344 15.175781 22.632812 15.175781 22.757812 C 15.175781 22.878906 15.132812 22.984375 15.050781 23.074219 C 14.957031 23.164062 14.847656 23.203125 14.71875 23.195312 C 14.585938 23.183594 14.484375 23.128906 14.40625 23.023438 C 14.050781 22.636719 13.71875 22.242188 13.371094 21.859375 L 13.15625 21.613281 C 13.15625 21.96875 13.15625 22.253906 13.15625 22.53125 C 13.15625 22.804688 13.15625 22.824219 13.09375 22.914062 C 12.988281 23.054688 12.847656 23.140625 12.671875 23.171875 C 12.464844 23.171875 12.316406 23.042969 12.277344 22.824219 C 12.273438 22.796875 12.273438 22.765625 12.277344 22.738281 C 12.277344 21.484375 12.277344 20.230469 12.277344 18.976562 C 12.261719 18.855469 12.292969 18.746094 12.375 18.652344 C 12.457031 18.558594 12.558594 18.507812 12.679688 18.503906 C 13.074219 18.480469 13.46875 18.480469 13.863281 18.503906 C 14.1875 18.535156 14.46875 18.660156 14.707031 18.878906 C 14.945312 19.097656 15.089844 19.367188 15.148438 19.6875 C 15.199219 20.015625 15.144531 20.324219 14.976562 20.609375 C 14.8125 20.898438 14.578125 21.105469 14.269531 21.226562 Z M 13.105469 20.4375 C 13.65625 20.535156 13.984375 20.4375 14.152344 20.199219 C 14.292969 20.011719 14.292969 19.824219 14.152344 19.636719 C 13.851562 19.390625 13.523438 19.339844 13.164062 19.480469 Z M 13.105469 20.4375 " fill-opacity="1" fill-rule="nonzero"/><path fill="#ffffff" d="M 26.59375 18.632812 L 26.683594 18.632812 C 26.894531 18.59375 27.105469 18.59375 27.316406 18.628906 C 27.527344 18.664062 27.726562 18.734375 27.914062 18.839844 C 28.101562 18.945312 28.265625 19.078125 28.402344 19.242188 C 28.542969 19.40625 28.652344 19.585938 28.726562 19.785156 C 28.945312 20.253906 29.019531 20.746094 28.949219 21.257812 C 28.875 21.765625 28.671875 22.21875 28.332031 22.609375 C 27.988281 22.992188 27.5625 23.183594 27.050781 23.179688 L 26.0625 23.179688 C 25.992188 23.191406 25.921875 23.183594 25.855469 23.15625 C 25.789062 23.132812 25.730469 23.097656 25.679688 23.046875 C 25.628906 22.992188 25.59375 22.933594 25.574219 22.867188 C 25.554688 22.796875 25.546875 22.726562 25.558594 22.65625 C 25.558594 21.484375 25.558594 20.308594 25.558594 19.136719 C 25.546875 19.066406 25.550781 18.996094 25.574219 18.929688 C 25.59375 18.863281 25.628906 18.804688 25.675781 18.753906 C 25.726562 18.703125 25.78125 18.667969 25.847656 18.644531 C 25.914062 18.621094 25.984375 18.613281 26.050781 18.621094 C 26.230469 18.621094 26.398438 18.632812 26.59375 18.632812 Z M 26.449219 22.292969 C 26.988281 22.292969 27.542969 22.382812 27.839844 21.808594 C 28.007812 21.511719 28.089844 21.191406 28.082031 20.851562 C 28.070312 20.507812 27.976562 20.191406 27.789062 19.90625 C 27.472656 19.402344 26.949219 19.511719 26.449219 19.53125 Z M 26.449219 22.292969 " fill-opacity="1" fill-rule="nonzero"/><path fill="#ffffff" d="M 19.964844 22.6875 C 19.980469 22.796875 19.957031 22.894531 19.898438 22.984375 C 19.835938 23.074219 19.753906 23.132812 19.648438 23.160156 C 19.554688 23.199219 19.460938 23.199219 19.367188 23.160156 C 19.273438 23.121094 19.207031 23.058594 19.164062 22.964844 C 19.074219 22.804688 19.035156 22.617188 18.949219 22.460938 C 18.890625 22.359375 18.804688 22.296875 18.691406 22.273438 C 18.265625 22.273438 17.832031 22.273438 17.398438 22.273438 C 17.246094 22.25 17.15625 22.316406 17.132812 22.46875 C 17.078125 22.636719 17.015625 22.796875 16.933594 22.953125 C 16.894531 23.058594 16.820312 23.128906 16.71875 23.171875 C 16.617188 23.214844 16.511719 23.214844 16.410156 23.171875 C 16.304688 23.140625 16.222656 23.078125 16.167969 22.984375 C 16.109375 22.886719 16.097656 22.785156 16.125 22.675781 C 16.140625 22.597656 16.160156 22.523438 16.195312 22.449219 C 16.628906 21.304688 17.074219 20.160156 17.507812 19.007812 C 17.605469 18.738281 17.753906 18.542969 18.058594 18.542969 C 18.1875 18.550781 18.300781 18.59375 18.398438 18.679688 C 18.496094 18.765625 18.558594 18.871094 18.582031 18.996094 C 19.015625 20.160156 19.460938 21.316406 19.894531 22.46875 C 19.925781 22.550781 19.953125 22.636719 19.964844 22.6875 Z M 18.503906 21.363281 L 18.011719 20.0625 L 17.515625 21.363281 Z M 18.503906 21.363281 " fill-opacity="1" fill-rule="nonzero"/></svg>