<svg xmlns="http://www.w3.org/2000/svg" xmlns:xlink="http://www.w3.org/1999/xlink" width="70" zoomAndPan="magnify" viewBox="0 0 37.5 37.499999" height="70" preserveAspectRatio="xMidYMid meet" version="1.0"><defs><clipPath id="9a7b776515"><path d="M 5.207031 3.699219 L 31.851562 3.699219 L 31.851562 33.304688 L 5.207031 33.304688 Z M 5.207031 3.699219 " clip-rule="nonzero"/></clipPath></defs><g clip-path="url(#9a7b776515)"><path fill="#ffffff" d="M 18.546875 33.304688 L 7.082031 33.304688 C 6.691406 33.34375 6.332031 33.25 6.003906 33.027344 C 5.679688 32.804688 5.464844 32.5 5.363281 32.121094 C 5.34375 31.941406 5.34375 31.761719 5.363281 31.578125 C 5.363281 26.8125 5.363281 22.035156 5.363281 17.269531 C 5.34375 16.753906 5.515625 16.316406 5.886719 15.957031 C 6.609375 15.21875 7.320312 14.457031 8.050781 13.726562 C 8.253906 13.519531 8.324219 13.269531 8.269531 12.988281 C 8.25 12.761719 8.25 12.53125 8.269531 12.304688 C 8.265625 12.066406 8.308594 11.835938 8.390625 11.609375 C 8.472656 11.382812 8.589844 11.179688 8.746094 11 C 8.902344 10.816406 9.085938 10.667969 9.296875 10.554688 C 9.507812 10.441406 9.734375 10.367188 9.96875 10.332031 C 10.105469 10.3125 10.242188 10.3125 10.375 10.332031 C 10.664062 10.371094 10.941406 10.335938 11.207031 10.21875 C 11.472656 10.097656 11.6875 9.921875 11.847656 9.679688 C 13.589844 7.90625 15.320312 6.117188 17.050781 4.34375 C 17.246094 4.136719 17.46875 3.980469 17.726562 3.871094 C 17.984375 3.757812 18.253906 3.703125 18.535156 3.703125 C 18.816406 3.703125 19.085938 3.757812 19.34375 3.871094 C 19.601562 3.980469 19.824219 4.136719 20.019531 4.34375 C 20.53125 4.855469 21.007812 5.328125 21.53125 5.902344 C 22.898438 7.3125 24.25 8.722656 25.625 10.125 C 25.769531 10.25 25.933594 10.320312 26.121094 10.34375 C 26.4375 10.34375 26.753906 10.34375 27.109375 10.34375 C 27.34375 10.367188 27.566406 10.429688 27.773438 10.539062 C 27.984375 10.644531 28.164062 10.785156 28.320312 10.960938 C 28.476562 11.136719 28.597656 11.335938 28.675781 11.554688 C 28.757812 11.773438 28.796875 12.003906 28.789062 12.238281 C 28.753906 12.617188 28.808594 12.980469 28.957031 13.332031 C 29.105469 13.683594 29.332031 13.976562 29.632812 14.210938 C 30.226562 14.722656 30.738281 15.335938 31.285156 15.898438 C 31.632812 16.242188 31.804688 16.660156 31.796875 17.152344 C 31.796875 21.976562 31.796875 26.800781 31.796875 31.628906 C 31.808594 31.863281 31.769531 32.085938 31.683594 32.304688 C 31.597656 32.523438 31.46875 32.710938 31.296875 32.871094 C 31.128906 33.03125 30.929688 33.152344 30.710938 33.226562 C 30.488281 33.304688 30.261719 33.328125 30.027344 33.304688 Z M 18.546875 11.386719 L 10.554688 11.386719 C 9.695312 11.386719 9.355469 11.714844 9.355469 12.582031 C 9.355469 14.554688 9.355469 16.460938 9.355469 18.40625 C 9.347656 18.609375 9.425781 18.765625 9.59375 18.878906 L 18.269531 25.3125 C 18.335938 25.386719 18.421875 25.425781 18.523438 25.425781 C 18.628906 25.425781 18.714844 25.386719 18.78125 25.3125 L 27.457031 18.878906 C 27.636719 18.757812 27.722656 18.589844 27.714844 18.375 C 27.714844 16.402344 27.714844 14.496094 27.714844 12.550781 C 27.714844 11.753906 27.367188 11.398438 26.566406 11.398438 Z M 29.582031 32.238281 L 29.582031 32.171875 L 20.679688 25.183594 C 20.027344 25.667969 19.375 26.171875 18.703125 26.625 C 18.636719 26.695312 18.554688 26.730469 18.457031 26.730469 C 18.359375 26.730469 18.277344 26.695312 18.207031 26.625 C 17.574219 26.132812 16.921875 25.636719 16.230469 25.183594 L 7.378906 32.238281 Z M 6.410156 17.792969 L 6.410156 31.667969 L 15.480469 24.53125 Z M 30.671875 17.792969 L 21.589844 24.523438 L 30.671875 31.667969 Z M 12.75 10.300781 L 24.28125 10.300781 C 24.230469 10.234375 24.222656 10.203125 24.191406 10.183594 L 19.304688 5.121094 C 19.210938 5.003906 19.097656 4.914062 18.964844 4.847656 C 18.828125 4.785156 18.683594 4.753906 18.535156 4.753906 C 18.386719 4.753906 18.242188 4.785156 18.105469 4.847656 C 17.972656 4.914062 17.859375 5.003906 17.765625 5.121094 C 17.109375 5.78125 16.476562 6.453125 15.835938 7.09375 Z M 6.597656 16.628906 L 8.269531 17.851562 L 8.269531 15.089844 Z M 28.78125 17.871094 L 30.453125 16.628906 L 28.78125 15.078125 Z M 28.78125 17.871094 " fill-opacity="1" fill-rule="nonzero"/></g><path fill="#ffffff" d="M 19.523438 15.265625 C 19.8125 14.605469 20.335938 15.050781 20.789062 14.851562 C 20.710938 15.226562 20.660156 15.511719 20.601562 15.789062 C 20.414062 16.636719 20.226562 17.476562 20.046875 18.324219 C 20.027344 18.445312 20.027344 18.5625 20.046875 18.679688 C 20.179688 18.675781 20.304688 18.648438 20.425781 18.601562 C 20.800781 18.390625 21.097656 18.097656 21.316406 17.722656 C 21.535156 17.351562 21.644531 16.945312 21.644531 16.515625 C 21.644531 16.082031 21.535156 15.679688 21.316406 15.308594 C 21.097656 14.933594 20.800781 14.640625 20.425781 14.425781 C 20.105469 14.253906 19.765625 14.132812 19.410156 14.0625 C 19.054688 13.992188 18.699219 13.972656 18.335938 14.007812 C 17.976562 14.042969 17.628906 14.128906 17.292969 14.269531 C 16.957031 14.40625 16.648438 14.59375 16.371094 14.824219 C 16.101562 15.078125 15.875 15.371094 15.695312 15.695312 C 15.511719 16.019531 15.382812 16.363281 15.304688 16.726562 C 15.230469 17.089844 15.207031 17.457031 15.238281 17.828125 C 15.273438 18.195312 15.359375 18.554688 15.5 18.898438 C 15.820312 19.652344 16.378906 20.144531 17.171875 20.367188 C 17.789062 20.59375 18.425781 20.683594 19.082031 20.632812 C 19.738281 20.582031 20.351562 20.398438 20.929688 20.082031 C 21.160156 19.960938 21.363281 19.796875 21.53125 19.597656 C 21.6875 19.378906 21.898438 19.289062 22.164062 19.324219 C 22.414062 19.335938 22.664062 19.335938 22.917969 19.324219 C 22.601562 20.074219 22.078125 20.625 21.34375 20.980469 C 20.5 21.425781 19.601562 21.640625 18.648438 21.625 C 17.695312 21.613281 16.804688 21.371094 15.972656 20.902344 C 15.429688 20.605469 15 20.195312 14.683594 19.664062 C 14.367188 19.132812 14.210938 18.558594 14.214844 17.941406 C 14.160156 17.523438 14.167969 17.105469 14.234375 16.691406 C 14.300781 16.277344 14.421875 15.878906 14.601562 15.496094 C 14.78125 15.117188 15.011719 14.765625 15.289062 14.453125 C 15.566406 14.136719 15.886719 13.863281 16.242188 13.636719 C 16.652344 13.390625 17.097656 13.210938 17.566406 13.097656 C 18.035156 12.988281 18.511719 12.953125 18.992188 12.996094 C 19.472656 13.035156 19.9375 13.148438 20.382812 13.332031 C 20.828125 13.519531 21.234375 13.769531 21.601562 14.082031 C 21.785156 14.261719 21.945312 14.464844 22.082031 14.679688 C 22.21875 14.898438 22.332031 15.128906 22.417969 15.371094 C 22.503906 15.613281 22.558594 15.863281 22.585938 16.121094 C 22.617188 16.375 22.613281 16.632812 22.585938 16.886719 C 22.554688 17.144531 22.496094 17.394531 22.410156 17.636719 C 22.324219 17.878906 22.210938 18.109375 22.070312 18.324219 C 21.929688 18.542969 21.769531 18.738281 21.585938 18.921875 C 21.402344 19.101562 21.199219 19.257812 20.976562 19.390625 C 20.640625 19.570312 20.28125 19.679688 19.898438 19.726562 C 19.6875 19.773438 19.484375 19.75 19.285156 19.660156 C 19.089844 19.570312 18.9375 19.433594 18.832031 19.242188 L 18.464844 19.480469 C 18.28125 19.597656 18.078125 19.675781 17.859375 19.710938 C 17.640625 19.746094 17.425781 19.738281 17.210938 19.683594 C 16.996094 19.628906 16.800781 19.535156 16.625 19.398438 C 16.449219 19.265625 16.308594 19.101562 16.199219 18.90625 C 15.953125 18.476562 15.835938 18.015625 15.84375 17.519531 C 15.855469 17.023438 15.996094 16.5625 16.261719 16.144531 C 16.519531 15.617188 16.910156 15.226562 17.4375 14.96875 C 17.777344 14.777344 18.144531 14.707031 18.53125 14.761719 C 18.921875 14.816406 19.25 14.984375 19.523438 15.265625 Z M 19.226562 16.84375 C 19.238281 16.726562 19.238281 16.609375 19.226562 16.488281 C 19.191406 16.160156 19.019531 15.929688 18.707031 15.808594 C 18.398438 15.683594 18.117188 15.730469 17.863281 15.949219 C 17.546875 16.210938 17.324219 16.535156 17.191406 16.921875 C 17.058594 17.304688 17.035156 17.699219 17.121094 18.097656 C 17.144531 18.417969 17.304688 18.632812 17.605469 18.746094 C 17.902344 18.859375 18.167969 18.804688 18.398438 18.582031 C 18.957031 18.140625 19.234375 17.558594 19.226562 16.84375 Z M 19.226562 16.84375 " fill-opacity="1" fill-rule="nonzero"/></svg>