<svg xmlns="http://www.w3.org/2000/svg" xmlns:xlink="http://www.w3.org/1999/xlink" width="70" zoomAndPan="magnify" viewBox="0 0 37.5 37.499999" height="70" preserveAspectRatio="xMidYMid meet" version="1.0"><defs><clipPath id="68691b464a"><path d="M 14 12 L 33.304688 12 L 33.304688 30.992188 L 14 30.992188 Z M 14 12 " clip-rule="nonzero"/></clipPath><clipPath id="e081935936"><path d="M 3.699219 5.828125 L 15 5.828125 L 15 15 L 3.699219 15 Z M 3.699219 5.828125 " clip-rule="nonzero"/></clipPath><clipPath id="2eeccce97d"><path d="M 3.699219 14 L 14 14 L 14 30.992188 L 3.699219 30.992188 Z M 3.699219 14 " clip-rule="nonzero"/></clipPath></defs><g clip-path="url(#68691b464a)"><path fill="#ffffff" d="M 19.035156 23.410156 C 19.222656 22.007812 19.222656 22.007812 20.421875 22.035156 C 21.027344 22.035156 21.058594 22.09375 21.167969 23.367188 L 21.875 23.367188 L 21.875 19.785156 C 21.546875 19.785156 21.234375 19.785156 20.917969 19.785156 C 20.335938 19.785156 20.078125 19.535156 20.078125 18.949219 C 20.078125 18.367188 20.078125 17.742188 20.078125 17.132812 C 20.078125 16.527344 20.328125 16.351562 20.917969 16.300781 L 22.167969 16.300781 L 22.167969 15.910156 C 22.167969 15.117188 22.167969 14.316406 22.125 13.527344 C 22.183594 13.175781 22.339844 12.875 22.597656 12.625 C 22.855469 12.378906 23.164062 12.230469 23.519531 12.183594 C 23.660156 12.191406 23.792969 12.226562 23.917969 12.292969 C 24.039062 12.359375 24.144531 12.449219 24.226562 12.5625 C 24.308594 12.679688 24.359375 12.804688 24.382812 12.941406 C 24.40625 13.082031 24.398438 13.21875 24.359375 13.351562 C 24.226562 13.691406 24.007812 13.957031 23.695312 14.148438 C 23.382812 14.339844 23.042969 14.414062 22.679688 14.375 L 22.679688 16.277344 L 26.5 16.277344 C 26.5 15.734375 26.5 15.183594 26.5 14.609375 C 26.5 14.535156 26.382812 14.433594 26.289062 14.375 C 26.148438 14.246094 26.035156 14.097656 25.953125 13.925781 C 25.867188 13.757812 25.816406 13.578125 25.800781 13.386719 C 25.78125 13.199219 25.796875 13.011719 25.847656 12.828125 C 25.902344 12.648438 25.984375 12.480469 26.09375 12.328125 C 26.210938 12.214844 26.34375 12.140625 26.496094 12.097656 C 26.648438 12.058594 26.804688 12.054688 26.957031 12.09375 C 27.113281 12.128906 27.246094 12.203125 27.363281 12.308594 C 27.480469 12.414062 27.566406 12.542969 27.613281 12.691406 C 27.734375 13.007812 27.75 13.324219 27.652344 13.648438 C 27.554688 13.96875 27.367188 14.230469 27.09375 14.425781 C 27.027344 14.484375 26.988281 14.5625 26.976562 14.652344 C 26.976562 15.074219 26.976562 15.484375 26.976562 15.917969 C 26.976562 16.019531 26.976562 16.125 26.976562 16.25 L 30.9375 16.25 L 30.9375 14.402344 C 30.097656 14.660156 29.714844 14.085938 29.320312 13.566406 C 29.199219 13.386719 29.15625 13.191406 29.191406 12.980469 C 29.226562 12.765625 29.324219 12.59375 29.496094 12.460938 C 29.648438 12.3125 29.832031 12.230469 30.046875 12.214844 C 30.261719 12.199219 30.453125 12.253906 30.628906 12.375 C 31.132812 12.800781 31.578125 13.210938 31.382812 14.042969 C 31.3125 14.820312 31.339844 15.589844 31.46875 16.359375 L 32.558594 16.359375 C 32.664062 16.34375 32.765625 16.355469 32.867188 16.390625 C 32.96875 16.421875 33.054688 16.476562 33.128906 16.550781 C 33.203125 16.625 33.257812 16.710938 33.292969 16.8125 C 33.328125 16.910156 33.335938 17.011719 33.324219 17.117188 C 33.324219 17.757812 33.324219 18.410156 33.324219 19.050781 C 33.335938 19.152344 33.324219 19.25 33.292969 19.347656 C 33.257812 19.441406 33.207031 19.527344 33.132812 19.597656 C 33.0625 19.671875 32.976562 19.722656 32.882812 19.757812 C 32.785156 19.792969 32.6875 19.804688 32.585938 19.792969 C 32.257812 19.792969 31.929688 19.792969 31.527344 19.792969 L 31.527344 29.917969 C 31.527344 30.699219 31.332031 30.898438 30.550781 30.898438 L 27.019531 30.898438 C 26.914062 30.917969 26.8125 30.917969 26.707031 30.898438 C 26.617188 30.898438 26.558594 30.773438 26.480469 30.707031 C 26.558594 30.632812 26.617188 30.515625 26.707031 30.484375 C 26.824219 30.460938 26.941406 30.460938 27.0625 30.484375 C 28.246094 30.484375 29.429688 30.484375 30.601562 30.484375 C 30.914062 30.484375 31.074219 30.390625 31.074219 30.058594 C 31.074219 26.726562 31.074219 23.390625 31.074219 20.058594 C 31.074219 20.007812 31.074219 19.957031 31.074219 19.875 L 22.351562 19.875 L 22.351562 23.410156 L 22.796875 23.410156 C 23.527344 23.410156 24.257812 23.410156 24.988281 23.410156 C 25.101562 23.402344 25.214844 23.417969 25.324219 23.457031 C 25.433594 23.496094 25.53125 23.554688 25.613281 23.632812 C 25.699219 23.714844 25.761719 23.804688 25.808594 23.910156 C 25.855469 24.015625 25.878906 24.128906 25.878906 24.242188 C 25.878906 26.160156 25.878906 28.070312 25.878906 29.976562 C 25.878906 30.09375 25.855469 30.203125 25.808594 30.3125 C 25.757812 30.417969 25.691406 30.511719 25.605469 30.59375 C 25.519531 30.671875 25.417969 30.730469 25.308594 30.765625 C 25.195312 30.804688 25.082031 30.820312 24.960938 30.808594 L 15.285156 30.808594 C 15.15625 30.824219 15.027344 30.808594 14.90625 30.765625 C 14.785156 30.722656 14.675781 30.65625 14.585938 30.566406 C 14.492188 30.472656 14.429688 30.363281 14.386719 30.242188 C 14.347656 30.121094 14.335938 29.996094 14.351562 29.867188 L 14.351562 24.382812 C 14.328125 24.25 14.335938 24.117188 14.375 23.988281 C 14.414062 23.855469 14.484375 23.742188 14.578125 23.644531 C 14.675781 23.550781 14.789062 23.480469 14.917969 23.4375 C 15.050781 23.394531 15.183594 23.386719 15.316406 23.410156 C 16.402344 23.410156 17.492188 23.410156 18.582031 23.410156 Z M 19.035156 23.84375 L 15.277344 23.84375 C 14.890625 23.84375 14.796875 24.082031 14.796875 24.417969 L 14.796875 29.832031 C 14.796875 30.308594 14.90625 30.417969 15.386719 30.425781 L 24.820312 30.425781 C 25.332031 30.425781 25.433594 30.316406 25.433594 29.816406 L 25.433594 24.476562 C 25.433594 23.992188 25.304688 23.875 24.820312 23.867188 L 21.175781 23.867188 C 21.074219 24.507812 20.957031 24.609375 20.335938 24.617188 L 19.859375 24.617188 C 19.269531 24.609375 19.164062 24.523438 19.035156 23.867188 Z M 26.707031 16.742188 C 24.8125 16.742188 22.914062 16.742188 21.027344 16.742188 C 20.691406 16.742188 20.539062 16.835938 20.554688 17.191406 C 20.554688 17.742188 20.554688 18.300781 20.554688 18.859375 C 20.554688 19.234375 20.699219 19.335938 21.050781 19.324219 C 21.949219 19.324219 22.847656 19.324219 23.753906 19.324219 L 32.339844 19.324219 C 32.675781 19.324219 32.871094 19.265625 32.851562 18.875 C 32.835938 18.484375 32.851562 17.875 32.851562 17.375 C 32.851562 16.875 32.851562 16.75 32.25 16.75 Z M 20.679688 22.574219 L 19.558594 22.574219 L 19.558594 24.175781 L 20.679688 24.175781 Z M 27.203125 13.359375 L 27.203125 13.085938 C 27.203125 12.777344 27.042969 12.566406 26.726562 12.566406 C 26.40625 12.566406 26.253906 12.777344 26.253906 13.085938 C 26.253906 13.394531 26.253906 13.453125 26.253906 13.632812 C 26.25 13.765625 26.289062 13.878906 26.378906 13.972656 C 26.46875 14.070312 26.578125 14.121094 26.707031 14.125 C 26.839844 14.132812 26.953125 14.089844 27.050781 14.003906 C 27.148438 13.914062 27.199219 13.804688 27.203125 13.675781 C 27.210938 13.570312 27.210938 13.464844 27.203125 13.359375 Z M 23.972656 13.019531 C 23.921875 12.953125 23.835938 12.777344 23.710938 12.71875 C 23.554688 12.652344 23.398438 12.652344 23.242188 12.71875 C 23.027344 12.855469 22.851562 13.03125 22.710938 13.242188 C 22.636719 13.398438 22.636719 13.554688 22.710938 13.710938 C 22.808594 13.855469 22.941406 13.9375 23.117188 13.960938 C 23.351562 14.035156 23.9375 13.410156 23.9375 13.019531 Z M 30.6875 14.007812 C 30.746094 13.949219 30.929688 13.875 30.988281 13.742188 C 31.054688 13.585938 31.054688 13.433594 30.988281 13.277344 C 30.847656 13.066406 30.671875 12.894531 30.460938 12.75 C 30.308594 12.648438 30.152344 12.640625 29.988281 12.722656 C 29.828125 12.804688 29.742188 12.9375 29.738281 13.117188 C 29.597656 13.410156 30.207031 14.007812 30.621094 14.007812 Z M 30.6875 14.007812 " fill-opacity="1" fill-rule="nonzero"/></g><g clip-path="url(#e081935936)"><path fill="#ffffff" d="M 8.023438 9.335938 L 5.574219 7.292969 C 5.378906 7.117188 5.058594 6.984375 5.21875 6.636719 C 5.328125 6.460938 5.480469 6.332031 5.667969 6.246094 C 5.859375 6.164062 6.054688 6.140625 6.261719 6.175781 C 7.140625 6.492188 8.046875 6.742188 8.894531 7.167969 C 9.257812 7.394531 9.652344 7.480469 10.074219 7.433594 C 10.5 7.382812 10.863281 7.210938 11.164062 6.910156 C 11.75 6.5 12.382812 6.191406 13.066406 5.976562 C 13.296875 5.894531 13.53125 5.871094 13.773438 5.910156 C 13.898438 5.929688 14.011719 5.976562 14.117188 6.046875 C 14.21875 6.117188 14.304688 6.207031 14.367188 6.3125 C 14.429688 6.421875 14.46875 6.539062 14.480469 6.664062 C 14.488281 6.789062 14.472656 6.910156 14.429688 7.027344 C 14.25 7.484375 13.992188 7.894531 13.664062 8.261719 C 13.167969 8.746094 12.644531 9.203125 12.09375 9.625 C 11.910156 9.746094 11.835938 9.910156 11.867188 10.125 C 11.984375 11.382812 12.085938 12.625 12.1875 13.902344 C 12.1875 14.25 11.75 14.824219 11.40625 14.800781 C 11.21875 14.742188 11.085938 14.625 11.003906 14.449219 C 10.558594 13.542969 10.148438 12.578125 9.726562 11.691406 C 9.675781 11.566406 9.578125 11.460938 9.578125 11.316406 L 7.132812 12.667969 C 7.210938 13.085938 7.277344 13.5 7.378906 13.875 C 7.417969 14 7.417969 14.121094 7.371094 14.242188 C 7.328125 14.363281 7.253906 14.457031 7.140625 14.527344 C 6.363281 15.144531 6.136719 15.125 5.824219 14.199219 C 5.476562 13.292969 4.894531 12.570312 4.078125 12.035156 C 3.550781 11.632812 3.589844 11.417969 4.078125 10.984375 C 4.238281 10.824219 4.429688 10.738281 4.65625 10.722656 C 4.882812 10.707031 5.082031 10.769531 5.261719 10.910156 C 6.101562 11.382812 6.101562 11.367188 6.796875 10.667969 C 7.210938 10.234375 7.59375 9.800781 8.023438 9.335938 Z M 4.152344 11.578125 C 4.714844 11.878906 5.191406 12.285156 5.578125 12.789062 C 5.960938 13.296875 6.226562 13.855469 6.371094 14.476562 C 6.863281 14.300781 7.023438 14.027344 6.863281 13.574219 C 6.773438 13.316406 6.765625 13.027344 6.679688 12.742188 C 6.636719 12.640625 6.640625 12.539062 6.6875 12.4375 C 6.734375 12.335938 6.808594 12.269531 6.914062 12.234375 C 7.671875 11.816406 8.417969 11.402344 9.164062 10.96875 C 9.238281 10.917969 9.316406 10.886719 9.402344 10.871094 C 9.488281 10.859375 9.574219 10.867188 9.65625 10.894531 C 9.742188 10.925781 9.8125 10.96875 9.875 11.03125 C 9.9375 11.09375 9.980469 11.167969 10.003906 11.25 L 10.945312 13.292969 L 11.398438 14.242188 C 11.777344 14.144531 11.734375 13.882812 11.707031 13.625 C 11.609375 12.394531 11.515625 11.125 11.398438 9.933594 C 11.367188 9.679688 11.460938 9.480469 11.675781 9.335938 C 12.304688 8.816406 12.925781 8.277344 13.503906 7.667969 C 13.71875 7.425781 13.875 7.148438 13.964844 6.835938 C 14.074219 6.511719 13.90625 6.285156 13.570312 6.328125 C 13.175781 6.355469 12.796875 6.453125 12.4375 6.625 C 11.800781 6.980469 11.191406 7.367188 10.601562 7.792969 C 10.367188 8.007812 10.101562 8.050781 9.8125 7.917969 C 8.636719 7.519531 7.453125 7.09375 6.277344 6.652344 C 6.175781 6.59375 6.066406 6.582031 5.953125 6.617188 C 5.84375 6.652344 5.761719 6.726562 5.714844 6.835938 L 8.234375 8.917969 C 8.621094 9.242188 8.621094 9.527344 8.234375 9.875 L 7.058594 11.066406 C 6.21875 11.902344 6.21875 11.902344 5.21875 11.351562 C 5.140625 11.28125 5.046875 11.234375 4.941406 11.207031 C 4.839844 11.179688 4.734375 11.175781 4.628906 11.199219 C 4.523438 11.21875 4.429688 11.265625 4.347656 11.332031 C 4.261719 11.398438 4.199219 11.480469 4.152344 11.578125 Z M 4.152344 11.578125 " fill-opacity="1" fill-rule="nonzero"/></g><path fill="#ffffff" d="M 20.78125 7.175781 C 19.800781 6.960938 18.867188 6.742188 17.917969 6.558594 C 17.167969 6.488281 16.417969 6.457031 15.660156 6.46875 C 15.476562 6.46875 15.199219 6.550781 15.199219 6.261719 C 15.199219 6.175781 15.492188 6.027344 15.652344 6.019531 C 16.664062 5.964844 17.667969 6.03125 18.660156 6.21875 C 19.65625 6.402344 20.613281 6.703125 21.535156 7.121094 C 22.457031 7.535156 23.3125 8.054688 24.109375 8.675781 C 24.90625 9.296875 25.613281 10.003906 26.238281 10.792969 C 26.289062 10.859375 26.363281 10.917969 26.382812 10.984375 C 26.394531 11.101562 26.394531 11.21875 26.382812 11.335938 C 26.273438 11.324219 26.171875 11.300781 26.070312 11.257812 C 25.988281 11.191406 25.921875 11.113281 25.867188 11.019531 C 24.710938 9.570312 23.300781 8.4375 21.628906 7.617188 C 21.253906 7.425781 21.085938 7.527344 20.933594 7.851562 C 20.851562 8.03125 20.757812 8.203125 20.648438 8.367188 C 20.496094 8.578125 20.300781 8.730469 20.058594 8.828125 C 19.816406 8.925781 19.570312 8.953125 19.3125 8.910156 C 18.851562 8.847656 18.421875 8.925781 18.015625 9.152344 C 17.609375 9.378906 17.316406 9.703125 17.132812 10.125 C 16.96875 10.382812 16.910156 10.664062 16.964844 10.960938 C 17.019531 11.261719 17.164062 11.507812 17.40625 11.691406 C 17.902344 12.125 18.414062 12.527344 18.917969 12.984375 C 19.0625 13.101562 19.179688 13.242188 19.265625 13.40625 C 19.351562 13.570312 19.40625 13.742188 19.421875 13.925781 C 19.441406 14.109375 19.421875 14.292969 19.367188 14.46875 C 19.3125 14.644531 19.226562 14.804688 19.109375 14.945312 C 18.988281 15.089844 18.847656 15.203125 18.683594 15.289062 C 18.519531 15.378906 18.34375 15.429688 18.160156 15.445312 C 17.972656 15.464844 17.792969 15.445312 17.613281 15.390625 C 17.433594 15.339844 17.273438 15.253906 17.132812 15.132812 C 16.535156 14.585938 15.828125 14.308594 15.015625 14.300781 C 14.367188 14.316406 13.804688 14.546875 13.335938 14.992188 C 12.933594 15.375 12.550781 15.777344 12.195312 16.199219 C 11.769531 16.695312 11.484375 17.261719 11.34375 17.898438 C 11.203125 18.535156 11.226562 19.164062 11.40625 19.792969 C 11.464844 20.054688 11.59375 20.269531 11.800781 20.441406 C 12.007812 20.613281 12.246094 20.707031 12.515625 20.71875 C 13 20.777344 13.488281 20.800781 13.976562 20.882812 C 14.441406 20.957031 14.871094 21.128906 15.253906 21.402344 C 15.640625 21.675781 15.945312 22.019531 16.164062 22.433594 C 16.222656 22.542969 16.164062 22.71875 16.164062 22.867188 C 16.046875 22.792969 15.878906 22.75 15.8125 22.652344 C 15.578125 22.238281 15.261719 21.910156 14.855469 21.667969 C 14.453125 21.421875 14.011719 21.285156 13.539062 21.265625 C 13.144531 21.265625 12.742188 21.199219 12.355469 21.132812 C 12.003906 21.09375 11.703125 20.953125 11.449219 20.710938 C 11.191406 20.472656 11.035156 20.179688 10.976562 19.832031 C 10.785156 19.132812 10.769531 18.425781 10.929688 17.714844 C 11.09375 17.007812 11.414062 16.375 11.894531 15.824219 C 12.238281 15.425781 12.601562 15.042969 12.984375 14.675781 C 13.234375 14.429688 13.519531 14.234375 13.839844 14.089844 C 14.160156 13.945312 14.496094 13.855469 14.847656 13.828125 C 15.199219 13.796875 15.546875 13.828125 15.886719 13.921875 C 16.226562 14.011719 16.539062 14.160156 16.828125 14.359375 C 17.0625 14.519531 17.289062 14.710938 17.535156 14.867188 C 17.734375 15.015625 17.960938 15.070312 18.210938 15.035156 C 18.457031 15 18.65625 14.882812 18.808594 14.683594 C 18.964844 14.5 19.035156 14.285156 19.019531 14.042969 C 19.003906 13.800781 18.90625 13.597656 18.726562 13.433594 C 18.222656 12.96875 17.683594 12.527344 17.164062 12.085938 C 16.992188 11.957031 16.851562 11.800781 16.738281 11.621094 C 16.628906 11.4375 16.554688 11.242188 16.519531 11.03125 C 16.484375 10.820312 16.488281 10.613281 16.53125 10.40625 C 16.578125 10.195312 16.660156 10.003906 16.777344 9.828125 C 16.996094 9.359375 17.332031 9.003906 17.78125 8.75 C 18.234375 8.5 18.714844 8.402344 19.230469 8.460938 C 19.503906 8.519531 19.761719 8.476562 20.003906 8.335938 C 20.242188 8.195312 20.40625 7.992188 20.488281 7.726562 C 20.578125 7.539062 20.675781 7.355469 20.78125 7.175781 Z M 20.78125 7.175781 " fill-opacity="1" fill-rule="nonzero"/><g clip-path="url(#2eeccce97d)"><path fill="#ffffff" d="M 4.390625 20.152344 C 4.617188 19.636719 4.894531 19.152344 5.226562 18.699219 C 5.578125 18.296875 5.996094 17.988281 6.488281 17.777344 C 6.765625 17.679688 7.019531 17.542969 7.253906 17.363281 C 7.484375 17.183594 7.679688 16.972656 7.84375 16.726562 C 8.003906 16.484375 8.121094 16.21875 8.191406 15.9375 C 8.265625 15.652344 8.289062 15.367188 8.265625 15.074219 C 8.265625 14.976562 8.410156 14.875 8.484375 14.777344 C 8.5625 14.875 8.695312 14.976562 8.703125 15.085938 C 8.761719 15.644531 8.664062 16.171875 8.414062 16.675781 C 8.160156 17.179688 7.789062 17.574219 7.300781 17.859375 C 7.179688 17.9375 7.050781 18.003906 6.914062 18.058594 C 6.488281 18.234375 6.113281 18.484375 5.785156 18.808594 C 5.457031 19.132812 5.203125 19.503906 5.023438 19.925781 C 4.84375 20.347656 4.753906 20.789062 4.746094 21.25 C 4.742188 21.707031 4.824219 22.148438 4.992188 22.574219 C 5.101562 22.875 5.226562 23.167969 5.363281 23.449219 C 5.484375 23.742188 5.648438 24.003906 5.863281 24.234375 C 6.082031 24.464844 6.328125 24.652344 6.613281 24.792969 C 6.894531 24.933594 7.195312 25.023438 7.507812 25.058594 C 7.824219 25.089844 8.136719 25.070312 8.441406 24.992188 C 8.777344 24.925781 9.113281 24.84375 9.449219 24.785156 C 9.699219 24.734375 9.945312 24.734375 10.191406 24.785156 C 10.4375 24.839844 10.664062 24.9375 10.871094 25.082031 C 11.078125 25.222656 11.246094 25.402344 11.378906 25.617188 C 11.511719 25.828125 11.597656 26.058594 11.632812 26.308594 C 11.71875 26.832031 11.894531 27.140625 12.472656 27.199219 C 12.800781 27.296875 13.042969 27.496094 13.195312 27.800781 C 13.402344 28.226562 13.558594 28.671875 13.664062 29.132812 C 13.664062 29.234375 13.597656 29.375 13.5625 29.5 C 13.453125 29.425781 13.304688 29.367188 13.261719 29.265625 C 13.105469 28.890625 12.972656 28.507812 12.859375 28.117188 C 12.824219 27.96875 12.75 27.847656 12.636719 27.75 C 12.519531 27.652344 12.386719 27.597656 12.238281 27.582031 C 11.972656 27.578125 11.746094 27.480469 11.554688 27.296875 C 11.367188 27.113281 11.265625 26.886719 11.253906 26.625 C 11.253906 26.507812 11.234375 26.390625 11.207031 26.277344 C 11.175781 26.160156 11.128906 26.050781 11.074219 25.949219 C 11.015625 25.84375 10.945312 25.75 10.867188 25.660156 C 10.785156 25.574219 10.695312 25.5 10.59375 25.433594 C 10.496094 25.367188 10.390625 25.316406 10.277344 25.273438 C 10.164062 25.234375 10.050781 25.207031 9.929688 25.195312 C 9.8125 25.183594 9.695312 25.1875 9.574219 25.203125 C 9.457031 25.21875 9.34375 25.25 9.230469 25.292969 C 8.285156 25.582031 7.335938 25.601562 6.378906 25.351562 C 6.984375 26 7.546875 26.691406 8.191406 27.292969 C 9.59375 28.597656 11.222656 29.503906 13.078125 30.007812 C 13.167969 30.019531 13.253906 30.046875 13.335938 30.089844 C 13.421875 30.175781 13.492188 30.265625 13.554688 30.367188 C 13.445312 30.367188 13.320312 30.515625 13.226562 30.492188 C 12.761719 30.378906 12.300781 30.242188 11.851562 30.074219 C 11.214844 29.832031 10.601562 29.542969 10.015625 29.199219 C 9.425781 28.859375 8.871094 28.472656 8.34375 28.042969 C 7.820312 27.613281 7.335938 27.140625 6.886719 26.632812 C 6.441406 26.121094 6.039062 25.582031 5.679688 25.003906 C 5.320312 24.429688 5.011719 23.832031 4.753906 23.207031 C 4.492188 22.582031 4.285156 21.9375 4.132812 21.28125 C 3.980469 20.621094 3.878906 19.953125 3.835938 19.28125 C 3.792969 18.605469 3.800781 17.933594 3.867188 17.257812 C 4.011719 16.308594 4.214844 15.375 4.480469 14.449219 C 4.480469 14.324219 4.714844 14.132812 4.800781 14.152344 C 5.070312 14.210938 4.941406 14.425781 4.894531 14.601562 C 4.3125 16.296875 4.125 18.035156 4.332031 19.816406 C 4.347656 19.957031 4.378906 20.074219 4.390625 20.152344 Z M 4.390625 20.152344 " fill-opacity="1" fill-rule="nonzero"/></g><path fill="#ffffff" d="M 26.667969 21.949219 L 24.148438 21.949219 C 24.054688 21.96875 23.964844 21.96875 23.871094 21.949219 C 23.777344 21.894531 23.695312 21.824219 23.628906 21.742188 C 23.710938 21.667969 23.796875 21.535156 23.886719 21.515625 C 24.171875 21.515625 24.46875 21.515625 24.726562 21.515625 L 29.25 21.515625 C 29.34375 21.5 29.4375 21.5 29.527344 21.515625 C 29.625 21.582031 29.714844 21.65625 29.796875 21.742188 C 29.714844 21.816406 29.644531 21.917969 29.554688 21.949219 C 29.433594 21.972656 29.3125 21.972656 29.191406 21.949219 Z M 26.667969 21.949219 " fill-opacity="1" fill-rule="nonzero"/><path fill="#ffffff" d="M 28.09375 22.917969 C 28.546875 22.917969 29 22.917969 29.445312 22.917969 C 29.570312 22.917969 29.6875 23.050781 29.804688 23.125 C 29.6875 23.199219 29.578125 23.351562 29.460938 23.351562 C 28.519531 23.351562 27.582031 23.351562 26.648438 23.351562 C 26.523438 23.351562 26.40625 23.21875 26.289062 23.140625 C 26.414062 23.058594 26.539062 22.925781 26.675781 22.917969 C 27.144531 22.898438 27.625 22.917969 28.09375 22.917969 Z M 28.09375 22.917969 " fill-opacity="1" fill-rule="nonzero"/><path fill="#ffffff" d="M 17.308594 29.53125 L 15.796875 29.53125 C 15.511719 29.53125 15.375 29.425781 15.394531 29.132812 C 15.410156 28.839844 15.394531 28.5 15.394531 28.183594 C 15.390625 28.039062 15.417969 27.902344 15.472656 27.765625 C 15.527344 27.632812 15.601562 27.515625 15.703125 27.410156 C 15.804688 27.308594 15.917969 27.226562 16.050781 27.167969 C 16.183594 27.109375 16.324219 27.078125 16.46875 27.074219 C 17.027344 27.046875 17.585938 27.046875 18.148438 27.074219 C 18.289062 27.074219 18.425781 27.105469 18.554688 27.160156 C 18.6875 27.214844 18.804688 27.289062 18.902344 27.390625 C 19.003906 27.488281 19.082031 27.605469 19.136719 27.734375 C 19.191406 27.863281 19.21875 28 19.222656 28.140625 C 19.222656 28.484375 19.222656 28.824219 19.222656 29.167969 C 19.222656 29.507812 19.085938 29.53125 18.828125 29.53125 Z M 15.886719 29.050781 L 18.808594 29.050781 C 18.808594 28.75 18.808594 28.492188 18.808594 28.214844 C 18.816406 28.011719 18.742188 27.839844 18.597656 27.699219 C 18.449219 27.554688 18.277344 27.492188 18.070312 27.5 C 17.792969 27.5 17.507812 27.5 17.230469 27.5 C 15.78125 27.425781 15.804688 27.824219 15.863281 29 Z M 15.886719 29.050781 " fill-opacity="1" fill-rule="nonzero"/><path fill="#ffffff" d="M 21.992188 25.992188 C 22.695312 25.992188 23.402344 25.992188 24.097656 25.992188 C 24.222656 25.992188 24.351562 26.132812 24.476562 26.214844 C 24.351562 26.285156 24.230469 26.417969 24.105469 26.417969 C 22.695312 26.417969 21.277344 26.417969 19.859375 26.417969 C 19.742188 26.417969 19.625 26.273438 19.496094 26.199219 C 19.632812 26.125 19.757812 25.992188 19.890625 25.992188 C 20.589844 25.984375 21.328125 25.992188 21.992188 25.992188 Z M 21.992188 25.992188 " fill-opacity="1" fill-rule="nonzero"/><path fill="#ffffff" d="M 17.316406 26.742188 C 17.171875 26.753906 17.027344 26.738281 16.890625 26.691406 C 16.75 26.644531 16.628906 26.574219 16.519531 26.476562 C 16.410156 26.378906 16.328125 26.261719 16.269531 26.128906 C 16.210938 25.996094 16.179688 25.859375 16.179688 25.710938 C 16.179688 25.566406 16.210938 25.429688 16.269531 25.296875 C 16.328125 25.164062 16.410156 25.046875 16.519531 24.949219 C 16.628906 24.851562 16.75 24.78125 16.890625 24.734375 C 17.027344 24.6875 17.171875 24.671875 17.316406 24.683594 C 17.582031 24.707031 17.808594 24.816406 17.992188 25.015625 C 18.171875 25.214844 18.261719 25.445312 18.261719 25.710938 C 18.261719 25.980469 18.171875 26.210938 17.992188 26.410156 C 17.808594 26.605469 17.582031 26.71875 17.316406 26.742188 Z M 17.316406 25.140625 C 17.15625 25.128906 17.015625 25.175781 16.898438 25.285156 C 16.78125 25.390625 16.722656 25.523438 16.71875 25.683594 C 16.707031 25.851562 16.757812 25.992188 16.875 26.113281 C 16.988281 26.234375 17.132812 26.292969 17.296875 26.292969 C 17.457031 26.292969 17.59375 26.234375 17.707031 26.125 C 17.820312 26.011719 17.878906 25.875 17.878906 25.71875 C 17.878906 25.558594 17.820312 25.421875 17.707031 25.308594 C 17.59375 25.199219 17.457031 25.140625 17.296875 25.140625 Z M 17.316406 25.140625 " fill-opacity="1" fill-rule="nonzero"/><path fill="#ffffff" d="M 22.535156 28.050781 C 23.066406 28.050781 23.59375 28.050781 24.121094 28.050781 C 24.242188 28.050781 24.359375 28.183594 24.476562 28.257812 C 24.359375 28.332031 24.25 28.484375 24.132812 28.484375 C 23.046875 28.484375 21.964844 28.484375 20.875 28.484375 C 20.757812 28.484375 20.640625 28.339844 20.523438 28.265625 C 20.640625 28.191406 20.75 28.050781 20.875 28.050781 C 21.429688 28.042969 21.984375 28.050781 22.535156 28.050781 Z M 22.535156 28.050781 " fill-opacity="1" fill-rule="nonzero"/></svg>