<svg xmlns="http://www.w3.org/2000/svg" xmlns:xlink="http://www.w3.org/1999/xlink" width="70" zoomAndPan="magnify" viewBox="0 0 37.5 37.499999" height="70" preserveAspectRatio="xMidYMid meet" version="1.0"><defs><clipPath id="a0b74fe37f"><path d="M 6.257812 10 L 23 10 L 23 26 L 6.257812 26 Z M 6.257812 10 " clip-rule="nonzero"/></clipPath><clipPath id="98a51dedd3"><path d="M 23 12 L 30.683594 12 L 30.683594 19 L 23 19 Z M 23 12 " clip-rule="nonzero"/></clipPath><clipPath id="54934d8867"><path d="M 12 3.699219 L 22 3.699219 L 22 7 L 12 7 Z M 12 3.699219 " clip-rule="nonzero"/></clipPath><clipPath id="926f3bdf1a"><path d="M 13 31 L 22 31 L 22 33.304688 L 13 33.304688 Z M 13 31 " clip-rule="nonzero"/></clipPath><clipPath id="d1a85616dc"><path d="M 10 29 L 14 29 L 14 33.304688 L 10 33.304688 Z M 10 29 " clip-rule="nonzero"/></clipPath></defs><g clip-path="url(#a0b74fe37f)"><path fill="#ffffff" d="M 19.703125 18.789062 C 19.585938 18.835938 19.476562 18.894531 19.371094 18.960938 C 18.363281 19.699219 17.351562 20.433594 16.355469 21.183594 C 15.320312 22.074219 14.148438 22.710938 12.839844 23.097656 C 12.089844 23.324219 11.332031 23.355469 10.566406 23.199219 C 9.800781 23.039062 9.121094 22.707031 8.523438 22.203125 C 7.582031 21.378906 7.042969 20.347656 6.898438 19.105469 C 6.75 17.976562 6.824219 16.867188 7.121094 15.769531 C 7.421875 14.675781 7.917969 13.679688 8.613281 12.785156 C 9.328125 11.761719 10.21875 10.925781 11.28125 10.277344 C 11.367188 10.210938 11.464844 10.175781 11.570312 10.171875 L 11.089844 10.570312 C 10.277344 11.269531 9.617188 12.085938 9.101562 13.027344 C 8.585938 13.964844 8.253906 14.964844 8.097656 16.023438 C 7.953125 16.78125 7.972656 17.535156 8.15625 18.285156 C 8.339844 19.035156 8.671875 19.710938 9.148438 20.316406 C 9.621094 20.917969 10.214844 21.359375 10.925781 21.640625 C 11.640625 21.921875 12.375 22.007812 13.128906 21.894531 C 14.199219 21.769531 15.195312 21.429688 16.121094 20.875 C 16.199219 20.796875 16.246094 20.703125 16.253906 20.589844 C 16.335938 20.222656 16.386719 19.847656 16.460938 19.480469 C 16.460938 19.328125 16.585938 19.273438 16.738281 19.246094 C 17.363281 19.128906 17.988281 18.988281 18.601562 18.855469 C 18.652344 18.855469 18.695312 18.8125 18.726562 18.730469 L 16.820312 18.84375 C 17.164062 18.21875 17.679688 17.8125 18.371094 17.625 C 18.648438 18.101562 19.054688 18.402344 19.585938 18.535156 L 19.785156 18.167969 L 18.753906 17.441406 C 18.855469 17.332031 18.929688 17.207031 18.980469 17.066406 C 19.03125 16.925781 19.054688 16.78125 19.050781 16.632812 C 19.042969 16.484375 19.011719 16.339844 18.949219 16.207031 C 18.886719 16.070312 18.804688 15.949219 18.695312 15.847656 C 18.613281 15.6875 18.601562 15.519531 18.652344 15.347656 C 18.800781 14.898438 19.078125 14.554688 19.484375 14.3125 C 19.5625 14.277344 19.640625 14.277344 19.71875 14.3125 C 20.242188 14.535156 20.550781 14.371094 20.550781 13.800781 C 20.566406 13.605469 20.566406 13.414062 20.550781 13.21875 C 20.53125 13.019531 20.53125 12.824219 20.550781 12.625 L 21.484375 13.910156 L 21.253906 13.328125 C 21.605469 13.582031 21.859375 13.917969 22.019531 14.324219 C 22.175781 14.734375 22.214844 15.152344 22.125 15.582031 C 21.890625 16.371094 21.613281 17.148438 21.292969 17.910156 C 21.246094 18 21.175781 18.050781 21.078125 18.070312 C 20.808594 18.136719 20.542969 18.175781 20.242188 18.226562 C 20.242188 18.710938 20.242188 18.695312 19.8125 18.886719 C 19.664062 18.953125 19.535156 19.050781 19.425781 19.171875 C 18.476562 20.15625 17.546875 21.167969 16.585938 22.152344 C 15.542969 23.304688 14.328125 24.234375 12.945312 24.949219 C 11.34375 25.757812 9.667969 25.949219 7.921875 25.527344 C 7.789062 25.480469 7.6875 25.398438 7.617188 25.273438 C 6.964844 24.167969 6.546875 22.980469 6.367188 21.710938 C 6.308594 21.308594 6.300781 20.875 6.257812 20.40625 C 6.316406 20.523438 6.347656 20.566406 6.367188 20.609375 C 6.523438 21.039062 6.734375 21.441406 7 21.8125 C 7.269531 22.183594 7.582031 22.511719 7.9375 22.796875 C 8.296875 23.082031 8.6875 23.3125 9.109375 23.492188 C 9.53125 23.667969 9.96875 23.785156 10.421875 23.839844 C 11.148438 23.949219 11.871094 23.910156 12.582031 23.726562 C 13.292969 23.539062 13.9375 23.222656 14.519531 22.769531 C 16.1875 21.585938 17.792969 20.347656 19.425781 19.136719 C 19.542969 19.046875 19.644531 18.945312 19.753906 18.84375 Z M 20.117188 17.878906 C 19.996094 18.027344 19.890625 18.183594 19.792969 18.351562 C 19.777344 18.464844 19.796875 18.566406 19.859375 18.660156 C 19.917969 18.714844 19.984375 18.730469 20.0625 18.710938 C 20.152344 18.644531 20.210938 18.554688 20.234375 18.445312 C 20.210938 18.253906 20.175781 18.0625 20.117188 17.878906 Z M 20.117188 17.878906 " fill-opacity="1" fill-rule="nonzero"/></g><path fill="#ffffff" d="M 16.902344 30.910156 L 18.3125 27.269531 L 18.261719 27.269531 L 16.59375 31.027344 L 15.761719 30.804688 L 15.902344 30.542969 C 17.269531 28.316406 18.453125 25.992188 19.460938 23.582031 C 19.746094 22.863281 19.910156 22.101562 20.128906 21.367188 C 20.148438 21.308594 20.148438 21.25 20.128906 21.191406 C 20.128906 21.285156 20.050781 21.375 20.019531 21.476562 C 18.902344 24.773438 17.144531 27.679688 14.738281 30.191406 C 14.585938 30.351562 14.480469 30.367188 14.3125 30.261719 L 13.023438 29.484375 C 15.144531 27.738281 16.8125 25.628906 18.019531 23.152344 C 18.019531 23.203125 17.945312 23.246094 17.910156 23.304688 C 16.285156 25.835938 14.226562 27.941406 11.730469 29.617188 C 11.597656 29.707031 11.503906 29.726562 11.378906 29.617188 C 11.273438 29.519531 11.164062 29.433594 11.046875 29.351562 L 11.046875 29.300781 C 11.472656 29.023438 11.878906 28.757812 12.332031 28.464844 C 14.214844 27.121094 15.8125 25.492188 17.121094 23.582031 C 18.128906 22.152344 19.152344 20.742188 20.117188 19.289062 C 20.386719 18.894531 20.617188 18.585938 21.117188 18.59375 C 21.171875 18.585938 21.21875 18.570312 21.269531 18.554688 C 21.542969 19.285156 21.625 20.042969 21.511719 20.816406 C 21.160156 20.335938 20.933594 19.800781 20.835938 19.214844 L 20.667969 19.214844 C 20.667969 19.480469 20.71875 19.746094 20.777344 20.007812 C 20.835938 20.265625 20.945312 20.539062 21.011719 20.839844 C 20.761719 20.324219 20.601562 19.78125 20.527344 19.214844 L 20.417969 19.214844 C 20.429688 19.539062 20.457031 19.859375 20.503906 20.179688 C 20.648438 20.773438 20.898438 21.316406 21.253906 21.808594 C 21.71875 22.570312 22.167969 23.339844 22.585938 24.121094 C 22.71875 24.34375 22.8125 24.578125 22.859375 24.832031 C 22.910156 25.085938 22.910156 25.339844 22.863281 25.59375 C 22.816406 25.847656 22.726562 26.082031 22.59375 26.304688 C 22.457031 26.523438 22.289062 26.714844 22.085938 26.871094 C 21.078125 27.789062 20.078125 28.730469 19.019531 29.609375 C 18.640625 29.945312 18.359375 30.351562 18.1875 30.828125 C 18.019531 31.269531 17.976562 31.277344 17.527344 31.144531 C 17.3125 31.085938 17.085938 30.996094 16.902344 30.910156 Z M 20.234375 21.277344 L 20.167969 21.277344 L 19.496094 25.367188 C 19.933594 24.039062 20.1875 22.675781 20.253906 21.277344 Z M 17.304688 26.109375 C 18.273438 24.898438 19.035156 23.5625 19.585938 22.109375 Z M 17.304688 26.109375 " fill-opacity="1" fill-rule="nonzero"/><path fill="#ffffff" d="M 22.917969 17.375 C 23.734375 17.527344 24.460938 17.867188 25.101562 18.394531 C 25.40625 18.621094 25.683594 18.875 25.9375 19.15625 C 26.1875 19.4375 26.410156 19.742188 26.601562 20.066406 C 26.792969 20.394531 26.949219 20.738281 27.070312 21.097656 C 27.191406 21.457031 27.277344 21.824219 27.324219 22.199219 C 27.371094 22.574219 27.378906 22.953125 27.351562 23.328125 C 27.320312 23.707031 27.253906 24.078125 27.148438 24.441406 C 27.046875 24.804688 26.90625 25.15625 26.730469 25.492188 C 26.554688 25.828125 26.347656 26.140625 26.109375 26.4375 C 25.503906 27.203125 24.785156 27.835938 23.945312 28.335938 C 23.109375 28.835938 22.210938 29.171875 21.253906 29.339844 C 21.035156 29.382812 20.820312 29.417969 20.59375 29.441406 C 20.34375 29.476562 20.09375 29.476562 19.84375 29.441406 L 20.0625 29.367188 C 21.457031 28.96875 22.648438 28.238281 23.644531 27.179688 C 24.203125 26.585938 24.578125 25.890625 24.773438 25.097656 C 24.964844 24.304688 24.949219 23.515625 24.726562 22.726562 C 24.5 21.96875 24.078125 21.335938 23.46875 20.832031 C 23.292969 20.675781 23.109375 20.515625 22.953125 20.339844 C 22.824219 20.222656 22.746094 20.074219 22.722656 19.898438 C 22.699219 19.726562 22.734375 19.5625 22.828125 19.414062 C 22.929688 19.261719 23.0625 19.15625 23.234375 19.09375 C 23.40625 19.035156 23.578125 19.027344 23.75 19.078125 C 24.207031 19.222656 24.5625 19.503906 24.808594 19.914062 C 25.226562 20.414062 25.539062 20.96875 25.75 21.585938 C 25.960938 22.199219 26.054688 22.832031 26.03125 23.480469 C 26.007812 24.132812 25.867188 24.753906 25.613281 25.355469 C 25.363281 25.953125 25.007812 26.484375 24.558594 26.953125 C 24.21875 27.328125 23.835938 27.65625 23.484375 28.023438 C 23.769531 27.804688 24.074219 27.613281 24.316406 27.371094 C 25.4375 26.476562 26.15625 25.328125 26.484375 23.929688 C 26.648438 23.167969 26.644531 22.40625 26.46875 21.648438 C 26.292969 20.886719 25.964844 20.203125 25.484375 19.589844 C 24.800781 18.652344 23.945312 17.914062 22.917969 17.375 Z M 22.917969 17.375 " fill-opacity="1" fill-rule="nonzero"/><path fill="#ffffff" d="M 23.75 13.125 C 23.742188 13.527344 23.863281 13.886719 24.113281 14.199219 C 24.363281 14.515625 24.683594 14.714844 25.074219 14.796875 C 25.273438 14.832031 25.472656 14.832031 25.671875 14.800781 C 25.871094 14.765625 26.058594 14.699219 26.234375 14.597656 C 26.410156 14.5 26.566406 14.371094 26.695312 14.21875 C 26.828125 14.0625 26.929688 13.890625 27 13.703125 C 27.25 12.996094 27.207031 12.308594 26.867188 11.640625 C 26.363281 10.617188 25.644531 9.78125 24.710938 9.132812 C 24.300781 8.824219 23.875 8.558594 23.441406 8.300781 C 23.363281 8.257812 23.296875 8.203125 23.242188 8.132812 C 23.0625 7.769531 22.90625 7.398438 22.777344 7.015625 C 23.257812 7.304688 23.757812 7.589844 24.226562 7.90625 C 25.46875 8.660156 26.472656 9.652344 27.242188 10.886719 C 27.765625 11.6875 27.953125 12.558594 27.808594 13.5 C 27.785156 13.667969 27.746094 13.832031 27.6875 13.988281 C 27.628906 14.144531 27.550781 14.292969 27.457031 14.433594 C 27.367188 14.574219 27.257812 14.703125 27.136719 14.816406 C 27.011719 14.933594 26.878906 15.03125 26.734375 15.117188 C 26.585938 15.199219 26.433594 15.265625 26.273438 15.316406 C 26.113281 15.363281 25.949219 15.394531 25.78125 15.402344 C 25.613281 15.414062 25.445312 15.40625 25.28125 15.378906 C 25.117188 15.351562 24.957031 15.304688 24.800781 15.238281 C 24.652344 15.179688 24.511719 15.101562 24.378906 15.011719 C 24.25 14.917969 24.132812 14.8125 24.023438 14.691406 C 23.917969 14.570312 23.828125 14.4375 23.753906 14.296875 C 23.675781 14.15625 23.621094 14.003906 23.578125 13.851562 C 23.539062 13.695312 23.515625 13.535156 23.511719 13.375 C 23.507812 13.214844 23.523438 13.054688 23.558594 12.898438 C 23.59375 12.742188 23.644531 12.589844 23.710938 12.445312 C 23.78125 12.300781 23.867188 12.164062 23.96875 12.039062 C 24.164062 11.792969 24.417969 11.644531 24.730469 11.589844 C 25.039062 11.535156 25.328125 11.59375 25.597656 11.761719 C 25.863281 11.929688 26.042969 12.164062 26.128906 12.46875 C 26.21875 12.773438 26.195312 13.066406 26.058594 13.351562 C 25.914062 13.628906 25.695312 13.820312 25.40625 13.929688 C 25.113281 14.039062 24.824219 14.039062 24.535156 13.925781 C 24.152344 13.777344 23.890625 13.511719 23.75 13.125 Z M 23.75 13.125 " fill-opacity="1" fill-rule="nonzero"/><path fill="#ffffff" d="M 8.273438 26.4375 L 8.941406 26.484375 C 9.921875 26.5625 10.882812 26.457031 11.820312 26.167969 C 12.761719 25.878906 13.617188 25.429688 14.386719 24.816406 C 15.476562 23.941406 16.46875 22.96875 17.371094 21.902344 C 17.976562 21.226562 18.59375 20.558594 19.210938 19.882812 C 19.226562 19.8125 19.265625 19.769531 19.335938 19.753906 C 19.167969 19.980469 19.011719 20.207031 18.835938 20.433594 C 17.785156 21.808594 16.769531 23.222656 15.671875 24.558594 C 14.273438 26.300781 12.570312 27.664062 10.5625 28.640625 C 10.484375 28.691406 10.402344 28.707031 10.3125 28.691406 C 10.21875 28.675781 10.144531 28.628906 10.089844 28.558594 C 9.417969 27.90625 8.8125 27.199219 8.273438 26.4375 Z M 8.273438 26.4375 " fill-opacity="1" fill-rule="nonzero"/><g clip-path="url(#98a51dedd3)"><path fill="#ffffff" d="M 23.050781 16.414062 C 24.015625 16.304688 24.945312 16.429688 25.84375 16.800781 C 26.234375 16.957031 26.609375 17.152344 27 17.324219 C 27.394531 17.527344 27.816406 17.613281 28.257812 17.578125 C 28.4375 17.558594 28.609375 17.5 28.765625 17.40625 C 28.921875 17.3125 29.050781 17.191406 29.152344 17.039062 C 29.257812 16.886719 29.324219 16.722656 29.351562 16.542969 C 29.382812 16.359375 29.371094 16.183594 29.324219 16.007812 C 29.179688 15.574219 29.007812 15.15625 28.808594 14.746094 C 28.578125 14.273438 28.511719 13.78125 28.617188 13.269531 C 28.667969 12.925781 28.851562 12.6875 29.175781 12.558594 C 29.074219 12.769531 29.042969 12.996094 29.085938 13.226562 C 29.128906 13.457031 29.238281 13.65625 29.40625 13.820312 C 29.640625 14.128906 29.90625 14.421875 30.132812 14.738281 C 30.445312 15.121094 30.625 15.5625 30.675781 16.054688 C 30.730469 16.550781 30.640625 17.019531 30.414062 17.460938 C 30.308594 17.6875 30.167969 17.890625 29.988281 18.066406 C 29.808594 18.242188 29.601562 18.382812 29.371094 18.480469 C 29.140625 18.582031 28.902344 18.636719 28.648438 18.648438 C 28.398438 18.660156 28.15625 18.625 27.917969 18.546875 C 27.476562 18.382812 27.0625 18.171875 26.675781 17.910156 C 25.878906 17.320312 25.007812 16.882812 24.058594 16.597656 C 23.75 16.523438 23.402344 16.484375 23.050781 16.414062 Z M 23.050781 16.414062 " fill-opacity="1" fill-rule="nonzero"/></g><path fill="#ffffff" d="M 20.234375 12.984375 C 20.085938 13.175781 19.890625 13.300781 19.65625 13.355469 C 19.417969 13.414062 19.191406 13.390625 18.96875 13.285156 C 18.917969 13.285156 18.84375 13.132812 18.859375 13.085938 C 18.996094 12.75 18.859375 12.523438 18.628906 12.25 C 18.515625 12.363281 18.394531 12.472656 18.269531 12.574219 C 18.199219 12.644531 18.117188 12.675781 18.019531 12.664062 C 17.917969 12.652344 17.84375 12.601562 17.792969 12.515625 C 17.636719 12.332031 17.503906 12.046875 17.160156 12.097656 C 17.164062 11.890625 17.140625 11.683594 17.085938 11.480469 C 16.875 11.160156 16.839844 10.820312 16.980469 10.460938 C 16.996094 10.359375 16.96875 10.269531 16.894531 10.195312 C 16.738281 10.035156 16.796875 9.894531 16.894531 9.746094 C 17.03125 9.507812 17.21875 9.328125 17.464844 9.203125 C 17.707031 9.082031 17.964844 9.039062 18.238281 9.074219 C 18.542969 9.097656 18.816406 9.203125 19.054688 9.398438 C 19.292969 9.59375 19.453125 9.839844 19.535156 10.136719 C 19.566406 10.335938 19.566406 10.539062 19.535156 10.738281 L 19.535156 11.15625 C 20.003906 10.761719 20.011719 10.269531 19.621094 9.609375 C 19.6875 9.550781 19.769531 9.527344 19.859375 9.535156 C 19.949219 9.546875 20.023438 9.585938 20.078125 9.660156 C 20.253906 9.84375 20.359375 10.0625 20.390625 10.3125 C 20.417969 10.566406 20.367188 10.804688 20.234375 11.023438 C 20.160156 11.148438 20.082031 11.269531 19.992188 11.390625 C 19.910156 11.460938 19.820312 11.523438 19.726562 11.582031 C 19.886719 12.015625 20.335938 12.417969 20.234375 12.984375 Z M 16.902344 9.917969 C 17.121094 9.96875 17.363281 10.011719 17.59375 10.078125 C 17.726562 10.125 17.859375 10.183594 17.988281 10.246094 C 18.203125 10.34375 18.421875 10.347656 18.640625 10.257812 C 18.859375 10.167969 19.015625 10.015625 19.101562 9.792969 C 18.914062 9.953125 18.695312 10.042969 18.449219 10.058594 C 18.203125 10.078125 17.972656 10.023438 17.761719 9.894531 C 17.648438 9.84375 17.53125 9.808594 17.410156 9.785156 C 17.214844 9.730469 17.042969 9.773438 16.894531 9.917969 Z M 18.335938 10.570312 C 18.472656 10.535156 18.613281 10.515625 18.753906 10.503906 C 18.863281 10.476562 18.964844 10.496094 19.0625 10.554688 C 19.105469 10.660156 19.105469 10.765625 19.0625 10.871094 C 19.0625 10.945312 18.945312 11.003906 18.929688 11.089844 C 18.890625 11.191406 18.890625 11.292969 18.929688 11.398438 C 18.96875 11.449219 19.175781 11.457031 19.210938 11.398438 C 19.246094 11.292969 19.246094 11.1875 19.210938 11.082031 C 19.210938 11.03125 19.109375 10.988281 19.054688 10.945312 L 19.121094 10.863281 C 19.179688 10.804688 19.210938 10.730469 19.210938 10.644531 C 19.210938 10.558594 19.179688 10.488281 19.121094 10.429688 C 19.003906 10.371094 18.878906 10.359375 18.753906 10.386719 C 18.609375 10.4375 18.472656 10.5 18.335938 10.570312 Z M 18.878906 9.851562 L 17.851562 9.601562 C 17.648438 9.542969 17.449219 9.5625 17.261719 9.667969 L 18.09375 9.9375 C 18.375 10.027344 18.636719 9.988281 18.878906 9.820312 Z M 18.878906 9.851562 " fill-opacity="1" fill-rule="nonzero"/><path fill="#ffffff" d="M 14.636719 20.976562 C 14.375 21.101562 14.097656 21.191406 13.8125 21.253906 C 13.527344 21.3125 13.238281 21.339844 12.949219 21.332031 C 12.65625 21.328125 12.371094 21.285156 12.089844 21.210938 C 11.804688 21.136719 11.535156 21.03125 11.277344 20.890625 C 11.023438 20.753906 10.785156 20.585938 10.566406 20.394531 C 10.347656 20.199219 10.152344 19.984375 9.988281 19.742188 C 9.820312 19.503906 9.679688 19.25 9.574219 18.976562 C 9.464844 18.707031 9.390625 18.425781 9.347656 18.136719 C 9.085938 16.691406 9.320312 15.328125 10.046875 14.054688 C 10.128906 13.902344 10.242188 13.78125 10.382812 13.683594 C 10.472656 13.621094 10.574219 13.597656 10.6875 13.613281 C 10.796875 13.625 10.890625 13.675781 10.964844 13.761719 C 11.042969 13.84375 11.078125 13.941406 11.078125 14.054688 C 11.078125 14.164062 11.042969 14.261719 10.964844 14.34375 C 10.839844 14.503906 10.699219 14.652344 10.582031 14.820312 C 10.269531 15.296875 10.070312 15.8125 9.984375 16.375 C 9.898438 16.9375 9.933594 17.488281 10.089844 18.035156 C 10.183594 18.460938 10.351562 18.859375 10.582031 19.226562 C 10.816406 19.59375 11.105469 19.910156 11.449219 20.179688 C 11.792969 20.449219 12.167969 20.648438 12.582031 20.785156 C 12.996094 20.921875 13.417969 20.984375 13.855469 20.976562 Z M 14.636719 20.976562 " fill-opacity="1" fill-rule="nonzero"/><path fill="#ffffff" d="M 18.886719 30.191406 C 19.71875 30.101562 20.550781 30.050781 21.386719 29.902344 C 22.699219 29.707031 23.925781 29.261719 25.0625 28.570312 C 26.199219 27.878906 27.15625 26.992188 27.933594 25.910156 C 28.59375 25.054688 28.988281 24.09375 29.125 23.019531 C 29.121094 22.742188 29.09375 22.460938 29.050781 22.1875 C 29.027344 22.042969 29.054688 21.90625 29.132812 21.785156 C 29.238281 21.699219 29.355469 21.683594 29.480469 21.734375 C 29.613281 21.8125 29.6875 21.929688 29.699219 22.085938 C 29.648438 22.566406 29.558594 23.042969 29.433594 23.511719 C 29.261719 24.230469 29.003906 24.914062 28.664062 25.566406 C 28.324219 26.222656 27.910156 26.824219 27.421875 27.375 C 26.9375 27.925781 26.390625 28.410156 25.785156 28.828125 C 25.179688 29.246094 24.53125 29.585938 23.84375 29.84375 C 22.226562 30.453125 20.574219 30.570312 18.886719 30.191406 Z M 18.886719 30.191406 " fill-opacity="1" fill-rule="nonzero"/><path fill="#ffffff" d="M 27.082031 25.640625 C 27.414062 24.953125 27.621094 24.226562 27.703125 23.464844 C 27.785156 22.703125 27.738281 21.949219 27.5625 21.203125 C 27.386719 20.457031 27.089844 19.761719 26.675781 19.117188 C 26.257812 18.472656 25.75 17.917969 25.140625 17.453125 L 25.375 17.542969 C 26.277344 17.953125 27.074219 18.511719 27.773438 19.214844 C 28.355469 19.824219 28.632812 20.550781 28.609375 21.390625 C 28.636719 22.171875 28.519531 22.929688 28.253906 23.664062 C 27.992188 24.398438 27.601562 25.058594 27.082031 25.640625 Z M 27.082031 25.640625 " fill-opacity="1" fill-rule="nonzero"/><g clip-path="url(#54934d8867)"><path fill="#ffffff" d="M 21.078125 6.035156 L 21.476562 6.871094 L 21.476562 6.9375 C 20.789062 6.542969 20.0625 6.238281 19.296875 6.027344 C 18.53125 5.816406 17.75 5.707031 16.957031 5.695312 C 16.164062 5.6875 15.378906 5.777344 14.609375 5.96875 C 13.839844 6.15625 13.101562 6.441406 12.40625 6.820312 L 12.40625 6.722656 C 13.023438 6.4375 13.628906 6.105469 14.269531 5.886719 C 15.613281 5.355469 17 5.15625 18.4375 5.292969 C 18.6875 5.292969 18.929688 5.402344 19.175781 5.402344 C 19.460938 5.394531 19.738281 5.347656 20.011719 5.269531 C 19.585938 5.058594 19.128906 5.117188 18.894531 4.726562 L 20.035156 4.992188 C 19.9375 4.617188 19.769531 4.308594 19.953125 3.90625 C 19.953125 4.066406 20.019531 4.167969 20.035156 4.265625 C 20.105469 4.714844 20.34375 5.035156 20.753906 5.226562 L 21.511719 5.609375 C 21.621094 5.691406 21.726562 5.777344 21.828125 5.871094 C 21.511719 6.253906 21.386719 6.296875 21.078125 6.035156 Z M 20.492188 5.9375 C 20.292969 5.636719 20.136719 5.425781 19.792969 5.519531 C 19.203125 5.675781 19.167969 5.601562 19.09375 5.828125 C 19.535156 5.9375 20.003906 5.5625 20.492188 5.9375 Z M 20.492188 5.9375 " fill-opacity="1" fill-rule="nonzero"/></g><path fill="#ffffff" d="M 12.457031 12.699219 L 12.964844 12.308594 C 13.28125 12.734375 13.589844 13.144531 13.90625 13.601562 C 14.222656 14.0625 14.394531 14.246094 14.65625 14.5625 C 14.738281 14.628906 14.832031 14.65625 14.9375 14.644531 C 15.246094 14.585938 15.546875 14.480469 15.863281 14.421875 C 15.953125 14.421875 16.128906 14.421875 16.164062 14.511719 C 16.300781 14.765625 16.414062 15.03125 16.503906 15.304688 C 16.503906 15.347656 16.421875 15.480469 16.363281 15.488281 C 15.6875 15.574219 14.996094 15.648438 14.3125 15.699219 C 14.199219 15.699219 14.101562 15.660156 14.019531 15.582031 C 13.398438 14.675781 12.878906 13.714844 12.457031 12.699219 Z M 12.457031 12.699219 " fill-opacity="1" fill-rule="nonzero"/><path fill="#ffffff" d="M 21.660156 6.679688 L 22.078125 6.347656 C 22.078125 6.386719 22.152344 6.421875 22.175781 6.472656 C 22.585938 7.304688 23.007812 8.199219 23.382812 9.066406 C 23.441406 9.242188 23.441406 9.417969 23.382812 9.59375 C 23.242188 10.136719 23.058594 10.664062 22.902344 11.1875 C 22.851562 11.355469 22.757812 11.378906 22.625 11.339844 L 22.519531 11.339844 C 21.742188 11.089844 21.683594 10.964844 22.058594 10.261719 C 22.339844 9.835938 22.390625 9.378906 22.21875 8.902344 C 22 8.183594 21.84375 7.429688 21.660156 6.679688 Z M 21.660156 6.679688 " fill-opacity="1" fill-rule="nonzero"/><g clip-path="url(#926f3bdf1a)"><path fill="#ffffff" d="M 13.386719 33.03125 L 16.304688 32.839844 L 16.730469 31.527344 C 17.09375 31.621094 17.429688 31.6875 17.753906 31.796875 C 17.894531 31.847656 17.988281 32.023438 18.128906 32.089844 C 18.5625 32.234375 18.988281 32.40625 19.402344 32.605469 C 20.054688 32.933594 20.746094 33.070312 21.476562 33.007812 C 21.574219 33.007812 21.667969 33.023438 21.761719 33.058594 L 13.429688 33.058594 Z M 13.386719 33.03125 " fill-opacity="1" fill-rule="nonzero"/></g><g clip-path="url(#d1a85616dc)"><path fill="#ffffff" d="M 12.503906 29.835938 L 13.070312 30.492188 C 12.570312 31.289062 11.949219 31.972656 11.207031 32.546875 C 11.003906 32.714844 10.820312 32.90625 10.664062 33.117188 C 10.515625 33.117188 10.53125 32.890625 10.574219 32.738281 C 10.628906 32.480469 10.707031 32.226562 10.8125 31.980469 C 10.882812 31.835938 10.984375 31.714844 11.113281 31.621094 C 11.375 31.460938 11.492188 31.230469 11.464844 30.929688 C 11.457031 30.839844 11.457031 30.75 11.464844 30.660156 C 11.464844 30.191406 11.570312 30.117188 12.039062 30.007812 C 12.199219 29.960938 12.355469 29.90625 12.503906 29.835938 Z M 12.503906 29.835938 " fill-opacity="1" fill-rule="nonzero"/></g><path fill="#ffffff" d="M 18.210938 15.457031 C 17.855469 15.21875 17.480469 15.179688 17.085938 15.339844 L 16.710938 14.144531 C 17.324219 13.8125 17.972656 13.570312 18.652344 13.417969 L 19.128906 13.996094 C 18.929688 14.203125 18.746094 14.425781 18.578125 14.664062 C 18.4375 14.917969 18.3125 15.183594 18.210938 15.457031 Z M 18.210938 15.457031 " fill-opacity="1" fill-rule="nonzero"/><path fill="#ffffff" d="M 11.03125 15.464844 C 10.785156 16.109375 10.71875 16.773438 10.828125 17.457031 C 10.9375 18.140625 11.207031 18.75 11.640625 19.289062 C 12.054688 19.832031 12.582031 20.230469 13.21875 20.476562 C 13.859375 20.726562 14.515625 20.789062 15.1875 20.664062 C 14.832031 20.804688 14.464844 20.878906 14.085938 20.894531 C 13.707031 20.914062 13.332031 20.867188 12.96875 20.757812 C 12.605469 20.648438 12.265625 20.484375 11.957031 20.265625 C 11.644531 20.046875 11.378906 19.78125 11.15625 19.472656 C 10.921875 19.195312 10.742188 18.882812 10.613281 18.542969 C 10.480469 18.203125 10.410156 17.851562 10.398438 17.488281 C 10.390625 17.125 10.4375 16.769531 10.546875 16.421875 C 10.652344 16.078125 10.816406 15.757812 11.03125 15.464844 Z M 11.03125 15.464844 " fill-opacity="1" fill-rule="nonzero"/><path fill="#ffffff" d="M 21.511719 11.40625 L 22.609375 11.890625 L 22.085938 13.835938 C 21.898438 13.578125 21.691406 13.34375 21.460938 13.125 C 21.175781 12.917969 20.875 12.738281 20.558594 12.582031 Z M 21.511719 11.40625 " fill-opacity="1" fill-rule="nonzero"/><path fill="#ffffff" d="M 14.054688 11.289062 L 14.195312 11.40625 L 13.847656 11.40625 C 13.539062 11.40625 13.238281 11.40625 13.078125 11.738281 C 13.054688 11.777344 13.023438 11.808594 12.980469 11.824219 L 12.148438 12.207031 C 12.15625 12.03125 12.191406 11.863281 12.253906 11.699219 C 12.425781 11.4375 12.621094 11.195312 12.839844 10.972656 C 13.09375 10.699219 13.203125 10.375 13.164062 10.003906 C 13.164062 9.878906 13.164062 9.761719 13.164062 9.570312 C 13.378906 9.886719 13.449219 10.234375 13.371094 10.613281 L 14.386719 10.160156 C 14.386719 10.402344 14.386719 10.402344 13.554688 10.796875 L 14.570312 11.214844 L 14.570312 11.265625 Z M 14.054688 11.289062 " fill-opacity="1" fill-rule="nonzero"/><path fill="#ffffff" d="M 28.75 16.199219 C 28.746094 16.390625 28.675781 16.550781 28.539062 16.683594 C 28.402344 16.816406 28.238281 16.882812 28.050781 16.882812 C 27.863281 16.882812 27.707031 16.8125 27.574219 16.683594 C 27.445312 16.550781 27.375 16.394531 27.375 16.207031 C 27.351562 16 27.410156 15.824219 27.546875 15.667969 C 27.683594 15.515625 27.855469 15.4375 28.0625 15.4375 C 28.269531 15.4375 28.441406 15.515625 28.578125 15.667969 C 28.714844 15.824219 28.773438 16 28.75 16.207031 Z M 28.75 16.199219 " fill-opacity="1" fill-rule="nonzero"/><path fill="#ffffff" d="M 19.34375 9.402344 C 19.347656 9.238281 19.308594 9.082031 19.230469 8.9375 C 19.152344 8.792969 19.042969 8.675781 18.902344 8.589844 C 18.761719 8.503906 18.609375 8.457031 18.441406 8.453125 C 18.277344 8.449219 18.121094 8.488281 17.976562 8.566406 C 17.976562 8.398438 18.023438 8.246094 18.125 8.113281 C 18.226562 7.980469 18.355469 7.890625 18.519531 7.847656 C 18.703125 7.796875 18.886719 7.804688 19.066406 7.871094 C 19.25 7.9375 19.394531 8.050781 19.503906 8.207031 C 19.625 8.398438 19.671875 8.609375 19.644531 8.835938 C 19.613281 9.058594 19.515625 9.25 19.34375 9.402344 Z M 19.34375 9.402344 " fill-opacity="1" fill-rule="nonzero"/><path fill="#ffffff" d="M 15.097656 30.609375 L 17.085938 27.898438 C 17.085938 27.945312 17.085938 27.980469 17.085938 27.996094 C 16.570312 28.832031 16.046875 29.667969 15.519531 30.503906 C 15.371094 30.703125 15.363281 30.695312 15.097656 30.609375 Z M 15.097656 30.609375 " fill-opacity="1" fill-rule="nonzero"/><path fill="#ffffff" d="M 29.582031 21.007812 C 29.398438 21.007812 29.28125 20.917969 29.28125 20.714844 C 29.269531 20.628906 29.292969 20.554688 29.359375 20.492188 C 29.421875 20.433594 29.496094 20.410156 29.582031 20.421875 C 29.765625 20.421875 29.890625 20.5 29.90625 20.699219 C 29.921875 20.898438 29.796875 20.984375 29.582031 21.007812 Z M 29.582031 21.007812 " fill-opacity="1" fill-rule="nonzero"/><path fill="#ffffff" d="M 20.234375 12.984375 C 20.339844 13.300781 20.320312 13.609375 20.167969 13.910156 C 20.160156 13.976562 20.125 14.023438 20.0625 14.050781 C 20 14.078125 19.941406 14.074219 19.886719 14.035156 L 20.269531 13.460938 L 20.210938 13.460938 C 19.585938 14.011719 19.585938 14.011719 19.261719 13.683594 C 19.476562 13.664062 19.6875 13.628906 19.894531 13.578125 C 20.011719 13.546875 20.101562 13.484375 20.167969 13.382812 C 20.234375 13.28125 20.257812 13.167969 20.234375 13.050781 Z M 20.234375 12.984375 " fill-opacity="1" fill-rule="nonzero"/><path fill="#ffffff" d="M 16.671875 10.753906 C 16.5 10.515625 16.480469 10.265625 16.613281 10.003906 C 16.726562 10.097656 16.792969 10.21875 16.804688 10.367188 C 16.816406 10.515625 16.769531 10.644531 16.671875 10.753906 Z M 16.671875 10.753906 " fill-opacity="1" fill-rule="nonzero"/><path fill="#ffffff" d="M 16.777344 15.332031 L 16.371094 14.3125 C 16.621094 14.320312 16.863281 14.921875 16.777344 15.332031 Z M 16.777344 15.332031 " fill-opacity="1" fill-rule="nonzero"/><path fill="#ffffff" d="M 17.917969 31.503906 C 17.492188 31.585938 17.125 31.472656 16.820312 31.160156 Z M 17.917969 31.503906 " fill-opacity="1" fill-rule="nonzero"/><path fill="#ffffff" d="M 18.0625 8.734375 C 18.519531 8.65625 18.902344 8.792969 19.210938 9.144531 Z M 18.0625 8.734375 " fill-opacity="1" fill-rule="nonzero"/><path fill="#ffffff" d="M 10.523438 12.375 C 10.605469 12.515625 10.6875 12.601562 10.6875 12.675781 C 10.6875 12.75 10.574219 12.785156 10.507812 12.84375 C 10.449219 12.773438 10.347656 12.707031 10.339844 12.632812 C 10.332031 12.558594 10.421875 12.5 10.523438 12.375 Z M 10.523438 12.375 " fill-opacity="1" fill-rule="nonzero"/><path fill="#ffffff" d="M 21.636719 11.105469 L 22.71875 11.613281 C 22.273438 11.625 21.910156 11.457031 21.636719 11.105469 Z M 21.636719 11.105469 " fill-opacity="1" fill-rule="nonzero"/><path fill="#ffffff" d="M 12.707031 29.566406 L 13.261719 30.210938 C 12.992188 30.070312 12.804688 29.855469 12.707031 29.566406 Z M 12.707031 29.566406 " fill-opacity="1" fill-rule="nonzero"/></svg>