<svg xmlns="http://www.w3.org/2000/svg" xmlns:xlink="http://www.w3.org/1999/xlink" width="70" zoomAndPan="magnify" viewBox="0 0 37.5 37.499999" height="70" preserveAspectRatio="xMidYMid meet" version="1.0"><defs><clipPath id="563c59b63e"><path d="M 3.699219 6.175781 L 33.304688 6.175781 L 33.304688 30.601562 L 3.699219 30.601562 Z M 3.699219 6.175781 " clip-rule="nonzero"/></clipPath></defs><g clip-path="url(#563c59b63e)"><path fill="#ffffff" d="M 5.015625 25.015625 L 5.015625 16.132812 L 4.515625 16.132812 C 4.34375 16.152344 4.195312 16.101562 4.070312 15.984375 C 3.945312 15.867188 3.890625 15.726562 3.898438 15.554688 C 3.898438 15.027344 3.898438 14.496094 3.898438 13.96875 C 3.894531 13.804688 3.949219 13.664062 4.0625 13.546875 C 4.175781 13.429688 4.316406 13.367188 4.480469 13.367188 C 5.359375 13.234375 6.230469 13.089844 7.183594 12.933594 C 7.183594 12.429688 7.183594 11.933594 7.183594 11.4375 C 7.183594 9.960938 7.003906 10.351562 8.152344 9.472656 L 12.261719 6.355469 C 12.488281 6.175781 12.746094 6.128906 13.023438 6.21875 C 17.253906 7.375 21.5 8.539062 25.757812 9.675781 C 26.109375 9.777344 26.464844 9.800781 26.824219 9.742188 C 28.671875 9.433594 30.511719 9.15625 32.351562 8.863281 C 32.820312 8.789062 33.101562 8.992188 33.109375 9.449219 C 33.109375 11.480469 33.109375 13.5 33.109375 15.515625 C 33.109375 15.921875 32.886719 16.117188 32.46875 16.132812 L 32.023438 16.132812 L 32.023438 25.015625 L 32.410156 25.015625 C 32.921875 25.015625 33.109375 25.203125 33.109375 25.722656 C 33.109375 27.109375 33.109375 28.5 33.109375 29.894531 C 33.109375 30.398438 32.910156 30.585938 32.394531 30.585938 L 4.71875 30.585938 C 4.046875 30.585938 3.898438 30.421875 3.898438 29.769531 L 3.898438 25.960938 C 3.898438 25.144531 4.003906 25.046875 4.816406 25.03125 Z M 27.472656 18.390625 L 9.53125 18.390625 L 9.53125 26.886719 C 9.53125 27.035156 9.449219 27.253906 9.730469 27.253906 L 11.183594 27.253906 L 11.183594 25.074219 C 11.144531 25.070312 11.101562 25.070312 11.0625 25.074219 C 10.511719 25.03125 10.238281 24.835938 10.238281 24.480469 C 10.238281 24.121094 10.519531 23.949219 11.0625 23.949219 L 16.8125 23.949219 C 17.261719 23.949219 17.507812 24.128906 17.542969 24.46875 C 17.574219 24.8125 17.335938 25.007812 16.886719 25.074219 L 16.820312 25.121094 L 16.820312 27.261719 L 20.105469 27.261719 L 20.105469 25.039062 C 19.761719 25.039062 19.472656 24.992188 19.339844 24.65625 C 19.210938 24.324219 19.480469 23.917969 20.007812 23.917969 L 26.085938 23.917969 C 26.230469 23.921875 26.351562 23.976562 26.449219 24.078125 C 26.546875 24.179688 26.597656 24.304688 26.59375 24.445312 C 26.609375 24.597656 26.566406 24.730469 26.464844 24.84375 C 26.363281 24.957031 26.238281 25.019531 26.085938 25.023438 L 25.796875 25.023438 L 25.796875 27.199219 L 27.441406 27.199219 Z M 5.054688 14.976562 L 31.949219 14.976562 L 31.949219 10.09375 L 5.054688 14.40625 Z M 6.171875 25.007812 L 8.398438 25.007812 L 8.398438 18.039062 C 8.398438 17.394531 8.5625 17.226562 9.21875 17.226562 L 27.785156 17.226562 C 28.460938 17.226562 28.605469 17.378906 28.605469 18.039062 L 28.605469 25 L 30.824219 25 L 30.824219 16.15625 L 6.179688 16.15625 Z M 23.523438 10.289062 L 23.375 10.246094 C 19.933594 9.269531 16.5 8.324219 13.046875 7.40625 C 12.886719 7.375 12.738281 7.40625 12.605469 7.503906 C 11.234375 8.519531 9.871094 9.554688 8.496094 10.589844 C 8.40625 10.65625 8.292969 10.761719 8.292969 10.839844 C 8.292969 11.46875 8.292969 12.09375 8.292969 12.753906 Z M 15.6875 25.066406 L 12.398438 25.066406 L 12.398438 29.453125 L 15.6875 29.453125 Z M 21.34375 25.066406 L 21.34375 29.460938 L 24.632812 29.460938 L 24.632812 25.066406 Z M 28.617188 26.148438 C 28.617188 27.230469 28.617188 28.273438 28.617188 29.316406 C 28.617188 29.371094 28.761719 29.484375 28.835938 29.484375 C 29.796875 29.484375 30.757812 29.484375 31.722656 29.484375 C 31.8125 29.484375 31.957031 29.332031 31.96875 29.25 C 31.96875 28.296875 31.96875 27.34375 31.96875 26.390625 C 31.929688 26.269531 31.847656 26.191406 31.722656 26.164062 C 30.71875 26.132812 29.707031 26.140625 28.617188 26.140625 Z M 8.367188 29.460938 L 8.367188 26.164062 L 5.082031 26.164062 L 5.082031 29.460938 Z M 16.84375 29.460938 L 20.128906 29.460938 L 20.128906 28.402344 L 16.84375 28.402344 Z M 27.472656 28.378906 L 25.832031 28.378906 L 25.832031 29.445312 L 27.472656 29.445312 Z M 9.550781 28.378906 L 9.550781 29.4375 L 11.191406 29.4375 L 11.191406 28.371094 C 10.730469 28.371094 10.296875 28.371094 9.851562 28.371094 Z M 9.550781 28.378906 " fill-opacity="1" fill-rule="nonzero"/></g><path fill="#ffffff" d="M 25.722656 21.191406 C 25.722656 21.554688 25.722656 21.914062 25.722656 22.273438 C 25.726562 22.542969 25.644531 22.78125 25.46875 22.988281 C 25.292969 23.199219 25.074219 23.324219 24.804688 23.371094 C 23.6875 23.589844 22.867188 23.128906 22.914062 21.953125 C 22.914062 21.394531 22.914062 20.824219 22.914062 20.261719 C 22.914062 19.375 23.414062 18.941406 24.402344 18.949219 C 24.582031 18.929688 24.761719 18.949219 24.933594 19.011719 C 25.105469 19.070312 25.253906 19.164062 25.382812 19.292969 C 25.511719 19.421875 25.605469 19.574219 25.667969 19.742188 C 25.726562 19.914062 25.746094 20.089844 25.722656 20.269531 Z M 24.082031 20.089844 L 24.082031 22.265625 L 24.582031 22.265625 L 24.582031 20.089844 Z M 24.082031 20.089844 " fill-opacity="1" fill-rule="nonzero"/><path fill="#ffffff" d="M 12.441406 22.296875 C 12.800781 22.296875 13.140625 22.296875 13.476562 22.296875 C 13.640625 22.28125 13.785156 22.332031 13.90625 22.441406 C 14.027344 22.550781 14.089844 22.6875 14.09375 22.851562 C 14.089844 23.015625 14.027344 23.152344 13.90625 23.261719 C 13.785156 23.375 13.640625 23.425781 13.476562 23.414062 L 11.914062 23.414062 C 11.480469 23.414062 11.289062 23.191406 11.28125 22.753906 L 11.28125 19.625 C 11.28125 19.152344 11.480469 18.957031 11.941406 18.949219 L 13.460938 18.949219 C 13.621094 18.933594 13.765625 18.980469 13.890625 19.085938 C 14.015625 19.191406 14.082031 19.324219 14.09375 19.488281 C 14.09375 19.660156 14.035156 19.804688 13.90625 19.921875 C 13.78125 20.039062 13.632812 20.089844 13.460938 20.074219 L 12.441406 20.074219 L 12.441406 20.613281 C 12.867188 20.613281 13.425781 20.570312 13.417969 21.191406 C 13.410156 21.808594 12.894531 21.75 12.441406 21.734375 Z M 12.441406 22.296875 " fill-opacity="1" fill-rule="nonzero"/><path fill="#ffffff" d="M 16.621094 19.902344 C 16.753906 19.660156 16.84375 19.464844 16.957031 19.277344 C 17.019531 19.125 17.125 19.023438 17.28125 18.964844 C 17.433594 18.90625 17.582031 18.914062 17.730469 18.988281 C 17.875 19.0625 17.96875 19.175781 18.015625 19.332031 C 18.058594 19.488281 18.039062 19.636719 17.953125 19.773438 C 17.78125 20.148438 17.609375 20.523438 17.402344 20.871094 C 17.257812 21.085938 17.257812 21.300781 17.402344 21.515625 C 17.589844 21.847656 17.765625 22.199219 17.929688 22.542969 C 18.019531 22.6875 18.042969 22.839844 17.992188 23.003906 C 17.941406 23.167969 17.839844 23.285156 17.683594 23.355469 C 17.386719 23.492188 17.105469 23.355469 16.917969 23.03125 L 16.613281 22.460938 L 16.292969 23.054688 C 16.234375 23.207031 16.128906 23.316406 15.972656 23.375 C 15.820312 23.433594 15.667969 23.421875 15.519531 23.347656 C 15.367188 23.273438 15.265625 23.15625 15.21875 22.992188 C 15.171875 22.828125 15.199219 22.675781 15.292969 22.53125 C 15.410156 22.234375 15.558594 21.945312 15.726562 21.667969 C 15.847656 21.515625 15.90625 21.335938 15.90625 21.140625 C 15.90625 20.945312 15.847656 20.769531 15.726562 20.613281 C 15.570312 20.347656 15.429688 20.078125 15.308594 19.796875 C 15.207031 19.660156 15.171875 19.503906 15.214844 19.335938 C 15.253906 19.171875 15.347656 19.046875 15.503906 18.96875 C 15.65625 18.886719 15.816406 18.878906 15.976562 18.945312 C 16.136719 19.007812 16.246094 19.121094 16.300781 19.285156 Z M 16.621094 19.902344 " fill-opacity="1" fill-rule="nonzero"/><path fill="#ffffff" d="M 20.113281 21.769531 C 20.113281 22.109375 20.113281 22.441406 20.113281 22.777344 C 20.144531 22.949219 20.101562 23.101562 19.988281 23.234375 C 19.875 23.367188 19.730469 23.433594 19.554688 23.433594 C 19.378906 23.433594 19.234375 23.367188 19.121094 23.234375 C 19.007812 23.101562 18.964844 22.949219 18.996094 22.777344 C 18.996094 21.691406 18.996094 20.625 18.996094 19.578125 C 18.984375 19.492188 18.996094 19.410156 19.023438 19.328125 C 19.050781 19.246094 19.09375 19.175781 19.15625 19.113281 C 19.214844 19.054688 19.289062 19.007812 19.367188 18.980469 C 19.449219 18.949219 19.535156 18.941406 19.621094 18.949219 L 20.441406 18.949219 C 20.621094 18.960938 20.789062 19 20.949219 19.070312 C 21.113281 19.144531 21.253906 19.242188 21.378906 19.371094 C 21.503906 19.496094 21.597656 19.640625 21.667969 19.800781 C 21.738281 19.964844 21.773438 20.132812 21.777344 20.308594 C 21.78125 20.484375 21.753906 20.65625 21.691406 20.820312 C 21.628906 20.984375 21.542969 21.132812 21.421875 21.265625 C 21.304688 21.394531 21.167969 21.503906 21.011719 21.582031 C 20.851562 21.660156 20.683594 21.710938 20.507812 21.726562 Z M 20.113281 20.683594 C 20.285156 20.632812 20.449219 20.5625 20.605469 20.472656 C 20.648438 20.382812 20.648438 20.292969 20.605469 20.203125 C 20.449219 20.132812 20.285156 20.082031 20.113281 20.050781 Z M 20.113281 20.683594 " fill-opacity="1" fill-rule="nonzero"/></svg>