<svg xmlns="http://www.w3.org/2000/svg" xmlns:xlink="http://www.w3.org/1999/xlink" width="70" zoomAndPan="magnify" viewBox="0 0 37.5 37.499999" height="70" preserveAspectRatio="xMidYMid meet" version="1.0"><defs><clipPath id="74367bf907"><path d="M 6 7.117188 L 33.304688 7.117188 L 33.304688 30 L 6 30 Z M 6 7.117188 " clip-rule="nonzero"/></clipPath><clipPath id="bfabfc5fdb"><path d="M 9 20 L 15 20 L 15 30.0625 L 9 30.0625 Z M 9 20 " clip-rule="nonzero"/></clipPath><clipPath id="977767cba2"><path d="M 3.699219 20 L 10 20 L 10 30.0625 L 3.699219 30.0625 Z M 3.699219 20 " clip-rule="nonzero"/></clipPath></defs><g clip-path="url(#74367bf907)"><path fill="#ffffff" d="M 33.304688 11.296875 C 32.996094 12.671875 32.671875 14.027344 32.371094 15.433594 C 32.363281 15.550781 32.335938 15.660156 32.28125 15.765625 C 32.230469 15.867188 32.160156 15.957031 32.070312 16.027344 C 31.976562 16.101562 31.878906 16.152344 31.765625 16.179688 C 31.652344 16.210938 31.542969 16.214844 31.425781 16.195312 C 30.429688 16.195312 29.433594 16.195312 28.410156 16.195312 L 28.410156 29.027344 C 28.410156 29.9375 28.347656 29.992188 27.464844 29.992188 L 16.796875 29.992188 L 16.722656 29.035156 L 27.414062 29.035156 L 27.414062 16.15625 C 27.414062 15.3125 27.472656 15.25 28.296875 15.25 L 31.40625 15.25 L 32.242188 11.386719 L 24.742188 8.300781 C 24.683594 8.988281 24.476562 9.628906 24.125 10.21875 C 23.769531 10.8125 23.308594 11.296875 22.734375 11.675781 C 21.886719 12.242188 20.953125 12.492188 19.9375 12.4375 C 17.558594 12.324219 16.164062 11.03125 15.492188 8.375 L 8.015625 11.464844 C 8.304688 12.636719 8.582031 13.746094 8.890625 14.917969 C 8.890625 15.03125 9.164062 15.160156 9.304688 15.167969 C 10.273438 15.238281 11.230469 15.28125 12.195312 15.3125 C 12.746094 15.3125 13.019531 15.53125 12.949219 16.125 C 12.949219 16.566406 12.949219 17.015625 12.949219 17.503906 L 12.039062 17.503906 L 12.039062 16.308594 C 11.71875 16.308594 11.464844 16.226562 11.199219 16.21875 C 10.378906 16.171875 9.546875 16.125 8.71875 16.105469 C 8.546875 16.125 8.390625 16.082031 8.253906 15.972656 C 8.117188 15.863281 8.042969 15.722656 8.023438 15.546875 C 7.691406 14.15625 7.34375 12.765625 6.996094 11.371094 C 6.925781 11.214844 6.929688 11.058594 7.003906 10.902344 C 7.078125 10.75 7.199219 10.652344 7.367188 10.613281 C 10.128906 9.472656 12.875 8.332031 15.667969 7.195312 C 15.882812 7.152344 16.101562 7.148438 16.324219 7.183594 L 24.183594 7.183594 C 24.445312 7.1875 24.695312 7.238281 24.9375 7.332031 C 27.503906 8.378906 30.066406 9.429688 32.625 10.492188 C 32.863281 10.617188 33.082031 10.765625 33.285156 10.9375 Z M 16.527344 8.171875 C 16.546875 8.632812 16.652344 9.070312 16.84375 9.488281 C 17.039062 9.90625 17.304688 10.273438 17.644531 10.582031 C 17.984375 10.894531 18.367188 11.125 18.800781 11.277344 C 19.230469 11.433594 19.675781 11.496094 20.132812 11.472656 C 22.132812 11.425781 23.769531 9.90625 23.65625 8.171875 Z M 16.527344 8.171875 " fill-opacity="1" fill-rule="nonzero"/></g><path fill="#ffffff" d="M 16.964844 19.261719 C 16.941406 18.824219 17.007812 18.398438 17.160156 17.992188 C 17.308594 17.582031 17.535156 17.21875 17.835938 16.902344 C 18.132812 16.585938 18.480469 16.339844 18.882812 16.167969 C 19.28125 15.996094 19.695312 15.910156 20.128906 15.910156 C 20.5625 15.910156 20.980469 15.996094 21.378906 16.167969 C 21.777344 16.339844 22.125 16.585938 22.421875 16.902344 C 22.722656 17.21875 22.949219 17.582031 23.097656 17.992188 C 23.25 18.398438 23.316406 18.824219 23.292969 19.261719 C 23.316406 19.695312 23.25 20.121094 23.097656 20.53125 C 22.949219 20.9375 22.722656 21.300781 22.421875 21.617188 C 22.125 21.9375 21.777344 22.179688 21.378906 22.351562 C 20.980469 22.523438 20.5625 22.609375 20.128906 22.609375 C 19.695312 22.609375 19.28125 22.523438 18.882812 22.351562 C 18.480469 22.179688 18.132812 21.9375 17.835938 21.617188 C 17.535156 21.300781 17.308594 20.9375 17.160156 20.53125 C 17.007812 20.121094 16.941406 19.695312 16.964844 19.261719 Z M 20.117188 21.542969 C 20.417969 21.546875 20.707031 21.492188 20.988281 21.382812 C 21.265625 21.269531 21.511719 21.109375 21.726562 20.898438 C 21.945312 20.691406 22.113281 20.445312 22.230469 20.167969 C 22.351562 19.890625 22.414062 19.601562 22.417969 19.296875 C 22.421875 18.996094 22.371094 18.703125 22.261719 18.421875 C 22.148438 18.140625 21.992188 17.890625 21.78125 17.675781 C 21.574219 17.457031 21.332031 17.289062 21.054688 17.167969 C 20.78125 17.046875 20.492188 16.984375 20.191406 16.976562 C 19.886719 16.964844 19.585938 17.015625 19.300781 17.125 C 19.011719 17.234375 18.757812 17.398438 18.535156 17.613281 C 18.3125 17.828125 18.140625 18.078125 18.019531 18.367188 C 17.898438 18.652344 17.839844 18.949219 17.839844 19.261719 C 17.835938 19.566406 17.894531 19.859375 18.007812 20.140625 C 18.125 20.425781 18.289062 20.671875 18.503906 20.890625 C 18.714844 21.105469 18.964844 21.269531 19.242188 21.386719 C 19.523438 21.503906 19.816406 21.558594 20.117188 21.558594 Z M 20.117188 21.542969 " fill-opacity="1" fill-rule="nonzero"/><path fill="#ffffff" d="M 9.042969 17.257812 C 9.363281 17.265625 9.671875 17.328125 9.96875 17.449219 C 10.269531 17.570312 10.53125 17.746094 10.765625 17.96875 C 10.996094 18.191406 11.179688 18.453125 11.316406 18.746094 C 11.449219 19.039062 11.527344 19.347656 11.546875 19.671875 C 11.621094 19.921875 11.683594 20.175781 11.726562 20.429688 C 11.761719 20.710938 11.699219 20.964844 11.53125 21.191406 C 11.292969 21.308594 11.066406 21.289062 10.851562 21.132812 C 10.71875 20.957031 10.664062 20.492188 10.785156 20.371094 C 11.15625 20.035156 11.0625 19.679688 10.980469 19.304688 C 10.929688 19.070312 10.835938 18.851562 10.703125 18.652344 C 10.574219 18.449219 10.410156 18.277344 10.21875 18.136719 C 10.023438 17.992188 9.8125 17.890625 9.582031 17.824219 C 9.351562 17.757812 9.117188 17.738281 8.878906 17.757812 C 8.640625 17.777344 8.414062 17.839844 8.199219 17.941406 C 7.980469 18.046875 7.789062 18.183594 7.625 18.355469 C 7.457031 18.53125 7.324219 18.726562 7.230469 18.949219 C 7.132812 19.167969 7.078125 19.398438 7.066406 19.640625 C 7.066406 19.851562 7.246094 20.058594 7.300781 20.277344 C 7.351562 20.5 7.480469 20.878906 7.367188 21.039062 C 7.164062 21.226562 6.929688 21.285156 6.664062 21.214844 C 6.484375 20.996094 6.394531 20.742188 6.402344 20.453125 C 6.402344 20.203125 6.558594 19.945312 6.566406 19.695312 C 6.578125 19.367188 6.648438 19.058594 6.777344 18.761719 C 6.910156 18.464844 7.089844 18.203125 7.320312 17.976562 C 7.550781 17.75 7.8125 17.574219 8.113281 17.449219 C 8.410156 17.324219 8.71875 17.261719 9.042969 17.257812 Z M 9.042969 17.257812 " fill-opacity="1" fill-rule="nonzero"/><path fill="#ffffff" d="M 20.164062 25.183594 L 18.261719 25.183594 C 17.890625 25.183594 17.574219 25.101562 17.582031 24.660156 C 17.589844 24.21875 17.914062 24.152344 18.277344 24.152344 L 22.085938 24.152344 C 22.433594 24.152344 22.734375 24.265625 22.742188 24.644531 C 22.75 25.027344 22.441406 25.183594 22.070312 25.183594 Z M 20.164062 25.183594 " fill-opacity="1" fill-rule="nonzero"/><path fill="#ffffff" d="M 10.890625 24.476562 C 10.886719 24.714844 10.835938 24.941406 10.742188 25.15625 C 10.648438 25.371094 10.515625 25.5625 10.347656 25.726562 C 10.179688 25.886719 9.984375 26.011719 9.765625 26.097656 C 9.546875 26.183594 9.320312 26.226562 9.085938 26.21875 C 8.851562 26.214844 8.628906 26.164062 8.414062 26.070312 C 8.199219 25.972656 8.011719 25.84375 7.851562 25.671875 C 7.6875 25.5 7.566406 25.304688 7.480469 25.085938 C 7.394531 24.867188 7.355469 24.636719 7.359375 24.402344 C 7.367188 24.167969 7.417969 23.941406 7.507812 23.726562 C 7.601562 23.511719 7.730469 23.324219 7.898438 23.160156 C 8.0625 22.992188 8.253906 22.867188 8.46875 22.777344 C 8.683594 22.6875 8.90625 22.640625 9.140625 22.636719 C 9.378906 22.640625 9.605469 22.6875 9.824219 22.785156 C 10.042969 22.878906 10.234375 23.015625 10.398438 23.1875 C 10.5625 23.359375 10.6875 23.558594 10.773438 23.78125 C 10.859375 24.007812 10.898438 24.238281 10.890625 24.476562 Z M 10.394531 24.425781 C 10.394531 24.257812 10.359375 24.09375 10.296875 23.9375 C 10.234375 23.78125 10.140625 23.644531 10.023438 23.527344 C 9.90625 23.40625 9.769531 23.316406 9.613281 23.25 C 9.460938 23.1875 9.300781 23.15625 9.132812 23.15625 C 8.964844 23.15625 8.804688 23.1875 8.652344 23.25 C 8.496094 23.316406 8.359375 23.40625 8.242188 23.527344 C 8.125 23.644531 8.03125 23.78125 7.96875 23.9375 C 7.90625 24.09375 7.871094 24.257812 7.871094 24.425781 C 7.871094 24.59375 7.90625 24.753906 7.96875 24.910156 C 8.03125 25.066406 8.125 25.203125 8.242188 25.324219 C 8.359375 25.441406 8.496094 25.535156 8.652344 25.597656 C 8.804688 25.664062 8.964844 25.695312 9.132812 25.695312 C 9.300781 25.695312 9.460938 25.664062 9.613281 25.597656 C 9.769531 25.535156 9.90625 25.441406 10.023438 25.324219 C 10.140625 25.203125 10.234375 25.066406 10.296875 24.910156 C 10.359375 24.753906 10.394531 24.59375 10.394531 24.425781 Z M 10.394531 24.425781 " fill-opacity="1" fill-rule="nonzero"/><path fill="#ffffff" d="M 9.15625 27.71875 C 8.792969 27.738281 8.429688 27.738281 8.070312 27.71875 C 7.933594 27.71875 7.820312 27.535156 7.699219 27.4375 C 7.820312 27.34375 7.941406 27.171875 8.070312 27.164062 C 8.769531 27.164062 9.480469 27.164062 10.1875 27.164062 C 10.316406 27.164062 10.429688 27.34375 10.550781 27.4375 C 10.429688 27.535156 10.316406 27.703125 10.1875 27.71875 C 9.84375 27.738281 9.5 27.738281 9.15625 27.71875 Z M 9.15625 27.71875 " fill-opacity="1" fill-rule="nonzero"/><path fill="#ffffff" d="M 9.8125 21.109375 L 8.304688 21.109375 L 8.167969 20.347656 L 9.949219 20.347656 Z M 9.8125 21.109375 " fill-opacity="1" fill-rule="nonzero"/><g clip-path="url(#bfabfc5fdb)"><path fill="#ffffff" d="M 14.472656 28.59375 L 14.472656 28.53125 C 14.277344 26.015625 14.074219 23.496094 13.886719 20.980469 C 13.894531 20.785156 13.828125 20.617188 13.6875 20.480469 C 13.550781 20.34375 13.386719 20.277344 13.191406 20.285156 C 12.941406 20.285156 12.695312 20.285156 12.4375 20.285156 L 12.566406 21.046875 L 13.054688 21.199219 C 13.265625 23.832031 13.480469 26.449219 13.691406 29.085938 L 9.164062 29.085938 L 9.164062 30 L 13.191406 30 C 14.261719 30 14.746094 30.144531 14.472656 28.59375 Z M 14.472656 28.59375 " fill-opacity="1" fill-rule="nonzero"/></g><g clip-path="url(#977767cba2)"><path fill="#ffffff" d="M 3.777344 28.59375 L 3.777344 28.53125 C 3.972656 26.015625 4.175781 23.496094 4.363281 20.980469 C 4.359375 20.785156 4.421875 20.617188 4.5625 20.480469 C 4.699219 20.34375 4.863281 20.277344 5.058594 20.285156 C 5.308594 20.285156 5.558594 20.285156 5.8125 20.285156 L 5.683594 21.046875 L 5.195312 21.199219 C 4.984375 23.832031 4.773438 26.449219 4.5625 29.085938 L 9.125 29.085938 L 9.125 30 L 5.097656 30 C 3.980469 30 3.503906 30.144531 3.777344 28.59375 Z M 3.777344 28.59375 " fill-opacity="1" fill-rule="nonzero"/></g></svg>