<svg xmlns="http://www.w3.org/2000/svg" xmlns:xlink="http://www.w3.org/1999/xlink" width="70" zoomAndPan="magnify" viewBox="0 0 37.5 37.499999" height="70" preserveAspectRatio="xMidYMid meet" version="1.0"><defs><clipPath id="abfbfe1c69"><path d="M 3.699219 15 L 19 15 L 19 31.691406 L 3.699219 31.691406 Z M 3.699219 15 " clip-rule="nonzero"/></clipPath><clipPath id="31a3c24aec"><path d="M 20 11 L 33.304688 11 L 33.304688 27 L 20 27 Z M 20 11 " clip-rule="nonzero"/></clipPath><clipPath id="9c7cd7bfc9"><path d="M 21 5.046875 L 33 5.046875 L 33 9 L 21 9 Z M 21 5.046875 " clip-rule="nonzero"/></clipPath></defs><g clip-path="url(#abfbfe1c69)"><path fill="#ffffff" d="M 14.914062 18.957031 C 15.230469 18.851562 15.554688 18.832031 15.882812 18.890625 C 16.210938 18.949219 16.503906 19.082031 16.761719 19.292969 C 16.972656 19.457031 17.144531 19.65625 17.273438 19.890625 C 17.402344 20.125 17.476562 20.375 17.503906 20.640625 C 17.527344 20.902344 17.5 21.164062 17.417969 21.417969 C 17.335938 21.671875 17.207031 21.898438 17.027344 22.097656 C 16.964844 22.152344 16.925781 22.21875 16.917969 22.300781 C 16.910156 22.382812 16.929688 22.457031 16.984375 22.519531 C 17.382812 23.171875 17.75 23.839844 18.140625 24.492188 C 18.28125 24.695312 18.355469 24.921875 18.363281 25.167969 C 18.371094 25.414062 18.308594 25.644531 18.179688 25.855469 C 18.050781 26.066406 17.871094 26.226562 17.648438 26.335938 C 17.421875 26.445312 17.1875 26.484375 16.941406 26.453125 C 15.496094 26.347656 14.054688 26.390625 12.621094 26.585938 C 12.097656 26.664062 11.574219 26.796875 11.011719 26.917969 C 11.085938 27.050781 11.128906 27.148438 11.183594 27.238281 L 12.957031 30.28125 C 13.207031 30.710938 13.15625 30.894531 12.71875 31.160156 C 12.375 31.421875 11.984375 31.550781 11.550781 31.550781 C 11.117188 31.550781 10.726562 31.421875 10.382812 31.160156 C 10.148438 30.96875 9.960938 30.746094 9.8125 30.484375 C 9.371094 29.753906 8.925781 29.011719 8.542969 28.320312 C 8.082031 28.5 7.613281 28.644531 7.128906 28.75 C 6.796875 28.792969 6.464844 28.78125 6.136719 28.710938 C 5.804688 28.644531 5.496094 28.527344 5.207031 28.355469 C 4.917969 28.183594 4.664062 27.972656 4.449219 27.71875 C 4.230469 27.460938 4.0625 27.179688 3.941406 26.867188 C 3.820312 26.558594 3.753906 26.234375 3.742188 25.902344 C 3.730469 25.570312 3.773438 25.246094 3.875 24.925781 C 3.972656 24.609375 4.121094 24.3125 4.320312 24.042969 C 4.519531 23.777344 4.757812 23.546875 5.035156 23.355469 C 5.726562 22.90625 6.464844 22.539062 7.15625 22.109375 C 7.484375 21.898438 7.78125 21.652344 8.046875 21.367188 C 8.976562 20.335938 9.773438 19.214844 10.445312 18 C 10.71875 17.523438 10.996094 17.050781 11.28125 16.574219 C 11.386719 16.363281 11.539062 16.195312 11.742188 16.070312 C 11.945312 15.945312 12.164062 15.882812 12.402344 15.882812 C 12.640625 15.882812 12.863281 15.945312 13.066406 16.070312 C 13.269531 16.195312 13.421875 16.363281 13.527344 16.574219 C 13.988281 17.355469 14.441406 18.148438 14.914062 18.957031 Z M 11.199219 18.625 C 11.109375 18.78125 11.046875 18.878906 10.988281 18.976562 C 10.320312 20.144531 9.519531 21.21875 8.585938 22.195312 C 8.511719 22.25 8.464844 22.328125 8.457031 22.421875 C 8.445312 22.515625 8.472656 22.597656 8.535156 22.671875 C 9.175781 23.753906 9.796875 24.835938 10.425781 25.917969 L 10.550781 26.082031 C 12.058594 25.621094 13.601562 25.394531 15.179688 25.40625 Z M 9.601562 26.542969 C 9.03125 25.40625 8.390625 24.421875 7.789062 23.410156 C 7.789062 23.355469 7.601562 23.332031 7.546875 23.355469 C 6.855469 23.761719 6.144531 24.140625 5.488281 24.589844 C 4.992188 24.890625 4.734375 25.328125 4.703125 25.898438 C 4.707031 26.054688 4.730469 26.207031 4.773438 26.359375 C 4.8125 26.511719 4.871094 26.652344 4.945312 26.792969 C 5.019531 26.929688 5.113281 27.054688 5.21875 27.171875 C 5.324219 27.285156 5.441406 27.386719 5.570312 27.476562 C 5.703125 27.5625 5.839844 27.636719 5.988281 27.691406 C 6.136719 27.746094 6.285156 27.785156 6.441406 27.804688 C 6.601562 27.824219 6.757812 27.824219 6.914062 27.808594 C 7.070312 27.789062 7.222656 27.753906 7.371094 27.703125 C 8.136719 27.347656 8.882812 26.949219 9.601562 26.507812 Z M 16.789062 25.519531 C 16.964844 25.46875 17.25 25.460938 17.285156 25.363281 C 17.3125 25.171875 17.269531 24.996094 17.160156 24.835938 C 16.273438 23.367188 15.457031 21.90625 14.601562 20.4375 C 14 19.398438 13.394531 18.359375 12.824219 17.320312 C 12.773438 17.234375 12.621094 17.136719 12.550781 17.15625 C 12.449219 17.1875 12.363281 17.242188 12.285156 17.3125 C 12.210938 17.382812 12.152344 17.464844 12.109375 17.5625 C 12.070312 17.65625 12.050781 17.757812 12.054688 17.859375 C 12.054688 17.964844 12.078125 18.0625 12.125 18.15625 C 13.4375 20.445312 14.777344 22.742188 16.140625 25.054688 C 16.273438 25.328125 16.433594 25.53125 16.789062 25.484375 Z M 9.371094 27.800781 C 9.847656 28.625 10.257812 29.425781 10.789062 30.210938 C 10.914062 30.398438 11.082031 30.515625 11.304688 30.5625 C 11.527344 30.609375 11.730469 30.570312 11.917969 30.449219 L 10.140625 27.367188 Z M 15.472656 19.882812 C 15.730469 20.3125 15.953125 20.707031 16.183594 21.097656 L 16.363281 21.367188 C 16.578125 21.050781 16.59375 20.726562 16.40625 20.390625 C 16.328125 20.210938 16.203125 20.070312 16.03125 19.972656 C 15.855469 19.875 15.671875 19.839844 15.472656 19.863281 Z M 15.472656 19.882812 " fill-opacity="1" fill-rule="nonzero"/></g><g clip-path="url(#31a3c24aec)"><path fill="#ffffff" d="M 31.722656 21.5 C 32.105469 22.378906 32.480469 23.261719 32.851562 24.140625 C 32.949219 24.367188 33.03125 24.589844 32.851562 24.808594 C 32.675781 25.027344 32.433594 24.984375 32.1875 24.929688 C 31.804688 24.84375 31.414062 24.78125 31.023438 24.683594 C 30.949219 24.65625 30.871094 24.65625 30.796875 24.6875 C 30.722656 24.71875 30.671875 24.769531 30.640625 24.84375 C 30.425781 25.214844 30.1875 25.566406 29.964844 25.925781 C 29.847656 26.128906 29.691406 26.3125 29.449219 26.242188 C 29.257812 26.167969 29.113281 26.042969 29.015625 25.863281 C 28.675781 25.152344 28.382812 24.421875 28.0625 23.699219 C 27.886719 23.296875 27.476562 23.347656 27.175781 23.296875 C 27.042969 23.269531 26.921875 23.289062 26.804688 23.355469 C 26.6875 23.421875 26.613281 23.519531 26.570312 23.648438 C 26.152344 24.597656 25.683594 25.519531 25.265625 26.460938 C 25.167969 26.664062 25.050781 26.839844 24.792969 26.859375 C 24.546875 26.855469 24.378906 26.742188 24.289062 26.515625 C 24.074219 26.136719 23.84375 25.765625 23.628906 25.390625 C 23.609375 25.328125 23.570312 25.28125 23.507812 25.253906 C 23.449219 25.226562 23.390625 25.226562 23.328125 25.25 L 22.011719 25.40625 C 21.777344 25.488281 21.578125 25.441406 21.410156 25.257812 C 21.265625 25.054688 21.265625 24.851562 21.410156 24.648438 L 22.839844 21.597656 L 22.546875 21.457031 C 22.199219 21.332031 21.933594 21.109375 21.746094 20.796875 C 21.558594 20.484375 21.496094 20.144531 21.550781 19.785156 C 21.683594 18.996094 21.546875 18.253906 21.140625 17.558594 C 20.984375 17.253906 20.933594 16.929688 20.996094 16.589844 C 21.058594 16.25 21.214844 15.964844 21.472656 15.730469 L 21.542969 15.667969 C 22.136719 15.226562 22.484375 14.636719 22.582031 13.910156 C 22.652344 13.523438 22.839844 13.207031 23.148438 12.957031 C 23.453125 12.707031 23.804688 12.585938 24.199219 12.589844 C 24.339844 12.589844 24.492188 12.589844 24.644531 12.589844 C 25.046875 12.597656 25.402344 12.472656 25.710938 12.210938 C 25.882812 11.996094 26.097656 11.832031 26.347656 11.710938 C 26.601562 11.59375 26.867188 11.535156 27.144531 11.535156 C 27.421875 11.535156 27.6875 11.59375 27.9375 11.710938 C 28.191406 11.832031 28.402344 11.996094 28.578125 12.210938 C 28.894531 12.472656 29.261719 12.601562 29.671875 12.597656 C 29.910156 12.59375 30.148438 12.609375 30.382812 12.652344 C 30.699219 12.703125 30.976562 12.835938 31.214844 13.050781 C 31.453125 13.265625 31.609375 13.527344 31.6875 13.839844 L 31.6875 13.953125 C 31.769531 14.660156 32.097656 15.230469 32.675781 15.660156 C 32.828125 15.777344 32.953125 15.921875 33.054688 16.085938 C 33.152344 16.25 33.222656 16.425781 33.257812 16.617188 C 33.292969 16.804688 33.296875 16.996094 33.261719 17.183594 C 33.230469 17.375 33.164062 17.550781 33.066406 17.71875 C 33.039062 17.773438 33.011719 17.824219 32.976562 17.875 C 32.65625 18.347656 32.550781 18.859375 32.667969 19.414062 C 32.726562 19.617188 32.75 19.820312 32.734375 20.03125 C 32.71875 20.238281 32.667969 20.4375 32.582031 20.628906 C 32.496094 20.820312 32.378906 20.992188 32.230469 21.140625 C 32.085938 21.289062 31.914062 21.410156 31.722656 21.5 Z M 22.492188 19.863281 C 22.460938 20.050781 22.5 20.222656 22.609375 20.375 C 22.722656 20.53125 22.871094 20.625 23.0625 20.65625 C 23.84375 20.890625 24.433594 21.363281 24.839844 22.0625 C 25.203125 22.6875 25.398438 22.75 26.082031 22.511719 C 26.78125 22.253906 27.480469 22.253906 28.179688 22.511719 C 28.917969 22.765625 29.066406 22.707031 29.46875 22.046875 C 29.824219 21.40625 30.355469 20.96875 31.058594 20.742188 L 31.324219 20.621094 C 31.496094 20.5625 31.625 20.453125 31.714844 20.292969 C 31.800781 20.136719 31.820312 19.96875 31.777344 19.792969 C 31.5625 18.949219 31.679688 18.148438 32.132812 17.402344 C 32.445312 16.898438 32.390625 16.644531 31.9375 16.265625 C 31.28125 15.757812 30.890625 15.09375 30.765625 14.277344 C 30.667969 13.699219 30.453125 13.53125 29.875 13.539062 C 29.097656 13.5625 28.414062 13.328125 27.824219 12.828125 C 27.246094 12.351562 27.050781 12.351562 26.472656 12.828125 C 25.894531 13.308594 25.230469 13.546875 24.472656 13.539062 C 23.78125 13.539062 23.585938 13.671875 23.46875 14.355469 C 23.371094 15.105469 23.019531 15.710938 22.421875 16.179688 C 22.34375 16.242188 22.269531 16.308594 22.199219 16.378906 C 22.0625 16.488281 21.984375 16.625 21.957031 16.792969 C 21.929688 16.960938 21.960938 17.117188 22.058594 17.261719 C 22.574219 18.03125 22.726562 18.867188 22.511719 19.765625 C 22.511719 19.765625 22.5 19.835938 22.492188 19.863281 Z M 25.496094 23.59375 C 24.5 23.59375 24.136719 22.800781 23.675781 22.109375 L 22.625 24.351562 L 23.515625 24.203125 C 23.914062 24.140625 24.019531 24.203125 24.234375 24.554688 L 24.6875 25.308594 Z M 30.828125 21.835938 C 30.230469 22.441406 30.027344 23.355469 29.050781 23.53125 L 29.546875 24.675781 L 29.992188 23.964844 C 30.242188 23.566406 30.363281 23.523438 30.828125 23.621094 L 31.644531 23.777344 Z M 30.828125 21.835938 " fill-opacity="1" fill-rule="nonzero"/></g><g clip-path="url(#9c7cd7bfc9)"><path fill="#ffffff" d="M 27.121094 5.171875 C 28.125 5.175781 29.085938 5.378906 30.007812 5.78125 C 30.925781 6.183594 31.722656 6.753906 32.398438 7.488281 C 32.515625 7.578125 32.578125 7.695312 32.589844 7.839844 C 32.601562 7.984375 32.554688 8.109375 32.453125 8.214844 C 32.238281 8.417969 31.957031 8.390625 31.699219 8.128906 C 31.414062 7.816406 31.097656 7.539062 30.757812 7.292969 C 30.414062 7.046875 30.046875 6.835938 29.664062 6.664062 C 29.277344 6.492188 28.875 6.363281 28.460938 6.273438 C 28.046875 6.183594 27.628906 6.136719 27.207031 6.128906 C 26.78125 6.125 26.363281 6.164062 25.945312 6.246094 C 25.53125 6.328125 25.128906 6.449219 24.738281 6.613281 C 24.347656 6.777344 23.976562 6.976562 23.628906 7.214844 C 23.28125 7.457031 22.960938 7.726562 22.671875 8.03125 C 22.324219 8.375 22.066406 8.4375 21.835938 8.226562 C 21.605469 8.015625 21.621094 7.734375 21.984375 7.34375 C 22.65625 6.652344 23.4375 6.117188 24.328125 5.738281 C 25.222656 5.363281 26.152344 5.171875 27.121094 5.171875 Z M 27.121094 5.171875 " fill-opacity="1" fill-rule="nonzero"/></g><path fill="#ffffff" d="M 27.148438 7.320312 C 27.882812 7.328125 28.585938 7.480469 29.257812 7.777344 C 29.929688 8.074219 30.515625 8.488281 31.011719 9.027344 C 31.121094 9.121094 31.175781 9.238281 31.175781 9.382812 C 31.175781 9.523438 31.121094 9.644531 31.011719 9.738281 C 30.910156 9.8125 30.796875 9.84375 30.671875 9.832031 C 30.542969 9.816406 30.441406 9.761719 30.355469 9.667969 C 29.957031 9.238281 29.492188 8.898438 28.953125 8.660156 C 28.417969 8.417969 27.855469 8.289062 27.265625 8.277344 C 26.664062 8.257812 26.082031 8.363281 25.527344 8.589844 C 24.96875 8.8125 24.480469 9.140625 24.066406 9.570312 C 24 9.65625 23.921875 9.730469 23.835938 9.792969 C 23.742188 9.855469 23.640625 9.882812 23.527344 9.875 C 23.417969 9.867188 23.320312 9.824219 23.238281 9.746094 C 23.15625 9.667969 23.109375 9.574219 23.097656 9.464844 C 23.082031 9.355469 23.109375 9.25 23.167969 9.15625 C 23.1875 9.105469 23.214844 9.054688 23.246094 9.007812 C 23.75 8.46875 24.339844 8.050781 25.019531 7.757812 C 25.699219 7.464844 26.40625 7.316406 27.148438 7.320312 Z M 27.148438 7.320312 " fill-opacity="1" fill-rule="nonzero"/><path fill="#ffffff" d="M 29.839844 10.953125 C 29.734375 11.085938 29.664062 11.261719 29.53125 11.320312 C 29.371094 11.375 29.214844 11.375 29.058594 11.320312 C 28.96875 11.320312 28.898438 11.191406 28.820312 11.121094 C 28.59375 10.90625 28.339844 10.742188 28.050781 10.625 C 27.761719 10.511719 27.460938 10.453125 27.148438 10.453125 C 26.835938 10.453125 26.535156 10.511719 26.246094 10.625 C 25.960938 10.742188 25.703125 10.90625 25.476562 11.121094 L 25.328125 11.269531 C 25.230469 11.363281 25.117188 11.410156 24.980469 11.410156 C 24.84375 11.410156 24.730469 11.363281 24.632812 11.269531 C 24.53125 11.175781 24.480469 11.0625 24.480469 10.925781 C 24.480469 10.789062 24.53125 10.675781 24.632812 10.582031 C 24.792969 10.410156 24.964844 10.253906 25.15625 10.121094 C 25.347656 9.984375 25.550781 9.867188 25.765625 9.773438 C 25.980469 9.679688 26.203125 9.605469 26.433594 9.558594 C 26.664062 9.511719 26.894531 9.484375 27.128906 9.484375 C 27.367188 9.484375 27.597656 9.511719 27.828125 9.558594 C 28.058594 9.605469 28.28125 9.679688 28.496094 9.773438 C 28.710938 9.867188 28.914062 9.984375 29.105469 10.121094 C 29.296875 10.253906 29.46875 10.410156 29.628906 10.582031 C 29.707031 10.703125 29.777344 10.824219 29.839844 10.953125 Z M 29.839844 10.953125 " fill-opacity="1" fill-rule="nonzero"/><path fill="#ffffff" d="M 16.699219 15.886719 C 16.855469 15.882812 16.980469 15.941406 17.078125 16.058594 C 17.175781 16.175781 17.210938 16.308594 17.179688 16.460938 C 17.097656 16.808594 17 17.152344 16.886719 17.488281 C 16.855469 17.609375 16.785156 17.699219 16.675781 17.761719 C 16.570312 17.824219 16.457031 17.84375 16.335938 17.816406 C 16.207031 17.785156 16.109375 17.71875 16.042969 17.605469 C 15.972656 17.496094 15.957031 17.378906 15.988281 17.25 C 16.0625 16.898438 16.15625 16.550781 16.265625 16.203125 C 16.328125 15.988281 16.472656 15.882812 16.699219 15.886719 Z M 16.699219 15.886719 " fill-opacity="1" fill-rule="nonzero"/><path fill="#ffffff" d="M 19.996094 18.640625 C 19.941406 18.753906 19.867188 18.847656 19.773438 18.933594 C 19.488281 19.128906 19.191406 19.308594 18.886719 19.46875 C 18.769531 19.53125 18.652344 19.546875 18.527344 19.511719 C 18.398438 19.476562 18.304688 19.402344 18.242188 19.289062 C 18.175781 19.175781 18.164062 19.054688 18.199219 18.933594 C 18.234375 18.808594 18.308594 18.714844 18.421875 18.648438 C 18.726562 18.464844 19.027344 18.289062 19.3125 18.132812 C 19.597656 17.972656 20.003906 18.191406 19.996094 18.640625 Z M 19.996094 18.640625 " fill-opacity="1" fill-rule="nonzero"/><path fill="#ffffff" d="M 19.792969 22.519531 C 19.460938 22.433594 19.082031 22.34375 18.707031 22.214844 C 18.59375 22.171875 18.511719 22.097656 18.457031 21.992188 C 18.402344 21.890625 18.390625 21.777344 18.421875 21.664062 C 18.453125 21.550781 18.519531 21.460938 18.621094 21.398438 C 18.71875 21.335938 18.828125 21.3125 18.949219 21.332031 C 19.335938 21.410156 19.71875 21.511719 20.09375 21.640625 C 20.210938 21.679688 20.292969 21.75 20.347656 21.863281 C 20.398438 21.972656 20.398438 22.082031 20.351562 22.195312 C 20.289062 22.441406 20.101562 22.53125 19.792969 22.519531 Z M 19.792969 22.519531 " fill-opacity="1" fill-rule="nonzero"/><path fill="#ffffff" d="M 23.300781 17.664062 C 23.289062 17.160156 23.375 16.675781 23.554688 16.207031 C 23.738281 15.734375 24.003906 15.316406 24.355469 14.953125 C 24.703125 14.589844 25.113281 14.304688 25.578125 14.097656 C 26.042969 13.894531 26.527344 13.785156 27.035156 13.769531 C 27.542969 13.757812 28.035156 13.839844 28.511719 14.019531 C 28.984375 14.199219 29.40625 14.464844 29.777344 14.808594 C 30.144531 15.15625 30.433594 15.558594 30.640625 16.015625 C 30.847656 16.476562 30.960938 16.957031 30.976562 17.460938 C 30.988281 17.964844 30.90625 18.453125 30.726562 18.921875 C 30.546875 19.390625 30.28125 19.808594 29.929688 20.175781 C 29.582031 20.542969 29.175781 20.828125 28.710938 21.035156 C 28.25 21.242188 27.761719 21.351562 27.253906 21.367188 C 26.746094 21.378906 26.253906 21.296875 25.777344 21.113281 C 25.300781 20.933594 24.878906 20.667969 24.507812 20.324219 C 24.136719 19.976562 23.847656 19.574219 23.640625 19.113281 C 23.429688 18.652344 23.316406 18.167969 23.300781 17.664062 Z M 24.277344 17.566406 C 24.277344 17.945312 24.347656 18.304688 24.492188 18.652344 C 24.636719 19 24.84375 19.308594 25.109375 19.574219 C 25.378906 19.839844 25.6875 20.046875 26.035156 20.191406 C 26.386719 20.335938 26.75 20.410156 27.128906 20.410156 C 27.511719 20.414062 27.882812 20.34375 28.238281 20.203125 C 28.59375 20.058594 28.90625 19.855469 29.179688 19.589844 C 29.449219 19.324219 29.660156 19.015625 29.808594 18.667969 C 29.957031 18.316406 30.035156 17.953125 30.035156 17.574219 C 30.039062 17.195312 29.964844 16.832031 29.820312 16.480469 C 29.675781 16.128906 29.46875 15.820312 29.199219 15.550781 C 28.929688 15.28125 28.617188 15.074219 28.265625 14.929688 C 27.910156 14.78125 27.542969 14.710938 27.160156 14.710938 C 26.777344 14.707031 26.410156 14.78125 26.054688 14.925781 C 25.703125 15.070312 25.390625 15.277344 25.121094 15.546875 C 24.847656 15.8125 24.640625 16.125 24.496094 16.472656 C 24.351562 16.824219 24.277344 17.1875 24.277344 17.566406 Z M 24.277344 17.566406 " fill-opacity="1" fill-rule="nonzero"/></svg>