<svg xmlns="http://www.w3.org/2000/svg" xmlns:xlink="http://www.w3.org/1999/xlink" width="70" zoomAndPan="magnify" viewBox="0 0 37.5 37.499999" height="70" preserveAspectRatio="xMidYMid meet" version="1.0"><defs><clipPath id="d6e74558e5"><path d="M 6 3.699219 L 33.304688 3.699219 L 33.304688 31 L 6 31 Z M 6 3.699219 " clip-rule="nonzero"/></clipPath><clipPath id="41295e11d7"><path d="M 3.699219 17 L 20 17 L 20 33.304688 L 3.699219 33.304688 Z M 3.699219 17 " clip-rule="nonzero"/></clipPath></defs><g clip-path="url(#d6e74558e5)"><path fill="#ffffff" d="M 16.285156 11.878906 C 16.046875 12.234375 15.769531 12.558594 15.460938 12.851562 C 15 13.273438 14.480469 13.597656 13.902344 13.824219 C 13.730469 13.886719 13.597656 13.992188 13.503906 14.144531 C 13.183594 14.621094 12.84375 15.117188 12.53125 15.554688 C 12.21875 15.992188 11.957031 15.984375 11.667969 15.554688 L 10.695312 14.105469 C 10.613281 13.976562 10.5 13.882812 10.351562 13.835938 C 9.960938 13.695312 9.59375 13.507812 9.246094 13.277344 C 8.902344 13.042969 8.585938 12.773438 8.308594 12.464844 C 8.027344 12.15625 7.789062 11.820312 7.59375 11.453125 C 7.394531 11.085938 7.246094 10.703125 7.144531 10.300781 C 7.039062 9.894531 6.988281 9.484375 6.984375 9.070312 C 6.984375 8.652344 7.03125 8.242188 7.128906 7.839844 C 7.226562 7.433594 7.371094 7.046875 7.566406 6.679688 C 7.757812 6.308594 7.992188 5.96875 8.269531 5.65625 C 8.546875 5.347656 8.855469 5.074219 9.199219 4.835938 C 9.542969 4.601562 9.910156 4.410156 10.296875 4.265625 C 10.6875 4.121094 11.089844 4.023438 11.503906 3.976562 C 11.917969 3.929688 12.332031 3.933594 12.742188 3.988281 C 13.15625 4.042969 13.554688 4.144531 13.945312 4.296875 C 14.332031 4.449219 14.695312 4.644531 15.035156 4.886719 C 15.375 5.128906 15.679688 5.40625 15.949219 5.722656 C 16.21875 6.039062 16.449219 6.382812 16.636719 6.753906 C 16.664062 6.839844 16.707031 6.914062 16.773438 6.976562 C 17.117188 6.476562 17.535156 6.050781 18.03125 5.699219 C 18.527344 5.347656 19.066406 5.09375 19.652344 4.933594 C 20.238281 4.777344 20.835938 4.726562 21.441406 4.777344 C 22.042969 4.832031 22.621094 4.992188 23.171875 5.25 C 23.71875 5.511719 24.207031 5.859375 24.632812 6.292969 C 25.054688 6.726562 25.394531 7.21875 25.640625 7.773438 C 25.890625 8.328125 26.035156 8.90625 26.078125 9.511719 C 26.121094 10.117188 26.054688 10.714844 25.886719 11.296875 C 28.726562 10.769531 30.882812 11.667969 32.089844 14.378906 C 32.304688 14.914062 32.421875 15.472656 32.445312 16.046875 C 32.46875 16.625 32.394531 17.1875 32.226562 17.738281 C 32.058594 18.292969 31.800781 18.800781 31.460938 19.265625 C 31.117188 19.730469 30.710938 20.125 30.234375 20.449219 C 30.78125 20.6875 31.269531 21.011719 31.699219 21.421875 C 32.054688 21.742188 32.355469 22.105469 32.601562 22.515625 C 32.847656 22.925781 33.03125 23.359375 33.152344 23.820312 C 33.273438 24.285156 33.324219 24.753906 33.308594 25.230469 C 33.289062 25.707031 33.207031 26.171875 33.054688 26.625 C 32.925781 27.085938 32.738281 27.523438 32.484375 27.929688 C 32.226562 28.335938 31.917969 28.699219 31.558594 29.015625 C 31.195312 29.332031 30.796875 29.585938 30.359375 29.785156 C 29.921875 29.984375 29.464844 30.113281 28.988281 30.175781 C 28.394531 30.269531 27.804688 30.261719 27.214844 30.148438 C 26.625 30.03125 26.074219 29.820312 25.5625 29.507812 C 25.046875 29.199219 24.605469 28.808594 24.230469 28.339844 C 23.855469 27.871094 23.574219 27.351562 23.386719 26.78125 C 23.347656 26.628906 23.257812 26.515625 23.121094 26.441406 C 22.644531 26.15625 22.152344 25.867188 21.722656 25.574219 C 21.292969 25.28125 21.3125 24.992188 21.722656 24.738281 L 23.152344 23.824219 C 23.257812 23.769531 23.332031 23.683594 23.367188 23.570312 C 23.703125 22.507812 24.324219 21.652344 25.234375 21.003906 L 25.339844 20.914062 L 24.824219 20.644531 C 24.40625 20.40625 24.03125 20.113281 23.695312 19.769531 C 23.609375 19.660156 23.496094 19.609375 23.355469 19.621094 L 21.101562 19.621094 C 20.882812 19.652344 20.71875 19.570312 20.613281 19.378906 C 20.523438 19.1875 20.550781 19.015625 20.703125 18.863281 L 22.179688 16.839844 C 22.265625 16.742188 22.300781 16.628906 22.296875 16.5 C 22.269531 15.964844 22.324219 15.441406 22.460938 14.925781 C 22.519531 14.730469 22.460938 14.738281 22.304688 14.777344 C 21.800781 14.921875 21.285156 14.976562 20.757812 14.945312 C 20.625 14.9375 20.503906 14.980469 20.398438 15.070312 C 19.738281 15.546875 19.066406 16.042969 18.453125 16.488281 C 18.292969 16.660156 18.105469 16.695312 17.890625 16.597656 C 17.695312 16.472656 17.617188 16.300781 17.65625 16.070312 C 17.65625 15.34375 17.65625 14.601562 17.65625 13.875 C 17.675781 13.753906 17.644531 13.652344 17.558594 13.5625 C 17.046875 13.109375 16.640625 12.574219 16.34375 11.957031 C 16.34375 11.957031 16.34375 11.917969 16.285156 11.878906 Z M 18.445312 15.402344 L 20.089844 14.222656 C 20.242188 14.105469 20.410156 14.054688 20.605469 14.078125 C 21.394531 14.152344 22.144531 14.003906 22.851562 13.640625 C 22.972656 13.609375 23.074219 13.542969 23.152344 13.445312 C 23.535156 12.847656 24.023438 12.359375 24.621094 11.976562 C 24.710938 11.902344 24.773438 11.808594 24.804688 11.695312 C 24.984375 11.339844 25.109375 10.96875 25.183594 10.578125 C 25.253906 10.1875 25.269531 9.796875 25.226562 9.402344 C 25.183594 9.007812 25.085938 8.628906 24.933594 8.261719 C 24.78125 7.894531 24.578125 7.558594 24.328125 7.25 C 24.09375 6.925781 23.820312 6.640625 23.5 6.402344 C 23.183594 6.160156 22.835938 5.96875 22.460938 5.832031 C 22.085938 5.691406 21.699219 5.613281 21.296875 5.589844 C 20.898438 5.570312 20.503906 5.609375 20.117188 5.703125 C 19.726562 5.769531 19.351562 5.890625 18.996094 6.070312 C 18.644531 6.246094 18.320312 6.472656 18.035156 6.746094 C 17.746094 7.019531 17.503906 7.332031 17.308594 7.675781 C 17.113281 8.023438 16.972656 8.390625 16.890625 8.777344 C 16.777344 9.15625 16.726562 9.546875 16.730469 9.941406 C 16.730469 10.335938 16.792969 10.722656 16.90625 11.101562 C 17.023438 11.480469 17.191406 11.832031 17.410156 12.164062 C 17.628906 12.492188 17.886719 12.785156 18.191406 13.039062 C 18.375 13.191406 18.457031 13.382812 18.445312 13.621094 C 18.433594 14.195312 18.445312 14.757812 18.445312 15.402344 Z M 30.746094 28.5 L 30.894531 28.402344 C 31.148438 28.191406 31.375 27.949219 31.570312 27.683594 C 31.769531 27.417969 31.933594 27.132812 32.0625 26.828125 C 32.191406 26.523438 32.285156 26.207031 32.34375 25.878906 C 32.398438 25.554688 32.417969 25.226562 32.398438 24.894531 C 32.375 24.5625 32.316406 24.238281 32.21875 23.921875 C 32.125 23.605469 31.992188 23.304688 31.824219 23.015625 C 31.65625 22.730469 31.457031 22.46875 31.230469 22.230469 C 31 21.988281 30.746094 21.777344 30.46875 21.597656 C 30.191406 21.417969 29.894531 21.273438 29.582031 21.164062 C 29.269531 21.050781 28.949219 20.976562 28.617188 20.941406 C 28.289062 20.90625 27.960938 20.910156 27.632812 20.953125 C 27.300781 20.992188 26.984375 21.074219 26.671875 21.191406 C 26.363281 21.304688 26.070312 21.457031 25.792969 21.644531 C 25.519531 21.828125 25.269531 22.042969 25.046875 22.285156 C 24.820312 22.53125 24.628906 22.796875 24.464844 23.085938 C 24.304688 23.375 24.175781 23.679688 24.085938 24 C 24.039062 24.1875 23.933594 24.328125 23.765625 24.425781 C 23.433594 24.621094 23.113281 24.835938 22.792969 25.019531 C 22.636719 25.117188 22.644531 25.164062 22.792969 25.253906 C 23.09375 25.429688 23.386719 25.632812 23.695312 25.796875 C 23.910156 25.898438 24.050781 26.0625 24.125 26.285156 C 24.265625 26.804688 24.5 27.273438 24.835938 27.695312 C 25.058594 27.996094 25.324219 28.25 25.632812 28.460938 C 25.632812 28.054688 25.632812 27.703125 25.632812 27.355469 C 25.609375 26.902344 25.703125 26.472656 25.910156 26.070312 C 26.117188 25.667969 26.410156 25.34375 26.789062 25.097656 C 26.917969 25.011719 26.925781 24.953125 26.789062 24.835938 C 26.566406 24.546875 26.453125 24.222656 26.449219 23.863281 C 26.445312 23.726562 26.453125 23.597656 26.480469 23.464844 C 26.503906 23.332031 26.546875 23.207031 26.601562 23.085938 C 26.65625 22.964844 26.726562 22.851562 26.808594 22.746094 C 26.890625 22.640625 26.984375 22.546875 27.089844 22.460938 C 27.195312 22.378906 27.308594 22.308594 27.429688 22.253906 C 27.550781 22.199219 27.679688 22.15625 27.808594 22.128906 C 27.941406 22.105469 28.074219 22.09375 28.207031 22.097656 C 28.339844 22.105469 28.472656 22.125 28.601562 22.160156 C 28.730469 22.199219 28.851562 22.25 28.96875 22.316406 C 29.085938 22.378906 29.191406 22.457031 29.292969 22.550781 C 29.390625 22.640625 29.476562 22.742188 29.550781 22.851562 C 29.625 22.964844 29.683594 23.082031 29.730469 23.210938 C 29.777344 23.335938 29.804688 23.464844 29.820312 23.597656 C 29.835938 23.730469 29.835938 23.863281 29.820312 23.996094 C 29.804688 24.128906 29.773438 24.257812 29.726562 24.382812 C 29.679688 24.507812 29.617188 24.625 29.542969 24.738281 C 29.472656 24.84375 29.335938 24.921875 29.542969 25.066406 C 29.917969 25.308594 30.210938 25.628906 30.417969 26.027344 C 30.621094 26.425781 30.710938 26.847656 30.691406 27.296875 Z M 21.808594 18.777344 C 22.433594 18.777344 22.976562 18.777344 23.53125 18.777344 C 23.8125 18.757812 24.042969 18.855469 24.222656 19.078125 C 24.75 19.679688 25.398438 20.09375 26.167969 20.320312 C 26.304688 20.367188 26.441406 20.367188 26.574219 20.320312 C 27.28125 20.078125 28.003906 20.007812 28.746094 20.109375 C 28.914062 20.136719 29.078125 20.109375 29.230469 20.03125 C 29.695312 19.804688 30.101562 19.507812 30.457031 19.136719 C 30.8125 18.761719 31.089844 18.339844 31.289062 17.867188 C 31.492188 17.390625 31.601562 16.898438 31.621094 16.382812 C 31.644531 15.871094 31.574219 15.367188 31.410156 14.878906 C 31.25 14.390625 31.007812 13.945312 30.683594 13.546875 C 30.359375 13.148438 29.976562 12.816406 29.53125 12.554688 C 29.089844 12.296875 28.613281 12.121094 28.105469 12.035156 C 27.597656 11.945312 27.09375 11.949219 26.589844 12.046875 C 26.082031 12.144531 25.609375 12.328125 25.171875 12.59375 C 24.734375 12.863281 24.355469 13.203125 24.039062 13.609375 C 23.722656 14.011719 23.488281 14.460938 23.335938 14.953125 C 23.183594 15.445312 23.121094 15.945312 23.152344 16.460938 C 23.1875 16.769531 23.109375 17.046875 22.910156 17.289062 C 22.53125 17.753906 22.179688 18.242188 21.808594 18.777344 Z M 12.046875 4.769531 C 11.777344 4.777344 11.515625 4.816406 11.257812 4.886719 C 10.796875 4.976562 10.363281 5.140625 9.957031 5.371094 C 9.550781 5.605469 9.191406 5.898438 8.882812 6.25 C 8.574219 6.605469 8.328125 6.996094 8.152344 7.429688 C 7.972656 7.863281 7.867188 8.316406 7.835938 8.78125 C 7.808594 9.25 7.855469 9.710938 7.980469 10.164062 C 8.101562 10.617188 8.292969 11.035156 8.558594 11.425781 C 8.820312 11.8125 9.140625 12.148438 9.511719 12.433594 C 9.886719 12.714844 10.296875 12.929688 10.742188 13.078125 C 10.933594 13.136719 11.085938 13.25 11.199219 13.417969 L 11.9375 14.488281 C 12.035156 14.632812 12.105469 14.660156 12.210938 14.488281 C 12.453125 14.125 12.714844 13.777344 12.949219 13.417969 C 13.0625 13.230469 13.21875 13.101562 13.425781 13.027344 C 14.53125 12.65625 15.347656 11.949219 15.867188 10.90625 C 15.945312 10.785156 15.96875 10.652344 15.945312 10.507812 C 15.832031 9.730469 15.90625 8.972656 16.167969 8.234375 C 16.199219 8.132812 16.199219 8.03125 16.167969 7.929688 C 16.046875 7.476562 15.855469 7.054688 15.597656 6.664062 C 15.335938 6.273438 15.019531 5.933594 14.644531 5.648438 C 14.273438 5.363281 13.863281 5.144531 13.417969 4.996094 C 12.972656 4.84375 12.515625 4.769531 12.046875 4.769531 Z M 26.507812 27.925781 L 26.507812 28.839844 C 26.480469 28.980469 26.535156 29.066406 26.671875 29.09375 C 27.691406 29.488281 28.707031 29.488281 29.726562 29.09375 C 29.859375 29.0625 29.917969 28.976562 29.902344 28.839844 C 29.902344 28.289062 29.902344 27.734375 29.902344 27.167969 C 29.894531 26.964844 29.847656 26.765625 29.765625 26.578125 C 29.6875 26.386719 29.574219 26.21875 29.433594 26.070312 C 29.289062 25.921875 29.125 25.800781 28.941406 25.714844 C 28.753906 25.625 28.558594 25.570312 28.351562 25.554688 C 28.148438 25.535156 27.945312 25.554688 27.75 25.613281 C 27.550781 25.667969 27.367188 25.757812 27.203125 25.882812 C 27.039062 26.003906 26.898438 26.152344 26.789062 26.324219 C 26.675781 26.5 26.597656 26.683594 26.554688 26.886719 C 26.511719 27.234375 26.496094 27.578125 26.507812 27.925781 Z M 27.355469 23.84375 C 27.347656 24.078125 27.425781 24.277344 27.585938 24.445312 C 27.75 24.617188 27.945312 24.703125 28.179688 24.707031 C 28.414062 24.714844 28.613281 24.636719 28.785156 24.472656 C 28.953125 24.3125 29.039062 24.113281 29.046875 23.882812 C 29.050781 23.648438 28.972656 23.445312 28.8125 23.277344 C 28.648438 23.109375 28.453125 23.019531 28.21875 23.015625 C 27.988281 23.011719 27.785156 23.09375 27.617188 23.253906 C 27.449219 23.414062 27.363281 23.609375 27.355469 23.84375 Z M 27.355469 23.84375 " fill-opacity="1" fill-rule="nonzero"/></g><path fill="#ffffff" d="M 19.097656 8.164062 C 19.75 8.359375 20.070312 8.007812 20.246094 7.453125 C 20.332031 7.242188 20.433594 7.035156 20.546875 6.832031 C 20.617188 6.609375 20.769531 6.496094 21.003906 6.492188 C 21.234375 6.492188 21.351562 6.65625 21.449219 6.851562 C 21.625 7.222656 21.820312 7.589844 21.996094 7.960938 C 22.042969 8.121094 22.148438 8.1875 22.316406 8.164062 L 23.453125 8.164062 C 23.679688 8.136719 23.839844 8.226562 23.929688 8.4375 C 24.007812 8.640625 23.957031 8.804688 23.785156 8.933594 C 23.503906 9.214844 23.230469 9.507812 22.9375 9.777344 C 22.871094 9.832031 22.828125 9.898438 22.816406 9.984375 C 22.800781 10.066406 22.816406 10.144531 22.859375 10.21875 C 23.066406 10.714844 23.257812 11.191406 23.464844 11.714844 C 23.523438 11.808594 23.546875 11.910156 23.53125 12.019531 C 23.515625 12.132812 23.46875 12.222656 23.386719 12.296875 C 23.191406 12.472656 22.988281 12.40625 22.78125 12.296875 C 22.257812 11.96875 21.722656 11.65625 21.199219 11.324219 C 21.0625 11.222656 20.925781 11.222656 20.789062 11.324219 C 20.253906 11.667969 19.71875 11.976562 19.175781 12.296875 C 19.089844 12.371094 18.992188 12.40625 18.882812 12.40625 C 18.773438 12.40625 18.675781 12.371094 18.589844 12.296875 C 18.503906 12.222656 18.453125 12.125 18.4375 12.011719 C 18.421875 11.898438 18.449219 11.792969 18.511719 11.695312 C 18.726562 11.179688 18.921875 10.65625 19.136719 10.148438 C 19.226562 10 19.203125 9.878906 19.058594 9.777344 C 18.777344 9.507812 18.511719 9.226562 18.230469 8.953125 C 17.949219 8.679688 17.949219 8.632812 18.054688 8.386719 C 18.160156 8.175781 18.328125 8.089844 18.5625 8.136719 Z M 19.5625 9.011719 L 19.496094 9.117188 L 19.84375 9.390625 C 19.992188 9.484375 20.082031 9.617188 20.117188 9.785156 C 20.152344 9.957031 20.121094 10.113281 20.019531 10.253906 C 19.921875 10.449219 19.855469 10.675781 19.777344 10.878906 C 20.082031 10.757812 20.371094 10.605469 20.644531 10.421875 C 20.875 10.253906 21.101562 10.253906 21.332031 10.421875 C 21.605469 10.605469 21.886719 10.761719 22.160156 10.925781 C 22.128906 10.683594 22.058594 10.453125 21.945312 10.238281 C 21.855469 10.101562 21.828125 9.953125 21.859375 9.792969 C 21.894531 9.636719 21.976562 9.511719 22.113281 9.417969 C 22.246094 9.292969 22.371094 9.160156 22.492188 9.019531 L 22.054688 9.019531 C 21.898438 9.050781 21.753906 9.027344 21.617188 8.945312 C 21.484375 8.863281 21.394531 8.746094 21.351562 8.59375 C 21.265625 8.359375 21.128906 8.144531 20.992188 7.863281 C 20.828125 8.183594 20.691406 8.445312 20.566406 8.710938 C 20.472656 8.9375 20.304688 9.042969 20.058594 9.019531 Z M 19.5625 9.011719 " fill-opacity="1" fill-rule="nonzero"/><path fill="#ffffff" d="M 23.949219 15.671875 C 23.941406 15.285156 24.042969 14.925781 24.253906 14.597656 C 24.460938 14.269531 24.742188 14.023438 25.097656 13.863281 C 25.445312 13.691406 25.808594 13.632812 26.195312 13.695312 C 26.578125 13.753906 26.910156 13.917969 27.1875 14.183594 C 27.296875 14.273438 27.355469 14.351562 27.507812 14.183594 C 27.808594 13.902344 28.164062 13.730469 28.574219 13.675781 C 28.980469 13.617188 29.371094 13.683594 29.738281 13.875 C 30.097656 14.074219 30.367188 14.363281 30.546875 14.734375 C 30.726562 15.109375 30.78125 15.5 30.710938 15.90625 C 30.664062 16.515625 30.476562 17.078125 30.148438 17.597656 C 29.820312 18.113281 29.394531 18.523438 28.859375 18.824219 C 28.453125 19.066406 28.023438 19.300781 27.617188 19.535156 C 27.414062 19.640625 27.222656 19.621094 27.042969 19.476562 C 26.613281 19.222656 26.175781 18.988281 25.757812 18.738281 C 25.214844 18.414062 24.785156 17.980469 24.460938 17.4375 C 24.140625 16.890625 23.96875 16.304688 23.949219 15.671875 Z M 24.804688 15.671875 C 24.820312 16.144531 24.941406 16.589844 25.179688 17 C 25.414062 17.410156 25.734375 17.738281 26.136719 17.988281 C 26.476562 18.203125 26.839844 18.386719 27.1875 18.601562 C 27.296875 18.671875 27.402344 18.671875 27.507812 18.601562 C 27.871094 18.386719 28.238281 18.203125 28.589844 17.976562 C 28.988281 17.730469 29.300781 17.398438 29.53125 16.992188 C 29.761719 16.582031 29.882812 16.144531 29.890625 15.671875 C 29.914062 15.445312 29.867188 15.234375 29.75 15.035156 C 29.632812 14.839844 29.46875 14.695312 29.261719 14.601562 C 29.050781 14.511719 28.835938 14.484375 28.613281 14.53125 C 28.390625 14.574219 28.199219 14.679688 28.042969 14.847656 L 27.703125 15.175781 C 27.664062 15.230469 27.613281 15.273438 27.550781 15.304688 C 27.492188 15.335938 27.425781 15.351562 27.359375 15.351562 C 27.289062 15.351562 27.226562 15.335938 27.164062 15.304688 C 27.105469 15.273438 27.054688 15.230469 27.011719 15.175781 C 26.886719 15.058594 26.78125 14.933594 26.652344 14.828125 C 26.5 14.664062 26.3125 14.5625 26.089844 14.523438 C 25.871094 14.484375 25.660156 14.515625 25.457031 14.613281 C 25.242188 14.703125 25.078125 14.847656 24.957031 15.046875 C 24.835938 15.246094 24.785156 15.460938 24.804688 15.691406 Z M 24.804688 15.671875 " fill-opacity="1" fill-rule="nonzero"/><path fill="#ffffff" d="M 15.46875 9.011719 C 15.46875 9.460938 15.382812 9.894531 15.210938 10.3125 C 15.035156 10.730469 14.789062 11.097656 14.46875 11.414062 C 14.148438 11.734375 13.78125 11.980469 13.363281 12.152344 C 12.945312 12.320312 12.511719 12.40625 12.0625 12.40625 C 11.609375 12.402344 11.175781 12.316406 10.761719 12.140625 C 10.34375 11.964844 9.976562 11.71875 9.660156 11.398438 C 9.34375 11.074219 9.101562 10.707031 8.929688 10.289062 C 8.761719 9.871094 8.675781 9.4375 8.679688 8.984375 C 8.683594 8.535156 8.773438 8.101562 8.949219 7.683594 C 9.125 7.269531 9.375 6.902344 9.699219 6.585938 C 10.019531 6.273438 10.390625 6.03125 10.808594 5.859375 C 11.226562 5.691406 11.664062 5.613281 12.113281 5.617188 C 12.5625 5.621094 12.988281 5.710938 13.402344 5.882812 C 13.8125 6.058594 14.175781 6.304688 14.492188 6.621094 C 14.804688 6.941406 15.046875 7.304688 15.21875 7.71875 C 15.386719 8.132812 15.46875 8.5625 15.46875 9.011719 Z M 10.605469 8.59375 L 11.054688 8.59375 C 11.675781 8.59375 11.675781 8.59375 11.65625 7.949219 C 11.65625 7.796875 11.65625 7.738281 11.441406 7.738281 L 10.410156 7.738281 C 9.808594 7.738281 9.761719 7.738281 9.613281 8.378906 C 9.613281 8.5625 9.613281 8.59375 9.789062 8.59375 Z M 13.523438 8.59375 L 14 8.59375 C 14.660156 8.59375 14.679688 8.59375 14.378906 7.941406 C 14.332031 7.835938 14.292969 7.738281 14.136719 7.738281 L 12.65625 7.738281 C 12.453125 7.738281 12.484375 7.902344 12.511719 8 C 12.542969 8.097656 12.328125 8.457031 12.648438 8.582031 C 12.699219 8.59375 12.753906 8.59375 12.804688 8.582031 Z M 10.605469 9.4375 L 10.160156 9.4375 C 9.488281 9.4375 9.476562 9.4375 9.769531 10.070312 C 9.769531 10.179688 9.855469 10.292969 10.023438 10.285156 L 11.480469 10.285156 C 11.773438 10.285156 11.675781 10.0625 11.65625 9.945312 C 11.636719 9.828125 11.851562 9.476562 11.480469 9.4375 C 11.195312 9.425781 10.910156 9.425781 10.625 9.4375 Z M 13.523438 9.4375 L 13.125 9.4375 C 12.453125 9.4375 12.464844 9.4375 12.503906 10.101562 C 12.503906 10.238281 12.503906 10.285156 12.6875 10.285156 L 13.738281 10.285156 C 14.351562 10.285156 14.378906 10.285156 14.535156 9.671875 C 14.59375 9.46875 14.535156 9.429688 14.339844 9.4375 C 14.144531 9.449219 13.816406 9.4375 13.554688 9.4375 Z M 10.75 6.832031 C 11.019531 6.871094 11.285156 6.871094 11.550781 6.832031 C 11.714844 6.832031 11.648438 6.675781 11.648438 6.578125 C 11.648438 6.480469 11.570312 6.519531 11.480469 6.539062 C 11.21875 6.59375 10.976562 6.691406 10.75 6.832031 Z M 13.4375 6.832031 C 13.21875 6.667969 12.972656 6.554688 12.707031 6.492188 C 12.621094 6.492188 12.503906 6.414062 12.503906 6.589844 C 12.503906 6.765625 12.503906 6.84375 12.675781 6.832031 C 12.851562 6.824219 13.132812 6.890625 13.425781 6.890625 Z M 10.714844 11.132812 C 10.941406 11.304688 11.199219 11.417969 11.480469 11.472656 C 11.578125 11.472656 11.683594 11.539062 11.675781 11.375 C 11.667969 11.207031 11.722656 11.132812 11.53125 11.132812 Z M 13.367188 11.132812 L 12.636719 11.132812 C 12.445312 11.132812 12.511719 11.285156 12.503906 11.382812 C 12.492188 11.480469 12.609375 11.492188 12.695312 11.460938 C 12.953125 11.417969 13.175781 11.304688 13.367188 11.132812 Z M 13.367188 11.132812 " fill-opacity="1" fill-rule="nonzero"/><g clip-path="url(#41295e11d7)"><path fill="#ffffff" d="M 19.261719 19.921875 C 19.160156 19.972656 19.054688 20.007812 18.941406 20.03125 C 18.882812 20.03125 18.832031 19.835938 18.832031 19.738281 C 18.832031 19.320312 18.832031 18.902344 18.832031 18.484375 C 18.832031 18.066406 18.6875 17.9375 18.289062 17.9375 L 11.832031 17.9375 C 11.421875 17.9375 11.296875 18.074219 11.296875 18.492188 C 11.296875 19.804688 11.296875 21.128906 11.296875 22.441406 C 11.335938 22.675781 11.40625 22.898438 11.5 23.113281 L 11.871094 23.035156 C 12.375 22.949219 12.695312 23.035156 12.902344 23.511719 C 12.941406 23.65625 13.007812 23.785156 13.101562 23.898438 C 13.191406 24.015625 13.304688 24.109375 13.433594 24.183594 C 13.5625 24.253906 13.699219 24.296875 13.847656 24.316406 C 13.996094 24.332031 14.140625 24.320312 14.28125 24.28125 C 14.546875 24.257812 14.8125 24.257812 15.078125 24.28125 C 15.199219 24.269531 15.300781 24.304688 15.386719 24.386719 C 15.46875 24.46875 15.507812 24.570312 15.496094 24.6875 C 15.496094 24.953125 15.496094 25.214844 15.496094 25.554688 C 15.917969 25.214844 16.285156 24.933594 16.617188 24.582031 C 16.882812 24.304688 17.207031 24.1875 17.589844 24.230469 C 17.832031 24.246094 18.074219 24.246094 18.320312 24.230469 C 18.71875 24.230469 18.851562 24.085938 18.863281 23.6875 L 18.863281 21.03125 C 18.863281 20.925781 18.921875 20.757812 18.980469 20.738281 C 19.039062 20.722656 19.195312 20.789062 19.300781 20.828125 L 19.300781 24.085938 C 19.21875 24.3125 19.074219 24.480469 18.867188 24.601562 C 18.65625 24.71875 18.4375 24.753906 18.203125 24.707031 C 17.878906 24.648438 17.566406 24.675781 17.257812 24.789062 C 16.949219 24.898438 16.691406 25.078125 16.480469 25.332031 C 16.28125 25.542969 16.058594 25.722656 15.808594 25.875 C 15.664062 25.980469 15.5 26.019531 15.324219 25.992188 C 15.179688 25.878906 15.097656 25.726562 15.078125 25.542969 C 15.058594 25.277344 15.058594 25.007812 15.078125 24.738281 L 13.628906 24.738281 L 13.894531 25.214844 C 14.023438 25.386719 14.078125 25.585938 14.054688 25.800781 C 14.03125 26.019531 13.941406 26.199219 13.777344 26.34375 C 13.691406 26.414062 13.652344 26.507812 13.652344 26.621094 C 13.652344 26.730469 13.691406 26.824219 13.777344 26.898438 C 14.058594 27.34375 14.3125 27.8125 14.574219 28.277344 C 14.835938 28.746094 14.71875 28.832031 14.410156 29.035156 C 13.863281 29.394531 13.660156 29.394531 13.378906 29.035156 C 13.296875 28.953125 13.195312 28.910156 13.078125 28.910156 C 11.761719 29.164062 10.449219 29.433594 9.1875 29.699219 L 9.097656 29.746094 C 9.03125 30.261719 9.476562 30.824219 8.902344 31.273438 L 9.273438 31.90625 C 9.347656 31.980469 9.394531 32.066406 9.421875 32.164062 C 9.449219 32.265625 9.449219 32.363281 9.425781 32.464844 C 9.398438 32.5625 9.351562 32.652344 9.277344 32.722656 C 9.207031 32.796875 9.121094 32.847656 9.019531 32.878906 C 8.914062 32.9375 8.816406 33.015625 8.710938 33.082031 L 8.273438 33.082031 C 8.066406 32.867188 7.835938 32.671875 7.648438 32.449219 C 7.464844 32.226562 7.589844 32.214844 7.589844 32.121094 C 7.722656 32.132812 7.855469 32.164062 7.980469 32.207031 C 8.039062 32.207031 8.066406 32.304688 8.117188 32.351562 C 8.445312 32.722656 8.484375 32.722656 8.875 32.351562 L 7.589844 30.097656 L 6.617188 30.652344 C 6.792969 30.824219 6.949219 31.007812 7.09375 31.207031 C 7.144531 31.339844 7.164062 31.480469 7.152344 31.625 C 7.019531 31.605469 6.894531 31.566406 6.773438 31.507812 C 6.617188 31.371094 6.511719 31.1875 6.355469 31.050781 C 6.265625 30.976562 6.160156 30.945312 6.042969 30.960938 C 5.839844 31.042969 5.636719 31.046875 5.429688 30.964844 C 5.226562 30.882812 5.078125 30.742188 4.984375 30.542969 C 4.574219 29.785156 4.136719 29.007812 3.699219 28.230469 L 3.699219 27.8125 C 3.914062 27.605469 4.097656 27.316406 4.351562 27.199219 C 5.367188 26.671875 6.222656 25.953125 6.910156 25.039062 C 7.707031 24.066406 8.535156 23.191406 9.351562 22.265625 C 9.148438 21.636719 9.175781 21.566406 9.691406 21.292969 C 9.90625 21.167969 10.140625 21.023438 10.363281 21.214844 C 10.539062 21.410156 10.699219 21.617188 10.839844 21.839844 L 10.839844 20.019531 C 10.839844 19.554688 10.839844 19.046875 10.839844 18.609375 C 10.839844 18.171875 10.839844 17.636719 11.472656 17.5 L 18.679688 17.5 C 19.066406 17.5 19.28125 17.667969 19.300781 18.125 Z M 9.632812 22.675781 C 9.632812 22.675781 9.554688 22.675781 9.546875 22.734375 C 8.445312 23.980469 7.339844 25.222656 6.25 26.476562 C 6.191406 26.59375 6.191406 26.707031 6.25 26.820312 C 6.714844 27.65625 7.222656 28.480469 7.667969 29.308594 C 7.699219 29.390625 7.753906 29.453125 7.832031 29.488281 C 7.914062 29.523438 7.996094 29.527344 8.078125 29.492188 C 9.050781 29.28125 10.023438 29.085938 11.054688 28.878906 L 13 28.492188 L 12.726562 28.003906 C 12.648438 27.851562 12.472656 27.664062 12.726562 27.527344 C 12.980469 27.394531 13.019531 27.625 13.105469 27.773438 L 13.746094 28.871094 L 14.203125 28.609375 L 10.121094 21.539062 L 9.664062 21.808594 L 11.609375 25.214844 C 11.878906 25.691406 12.171875 26.1875 12.433594 26.652344 C 12.433594 26.730469 12.433594 26.867188 12.386719 26.972656 C 12.273438 26.960938 12.164062 26.921875 12.066406 26.867188 C 11.996094 26.867188 11.96875 26.722656 11.917969 26.644531 C 11.171875 25.3125 10.402344 24.007812 9.632812 22.675781 Z M 5.742188 26.90625 C 5.265625 27.179688 4.828125 27.421875 4.390625 27.683594 C 4.109375 27.859375 4.078125 28.023438 4.207031 28.179688 C 4.46875 28.179688 4.78125 28.113281 4.839844 28.179688 C 5.050781 28.5 4.625 28.519531 4.488281 28.726562 L 4.703125 29.074219 L 4.703125 28.957031 L 5.304688 29.007812 L 4.945312 29.589844 L 5.121094 29.882812 L 5.121094 29.777344 C 5.324219 29.777344 5.644531 29.699219 5.714844 29.777344 C 5.9375 30.117188 5.414062 30.078125 5.363281 30.308594 C 5.585938 30.554688 5.664062 30.601562 5.890625 30.476562 C 6.367188 30.222656 6.863281 29.949219 7.308594 29.667969 Z M 11.792969 23.550781 L 13.300781 26.167969 C 13.660156 25.816406 13.667969 25.75 13.476562 25.398438 L 12.503906 23.753906 C 12.335938 23.425781 12.199219 23.367188 11.800781 23.550781 Z M 8.027344 29.949219 L 8.582031 30.875 L 8.679688 30.875 L 8.535156 29.902344 Z M 8.027344 29.949219 " fill-opacity="1" fill-rule="nonzero"/></g><path fill="#ffffff" d="M 16.46875 21.332031 C 16.722656 21.617188 16.957031 21.867188 17.171875 22.140625 C 17.386719 22.414062 17.570312 22.441406 17.316406 22.644531 C 17.0625 22.851562 16.976562 22.578125 16.851562 22.453125 L 15.878906 21.285156 C 15.878906 21.691406 15.878906 22.023438 15.878906 22.34375 C 15.878906 22.472656 15.730469 22.589844 15.652344 22.703125 C 15.574219 22.589844 15.441406 22.472656 15.441406 22.34375 C 15.441406 21.460938 15.441406 20.566406 15.441406 19.679688 C 15.441406 19.417969 15.535156 19.300781 15.808594 19.308594 C 16.082031 19.320312 16.316406 19.308594 16.566406 19.308594 C 16.824219 19.324219 17.042969 19.425781 17.21875 19.613281 C 17.394531 19.804688 17.484375 20.027344 17.480469 20.28125 C 17.488281 20.511719 17.421875 20.71875 17.28125 20.902344 C 17.140625 21.085938 16.957031 21.203125 16.734375 21.253906 Z M 15.847656 20.847656 C 16.226562 20.847656 16.636719 20.964844 16.820312 20.574219 C 16.914062 20.398438 16.914062 20.21875 16.820312 20.039062 C 16.585938 19.640625 16.179688 19.796875 15.847656 19.785156 Z M 15.847656 20.847656 " fill-opacity="1" fill-rule="nonzero"/><path fill="#ffffff" d="M 13.164062 21.421875 C 13.164062 21.742188 13.164062 22.054688 13.164062 22.394531 C 13.164062 22.5 13.039062 22.597656 12.96875 22.703125 C 12.890625 22.609375 12.734375 22.5 12.734375 22.402344 C 12.734375 21.429688 12.734375 20.554688 12.734375 19.640625 C 12.765625 19.488281 12.851562 19.382812 13 19.328125 C 13.324219 19.292969 13.648438 19.292969 13.972656 19.328125 C 14.21875 19.371094 14.425781 19.488281 14.589844 19.683594 C 14.753906 19.875 14.835938 20.097656 14.835938 20.351562 C 14.847656 20.609375 14.769531 20.839844 14.609375 21.042969 C 14.449219 21.246094 14.242188 21.371094 13.992188 21.421875 C 13.714844 21.4375 13.4375 21.4375 13.164062 21.421875 Z M 13.164062 20.945312 C 13.589844 20.945312 14.058594 21.082031 14.28125 20.605469 C 14.375 20.402344 14.375 20.203125 14.28125 20 C 14.03125 19.59375 13.601562 19.769531 13.203125 19.738281 Z M 13.164062 20.945312 " fill-opacity="1" fill-rule="nonzero"/></svg>