<svg xmlns="http://www.w3.org/2000/svg" xmlns:xlink="http://www.w3.org/1999/xlink" width="70" zoomAndPan="magnify" viewBox="0 0 37.5 37.499999" height="70" preserveAspectRatio="xMidYMid meet" version="1.0"><defs><clipPath id="97b2d31f33"><path d="M 12 3.699219 L 31 3.699219 L 31 24 L 12 24 Z M 12 3.699219 " clip-rule="nonzero"/></clipPath><clipPath id="d101b53f21"><path d="M 3.699219 15 L 27 15 L 27 33.304688 L 3.699219 33.304688 Z M 3.699219 15 " clip-rule="nonzero"/></clipPath><clipPath id="382bd047c9"><path d="M 26 16 L 33.304688 16 L 33.304688 27 L 26 27 Z M 26 16 " clip-rule="nonzero"/></clipPath><clipPath id="283149530f"><path d="M 30 10 L 33.304688 10 L 33.304688 12 L 30 12 Z M 30 10 " clip-rule="nonzero"/></clipPath><clipPath id="21ea60a465"><path d="M 27 3.699219 L 30 3.699219 L 30 7 L 27 7 Z M 27 3.699219 " clip-rule="nonzero"/></clipPath><clipPath id="32de010b21"><path d="M 3.699219 3.699219 L 14 3.699219 L 14 14 L 3.699219 14 Z M 3.699219 3.699219 " clip-rule="nonzero"/></clipPath></defs><g clip-path="url(#97b2d31f33)"><path fill="#ffffff" d="M 12.578125 15.898438 C 12.609375 15.394531 12.757812 14.925781 13.019531 14.496094 C 13.285156 14.0625 13.632812 13.71875 14.070312 13.460938 C 14.800781 13.007812 15.546875 12.59375 16.296875 12.167969 C 16.367188 12.121094 16.441406 12.09375 16.523438 12.089844 C 16.859375 12.167969 17.066406 11.941406 17.285156 11.765625 C 19.03125 10.445312 20.480469 8.851562 21.636719 6.992188 C 21.8125 6.761719 21.839844 6.515625 21.722656 6.25 C 21.644531 6.050781 21.609375 5.84375 21.609375 5.625 C 21.613281 5.410156 21.652344 5.203125 21.734375 5.003906 C 21.816406 4.804688 21.933594 4.628906 22.082031 4.472656 C 22.230469 4.320312 22.40625 4.199219 22.601562 4.109375 C 22.792969 4.015625 22.996094 3.957031 23.210938 3.9375 C 23.425781 3.921875 23.636719 3.941406 23.84375 4.003906 C 24.046875 4.0625 24.234375 4.160156 24.40625 4.292969 C 24.574219 4.425781 24.714844 4.585938 24.820312 4.769531 C 25.402344 5.679688 25.867188 6.546875 26.390625 7.445312 C 26.527344 7.679688 26.636719 7.730469 26.902344 7.640625 C 27.328125 7.507812 27.75 7.523438 28.167969 7.6875 C 28.582031 7.847656 28.902344 8.121094 29.125 8.507812 C 29.351562 8.894531 29.429688 9.308594 29.363281 9.75 C 29.300781 10.191406 29.105469 10.5625 28.777344 10.867188 C 28.550781 11.066406 28.5625 11.191406 28.699219 11.429688 C 29.203125 12.269531 29.683594 13.117188 30.167969 13.964844 C 30.292969 14.15625 30.375 14.363281 30.417969 14.585938 C 30.460938 14.8125 30.460938 15.035156 30.414062 15.257812 C 30.371094 15.480469 30.285156 15.6875 30.160156 15.878906 C 30.03125 16.066406 29.875 16.226562 29.683594 16.351562 C 29.496094 16.480469 29.289062 16.566406 29.066406 16.609375 C 28.84375 16.65625 28.621094 16.65625 28.398438 16.613281 C 28.175781 16.566406 27.96875 16.480469 27.78125 16.355469 C 27.589844 16.226562 27.433594 16.070312 27.308594 15.878906 C 27.195312 15.734375 27.046875 15.675781 26.863281 15.703125 C 25.308594 15.730469 23.785156 15.976562 22.296875 16.429688 C 21.605469 16.640625 20.933594 16.875 20.265625 17.140625 C 19.9375 17.28125 19.9375 17.28125 20.144531 17.566406 L 22.820312 21.167969 C 22.941406 21.277344 23.03125 21.410156 23.089844 21.566406 C 23.148438 21.71875 23.167969 21.878906 23.152344 22.042969 C 23.136719 22.207031 23.085938 22.359375 22.996094 22.496094 C 22.90625 22.636719 22.792969 22.75 22.652344 22.835938 L 22.238281 23.21875 C 22.132812 23.332031 22.007812 23.414062 21.863281 23.464844 C 21.71875 23.519531 21.570312 23.535156 21.417969 23.519531 C 21.261719 23.503906 21.121094 23.453125 20.992188 23.371094 C 20.863281 23.289062 20.757812 23.183594 20.679688 23.050781 C 19.691406 21.777344 18.765625 20.507812 17.816406 19.214844 C 17.648438 18.988281 17.53125 18.925781 17.246094 19.066406 C 16.722656 19.324219 16.167969 19.4375 15.585938 19.398438 C 15.003906 19.359375 14.46875 19.175781 13.988281 18.847656 C 13.503906 18.519531 13.136719 18.089844 12.882812 17.5625 C 12.632812 17.035156 12.53125 16.480469 12.578125 15.898438 Z M 26.636719 14.914062 L 22.445312 7.464844 C 22.445312 7.464844 22.386719 7.464844 22.375 7.523438 C 21.078125 9.554688 19.457031 11.285156 17.511719 12.710938 C 17.34375 12.832031 17.394531 12.917969 17.460938 13.046875 C 18.09375 14.132812 18.726562 15.21875 19.347656 16.3125 C 19.457031 16.511719 19.554688 16.550781 19.761719 16.460938 C 20.917969 15.960938 22.113281 15.570312 23.34375 15.296875 C 24.4375 15.042969 25.550781 14.898438 26.675781 14.863281 Z M 23.34375 4.78125 C 23.152344 4.78125 22.980469 4.835938 22.828125 4.949219 C 22.675781 5.0625 22.570312 5.210938 22.511719 5.390625 C 22.421875 5.714844 22.476562 6.007812 22.679688 6.269531 L 27.859375 15.238281 C 27.910156 15.308594 27.949219 15.386719 28.007812 15.453125 C 28.230469 15.757812 28.523438 15.867188 28.886719 15.78125 C 29.261719 15.703125 29.488281 15.476562 29.566406 15.101562 C 29.617188 14.816406 29.554688 14.558594 29.378906 14.332031 L 27.179688 10.523438 L 24.21875 5.34375 C 24.144531 5.167969 24.027344 5.03125 23.867188 4.925781 C 23.707031 4.824219 23.53125 4.777344 23.34375 4.78125 Z M 13.476562 15.988281 C 13.464844 16.195312 13.476562 16.402344 13.515625 16.609375 C 13.558594 16.8125 13.621094 17.007812 13.714844 17.199219 C 13.804688 17.386719 13.921875 17.558594 14.058594 17.714844 C 14.195312 17.871094 14.351562 18.011719 14.523438 18.128906 C 14.699219 18.242188 14.882812 18.335938 15.082031 18.40625 C 15.277344 18.472656 15.480469 18.515625 15.691406 18.527344 C 15.898438 18.542969 16.105469 18.53125 16.308594 18.492188 C 16.515625 18.453125 16.710938 18.386719 16.898438 18.296875 C 17.503906 18 18.074219 17.625 18.667969 17.308594 C 18.804688 17.230469 18.84375 17.140625 18.753906 16.992188 C 18.035156 15.75 17.316406 14.507812 16.605469 13.265625 C 16.515625 13.117188 16.425781 13.097656 16.289062 13.1875 C 15.714844 13.519531 15.132812 13.835938 14.582031 14.171875 C 14.25 14.359375 13.984375 14.613281 13.785156 14.933594 C 13.585938 15.257812 13.476562 15.609375 13.457031 15.988281 Z M 22.285156 21.90625 L 22.136719 21.699219 C 21.390625 20.714844 20.640625 19.65625 19.878906 18.652344 C 19.691406 18.40625 19.554688 17.992188 19.308594 17.96875 C 19.0625 17.949219 18.753906 18.246094 18.46875 18.394531 C 18.183594 18.542969 18.320312 18.542969 18.46875 18.660156 L 18.992188 19.351562 L 21.347656 22.519531 C 21.476562 22.695312 21.585938 22.753906 21.765625 22.566406 C 21.910156 22.417969 22.066406 22.277344 22.226562 22.144531 C 22.21875 22.066406 22.285156 22.023438 22.265625 21.886719 Z M 28.519531 9.476562 C 28.523438 9.3125 28.488281 9.160156 28.421875 9.011719 C 28.351562 8.863281 28.253906 8.738281 28.128906 8.632812 C 28.003906 8.527344 27.863281 8.457031 27.707031 8.414062 C 27.546875 8.375 27.390625 8.371094 27.230469 8.402344 C 27.050781 8.402344 26.960938 8.488281 27.089844 8.6875 C 27.335938 9.09375 27.5625 9.515625 27.8125 9.929688 C 27.890625 10.070312 27.9375 10.324219 28.085938 10.304688 C 28.234375 10.285156 28.382812 10.039062 28.460938 9.839844 C 28.503906 9.722656 28.523438 9.601562 28.519531 9.476562 Z M 28.519531 9.476562 " fill-opacity="1" fill-rule="nonzero"/></g><g clip-path="url(#d101b53f21)"><path fill="#ffffff" d="M 8.199219 31.832031 C 8.328125 31.808594 8.4375 31.75 8.535156 31.664062 C 9.828125 30.765625 11.121094 29.867188 12.410156 28.949219 C 12.621094 28.800781 12.855469 28.738281 13.113281 28.773438 C 14.632812 28.910156 16.140625 28.816406 17.628906 28.488281 C 17.835938 28.488281 17.917969 28.347656 17.898438 28.140625 C 17.875 27.933594 17.898438 27.699219 17.898438 27.480469 C 17.878906 27.328125 17.898438 27.183594 17.949219 27.039062 C 18 26.894531 18.082031 26.773438 18.1875 26.664062 C 18.296875 26.558594 18.425781 26.484375 18.570312 26.4375 C 18.714844 26.386719 18.859375 26.375 19.011719 26.394531 C 19.851562 26.394531 20.6875 26.394531 21.527344 26.394531 C 22.003906 26.429688 22.394531 26.265625 22.699219 25.902344 C 23.652344 25.007812 24.183594 23.90625 24.300781 22.605469 C 24.324219 21.933594 24.210938 21.28125 23.957031 20.65625 C 23.707031 20.027344 23.339844 19.480469 22.859375 19.007812 C 22.570312 18.703125 22.261719 18.425781 21.929688 18.167969 C 21.824219 18.097656 21.757812 18 21.738281 17.875 C 21.714844 17.75 21.746094 17.636719 21.824219 17.535156 C 21.902344 17.4375 22.003906 17.386719 22.128906 17.382812 C 22.253906 17.375 22.359375 17.421875 22.445312 17.515625 C 23.175781 18.019531 23.769531 18.648438 24.234375 19.40625 C 24.699219 20.160156 24.988281 20.980469 25.109375 21.859375 C 25.175781 22.609375 25.089844 23.34375 24.855469 24.058594 C 24.621094 24.773438 24.253906 25.414062 23.757812 25.980469 C 23.667969 26.078125 23.480469 26.1875 23.539062 26.304688 C 23.597656 26.425781 23.804688 26.367188 23.945312 26.367188 L 25.402344 26.367188 C 25.550781 26.351562 25.695312 26.371094 25.832031 26.421875 C 25.972656 26.46875 26.09375 26.546875 26.199219 26.652344 C 26.304688 26.757812 26.378906 26.882812 26.429688 27.019531 C 26.476562 27.160156 26.496094 27.304688 26.480469 27.449219 C 26.480469 29.042969 26.480469 30.628906 26.480469 32.214844 C 26.496094 32.363281 26.476562 32.507812 26.429688 32.644531 C 26.378906 32.785156 26.304688 32.910156 26.199219 33.011719 C 26.09375 33.117188 25.972656 33.195312 25.832031 33.246094 C 25.695312 33.296875 25.550781 33.316406 25.402344 33.300781 L 18.960938 33.300781 C 18.816406 33.3125 18.679688 33.292969 18.542969 33.246094 C 18.40625 33.195312 18.289062 33.121094 18.1875 33.019531 C 18.082031 32.917969 18.007812 32.800781 17.957031 32.664062 C 17.90625 32.527344 17.886719 32.390625 17.898438 32.246094 L 17.898438 29.570312 C 17.898438 29.355469 17.835938 29.296875 17.621094 29.34375 C 16.136719 29.65625 14.640625 29.746094 13.132812 29.621094 C 12.976562 29.621094 12.835938 29.667969 12.71875 29.769531 L 8 33.054688 C 7.90625 33.128906 7.804688 33.195312 7.695312 33.25 C 7.558594 33.320312 7.425781 33.3125 7.296875 33.226562 C 7.167969 33.140625 7.109375 33.019531 7.125 32.867188 C 7.113281 32.777344 7.113281 32.6875 7.125 32.601562 C 7.417969 31.308594 7.714844 30.015625 8.03125 28.722656 C 8.089844 28.597656 8.089844 28.476562 8.035156 28.351562 C 7.976562 28.226562 7.886719 28.144531 7.753906 28.101562 C 6.4375 27.445312 5.378906 26.5 4.578125 25.261719 C 4.238281 24.742188 3.996094 24.183594 3.847656 23.582031 C 3.699219 22.980469 3.660156 22.371094 3.722656 21.757812 C 3.789062 21.140625 3.953125 20.554688 4.21875 19.996094 C 4.488281 19.4375 4.839844 18.941406 5.277344 18.503906 C 6.695312 17.015625 8.402344 16.03125 10.398438 15.542969 C 10.664062 15.476562 10.941406 15.40625 11.207031 15.355469 C 11.328125 15.308594 11.445312 15.3125 11.5625 15.371094 C 11.675781 15.433594 11.75 15.527344 11.78125 15.652344 C 11.804688 15.777344 11.777344 15.890625 11.699219 15.992188 C 11.625 16.097656 11.523438 16.152344 11.394531 16.164062 C 10.367188 16.367188 9.378906 16.695312 8.4375 17.152344 C 7.421875 17.628906 6.539062 18.289062 5.792969 19.125 C 5.582031 19.347656 5.390625 19.585938 5.226562 19.847656 C 5.066406 20.105469 4.929688 20.378906 4.820312 20.664062 C 4.710938 20.949219 4.628906 21.246094 4.578125 21.546875 C 4.527344 21.851562 4.507812 22.152344 4.515625 22.460938 C 4.527344 22.765625 4.566406 23.070312 4.636719 23.367188 C 4.707031 23.664062 4.808594 23.953125 4.9375 24.234375 C 5.0625 24.511719 5.21875 24.773438 5.398438 25.023438 C 5.578125 25.269531 5.78125 25.496094 6.007812 25.703125 C 6.738281 26.460938 7.582031 27.058594 8.535156 27.5 C 9.046875 27.746094 9.085938 27.824219 8.957031 28.386719 C 8.730469 29.5625 8.464844 30.675781 8.199219 31.832031 Z M 22.207031 32.460938 C 23.195312 32.460938 24.269531 32.460938 25.296875 32.460938 C 25.582031 32.460938 25.699219 32.394531 25.691406 32.078125 C 25.691406 30.566406 25.691406 29.070312 25.691406 27.558594 C 25.691406 27.273438 25.601562 27.203125 25.335938 27.203125 C 23.242188 27.203125 21.160156 27.203125 19.082031 27.203125 C 18.824219 27.203125 18.726562 27.261719 18.726562 27.539062 C 18.726562 29.058594 18.726562 30.589844 18.726562 32.117188 C 18.726562 32.375 18.792969 32.460938 19.0625 32.453125 Z M 22.207031 32.460938 " fill-opacity="1" fill-rule="nonzero"/></g><g clip-path="url(#382bd047c9)"><path fill="#ffffff" d="M 33.296875 19.589844 C 33.238281 20.554688 32.984375 21.464844 32.535156 22.320312 C 31.984375 23.539062 31.1875 24.566406 30.148438 25.410156 C 29.820312 25.703125 29.445312 25.917969 29.023438 26.042969 C 28.597656 26.171875 28.167969 26.203125 27.730469 26.140625 C 27.332031 26.066406 26.964844 25.90625 26.636719 25.664062 C 26.421875 25.511719 26.28125 25.304688 26.222656 25.042969 C 26.160156 24.785156 26.195312 24.539062 26.320312 24.304688 C 26.519531 23.9375 26.726562 23.574219 26.953125 23.21875 C 27.023438 23.097656 27.117188 22.992188 27.226562 22.90625 C 27.339844 22.820312 27.464844 22.757812 27.601562 22.722656 C 27.738281 22.6875 27.878906 22.679688 28.019531 22.699219 C 28.160156 22.71875 28.289062 22.761719 28.414062 22.835938 C 28.503906 22.875 28.589844 22.921875 28.667969 22.980469 C 28.742188 23.042969 28.828125 23.066406 28.921875 23.046875 C 29.015625 23.027344 29.085938 22.976562 29.132812 22.894531 C 29.746094 22.167969 30.222656 21.363281 30.5625 20.476562 C 30.613281 20.390625 30.621094 20.304688 30.589844 20.214844 C 30.558594 20.121094 30.496094 20.058594 30.40625 20.023438 L 30.121094 19.863281 C 29.878906 19.714844 29.71875 19.503906 29.648438 19.230469 C 29.574219 18.953125 29.609375 18.691406 29.746094 18.445312 C 29.933594 18.078125 30.148438 17.714844 30.367188 17.359375 C 30.515625 17.109375 30.726562 16.949219 31.007812 16.871094 C 31.285156 16.792969 31.550781 16.824219 31.804688 16.964844 C 32.296875 17.210938 32.675781 17.574219 32.945312 18.050781 C 33.21875 18.527344 33.332031 19.042969 33.296875 19.589844 Z M 32.449219 19.589844 C 32.492188 19.203125 32.421875 18.839844 32.242188 18.496094 C 32.0625 18.152344 31.804688 17.886719 31.460938 17.703125 C 31.292969 17.617188 31.136719 17.585938 31.027344 17.78125 C 30.917969 17.980469 30.652344 18.414062 30.476562 18.769531 C 30.421875 18.839844 30.410156 18.917969 30.4375 19.003906 C 30.464844 19.085938 30.519531 19.144531 30.601562 19.175781 L 30.929688 19.371094 C 31.136719 19.488281 31.28125 19.660156 31.363281 19.882812 C 31.449219 20.105469 31.449219 20.332031 31.371094 20.554688 C 31.007812 21.703125 30.417969 22.722656 29.605469 23.613281 C 29.453125 23.792969 29.261719 23.902344 29.027344 23.941406 C 28.796875 23.984375 28.578125 23.945312 28.375 23.832031 L 28.027344 23.644531 C 27.949219 23.585938 27.863281 23.566406 27.769531 23.59375 C 27.675781 23.621094 27.609375 23.679688 27.574219 23.769531 C 27.425781 24.039062 27.269531 24.304688 27.109375 24.570312 C 26.953125 24.835938 26.972656 24.976562 27.289062 25.140625 C 27.632812 25.328125 28 25.402344 28.390625 25.363281 C 28.777344 25.320312 29.121094 25.171875 29.417969 24.914062 C 30.285156 24.277344 30.964844 23.484375 31.460938 22.527344 C 32.023438 21.636719 32.355469 20.667969 32.457031 19.617188 Z M 32.449219 19.589844 " fill-opacity="1" fill-rule="nonzero"/></g><path fill="#ffffff" d="M 14.425781 24.332031 L 9.332031 24.332031 C 9.234375 24.316406 9.148438 24.269531 9.082031 24.195312 C 9.015625 24.117188 8.984375 24.027344 8.984375 23.925781 C 8.984375 23.820312 9.015625 23.730469 9.082031 23.65625 C 9.148438 23.578125 9.234375 23.53125 9.332031 23.515625 C 9.421875 23.503906 9.511719 23.503906 9.601562 23.515625 L 19.367188 23.515625 C 19.742188 23.515625 19.9375 23.664062 19.9375 23.929688 C 19.9375 24.195312 19.742188 24.351562 19.367188 24.351562 Z M 14.425781 24.332031 " fill-opacity="1" fill-rule="nonzero"/><path fill="#ffffff" d="M 13.0625 21.226562 L 9.5 21.226562 C 9.136719 21.226562 8.9375 21.066406 8.9375 20.800781 C 8.9375 20.535156 9.144531 20.378906 9.519531 20.378906 L 16.585938 20.378906 C 16.683594 20.363281 16.78125 20.363281 16.878906 20.378906 C 17.089844 20.425781 17.1875 20.558594 17.175781 20.773438 C 17.179688 20.875 17.148438 20.960938 17.082031 21.039062 C 17.015625 21.113281 16.929688 21.15625 16.832031 21.167969 C 16.664062 21.175781 16.496094 21.175781 16.328125 21.167969 Z M 13.0625 21.226562 " fill-opacity="1" fill-rule="nonzero"/><g clip-path="url(#283149530f)"><path fill="#ffffff" d="M 31.925781 10.316406 C 32.222656 10.316406 32.527344 10.316406 32.824219 10.316406 C 32.949219 10.304688 33.058594 10.339844 33.152344 10.425781 C 33.246094 10.507812 33.292969 10.613281 33.296875 10.738281 C 33.292969 10.863281 33.246094 10.964844 33.152344 11.042969 C 33.0625 11.125 32.953125 11.160156 32.832031 11.144531 L 30.949219 11.144531 C 30.828125 11.160156 30.722656 11.125 30.628906 11.042969 C 30.539062 10.964844 30.492188 10.863281 30.496094 10.738281 C 30.496094 10.492188 30.671875 10.324219 30.96875 10.316406 C 31.265625 10.304688 31.609375 10.316406 31.925781 10.316406 Z M 31.925781 10.316406 " fill-opacity="1" fill-rule="nonzero"/></g><g clip-path="url(#21ea60a465)"><path fill="#ffffff" d="M 28.066406 6.242188 C 27.914062 6.246094 27.796875 6.183594 27.714844 6.050781 C 27.636719 5.917969 27.636719 5.78125 27.710938 5.648438 C 28.027344 5.046875 28.375 4.464844 28.699219 3.894531 C 28.753906 3.792969 28.835938 3.734375 28.945312 3.707031 C 29.058594 3.683594 29.160156 3.699219 29.25 3.765625 C 29.355469 3.808594 29.425781 3.882812 29.460938 3.992188 C 29.496094 4.097656 29.484375 4.199219 29.429688 4.296875 C 29.101562 4.898438 28.75 5.480469 28.441406 6.074219 C 28.355469 6.214844 28.230469 6.269531 28.066406 6.242188 Z M 28.066406 6.242188 " fill-opacity="1" fill-rule="nonzero"/></g><path fill="#ffffff" d="M 32.585938 6.722656 C 32.59375 6.902344 32.519531 7.035156 32.359375 7.117188 C 31.835938 7.414062 31.324219 7.71875 30.800781 8.007812 C 30.703125 8.078125 30.59375 8.101562 30.476562 8.074219 C 30.355469 8.050781 30.269531 7.984375 30.207031 7.878906 C 30.144531 7.773438 30.128906 7.660156 30.164062 7.542969 C 30.199219 7.425781 30.273438 7.339844 30.386719 7.285156 C 30.898438 6.980469 31.371094 6.683594 31.933594 6.398438 C 32.308594 6.222656 32.585938 6.390625 32.585938 6.722656 Z M 32.585938 6.722656 " fill-opacity="1" fill-rule="nonzero"/><path fill="#ffffff" d="M 20.589844 29.820312 C 20.589844 29.394531 20.589844 28.960938 20.589844 28.535156 C 20.589844 28.113281 20.894531 27.925781 21.269531 28.132812 C 22.039062 28.566406 22.800781 29 23.550781 29.453125 C 23.730469 29.519531 23.824219 29.648438 23.824219 29.84375 C 23.824219 30.039062 23.730469 30.167969 23.550781 30.234375 L 21.269531 31.546875 C 21.117188 31.664062 20.957031 31.675781 20.792969 31.578125 C 20.625 31.476562 20.558594 31.332031 20.589844 31.140625 C 20.589844 30.695312 20.589844 30.261719 20.589844 29.820312 Z M 21.578125 29.246094 C 21.46875 29.246094 21.476562 29.34375 21.476562 29.402344 C 21.46875 29.566406 21.46875 29.726562 21.476562 29.886719 C 21.476562 30.066406 21.390625 30.320312 21.476562 30.390625 C 21.566406 30.460938 21.804688 30.273438 21.972656 30.183594 C 22.574219 29.839844 22.5625 29.839844 21.972656 29.492188 Z M 21.578125 29.246094 " fill-opacity="1" fill-rule="nonzero"/><g clip-path="url(#32de010b21)"><path fill="#ffffff" d="M 5.929688 4.613281 C 6.125 4.613281 6.296875 4.679688 6.441406 4.808594 C 6.613281 5.007812 6.824219 5.058594 7.066406 4.96875 C 7.3125 4.875 7.433594 4.695312 7.429688 4.4375 C 7.527344 3.882812 7.726562 3.714844 8.296875 3.714844 L 9.019531 3.714844 C 9.203125 3.710938 9.363281 3.765625 9.5 3.890625 C 9.636719 4.011719 9.710938 4.164062 9.726562 4.347656 C 9.816406 4.976562 10.222656 5.144531 10.714844 4.78125 C 10.851562 4.648438 11.015625 4.582031 11.207031 4.582031 C 11.398438 4.582031 11.5625 4.648438 11.703125 4.78125 C 11.910156 4.976562 12.109375 5.175781 12.292969 5.371094 C 12.4375 5.503906 12.511719 5.664062 12.519531 5.855469 C 12.53125 6.046875 12.472656 6.214844 12.34375 6.359375 C 11.988281 6.863281 12.15625 7.265625 12.757812 7.347656 C 12.949219 7.359375 13.113281 7.4375 13.242188 7.585938 C 13.371094 7.730469 13.429688 7.902344 13.417969 8.09375 C 13.417969 8.363281 13.417969 8.636719 13.417969 8.90625 C 13.421875 9.101562 13.359375 9.269531 13.226562 9.414062 C 13.097656 9.554688 12.933594 9.632812 12.738281 9.644531 C 12.164062 9.722656 11.996094 10.15625 12.332031 10.632812 C 12.457031 10.773438 12.515625 10.941406 12.507812 11.132812 C 12.496094 11.324219 12.421875 11.488281 12.285156 11.617188 C 12.105469 11.816406 11.910156 12.003906 11.710938 12.191406 C 11.582031 12.332031 11.421875 12.40625 11.226562 12.417969 C 11.035156 12.425781 10.867188 12.367188 10.726562 12.238281 C 10.230469 11.882812 9.816406 12.0625 9.738281 12.664062 C 9.722656 12.847656 9.648438 13 9.515625 13.128906 C 9.378906 13.253906 9.222656 13.320312 9.039062 13.324219 L 8.128906 13.324219 C 7.941406 13.328125 7.777344 13.265625 7.636719 13.136719 C 7.5 13.007812 7.421875 12.851562 7.410156 12.664062 C 7.3125 12.0625 6.898438 11.894531 6.421875 12.25 C 6.28125 12.378906 6.113281 12.4375 5.921875 12.425781 C 5.726562 12.417969 5.566406 12.34375 5.4375 12.199219 C 5.230469 12.003906 5.023438 11.804688 4.824219 11.585938 C 4.691406 11.453125 4.621094 11.285156 4.621094 11.09375 C 4.621094 10.902344 4.691406 10.738281 4.824219 10.601562 C 5.191406 10.089844 5.023438 9.683594 4.402344 9.613281 C 4.222656 9.617188 4.066406 9.558594 3.933594 9.4375 C 3.796875 9.320312 3.722656 9.171875 3.699219 8.992188 C 3.699219 8.707031 3.699219 8.410156 3.699219 8.125 C 3.695312 7.941406 3.753906 7.78125 3.875 7.644531 C 3.996094 7.507812 4.148438 7.429688 4.332031 7.414062 C 4.984375 7.296875 5.132812 6.929688 4.746094 6.429688 C 4.644531 6.304688 4.589844 6.160156 4.589844 6 C 4.589844 5.835938 4.644531 5.695312 4.746094 5.570312 C 4.984375 5.300781 5.238281 5.050781 5.507812 4.808594 C 5.617188 4.679688 5.757812 4.613281 5.929688 4.613281 Z M 11.59375 5.964844 C 11.59375 5.796875 11.148438 5.519531 11.019531 5.589844 C 10.925781 5.652344 10.824219 5.703125 10.71875 5.742188 C 10.609375 5.78125 10.5 5.804688 10.386719 5.816406 C 10.273438 5.824219 10.160156 5.820312 10.046875 5.804688 C 9.9375 5.785156 9.828125 5.757812 9.722656 5.710938 C 9.617188 5.667969 9.519531 5.609375 9.429688 5.542969 C 9.339844 5.472656 9.257812 5.394531 9.1875 5.304688 C 9.117188 5.214844 9.058594 5.121094 9.011719 5.015625 C 8.964844 4.910156 8.929688 4.804688 8.910156 4.691406 C 8.832031 4.457031 8.632812 4.5625 8.503906 4.554688 C 8.375 4.542969 8.25 4.554688 8.1875 4.722656 C 8.144531 4.941406 8.050781 5.140625 7.90625 5.316406 C 7.761719 5.488281 7.585938 5.621094 7.378906 5.707031 C 7.171875 5.796875 6.953125 5.828125 6.730469 5.8125 C 6.503906 5.792969 6.296875 5.722656 6.109375 5.601562 C 5.902344 5.472656 5.832031 5.601562 5.742188 5.699219 C 5.652344 5.796875 5.445312 5.847656 5.585938 6.09375 C 5.710938 6.28125 5.785156 6.488281 5.808594 6.714844 C 5.832031 6.941406 5.800781 7.15625 5.714844 7.367188 C 5.632812 7.578125 5.503906 7.757812 5.328125 7.902344 C 5.15625 8.046875 4.957031 8.144531 4.738281 8.195312 C 4.53125 8.195312 4.53125 8.351562 4.550781 8.488281 C 4.570312 8.628906 4.441406 8.835938 4.726562 8.914062 C 4.949219 8.960938 5.144531 9.054688 5.320312 9.199219 C 5.496094 9.34375 5.625 9.523438 5.710938 9.730469 C 5.800781 9.941406 5.832031 10.15625 5.8125 10.382812 C 5.789062 10.609375 5.71875 10.816406 5.59375 11.003906 C 5.464844 11.214844 5.59375 11.273438 5.703125 11.359375 C 5.8125 11.449219 5.859375 11.65625 6.097656 11.507812 C 6.289062 11.386719 6.496094 11.3125 6.71875 11.292969 C 6.945312 11.269531 7.164062 11.304688 7.371094 11.390625 C 7.582031 11.476562 7.757812 11.609375 7.902344 11.78125 C 8.046875 11.957031 8.144531 12.15625 8.1875 12.378906 C 8.257812 12.625 8.40625 12.566406 8.554688 12.566406 C 8.703125 12.566406 8.851562 12.566406 8.917969 12.378906 C 8.941406 12.269531 8.976562 12.164062 9.023438 12.0625 C 9.074219 11.960938 9.132812 11.867188 9.203125 11.78125 C 9.277344 11.695312 9.355469 11.621094 9.445312 11.554688 C 9.535156 11.488281 9.632812 11.433594 9.734375 11.390625 C 9.839844 11.347656 9.945312 11.320312 10.058594 11.300781 C 10.167969 11.285156 10.277344 11.285156 10.390625 11.296875 C 10.5 11.304688 10.609375 11.332031 10.714844 11.367188 C 10.820312 11.40625 10.917969 11.457031 11.011719 11.519531 C 11.257812 11.65625 11.296875 11.449219 11.414062 11.359375 C 11.535156 11.273438 11.632812 11.203125 11.515625 10.996094 C 11.390625 10.808594 11.320312 10.605469 11.300781 10.382812 C 11.277344 10.160156 11.308594 9.949219 11.390625 9.742188 C 11.476562 9.535156 11.601562 9.359375 11.773438 9.214844 C 11.941406 9.070312 12.136719 8.972656 12.351562 8.925781 C 12.578125 8.855469 12.578125 8.707031 12.578125 8.539062 C 12.578125 8.371094 12.578125 8.253906 12.371094 8.195312 C 12.152344 8.144531 11.957031 8.046875 11.789062 7.902344 C 11.617188 7.761719 11.488281 7.585938 11.398438 7.378906 C 11.3125 7.171875 11.277344 6.957031 11.292969 6.734375 C 11.3125 6.511719 11.378906 6.304688 11.492188 6.113281 Z M 11.59375 5.964844 " fill-opacity="1" fill-rule="nonzero"/></g><path fill="#ffffff" d="M 11.089844 8.539062 C 11.113281 8.890625 11.0625 9.230469 10.945312 9.5625 C 10.824219 9.890625 10.644531 10.183594 10.402344 10.441406 C 10.164062 10.695312 9.882812 10.894531 9.558594 11.035156 C 9.238281 11.171875 8.902344 11.242188 8.550781 11.242188 C 8.199219 11.242188 7.859375 11.171875 7.539062 11.035156 C 7.214844 10.894531 6.933594 10.695312 6.695312 10.441406 C 6.453125 10.183594 6.273438 9.890625 6.15625 9.5625 C 6.035156 9.230469 5.988281 8.890625 6.007812 8.539062 C 5.988281 8.1875 6.035156 7.847656 6.15625 7.519531 C 6.273438 7.1875 6.453125 6.894531 6.695312 6.636719 C 6.933594 6.382812 7.214844 6.183594 7.539062 6.046875 C 7.859375 5.90625 8.199219 5.835938 8.550781 5.835938 C 8.902344 5.835938 9.238281 5.90625 9.558594 6.046875 C 9.882812 6.183594 10.164062 6.382812 10.402344 6.636719 C 10.644531 6.894531 10.824219 7.1875 10.945312 7.519531 C 11.0625 7.847656 11.113281 8.1875 11.089844 8.539062 Z M 10.25 8.539062 C 10.25 8.3125 10.207031 8.097656 10.117188 7.890625 C 10.03125 7.679688 9.90625 7.496094 9.746094 7.339844 C 9.585938 7.179688 9.402344 7.054688 9.191406 6.972656 C 8.984375 6.886719 8.765625 6.84375 8.542969 6.84375 C 8.316406 6.84375 8.097656 6.886719 7.890625 6.972656 C 7.679688 7.058594 7.496094 7.183594 7.335938 7.34375 C 7.179688 7.503906 7.054688 7.6875 6.96875 7.894531 C 6.882812 8.101562 6.839844 8.320312 6.835938 8.546875 C 6.835938 8.773438 6.878906 8.988281 6.964844 9.199219 C 7.050781 9.40625 7.175781 9.589844 7.332031 9.75 C 7.492188 9.910156 7.675781 10.035156 7.882812 10.121094 C 8.09375 10.210938 8.308594 10.253906 8.535156 10.257812 C 8.761719 10.257812 8.980469 10.21875 9.191406 10.132812 C 9.402344 10.046875 9.589844 9.921875 9.75 9.761719 C 9.910156 9.601562 10.035156 9.417969 10.121094 9.207031 C 10.210938 8.996094 10.253906 8.777344 10.25 8.550781 Z M 10.25 8.539062 " fill-opacity="1" fill-rule="nonzero"/></svg>