<?xml version="1.0" encoding="utf-8"?>
<!-- Generator: Adobe Illustrator 24.3.0, SVG Export Plug-In . SVG Version: 6.00 Build 0)  -->
<svg version="1.1" id="Layer_1" xmlns="http://www.w3.org/2000/svg" xmlns:xlink="http://www.w3.org/1999/xlink" x="0px" y="0px"
	 viewBox="0 0 221.3 72" style="enable-background:new 0 0 221.3 72;" xml:space="preserve">
<style type="text/css">
	.st0{fill:#E12A27;}
	.st1{fill:#FFFFFF;}
</style>
<g id="Layer_2_1_">
	<g id="svg4403">
		<path id="path1" class="st0" d="M43,46.7c-1.5-2.8-3-5.6-4.5-8.4l-4.7,8.4H43z M12.9,65.6H54c-1-0.7-2.3-3.5-2.3-3.5H13.2
			c-3.9-0.3-4.5-6.3,0.6-6.1h34.5l-2-3.6H12.6C4.4,52.9,4.1,64.9,12.9,65.6z M69.9,55.8L49,18.2c-0.3,1.5-0.8,2.9-1.6,4.1l19.3,34.9
			c1.7,3.6-3.3,7-5.7,2.5L44,28.6l-2,3.6l16.6,30.1C62.9,69.4,73.6,63.8,69.9,55.8L69.9,55.8z M32.9,9.3l-21.1,38
			c1.3-0.5,2.8-0.7,4.2-0.5l19.8-35.6c2.2-3.3,7.7-0.8,5.1,3.5l-17.9,32H27l17.5-31.2C48.2,8.1,37.8,2,32.9,9.3L32.9,9.3z
			 M75.6,54.6c4,8.2-2.6,17-9.5,17H11.6h-0.2C2.1,71.6-2.2,61.2,1.1,55L28.9,5.1c4.6-7.1,15.2-6.6,19.5,0.1L74.8,53L75.6,54.6z"/>
		<path id="path2" class="st1" d="M137.4,34h11c4.2,0,4.9,3.3,4.8,5.2c-0.1,3.3-2.1,4-4.1,4.5c1.4,2.1,3.7,4.9,5.2,6.9h-5.9
			l-5.8-9.3c0,0,2.8,0,4.2,0c2.3,0,2.2-3.8,0-3.8h-4.5v13.1h-4.9L137.4,34 M90.5,59.4h2.8c3.4,0,5.6,1.4,5.6,4.2
			C98.8,66.7,97,68,93.2,68h-2.8L90.5,59.4z M85.8,71.5h8.3c5.8,0,9.4-2.8,9.4-7.9c0-4.9-3.5-7.8-9.4-7.8h-8.3V71.5z M105.3,71.5
			h14.9V68h-10.4v-3h9.3v-3.1h-9.3v-2.8H120v-3.3h-14.7V71.5z M122.1,71.6h4.3v-9.8h0.1l7,9.9h5.1V55.8h-4.2v9.7h-0.5l-6.7-9.7h-5.1
			L122.1,71.6z M192.9,68.3c-3.3,0-4.6-2.4-4.6-4.8s1.3-4.8,4.6-4.8s4.6,2.4,4.6,4.8S196.2,68.3,192.9,68.3 M183.2,63.5
			c0,4.7,3.5,8.5,9.7,8.5s9.7-3.8,9.7-8.5s-3.5-8.5-9.7-8.5S183.2,58.8,183.2,63.5z M142,71.5h4.4v-9.8h0.1l7,9.8h5.1V55.8h-4.2v9.8
			h-0.5l-6.6-9.8H142L142,71.5z M161.7,71.6h4.7V55.8h-4.7V71.6z M168.9,71c1.7,0.5,3.5,0.8,5.3,0.7c1.9-0.1,5.6-0.3,7.1-2.6
			c0.5-0.8,0.7-1.7,0.7-2.7c0-5.8-8.4-4.1-8.4-6.7c0-1.4,2-1.5,3.2-1.5c1.3,0,2.7,0.2,3.9,0.7l0.3-3.3c-1.5-0.4-3-0.6-4.6-0.6
			c-3.6,0-7.7,1.1-7.7,4.9c0,5.9,8.4,4,8.4,7c0,0.2,0,0.5-0.2,0.7c-0.5,0.8-1.9,0.9-2.8,0.9c-1.7,0-3.3-0.3-4.9-1.1L168.9,71z
			 M204.8,71.5h4.4v-9.8h0.1l7,9.8h5.1V55.8h-4.2v9.8h-0.5l-6.6-9.8h-5.1L204.8,71.5z M95.1,38.3l2.2,4.9H93L95.1,38.3z M85.1,50.4
			h4.6l1.7-3.6h7.5l1.7,3.6h4.8L98,33.9h-5.4L85.1,50.4z M120.2,33.9h-5l-4.4,11.5L106,33.9h-5l7.2,16.5h5L120.2,33.9z M171.9,33.9
			h-5.8l-3.9,6.7l-3.9-6.7h-5.8l7.1,10.3v6.1h5.1v-6.1L171.9,33.9z M120.8,50.5h14.9v-3.7h-10.4v-3.1h9.3v-3.3h-9.3v-2.9h10.1V34
			h-14.6V50.5z"/>
	</g>
</g>
</svg>
