<svg xmlns="http://www.w3.org/2000/svg" viewBox="0 0 293.89 72"><defs><style>.cls-1{fill:#e11e26;}.cls-2{fill:#fff;}</style></defs><g id="Layer_2" data-name="Layer 2"><g id="svg4403"><rect class="cls-1" width="293.89" height="72"/><path class="cls-2" d="M17.66,10.94H42.79c-.41,3.8-.83,7.59-1.23,11.39H28.18L27.1,31.42H40.66c-.33,3-.65,6.08-1,9.12H26c-.4,3.44-.83,6.87-1.23,10.31H38.59c-.34,3.35-.7,6.69-1.06,10H11.67q3-25,6-50"/><path class="cls-2" d="M69,11c3.84-.07,7.68,0,11.51,0q-9.06,25-18.13,50H51.26q-2.8-25-5.59-49.94H57.33c.63,9.91,1.23,19.82,1.88,29.73a3,3,0,0,0,.46-1C62.75,30.09,65.89,20.54,69,11"/><path class="cls-2" d="M83,10.86h25.12c-.42,3.8-.81,7.6-1.23,11.39H93.5c-.35,3-.71,6.07-1.06,9.1,4.51,0,9,0,13.53,0-.31,3-.65,6.07-1,9.1-4.57,0-9.14,0-13.71,0q-.63,5.18-1.23,10.35h13.87c-.37,3.34-.71,6.68-1.07,10H77q3-25,6-50"/><path class="cls-2" d="M113.05,10.85c6.38,0,12.77,0,19.15,0a14.46,14.46,0,0,1,6.6,1.22,6.94,6.94,0,0,1,2.63,2.61,13,13,0,0,1,1.92,5.55,21.56,21.56,0,0,1-2,11.55c-1.08,2.17-2.68,4.29-5,5.16a6.05,6.05,0,0,1,3.45,3.37,10.25,10.25,0,0,1,.71,3.87,34.73,34.73,0,0,1-.74,8.81,10.91,10.91,0,0,0-.46,4.12,4.17,4.17,0,0,0,1.66,2.39c0,.42,0,.84,0,1.25H129.78a2.11,2.11,0,0,1-1.5-.45,2.37,2.37,0,0,1-.29-1.73c.41-3.41.77-6.84,1-10.27a6.33,6.33,0,0,0-.48-3.47,3.34,3.34,0,0,0-2.81-1.56c-1.62,0-3.25,0-4.88,0-.68,5.86-1.31,11.72-2,17.58H107.22q2.9-25,5.83-50M123.64,22q-.66,6-1.31,12c1.62,0,3.23,0,4.84,0,1.45-.18,2.42-1.49,3-2.7a12.91,12.91,0,0,0,1.1-6.71A2.6,2.6,0,0,0,129.15,22c-1.84-.05-3.67,0-5.51,0"/><path class="cls-2" d="M149.25,10.94q12.56,0,25.12,0l-1.23,11.38H159.77c-.37,3-.72,6.07-1.07,9.1,4.51,0,9,0,13.52,0-.3,3-.65,6.08-1,9.12-4.57,0-9.13,0-13.71,0-.41,3.44-.81,6.88-1.22,10.31,4.62,0,9.24,0,13.86,0-.35,3.31-.69,6.63-1.05,9.94H143.26q3-24.94,6-49.88"/><path class="cls-2" d="M189.9,10.86h12q3.09,25,6.15,49.94c-3.52,0-7,0-10.56,0-.33-2.35-.55-4.73-.84-7.09h-12.4q-1.26,3.57-2.54,7.14H171q9.45-25,18.88-50m3.32,17.84q-2.7,7.15-5.4,14.3h8.62c-.76-5.52-1.49-11-2.29-16.55a13.73,13.73,0,0,0-.93,2.24"/><path class="cls-2" d="M217.05,10.94H234.6a12.16,12.16,0,0,1,9.52,5,9.77,9.77,0,0,1,2.07,6.65c-1.06,8.35-2.07,16.71-3.09,25.08a14.83,14.83,0,0,1-5.85,9.81,16.86,16.86,0,0,1-9.82,3.33H210.35q3.36-24.94,6.7-49.88m9.43,10.67Q224.74,35.47,223,49.35c1.64,0,3.27.06,4.91,0a5,5,0,0,0,2.73-.49A3.9,3.9,0,0,0,232,46c1-7.27,2-14.54,2.86-21.83a2.29,2.29,0,0,0-.25-1.74,2.71,2.71,0,0,0-2.19-.79c-2,0-4,0-6,0"/><path class="cls-2" d="M246.67,11c3.89,0,7.78,0,11.66,0,1.62,5.86,3.22,11.74,4.85,17.6q4.69-8.77,9.32-17.57c3.87-.07,7.73,0,11.6,0L267.56,41a3.84,3.84,0,0,0-.58,1.27q-1.32,9.3-2.66,18.58H253q1.05-8.59,2.08-17.18a8.93,8.93,0,0,0,.15-2.24Q250.94,26.18,246.67,11"/><path class="cls-2" d="M276.72,49.25a5.87,5.87,0,1,1-4,3.4,5.9,5.9,0,0,1,4-3.4m.49,1.61a4.25,4.25,0,0,0-3,2.51,4.18,4.18,0,1,0,3-2.51"/><path class="cls-2" d="M276.17,52.13a20.91,20.91,0,0,1,3,.08,1.65,1.65,0,0,1,.1,3.08c.41.83.82,1.65,1.22,2.48h-1.2l-1.06-2.28h-.93c0,.76,0,1.53,0,2.29h-1.08Zm1.09.87c0,.53,0,1,0,1.58a4.53,4.53,0,0,0,1.6-.13.83.83,0,0,0-.24-1.41,9,9,0,0,0-1.37,0"/></g></g></svg>