<svg xmlns="http://www.w3.org/2000/svg" viewBox="0 0 392.6 72"><defs><style>.cls-1{fill:#1978be;}</style></defs><g id="Layer_2" data-name="Layer 2"><g id="svg4403"><path class="cls-1" d="M39.87,26.59c0,9-4.33,15-15.3,15H21.09V13.08C22.32,13,23.48,13,24.57,13c10.38,0,15.3,4.91,15.3,13.58M28.61,54.07c19.64,0,32.06-10.13,32.06-27.76C60.67,6.93,47.37,0,25.71,0A236.6,236.6,0,0,0,0,1.45V70.54H21.09V54.07ZM311.12,26.59c0,9-4.32,15-15.31,15h-3.46V13.08c1.23-.07,2.38-.07,3.46-.07,10.39,0,15.31,4.91,15.31,13.58M299.85,54.07c19.63,0,32.06-10.13,32.06-27.76C331.91,6.93,318.63,0,297,0a236.45,236.45,0,0,0-25.71,1.45V70.54h21.09V54.07Zm59.51-35c0-3.76,3.75-5.5,9.82-5.5A53,53,0,0,1,388,17.05L386.23,2a83.17,83.17,0,0,0-19.36-2c-17,0-28.59,6.73-28.59,20.83,0,24.28,32.94,19.36,32.94,30.64,0,4.34-3.17,6.65-11,6.65-6.92,0-17.62-2.31-24-5.48l2.31,15.9c6.35,2.31,15,3.46,21.95,3.46,17.62,0,32.07-5.78,32.07-23.14,0-23.13-33.24-18.79-33.24-29.78m-104-17.63H234.28V70.54h21.09Zm-85.52,0H148.76V70.54h21.09V1.45Zm36.69,55.21V1.45H185.45V70.54h38.13l3.17-13.88ZM133.17,1.45H112.08V28.9h-22V1.45H69.05V70.54H90.14V43.36h22V70.54h21.1l0-69.09Z"/></g></g></svg>