<svg xmlns="http://www.w3.org/2000/svg" viewBox="0 0 216.08 72"><defs><style>.cls-1{fill:#231f20;}.cls-2{fill:#edac09;}</style></defs><g id="Layer_2" data-name="Layer 2"><g id="svg4403"><g id="g10"><g id="g12"><path id="path36" class="cls-1" d="M51,7.8,39.86,48.42H33.4L25.55,18.91l-8,29.51H11.11L0,7.8H6.4l7.92,29.5,8-29.5h6.34l8,29.5L44.58,7.8H51"/><path id="path38" class="cls-1" d="M53.94,7.91l6.4-.52v10l-.12,3.73h.24a22.08,22.08,0,0,1,8.26-1.63c5.18,0,8.67,2.32,8.67,11.23V48.42H71V31.19c0-5.35-2.62-6.05-5.59-6.05a17.93,17.93,0,0,0-5.06.87V48.42h-6.4V7.91"/><path id="path40" class="cls-1" d="M83,19.84h6.41V48.42H83ZM86.18,8.32c3.31,0,3.84,1.92,3.84,4.07s-.7,4.14-3.84,4.14-3.79-2-3.79-4.14S83,8.32,86.18,8.32"/><path id="path42" class="cls-1" d="M94.79,19.84h4.36l.87,2.33h.41a12,12,0,0,1,7.86-2.73,12.55,12.55,0,0,1,1.34,0v6.29a25.23,25.23,0,0,0-3.61-.35,11.2,11.2,0,0,0-4.83,1.16V48.42h-6.4V19.84"/><path id="path44" class="cls-1" d="M112.36,48.42V7.91l6.4-.52v41h-6.4"/><path id="path46" class="cls-1" d="M170.32,34.27c0-5.41-.88-9.83-6-9.83s-6.46,4.25-6.46,9.83c0,5.18,1,9.66,6.17,9.66S170.32,39.69,170.32,34.27Zm-6.06-14.83c9.08,0,12.58,5.35,12.58,14.83,0,8.91-3.26,14.73-12.69,14.73S151.4,43.18,151.4,34.27c0-9.48,3.79-14.83,12.86-14.83"/><path id="path48" class="cls-1" d="M199,34.27c0-5.41-.87-9.83-6-9.83s-6.47,4.25-6.47,9.83c0,5.18,1.05,9.66,6.17,9.66S199,39.69,199,34.27ZM193,19.44c9.07,0,12.57,5.35,12.57,14.83,0,8.91-3.26,14.73-12.69,14.73s-12.74-5.82-12.74-14.73c0-9.48,3.78-14.83,12.86-14.83"/><path id="path50" class="cls-1" d="M209.68,48.42V7.91l6.4-.52v41h-6.4"/><path id="path52" class="cls-1" d="M130.4,43.12c1.8.06,2.79.11,4.65.11,4,0,6.58-2.09,6.58-10.41,0-5.71-2.33-7.22-6.52-7.22a14.41,14.41,0,0,0-4.71.82v16.7ZM124,19.84h4.83l.52,2.1a20,20,0,0,1,8.67-2.5c5.82,0,10.07,4.24,10.07,14.43,0,10-4.48,15-11.93,15a35.68,35.68,0,0,1-5.76-.58V61.33L124,62V19.84"/><path id="path54" class="cls-2" d="M155.69,2.29c-4.79-5.55-20-.67-36.93,11.06v3C133.69,5.69,146.85.8,150.62,5.16c4.7,5.46-7,23.29-26.15,39.82S86,70.46,81.27,65c-2.45-2.83-.46-9,4.7-16.6H83c-6.38,9.53-8.77,17.52-5.5,21.32,6,6.93,28.33-2.54,49.93-21.18S161.66,9.21,155.69,2.29"/></g></g></g></g></svg>