<svg xmlns="http://www.w3.org/2000/svg" viewBox="0 0 521.6 72"><defs><style>.cls-1{fill:#001722;}</style></defs><g id="Layer_2" data-name="Layer 2"><g id="svg4403"><path class="cls-1" d="M309.67,63a35,35,0,0,1-13.76-2.57,22.91,22.91,0,0,1-13.26-14.83,31.23,31.23,0,0,1,0-18.82,23.14,23.14,0,0,1,14.94-15.72,34.48,34.48,0,0,1,25,.31c8.52,3.38,13.38,9.89,15,18.81a31,31,0,0,1-1,15.85c-2.95,8.55-9,13.85-17.74,15.88-3,.69-6.08.91-9.12,1.34Zm-21-26.15c.09,1.08.18,2.9.39,4.71a26,26,0,0,0,.71,3.6c1.56,5.77,4.59,10.44,10.13,13.13a22.62,22.62,0,0,0,13.15,1.87c6.84-.93,12.11-4.31,14.9-10.7a33,33,0,0,0,.26-26.17,17.29,17.29,0,0,0-11-10.29,23.66,23.66,0,0,0-11.17-.93c-6.61,1-11.57,4.31-14.58,10.37C289.34,26.76,288.77,31.38,288.68,36.86Z"/><path class="cls-1" d="M189.4,10c1.73.09,3.52.26,5.31.25,2.9,0,5.8-.17,8.7-.25,4-.1,7.92,0,11.68,1.48,4.27,1.74,6.38,5.31,6.22,9.9-.21,6.15-3.82,9.52-9.1,11.63-1.1.44-2.24.75-3.38,1.13,1.63.28,3.24.45,4.79.83,6.89,1.71,9.87,6,9.5,13-.37,6.84-5.1,11.13-10.88,12.85a28.88,28.88,0,0,1-9,1.11c-2.33-.05-4.67-.1-7-.12s-4.6,0-6.86,0c.13-8.55.37-17.18.37-25.8S189.54,18.79,189.4,10Zm7,49c3.42.2,6.64.71,9.85.16a11.11,11.11,0,0,0,8.29-5.83,13.33,13.33,0,0,0,1.54-7.63c-.38-4.68-2.44-7.25-6.93-8.61-4.25-1.28-8.63-1.07-13.2-1C196.09,43.77,196.24,51.37,196.39,59.05Zm-.46-25.86c3.83.08,7.43.21,10.91-.87C211,31,213.93,28.56,214.49,24c.69-5.54-1.55-9.36-6.82-10.64a30,30,0,0,0-11.26-.17C196.25,19.84,196.09,26.46,195.93,33.19Z"/><path class="cls-1" d="M243.75,37.19c.21,8.23.42,16.44.63,24.72h-7.3q1.23-25.89,0-51.89c2,.09,3.93.27,5.84.26,3.14,0,6.28-.16,9.42-.25a28.6,28.6,0,0,1,9.95,1.06c5.76,1.88,8.4,6.28,7.78,12.42-.4,3.87-2.5,6.71-5.5,9a21.83,21.83,0,0,1-9.12,3.8c-.22,0-.45.11-.85.21l20.35,25.36h-5.5a4.81,4.81,0,0,0-1.26,0c-1.43.38-2.14-.35-3-1.43-5.25-6.9-10.6-13.73-15.93-20.58-.4-.52-1-.93-1.3-1.48C247,36.78,245.48,37,243.75,37.19Zm.53-24q-.24,10.41-.49,20.67a25.44,25.44,0,0,0,11.15-.38c5.08-1.5,8-4.91,8.46-9.73.46-5.19-2.22-9.15-7.1-10.38C252.37,12.38,248.4,12.83,244.28,13.18Z"/><path class="cls-1" d="M356.53,61.91H351.2a467.6,467.6,0,0,0,1.31-52.8,1.58,1.58,0,0,1,1.84.55Q369,25.43,383.61,41.16c2.51,2.69,5.09,5.32,7.64,8,.21.21.43.4.83.78,0-13.4,0-26.59-.59-39.69h5c-1.54,17.47-1.32,35.07-.93,52.64a1.3,1.3,0,0,1-1.68-.43c-12-13.83-24.61-27-37.13-40.36a2.07,2.07,0,0,0-.52-.5C355.68,35,356,48.44,356.53,61.91Z"/><path class="cls-1" d="M122.06,13.7a259.3,259.3,0,0,0-29.46.93V10.11c13,.22,26.2.51,39.6,0a5.28,5.28,0,0,1-.46,1.65c-3.81,5.14-7.82,10.15-11.47,15.4-7,10-13.72,20.11-20.57,30.18-.21.32-.4.66-.72,1.17,11.13.53,22-.33,32.9-1.11v4.55H89.08a7.75,7.75,0,0,1,.61-1.59L121.2,15C121.47,14.63,121.71,14.23,122.06,13.7Z"/><path class="cls-1" d="M519.36,12.35c-.72,2.31-1.38,4.41-2.05,6.54-.64.25-.89-.13-1.11-.71-1.13-2.92-3-5.16-6.11-6a9.56,9.56,0,0,0-9.8,2.47c-2.7,2.74-3.13,6.14-2.08,9.75a8,8,0,0,0,4,4.68,71.78,71.78,0,0,0,7.5,3.61c3.07,1.29,6.12,2.55,8.57,4.94a10.4,10.4,0,0,1,3.29,7c.35,5.27-1,10-5,13.68a16.9,16.9,0,0,1-10.71,4.52,41.77,41.77,0,0,1-6.71-.11,17,17,0,0,1-8.06-3.31c-.51-.34-.54-.65-.38-1.24.52-2,.93-3.94,1.4-6,.54-.22.81.13,1.09.68a12.85,12.85,0,0,0,13.55,7c6.07-1,9.45-6.32,8.83-12.18a8.49,8.49,0,0,0-3.83-6.11,33.67,33.67,0,0,0-7.87-3.87,25.43,25.43,0,0,1-8.26-4.78c-3.2-2.95-4.12-6.68-3.81-10.84.55-7.53,6-11.59,12.14-12.7a20,20,0,0,1,12.4,1.22C517.44,11.12,518.43,11.8,519.36,12.35Z"/><path class="cls-1" d="M173.73,10.19c0,.65-.13,1.36-.13,2.07s.1,1.42.15,2.2l-20-1.07V33.26l18.14-.73v4.3l-18.21-.58V58.66c6.86,0,13.59.06,20.31-.91v4.17H146.76q1.22-25.89,0-51.73Z"/><path class="cls-1" d="M476.81,12.41c-.44,1.86-.84,3.6-1.27,5.34a3.1,3.1,0,0,1-.39.74,3.84,3.84,0,0,1-.63-.42c-3.37-3.33-7.29-5.75-12.08-6.13-9.85-.79-18.59,3.5-21.63,14.54a33.64,33.64,0,0,0,.93,21.92c3.11,7.72,9.18,11.41,17.33,12,6.19.41,11.38-2,16.13-5.68a2.4,2.4,0,0,1,.93-.48c-.12,1.66,0,3.35-.79,4.82-.31.61-1.28,1-2,1.25C464.2,63.83,455,64.2,446,60.16,439,57,434.85,51.32,433,44a30.64,30.64,0,0,1,1.23-19.53c3.2-7.72,9.13-12.37,17.13-14.37a38.91,38.91,0,0,1,25,2.09c.14.05.27.12.41.18S476.87,12.45,476.81,12.41Z"/><path class="cls-1" d="M411.65,10.21h7.4c-.79,17.13-.81,34.4,0,51.71h-7.4Q412.9,36,411.65,10.21Z"/><path class="cls-1" d="M76.09,23a64.65,64.65,0,0,1,1.77,6.28c2.49,13.91-2.27,25.09-13,34a2.58,2.58,0,0,1-3.16.42A147.93,147.93,0,0,0,36.6,55.29a63.89,63.89,0,0,1-7.52-2.64,8.58,8.58,0,0,1-2.26-1.44,2.73,2.73,0,0,1-.4-4.31A13.88,13.88,0,0,1,29.91,44c4.26-2.3,8.59-4.46,12.94-6.6q10.17-5,20.41-9.91a50.73,50.73,0,0,1,5.14-1.86C70.88,24.77,73.37,23.94,76.09,23Z"/><path class="cls-1" d="M71.22,15c-3.22,1.46-6.38,2.83-9.48,4.31-9.17,4.38-18.31,8.86-27.5,13.22A138.49,138.49,0,0,1,12.81,41C9,42.07,5.19,43.1,1.38,44.15a2.67,2.67,0,0,1-.42,0C.71,42.74.39,41.32.23,39.88A33.33,33.33,0,0,1,3.67,20.74a1.33,1.33,0,0,1,1.48-.85c5.09.06,10.2.25,15.27-.07,7-.44,14-1.2,21-2,9.13-1.06,18.19-2.64,27.18-4.55a1.28,1.28,0,0,1,1.6.53C70.49,14.2,70.85,14.57,71.22,15Z"/><path class="cls-1" d="M51.07,70.25a41.62,41.62,0,0,1-25.32-.46A37.92,37.92,0,0,1,6.47,55.65C21.54,59.92,36.16,65.51,51.07,70.25Z"/><path class="cls-1" d="M62.22,6.76C46.79,8,31.39,7.64,16.1,7,18.81,4.09,29.49.43,36.78.06A41.69,41.69,0,0,1,62.22,6.76Z"/></g></g></svg>