<?xml version="1.0" encoding="UTF-8"?>
<!DOCTYPE svg PUBLIC "-//W3C//DTD SVG 1.1//EN" "http://www.w3.org/Graphics/SVG/1.1/DTD/svg11.dtd">
<!-- Creator: CorelDRAW 2021 (64-Bit) -->
<svg xmlns="http://www.w3.org/2000/svg" xml:space="preserve" width="1.85789in" height="0.739217in" version="1.1" style="shape-rendering:geometricPrecision; text-rendering:geometricPrecision; image-rendering:optimizeQuality; fill-rule:evenodd; clip-rule:evenodd"
viewBox="0 0 1857.48 739.05"
 xmlns:xlink="http://www.w3.org/1999/xlink"
 xmlns:xodm="http://www.corel.com/coreldraw/odm/2003">
 <defs>
  <style type="text/css">
   <![CDATA[
    .str0 {stroke:#34302F;stroke-width:1.37;stroke-miterlimit:10}
    .fil1 {fill:none;fill-rule:nonzero}
    .fil0 {fill:#FEFEFE;fill-rule:nonzero}
    .fil7 {fill:#D32424;fill-rule:nonzero}
    .fil9 {fill:#E4B630;fill-rule:nonzero}
    .fil4 {fill:#F3C07A;fill-rule:nonzero}
    .fil11 {fill:#AF831F;fill-rule:nonzero}
    .fil5 {fill:#A12C2F;fill-rule:nonzero}
    .fil8 {fill:#71C6D3;fill-rule:nonzero}
    .fil6 {fill:#47BEDB;fill-rule:nonzero}
    .fil3 {fill:#1D919F;fill-rule:nonzero}
    .fil10 {fill:#1F6776;fill-rule:nonzero}
    .fil2 {fill:#233760;fill-rule:nonzero}
   ]]>
  </style>
 </defs>
 <g id="Layer_x0020_1">
  <metadata id="CorelCorpID_0Corel-Layer"/>
  <g id="_2343451100464">
   <path class="fil0" d="M1775.61 738.37l-1693.75 0c-44.84,0 -81.19,-36.35 -81.19,-81.22l0 -575.27c0,-44.84 36.35,-81.2 81.19,-81.2l1693.75 0c44.83,0 81.19,36.36 81.19,81.2l0 575.27c0,44.86 -36.35,81.22 -81.19,81.22z"/>
   <path class="fil1 str0" d="M1775.61 738.37l-1693.75 0c-44.84,0 -81.19,-36.35 -81.19,-81.22l0 -575.27c0,-44.84 36.35,-81.2 81.19,-81.2l1693.75 0c44.83,0 81.19,36.36 81.19,81.2l0 575.27c0,44.86 -36.35,81.22 -81.19,81.22z"/>
   <path class="fil2" d="M830.13 439.32c45.8,0 77.65,-24.82 77.65,-63.84 0,-32.92 -22.3,-50.97 -57.74,-67.7 -24.55,-11.54 -40.75,-15.93 -40.75,-28.66 0,-11.02 11.94,-20.31 28.01,-20.31 11.94,0 24.28,5.17 30.66,17.92l31.73 -22.16c-9.69,-25.89 -33.85,-37.96 -63.05,-37.96 -39.29,0 -70.62,24.42 -70.62,61.46 0,34.11 26.42,47.25 50.44,59.2 22.44,11.15 48.05,23.49 48.05,39.16 0,11.41 -13.54,19.65 -33.71,19.65 -18.45,0 -32.12,-6.9 -41.55,-22.03l-34.37 24.16c14.33,26.55 40.22,41.14 75.25,41.14zm308.08 -124.37l-100.61 0 0 39.69 55.35 0c-1.46,25.75 -23.35,41.41 -53.89,41.41 -41.81,0 -70.75,-30.53 -70.75,-67.7 0,-39.95 33.59,-68.1 66.77,-68.1 19.11,0 38.22,9.3 54.96,25.62l23.88 -35.7c-20.97,-20.44 -50.57,-33.18 -78.31,-33.45 -61.19,0 -111.09,50.43 -111.09,111.62 0,61.06 49.63,110.97 112.68,110.97 55.75,0 102.07,-39.15 102.07,-106.32 0,-5.84 -0.4,-11.81 -1.06,-18.05zm236.14 -99.15l-102.34 141.36 -102.47 -141.36 -2.39 0 0 219.27 43.01 0 0 -93.18 61.72 89.59 0.27 0 61.59 -89.59 0 93.18 43.01 0 0 -219.27 -2.39 0zm183.04 219.27l46.59 0 -102.34 -219.27 -1.33 0 -102.21 219.27 46.46 0 13.67 -29.87 85.61 0 13.54 29.87zm-82.43 -66.5l26.15 -57.21 26.02 57.21 -52.17 0z"/>
   <path class="fil3" d="M785.87 510.24c2.52,-1.17 4.45,-2.69 5.74,-4.62 1.28,-1.93 1.93,-4.03 1.93,-6.32 0,-2.16 -0.41,-3.92 -1.29,-5.33 -0.88,-1.4 -2.05,-2.52 -3.45,-3.39 -1.41,-0.88 -2.93,-1.52 -4.62,-2.05 -1.7,-0.52 -3.4,-0.94 -5.09,-1.34 -1.7,-0.41 -3.28,-0.76 -4.68,-1.17 -1.41,-0.41 -2.52,-0.94 -3.4,-1.58 -0.88,-0.65 -1.28,-1.47 -1.28,-2.52 0,-0.88 0.24,-1.7 0.76,-2.4 0.52,-0.64 1.35,-1.23 2.52,-1.64 1.17,-0.41 2.69,-0.65 4.51,-0.65 1.81,0 3.69,0.23 5.62,0.76 1.93,0.52 3.81,1.34 5.74,2.46l2.92 -7.2c-1.92,-1.23 -4.09,-2.11 -6.61,-2.75 -2.52,-0.58 -5.04,-0.88 -7.62,-0.88 -3.87,0 -7.08,0.58 -9.6,1.7 -2.57,1.17 -4.51,2.69 -5.74,4.63 -1.28,1.93 -1.93,4.1 -1.93,6.44 0,2.17 0.47,3.98 1.35,5.38 0.88,1.4 1.99,2.52 3.39,3.39 1.4,0.88 2.99,1.59 4.68,2.11 1.7,0.52 3.39,1 5.09,1.34 1.7,0.41 3.22,0.77 4.62,1.17 1.41,0.41 2.52,0.94 3.4,1.58 0.88,0.65 1.29,1.53 1.29,2.63 0,0.89 -0.3,1.65 -0.82,2.29 -0.53,0.64 -1.41,1.17 -2.52,1.52 -1.17,0.41 -2.69,0.59 -4.57,0.59 -2.46,0 -4.86,-0.41 -7.26,-1.23 -2.4,-0.76 -4.51,-1.81 -6.26,-3.05l-3.22 7.14c1.81,1.41 4.27,2.52 7.26,3.4 2.99,0.88 6.14,1.34 9.43,1.34 3.92,0 7.14,-0.58 9.72,-1.76zm42.97 0.18c2.69,-1.05 5.03,-2.52 7.08,-4.45 1.99,-1.87 3.57,-4.1 4.68,-6.73 1.11,-2.57 1.7,-5.38 1.7,-8.42 0,-3.11 -0.58,-5.92 -1.7,-8.49 -1.11,-2.52 -2.69,-4.74 -4.68,-6.68 -2.05,-1.93 -4.39,-3.4 -7.08,-4.45 -2.75,-1.05 -5.74,-1.58 -8.95,-1.58 -3.22,0 -6.15,0.52 -8.9,1.58 -2.75,1.05 -5.1,2.52 -7.15,4.45 -2.04,1.93 -3.57,4.16 -4.68,6.73 -1.11,2.57 -1.7,5.38 -1.7,8.43 0,3.04 0.59,5.85 1.7,8.42 1.11,2.57 2.63,4.8 4.68,6.73 1.99,1.93 4.4,3.39 7.15,4.45 2.74,1.05 5.73,1.58 8.95,1.58 3.22,0 6.14,-0.52 8.9,-1.58zm-14.05 -7.44c-1.58,-0.64 -2.92,-1.52 -4.03,-2.69 -1.17,-1.17 -2.05,-2.57 -2.69,-4.21 -0.65,-1.58 -1,-3.33 -1,-5.27 0,-1.93 0.35,-3.75 1,-5.33 0.64,-1.59 1.52,-2.99 2.69,-4.16 1.17,-1.17 2.52,-2.05 4.09,-2.69 1.53,-0.64 3.22,-0.94 5.04,-0.94 1.81,0 3.51,0.3 5.09,0.94 1.58,0.64 2.93,1.52 4.1,2.69 1.11,1.17 2.04,2.57 2.69,4.16 0.64,1.58 0.94,3.39 0.94,5.33 0,1.93 -0.3,3.75 -0.94,5.33 -0.65,1.58 -1.59,2.98 -2.75,4.15 -1.17,1.17 -2.52,2.05 -4.04,2.69 -1.58,0.64 -3.27,0.94 -5.09,0.94 -1.81,0 -3.51,-0.3 -5.1,-0.94zm64.68 8.31l0 -7.72 -20.54 0 0 -33.26 -9.48 0 0 40.98 30.02 0zm16.33 -15.98l6.5 -15.69 6.5 15.69 -13 0zm-6.67 15.98l3.63 -8.78 19.03 0 3.63 8.78 9.95 0 -18.32 -40.98 -9.37 0 -18.26 40.98 9.71 0zm49.98 0l0 -15.57 -4.21 4.27 12.47 0c3.69,0 6.85,-0.58 9.49,-1.81 2.63,-1.17 4.68,-2.86 6.14,-5.09 1.46,-2.22 2.16,-4.85 2.16,-7.9 0,-3.11 -0.7,-5.74 -2.16,-7.96 -1.47,-2.23 -3.51,-3.92 -6.14,-5.16 -2.64,-1.17 -5.8,-1.76 -9.49,-1.76l-17.73 0 0 40.98 9.48 0zm0 -37.76l-4.21 4.51 11.94 0c2.92,0 5.09,0.64 6.55,1.87 1.47,1.22 2.17,2.98 2.17,5.27 0,2.22 -0.7,3.98 -2.17,5.21 -1.46,1.23 -3.63,1.87 -6.55,1.87l-11.94 0 4.21 4.51 0 -23.24zm64.45 33.6c3.28,-3.22 4.92,-7.85 4.92,-13.87l0 -22.95 -9.37 0 0 22.6c0,3.92 -0.82,6.73 -2.4,8.43 -1.58,1.7 -3.87,2.57 -6.73,2.57 -2.86,0 -5.15,-0.88 -6.73,-2.57 -1.58,-1.7 -2.4,-4.51 -2.4,-8.43l0 -22.6 -9.49 0 0 22.95c0,6.03 1.64,10.65 4.92,13.87 3.27,3.22 7.84,4.85 13.63,4.85 5.8,0 10.36,-1.64 13.64,-4.85zm23.77 4.15l0 -15.57 -4.21 4.16 12.47 0c3.69,0 6.84,-0.59 9.49,-1.76 2.63,-1.17 4.68,-2.87 6.14,-5.1 1.46,-2.16 2.16,-4.79 2.16,-7.84 0,-3.11 -0.7,-5.74 -2.16,-7.96 -1.47,-2.23 -3.51,-3.92 -6.14,-5.16 -2.64,-1.17 -5.8,-1.76 -9.49,-1.76l-17.73 0 0 40.98 9.48 0zm26.81 0l-10.36 -14.87 -10.13 0 10.25 14.87 10.25 0zm-26.81 -37.76l-4.21 4.51 11.94 0c2.92,0 5.09,0.64 6.55,1.87 1.47,1.22 2.17,2.98 2.17,5.27 0,2.22 -0.7,3.98 -2.17,5.21 -1.46,1.29 -3.63,1.93 -6.55,1.93l-11.94 0 4.21 4.45 0 -23.24zm86.45 33.25l0 -16.63 -8.66 0 0 11.94c-0.58,0.41 -1.23,0.64 -1.87,0.88 -1.81,0.64 -3.63,0.94 -5.5,0.94 -1.93,0 -3.75,-0.3 -5.33,-0.94 -1.64,-0.64 -3.05,-1.52 -4.21,-2.75 -1.23,-1.17 -2.11,-2.57 -2.75,-4.15 -0.65,-1.58 -1,-3.33 -1,-5.27 0,-1.93 0.35,-3.75 1,-5.33 0.64,-1.59 1.52,-2.99 2.75,-4.16 1.17,-1.17 2.57,-2.05 4.21,-2.69 1.64,-0.64 3.45,-0.94 5.44,-0.94 2.05,0 3.98,0.35 5.74,1.11 1.76,0.76 3.39,1.93 4.85,3.51l6.09 -5.62c-1.99,-2.28 -4.45,-4.04 -7.32,-5.27 -2.93,-1.23 -6.2,-1.81 -9.83,-1.81 -3.28,0 -6.27,0.52 -9.01,1.52 -2.75,1.05 -5.1,2.52 -7.15,4.45 -2.04,1.93 -3.57,4.16 -4.68,6.73 -1.11,2.57 -1.7,5.38 -1.7,8.49 0,3.1 0.59,5.91 1.7,8.48 1.11,2.57 2.63,4.8 4.68,6.73 1.99,1.93 4.34,3.39 7.09,4.39 2.69,1.05 5.67,1.58 8.9,1.58 2.93,0 5.85,-0.46 8.84,-1.34 2.93,-0.88 5.5,-2.17 7.72,-3.87zm19.79 -11.47l6.5 -15.69 6.5 15.69 -13 0zm-6.67 15.98l3.63 -8.78 19.02 0 3.63 8.78 9.95 0 -18.32 -40.98 -9.37 0 -18.26 40.98 9.72 0zm49.98 0l0 -15.57 -4.22 4.16 12.47 0c3.69,0 6.84,-0.59 9.49,-1.76 2.63,-1.17 4.68,-2.87 6.14,-5.1 1.46,-2.16 2.16,-4.79 2.16,-7.84 0,-3.11 -0.7,-5.74 -2.16,-7.96 -1.47,-2.23 -3.51,-3.92 -6.14,-5.16 -2.64,-1.17 -5.8,-1.76 -9.49,-1.76l-17.74 0 0 40.98 9.48 0zm26.81 0l-10.36 -14.87 -10.13 0 10.25 14.87 10.25 0zm-26.81 -37.76l-4.22 4.51 11.95 0c2.92,0 5.09,0.64 6.55,1.87 1.47,1.22 2.17,2.98 2.17,5.27 0,2.22 -0.7,3.98 -2.17,5.21 -1.46,1.29 -3.63,1.93 -6.55,1.93l-11.95 0 4.22 4.45 0 -23.24zm42.44 37.76l0 -24.05 12 19.72 4.27 0 12.05 -20.26 0.06 24.59 8.9 0 -0.12 -40.98 -7.79 0 -15.1 25.47 -15.34 -25.47 -7.84 0 0 40.98 8.9 0zm56.42 -33.36l21.54 0 0 -7.62 -30.96 0 0 40.98 31.73 0 0 -7.61 -22.31 0 0 -9.48 19.03 0 0 -7.38 -19.03 0 0 -8.9zm39.22 33.36l0 -24.87 20.43 24.87 7.78 0 0 -40.98 -9.37 0 0 24.88 -20.37 -24.88 -7.84 0 0 40.98 9.36 0zm55.91 0l0 -33.24 13.11 0 0 -7.73 -35.7 0 0 7.73 13.11 0 0 33.24 9.49 0z"/>
   <path class="fil3" d="M771.58 568.94l0 -24.05 12 19.72 4.27 0 12.05 -20.26 0.06 24.59 8.9 0 -0.12 -40.98 -7.79 0 -15.1 25.46 -15.34 -25.46 -7.84 0 0 40.98 8.9 0zm58 -15.98l6.5 -15.69 6.5 15.69 -13 0zm-6.67 15.98l3.63 -8.78 19.03 0 3.63 8.78 9.95 0 -18.32 -40.98 -9.37 0 -18.26 40.98 9.71 0zm49.87 0l0 -24.87 20.43 24.87 7.79 0 0 -40.98 -9.37 0 0 24.88 -20.37 -24.88 -7.84 0 0 40.98 9.36 0zm69.78 -4.15c3.28,-3.22 4.92,-7.85 4.92,-13.87l0 -22.95 -9.37 0 0 22.59c0,3.92 -0.82,6.73 -2.4,8.43 -1.58,1.7 -3.87,2.57 -6.73,2.57 -2.86,0 -5.15,-0.88 -6.73,-2.57 -1.58,-1.7 -2.4,-4.51 -2.4,-8.43l0 -22.59 -9.49 0 0 22.95c0,6.03 1.64,10.65 4.92,13.87 3.27,3.22 7.84,4.85 13.63,4.85 5.8,0 10.36,-1.64 13.64,-4.85zm23.77 -29.21l21.48 0 0 -7.61 -30.96 0 0 40.98 9.48 0 0 -14.92 18.96 0 0 -7.61 -18.96 0 0 -10.83zm37.22 17.39l6.5 -15.69 6.5 15.69 -13 0zm-6.67 15.98l3.63 -8.78 19.02 0 3.63 8.78 9.95 0 -18.32 -40.98 -9.37 0 -18.26 40.98 9.71 0zm69.25 -1.17c2.87,-1.22 5.27,-3.04 7.2,-5.44l-6.09 -5.61c-1.4,1.64 -2.99,2.86 -4.68,3.63 -1.7,0.82 -3.57,1.22 -5.62,1.22 -1.93,0 -3.69,-0.3 -5.27,-0.94 -1.58,-0.64 -2.99,-1.52 -4.15,-2.69 -1.17,-1.17 -2.05,-2.57 -2.69,-4.15 -0.65,-1.58 -1,-3.39 -1,-5.33 0,-1.93 0.35,-3.75 1,-5.33 0.64,-1.59 1.52,-2.99 2.69,-4.16 1.17,-1.17 2.57,-2.05 4.15,-2.69 1.58,-0.64 3.34,-0.94 5.27,-0.94 2.05,0 3.92,0.41 5.62,1.17 1.7,0.82 3.28,2.05 4.68,3.63l6.09 -5.62c-1.93,-2.4 -4.33,-4.21 -7.2,-5.44 -2.87,-1.23 -6.09,-1.81 -9.66,-1.81 -3.22,0 -6.14,0.52 -8.84,1.52 -2.69,1.05 -5.04,2.52 -7.03,4.45 -2.04,1.93 -3.57,4.16 -4.68,6.73 -1.11,2.57 -1.7,5.38 -1.7,8.49 0,3.1 0.59,5.91 1.7,8.48 1.11,2.57 2.63,4.8 4.62,6.73 1.99,1.93 4.34,3.39 7.09,4.39 2.69,1.05 5.62,1.58 8.78,1.58 3.57,0 6.85,-0.64 9.72,-1.87zm31.15 1.17l0 -33.24 13.11 0 0 -7.73 -35.7 0 0 7.73 13.11 0 0 33.24 9.49 0zm49.34 -4.15c3.28,-3.22 4.92,-7.85 4.92,-13.87l0 -22.95 -9.37 0 0 22.59c0,3.92 -0.82,6.73 -2.4,8.43 -1.58,1.7 -3.87,2.57 -6.73,2.57 -2.86,0 -5.15,-0.88 -6.73,-2.57 -1.58,-1.7 -2.4,-4.51 -2.4,-8.43l0 -22.59 -9.49 0 0 22.95c0,6.03 1.64,10.65 4.92,13.87 3.27,3.22 7.84,4.85 13.63,4.85 5.8,0 10.36,-1.64 13.64,-4.85zm23.77 4.15l0 -15.57 -4.21 4.16 12.47 0c3.69,0 6.84,-0.59 9.49,-1.76 2.63,-1.17 4.68,-2.87 6.14,-5.1 1.46,-2.16 2.16,-4.79 2.16,-7.84 0,-3.11 -0.7,-5.74 -2.16,-7.96 -1.47,-2.23 -3.51,-3.92 -6.14,-5.16 -2.64,-1.17 -5.8,-1.76 -9.49,-1.76l-17.74 0 0 40.98 9.48 0zm26.82 0l-10.36 -14.87 -10.13 0 10.25 14.87 10.25 0zm-26.82 -37.75l-4.21 4.51 11.95 0c2.92,0 5.09,0.64 6.55,1.87 1.47,1.22 2.17,2.98 2.17,5.27 0,2.22 -0.7,3.98 -2.17,5.21 -1.46,1.29 -3.63,1.93 -6.55,1.93l-11.95 0 4.21 4.45 0 -23.23zm42.96 4.39l21.54 0 0 -7.61 -30.96 0 0 40.98 31.73 0 0 -7.61 -22.31 0 0 -9.48 19.03 0 0 -7.38 -19.03 0 0 -8.9zm39.34 33.36l0 -15.57 -4.21 4.16 12.47 0c3.69,0 6.84,-0.59 9.49,-1.76 2.63,-1.17 4.68,-2.87 6.14,-5.1 1.46,-2.16 2.16,-4.79 2.16,-7.84 0,-3.11 -0.7,-5.74 -2.16,-7.96 -1.47,-2.23 -3.51,-3.92 -6.14,-5.16 -2.64,-1.17 -5.8,-1.76 -9.49,-1.76l-17.73 0 0 40.98 9.48 0zm26.81 0l-10.36 -14.87 -10.13 0 10.25 14.87 10.25 0zm-26.81 -37.75l-4.21 4.51 11.94 0c2.92,0 5.09,0.64 6.55,1.87 1.47,1.22 2.17,2.98 2.17,5.27 0,2.22 -0.7,3.98 -2.17,5.21 -1.46,1.29 -3.63,1.93 -6.55,1.93l-11.94 0 4.21 4.45 0 -23.23zm56.72 36.7c2.52,-1.17 4.45,-2.69 5.74,-4.62 1.28,-1.93 1.93,-4.03 1.93,-6.32 0,-2.16 -0.41,-3.92 -1.29,-5.33 -0.88,-1.4 -2.05,-2.52 -3.45,-3.39 -1.41,-0.88 -2.93,-1.52 -4.62,-2.05 -1.7,-0.52 -3.39,-0.94 -5.09,-1.34 -1.7,-0.41 -3.28,-0.76 -4.68,-1.17 -1.41,-0.41 -2.52,-0.94 -3.4,-1.58 -0.88,-0.65 -1.28,-1.47 -1.28,-2.52 0,-0.88 0.24,-1.7 0.76,-2.4 0.52,-0.64 1.35,-1.22 2.52,-1.64 1.17,-0.41 2.69,-0.64 4.51,-0.64 1.81,0 3.69,0.23 5.62,0.76 1.93,0.52 3.81,1.34 5.74,2.46l2.92 -7.2c-1.92,-1.23 -4.09,-2.11 -6.61,-2.75 -2.52,-0.58 -5.04,-0.88 -7.61,-0.88 -3.87,0 -7.08,0.58 -9.6,1.7 -2.57,1.17 -4.51,2.69 -5.74,4.62 -1.29,1.93 -1.93,4.1 -1.93,6.44 0,2.17 0.47,3.98 1.35,5.38 0.88,1.4 1.99,2.52 3.4,3.39 1.4,0.88 2.99,1.59 4.68,2.11 1.7,0.52 3.39,1 5.09,1.34 1.7,0.41 3.22,0.77 4.62,1.17 1.41,0.41 2.52,0.94 3.39,1.58 0.88,0.65 1.29,1.53 1.29,2.63 0,0.89 -0.3,1.65 -0.82,2.29 -0.53,0.64 -1.41,1.17 -2.52,1.52 -1.17,0.41 -2.69,0.59 -4.57,0.59 -2.46,0 -4.86,-0.41 -7.26,-1.23 -2.4,-0.76 -4.51,-1.81 -6.27,-3.05l-3.22 7.14c1.82,1.41 4.27,2.52 7.26,3.4 2.99,0.88 6.14,1.34 9.43,1.34 3.92,0 7.14,-0.58 9.71,-1.76zm41.74 -14.92l6.5 -15.69 6.5 15.69 -13 0zm-6.67 15.98l3.63 -8.78 19.03 0 3.63 8.78 9.95 0 -18.32 -40.98 -9.37 0 -18.26 40.98 9.71 0zm63.69 -1.05c2.52,-1.17 4.45,-2.69 5.74,-4.62 1.28,-1.93 1.93,-4.03 1.93,-6.32 0,-2.16 -0.41,-3.92 -1.29,-5.33 -0.88,-1.4 -2.05,-2.52 -3.45,-3.39 -1.41,-0.88 -2.93,-1.52 -4.62,-2.05 -1.7,-0.52 -3.4,-0.94 -5.09,-1.34 -1.7,-0.41 -3.28,-0.76 -4.68,-1.17 -1.41,-0.41 -2.52,-0.94 -3.4,-1.58 -0.88,-0.65 -1.28,-1.47 -1.28,-2.52 0,-0.88 0.24,-1.7 0.76,-2.4 0.52,-0.64 1.35,-1.22 2.52,-1.64 1.17,-0.41 2.69,-0.64 4.51,-0.64 1.82,0 3.69,0.23 5.62,0.76 1.93,0.52 3.81,1.34 5.74,2.46l2.92 -7.2c-1.92,-1.23 -4.09,-2.11 -6.61,-2.75 -2.52,-0.58 -5.04,-0.88 -7.62,-0.88 -3.87,0 -7.08,0.58 -9.6,1.7 -2.57,1.17 -4.51,2.69 -5.74,4.62 -1.28,1.93 -1.93,4.1 -1.93,6.44 0,2.17 0.47,3.98 1.35,5.38 0.88,1.4 1.99,2.52 3.39,3.39 1.4,0.88 2.99,1.59 4.68,2.11 1.7,0.52 3.39,1 5.09,1.34 1.7,0.41 3.22,0.77 4.63,1.17 1.41,0.41 2.52,0.94 3.39,1.58 0.88,0.65 1.29,1.53 1.29,2.63 0,0.89 -0.3,1.65 -0.82,2.29 -0.53,0.64 -1.41,1.17 -2.52,1.52 -1.17,0.41 -2.69,0.59 -4.57,0.59 -2.46,0 -4.86,-0.41 -7.26,-1.23 -2.4,-0.76 -4.51,-1.81 -6.26,-3.05l-3.22 7.14c1.81,1.41 4.27,2.52 7.26,3.4 2.99,0.88 6.14,1.34 9.43,1.34 3.92,0 7.14,-0.58 9.72,-1.76zm37.35 0c2.52,-1.17 4.45,-2.69 5.74,-4.62 1.28,-1.93 1.93,-4.03 1.93,-6.32 0,-2.16 -0.41,-3.92 -1.29,-5.33 -0.88,-1.4 -2.05,-2.52 -3.45,-3.39 -1.41,-0.88 -2.93,-1.52 -4.62,-2.05 -1.7,-0.52 -3.39,-0.94 -5.09,-1.34 -1.7,-0.41 -3.28,-0.76 -4.68,-1.17 -1.41,-0.41 -2.52,-0.94 -3.4,-1.58 -0.88,-0.65 -1.28,-1.47 -1.28,-2.52 0,-0.88 0.24,-1.7 0.76,-2.4 0.52,-0.64 1.35,-1.22 2.52,-1.64 1.17,-0.41 2.69,-0.64 4.51,-0.64 1.81,0 3.69,0.23 5.62,0.76 1.93,0.52 3.81,1.34 5.74,2.46l2.92 -7.2c-1.92,-1.23 -4.09,-2.11 -6.61,-2.75 -2.52,-0.58 -5.04,-0.88 -7.61,-0.88 -3.87,0 -7.08,0.58 -9.6,1.7 -2.57,1.17 -4.51,2.69 -5.74,4.62 -1.28,1.93 -1.93,4.1 -1.93,6.44 0,2.17 0.47,3.98 1.35,5.38 0.88,1.4 1.99,2.52 3.39,3.39 1.4,0.88 2.99,1.59 4.68,2.11 1.7,0.52 3.39,1 5.09,1.34 1.7,0.41 3.22,0.77 4.62,1.17 1.41,0.41 2.52,0.94 3.39,1.58 0.88,0.65 1.29,1.53 1.29,2.63 0,0.89 -0.3,1.65 -0.82,2.29 -0.53,0.64 -1.41,1.17 -2.52,1.52 -1.17,0.41 -2.69,0.59 -4.57,0.59 -2.46,0 -4.86,-0.41 -7.26,-1.23 -2.4,-0.76 -4.51,-1.81 -6.26,-3.05l-3.22 7.14c1.81,1.41 4.27,2.52 7.26,3.4 2.99,0.88 6.14,1.34 9.43,1.34 3.92,0 7.14,-0.58 9.71,-1.76zm42.97 0.18c2.69,-1.05 5.03,-2.52 7.08,-4.45 1.99,-1.87 3.57,-4.1 4.68,-6.73 1.11,-2.57 1.7,-5.38 1.7,-8.42 0,-3.11 -0.58,-5.92 -1.7,-8.49 -1.11,-2.52 -2.69,-4.74 -4.68,-6.68 -2.05,-1.92 -4.39,-3.39 -7.08,-4.45 -2.75,-1.05 -5.74,-1.58 -8.95,-1.58 -3.22,0 -6.15,0.52 -8.9,1.58 -2.75,1.05 -5.1,2.52 -7.15,4.45 -2.05,1.93 -3.57,4.16 -4.68,6.73 -1.11,2.57 -1.7,5.38 -1.7,8.43 0,3.04 0.59,5.85 1.7,8.42 1.11,2.57 2.63,4.8 4.68,6.73 1.99,1.93 4.4,3.39 7.15,4.45 2.74,1.05 5.73,1.58 8.95,1.58 3.22,0 6.14,-0.52 8.9,-1.58zm-14.05 -7.44c-1.58,-0.64 -2.92,-1.52 -4.03,-2.69 -1.17,-1.17 -2.05,-2.57 -2.69,-4.21 -0.65,-1.58 -1,-3.33 -1,-5.27 0,-1.93 0.35,-3.75 1,-5.33 0.64,-1.59 1.52,-2.99 2.69,-4.16 1.17,-1.17 2.52,-2.05 4.09,-2.69 1.53,-0.64 3.22,-0.94 5.04,-0.94 1.81,0 3.51,0.3 5.09,0.94 1.58,0.64 2.93,1.52 4.1,2.69 1.11,1.17 2.04,2.57 2.69,4.16 0.64,1.58 0.94,3.39 0.94,5.33 0,1.93 -0.3,3.75 -0.94,5.33 -0.65,1.58 -1.59,2.98 -2.75,4.15 -1.17,1.17 -2.52,2.05 -4.04,2.69 -1.58,0.64 -3.27,0.94 -5.09,0.94 -1.81,0 -3.51,-0.3 -5.1,-0.94zm63.98 7.14c2.87,-1.22 5.27,-3.04 7.2,-5.44l-6.09 -5.61c-1.4,1.64 -2.99,2.86 -4.68,3.63 -1.7,0.82 -3.57,1.22 -5.62,1.22 -1.93,0 -3.69,-0.3 -5.27,-0.94 -1.58,-0.64 -2.99,-1.52 -4.16,-2.69 -1.17,-1.17 -2.05,-2.57 -2.69,-4.15 -0.65,-1.58 -1,-3.39 -1,-5.33 0,-1.93 0.35,-3.75 1,-5.33 0.64,-1.59 1.52,-2.99 2.69,-4.16 1.17,-1.17 2.58,-2.05 4.16,-2.69 1.58,-0.64 3.33,-0.94 5.27,-0.94 2.05,0 3.92,0.41 5.62,1.17 1.7,0.82 3.28,2.05 4.68,3.63l6.09 -5.62c-1.93,-2.4 -4.33,-4.21 -7.2,-5.44 -2.87,-1.23 -6.09,-1.81 -9.66,-1.81 -3.22,0 -6.14,0.52 -8.84,1.52 -2.69,1.05 -5.04,2.52 -7.03,4.45 -2.04,1.93 -3.57,4.16 -4.68,6.73 -1.11,2.57 -1.7,5.38 -1.7,8.49 0,3.1 0.59,5.91 1.7,8.48 1.11,2.57 2.63,4.8 4.62,6.73 1.99,1.93 4.34,3.39 7.09,4.39 2.7,1.05 5.62,1.58 8.78,1.58 3.57,0 6.84,-0.64 9.71,-1.87zm23.07 1.17l0 -40.98 -9.48 0 0 40.98 9.48 0zm20.72 -15.98l6.5 -15.69 6.5 15.69 -13 0zm-6.67 15.98l3.63 -8.78 19.03 0 3.63 8.78 9.95 0 -18.32 -40.98 -9.37 0 -18.26 40.98 9.71 0zm56.42 0l0 -33.24 13.11 0 0 -7.73 -35.7 0 0 7.73 13.11 0 0 33.24 9.49 0zm27.68 0l0 -40.98 -9.48 0 0 40.98 9.48 0zm38.52 -0.88c2.69,-1.05 5.03,-2.52 7.08,-4.45 1.99,-1.87 3.57,-4.1 4.68,-6.73 1.11,-2.57 1.7,-5.38 1.7,-8.42 0,-3.11 -0.58,-5.92 -1.7,-8.49 -1.11,-2.52 -2.69,-4.74 -4.68,-6.68 -2.05,-1.92 -4.39,-3.39 -7.08,-4.45 -2.75,-1.05 -5.74,-1.58 -8.95,-1.58 -3.22,0 -6.15,0.52 -8.9,1.58 -2.75,1.05 -5.1,2.52 -7.15,4.45 -2.04,1.93 -3.57,4.16 -4.68,6.73 -1.11,2.57 -1.7,5.38 -1.7,8.43 0,3.04 0.59,5.85 1.7,8.42 1.11,2.57 2.63,4.8 4.68,6.73 1.99,1.93 4.4,3.39 7.15,4.45 2.75,1.05 5.73,1.58 8.96,1.58 3.22,0 6.14,-0.52 8.9,-1.58zm-14.05 -7.44c-1.58,-0.64 -2.92,-1.52 -4.04,-2.69 -1.17,-1.17 -2.05,-2.57 -2.69,-4.21 -0.65,-1.58 -1,-3.33 -1,-5.27 0,-1.93 0.35,-3.75 1,-5.33 0.64,-1.59 1.52,-2.99 2.69,-4.16 1.17,-1.17 2.52,-2.05 4.09,-2.69 1.53,-0.64 3.22,-0.94 5.04,-0.94 1.81,0 3.51,0.3 5.09,0.94 1.58,0.64 2.93,1.52 4.1,2.69 1.11,1.17 2.04,2.57 2.69,4.16 0.64,1.58 0.94,3.39 0.94,5.33 0,1.93 -0.3,3.75 -0.94,5.33 -0.65,1.58 -1.59,2.98 -2.75,4.15 -1.17,1.17 -2.52,2.05 -4.04,2.69 -1.58,0.64 -3.27,0.94 -5.09,0.94 -1.82,0 -3.51,-0.3 -5.1,-0.94zm44.01 8.31l0 -24.87 20.44 24.87 7.78 0 0 -40.98 -9.37 0 0 24.88 -20.37 -24.88 -7.84 0 0 40.98 9.36 0z"/>
   <path class="fil4" d="M419.71 81.43c-2.21,2.91 -4.23,6.09 -5.94,9.58 -10.73,21.97 -5.71,46.48 11.18,54.73 16.91,8.22 39.29,-2.89 50.01,-24.85 1.71,-3.51 2.96,-7.05 3.9,-10.59l-59.15 -28.86z"/>
   <polygon class="fil5" points="495.84,121.02 491.76,98.3 487.85,122.55 496.42,121.31 "/>
   <path class="fil6" d="M361.02 96.97c-1.33,15.56 -5.18,38.96 -16.9,64.93 -12.38,27.4 -39.72,57.95 -39.72,57.95 21.17,-3.56 52.16,1.9 83.58,16.4 31.43,14.47 55.72,34.46 66.76,52.88 0,0 7.62,-40.49 19.63,-66.3 11.7,-25.19 36.83,-56.81 36.83,-56.81 -11.86,2.37 -47.35,7.78 -86.53,-10.3 -38.86,-17.98 -57.68,-48.17 -63.66,-58.73z"/>
   <polygon class="fil7" points="421.38,163.38 431.51,158.63 420.97,153.91 410.76,148.5 413.31,159.22 404.53,162.92 376.86,217.96 382.95,231.83 397.61,228.11 423.98,172.41 "/>
   <path class="fil2" d="M485.06 99.13c-0.2,-1.69 -59.25,-30.11 -60.36,-29.45 -2.46,5.05 -4.91,10.07 -7.37,15.11 10.81,1.25 16.55,5.18 19.8,8.64 3.77,3.98 8.08,9.3 8.08,9.3 0,0 9.76,0.2 16.84,1.56 4.12,0.78 9.67,3.09 15.64,9.97 2.46,-5.05 4.91,-10.1 7.37,-15.12z"/>
   <polygon class="fil2" points="492.21,102.62 417.07,67.36 418.65,63.97 493.8,99.23 "/>
   <path class="fil8" d="M458.11 198.98c-2.28,-0.34 -5.28,-1.04 -8.6,-2.52 -2.62,-1.17 -4.74,-2.52 -6.33,-3.72 -2.34,5.57 -4.68,11.17 -7.01,16.74l14.95 6.27 6.99 -16.76z"/>
   <path class="fil8" d="M459.76 195.34l-1.09 2.71c-2.55,-0.55 -5.47,-1.38 -8.6,-2.73 -2.45,-1.04 -4.59,-2.22 -6.4,-3.39 0.37,-0.89 0.74,-1.77 1.11,-2.68 2.01,1.15 4.3,2.32 6.86,3.38 2.9,1.22 5.64,2.09 8.12,2.71z"/>
   <path class="fil6" d="M200.04 297.48c17.08,21.18 27.49,44.03 29.96,62.67l0.06 0.07c6.21,-20.56 24.9,-45.85 51.86,-67.56 26.95,-21.7 55.16,-34.92 76.55,-36.64l0.24 0.06c-17.58,-6.48 -37.52,-21.44 -54.49,-42.5 -16.96,-21.07 -30.35,-62.53 -30.35,-62.53 -6.33,20.51 -20.94,51.29 -47.77,72.92 -26.83,21.6 -59.43,28.8 -80.81,30.63 0,0 37.67,21.65 54.75,42.89z"/>
   <path class="fil4" d="M155.84 191.23c1.84,4.66 4.36,9.27 7.69,13.58 14.9,19.39 39.06,25.79 53.97,14.32 14.91,-11.45 14.91,-36.46 0,-55.82 -3.32,-4.32 -7.11,-7.97 -11.16,-10.93l-50.5 38.85z"/>
   <path class="fil3" d="M358.72 256.08c-13.41,-8.35 -32.69,-22.54 -50.78,-44.89 -18.38,-22.72 -34.06,-60.14 -34.06,-60.14 -3.89,12.64 -10.97,29.2 -22.09,45.1l0.06 -0.05 4.74 73.83 -60.97 -27.79 0.03 -0.02c-18.42,7.94 -36.68,11.32 -50.34,12.49 0,0 32.48,23.29 50.45,45.46 18.37,22.69 34.32,60.16 34.32,60.16 6.55,-14.73 21.46,-42.96 51.86,-67.56 30.35,-24.57 61.04,-33.25 76.8,-36.59z"/>
   <path class="fil2" d="M202.52 144.57c-1.59,-0.58 -20.42,-6.83 -37.08,5.44 -17.54,12.91 -16.27,34.22 -16.16,35.52 3.42,4.42 6.84,8.87 10.26,13.32l53.23 -40.96 -10.25 -13.32z"/>
   <path class="fil9" d="M183.16 166.01c1.54,2 1.17,4.87 -0.83,6.4 -1.99,1.57 -4.87,1.17 -6.4,-0.83 -1.56,-1.98 -1.17,-4.86 0.83,-6.4 2,-1.54 4.87,-1.17 6.41,0.83z"/>
   <path class="fil2" d="M302.09 218.45c-2.31,2.81 -5.64,6.4 -10.24,9.86 -3.66,2.78 -7.1,4.74 -9.95,6.12 5.23,6.58 10.45,13.14 15.67,19.72l20.18 -16 -15.66 -19.7z"/>
   <path class="fil2" d="M298.8 214l2.55 3.12c-2.76,3.05 -6.24,6.43 -10.5,9.73 -3.35,2.63 -6.6,4.74 -9.54,6.44 -0.85,-1.04 -1.69,-2.09 -2.54,-3.13 3.11,-1.95 6.47,-4.29 9.93,-7.02 3.91,-3.12 7.26,-6.25 10.11,-9.13z"/>
   <path class="fil2" d="M225.24 278.67c-2.29,2.81 -5.64,6.4 -10.22,9.86 -3.66,2.79 -7.12,4.74 -9.95,6.11 5.22,6.59 10.43,13.15 15.66,19.73l20.18 -16 -15.67 -19.7z"/>
   <path class="fil2" d="M221.97 274.22l2.53 3.15c-2.75,3.02 -6.22,6.4 -10.49,9.71 -3.36,2.59 -6.6,4.74 -9.53,6.42 -0.85,-1.04 -1.7,-2.08 -2.55,-3.12 3.12,-1.98 6.48,-4.29 9.92,-7.05 3.92,-3.1 7.27,-6.2 10.12,-9.11z"/>
   <path class="fil2" d="M257.25 187.77l7.74 3.33 11.66 -20.29 -8.24 -4.87c0,0 -7.38,15.93 -11.16,21.83z"/>
   <polygon class="fil3" points="197.09,247.63 195.64,242.11 208.65,235.45 224.28,246.87 245.99,250.69 249,229.27 240.11,210.77 251.84,196.1 260.78,221.8 259.2,266.18 260.77,273.7 240.91,265.94 227.07,259.18 "/>
   <polygon class="fil2" points="237.4,213.56 243.63,231.46 245.99,250.69 255.66,229.77 265.92,228.34 240.11,210.77 "/>
   <polygon class="fil2" points="212.74,233.05 227.9,243.8 245.99,250.69 223.36,255.06 219.52,264.7 208.65,235.45 "/>
   <path class="fil9" d="M271.34 171.22c1.93,1.4 3.34,2.78 3.14,3.07 -0.19,0.24 -1.92,-0.7 -3.85,-2.13 -1.93,-1.43 -3.33,-2.79 -3.14,-3.05 0.19,-0.26 1.91,0.68 3.85,2.11z"/>
   <path class="fil9" d="M272.25 169.71c1.93,1.43 3.33,2.79 3.15,3.05 -0.19,0.29 -1.92,-0.68 -3.85,-2.11 -1.93,-1.43 -3.35,-2.78 -3.15,-3.04 0.19,-0.27 1.92,0.67 3.85,2.1z"/>
   <path class="fil9" d="M262.84 186.75c1.19,0.89 2,1.82 1.81,2.08 -0.18,0.27 -1.33,-0.26 -2.52,-1.11 -1.19,-0.91 -2,-1.82 -1.81,-2.09 0.19,-0.26 1.32,0.24 2.52,1.12z"/>
   <path class="fil9" d="M263.81 185.29c1.2,0.89 2.01,1.8 1.81,2.06 -0.2,0.26 -1.33,-0.24 -2.52,-1.12 -1.21,-0.88 -2.02,-1.81 -1.82,-2.08 0.2,-0.26 1.31,0.27 2.52,1.15z"/>
   <path class="fil2" d="M184.79 246.37l1.63 8.28 -22.31 7.13 -3.02 -9.09c0,0 17.13,-3.87 23.7,-6.32z"/>
   <path class="fil9" d="M165.63 256.68c0.97,2.19 2.03,3.83 2.33,3.73 0.3,-0.16 -0.27,-2.03 -1.26,-4.22 -0.99,-2.21 -2.03,-3.87 -2.31,-3.72 -0.3,0.13 0.26,2 1.25,4.21z"/>
   <path class="fil9" d="M163.98 257.22c0.98,2.19 2,3.88 2.31,3.72 0.3,-0.13 -0.26,-2 -1.25,-4.19 -1,-2.21 -2.03,-3.88 -2.33,-3.72 -0.3,0.13 0.27,2 1.26,4.19z"/>
   <path class="fil9" d="M182.61 251.63c0.6,1.35 1.35,2.34 1.65,2.22 0.3,-0.13 0.03,-1.36 -0.57,-2.71 -0.63,-1.36 -1.35,-2.35 -1.66,-2.19 -0.3,0.11 -0.04,1.33 0.57,2.68z"/>
   <path class="fil9" d="M180.98 252.25c0.6,1.36 1.34,2.35 1.65,2.21 0.29,-0.13 0.03,-1.33 -0.57,-2.71 -0.61,-1.32 -1.34,-2.34 -1.65,-2.18 -0.29,0.13 -0.04,1.33 0.57,2.68z"/>
   <path class="fil6" d="M529.73 231.91c-26.31,2.63 -66.95,-8.93 -66.95,-8.93 13.4,15.98 24.07,44.58 27.38,78.02 3.35,33.42 -1.44,63.57 -11.41,81.9 0,0 37.74,-19.21 63.86,-21.8 26.12,-2.61 66.93,8.48 66.93,8.48 -13.31,-16.01 -30.6,-44.22 -33.91,-77.5 -3.33,-33.26 8.1,-63.6 17.99,-81.92 0,0 -37.61,19.12 -63.9,21.76z"/>
   <polygon class="fil7" points="567.72,295.01 576.7,301.13 575.44,289.99 574.95,278.8 567.24,286.19 559.83,280.67 500.14,284.6 491.56,296.5 501.86,306.93 561.45,301.62 "/>
   <path class="fil4" d="M624.4 251.37c23.66,-1.82 43.99,11.45 45.39,29.64 1.41,18.19 -16.62,34.43 -40.28,36.25 -23.66,1.85 -43.97,-11.43 -45.39,-29.62 -1.41,-18.19 16.63,-34.43 40.27,-36.27z"/>
   <path class="fil3" d="M478.76 382.89c14.27,-6.35 36.11,-14 63.1,-16.84 28.21,-3.02 67.69,3.52 67.69,3.52 -8.22,-9.86 -17.91,-24.39 -24.92,-41.85l0 0.05 -62.52 -35.31 54.92 -34.82 0 0.05c3.34,-19.18 10.25,-35.83 16.59,-47.54 0,0 -36.6,15.06 -65.49,17.77 -27.68,2.61 -65.35,-4.94 -65.35,-4.94 8.49,13.17 23.55,40.25 27.38,78.02 3.88,37.68 -5.76,67.3 -11.41,81.9z"/>
   <path class="fil10" d="M493.51 310.08c0,0 74.01,7.08 91.12,17.65l-62.52 -35.26 -32.37 4.65 1.14 12.91 2.63 0.05z"/>
   <path class="fil10" d="M489.71 283.64c0,0 66.99,-18.65 87.33,-25.99l-54.92 34.82 -32.37 4.65 -2.08 -12.85 2.04 -0.63z"/>
   <path class="fil4" d="M612.43 524.72c-1.42,-3.38 -3.19,-6.71 -5.38,-9.92 -13.79,-20.19 -37.55,-27.97 -53.07,-17.36 -15.53,10.6 -16.95,35.55 -3.16,55.75 2.2,3.2 4.65,6.07 7.28,8.64l54.33 -37.11z"/>
   <path class="fil3" d="M575.65 420.34c-15.84,-22.11 -24.93,-45.54 -26.33,-64.25l-0.07 -0.1c-7.38,20.16 -27.47,44.37 -55.62,64.52 -28.13,20.14 -57.27,31.72 -78.74,32.18l0 0c17.18,7.44 36.25,23.53 51.98,45.52 15.75,21.99 26.78,64.15 26.78,64.15 7.45,-20.12 23.79,-50.04 51.8,-70.08 28.01,-20.03 60.99,-25.42 82.43,-26 0,0 -36.38,-23.76 -52.24,-45.93z"/>
   <path class="fil3" d="M564.72 572.73c6.29,-0.58 17.49,-2.42 29.31,-9.5 15.66,-9.39 23.25,-22.56 26.16,-28.36 -3.16,-4.63 -6.31,-9.27 -9.47,-13.9 -7.1,6.25 -15.31,12.83 -24.71,19.33 -10.88,7.58 -21.3,13.67 -30.77,18.53 3.17,4.63 6.32,9.27 9.49,13.9z"/>
   <path class="fil6" d="M414.89 452.68c13.39,10.15 31.57,26.26 48.28,49.92 15.91,22.51 30.48,59.75 30.48,59.75 4.59,-12.39 12.6,-28.52 24.59,-43.77l-0.04 0.05 -0.55 -73.99 59.29 31.2 -0.02 0.03c18.84,-6.88 37.26,-9.25 50.97,-9.61 0,0 -31.72,-27.17 -48.5,-51.03 -15.66,-22.3 -30.14,-59.25 -30.14,-59.25 -7.38,14.34 -23.87,41.69 -55.62,64.52 -31.68,22.79 -62.81,29.74 -78.74,32.18z"/>
   <polygon class="fil6" points="585.45,546.45 588.17,544.61 594.95,554.52 592.21,556.39 "/>
   <polygon class="fil6" points="594.23,545.72 596.08,548.46 586.16,555.24 584.3,552.51 "/>
   <path class="fil3" d="M407.69 618.93c1.26,-15.43 5.13,-39.68 17.83,-66.54 12.63,-26.68 39.91,-55.82 39.91,-55.82 -21.19,3.39 -52.12,-2.37 -83.42,-17.15 -31.31,-14.78 -55.41,-35 -66.28,-53.5 0,0 -7.07,40.78 -19.78,67.23 -12.06,25.08 -37.81,55.35 -37.81,55.35 11.91,-2.23 47.43,-7.34 86.45,11.14 38.69,18.33 57.24,48.69 63.12,59.31z"/>
   <path class="fil4" d="M346.12 636.67c3.39,-3.72 6.4,-8.02 8.79,-12.91 10.83,-21.91 5.93,-46.43 -10.92,-54.75 -16.86,-8.33 -39.31,2.7 -50.13,24.62 -2.4,4.89 -3.98,9.88 -4.89,14.84l57.14 28.21z"/>
   <path class="fil3" d="M283.67 615.34c8.14,5.07 17.2,10.2 27.16,15.22 11.67,5.86 22.79,10.62 33.06,14.49 2.49,-5.02 4.97,-10.02 7.44,-15.07l-60.23 -29.72 -7.43 15.07z"/>
   <path class="fil2" d="M465.43 496.56c0,0 -50.95,-3.02 -83.25,-17.46 -31.59,-14.12 -55.59,-34.69 -66.46,-53.19 4.57,13.71 11.13,39.79 6.14,71.86 -3.4,21.86 -10.98,38.82 -17.06,49.86 2.28,0.34 4.66,0.73 7.1,1.22 2.4,0.46 4.88,1.01 7.37,1.66 6.28,-20.12 27.29,-28.31 40.09,-22.4 12.93,6.01 20.25,27.66 8.54,45.49 2,1.49 4.05,3.07 6.16,4.85 1.96,1.61 3.83,3.26 5.61,4.89 6.03,-13.35 17.32,-33.86 37.61,-53.56 17.68,-17.18 35.66,-27.41 48.15,-33.21z"/>
   <path class="fil2" d="M344.58 559.62c0,0 -1.46,-15.24 -5,-17.39 -3.53,-2.13 -12.83,8.36 -9.56,10.36 3.29,2.03 14.56,7.02 14.56,7.02z"/>
   <path class="fil2" d="M344.58 559.62c0,0 12.83,-8.35 16.71,-6.92 3.87,1.43 1.46,15.25 -2.16,13.95 -3.61,-1.33 -14.54,-7.03 -14.54,-7.03z"/>
   <path class="fil3" d="M344.06 644.74c-0.72,11.32 -1.01,16.19 -1.72,27.51 -2.2,0.76 -9.41,3.52 -12.67,2.66 -6.63,-1.69 -6.29,-6.12 -12.34,-9.27 -3.71,-1.95 -6.05,1.54 -10.78,-0.36 -12.21,-4.89 -7.04,-9.37 -16.94,-13.01 -5.79,-2.11 -7.5,-0.39 -12.98,-2.63 -6.9,-2.81 -10.58,-9.06 -12.26,-14.99 6.51,-6.61 13.02,-13.22 19.54,-19.84l60.14 29.93z"/>
   <path class="fil6" d="M172.87 513.43c13.64,-6.9 36.2,-16.22 65.56,-19.26 29.8,-3.1 69.04,5.59 69.04,5.59 -13.82,-16.45 -24.85,-45.88 -28.35,-80.33 -3.49,-34.43 1.4,-65.51 11.64,-84.37 0,0 -36.85,15.98 -66.17,18.94 -29.27,2.97 -68.54,-5.05 -68.54,-5.05 8.05,9.03 30.76,36.85 35.05,79.79 4.29,42.6 -12.15,74.14 -18.23,84.68z"/>
   <path class="fil4" d="M130.77 472.9c3.64,0.34 7.41,0.39 11.28,-0.02 24.33,-2.5 42.48,-19.68 40.55,-38.39 -1.92,-18.71 -23.18,-31.86 -47.51,-29.35 -3.86,0.42 -7.54,1.22 -11.05,2.29l6.74 65.47z"/>
   <path class="fil9" d="M239.06 455l-0.26 6.14c-18.89,-0.78 -51.82,16.68 -52.09,16.83l1.56 -7.57c1.21,-0.65 30.2,-16.27 50.79,-15.41z"/>
   <path class="fil9" d="M234.76 400.75l-1.22 -6.01c-18.52,3.75 -53.78,-8.33 -54.09,-8.45l2.74 7.23c1.31,0.47 32.37,11.32 52.57,7.24z"/>
   <path class="fil9" d="M238.8 461.15c0,0 -0.19,-48.67 -5.27,-66.41l44.96 -11.01c0,0 -4.08,36.41 10.08,80.18l-49.78 -2.76z"/>
   <path class="fil9" d="M111.29 408.08c-1.32,1.06 -16.51,13.8 -14.84,34.41 1.75,21.73 20.58,31.82 21.72,32.42 5.57,-0.57 11.14,-1.17 16.72,-1.74l-6.87 -66.8 -16.72 1.72z"/>
   <polygon class="fil9" points="127.45,400.93 135.33,477.46 131.29,477.87 123.41,401.34 "/>
   <polygon class="fil11" points="234.32,403.06 232.71,392.96 237.66,392.16 239.27,402.26 "/>
   <polygon class="fil11" points="236.36,463.02 236.61,452.79 241.61,452.92 241.38,463.15 "/>
   <path class="fil11" d="M247.61 454.69c0.26,-8.62 0.11,-18.24 -0.78,-28.68 -0.78,-8.93 -1.98,-17.15 -3.4,-24.62 9.57,-2.47 19.13,-4.94 28.72,-7.44 -0.33,8.53 -0.18,18.4 1.01,29.3 1.28,11.92 3.5,22.46 5.9,31.28 -10.47,0.05 -20.96,0.1 -31.45,0.15z"/>
  </g>
 </g>
</svg>
