<svg xmlns="http://www.w3.org/2000/svg" viewBox="0 0 196.26 72"><defs><style>.cls-1{fill:#fcb130;}.cls-1,.cls-2{fill-rule:evenodd;}.cls-2,.cls-3{fill:#1d4886;}</style></defs><g id="Layer_2" data-name="Layer 2"><g id="svg4403"><g id="g10"><g id="g12"><g id="g5458"><path id="path50" class="cls-1" d="M0,67.79H135.87L133.17,72H0V67.79"/><g id="g4758"><path id="path52" class="cls-1" d="M160.62,65.89h-5L165.71,50a8,8,0,0,0-.47-6.78L151.18,19.9a4.49,4.49,0,0,1,0-4.23l4.16-6.23,16.5,27S176.09,42,171.47,49L160.62,65.89"/><path id="path54" class="cls-1" d="M172.68,61l6.13-9.34a7.2,7.2,0,0,1,6.41-3.86h6.51L196.26,55s-3.58-.37-5.18,2.18l-6.69,10.08a8.92,8.92,0,0,1-8,4.72H144.86l12-18.4s1.69-2.16-.67-5.74L145.51,30.66s-2.63-2.54.09-6.88l3.11-4.72,14.83,24a6.22,6.22,0,0,1,0,7.25L152.41,67.69h23.47s2.64.49,4.92-2.9l5.83-9a9,9,0,0,1,4.26-4.25h-4.72a5.94,5.94,0,0,0-4.35,3l-5.18,8a7.15,7.15,0,0,1-6,3.39h-8.2l9.9-15.36s5.39-7.09,1.6-13.6L157.5,9.9a4.79,4.79,0,0,1,.18-4.53L161.26,0l18.68,30.09s2.74,4.51,2.74,8-2.18,7.44-3.39,9.44l-8.23,12.83s-.92,1.22-.27,1.69,1.32-.37,1.88-1"/></g><g id="g5439"><path id="path16" class="cls-2" d="M68.41,48h2.9v11.5H78.4v2.47h-10V48"/><path id="path18" class="cls-2" d="M80.63,61.92h2.88V48H80.63Z"/><path id="path20" class="cls-2" d="M45.27,61.92h2.86V48H45.27Z"/><path id="path24" class="cls-2" d="M104.13,48h10.94v2.3h-8v3.41h6.83V56.2H107v3.39h8v2.32H104.13v-14"/><path id="path26" class="cls-2" d="M119.53,29.17h10.94v2.3h-8v3.4h6.86V37.4h-6.86v3.39h8v2.3H119.53V29.17"/><path id="path28" class="cls-2" d="M52.56,61.92V48h8.3s4,.07,4,4.07a4.63,4.63,0,0,1-3,4.67L66,61.92H62.46l-5.81-7.26h3a2.17,2.17,0,0,0,2.16-2.23,2.1,2.1,0,0,0-2.27-2.23H55.47V61.92H52.56"/><path id="path30" class="cls-2" d="M103.61,43.09V29.17h8.3s4,.07,4,4.07a4.62,4.62,0,0,1-3,4.64l4.2,5.21h-3.57l-5.81-7.2h3a2.18,2.18,0,0,0,2.16-2.23,2,2,0,0,0-2.28-2.23h-4.09V43.09h-2.91"/><path id="path38" class="cls-2" d="M45.48,40.68H49.4V34.29h2.79V43.1H44.87c-1.09,0-6.37-1.23-6.42-6.79a6.91,6.91,0,0,1,6.63-7.13h7.18v2.46H45.77a4.33,4.33,0,0,0-4.34,4.58c0,3.55,3.6,4.46,4,4.46"/><path id="path40" class="cls-2" d="M87.3,48h2.93v2.16L92.07,48h3.46a4.46,4.46,0,0,1,4.74,4.81v9.16h-3v-9.6a2,2,0,0,0-2.09-1.91h-5V61.92H87.31V48"/><path id="path42" class="cls-2" d="M22.84,29.17h2.91v2.14l1.83-2.14h3.47A4.48,4.48,0,0,1,35.81,34v9.11h-3V33.54a2,2,0,0,0-2.11-1.91h-5V43.09h-2.9V29.17"/><path id="path44" class="cls-2" d="M16,43.09h2.86V29.17H16Z"/><path id="path46" class="cls-2" d="M118.25,61.89V59.52h8.09s1.61.3,1.61-1.65-1.21-1.74-1.65-1.74h-4.67s-3.61.25-3.61-4,3.56-4.2,3.56-4.2h8.88v2.46h-7.79s-1.7,0-1.7,1.61,1.14,1.9,2.21,1.9h4.16s3.51-.37,3.51,3.81-3.6,4.16-3.6,4.16h-9"/><path id="path48" class="cls-2" d="M.3,43.09V40.72H8.39S10,41,10,39.08s-1.2-1.75-1.64-1.75H3.68S.07,37.59.07,33.38s3.56-4.2,3.56-4.2H12.5v2.46H4.72s-1.7,0-1.7,1.6,1.16,1.91,2.21,1.91H9.39s3.51-.37,3.51,3.79S9.3,43.1,9.3,43.1H.3"/><path id="path4192" class="cls-3" d="M93.68,28.31a7.62,7.62,0,1,0,7.61,7.62,7.63,7.63,0,0,0-7.61-7.62m0,12.42a4.81,4.81,0,0,1,0-9.61,4.81,4.81,0,1,1,0,9.61"/><path id="path4194" class="cls-3" d="M63.75,29.17H60.68L54.05,43.09h3.27l1.76-4h6.31l1.74,4h3.26M59.89,37l2.33-5.7L64.52,37Z"/><path id="path4194-3" class="cls-3" d="M36.54,48H33.47l-6.63,14h3.27l1.76-4h6.31l1.75,4h3.25m-10.5-6.08L35,50.13l2.3,5.7Z"/><path id="path4190" class="cls-3" d="M79.93,29.17H72.2V43.09h3V36.33l1.71,2.36h3.05a4.54,4.54,0,0,0,4.47-4.76,4.54,4.54,0,0,0-4.47-4.75m-.1,6.94H75.17V31.74h4.66c1,0,1.76,1.15,1.76,2.2a2,2,0,0,1-1.76,2.18"/></g></g></g></g></g></g></svg>