<svg xmlns="http://www.w3.org/2000/svg" viewBox="0 0 221.28 72"><defs><style>.cls-1{fill:#e12a27;}</style></defs><g id="Layer_2" data-name="Layer 2"><g id="svg4403"><path id="path1" class="cls-1" d="M43,46.71q-2.27-4.18-4.52-8.36l-4.69,8.36ZM12.89,65.62l41.06,0c-1-.71-2.33-3.48-2.33-3.48l-38.44,0c-3.95-.28-4.48-6.26.55-6.12l34.52,0-2-3.57H12.65C4.38,52.88,4.09,64.94,12.89,65.62Zm57-9.86L49.05,18.18a10.82,10.82,0,0,1-1.63,4.13L66.77,57.18c1.66,3.59-3.33,7-5.65,2.5L44,28.6,42,32.25,58.58,62.32C62.91,69.39,73.58,63.8,69.9,55.76Zm-37-46.43-21.09,38A9.77,9.77,0,0,1,16,46.81L35.79,11.26C38,8,43.46,10.43,40.88,14.75l-17.94,32H27L44.46,15.53C48.19,8.12,37.83,2,32.94,9.33ZM75.62,54.56c4,8.2-2.55,17-9.51,17H11.64l-.23,0C2.12,71.57-2.22,61.24,1.12,55.05L28.91,5.13c4.62-7.06,15.23-6.64,19.49.08L74.77,53Z"/><path id="path2" d="M137.43,34l11,0c4.16,0,4.88,3.28,4.84,5.16-.06,3.29-2.12,4-4.11,4.51,1.43,2.06,3.73,4.9,5.23,6.9h-5.92l-5.79-9.28s2.82,0,4.16,0c2.28,0,2.21-3.84,0-3.82l-4.49,0s0,13.12,0,13.12h-4.88V34m-47,25.4h2.76c3.42,0,5.63,1.38,5.63,4.24C98.8,66.74,97,68,93.17,68H90.41ZM85.8,71.54h8.26c5.84,0,9.42-2.77,9.42-7.92,0-4.86-3.53-7.78-9.42-7.78H85.8Zm19.49,0h14.95V68H109.82V65h9.31V61.86h-9.31V59.1H120V55.82H105.29Zm16.85.06h4.35V61.77h.06l7,9.86h5.12V55.82h-4.22v9.74h-.52l-6.65-9.74h-5.11Zm70.73-3.27c-3.3,0-4.56-2.42-4.56-4.84s1.26-4.82,4.56-4.82,4.57,2.41,4.57,4.82-1.27,4.84-4.57,4.84m-9.68-4.84c0,4.72,3.49,8.48,9.68,8.48s9.69-3.76,9.69-8.48-3.5-8.47-9.69-8.47-9.68,3.76-9.68,8.47Zm-41.2,8h4.36V61.71h.05l7,9.85h5.12V55.75h-4.22V65.5h-.52l-6.65-9.75H142Zm19.75.12h4.71V55.76h-4.71Zm7.14-.59a15.88,15.88,0,0,0,5.28.69c1.9-.08,5.56-.27,7.08-2.64a4.84,4.84,0,0,0,.71-2.66c0-5.81-8.38-4.06-8.38-6.66,0-1.41,2-1.5,3.17-1.5a10.3,10.3,0,0,1,3.94.74l.3-3.32a16.28,16.28,0,0,0-4.57-.6c-3.55,0-7.71,1.06-7.71,4.93,0,5.86,8.37,4,8.37,7a1.3,1.3,0,0,1-.16.67c-.48.84-1.86.89-2.75.9a11.11,11.11,0,0,1-4.87-1.06Zm35.9.47h4.36V61.71h.05l7,9.85h5.11V55.75h-4.22V65.5h-.52l-6.64-9.75h-5.12ZM95.11,38.28l2.22,4.9H93Zm-10,12.09h4.57l1.68-3.62h7.53l1.68,3.62h4.85L98,33.92H92.64Zm35.11-16.45h-5L110.8,45.39,106,33.92h-5l7.15,16.45h5Zm51.64,0h-5.78l-3.9,6.68-3.9-6.68h-5.78l7.13,10.32v6.13h5.1V44.24ZM120.81,50.51H135.7V46.82H125.33V43.68h9.26V40.35h-9.26V37.46h10.11V34H120.81Z"/></g></g></svg>