<?xml version="1.0" encoding="utf-8"?>
<!-- Generator: Adobe Illustrator 24.3.0, SVG Export Plug-In . SVG Version: 6.00 Build 0)  -->
<svg version="1.1" id="Layer_1" xmlns="http://www.w3.org/2000/svg" xmlns:xlink="http://www.w3.org/1999/xlink" x="0px" y="0px"
	 viewBox="0 0 199.6 72" style="enable-background:new 0 0 199.6 72;" xml:space="preserve">
<style type="text/css">
	.st0{fill:#CA163F;}
	.st1{fill:#FFFFFF;}
	.st2{fill:#CA1D44;}
	.st3{fill:#E01932;}
	.st4{fill:#231F20;}
	.st5{fill:#E6AB39;}
	.st6{fill:#638E8C;}
	.st7{fill:#0C3C5D;}
	.st8{fill-rule:evenodd;clip-rule:evenodd;fill:#E5AE4A;}
	.st9{fill-rule:evenodd;clip-rule:evenodd;fill:#C08532;}
	.st10{fill-rule:evenodd;clip-rule:evenodd;fill:#85B3DA;}
	.st11{fill-rule:evenodd;clip-rule:evenodd;fill:#162C53;}
	.st12{fill-rule:evenodd;clip-rule:evenodd;fill:#5E85A9;}
	.st13{fill:#5E85A9;}
	.st14{fill-rule:evenodd;clip-rule:evenodd;fill:#C98E37;}
	.st15{fill:#D39A3E;}
	.st16{fill:#C98E37;}
	.st17{fill-rule:evenodd;clip-rule:evenodd;fill:#EFC283;}
	.st18{fill-rule:evenodd;clip-rule:evenodd;fill:#E3AA36;}
	.st19{fill-rule:evenodd;clip-rule:evenodd;fill:#F9E8B6;}
	.st20{fill-rule:evenodd;clip-rule:evenodd;}
	.st21{fill-rule:evenodd;clip-rule:evenodd;fill:#231F20;}
	.st22{fill-rule:evenodd;clip-rule:evenodd;fill:#FFFFFF;}
	.st23{fill-rule:evenodd;clip-rule:evenodd;fill:#B21F2F;}
	.st24{fill-rule:evenodd;clip-rule:evenodd;fill:#BA7F2C;}
	.st25{fill-rule:evenodd;clip-rule:evenodd;fill:#E0BD2D;}
	.st26{fill-rule:evenodd;clip-rule:evenodd;fill:#B96367;}
</style>
<g id="svg2">
	<path class="st0" d="M112.5,53.7H64.9c-0.3,0-0.8,0.3-0.9-0.4s0.2-0.8,0.8-0.8h95.3c0.3,0,0.8-0.2,1,0.2s-0.1,0.9-0.6,1h-1.7
		C143.3,53.7,127.9,53.7,112.5,53.7z"/>
	<path class="st1" d="M64,2.4c0.6-0.1,1.2-0.1,1.9-0.1c0.4,0,0.5,0.2,0.6,0.5c1.3,2.1,2.6,4.2,4,6.2c0.1,0.2,0.2,0.4,0.4,0.5
		C71.1,9.3,71,8.9,71,8.7V2.9c0-0.5,0.1-0.7,0.7-0.7c1.9,0,1.9,0,1.9,1.8v9.9c0,0.7-0.2,0.9-0.9,0.9c-0.9,0.1-1.8-0.4-2.2-1.2
		c-1.3-2.1-2.6-4.2-4-6.2c-0.3,0.2-0.2,0.4-0.2,0.6v6.1c0,0.5-0.1,0.8-0.7,0.7c-0.6,0-1.2,0-1.7-0.1c0.2-0.2,0.1-0.4,0.1-0.7V2.9
		C64.1,2.7,64.1,2.5,64,2.4z"/>
	<path class="st1" d="M94.8,9.5V3c0-0.5,0.1-0.7,0.7-0.7c1.8,0,1.8,0,1.8,1.8V14c0,0.7-0.1,0.9-0.9,1c-0.9,0.1-1.7-0.4-2.1-1.2
		c-1.3-2.1-2.6-4.1-4-6.2c-0.4,0.2-0.2,0.5-0.2,0.7v5.9c0,0.5-0.1,0.7-0.7,0.7c-1.8,0-1.8,0-1.8-1.8v-10c0-0.6,0.2-0.8,0.8-0.8
		c0.9-0.2,1.9,0.3,2.3,1.1c1.2,2.1,2.6,4.1,3.9,6.1C94.6,9.6,94.7,9.6,94.8,9.5z"/>
	<path class="st1" d="M128,2.4c0.7-0.1,1.4-0.1,2.1-0.1c0.4,0,0.4,0.2,0.4,0.5v11.7c0,0.4-0.1,0.5-0.5,0.5c-0.4,0-0.8,0-1.2,0
		c-0.4,0.1-0.8-0.1-0.9-0.5c-1.5-2.3-2.9-4.6-4.5-6.9c-0.3,0.2-0.2,0.4-0.2,0.6c0,2,0,4,0,6c0,0.6-0.1,0.8-0.7,0.8
		c-1.8,0-1.8,0-1.8-1.7V3c0-0.6,0.2-0.7,0.8-0.8c0.9-0.2,1.9,0.3,2.3,1.2c1.3,2.1,2.6,4.3,4.1,6.3c0.3-0.2,0.2-0.5,0.2-0.8
		c0-1.2,0.1-2.3,0-3.5C128.2,4.4,128.1,3.4,128,2.4z"/>
	<path class="st1" d="M142.2,6.2h-2.1c-0.3,0-0.4-0.2-0.5-0.4c-0.4-1.1-1.6-1.7-2.7-1.4c-0.9,0.3-1.5,1.2-1.5,2.1
		c-0.1,1.4-0.1,2.8,0,4.2c0,1.1,0.9,2,2,2c0.1,0,0.2,0,0.4,0c1.2-0.1,2.1-1.2,2-2.4c0,0,0,0,0,0c0-0.3-0.1-0.4-0.4-0.4h-0.9
		c-1.1,0-1,0-1.1-1.1c-0.1-0.9,0.3-1.1,1.1-1c1,0.1,2.1,0.1,3.1,0c0.5,0,0.7,0.1,0.7,0.6c0,0.9-0.1,1.7-0.1,2.6
		c-0.2,2.1-2,3.8-4.2,3.9c-2.6,0.1-4.5-1.2-4.9-3.4c-0.4-2-0.4-4,0-6c0.5-2.3,2.4-3.5,5.1-3.3C140.3,2.3,142,4.1,142.2,6.2z"/>
	<path class="st1" d="M117.7,14.9c-0.9,0.3-1.3-0.2-1.5-1.2s-0.6-1.2-1.5-1.1c-0.4,0-0.8,0-1.3,0c-0.7,0-1.4-0.2-1.9,0.1
		s-0.5,1.1-0.7,1.7c-0.1,0.4-0.3,0.4-0.7,0.4c-2.1,0.1-2.2,0.1-1.4-1.9l3.7-10c0.2-0.6,0.6-0.7,1.1-0.7s1.1-0.2,1.4,0.7
		c1.3,3.7,2.6,7.3,4,11c0.3,0.9,0.3,0.9-0.7,0.9C118.2,15,117.9,15,117.7,14.9z M113.7,6.1c-0.5,1.4-1,2.7-1.4,4
		c-0.2,0.4,0,0.5,0.3,0.5h2.1c0.4,0,0.4-0.2,0.3-0.5C114.7,8.8,114.2,7.6,113.7,6.1L113.7,6.1z"/>
	<path class="st1" d="M84.6,14.9c-0.9,0.3-1.4-0.2-1.5-1.2s-0.6-1.2-1.5-1.1c-0.9,0.1-1.8,0.1-2.7,0c-0.4-0.1-0.8,0.2-0.9,0.6
		c-0.7,1.8-0.7,1.8-2.6,1.7c-0.4,0-0.6-0.1-0.4-0.6c1.4-3.9,2.9-7.7,4.2-11.6c0.1-0.4,0.3-0.5,0.7-0.5c1.5,0,1.5-0.1,2,1.3l3.8,10.3
		c0.3,1,0.3,1-0.7,1C85,14.9,84.9,14.9,84.6,14.9z M82.1,10.5c-0.5-1.4-1-2.8-1.5-4.5c-0.6,1.6-1.1,3-1.5,4.5H82.1z"/>
	<path class="st1" d="M98.8,2.3h2.4c0.4,0,0.5,0.4,0.7,0.7c0.7,1.4,1.3,2.8,1.9,4.2c0.3,0,0.3-0.3,0.4-0.5c0.4-0.9,0.8-1.8,1.2-2.6
		c0.8-1.8,1-1.9,3-1.7c0.7,0.1,0.3,0.4,0.2,0.6c-1,1.9-1.9,3.9-2.9,5.8c-0.4,0.6-0.6,1.4-0.6,2.1c0,1.2,0,2.3,0,3.5
		c0,0.4-0.1,0.5-0.5,0.6c-2,0.1-2.1,0.1-1.9-1.9c0.2-2.3-0.4-4.6-1.7-6.5C100.1,5.1,99.4,3.7,98.8,2.3z"/>
	<path class="st1" d="M78.3,48.2c-0.7,0.1-1.4,0.1-2.1,0.1c-0.4,0-0.4-0.2-0.4-0.5V36.2c0-0.4,0.1-0.5,0.5-0.5c0.4,0,0.7,0,1.1,0
		c0.5-0.1,0.9,0.2,1.1,0.6c1.3,2.1,2.7,4.2,4,6.2c0.1,0.2,0.2,0.4,0.5,0.8v-6.9c0-0.5,0.2-0.7,0.7-0.7c1.8,0,1.8,0,1.8,1.8v10
		c0,0.7-0.2,0.9-0.9,0.9c-0.9,0.1-1.7-0.4-2.1-1.2c-1.2-2-2.5-4-3.8-6c-0.1-0.2-0.1-0.3-0.3-0.3c-0.2,0.2-0.2,0.5-0.2,0.8
		c0,1.3,0,2.5,0,3.8C78.2,46.3,78.2,47.3,78.3,48.2z"/>
	<path class="st1" d="M114.7,42.1v-5.6c0-0.5,0.1-0.8,0.7-0.7c1.5,0,2.9,0,4.4,0c2.1-0.1,3.9,1.5,4,3.6c0,0.2,0,0.5,0,0.7
		c0,1.1-0.7,2.1-1.7,2.6c-0.5,0.3-0.5,0.5-0.2,0.9c0.7,1.4,1.4,2.8,2.2,4.2c0.2,0.5,0.3,0.6-0.4,0.7c-1.6,0.2-2.7-0.2-3.1-1.9
		c-0.3-0.8-0.7-1.6-1.1-2.3c-0.4-0.7-1.2-1-1.9-0.8c-0.3,0.1-0.2,0.4-0.2,0.6v3.7c0,0.5-0.1,0.8-0.7,0.8c-1.8,0-1.8,0-1.8-1.8
		C114.7,45.1,114.7,43.6,114.7,42.1z M118.7,38L118.7,38c-0.3,0-0.5,0-0.8,0c-0.6-0.1-0.7,0.2-0.7,0.7s0,1.4,0,2.1
		c0,0.3,0.1,0.5,0.4,0.5c0.7,0,1.5,0,2.2,0c0.8-0.1,1.4-0.7,1.4-1.6c0-0.8-0.6-1.5-1.5-1.6C119.4,38,119,38,118.7,38L118.7,38z"/>
	<path class="st1" d="M104.1,42v-5.6c0-0.5,0.1-0.7,0.7-0.7c2.3,0,4.7,0,7,0c0.6,0,0.7,0.2,0.7,0.7c0,1.6,0,1.6-1.6,1.6h-3.6
		c-0.5,0-0.7,0.1-0.7,0.6c0,0.7-0.2,1.7,0.2,2.1s1.4,0.1,2.1,0.2s1.3,0,1.9,0s0.8,0.2,0.8,0.9c0,1.4,0,1.4-1.4,1.4h-2.8
		c-0.5,0-0.8,0-0.7,0.6c0.1,0.8-0.3,1.8,0.2,2.2s1.4,0.1,2.2,0.2h2.9c0.5,0,0.6,0.2,0.6,0.6c0.1,1.7,0.1,1.7-1.6,1.7h-6
		c-0.5,0-0.7-0.1-0.7-0.7C104.1,45.8,104.1,43.9,104.1,42z"/>
	<path class="st1" d="M64,40.4v-4c0-0.5,0.2-0.7,0.7-0.7c1.8,0,1.8,0,1.8,1.8v6.3c0,1.9,1.3,2.8,2.9,2.3c0.9-0.3,1.5-1.2,1.4-2.1
		c0-2.5,0-5,0-7.5c0-0.7,0.2-0.8,0.8-0.8c1.7,0,1.7,0,1.7,1.7V44c0,2.4-1.9,4.4-4.3,4.4c-0.1,0-0.2,0-0.4,0
		c-2.4,0.2-4.4-1.6-4.6-3.9c0-0.2,0-0.3,0-0.5C64,42.8,64,41.6,64,40.4z"/>
	<path class="st1" d="M129.6,48.4c-1.4,0.1-2.8-0.3-4-1.2c-0.4-0.3-0.6-0.6-0.1-1c0.1-0.1,0.3-0.2,0.3-0.3c0.5-0.7,0.9-0.7,1.6-0.3
		c1,0.6,2.2,0.8,3.3,0.4c0.7-0.1,1.2-0.8,1.1-1.5c0-0.7-0.5-1.3-1.2-1.3c-0.6-0.1-1.2-0.2-1.8-0.2c-2.2-0.4-3.3-1.4-3.3-3.4
		c-0.2-1.9,1.3-3.6,3.2-3.8c1.7-0.4,3.5,0,4.9,1c0.4,0.3,0.4,0.5,0.1,0.8h-0.1c-0.6,0.6-1.1,1.3-2.2,0.5c-0.7-0.4-1.5-0.4-2.3-0.2
		c-0.7,0.1-1.2,0.8-1.1,1.5c0,0.8,0.6,1.1,1.2,1.3s1.4,0.2,2.1,0.3c1.6,0.1,2.8,1.3,3,2.9c0.3,1.6-0.5,3.2-2,4
		C131.5,48.3,130.6,48.5,129.6,48.4z"/>
	<path class="st1" d="M97.6,43.5c0.4-1.4,0.9-2.8,1.3-4.2c0.3-1,0.7-2,0.9-3c0-0.4,0.3-0.6,0.7-0.6c0,0,0.1,0,0.1,0
		c0.5,0,0.9,0,1.4,0c0.5,0,0.5,0.2,0.3,0.6c-1.3,3.8-2.5,7.6-3.8,11.4c-0.2,0.8-0.8,0.6-1.2,0.6s-0.9,0.1-1.1-0.6
		c-1.2-3.8-2.5-7.6-3.8-11.4c-0.2-0.4-0.2-0.6,0.4-0.6c2-0.1,2-0.1,2.6,1.8s1.2,4,1.9,6C97.5,43.5,97.5,43.5,97.6,43.5z"/>
	<path class="st1" d="M156,40.8c0.6-1.4,1.3-2.8,1.9-4.2c0.2-0.6,0.7-0.9,1.3-0.9c1.9,0,1.9,0,1,1.7l-2.6,5c-0.3,0.5-0.4,1-0.4,1.6
		c0.1,1.2,0,2.4,0,3.7c0,0.6-0.1,0.7-0.7,0.7c-1.8,0-2,0-1.8-1.8c0.2-2.4-0.4-4.8-1.8-6.8c-0.7-1.2-1.3-2.6-2.1-4h2.5
		c0.4,0,0.4,0.3,0.5,0.5C154.5,37.7,155.2,39.2,156,40.8z"/>
	<path class="st1" d="M146.8,43.1v4.6c0,0.4-0.1,0.6-0.6,0.6c-1.9,0.1-1.9,0.1-1.9-1.8c0-2.6-0.1-5.1,0-7.7c0-0.7-0.2-0.9-0.9-0.9
		s-1.2,0-1.8,0c-0.5,0-0.7,0-0.7-0.6c0-1.6,0-1.6,1.6-1.6h6.7c0.6,0,0.8,0.1,0.8,0.8c0,1.5,0,1.5-1.5,1.5c-1.8,0-1.8,0-1.8,1.8
		C146.8,40.9,146.8,42,146.8,43.1z"/>
	<path class="st1" d="M88.4,42v-5.6c0-0.6,0.2-0.7,0.7-0.7c1.8,0,1.8,0,1.8,1.8v10c0,0.6-0.2,0.8-0.8,0.8c-1.8,0-1.8,0-1.8-1.8V42z"
		/>
	<path class="st1" d="M136.6,42v-5.5c0-0.6,0.1-0.7,0.7-0.7c1.8,0,1.8,0,1.8,1.7v10.1c0,0.6-0.1,0.8-0.8,0.8c-1.7,0-1.7,0-1.7-1.7
		C136.6,45.1,136.6,43.6,136.6,42z"/>
	<path class="st1" d="M117.3,30.9c-0.3,0-0.6,0-0.9,0c-0.8,0.2-1.5-0.3-1.8-1c-1.3-2.1-2.7-4.2-4.1-6.3c-0.3,0.2-0.2,0.5-0.2,0.7
		v5.9c0,0.5-0.1,0.7-0.7,0.7c-1.9,0-1.9,0-1.9-1.8v-10c0-0.6,0.2-0.8,0.8-0.8c1-0.1,1.9,0.4,2.3,1.3c1.2,2.1,2.6,4.1,4,6.1V19
		c0-0.5,0.1-0.7,0.6-0.6s1.2,0,1.8,0L117.3,30.9z"/>
	<path class="st1" d="M104.9,24.7v5.7c0,0.5-0.1,0.6-0.6,0.6c-1.9,0-1.9,0-1.9-1.9v-2.8c0-0.5-0.2-0.6-0.6-0.6c-1,0-2,0-3,0
		c-0.5,0-0.6,0.2-0.6,0.6v4c0,0.6-0.2,0.7-0.7,0.7c-1.8,0-1.8,0-1.8-1.8v-10c0-0.6,0.2-0.8,0.8-0.8c1.8,0,1.8,0,1.8,1.8
		c0,0.9,0,1.8,0,2.7c0,0.5,0.2,0.6,0.6,0.6c1,0,2,0,3,0c0.4,0,0.6-0.1,0.6-0.6v-4c0-0.5,0.1-0.6,0.6-0.6c1.9,0,1.9,0,1.9,1.8V24.7z"
		/>
	<path class="st1" d="M160.8,22.4h-1.2c-0.8,0-1.4,0-1.7-0.9c-0.2-0.8-1.3-1.1-2.2-0.9c-0.8,0.1-1.5,0.7-1.6,1.6
		c-0.3,1.7-0.3,3.5,0,5.2c0.2,1.1,1.2,1.8,2.2,1.6c0.1,0,0.2,0,0.2-0.1c1.1-0.2,1.9-1.3,1.8-2.4c-0.1-0.2-0.1-0.4-0.4-0.3h-0.5
		c-1.6,0-1.6,0-1.5-1.6c0-0.4,0.1-0.5,0.5-0.5h3.9c0.4,0,0.5,0.1,0.4,0.5c0,0.9,0,1.8-0.1,2.7c-0.2,2.3-2.3,4-4.6,3.9
		c-2.3,0.2-4.3-1.5-4.6-3.8c-0.2-1.7-0.2-3.5,0-5.3c0.4-2.5,2.6-4.2,5.1-3.8c0.2,0,0.4,0.1,0.5,0.1
		C159.1,18.8,160.6,20.4,160.8,22.4z"/>
	<path class="st1" d="M149.9,24.8c0,0.9,0,1.8-0.1,2.7c-0.4,2.3-2.5,3.9-4.8,3.6c-2.2,0-4.1-1.8-4.2-4c-0.2-1.6-0.2-3.2,0-4.8
		c0.2-2.3,2-4,4.3-4c2.3-0.2,4.4,1.4,4.7,3.7C149.9,22.9,150,23.9,149.9,24.8z M143.1,24.7c0,0.8,0.1,1.6,0.2,2.4c0.1,1,1,1.8,2,1.8
		c1,0.1,1.9-0.6,2-1.6c0.2-1.7,0.2-3.4,0-5.1c-0.1-1-1.1-1.8-2.1-1.7c-1,0-1.9,0.8-2,1.8C143.1,23.1,143.1,23.9,143.1,24.7z"/>
	<path class="st1" d="M129.1,24.7c0.1,0.9,0,1.8-0.1,2.7c-0.4,2.2-2.4,3.7-4.6,3.6c-2.2,0.2-4.2-1.5-4.5-3.7c-0.2-1.8-0.2-3.6,0-5.4
		c0.4-2.4,2.3-3.8,4.9-3.6c2.3,0,4.1,1.9,4.2,4.2C129.1,23.3,129.2,24,129.1,24.7z M122.4,24.7c0,0.7,0,1.5,0,2.2c0,1.1,0.9,2,2,2
		c1.1,0.1,2-0.8,2.1-1.9c0,0,0,0,0,0c0.2-1.5,0.2-3.1,0-4.6c-0.1-1.1-1-1.9-2.1-1.9c-1.1,0-2,0.9-2.1,2
		C122.4,23.2,122.4,24,122.4,24.7L122.4,24.7z"/>
	<path class="st1" d="M82,23.6c0.1,0.6,0.2,1.2,0.1,1.8c0,0.5-0.4,0.4-0.6,0.4h-3.7c-0.5,0-0.6,0.1-0.6,0.6c0,0.6,0,1.3,0,1.9
		c0,0.5,0.2,0.5,0.6,0.5h4.5c0.6,0,0.8,0.1,0.8,0.7C83,31,83.1,31,81.6,31h-6.2c-0.5,0-0.7-0.1-0.7-0.6c0-3.8,0-7.5,0-11.2
		c0-0.6,0.2-0.7,0.7-0.7c2.3,0,4.6,0,6.9,0c0.6,0,0.7,0.2,0.7,0.8c0,1.5,0,1.5-1.5,1.5s-2.9,0-4.4,0c-0.2,0.9-0.3,1.8-0.2,2.7
		c0,0.2,0.2,0.3,0.3,0.3C78.9,23.8,80.5,23.7,82,23.6z"/>
	<path class="st1" d="M188.4,31c-0.9,0.3-1.3-0.2-1.4-1.2s-0.6-1.2-1.5-1.1c-0.9,0.1-1.8,0.1-2.7,0c-0.4,0-0.6,0.1-0.8,0.6
		c-0.7,1.8-0.7,1.8-2.6,1.7c-0.4,0-0.6-0.1-0.4-0.5c1.4-3.9,2.8-7.8,4.3-11.7c0.1-0.1,0.1-0.3,0.3-0.4c0.8-0.3,1.8,0,2.1,0.9
		c0,0,0,0.1,0,0.1l3.8,10.5c0.4,1,0.4,1-0.8,1C188.7,31,188.5,31,188.4,31z M182.9,26.7h3c-0.5-1.5-1-2.8-1.5-4.5
		c-0.5,1.4-0.9,2.6-1.3,3.9C183,26.3,183,26.4,182.9,26.7L182.9,26.7z"/>
	<path class="st1" d="M87.2,24.6c0.1,1,0.1,1.6,0.1,2.3c0,1,0.7,1.8,1.7,1.9c0.9,0.2,1.9-0.3,2.2-1.2c0.1-0.4,0.5-0.7,0.9-0.6
		c0,0,0,0,0,0h0.3c1.8,0,1.9,0.1,1,1.7c-1,1.8-3.1,2.7-5.1,2.2c-2-0.3-3.5-2-3.6-4c-0.2-1.6-0.2-3.2,0-4.8c0.2-2.2,2-4,4.2-4
		c2.3-0.3,4.4,1.3,4.9,3.5c0.1,0.4,0.1,0.5-0.3,0.5h-0.9c-0.7,0-1.3,0-1.6-0.9c-0.4-0.8-1.3-1.2-2.1-0.9c-0.9,0.2-1.5,0.9-1.6,1.7
		V24.6z"/>
	<path class="st1" d="M171.5,24.7c0,0.9,0,1.7,0.1,2.6c0.1,0.8,0.8,1.4,1.6,1.6c0.8,0.2,1.7-0.2,2.1-0.9c0.4-0.8,0.9-0.9,1.6-0.9
		c1.5,0,1.5,0.1,0.9,1.5c-0.9,1.9-2.9,3-5,2.5c-1.9-0.2-3.5-1.7-3.8-3.6c-0.3-1.8-0.3-3.7,0-5.6c0.4-2.1,2.3-3.7,4.4-3.5
		c2.2-0.2,4.1,1.3,4.6,3.5c0.1,0.5,0,0.6-0.5,0.6c-0.3,0-0.6,0-0.9,0c-0.6,0.2-1.2-0.2-1.4-0.8c-0.4-0.8-1.3-1.2-2.1-1
		c-0.8,0.1-1.5,0.7-1.6,1.6C171.5,23,171.5,23.8,171.5,24.7z"/>
	<path class="st1" d="M69.8,25.9v4.5c0,0.5-0.1,0.8-0.7,0.8c-1.8,0-1.8,0-1.8-1.8c0-2.6-0.1-5.2,0-7.8c0-0.7-0.2-0.9-0.9-0.8
		c-0.4,0.1-0.8,0.1-1.2,0c-0.4,0-1.1,0.3-1.2-0.2c-0.1-0.6-0.1-1.2,0-1.8c0-0.3,0.2-0.2,0.4-0.2h8.1c0.3,0,0.5,0.1,0.5,0.4V19
		c0.1,1.7,0.1,1.7-1.7,1.7c-1.6,0-1.6,0-1.6,1.7C69.8,23.5,69.8,24.6,69.8,25.9z"/>
	<path class="st1" d="M131.4,24.7v-5.6c0-0.6,0.1-0.7,0.7-0.7c1.8,0,1.8,0,1.8,1.8V28c0,0.7,0.2,0.8,0.8,0.8c1.4,0,2.8,0,4.2,0
		c0.5,0,0.7,0,0.7,0.7c0,1.6,0,1.6-1.6,1.6c-1.9,0-3.8,0-5.7,0c-0.9,0-1-0.2-1-1C131.4,28.2,131.4,26.5,131.4,24.7z"/>
	<path class="st1" d="M191.4,24.7v-5.6c0-0.5,0.1-0.7,0.7-0.7c1.8,0,1.8,0,1.8,1.8V28c0,0.6,0.1,0.7,0.7,0.7c1.5,0,2.9,0,4.4,0
		c0.5,0,0.7,0.2,0.7,0.7c0,1.6,0,1.6-1.6,1.6h-5.9c-0.6,0-0.8-0.1-0.8-0.7C191.5,28.4,191.4,26.6,191.4,24.7z"/>
	<path class="st1" d="M166,24.8v5.5c0,0.5-0.1,0.7-0.6,0.7c-1.9,0-1.9,0.1-1.9-1.9v-9.9c0-0.7,0.1-0.8,0.8-0.8c1.7,0,1.7,0,1.7,1.7
		V24.8z"/>
	<path class="st0" d="M83.1,58.7c1.1-0.3,2.2,0.3,2.5,1.3c0.9,1.6,2,3.2,3.2,4.7c0-1.7,0.1-3.3,0-5.1c0-0.7,0.2-1,0.9-0.9
		c1.2,0,1.2,0,1.2,1.2V68c0,0.4,0.3,1-0.2,1s-1.4,0.4-1.9-0.4c-1-1.7-2.2-3.4-3.2-5.1c-0.1-0.2-0.2-0.3-0.5-0.7v5
		c0,1.2,0,1.2-1.3,1.2c-0.3,0-0.6,0.2-0.8-0.2c0.2-0.2,0.1-0.6,0.1-0.9V58.7z"/>
	<path class="st2" d="M149.6,69h-2c-0.4,0-0.5-0.2-0.6-0.5c-0.5-1.1-1.1-2.1-1.5-3.2c-0.3-0.7-0.8-0.5-1.3-0.4s-0.4,0.6-0.4,0.9
		c-0.1,0.9-0.1,1.7,0,2.6c0,0.5-0.1,0.7-0.7,0.7c-1.5,0-1.5,0-1.5-1.5v-8.2c0-0.6,0.1-0.8,0.8-0.8c1.2,0,2.4,0,3.7,0
		c1.7,0,3.1,1.4,3,3.1c0,0.3-0.1,0.6-0.1,0.9c-0.1,0.5-0.4,1-0.9,1.4c-1,0.5-0.7,1-0.3,1.7C148.5,66.8,149,67.8,149.6,69z
		 M143.8,61.8v1c0,0.2,0,0.4,0.3,0.3c0.7,0,1.3,0,2-0.1c0.7-0.2,1.1-0.9,0.9-1.6c-0.1-0.2-0.2-0.4-0.3-0.6c-0.4-0.3-1-0.5-1.6-0.4
		C143.8,60.5,143.8,60.5,143.8,61.8L143.8,61.8z"/>
	<path class="st2" d="M97.5,63.9c0,0.7,0,1.3,0.1,2c0.1,0.9,0.9,1.4,1.8,1.3c0,0,0,0,0.1,0c0.9,0,1.6-0.8,1.6-1.7
		c0-0.4-0.1-0.6-0.5-0.6h-0.4c-1,0-1.4-0.6-1.1-1.5c0.1-0.3,0.2-0.3,0.4-0.3h3c0.4,0,0.5,0.1,0.5,0.5c0,0.7,0,1.5-0.1,2.2
		c-0.2,2-2,3.4-4,3.2c-0.1,0-0.1,0-0.2,0c-1.9-0.1-3.5-1.7-3.4-3.6c0-1.2,0-2.3,0-3.4c0-1.9,1.6-3.4,3.4-3.5
		c1.8-0.2,3.6,0.9,4.1,2.7c0.1,0.5,0.1,0.7-0.5,0.7c-0.8,0-1.5,0.2-1.9-0.9c-0.3-0.7-1.1-0.8-1.8-0.6c-0.6,0.1-1.1,0.5-1.3,1.2
		C97.4,62.3,97.4,63.1,97.5,63.9z"/>
	<path class="st2" d="M137.8,63.9c0,0.6,0,1.1-0.1,1.7c0,1.9-1.5,3.4-3.3,3.5c-2.2,0.2-3.8-1-4.1-3c-0.3-1.5-0.2-3.1,0.1-4.7
		c0.4-1.8,2-3,3.8-2.8c1.8,0,3.4,1.4,3.6,3.2C137.7,62.5,137.7,63.2,137.8,63.9z M135.6,63.9c0.1-0.7,0-1.5-0.1-2.2
		c-0.3-0.9-1.3-1.3-2.2-1c-0.6,0.2-1,0.7-1.1,1.3c-0.2,1.3-0.2,2.5,0,3.8c0.1,1.1,0.7,1.6,1.7,1.6c0.9,0,1.7-0.7,1.7-1.6
		c0,0,0,0,0-0.1C135.7,65,135.7,64.4,135.6,63.9L135.6,63.9z"/>
	<path class="st2" d="M156,60.5c-0.1,0.7-0.2,1.3-0.1,2c0,0.4,0.3,0.4,0.6,0.4c1,0,1.9,0,2.8,0c0.8,0,0.7,0.5,0.7,0.9s0.2,1-0.6,0.9
		c-1-0.1-2,0-2.9,0c-0.4,0-0.5,0.2-0.5,0.5c-0.1,2-0.1,2,1.8,2h2.4c0.5,0,0.7,0.2,0.6,0.6s0.5,1.3-0.5,1.3c-2,0.1-3.9,0-5.9,0
		c-0.4,0-0.5-0.2-0.5-0.6v-9.3c0-0.4,0.1-0.5,0.6-0.5c2.1,0,4.1,0,6.2,0v0.4c0,1.4,0.1,1.2-1.2,1.3C158.2,60.3,157.1,60.3,156,60.5z
		"/>
	<path class="st2" d="M115.5,69h-1.8c-0.5,0-0.5-0.4-0.6-0.7c0-0.7-0.5-1.2-1.2-1.2c-0.1,0-0.3,0-0.4,0.1c-0.2,0.1-0.4,0.1-0.7,0
		c-1.2-0.2-2.1,0-2.2,1.4c0,0.5-0.5,0.4-0.9,0.4c-1.4,0-1.4,0-1-1.3c1-2.8,2.1-5.6,3-8.5c0.1-0.4,0.5-0.7,0.9-0.6c0,0,0.1,0,0.1,0
		c0.4,0,0.9-0.1,1.1,0.6c1.1,3.1,2.2,6.2,3.4,9.3C115.4,68.7,115.5,68.8,115.5,69z M111,61.8c-0.3,0.8-0.5,1.3-0.7,1.9
		c-0.7,1.9-0.7,1.9,1.4,1.8c0.3-0.1,0.5-0.1,0.4-0.4C111.8,64.1,111.4,63.1,111,61.8z"/>
	<path class="st2" d="M67.3,69.1c-1,0-2.1-0.3-2.9-0.8c-0.5-0.3-0.7-0.7-0.1-1.1c0.2-0.1,0.3-0.2,0.4-0.4c0.2-0.3,0.5-0.3,0.9,0
		c0.8,0.5,1.8,0.7,2.7,0.5c0.6,0,1.1-0.6,1.1-1.2c0-0.6-0.4-1.1-1-1.2c0,0,0,0-0.1,0c-0.6-0.1-1.2-0.2-1.7-0.3
		c-1.4-0.1-2.4-1.3-2.4-2.6c-0.2-1.4,0.7-2.7,2.1-3.2c1.5-0.5,3.1-0.3,4.4,0.6c0.4,0.3,0.6,0.5,0.1,0.9s-0.9,1-1.7,0.4
		c-0.6-0.4-1.4-0.4-2.1-0.1c-0.5,0.2-0.8,0.6-0.8,1.2c0,0.5,0.4,1,0.9,1c0.6,0.2,1.2,0.2,1.8,0.3c1.3,0.1,2.4,1.1,2.5,2.5
		c0.2,1.3-0.6,2.6-1.8,3.2C68.9,69,68.1,69.1,67.3,69.1z"/>
	<path class="st0" d="M119.2,58.7c1.4,0,2.7,0,4.1,0c1.7,0,3.1,1.3,3.1,3.1c0,0,0,0.1,0,0.1c0.1,1.7-1.3,3.1-2.9,3.2
		c-0.1,0-0.1,0-0.2,0H123c-1.8,0-1.8,0-1.8,1.8v0.8c0,1.5-0.5,1.8-2,1.2c0.2-0.2,0.1-0.6,0.1-0.9L119.2,58.7z M122.3,60.5
		c-1.3,0-1.3,0-1.3,1.3v1.1c0,0.2,0,0.5,0.3,0.5c0.7,0.1,1.4,0,2.1-0.1c0.6-0.2,1-0.7,0.9-1.3c0-0.6-0.4-1.2-1-1.3
		C123.1,60.5,122.7,60.5,122.3,60.5z"/>
	<path class="st2" d="M75.9,63.8c0-1.5,0-2.9,0-4.4c0-0.6,0.2-0.8,0.8-0.8c1.4,0,1.4,0,1.4,1.3v8.2c0,0.7-0.2,1-0.8,0.8
		C77,69,76.7,69,76.5,69c-0.5,0-0.6-0.2-0.6-0.6C75.9,66.9,75.9,65.3,75.9,63.8z"/>
	<g id="g4390">
		<path id="path4392" class="st1" d="M0,0v38.1C0,55.2,20.7,72,28,72c6.7,0,28-16.6,28-33.9V0H0"/>
	</g>
	<g id="g4394">
		<path id="path4396" class="st1" d="M0.6,0.8v37.4c0,16.8,20.3,33.1,27.4,33.1c6.5,0,27.4-16.3,27.4-33.1V0.8H0.6"/>
	</g>
	<g id="g4398">
		<path id="path4400" class="st3" d="M0.6,0.8h54.8v18.6h-7.7v3.9h-7.4v-3.9h-8.8v3.9h-7.4v-3.9h-8.6v3.9H7.9v-3.9H0.6V0.8"/>
	</g>
	<g id="g4402">
		<path id="path4404" class="st4" d="M47.9,23.6H40v-3.9h-8.3v3.9h-7.9v-3.9h-8.2v3.9H7.8v-3.9H0.7v-0.5h7.6v3.9h7v-3.9h9.1v3.9h7
			v-3.9h9.2v3.9h7v-3.9h7.9v0.5h-7.5V23.6"/>
	</g>
	<g id="g4406">
		<path id="path4408" class="st1" d="M7.1,4H6.9c-0.8,0.4-0.5,3.3,1.7,7.1c1.8,3.2,3.9,5.1,5,5.1h0.2c0.3-0.1,0.4-0.8,0.1-2.3
			c-0.4-1.7-1.1-3.4-2-4.8C10.2,5.8,8.1,4,7.1,4 M13.6,17.3c-1.8,0-4.2-2.9-5.9-5.6c-2-3.5-3-7.6-1.4-8.5c0.2-0.1,0.5-0.2,0.8-0.2
			c1.8,0,4.2,2.9,5.9,5.6c1,1.6,1.7,3.3,2.1,5.1c0.4,2.3-0.1,3-0.8,3.3C14.1,17.2,13.8,17.3,13.6,17.3"/>
	</g>
	<g id="g4410">
		<path id="path4412" class="st1" d="M10.2,8.1c-4.2,0-6.8,1.2-6.8,2c0,0.3,0.5,0.9,1.8,1.4c1.7,0.5,3.4,0.8,5.2,0.8h0.1
			c4.2,0,6.8-1.2,6.8-2c0-0.3-0.5-0.9-1.8-1.4C13.8,8.4,12,8.1,10.2,8.1L10.2,8.1z M10.5,13.1h-0.1c-1.8,0-3.7-0.2-5.4-0.8
			c-2.1-0.8-2.6-1.7-2.6-2.3c0-2,3.9-3,7.9-3h0.2c1.8,0,3.7,0.2,5.4,0.8c2.1,0.8,2.6,1.7,2.6,2.3C18.3,12.3,14.4,13.2,10.5,13.1"/>
	</g>
	<g id="g4414">
		<path id="path4416" class="st1" d="M13.6,4c-1.1,0-3.2,2-5,5.1c-0.9,1.5-1.5,3.1-2,4.8c-0.3,0.7-0.2,1.6,0.2,2.3H7
			c1.1,0,3.2-2,5-5.1C14.1,7.5,14.4,4.4,13.6,4L13.6,4 M7.1,17.3c-0.3,0-0.5,0-0.8-0.1c-0.6-0.3-1.2-1.2-0.8-3.3
			C6,12,6.8,10.3,7.7,8.7c1.7-2.9,4.1-5.6,5.9-5.6c0.3,0,0.5,0,0.8,0.2c1.8,1.1,0.6,5-1.4,8.5C11.5,14.4,8.9,17.3,7.1,17.3"/>
	</g>
	<g id="g4418">
		<path id="path4420" class="st4" d="M7.1,17.5c-0.2,0-0.4,0-0.6-0.1c-0.6-0.4-1.1-1-1.2-1.7c-0.1-1,0-2,0.3-3v-0.1l1.5,0.3v0.1
			c-0.2,0.6-0.3,1.2-0.3,1.8c0,0.4,0,0.8,0.2,1.2h0.2c0.5-0.1,1-0.3,1.4-0.6c0.8-0.7,1.5-1.5,2.1-2.3c0.7-1,1.4-2,2-3
			c0.7-1.4,1.3-2.9,1.5-4.4c0-0.4,0-1.2-0.2-1.4c0,0-0.1-0.2-0.4,0c0,0-1.5,0.4-3.3,3c0,0-1.1,1.7-1.8,3L8,10.2c0.8-1.5,2-3,2-3.2
			c2-2.6,3.3-3.2,3.5-3.2C13.7,3.7,14,3.8,14.2,4c0.3,0.3,0.1,1.5,0.1,1.7c-0.2,1.6-0.7,3.1-1.5,4.5c-0.5,1.1-1.2,2.1-2,3
			c-0.6,0.8-1.3,1.6-2.1,2.3c-0.4,0.4-1,0.7-1.7,0.8c-0.2,0-0.3,0-0.5-0.1c-0.2-0.5-0.3-1-0.3-1.5c0-0.6,0.1-1.1,0.3-1.7l-0.8-0.1
			c-0.3,0.8-0.4,1.7-0.3,2.6c0.2,0.8,0.4,1.2,0.9,1.4c0.8,0.2,1.6-0.1,2.1-0.6c1.2-1,2.3-2.1,3.2-3.3c1.2-1.7,2.1-3.6,2.7-5.6
			C14.8,6,15,5.1,15,5.1c0.1-0.7-0.1-1.4-0.6-2c-0.3-0.3-0.7-0.4-1.1-0.3c-2.7,0.3-5.8,5.9-5.8,6.1L7.3,8.7c0.2-0.3,3.2-5.9,6-6.2
			c0.5-0.1,1,0.1,1.4,0.5c0.6,0.6,0.8,1.5,0.6,2.3c0,0.8-0.2,1.5-0.5,2.3c-0.6,2-1.6,3.9-2.7,5.6c-0.9,1.3-1.9,2.5-3.2,3.5
			C8.9,16.8,8,17.5,7.1,17.5"/>
	</g>
	<g id="g4422">
		<path id="path4424" class="st4" d="M12.4,10.2c-0.6-1.3-1.3-2.5-2.3-3.5l0.3-0.3c0.9,1.1,1.7,2.3,2.3,3.6L12.4,10.2"/>
	</g>
	<g id="g4426">
		<path id="path4428" class="st4" d="M13,9c-0.6-1.1-1.3-2.2-2.1-3.2l0.3-0.3c0.9,1,1.6,2,2.3,3.2L13,9"/>
	</g>
	<g id="g4430">
		<path id="path4432" class="st4" d="M7.7,12.1l-0.9-1.8C4.2,4.5,5.8,3.3,6,3.2c2-1.5,4.4,1.5,4.5,1.7l-0.3,0.3c0,0-2.4-2.9-4.1-1.7
			l0,0c0,0-1.7,0.9,0.9,6.7L8,12L7.7,12.1"/>
	</g>
	<g id="g4434">
		<path id="path4436" class="st4" d="M9.1,12.3C5.6,7.2,6.3,4.4,6.3,4.4C6.4,4.2,6.7,4,6.9,4C8,3.8,9.5,5.7,9.7,5.8L9.4,6.1
			c-0.5-0.9-1.3-1.6-2.3-2c-0.2,0-0.2,0-0.3,0.3C6.8,4.4,6,7,9.4,12L9.1,12.3"/>
	</g>
	<g id="g4438">
		<path id="path4440" class="st4" d="M13.6,17.5c-0.9,0-2.1-0.8-3.5-2.1l0.3-0.3c2,1.8,3,2.1,3.5,1.8c0.8-0.3,0.9-1.4,0.9-1.4
			c0.4-1.7-1.2-5.4-1.4-5.6l0.3-0.1c0,0.1,1.8,4.1,1.4,5.7c-0.1,0.7-0.6,1.3-1.2,1.5C13.9,17.5,13.8,17.5,13.6,17.5"/>
	</g>
	<g id="g4442">
		<path id="path4444" class="st4" d="M13.5,16.4c-0.6,0-1.5-0.6-2.6-1.7l0.3-0.3c1.7,1.8,2.4,1.7,2.6,1.5c0.3-0.1,0.3-0.6,0.3-1.4
			c-0.2-1.1-0.5-2.2-0.9-3.2l0.1-0.2c0.5,1,0.8,2.1,0.9,3.2c0.1,0.9,0,1.5-0.5,1.7L13.5,16.4"/>
	</g>
	<g id="g4446">
		<path id="path4448" class="st4" d="M9.5,14.7c-0.3-0.3-0.9-1.4-1.1-1.4l0.3-0.1c0.3,0.5,0.6,1,1.1,1.4L9.5,14.7"/>
	</g>
	<g id="g4450">
		<path id="path4452" class="st4" d="M6.4,11.8l-0.3-0.1c0-0.1,0.5-1.2,0.6-1.7L7,10.1C6.8,10.6,6.6,11.2,6.4,11.8"/>
	</g>
	<g id="g4454">
		<path id="path4456" class="st4" d="M12.9,12.2v-0.4h0.6v0.4H12.9"/>
	</g>
	<g id="g4458">
		<path id="path4460" class="st4" d="M12.2,13.4c-0.1,0-0.1,0-0.3-0.1l0.3-0.3H12c0.6-0.1,1.1-0.1,1.7-0.1v0.3
			C12.8,13.2,12.4,13.4,12.2,13.4"/>
	</g>
	<g id="g4462">
		<path id="path4464" class="st4" d="M10.6,13.4c-2,0.1-4-0.3-5.9-0.9c-1.1-0.4-2.4-1.2-2.6-2.3c0-0.8,0.4-1.6,1.1-2
			c0.8-0.5,1.7-0.8,2.6-1v0.3C4.9,7.7,4.1,8,3.3,8.5C2.9,9,2.5,9.6,2.4,10.3c0.2,0.8,0.9,1.4,2.4,2C7,13.2,10.8,13,10.8,13
			L10.6,13.4L10.6,13.4"/>
	</g>
	<g id="g4466">
		<path id="path4468" class="st4" d="M10.5,12.4c-2.7,0-6.2-0.8-7.1-1.8c-0.2-0.2-0.2-0.5-0.2-0.8c0.3-0.9,2.7-1.5,3-1.5l0.2,0.3
			C5.5,8.8,3.8,9.4,3.7,9.8c0,0.1,0.1,0.2,0.2,0.3c0.9,1.1,4.7,1.8,7.9,1.7v0.5C11.3,12.3,10.9,12.4,10.5,12.4"/>
	</g>
	<g id="g4470">
		<path id="path4472" class="st4" d="M7.2,8.6V8.3c0.2-0.1,0.5-0.1,0.8-0.1v0.4l0,0C7.8,8.4,7.5,8.6,7.2,8.6"/>
	</g>
	<g id="g4474">
		<path id="path4476" class="st4" d="M6.8,7.5V7.2c0,0,1.4-0.2,1.8-0.2v0.5C8.2,7.2,6.8,7.5,6.8,7.5"/>
	</g>
	<g id="g4478">
		<path id="path4480" class="st4" d="M7.5,12l-0.3-0.1l0.2-0.4l0.3,0.1L7.5,12"/>
	</g>
	<g id="g4482">
		<path id="path4484" class="st4" d="M11.5,8.4H9.2V7.9h2.3L11.5,8.4"/>
	</g>
	<g id="g4486">
		<path id="path4488" class="st4" d="M10,7.3V6.8h0.8v0.4H10"/>
	</g>
	<g id="g4490">
		<path id="path4492" class="st4" d="M13.7,7.6c-0.6-0.1-1.1-0.2-1.7-0.2V7c0.6,0,1.1,0.1,1.7,0.2V7.6"/>
	</g>
	<g id="g4494">
		<path id="path4496" class="st4" d="M13.4,8.6l-0.6-0.2l0.1-0.3l0.6,0.1L13.4,8.6"/>
	</g>
	<g id="g4498">
		<path id="path4500" class="st4" d="M14.5,12l-0.1-0.3c0.9-0.2,1.7-0.5,2.4-1.1l0,0c0.3-0.1,0.3-0.3,0.1-0.5
			c-0.1-0.6-1.7-1.1-2.6-1.4l0.1-0.3c0.3,0,2.7,0.6,2.9,1.7c0,0.3-0.1,0.6-0.3,0.8C16.3,11.5,15.4,11.9,14.5,12"/>
	</g>
	<g id="g4502">
		<path id="path4504" class="st4" d="M14.9,13v-0.3c0,0,3.5-0.6,3.3-2.4s-3.3-2.4-3.3-2.4V7.6c0.1,0,3.5,0.6,3.6,2.7
			S15.1,13,14.9,13"/>
	</g>
	<g id="g4506">
		<path id="path4508" class="st1" d="M7,6c0,0.6-0.4,1.1-1,1.1c-0.6,0-1.1-0.4-1.1-1S5.3,5,5.9,5c0,0,0,0,0,0C6.5,5,6.9,5.4,7,6
			C7,5.9,7,6,7,6"/>
	</g>
	<g id="g4510">
		<path id="path4512" class="st4" d="M6,5.2c-0.4,0-0.7,0.2-0.8,0.6c0,0,0,0.1,0,0.1c0,0.4,0.3,0.7,0.7,0.7c0,0,0.1,0,0.1,0
			c0.4,0,0.7-0.3,0.7-0.7c0,0,0,0,0,0C6.8,5.6,6.5,5.3,6,5.2C6.1,5.2,6,5.2,6,5.2 M6,7.2C5.3,7.2,4.8,6.7,4.8,6
			c0-0.7,0.5-1.2,1.1-1.2c0,0,0.1,0,0.1,0C6.6,4.8,7.2,5.3,7.2,6C7.1,6.6,6.6,7.1,6,7.2"/>
	</g>
	<g id="g4514">
		<path id="path4516" class="st1" d="M11.4,10.2c0,0.6-0.5,1.1-1,1.1c-0.6,0-1.1-0.5-1.1-1s0.5-1.1,1-1.1c0,0,0,0,0,0
			c0.6,0,1,0.4,1.1,0.9C11.4,10.1,11.4,10.2,11.4,10.2"/>
	</g>
	<g id="g4518">
		<path id="path4520" class="st4" d="M10.4,9.4c-0.4,0-0.8,0.3-0.8,0.8c0,0.4,0.3,0.8,0.8,0.8c0.4,0,0.8-0.3,0.8-0.8
			C11.2,9.8,10.9,9.4,10.4,9.4C10.4,9.4,10.4,9.4,10.4,9.4 M10.4,11.4c-0.6,0-1.2-0.6-1.2-1.2C9.2,9.6,9.7,9,10.4,9
			c0.6,0,1.2,0.6,1.2,1.2C11.5,10.9,11,11.4,10.4,11.4"/>
	</g>
	<g id="g4522">
		<path id="path4524" class="st1" d="M9.6,16c0,0.6-0.5,1.1-1.1,1.1c-0.6,0-1.1-0.5-1.1-1.1c0-0.6,0.5-1.1,1.1-1.1l0,0
			c0.6,0,1,0.4,1.1,0.9C9.6,15.9,9.6,16,9.6,16"/>
	</g>
	<g id="g4526">
		<path id="path4528" class="st4" d="M8.6,15.2c-0.4,0-0.8,0.3-0.8,0.7s0.3,0.8,0.7,0.8c0.1,0,0.1,0,0.2,0c0.4,0,0.7-0.4,0.7-0.8
			C9.3,15.5,9,15.2,8.6,15.2 M8.6,17.2c-0.7,0-1.2-0.6-1.2-1.2c0-0.6,0.6-1.2,1.2-1.2c0.7,0,1.2,0.5,1.2,1.2c0,0,0,0,0,0
			C9.8,16.6,9.3,17.1,8.6,17.2"/>
	</g>
	<g id="g4530">
		<path id="path4532" class="st1" d="M17.6,11.7c0,0.6-0.5,1.1-1.1,1.1c-0.6,0-1.1-0.5-1.1-1.1s0.5-1.1,1.1-1.1c0,0,0,0,0,0
			c0.6,0,1,0.4,1.1,0.9C17.6,11.6,17.6,11.6,17.6,11.7"/>
	</g>
	<g id="g4534">
		<path id="path4536" class="st4" d="M16.6,10.9c-0.4,0-0.8,0.3-0.8,0.7s0.3,0.8,0.7,0.8c0.1,0,0.1,0,0.2,0c0.4,0,0.8-0.3,0.8-0.7
			s-0.3-0.8-0.7-0.8C16.7,10.9,16.6,10.9,16.6,10.9 M16.6,12.9c-0.7,0-1.2-0.5-1.2-1.2c0,0,0,0,0,0c0-0.6,0.6-1.2,1.2-1.2
			c0.6,0,1.2,0.6,1.2,1.2C17.8,12.3,17.2,12.8,16.6,12.9"/>
	</g>
	<g id="g4538">
		<path id="path4540" class="st1" d="M42.2,4.1H42c-0.3,0.2-0.5,0.9-0.2,2.3c0.4,1.7,1.1,3.4,2,4.8c1.8,3.2,3.9,5.1,5,5.1H49
			c0.3-0.1,0.5-0.8,0.2-2.3c-0.4-1.7-1.1-3.4-2-4.8C45.3,5.9,43.2,4,42.2,4.1 M48.7,17.4c-1.8,0-4.2-2.9-5.9-5.6
			c-1-1.6-1.7-3.3-2.1-5.2c-0.5-2.3,0.2-3,0.8-3.3c0.2-0.1,0.5-0.2,0.8-0.2C44,3.1,46.4,6,48,8.7c1,1.6,1.7,3.3,2.1,5.1
			c0.5,2.3-0.2,3-0.8,3.3C49.2,17.3,48.9,17.3,48.7,17.4"/>
	</g>
	<g id="g4542">
		<path id="path4544" class="st1" d="M45.3,8.2c-4.2,0-6.8,1.2-6.8,2c0,0.3,0.5,0.9,1.8,1.4c1.7,0.5,3.4,0.8,5.1,0.8h0.2
			c4.2,0,6.8-1.2,6.8-2C52.4,9.4,49.7,8.2,45.3,8.2z M45.6,13.2h-0.2c-1.8,0-3.7-0.2-5.4-0.8c-2.1-0.8-2.6-1.7-2.6-2.3
			c0-2,3.9-3,7.9-3h0.2c3.9,0,8,1.1,8,3.2C53.4,12.3,49.5,13.2,45.6,13.2"/>
	</g>
	<g id="g4546">
		<path id="path4548" class="st1" d="M48.8,4c-1.1,0-3.2,2-5,5.1c-2.1,3.6-2.4,6.7-1.7,7.1h0.2c1.1,0,3.2-2,5-5.1
			c2.1-3.6,2.4-6.6,1.7-7.1H48.8 M42.2,17.3c-0.3,0-0.5,0-0.8-0.1c-1.8-1.1-0.6-5,1.4-8.5c1.7-2.9,4.1-5.6,5.9-5.6
			c0.3,0,0.6,0,0.8,0.2c1.8,1,0.6,5-1.4,8.5C46.6,14.5,44.1,17.3,42.2,17.3"/>
	</g>
	<g id="g4550">
		<path id="path4552" class="st4" d="M42.2,17.5c-0.2,0-0.4,0-0.6-0.1c-0.6-0.4-1.1-1-1.2-1.7c-0.1-1,0-2,0.3-3v-0.2l1.5,0.3V13
			c-0.2,0.6-0.3,1.2-0.3,1.8c0,0.4,0,0.8,0.2,1.2h0.2c0.5-0.1,1-0.3,1.4-0.6c0.8-0.7,1.5-1.5,2.1-2.3c0.7-1,1.4-2,2-3
			c0.7-1.4,1.3-2.9,1.5-4.4c0-0.5,0-1-0.2-1.4c-0.1-0.1-0.3-0.1-0.5,0c0,0-1.5,0.4-3.3,3c0,0-1,1.7-1.8,3l-0.3-0.1
			c0.8-1.5,2-3,2-3.2c2-2.6,3.3-3.2,3.5-3.2c0.2-0.1,0.5-0.1,0.8,0c0.2,0.6,0.2,1.2,0.2,1.8c-0.2,1.6-0.7,3.2-1.5,4.6
			c-0.5,1.1-1.2,2.1-2,3c-0.6,0.8-1.3,1.6-2.1,2.3c-0.4,0.5-1,0.7-1.7,0.8c-0.2,0-0.3,0-0.5-0.1c-0.2-0.5-0.3-1-0.3-1.5
			c0-0.5,0.1-1.1,0.3-1.6L41,12.8c-0.3,0.8-0.4,1.7-0.3,2.6c0.2,0.8,0.5,1.2,0.9,1.4c0.7,0.1,1.5,0,2.1-0.5c1.2-1,2.3-2.1,3.2-3.3
			c1.2-1.7,2.1-3.6,2.7-5.6c0.3-1.2,0.5-2.1,0.5-2.1c0.1-0.7-0.1-1.4-0.6-2C49.2,3,48.8,2.9,48.4,3c-2.7,0.3-5.8,5.9-5.8,6l-0.3-0.1
			c0.2-0.3,3.2-5.9,6-6.2c0.5-0.1,1,0.1,1.4,0.5c0.6,0.6,0.8,1.5,0.6,2.3c0,0.8-0.2,1.5-0.5,2.3c-0.6,2-1.6,3.9-2.7,5.6
			c-0.8,1.3-1.9,2.5-3.2,3.5C43.5,17.2,42.9,17.5,42.2,17.5"/>
	</g>
	<g id="g4554">
		<path id="path4556" class="st4" d="M47.6,10.3C47,9,46.2,7.9,45.3,6.8l0.3-0.3c0.9,1.1,1.7,2.3,2.3,3.6L47.6,10.3"/>
	</g>
	<g id="g4558">
		<path id="path4560" class="st4" d="M48.2,9.1c-0.6-1.1-1.4-2.2-2.2-3.2l0.3-0.3c0.9,1,1.6,2,2.3,3.2L48.2,9.1"/>
	</g>
	<g id="g4562">
		<path id="path4564" class="st4" d="M42.8,12.1l-0.9-1.8c-2.6-5.7-0.9-7-0.8-7.1c2-1.5,4.4,1.5,4.5,1.7l-0.3,0.3
			c0,0-2.4-2.9-4.1-1.7l0,0c0,0-1.7,0.9,0.9,6.6l0.9,1.8L42.8,12.1"/>
	</g>
	<g id="g4566">
		<path id="path4568" class="st4" d="M44.2,12.3c-3.5-5.1-2.7-7.9-2.7-7.9C41.5,4.2,41.8,4,42.1,4c1.1-0.2,2.6,1.7,2.7,1.8l-0.3,0.3
			c-0.5-0.9-1.3-1.6-2.3-2c-0.2,0-0.2,0-0.3,0.3c0,0-0.8,2.6,2.6,7.6L44.2,12.3"/>
	</g>
	<g id="g4570">
		<path id="path4572" class="st4" d="M48.7,17.6c-0.9,0-2.1-0.8-3.5-2.1l0.3-0.3c2,1.8,3,2.1,3.5,1.8c0.8-0.3,0.9-1.4,0.9-1.4
			c0.5-1.7-1.2-5.4-1.4-5.6l0.3-0.1c0,0.1,1.8,4.1,1.4,5.8c-0.1,0.7-0.6,1.3-1.2,1.5C49,17.6,48.8,17.6,48.7,17.6"/>
	</g>
	<g id="g4574">
		<path id="path4576" class="st4" d="M48.6,16.5c-1-0.3-1.9-0.8-2.6-1.7l0.3-0.3c1.7,1.8,2.4,1.7,2.6,1.5s0.3-0.6,0.3-1.4
			c-0.1-1.1-0.5-2.2-0.9-3.2l0.2-0.1c0.5,1,0.8,2.1,0.9,3.2c0.2,0.9,0,1.5-0.5,1.7L48.6,16.5"/>
	</g>
	<g id="g4578">
		<path id="path4580" class="st4" d="M44.6,14.7c-0.3-0.3-0.9-1.4-1-1.4l0.3-0.1c0.3,0.5,0.6,1,1.1,1.4L44.6,14.7"/>
	</g>
	<g id="g4582">
		<path id="path4584" class="st4" d="M41.5,11.8l-0.3-0.2c0-0.1,0.5-1.2,0.6-1.7l0.3,0.1C41.9,10.7,41.7,11.2,41.5,11.8"/>
	</g>
	<g id="g4586">
		<path id="path4588" class="st4" d="M48,12.2v-0.3h0.6v0.4L48,12.2"/>
	</g>
	<g id="g4590">
		<path id="path4592" class="st4" d="M47.3,13.4c-0.2,0-0.2,0-0.3-0.1l0.3-0.3h-0.2c0.6-0.1,1.1-0.1,1.7-0.1v0.3
			C47.9,13.3,47.6,13.4,47.3,13.4"/>
	</g>
	<g id="g4594">
		<path id="path4596" class="st4" d="M45.7,13.5c-2,0.1-4-0.3-5.9-0.9c-1.1-0.4-2.4-1.2-2.6-2.3c0-0.8,0.4-1.6,1.1-2
			c0.8-0.5,1.7-0.9,2.6-1.1v0.3C40,7.7,39.2,8,38.5,8.4c-0.5,0.5-0.8,1.1-0.9,1.8c0.2,0.8,0.9,1.4,2.4,2c2.1,0.9,5.9,0.8,5.9,0.8
			L45.7,13.5L45.7,13.5"/>
	</g>
	<g id="g4598">
		<path id="path4600" class="st4" d="M45.6,12.4c-2.7,0-6.2-0.8-7.1-1.8c-0.2-0.2-0.2-0.5-0.2-0.8c0.3-0.9,2.7-1.5,3-1.5l0.2,0.3
			c-0.9,0.1-2.6,0.8-2.7,1.2c0,0.1,0.1,0.2,0.2,0.3c0.9,1.1,4.8,1.8,7.9,1.7v0.5C46.4,12.4,46,12.4,45.6,12.4"/>
	</g>
	<g id="g4602">
		<path id="path4604" class="st4" d="M42.3,8.6V8.3c0.3,0,0.5,0,0.8-0.1v0.3C42.8,8.5,42.6,8.6,42.3,8.6"/>
	</g>
	<g id="g4606">
		<path id="path4608" class="st4" d="M41.9,7.5V7.2c0,0,1.4-0.2,1.8-0.2v0.4C43.3,7.2,41.9,7.5,41.9,7.5"/>
	</g>
	<g id="g4610">
		<path id="path4612" class="st4" d="M42.6,12l-0.3-0.2l0.2-0.4l0.3,0.1L42.6,12"/>
	</g>
	<g id="g4614">
		<path id="path4616" class="st4" d="M46.6,8.4h-2.3V8h2.3V8.4"/>
	</g>
	<g id="g4618">
		<path id="path4620" class="st4" d="M45.1,7.3V6.9h0.8v0.4L45.1,7.3"/>
	</g>
	<g id="g4622">
		<path id="path4624" class="st4" d="M48.8,7.6c-0.6-0.1-1.1-0.2-1.7-0.2l0,0V7c0.6,0,1.1,0.1,1.7,0.2V7.6"/>
	</g>
	<g id="g4626">
		<path id="path4628" class="st4" d="M48.5,8.6l-0.6-0.1L48,8.2l0.6,0.2L48.5,8.6"/>
	</g>
	<g id="g4630">
		<path id="path4632" class="st4" d="M49.6,12l-0.2-0.3c0.9-0.2,1.7-0.5,2.4-1.1l0,0c0.3-0.3,0.3-0.3,0.2-0.4
			c-0.2-0.6-1.7-1.1-2.6-1.4l0.2-0.3c0.3,0,2.7,0.6,2.9,1.7c0,0.3-0.1,0.6-0.3,0.8C51.4,11.5,50.6,11.9,49.6,12"/>
	</g>
	<g id="g4634">
		<path id="path4636" class="st4" d="M50,13v-0.3c0,0,3.5-0.6,3.3-2.4S50,7.9,50,7.9V7.6c0.2,0,3.5,0.6,3.6,2.7
			C53.8,12.3,50.2,13,50,13"/>
	</g>
	<g id="g4638">
		<path id="path4640" class="st1" d="M42.1,6.1c0,0.6-0.5,1.1-1.1,1.1c-0.6,0-1.1-0.5-1.1-1.1C40,5.5,40.4,5,41,5
			c0.6,0,1,0.4,1.1,0.9C42.1,6,42.1,6,42.1,6.1"/>
	</g>
	<g id="g4642">
		<path id="path4644" class="st4" d="M41.1,5.2c-0.4,0-0.7,0.3-0.8,0.7c0,0,0,0.1,0,0.1c0,0.4,0.4,0.7,0.8,0.7
			c0.4,0,0.6-0.3,0.7-0.7C41.9,5.6,41.6,5.3,41.1,5.2C41.2,5.2,41.1,5.2,41.1,5.2 M41.1,7.2c-0.7,0-1.2-0.6-1.2-1.2
			c0-0.7,0.5-1.2,1.2-1.2c0,0,0,0,0,0c0.6,0,1.2,0.6,1.2,1.2C42.3,6.7,41.8,7.2,41.1,7.2"/>
	</g>
	<g id="g4646">
		<path id="path4648" class="st1" d="M46.5,10.2c0,0.6-0.5,1.1-1,1.1s-1.1-0.5-1.1-1c0-0.6,0.5-1.1,1-1.1c0,0,0,0,0,0
			c0.6,0,1,0.4,1.1,0.9C46.5,10.2,46.5,10.2,46.5,10.2"/>
	</g>
	<g id="g4650">
		<path id="path4652" class="st4" d="M45.5,9.4c-0.4,0-0.8,0.3-0.8,0.8s0.3,0.8,0.8,0.8c0.4,0,0.8-0.3,0.8-0.8c0,0,0,0,0,0
			C46.3,9.8,46,9.5,45.5,9.4C45.6,9.4,45.5,9.4,45.5,9.4 M45.5,11.4c-0.6,0-1.2-0.6-1.2-1.2c0-0.7,0.5-1.2,1.1-1.2c0,0,0,0,0.1,0
			c0.6,0,1.2,0.6,1.2,1.2C46.7,10.9,46.2,11.4,45.5,11.4"/>
	</g>
	<g id="g4654">
		<path id="path4656" class="st1" d="M44.8,16c0,0.6-0.4,1.1-1,1.1s-1.1-0.4-1.1-1c0-0.6,0.4-1.1,1-1.1c0,0,0,0,0.1,0
			C44.3,15,44.7,15.4,44.8,16C44.8,16,44.8,16,44.8,16"/>
	</g>
	<g id="g4658">
		<path id="path4660" class="st4" d="M43.8,15.2c-0.4,0-0.8,0.3-0.8,0.8c0,0.4,0.3,0.8,0.8,0.8s0.8-0.3,0.8-0.8c0,0,0,0,0,0
			C44.5,15.6,44.2,15.2,43.8,15.2C43.8,15.2,43.8,15.2,43.8,15.2 M43.8,17.2c-0.7,0-1.2-0.6-1.2-1.2c0-0.7,0.5-1.2,1.2-1.2
			c0,0,0,0,0,0c0.7,0,1.2,0.6,1.2,1.2C45,16.6,44.4,17.2,43.8,17.2"/>
	</g>
	<g id="g4662">
		<path id="path4664" class="st1" d="M52.7,11.7c0,0.6-0.5,1.1-1.1,1.1s-1.1-0.5-1.1-1.1c0-0.6,0.5-1.1,1.1-1.1c0.6,0,1,0.4,1.1,0.9
			C52.7,11.6,52.7,11.7,52.7,11.7"/>
	</g>
	<g id="g4666">
		<path id="path4668" class="st4" d="M51.7,10.9c-0.4,0-0.8,0.3-0.8,0.8c0,0.4,0.3,0.8,0.8,0.8c0.4,0,0.8-0.3,0.8-0.8c0,0,0,0,0,0
			C52.5,11.3,52.2,10.9,51.7,10.9C51.8,10.9,51.7,10.9,51.7,10.9 M51.7,12.9c-0.7,0-1.2-0.6-1.2-1.2c0-0.7,0.5-1.2,1.2-1.2
			c0.7,0,1.2,0.5,1.2,1.2c0,0,0,0,0,0C52.9,12.3,52.4,12.9,51.7,12.9"/>
	</g>
	<g id="g4670">
		<path id="path4672" class="st5" d="M27.2,4.2V2.9c0,0,0-0.5,0.6-0.6c0.5-0.1,0.9,0.2,1.1,0.6v1.5c1,0.1,1.9,0.5,2.6,1.2l1.1-1.1
			c0.4-0.3,0.9-0.2,1.2,0.2C34,5,34,5.5,33.7,5.8c0,0-0.1,0.1-0.1,0.1l-0.9,0.9c0.5,0.8,0.8,1.7,1.1,2.6h1.7c0.4,0.1,0.7,0.6,0.5,1
			c0,0.1-0.1,0.1-0.1,0.2c-0.2,0.3-0.4,0.4-0.8,0.5h-1.2c-0.2,0.9-0.5,1.8-1.1,2.6l1.1,1.1c0,0,0.3,0.4,0,0.8
			c-0.2,0.4-0.8,0.6-1.2,0.4c0,0-0.1,0-0.1-0.1l-1.1-1.1c-0.8,0.6-1.6,1-2.6,1.2v1.4c-0.1,0.4-0.5,0.7-0.9,0.8c0,0-0.8,0-0.9-0.6V16
			c-1-0.1-2-0.5-2.9-1l-0.6,0.8c-0.3,0.3-0.8,0.2-1-0.1c0,0,0,0,0,0c-0.3-0.3-0.3-0.8,0-1.1l0.8-0.8C22.6,13,22.2,12,22,10.9h-1.2
			c-0.5-0.1-0.7-0.6-0.6-1c0,0,0,0,0,0c0.1-0.3,0.4-0.6,0.8-0.7h1.2c0.2-1,0.6-2,1.2-2.9l-0.9-0.9c-0.2-0.4,0-0.9,0.3-1.2
			c0,0,0.5-0.3,1,0.3l0.6,0.6C25.3,4.7,26.2,4.3,27.2,4.2"/>
	</g>
	<g id="g4674">
		<path id="path4676" class="st4" d="M27.4,17.3c0.1,0.3,0.3,0.5,0.6,0.5c0.3,0,0.5-0.2,0.6-0.5v-1.5h0.1c0.9-0.2,1.8-0.6,2.6-1.2
			l0.1-0.1l1.1,1.1c0.1,0.1,0.3,0.2,0.5,0.1c0.3,0,0.5-0.1,0.6-0.5c0.2-0.1,0-0.4,0-0.6l-1.2-1.2l0.2-0.1c0.5-0.8,0.9-1.6,1-2.6
			v-0.1h1.6c0.2,0,0.5-0.1,0.6-0.3c0.1-0.2,0.1-0.4,0-0.6c-0.2-0.1-0.3-0.3-0.5-0.3h-1.7V9.2c-0.1-0.9-0.5-1.8-1-2.6l-0.2-0.2
			l0.2-0.2l0.9-0.9c0.2-0.1,0.3-0.4,0.3-0.6c0-0.2,0-0.3-0.2-0.5C33.5,4.2,33.3,4,33.2,4s-0.3,0.2-0.5,0.2l-1.1,1.1l-0.1-0.2
			c-0.8-0.5-1.7-0.9-2.6-1.2h-0.2V2.4c-0.1-0.3-0.3-0.4-0.6-0.5H28c-0.5,0.2-0.5,0.5-0.5,0.5v1.5h-0.1c-1,0.1-1.9,0.5-2.7,1.1
			l-0.1,0.2l-0.8-0.8c-0.2-0.2-0.4-0.3-0.6-0.3h-0.3c-0.3,0.2-0.4,0.6-0.3,0.9l1,1.1l-0.1,0.2c-0.6,0.8-1,1.7-1.2,2.7V9h-1.4
			c-0.3,0-0.5,0.3-0.6,0.5c-0.1,1.1,0.3,1.2,0.5,1.2h1.4v0.1c0.1,1,0.6,1.9,1.2,2.7l0.1,0.1l-0.9,0.9c0,0-0.3,0.4,0,0.8
			c0.1,0.1,0.3,0.2,0.5,0.1c0.1,0,0.3-0.1,0.5-0.1l1.1-0.9l0.1,0.1c0.8,0.5,1.7,0.9,2.7,1.1h0.1v1.7L27.4,17.3z M28,18.1
			c-0.5,0-0.9-0.3-1.1-0.8l0,0v-1.2c-0.9-0.1-1.8-0.5-2.6-1.1l-0.8,0.8C23.4,15.9,23.2,16,23,16c-0.3,0-0.6-0.1-0.8-0.3
			c-0.3-0.4-0.3-1,0-1.4l0.8-0.8c-0.6-0.7-1-1.6-1.1-2.6h-1.2c-0.6-0.2-0.9-0.8-0.7-1.4l0,0C20.2,9.3,20.5,9,20.9,9h1.1
			c0.2-0.9,0.5-1.8,1.1-2.6l-0.8-0.9c-0.3-0.3-0.5-0.9,0.3-1.4C22.7,4.1,22.8,4,23,4c0.3,0.1,0.7,0.2,0.9,0.4l0.5,0.5
			C25.1,4.3,26,4,26.9,3.8V2.7C27,2.3,27.3,2,27.7,1.9H28c0.5,0,1.1,0.5,1.1,0.9v1.4c0.9,0.2,1.7,0.5,2.4,1.1l0.9-0.9
			c0.2-0.1,0.4-0.1,0.6-0.2c0.3,0,0.6,0.2,0.8,0.5l0,0C33.9,4.8,34,5,34.1,5.2c0,0.3-0.2,0.6-0.5,0.8l-0.8,0.8
			c0.5,0.7,0.8,1.5,0.9,2.4h1.5c0.3,0.1,0.5,0.3,0.6,0.6c0.1,0.3,0.1,0.6,0,0.9c0,0-0.2,0.4-0.9,0.4h-1.1c-0.2,0.8-0.5,1.7-0.9,2.4
			l1,1.1c0.2,0.3,0.2,0.7,0,1.1c-0.2,0.3-0.5,0.5-0.9,0.6c-0.2,0-0.4-0.1-0.6-0.3l-0.9-0.9c-0.7,0.5-1.5,0.9-2.4,1.1v1.2
			C28.9,17.8,28.5,18.1,28,18.1L28,18.1"/>
	</g>
	<g id="g4678">
		<path id="path4680" class="st1" d="M32.5,10.1c0,2.6-2.1,4.7-4.7,4.7s-4.7-2.1-4.7-4.7s2.1-4.7,4.7-4.7
			C30.4,5.5,32.5,7.5,32.5,10.1"/>
	</g>
	<g id="g4682">
		<path id="path4684" class="st4" d="M27.8,5.7c-2.5,0-4.5,1.9-4.5,4.4c0,2.4,2,4.4,4.5,4.4c0,0,0,0,0.1,0c2.5,0,4.5-1.9,4.5-4.4
			C32.3,7.6,30.3,5.7,27.8,5.7 M27.8,14.9c-2.6,0-4.8-2.1-4.8-4.7c0,0,0-0.1,0-0.1c0-2.7,2.2-4.8,4.8-4.8c2.7,0,4.8,2.2,4.8,4.8
			c0,2.6-2.1,4.8-4.7,4.8C27.9,14.9,27.9,14.9,27.8,14.9"/>
	</g>
	<g id="g4686">
		<path id="path4688" class="st5" d="M31.1,10.1c0,1.8-1.4,3.2-3.2,3.2c-1.8,0-3.2-1.4-3.2-3.2s1.4-3.2,3.2-3.2c1.7,0,3.1,1.3,3.2,3
			C31.1,10,31.1,10.1,31.1,10.1"/>
	</g>
	<g id="g4690">
		<path id="path4692" class="st4" d="M27.9,7.1c-1.7,0-3,1.3-3,3s1.3,3,3,3s3-1.3,3-3S29.5,7.1,27.9,7.1 M27.9,13.6
			c-1.9,0-3.4-1.5-3.5-3.4c0,0,0-0.1,0-0.1c0-1.9,1.6-3.5,3.5-3.5s3.5,1.6,3.5,3.5c0,1.9-1.5,3.5-3.4,3.5
			C28,13.6,27.9,13.6,27.9,13.6"/>
	</g>
	<g id="g4694">
		<path id="path4696" class="st1" d="M29.6,10.1c0.1,1-0.7,1.9-1.7,1.9s-1.9-0.7-1.9-1.7c0-0.1,0-0.2,0-0.3c0.1-1,0.9-1.8,1.9-1.7
			C28.8,8.5,29.5,9.2,29.6,10.1"/>
	</g>
	<g id="g4698">
		<path id="path4700" class="st4" d="M27.8,8.5c-0.9,0-1.7,0.7-1.7,1.7s0.7,1.7,1.7,1.7c0.9,0,1.7-0.7,1.7-1.7c0,0,0,0,0,0
			C29.5,9.2,28.7,8.5,27.8,8.5 M27.8,12.1c-1.1,0-2-0.9-2-2s0.9-2,2-2s2,0.9,2,2S28.9,12.1,27.8,12.1"/>
	</g>
	<g id="g4702">
		<path id="path4704" class="st6" d="M23.2,9.6h1.5c0.1-0.7,0.4-1.3,0.9-1.7L24.4,7C23.8,7.7,23.3,8.6,23.2,9.6"/>
	</g>
	<g id="g4706">
		<path id="path4708" class="st4" d="M24.4,7.3c-0.5,0.6-0.8,1.3-0.9,2.1h1c0.1-0.6,0.4-1.1,0.8-1.5L24.4,7.3z M23.1,9.7V9.4
			c0.2-1,0.6-1.9,1.2-2.7l0.1-0.2L26,7.4l-0.1,0.2c-0.5,0.5-0.8,1-0.9,1.7v0.1L23.1,9.7"/>
	</g>
	<g id="g4710">
		<path id="path4712" class="st6" d="M26.4,7.2L25.8,6c1-0.5,2.1-0.6,3.2-0.3l-0.3,1.4C28,6.7,27.1,6.8,26.4,7.2"/>
	</g>
	<g id="g4714">
		<path id="path4716" class="st4" d="M26.1,6.1L26.5,7c0.4-0.2,0.9-0.3,1.4-0.3h0.6l0.3-0.9c-0.3,0-0.6-0.2-0.9-0.2
			C27.3,5.6,26.6,5.8,26.1,6.1 M26.4,7.4l-0.8-1.5l0.1-0.2c0.7-0.3,1.4-0.4,2.1-0.4c0.4,0,0.8,0,1.2,0.2h0.1l-0.4,1.7h-0.2
			C28.4,7,28.1,7,27.9,7c-0.5,0-0.9,0.1-1.4,0.3L26.4,7.4"/>
	</g>
	<g id="g4718">
		<path id="path4720" class="st7" d="M25.6,7.8L24.4,7c0.4-0.4,0.8-0.8,1.4-1l0.6,1.2C26.5,7.2,25.9,7.5,25.6,7.8"/>
	</g>
	<g id="g4722">
		<path id="path4724" class="st4" d="M24.7,7l0.9,0.6c0.1-0.2,0.5-0.3,0.6-0.5l-0.5-0.9C25.3,6.4,25,6.6,24.7,7 M25.6,8.1l-1.5-0.9
			L24.3,7c0.4-0.4,1-0.8,1.5-1.1h0.1l0.8,1.5l-0.1,0.2C26.4,7.5,25.9,7.8,25.6,8.1L25.6,8.1"/>
	</g>
	<g id="g4726">
		<path id="path4728" class="st4" d="M24.9,8.9l-1.2-0.6L23.8,8L25,8.6L24.9,8.9"/>
	</g>
	<g id="g4730">
		<path id="path4732" class="st4" d="M27.3,6.9l-0.1-1.4h0.5l0.1,1.4H27.3"/>
	</g>
	<g id="g4734">
		<path id="path4736" class="st4" d="M29.7,7.4l-0.3-0.3l0.8-1l0.3,0.2L29.7,7.4"/>
	</g>
	<g id="g4738">
		<path id="path4740" class="st4" d="M23.3,11.1v-0.3l1.2-0.3v0.3L23.3,11.1"/>
	</g>
	<g id="g4742">
		<path id="path4744" class="st1" d="M10,13.2l0.3,0.4"/>
	</g>
	<g id="g4746">
		<path id="path4748" class="st4" d="M10.2,13.9l-0.3-0.6l0.3-0.1l0.3,0.4L10.2,13.9"/>
	</g>
	<g id="g4750">
		<path id="path4752" class="st4" d="M45.3,13.8L45,13.4l0.3-0.1l0.3,0.4L45.3,13.8"/>
	</g>
	<g id="g4754">
		<path id="path4756" class="st8" d="M31.7,52.1c0.3,0.6,0.5,1.4-0.1,1.8c-1.1,0.8-2.3,1.5-3.6,2c0,0-1.4,0.5-1.1,1.2
			s0.5,0.6,0.5,0.6l0.9,0.3l0.8,0.3c0.2,0.1,0.5,0.1,0.8,0c0.5-0.2,0.6,0,0.6,0l0.1,0.2c0.2,0.2,0.5,0.2,0.8,0
			c0.4-0.2,0.7-0.5,0.9-0.9c0.2-0.3,0.5-0.6,0.6-0.3c0.1,0.3,0.1,0.6,0,0.9c0,0,0.8-0.5,0.8-1.1c0.3,0.5,0.4,1.1,0.3,1.7
			c0,0,1.7-1.4,1.1-2.9l0.6,1.7c0,0,0.5-0.9,0.6-1.4c0.2-0.6,0.1-1.3-0.2-1.8l-0.2-0.2c0.2-0.2,0.3-0.4,0.3-0.6
			c-0.6-0.8-1-1.7-1.2-2.6c0,0-0.2-1.5,0.8-2.1L34.9,46L32,45.6l-1.8,0.3c-0.4,0.8-0.6,1.7-0.6,2.6c0.2,0.7,0.6,1.3,1.1,1.8
			C30.9,50.9,31.4,51.5,31.7,52.1"/>
	</g>
	<g id="g4758">
		<path id="path4760" class="st4" d="M30.4,58.2L30.4,58.2c0.1,0.1,0.3,0.2,0.5,0.2h0.3c0.3-0.2,0.6-0.4,0.8-0.8
			c0.1-0.3,0.3-0.4,0.6-0.5c0.2,0,0.3,0,0.3,0.3C33,57.6,33,57.7,33,58c0.2-0.2,0.3-0.5,0.3-0.8v-0.6l0.5,0.6
			c0.3,0.4,0.4,0.8,0.5,1.2c0.6-0.5,0.8-1.3,0.6-2.1v-0.2l0.3-0.2v0.2l0.5,1.1c0.1-0.3,0.3-0.6,0.5-0.9c0.2-0.5,0.1-1.1-0.2-1.5
			l-0.3-0.3l0.2-0.2c0.2-0.1,0.2-0.3,0.2-0.5c0,0,0,0,0,0c0-0.2-0.2-0.3-0.3-0.6c-0.3-0.6-0.9-1.5-0.8-2c0-0.8,0.2-1.5,0.8-2.1
			l-0.6-2.7L32.2,46l-1.7,0.3c-0.5,0.6-0.8,1.3-0.8,2.1c0.1,0.6,0.5,1.1,0.9,1.5l0.1,0.2c0.5,0.6,0.9,1.2,1.2,1.8
			c0.5,0.7,0.3,1.6-0.3,2.1c-1.1,0.8-2.3,1.5-3.6,2c0,0-1.2,0.5-1.1,1.1c0,0.5,0.1,0.5,0.1,0.5h0.1l0.9,0.3l0.8,0.3h0.2l0.3-0.2
			c0.1,0,0.2-0.1,0.3-0.2C30.2,58.1,30.3,58.1,30.4,58.2 M33.2,59.4l0.3-0.8c0.2-0.3,0-0.8,0-1c-0.1,0.3-0.3,0.6-0.6,0.8l-0.3,0.2
			l0.2-0.6c0.1-0.2,0.1-0.5,0-0.8l0,0l-0.3,0.3c-0.2,0.2-0.5,0.8-0.9,0.9l-0.5,0.2c-0.2,0-0.3,0-0.5-0.2h-0.8
			c-0.1,0.1-0.3,0.2-0.5,0.2h-0.3l-0.8-0.2l-0.9-0.3h-0.1c-0.3,0-0.5-0.3-0.6-0.8c-0.3-0.9,1.3-1.5,1.3-1.5c1.2-0.5,2.4-1.2,3.5-2
			c0.5-0.5,0.5-0.9,0.2-1.7c-0.3-0.6-0.7-1.1-1.1-1.7l-0.1-0.2c-0.4-0.5-0.8-1-0.9-1.7c0.1-0.9,0.3-1.8,0.6-2.7v-0.2l2-0.5l0,0
			l3,0.5l0.8,3.2h-0.2c-0.8,0.5-0.8,1.8-0.8,2l0,0c0.1,0.7,0.4,1.3,0.8,1.8c0.3,0.5,0.5,0.6,0.5,0.8c0.1,0.3,0.1,0.6-0.2,0.8l0,0
			c0.4,0.6,0.4,1.3,0.2,2c-0.2,0.4-0.4,0.9-0.6,1.4l-0.2,0.5L35,57.1c-0.3,0.7-0.7,1.3-1.2,1.8L33.2,59.4"/>
	</g>
	<g id="g4762">
		<path id="path4764" class="st9" d="M29.7,48.1c0,0,2.6,0,3.3,1.4v1.4c0,0.5,0.2,0.9,0.2,1.4c0,0.3,0.2,0.5,0.2,0.8
			s0.2,0.3,0.3,0.5c0,0.5-1.2,1.1-1.5,1.2c-1.1,0.7-2.2,1.3-3.3,1.8l0.1,0.2c0.1,0.2,2.1,0.3,2.3,0s0.9,0,1.2,0
			c1.2-0.7,2.4-1.7,3.3-2.7c-0.3-0.7-0.6-1.4-1-2.1c-0.1-0.4-0.2-0.8-0.2-1.2c0-0.2,0.5-1.5,0.6-1.4L34.8,48
			c-0.3-1.2-0.3-1.1-0.3-1.1c-1.2-0.6-2.6-0.8-3.9-0.6c0,0-0.9,0.6-0.9,0.9C29.8,47.4,29.7,48.2,29.7,48.1"/>
	</g>
	<g id="g4766">
		<path id="path4768" class="st8" d="M28.3,40c1.4,0.2,2.9,0.2,4.2-0.2c0.7-0.3,1.5-0.5,2.3-0.5l2.7,0.3c0,0,0.8,0.2,4.2,0.6
			c0,0,4.5,0.5,5.6-0.3c1.5-0.5,2.4-2.1,2.1-3.6c-0.9-1.7-2.7-2.6-4.5-2.2c-3.5,0.3-3.5,2.7-2.9,3.3l1.1,1c-0.4-0.2-0.8-0.3-1.2-0.2
			c-0.7,0.1-1.4-0.2-1.8-0.8c-0.3-0.3-0.4-0.7-0.3-1.1c0,0-0.5,1.2-2.9,2c0,0-0.8,0.2-1.4,0.3c0.7-0.4,1.1-1.2,1.1-2
			c-0.3,0.1-0.5,0.3-0.8,0.5c-0.7,1-1.9,1.4-3,1.1h-0.3l0.9-0.3c0.3-0.2,0.8-0.5,0.8-0.8s-0.9-0.3-1.2-0.3S32.5,37,32.2,37
			c-0.4,0.1-0.8,0.1-1.2,0c-0.8,0-1.7-0.2-2.4-0.6c-1.4-0.8-2.4-1.8-2.1-3.5s2.9-2.7,3.2-2.7c1.5-0.3,3-0.4,4.5-0.5
			c0.9,0,1.8-0.4,2.4-1.1c0.8-0.8,1.9-1.3,3-1.2c1.2-0.2,2.2-0.9,2.7-2c0,0,0.2,1.7-0.6,2.3c0,0,1.7-0.9,1.8-1.1
			c0.9-0.5,2-0.6,3-0.1c1.7,0.6,2.6,0.6,3,0c0,0-0.3,1-2.6,1.2c-0.9,0-1.8,0.5-2.3,1.3c-0.3,0.3-0.8,0.5-1.1,0.8
			c0.3,0.1,0.6,0,0.9,0.1s0.5,0.3,0.8,0.5c0.4,0.2,0.7,0.5,0.9,0.9c0,0-0.3-0.9-2.7,0.2c-2.4,1.1-3.3,0.9-4.8,0.5
			c-1.6-0.6-2.1-1.4-3.6-1.2c-2.2-0.2-4.4,0.1-6.4,1.1c-0.9,0.5-1.1,1.6-0.7,2.4c0.1,0.2,0.3,0.4,0.5,0.6c0,0,1.4,1.4,5.3,0.8
			c2.3-0.4,4.6-1,6.8-1.7c0.9,0,4.2-1.2,6.8-0.6c1.5,0.3,2.8,1.3,3.5,2.7c0.3,0.8,0.4,1.7,0.1,2.6c-0.3,0.6-0.6,1.2-1,1.7
			c0.9,0.6,1.4,1.8,1,2.8c0,0,0-0.8-1.1-0.9c-0.7-0.1-1.4-0.3-2-0.6c-1.2,0.5-2.5,0.7-3.8,0.8c0.5,0.4,1.1,0.8,1.7,1.1
			c0,0-2.9,0.9-3.6-0.5c0,0-0.3,0.8,0.8,0.9c-0.9,0.3-1.9,0.2-2.6-0.5c0.3,0.9,0.5,1.9,0.5,2.9c0,1.8,0,2.7,1.4,3.5
			c0.6,0.4,1.3,0.6,2,0.6c0,0,0.3,0.9-0.2,1.4c0,0,0.2,0.3,1.5,0.5s1.1,1.8,2,2c0,0-0.3,0.3-1.1-0.3c-0.4-0.3-1-0.3-1.4,0.2
			c0.7,0.2,1.2,0.8,1.2,1.5c0,0.6,0,1.1,0.2,1.7c-0.3-0.2-0.6-0.5-0.8-0.8c-0.3-0.3-0.8-0.4-1.2-0.5c0.5,0.4,0.7,1,0.6,1.7
			c0,0-0.2,0.6,0.2,0.8c-0.4-0.1-0.8-0.4-1.1-0.8c-0.3,0.3-0.5,0.6-0.8,0.9c0,0.5,0,1.8-0.9,2c-1.1,0.2-0.9-0.5-0.9-0.5
			s-0.2,0.6-1.5,0.2c0,0-1.1,0-1.2-0.5c0,0-0.8,0.3-0.9-0.5s0.8-0.8,0.9-0.9c0.9-0.3,1.4-1.1,1.4-2c0-1.3-0.3-2.7-0.8-3.9
			c-0.7-0.7-1.5-1.2-2.4-1.5c-1.2-0.2-2.1-1.2-2.3-2.4c-0.3-1.2-0.5-1.8-0.6-1.8c-1.3-0.7-2.7-0.8-4.1-0.5c0,0,0.8,0.5,0.9,0.9
			c-0.4-0.2-0.9-0.3-1.4-0.1c-1.1,0.3-1.5-0.2-1.5-0.2c0.1,0.5,0.4,0.9,0.9,1.2c-0.3,0-0.6,0.1-0.9,0.2c-0.5,0.1-1,0-1.4-0.3
			c0,0,0.5,1.2,1.1,1.5c0,0-0.6-0.2-1.5-0.3s-1.2-0.3-1.4-0.6c0.2,0.7,0.2,1.3,0,2c0,0-0.1-0.9-0.9-1c-0.4,0-0.9-0.2-1.2-0.5l0.3,1
			c0,0,0.1,0-0.8,1.2c0.4,0.4,0.7,0.9,0.8,1.5c0,0.6,0.2,1.2,0.6,1.7c0,0-0.5,0.2-0.9-0.5s-0.8-0.6-0.8-0.5c0.3,0.7,0.4,1.5,0.1,2.3
			c0,0-0.3,0.8,0,1.1c-0.3-0.2-0.5-0.5-0.6-0.9c-0.1-0.6-0.6-0.6-0.6-0.6c0.3,0.5,0.4,1.1,0.3,1.7c-0.2,0.4-0.2,0.9-0.1,1.4
			c-0.2-0.2-0.4-0.5-0.6-0.8c-0.2-0.5-0.8-0.6-0.8-0.3c0.2,0.7,0.1,1.4-0.1,2.1c0,0,0-1.8-1.4-0.6c-0.2,0.2-0.3,0.5-0.3,0.8
			c-0.1,0.6-0.5,0.5-0.8,0.6s-0.3,0.3-0.8,0.2c-0.3,0-0.5,0-0.8-0.2c0,0,0,0.3-0.8,0.2l-0.8-0.2c0,0,0.1,0,0.1-0.3
			c-0.1-0.3-0.4,0-0.4-0.3c-0.1-0.3-0.9-0.2-0.8-0.6c0-0.5,0.2-0.6,0.8-0.9c0.6-0.3,1.1-0.6,1.7-0.9c0.5-0.3,0.8-1.5,0.8-1.5
			c0.3-0.9,0.6-1.8,0.8-2.7c0.2-1.6,0.3-3.2,0.3-4.8c-0.2-0.7-0.5-1.4-0.9-2l-2.1,1.2c0,0-2,0.8-2.7,0.3s-0.9-0.9-1.1-0.9
			C9.9,46.9,9,47,8.2,46.8c-0.3-0.1-0.7-0.1-1.1,0c0.3-0.2,0.6-0.3,0.9-0.5c0.5-0.2,0.8-0.9,0.8-0.9c-0.7,0.1-1.4-0.1-2-0.5
			c-1.1-0.6-1.2-0.8-1.8-0.6c0,0,0-0.3,0.9-0.5s1.4-1.1,1.7-1.2C7,42.6,6.5,42.5,6,42.3c-0.8-0.5-1.1-0.6-1.4-0.6
			c0,0,0.2-0.3,0.9-0.3c0.6,0,1.2-0.4,1.2-1.1c0-0.4-0.2-0.9-0.4-1.2c0,0,0-0.2-0.5-0.3s-0.6-0.2-1.2-0.9c0,0-0.9,0-0.9-0.6
			c0-0.4,0.3-0.7,0.6-0.9l0.8,0.3c0.2,0-0.2-0.6-0.6-0.9c-0.3-0.5-0.4-0.9-0.2-1.1s0.3-0.3,0.3-0.3s0.5-0.3,0.6,0
			c0.3,0.3,0.5,0.7,0.6,1.1c0.2,0.2,0-0.6-0.2-0.8c0.2-0.2-0.3-0.9,0.2-1.1h0.3c0.2,0,0.2,0,0.3-0.2c0,0,0.4-0.2,0.4,0.5
			c0,0.3,0.1,0.6,0.2,0.9c0,0,0-0.9,0.2-0.9h0.3c0,0,0.2,0.2,0.2,0l0.5-0.2c0-0.2,0.3,0.2,0.3,0.6c-0.1,0.6-0.1,1.1,0,1.7
			c0.3,0.9,0.7,1.8,1.4,2.6c0.9,1.1,2,1.9,3.3,2.4c0.5,0.2,11-1.1,11-1.1l3.2-0.2C27.1,40,27.9,39.7,28.3,40"/>
	</g>
	<g id="g4770">
		<path id="path4772" class="st10" d="M26.9,57c0,0,0.8-0.2,0.5,0.8c-0.4,0-0.7,0.2-0.9,0.5C26.3,57.8,26.5,57.2,26.9,57"/>
	</g>
	<g id="g4774">
		<path id="path4776" class="st4" d="M26.9,57.1c-0.3,0.3-0.5,0.5-0.5,0.8c0.2-0.1,0.5-0.2,0.8-0.3v-0.3L26.9,57.1 M26.3,58.3v-0.2
			c0,0-0.1-0.6,0.6-1.2l0,0c0.1,0,0.5,0,0.5,0.2c0.1,0.2,0.1,0.3,0,0.6v0.2h-0.1c-0.3,0-0.6,0.1-0.9,0.3L26.3,58.3"/>
	</g>
	<g id="g4778">
		<path id="path4780" class="st10" d="M28.1,58.1c0,0,0.3-0.9-0.6-0.6c0,0-0.5,0.5-0.1,0.9C27.3,58.4,27.6,57.8,28.1,58.1"/>
	</g>
	<g id="g4782">
		<path id="path4784" class="st4" d="M27.6,57.7c-0.2,0.2-0.3,0.4-0.3,0.6c0.1-0.2,0.4-0.3,0.6-0.3v-0.3H27.6 M27.3,58.8v-0.2
			c-0.2-0.3-0.1-0.8,0.1-1.1l0,0c0.1,0,0.3-0.2,0.5-0.2c0.1,0,0.2,0.1,0.3,0.2c0.1,0.2,0,0.6,0,0.6v0.2h-0.3c-0.2,0-0.4,0.1-0.5,0.3
			L27.3,58.8"/>
	</g>
	<g id="g4786">
		<path id="path4788" class="st10" d="M29,58.3c0,0,0-0.9-0.8-0.3c0,0-0.1,0.2,0,0.8C28.5,58.5,28.7,58.4,29,58.3"/>
	</g>
	<g id="g4790">
		<path id="path4792" class="st4" d="M28.4,58.1c0,0-0.1,0.2,0,0.5c0.1-0.2,0.4-0.3,0.6-0.3l-0.1-0.3l0,0
			C28.7,57.8,28.6,57.9,28.4,58.1 M28.3,59v-0.2c-0.1-0.6,0-0.9,0.1-0.9c0.3-0.3,0.6-0.3,0.8-0.2c0.1,0.2,0.2,0.4,0.1,0.6v0.2l0,0
			c-0.3,0.1-0.5,0.3-0.8,0.5L28.3,59"/>
	</g>
	<g id="g4794">
		<path id="path4796" class="st10" d="M30.5,58.3c0,0,0-0.8-0.8-0.5c-0.2,0.3-0.2,0.7,0,1.1C29.8,58.6,30.2,58.3,30.5,58.3"/>
	</g>
	<g id="g4798">
		<path id="path4800" class="st4" d="M29.9,58c-0.1,0.2-0.1,0.4-0.1,0.6c0.2-0.2,0.4-0.3,0.6-0.5c0-0.2-0.1-0.3-0.3-0.3L29.9,58
			 M29.7,59.2l-0.1-0.3c-0.2-0.3-0.2-0.7,0-1l0,0c0.1-0.1,0.3-0.2,0.5-0.2c0.3,0,0.5,0.5,0.5,0.6v0.2h-0.1c-0.3,0-0.5,0.2-0.6,0.5
			V59.2"/>
	</g>
	<g id="g4802">
		<path id="path4804" class="st11" d="M35.6,29.6c0,0-1.7,0.3,0,0.9c0.4,0.1,0.8,0.3,1.2,0.5c0.7,0.3,1.5,0.6,2.2,0.8
			c1,0.4,2,0.4,3,0.1c0.7-0.2,1.5-0.4,2.1-0.8c0.6-0.2,1.4-0.2,2,0l0.2,0.1c-0.2-0.4-0.5-0.7-0.9-0.9c-0.8-0.5-0.9-0.6-1.4-0.6
			c0.4-0.2,0.8-0.4,1.1-0.7c0.4-0.4,0.8-0.8,1.2-1.2c0.4-0.1,0.8-0.2,1.2-0.1c0.8-0.1,1.5-0.4,2.1-0.9c0,0-0.2,0-1.2,0.1
			s-2-0.6-2.6-0.6s-1.1-0.1-2.7,0.9l-0.9,0.5c0.2-0.3,0.4-0.6,0.5-0.9c0.1-0.5,0.1-0.9,0.2-1.4c-0.3,0.7-0.8,1.3-1.5,1.6
			c-0.4,0.2-0.8,0.3-1.2,0.3c-0.5,0.1-1,0.2-1.5,0.3c-0.5,0.2-0.9,0.6-1.4,0.9C36.5,29.1,35.7,29.4,35.6,29.6"/>
	</g>
	<g id="g4806">
		<path id="path4808" class="st11" d="M34.6,36.5l8.4-1.8c-1,0.4-1.5,1.6-1,2.6c0,0,0,0.1,0,0.1l0.9,0.9c0,0,0.2-0.2-1.4-0.2
			c-0.9,0-1.6-0.6-1.8-1.5c-0.4,0.6-1,1-1.7,1.2l-0.9,0.5C35,38.9,36,38.5,36,38.5c0.3-0.3,0.6-0.6,0.8-1.1c0.1-0.3,0.1-0.5,0.2-0.8
			c-0.5,0-0.9,0.3-1.2,0.6c-0.3,0.2-0.6,0.4-0.9,0.6c-0.6,0.4-1.4,0.6-2.1,0.3l1.1-0.3C33.9,37.7,35,37,34.6,36.5"/>
	</g>
	<g id="g4810">
		<path id="path4812" class="st11" d="M48.3,41.3c0,0,1.5-0.9,1.8-1.1c1,0.5,1.5,1.6,1.2,2.7c0-0.4-0.3-0.8-0.8-0.9
			C49.8,41.6,50,42.2,48.3,41.3"/>
	</g>
	<g id="g4814">
		<path id="path4816" class="st11" d="M44.2,41.9h-3.9c0.2,0.7,0.7,1.4,1.4,1.8c0.5,0.2,1.1,0.2,1.7,0c0,0-0.8,0.2-0.9-0.9
			c0,0,0.3,0.9,3.8,0.5C46.2,43.1,45,42.7,44.2,41.9"/>
	</g>
	<g id="g4818">
		<path id="path4820" class="st11" d="M23.4,47.7c0,0,5.9-1.8,7.1-1.4l0.9,0.8h-1.2c-0.6,0-1.2,0-1.8-0.2c0.2,0.5,0.6,0.9,1.1,1.2
			c-0.4,0-0.7,0.1-1.1,0.2c-0.6,0.2-1.2-0.2-1.2-0.3l0.9,1.4c0,0-1.7-0.3-2.1-0.5s-0.6-0.2-0.6-0.5c0.1,0.5,0.1,1,0.1,1.5l-0.1,0.5
			c0,0-0.1-0.9-0.6-1.1s-1.1-0.3-1.4-0.5C23.4,48.7,23.1,47.8,23.4,47.7"/>
	</g>
	<g id="g4822">
		<path id="path4824" class="st11" d="M22.8,51c-1.6,2.1-2.8,4.5-3.6,7v0.2c0,0,0.8-0.6,1.1,0.2c0.1,0.3,0.1,0.5,0.1,0.8
			c0.3-0.7,0.4-1.4,0.2-2.1c0,0,0.1-0.5,0.8,0c0.1,0.4,0.3,0.8,0.6,1.2c-0.1-0.5-0.1-1,0-1.5c0.2-0.6,0-1.2-0.3-1.7
			c0.4,0,0.8,0.3,0.9,0.8c0,0,0.1,0.6,0.5,0.6c-0.1-0.3-0.1-0.7,0-1c0.1-0.7,0-1.4-0.2-2.1c0,0,0-0.3,0.5,0s0.6,0.8,1.1,0.6
			c-0.3-0.3-0.5-0.8-0.6-1.2C23.6,52,23.2,51.4,22.8,51"/>
	</g>
	<g id="g4826">
		<path id="path4828" class="st11" d="M44.2,51.5l0.3,5.9c0.3,0.4,0.7,0.6,1.2,0.8c0,0-0.3-0.2-0.3-0.9s0-1.2-0.5-1.5
			c0,0,0.6-0.3,1.2,0.5c0.1,0.2,0.4,0.5,0.6,0.6c0,0-0.3-0.3-0.3-1.5c0-0.7-0.5-1.3-1.2-1.5c0,0,0.8-0.8,1.5-0.3s0.9,0.5,1.1,0.3
			c-0.4,0-0.7-0.3-0.8-0.7c-0.2-0.8-0.9-1.3-1.7-1.2C45,51.9,44.6,51.8,44.2,51.5"/>
	</g>
	<g id="g4830">
		<path id="path4832" class="st11" d="M35.7,54.4c-0.9,1-1.9,1.8-3,2.6l0.2,0.5c0.1,0.2,0.1,0.4,0.2,0.6c0.4-0.1,0.6-0.5,0.6-0.9
			c0.4,0.3,0.6,0.9,0.4,1.4c0.8-0.5,1.1-1.5,0.9-2.4c0,0,0.3,0.2,0.8,1.4l0.5-1.2C36,56.2,36.1,55.3,35.7,54.4"/>
	</g>
	<g id="g4834">
		<path id="path4836" class="st11" d="M6.5,39.5l4.4,7.3c0,0-0.1-0.3-0.8-0.2c-0.6,0.1-1.2,0.1-1.8,0c-0.8-0.2-0.9,0-0.9,0l0.9-0.5
			c0,0,0.6-0.8,0.6-1.1c-0.5,0.3-1.2,0.4-1.8,0.2c-0.8-0.5-1.4-1.1-1.8-0.8c0,0,0-0.2,0.6-0.3c0.6-0.1,1.1-0.4,1.5-0.8L7.8,43
			c0,0-0.8-0.2-1.2-0.3c-0.4-0.1-0.7-0.3-1.1-0.5c-0.4-0.3-0.6-0.3-0.8-0.3c0.3-0.1,0.6-0.2,0.9-0.3c0.6-0.2,0.9-0.2,1.2-0.8
			C6.8,40.6,6.8,40.1,6.5,39.5"/>
	</g>
	<g id="g4838">
		<path id="path4840" class="st12" d="M42.2,26.4c0,0-0.3,0.9-1.8,1.2s-2.1,0-4.1,2.1c0.9-0.7,1.9-1.1,3-1.4
			C40.5,28.2,41.5,27.4,42.2,26.4"/>
	</g>
	<g id="g4842">
		<path id="path4844" class="st12" d="M46.4,26.7c-0.7-0.2-1.4-0.2-2.1,0c-0.6,0.3-1.2,0.7-1.8,1.1c-0.3,0.3-0.8,0.5-1.2,0.5
			c-0.5,0.1-1,0.2-1.5,0.1c-1.3,0.1-2.5,0.5-3.5,1.4c1.5-0.6,3.1-1,4.7-1.2c0.6,0.1,1.3-0.1,1.8-0.5l0.9-0.9
			C44.5,26.7,45.4,26.6,46.4,26.7"/>
	</g>
	<g id="g4846">
		<path id="path4848" class="st12" d="M45.2,30.6c-1.1,0.2-2.2,0.6-3.2,1.1c-1.4,0.5-3,0.2-4.2-0.7c1,0.5,2.2,0.7,3.3,0.5
			C43.1,31,43.4,30.4,45.2,30.6"/>
	</g>
	<g id="g4850">
		<path id="path4852" class="st12" d="M48.1,27.4c-1.6-0.3-3.3,0.3-4.4,1.5c0,0,1.1-1.7,2.3-1.8c0.5-0.1,1.1-0.1,1.6-0.1
			c-0.9-0.3-2-0.2-2.9,0.1c-1.4,0.6-1.2,1.7-3.9,1.7c-1.4,0.2-2.8,0.5-4.1,1.1c0.5,0,0.9,0,1.4-0.1c0.9-0.2,1.7-0.2,2.6,0
			c0.4,0.1,0.9,0.2,1.4,0.1c0.5,0,1.1-0.1,1.5-0.1c0.5-0.1,1.1-0.4,1.5-0.8c0.3-0.4,0.6-0.8,1.1-1c0.3-0.2,0.6-0.2,0.9-0.3
			s0.5-0.1,0.6-0.1C47.4,27.4,47.9,27.3,48.1,27.4"/>
	</g>
	<g id="g4854">
		<path id="path4856" class="st12" d="M41.8,31c-1.3,0.4-2.8,0.3-4.1-0.3c-0.5-0.3-1-0.4-1.5-0.3c0.5-0.2,1-0.3,1.5-0.3
			C38.7,30.1,39.7,31.2,41.8,31"/>
	</g>
	<g id="g4858">
		<path id="path4860" class="st12" d="M37.9,30h2.4c0.3,0.2,0.6,0.3,0.9,0.3c0.6,0,2-0.1,2-0.1c-0.8,0.4-1.7,0.5-2.6,0.5
			c-0.2,0-0.5-0.1-0.6-0.1s-0.3-0.1-0.5-0.3S39.3,30,39,30H37.9"/>
	</g>
	<g id="g4862">
		<path id="path4864" class="st13" d="M41.6,42h-0.9c0.2,0.6,0.5,1.1,1.1,1.4c0,0-0.6-0.6-0.6-1.1c0,0,0.8,1.1,1.2,1.2
			C42,43.2,41.7,42.6,41.6,42"/>
	</g>
	<g id="g4866">
		<path id="path4868" class="st13" d="M42.4,41.9h0.5c0.2,0.5,0.7,0.8,1.2,0.9C43.3,42.9,42.7,42.5,42.4,41.9"/>
	</g>
	<g id="g4870">
		<path id="path4872" class="st13" d="M43.4,41.9h0.5c0,0,0.5,0.9,1.2,0.9C44.4,42.8,43.7,42.5,43.4,41.9"/>
	</g>
	<g id="g4874">
		<path id="path4876" class="st13" d="M48.7,41c0.2-0.1,0.3-0.2,0.5-0.3c0,0,0.9,0.9,1.4,0.9C49.9,41.6,49.2,41.3,48.7,41"/>
	</g>
	<g id="g4878">
		<path id="path4880" class="st13" d="M49.5,40.5l0.5-0.2c0,0,0.9,1,0.9,1.5C50.9,42,50.2,40.9,49.5,40.5"/>
	</g>
	<g id="g4882">
		<path id="path4884" class="st13" d="M35.6,36.3l0.8-0.2c-0.4,0.8-1.2,1.3-2,1.5C34.2,37.7,35.6,36.8,35.6,36.3"/>
	</g>
	<g id="g4886">
		<path id="path4888" class="st13" d="M37.8,35.9l0.8-0.2c-0.3,0.8-0.8,1.6-1.5,2.1C37.1,37.7,38,36.4,37.8,35.9"/>
	</g>
	<g id="g4890">
		<path id="path4892" class="st13" d="M38.9,35.7c-0.1,0.9-0.6,1.7-1.4,2.1c0,0,2-0.8,2-2.1H38.9"/>
	</g>
	<g id="g4894">
		<path id="path4896" class="st13" d="M42.2,35c-0.5,0.6-0.7,1.5-0.5,2.3c0,0-0.6-0.3-0.3-1.5c-0.5,0.4-0.5,1.1-0.1,1.5
			c0.1,0.1,0.3,0.2,0.4,0.3c0,0-1.1,0-1.1-1.7c0,0-0.6,1.2,0.9,2c0,0-1.8-0.3-1.2-2.6L42.2,35"/>
	</g>
	<g id="g4898">
		<path id="path4900" class="st12" d="M22.5,51.5c0.4,0,0.8,0.3,0.9,0.8c-0.1-0.3-0.4-0.5-0.8-0.5c0.5,0.2,0.9,0.7,0.9,1.2
			c-0.2-0.4-0.6-0.7-1-0.8c0.5,0.1,1,0.5,1,1.1c0,0-0.5-1.2-1.8-0.5L22.5,51.5"/>
	</g>
	<g id="g4902">
		<path id="path4904" class="st12" d="M21.4,53.2c0,0,0.9-0.5,1.1,1c0,0-0.3-0.8-0.8-0.8c0.5,0.4,0.8,0.9,0.9,1.5
			c-0.1-0.5-0.5-0.9-1.1-0.9c0.5,0.1,0.9,0.7,0.8,1.2c0,0,0,0,0,0c0,0-0.1-1.2-1.8-0.6L21.4,53.2"/>
	</g>
	<g id="g4906">
		<path id="path4908" class="st12" d="M20.4,55.1c0,0,1.4-0.3,1.2,1.4c0,0-0.3-0.9-0.9-0.9c0.5,0.3,0.9,0.9,0.8,1.5
			c-0.1-0.6-0.6-1-1.2-0.9c0,0,0.9,0.2,1.1,0.9c0,0-0.2-0.8-1.4-0.6L20.4,55.1"/>
	</g>
	<g id="g4910">
		<path id="path4912" class="st12" d="M19.8,56.8c0.4,0.2,0.6,0.6,0.5,1.1c0,0-0.1-0.8-0.6-0.6L19.8,56.8"/>
	</g>
	<g id="g4914">
		<path id="path4916" class="st12" d="M19.6,57.3c0,0,0.5-0.2,0.6,0.8c0,0-0.3-0.6-0.8-0.3L19.6,57.3"/>
	</g>
	<g id="g4918">
		<path id="path4920" class="st12" d="M19.4,57.8c0,0,0.6-0.2,0.8,0.3c0,0-0.5-0.3-0.8,0V57.8"/>
	</g>
	<g id="g4922">
		<path id="path4924" class="st12" d="M32.6,57l0.5-0.3c0,0.3-0.1,0.5-0.2,0.8C33.1,57.5,33.1,57.2,32.6,57"/>
	</g>
	<g id="g4926">
		<path id="path4928" class="st12" d="M33.9,56l0.3-0.2c0.3,0.5,0.4,1,0.3,1.5C34.4,57.4,34.4,56.4,33.9,56"/>
	</g>
	<g id="g4930">
		<path id="path4932" class="st12" d="M33.5,56.2l0.3-0.2c0.3,0.5,0.3,1,0.2,1.5C34,57.1,33.8,56.6,33.5,56.2"/>
	</g>
	<g id="g4934">
		<path id="path4936" class="st12" d="M34.6,55.5l0.3-0.3c0.3,0.3,0.5,0.8,0.6,1.2C35.5,56.4,35.2,55.6,34.6,55.5"/>
	</g>
	<g id="g4938">
		<path id="path4940" class="st12" d="M35.1,55.1l0.3-0.3c0.2,0.3,0.2,0.7,0.2,1.1C35.7,56,35.5,55.4,35.1,55.1"/>
	</g>
	<g id="g4942">
		<path id="path4944" class="st12" d="M44.3,51.9v1.8c0,0,1.5-1.1,2.3-0.5c0,0-0.2-0.6-1.7-0.6c0.5-0.1,1-0.1,1.5,0
			C46.4,52.7,45.9,52.1,44.3,51.9"/>
	</g>
	<g id="g4946">
		<path id="path4948" class="st12" d="M44.4,53.8v1.5c0,0,1.2-0.2,1.7,0.5c0,0,0-0.6-1.1-0.8c0.5-0.2,1,0.1,1.2,0.6c0,0,0,0,0,0
			c-0.1-0.6-0.6-1.2-1.2-1.4c0.5,0.1,1,0.4,1.4,0.8C46.2,54.9,46.2,53.8,44.4,53.8"/>
	</g>
	<g id="g4950">
		<path id="path4952" class="st12" d="M44.4,55.8v0.8l0.6,0.9l-0.5-0.9c0.3,0.4,0.5,0.8,0.6,1.2C45.2,57.4,45.2,56.2,44.4,55.8"/>
	</g>
	<g id="g4954">
		<path id="path4956" class="st13" d="M23.8,47.8l0.6-0.2c0,0.3,0.2,0.7,0.5,0.9c0.5,0.5,0.5,0.8,0.5,0.8c-0.2-0.4-0.6-0.7-1.1-0.9
			C24,48.3,23.8,48.1,23.8,47.8"/>
	</g>
	<g id="g4958">
		<path id="path4960" class="st13" d="M24.5,47.6l0.5-0.2c0,0.4,0.1,0.8,0.3,1.2C24.9,48.4,24.6,48.1,24.5,47.6"/>
	</g>
	<g id="g4962">
		<path id="path4964" class="st13" d="M25.1,47.4l0.5-0.2c0,0,0.3,1.4,1.2,1.5C26,48.7,25.4,48.1,25.1,47.4"/>
	</g>
	<g id="g4966">
		<path id="path4968" class="st13" d="M25.6,47.2l0.8-0.2c0,0,0,0.9,0.3,1.2c-0.2-0.2-0.4-0.5-0.6-0.8c0.1,0.4,0.3,0.8,0.6,1.2
			C26.7,48.4,25.9,48.1,25.6,47.2"/>
	</g>
	<g id="g4970">
		<path id="path4972" class="st13" d="M27.1,46.8l0.9-0.3c0,0,0,0.9,0.6,1.2c-0.4-0.1-0.7-0.4-0.9-0.8c0,0-0.3,0.6,0.8,0.9
			C28.5,47.9,27.6,48,27.1,46.8"/>
	</g>
	<g id="g4974">
		<path id="path4976" class="st13" d="M29.4,46.3l0.6-0.2c0,0,0.3,0.5,0.6,0.3c-0.4,0-0.7,0-1.1-0.2c0.3,0.1,0.5,0.2,0.8,0.3
			c-0.6,0.1-1.2,0-1.7-0.3L29.4,46.3"/>
	</g>
	<g id="g4978">
		<path id="path4980" class="st13" d="M9.5,44.5l1.2,1.7c-0.4,0.3-0.9,0.4-1.4,0.3c0.4,0,0.7-0.3,0.8-0.6c-0.5,0.4-1.2,0.5-1.8,0.5
			c0,0,1.2-0.3,1.5-0.9c-0.5,0.3-1,0.6-1.5,0.8C8.3,46.2,9.5,45.6,9.5,44.5"/>
	</g>
	<g id="g4982">
		<path id="path4984" class="st13" d="M8.8,43.2l0.6,1.1c-0.5,0.7-1.5,0.9-2.3,0.5c0,0,1.4,0.2,1.7-0.8c-0.7,0.5-1.7,0.6-2.4,0.2
			C7.3,44.4,8.2,44,8.8,43.2"/>
	</g>
	<g id="g4986">
		<path id="path4988" class="st13" d="M8.6,42.7L8.7,43l-1.7,0.8C7.5,43.4,8,43,8.6,42.7"/>
	</g>
	<g id="g4990">
		<path id="path4992" class="st13" d="M6.9,40c0,0.8-0.6,1.4-1.4,1.5c0.7,0.1,1.3-0.1,1.8-0.6c-0.4,0.6-1.1,0.9-1.8,0.8
			c0.7,0.4,1.5,0.4,2.1,0c0,0-0.3,0.8-1.8,0.5c0.7,0.3,1.5,0.4,2.3,0.2L6.9,40"/>
	</g>
	<g id="g4994">
		<path id="path4996" class="st4" d="M23.2,49.1c-0.2-0.4-0.3-0.9-0.2-1.4l0.2-0.2c0,0,5.3-1.5,7.6-1.5l0,0v0.5
			c-2.1,0-7.3,1.5-7.6,1.5c0,0.4,0,0.7,0.1,1.1L23.2,49.1"/>
	</g>
	<g id="g4998">
		<path id="path5000" class="st4" d="M32.5,57.3L32.2,57c0,0,3.3-2.9,3.5-3l0.3,0.3C35.8,54.5,32.6,57.2,32.5,57.3"/>
	</g>
	<g id="g5002">
		<path id="path5004" class="st4" d="M44.4,57.6c-0.3-2.1-0.4-4.1-0.3-6.2h0.3c-0.1,2,0,4,0.3,6L44.4,57.6"/>
	</g>
	<g id="g5006">
		<path id="path5008" class="st4" d="M40.8,43.5c0,0-0.6-1.4-0.8-1.7v-0.2h0.2c0,0,5,0.2,5.6,0V42c-0.6,0.2-4.5,0-5.5,0
			c0.2,0.5,0.4,0.9,0.6,1.4L40.8,43.5"/>
	</g>
	<g id="g5010">
		<path id="path5012" class="st8" d="M48.1,41.4c0,0,2-0.9,2.1-1.4"/>
	</g>
	<g id="g5014">
		<path id="path5016" class="st4" d="M48.2,41.5l-0.2-0.3c0.7-0.4,1.3-0.8,1.9-1.2l0.3,0.2C49.7,40.7,49,41.2,48.2,41.5"/>
	</g>
	<g id="g5018">
		<path id="path5020" class="st4" d="M10.6,46.8c-0.3-0.8-4.4-7.6-4.4-7.7l0.3-0.2c0.2,0.3,4.1,7,4.5,7.7L10.6,46.8"/>
	</g>
	<g id="g5022">
		<path id="path5024" class="st14" d="M35.8,40.9c0.3,0.2,0.9,0.2,1.2,0.5c0.4,0.3,0.8,0.6,1.2,0.9c1,1.1,1.6,2.5,1.7,3.9
			c0.3,4.7,3.3,4.7,3.3,4.7c-1.3-0.5-2.2-1.8-2.3-3.2c0-1.3-0.1-2.5-0.3-3.8c-0.4-1.5-1.5-2.6-3-3c-0.5-0.2-1-0.3-1.5-0.3
			C36,40.6,35.7,40.6,35.8,40.9L35.8,40.9"/>
	</g>
	<g id="g5026">
		<path id="path5028" d="M42,60.1L42,60.1v-0.3l0.2-0.3l0.2-0.2l0.2-0.2l0.3-0.2l0.3-0.2c0.1-0.1,0.2-0.1,0.3-0.2
			c0,0.1-0.1,0.2-0.2,0.3l-0.5,0.5l-0.2,0.3l-0.2,0.3C42,60,42,60.1,42,60.1"/>
	</g>
	<g id="g5030">
		<path id="path5032" d="M40.6,60c-0.1-0.1-0.1-0.2-0.2-0.3v-0.3l0.2-0.3l0.3-0.3l0.3-0.2c0.1-0.1,0.2-0.1,0.3-0.2
			c0,0.1-0.1,0.2-0.2,0.3l-0.2,0.3l-0.3,0.3c-0.2,0.2-0.3,0.3-0.3,0.5V60"/>
	</g>
	<g id="g5034">
		<path id="path5036" d="M39.2,59.9L39.2,59.9l-0.2-0.3v-0.3l0.2-0.3l0.3-0.2l0.2-0.2l0.3-0.1l-0.2,0.2l-0.2,0.2v0.5l-0.3,0.3
			L39.2,59.9"/>
	</g>
	<g id="g5038">
		<path id="path5040" d="M29.7,58.4L29.7,58.4v-0.3l0.1-0.3l0.1-0.2l0.1-0.2l0.3-0.3l0.3-0.2c0.1-0.1,0.2-0.1,0.3-0.2
			c-0.1,0.1-0.1,0.2-0.1,0.3c-0.2,0.2-0.4,0.3-0.6,0.5L30,57.8l-0.1,0.3C29.7,58.2,29.7,58.3,29.7,58.4"/>
	</g>
	<g id="g5042">
		<path id="path5044" d="M28.2,58.2v-0.3l0.1-0.3l0.3-0.3l0.3-0.2l0.3-0.2c0.1,0,0.2-0.1,0.3-0.2l-0.1,0.3l-0.3,0.2l-0.3,0.2
			l-0.5,0.5L28.2,58.2"/>
	</g>
	<g id="g5046">
		<path id="path5048" d="M27.4,57.9L27.4,57.9v-0.3l0.1-0.3l0.1-0.2L28,57h0.6l-0.1,0.2l-0.3,0.2L28,57.5c-0.1,0.2-0.3,0.2-0.3,0.3
			L27.4,57.9"/>
	</g>
	<g id="g5050">
		<path id="path5052" d="M14.9,60.1L14.9,60.1v-0.5l0.1-0.3l0.1-0.2l0.2-0.2l0.4-0.2l0.3-0.2c0.1,0,0.2-0.1,0.3-0.2l-0.3,0.3
			L15.8,59l-0.3,0.2l-0.1,0.3L15,59.8C15,59.9,14.9,60,14.9,60.1"/>
	</g>
	<g id="g5054">
		<path id="path5056" d="M13.8,59.5L13.8,59.5v-0.3L14,59l0.1-0.2l0.3-0.2H15l-0.1,0.2L14.6,59l-0.2,0.2c-0.1,0.2-0.3,0.2-0.3,0.3
			L13.8,59.5"/>
	</g>
	<g id="g5058">
		<path id="path5060" d="M5.6,35l0.2,0.2L6,35.5l0.2,0.5V36l0,0L6,35.9l-0.3-0.3c-0.1-0.1-0.2-0.3-0.2-0.5L5.6,35"/>
	</g>
	<g id="g5062">
		<path id="path5064" d="M6.9,34.2l0.2,0.2c0,0.2,0.2,0.3,0.2,0.5v0.6l0,0l-0.2-0.2c0-0.2-0.2-0.3-0.2-0.5V34.2"/>
	</g>
	<g id="g5066">
		<path id="path5068" class="st14" d="M43.7,50.9v5.3c0,0.3,0,0.6,0.2,0.9l0,0c-0.2,0.5-0.3,1.1-0.5,1.7c0,0-0.5-0.5-0.8-0.5
			s-1.7-0.2-1.7-0.2l0.3-0.9c0,0,1.4,0.2,1.7-0.2s0.2-4.8,0-5.5C43.4,51.5,43.7,51.2,43.7,50.9"/>
	</g>
	<g id="g5070">
		<path id="path5072" class="st15" d="M39.7,51.5c-0.5-0.2-0.9-0.5-1.4-0.6c-0.5-0.1-0.9-0.4-1.3-0.6c-0.7-0.5-1.2-1.3-1.4-2.1
			l-0.2-1.4l0,0c0.5,0,1.4,1.4,1.4,1.4C36.8,49.8,39.7,51.5,39.7,51.5"/>
	</g>
	<g id="g5074">
		<path id="path5076" class="st14" d="M23,48.1l0.5,1.8c-2,2.5-3.5,5.3-4.5,8.3c-0.4,0.4-0.6,0.8-0.6,1.4c0,0,0,0.2-0.3,0.2
			c-0.2,0-0.3,0.1-0.5,0.2h-0.1c0,0-0.1-0.5-0.3-0.5c0,0,0.9-0.5,1-0.9c0,0-0.1-0.3-1.2,0.3c-0.2,0.2-0.4,0.4-0.6,0.6
			c0.6-1,1.5-2,2.4-2.7c0,0,1.8-5,3.3-6.8L23,48.1"/>
	</g>
	<g id="g5078">
		<path id="path5080" class="st14" d="M40,41.8c0,0,5.1,0.2,5.8,0c0.5-0.2,3.9-0.5,4.8-2.6C50.5,39.2,50,41.6,40,41.8"/>
	</g>
	<g id="g5082">
		<path id="path5084" class="st16" d="M15.4,46.6L14.5,47c-0.6,0.3-1.3,0.5-2,0.5c-0.3,0-0.5,0-0.8-0.2c-0.3-0.1-0.6-0.3-0.8-0.6
			c-0.1-0.2-0.1-0.3-0.3-0.5c-0.3-0.4-0.5-0.9-0.7-1.3c-0.3-0.6-0.6-1.1-0.9-1.7c-0.3-0.5-0.6-1.1-0.9-1.5c-0.1-0.3-0.4-0.6-0.6-0.9
			l0,0c-0.4-0.8-0.9-1.5-1.6-2.1c-0.5-0.3-0.9-0.8-1.2-1.4c0.4,0.4,1,0.6,1.5,0.8c-0.2-0.7-0.5-1.4-0.9-2.1c0.8,0.6,1.4,1.5,1.8,2.4
			c0,0,4.1,6.7,5,7s1.8-1.4,1.8-1.4L15.4,46.6"/>
	</g>
	<g id="g5086">
		<path id="path5088" class="st4" d="M32.9,43.8h0.5l0.3,0.2l0.3,0.3l0.2,0.5c0.2,0.3,0.3,0.5,0.5,0.8c0.2,0.3,0.3,0.6,0.3,0.9
			c0.1,0.2,0.2,0.5,0.2,0.8c0,0.3,0,0.5,0.2,0.6v0.2c-0.1-0.2-0.2-0.5-0.3-0.8c-0.2-0.2-0.2-0.5-0.3-0.8s-0.2-0.6-0.3-0.8
			c0-0.2-0.2-0.3-0.2-0.5l-0.2-0.5l-0.2-0.3l-0.2-0.3L33.5,44l-0.2-0.2L32.9,43.8"/>
	</g>
	<g id="g5090">
		<path id="path5092" class="st14" d="M34.6,46.4c0,0-2.1-1.7-11.2,1.2c-0.4-0.8-0.4-1.7,0-2.4l0.8,0.3c0,0.5,0.3,0.9,0.8,1
			c0.1,0,0.3,0,0.4-0.1c1.2-0.3,5.8-3,7.3-2.4C33.5,44.6,34.2,45.4,34.6,46.4"/>
	</g>
	<g id="g5094">
		<path id="path5096" class="st4" d="M23.2,48.4c0-0.1-0.1-0.2-0.1-0.2c0,0,0,0,0,0v-0.6l0.2-0.3l0.1-0.2l0.1-0.2l0,0v1.1
			C23.2,48.3,23.2,48.4,23.2,48.4"/>
	</g>
	<g id="g5098">
		<path id="path5100" class="st17" d="M35.2,41.2c0,0-3-0.8-1.8,1.8C33.4,43,32.5,41.2,35.2,41.2"/>
	</g>
	<g id="g5102">
		<path id="path5104" class="st17" d="M27.5,40.7c1.1,0.2,2.2,0.2,3.3,0c-1.1,0.3-2.2,0.6-3.3,0.8c-0.4,0.1-0.8,0-1.2-0.2L27.5,40.7
			"/>
	</g>
	<g id="g5106">
		<path id="path5108" class="st17" d="M18.3,51.8l0.8-0.3c0,0-1.7,5.6-2.1,5.9c0,0-0.8,0.5-1.1,0.3C16,57.8,17.9,55.2,18.3,51.8"/>
	</g>
	<g id="g5110">
		<path id="path5112" class="st17" d="M7.9,36.4c0.3,0.9,0.8,1.7,1.4,2.4c-0.6-0.5-1-1-1.4-1.7L7.9,36.4"/>
	</g>
	<g id="g5114">
		<path id="path5116" class="st4" d="M50.2,40.1L50.2,40.1z M42,59.8l0.3,0.2v0.2c0,0.2,0.3,0.2,0.6,0c0.6-0.2,0.8-0.9,0.8-1.5v-0.2
			c0-0.5,0.8-1.1,0.8-1.1l0.2-0.2l0.2,0.2c0.2,0.2,0.4,0.3,0.6,0.5l0,0v-0.5c0.2-1-0.5-1.4-0.6-1.4l-0.3-0.2l0.3-0.2h0.5
			c0.3,0,0.6,0.2,0.8,0.5l0.3,0.3v-1.1c0-0.6-0.5-1.1-1.1-1.2h-0.3l0.2-0.3c0.2-0.3,0.6-0.5,0.9-0.5c0.3,0,0.5,0.2,0.8,0.3l0.3,0.2
			c-0.2-0.2-0.2-0.5-0.3-0.6c-0.1-0.5-0.5-0.9-1.1-1.1c-1.4,0-1.7-0.5-1.7-0.5l-0.2-0.2l0.2-0.2c0.2-0.3,0.3-0.6,0.2-0.9L44,50.4
			h-0.2v-0.3c-0.5-0.2-1-0.4-1.5-0.6c-1.3-0.8-1.3-2-1.3-3.6c0-0.9-0.1-1.9-0.5-2.7l-0.3-0.9L41,43c0.5,0.5,1.1,0.8,1.8,0.8
			l-0.2-0.3c-0.2-0.3-0.3-0.6-0.3-0.9l0.2-0.5l0.3,0.3c0.3,0.5,0.8,0.6,1.7,0.6c0.4,0,0.8,0,1.2-0.2c-0.5-0.2-0.9-0.5-1.2-0.9
			l-0.3-0.3h0.3c1.2,0,2.5-0.2,3.6-0.6l0.3-0.2V41h0.2c0.2,0,0.5,0.2,0.6,0.2c0.2,0,0.3,0,0.5,0.2c0.5,0.2,0.9,0.2,1.2,0.5l0.2,0.2
			l0,0v-0.2c0-0.3,0-0.5-0.2-0.6s-0.2-0.6-0.3-0.8s-0.2-0.3-0.3-0.3H50V40l-0.2-0.2l0.9-1.4c0.4-0.8,0.4-1.8,0-2.6
			c-0.1-0.3-0.4-0.6-0.6-0.9c-1.1-1.4-2.8-2.1-4.5-2c-1.8,0.1-3.6,0.4-5.3,0.9c-0.5,0.2-1.1,0.5-1.7,0.6c-1.7,0.5-3.4,0.9-5.2,1.1
			c-0.5,0.1-1.1,0.2-1.7,0.2c-0.9,0.1-1.9-0.2-2.7-0.6c-0.4-0.3-0.8-0.6-1.1-1.1c-0.4-0.5-0.4-1.1-0.1-1.7c0.5-1.2,2.7-1.8,3.6-2
			c0.7-0.1,1.4-0.2,2.1-0.1c1.1,0,2.3,0.2,3.3,0.6c0.4,0,0.8,0.1,1.2,0.3c0.8,0.5,1.7,0.7,2.6,0.8l0,0c0.8-0.1,1.6-0.3,2.3-0.6
			c0.2-0.1,0.4-0.2,0.6-0.1l0.3-0.2c0.3-0.1,0.6-0.1,0.9-0.3H46c-0.4-0.4-1-0.7-1.6-0.7h-0.9l-0.8-0.2l0.8-0.3
			c0.2-0.1,0.4-0.2,0.6-0.1c0.2-0.1,0.3-0.1,0.5-0.3l0.5-0.5l0.5-0.5c0.5-0.3,0.8-0.6,1.2-0.6h0.5c0.7-0.1,1.5-0.3,2.1-0.6
			c-0.3,0-0.6,0.1-0.9,0.1c-0.6,0-1.1-0.1-1.7-0.3c-0.3-0.1-0.6-0.1-0.9-0.3h-1.2c-0.5,0.1-0.8,0.1-1.1,0.5
			c-0.2,0.2-0.4,0.3-0.6,0.3l-0.2,0.1l-0.3,0.3h-0.2c-0.2,0.2-0.4,0.3-0.6,0.3h-1.1l0.9-0.5c0.3-0.2,0.3-0.3,0.5-0.8l0,0
			c0-0.1,0.2-0.5,0.2-0.6c-0.5,0.7-1.4,1.2-2.3,1.2h-0.2c-1,0-2,0.5-2.8,1.2c-0.3,0.3-0.7,0.7-1.1,0.9c-0.3,0.1-0.8,0.1-1.2,0.3
			c-0.4,0-0.9,0-1.3,0.2c-2.6,0-6.2,0.1-6.5,2.9c-0.1,1.4,0.5,2.4,2,3.3c0.9,0.4,1.9,0.6,2.9,0.6l0,0c0.3,0,0.8-0.2,1.1-0.2
			c0.4-0.2,0.9-0.3,1.4-0.3l0,0c0.2,0,0.5,0.1,0.6,0.3c0.2,0.3,0,0.6-0.3,0.9L33.6,38c0.6,0,1.3-0.2,1.8-0.5
			c0.2-0.1,0.4-0.3,0.6-0.5c0.3-0.2,0.6-0.5,0.9-0.6l0.3-0.2v0.3c0,0.4-0.1,0.8-0.3,1.2l-0.5,0.5c0.2,0,0.5-0.2,0.6-0.2h0.2
			c0.3-0.2,0.8-0.3,1.1-0.5c0.3-0.1,0.6-0.3,0.9-0.6l0.2-0.2c0-0.2,0.3-0.3,0.5-0.5l0.2-0.3l0.2,0.3c0.2,0.6,0.7,1.1,1.2,1.4
			c0.4,0.2,0.9,0.3,1.4,0.3c-0.3-0.3-0.6-0.6-0.8-1c-0.1-0.6,0-1.3,0.5-1.8c0.4-0.5,0.9-0.8,1.5-0.9c1.3-0.4,2.8-0.3,4.1,0.3
			c1,0.4,1.7,1.1,2,2.1c0.2,0.9-0.1,1.9-0.8,2.6c-0.6,0.6-1.4,1.1-2.3,1.4c-0.7,0.1-1.5,0.2-2.3,0.2h-1.7c-1.4,0-2.8-0.2-4.2-0.5
			c-0.6-0.2-1.4-0.2-2.1-0.3c-0.2,0-0.3,0-0.5-0.2c-0.5-0.1-1-0.2-1.5-0.2h-0.3c-0.5,0-1,0.2-1.5,0.5c-0.7,0.2-1.4,0.3-2.1,0.3
			c-0.8,0-1.5-0.1-2.3-0.2l0,0c-0.1,0-0.1-0.2-0.5-0.2c-0.2,0-0.4,0.1-0.6,0.2l0,0l-3.2,0.2c-0.3,0-9.2,1.1-10.9,1.1H13
			c-1.3-0.6-2.4-1.4-3.3-2.4c-0.6-0.7-1.1-1.5-1.4-2.4v-0.2c-0.1-0.3,0-0.9,0-1.4v-0.5c0-0.2,0-0.3-0.1-0.5
			c-0.1,0.1-0.3,0.2-0.4,0.2l0,0l-0.3-0.2l0,0c0,0.2-0.2,0.5,0,0.8v0.6l-0.3-0.5c0-0.2-0.2-0.2-0.2-0.5v-0.5c0-0.3-0.2-0.3-0.2-0.3
			c-0.2,0.2-0.2,0.2-0.3,0.2H6.2c0,0.3,0.1,0.5,0.2,0.8c0,0.2,0.2,0.8,0.2,0.9V36H6.3c-0.1-0.1-0.2-0.3-0.3-0.4
			c-0.2-0.2-0.3-0.5-0.4-0.6l-0.2-0.2H5.3L5,35.1v0.2c0,0.2,0,0.3,0.3,0.5C5.6,36,6,36.5,6,36.8l-0.2,0.2l0,0
			c-0.3-0.1-0.5-0.2-0.8-0.3c-0.2,0.1-0.3,0.4-0.3,0.6c0,0.5,0.8,0.5,0.8,0.5h0.2C6,38,6.3,38.3,6.6,38.5l0.3,0.2
			c0.2,0,0.4,0.2,0.5,0.5c0.3,0.4,0.4,0.9,0.4,1.4c-0.1,0.7-0.7,1.3-1.4,1.4c-0.3,0-0.5,0-0.6,0.2c0.3,0.2,0.7,0.3,1.1,0.5
			c0.5,0.2,1.1,0.4,1.7,0.5h0.3l-0.1,0.3c-0.4,0.6-1.1,1-1.8,1.2l-0.3,0.2c0.4,0.2,0.8,0.4,1.2,0.6c0.3,0.2,0.7,0.3,1.1,0.3
			c0.3,0,0.5,0,0.8-0.2l0.5-0.2L10,45.6c-0.2,0.4-0.5,0.8-0.9,1l-0.3,0.2h0.4c0.3,0,0.6,0.2,0.9,0.2c0.4,0,0.7-0.1,1.1-0.2h0.3
			c0.3,0,0.4,0.2,0.6,0.5l0.1,0.2c0.3,0.3,0.6,0.5,0.9,0.6c0.7,0.1,1.5,0,2.1-0.3c0.7-0.3,1.4-0.6,2-1.1l0.1,0.2l0,0l0.1-0.2
			c0.4,0.6,0.7,1.3,1.1,2c0,1.7-0.1,3.3-0.3,5c-0.1,0.9-0.8,2.6-0.8,2.7c-0.2,0.5-0.5,1.1-0.9,1.5c-0.4,0.3-0.9,0.6-1.4,0.8L15,58.7
			c-0.4,0.3-0.6,0.5-0.6,0.8s0,0.2,0.3,0.2c0.1,0,0.4,0.2,0.4,0.3h0.1c0.1,0,0.3,0,0.5,0.3l0.3,0.2c0.3,0,0.6,0,0.9,0.2h0.5v-0.3
			l0.3,0.2c0.2,0.1,0.5,0.2,0.8,0.2h0.1c0.3,0,0.3,0,0.5-0.2l0,0l0.3-0.2c0.1,0,0.3,0,0.3-0.3c0.1-0.3,0.2-0.6,0.3-0.9l0,0
			c0.3-0.2,0.6-0.4,0.9-0.5c0.2,0,0.3,0,0.5,0.2l0.1,0.3c0.1-0.4,0.1-0.9,0-1.4l0,0c0-0.2,0.1-0.3,0.5-0.3c0.4,0,0.7,0.3,0.8,0.6
			c0,0.2,0.1,0.3,0.3,0.5v-0.9c0-0.5-0.1-1-0.2-1.5l-0.1-0.3H23c0.4,0,0.7,0.4,0.8,0.8c0,0.2,0.1,0.3,0.1,0.5v-1.8
			c0-0.2-0.1-0.3-0.1-0.6l0,0l-0.1-0.3l0.1-0.3l0.1-0.2c0,0,0.3,0,0.8,0.6l0.3,0.3c-0.2-0.4-0.3-0.9-0.5-1.4c-0.1-0.5-0.3-1-0.8-1.4
			l-0.1-0.2l0.1-0.2c0.3-0.3,0.5-0.6,0.8-0.9l-0.3-1.5l0.5,0.3c0.3,0.2,0.7,0.4,1.1,0.5c0.3,0.1,0.6,0.3,0.8,0.6
			c0-0.4-0.1-0.8-0.1-1.2L26,48.3l0.8,0.9c0.3,0.4,0.7,0.6,1.2,0.6c0.5,0,0.8,0.2,1.1,0.2l-1.2-1.7l-0.6-0.8
			c0.4,0.2,0.9,0.3,1.4,0.3H29c-0.3-0.3-0.5-0.6-0.6-1v-0.3l2.7,0.2l-0.9-0.5l0.3-0.2c0.4-0.1,0.9-0.2,1.4-0.2c1,0,2,0.2,2.9,0.8
			c0.3,0,0.5,0.5,0.8,2c0.3,1,1.1,1.9,2.1,2.3c1,0.2,1.9,0.7,2.6,1.5c0.6,1.3,0.9,2.7,0.9,4.1c-0.1,0.9-0.6,1.8-1.5,2.1h-0.2
			c-0.5,0.2-0.8,0.3-0.8,0.6s0,0.3,0.3,0.3h0.3l0.3-0.2v0.3c0,0.2,0.6,0.3,1.1,0.3l0,0c0.2,0.1,0.5,0.2,0.8,0.2
			C41.6,60.1,41.8,60,42,59.8 M42.6,60.6c-0.2,0-0.5-0.1-0.6-0.3l0,0c-0.2,0-0.3,0.2-0.5,0.2c-0.3,0-0.6,0-0.9-0.2
			c-0.3,0-1.1,0-1.2-0.5h-0.3c-0.5,0-0.6-0.2-0.8-0.6c-0.2-0.8,0.6-0.9,0.9-1.1h0.2c0.7-0.3,1.2-1,1.2-1.8c0-1.3-0.2-2.6-0.8-3.8
			c-0.6-0.8-1.5-1.2-2.4-1.4c-1.2-0.4-2.1-1.3-2.4-2.6c-0.1-0.6-0.2-1.2-0.5-1.8c-0.8-0.4-1.8-0.6-2.7-0.6c-0.3,0-0.6,0-0.9,0.2
			l1.2,1.1l-2-0.2l-1.4-0.2c0.1,0.4,0.4,0.6,0.8,0.8l0.3,0.2l-0.3,0.2c-0.3,0.1-0.7,0.2-1.1,0.2c-0.3,0-0.5-0.1-0.8-0.2l1.1,1.5
			l-0.6-0.2c0,0-0.6-0.2-1.5-0.3c-0.4,0-0.7-0.1-1.1-0.3c0,0.5,0,1-0.1,1.5l-0.3,0.8L25,50.5c0,0-0.1-0.8-0.8-0.9
			c-0.3-0.2-0.6-0.2-0.9-0.3l0.1,0.6c0,0.2,0,0.3-0.8,1.2c0.2,0.3,0.8,0.9,0.8,1.5c0,0.5,0.3,1,0.7,1.4l0.1,0.3L24,54.5h-0.1
			c-0.3,0-0.7-0.2-0.9-0.5l-0.3-0.3l0,0c0.1,0.2,0.2,0.4,0.1,0.6v2.9l-0.1-0.5c-0.3-0.3-0.5-0.6-0.6-1.1v-0.2c0.1,0.4,0.1,0.8,0,1.2
			v1.8l-0.3-0.3c-0.3-0.3-0.5-0.6-0.6-0.9C21,57,20.9,57,20.9,57l0,0c0.2,0.7,0.1,1.5-0.3,2.1l-0.3,0.6v-0.6c0-0.2,0-0.6-0.1-0.8H20
			c-0.1,0-0.3,0-0.8,0.5c-0.1,0.2-0.2,0.5-0.1,0.8c-0.1,0.6-0.5,0.6-0.6,0.6h-0.1c-0.3,0.2-0.3,0.3-0.8,0.3c-0.3,0-0.5,0-0.8-0.2
			c-0.1,0.2-0.1,0.2-0.5,0.2H16c-0.2-0.1-0.4-0.1-0.6-0.2l0,0c-0.3,0-0.5-0.2-0.6-0.5h-0.1c-0.1,0-0.3,0-0.5-0.3l-0.3-0.2
			c-0.3-0.2-0.6-0.2-0.6-0.6s0.3-0.8,0.9-1.1l0.3-0.2c0.5-0.2,1-0.4,1.4-0.8c0.3-0.4,0.6-0.9,0.7-1.4c0,0,0.6-1.8,0.8-2.6
			c0.2-1.6,0.3-3.2,0.3-4.8c-0.2-0.6-0.5-1.2-0.9-1.7l-1.7,1c-0.7,0.3-1.5,0.4-2.3,0.3c-0.4-0.1-0.8-0.3-1.1-0.6l-0.1-0.2l-0.3-0.3
			H11c-0.4,0.1-0.8,0.1-1.2,0.2c-0.4,0-0.7,0-1.1-0.2l-1.7-0.2l0.6-0.3C8,46,8.3,45.8,8.6,45.7L9,45.3H8.6c-0.5,0-1-0.2-1.4-0.5
			c-0.5-0.4-1.1-0.6-1.7-0.8H5.1l0.3-0.3c0.3-0.2,0.6-0.4,0.9-0.5c0.5-0.2,1-0.4,1.4-0.8c-0.5,0-1-0.2-1.5-0.5
			c-0.8-0.3-1.4-0.6-1.4-0.6H4.7l0.2-0.2c0.3-0.3,0.7-0.5,1.1-0.5c0.5,0,1-0.4,1.1-0.9c-0.1-0.4-0.2-0.8-0.4-1.2l0,0
			c-0.1-0.1-0.2-0.1-0.3-0.2L6,38.5c-0.4-0.2-0.7-0.4-1-0.8c-0.3,0-0.9-0.2-0.9-0.8c0-0.4,0.2-0.8,0.6-1H5c0.1,0.1,0.3,0.2,0.4,0.2
			L5,35.6c-0.3-0.2-0.5-0.5-0.5-0.9c0-0.2,0.2-0.3,0.3-0.5c0.1-0.1,0.2-0.1,0.3-0.2l0,0c0.1-0.1,0.3-0.2,0.4-0.2
			c0.2,0,0.3,0.2,0.4,0.3l0.2,0.2c-0.2-0.2-0.2-0.5,0-0.8l0.3-0.3c0.2,0,0.3-0.2,0.4,0h0.2c0.3,0,0.6,0.2,0.6,0.5h0.2l0.3,0.2l0,0
			l0.3-0.2c0.2-0.2,0.3,0,0.5,0.2c0.2,0.2,0.3,0.5,0.1,0.8v0.5c0,0.5-0.1,0.9,0,1.2v0.2c0.2,0.8,0.6,1.6,1.2,2.3
			c0.9,1,2,1.7,3.1,2.2h0.1c1.5,0,10.7-1,10.7-1l2.9-0.2c0.3-0.1,0.5-0.1,0.8-0.2c0.2,0,0.4,0,0.6,0.2c0.7,0.1,1.4,0.1,2.1,0.2
			c0.7,0,1.4-0.1,2-0.3c0.5-0.3,1.1-0.4,1.7-0.5h0.5c0.6,0,1.1,0.2,1.5,0.2c0.2,0,0.3,0,0.5,0.2c0.7,0.2,1.4,0.3,2.1,0.3
			c1.4,0.3,2.8,0.4,4.2,0.5h1.7c0.7,0,1.4,0,2.1-0.2c0.8-0.2,1.6-0.6,2.1-1.2c0.6-0.6,0.8-1.5,0.6-2.3c-0.3-0.9-0.9-1.6-1.8-1.8
			c-1.2-0.6-2.5-0.7-3.8-0.3c-0.6,0.1-1,0.4-1.4,0.9c-0.3,0.4-0.5,1-0.5,1.5c0.2,0.5,0.6,1,1,1.4l0.5,0.3H43c-0.7,0-1.4-0.1-2.1-0.3
			c-0.6-0.3-1.1-0.6-1.2-1.2c-0.2,0.2-0.3,0.3-0.5,0.3l-0.2,0.2c-0.3,0.3-0.6,0.5-0.9,0.6c-0.3,0.2-0.8,0.3-1.1,0.5H37
			c-0.3,0.1-0.7,0.2-1.1,0.2h-0.3L35,38.6l0.5-0.3c0.4-0.2,0.7-0.4,0.9-0.8c0.1-0.2,0.2-0.4,0.2-0.6c-0.2,0.2-0.4,0.4-0.6,0.5
			c-0.3,0.2-0.5,0.5-0.8,0.6c-0.8,0.5-1.7,0.6-2.6,0.3l-0.5-0.2l0.6-0.1c0.5-0.2,0.9-0.4,1.4-0.8l0.3-0.3c-0.1,0-0.2-0.1-0.3-0.2
			l0,0c-0.3,0-0.8,0.2-1.1,0.2c-0.4,0.1-0.8,0.2-1.2,0.2l0,0c-1,0-2.1-0.2-3-0.6c-1.8-0.9-2.4-2.1-2.3-3.6c0.5-3,4.2-3.2,7-3.3
			c0.5,0,0.9,0,1.4-0.1c0.3,0,0.7-0.1,1-0.3l0.8-0.8c0.8-0.8,1.9-1.2,3-1.2h0.2c1.1-0.2,2-0.8,2.4-1.8l0.5-0.9v1.1
			c0,0.6-0.1,1.1-0.3,1.7l0,0l-0.2,0.1l0.2-0.1l0.3-0.1c0.2-0.2,0.5-0.3,0.8-0.5c0.5-0.1,0.8-0.3,1.2-0.5c0.4-0.2,0.8-0.2,1.2,0
			c0.3,0,0.6,0.1,0.9,0.3c0.5,0.2,1,0.3,1.5,0.3c0.5,0,0.9-0.1,1.4-0.3l0.5-0.2L50,26.7c0,0-0.5,1.1-2.7,1.4h-0.5
			c-0.4,0.1-0.7,0.3-1.1,0.6l-0.5,0.3l-0.5,0.5l-0.5,0.3h0.2c0.5,0.1,1.5,0.5,1.8,1.2l0.2,0.1l0.2,0.3l-0.3-0.1
			c-0.5-0.1-1-0.2-1.4-0.2c-0.3,0-0.6,0.2-0.9,0.2l-0.3,0.1c-0.2,0-0.5,0.1-0.6,0.1c-0.6,0.6-1.4,0.9-2.3,0.9l0,0
			c-1-0.1-2-0.4-2.9-0.8c-0.3-0.1-0.8-0.3-1.1-0.5c-1-0.4-2.1-0.6-3.2-0.6c-0.7,0-1.4,0-2.1,0.1c-1.4,0.3-3,0.9-3.5,1.8
			c-0.2,0.5-0.1,1,0.1,1.4c0.3,0.4,0.6,0.7,1.1,0.9c0.8,0.4,1.7,0.6,2.6,0.6c0.6,0,1.1,0,1.7-0.2c1.7-0.3,3.4-0.7,5-1.2
			c0.8-0.2,1.4-0.3,2-0.5c1.7-0.6,3.5-0.9,5.3-0.9c2.3,0,3.8,0.6,4.8,2.1c0.3,0.3,0.5,0.7,0.6,1.1c0.5,0.9,0.5,2,0,2.9
			c-0.2,0.5-0.4,0.9-0.8,1.4l0.5,0.5l0.5,0.9c0.1,0.3,0.1,0.5,0.2,0.8v1.1L51.3,43l-0.5-0.5l-0.3-0.3c-0.3-0.3-0.8-0.3-1.2-0.5
			L49,41.6c-0.3,0-0.5-0.2-0.6-0.2l-0.2-0.2c-1.1,0.4-2.2,0.6-3.3,0.6c0.4,0.3,0.9,0.6,1.4,0.8l0.5,0.2L46.3,43
			c-0.6,0.2-1.3,0.3-2,0.3c-0.6,0-1.2-0.1-1.7-0.5V43c0.1,0.2,0.4,0.3,0.6,0.3l0.6,0.2l-0.5,0.6c-0.2,0.1-0.5,0.2-0.8,0.2
			c-0.5,0-1-0.2-1.5-0.5c0.2,0.7,0.3,1.5,0.3,2.3c0,1.8,0.2,2.6,1.2,3.3c0.4,0.3,0.9,0.5,1.4,0.6h0.5c0.2,0,0.3,0.2,0.3,0.5
			c0.1,0.4,0,0.8-0.2,1.2c0.2,0.2,0.5,0.2,1.4,0.3c0.7,0,1.2,0.5,1.4,1.2c0.2,0.5,0.3,0.8,0.6,0.8h0.3l-0.3,0.3
			c-0.1,0.1-0.3,0.2-0.5,0.2c-0.3,0-0.6-0.1-0.9-0.3c-0.2-0.2-0.3-0.2-0.6-0.2l-0.3,0.2c0.6,0.3,0.9,0.9,0.9,1.5c0,0.5,0,1,0.2,1.5
			l0.2,0.5l-0.5-0.2c-0.3-0.2-0.6-0.5-0.8-0.8c-0.2-0.2-0.3-0.2-0.5-0.3c0.4,0.4,0.5,1,0.5,1.5c0,0.3,0,0.5,0.2,0.6l0.2,0.3h-0.5
			c-0.2,0-0.3-0.2-0.5-0.2l0,0c-0.2-0.1-0.4-0.3-0.6-0.5c-0.2,0.2-0.4,0.5-0.5,0.8V59c0,0.6,0,1.8-1.1,2L42.6,60.6"/>
	</g>
	<g id="g5118">
		<path id="path5120" class="st11" d="M16.6,30.5c-0.2-0.2-0.5-0.3-0.8-0.5c-0.2-0.1-0.4-0.3-0.6-0.5c-0.1-0.2-0.4-0.5-0.4-0.8
			c0.4,0.4,1,0.5,1.5,0.5c0.3,0,0.6,0.1,0.9,0.3c-0.1-0.2-0.5-0.3-0.6-0.6c-0.2-0.4-0.4-0.9-0.6-1.4c0.1,0.3,0.5,0.5,0.6,0.6
			c0.3,0.2,0.6,0.3,0.9,0.3c0.6,0.1,1.8,0.8,1.8,1.2c0,0,0.6-0.3,0.1-1.5c0,0,1.4,0.3,1.5,1.5c0,0,1.4-0.9,2.4,1.2
			c0,0-0.1-0.1-0.8-0.1c0,0,0.9,0.3,1.4,2c0.5,1.7,1.2,2.9,2.3,2.9c-0.3,0.3-0.6,0.5-1,0.5c0,0,0.3,4.1,3,3.8
			c-0.8,0.6-1.9,0.8-2.9,0.6c0,0.9-0.5,1.8-1.2,2.3c-0.5,0.5-0.6,1.2-0.3,1.8c-0.5-0.3-0.8-0.9-0.8-1.5l-1.8,3.2
			c0,0-0.5,1.1-0.1,1.5c0,0-0.9-0.3-0.5-2.3c-0.4,0.8-0.9,1.7-1.5,2.4c-0.4,0.5-0.7,1.2-0.9,1.8v-0.2c-0.1-0.2-0.1-0.3-0.3-0.5
			s-0.1-0.6-0.3-0.9c0,0.3-0.1,0.5-0.1,0.8c0,0.2-0.1,0.3-0.1,0.5l-0.1,0.3c0-0.3,0-0.5-0.1-0.8c-0.1-0.3-0.3-0.5-0.5-0.8
			c-0.8-0.7-1.4-1.7-1.5-2.7c-0.2,0.6-0.6,1.1-1.2,1.4c0,0,1.4-0.8-0.4-2.9l-0.1-0.2c0,0-1.1-0.2-1.4-2c-0.1-0.5-0.1-1,0-1.5
			l-0.4,0.5C11.3,41,11.2,41,11,41h-0.6c0.7-0.2,1.1-0.8,1.1-1.5c-0.1-0.9,0.2-1.7,0.8-2.4c-0.7,0.2-1.5,0.2-2.1-0.2
			c0,0,1.2,0.5,1.8-1.8c-0.3,0-0.6,0.2-0.8,0.5c0,0,0.1-1.7,2.9-2.7c-0.2-0.1-0.4-0.1-0.6,0c0,0,0.4-0.8,0.9-0.9
			c-0.2-0.2-0.5-0.3-0.8-0.3l0.4-0.5c0.1-0.1,0.3-0.1,0.5-0.3s0.3,0,0.4-0.2l-0.1-0.1H14l0.1-0.1c0.1-0.1,0.3-0.3,0.5-0.3
			c0.3-0.2,0.7-0.3,1.1-0.3h0.6C16.1,30.1,16.2,30.4,16.6,30.5C16.5,30.5,16.5,30.6,16.6,30.5"/>
	</g>
	<g id="g5122">
		<path id="path5124" class="st4" d="M17.7,47.6l0.1,0.6l0.1,0.5c0,0.2,0,0.4,0.1,0.6c0,0.2,0.1,0.3,0.1,0.5c0.2-0.5,0.5-1,0.8-1.5
			c0.6-0.7,1-1.6,1.4-2.4l0.8-1.5l-0.3,1.7c-0.2,0.5-0.2,1,0,1.5c0-0.3,0.1-0.7,0.3-0.9l2.1-4.1l-0.1,0.9c0,0.3,0.1,0.7,0.3,0.9
			c-0.1-0.6,0.1-1.2,0.6-1.5c1.2-1.2,1.1-2.1,1.1-2.1v-0.3h0.9c0.5,0,1-0.1,1.5-0.3c-2.1-0.5-2.6-3.8-2.6-3.9v-0.2h0.1
			c0.3,0,0.5,0,0.6-0.2c-0.8-0.3-1.4-1.2-2-2.9s-1.2-1.8-1.4-1.8L21,30.6h1.8c-0.2-0.6-0.8-0.9-1.4-0.9c-0.2,0-0.4,0.1-0.6,0.1
			L20.6,30v-0.3c0-0.6-0.4-1-0.9-1.2c0.3,1.1-0.3,1.4-0.5,1.4L19,30v-0.3c0-0.5-1.1-1.1-1.7-1.1c-0.3,0-0.6-0.1-0.9-0.3h-0.1
			c0.1,0.1,0.2,0.3,0.3,0.5l0.3,0.3l0.6,0.2l0.8,0.8l-1.1-0.5c-0.3-0.1-0.6-0.3-0.8-0.1c-0.3,0.1-0.7,0.1-1.1,0v0.1
			c0.2,0.2,0.4,0.3,0.6,0.5l0.1,0.1c0.2,0,0.3,0.1,0.5,0.3l0.6,0.5h-0.8c-0.1,0-0.3-0.1-0.5-0.1v-0.3h-0.6c-0.3,0-0.6,0-0.9,0.1
			l-0.1,0.1h0.3l0.1,0.1l0,0l0.5,0.1l-0.5,0.1l-0.3,0.1h-0.1l-0.4,0.3l-0.2,0.1l0,0l0.6,0.3l0.1,0.2l-0.3,0.2
			c-0.1,0-0.5,0.3-0.6,0.5h0.3l0.6,0.2l-0.6,0.3c-1.1,0.3-2,1-2.6,2c0.3-0.2,0.5,0,0.5,0h0.1v0.2c-0.2,0.7-0.6,1.4-1.2,1.8H11
			c0.3,0,0.7-0.1,1-0.2l0.9-0.3l-0.8,0.6c-0.6,0.6-0.8,1.4-0.8,2.3c0,0.4-0.2,0.9-0.5,1.2l0.5-0.2l0.3-0.3l0.6-1.1l-0.1,1.1
			c-0.2,0.4-0.2,0.9,0,1.4c0.1,0.8,0.5,1.5,1.2,1.8l0,0l0.3,0.3c0.7,0.5,1,1.4,0.9,2.3v0.2c0.2-0.2,0.3-0.5,0.4-0.8l0.1-0.8l0.1,0.8
			c0.1,1,0.6,1.8,1.4,2.4l0.1,0.2c0.2,0.2,0.4,0.5,0.5,0.8l0,0v-0.2l0.2-0.3v-0.3L17.7,47.6z M17.1,50.6L17,49.8v-0.8
			c-0.1-0.3-0.3-0.5-0.5-0.8l-0.1-0.2c-0.6-0.5-1.1-1.2-1.2-2c-0.3,0.4-0.7,0.8-1.2,0.9l-1.2,0.3l1.1-0.6c0.2-0.1,0.4-0.3,0.4-0.6
			c0.1-0.5-0.3-1.2-0.9-2l-0.1-0.3c-0.9-0.4-1.5-1.2-1.5-2.1c0-0.3-0.1-0.8-0.1-1.1l0,0c-0.1,0.2-0.3,0.2-0.6,0.3h-0.6l-0.9,0.2
			l0.9-0.3c0.6-0.2,0.9-0.6,0.9-1.4c-0.1-0.7,0.1-1.4,0.5-2h-0.6c-0.4,0-0.8-0.1-1.2-0.3l-1.2-0.8L10,37h0.2c0.3,0,0.9-0.2,1.2-1.4
			c-0.2,0-0.3,0.1-0.3,0.3l-0.4,0.8l0.1-0.9c0.3-1.2,1.1-2.1,2.1-2.6h-0.1l0.3-0.5c0.2-0.3,0.5-0.5,0.8-0.8c-0.2,0-0.3-0.1-0.5-0.1
			v-0.1l-0.1-0.2l0.1-0.3l0.1-0.1l0.3-0.3h-0.6l0.3-0.3l0.1-0.2c0.2,0.2,0.3,0,0.5,0c0.3-0.2,0.7-0.3,1.1-0.3h0.3l-0.3-0.3
			c-0.3-0.2-0.4-0.6-0.5-0.9l-0.1-0.8l0.5,0.6c0.3,0.3,0.6,0.5,1,0.5h0.6c-0.4-0.4-0.6-0.9-0.6-1.4l-0.1-0.9l0.5,0.8
			c0.1,0.2,0.3,0.4,0.6,0.5c0.3,0.1,0.6,0.1,0.8,0.3c0.7,0.1,1.4,0.5,1.8,1.1c0.1-0.1,0.1-0.5,0-1.1l-0.1-0.3h0.3
			c0.8,0.1,1.4,0.7,1.5,1.5c0.1,0,0.3-0.1,0.6-0.1c0.5,0,1.2,0.3,1.8,1.5l0.5,0.9l-0.6-0.8c0.4,0.5,0.7,1,0.9,1.7
			c0.3,1.2,1.1,2.9,2,2.7h0.5l-0.3,0.3c-0.3,0.3-0.7,0.5-1.1,0.5c0.1,0.8,0.6,3.5,2.6,3.5h0.3l0.8-0.2L28.5,40
			c-0.7,0.4-1.6,0.7-2.4,0.8h-0.5c-0.1,0.9-0.5,1.7-1.2,2.2c-0.5,0.4-0.6,1.1-0.3,1.7l0.1,0.5l-0.5-0.3c-0.4-0.2-0.7-0.6-0.8-1
			l-1.5,2.6c-0.1,0.3-0.5,1.1-0.1,1.4l0.5,0.6L21.2,48c-0.5-0.3-0.8-0.9-0.8-1.5c-0.3,0.5-0.6,1.1-0.9,1.7c-0.4,0.5-0.7,1.2-0.7,1.8
			l-0.1,0.5l-0.3-0.3L18,49.9c-0.1-0.2-0.1-0.3-0.3-0.5v-0.2c0,0.2-0.1,0.3-0.1,0.5l-0.1,0.2l0,0L17.1,50.6"/>
	</g>
	<g id="g5126">
		<path id="path5128" class="st12" d="M20.6,41.3c0.5,1,0.6,2.2,0.3,3.3c0.9-1.2,0.9-2.8,0.1-4.1L20.6,41.3"/>
	</g>
	<g id="g5130">
		<path id="path5132" class="st12" d="M11.4,40.6l0.1-0.3l0.1-0.3c0.1-0.3,0.1-0.6,0.3-0.8c0-0.2,0-0.3,0.2-0.5
			c0.1-0.2,0.1-0.3,0.3-0.5s0.9-0.9,1.1-0.6c-0.1,0.3-0.1,0.6,0,0.9h-0.3c-0.3,0-0.5,0.1-0.8,0.3c-0.1,0.2-0.3,0.3-0.3,0.5
			C12,39.5,12,39.7,12,40c0,0.2-0.1,0.3-0.1,0.5C11.6,40.4,11.5,40.5,11.4,40.6"/>
	</g>
	<g id="g5134">
		<path id="path5136" class="st12" d="M13.6,38.8c0,0-2.6,1.4-0.9,4.5c0,0-0.8-2.7,1.1-3.8L13.6,38.8"/>
	</g>
	<g id="g5138">
		<path id="path5140" class="st18" d="M17.1,32.8c-0.1-0.2-0.2-0.5-0.5-0.6c0,0,0.9,0.2,1,0.5c0,0,0-0.8-0.3-0.9
			c0,0,0.6,0.1,0.8,0.6l0.1-0.5c0.4,0.2,0.6,0.5,0.8,0.9c0.4-0.2,0.9-0.3,1.4-0.2c-0.2,0-0.4,0.1-0.5,0.3c0,0,0.9,0.2,1.2,1.5
			s0.1,1.7,0.3,2.1c0.1,0.5,0.2,0.9,0.3,1.4c0.2,0.4,0.2,0.9,0,1.4c0-0.2-0.1-0.3-0.1-0.5l-0.3-0.2c0,0,0.2,0.8-0.1,1.1
			c-0.3,0.4-0.6,0.8-0.9,1.2c-0.3,0.5-0.6,1-0.9,1.5v1.2c-0.1,0.4-0.3,0.7-0.6,0.9c0,0,0.3-0.3,0-1.1c-0.1,0.4-0.3,0.7-0.6,0.9
			c-0.5,0.3-0.6,0.3-0.6,0.6c-0.1-0.2-0.2-0.5-0.1-0.8c0-0.2,0-0.4-0.1-0.6c-0.2,0.2-0.3,0.5-0.3,0.8c-0.3-0.3-0.4-0.7-0.3-1.1
			c-0.2,0.3-0.3,0.6-0.3,0.9c0,0-0.9,0-0.6-1.5l-0.1-0.6l-0.9-2.9c-0.2,0.4-0.2,0.8-0.1,1.2c0,0-0.5-0.3-0.3-1.7
			c-0.1,0.2-0.2,0.4-0.3,0.6c0-0.4-0.1-0.7-0.1-1.1c0-0.5,0-1,0.2-1.4c0.3-0.5,0.5-1.1,0.6-1.7c0.1-0.6,0.3-1.2,0.6-1.8
			C15.7,32.9,16.4,32.2,17.1,32.8"/>
	</g>
	<g id="g5142">
		<path id="path5144" class="st4" d="M17.4,43.5l0.2,0.2c0.1,0.2,0.2,0.5,0.1,0.8v0.3l0.1-0.2l0.3-0.2c0.2-0.2,0.4-0.6,0.5-0.9
			l0.2-0.9l0.1,0.8c0,0.2,0,0.3,0.1,0.5c0.1-0.1,0.1-0.2,0.1-0.3l0,0v-1.2c0.2-0.6,0.5-1.2,0.9-1.7c0.3-0.4,0.6-0.8,0.9-1.2
			c0.2-0.2,0.2-0.8,0.2-0.9L21,37.8l0.6,0.8c0-0.3,0-0.5-0.1-0.8c-0.1-0.3-0.2-0.7-0.3-1.1V36c0-0.6-0.1-1.1-0.3-1.7
			c-0.3-1.2-1.1-1.4-1.1-1.4h-0.3l0.1-0.2v-0.2c-0.2,0-0.4,0-0.6,0.2L18.7,33v-0.3c0-0.2-0.2-0.3-0.2-0.5v1.1l-0.5-0.9l-0.3-0.3
			c0.1,0.2,0.1,0.4,0.1,0.6v0.8l-0.5-0.6c0-0.2-0.2-0.2-0.5-0.2l0.1,0.2l0.1,0.6L17,33c-0.1-0.1-0.3-0.2-0.5-0.2
			c-0.5,0-0.9,0.5-1.2,0.9c-0.3,0.6-0.5,1.2-0.6,1.8c-0.1,0.6-0.3,1.1-0.6,1.7c0,0.2-0.1,0.9-0.1,1.2l0.1,0.5l0.3-0.8v1.7
			c0-0.1,0.1-0.2,0.1-0.3l0.1-0.5l1.1,3.3c0.1,0.6,0.3,0.8,0.1,0.8c0,0.6,0,0.9,0.1,1.1l0.1,0.2c0-0.6,0.3-0.9,0.5-0.9l0.3-0.3v1.1
			c0.1-0.1,0.1-0.3,0.1-0.5L17.4,43.5z M17.7,45.7l-0.3-0.3c-0.1-0.2-0.2-0.4-0.1-0.6v0.2l-0.1-0.2c-0.1-0.1-0.2-0.3-0.3-0.5v0.5
			h-0.1c-0.2,0-0.4-0.1-0.6-0.3c-0.3-0.3-0.3-0.8-0.3-1.5c0-0.2-0.1-0.4-0.1-0.6l-0.8-2.3v0.5l0.1,0.6l-0.4-0.5
			c-0.2-0.3-0.3-0.7-0.3-1.1l-0.3,0.8v-1.1c0-0.4-0.1-0.7-0.2-1.1c-0.1-0.5,0-1,0.2-1.5c0.1-0.5,0.6-1.4,0.6-1.5l0,0
			c0.1-0.7,0.4-1.3,0.8-1.8c0.2-0.6,0.7-1,1.4-1.1l-1.1-0.5l1.1,0.2c0.2,0.1,0.5,0.1,0.8,0.2c0-0.2-0.1-0.3-0.1-0.5l-0.1-0.3h0.5
			c0.3,0,0.5,0.1,0.8,0.3l0.1-0.2c0.3,0.2,0.6,0.5,0.8,0.8c0.3-0.1,0.5-0.1,0.8-0.2c0.2,0,0.4,0,0.6,0.2l0.8,0.2l-0.9,0.2h-0.1
			c0.5,0.4,0.9,0.9,1.1,1.5c0.2,0.6,0.3,1.2,0.3,1.8v0.9c0,0.3,0.1,0.7,0.3,0.9c0.2,0.5,0.2,1,0,1.5h-0.3c0,0.2,0,0.4-0.1,0.6
			c-0.3,0.4-0.6,0.8-0.9,1.2c-0.4,0.5-0.7,1-0.9,1.5v0.2c0,0.5,0,0.9-0.1,1.1c-0.1,0.4-0.4,0.7-0.8,0.9l-0.2-0.2l0,0l-0.3,0.3
			L18,45.1c-0.1,0.2-0.1,0.2-0.1,0.3L17.7,45.7"/>
	</g>
	<g id="g5146">
		<path id="path5148" class="st8" d="M12.5,33.8l-0.3-0.6c-0.1-0.4,0-0.8,0.3-1.1c0.3-0.3,0.7-0.4,1.1-0.3c0.2,0,0.4,0.1,0.5,0.3
			c-0.4,0.2-0.7,0.5-0.9,0.9h0.6C13.7,33,13,33.5,12.5,33.8"/>
	</g>
	<g id="g5150">
		<path id="path5152" d="M13.2,32.1c-0.1,0-0.3,0.2-0.5,0.3c-0.2,0.3-0.3,0.6-0.3,0.9l0.1,0.3l0.3-0.2h-0.2l0.3-0.5l0.8-0.8h-0.1
			L13.2,32.1 M12.6,34c-0.3,0-0.4-0.6-0.4-0.6c-0.1-0.4,0-0.9,0.3-1.2c0.1-0.3,0.4-0.5,0.8-0.5h0.4l0.6,0.3l0.1,0.2l-0.3,0.2
			c-0.2,0.1-0.4,0.3-0.6,0.5h0.3l0.6,0.3L14,33.2C13.9,33.4,13.1,33.7,12.6,34L12.6,34"/>
	</g>
	<g id="g5154">
		<path id="path5156" class="st8" d="M21.5,33.2c0.5,0.3,1,0.6,1.4,1.1c0.3-0.4,0.2-1-0.1-1.4c-0.6-0.6-1.2,0.2-1.2,0.2L21.5,33.2"
			/>
	</g>
	<g id="g5158">
		<path id="path5160" d="M21.8,33.1c0.4,0.2,0.8,0.5,1.1,0.9c0-0.3,0.1-0.6-0.2-0.9C22.5,33,22.4,33,22.2,33
			C22.1,32.8,21.8,33.2,21.8,33.1L21.8,33.1 M23,34.6l-0.1-0.3c-0.4-0.4-0.9-0.8-1.4-1.1l0,0l0.2-0.5c0.2-0.3,0.4-0.4,0.8-0.5
			c0.2,0,0.5,0.1,0.6,0.3c0.4,0.5,0.5,1.1,0.1,1.7L23,34.6"/>
	</g>
	<g id="g5162">
		<path id="path5164" class="st13" d="M20.3,28.7c0,0,0.5,1.2-0.1,1.8c-0.4,0.4-0.7,0.9-0.8,1.5c0.2-0.4,0.4-0.7,0.8-1
			c0.4-0.2,0.6-0.8,0.5-1.2C20.5,29.4,20.4,29.1,20.3,28.7"/>
	</g>
	<g id="g5166">
		<path id="path5168" class="st13" d="M20.1,31.4c0,0,1.1-2.1,2.6-1.1C21.7,30.1,20.7,30.5,20.1,31.4"/>
	</g>
	<g id="g5170">
		<path id="path5172" class="st13" d="M17.3,28.6c0,0,2,0.6,1.8,1.8c0,0,1.2-1.1,0.8-1.8c0,0,0.5,0.6-0.1,1.7
			c-0.3,0.5-0.6,1-0.8,1.5C19.3,30.5,18.6,29.1,17.3,28.6"/>
	</g>
	<g id="g5174">
		<path id="path5176" class="st13" d="M16.4,28.2c0.8,0.4,1.4,1,2,1.7c-0.4-0.4-0.8-0.7-1.2-0.9c0,0,1.8,1.1,1.3,2.7l-0.3-0.1
			c0.1-0.8-0.3-1.6-0.9-2.1C17,29,16.7,28.6,16.4,28.2"/>
	</g>
	<g id="g5178">
		<path id="path5180" class="st13" d="M15.5,29.5c0.3,0.1,0.6,0.1,0.9,0.1c0.5-0.1,1.2,0.1,1.2,1.2v0.8l-0.3-0.2c0,0,0.1-1-0.5-1.4
			C16.4,29.5,16,29.9,15.5,29.5"/>
	</g>
	<g id="g5182">
		<path id="path5184" class="st13" d="M14.5,30.5c0.7-0.3,1.6-0.1,2.1,0.5l0.8,1.1L17,31.9c-0.2-0.5-0.6-0.9-1.1-1.2
			C15.5,30.6,15,30.5,14.5,30.5"/>
	</g>
	<g id="g5186">
		<path id="path5188" class="st13" d="M16.9,32c-0.4-0.9-1.3-1.4-2.3-1.4c0.8,0.1,1.4,0.5,1.8,1.2L16.9,32"/>
	</g>
	<g id="g5190">
		<path id="path5192" class="st13" d="M16,32.5l-0.3,0.2c-0.7-0.3-1.4-0.2-2,0.2C14.3,32.2,15.2,32.1,16,32.5"/>
	</g>
	<g id="g5194">
		<path id="path5196" class="st13" d="M15.5,32.8l-0.1,0.3c-0.5-0.2-1-0.2-1.5-0.2C14.4,32.6,15,32.5,15.5,32.8"/>
	</g>
	<g id="g5198">
		<path id="path5200" class="st13" d="M15.1,33.2c-0.4,0-0.8,0.1-1.2,0.2c-1,0.3-1.9,1-2.6,1.8c0.8-0.7,1.7-1.2,2.7-1.5
			c-0.7,0.3-1.4,0.6-2,1.1c0,0,1.8-0.9,2.6-0.6L15.1,33.2"/>
	</g>
	<g id="g5202">
		<path id="path5204" class="st13" d="M10.9,37.2c0.5-0.3,0.9-0.8,1.2-1.4c0.4-1.1,2.3-1.2,2.4-0.9l-0.2,0.3
			c-0.5-0.3-1.1-0.2-1.5,0.2C11.9,35.9,12.4,36.8,10.9,37.2"/>
	</g>
	<g id="g5206">
		<path id="path5208" class="st13" d="M19.8,32c0,0,1.7-1.8,2.7-0.9c0.7,0.6,1.3,1.4,1.5,2.3c0.2,1,0.8,1.8,1.7,2.4
			c0,0-2-0.9-2.1-2.1c0,0-0.8-2.9-2.9-1.5l-0.3,0.2h-0.8L19.8,32"/>
	</g>
	<g id="g5210">
		<path id="path5212" class="st13" d="M20.4,41.5c0,0,0.8,3.3-0.8,5.7c-1.1,1.7-1.4,2.3-1.4,2.3s-0.1-0.5,1.1-2.6
			c0.6-1.5,0.8-3.1,0.5-4.7L20.4,41.5"/>
	</g>
	<g id="g5214">
		<path id="path5216" class="st12" d="M19.7,43.1c0.2,1.1,0.1,2.1-0.1,3.2c-0.5,1.5-0.9,1.7-1.1,2.4c0.2-0.7,0.4-1.4,0.6-2
			c0.3-0.7,0.4-1.5,0.3-2.3C19.6,44,19.7,43.5,19.7,43.1"/>
	</g>
	<g id="g5218">
		<path id="path5220" class="st12" d="M20.9,33.3l0.1,0.5c0.4,0.2,0.8,0.4,1.2,0.6C22.4,34.3,21.9,33.4,20.9,33.3"/>
	</g>
	<g id="g5222">
		<path id="path5224" class="st12" d="M21.2,34.1c0.6,0.3,1.1,0.8,1.5,1.4l-0.6-0.6l0.5,0.5l-1.1-0.5L21.2,34.1"/>
	</g>
	<g id="g5226">
		<path id="path5228" class="st12" d="M14.3,35.4h-0.5c-0.4,0.1-0.9,0.3-1.2,0.6l-0.3,0.3l-0.1,0.3c-0.1,0.2-0.5,0.5-0.8,0.5
			c0.4,0,0.8-0.1,1.2-0.3c0.5-0.5,1.5-1.2,1.8-0.9L14.3,35.4L14.3,35.4"/>
	</g>
	<g id="g5230">
		<path id="path5232" class="st12" d="M19.1,44.7c-0.6,0.7-1,1.5-1,2.4c0,0.7,0,1.3,0.1,2c0-0.6,0.1-1.2,0.3-1.8v0.6
			C18.4,47.9,19.3,45.8,19.1,44.7"/>
	</g>
	<g id="g5234">
		<path id="path5236" class="st12" d="M15.5,43.3c0,0.3-0.1,0.8-0.1,1.1c-0.1,0.7,0,1.4,0.3,2.1c0.2,0.4,0.5,0.8,0.8,1.2
			c0.3,0.3,0.6,0.6,0.8,1c-0.2-0.7-0.5-1.4-0.9-2c-0.4-0.7-0.6-1.5-0.3-2.3C15.7,44.1,15.6,43.7,15.5,43.3"/>
	</g>
	<g id="g5238">
		<path id="path5240" class="st12" d="M25.2,40.1c0.7,0.2,1.3,0.2,2,0c0,0-0.9,0.5-2.3-1.5c-0.7-1.1-1.9-1.9-3.2-2l0.1,0.6
			c1.2,0.2,2.3,1,2.9,2.1c0.3,1.2,0,2.5-0.7,3.5C24.8,42.2,25.3,41.2,25.2,40.1"/>
	</g>
	<g id="g5242">
		<path id="path5244" class="st12" d="M22,37.8c0,0,2.4,0.5,2.6,2c0.1,0.7-0.1,1.5-0.5,2.1c-0.1,0.5-0.6,0.9-0.6,1.5
			c0.1-0.8,0.5-1.7,0.6-2.4c0.1-0.7-0.3-1.4-0.9-1.7c-0.3-0.2-0.8-0.3-1.1-0.5C22,39,22.3,38.3,22,37.8"/>
	</g>
	<g id="g5246">
		<path id="path5248" class="st12" d="M22.6,39.3c0,0,1.8,0.8,0.9,3C23.5,42.3,23.6,39.8,22.6,39.3"/>
	</g>
	<g id="g5250">
		<path id="path5252" class="st12" d="M14,36.4c0,0-1.7,0.8-2,1.4c-0.3,0.5-0.4,1.1-0.4,1.7c0,0,0.3-1.7,1.2-2
			c0.3-0.2,0.6-0.4,0.9-0.5L14,36.4"/>
	</g>
	<g id="g5254">
		<path id="path5256" class="st12" d="M21.4,40.3l0.1,0.5c0.1,0.5,0.1,0.8,0.3,1.2c0.2,1.2,0,2.4-0.6,3.5c-0.2,0.4-0.3,0.9-0.3,1.4
			c0.1-0.8,0.5-1.5,1.1-2.1c0.8-0.6,2.3-3.9,0.1-5.1c0.5,0.9,0.8,1.9,0.8,2.9c-0.1,0.8-0.4,1.5-0.9,2.1c0,0,1.7-2.6,0-4.8L21.4,40.3
			"/>
	</g>
	<g id="g5258">
		<path id="path5260" class="st12" d="M15,41.3c-0.6,0.6-0.8,1.5-0.6,2.3c0.3,1.4,0.4,1.8,0.3,2.3c0,0,0.3-0.3,0.1-2.1
			c0.1,0.5,0.2,1,0.3,1.5c0.2-0.6,0.2-1.2,0-1.8c0-0.3,0-0.8,0.3-0.9L15,41.3"/>
	</g>
	<g id="g5262">
		<path id="path5264" class="st12" d="M14,40.1c-0.5,0.6-0.8,1.4-0.8,2.3c0.1,1.2,1.1,2.1,1.2,2.7c0,0-1.5-3.3-0.1-4.2
			C14.3,40.7,14,40.3,14,40.1"/>
	</g>
	<g id="g5266">
		<path id="path5268" class="st12" d="M21.6,35.5c0,0,2.7,1.1,3.5,2.3s1,1.8,1.5,2c0,0-0.6,0-1.4-0.9c-0.5-1-1.4-1.7-2.4-2.1
			l-1.2-0.3L21.6,35.5"/>
	</g>
	<g id="g5270">
		<path id="path5272" class="st12" d="M23,35.4c0.8,0.2,1.5,0.7,2,1.4l0.3,0.9c0,0-1.2-1.4-1.8-1.5L23,35.4"/>
	</g>
	<g id="g5274">
		<path id="path5276" class="st19" d="M19.1,37.9c0.6,0.2,1,0.7,0.9,1.4c-0.1,0.3-0.3,0.5-0.5,0.8c0,0-0.6,2.7-1.1,2.9
			s-0.8-0.8-0.9-0.9c-0.3,0-0.8,0.8-1,0.6s-0.5-0.3-0.6-1.4c0-0.5-0.1-0.9-0.3-1.4c0,0-1.1-1.2-0.3-1.8s2.3,0.2,2.3,0.2L19.1,37.9"
			/>
	</g>
	<g id="g5278">
		<path id="path5280" class="st12" d="M16.1,44.7c-0.1,0.6,0,1.3,0.3,1.8c0.4,0.5,0.7,1.1,0.9,1.7v-0.3c0,0,0.5-2.4,1-3
			c-0.4,0.4-0.6,0.8-0.8,1.4C17.6,46.2,16.1,45.5,16.1,44.7"/>
	</g>
	<g id="g5282">
		<path id="path5284" class="st20" d="M18.8,38.5c2.1-0.9,4.4-1,6.5-0.3C25.3,38.2,22.9,37.3,18.8,38.5"/>
	</g>
	<g id="g5286">
		<path id="path5288" class="st20" d="M19,38.9c2.1-0.2,4.1,0.2,5.9,1.4C23.1,39.2,21.1,38.7,19,38.9"/>
	</g>
	<g id="g5290">
		<path id="path5292" class="st20" d="M18.9,39.2c0,0,3,0.8,4.4,2.7C22,40.8,20.5,39.8,18.9,39.2"/>
	</g>
	<g id="g5294">
		<path id="path5296" class="st20" d="M16.4,38.4c-1.6-1-3.5-1.4-5.4-1.2C12.8,37,14.7,37.5,16.4,38.4"/>
	</g>
	<g id="g5298">
		<path id="path5300" class="st20" d="M16.1,38.6c0,0-1.7-0.9-4.5,0.3C13,38.4,14.6,38.3,16.1,38.6"/>
	</g>
	<g id="g5302">
		<path id="path5304" class="st20" d="M16.4,38.8c0,0-2.9,0.6-3.9,2.4C13.5,40.1,14.9,39.3,16.4,38.8"/>
	</g>
	<g id="g5306">
		<path id="path5308" class="st21" d="M15.9,39.7c0,0,1.2-0.9,2-0.8c0.5,0.3,1,0.6,1.5,1c0,0.9-0.2,1.8-0.8,2.6c0,0-0.1,0.3-0.6-0.2
			c-0.6-0.3-0.5-0.3-1.1,0s-0.6-0.6-0.6-0.6c-0.2-0.5-0.3-1-0.3-1.5C15.9,40.1,15.9,39.9,15.9,39.7"/>
	</g>
	<g id="g5310">
		<path id="path5312" class="st22" d="M16.1,39.8c0.1-0.2,0.4-0.4,0.6-0.5c-0.1,0.3-0.1,0.6,0,0.9C16.7,40.2,16.6,40.4,16.1,39.8"/>
	</g>
	<g id="g5314">
		<path id="path5316" class="st22" d="M18.9,39.9c-0.1,0.3-0.3,0.4-0.6,0.5c0.1-0.2,0.1-0.5,0.1-0.8C18.5,39.6,18.6,39.5,18.9,39.9"
			/>
	</g>
	<g id="g5318">
		<path id="path5320" class="st22" d="M16.8,41.4v0.5l0.1,0.5h-0.4V42l0.1-0.3L16.8,41.4L16.8,41.4"/>
	</g>
	<g id="g5322">
		<path id="path5324" class="st22" d="M18.1,42.3c0,0,0.5,0.3,0.5,0c0-0.3-0.1-0.5-0.3-0.8L18.1,42.3"/>
	</g>
	<g id="g5326">
		<path id="path5328" class="st23" d="M17.1,42c0.3-0.1,0.5,0,0.8,0.2C18,42,18,41.8,18,41.6c0-0.2,0.1-0.2,0.3-0.2l0.1,0.3
			c0-0.4-0.2-0.8-0.5-1.1c-0.5-0.2-0.5,0.2-0.5,0.2s-0.5-0.3-0.8,0.5c0,0.2,0.1,0.3,0.1,0.5L17.1,42"/>
	</g>
	<g id="g5330">
		<path id="path5332" class="st24" d="M17,35.7c0.3,0.1,0.7-0.1,0.8-0.4c0,0,0,0,0,0c0,0,0.1,0.6-0.8,0.9V35.7"/>
	</g>
	<g id="g5334">
		<path id="path5336" class="st24" d="M18.9,35.6l-0.3,0.8c0,0-0.8-0.3-0.8-0.6c0-0.2,0.1-0.4,0.1-0.6C18,35.2,18.3,36.1,18.9,35.6"
			/>
	</g>
	<g id="g5338">
		<path id="path5340" class="st21" d="M15.3,35.3c0.2-0.1,0.5-0.2,0.8-0.3c0.4,0.1,0.8,0.4,1.1,0.8L17,36.1v0.3
			c-0.3,0.5-0.6,1-0.8,1.5c0,0.5,0.3-0.2,0.8,0.2c0.3,0.3,0.3,0.5,0.5,0.5s0.3,0.2,0.5-0.2s0.5-0.5,0.6-0.3c0.1,0,0.6,0.2,0.5-0.5
			c-0.2-0.4-0.3-0.9-0.3-1.4c0-0.5,0.3-0.6,0.3-0.8c0.1,0,0.8-0.5,0.9-0.5c0.3,0.1,0.5,0.3,0.8,0.5l-0.2,0.2c0,0-0.3-0.2-0.5,0
			c-0.1,0.2-0.2,0.5-0.5,0.6c-0.3,0.2-0.5,0-0.8-0.2c-0.1,0.2-0.1,0.4-0.1,0.6c0,0.3,0.3,1.1,0.3,1.2s-0.3,0.3-0.6,0.3
			c-0.2,0-0.5,0.1-0.6,0.3c-0.1,0.2-0.5,0.5-0.9-0.2h-0.5c-0.1,0-0.6-0.3-0.4-0.6c0.2-0.5,0.4-0.9,0.8-1.4v-0.5
			c-0.2,0.2-0.4,0.3-0.6,0.3c-0.3,0-0.6-0.5-0.6-0.8l-0.3,0.2L15.3,35.3"/>
	</g>
	<g id="g5342">
		<path id="path5344" class="st25" d="M16,35.3l0.3,0.2c0,0-0.1,0.3,0,0.3s0.3-0.2,0.3-0.2l0.1,0.2c-0.1,0.2-0.3,0.2-0.4,0.2
			c0,0,0,0,0,0C16.1,35.8,15.9,35.6,16,35.3C16,35.3,16,35.3,16,35.3"/>
	</g>
	<g id="g5346">
		<path id="path5348" class="st25" d="M19.1,35.9L19.1,35.9c0.2-0.2,0.3,0.2,0.5,0s0.1-0.3,0.1-0.3h0.1c0,0.2-0.1,0.3-0.1,0.5
			c-0.2,0.1-0.4,0.1-0.5,0C19.1,36,19.1,35.9,19.1,35.9"/>
	</g>
	<g id="g5350">
		<path id="path5352" class="st26" d="M16.4,37.6c0,0,2-0.2,2.4,0.3l0,0c0,0,0,0.3-0.5,0.2c-0.3-0.2-0.5,0.3-0.6,0.5
			c-0.1,0.1-0.3,0.2-0.4,0.1c0,0,0,0-0.1-0.1c-0.1-0.2-0.3-0.5-0.6-0.5h-0.3c0,0-0.1,0-0.1-0.3L16.4,37.6L16.4,37.6"/>
	</g>
	<g id="g5354">
		<path id="path5356" class="st22" d="M16,35.3l0.3,0.2v0.2h-0.1L16,35.3"/>
	</g>
	<g id="g5358">
		<path id="path5360" class="st22" d="M19.1,35.9h0.3l-0.1,0.2L19.1,35.9"/>
	</g>
	<g id="g5362">
		<path id="path5364" class="st24" d="M17.1,36.3c0,0,0.1-0.3,0.5,0c-0.2,0-0.5,0.1-0.6,0.3L17.1,36.3"/>
	</g>
	<g id="g5366">
		<path id="path5368" class="st17" d="M15.4,34.1c0,0,0.8-1.5,1.5-0.9C17.1,33.2,15.9,33.4,15.4,34.1"/>
	</g>
	<g id="g5370">
		<path id="path5372" class="st17" d="M16.2,35.1c0.3,0.2,0.6,0.4,0.9,0.6l0.5-0.2h-0.5C17,35.2,16.6,35,16.2,35.1"/>
	</g>
	<g id="g5374">
		<path id="path5376" class="st13" d="M15.9,32.1l-0.6-0.3h0.6c-0.6-0.6-1.5-0.6-2.1,0c0,0,0,0,0,0C14.5,31.7,15.3,31.8,15.9,32.1"
			/>
	</g>
	<g id="g5378">
		<path id="path5380" class="st13" d="M20.5,32.3l0.8,0.3c0,0,0.9-0.5,1.4-0.2C22.6,32.3,22,31.4,20.5,32.3"/>
	</g>
	<g id="g5382">
		<path id="path5384" class="st17" d="M36.5,45c0,0,0.3,2.9,1.5,4.1c0,0-1.1-2.6-0.9-3.2L36.5,45"/>
	</g>
	<g id="g5386">
		<path id="path5388" class="st17" d="M46.9,33.8c0,0,3.6,0.9,3.2,4.1C50.1,37.9,51.5,34.3,46.9,33.8"/>
	</g>
	<g id="g5390">
		<path id="path5392" class="st10" d="M7.3,34c0.2,0.2,0.4,0.2,0.6,0c0,0,0,0,0,0c0.1-0.5-0.2-1-0.7-1.1c0,0-0.1,0-0.1,0
			C7.4,33.1,7.5,33.6,7.3,34"/>
	</g>
	<g id="g5394">
		<path id="path5396" d="M7.4,33.9h0.3c0-0.2,0-0.4-0.2-0.6L7.3,33C7.5,33.3,7.5,33.6,7.4,33.9 M7.6,34.2c-0.2,0-0.3,0-0.4-0.2v-0.3
			C7.3,33.5,7,32.9,7,32.9l-0.2-0.3h0.3c0.3,0,0.6,0.2,0.8,0.5c0.2,0.2,0.2,0.5,0.1,0.8h0L7.6,34.2"/>
	</g>
	<g id="g5398">
		<path id="path5400" class="st10" d="M5.9,33.9c0.2,0.1,0.5,0,0.6-0.2c0,0,0.2-0.5-0.9-0.8C5.8,33.2,5.9,33.5,5.9,33.9"/>
	</g>
	<g id="g5402">
		<path id="path5404" d="M6,33.8l0.3-0.2c0-0.2-0.2-0.3-0.5-0.5C5.8,33.3,6,33.6,6,33.8 M6,34H5.7v-0.1c0-0.3-0.1-0.5-0.3-0.8
			l-0.3-0.3L5.5,33c1.1,0.3,0.9,0.8,0.9,0.9l0,0C6.3,33.9,6.2,34.1,6,34"/>
	</g>
	<g id="g5406">
		<path id="path5408" class="st10" d="M4.3,35c0,0,0.6,0,0.4-0.5c0,0-0.6-0.8-1.1-0.3C3.7,34.2,4.3,34.5,4.3,35"/>
	</g>
	<g id="g5410">
		<path id="path5412" d="M3.9,34.2c0.2,0.2,0.3,0.4,0.4,0.6c0.2,0,0.3-0.1,0.3-0.3C4.5,34.4,4.2,34.1,3.9,34.2 M4.1,35.2L4.1,35.2
			c0-0.3-0.2-0.6-0.5-0.8l-0.2-0.2l0.2-0.2C3.8,34,3.9,34,4.1,34c0.4,0,0.8,0.5,0.9,0.5h0C5,34.9,4.6,35.1,4.1,35.2L4.1,35.2"/>
	</g>
	<g id="g5414">
		<path id="path5416" class="st10" d="M4.2,36.4c0,0.2-0.1,0.4-0.3,0.6c-0.4-0.2-0.6-0.6-0.6-1.1C3.6,36.1,3.9,36.3,4.2,36.4"/>
	</g>
	<g id="g5418">
		<path id="path5420" d="M3.5,36.2c0,0.3,0.2,0.5,0.5,0.6l0.2-0.3C3.8,36.5,3.6,36.4,3.5,36.2 M3.9,37.1L3.9,37.1
			c-0.5-0.2-0.8-0.7-0.8-1.2v-0.3l0.2,0.2c0.2,0.2,0.5,0.5,0.8,0.5h0.2v0.2C4.4,36.4,4.4,36.8,3.9,37.1L3.9,37.1"/>
	</g>
	<g id="g5422">
		<path id="path5424" class="st10" d="M13.1,58.8c0,0,0.9-0.5,0.8,0.5c-0.3,0.1-0.6,0.3-0.8,0.6C13.1,59.8,12.8,59.5,13.1,58.8"/>
	</g>
	<g id="g5426">
		<path id="path5428" class="st4" d="M13.1,58.9C13,59.1,13,59.4,13,59.6c0.1-0.2,0.5-0.3,0.6-0.5v-0.3L13.1,58.9 M13,60.1l-0.1-0.2
			c-0.2-0.4-0.2-0.8,0-1.2l0,0c0.1-0.1,0.3-0.1,0.4-0.2c0.2,0,0.3,0,0.3,0.2c0.1,0.2,0.1,0.3,0.1,0.6v0.2l0,0
			c-0.3,0.1-0.5,0.3-0.8,0.5V60.1"/>
	</g>
	<g id="g5430">
		<path id="path5432" class="st10" d="M14.6,60c0,0,0-0.8-0.6-0.6c-0.3,0.3-0.3,0.8,0,1C13.8,60.5,14.1,60,14.6,60"/>
	</g>
	<g id="g5434">
		<path id="path5436" class="st4" d="M14,59.5c0,0.2-0.1,0.3-0.1,0.6c0.1-0.2,0.4-0.3,0.6-0.3l-0.1-0.3H14 M13.9,60.8l-0.1-0.2
			c-0.3-0.6-0.1-1.1,0.1-1.2l0,0c0.2-0.1,0.5-0.1,0.6,0.2c0.1,0.2,0.2,0.4,0.1,0.6v0.2h-0.1C14.2,60.3,13.9,60.5,13.9,60.8
			L13.9,60.8"/>
	</g>
	<g id="g5438">
		<path id="path5440" class="st10" d="M15.8,60.2c0,0,0-0.8-0.6-0.6c-0.3,0.3-0.3,0.8,0,1.1C15,60.7,15.3,60.2,15.8,60.2"/>
	</g>
	<g id="g5442">
		<path id="path5444" class="st4" d="M15.2,59.8c0,0.2-0.1,0.3-0.1,0.6c0.1-0.2,0.4-0.3,0.6-0.3l-0.1-0.3H15.2 M15.1,61l-0.1-0.2
			c-0.3-0.6-0.1-1.1,0.1-1.2l0,0c0.3-0.2,0.4,0,0.6,0.2c0.1,0.2,0.2,0.4,0.1,0.6v0.2h-0.1C15.4,60.6,15.2,60.7,15.1,61L15.1,61"/>
	</g>
	<g id="g5446">
		<path id="path5448" class="st10" d="M16.4,59.8c0.2-0.2,0.6-0.1,0.7,0.1c0,0,0,0,0,0c-0.3,0.2-0.5,0.4-0.6,0.8
			C16.5,60.7,16.2,60.7,16.4,59.8"/>
	</g>
	<g id="g5450">
		<path id="path5452" class="st4" d="M16.5,59.9c-0.1,0.2-0.1,0.4,0,0.6l0,0c0.1-0.2,0.3-0.4,0.5-0.6l-0.3-0.2L16.5,59.9 M16.6,61
			L16.6,61c-0.1,0-0.3,0-0.3-0.2s-0.1-0.5,0-0.9l0,0c0.1-0.1,0.3-0.2,0.5-0.2c0.2,0,0.5,0.1,0.6,0.3v0.2h-0.1
			C17.3,60.1,16.8,60.4,16.6,61L16.6,61"/>
	</g>
	<g id="g5454">
		<path id="path5456" class="st10" d="M38.6,59c0,0,0.9,0,0.5,0.6c0,0-0.6,0-0.8,0.5C38.3,59.9,38,59.6,38.6,59"/>
	</g>
	<g id="g5458">
		<path id="path5460" class="st4" d="M38.7,59.2c-0.3,0.3-0.3,0.5-0.3,0.6l0.6-0.3v-0.2C39,59.2,38.8,59.2,38.7,59.2 M38.2,60.2
			v-0.2c0,0-0.3-0.5,0.5-1.2l0,0c0.2,0,0.6,0,0.6,0.3c0,0.2,0,0.3-0.2,0.5l0,0c-0.3,0-0.5,0.1-0.8,0.3L38.2,60.2"/>
	</g>
	<g id="g5462">
		<path id="path5464" class="st10" d="M39.5,59.4c0,0,0.6,0,0.6,0.5c0,0-0.6,0.2-0.8,0.5C39.2,60,39.3,59.7,39.5,59.4"/>
	</g>
	<g id="g5466">
		<path id="path5468" class="st4" d="M39.5,59.5c-0.1,0.2-0.2,0.4-0.2,0.6c0.2-0.2,0.4-0.3,0.6-0.3C39.8,59.5,39.7,59.5,39.5,59.5
			 M39.4,60.6l-0.2-0.2c0,0-0.3-0.3,0.2-1l0,0c0.4,0,0.7,0.2,0.8,0.6v0.2H40C39.7,60.3,39.4,60.5,39.4,60.6L39.4,60.6"/>
	</g>
	<g id="g5470">
		<path id="path5472" class="st10" d="M40.7,59.7c0,0,0.6-0.3,0.6,0.5c-0.4,0-0.7,0.3-0.8,0.6C40.6,60.6,40.3,60.6,40.7,59.7"/>
	</g>
	<g id="g5474">
		<path id="path5476" class="st4" d="M40.8,59.8c-0.1,0.2-0.2,0.4-0.2,0.6c0.1-0.2,0.4-0.3,0.6-0.3c0-0.3-0.2-0.3-0.3-0.3H40.8
			 M40.7,60.7L40.7,60.7l-0.2-0.2c-0.2-0.2,0-0.5,0.2-1.1l0,0c0.1-0.1,0.2-0.1,0.3-0.2c0.2,0,0.5,0,0.5,0.6v0.2h-0.2
			C41.4,60.3,41,60.3,40.7,60.7L40.7,60.7"/>
	</g>
	<g id="g5478">
		<path id="path5480" class="st10" d="M42.2,59.8c0,0,0.8-0.5,0.8,0.3c-0.3,0.1-0.4,0.3-0.5,0.6C42.5,60.6,42,60.6,42.2,59.8"/>
	</g>
	<g id="g5482">
		<path id="path5484" class="st4" d="M42.3,59.9v0.6c0.2-0.3,0.3-0.5,0.5-0.5c0-0.1-0.1-0.2-0.1-0.2c0,0,0,0,0,0H42.3 M42.6,60.8
			L42.6,60.8l-0.3-0.2C42,60.5,42,60.2,42,59.7l0,0c0.1-0.1,0.3-0.1,0.5-0.2c0.2,0,0.5,0,0.5,0.5v0.2h-0.2
			C43,60.2,42.6,60.3,42.6,60.8L42.6,60.8"/>
	</g>
	<g id="g5486">
		<path id="path5488" class="st4" d="M21.4,33.2c0.5,0.2,0.9,0.4,1.2,0.8l0.3,0.3l0.1,0.2l0.2,0.2l0.1,0.2l0.1,0.2l0.1,0.2l0.1,0.2
			l0.1,0.5l-0.5-0.3c-0.3-0.2-0.5-0.3-0.8-0.5l-0.5-0.2H22v-0.3l0.6,0.6c0.1,0.2,0.3,0.5,0.5,0.6l0.2,0.3l0.1,0.2l0.1,0.2l0.1,0.2
			v0.2l-0.1-0.2l-0.1-0.2c-0.1-0.2-0.3-0.5-0.5-0.6l-0.6-0.6c-0.2-0.2-0.4-0.3-0.6-0.5l-0.3-0.3h0.9c0.1,0,0.3,0.2,0.5,0.2
			c0.3,0.1,0.5,0.3,0.8,0.5l-0.3,0.2v-0.2L23,34.8l-0.1-0.2l-0.1-0.2L22.3,34C22,33.7,21.7,33.5,21.4,33.2"/>
	</g>
	<g id="g5490">
		<path id="path5492" class="st4" d="M19.3,58.4L19,58.3c0.8-2.6,2.1-5.1,3.6-7.4l0.3,0.2C21.4,53.3,20.1,55.8,19.3,58.4"/>
	</g>
	<g id="g5494">
		<path id="path5496" class="st4" d="M33.8,36.8v-0.3l10.6-2.3v0.3L33.8,36.8"/>
	</g>
	<g id="g5498">
		<path id="path5500" d="M16.1,60.1L16.1,60.1v-0.5l0.1-0.3l0.1-0.2l0.1-0.2l0.5-0.2l0.3-0.2c0.1,0,0.2-0.1,0.3-0.2l-0.3,0.3L17,59
			l-0.3,0.2l-0.1,0.3l-0.3,0.3C16.2,59.9,16.2,60,16.1,60.1"/>
	</g>
</g>
</svg>
