<svg xmlns="http://www.w3.org/2000/svg" viewBox="0 0 743.96 641.64"><defs><style>.cls-1{fill:#bfa161;}.cls-1,.cls-2{fill-rule:evenodd;}.cls-2,.cls-3{fill:#1f1917;}.cls-4{font-size:63.66px;font-family:Georgia;letter-spacing:0.01em;}</style></defs><g id="Layer_2" data-name="Layer 2"><g id="Layer_1-2" data-name="Layer 1"><path class="cls-1" d="M448.14,218.84a29.94,29.94,0,0,1-29,3.08,13.74,13.74,0,0,1-4.68-3.38c-1.94-2.32-51-55.11-51-55.11l-.15-.16c15.16,2.62,31.76-4.3,40.31-16.93,8.54-12,8.23-29.09.16-41.1-9.67-13.08-28.54-17.39-44.34-15.39-27.41,3.69-47.09,26.94-53.21,51.26-6.29,27.7-1.77,53.87,8.07,78.5a66.78,66.78,0,0,0,9,15.24c-28.86-12-54.34-34.17-67.72-63.88-14.83-32-14.51-72.5,3.07-105,13.86-25.09,38.37-48.33,68.68-58.18C359.13-4.66,401.87-2,432.83,14.58c37.56,17.85,65.94,62.35,66.1,102.06,1.29,41.09-17.74,78.34-50.79,102.2"/><path class="cls-1" d="M342.69,234.39c-14-14.47-25.32-33.25-16.77-52.8,7.58-14.93,14.35-30.17,17.58-47.41,1.29,18,12.74,34,18.21,51.26,2.1,8.31,2.26,16.93-1.12,25.55-3.71,9.39-9.68,17.39-16.77,24.63Z"/><path class="cls-2" d="M135.12,397.05H97.78q-12.42-18.58-22.46-32.11Q64.78,350.74,53.59,337H39.41v42a14.64,14.64,0,0,0,1.07,5.73c.7,1.62,2.24,2.9,4.61,3.76a29,29,0,0,0,6.14,1.21q4.4.57,7.44.67v6.62H0v-6.62c1.57-.14,3.84-.35,6.81-.67A22.94,22.94,0,0,0,13,388.55,8.17,8.17,0,0,0,17.25,385a11.75,11.75,0,0,0,1.34-5.95V283.29a15.36,15.36,0,0,0-1-5.8c-.62-1.69-2.16-3-4.56-3.82a41.45,41.45,0,0,0-6.38-1.53,61.59,61.59,0,0,0-6.64-.9v-6.62H64a76.2,76.2,0,0,1,16.52,1.72,46.09,46.09,0,0,1,14,5.54,28.7,28.7,0,0,1,9.68,9.76,27.69,27.69,0,0,1,3.64,14.52,35,35,0,0,1-2.47,13.54,28.3,28.3,0,0,1-7.21,10.16,43,43,0,0,1-10.58,6.95,81.89,81.89,0,0,1-13.58,5q8.61,10.86,17,21.85c4.54,5.89,10.07,13.09,16.68,21.53a44.36,44.36,0,0,0,7.78,8.29,41.54,41.54,0,0,0,6.88,4.33,24.8,24.8,0,0,0,6.37,1.88,51.2,51.2,0,0,0,6.34.73ZM83.7,298.29c0-8-2.41-14.36-7.24-19.07s-11.65-7-20.43-7H39.41V329H52.23c9,0,16.49-2.74,22.45-8.26s9-13,9-22.46Zm139.88,77.1A47.86,47.86,0,0,1,207.37,393,42.28,42.28,0,0,1,184,399.47a49.32,49.32,0,0,1-20.39-3.92,39.4,39.4,0,0,1-14.42-10.63,44.76,44.76,0,0,1-8.47-15.68A64.1,64.1,0,0,1,138,350.29a54.36,54.36,0,0,1,3-17.59,48.88,48.88,0,0,1,8.79-15.55,42.12,42.12,0,0,1,13.81-10.67A41.36,41.36,0,0,1,182,302.41q10.56,0,18.09,3.18a31.59,31.59,0,0,1,12.21,8.67,34.59,34.59,0,0,1,6.71,12.33,51.7,51.7,0,0,1,2.2,15.38v6.18H157.41a69,69,0,0,0,1.8,16.4,38.16,38.16,0,0,0,5.74,13,27,27,0,0,0,10,8.54,32.41,32.41,0,0,0,14.68,3.12,28.14,28.14,0,0,0,15-3.89c4.18-2.58,8.25-7.23,12.15-14ZM202,340.31a70.63,70.63,0,0,0-.93-11.21,34,34,0,0,0-3-10,19.48,19.48,0,0,0-6.18-7c-2.59-1.81-6-2.7-10.07-2.7a21.28,21.28,0,0,0-17.06,8.15q-6.79,8.18-7.37,22.74Zm76.09,56.74h-45.4v-5.93l4.65-.43a20.75,20.75,0,0,0,4.06-.68,6.78,6.78,0,0,0,4-2.83,9.33,9.33,0,0,0,1.33-5.26l-1.48-98.28a36.53,36.53,0,0,0-1.14-6.52,6.38,6.38,0,0,0-.86-2.12,7.07,7.07,0,0,0-.83-1c-1.63-1.39.4.54-1.13-.75-1-.85.42-.32-2.6-.92s-8,.74-9.83.61l-.17-6.47,33.86-1.77L264.1,266l.13,114.85a9.85,9.85,0,0,0,1.22,5.17,7.73,7.73,0,0,0,4,3.11,22.79,22.79,0,0,0,4.09,1.35,31.93,31.93,0,0,0,4.58.65Zm58.33,0H290.19V391l4.6-.37a17.86,17.86,0,0,0,4.1-.76,6.8,6.8,0,0,0,4-2.91,10.13,10.13,0,0,0,1.33-5.4V325.15a10.84,10.84,0,0,0-1.43-5.43,11.86,11.86,0,0,0-3.94-4.1,17.21,17.21,0,0,0-5.32-1.9,39.47,39.47,0,0,0-6.39-1v-6l33.75-2.05,1.36,1.29V380.4a10.28,10.28,0,0,0,1.29,5.38,7.7,7.7,0,0,0,4.14,3.12,33.54,33.54,0,0,0,4.16,1.36,29,29,0,0,0,4.53.69Zm-12.2-128.34a13,13,0,0,1-3.64,9.19,11.73,11.73,0,0,1-9,4,11.56,11.56,0,0,1-8.57-3.76,12,12,0,0,1-3.64-8.56,12.41,12.41,0,0,1,3.64-8.88,11.48,11.48,0,0,1,8.57-3.79,12.15,12.15,0,0,1,9.06,3.54,11.52,11.52,0,0,1,3.55,8.31ZM439.52,395.36c-3.07,1.05-5.74,1.91-8,2.58a29.61,29.61,0,0,1-7.87,1c-5.11,0-9.14-1.15-12.18-3.41a15.59,15.59,0,0,1-5.81-9.94H405a47.58,47.58,0,0,1-13.65,10.26q-7.26,3.54-17.52,3.54Q363,399.38,356,393t-7-16.6a27.34,27.34,0,0,1,1.57-9.52,23.08,23.08,0,0,1,4.7-7.58,23.75,23.75,0,0,1,6.45-5,56.07,56.07,0,0,1,7.54-3.5c2.93-1.05,8.87-3,17.82-5.9s15-5.09,18.15-6.71V329a35.15,35.15,0,0,0-.54-4.65,19.06,19.06,0,0,0-2.3-6.54,18.14,18.14,0,0,0-5.54-6c-2.36-1.73-5.74-2.59-10.11-2.59a23,23,0,0,0-8.34,1.47,15.33,15.33,0,0,0-5.44,3,23.65,23.65,0,0,0,.94,5.5,27.22,27.22,0,0,1,.93,6.73,7.94,7.94,0,0,1-3.07,5.95c-2.07,1.82-4.9,2.72-8.58,2.72-3.23,0-5.63-1.12-7.17-3.32a12.64,12.64,0,0,1-2.3-7.42,13,13,0,0,1,3.17-8.22,31.19,31.19,0,0,1,8.28-7,46.53,46.53,0,0,1,10.64-4.46A43.64,43.64,0,0,1,388,302.41a85.94,85.94,0,0,1,14.35,1.08,26.74,26.74,0,0,1,11.08,4.62,21.56,21.56,0,0,1,7.58,9.36q2.6,5.94,2.6,15.26,0,13.38-.31,23.67T423,379a9.52,9.52,0,0,0,10,10.35c2.13.06,4.3.1,6.5.1Zm-34.1-49.28q-8.31,2.34-14.58,4.59a58.5,58.5,0,0,0-11.61,5.6,25.82,25.82,0,0,0-7.75,7.52,18.47,18.47,0,0,0-2.84,10.29c0,5.17,1.44,9,4.28,11.4a16,16,0,0,0,10.77,3.64,23.18,23.18,0,0,0,12.25-3.22,34.52,34.52,0,0,0,8.88-7.61Zm150.13,51H508.34v-6.14c1.5-.13,3.16-.26,4.93-.38a19.7,19.7,0,0,0,4.48-.77,6.94,6.94,0,0,0,4-2.93,10,10,0,0,0,1.33-5.45V334c0-6.53-1.64-11.56-4.84-15.1a15.42,15.42,0,0,0-11.78-5.32,28.23,28.23,0,0,0-9.51,1.53,33.8,33.8,0,0,0-7.61,3.79,21.44,21.44,0,0,0-5.14,4.62,41.56,41.56,0,0,0-2.77,3.95v52.94a9.05,9.05,0,0,0,1.37,5.23,8.58,8.58,0,0,0,4.11,3.16,19.52,19.52,0,0,0,4.43,1.4,43.22,43.22,0,0,0,4.94.67v6.14H449.1v-6.14c1.5-.13,3-.26,4.64-.38a19.15,19.15,0,0,0,4.17-.77,6.91,6.91,0,0,0,4-2.93,9.85,9.85,0,0,0,1.34-5.45V324.55a11.8,11.8,0,0,0-1.44-5.83,11.64,11.64,0,0,0-3.94-4.36,14,14,0,0,0-4.41-1.63A40.11,40.11,0,0,0,448,312v-6l32.07-2.07,1.37,1.3v13h.47c1.57-1.47,3.54-3.28,5.87-5.35a52,52,0,0,1,6.64-5.1,36.31,36.31,0,0,1,8.61-3.73,39.48,39.48,0,0,1,11.25-1.5c9.24,0,16.11,2.77,20.59,8.25s6.67,12.85,6.67,22v47.89a10.23,10.23,0,0,0,1.21,5.29,7.45,7.45,0,0,0,4,3.12,25.59,25.59,0,0,0,4,1.3,33.07,33.07,0,0,0,4.74.58ZM612,399.47q-20.91,0-32.76-13.25T567.4,350.67a51.62,51.62,0,0,1,3.17-18.16,50.39,50.39,0,0,1,9.25-15.36,43.12,43.12,0,0,1,14.48-10.67,44.09,44.09,0,0,1,19-4.07c9.45,0,17.16,2.16,23.06,6.49a20.73,20.73,0,0,1,8.91,17.69,14.67,14.67,0,0,1-2.34,8.25c-1.56,2.41-4.14,3.6-7.74,3.6-3.84,0-6.81-.93-8.94-2.81a8.23,8.23,0,0,1-3.17-6.24,34.35,34.35,0,0,1,1.17-8.64,42.9,42.9,0,0,0,1.36-6.49,8.49,8.49,0,0,0-5.23-3.86,26.74,26.74,0,0,0-7.48-1,21.86,21.86,0,0,0-8.94,1.91,22.93,22.93,0,0,0-8.25,7.05A36.92,36.92,0,0,0,589.79,331a70.25,70.25,0,0,0-2.27,18.93q0,17.38,8.08,28.34c5.37,7.3,12.45,11,21.16,11q9.51,0,15.92-4.4c4.23-2.93,8.2-7.3,11.84-13.16l6.27,3.92a49.1,49.1,0,0,1-17,17.46A41.32,41.32,0,0,1,612,399.47Zm132-24.08A47.86,47.86,0,0,1,727.75,393a42.28,42.28,0,0,1-23.36,6.52A49.32,49.32,0,0,1,684,395.55a39.4,39.4,0,0,1-14.42-10.63,44.92,44.92,0,0,1-8.47-15.68,64.1,64.1,0,0,1-2.78-18.95,53.85,53.85,0,0,1,3-17.59,48.94,48.94,0,0,1,8.77-15.55,42.26,42.26,0,0,1,13.82-10.67,41.39,41.39,0,0,1,18.52-4.07c7,0,13.08,1,18.08,3.18a31.56,31.56,0,0,1,12.22,8.67,34.42,34.42,0,0,1,6.7,12.33A51.37,51.37,0,0,1,741.63,342v6.18H677.79a69,69,0,0,0,1.8,16.4,38.16,38.16,0,0,0,5.74,13,27.06,27.06,0,0,0,9.94,8.54A32.48,32.48,0,0,0,710,389.22a28.18,28.18,0,0,0,15-3.89c4.17-2.58,8.24-7.23,12.15-14Zm-21.59-35.08a71.83,71.83,0,0,0-.93-11.21,33.7,33.7,0,0,0-3-10,19.45,19.45,0,0,0-6.17-7,17.31,17.31,0,0,0-10.08-2.7,21.24,21.24,0,0,0-17.05,8.15c-4.55,5.45-7,13-7.38,22.74Z"/><path class="cls-3" d="M27.2,513.74H0V511c.77-.07,1.87-.14,3.32-.24a13.08,13.08,0,0,0,3.06-.46,4.3,4.3,0,0,0,2-1.37,4,4,0,0,0,.63-2.4V467a4.77,4.77,0,0,0-.47-2.25,3.83,3.83,0,0,0-2.2-1.52,27.76,27.76,0,0,0-3.21-.87A25.76,25.76,0,0,0,0,461.89v-2.73H27.2v2.73a27.84,27.84,0,0,0-3.15.29,23.68,23.68,0,0,0-3.19.63,3.32,3.32,0,0,0-2.16,1.5,4.71,4.71,0,0,0-.55,2.3v39.51a4.17,4.17,0,0,0,.61,2.25,4.09,4.09,0,0,0,2.1,1.56,20.32,20.32,0,0,0,2.91.67,21.55,21.55,0,0,0,3.43.4Zm54.79,0H61.48V511.2l2.14-.16a9.15,9.15,0,0,0,1.95-.31,2.94,2.94,0,0,0,1.75-1.21,3.92,3.92,0,0,0,.59-2.24V487.76a8.63,8.63,0,0,0-2.11-6.21,6.85,6.85,0,0,0-5.11-2.2,12.85,12.85,0,0,0-4.14.63,15.13,15.13,0,0,0-3.31,1.57,8.84,8.84,0,0,0-2.22,1.9,15.86,15.86,0,0,0-1.21,1.62v21.82a3.36,3.36,0,0,0,2.38,3.46,8.77,8.77,0,0,0,1.92.58,21,21,0,0,0,2.15.27v2.54H35.75V511.2l2-.16a8.7,8.7,0,0,0,1.81-.31,2.91,2.91,0,0,0,1.75-1.21,3.85,3.85,0,0,0,.59-2.24V483.85a4.68,4.68,0,0,0-.63-2.4,4.89,4.89,0,0,0-1.71-1.79,6.22,6.22,0,0,0-1.91-.68,20.94,20.94,0,0,0-2.38-.29V476.2l13.93-.85.6.53v5.35H50c.68-.6,1.54-1.35,2.55-2.21a23.55,23.55,0,0,1,2.89-2.1,15.82,15.82,0,0,1,3.74-1.53,17.93,17.93,0,0,1,4.89-.62c4,0,7,1.14,8.94,3.4s2.9,5.29,2.9,9.06V507a4.09,4.09,0,0,0,.52,2.18,3.28,3.28,0,0,0,1.74,1.29,11,11,0,0,0,1.76.53,13.62,13.62,0,0,0,2,.24Zm53.13-.7-14.61.85-.64-.54v-3.54l-.34-.07a17.54,17.54,0,0,1-5.47,3.66,16.4,16.4,0,0,1-6.68,1.42,17,17,0,0,1-6.9-1.45,17.29,17.29,0,0,1-5.8-4.06,19.63,19.63,0,0,1-4-6.37,22.37,22.37,0,0,1-1.47-8.24,19.78,19.78,0,0,1,1.57-7.81,20.46,20.46,0,0,1,4.34-6.46,19.16,19.16,0,0,1,6.35-4.12,20,20,0,0,1,7.67-1.53,24.69,24.69,0,0,1,5.75.67,21.48,21.48,0,0,1,4.86,1.72V464a6.87,6.87,0,0,0-.6-2.94,4.41,4.41,0,0,0-1.65-2,9,9,0,0,0-3.2-1.07c-1.45-.22-2.9-.37-4.36-.47v-2.39l17.12-.88.63.58v51.15a4.29,4.29,0,0,0,.58,2.3,4.67,4.67,0,0,0,1.68,1.58,5.35,5.35,0,0,0,2.34.58c1,.08,1.94.13,2.8.16v2.5Zm-15.34-6.66V484.2a9.16,9.16,0,0,0-1.1-2.16,10.13,10.13,0,0,0-1.92-2.11,10.61,10.61,0,0,0-2.89-1.6,10.79,10.79,0,0,0-3.85-.63,9.41,9.41,0,0,0-4.7,1.19,12,12,0,0,0-3.79,3.42,16.37,16.37,0,0,0-2.5,5.48,27.75,27.75,0,0,0-.91,7.37A23.71,23.71,0,0,0,98.8,501a14.4,14.4,0,0,0,2.29,4.89,11.21,11.21,0,0,0,3.81,3.47,11,11,0,0,0,5.5,1.32,10.68,10.68,0,0,0,5.62-1.36,17.16,17.16,0,0,0,3.76-3M186.19,513l-13.64.85-.64-.54v-4.81h-.24c-.68.64-1.45,1.33-2.31,2.06a15.23,15.23,0,0,1-2.93,2,19.72,19.72,0,0,1-3.69,1.58,18.45,18.45,0,0,1-5.05.53c-3.72,0-6.54-1.09-8.48-3.27s-2.9-5.39-2.9-9.57V483.7a4.42,4.42,0,0,0-.58-2.33,5.07,5.07,0,0,0-1.68-1.64,5.89,5.89,0,0,0-1.9-.66,19.75,19.75,0,0,0-2.42-.3v-2.5l14-.92.64.53v26.35c0,2.75.68,4.81,2,6.2a6.63,6.63,0,0,0,4.89,2.08,12.12,12.12,0,0,0,4.15-.67,11.81,11.81,0,0,0,3.06-1.53,13.83,13.83,0,0,0,2-1.7,9.21,9.21,0,0,0,1.33-1.68V483.42a4.1,4.1,0,0,0-.59-2.24,5.07,5.07,0,0,0-1.65-1.67,5,5,0,0,0-2.28-.57l-3.38-.17v-2.51l15.21-.91.64.53V506a4.2,4.2,0,0,0,.59,2.24,5.37,5.37,0,0,0,1.67,1.57,5.14,5.14,0,0,0,1.81.57c.72.07,1.5.14,2.35.16Zm34.89-17.88a9.88,9.88,0,0,1,2.68,3.19,9.6,9.6,0,0,1,.92,4.42,10.4,10.4,0,0,1-4.34,8.62c-2.9,2.23-6.67,3.34-11.28,3.34a18.31,18.31,0,0,1-6.73-1.19,19.1,19.1,0,0,1-4.41-2.19l-.84,2.5h-3.19l-.42-13.19h2.93a13.61,13.61,0,0,0,1.45,3.49,16.2,16.2,0,0,0,2.67,3.63,15,15,0,0,0,4,2.84,11.52,11.52,0,0,0,5.2,1.16,10.33,10.33,0,0,0,6.3-1.68,5.67,5.67,0,0,0,2.19-4.8,5.41,5.41,0,0,0-.68-2.78,6.67,6.67,0,0,0-2.07-2.06,17.14,17.14,0,0,0-3.45-1.59c-1.36-.47-2.86-.94-4.53-1.4A45.36,45.36,0,0,1,203,496a17.54,17.54,0,0,1-4.19-2.21,11.21,11.21,0,0,1-3.06-3.3,8.68,8.68,0,0,1-1.18-4.62A10,10,0,0,1,198.4,478q3.82-3.24,10.24-3.23a23.33,23.33,0,0,1,5,.58,19.69,19.69,0,0,1,4.19,1.39l1-2h3.06l.64,12.2H219.6a11.91,11.91,0,0,0-3.86-6.63,10.56,10.56,0,0,0-7.19-2.56,8.68,8.68,0,0,0-5.49,1.57,4.73,4.73,0,0,0-2,3.81,5.67,5.67,0,0,0,.67,2.89,5.45,5.45,0,0,0,2,1.95,16.71,16.71,0,0,0,3.2,1.45c1.29.45,2.89.95,4.79,1.52a44.62,44.62,0,0,1,5.27,1.88,17.67,17.67,0,0,1,4.11,2.39M259,512.08c-1.85.7-3.59,1.27-5.22,1.75a22.28,22.28,0,0,1-6,.72c-3.51,0-6-.81-7.41-2.42s-2.15-3.86-2.15-6.78V479.66h-7.57V476h7.73v-11.8h7.74V476h12v3.7H246.16v21.2a33.66,33.66,0,0,0,.2,4,6.48,6.48,0,0,0,.91,2.78,4.17,4.17,0,0,0,2,1.69,9.66,9.66,0,0,0,3.66.58c.71,0,1.75-.05,3.11-.17a14.54,14.54,0,0,0,2.92-.45Zm38.33-31.39a6,6,0,0,1-1.06,3.49,3.7,3.7,0,0,1-3.27,1.51,5.24,5.24,0,0,1-3.63-1.11,3.26,3.26,0,0,1-1.26-2.46,7.85,7.85,0,0,1,.15-1.53c.1-.47.2-.93.27-1.4a10.15,10.15,0,0,0-4.67,1.46,13.31,13.31,0,0,0-4.54,4.16v22.08a3.83,3.83,0,0,0,.57,2.19,3.5,3.5,0,0,0,1.81,1.27,12.24,12.24,0,0,0,2.74.58c1.12.12,2.09.22,2.9.27v2.54H265.25V511.2l2-.16a8.81,8.81,0,0,0,1.82-.31,3,3,0,0,0,1.75-1.21,3.92,3.92,0,0,0,.58-2.24V483.85a5,5,0,0,0-.62-2.35,4.76,4.76,0,0,0-1.72-1.84,6.14,6.14,0,0,0-1.91-.68,21.29,21.29,0,0,0-2.37-.29V476.2l13.93-.85.59.53v5.35h.2a18.61,18.61,0,0,1,5.88-4.73,13.4,13.4,0,0,1,5.9-1.61,6.1,6.1,0,0,1,4.35,1.57,5.57,5.57,0,0,1,1.68,4.23m26,33.05H303.07V511.2l2-.16a8.26,8.26,0,0,0,1.8-.31,2.9,2.9,0,0,0,1.77-1.21,4,4,0,0,0,.58-2.24V483.85a4.28,4.28,0,0,0-.62-2.25,5,5,0,0,0-1.73-1.71,7.81,7.81,0,0,0-2.33-.79,18.9,18.9,0,0,0-2.8-.41V476.2l14.79-.85.6.53v30.94a4.14,4.14,0,0,0,.56,2.23,3.39,3.39,0,0,0,1.81,1.3,14.55,14.55,0,0,0,1.83.56,13.36,13.36,0,0,0,2,.29ZM318,460.39a5.45,5.45,0,0,1-9.28,3.9,4.85,4.85,0,0,1-1.59-3.56,5,5,0,0,1,1.59-3.68,5.14,5.14,0,0,1,3.75-1.58,5.49,5.49,0,0,1,4,1.47,4.64,4.64,0,0,1,1.56,3.45m49.79,44.42a20,20,0,0,1-7,7.23,19.08,19.08,0,0,1-10.15,2.69,22.49,22.49,0,0,1-8.86-1.61,17.15,17.15,0,0,1-6.26-4.39,18.24,18.24,0,0,1-3.68-6.46,25.22,25.22,0,0,1-1.21-7.8,21.46,21.46,0,0,1,1.29-7.26,19.84,19.84,0,0,1,3.82-6.4,18.31,18.31,0,0,1,6-4.4,18.77,18.77,0,0,1,8.05-1.68,21,21,0,0,1,7.86,1.31,13.52,13.52,0,0,1,8.22,8.66,20.25,20.25,0,0,1,.95,6.34v2.54H339a27.25,27.25,0,0,0,.78,6.77,15.32,15.32,0,0,0,2.49,5.35,11.54,11.54,0,0,0,4.32,3.52,14.77,14.77,0,0,0,6.39,1.29,12.68,12.68,0,0,0,6.52-1.61,16.44,16.44,0,0,0,5.28-5.75Zm-9.38-14.46a27.4,27.4,0,0,0-.4-4.62,13.26,13.26,0,0,0-1.29-4.11,8.07,8.07,0,0,0-2.68-2.89,7.88,7.88,0,0,0-4.38-1.11,9.42,9.42,0,0,0-7.41,3.36q-3,3.36-3.2,9.37Zm44,4.81a9.75,9.75,0,0,1,2.68,3.19,9.47,9.47,0,0,1,.93,4.42,10.41,10.41,0,0,1-4.35,8.62c-2.9,2.23-6.67,3.34-11.28,3.34a18.38,18.38,0,0,1-6.73-1.19,19,19,0,0,1-4.4-2.19l-.84,2.5h-3.19l-.42-13.19h2.92a13.68,13.68,0,0,0,1.46,3.49,16.16,16.16,0,0,0,2.66,3.63,15.17,15.17,0,0,0,4,2.84,11.53,11.53,0,0,0,5.21,1.16,10.3,10.3,0,0,0,6.29-1.68,5.65,5.65,0,0,0,2.21-4.8,5.44,5.44,0,0,0-.7-2.78,6.64,6.64,0,0,0-2.06-2.06,17.67,17.67,0,0,0-3.45-1.59c-1.36-.47-2.87-.94-4.54-1.4a46.08,46.08,0,0,1-4.43-1.49,17.62,17.62,0,0,1-4.2-2.21,11.05,11.05,0,0,1-3.05-3.3,8.69,8.69,0,0,1-1.2-4.62,10,10,0,0,1,3.83-7.89c2.56-2.16,6-3.23,10.24-3.23a23.19,23.19,0,0,1,5,.58,19.5,19.5,0,0,1,4.19,1.39l1-2h3.06l.64,12.2h-2.93a11.91,11.91,0,0,0-3.86-6.63,10.53,10.53,0,0,0-7.18-2.56,8.64,8.64,0,0,0-5.49,1.57,4.73,4.73,0,0,0-2,3.81A5.67,5.67,0,0,0,383,486a5.42,5.42,0,0,0,2,1.95,17,17,0,0,0,3.2,1.45c1.29.45,2.89.95,4.79,1.52a45.44,45.44,0,0,1,5.28,1.88,17.38,17.38,0,0,1,4.1,2.39m80.42,2.35-1.27,16.23H434.41V511c.68-.06,1.67-.14,3-.27a10.49,10.49,0,0,0,2.7-.5,3.52,3.52,0,0,0,1.84-1.46,4.63,4.63,0,0,0,.57-2.45V467.24a5,5,0,0,0-.49-2.31,3.45,3.45,0,0,0-1.92-1.62,20.09,20.09,0,0,0-5.65-1.42v-2.73h25.44v2.73a20.74,20.74,0,0,0-3.07.38,25.86,25.86,0,0,0-2.74.62,3,3,0,0,0-2,1.58,5.48,5.48,0,0,0-.52,2.38v36.66a21.21,21.21,0,0,0,.27,3.94,3.53,3.53,0,0,0,1.29,2.18,6.22,6.22,0,0,0,2.92.89,53.13,53.13,0,0,0,5.41.21c1.05,0,2.14,0,3.27-.06a32,32,0,0,0,3.24-.32,18.3,18.3,0,0,0,2.73-.63,4.4,4.4,0,0,0,1.84-1,34.7,34.7,0,0,0,4.06-5.36,36.87,36.87,0,0,0,3.21-5.83Zm25.46,16.23H488V511.2l2-.16a8.38,8.38,0,0,0,1.79-.31,3,3,0,0,0,1.77-1.21,4,4,0,0,0,.58-2.24V483.85a4.28,4.28,0,0,0-.62-2.25,5,5,0,0,0-1.73-1.71,7.92,7.92,0,0,0-2.33-.79,19.1,19.1,0,0,0-2.8-.41V476.2l14.79-.85.59.53v30.94a4.06,4.06,0,0,0,.57,2.23,3.32,3.32,0,0,0,1.81,1.3,13.94,13.94,0,0,0,1.82.56,13.56,13.56,0,0,0,2,.29Zm-5.35-53.35a5.45,5.45,0,0,1-9.28,3.9,4.89,4.89,0,0,1-1.59-3.56,5,5,0,0,1,1.59-3.68,5.16,5.16,0,0,1,3.76-1.58,5.52,5.52,0,0,1,4,1.47,4.67,4.67,0,0,1,1.55,3.45m84.34,53.35H566.81V511.2l2-.16a8.53,8.53,0,0,0,1.77-.31,2.94,2.94,0,0,0,1.76-1.21,4,4,0,0,0,.58-2.24V487.7a8.76,8.76,0,0,0-2-6.19,6.62,6.62,0,0,0-5-2.16,13,13,0,0,0-3.91.58,12.41,12.41,0,0,0-3.36,1.61,10.45,10.45,0,0,0-2.05,1.82,16.24,16.24,0,0,0-1.27,1.65v21.88a4.41,4.41,0,0,0,.51,2.21,3.2,3.2,0,0,0,1.75,1.32,12.91,12.91,0,0,0,1.76.53,14.09,14.09,0,0,0,2.06.25v2.54h-20V511.2l1.9-.16a8.26,8.26,0,0,0,1.67-.31,3.07,3.07,0,0,0,1.77-1.21,4.11,4.11,0,0,0,.56-2.24V487.7a8.76,8.76,0,0,0-2-6.19,6.57,6.57,0,0,0-5-2.16,12.71,12.71,0,0,0-3.91.59,13.61,13.61,0,0,0-3.36,1.64,9.46,9.46,0,0,0-2.07,1.9c-.56.71-1,1.24-1.28,1.59v21.74a3.77,3.77,0,0,0,.6,2.2,3.58,3.58,0,0,0,1.79,1.34,8.94,8.94,0,0,0,1.82.57,15,15,0,0,0,2.08.28v2.54H515.5V511.2l2-.16a8.93,8.93,0,0,0,1.82-.31,3,3,0,0,0,1.75-1.21,3.94,3.94,0,0,0,.58-2.24V483.69a4.16,4.16,0,0,0-.62-2.22,5.64,5.64,0,0,0-1.71-1.66,8,8,0,0,0-2-.75,13.53,13.53,0,0,0-2.46-.37v-2.5l14-.84.59.53v5.43h.29c.71-.65,1.58-1.4,2.6-2.28a24.85,24.85,0,0,1,2.84-2.11,14.25,14.25,0,0,1,3.73-1.54,18.18,18.18,0,0,1,4.81-.61,12.32,12.32,0,0,1,7,2,11.82,11.82,0,0,1,4.21,4.79c1-.9,1.91-1.69,2.69-2.36a22.57,22.57,0,0,1,3.07-2.18,14.81,14.81,0,0,1,3.8-1.62,18.22,18.22,0,0,1,4.87-.61,11.27,11.27,0,0,1,8.41,3.15c2.06,2.11,3.11,5.34,3.11,9.7v19.27a4.21,4.21,0,0,0,.5,2.21,3.1,3.1,0,0,0,1.74,1.32,11.14,11.14,0,0,0,1.93.53,20.27,20.27,0,0,0,2.15.25Zm27.32,0H594.31V511.2l2-.16a8.6,8.6,0,0,0,1.8-.31,2.94,2.94,0,0,0,1.76-1.21,4,4,0,0,0,.58-2.24V483.85a4.28,4.28,0,0,0-.62-2.25,5.11,5.11,0,0,0-1.72-1.71,8,8,0,0,0-2.34-.79,18.9,18.9,0,0,0-2.8-.41V476.2l14.79-.85.6.53v30.94a4.14,4.14,0,0,0,.56,2.23,3.39,3.39,0,0,0,1.81,1.3,14.07,14.07,0,0,0,1.83.56,13.61,13.61,0,0,0,2,.29Zm-5.34-53.35a5.45,5.45,0,0,1-9.28,3.9,4.85,4.85,0,0,1-1.59-3.56,5,5,0,0,1,1.59-3.68,5.15,5.15,0,0,1,3.75-1.58,5.53,5.53,0,0,1,4,1.47,4.67,4.67,0,0,1,1.55,3.45m38.46,51.69c-1.84.7-3.58,1.27-5.22,1.75a22.23,22.23,0,0,1-6,.72c-3.51,0-6-.81-7.41-2.42a9.83,9.83,0,0,1-2.14-6.78V479.66h-7.57V476H627v-11.8h7.75V476h12v3.7H634.85v21.2a33.66,33.66,0,0,0,.2,4,6.49,6.49,0,0,0,.92,2.78,4.19,4.19,0,0,0,2,1.69,9.73,9.73,0,0,0,3.66.58c.71,0,1.75-.05,3.12-.17a14.28,14.28,0,0,0,2.91-.45Zm43.47-7.27a20.18,20.18,0,0,1-7,7.23A19.08,19.08,0,0,1,674,514.73a22.45,22.45,0,0,1-8.86-1.61,17.07,17.07,0,0,1-6.26-4.39,18.09,18.09,0,0,1-3.69-6.46,25.51,25.51,0,0,1-1.2-7.8,21.46,21.46,0,0,1,1.29-7.26,20,20,0,0,1,3.82-6.4,18.21,18.21,0,0,1,6-4.4,18.72,18.72,0,0,1,8-1.68A21,21,0,0,1,681,476a13.67,13.67,0,0,1,5.31,3.57,13.88,13.88,0,0,1,2.91,5.09,20.25,20.25,0,0,1,1,6.34v2.54H662.39a27.23,27.23,0,0,0,.79,6.77,15.32,15.32,0,0,0,2.49,5.35,11.46,11.46,0,0,0,4.32,3.52,14.73,14.73,0,0,0,6.38,1.29,12.72,12.72,0,0,0,6.53-1.61,16.33,16.33,0,0,0,5.27-5.75Zm-9.39-14.46a27.4,27.4,0,0,0-.4-4.62,13.26,13.26,0,0,0-1.29-4.11,8.25,8.25,0,0,0-2.68-2.89,7.88,7.88,0,0,0-4.38-1.11A9.41,9.41,0,0,0,665.6,481c-2,2.24-3,5.37-3.21,9.37ZM744,513l-14.61.85-.64-.54v-3.54l-.33-.07a17.54,17.54,0,0,1-5.47,3.66,16.44,16.44,0,0,1-6.68,1.42,17.58,17.58,0,0,1-12.7-5.51,19.49,19.49,0,0,1-4-6.37,22.57,22.57,0,0,1-1.46-8.24,19.74,19.74,0,0,1,1.57-7.81,20.6,20.6,0,0,1,4.33-6.46,19.26,19.26,0,0,1,6.35-4.12,20,20,0,0,1,7.67-1.53,24.72,24.72,0,0,1,5.76.67,21.38,21.38,0,0,1,4.85,1.72V464A7,7,0,0,0,728,461a4.45,4.45,0,0,0-1.65-2,9.07,9.07,0,0,0-3.21-1.07c-1.44-.22-2.89-.37-4.35-.47v-2.39l17.11-.88.64.58v51.15a4.21,4.21,0,0,0,.58,2.3,4.69,4.69,0,0,0,1.68,1.59,5.43,5.43,0,0,0,2.34.57c1,.08,1.94.13,2.79.16v2.5Zm-15.34-6.66V484.2a8.82,8.82,0,0,0-1.1-2.16,9.82,9.82,0,0,0-1.91-2.11,10.54,10.54,0,0,0-6.75-2.23,9.37,9.37,0,0,0-4.69,1.19,11.9,11.9,0,0,0-3.8,3.42,16.36,16.36,0,0,0-2.49,5.48,27.74,27.74,0,0,0-.92,7.37,23.71,23.71,0,0,0,.68,5.87,14.59,14.59,0,0,0,2.29,4.89,11.25,11.25,0,0,0,3.82,3.47,10.94,10.94,0,0,0,5.49,1.32,10.72,10.72,0,0,0,5.63-1.36,17.1,17.1,0,0,0,3.75-3"/><text class="cls-4" transform="translate(165.3 622.34) scale(1.01 1)">Growth is Life</text><rect x="11.49" y="544.33" width="720.99" height="2.67"/></g></g></svg>