<?xml version="1.0" encoding="UTF-8"?>
<!DOCTYPE svg PUBLIC "-//W3C//DTD SVG 1.1//EN" "http://www.w3.org/Graphics/SVG/1.1/DTD/svg11.dtd">
<!-- Creator: CorelDRAW 2021 (64-Bit) -->
<svg xmlns="http://www.w3.org/2000/svg" xml:space="preserve" width="3.5in" height="1.43958in" version="1.1" style="shape-rendering:geometricPrecision; text-rendering:geometricPrecision; image-rendering:optimizeQuality; fill-rule:evenodd; clip-rule:evenodd"
viewBox="0 0 3494.39 1437.27"
 xmlns:xlink="http://www.w3.org/1999/xlink"
 xmlns:xodm="http://www.corel.com/coreldraw/odm/2003">
 <defs>
  <style type="text/css">
   <![CDATA[
    .fil1 {fill:#213A71}
    .fil0 {fill:#EC2F26}
   ]]>
  </style>
 </defs>
 <g id="Layer_x0020_1">
  <metadata id="CorelCorpID_0Corel-Layer"/>
  <g id="_2343025709824">
   <path class="fil0" d="M1383.43 838.44c-47.75,-51.88 -86.15,-119.35 -57.07,-188.88 25.93,-53.96 48.77,-107.94 59.15,-169.17 4.15,64.35 42.55,121.42 62.27,183.69 7.26,30.11 7.26,60.19 -4.15,91.33 -12.45,33.21 -32.18,62.27 -57.08,88.22l-3.12 -5.19z"/>
   <path class="fil1" d="M1737.33 783.44c-30.09,21.8 -68.49,24.91 -98.6,10.38l-15.57 -11.41 -153.6 -197.2c50.85,9.35 88.21,-15.57 117.28,-61.22 29.06,-42.55 28.02,-103.79 0,-147.38 -32.18,-46.69 -96.53,-62.27 -150.49,-55.01 -93.41,13.49 -159.83,96.53 -180.59,182.66 -20.74,99.63 -6.22,193.03 26.99,281.25 7.28,18.69 17.64,38.4 31.14,55 -98.59,-42.54 -184.74,-122.46 -230.4,-228.31 -49.82,-115.2 -48.78,-259.46 10.38,-375.69 46.7,-89.27 129.72,-173.32 232.47,-208.61 107.94,-44.63 252.19,-35.29 357.01,24.9 127.65,64.35 224.18,223.14 224.18,365.32 6.22,146.33 -58.13,279.17 -170.21,365.31z"/>
   <path class="fil0" d="M1044.06 1427.93l0 -725.44c41.52,66.42 97.56,121.43 160.86,160.86l0 564.58 -160.86 0z"/>
   <path class="fil0" d="M193.03 873.73l-30.09 1.03 0 153.6 25.95 1.04c50.85,0 101.7,-21.8 101.7,-79.92 0,-48.77 -25.93,-75.75 -97.56,-75.75zm-30.09 320.69l0 233.51 -162.94 0 0 -690.15c68.5,-4.15 136.99,-5.19 205.49,-5.19 162.94,0 254.27,65.38 254.27,203.42 0,51.89 -16.61,97.56 -50.85,133.87 -26.98,29.07 -60.19,48.78 -99.63,60.19 14.52,19.72 25.94,35.29 35.28,47.75l177.47 250.11 -202.37 0 -156.72 -233.51z"/>
   <path class="fil0" d="M789.8 1047.05c-10.38,-12.46 -24.92,-19.72 -46.71,-19.72 -36.32,0 -60.19,23.88 -69.54,57.09l132.85 0c-3.12,-15.57 -8.31,-28.03 -16.6,-37.37zm172.27 144.25l-2.07 16.61 -292.68 0c5.19,65.39 40.48,94.44 112.09,94.44 60.19,0 101.7,-14.52 154.64,-39.44l16.61 137c-65.39,25.95 -121.43,37.37 -192,37.37 -168.14,0 -255.31,-91.33 -255.31,-264.64 0,-78.89 20.76,-144.27 64.35,-196.16 43.59,-52.93 103.78,-78.87 178.51,-78.87 70.58,0 127.65,22.83 167.09,69.53 35.3,42.55 52.93,97.56 52.93,163.97 0,21.8 -1.03,40.47 -4.15,60.19z"/>
   <polygon class="fil0" points="1305.59,909.02 1466.45,909.02 1466.45,1427.93 1305.59,1427.93 "/>
   <path class="fil0" d="M1805.83 1215.17c-93.41,3.12 -120.39,28.02 -120.39,57.09 0,21.8 8.31,32.18 37.37,32.18 22.83,0 42.55,-9.34 59.16,-30.11 14.52,-16.61 22.83,-36.33 23.87,-59.16zm10.38 174.36l-25.95 19.73c-31.13,18.67 -65.39,28.02 -103.79,28.02 -46.7,0 -85.1,-12.46 -114.15,-39.43 -28.03,-26.98 -41.52,-63.32 -41.52,-106.91 0,-63.3 30.09,-113.11 86.14,-147.37 48.78,-30.09 113.12,-44.63 189.92,-46.7l0 -7.27c0,-36.32 -18.67,-57.08 -73.68,-57.08 -63.31,0 -103.78,19.72 -156.72,49.82l-15.57 -148.41c64.35,-23.87 122.47,-36.32 190.97,-36.32 74.73,0 132.84,15.56 169.17,49.82 32.18,31.12 46.71,77.83 46.71,136.99l0 200.3c0,47.74 1.03,95.48 4.14,143.22l-155.67 0 0 -18.67 0 -19.73z"/>
   <path class="fil0" d="M2216.81 961.95c21.8,-41.52 73.68,-63.32 138.03,-63.32 106.9,0 160.86,61.24 160.86,173.32l0 355.98 -159.83 0 0 -326.92c0,-48.78 -15.57,-61.23 -39.43,-61.23 -22.83,0 -43.59,11.41 -63.3,38.4 -18.69,26.98 -29.07,59.16 -29.07,97.56l0 252.19 -160.86 0 0 -518.92 154.64 0 0 19.72 -1.04 33.21z"/>
   <path class="fil0" d="M2831.21 1436.23c-154.64,0 -234.55,-87.18 -234.55,-252.19 0,-81.99 20.75,-149.45 65.38,-201.33 47.74,-56.06 115.2,-83.04 200.31,-83.04 42.54,0 77.83,7.27 118.3,18.69l-17.64 147.37c-33.21,-12.46 -66.42,-24.91 -102.75,-24.91 -76.8,0 -97.55,63.32 -97.55,129.73 0,85.1 32.16,119.34 94.44,119.34 47.73,0 69.52,-10.37 110,-31.13l13.49 148.41c-49.81,20.76 -92.37,29.06 -149.44,29.06z"/>
   <path class="fil0" d="M3317.96 1047.05c-10.38,-12.46 -24.91,-19.72 -46.71,-19.72 -36.33,0 -60.2,23.88 -69.54,57.09l132.85 0c-3.12,-15.57 -8.31,-28.03 -16.6,-37.37zm172.28 144.25l-2.08 16.61 -292.68 0c5.19,65.39 40.48,94.44 112.1,94.44 60.19,0 101.7,-14.52 154.63,-39.44l16.6 137c-65.38,25.95 -121.42,37.37 -192,37.37 -168.14,0 -255.31,-91.33 -255.31,-264.64 0,-78.89 20.76,-144.27 64.35,-196.16 43.59,-52.93 103.79,-78.87 178.51,-78.87 70.58,0 127.65,22.83 167.09,69.53 35.29,42.55 52.93,97.56 52.93,163.97 0,21.8 -1.04,40.47 -4.15,60.19z"/>
  </g>
 </g>
</svg>
