<?xml version="1.0" encoding="UTF-8"?>
<!DOCTYPE svg PUBLIC "-//W3C//DTD SVG 1.1//EN" "http://www.w3.org/Graphics/SVG/1.1/DTD/svg11.dtd">
<!-- Creator: CorelDRAW 2021 (64-Bit) -->
<svg xmlns="http://www.w3.org/2000/svg" xml:space="preserve" width="3.5in" height="1.81076in" version="1.1" style="shape-rendering:geometricPrecision; text-rendering:geometricPrecision; image-rendering:optimizeQuality; fill-rule:evenodd; clip-rule:evenodd"
viewBox="0 0 3494.39 1807.86"
 xmlns:xlink="http://www.w3.org/1999/xlink"
 xmlns:xodm="http://www.corel.com/coreldraw/odm/2003">
 <defs>
  <style type="text/css">
   <![CDATA[
    .fil2 {fill:#243B72}
    .fil0 {fill:#E42A24;fill-rule:nonzero}
    .fil1 {fill:#243B72;fill-rule:nonzero}
   ]]>
  </style>
 </defs>
 <g id="Layer_x0020_1">
  <metadata id="CorelCorpID_0Corel-Layer"/>
  <g id="_2343941585168">
   <g>
    <g>
     <path class="fil0" d="M1383.43 838.45c-47.74,-51.89 -86.14,-119.35 -57.08,-188.89 25.95,-53.96 48.78,-107.93 59.16,-169.17 4.15,64.35 42.55,121.43 62.27,183.7 7.27,30.09 7.27,60.19 -4.15,91.33 -12.45,33.21 -32.17,62.27 -57.08,88.21l-3.11 -5.18zm0 0l0 0 0 0zm-339.37 589.49l0 -725.45c41.51,66.42 97.56,121.43 160.86,160.86l0 564.59 -160.87 0zm0 0l0 0 0 0zm-851.02 -554.21l-30.09 1.04 0 153.6 25.94 1.04c50.86,0 101.71,-21.8 101.71,-79.92 0,-48.78 -25.94,-75.76 -97.56,-75.76l0 0zm-30.1 320.69l0 233.52 -162.94 0 0 -690.16c68.5,-4.15 136.99,-5.19 205.49,-5.19 162.94,0 254.27,65.38 254.27,203.41 0,51.89 -16.6,97.56 -50.86,133.88 -26.98,29.06 -60.19,48.78 -99.63,60.19 14.53,19.72 25.95,35.29 35.29,47.74l177.47 250.12 -202.38 -0 -156.71 -233.52zm626.85 -147.37c-10.38,-12.45 -24.91,-19.72 -46.7,-19.72 -36.33,0 -60.19,23.87 -69.54,57.08l132.85 0c-3.11,-15.57 -8.3,-28.02 -16.61,-37.36l0 0zm172.28 144.26l-2.08 16.6 -292.67 0c5.19,65.38 40.47,94.44 112.09,94.44 60.19,0 101.71,-14.53 154.64,-39.44l16.6 136.99c-65.38,25.95 -121.43,37.36 -192,37.36 -168.13,0 -255.31,-91.33 -255.31,-264.65 0,-78.88 20.76,-144.26 64.35,-196.15 43.59,-52.93 103.78,-78.87 178.51,-78.87 70.57,0 127.65,22.83 167.09,69.53 35.29,42.55 52.93,97.56 52.93,163.98 0,21.79 -1.03,40.47 -4.15,60.19zm343.53 236.62l160.86 0 0 -518.92 -160.86 0 0 518.92zm500.23 -212.76c-93.41,3.11 -120.39,28.02 -120.39,57.08 0,21.8 8.31,32.18 37.36,32.18 22.83,0 42.55,-9.34 59.16,-30.1 14.53,-16.61 22.83,-36.33 23.87,-59.16l0 0zm10.38 174.36l-25.94 19.72c-31.14,18.68 -65.38,28.02 -103.79,28.02 -46.7,0 -85.1,-12.45 -114.16,-39.44 -28.02,-26.98 -41.51,-63.31 -41.51,-106.9 0,-63.31 30.09,-113.13 86.14,-147.37 48.78,-30.1 113.13,-44.63 189.93,-46.7l0 -7.26c0,-36.32 -18.68,-57.08 -73.69,-57.08 -63.3,0 -103.78,19.72 -156.71,49.81l-15.57 -148.41c64.35,-23.87 122.46,-36.32 190.96,-36.32 74.73,0 132.85,15.57 169.17,49.81 32.17,31.14 46.7,77.84 46.7,136.99l0 200.3c0,47.74 1.04,95.48 4.15,143.22l-155.68 0 0 -18.68 0 -19.72zm400.61 -427.59c21.8,-41.51 73.69,-63.31 138.03,-63.31 106.9,0 160.86,61.23 160.86,173.32l0 355.98 -159.83 0 0 -326.92c0,-48.78 -15.57,-61.23 -39.44,-61.23 -22.83,0 -43.59,11.42 -63.31,38.4 -18.68,26.98 -29.06,59.16 -29.06,97.56l-0 252.2 -160.86 0 0 -518.92 154.63 0 0 19.72 -1.04 33.21zm614.4 474.29c-154.64,0 -234.55,-87.18 -234.55,-252.19 0,-81.99 20.76,-149.45 65.38,-201.34 47.74,-56.04 115.2,-83.03 200.3,-83.03 42.55,0 77.84,7.27 118.31,18.68l-17.64 147.37c-33.21,-12.45 -66.42,-24.91 -102.74,-24.91 -76.8,0 -97.56,63.31 -97.56,129.73 0,85.1 32.17,119.35 94.44,119.35 47.74,0 69.53,-10.38 110.01,-31.14l13.49 148.41c-49.82,20.76 -92.37,29.06 -149.45,29.06zm486.74 -389.19c-10.38,-12.45 -24.91,-19.72 -46.7,-19.72 -36.32,0 -60.19,23.87 -69.53,57.08l132.85 0c-3.11,-15.57 -8.31,-28.02 -16.61,-37.36l0 0zm172.28 144.26l-2.08 16.6 -292.67 0c5.19,65.38 40.47,94.44 112.09,94.44 60.19,0 101.7,-14.53 154.64,-39.44l16.6 136.99c-65.38,25.95 -121.43,37.36 -192,37.36 -168.13,0 -255.31,-91.33 -255.31,-264.65 0,-78.88 20.76,-144.26 64.35,-196.15 43.59,-52.93 103.79,-78.87 178.51,-78.87 70.58,0 127.66,22.83 167.09,69.53 35.29,42.55 52.93,97.56 52.93,163.98 0,21.79 -1.03,40.47 -4.15,60.19z"/>
    </g>
    <path class="fil1" d="M1737.34 783.45c-30.09,21.8 -68.5,24.91 -98.59,10.38l-15.57 -11.42 -153.6 -197.19c50.85,9.34 88.21,-15.57 117.28,-61.23 29.06,-42.55 28.02,-103.78 0,-147.37 -32.18,-46.7 -96.52,-62.27 -150.49,-55.01 -93.41,13.49 -159.83,96.52 -180.58,182.66 -20.76,99.63 -6.23,193.04 26.98,281.25 7.27,18.68 17.64,38.4 31.14,55.01 -98.59,-42.55 -184.73,-122.46 -230.4,-228.32 -49.82,-115.2 -48.78,-259.46 10.38,-375.7 46.7,-89.25 129.73,-173.32 232.48,-208.61 107.93,-44.63 252.19,-35.29 357.02,24.91 127.65,64.35 224.17,223.13 224.17,365.32 6.22,146.33 -58.13,279.18 -170.21,365.32z"/>
   </g>
   <polygon class="fil2" points="-0,1731.53 441.74,1731.53 441.74,1807.86 -0,1807.86 "/>
   <path class="fil1" d="M606.19 1760.32c-0.98,14.54 -6.59,26.12 -16.82,34.69 -10.21,8.58 -23.56,12.85 -40.01,12.85 -18.96,0 -33.68,-5.9 -44.19,-17.75 -10.54,-11.81 -15.79,-28.4 -15.79,-49.74 0,-21.81 5.37,-38.49 16.08,-50.09 10.72,-11.6 26.12,-17.39 46.24,-17.39 16.32,0 29.23,3.98 38.7,11.96 9.5,7.98 14.69,19.23 15.61,33.8l-26 0c-1.1,-7.24 -4.06,-12.76 -8.84,-16.56 -4.81,-3.8 -11.3,-5.7 -19.46,-5.7 -11.58,0 -20.39,3.74 -26.41,11.22 -6.02,7.48 -9.02,18.4 -9.02,32.76 0,13.89 3,24.66 8.99,32.23 5.99,7.6 14.51,11.4 25.58,11.4 7.98,0 14.54,-2.05 19.61,-6.11 5.11,-4.07 8.4,-9.94 9.91,-17.57l25.82 0zm49.2 -19.94c0,14.1 3.12,25.01 9.38,32.82 6.26,7.8 15.02,11.69 26.23,11.69 11.36,0 20.18,-3.89 26.5,-11.69 6.32,-7.81 9.47,-18.73 9.47,-32.82 0,-14.1 -3.14,-25.02 -9.47,-32.82 -6.32,-7.81 -15.14,-11.69 -26.5,-11.69 -11.22,0 -19.97,3.89 -26.23,11.66 -6.26,7.74 -9.38,18.69 -9.38,32.85zm-26.89 0c0,-20.69 5.64,-37.13 16.91,-49.26 11.28,-12.14 26.47,-18.22 45.58,-18.22 19.11,0 34.37,6.08 45.67,18.25 11.34,12.2 17,28.58 17,49.24 0,20.62 -5.67,37.04 -17,49.23 -11.3,12.17 -26.56,18.25 -45.67,18.25 -19.11,0 -34.31,-6.08 -45.58,-18.25 -11.28,-12.2 -16.91,-28.61 -16.91,-49.23zm152.8 63.92l0 -128.02 27.57 0 52.02 87.96 0 -87.96 25.99 0 0 128.02 -27.21 0 -52.38 -87.96 0 87.96 -26 0zm132.89 -39.53l26 0c0.98,7 3.86,12.2 8.6,15.58 4.75,3.38 11.63,5.07 20.62,5.07 7.63,0 13.42,-1.36 17.3,-4.1 3.89,-2.7 5.82,-6.73 5.82,-12.05 0,-7.77 -11.16,-14.19 -33.47,-19.29l-0.77 -0.18c-0.56,-0.12 -1.48,-0.33 -2.7,-0.59 -11.93,-2.61 -20.45,-5.55 -25.55,-8.82 -4.51,-2.88 -7.95,-6.8 -10.33,-11.69 -2.37,-4.9 -3.56,-10.68 -3.56,-17.36 0,-12.46 4.24,-22.02 12.7,-28.67 8.46,-6.65 20.66,-9.97 36.65,-9.97 14.96,0 26.65,3.53 35.08,10.62 8.43,7.09 12.85,17.06 13.33,29.97l-25.29 0c-0.48,-6.2 -2.85,-10.92 -7.12,-14.19 -4.3,-3.23 -10.38,-4.87 -18.34,-4.87 -6.88,0 -12.19,1.34 -15.94,4.04 -3.74,2.7 -5.61,6.56 -5.61,11.54 0,6.76 7.27,11.84 21.81,15.19 3.95,0.95 7,1.66 9.2,2.2 9.35,2.37 15.97,4.21 19.88,5.55 3.89,1.34 7.3,2.82 10.21,4.42 5.22,2.91 9.11,6.74 11.73,11.51 2.61,4.78 3.91,10.51 3.91,17.19 0,13.32 -4.48,23.65 -13.47,30.98 -8.99,7.33 -21.67,10.98 -37.99,10.98 -16.12,0 -28.76,-3.74 -37.93,-11.22 -9.17,-7.45 -14.1,-18.1 -14.78,-31.87zm130.72 -88.85l26.53 0 0 80.3c0,9.88 1.96,17.13 5.91,21.67 3.95,4.54 10.21,6.82 18.81,6.82 8.7,0 15.02,-2.26 18.99,-6.76 3.98,-4.54 5.97,-11.78 5.97,-21.72l0 -80.3 26.35 0 0 83.15c0,15.73 -4.39,27.78 -13.18,36.17 -8.79,8.4 -21.43,12.61 -37.93,12.61 -16.65,0 -29.38,-4.19 -38.19,-12.55 -8.84,-8.4 -13.27,-20.48 -13.27,-36.23l0 -83.15zm135.14 128.38l0 -128.02 39.02 0 25.43 97.43 25.11 -97.43 39.17 0 0 128.02 -24.75 0 0 -103.24 -26 103.24 -26.89 0 -26.35 -103.24 0 103.24 -24.75 0zm162.06 0l0 -128.02 93 0 0 22.26 -67.01 0 0 27.24 61.28 0 0 21.9 -61.28 0 0 32.94 70.16 0 0 23.68 -96.15 0zm149.39 -72.11l30.98 0c6.74,0 11.69,-1.36 14.84,-4.06 3.18,-2.73 4.75,-7 4.75,-12.85 0,-5.55 -1.54,-9.76 -4.6,-12.61 -3.09,-2.88 -7.66,-4.3 -13.77,-4.3l-32.2 0 0 33.83zm-26.35 72.11l0 -128.02 62.14 0c13.98,0 24.31,2.97 31.04,8.93 6.73,5.96 10.09,15.1 10.09,27.36 0,7.81 -1.64,14.34 -4.93,19.53 -3.26,5.22 -7.98,8.79 -14.15,10.68 5.55,1.99 9.5,4.99 11.84,9.05 2.35,4.06 3.68,10.38 4.04,18.96l0.53 15.14c0,0.12 0,0.29 0,0.53 0.18,7.65 1.84,12.28 4.98,13.91l0 3.92 -28.84 0c-0.92,-1.81 -1.63,-4.01 -2.14,-6.65 -0.47,-2.64 -0.77,-5.79 -0.89,-9.44l-0.36 -13.5c-0.29,-7.96 -1.78,-13.3 -4.48,-16.08 -2.7,-2.79 -7.57,-4.19 -14.57,-4.19l-27.96 0 0 49.86 -26.35 0zm211.02 -68.73l25.49 0c6.89,0 11.9,-1.45 15.05,-4.39 3.11,-2.94 4.69,-7.63 4.69,-14.13 0,-6.08 -1.54,-10.68 -4.6,-13.83 -3.09,-3.11 -7.65,-4.69 -13.74,-4.69l-26.89 0 0 37.04zm-0.18 23.14l0 45.58 -26.35 0 0 -128.02 56.98 0c13.44,0 23.62,3.5 30.57,10.48 6.91,6.97 10.39,17.21 10.39,30.69 0,13.2 -3.38,23.38 -10.18,30.53 -6.76,7.15 -16.47,10.74 -29.05,10.74l-32.35 0zm125.55 -26.53l30.98 0c6.74,0 11.69,-1.36 14.84,-4.06 3.18,-2.73 4.75,-7 4.75,-12.85 0,-5.55 -1.54,-9.76 -4.6,-12.61 -3.09,-2.88 -7.66,-4.3 -13.77,-4.3l-32.2 0 0 33.83zm-26.35 72.11l0 -128.02 62.14 0c13.98,0 24.31,2.97 31.04,8.93 6.73,5.96 10.09,15.1 10.09,27.36 0,7.81 -1.64,14.34 -4.93,19.53 -3.26,5.22 -7.98,8.79 -14.15,10.68 5.55,1.99 9.5,4.99 11.84,9.05 2.35,4.06 3.68,10.38 4.04,18.96l0.53 15.14c0,0.12 0,0.29 0,0.53 0.18,7.65 1.84,12.28 4.98,13.91l0 3.92 -28.84 0c-0.92,-1.81 -1.63,-4.01 -2.14,-6.65 -0.47,-2.64 -0.77,-5.79 -0.89,-9.44l-0.36 -13.5c-0.29,-7.96 -1.78,-13.3 -4.48,-16.08 -2.7,-2.79 -7.57,-4.19 -14.57,-4.19l-27.96 0 0 49.86 -26.35 0zm155.26 -63.92c0,14.1 3.12,25.01 9.38,32.82 6.26,7.8 15.02,11.69 26.23,11.69 11.36,0 20.18,-3.89 26.5,-11.69 6.32,-7.81 9.47,-18.73 9.47,-32.82 0,-14.1 -3.14,-25.02 -9.47,-32.82 -6.32,-7.81 -15.14,-11.69 -26.5,-11.69 -11.22,0 -19.97,3.89 -26.23,11.66 -6.26,7.74 -9.38,18.69 -9.38,32.85zm-26.89 0c0,-20.69 5.64,-37.13 16.91,-49.26 11.28,-12.14 26.47,-18.22 45.58,-18.22 19.11,0 34.37,6.08 45.67,18.25 11.34,12.2 17,28.58 17,49.24 0,20.62 -5.67,37.04 -17,49.23 -11.3,12.17 -26.56,18.25 -45.67,18.25 -19.11,0 -34.31,-6.08 -45.58,-18.25 -11.28,-12.2 -16.91,-28.61 -16.91,-49.23zm178.62 40.77l21.13 0c12.22,0 21.1,-3.2 26.56,-9.61 5.49,-6.41 8.22,-16.8 8.22,-31.16 0,-14.34 -2.55,-24.84 -7.65,-31.58 -5.11,-6.74 -13.06,-10.09 -23.92,-10.09l-24.33 0 0 82.44zm-25.82 23.15l0 -128.02 50.15 0c19.68,0 34.34,5.31 43.98,15.91 9.65,10.59 14.48,26.68 14.48,48.22 0,11.72 -1.78,22.02 -5.34,30.95 -3.56,8.93 -8.76,16.11 -15.52,21.54 -5.11,4.06 -10.92,6.97 -17.42,8.75 -6.47,1.75 -15.58,2.64 -27.3,2.64l-43.03 0zm135.53 -128.38l26.53 0 0 80.3c0,9.88 1.96,17.13 5.91,21.67 3.95,4.54 10.21,6.82 18.81,6.82 8.7,0 15.02,-2.26 18.99,-6.76 3.98,-4.54 5.97,-11.78 5.97,-21.72l0 -80.3 26.35 0 0 83.15c0,15.73 -4.39,27.78 -13.18,36.17 -8.79,8.4 -21.43,12.61 -37.93,12.61 -16.65,0 -29.38,-4.19 -38.19,-12.55 -8.84,-8.4 -13.27,-20.48 -13.27,-36.23l0 -83.15zm246.6 84.4c-0.98,14.54 -6.59,26.12 -16.82,34.69 -10.21,8.58 -23.56,12.85 -40.01,12.85 -18.96,0 -33.68,-5.9 -44.19,-17.75 -10.54,-11.81 -15.79,-28.4 -15.79,-49.74 0,-21.81 5.37,-38.49 16.08,-50.09 10.72,-11.6 26.12,-17.39 46.24,-17.39 16.32,0 29.23,3.98 38.7,11.96 9.5,7.98 14.69,19.23 15.61,33.8l-26 0c-1.1,-7.24 -4.06,-12.76 -8.84,-16.56 -4.81,-3.8 -11.3,-5.7 -19.46,-5.7 -11.58,0 -20.39,3.74 -26.41,11.22 -6.02,7.48 -9.02,18.4 -9.02,32.76 0,13.89 3,24.66 8.99,32.23 5.99,7.6 14.51,11.4 25.58,11.4 7.98,0 14.54,-2.05 19.61,-6.11 5.11,-4.07 8.4,-9.94 9.91,-17.57l25.82 0zm54.37 43.98l0 -105.23 -37.93 0 0 -22.79 102.03 0 0 22.79 -37.75 0 0 105.23 -26.35 0zm80.18 -39.53l26 0c0.98,7 3.86,12.2 8.6,15.58 4.75,3.38 11.63,5.07 20.62,5.07 7.63,0 13.42,-1.36 17.3,-4.1 3.89,-2.7 5.82,-6.73 5.82,-12.05 0,-7.77 -11.16,-14.19 -33.47,-19.29l-0.77 -0.18c-0.56,-0.12 -1.48,-0.33 -2.7,-0.59 -11.93,-2.61 -20.45,-5.55 -25.55,-8.82 -4.51,-2.88 -7.95,-6.8 -10.33,-11.69 -2.37,-4.9 -3.56,-10.68 -3.56,-17.36 0,-12.46 4.24,-22.02 12.7,-28.67 8.46,-6.65 20.66,-9.97 36.65,-9.97 14.96,0 26.65,3.53 35.08,10.62 8.43,7.09 12.85,17.06 13.33,29.97l-25.29 0c-0.48,-6.2 -2.85,-10.92 -7.12,-14.19 -4.3,-3.23 -10.38,-4.87 -18.34,-4.87 -6.88,0 -12.19,1.34 -15.94,4.04 -3.74,2.7 -5.61,6.56 -5.61,11.54 0,6.76 7.27,11.84 21.81,15.19 3.95,0.95 7,1.66 9.2,2.2 9.35,2.37 15.97,4.21 19.88,5.55 3.89,1.34 7.3,2.82 10.21,4.42 5.22,2.91 9.11,6.74 11.73,11.51 2.61,4.78 3.91,10.51 3.91,17.19 0,13.32 -4.48,23.65 -13.47,30.98 -8.99,7.33 -21.67,10.98 -37.99,10.98 -16.12,0 -28.76,-3.74 -37.93,-11.22 -9.17,-7.45 -14.1,-18.1 -14.78,-31.87zm182.03 39.53l0 -128.02 26.35 0 0 104.34 62.5 0 0 23.68 -88.85 0zm110.96 0l0 -128.02 26.35 0 0 128.02 -26.35 0zm60.59 0l0 -128.02 39.02 0 25.43 97.43 25.11 -97.43 39.17 0 0 128.02 -24.75 0 0 -103.24 -26 103.24 -26.89 0 -26.35 -103.24 0 103.24 -24.75 0zm162.95 0l0 -128.02 26.35 0 0 128.02 -26.35 0zm87.12 0l0 -105.23 -37.93 0 0 -22.79 102.03 0 0 22.79 -37.75 0 0 105.23 -26.35 0zm86.05 0l0 -128.02 93 0 0 22.26 -67.01 0 0 27.24 61.28 0 0 21.9 -61.28 0 0 32.94 70.16 0 0 23.68 -96.15 0zm148.85 -23.15l21.13 0c12.22,0 21.1,-3.2 26.56,-9.61 5.49,-6.41 8.22,-16.8 8.22,-31.16 0,-14.34 -2.55,-24.84 -7.65,-31.58 -5.11,-6.74 -13.06,-10.09 -23.92,-10.09l-24.33 0 0 82.44zm-25.82 23.15l0 -128.02 50.15 0c19.68,0 34.34,5.31 43.98,15.91 9.65,10.59 14.48,26.68 14.48,48.22 0,11.72 -1.78,22.02 -5.34,30.95 -3.56,8.93 -8.76,16.11 -15.52,21.54 -5.11,4.06 -10.92,6.97 -17.42,8.75 -6.47,1.75 -15.58,2.64 -27.3,2.64l-43.03 0z"/>
  </g>
 </g>
</svg>
