<?xml version="1.0" encoding="utf-8"?>
<!-- Generator: Adobe Illustrator 24.3.0, SVG Export Plug-In . SVG Version: 6.00 Build 0)  -->
<svg version="1.1" id="Layer_1" xmlns="http://www.w3.org/2000/svg" xmlns:xlink="http://www.w3.org/1999/xlink" x="0px" y="0px"
	 viewBox="0 0 155.8 72" style="enable-background:new 0 0 155.8 72;" xml:space="preserve">
<style type="text/css">
	.st0{fill-rule:evenodd;clip-rule:evenodd;fill:#FFFFFF;}
	.st1{fill-rule:evenodd;clip-rule:evenodd;fill:#ED1C24;}
	.st2{fill:#ED1C24;}
	.st3{fill:#FFFFFF;}
	.st4{fill-rule:evenodd;clip-rule:evenodd;fill:#FFF200;}
	.st5{fill-rule:evenodd;clip-rule:evenodd;fill:#F5821F;}
	.st6{fill-rule:evenodd;clip-rule:evenodd;fill:#231F20;}
	.st7{fill-rule:evenodd;clip-rule:evenodd;fill:#FFDF69;}
	.st8{fill-rule:evenodd;clip-rule:evenodd;fill:#39B54A;}
	.st9{fill-rule:evenodd;clip-rule:evenodd;fill:#FFE3A5;}
</style>
<path class="st0" d="M4,20.2l10.4,0c1.4-0.1,2.8,0.2,4.1,0.9c0.9,0.6,1.4,1.6,1.3,2.6c0,1-0.4,2-1.1,2.8c-0.8,0.8-1.9,1.2-3,1.3
	c1,0,2,0.4,2.8,1c0.6,0.6,0.9,1.5,0.9,2.4c0,0.8-0.2,1.6-0.6,2.3c-0.4,0.7-1,1.3-1.7,1.8c-0.6,0.5-1.3,0.8-2,1
	c-1.1,0.2-2.2,0.3-3.3,0.3h-0.2H1.2c1.7-0.6,3-2.2,3.3-4l1.5-8.3V24c0.1-1.5-0.8-2.6-2.2-3.7 M9.4,28.8l-0.8,4.1v0.2
	c0,0.1-0.1,0.3-0.1,0.5c0,0.3,0.1,0.6,0.4,0.7c0.4,0.2,0.9,0.3,1.3,0.2c1.2,0.1,2.4-0.3,3.4-1C14.5,33,15,32,15,30.9
	c0.1-0.7-0.2-1.3-0.8-1.7c-1-0.4-2.1-0.6-3.2-0.5L9.4,28.8z M9.7,26.8h1.6c0.8,0,1.4,0,1.8,0c0.3,0,0.6-0.1,0.9-0.2
	c0.5-0.2,0.9-0.6,1.2-1c0.3-0.4,0.5-0.9,0.5-1.4c0.1-0.6-0.2-1.1-0.7-1.5c-0.7-0.4-1.6-0.5-2.4-0.5c-0.6-0.1-1.2,0-1.7,0.3
	c-0.3,0.2-0.5,0.6-0.6,1.4L9.7,26.8z"/>
<path class="st0" d="M40.2,34.1c0.3,0.2,0.6,0.4,0.9,0.5c0.3,0.1,0.7,0.2,1,0.2c0.5,0,1.1-0.1,1.5-0.4c0.5-0.4,0.8-0.8,1.1-1.4
	c0.3-0.6,0.6-1.2,0.8-1.9c0.2-0.6,0.3-1.3,0.3-1.9c0-0.6-0.1-1.2-0.4-1.7C45,27.2,44.5,27,44,27c-1,0-1.9,0.7-2.3,1.6
	C40.9,30.3,40.4,32.2,40.2,34.1 M38.4,23.8c0.2-1.1-0.1-1.6-1.4-1.7c0.5-2.5,3.6-2.4,6.1-2.4L41.9,26c0.4-0.4,0.9-0.8,1.5-1
	c0.6-0.2,1.3-0.4,2-0.3c1.2,0,2.4,0.4,3.2,1.3c0.8,1,1.3,2.3,1.2,3.6c0,0.9-0.2,1.8-0.5,2.7c-0.3,0.9-0.8,1.7-1.4,2.4
	c-1.3,1.5-3.2,2.4-5.2,2.4c-0.6,0-1.1-0.1-1.7-0.2c-0.4-0.1-0.8-0.3-1.2-0.5l-0.3,0.5h-3.6L38.4,23.8z"/>
<path class="st0" d="M32.7,32c-0.3,1.4-0.2,2.6,2,1.6c0.8,2.8-4.9,4.8-5.9,1.3c-0.5,0.6-1.2,1.1-1.9,1.4c-0.7,0.3-1.4,0.5-2.1,0.5
	c-1.2,0.1-2.4-0.4-3.2-1.3c-0.8-1-1.3-2.2-1.2-3.5c0-0.9,0.2-1.8,0.5-2.7c0.3-0.9,0.8-1.6,1.4-2.3c1.3-1.6,3.3-2.4,5.3-2.4
	c0.5,0,1,0.1,1.5,0.2c0.4,0.1,0.9,0.3,1.2,0.6c1-0.8,2.4-1.1,3.7-0.6L32.7,32 M30,27.4c-0.3-0.2-0.6-0.4-0.9-0.6
	c-0.3-0.1-0.7-0.2-1-0.2c-0.5,0-1.1,0.2-1.5,0.5c-0.5,0.4-0.9,0.9-1.1,1.4c-0.3,0.6-0.6,1.2-0.8,1.9c-0.2,0.6-0.3,1.2-0.3,1.9
	c0,0.6,0.1,1.2,0.4,1.7c0.3,0.4,0.8,0.6,1.3,0.6c1,0,1.9-0.7,2.3-1.6C29.3,31.1,29.8,29.3,30,27.4"/>
<path class="st0" d="M63,32.2c-0.3,1.4-0.2,2.6,2,1.6c0.8,2.8-4.9,4.8-5.9,1.3c-0.5,0.6-1.2,1.1-1.9,1.4c-0.7,0.3-1.4,0.5-2.1,0.5
	c-1.2,0.1-2.4-0.4-3.2-1.3c-0.8-1-1.3-2.2-1.2-3.5c0-0.9,0.2-1.8,0.5-2.7c0.3-0.9,0.8-1.6,1.4-2.3c0.7-0.8,1.5-1.4,2.4-1.8
	c0.9-0.4,1.9-0.6,2.9-0.6c0.5,0,1,0.1,1.5,0.2c0.4,0.1,0.9,0.3,1.2,0.6c1-0.8,2.4-1.1,3.7-0.6L63,32.2 M60.3,27.5
	c-0.3-0.2-0.6-0.4-1-0.5c-0.3-0.1-0.7-0.2-1-0.2c-0.5,0-1.1,0.1-1.5,0.4c-0.5,0.4-0.9,0.9-1.1,1.4c-0.3,0.6-0.6,1.2-0.8,1.9
	c-0.2,0.6-0.3,1.3-0.3,1.9c-0.1,0.6,0.1,1.2,0.5,1.7c0.3,0.4,0.8,0.6,1.3,0.6c1.1,0,2-0.7,2.4-1.7C59.5,31.2,60,29.4,60.3,27.5"/>
<path class="st0" d="M112.4,27.5L112.4,27.5c0.5,0,0.9,0,1.1,0c1.1,0.1,2.3-0.2,3.3-0.8c0.8-0.5,1.2-1.3,1.2-2.2
	c0-0.6-0.2-1.2-0.7-1.5c-0.6-0.4-1.4-0.5-2.1-0.5c-0.5-0.1-1.1,0.1-1.5,0.3c-0.3,0.3-0.5,0.8-0.6,1.2L112.4,27.5 M104.7,37
	c1.2-1.2,2-1.7,2.5-4c0.5-2.9,1.1-5.8,1.6-8.7c0.2-1.5-1.3-2.9-2.7-3.8l10,0c1.6-0.1,3.3,0.2,4.8,1c1,0.6,1.6,1.8,1.5,3
	c0,1.1-0.4,2.2-1.1,3.1c-0.8,0.9-1.9,1.4-3.1,1.7l1.9,4c0.8,1.6,2.2,3,3.8,3.8c-4,0-6.1,0.7-7.8-2.9l-2-4.4h-2l-0.6,3.3
	c-0.3,1.4,0.1,2.9,1.1,4L104.7,37z"/>
<path class="st0" d="M135.7,32.4c-0.3,1.4-0.2,2.7,2.1,1.6c0.8,2.8-5,4.9-6,1.3c-0.5,0.6-1.2,1.1-1.9,1.4c-0.7,0.3-1.4,0.5-2.2,0.5
	c-1.2,0.1-2.5-0.4-3.3-1.3c-0.9-1-1.3-2.3-1.2-3.6c0-1.9,0.7-3.7,2-5.1c0.7-0.8,1.5-1.4,2.4-1.8c1.4-0.6,3-0.8,4.6-0.4
	c0.4,0.1,0.9,0.3,1.2,0.6c1-0.9,2.5-1.1,3.7-0.6L135.7,32.4 M132.9,27.7c-0.3-0.2-0.6-0.4-1-0.6c-0.3-0.1-0.7-0.2-1-0.2
	c-0.5,0-1.1,0.1-1.5,0.4c-0.5,0.4-0.9,0.9-1.2,1.4c-0.3,0.6-0.6,1.3-0.8,1.9c-0.2,0.6-0.3,1.3-0.3,1.9c0,0.6,0.1,1.2,0.4,1.7
	c0.3,0.4,0.8,0.6,1.3,0.6c1,0,2-0.7,2.4-1.6C132.1,31.5,132.6,29.6,132.9,27.7"/>
<path class="st0" d="M143.2,32.4c-0.2,1.7-0.5,3.3-1.1,4.9c-1.2,2.9-2.8,3.8-6.6,3.8c2.9-2.3,3.4-3.8,3.9-7.5c0.3-2.2,0.6-4.3,1-6.5
	h-2.1c0.2-1.1,0.2-2,2.4-2c0.1-0.2,0.2-0.5,0.2-0.7c0.4-1.3,1.3-2.5,2.4-3.3c1.2-0.8,2.6-1.2,4-1.2c0.8,0,1.6,0.1,2.3,0.5
	c0.5,0.3,0.8,0.8,0.8,1.4c0,0.5-0.2,0.9-0.5,1.2c-0.4,0.3-0.8,0.5-1.3,0.5c-0.5,0-0.9-0.2-1.2-0.6l-0.1-0.1l-0.2-0.2
	c-0.2-0.3-0.6-0.4-0.9-0.5c-0.4,0-0.8,0.2-1.1,0.5c-0.3,0.5-0.6,1.1-0.6,1.7c0,0.3-0.1,0.5-0.1,0.8c0.8,0,2.4,0.1,3.8,0.1
	c-0.3,2.1-1.2,2-4,1.9L143.2,32.4"/>
<path class="st0" d="M153.9,19.2c0.5,0,1,0.2,1.4,0.5c0.4,0.4,0.6,0.9,0.5,1.4c0,0.7-0.3,1.4-0.8,1.9c-0.5,0.5-1.2,0.8-1.9,0.8
	c-1,0-1.9-0.8-1.9-1.8c0,0,0-0.1,0-0.1c0-0.7,0.3-1.4,0.8-1.9C152.5,19.5,153.2,19.1,153.9,19.2 M153.4,33c-0.3,1.5,0.2,2.5,1.9,1.4
	c-0.7,3.5-6.2,4.3-6.2,0.6c0.2-1.9,0.5-3.8,1-5.7c0.2-1.2-0.1-1.7-1.4-1.8c0.6-1.8,3.5-3.1,6.2-2.5L153.4,33z"/>
<path class="st1" d="M2.7,19.2l10.4,0c1.4-0.1,2.8,0.2,4.1,0.9c0.9,0.6,1.4,1.6,1.3,2.6c0,1-0.4,2.1-1.1,2.8c-0.8,0.8-1.9,1.2-3,1.3
	c1,0,2,0.4,2.8,1c0.6,0.6,0.9,1.5,0.9,2.4c0,0.8-0.2,1.6-0.6,2.3c-0.4,0.7-0.9,1.3-1.6,1.8c-0.6,0.5-1.3,0.8-2,1
	c-1.1,0.2-2.2,0.3-3.3,0.3h-0.2L0,35.6c1.7-0.6,3-2.2,3.3-4l1.5-8.3V23C5,21.5,4.1,20.4,2.7,19.2 M8.2,27.8l-0.8,4.1v0.2
	c0,0.2-0.1,0.3-0.1,0.5c0,0.3,0.1,0.6,0.4,0.8c0.4,0.2,0.9,0.3,1.3,0.2c1.2,0.1,2.4-0.3,3.4-1c0.8-0.6,1.3-1.6,1.3-2.6
	c0.1-0.7-0.2-1.3-0.8-1.7c-1-0.4-2.1-0.6-3.1-0.5L8.2,27.8z M8.5,25.9h1.6c0.8,0,1.4,0,1.8,0c0.3,0,0.6-0.1,0.9-0.2
	c0.5-0.2,0.9-0.6,1.2-1c0.3-0.4,0.5-0.9,0.5-1.4c0-0.6-0.3-1.2-0.8-1.5c-0.7-0.4-1.6-0.5-2.4-0.5c-0.6-0.1-1.2,0-1.7,0.2
	c-0.3,0.2-0.5,0.6-0.6,1.4L8.5,25.9z"/>
<path class="st1" d="M39,33.1c0.3,0.2,0.6,0.4,0.9,0.5c0.3,0.1,0.7,0.2,1,0.2c0.5,0,1.1-0.1,1.5-0.4c0.5-0.4,0.9-0.8,1.1-1.4
	c0.3-0.6,0.6-1.2,0.8-1.9c0.2-0.6,0.3-1.3,0.3-1.9c0-0.6-0.1-1.2-0.4-1.7c-0.3-0.4-0.8-0.6-1.3-0.5c-1,0-1.9,0.6-2.3,1.6
	C39.7,29.4,39.2,31.2,39,33.1 M37.2,22.8c0.2-1.1-0.1-1.6-1.4-1.7c0.5-2.5,3.6-2.4,6.1-2.4L40.6,25c0.4-0.4,0.9-0.8,1.5-1
	c0.6-0.2,1.3-0.4,2-0.3c1.2,0,2.4,0.4,3.3,1.3c0.9,1,1.3,2.3,1.2,3.6c0,0.9-0.2,1.8-0.5,2.7c-0.3,0.9-0.8,1.7-1.4,2.4
	c-0.7,0.8-1.5,1.4-2.4,1.8c-0.9,0.4-1.9,0.6-2.8,0.6c-0.6,0-1.1,0-1.7-0.2c-0.4-0.1-0.8-0.3-1.2-0.5l-0.3,0.5h-3.6L37.2,22.8z"/>
<path class="st1" d="M31.5,31.1c-0.3,1.4-0.2,2.6,2,1.6c0.8,2.8-4.9,4.8-5.9,1.3c-0.5,0.6-1.2,1.1-1.9,1.4c-0.7,0.3-1.4,0.5-2.1,0.4
	c-1.2,0.1-2.4-0.4-3.2-1.3c-0.8-1-1.3-2.2-1.2-3.5c0-0.9,0.2-1.8,0.5-2.7c0.3-0.8,0.8-1.6,1.4-2.3c1.3-1.6,3.3-2.4,5.3-2.4
	c0.5,0,1,0.1,1.5,0.2c0.4,0.1,0.9,0.3,1.2,0.6c1-0.8,2.4-1.1,3.7-0.6L31.5,31.1 M28.7,26.5c-0.3-0.2-0.6-0.4-0.9-0.6
	c-0.3-0.1-0.7-0.2-1-0.2c-0.5,0-1.1,0.1-1.5,0.4c-0.5,0.4-0.9,0.9-1.1,1.4c-0.3,0.6-0.6,1.2-0.8,1.9c-0.2,0.6-0.3,1.3-0.3,1.9
	c0,0.6,0.2,1.2,0.5,1.7c0.3,0.4,0.8,0.6,1.3,0.6c1,0,1.9-0.6,2.3-1.6C28,30.2,28.5,28.4,28.7,26.5"/>
<path class="st1" d="M61.7,31.2c-0.3,1.4-0.2,2.6,2,1.6c0.8,2.8-4.9,4.8-5.9,1.3c-0.5,0.6-1.1,1.1-1.8,1.4c-0.7,0.3-1.4,0.5-2.1,0.4
	c-1.2,0.1-2.4-0.4-3.2-1.3c-0.8-1-1.3-2.2-1.2-3.5c0-0.9,0.2-1.8,0.5-2.7c0.3-0.9,0.8-1.6,1.4-2.3c0.7-0.8,1.5-1.4,2.4-1.8
	c0.9-0.4,1.9-0.6,2.9-0.6c0.5,0,1,0.1,1.5,0.2c0.4,0.1,0.9,0.3,1.2,0.6c1-0.8,2.4-1.1,3.7-0.6L61.7,31.2 M59,26.5
	c-0.3-0.2-0.6-0.4-1-0.5c-0.3-0.1-0.7-0.2-1-0.2c-0.5,0-1.1,0.1-1.5,0.4c-0.5,0.4-0.9,0.9-1.1,1.4c-0.3,0.6-0.6,1.2-0.7,1.9
	c-0.2,0.6-0.3,1.3-0.3,1.9c0,0.6,0.1,1.2,0.4,1.7c0.3,0.4,0.8,0.6,1.3,0.6c1,0,1.9-0.7,2.3-1.6C58.2,30.3,58.7,28.5,59,26.5"/>
<path class="st1" d="M111,26.5L111,26.5c0.5,0,0.9,0,1.1,0c1.1,0.1,2.3-0.2,3.3-0.8c0.8-0.5,1.2-1.3,1.2-2.2c0-0.6-0.2-1.1-0.7-1.5
	c-0.6-0.4-1.4-0.5-2.1-0.5c-0.5-0.1-1.1,0.1-1.5,0.3c-0.3,0.3-0.5,0.8-0.6,1.2L111,26.5 M103.3,36c1.2-1.2,2-1.7,2.5-4
	c0.5-2.9,1.1-5.8,1.6-8.7c0.3-1.5-1.3-2.9-2.7-3.8l10,0.1c1.6-0.1,3.3,0.2,4.8,1c1,0.6,1.6,1.8,1.5,3c0,1.1-0.4,2.2-1.1,3.1
	c-0.8,0.9-1.9,1.5-3.1,1.7l1.9,4.1c0.8,1.6,2.2,2.9,3.8,3.8c-4,0-6.1,0.7-7.8-2.9l-2.1-4.4h-1.9l-0.6,3.3c-0.3,1.4,0.1,2.9,1.1,4
	L103.3,36z"/>
<path class="st1" d="M134.3,31.4c-0.3,1.4-0.2,2.6,2,1.6c0.8,2.8-5,4.9-5.9,1.3c-0.5,0.6-1.2,1.1-1.9,1.4c-0.7,0.3-1.4,0.5-2.2,0.5
	c-1.2,0.1-2.5-0.4-3.3-1.3c-0.9-1-1.3-2.3-1.2-3.6c0-0.9,0.2-1.9,0.5-2.7c0.3-0.9,0.8-1.7,1.4-2.4c0.7-0.8,1.5-1.4,2.4-1.8
	c0.9-0.4,2-0.6,3-0.6c0.5,0,1,0.1,1.6,0.2c0.4,0.1,0.9,0.3,1.2,0.6c1-0.9,2.5-1.1,3.7-0.6L134.3,31.4 M131.5,26.7
	c-0.3-0.2-0.6-0.4-1-0.6c-0.8-0.3-1.8-0.2-2.5,0.3c-0.5,0.4-0.9,0.9-1.2,1.4c-0.3,0.6-0.6,1.3-0.8,1.9c-0.2,0.6-0.3,1.3-0.2,1.9
	c0,0.6,0.1,1.2,0.4,1.7c0.3,0.4,0.8,0.6,1.3,0.6c1.1,0,2-0.6,2.4-1.6C130.8,30.5,131.3,28.6,131.5,26.7"/>
<path class="st1" d="M141.8,31.4c-0.2,1.6-0.5,3.3-1.1,4.8c-1.2,2.9-2.7,3.8-6.6,3.8c2.9-2.3,3.4-3.8,3.9-7.5c0.3-2.2,0.6-4.4,1-6.5
	h-2.1c0.2-1.1,0.2-2,2.4-2l0.2-0.7c0.4-1.3,1.3-2.5,2.4-3.3c1.2-0.8,2.6-1.2,4-1.2c0.8,0,1.6,0.1,2.3,0.5c0.5,0.3,0.8,0.8,0.8,1.4
	c0,0.5-0.2,0.9-0.6,1.2c-0.4,0.3-0.8,0.5-1.3,0.5c-0.5,0-0.9-0.2-1.2-0.6l-0.2-0.1l-0.2-0.2c-0.2-0.3-0.6-0.4-0.9-0.5
	c-0.4,0-0.8,0.2-1.1,0.5c-0.3,0.5-0.5,1.1-0.6,1.7c0,0.3-0.1,0.5-0.1,0.8c0.8,0,2.4,0.1,3.8,0.1c-0.3,2.1-1.2,2-4,1.9L141.8,31.4"/>
<path class="st1" d="M152.6,18.2c0.5,0,1,0.2,1.4,0.5c0.4,0.4,0.6,0.9,0.5,1.4c0,0.7-0.3,1.4-0.8,1.9c-0.5,0.5-1.2,0.8-1.9,0.8
	c-0.5,0-1-0.2-1.4-0.5c-0.4-0.4-0.6-0.9-0.6-1.4c0-0.7,0.3-1.4,0.8-1.9C151.2,18.5,151.8,18.2,152.6,18.2 M152.1,32
	c-0.3,1.5,0.2,2.5,1.9,1.4c-0.7,3.5-6.2,4.3-6.2,0.6c0.2-1.9,0.5-3.8,1-5.7c0.2-1.2-0.1-1.7-1.4-1.8c0.5-1.8,3.6-3.1,6.2-2.5
	L152.1,32z"/>
<path class="st2" d="M121.5,64.8c0,0-14.6,0.2-25.8-1.9c0,0-19.3-3.7-26.7-5.4c0,0-25.5-4.2-36.4-2.8c0,0-14.4,0.8-19.3,10.6
	c0,0-1.6,4.6,0,6.7c0,0-2.9-1.1,0.6-10.6c0,0,2.5-8-3.1-7.4c-2.1,1.5-3.5,3.8-4,6.4c0,0,0.8-8.5,12.6-13c0,0,12.1-5.8,45-1.2
	c0,0,31.5,6.9,39.3,7.6c0,0,15.5,2.4,27.5-0.3c0,0,16.5-1.8,15.1-15.8c0,0,2.9,2.7-1,11c0,0-1.3,9.5,4.7,5.3
	c1.3-1.8,2.1-3.9,2.3-6.1c-0.5,5.7-4.2,10.5-9.6,12.5c0,0-4.1,2.8-18.3,4.3L121.5,64.8"/>
<path class="st3" d="M35,48v-0.2v-0.2v-0.2v-0.1l0,0c0,0-0.2,0-0.4,0.1c-0.5,0.1-0.9,0.2-1.1,0.2c-0.7,0.1-1.2,0.2-1.5,0.2h0
	c0,0-0.1,0.1-0.1,0.3l0,0.3l-0.1,0.3l-0.1,0.2h0c0.3,0,0.6-0.1,1-0.3c0,0.6,0,0.9-0.1,1.1s-0.1,0.6-0.1,1.1s-0.1,0.9-0.1,1.1
	l0.1,0.1c0.2,0,0.3-0.1,0.5-0.1l0.6-0.1h0.1v-0.1c0-0.3,0-0.6,0.1-1.1s0-0.9,0.1-1.1s0-0.6,0.1-1.1c0.3,0,0.7-0.1,1-0.1l0.1-0.1
	L35,48"/>
<path class="st3" d="M38.2,48.4c-0.2-0.1-0.4-0.2-0.7-0.2c-0.2,0-0.3,0.1-0.5,0.2l-0.4,0.2l-0.2,0.1l0,0c0-0.4,0.1-0.7,0.1-1.1v-0.3
	v-0.3l0,0L36,47.2h-0.3l-0.3,0.1v0.1v0c0,0.2,0,0.3,0,0.5c0,0.2,0,0.3,0,0.5c0,0.4-0.1,1-0.1,1.7c0,0.3,0,0.5-0.1,0.8
	c0,0.3,0,0.6-0.1,0.8l0.1,0.1c0.1,0,0.3,0,0.4,0c0.2,0,0.4,0,0.5-0.1l0.1-0.2c0-0.1,0-0.2,0-0.4c0-0.2,0-0.3,0-0.5l0.1-0.8l0.2-0.3
	l0.3-0.1c0.3,0,0.4,0.1,0.3,0.3s0,0.5-0.1,0.8c0,0.3,0,0.5-0.1,0.8l0.1,0.1c0.1,0,0.3,0,0.5,0h0.5l0.1-0.1c0.1-0.7,0.1-1.5,0.2-2.2
	c0-0.2,0-0.5-0.2-0.6"/>
<path class="st3" d="M41.5,48.3c-0.3-0.3-0.6-0.4-1-0.4c-0.5,0-0.9,0.2-1.2,0.5c-0.3,0.3-0.5,0.8-0.5,1.2c-0.1,0.4,0.1,0.8,0.4,1.1
	c0.3,0.3,0.8,0.4,1.2,0.4c0.5,0,0.9-0.2,1.2-0.5v-0.1c0-0.1-0.1-0.3-0.1-0.4c0-0.1-0.1-0.2-0.2-0.3L41,50.1
	c-0.2,0.1-0.4,0.2-0.6,0.2c-0.1,0-0.3,0-0.4,0L39.7,50c0.5-0.1,0.9-0.1,1.1-0.2c0.4,0,0.7-0.1,0.7-0.1s0.2-0.2,0.2-0.4
	C41.9,49,41.8,48.6,41.5,48.3 M40.6,49.3c-0.3,0.1-0.6,0.1-0.7,0.1l-0.1-0.1L40,49l0.3-0.2l0.3,0.1l0.1,0.3L40.6,49.3"/>
<path class="st3" d="M49.6,47.6c0-0.3,0-0.6,0.1-0.8l-0.1-0.1H49c-0.2,0-0.4,0-0.6,0h-0.1c0,0.2,0,0.4,0,0.8s0,0.6,0,0.8
	c-0.1,0.2-0.1,0.4-0.3,0.6c-0.2,0.3-0.3,0.5-0.3,0.6l-0.1,0.1c0,0,0-0.1-0.1-0.3c-0.1-0.3-0.2-0.7-0.2-1V48c0-0.2,0-0.4,0.1-0.7
	c0-0.2,0.1-0.4,0.1-0.6c0-0.1-0.2-0.1-0.6-0.1h-0.5h-0.1v0.1c0,0,0,0.3-0.1,0.7s0,0.5-0.1,0.7c-0.1,0.3-0.2,0.7-0.4,1
	c0,0.1-0.1,0.2-0.2,0.3v-0.1c0-0.1-0.1-0.3-0.3-0.6c-0.1-0.2-0.1-0.4-0.2-0.6c0-0.2,0-0.4,0.1-0.8s0.1-0.6,0.1-0.8h-0.1
	c-0.1,0-0.3,0-0.5,0H44l-0.1,0.1c0,0.2,0,0.4-0.1,0.8c0,0.3-0.1,0.5-0.1,0.8c0.3,0.9,0.6,1.8,1,2.7l0.1,0.1c0,0,0.2,0,0.5,0h0.4h0.1
	l0.1,0c0.1-0.1,0.2-0.3,0.2-0.4c0.2-0.3,0.3-0.6,0.5-0.9c0.1,0.3,0.2,0.6,0.2,0.9s0.1,0.4,0.1,0.4l0.1,0l0,0c0.1,0,0.3,0,0.4,0h0.5
	H48v0c0.1-0.1,0.3-0.6,0.8-1.4l0.7-1.2C49.6,48.1,49.6,47.8,49.6,47.6"/>
<path class="st3" d="M52.6,48.7c-0.3-0.3-0.7-0.5-1.1-0.5c-0.4-0.1-0.9,0.1-1.2,0.4c-0.3,0.3-0.5,0.7-0.5,1.1
	c-0.1,0.4,0.1,0.8,0.3,1.2c0.3,0.3,0.7,0.5,1.1,0.5c0.4,0,0.9-0.1,1.2-0.3c0.3-0.3,0.5-0.7,0.5-1.1C52.9,49.4,52.8,49,52.6,48.7
	 M51.7,50.2c-0.1,0.1-0.3,0.2-0.4,0.2c-0.2,0-0.3-0.1-0.4-0.2c-0.1-0.1-0.1-0.3-0.1-0.4c0-0.2,0.1-0.3,0.2-0.4
	c0.1-0.1,0.3-0.2,0.4-0.2c0.2,0,0.3,0.1,0.4,0.2c0.1,0.1,0.1,0.3,0.1,0.5C51.8,49.9,51.8,50.1,51.7,50.2"/>
<path class="st3" d="M55.4,49.5v-0.2V49l0-0.3l-0.2-0.1c-0.2,0-0.4,0-0.6,0.1c-0.2,0.1-0.3,0.1-0.3,0.1l0-0.2v-0.2h-0.5h-0.5l-0.1,0
	l0,0c0.1,0.4,0.1,0.8,0,1.2c0,0.2,0,0.4-0.1,0.8c0,0.3,0,0.5-0.1,0.8l0.1,0.1l0.5,0.1c0.2,0,0.3,0,0.5,0l0.1-0.1v-0.5
	c0-0.1,0-0.2,0-0.4c0-0.1,0-0.3,0-0.4c0-0.2,0-0.3,0.1-0.3c0.1,0,0.2-0.1,0.4,0h0.2h0.2l0.2-0.1v-0.2"/>
<path class="st3" d="M57.2,47.6L57.2,47.6l-0.1-0.1L56,47.3h-0.1v0.1c0,0.4,0,0.8,0,1.2c0-0.1,0,0.3-0.1,1.2c0,0.2,0,0.5-0.1,0.8
	s-0.1,0.7-0.1,0.8v0.1l0.1,0.1c0.2,0,0.3,0.1,0.5,0.1c0.2,0,0.3,0,0.5,0l0.1-0.1v-0.3v-0.3c0-0.3,0-0.8,0.1-1.3S57.1,48.4,57.2,47.6
	"/>
<path class="st3" d="M60.9,47.9h-0.6h-0.5V48c0,0.2,0,0.4-0.1,0.7s0,0.6,0,0.7v0.1l-0.1,0c-0.2-0.2-0.4-0.4-0.7-0.4
	c-0.4-0.1-0.8,0.1-1.1,0.3c-0.3,0.3-0.5,0.7-0.5,1.1c-0.1,0.4,0,0.8,0.3,1.2c0.2,0.3,0.6,0.6,1,0.6c0.3,0.1,0.6,0,0.9-0.2h0l0,0v0.2
	l0.2,0.1c0.3,0.1,0.6,0.1,0.8,0.1l0,0v-0.1c0-0.4,0-1,0.1-1.9c0-0.5,0.1-1,0.2-1.4s0.1-0.7,0.1-0.9s0-0.3,0-0.2L60.9,47.9
	 M59.3,51.1c-0.1,0.1-0.3,0.2-0.5,0.1c-0.2,0-0.3-0.1-0.4-0.3c-0.1-0.1-0.1-0.3-0.1-0.4c0-0.2,0.1-0.3,0.2-0.4
	C58.7,50,58.8,50,59,50c0.2,0,0.3,0.1,0.4,0.3c0.1,0.1,0.2,0.3,0.1,0.5C59.5,50.9,59.4,51,59.3,51.1"/>
<path class="st3" d="M62.2,48L62.2,48L62,48.1l-0.2,0.2l-0.2,0.1l-0.2,0.2l0.2,0.3c0.3,0.3,0.3,0.7,0,1c0,0,0,0,0,0L61.4,50l0.2,0.2
	l0.2,0.2v0.1l0.1-0.1c0.2-0.2,0.4-0.4,0.5-0.6c0.1-0.2,0.2-0.5,0.2-0.7C62.6,48.7,62.4,48.4,62.2,48"/>
<path class="st3" d="M64.7,50.2c0-0.1-0.1-0.3-0.2-0.4c-0.3-0.1-0.7,0-0.9,0.1c-0.3,0.1-0.5,0.4-0.5,0.7c0,0.2,0,0.4,0.1,0.5
	c0,0,0.1,0.2,0.3,0.4l0.1,0.3c0,0.1-0.1,0.2-0.3,0.2h-0.5l0,0c0,0.2,0.1,0.3,0.2,0.5c0.1,0.3,0.2,0.4,0.3,0.4c0.2,0,0.4,0,0.6,0
	c0.2,0,0.4-0.1,0.6-0.2l0.2-0.3l0.1-0.3c0-0.2,0-0.4-0.1-0.5c-0.1-0.1-0.2-0.3-0.3-0.4l-0.1-0.3l0.2-0.2h0.3h0.2l0.1-0.1
	C64.9,50.5,64.9,50.4,64.7,50.2"/>
<path class="st3" d="M70.5,52.4c-0.1-0.2-0.2-0.4-0.3-0.5l-0.1-0.1l0.1-0.1l0.2-0.3l0.2-0.4c0.1-0.4-0.1-0.9-0.4-1.1
	c-0.3-0.3-0.7-0.4-1.1-0.5l-1.2-0.3c-0.4-0.1-0.7-0.1-0.7-0.1h-0.1v0.1c0,0.3,0,0.6,0,0.8c0,0.7-0.1,1.1-0.1,1.4s-0.1,0.6-0.1,1
	c-0.1,0.3-0.1,0.7-0.1,1l0.1,0.1l1.4,0.3l0.2,0h0.2c0.5,0.2,1,0.1,1.5-0.1c0.3-0.2,0.4-0.5,0.4-0.9c0-0.2,0-0.4,0-0.5 M68.7,51
	c-0.1,0-0.3,0-0.4-0.1c0-0.1,0-0.2,0-0.4v-0.2v-0.2c0,0,0.1,0,0.3,0c0.2,0,0.3,0.1,0.5,0.2c0.2,0.1,0.3,0.2,0.2,0.4
	C69.4,50.9,69.1,51.1,68.7,51 M69,53c-0.2,0-0.3,0-0.5,0c-0.2,0-0.3-0.1-0.4-0.1c0-0.1,0-0.3,0-0.4c0-0.1,0-0.3,0.1-0.4
	c0,0,0.2,0,0.4,0c0.2,0,0.3,0.1,0.5,0.2c0.1,0.1,0.2,0.3,0.2,0.4C69.3,52.8,69.2,53,69,53"/>
<path class="st3" d="M72.2,50.4c-0.1-0.1-0.2-0.2-0.4-0.2c-0.1-0.1-0.3-0.1-0.4,0c-0.1,0.1-0.2,0.2-0.2,0.4c0,0.2,0,0.3,0.2,0.5
	c0.1,0.1,0.3,0.2,0.4,0.2c0.4,0.1,0.6,0,0.7-0.4C72.4,50.7,72.3,50.5,72.2,50.4 M72.3,51.7L72.3,51.7L72.3,51.7l-0.3-0.1h-0.3
	l-0.3-0.1l-0.3-0.1l-0.1,0v0.1c0,0.4,0,0.8-0.1,1.4c0,0.2,0,0.4-0.1,0.7s0,0.5-0.1,0.7v0.1l0.1,0.1l0.5,0.1c0.2,0,0.3,0.1,0.5,0.1
	h0.1c0-0.2,0-0.4,0-0.7s0-0.5,0.1-0.7c0.1-0.5,0.2-1,0.2-1.4"/>
<path class="st3" d="M75.7,54.3c0-0.1,0-0.3,0-0.4c0-0.2,0-0.4,0.1-0.7c0-0.2,0-0.4,0.1-0.7l-0.1-0.1c-0.2,0-0.3-0.1-0.5-0.2
	c-0.3-0.1-0.5-0.2-0.5-0.2s0,0.1-0.1,0.2v0.1l-0.1-0.1c-0.1-0.3-0.4-0.4-0.7-0.5c-0.3-0.1-0.7,0-1,0.2c-0.3,0.2-0.4,0.6-0.4,0.9
	c0,0.4,0.1,0.8,0.3,1.1c0.2,0.3,0.6,0.6,0.9,0.7c0.3,0.1,0.6,0,0.8-0.1v0.2c0,0.1-0.1,0.3-0.3,0.3h-0.5c-0.3-0.1-0.6-0.2-0.9-0.4
	l0,0l-0.1,0.1c-0.1,0.2-0.1,0.4-0.2,0.6c0,0.1,0.2,0.2,0.5,0.4c0.2,0.1,0.5,0.2,0.7,0.3c0.4,0.1,0.9,0.1,1.3-0.1
	c0.3-0.3,0.5-0.7,0.5-1.2C75.7,54.6,75.7,54.5,75.7,54.3 M74.5,53.9L74.1,54l-0.4-0.3l-0.1-0.4l0.2-0.4l0.4-0.1l0.4,0.3l0.1,0.4
	L74.5,53.9"/>
<path class="st3" d="M79.3,55.1c0-0.1,0-0.3,0-0.4c0-0.2,0.1-0.4,0.1-0.7s0.1-0.5,0.1-0.7v-0.1c-0.2,0-0.3-0.1-0.5-0.2
	c-0.3-0.1-0.5-0.2-0.5-0.2s-0.1,0.1-0.1,0.2v0.1v-0.1c-0.1-0.3-0.4-0.5-0.7-0.5c-0.3-0.1-0.7,0-1,0.2c-0.3,0.2-0.4,0.6-0.4,0.9
	c0,0.4,0.1,0.8,0.3,1.1c0.2,0.3,0.5,0.6,0.9,0.7c0.3,0.1,0.6,0,0.8-0.1v0.2c0,0.1-0.1,0.3-0.3,0.3h-0.4c-0.3-0.1-0.6-0.2-0.9-0.4
	l0,0l-0.1,0.1c-0.1,0.2-0.1,0.4-0.2,0.6c0,0.1,0.2,0.2,0.5,0.4c0.2,0.1,0.5,0.2,0.7,0.3c0.4,0.2,0.9,0.1,1.3-0.1
	c0.3-0.3,0.5-0.7,0.5-1.2c0-0.1,0-0.3,0-0.4 M78.3,54.8l-0.4,0.1l-0.4-0.3l-0.1-0.4l0.2-0.4l0.4-0.1l0.4,0.3l0.1,0.4L78.3,54.8"/>
<path class="st3" d="M82.4,54.3c-0.2-0.4-0.6-0.6-1-0.7c-0.4-0.1-0.8,0-1.2,0.2c-0.3,0.3-0.5,0.7-0.5,1.1c-0.1,0.5,0.1,0.9,0.4,1.3
	c0.3,0.4,0.7,0.6,1.1,0.7c0.4,0.1,0.9,0.1,1.2-0.1l0.1-0.1c0-0.1-0.1-0.3-0.1-0.4c0-0.1-0.1-0.3-0.2-0.4L82,56.1c-0.2,0-0.4,0-0.6,0
	L81,55.9l-0.2-0.4c0.5,0.1,0.9,0.1,1.1,0.2l0.7,0.1c0.1,0,0.2-0.1,0.2-0.3C82.8,55.1,82.7,54.6,82.4,54.3 M81.6,55
	c-0.2,0-0.5,0-0.7-0.1l-0.1-0.1l0.2-0.3l0.3-0.1l0.3,0.2L81.6,55L81.6,55"/>
<path class="st3" d="M84.9,54.7c0-0.1-0.1-0.3-0.2-0.4c-0.3-0.1-0.6-0.1-0.9,0.1c-0.3,0.1-0.5,0.4-0.5,0.7c0,0.2,0,0.4,0.1,0.5
	c0,0,0.1,0.2,0.3,0.4l0.1,0.4c0,0.1-0.1,0.2-0.3,0.2h-0.4l0,0c0,0.2,0.1,0.3,0.2,0.5c0.1,0.3,0.2,0.4,0.3,0.4c0.2,0.1,0.4,0.1,0.6,0
	c0.2,0,0.4-0.1,0.6-0.2l0.2-0.3l0.1-0.3c0-0.2,0-0.4-0.1-0.5c-0.1-0.1-0.2-0.3-0.3-0.4l-0.1-0.3l0.2-0.2h0.3H85l0.1-0.1L84.9,54.7"
	/>
<path class="st3" d="M87.3,57.2h-0.2h-0.2c-0.1,0-0.2-0.1-0.3-0.2c0-0.1,0-0.3,0-0.4v-0.2v-0.2l0.1-0.1h0.2l0.2,0l0.2,0.1l0.1-0.1
	v-0.2v-0.2v-0.2v-0.2l-0.1-0.1H87l-0.3-0.1l-0.1-0.2c0-0.1,0-0.2,0-0.4c0-0.1,0-0.2,0-0.4l-0.1-0.1C86.3,54,86.2,54,86,53.9l0-0.1
	l-0.2-0.1c-0.1,0-0.1,0.1-0.1,0.3c0,0,0,0.1,0,0.4c0,0.1,0,0.2,0,0.4h-0.1h-0.2V55v0.2v0.2v0.2l0.1,0.1h0.1l0.2,0.2
	c0,0.2,0,0.4-0.1,0.6c0,0.3,0,0.5-0.1,0.6c-0.1,0.5,0.2,0.8,0.8,0.9c0.3,0.1,0.6,0.1,0.9,0l0.1-0.1v-0.1v-0.3L87.3,57.2L87.3,57.2"
	/>
<path class="st3" d="M92.6,58.1c-0.3-0.7-0.5-1.1-0.5-1.1l0.1-0.1c0.4-0.1,0.7-0.6,1-1.3l0.2-0.5l-0.1-0.1L93.1,55h-0.3l-0.2,0
	l-0.2-0.1L92.2,55c-0.2,0.4-0.3,0.6-0.4,0.8c-0.1,0.2-0.2,0.4-0.4,0.5c-0.2,0.1-0.4,0.1-0.6,0.1c-0.1,0-0.1-0.1-0.1-0.3
	s0-0.4,0.1-0.7c0-0.2,0.1-0.5,0.1-0.7l-0.1-0.1l-0.3-0.1l-0.3,0L90,54.4l-0.3-0.1l-0.1,0c0,0.2,0,0.6-0.1,1.1s-0.1,0.9-0.1,1.1
	s-0.1,0.6-0.1,1s-0.1,0.8-0.1,1l0.1,0.1l0.5,0.1c0.2,0,0.4,0.1,0.6,0.1l0.1-0.1c0-0.2,0-0.4,0-0.7s0-0.6,0-0.7s0.1-0.1,0.4-0.1
	c0.2,0.3,0.3,0.6,0.4,0.8c0.1,0.3,0.2,0.6,0.4,0.9v0.1h0.1c0.2,0.1,0.4,0.1,0.6,0.2c0.2,0,0.3,0.1,0.5,0.1l0.1-0.2
	c0-0.1-0.1-0.5-0.4-1.2"/>
<path class="st3" d="M96.1,57.3c-0.2-0.3-0.6-0.6-1-0.7c-0.4-0.1-0.9,0-1.2,0.3c-0.3,0.3-0.5,0.7-0.5,1.1c-0.1,0.5,0.1,0.9,0.4,1.3
	c0.3,0.3,0.7,0.6,1.1,0.7c0.4,0.1,0.9,0.1,1.2-0.2l0.1-0.1c0-0.1-0.1-0.3-0.1-0.4c0-0.1-0.1-0.2-0.2-0.4l-0.3,0.1
	c-0.2,0-0.4,0-0.6,0l-0.4-0.2l-0.2-0.4c0.5,0,0.9,0.1,1.1,0.1h0.7c0.1,0,0.2-0.1,0.2-0.3C96.4,57.9,96.3,57.5,96.1,57.3 M95.2,58
	c-0.2,0-0.5,0-0.7-0.1l-0.1-0.1l0.2-0.3l0.3-0.1l0.3,0.2L95.2,58L95.2,58"/>
<path class="st3" d="M99.8,58.1c-0.2-0.4-0.6-0.6-1-0.7c-0.3-0.1-0.5,0-0.8,0.2l0,0v-0.1c0-0.4,0-0.7,0.1-0.8c0-0.1,0-0.2,0-0.3
	l0.1-0.3l-0.1-0.1l-0.6-0.1l-0.6,0l-0.1,0l0,0c0,0.7-0.1,1.5-0.1,2.4c0,0.6-0.1,1.3-0.2,1.9l0,0l0.2,0.1l0.9,0.2l0.1-0.1l0.1-0.1
	l0,0c0.2,0.2,0.4,0.4,0.7,0.4c0.4,0.1,0.8,0,1.1-0.3c0.3-0.3,0.5-0.6,0.5-1C100.1,58.8,100,58.4,99.8,58.1 M98.8,59.4
	c-0.1,0.1-0.3,0.2-0.4,0.1c-0.1,0-0.2-0.1-0.3-0.2c-0.2-0.3-0.1-0.7,0.1-0.9c0.1-0.1,0.3-0.1,0.4-0.1c0.2,0,0.3,0.1,0.4,0.3
	C99,58.7,99,58.9,99,59C99,59.2,98.9,59.3,98.8,59.4"/>
<path class="st3" d="M103.8,58.6L103.8,58.6L103.8,58.6c-0.2-0.1-0.3-0.2-0.5-0.2c-0.1-0.1-0.3-0.1-0.4-0.1l-0.1,0.1l-0.1,0.2l0,0
	c-0.2-0.3-0.4-0.4-0.7-0.5c-0.4-0.1-0.8,0-1.1,0.3c-0.3,0.3-0.5,0.7-0.5,1.1c0,0.4,0.1,0.8,0.3,1.2c0.2,0.3,0.6,0.6,1,0.7
	c0.3,0,0.6-0.1,0.8-0.2l0.1,0v0.2v0.2c0.3,0.1,0.6,0.1,0.9,0.1l0.1-0.1c0-0.2,0-0.5,0-0.7c0-0.3,0-0.6,0-0.7
	C103.6,59.4,103.7,59,103.8,58.6 M102.3,60.1c-0.1,0.1-0.3,0.1-0.4,0.1c-0.2,0-0.3-0.1-0.4-0.3c-0.1-0.1-0.2-0.3-0.1-0.5
	c0-0.2,0.1-0.3,0.2-0.4c0.1-0.1,0.3-0.1,0.4-0.1c0.2,0,0.3,0.1,0.4,0.2c0.1,0.1,0.1,0.3,0.1,0.5C102.6,59.8,102.5,60,102.3,60.1"/>
<path class="st3" d="M107.4,59.1c-0.2-0.3-0.6-0.5-1-0.6c-0.3,0-0.6,0-0.8,0.2l0,0v-0.1c0-0.4,0.1-0.7,0.1-0.9c0,0,0-0.2,0.1-0.3
	v-0.3V57c-0.2,0-0.4,0-0.6,0c-0.3,0-0.5,0-0.6,0l-0.1,0.1l0,0c0,0.7,0,1.5-0.1,2.3c0,0.6-0.1,1.3-0.2,1.9v0.1l0.2,0.1
	c0.6,0.1,0.9,0.1,0.9,0.1l0.1-0.1l0.1-0.1l0,0c0.2,0.2,0.4,0.3,0.7,0.4c0.4,0.1,0.8-0.1,1.1-0.4c0.3-0.3,0.5-0.7,0.5-1.1
	c0.1-0.4,0-0.8-0.2-1.2 M106.5,60.6c-0.1,0.1-0.3,0.2-0.4,0.1c-0.2,0-0.3-0.1-0.4-0.2c-0.1-0.1-0.1-0.3-0.1-0.5
	c0-0.2,0.1-0.3,0.2-0.4c0.1-0.1,0.3-0.2,0.4-0.1c0.2,0,0.3,0.1,0.4,0.2c0.1,0.1,0.1,0.3,0.1,0.5C106.6,60.3,106.6,60.4,106.5,60.6"
	/>
<path class="st3" d="M113.1,61.1l-0.2-0.4l0,0l-0.2,0.1l-0.3,0.2c-0.2,0.1-0.3,0.1-0.5,0.1c-0.3,0-0.5-0.2-0.7-0.4
	c-0.1-0.2-0.2-0.5-0.2-0.8c0-0.3,0.1-0.6,0.3-0.8c0.2-0.2,0.5-0.3,0.8-0.3c0.2,0,0.4,0.1,0.5,0.2l0.3,0.3l0.2,0.1h0.1
	c0.1-0.1,0.2-0.3,0.3-0.4c0.1-0.1,0.2-0.3,0.3-0.5v-0.1c-0.4-0.5-1-0.7-1.6-0.7c-0.6,0-1.2,0.2-1.6,0.6c-0.4,0.4-0.7,1-0.7,1.6
	c-0.1,0.6,0.1,1.2,0.4,1.7c0.4,0.5,0.9,0.7,1.5,0.8c0.6,0,1.2-0.2,1.6-0.6l0.1-0.1C113.4,61.6,113.3,61.4,113.1,61.1"/>
<path class="st3" d="M116.7,59.4c-0.2-0.1-0.4-0.2-0.7-0.2c-0.2,0-0.3,0-0.5,0.1l-0.4,0.2l-0.2,0.1l0,0c0-0.3,0.1-0.7,0.1-1.1v-0.3
	v-0.3v-0.1c-0.2,0-0.4,0-0.6,0h-0.3H114v0l0,0c0,0.2,0,0.3,0,0.5c0,0.2,0,0.3,0,0.5c0,0.4-0.1,1-0.1,1.7c0,0.3,0,0.5-0.1,0.8
	c0,0.3,0,0.6-0.1,0.8l0.1,0.1c0.1,0,0.2,0,0.4,0h0.5l0.1-0.1c0-0.1,0-0.3,0-0.5c0-0.1,0-0.3,0-0.4l0.1-0.8l0.2-0.2l0.3-0.1
	c0.3,0,0.4,0.1,0.3,0.4s0,0.5-0.1,0.8c0,0.3-0.1,0.5-0.1,0.8l0.1,0.1c0.2,0,0.3,0,0.5,0h0.5l0.1-0.1c0.1-0.7,0.1-1.5,0.2-2.2
	C116.9,59.7,116.8,59.5,116.7,59.4"/>
<path class="st3" d="M120.8,59.4L120.8,59.4v-0.1c-0.1,0-0.3-0.1-0.4-0.1h-0.4l-0.1,0.2l-0.1,0.2l0,0c-0.2-0.2-0.5-0.4-0.8-0.3
	c-0.4,0-0.9,0.2-1.2,0.5c-0.3,0.3-0.5,0.7-0.5,1.2c0,0.4,0.1,0.8,0.3,1.1c0.2,0.3,0.6,0.5,1,0.5c0.3,0,0.6-0.2,0.8-0.4h0.1v0.2v0.2
	c0.3,0,0.6,0,0.9-0.1l0.1-0.1c0-0.2,0-0.4,0-0.7s0-0.5,0-0.7c0-0.4,0-0.8,0.2-1.2 M119.2,61.3c-0.1,0.1-0.3,0.2-0.4,0.2
	c-0.2,0-0.3-0.1-0.4-0.2c-0.1-0.1-0.2-0.3-0.1-0.4c0-0.2,0.1-0.3,0.2-0.4c0.1-0.1,0.3-0.2,0.5-0.2c0.2,0,0.3,0.1,0.4,0.2
	c0.1,0.1,0.2,0.3,0.1,0.4C119.4,61,119.3,61.1,119.2,61.3"/>
<path class="st3" d="M122.5,57.9c-0.1-0.1-0.3-0.1-0.4-0.1c-0.2,0-0.3,0.1-0.4,0.2c-0.1,0.1-0.2,0.3-0.2,0.4c0,0.2,0,0.3,0.2,0.4
	c0.1,0.1,0.3,0.1,0.4,0.1c0.3,0,0.6-0.2,0.7-0.6c0,0,0,0,0,0C122.7,58.1,122.6,58,122.5,57.9 M122.5,59.2L122.5,59.2L122.5,59.2
	l-0.4,0h-0.3h-0.6l-0.1,0.1l0,0c0,0.5,0,1,0,1.4c0,0.2,0,0.4-0.1,0.7c0,0.3,0,0.5,0,0.7v0.1h0.1h0.5c0.2,0,0.3,0,0.5-0.1l0.1-0.1
	c0-0.2,0-0.4,0-0.7s0.1-0.5,0.1-0.7C122.4,60.1,122.5,59.6,122.5,59.2"/>
<path class="st3" d="M126.1,61c0-0.3,0-0.5,0-0.6c0-0.3,0.1-0.7,0.1-1c0-0.2-0.1-0.5-0.3-0.6c-0.2-0.1-0.4-0.1-0.7-0.1
	c-0.2,0.1-0.5,0.1-0.7,0.3c-0.1,0.1-0.3,0.2-0.4,0.3l-0.1-0.4c-0.2,0-0.4,0.1-0.6,0.2c-0.2,0.1-0.4,0.1-0.5,0.1l-0.1,0.1v0
	c0.1,0.4,0.1,0.8,0,1.2c0,0.3-0.1,0.5-0.1,0.8c0,0.3,0,0.6-0.1,0.7l0.1,0.1c0.2,0,0.3,0,0.5,0h0.5l0.1-0.1l0.2-1.7l0.2-0.3l0.3-0.1
	c0.3,0,0.4,0.1,0.3,0.4v0.3V61c0,0.1,0,0.3,0,0.4c0,0.1,0,0.3,0,0.4L125,62c0.2,0,0.3,0,0.5,0c0.2,0,0.3,0,0.5-0.1l0.1-0.1
	c0-0.2,0-0.4,0-0.6"/>
<path class="st3" d="M128.1,56.7h-0.2l-0.3,0h-0.3h-0.3L127,57c0,0.1,0,0.2,0,0.4c0,0.1,0,0.3,0,0.4c0,0.1,0,0.3-0.1,0.4
	c0,0.1,0,0.3-0.1,0.4c0,0.4,0.1,0.7,0.2,1.1c0,0,0.1,0.1,0.3,0l0.3-0.2c0.1-0.4,0.2-0.7,0.3-1.1c0.1-0.4,0.2-0.7,0.2-1.1
	C128.2,57,128.2,56.7,128.1,56.7 M127.8,60.2c-0.1-0.1-0.3-0.1-0.4-0.1c-0.2,0-0.3,0.1-0.4,0.3c-0.1,0.1-0.2,0.3-0.2,0.5
	c0,0.1,0,0.3,0.1,0.4c0.1,0.1,0.3,0.1,0.4,0.1c0.2,0,0.3-0.1,0.5-0.3c0.1-0.1,0.2-0.3,0.2-0.5C128,60.5,127.9,60.3,127.8,60.2"/>
<path class="st4" d="M103.2,22.3l-0.5,8L99,36.1l-5.5,4.2L88.6,43L82,44.6l-8.7-0.9l-5-4.1c0,0-1.4-5.7-1.4-6.7s3-7,3-7l4.9-4.6
	l4.8-3.1l5.6-2.2l4.6-0.7h2.5l8.3,2.8L103.2,22.3"/>
<path class="st5" d="M78.6,20.7c8.3-4.9,18-4.5,21.5,0.8S99.7,35.2,91.4,40s-18,4.5-21.5-0.9S70.3,25.5,78.6,20.7"/>
<path class="st0" d="M77.4,18.9c9.8-5.7,21.3-5.4,25.7,0.8S103,35.3,93.2,41s-21.3,5.3-25.7-0.8S67.5,24.6,77.4,18.9 M78.1,19.5
	c-8.7,5.2-12.6,14.2-8.6,19.9s14.3,6.2,23,1s12.5-14.2,8.6-19.9S86.7,14.3,78.1,19.5"/>
<path class="st6" d="M73.1,31.1c2.9-1.2,9.3-5.9,16.7-13.2l2.5-3.9l2.8-2c0,0,3.2,1.7,3.1,2.4c0,1.2,0.1,2.3,0.3,3.5
	c0.4,0.9,0.6,1.9,0.8,2.8c0,0.6,0.8,4.2,0.3,4.9c-0.3,0.4-0.5,0.8-0.6,1.3c-1,0.5-2,1.1-2.9,1.7c-0.6,0.5-2.7,2.9-3.5,3.7
	c-2.9,2.5-6.2,4.7-9.6,6.5c-3.3,1.4-8.8,3.1-10.2,2s-3.2-1.9-2.8-4.4S73.1,31.2,73.1,31.1"/>
<path class="st7" d="M73.7,33.1c0,2.3-1.8,7.5,2.1,7.2c2.7-0.4,5.3-1.3,7.6-2.8c2.2-1.2,4.4-2.4,6.6-3.8c0.3-0.2,2.8-2.1,2.6-2.3
	c-0.9-1.2-4.6-1.2-5.1-2.4c-0.5-1.6-0.8-3.3-0.9-5c-3.4,2.5-7,5.6-10.8,7.9c-0.6,0.3-1.1,0.6-1.7,0.8C73.8,32.8,73.2,33.3,73.7,33.1
	"/>
<path class="st1" d="M95.5,22.1v0.5c0.1,0.3,0.2,0.6,0.3,0.9l0.2,0.4c0.1,0.2,0.3,0.1,0.4,0l0.4-0.3c0.2-0.1,0.3-0.5,0.4-0.7
	c0.2-0.2,0.2-0.5,0-0.8l-0.4-0.4C96.7,21.5,95.5,21.9,95.5,22.1"/>
<path class="st8" d="M94.2,14.3c0.2-0.3,0.8-1.6,1.3-1.3c0.8,0.5,2.4,1.6,2.7,2.5c0.2,0.5-0.3,1.5-0.1,2c0.1,0.2,0.3,1.2,0.3,1.3
	c-0.4,0.3-1.1-1.5-1.1-1.5c-0.2-0.4-0.3-1.5-0.7-1.7s-1.7-0.2-2.2-0.3c-0.2,0-0.3-0.4-0.3-0.5S94.1,14.5,94.2,14.3"/>
<path class="st5" d="M94,17.5c0.3-0.2,0.6-0.6,1-0.5l0.6,0.7c0.1,0.2,0.7-0.1,0.9-0.1s0.4,0.2,0.5,0.3c0.3,0.4-0.1,1.4-0.4,1.6
	l-0.2,0.3c-0.3,0.3-0.6,0.4-1,0.5l-0.8-0.1c-0.3-0.4-0.6-1-0.6-1.5v-0.2v-0.5v-0.3l-0.1-0.1"/>
<path class="st9" d="M88.2,22c0.6-0.3,3.7-4.9,4-3.8c0.4,1.5,1.7,2.7,2,4.3c0.6,1.7,1.4,3.2,2.5,4.5c-0.8,0.6-1.5,1.3-2.2,2.1
	c-0.9,0.9-1.5,2.3-2.9,1.4s-4-2.5-3.7-4.3c0.2-0.9,0.2-1.8,0.2-2.8C88.2,23.3,88.2,21.8,88.2,22"/>
<path class="st0" d="M74.5,31.5c-0.2,0.1,13-10.3,15.1-13.8s4.1-6.2,5.1-6.4c0.9-0.2,1.9,0.2,2.4,0.9c0.7,0.8,2,1.5,1.9,3.6
	s-0.5,4.1,0.2,6.8s0,3.8-1.1,4.2c1.2-1.6-0.3-5-0.1-6.7c0.1-1.2,0.6-3.8,0.2-4.6c-0.8-1.1-1.7-2-2.7-2.9c0,0-1.8,0.9-1.7,2.1
	s0.7,5.3,0.8,6.4c0.2,2.3,1.8,3.6,2.8,5.3c-1.2-0.2-3.5-2.3-3.6-4c-0.1-2.5-1.3-3.2-1.4-5.6c0-0.6-3.8,4.6-6.8,6.8s-9,7.1-9.6,7.3
	C75.4,31.1,74.9,31.3,74.5,31.5"/>
<path class="st0" d="M73.4,31.6c-2.8,4.2-2.8,10.9,5.1,8.4c12.9-4.2,11.5-7.6,18-12.3c-4.5,6-6.8,10.1-18.1,13.5
	c-3.6,1.1-7.8,1.3-7.7-4C70.9,33.5,73,31.4,73.4,31.6"/>
<path class="st6" d="M95.8,15.2c-0.4,0.2-1.1,0.6-1.4,0.9c-0.2,0.1-0.3,0.3-0.2,0.5c0.4,0.7,1-0.1,1.5,0s0.6,0.3,0.6,0.8
	c0,0.3,0,0.8,0.2,1c0.7,0.6-0.4,1-0.8,1.5c-0.1,0.2-0.1,0.5,0,0.5c0.3,0.2,0.6,0.1,0.9,0c0.6-0.2,1.1-0.7,1.3-1.4
	c0.1-0.6-1-1.4-0.9-1.9C97.3,16.1,96.6,15.5,95.8,15.2"/>
<path class="st6" d="M95.7,21.3c0.5-0.2,1-0.3,1.6-0.2l0.7,0.3l0.2,0.2l-0.1,0.3c-0.2,0.6-0.5,1.1-0.9,1.6l-0.2,0.3h-0.3l-0.1-0.2
	l0.3-1.6C96.7,21.5,95.7,21.6,95.7,21.3"/>
<path class="st0" d="M87.7,29c0.6,2.3,1.5,4.3,2.5,4.3c-1-1.6-1.6-3.4-1.9-5.2c-0.2-2.9,0-5.8,0.5-8.6L87.4,21
	C86.9,23.7,87,26.4,87.7,29"/>
<path class="st0" d="M87.4,25.3c0.3,0.6,5.3,5.8,6.6,4.9c-0.7,0.5-0.3,1.3-0.9,1.1S87.2,28.8,87.4,25.3"/>
<path class="st6" d="M90.8,20.1c0.3,0.2,0.2,0.2,0.1,0.5s-0.5,0-0.4-0.2l0.1-0.2L90.8,20.1"/>
<path class="st6" d="M89.3,24.5c0.4,0,0.3,0.1,0.3,0.4s-0.4,0.3-0.5,0v-0.2L89.3,24.5"/>
<path class="st6" d="M89.9,25.2c0.2,0,0.2,0,0.2,0.3s-0.3,0.2-0.3,0v-0.1L89.9,25.2"/>
<path class="st6" d="M95.3,27.1c0.2,0,0.2,0,0.2,0.3s-0.3,0.2-0.3,0v-0.1L95.3,27.1"/>
<path class="st6" d="M92.7,23.7c0.3-0.1,0.2,0,0.4,0.2s-0.2,0.3-0.4,0.1l-0.1-0.1L92.7,23.7"/>
<path class="st6" d="M92.7,27.6c0.3-0.1,0.2,0,0.4,0.2s-0.2,0.3-0.3,0.1l-0.1-0.2L92.7,27.6"/>
<path class="st8" d="M96.8,24.5c0.3,0.4,0.6,0.8,0.7,1.2c0,0.1,0,0.4,0.1,0.6v0.3c0.2,0,0.4-0.2,0.4-0.4l0.1-0.2v-0.5
	c0-0.1,0.1-0.4,0.1-0.6v-0.4c0-0.3-0.1-0.5-0.2-0.8l-0.1-0.2l-0.3,0.1c-0.2,0.1-0.4,0.4-0.6,0.6L96.8,24.5"/>
<path class="st0" d="M69.1,6.9c-1.3,2.2,0.2,5.5,3.1,7.1c2.7,1.5,5.9,1.4,6.3,4.2c0.4,2.6-4.2,3.7-3.3,5.7c0.3,0.6,1.2,1.5,3.1,2.5
	C78,24.6,73.4,22.2,76,20c1.3-1.1,1.8-1.5,1.1-3.2C76.6,15.6,69.1,12.8,69.1,6.9"/>
<path class="st0" d="M81.7,7.9c-0.5,1.8-3.5,5.5-1.2,6.7c1.2,0.6,4-0.2,4.8,0.6c1.1,1.1-2.7,3.2-1.9,4.5c0.4,0.8,1.5,0.5,1.5,0.6
	c0.1-0.2-0.9-1.1-1.2-1.3c-1.9-1.5,2.9-3.1,1.3-4.6c-1-0.9-4,0-5.2-1C76,10.4,81.7,8,81.2,4.7c-0.3-2.5-3.4-4.3-6.3-4.4
	C79.8-1.4,82.6,4.5,81.7,7.9"/>
<path class="st3" d="M101.4,13.6v-1.7h0.8c0.1,0,0.2,0,0.4,0.1l0.2,0.2l0.1,0.3l-0.1,0.3c-0.1,0.1-0.2,0.1-0.4,0.2l0.2,0.1l0.2,0.2
	l0.3,0.5h-0.3l-0.2-0.4l-0.2-0.3l-0.1-0.1H102h-0.4v0.8L101.4,13.6 M101.7,12.6h0.5h0.2l0.1-0.1l0.1-0.2l-0.1-0.2l-0.3-0.1h-0.6
	L101.7,12.6z"/>
<g>
	<path class="st3" d="M102.1,11.1C102.1,11.1,102.1,11.1,102.1,11.1c-0.9,0-1.6,0.7-1.6,1.6c0,0.9,0.7,1.6,1.6,1.5
		c0.9,0,1.5-0.7,1.5-1.6C103.7,11.9,103,11.1,102.1,11.1z M102.2,14.1C102.2,14.1,102.2,14.1,102.2,14.1c-0.8,0.1-1.4-0.5-1.5-1.3
		c-0.1-0.8,0.5-1.4,1.2-1.5c0.1,0,0.2,0,0.2,0c0.8,0,1.4,0.6,1.4,1.4c0,0,0,0,0,0C103.5,13.5,102.9,14.1,102.2,14.1z"/>
</g>
</svg>
