<?xml version="1.0" encoding="utf-8"?>
<!-- Generator: Adobe Illustrator 24.3.0, SVG Export Plug-In . SVG Version: 6.00 Build 0)  -->
<svg version="1.1" id="Layer_1" xmlns="http://www.w3.org/2000/svg" xmlns:xlink="http://www.w3.org/1999/xlink" x="0px" y="0px"
	 viewBox="0 0 672.2 251" style="enable-background:new 0 0 672.2 251;" xml:space="preserve">
<style type="text/css">
	.st0{fill:#313C93;}
</style>
<g transform="translate(142.73046,-469.18799)">
	<path class="st0" d="M220.7,609.5c-1.9-3.4-2.4-5.6-2.2-9.6c0.5-8,5.9-14.1,13.4-15.1l2.3-0.3l-2.4,5.1c-3.2,6.7-6.6,14.8-8,18.8
		c-0.6,1.8-1.3,3.2-1.5,3.2C222.1,611.6,221.4,610.7,220.7,609.5L220.7,609.5z M240.5,620.9c-4.8-0.8-6-1.4-5.6-2.6
		c1.9-6.2,12.7-29.8,13.6-29.8c0.3,0,2.1,1.6,4,3.6c6.3,6.3,8.8,14,7.7,23.5c-0.3,2.6-0.8,4.9-1,5.1
		C258.6,621.3,243.8,621.5,240.5,620.9L240.5,620.9z M42.9,648.6c-4.6-2.8-3.7-11.4,2.6-24.1c10.7-21.9,29.2-41.4,39.2-41.4
		c3.6,0,5,1.3,5.4,5c1.6,15.2-22.8,53.1-38.7,60.4C48.6,649.7,44.7,649.7,42.9,648.6L42.9,648.6z M141.2,650.4
		c-4.6-2.5-6.3-10-4.5-20c2-11.6,7.3-22.2,14.8-29.5c7.6-7.5,16.6-9.4,23.4-5.1c2.2,1.4,5.3,5.2,5.3,6.6c0,1.2-3.1,9.9-5.9,16.3
		c-6.6,15.4-15.2,27-22.7,30.7C147.3,651.5,143.7,651.8,141.2,650.4L141.2,650.4z M232.8,651.6c-3.3-2.3-3.8-9.7-1.3-21.5
		c0.7-3.1,1-3.8,1.6-3.5c2.6,1,10.6,2.3,16.6,2.5c3.9,0.2,7,0.4,7,0.5c0,0.1-0.8,1.9-1.7,3.9c-3.7,8.1-10,15.8-14.6,17.8
		C237.9,652.6,234.3,652.7,232.8,651.6L232.8,651.6z M481.8,719.7c0.9-0.5,1-1.1,1-6.8c0-3.7,0.3-8,0.8-10.4
		c1.1-5.9,4.4-15.7,8.9-26.1c4.2-9.9,18.2-38.2,26.7-54.2c8.2-15.3,10.3-20.7,10.3-26.5c0-3.5-1-4.7-4-4.7c-3.7,0-6.5,2.8-13.7,13.5
		c-14.8,22.1-31.4,38.6-39.1,38.6c-2.6,0-5.2-2-6.2-4.8c-1.9-5.7,0.2-15.2,7.1-31.8c3.6-8.7,4.1-13.9,1.5-15
		c-1.8-0.8-3.5-0.1-6.3,2.4c-3.4,3.2-5.6,6.6-9.8,15.1c-2,4-4.9,9.3-6.5,11.8c-10.3,15.8-23.6,27.8-31,27.8c-5.3,0-7.3-3.2-6.2-10.3
		c1.1-6.8,3.5-12.5,10.8-25.1c5.7-9.7,6.6-12.1,6.4-16.6c-0.1-2-2-4-3.8-4c-0.7,0-3.5,1.2-6.3,2.7c-7.8,4.2-12.5,5-19.6,3.4
		l-3.5-0.8l0.3-1.5c1.4-7,1.2-11.8-0.5-14.5c-0.8-1.3-3.5-2.6-5.2-2.6c-6.3,0-10.7,5.6-10.8,13.8c-0.1,4.2,1,7.1,3.8,10.6l1.7,2.1
		l-1.8,4.6c-7.8,20.3-20.9,35.5-30.5,35.5c-5.7,0-9-5.4-9-14.4c0-4.7,0-4.6,4.3-9.8c5.7-6.7,10.9-15.8,12-20.8
		c1.3-6.1-2.5-9.4-7.9-6.9c-2.5,1.1-8.2,7-11.1,11.4c-3.3,5-6.5,11.5-8.2,17.2c-0.8,2.6-1.8,5.4-2.1,6.2c-1.1,2.5-6.9,9.4-10.5,12.3
		c-4.8,4-8.4,5.7-12.1,5.7c-5.6,0-7.9-2.6-7.8-8.9c0.1-8.3,3.3-16.5,10.7-26.7c9.3-12.9,10.7-19.9,3.9-19.9c-3.6,0-6.7,2-12.3,7.6
		c-7.3,7.4-17.1,13.4-28.3,17.4l-4.2,1.5l-0.2-6.7c-0.2-5.6-0.5-7.4-1.6-10.7c-3-8.9-7.9-14.8-16.1-19.4c-2.7-1.5-2.8-1.7-2.2-2.6
		c0.4-0.6,1.8-3,3.3-5.5c4.3-7.2,13.3-20.7,18.5-27.5l4.8-6.4l4.5-2.2c7.4-3.7,12-7.8,14.7-13.2c0.7-1.4,1.4-3.3,1.5-4.2
		c0.3-2-0.6-4.5-1.9-5.2c-4.1-2.2-13.5,3.1-25.2,14.3l-5.1,4.9l-3.9,0.6c-5.3,0.8-26.4,0.8-31.4,0c-10.8-1.8-18.7-4-32.6-9.2
		c-11.7-4.4-15.6-5.1-18.6-3.2c-4.1,2.5-4.2,5.4-0.7,16.7c3.1,9.9,4,14.2,4.4,21.9c0.5,9.3-0.3,18.7-2.4,28.9l-0.5,2.4l-1.4-1.9
		c-3.5-4.7-9.1-7-17-7c-8.2,0-15.2,3.1-22.3,9.7c-7.1,6.7-11.6,13.3-16,23.5c-6.9,16.3-15.4,28.6-21.8,31.8
		c-2.8,1.4-6.2,1.6-8.4,0.5c-3.1-1.6-4.4-6.9-3.4-14c0.8-5.7,1.5-8.4,5.4-20.4c4.6-14,5.6-17.9,5.6-22.4c0-4.4-0.6-6.9-2.5-9.9
		c-4-6.3-14.7-8.6-24.6-5.2c-11.2,3.9-25.4,15.3-36.7,29.8c-5.5,7-16.4,18.1-23.4,23.9c-26.1,21.6-55.8,33.6-83.3,33.6
		c-23.6,0-41.6-10.8-49.4-29.7c-3-7.2-3.6-11.3-3.6-22.2c0.1-17.8,4.1-33.9,12.8-51.6c7.4-15,15.7-26.6,27.9-39
		c25-25.4,55.1-39.9,87.9-42.3c19.2-1.4,32.8,3.4,40.1,14.2c10.5,15.6,7.8,40.8-6.8,61.6c-3.8,5.4-13.9,15.7-19.5,19.9
		c-17.3,13-39,20.5-54.1,18.7c-15.8-1.9-23.6-16.3-18.5-34.1c5-17.1,21.6-32.5,45.9-42.5c6.1-2.5,7.2-3.4,5.8-4.7
		c-2.7-2.7-16.4,0.2-27.9,5.9c-11,5.6-23.4,16.1-30.4,26.1c-4.2,5.9-8.1,14.1-9.7,20.1c-1.1,4.4-1.2,5.6-1.1,11.3
		c0.2,5.1,0.4,7,1.3,9.6c7.1,20,31.6,26,62.7,15.2c6.5-2.2,20.3-9.2,26.9-13.7c8.3-5.5,13.3-9.6,20.7-17c19-19,28.3-40.2,26.7-60.7
		c-0.9-10.8-4.4-18.8-11.7-26c-6.2-6.2-13.1-9.7-23.6-12.1c-4.9-1.1-22.6-1.5-30.1-0.8c-43.2,4.5-84.7,27.5-115.2,63.7
		c-17.2,20.4-29.5,46-32.9,68.3c-0.9,5.7-1,20.3-0.2,25.4c3,19.9,13.6,34.8,30.6,43.1c26.7,13,61.9,10.7,95.6-6.1
		c13.6-6.8,26.4-15.7,36.5-25.3c3.1-3,3.9-3.5,3.7-2.5c-1.7,7.1-1.7,14.6,0.1,19.2c1.4,3.6,4,6.6,7.1,8.2c3.7,1.9,9.7,2.1,14.4,0.6
		c4.6-1.5,9-3.9,13.9-7.6c4.1-3.1,12.3-11.1,15.8-15.5l1.8-2.2l-0.2,2.5c-0.3,3.2,0.6,8.7,1.9,12.3c1.6,4.2,5.6,8.2,9.5,9.3
		c4.3,1.2,7.9,0.7,13-1.8c3.4-1.7,5-2.9,8.8-6.8c2.6-2.6,6.1-6.8,7.9-9.3l3.2-4.6l0.6,3.8c1.3,7.6,5.3,13.5,11.3,16.5
		c2.7,1.3,3.9,1.6,7.7,1.8c10.1,0.4,18.9-3.6,28.1-12.9c22-22.3,35.3-71.3,29.8-109.8c-0.3-2-0.2-2.1,0.6-1.8
		c1.8,0.7,15.3,3.2,21.1,4c7.7,1,22.7,1.6,31.7,1.3c3.9-0.1,7.2-0.2,7.3-0.2c0.1,0-1.1,1.8-2.7,3.9c-5.3,7-14.8,21.8-17.1,26.8
		c-0.8,1.8-1,1.8-3.4,1.8c-9.6,0-19.9,5-24.4,11.9c-4.8,7.2-5.3,15.6-1.6,23c1.3,2.5,6.4,8.2,8.3,9.2c1,0.5,1,0.6-0.4,6.1
		c-2,8.3-2.6,15-1.9,20.2c1.6,10.4,7.3,16.4,16.3,16.9c5,0.3,8.6-0.5,13.8-3.2c10-5.1,19.8-17.5,24.7-31.1c0.8-2.2,0.8-2.2,5.4-3.8
		c5.1-1.7,11.2-4.5,15.9-7.2l3-1.8l-1.4,3.1c-4.5,9.9-5.9,19.4-4.2,26.9c2.5,10.4,9.7,14.7,20.9,12.1c6.8-1.6,16-7.5,21.4-13.7
		c2.3-2.7,3.1-3,3.1-1.3c0,1.8,3.5,7.9,5.5,9.6c4.1,3.5,11.1,5,17.2,3.5c11.7-2.7,22-13.1,30.7-30.8c1.8-3.6,4.1-8.8,5-11.4l1.7-4.7
		l2.5,0.7c1.8,0.5,4,0.7,8,0.5c3-0.1,5.5-0.2,5.5-0.1c0,0.1-0.8,1.4-1.7,3c-2.8,4.7-5.6,10.9-7.6,16.9c-4.9,15-3.4,25.3,4.2,28.8
		c7,3.2,16,1.6,25.3-4.6c4.7-3.1,12.9-11.1,17.7-17.2l3.2-4.1l0.3,5.3c0.9,15.1,7.9,21.8,19.1,18.6c5.9-1.7,13-6.8,21.3-15.4
		c4.2-4.4,6.2-5.8,6.2-4.6c0,0.2-1.4,3.1-3.2,6.5c-19,36.4-25.8,53.5-25.8,65.2c0,3.5,0.6,5.7,2.3,8
		C474.9,719.5,479.5,721,481.8,719.7L481.8,719.7z"/>
</g>
</svg>
