<?xml version="1.0" encoding="UTF-8"?>
<!DOCTYPE svg PUBLIC "-//W3C//DTD SVG 1.1//EN" "http://www.w3.org/Graphics/SVG/1.1/DTD/svg11.dtd">
<!-- Creator: CorelDRAW 2021 (64-Bit) -->
<svg xmlns="http://www.w3.org/2000/svg" xml:space="preserve" width="2.82613in" height="1.15221in" version="1.1" style="shape-rendering:geometricPrecision; text-rendering:geometricPrecision; image-rendering:optimizeQuality; fill-rule:evenodd; clip-rule:evenodd"
viewBox="0 0 959.5 391.19"
 xmlns:xlink="http://www.w3.org/1999/xlink"
 xmlns:xodm="http://www.corel.com/coreldraw/odm/2003">
 <defs>
  <style type="text/css">
   <![CDATA[
    .fil0 {fill:#FEFEFE;fill-rule:nonzero}
    .fil1 {fill:#009846;fill-rule:nonzero}
    .fil3 {fill:#2E0099;fill-rule:nonzero}
    .fil5 {fill:url(#id0)}
    .fil4 {fill:url(#id1)}
    .fil6 {fill:url(#id2)}
    .fil2 {fill:url(#id3)}
   ]]>
  </style>
  <linearGradient id="id0" gradientUnits="userSpaceOnUse" x1="202.78" y1="284.06" x2="138.17" y2="250.45">
   <stop offset="0" style="stop-opacity:1; stop-color:#64B24D"/>
   <stop offset="0.329412" style="stop-opacity:1; stop-color:#64B24D"/>
   <stop offset="0.564706" style="stop-opacity:1; stop-color:#468C44"/>
   <stop offset="0.819608" style="stop-opacity:1; stop-color:#27663B"/>
   <stop offset="1" style="stop-opacity:1; stop-color:#27663B"/>
  </linearGradient>
  <linearGradient id="id1" gradientUnits="userSpaceOnUse" x1="455.58" y1="52.02" x2="496.24" y2="153.11">
   <stop offset="0" style="stop-opacity:1; stop-color:#65AF4C"/>
   <stop offset="0.329412" style="stop-opacity:1; stop-color:#65AF4C"/>
   <stop offset="0.564706" style="stop-opacity:1; stop-color:#478A44"/>
   <stop offset="0.819608" style="stop-opacity:1; stop-color:#28653B"/>
   <stop offset="1" style="stop-opacity:1; stop-color:#28653B"/>
  </linearGradient>
  <linearGradient id="id2" gradientUnits="userSpaceOnUse" x1="167.37" y1="166.37" x2="193.57" y2="196.75">
   <stop offset="0" style="stop-opacity:1; stop-color:#F6AF28"/>
   <stop offset="0.188235" style="stop-opacity:1; stop-color:#F6AF28"/>
   <stop offset="0.431373" style="stop-opacity:1; stop-color:#F18A2C"/>
   <stop offset="0.690196" style="stop-opacity:1; stop-color:#EB6530"/>
   <stop offset="1" style="stop-opacity:1; stop-color:#EB6530"/>
  </linearGradient>
  <linearGradient id="id3" gradientUnits="userSpaceOnUse" x1="374.49" y1="70.37" x2="443.16" y2="120.16">
   <stop offset="0" style="stop-opacity:1; stop-color:#F5AF28"/>
   <stop offset="0.188235" style="stop-opacity:1; stop-color:#F5AF28"/>
   <stop offset="0.431373" style="stop-opacity:1; stop-color:#F08B2B"/>
   <stop offset="0.690196" style="stop-opacity:1; stop-color:#EA672F"/>
   <stop offset="1" style="stop-opacity:1; stop-color:#EA672F"/>
  </linearGradient>
 </defs>
 <g id="Layer_x0020_1">
  <metadata id="CorelCorpID_0Corel-Layer"/>
  <g id="_2308395411856">
   <polygon class="fil0" points="958.7,225.18 920.11,225.18 920.11,186.59 958.7,186.59 "/>
   <path class="fil1" d="M920.71 224.58l37.39 0 0 -37.39 -37.39 0 0 37.39zm38.79 1.4l-40.18 0 0 -40.18 40.18 0 0 40.18z"/>
   <path class="fil1" d="M950.75 205.89c0,6.26 -5.08,11.34 -11.34,11.34 -6.26,0 -11.34,-5.08 -11.34,-11.34 0,-6.26 5.08,-11.34 11.34,-11.34 6.26,0 11.34,5.08 11.34,11.34z"/>
   <path class="fil2" d="M378.42 83.43c-3.78,24.02 5.62,40.56 12.06,57.01l0 0c3.24,8.28 6.3,15.12 8.19,19.88 0.39,-0.48 -2.32,-18.31 -4.48,-35.71l0 0c-0.72,-5.8 -1.38,-11.56 -1.84,-16.61l0 0c-0.57,-6.19 -0.43,-11.84 -0.18,-14.98l0 0c0.4,-4.92 0.92,-10.35 2.11,-16.43l0 0c5.11,-26.04 21.9,-46.04 21.9,-46.04l0 0 -0.85 -2.06c-32.65,18.03 -36.91,54.92 -36.91,54.92l0 0z"/>
   <path class="fil3" d="M402.59 164.77c0,0 -2.73,-21.04 -4.83,-37.8 -1.19,-9.49 -6.87,-34.83 2.77,-61.04 6.57,-17.85 23.83,-51.86 68.09,-65.93l6.81 52.31c0,0 -24.25,14.01 -35.63,31.66 -4.07,6.31 -9.01,13.51 -12.51,22.72 -9.23,24.31 -16.77,48.16 -19.6,56.14l-5.09 1.93z"/>
   <path class="fil4" d="M454.85 72.63c-21.56,19.41 -28.94,47.32 -28.94,47.32l0 0 -15.56 44.82c26.54,4.77 55.16,-1.36 81.72,-21.56l0 0c26.55,-20.2 35.86,-54.47 35.86,-54.47l0 0 14.52 -42.78c-5.84,-0.89 -11.5,-1.31 -16.97,-1.31l0 0c-28.85,0 -52.51,11.66 -70.63,27.97l0 0z"/>
   <path class="fil3" d="M19.03 212.25l0 105.5 -19.03 0 0 -86.97c0,-10.23 8.3,-18.53 18.53,-18.53l0.5 0z"/>
   <path class="fil3" d="M64.12 236.61c0.31,0 1.43,0.05 3.35,0.16 1.92,0.1 4.19,0.55 6.78,1.33 2.6,0.78 5.36,2 8.27,3.67 2.91,1.67 5.62,4.06 8.11,7.18 2.5,3.12 4.55,7.05 6.16,11.78 1.61,4.73 2.42,10.58 2.42,17.55l0 39.47 -19.04 0 0 -39.47c0,-2.29 -0.21,-4.63 -0.62,-7.02 -0.42,-2.39 -1.2,-4.58 -2.34,-6.55 -1.15,-1.97 -2.76,-3.61 -4.84,-4.91 -2.08,-1.3 -4.84,-1.95 -8.27,-1.95 -3.43,0 -6.19,0.65 -8.27,1.95 -2.08,1.3 -3.69,2.94 -4.84,4.91 -1.15,1.98 -1.92,4.16 -2.34,6.55 -0.42,2.4 -0.62,4.73 -0.62,7.02l0 39.47 -19.04 0 0 -39.47c0,-6.97 0.8,-12.82 2.42,-17.55 1.61,-4.73 3.67,-8.66 6.16,-11.78 2.5,-3.12 5.2,-5.51 8.11,-7.18 2.91,-1.66 5.67,-2.89 8.27,-3.67 2.6,-0.78 4.84,-1.22 6.71,-1.33 1.87,-0.1 3.02,-0.16 3.43,-0.16z"/>
   <path class="fil3" d="M145.57 301.52c3.85,0 6.94,-0.78 9.28,-2.34 2.34,-1.56 4.16,-3.51 5.46,-5.85 1.3,-2.34 2.16,-4.86 2.58,-7.57 0.41,-2.7 0.62,-5.2 0.62,-7.49 0,-2.29 -0.21,-4.78 -0.62,-7.49 -0.42,-2.7 -1.28,-5.23 -2.58,-7.57 -1.3,-2.34 -3.12,-4.29 -5.46,-5.85 -2.34,-1.56 -5.44,-2.34 -9.28,-2.34 -3.85,0 -6.94,0.78 -9.28,2.34 -2.34,1.56 -4.13,3.51 -5.38,5.85 -1.25,2.34 -2.08,4.86 -2.5,7.57 -0.42,2.71 -0.62,5.2 -0.62,7.49 0,2.29 0.21,4.78 0.62,7.49 0.41,2.71 1.25,5.23 2.5,7.57 1.25,2.34 3.04,4.29 5.38,5.85 2.34,1.56 5.43,2.34 9.28,2.34zm17.94 -51.8l0 -18.72c0,-10.25 8.31,-18.57 18.57,-18.57l0 65.68c0,5.41 -0.52,10.14 -1.56,14.2 -1.04,4.06 -2.42,7.57 -4.13,10.53 -1.72,2.96 -3.67,5.41 -5.85,7.33 -2.18,1.93 -4.42,3.51 -6.71,4.76 -5.41,2.81 -11.49,4.26 -18.25,4.37 -6.97,-0.1 -13.16,-1.56 -18.57,-4.37 -2.29,-1.25 -4.55,-2.83 -6.79,-4.76 -2.24,-1.92 -4.21,-4.34 -5.93,-7.26 -1.71,-2.91 -3.1,-6.4 -4.13,-10.45 -1.04,-4.06 -1.56,-8.79 -1.56,-14.2 0,-5.41 0.49,-10.14 1.48,-14.2 0.99,-4.06 2.29,-7.57 3.9,-10.53 1.61,-2.96 3.43,-5.43 5.46,-7.41 2.03,-1.97 4.14,-3.59 6.32,-4.84 2.66,-1.55 5.53,-2.72 8.61,-3.51 5.91,-1.5 14.6,-1.49 20.24,0.83 0.03,0.01 0.06,0.03 0.09,0.04 2.6,1.15 5.25,2.89 7.96,5.23 2.7,2.34 2.52,6 4.29,10.37l-3.43 -4.53z"/>
   <path class="fil3" d="M246.04 268.13c-0.52,-1.66 -1.17,-3.33 -1.95,-4.99 -0.78,-1.66 -1.85,-3.17 -3.2,-4.53 -1.35,-1.35 -2.96,-2.42 -4.84,-3.2 -1.87,-0.78 -4.06,-1.17 -6.55,-1.17 -2.5,0 -4.68,0.39 -6.55,1.17 -1.87,0.78 -3.49,1.85 -4.84,3.2 -1.35,1.35 -2.44,2.86 -3.28,4.53 -0.83,1.67 -1.46,3.33 -1.87,4.99l33.08 0zm19.66 0c0.21,1.56 0.39,3.17 0.55,4.84 0.16,1.67 0.23,3.43 0.23,5.3l0 2.81 -54.61 0c0.21,1.77 0.47,3.56 0.78,5.38 0.31,1.82 0.83,3.62 1.56,5.38 1.14,2.71 2.91,5.1 5.31,7.18 2.39,2.08 5.72,3.12 9.98,3.12 4.26,0 7.59,-1.04 9.99,-3.12 2.39,-2.08 4.16,-4.47 5.31,-7.18l20.28 0c-0.84,3.64 -2,6.81 -3.51,9.52 -1.51,2.71 -3.17,5.05 -4.99,7.02 -1.82,1.98 -3.77,3.62 -5.85,4.91 -2.08,1.3 -4.11,2.37 -6.08,3.2 -4.79,1.87 -9.83,2.81 -15.13,2.81 -6.97,-0.1 -13.16,-1.56 -18.57,-4.37 -2.29,-1.25 -4.55,-2.83 -6.79,-4.76 -2.24,-1.92 -4.21,-4.34 -5.93,-7.26 -1.72,-2.91 -3.1,-6.4 -4.13,-10.45 -1.04,-4.06 -1.56,-8.79 -1.56,-14.2 0,-5.41 0.52,-10.14 1.56,-14.2 1.04,-4.06 2.42,-7.57 4.13,-10.53 1.72,-2.96 3.69,-5.43 5.93,-7.41 2.24,-1.98 4.5,-3.59 6.79,-4.84 5.41,-2.91 11.6,-4.47 18.57,-4.68 5.72,0.21 11.08,1.4 16.07,3.59 2.08,0.94 4.19,2.16 6.32,3.67 2.13,1.51 4.11,3.38 5.93,5.62 1.82,2.24 3.43,4.89 4.84,7.96 1.4,3.07 2.42,6.63 3.04,10.69z"/>
   <path class="fil3" d="M312.82 255.02c-4.06,0 -7.28,0.68 -9.67,2.03 -2.39,1.35 -4.19,3.15 -5.38,5.38 -1.2,2.24 -1.98,4.73 -2.34,7.49 -0.36,2.76 -0.55,5.54 -0.55,8.35 0,2.29 0.21,4.79 0.63,7.49 0.41,2.71 1.27,5.23 2.57,7.57 1.3,2.34 3.12,4.29 5.46,5.85 2.34,1.56 5.43,2.34 9.28,2.34 3.85,0 6.94,-0.78 9.28,-2.34 2.34,-1.56 4.13,-3.51 5.38,-5.85 1.25,-2.34 2.08,-4.86 2.5,-7.57 0.41,-2.7 0.62,-5.2 0.62,-7.49 0,-2.29 -0.21,-4.78 -0.62,-7.49 -0.42,-2.7 -1.25,-5.23 -2.5,-7.57 -1.25,-2.34 -3.04,-4.29 -5.38,-5.85 -2.34,-1.56 -5.44,-2.34 -9.28,-2.34zm-36.51 23.4c0,-6.55 0.68,-12.4 2.03,-17.55 1.35,-5.15 3.51,-9.52 6.48,-13.1 2.96,-3.59 6.73,-6.34 11.31,-8.27 4.58,-1.92 10.14,-2.89 16.69,-2.89 6.87,0.21 13,1.77 18.41,4.68 2.29,1.25 4.55,2.86 6.79,4.84 2.23,1.98 4.21,4.45 5.93,7.41 1.71,2.96 3.12,6.47 4.21,10.53 1.09,4.06 1.64,8.79 1.64,14.2 0,5.41 -0.5,10.14 -1.48,14.2 -0.99,4.06 -2.29,7.54 -3.9,10.45 -1.61,2.91 -3.43,5.33 -5.46,7.26 -2.03,1.93 -4.14,3.51 -6.32,4.76 -4.99,2.81 -10.71,4.26 -17.16,4.37 -3.23,-0.21 -6.35,-0.88 -9.36,-2.03 -2.6,-1.04 -5.25,-2.7 -7.96,-4.99 -2.71,-2.29 -4.94,-5.62 -6.71,-9.99l3.43 4.53 0 37.13 -18.57 0 0 -65.53z"/>
   <path class="fil3" d="M412.67 268.13c-0.52,-1.66 -1.17,-3.33 -1.95,-4.99 -0.78,-1.66 -1.85,-3.17 -3.2,-4.53 -1.35,-1.35 -2.96,-2.42 -4.84,-3.2 -1.87,-0.78 -4.06,-1.17 -6.55,-1.17 -2.5,0 -4.68,0.39 -6.55,1.17 -1.87,0.78 -3.49,1.85 -4.84,3.2 -1.35,1.35 -2.44,2.86 -3.28,4.53 -0.83,1.67 -1.46,3.33 -1.87,4.99l33.08 0zm19.66 0c0.21,1.56 0.39,3.17 0.55,4.84 0.16,1.67 0.23,3.43 0.23,5.3l0 2.81 -54.61 0c0.21,1.77 0.47,3.56 0.78,5.38 0.31,1.82 0.83,3.62 1.56,5.38 1.14,2.71 2.91,5.1 5.31,7.18 2.39,2.08 5.72,3.12 9.98,3.12 4.26,0 7.59,-1.04 9.99,-3.12 2.39,-2.08 4.16,-4.47 5.31,-7.18l20.28 0c-0.83,3.64 -2,6.81 -3.51,9.52 -1.51,2.71 -3.17,5.05 -4.99,7.02 -1.82,1.98 -3.77,3.62 -5.85,4.91 -2.08,1.3 -4.11,2.37 -6.08,3.2 -4.79,1.87 -9.83,2.81 -15.13,2.81 -6.97,-0.1 -13.16,-1.56 -18.57,-4.37 -2.29,-1.25 -4.55,-2.83 -6.79,-4.76 -2.24,-1.92 -4.21,-4.34 -5.93,-7.26 -1.71,-2.91 -3.1,-6.4 -4.13,-10.45 -1.04,-4.06 -1.56,-8.79 -1.56,-14.2 0,-5.41 0.52,-10.14 1.56,-14.2 1.04,-4.06 2.42,-7.57 4.13,-10.53 1.72,-2.96 3.69,-5.43 5.93,-7.41 2.24,-1.98 4.5,-3.59 6.79,-4.84 5.41,-2.91 11.6,-4.47 18.57,-4.68 5.72,0.21 11.08,1.4 16.07,3.59 2.08,0.94 4.19,2.16 6.32,3.67 2.13,1.51 4.11,3.38 5.93,5.62 1.82,2.24 3.43,4.89 4.84,7.96 1.4,3.07 2.42,6.63 3.04,10.69z"/>
   <path class="fil3" d="M477.73 236.61c0.31,0 1.43,0.05 3.36,0.16 1.92,0.1 4.19,0.55 6.78,1.33 2.6,0.78 5.36,2 8.27,3.67 2.91,1.67 5.62,4.06 8.11,7.18 2.5,3.12 4.55,7.05 6.16,11.78 1.61,4.73 2.42,10.58 2.42,17.55l0 39.47 -19.04 0 0 -39.47c0,-2.29 -0.21,-4.63 -0.62,-7.02 -0.42,-2.39 -1.2,-4.58 -2.34,-6.55 -1.15,-1.97 -2.76,-3.61 -4.84,-4.91 -2.08,-1.3 -4.84,-1.95 -8.27,-1.95 -3.43,0 -6.19,0.65 -8.27,1.95 -2.08,1.3 -3.69,2.94 -4.84,4.91 -1.15,1.98 -1.92,4.16 -2.34,6.55 -0.42,2.4 -0.62,4.73 -0.62,7.02l0 39.47 -19.04 0 0 -39.47c0,-6.97 0.8,-12.82 2.42,-17.55 1.61,-4.73 3.67,-8.66 6.16,-11.78 2.5,-3.12 5.2,-5.51 8.11,-7.18 2.91,-1.66 5.67,-2.89 8.27,-3.67 2.6,-0.78 4.84,-1.22 6.71,-1.33 1.87,-0.1 3.02,-0.16 3.43,-0.16z"/>
   <path class="fil3" d="M559.17 301.52c3.85,0 6.94,-0.78 9.28,-2.34 2.34,-1.56 4.16,-3.51 5.46,-5.85 1.3,-2.34 2.16,-4.86 2.58,-7.57 0.41,-2.7 0.62,-5.2 0.62,-7.49 0,-2.29 -0.21,-4.78 -0.62,-7.49 -0.42,-2.7 -1.28,-5.23 -2.58,-7.57 -1.3,-2.34 -3.12,-4.29 -5.46,-5.85 -2.34,-1.56 -5.44,-2.34 -9.28,-2.34 -3.85,0 -6.94,0.78 -9.28,2.34 -2.34,1.56 -4.13,3.51 -5.38,5.85 -1.25,2.34 -2.08,4.86 -2.5,7.57 -0.42,2.71 -0.62,5.2 -0.62,7.49 0,2.29 0.21,4.78 0.62,7.49 0.41,2.71 1.25,5.23 2.5,7.57 1.25,2.34 3.04,4.29 5.38,5.85 2.34,1.56 5.43,2.34 9.28,2.34zm17.94 -51.8l0 -18.72c0,-10.25 8.31,-18.57 18.57,-18.57l0 65.68c0,5.41 -0.52,10.14 -1.56,14.2 -1.04,4.06 -2.42,7.57 -4.14,10.53 -1.72,2.96 -3.67,5.41 -5.85,7.33 -2.19,1.93 -4.42,3.51 -6.71,4.76 -5.41,2.81 -11.5,4.26 -18.26,4.37 -6.97,-0.1 -13.16,-1.56 -18.57,-4.37 -2.29,-1.25 -4.55,-2.83 -6.79,-4.76 -2.24,-1.92 -4.21,-4.34 -5.93,-7.26 -1.72,-2.91 -3.1,-6.4 -4.13,-10.45 -1.04,-4.06 -1.56,-8.79 -1.56,-14.2 0,-5.41 0.49,-10.14 1.48,-14.2 0.99,-4.06 2.29,-7.57 3.9,-10.53 1.61,-2.96 3.43,-5.43 5.46,-7.41 2.03,-1.97 4.14,-3.59 6.32,-4.84 4.99,-2.91 10.71,-4.47 17.16,-4.68 3.22,0.31 6.34,1.09 9.36,2.34 2.6,1.15 5.25,2.89 7.96,5.23 2.7,2.34 4.94,5.7 6.71,10.06l-3.43 -4.53z"/>
   <path class="fil3" d="M659.65 268.13c-0.52,-1.66 -1.17,-3.33 -1.95,-4.99 -0.78,-1.66 -1.85,-3.17 -3.2,-4.53 -1.35,-1.35 -2.96,-2.42 -4.84,-3.2 -1.87,-0.78 -4.06,-1.17 -6.55,-1.17 -2.5,0 -4.68,0.39 -6.55,1.17 -1.87,0.78 -3.49,1.85 -4.84,3.2 -1.35,1.35 -2.44,2.86 -3.28,4.53 -0.83,1.67 -1.46,3.33 -1.87,4.99l33.08 0zm19.66 0c0.21,1.56 0.39,3.17 0.55,4.84 0.16,1.67 0.23,3.43 0.23,5.3l0 2.81 -54.61 0c0.21,1.77 0.47,3.56 0.78,5.38 0.31,1.82 0.83,3.62 1.56,5.38 1.14,2.71 2.91,5.1 5.31,7.18 2.39,2.08 5.72,3.12 9.98,3.12 4.26,0 7.59,-1.04 9.99,-3.12 2.39,-2.08 4.16,-4.47 5.31,-7.18l20.28 0c-0.83,3.64 -2,6.81 -3.51,9.52 -1.51,2.71 -3.17,5.05 -4.99,7.02 -1.82,1.98 -3.77,3.62 -5.85,4.91 -2.08,1.3 -4.11,2.37 -6.08,3.2 -4.79,1.87 -9.83,2.81 -15.13,2.81 -6.97,-0.1 -13.16,-1.56 -18.57,-4.37 -2.29,-1.25 -4.55,-2.83 -6.79,-4.76 -2.24,-1.92 -4.21,-4.34 -5.93,-7.26 -1.72,-2.91 -3.1,-6.4 -4.13,-10.45 -1.04,-4.06 -1.56,-8.79 -1.56,-14.2 0,-5.41 0.52,-10.14 1.56,-14.2 1.04,-4.06 2.42,-7.57 4.13,-10.53 1.72,-2.96 3.69,-5.43 5.93,-7.41 2.23,-1.98 4.5,-3.59 6.79,-4.84 5.41,-2.91 11.6,-4.47 18.57,-4.68 5.72,0.21 11.08,1.4 16.07,3.59 2.08,0.94 4.19,2.16 6.32,3.67 2.13,1.51 4.11,3.38 5.93,5.62 1.82,2.24 3.43,4.89 4.84,7.96 1.4,3.07 2.42,6.63 3.04,10.69z"/>
   <path class="fil3" d="M724.71 236.61c0.31,0 1.43,0.05 3.35,0.16 1.92,0.1 4.19,0.55 6.79,1.33 2.6,0.78 5.36,2 8.27,3.67 2.91,1.67 5.62,4.06 8.11,7.18 2.5,3.12 4.55,7.05 6.16,11.78 1.61,4.73 2.42,10.58 2.42,17.55l0 39.47 -19.03 0 0 -39.47c0,-2.29 -0.21,-4.63 -0.62,-7.02 -0.42,-2.39 -1.2,-4.58 -2.34,-6.55 -1.15,-1.97 -2.76,-3.61 -4.84,-4.91 -2.08,-1.3 -4.84,-1.95 -8.27,-1.95 -3.43,0 -6.19,0.65 -8.27,1.95 -2.08,1.3 -3.69,2.94 -4.84,4.91 -1.15,1.98 -1.93,4.16 -2.34,6.55 -0.42,2.4 -0.62,4.73 -0.62,7.02l0 39.47 -19.03 0 0 -39.47c0,-6.97 0.8,-12.82 2.42,-17.55 1.61,-4.73 3.67,-8.66 6.16,-11.78 2.5,-3.12 5.2,-5.51 8.11,-7.18 2.91,-1.66 5.67,-2.89 8.27,-3.67 2.6,-0.78 4.84,-1.22 6.71,-1.33 1.87,-0.1 3.02,-0.16 3.43,-0.16z"/>
   <path class="fil3" d="M842.04 268.28l-19.35 0c-0.52,-1.66 -1.17,-3.3 -1.95,-4.91 -0.78,-1.61 -1.82,-3.04 -3.12,-4.29 -1.3,-1.25 -2.89,-2.24 -4.76,-2.96 -1.87,-0.73 -4.11,-1.09 -6.71,-1.09 -3.85,0 -6.94,0.78 -9.28,2.34 -2.34,1.56 -4.14,3.51 -5.38,5.85 -1.25,2.34 -2.08,4.86 -2.5,7.57 -0.42,2.71 -0.63,5.2 -0.63,7.49 0,2.29 0.21,4.79 0.63,7.49 0.41,2.71 1.25,5.23 2.5,7.57 1.25,2.34 3.04,4.29 5.38,5.85 2.34,1.56 5.43,2.34 9.28,2.34 5.1,0 8.92,-1.35 11.47,-4.06 2.55,-2.7 4.29,-5.83 5.23,-9.36l19.19 0c-0.62,4.16 -1.64,7.78 -3.04,10.84 -1.4,3.07 -2.99,5.72 -4.76,7.96 -1.77,2.24 -3.69,4.08 -5.77,5.54 -2.08,1.46 -4.16,2.65 -6.24,3.59 -4.89,2.18 -10.25,3.28 -16.07,3.28 -6.97,-0.1 -13.16,-1.56 -18.57,-4.37 -2.29,-1.25 -4.55,-2.83 -6.79,-4.76 -2.24,-1.92 -4.21,-4.34 -5.93,-7.26 -1.72,-2.91 -3.1,-6.4 -4.13,-10.45 -1.04,-4.06 -1.56,-8.79 -1.56,-14.2 0,-5.41 0.52,-10.14 1.56,-14.2 1.04,-4.06 2.44,-7.57 4.21,-10.53 1.77,-2.96 3.75,-5.43 5.93,-7.41 2.19,-1.98 4.47,-3.59 6.87,-4.84 5.41,-2.91 11.6,-4.47 18.57,-4.68 5.72,0.21 11.02,1.4 15.91,3.59 2.08,0.94 4.16,2.16 6.24,3.67 2.08,1.51 4,3.41 5.77,5.7 1.77,2.29 3.35,4.97 4.76,8.03 1.4,3.07 2.42,6.63 3.04,10.69z"/>
   <path class="fil3" d="M905.23 268.13c-0.52,-1.66 -1.17,-3.33 -1.95,-4.99 -0.78,-1.66 -1.85,-3.17 -3.2,-4.53 -1.35,-1.35 -2.96,-2.42 -4.84,-3.2 -1.87,-0.78 -4.06,-1.17 -6.55,-1.17 -2.5,0 -4.68,0.39 -6.55,1.17 -1.87,0.78 -3.49,1.85 -4.84,3.2 -1.35,1.35 -2.44,2.86 -3.28,4.53 -0.83,1.67 -1.46,3.33 -1.87,4.99l33.08 0zm19.66 0c0.21,1.56 0.39,3.17 0.55,4.84 0.16,1.67 0.23,3.43 0.23,5.3l0 2.81 -54.61 0c0.21,1.77 0.47,3.56 0.78,5.38 0.31,1.82 0.83,3.62 1.56,5.38 1.14,2.71 2.91,5.1 5.31,7.18 2.39,2.08 5.72,3.12 9.98,3.12 4.26,0 7.59,-1.04 9.99,-3.12 2.39,-2.08 4.16,-4.47 5.3,-7.18l20.28 0c-0.83,3.64 -2,6.81 -3.51,9.52 -1.51,2.71 -3.17,5.05 -4.99,7.02 -1.82,1.98 -3.77,3.62 -5.85,4.91 -2.08,1.3 -4.11,2.37 -6.08,3.2 -4.79,1.87 -9.83,2.81 -15.13,2.81 -6.97,-0.1 -13.16,-1.56 -18.56,-4.37 -2.29,-1.25 -4.55,-2.83 -6.79,-4.76 -2.24,-1.92 -4.21,-4.34 -5.93,-7.26 -1.72,-2.91 -3.1,-6.4 -4.13,-10.45 -1.04,-4.06 -1.56,-8.79 -1.56,-14.2 0,-5.41 0.52,-10.14 1.56,-14.2 1.04,-4.06 2.42,-7.57 4.13,-10.53 1.72,-2.96 3.69,-5.43 5.93,-7.41 2.23,-1.98 4.5,-3.59 6.79,-4.84 5.41,-2.91 11.6,-4.47 18.56,-4.68 5.72,0.21 11.08,1.4 16.07,3.59 2.08,0.94 4.19,2.16 6.32,3.67 2.13,1.51 4.11,3.38 5.93,5.62 1.82,2.24 3.43,4.89 4.84,7.96 1.4,3.07 2.42,6.63 3.04,10.69z"/>
   <path class="fil5" d="M163.6 230.74l0 46.96c0.14,21 -13.89,30.81 -36.6,37.23 33.21,15.26 55.21,-8.06 55.21,-33.43l0 0 0 -69.37c-10.28,0 -18.61,8.33 -18.61,18.61l0 0z"/>
   <path class="fil6" d="M195.79 171.54l0 -20.08c-18.49,2.55 -32.78,18.46 -32.78,37.65l0 0 0 7.97 0 12.11c18.49,-2.55 32.78,-18.46 32.78,-37.65z"/>
   <polygon class="fil3" points="387.55,375.04 383.42,379.58 383.42,390.61 373.33,390.61 373.33,348.79 383.42,348.79 383.42,367.23 386.92,361.92 395.94,348.79 408.41,348.79 394.28,367.29 408.41,390.61 396.46,390.61 "/>
   <path class="fil3" d="M421.97 384.29c1.21,0 2.21,-0.26 3,-0.77 0.8,-0.52 1.36,-1.1 1.71,-1.75l0 -4.97 -2.81 0c-3.37,0 -5.06,1.51 -5.06,4.54 0,0.88 0.3,1.59 0.89,2.14 0.59,0.55 1.35,0.82 2.27,0.82zm6.06 6.32c-0.34,-0.63 -0.65,-1.56 -0.92,-2.79 -1.78,2.24 -4.27,3.36 -7.47,3.36 -2.93,0 -5.42,-0.89 -7.47,-2.66 -2.05,-1.77 -3.07,-4 -3.07,-6.68 0,-3.37 1.24,-5.92 3.73,-7.64 2.49,-1.72 6.11,-2.59 10.86,-2.59l2.99 0 0 -1.65c0,-2.87 -1.24,-4.3 -3.71,-4.3 -2.3,0 -3.45,1.13 -3.45,3.41l-9.68 0c0,-3 1.28,-5.44 3.83,-7.32 2.56,-1.87 5.82,-2.81 9.78,-2.81 3.96,0 7.09,0.97 9.39,2.9 2.3,1.93 3.48,4.59 3.53,7.96l0 13.76c0.04,2.85 0.48,5.04 1.32,6.55l0 0.49 -9.68 0z"/>
   <path class="fil3" d="M450.63 359.53l0.32 3.65c2.15,-2.81 5.1,-4.22 8.88,-4.22 3.24,0 5.65,0.97 7.25,2.9 1.6,1.93 2.43,4.85 2.49,8.73l0 20.02 -9.71 0 0 -19.62c0,-1.57 -0.32,-2.72 -0.95,-3.46 -0.63,-0.74 -1.78,-1.11 -3.45,-1.11 -1.9,0 -3.3,0.75 -4.22,2.24l0 21.95 -9.68 0 0 -31.08 9.08 0z"/>
   <polygon class="fil3" points="504.23,375.04 500.1,379.58 500.1,390.61 490.01,390.61 490.01,348.79 500.1,348.79 500.1,367.23 503.6,361.92 512.62,348.79 525.09,348.79 510.95,367.29 525.09,390.61 513.14,390.61 "/>
   <path class="fil3" d="M538.64 384.29c1.21,0 2.21,-0.26 3,-0.77 0.79,-0.52 1.36,-1.1 1.71,-1.75l0 -4.97 -2.82 0c-3.37,0 -5.06,1.51 -5.06,4.54 0,0.88 0.3,1.59 0.89,2.14 0.59,0.55 1.35,0.82 2.27,0.82zm6.06 6.32c-0.34,-0.63 -0.65,-1.56 -0.92,-2.79 -1.78,2.24 -4.27,3.36 -7.47,3.36 -2.93,0 -5.42,-0.89 -7.47,-2.66 -2.05,-1.77 -3.07,-4 -3.07,-6.68 0,-3.37 1.24,-5.92 3.73,-7.64 2.49,-1.72 6.11,-2.59 10.86,-2.59l2.99 0 0 -1.65c0,-2.87 -1.24,-4.3 -3.71,-4.3 -2.3,0 -3.45,1.13 -3.45,3.41l-9.68 0c0,-3 1.28,-5.44 3.83,-7.32 2.56,-1.87 5.82,-2.81 9.78,-2.81 3.96,0 7.09,0.97 9.39,2.9 2.3,1.93 3.48,4.59 3.53,7.96l0 13.76c0.04,2.85 0.48,5.04 1.32,6.55l0 0.49 -9.68 0z"/>
   <path class="fil3" d="M567.31 359.53l0.32 3.65c2.15,-2.81 5.1,-4.22 8.88,-4.22 3.24,0 5.65,0.97 7.25,2.9 1.6,1.93 2.43,4.85 2.48,8.73l0 20.02 -9.71 0 0 -19.62c0,-1.57 -0.32,-2.72 -0.95,-3.46 -0.63,-0.74 -1.78,-1.11 -3.45,-1.11 -1.9,0 -3.3,0.75 -4.22,2.24l0 21.95 -9.68 0 0 -31.08 9.08 0z"/>
   <polygon class="fil3" points="619.93,348.79 629.27,377.89 638.58,348.79 651.85,348.79 651.85,390.61 641.74,390.61 641.74,380.84 642.71,360.85 632.6,390.61 625.94,390.61 615.8,360.82 616.77,380.84 616.77,390.61 606.69,390.61 606.69,348.79 "/>
   <path class="fil3" d="M671.75 366.43c-2.83,0 -4.52,1.88 -5.06,5.63l9.77 0 0 -0.75c0.04,-1.55 -0.35,-2.75 -1.18,-3.6 -0.82,-0.85 -2,-1.28 -3.53,-1.28zm1.09 24.76c-4.77,0 -8.63,-1.42 -11.58,-4.27 -2.95,-2.84 -4.42,-6.54 -4.42,-11.1l0 -0.8c0,-3.18 0.59,-5.99 1.77,-8.42 1.18,-2.43 2.9,-4.31 5.16,-5.64 2.26,-1.33 4.94,-2 8.04,-2 4.37,0 7.81,1.35 10.34,4.06 2.53,2.71 3.79,6.49 3.79,11.33l0 3.76 -19.25 0c0.34,1.74 1.1,3.11 2.27,4.11 1.17,1 2.68,1.49 4.54,1.49 3.06,0 5.46,-1.07 7.18,-3.22l4.42 5.23c-1.21,1.67 -2.92,2.99 -5.13,3.98 -2.21,0.99 -4.59,1.48 -7.14,1.48z"/>
   <path class="fil3" d="M700.05 390.61l-9.71 0 0 -31.08 9.71 0 0 31.08zm-10.28 -39.09c0,-1.38 0.5,-2.51 1.49,-3.39 1,-0.88 2.29,-1.32 3.88,-1.32 1.59,0 2.88,0.44 3.88,1.32 1,0.88 1.49,2.01 1.49,3.39 0,1.38 -0.5,2.51 -1.49,3.39 -1,0.88 -2.29,1.32 -3.88,1.32 -1.59,0 -2.88,-0.44 -3.88,-1.32 -1,-0.88 -1.49,-2.01 -1.49,-3.39z"/>
   <path class="fil3" d="M714.9 359.53l0.32 3.65c2.15,-2.81 5.1,-4.22 8.88,-4.22 3.23,0 5.65,0.97 7.25,2.9 1.6,1.93 2.43,4.85 2.48,8.73l0 20.02 -9.71 0 0 -19.62c0,-1.57 -0.32,-2.72 -0.95,-3.46 -0.63,-0.74 -1.78,-1.11 -3.45,-1.11 -1.9,0 -3.3,0.75 -4.22,2.24l0 21.95 -9.68 0 0 -31.08 9.08 0z"/>
   <path class="fil3" d="M764.36 372.83l0 10.02 6.61 0c1.82,0 3.22,-0.42 4.19,-1.25 0.98,-0.83 1.46,-2 1.46,-3.52 0,-3.49 -1.73,-5.24 -5.2,-5.26l-7.07 0zm0 -6.61l5.26 0c2.2,-0.02 3.77,-0.42 4.71,-1.21 0.94,-0.79 1.41,-1.95 1.41,-3.49 0,-1.77 -0.51,-3.04 -1.52,-3.82 -1.01,-0.78 -2.65,-1.17 -4.91,-1.17l-4.94 0 0 9.68zm-10.08 24.39l0 -41.82 15.02 0c5.38,0 9.47,0.99 12.28,2.96 2.81,1.97 4.21,4.83 4.21,8.59 0,2.16 -0.5,4.01 -1.49,5.54 -1,1.53 -2.46,2.66 -4.39,3.39 2.18,0.57 3.86,1.65 5.03,3.22 1.17,1.57 1.75,3.49 1.75,5.74 0,4.1 -1.3,7.18 -3.89,9.23 -2.59,2.06 -6.44,3.11 -11.53,3.15l-16.98 0z"/>
   <path class="fil3" d="M801.24 362.86c2.07,-2.6 4.71,-3.91 7.93,-3.91 3.43,0 6.01,1.01 7.76,3.04 1.74,2.03 2.63,5.03 2.67,8.99l0 19.62 -9.71 0 0 -19.39c0,-1.65 -0.33,-2.86 -1,-3.63 -0.67,-0.78 -1.81,-1.16 -3.42,-1.16 -1.99,0 -3.4,0.63 -4.22,1.9l0 22.29 -9.68 0 0 -44.12 9.68 0 0 16.37z"/>
   <path class="fil3" d="M836.43 384.29c1.21,0 2.21,-0.26 3,-0.77 0.79,-0.52 1.36,-1.1 1.71,-1.75l0 -4.97 -2.81 0c-3.37,0 -5.06,1.51 -5.06,4.54 0,0.88 0.3,1.59 0.89,2.14 0.59,0.55 1.35,0.82 2.27,0.82zm6.06 6.32c-0.34,-0.63 -0.65,-1.56 -0.92,-2.79 -1.78,2.24 -4.27,3.36 -7.47,3.36 -2.93,0 -5.42,-0.89 -7.47,-2.66 -2.05,-1.77 -3.07,-4 -3.07,-6.68 0,-3.37 1.24,-5.92 3.73,-7.64 2.49,-1.72 6.11,-2.59 10.86,-2.59l2.99 0 0 -1.65c0,-2.87 -1.24,-4.3 -3.71,-4.3 -2.3,0 -3.45,1.13 -3.45,3.41l-9.68 0c0,-3 1.28,-5.44 3.83,-7.32 2.56,-1.87 5.82,-2.81 9.78,-2.81 3.96,0 7.09,0.97 9.39,2.9 2.3,1.93 3.48,4.59 3.53,7.96l0 13.76c0.04,2.85 0.48,5.04 1.32,6.55l0 0.49 -9.68 0z"/>
   <path class="fil3" d="M875.01 368.29l-3.19 -0.23c-3.04,0 -5,0.96 -5.86,2.87l0 19.68 -9.68 0 0 -31.08 9.08 0 0.32 3.99c1.63,-3.04 3.9,-4.57 6.81,-4.57 1.03,0 1.93,0.11 2.7,0.34l-0.17 8.99z"/>
   <path class="fil3" d="M889.08 384.29c1.21,0 2.21,-0.26 3,-0.77 0.8,-0.52 1.37,-1.1 1.71,-1.75l0 -4.97 -2.81 0c-3.37,0 -5.06,1.51 -5.06,4.54 0,0.88 0.3,1.59 0.89,2.14 0.59,0.55 1.35,0.82 2.27,0.82zm6.06 6.32c-0.34,-0.63 -0.65,-1.56 -0.92,-2.79 -1.78,2.24 -4.27,3.36 -7.47,3.36 -2.93,0 -5.42,-0.89 -7.47,-2.66 -2.05,-1.77 -3.07,-4 -3.07,-6.68 0,-3.37 1.24,-5.92 3.73,-7.64 2.49,-1.72 6.11,-2.59 10.86,-2.59l2.99 0 0 -1.65c0,-2.87 -1.24,-4.3 -3.71,-4.3 -2.3,0 -3.45,1.13 -3.45,3.41l-9.68 0c0,-3 1.28,-5.44 3.83,-7.32 2.56,-1.87 5.82,-2.81 9.78,-2.81 3.96,0 7.09,0.97 9.39,2.9 2.3,1.93 3.48,4.59 3.53,7.96l0 13.76c0.04,2.85 0.48,5.04 1.32,6.55l0 0.49 -9.68 0z"/>
   <path class="fil3" d="M920.13 351.8l0 7.73 5.11 0 0 6.72 -5.11 0 0 14.22c0,1.17 0.21,1.98 0.63,2.44 0.42,0.46 1.25,0.69 2.5,0.69 0.96,0 1.76,-0.06 2.41,-0.17l0 6.92c-1.74,0.55 -3.56,0.83 -5.46,0.83 -3.33,0 -5.79,-0.78 -7.38,-2.35 -1.59,-1.57 -2.38,-3.95 -2.38,-7.15l0 -15.42 -3.96 0 0 -6.72 3.96 0 0 -7.73 9.68 0z"/>
  </g>
 </g>
</svg>
